<?xml version="1.0" encoding="UTF-8" standalone="no"?><svg xmlns="http://www.w3.org/2000/svg" xmlns:xlink="http://www.w3.org/1999/xlink" contentScriptType="application/ecmascript" contentStyleType="text/css" height="494.7917px" preserveAspectRatio="none" style="width:630px;height:494px;" version="1.1" viewBox="0 0 630 494" width="630.2083px" zoomAndPan="magnify"><defs><linearGradient id="g1wgewny7znsl90" x1="50%" x2="50%" y1="0%" y2="100%"><stop offset="0%" stop-color="#4DABF5"/><stop offset="100%" stop-color="#2196F3"/></linearGradient><filter height="300%" id="f1wgewny7znsl9" width="300%" x="-1" y="-1"><feGaussianBlur result="blurOut" stdDeviation="2.0833333333333335"/><feColorMatrix in="blurOut" result="blurOut2" type="matrix" values="0 0 0 0 0 0 0 0 0 0 0 0 0 0 0 0 0 0 .4 0"/><feOffset dx="4.166666666666667" dy="4.166666666666667" in="blurOut2" result="blurOut3"/><feBlend in="SourceGraphic" in2="blurOut3" mode="normal"/></filter></defs><g><rect fill="none" height="48.2361" rx="4.1667" ry="4.1667" style="stroke: none; stroke-width: 1.0416666666666667;" width="184.375" x="226.0417" y="2.0833"/><text fill="#222222" font-family="Verdana" font-size="20.8333" lengthAdjust="spacingAndGlyphs" textLength="155.2083" x="240.625" y="34.4869">materia theme</text><!--class AbstractList--><rect fill="url(#g1wgewny7znsl90)" filter="url(#f1wgewny7znsl9)" height="54.775" id="AbstractList" rx="4.1667" ry="4.1667" style="stroke: #1A78C2; stroke-width: 1.0416666666666667;" width="118.75" x="198.4375" y="258.6528"/><ellipse cx="213.0208" cy="277.7069" fill="#A9DCDF" rx="10.4167" ry="10.4167" style="stroke: #1A78C2; stroke-width: 1.0416666666666667;"/><path d="M214.6484,279.8553 L211.6211,279.8553 L211.3118,280.6203 L211.6211,280.6203 Q212.0605,280.6203 212.2559,280.7912 Q212.4512,280.9621 212.4512,281.2551 Q212.4512,281.5318 212.2559,281.7027 Q212.0605,281.8736 211.6211,281.8736 L209.9284,281.8736 Q209.4727,281.8736 209.2855,281.7027 Q209.0983,281.5318 209.0983,281.2388 Q209.0983,280.9621 209.3018,280.7831 Q209.5052,280.604 209.9609,280.6203 L211.9303,275.7212 L211.1165,275.7212 Q210.6608,275.7212 210.4655,275.5503 Q210.2702,275.3794 210.2702,275.1027 Q210.2702,274.8098 210.4655,274.6389 Q210.6608,274.468 211.1165,274.468 L213.8184,274.468 L216.3086,280.6203 Q216.748,280.6203 216.8783,280.718 Q217.1712,280.9133 217.1712,281.2551 Q217.1712,281.5318 216.9759,281.7027 Q216.7806,281.8736 216.3411,281.8736 L214.6484,281.8736 Q214.1927,281.8736 214.0055,281.7027 Q213.8184,281.5318 213.8184,281.2388 Q213.8184,280.9621 214.0055,280.7912 Q214.1927,280.6203 214.6484,280.6203 L214.9577,280.6203 L214.6484,279.8553 Z M214.1439,278.6021 L213.1348,276.1281 L212.1094,278.6021 L214.1439,278.6021 Z "/><text fill="#FFFFFF" font-family="Verdana" font-size="12.5" font-style="italic" lengthAdjust="spacingAndGlyphs" textLength="75" x="232.8125" y="282.6782">AbstractList</text><line style="stroke: #1A78C2; stroke-width: 1.0416666666666667;" x1="199.4792" x2="316.1458" y1="296.7611" y2="296.7611"/><line style="stroke: #1A78C2; stroke-width: 1.0416666666666667;" x1="199.4792" x2="316.1458" y1="305.0944" y2="305.0944"/><!--class AbstractCollection--><rect fill="url(#g1wgewny7znsl90)" filter="url(#f1wgewny7znsl9)" height="54.775" id="AbstractCollection" rx="4.1667" ry="4.1667" style="stroke: #1A78C2; stroke-width: 1.0416666666666667;" width="155.2083" x="6.25" y="258.6528"/><ellipse cx="20.8333" cy="277.7069" fill="#A9DCDF" rx="10.4167" ry="10.4167" style="stroke: #1A78C2; stroke-width: 1.0416666666666667;"/><path d="M22.4609,279.8553 L19.4336,279.8553 L19.1243,280.6203 L19.4336,280.6203 Q19.873,280.6203 20.0684,280.7912 Q20.2637,280.9621 20.2637,281.2551 Q20.2637,281.5318 20.0684,281.7027 Q19.873,281.8736 19.4336,281.8736 L17.7409,281.8736 Q17.2852,281.8736 17.098,281.7027 Q16.9108,281.5318 16.9108,281.2388 Q16.9108,280.9621 17.1143,280.7831 Q17.3177,280.604 17.7734,280.6203 L19.7428,275.7212 L18.929,275.7212 Q18.4733,275.7212 18.278,275.5503 Q18.0827,275.3794 18.0827,275.1027 Q18.0827,274.8098 18.278,274.6389 Q18.4733,274.468 18.929,274.468 L21.6309,274.468 L24.1211,280.6203 Q24.5605,280.6203 24.6908,280.718 Q24.9837,280.9133 24.9837,281.2551 Q24.9837,281.5318 24.7884,281.7027 Q24.5931,281.8736 24.1536,281.8736 L22.4609,281.8736 Q22.0052,281.8736 21.818,281.7027 Q21.6309,281.5318 21.6309,281.2388 Q21.6309,280.9621 21.818,280.7912 Q22.0052,280.6203 22.4609,280.6203 L22.7702,280.6203 L22.4609,279.8553 Z M21.9564,278.6021 L20.9473,276.1281 L19.9219,278.6021 L21.9564,278.6021 Z "/><text fill="#FFFFFF" font-family="Verdana" font-size="12.5" font-style="italic" lengthAdjust="spacingAndGlyphs" textLength="111.4583" x="40.625" y="282.6782">AbstractCollection</text><line style="stroke: #1A78C2; stroke-width: 1.0416666666666667;" x1="7.2917" x2="160.4167" y1="296.7611" y2="296.7611"/><line style="stroke: #1A78C2; stroke-width: 1.0416666666666667;" x1="7.2917" x2="160.4167" y1="305.0944" y2="305.0944"/><!--class List--><rect fill="url(#g1wgewny7znsl90)" filter="url(#f1wgewny7znsl9)" height="54.775" id="List" rx="4.1667" ry="4.1667" style="stroke: #1A78C2; stroke-width: 1.0416666666666667;" width="66.6667" x="210.9375" y="101.3611"/><ellipse cx="225.5208" cy="120.4152" fill="#B4A7E5" rx="10.4167" ry="10.4167" style="stroke: #1A78C2; stroke-width: 1.0416666666666667;"/><path d="M226.7741,118.4296 L226.7741,123.3287 L228.0436,123.3287 Q228.4831,123.3287 228.6784,123.4996 Q228.8737,123.6705 228.8737,123.9634 Q228.8737,124.2401 228.6784,124.411 Q228.4831,124.5819 228.0436,124.5819 L224.2513,124.5819 Q223.8118,124.5819 223.6165,124.411 Q223.4212,124.2401 223.4212,123.9471 Q223.4212,123.6705 223.6165,123.4996 Q223.8118,123.3287 224.2513,123.3287 L225.5208,123.3287 L225.5208,118.4296 L224.2513,118.4296 Q223.8118,118.4296 223.6165,118.2587 Q223.4212,118.0878 223.4212,117.8111 Q223.4212,117.5181 223.6165,117.3472 Q223.8118,117.1763 224.2513,117.1763 L228.0436,117.1763 Q228.4831,117.1763 228.6784,117.3472 Q228.8737,117.5181 228.8737,117.8111 Q228.8737,118.0878 228.6784,118.2587 Q228.4831,118.4296 228.0436,118.4296 L226.7741,118.4296 Z "/><text fill="#FFFFFF" font-family="Verdana" font-size="12.5" font-style="italic" lengthAdjust="spacingAndGlyphs" textLength="22.9167" x="245.3125" y="125.3866">List</text><line style="stroke: #1A78C2; stroke-width: 1.0416666666666667;" x1="211.9792" x2="276.5625" y1="139.4694" y2="139.4694"/><line style="stroke: #1A78C2; stroke-width: 1.0416666666666667;" x1="211.9792" x2="276.5625" y1="147.8027" y2="147.8027"/><!--class Collection--><rect fill="url(#g1wgewny7znsl90)" filter="url(#f1wgewny7znsl9)" height="54.775" id="Collection" rx="4.1667" ry="4.1667" style="stroke: #1A78C2; stroke-width: 1.0416666666666667;" width="103.125" x="44.7917" y="101.3611"/><ellipse cx="59.375" cy="120.4152" fill="#B4A7E5" rx="10.4167" ry="10.4167" style="stroke: #1A78C2; stroke-width: 1.0416666666666667;"/><path d="M60.6283,118.4296 L60.6283,123.3287 L61.8978,123.3287 Q62.3372,123.3287 62.5326,123.4996 Q62.7279,123.6705 62.7279,123.9634 Q62.7279,124.2401 62.5326,124.411 Q62.3372,124.5819 61.8978,124.5819 L58.1055,124.5819 Q57.666,124.5819 57.4707,124.411 Q57.2754,124.2401 57.2754,123.9471 Q57.2754,123.6705 57.4707,123.4996 Q57.666,123.3287 58.1055,123.3287 L59.375,123.3287 L59.375,118.4296 L58.1055,118.4296 Q57.666,118.4296 57.4707,118.2587 Q57.2754,118.0878 57.2754,117.8111 Q57.2754,117.5181 57.4707,117.3472 Q57.666,117.1763 58.1055,117.1763 L61.8978,117.1763 Q62.3372,117.1763 62.5326,117.3472 Q62.7279,117.5181 62.7279,117.8111 Q62.7279,118.0878 62.5326,118.2587 Q62.3372,118.4296 61.8978,118.4296 L60.6283,118.4296 Z "/><text fill="#FFFFFF" font-family="Verdana" font-size="12.5" font-style="italic" lengthAdjust="spacingAndGlyphs" textLength="59.375" x="79.1667" y="125.3866">Collection</text><line style="stroke: #1A78C2; stroke-width: 1.0416666666666667;" x1="45.8333" x2="146.875" y1="139.4694" y2="139.4694"/><line style="stroke: #1A78C2; stroke-width: 1.0416666666666667;" x1="45.8333" x2="146.875" y1="147.8027" y2="147.8027"/><!--class ArrayList--><rect fill="url(#g1wgewny7znsl90)" filter="url(#f1wgewny7znsl9)" height="107.6263" id="ArrayList" rx="4.1667" ry="4.1667" style="stroke: #1A78C2; stroke-width: 1.0416666666666667;" width="154.1667" x="180.7292" y="376.3611"/><ellipse cx="219.2188" cy="395.4152" fill="#ADD1B2" rx="10.4167" ry="10.4167" style="stroke: #1A78C2; stroke-width: 1.0416666666666667;"/><path d="M220.765,392.5018 Q220.8789,392.3391 221.0173,392.2577 Q221.1556,392.1763 221.3184,392.1763 Q221.5951,392.1763 221.766,392.3716 Q221.9368,392.5669 221.9368,393.0064 L221.9368,394.0806 Q221.9368,394.5201 221.766,394.7154 Q221.5951,394.9107 221.3184,394.9107 Q221.0579,394.9107 220.9115,394.7642 Q220.765,394.634 220.6836,394.2434 Q220.651,393.983 220.5208,393.8527 Q220.2604,393.576 219.8128,393.4133 Q219.3652,393.2505 218.9095,393.2505 Q218.3561,393.2505 217.8841,393.4947 Q217.4121,393.7388 217.054,394.2841 Q216.696,394.8293 216.696,395.5943 L216.696,396.4081 Q216.696,397.3033 217.3551,397.9055 Q218.0143,398.5077 219.1699,398.5077 Q219.8698,398.5077 220.3581,398.3287 Q220.6348,398.2147 220.944,397.8892 Q221.1393,397.6939 221.2533,397.6369 Q221.3672,397.58 221.4974,397.58 Q221.7578,397.58 221.945,397.7671 Q222.1322,397.9543 222.1322,398.2147 Q222.1322,398.4751 221.8717,398.7681 Q221.4974,399.1913 220.9115,399.4354 Q220.1302,399.7609 219.1862,399.7609 Q218.0632,399.7609 217.1842,399.3052 Q216.4518,398.9471 215.9473,398.1496 Q215.4427,397.3521 215.4427,396.4244 L215.4427,395.578 Q215.4427,394.6014 215.8984,393.7551 Q216.3542,392.9087 217.1598,392.453 Q217.9655,391.9973 218.8607,391.9973 Q219.4141,391.9973 219.8861,392.1193 Q220.3581,392.2414 220.765,392.5018 Z "/><text fill="#FFFFFF" font-family="Verdana" font-size="12.5" lengthAdjust="spacingAndGlyphs" textLength="57.2917" x="244.3229" y="400.3866">ArrayList</text><line style="stroke: #1A78C2; stroke-width: 1.0416666666666667;" x1="181.7708" x2="333.8542" y1="414.4694" y2="414.4694"/><text fill="#222222" font-family="Verdana" font-size="11.4583" lengthAdjust="spacingAndGlyphs" textLength="129.1667" x="193.2292" y="436.4059">Object[] elementData</text><line style="stroke: #1A78C2; stroke-width: 1.0416666666666667;" x1="181.7708" x2="333.8542" y1="449.2284" y2="449.2284"/><text fill="#222222" font-family="Verdana" font-size="11.4583" lengthAdjust="spacingAndGlyphs" textLength="33.3333" x="193.2292" y="471.165">size()</text><!--class TimeUnit--><rect fill="url(#g1wgewny7znsl90)" filter="url(#f1wgewny7znsl9)" height="134.052" id="TimeUnit" rx="4.1667" ry="4.1667" style="stroke: #1A78C2; stroke-width: 1.0416666666666667;" width="100" x="314.0625" y="61.7778"/><ellipse cx="328.6458" cy="80.8319" fill="#EB937F" rx="10.4167" ry="10.4167" style="stroke: #1A78C2; stroke-width: 1.0416666666666667;"/><path d="M328.5156,81.9061 L328.5156,83.7453 L331.7057,83.7453 L331.7057,83.0617 Q331.7057,82.6223 331.8766,82.427 Q332.0475,82.2316 332.3242,82.2316 Q332.6009,82.2316 332.7799,82.427 Q332.959,82.6223 332.959,83.0617 L332.959,84.9986 L327.0671,84.9986 Q326.6113,84.9986 326.416,84.8277 Q326.2207,84.6568 326.2207,84.3638 Q326.2207,84.0871 326.416,83.9162 Q326.6113,83.7453 327.0671,83.7453 L327.2624,83.7453 L327.2624,78.8462 L327.0671,78.8462 Q326.6113,78.8462 326.416,78.6753 Q326.2207,78.5044 326.2207,78.2277 Q326.2207,77.9348 326.416,77.7639 Q326.6113,77.593 327.0671,77.593 L332.6823,77.593 L332.6823,79.4973 Q332.6823,79.953 332.5114,80.1402 Q332.3405,80.3274 332.0475,80.3274 Q331.7708,80.3274 331.5999,80.1402 Q331.429,79.953 331.429,79.4973 L331.429,78.8462 L328.5156,78.8462 L328.5156,80.6529 L329.6061,80.6529 Q329.6061,80.1646 329.7038,80.0344 Q329.8828,79.7251 330.2409,79.7251 Q330.5176,79.7251 330.6885,79.9205 Q330.8594,80.1158 330.8594,80.5715 L330.8594,82.0038 Q330.8594,82.4107 330.7617,82.5572 Q330.5664,82.8501 330.2409,82.8501 Q329.8828,82.8501 329.7038,82.5409 Q329.6061,82.4107 329.6061,81.9061 L328.5156,81.9061 Z "/><text fill="#FFFFFF" font-family="Verdana" font-size="12.5" lengthAdjust="spacingAndGlyphs" textLength="56.25" x="348.4375" y="85.8032">TimeUnit</text><line style="stroke: #1A78C2; stroke-width: 1.0416666666666667;" x1="315.1042" x2="413.0208" y1="99.8861" y2="99.8861"/><text fill="#222222" font-family="Verdana" font-size="11.4583" lengthAdjust="spacingAndGlyphs" textLength="33.3333" x="326.5625" y="121.8226">DAYS</text><text fill="#222222" font-family="Verdana" font-size="11.4583" lengthAdjust="spacingAndGlyphs" textLength="42.7083" x="326.5625" y="148.2483">HOURS</text><text fill="#222222" font-family="Verdana" font-size="11.4583" lengthAdjust="spacingAndGlyphs" textLength="54.1667" x="326.5625" y="174.674">MINUTES</text><line style="stroke: #1A78C2; stroke-width: 1.0416666666666667;" x1="315.1042" x2="413.0208" y1="187.4964" y2="187.4964"/><!--class SuppressWarnings--><rect fill="url(#g1wgewny7znsl90)" filter="url(#f1wgewny7znsl9)" height="54.775" id="SuppressWarnings" rx="4.1667" ry="4.1667" style="stroke: #1A78C2; stroke-width: 1.0416666666666667;" width="167.7083" x="451.0417" y="101.3611"/><ellipse cx="465.625" cy="120.4152" fill="#E3664A" rx="10.4167" ry="10.4167" style="stroke: #1A78C2; stroke-width: 1.0416666666666667;"/><path d="M467.0085,118.6086 L467.0085,118.218 Q467.0085,117.6158 466.6585,117.2496 Q466.3086,116.8833 465.7552,116.8833 Q465.3158,116.8833 464.9333,117.1763 Q464.5508,117.4693 464.3555,117.925 Q463.9974,118.7388 463.9974,119.5363 L463.9974,121.3918 Q463.9974,122.8078 464.6322,123.6379 Q465.0553,124.1913 465.7878,124.1913 Q466.1947,124.1913 466.5283,124.0855 Q466.862,123.9797 467.041,123.7925 Q467.2201,123.6053 467.3828,123.6053 Q467.5781,123.6053 467.7083,123.7437 Q467.8385,123.882 467.8385,124.0936 Q467.8385,124.3866 467.4316,124.6796 Q466.8132,125.1027 465.7552,125.1027 Q464.9577,125.1027 464.4206,124.7284 Q463.7533,124.2564 463.4196,123.3287 Q463.0859,122.4009 463.0859,121.4895 L463.0859,119.4712 Q463.0859,118.0064 463.8102,116.981 Q464.5345,115.9556 465.7389,115.9556 Q466.276,115.9556 466.7643,116.1835 Q467.2526,116.4113 467.5944,116.9729 Q467.9362,117.5344 467.9362,118.218 L467.9362,121.5546 Q468.1966,121.6848 468.1966,121.9615 Q468.1966,122.1731 468.0501,122.3114 Q467.9036,122.4497 467.5618,122.4497 L467.0085,122.4497 L467.0085,122.4009 Q466.7155,122.4497 466.5853,122.4497 Q465.8529,122.4497 465.3076,121.9045 Q464.7624,121.3593 464.7624,120.6268 Q464.7624,119.8456 465.3646,119.2596 Q465.9668,118.6737 467.0085,118.6086 Z M467.0085,119.5526 Q466.3574,119.6177 466.0156,119.927 Q465.6738,120.2362 465.6738,120.6431 Q465.6738,120.9849 465.9587,121.2453 Q466.2435,121.5057 466.7155,121.5057 Q466.7969,121.5057 467.0085,121.4895 L467.0085,119.5526 Z "/><text fill="#FFFFFF" font-family="Verdana" font-size="12.5" lengthAdjust="spacingAndGlyphs" textLength="123.9583" x="485.4167" y="125.3866">SuppressWarnings</text><line style="stroke: #1A78C2; stroke-width: 1.0416666666666667;" x1="452.0833" x2="617.7083" y1="139.4694" y2="139.4694"/><line style="stroke: #1A78C2; stroke-width: 1.0416666666666667;" x1="452.0833" x2="617.7083" y1="147.8027" y2="147.8027"/><!--link List to AbstractList--><path d="M248.4365,177.7455 C250.7479,204.2392 253.5375,236.2132 255.4698,258.3632 " fill="none" id="List-AbstractList" style="stroke: #2196F3; stroke-width: 3.125;"/><polygon fill="none" points="241.1458,178.0767,246.599,156.6882,255.674,176.809,241.1458,178.0767" style="stroke: #2196F3; stroke-width: 3.125;"/><!--link Collection to AbstractCollection--><path d="M92.5095,177.7455 C90.3757,204.2392 87.8006,236.2132 86.0168,258.3632 " fill="none" id="Collection-AbstractCollection" style="stroke: #2196F3; stroke-width: 3.125;"/><polygon fill="none" points="85.2647,176.8684,94.2053,156.6882,99.8009,178.0392,85.2647,176.8684" style="stroke: #2196F3; stroke-width: 3.125;"/><!--link Collection to List--><path d="M169.15,128.9653 C183.0417,128.9653 196.9333,128.9653 210.825,128.9653 " fill="none" id="Collection-List" style="stroke: #2196F3; stroke-width: 3.125;"/><polygon fill="none" points="168.901,136.2569,148.0677,128.9653,168.9,121.6736,168.901,136.2569" style="stroke: #2196F3; stroke-width: 3.125;"/><!--link AbstractCollection to AbstractList--><path d="M182.7229,286.2569 C187.8458,286.2569 192.9688,286.2569 198.0927,286.2569 " fill="none" id="AbstractCollection-AbstractList" style="stroke: #2196F3; stroke-width: 3.125;"/><polygon fill="none" points="182.4927,293.5486,161.6594,286.2569,182.4927,278.9653,182.4927,293.5486" style="stroke: #2196F3; stroke-width: 3.125;"/><!--link AbstractList to ArrayList--><path d="M257.8125,334.8163 C257.8125,348.1444 257.8125,362.7121 257.8125,376.3194 " fill="none" id="AbstractList-ArrayList" style="stroke: #2196F3; stroke-width: 3.125;"/><polygon fill="none" points="250.5208,334.7788,257.8125,313.9455,265.1042,334.7788,250.5208,334.7788" style="stroke: #2196F3; stroke-width: 3.125;"/><!--
@startuml







skinparam defaultFontName       "Verdana"
skinparam defaultFontSize       12
skinparam dpi                   100
skinparam shadowing             true
skinparam roundcorner           8
skinparam ParticipantPadding    10
skinparam BoxPadding            2
skinparam Padding               6
skinparam TitleFontColor	    #222
skinparam TitleFontSize	    	20
skinparam TitleBorderThickness 	0
skinparam ArrowColor            #666

skinparam legend {
	BackgroundColor #fff
	BorderColor #cccccc
	FontColor #222
}

skinparam activity {
	TitleFontSize 20
	TitleFontColor #222
	FontColor #FFF
	BorderColor #2196F3
	BackgroundColor #4dabf5-#2196F3
	BarColor #4CAF50
	StartColor #9C27B0
	EndColor #9C27B0
	DiamondBackgroundColor #FFF-#fff
  	DiamondBorderColor #cccccc
	DiamondFontColor #222
}

skinparam sequence {
	BorderColor #2196F3
	TitleFontSize 20
	TitleFontColor #222
	BackgroundColor transparent
	StartColor #2196F3
	EndColor #2196F3
    ParticipantBackgroundColor #4dabf5-#2196F3
    ParticipantBorderColor #2196F3
	ParticipantBorderThickness 0
	ParticipantFontColor #FFF
	ActorBackgroundColor transparent
    ActorBorderColor #2196F3
	ActorFontColor #2196F3
	ArrowThickness 3
	ArrowColor #2196F3
	BoxBackgroundColor #fff
	BoxBorderColor #666
	BoxFontColor #222
	LifeLineBorderColor #cccccc
	LifeLineBorderThickness 0
	LifeLineBackgroundColor #fff
	GroupBorderColor #666
	GroupFontColor #222
	GroupHeaderFontColor #9C27B0
	DividerBackgroundColor #FFF-#fff
    DividerBorderColor #666
    DividerBorderThickness 2
    DividerFontColor #222
	ReferenceBorderColor #666
	ReferenceFontColor #222
	ReferenceHeaderFontColor #9C27B0
}

skinparam partition {
	BorderColor #2196F3
	FontColor #2196F3
	BackgroundColor transparent
}

skinparam collections {
	BackgroundColor #4dabf5-#2196F3
	BorderColor #2196F3
}

skinparam control {
	BackgroundColor  #4dabf5-#2196F3
	BorderColor #1a78c2
	FontColor #222
}

skinparam entity {
	BackgroundColor  #4dabf5-#2196F3
	BorderColor #1a78c2
	FontColor #222
}

skinparam boundary {
	BackgroundColor  #4dabf5-#2196F3
	BorderColor #1a78c2
	FontColor #222
}

skinparam agent {
	BackgroundColor #orange
	BorderColor #999999
	FontColor #333333
}

skinparam note {
	BorderThickness 1
	BackgroundColor #b052c0-#9C27B0
	BorderColor #9C27B0
	FontColor #FFF
}

skinparam artifact {
	BackgroundColor #FFF-#fff
	BorderColor #666
	FontColor #666
}

skinparam component {
	BackgroundColor  #70bf73-#4CAF50
	BorderColor  #4CAF50
	FontColor #FFF
}

skinparam interface {
	BackgroundColor  #ea494f
	BorderColor  #e51c23
	FontColor #222
}

skinparam storage {
	BackgroundColor #ffad33-#ff9800
  	BorderColor #ff9800
	FontColor #FFF
}

skinparam node {
	BackgroundColor #fff-#fff
	BorderColor #222
	FontColor #222
}

skinparam cloud {
	BackgroundColor white-lightskyblue
	BorderColor transparent
	FontColor #222
}

skinparam database {
	BackgroundColor  #4dabf5-#2196F3
	BorderColor #1a78c2
	FontColor #FFF
}

skinparam actor {
	FontColor #222
}

skinparam class {
	HeaderBackgroundColor #2196F3-#1a78c2
	FontColor #FFF
	BackgroundColor #4dabf5-#2196F3
	BorderColor #1a78c2
	StereotypeFontColor #222
	BorderThickness 1
	AttributeFontColor #222
	AttributeFontSize 11
}

skinparam object {
	FontColor #4CAF50
	BackgroundColor #fff-#cccccc
	BorderColor #cccccc
	StereotypeFontColor #222
	BorderThickness 1
	AttributeFontColor #222
	AttributeFontSize 11
}

skinparam usecase {
	BackgroundColor #fff-#fff
	BorderColor #fff
	BorderThickness 2
	FontColor #222
	StereotypeFontColor #2196F3
}

skinparam rectangle {
	BackgroundColor #fff-#cccccc
	BorderColor #1a78c2
	BorderThickness 2
	FontColor #2196F3
	StereotypeFontColor #2196F3
}

skinparam package {
	BackgroundColor #fff-#fff
  	BorderColor #2196F3
	FontColor #2196F3
	BorderThickness 2
}

skinparam folder {
	BackgroundColor #FFF-#fff
  	BorderColor #ff9800
	FontColor #ff9800
	BorderThickness 2
}

skinparam frame {
	BackgroundColor #FFF-#fff
  	BorderColor #9C27B0
	FontColor #9C27B0
	BorderThickness 2
}

skinparam state {
	StartColor #9C27B0
	EndColor #9C27B0
	BackgroundColor #fff-#cccccc
	BorderColor #cccccc
	FontColor #9C27B0
	AttributeFontColor #222
	AttributeFontSize 11
}

title materia theme

skinparam BackgroundColor transparent

abstract class AbstractList
abstract AbstractCollection
interface List
interface Collection

List <|- - AbstractList
Collection <|- - AbstractCollection

Collection <|- List
AbstractCollection <|- AbstractList
AbstractList <|- - ArrayList

class ArrayList {
  Object[] elementData
  size()
}

enum TimeUnit {
  DAYS
  HOURS
  MINUTES
}

annotation SuppressWarnings

@enduml

PlantUML version 1.2019.08(Sat Jul 13 12:25:14 PDT 2019)
(MIT source distribution)
Java Runtime: Java(TM) SE Runtime Environment
JVM: Java HotSpot(TM) 64-Bit Server VM
Java Version: 1.8.0_212-b32
Operating System: Windows 10
OS Version: 10.0
Default Encoding: Cp1252
Language: en
Country: US
--></g></svg>