<?xml version="1.0" encoding="UTF-8" standalone="no"?><svg xmlns="http://www.w3.org/2000/svg" xmlns:xlink="http://www.w3.org/1999/xlink" contentScriptType="application/ecmascript" contentStyleType="text/css" height="494.7917px" preserveAspectRatio="none" style="width:637px;height:494px;" version="1.1" viewBox="0 0 637 494" width="637.5px" zoomAndPan="magnify"><defs><linearGradient id="ge77p27z16ftk0" x1="50%" x2="50%" y1="0%" y2="100%"><stop offset="0%" stop-color="#4DABF5"/><stop offset="100%" stop-color="#2196F3"/></linearGradient><filter height="300%" id="fe77p27z16ftk" width="300%" x="-1" y="-1"><feGaussianBlur result="blurOut" stdDeviation="2.0833333333333335"/><feColorMatrix in="blurOut" result="blurOut2" type="matrix" values="0 0 0 0 0 0 0 0 0 0 0 0 0 0 0 0 0 0 .4 0"/><feOffset dx="4.166666666666667" dy="4.166666666666667" in="blurOut2" result="blurOut3"/><feBlend in="SourceGraphic" in2="blurOut3" mode="normal"/></filter></defs><g><rect fill="none" height="48.2361" rx="4.1667" ry="4.1667" style="stroke: none; stroke-width: 1.0416666666666667;" width="358.3333" x="142.7083" y="2.0833"/><text fill="#222222" font-family="Verdana" font-size="20.8333" lengthAdjust="spacingAndGlyphs" textLength="329.1667" x="157.2917" y="34.4869">Class Diagram - materia theme</text><!--MD5=[3d4177ac58b4411586d067f34e84928f]
class List--><rect fill="url(#ge77p27z16ftk0)" filter="url(#fe77p27z16ftk)" height="54.775" id="List" rx="4.1667" ry="4.1667" style="stroke: #1A78C2; stroke-width: 1.0416666666666667;" width="66.6667" x="218.2292" y="101.3611"/><ellipse cx="232.8125" cy="120.4152" fill="#ADD1B2" rx="10.4167" ry="10.4167" style="stroke: #1A78C2; stroke-width: 1.0416666666666667;"/><path d="M234.3587,117.5018 Q234.4727,117.3391 234.611,117.2577 Q234.7493,117.1763 234.9121,117.1763 Q235.1888,117.1763 235.3597,117.3716 Q235.5306,117.5669 235.5306,118.0064 L235.5306,119.0806 Q235.5306,119.5201 235.3597,119.7154 Q235.1888,119.9107 234.9121,119.9107 Q234.6517,119.9107 234.5052,119.7642 Q234.3587,119.634 234.2773,119.2434 Q234.2448,118.983 234.1146,118.8527 Q233.8542,118.576 233.4066,118.4133 Q232.959,118.2505 232.5033,118.2505 Q231.9499,118.2505 231.4779,118.4947 Q231.0059,118.7388 230.6478,119.2841 Q230.2897,119.8293 230.2897,120.5943 L230.2897,121.4081 Q230.2897,122.3033 230.9489,122.9055 Q231.6081,123.5077 232.7637,123.5077 Q233.4635,123.5077 233.9518,123.3287 Q234.2285,123.2147 234.5378,122.8892 Q234.7331,122.6939 234.847,122.6369 Q234.9609,122.58 235.0911,122.58 Q235.3516,122.58 235.5387,122.7671 Q235.7259,122.9543 235.7259,123.2147 Q235.7259,123.4751 235.4655,123.7681 Q235.0911,124.1913 234.5052,124.4354 Q233.724,124.7609 232.7799,124.7609 Q231.6569,124.7609 230.778,124.3052 Q230.0456,123.9471 229.541,123.1496 Q229.0365,122.3521 229.0365,121.4244 L229.0365,120.578 Q229.0365,119.6014 229.4922,118.7551 Q229.9479,117.9087 230.7536,117.453 Q231.5592,116.9973 232.4544,116.9973 Q233.0078,116.9973 233.4798,117.1193 Q233.9518,117.2414 234.3587,117.5018 Z "/><text fill="#FFFFFF" font-family="Verdana" font-size="12.5" lengthAdjust="spacingAndGlyphs" textLength="22.9167" x="252.6042" y="125.3866">List</text><line style="stroke: #1A78C2; stroke-width: 1.0416666666666667;" x1="219.2708" x2="283.8542" y1="139.4694" y2="139.4694"/><line style="stroke: #1A78C2; stroke-width: 1.0416666666666667;" x1="219.2708" x2="283.8542" y1="147.8027" y2="147.8027"/><!--MD5=[b4fa10df80476353258f72a232547d63]
class AbstractList--><rect fill="url(#ge77p27z16ftk0)" filter="url(#fe77p27z16ftk)" height="54.775" id="AbstractList" rx="4.1667" ry="4.1667" style="stroke: #1A78C2; stroke-width: 1.0416666666666667;" width="120.8333" x="204.6875" y="258.6528"/><ellipse cx="219.2708" cy="277.7069" fill="#ADD1B2" rx="10.4167" ry="10.4167" style="stroke: #1A78C2; stroke-width: 1.0416666666666667;"/><path d="M220.8171,274.7935 Q220.931,274.6307 221.0693,274.5494 Q221.2077,274.468 221.3704,274.468 Q221.6471,274.468 221.818,274.6633 Q221.9889,274.8586 221.9889,275.2981 L221.9889,276.3723 Q221.9889,276.8117 221.818,277.007 Q221.6471,277.2024 221.3704,277.2024 Q221.11,277.2024 220.9635,277.0559 Q220.8171,276.9257 220.7357,276.535 Q220.7031,276.2746 220.5729,276.1444 Q220.3125,275.8677 219.8649,275.705 Q219.4173,275.5422 218.9616,275.5422 Q218.4082,275.5422 217.9362,275.7863 Q217.4642,276.0305 217.1061,276.5757 Q216.748,277.121 216.748,277.8859 L216.748,278.6997 Q216.748,279.5949 217.4072,280.1971 Q218.0664,280.7994 219.222,280.7994 Q219.9219,280.7994 220.4102,280.6203 Q220.6868,280.5064 220.9961,280.1809 Q221.1914,279.9856 221.3053,279.9286 Q221.4193,279.8716 221.5495,279.8716 Q221.8099,279.8716 221.9971,280.0588 Q222.1842,280.246 222.1842,280.5064 Q222.1842,280.7668 221.9238,281.0598 Q221.5495,281.483 220.9635,281.7271 Q220.1823,282.0526 219.2383,282.0526 Q218.1152,282.0526 217.2363,281.5969 Q216.5039,281.2388 215.9993,280.4413 Q215.4948,279.6438 215.4948,278.716 L215.4948,277.8697 Q215.4948,276.8931 215.9505,276.0468 Q216.4063,275.2004 217.2119,274.7447 Q218.0176,274.2889 218.9128,274.2889 Q219.4661,274.2889 219.9382,274.411 Q220.4102,274.5331 220.8171,274.7935 Z "/><text fill="#FFFFFF" font-family="Verdana" font-size="12.5" lengthAdjust="spacingAndGlyphs" textLength="77.0833" x="239.0625" y="282.6782">AbstractList</text><line style="stroke: #1A78C2; stroke-width: 1.0416666666666667;" x1="205.7292" x2="324.4792" y1="296.7611" y2="296.7611"/><line style="stroke: #1A78C2; stroke-width: 1.0416666666666667;" x1="205.7292" x2="324.4792" y1="305.0944" y2="305.0944"/><!--MD5=[c160724f8e3bb89ca8141a12554ac2e3]
class Collection--><rect fill="url(#ge77p27z16ftk0)" filter="url(#fe77p27z16ftk)" height="54.775" id="Collection" rx="4.1667" ry="4.1667" style="stroke: #1A78C2; stroke-width: 1.0416666666666667;" width="107.2917" x="46.875" y="101.3611"/><ellipse cx="61.4583" cy="120.4152" fill="#ADD1B2" rx="10.4167" ry="10.4167" style="stroke: #1A78C2; stroke-width: 1.0416666666666667;"/><path d="M63.0046,117.5018 Q63.1185,117.3391 63.2568,117.2577 Q63.3952,117.1763 63.5579,117.1763 Q63.8346,117.1763 64.0055,117.3716 Q64.1764,117.5669 64.1764,118.0064 L64.1764,119.0806 Q64.1764,119.5201 64.0055,119.7154 Q63.8346,119.9107 63.5579,119.9107 Q63.2975,119.9107 63.151,119.7642 Q63.0046,119.634 62.9232,119.2434 Q62.8906,118.983 62.7604,118.8527 Q62.5,118.576 62.0524,118.4133 Q61.6048,118.2505 61.1491,118.2505 Q60.5957,118.2505 60.1237,118.4947 Q59.6517,118.7388 59.2936,119.2841 Q58.9355,119.8293 58.9355,120.5943 L58.9355,121.4081 Q58.9355,122.3033 59.5947,122.9055 Q60.2539,123.5077 61.4095,123.5077 Q62.1094,123.5077 62.5977,123.3287 Q62.8743,123.2147 63.1836,122.8892 Q63.3789,122.6939 63.4928,122.6369 Q63.6068,122.58 63.737,122.58 Q63.9974,122.58 64.1846,122.7671 Q64.3717,122.9543 64.3717,123.2147 Q64.3717,123.4751 64.1113,123.7681 Q63.737,124.1913 63.151,124.4354 Q62.3698,124.7609 61.4258,124.7609 Q60.3027,124.7609 59.4238,124.3052 Q58.6914,123.9471 58.1868,123.1496 Q57.6823,122.3521 57.6823,121.4244 L57.6823,120.578 Q57.6823,119.6014 58.138,118.7551 Q58.5938,117.9087 59.3994,117.453 Q60.2051,116.9973 61.1003,116.9973 Q61.6536,116.9973 62.1257,117.1193 Q62.5977,117.2414 63.0046,117.5018 Z "/><text fill="#FFFFFF" font-family="Verdana" font-size="12.5" lengthAdjust="spacingAndGlyphs" textLength="63.5417" x="81.25" y="125.3866">Collection</text><line style="stroke: #1A78C2; stroke-width: 1.0416666666666667;" x1="47.9167" x2="153.125" y1="139.4694" y2="139.4694"/><line style="stroke: #1A78C2; stroke-width: 1.0416666666666667;" x1="47.9167" x2="153.125" y1="147.8027" y2="147.8027"/><!--MD5=[8e34b16d8d8f96f4a11290cd523ed859]
class AbstractCollection--><rect fill="url(#ge77p27z16ftk0)" filter="url(#fe77p27z16ftk)" height="54.775" id="AbstractCollection" rx="4.1667" ry="4.1667" style="stroke: #1A78C2; stroke-width: 1.0416666666666667;" width="161.4583" x="6.25" y="258.6528"/><ellipse cx="20.8333" cy="277.7069" fill="#ADD1B2" rx="10.4167" ry="10.4167" style="stroke: #1A78C2; stroke-width: 1.0416666666666667;"/><path d="M22.3796,274.7935 Q22.4935,274.6307 22.6318,274.5494 Q22.7702,274.468 22.9329,274.468 Q23.2096,274.468 23.3805,274.6633 Q23.5514,274.8586 23.5514,275.2981 L23.5514,276.3723 Q23.5514,276.8117 23.3805,277.007 Q23.2096,277.2024 22.9329,277.2024 Q22.6725,277.2024 22.526,277.0559 Q22.3796,276.9257 22.2982,276.535 Q22.2656,276.2746 22.1354,276.1444 Q21.875,275.8677 21.4274,275.705 Q20.9798,275.5422 20.5241,275.5422 Q19.9707,275.5422 19.4987,275.7863 Q19.0267,276.0305 18.6686,276.5757 Q18.3105,277.121 18.3105,277.8859 L18.3105,278.6997 Q18.3105,279.5949 18.9697,280.1971 Q19.6289,280.7994 20.7845,280.7994 Q21.4844,280.7994 21.9727,280.6203 Q22.2493,280.5064 22.5586,280.1809 Q22.7539,279.9856 22.8678,279.9286 Q22.9818,279.8716 23.112,279.8716 Q23.3724,279.8716 23.5596,280.0588 Q23.7467,280.246 23.7467,280.5064 Q23.7467,280.7668 23.4863,281.0598 Q23.112,281.483 22.526,281.7271 Q21.7448,282.0526 20.8008,282.0526 Q19.6777,282.0526 18.7988,281.5969 Q18.0664,281.2388 17.5618,280.4413 Q17.0573,279.6438 17.0573,278.716 L17.0573,277.8697 Q17.0573,276.8931 17.513,276.0468 Q17.9688,275.2004 18.7744,274.7447 Q19.5801,274.2889 20.4753,274.2889 Q21.0286,274.2889 21.5007,274.411 Q21.9727,274.5331 22.3796,274.7935 Z "/><text fill="#FFFFFF" font-family="Verdana" font-size="12.5" lengthAdjust="spacingAndGlyphs" textLength="117.7083" x="40.625" y="282.6782">AbstractCollection</text><line style="stroke: #1A78C2; stroke-width: 1.0416666666666667;" x1="7.2917" x2="166.6667" y1="296.7611" y2="296.7611"/><line style="stroke: #1A78C2; stroke-width: 1.0416666666666667;" x1="7.2917" x2="166.6667" y1="305.0944" y2="305.0944"/><!--MD5=[ab8871ed637f40707b866ba6597734bc]
class ArrayList--><rect fill="url(#ge77p27z16ftk0)" filter="url(#fe77p27z16ftk)" height="107.6263" id="ArrayList" rx="4.1667" ry="4.1667" style="stroke: #1A78C2; stroke-width: 1.0416666666666667;" width="154.1667" x="188.0208" y="376.3611"/><ellipse cx="226.5104" cy="395.4152" fill="#ADD1B2" rx="10.4167" ry="10.4167" style="stroke: #1A78C2; stroke-width: 1.0416666666666667;"/><path d="M228.0566,392.5018 Q228.1706,392.3391 228.3089,392.2577 Q228.4473,392.1763 228.61,392.1763 Q228.8867,392.1763 229.0576,392.3716 Q229.2285,392.5669 229.2285,393.0064 L229.2285,394.0806 Q229.2285,394.5201 229.0576,394.7154 Q228.8867,394.9107 228.61,394.9107 Q228.3496,394.9107 228.2031,394.7642 Q228.0566,394.634 227.9753,394.2434 Q227.9427,393.983 227.8125,393.8527 Q227.5521,393.576 227.1045,393.4133 Q226.6569,393.2505 226.2012,393.2505 Q225.6478,393.2505 225.1758,393.4947 Q224.7038,393.7388 224.3457,394.2841 Q223.9876,394.8293 223.9876,395.5943 L223.9876,396.4081 Q223.9876,397.3033 224.6468,397.9055 Q225.306,398.5077 226.4616,398.5077 Q227.1615,398.5077 227.6497,398.3287 Q227.9264,398.2147 228.2357,397.8892 Q228.431,397.6939 228.5449,397.6369 Q228.6589,397.58 228.7891,397.58 Q229.0495,397.58 229.2367,397.7671 Q229.4238,397.9543 229.4238,398.2147 Q229.4238,398.4751 229.1634,398.7681 Q228.7891,399.1913 228.2031,399.4354 Q227.4219,399.7609 226.4779,399.7609 Q225.3548,399.7609 224.4759,399.3052 Q223.7435,398.9471 223.2389,398.1496 Q222.7344,397.3521 222.7344,396.4244 L222.7344,395.578 Q222.7344,394.6014 223.1901,393.7551 Q223.6458,392.9087 224.4515,392.453 Q225.2572,391.9973 226.1523,391.9973 Q226.7057,391.9973 227.1777,392.1193 Q227.6497,392.2414 228.0566,392.5018 Z "/><text fill="#FFFFFF" font-family="Verdana" font-size="12.5" lengthAdjust="spacingAndGlyphs" textLength="57.2917" x="251.6146" y="400.3866">ArrayList</text><line style="stroke: #1A78C2; stroke-width: 1.0416666666666667;" x1="189.0625" x2="341.1458" y1="414.4694" y2="414.4694"/><text fill="#222222" font-family="Verdana" font-size="11.4583" lengthAdjust="spacingAndGlyphs" textLength="129.1667" x="200.5208" y="436.4059">Object[] elementData</text><line style="stroke: #1A78C2; stroke-width: 1.0416666666666667;" x1="189.0625" x2="341.1458" y1="449.2284" y2="449.2284"/><text fill="#222222" font-family="Verdana" font-size="11.4583" lengthAdjust="spacingAndGlyphs" textLength="33.3333" x="200.5208" y="471.165">size()</text><!--MD5=[15b68e006199004da79ea2a4d117d8e9]
class TimeUnit--><rect fill="url(#ge77p27z16ftk0)" filter="url(#fe77p27z16ftk)" height="134.052" id="TimeUnit" rx="4.1667" ry="4.1667" style="stroke: #1A78C2; stroke-width: 1.0416666666666667;" width="100" x="321.3542" y="61.7778"/><ellipse cx="335.9375" cy="80.8319" fill="#EB937F" rx="10.4167" ry="10.4167" style="stroke: #1A78C2; stroke-width: 1.0416666666666667;"/><path d="M335.8073,81.9061 L335.8073,83.7453 L338.9974,83.7453 L338.9974,83.0617 Q338.9974,82.6223 339.1683,82.427 Q339.3392,82.2316 339.6159,82.2316 Q339.8926,82.2316 340.0716,82.427 Q340.2507,82.6223 340.2507,83.0617 L340.2507,84.9986 L334.3587,84.9986 Q333.903,84.9986 333.7077,84.8277 Q333.5124,84.6568 333.5124,84.3638 Q333.5124,84.0871 333.7077,83.9162 Q333.903,83.7453 334.3587,83.7453 L334.554,83.7453 L334.554,78.8462 L334.3587,78.8462 Q333.903,78.8462 333.7077,78.6753 Q333.5124,78.5044 333.5124,78.2277 Q333.5124,77.9348 333.7077,77.7639 Q333.903,77.593 334.3587,77.593 L339.974,77.593 L339.974,79.4973 Q339.974,79.953 339.8031,80.1402 Q339.6322,80.3274 339.3392,80.3274 Q339.0625,80.3274 338.8916,80.1402 Q338.7207,79.953 338.7207,79.4973 L338.7207,78.8462 L335.8073,78.8462 L335.8073,80.6529 L336.8978,80.6529 Q336.8978,80.1646 336.9954,80.0344 Q337.1745,79.7251 337.5326,79.7251 Q337.8092,79.7251 337.9801,79.9205 Q338.151,80.1158 338.151,80.5715 L338.151,82.0038 Q338.151,82.4107 338.0534,82.5572 Q337.8581,82.8501 337.5326,82.8501 Q337.1745,82.8501 336.9954,82.5409 Q336.8978,82.4107 336.8978,81.9061 L335.8073,81.9061 Z "/><text fill="#FFFFFF" font-family="Verdana" font-size="12.5" lengthAdjust="spacingAndGlyphs" textLength="56.25" x="355.7292" y="85.8032">TimeUnit</text><line style="stroke: #1A78C2; stroke-width: 1.0416666666666667;" x1="322.3958" x2="420.3125" y1="99.8861" y2="99.8861"/><text fill="#222222" font-family="Verdana" font-size="11.4583" lengthAdjust="spacingAndGlyphs" textLength="33.3333" x="333.8542" y="121.8226">DAYS</text><text fill="#222222" font-family="Verdana" font-size="11.4583" lengthAdjust="spacingAndGlyphs" textLength="42.7083" x="333.8542" y="148.2483">HOURS</text><text fill="#222222" font-family="Verdana" font-size="11.4583" lengthAdjust="spacingAndGlyphs" textLength="54.1667" x="333.8542" y="174.674">MINUTES</text><line style="stroke: #1A78C2; stroke-width: 1.0416666666666667;" x1="322.3958" x2="420.3125" y1="187.4964" y2="187.4964"/><!--MD5=[0c8287f799745f7b534bf75518604c1e]
class SuppressWarnings--><rect fill="url(#ge77p27z16ftk0)" filter="url(#fe77p27z16ftk)" height="54.775" id="SuppressWarnings" rx="4.1667" ry="4.1667" style="stroke: #1A78C2; stroke-width: 1.0416666666666667;" width="167.7083" x="458.3333" y="101.3611"/><ellipse cx="472.9167" cy="120.4152" fill="#E3664A" rx="10.4167" ry="10.4167" style="stroke: #1A78C2; stroke-width: 1.0416666666666667;"/><path d="M474.3001,118.6086 L474.3001,118.218 Q474.3001,117.6158 473.9502,117.2496 Q473.6003,116.8833 473.0469,116.8833 Q472.6074,116.8833 472.2249,117.1763 Q471.8424,117.4693 471.6471,117.925 Q471.2891,118.7388 471.2891,119.5363 L471.2891,121.3918 Q471.2891,122.8078 471.9238,123.6379 Q472.347,124.1913 473.0794,124.1913 Q473.4863,124.1913 473.82,124.0855 Q474.1536,123.9797 474.3327,123.7925 Q474.5117,123.6053 474.6745,123.6053 Q474.8698,123.6053 475,123.7437 Q475.1302,123.882 475.1302,124.0936 Q475.1302,124.3866 474.7233,124.6796 Q474.1048,125.1027 473.0469,125.1027 Q472.2493,125.1027 471.7122,124.7284 Q471.0449,124.2564 470.7113,123.3287 Q470.3776,122.4009 470.3776,121.4895 L470.3776,119.4712 Q470.3776,118.0064 471.1019,116.981 Q471.8262,115.9556 473.0306,115.9556 Q473.5677,115.9556 474.056,116.1835 Q474.5443,116.4113 474.8861,116.9729 Q475.2279,117.5344 475.2279,118.218 L475.2279,121.5546 Q475.4883,121.6848 475.4883,121.9615 Q475.4883,122.1731 475.3418,122.3114 Q475.1953,122.4497 474.8535,122.4497 L474.3001,122.4497 L474.3001,122.4009 Q474.0072,122.4497 473.877,122.4497 Q473.1445,122.4497 472.5993,121.9045 Q472.054,121.3593 472.054,120.6268 Q472.054,119.8456 472.6563,119.2596 Q473.2585,118.6737 474.3001,118.6086 Z M474.3001,119.5526 Q473.6491,119.6177 473.3073,119.927 Q472.9655,120.2362 472.9655,120.6431 Q472.9655,120.9849 473.2503,121.2453 Q473.5352,121.5057 474.0072,121.5057 Q474.0885,121.5057 474.3001,121.4895 L474.3001,119.5526 Z "/><text fill="#FFFFFF" font-family="Verdana" font-size="12.5" lengthAdjust="spacingAndGlyphs" textLength="123.9583" x="492.7083" y="125.3866">SuppressWarnings</text><line style="stroke: #1A78C2; stroke-width: 1.0416666666666667;" x1="459.375" x2="625" y1="139.4694" y2="139.4694"/><line style="stroke: #1A78C2; stroke-width: 1.0416666666666667;" x1="459.375" x2="625" y1="147.8027" y2="147.8027"/><!--MD5=[00308d07b6a5721fb0cf5861877e6652]
reverse link List to AbstractList--><path d="M255.7281,177.7455 C258.0396,204.2392 260.8292,236.2132 262.7615,258.3632 " fill="none" id="List&lt;-AbstractList" style="stroke: #2196F3; stroke-width: 3.125;"/><polygon fill="none" points="248.4375,178.0767,253.8906,156.6882,262.9656,176.809,248.4375,178.0767" style="stroke: #2196F3; stroke-width: 3.125;"/><!--MD5=[1822909749df1453bdd84de7a60a3406]
reverse link Collection to AbstractCollection--><path d="M96.3557,177.7455 C94.0442,204.2392 91.2545,236.2132 89.322,258.3632 " fill="none" id="Collection&lt;-AbstractCollection" style="stroke: #2196F3; stroke-width: 3.125;"/><polygon fill="none" points="89.118,176.809,98.1929,156.6882,103.6461,178.0767,89.118,176.809" style="stroke: #2196F3; stroke-width: 3.125;"/><!--MD5=[0159284274f96a472eb2618ad803aaca]
reverse link Collection to List--><path d="M175.174,128.9653 C189.4823,128.9653 203.7906,128.9653 218.0979,128.9653 " fill="none" id="Collection&lt;-List" style="stroke: #2196F3; stroke-width: 3.125;"/><polygon fill="none" points="175.0448,136.2569,154.2115,128.9653,175.0448,121.6736,175.0448,136.2569" style="stroke: #2196F3; stroke-width: 3.125;"/><!--MD5=[7a3a52e8f65ef1a8d8d29530ea5cd870]
reverse link AbstractCollection to AbstractList--><path d="M189.0833,286.2569 C194.2021,286.2569 199.3208,286.2569 204.4385,286.2569 " fill="none" id="AbstractCollection&lt;-AbstractList" style="stroke: #2196F3; stroke-width: 3.125;"/><polygon fill="none" points="188.8729,293.5486,168.0396,286.2569,188.8729,278.9653,188.8729,293.5486" style="stroke: #2196F3; stroke-width: 3.125;"/><!--MD5=[40e4bb1af59cca28d4643aaff05088cc]
reverse link AbstractList to ArrayList--><path d="M265.1042,334.8163 C265.1042,348.1444 265.1042,362.7121 265.1042,376.3194 " fill="none" id="AbstractList&lt;-ArrayList" style="stroke: #2196F3; stroke-width: 3.125;"/><polygon fill="none" points="257.8125,334.7788,265.1042,313.9455,272.3958,334.7788,257.8125,334.7788" style="stroke: #2196F3; stroke-width: 3.125;"/><!--MD5=[862e2fd959a04781b4d2b82df52f561a]
@startuml



skinparam backgroundColor white






skinparam defaultFontName       "Verdana"
skinparam defaultFontSize       12
skinparam dpi                   100
skinparam shadowing             true
skinparam roundcorner           8
skinparam ParticipantPadding    10
skinparam BoxPadding            2
skinparam Padding               6
skinparam TitleFontColor	    #222
skinparam TitleFontSize	    	20
skinparam TitleBorderThickness 	0
skinparam ArrowColor            #666

skinparam legend {
	BackgroundColor #fff
	BorderColor #cccccc
	FontColor #222
}

skinparam activity {
	TitleFontSize 20
	TitleFontColor #222
	FontColor #FFF
	BorderColor #2196F3
	BackgroundColor #4dabf5-#2196F3
	BarColor #4CAF50
	StartColor #9C27B0
	EndColor #9C27B0
	DiamondBackgroundColor #FFF-#fff
  	DiamondBorderColor #cccccc
	DiamondFontColor #222
}

skinparam sequence {
	BorderColor #2196F3
	TitleFontSize 20
	TitleFontColor #222
	BackgroundColor transparent
	StartColor #2196F3
	EndColor #2196F3
    ParticipantBackgroundColor #4dabf5-#2196F3
    ParticipantBorderColor #2196F3
	ParticipantBorderThickness 0
	ParticipantFontColor #FFF
	ActorBackgroundColor transparent
    ActorBorderColor #2196F3
	ActorFontColor #2196F3
	ArrowThickness 3
	ArrowColor #2196F3
	BoxBackgroundColor #fff
	BoxBorderColor #666
	BoxFontColor #222
	LifeLineBorderColor #cccccc
	LifeLineBorderThickness 0
	LifeLineBackgroundColor #fff
	GroupBorderColor #666
	GroupFontColor #222
	GroupHeaderFontColor #9C27B0
	DividerBackgroundColor #FFF-#fff
    DividerBorderColor #666
    DividerBorderThickness 2
    DividerFontColor #222
	ReferenceBackgroundColor white
	ReferenceBorderColor #666
	ReferenceFontColor #222
	ReferenceHeaderFontColor #9C27B0
}

skinparam partition {
	BorderColor #2196F3
	FontColor #2196F3
	BackgroundColor transparent
}

skinparam collections {
	BackgroundColor #4dabf5-#2196F3
	BorderColor #2196F3
}

skinparam control {
	BackgroundColor  #4dabf5-#2196F3
	BorderColor #1a78c2
	FontColor #222
}

skinparam entity {
	BackgroundColor  #4dabf5-#2196F3
	BorderColor #1a78c2
	FontColor #222
}

skinparam boundary {
	BackgroundColor  #4dabf5-#2196F3
	BorderColor #1a78c2
	FontColor #222
}

skinparam agent {
	BackgroundColor #orange
	BorderColor #999999
	FontColor #333333
}

skinparam note {
	BorderThickness 1
	BackgroundColor #b052c0-#9C27B0
	BorderColor #9C27B0
	FontColor #FFF
}

skinparam artifact {
	BackgroundColor #FFF-#fff
	BorderColor #666
	FontColor #666
}

skinparam component {
	BackgroundColor  #70bf73-#4CAF50
	BorderColor  #4CAF50
	FontColor #FFF
}

skinparam interface {
	BackgroundColor  #B7161C
	BorderColor  #e51c23
	FontColor #222
}

skinparam storage {
	BackgroundColor #ffad33-#ff9800
  	BorderColor #ff9800
	FontColor #FFF
}

skinparam node {
	BackgroundColor #fff-#fff
	BorderColor #222
	FontColor #222
}

skinparam cloud {
	BackgroundColor white-lightskyblue
	BorderColor transparent
	FontColor #222
}

skinparam database {
	BackgroundColor  #4dabf5-#2196F3
	BorderColor #1a78c2
	FontColor #222
}

skinparam actor {
	FontColor #222
}

skinparam class {
	HeaderBackgroundColor #2196F3-#1a78c2
	FontColor #FFF
	BackgroundColor #4dabf5-#2196F3
	BorderColor #1a78c2
	StereotypeFontColor #222
	BorderThickness 1
	AttributeFontColor #222
	AttributeFontSize 11
}

skinparam object {
	FontColor #4CAF50
	BackgroundColor #fff-#cccccc
	BorderColor #cccccc
	StereotypeFontColor #222
	BorderThickness 1
	AttributeFontColor #222
	AttributeFontSize 11
}

skinparam usecase {
	BackgroundColor #fff-#fff
	BorderColor #fff
	BorderThickness 2
	FontColor #222
	StereotypeFontColor #2196F3
}

skinparam rectangle {
	BackgroundColor #fff-#cccccc
	BorderColor #1a78c2
	BorderThickness 2
	FontColor #2196F3
	StereotypeFontColor #2196F3
}

skinparam package {
	BackgroundColor #fff-#fff
  	BorderColor #2196F3
	FontColor #2196F3
	BorderThickness 2
}

skinparam folder {
	BackgroundColor #FFF-#fff
  	BorderColor #ff9800
	FontColor #ff9800
	BorderThickness 2
}

skinparam frame {
	BackgroundColor #FFF-#fff
  	BorderColor #9C27B0
	FontColor #9C27B0
	BorderThickness 2
}

skinparam state {
	StartColor #9C27B0
	EndColor #9C27B0
	BackgroundColor #fff-#cccccc
	BorderColor #cccccc
	FontColor #9C27B0
	AttributeFontColor #222
	AttributeFontSize 11
}

skinparam queue {
	BackgroundColor #ff9800-#CC7A00
  	BorderColor #CC7A00
	FontColor #FFF
}

skinparam card {
	BackgroundColor #b052c0-#9C27B0
	BorderColor #9C27B0
	FontColor #FFF
}

skinparam file {
	BackgroundColor #fff-#fff
	BorderColor #666
	FontColor #666

}

skinparam stack {
	BackgroundColor #4dabf5-#1a78c2
	BorderColor #2196F3
	FontColor #FFF
}

title Class Diagram - materia theme



List <|- - AbstractList
Collection <|- - AbstractCollection

Collection <|- List
AbstractCollection <|- AbstractList
AbstractList <|- - ArrayList

Class ArrayList {
  Object[] elementData
  size()
}

enum TimeUnit {
  DAYS
  HOURS
  MINUTES
}

annotation SuppressWarnings

@enduml

PlantUML version 1.2019.11(Sun Sep 22 03:02:15 PDT 2019)
(GPL source distribution)
Java Runtime: Java(TM) SE Runtime Environment
JVM: Java HotSpot(TM) 64-Bit Server VM
Java Version: 1.8.0_212-b32
Operating System: Windows 10
Default Encoding: Cp1252
Language: en
Country: US
--></g></svg>