<?xml version="1.0" encoding="UTF-8" standalone="no"?><svg xmlns="http://www.w3.org/2000/svg" xmlns:xlink="http://www.w3.org/1999/xlink" contentScriptType="application/ecmascript" contentStyleType="text/css" height="494.7917px" preserveAspectRatio="none" style="width:630px;height:494px;" version="1.1" viewBox="0 0 630 494" width="630.2083px" zoomAndPan="magnify"><defs><linearGradient id="gdmfe5v7zm2we0" x1="50%" x2="50%" y1="0%" y2="100%"><stop offset="0%" stop-color="#4DABF5"/><stop offset="100%" stop-color="#1A78C2"/></linearGradient><filter height="300%" id="fdmfe5v7zm2we" width="300%" x="-1" y="-1"><feGaussianBlur result="blurOut" stdDeviation="2.0833333333333335"/><feColorMatrix in="blurOut" result="blurOut2" type="matrix" values="0 0 0 0 0 0 0 0 0 0 0 0 0 0 0 0 0 0 .4 0"/><feOffset dx="4.166666666666667" dy="4.166666666666667" in="blurOut2" result="blurOut3"/><feBlend in="SourceGraphic" in2="blurOut3" mode="normal"/></filter></defs><g><rect fill="none" height="48.2361" rx="4.1667" ry="4.1667" style="stroke: none; stroke-width: 1.0416666666666667;" width="184.375" x="226.0417" y="2.0833"/><text fill="#222222" font-family="Verdana" font-size="20.8333" lengthAdjust="spacingAndGlyphs" textLength="155.2083" x="240.625" y="34.4869">materia theme</text><!--class AbstractList--><rect fill="url(#gdmfe5v7zm2we0)" filter="url(#fdmfe5v7zm2we)" height="54.775" id="AbstractList" rx="4.1667" ry="4.1667" style="stroke: #1A78C2; stroke-width: 1.0416666666666667;" width="118.75" x="198.4375" y="258.6528"/><ellipse cx="213.0208" cy="277.7069" fill="#A9DCDF" rx="10.4167" ry="10.4167" style="stroke: #1A78C2; stroke-width: 1.0416666666666667;"/><path d="M212.6139,274.6633 L211.7676,278.3905 L213.4766,278.3905 L212.6139,274.6633 Z M211.5234,273.0194 L213.7207,273.0194 L216.1784,282.134 L214.3717,282.134 L213.8184,279.8879 L211.4095,279.8879 L210.8561,282.134 L209.0495,282.134 L211.5234,273.0194 Z "/><text fill="#FFFFFF" font-family="Verdana" font-size="12.5" font-style="italic" lengthAdjust="spacingAndGlyphs" textLength="75" x="232.8125" y="282.6782">AbstractList</text><line style="stroke: #1A78C2; stroke-width: 1.0416666666666667;" x1="199.4792" x2="316.1458" y1="296.7611" y2="296.7611"/><line style="stroke: #1A78C2; stroke-width: 1.0416666666666667;" x1="199.4792" x2="316.1458" y1="305.0944" y2="305.0944"/><!--class AbstractCollection--><rect fill="url(#gdmfe5v7zm2we0)" filter="url(#fdmfe5v7zm2we)" height="54.775" id="AbstractCollection" rx="4.1667" ry="4.1667" style="stroke: #1A78C2; stroke-width: 1.0416666666666667;" width="155.2083" x="6.25" y="258.6528"/><ellipse cx="20.8333" cy="277.7069" fill="#A9DCDF" rx="10.4167" ry="10.4167" style="stroke: #1A78C2; stroke-width: 1.0416666666666667;"/><path d="M20.4264,274.6633 L19.5801,278.3905 L21.2891,278.3905 L20.4264,274.6633 Z M19.3359,273.0194 L21.5332,273.0194 L23.9909,282.134 L22.1842,282.134 L21.6309,279.8879 L19.222,279.8879 L18.6686,282.134 L16.862,282.134 L19.3359,273.0194 Z "/><text fill="#FFFFFF" font-family="Verdana" font-size="12.5" font-style="italic" lengthAdjust="spacingAndGlyphs" textLength="111.4583" x="40.625" y="282.6782">AbstractCollection</text><line style="stroke: #1A78C2; stroke-width: 1.0416666666666667;" x1="7.2917" x2="160.4167" y1="296.7611" y2="296.7611"/><line style="stroke: #1A78C2; stroke-width: 1.0416666666666667;" x1="7.2917" x2="160.4167" y1="305.0944" y2="305.0944"/><!--class List--><rect fill="url(#gdmfe5v7zm2we0)" filter="url(#fdmfe5v7zm2we)" height="54.775" id="List" rx="4.1667" ry="4.1667" style="stroke: #1A78C2; stroke-width: 1.0416666666666667;" width="66.6667" x="210.9375" y="101.3611"/><ellipse cx="225.5208" cy="120.4152" fill="#B4A7E5" rx="10.4167" ry="10.4167" style="stroke: #1A78C2; stroke-width: 1.0416666666666667;"/><path d="M222.4121,117.5832 L222.4121,115.9882 L227.832,115.9882 L227.832,117.5832 L226.0254,117.5832 L226.0254,123.5077 L227.832,123.5077 L227.832,125.1027 L222.4121,125.1027 L222.4121,123.5077 L224.2188,123.5077 L224.2188,117.5832 L222.4121,117.5832 Z "/><text fill="#FFFFFF" font-family="Verdana" font-size="12.5" font-style="italic" lengthAdjust="spacingAndGlyphs" textLength="22.9167" x="245.3125" y="125.3866">List</text><line style="stroke: #1A78C2; stroke-width: 1.0416666666666667;" x1="211.9792" x2="276.5625" y1="139.4694" y2="139.4694"/><line style="stroke: #1A78C2; stroke-width: 1.0416666666666667;" x1="211.9792" x2="276.5625" y1="147.8027" y2="147.8027"/><!--class Collection--><rect fill="url(#gdmfe5v7zm2we0)" filter="url(#fdmfe5v7zm2we)" height="54.775" id="Collection" rx="4.1667" ry="4.1667" style="stroke: #1A78C2; stroke-width: 1.0416666666666667;" width="103.125" x="58.3333" y="101.3611"/><ellipse cx="72.9167" cy="120.4152" fill="#B4A7E5" rx="10.4167" ry="10.4167" style="stroke: #1A78C2; stroke-width: 1.0416666666666667;"/><path d="M69.8079,117.5832 L69.8079,115.9882 L75.2279,115.9882 L75.2279,117.5832 L73.4212,117.5832 L73.4212,123.5077 L75.2279,123.5077 L75.2279,125.1027 L69.8079,125.1027 L69.8079,123.5077 L71.6146,123.5077 L71.6146,117.5832 L69.8079,117.5832 Z "/><text fill="#FFFFFF" font-family="Verdana" font-size="12.5" font-style="italic" lengthAdjust="spacingAndGlyphs" textLength="59.375" x="92.7083" y="125.3866">Collection</text><line style="stroke: #1A78C2; stroke-width: 1.0416666666666667;" x1="59.375" x2="160.4167" y1="139.4694" y2="139.4694"/><line style="stroke: #1A78C2; stroke-width: 1.0416666666666667;" x1="59.375" x2="160.4167" y1="147.8027" y2="147.8027"/><!--class ArrayList--><rect fill="url(#gdmfe5v7zm2we0)" filter="url(#fdmfe5v7zm2we)" height="107.6263" id="ArrayList" rx="4.1667" ry="4.1667" style="stroke: #1A78C2; stroke-width: 1.0416666666666667;" width="154.1667" x="180.7292" y="376.3611"/><ellipse cx="219.2188" cy="395.4152" fill="#ADD1B2" rx="10.4167" ry="10.4167" style="stroke: #1A78C2; stroke-width: 1.0416666666666667;"/><path d="M221.123,399.8423 Q220.6999,400.0539 220.2279,400.1678 Q219.7559,400.2818 219.2513,400.2818 Q217.3958,400.2818 216.4193,399.0774 Q215.459,397.8566 215.459,395.5617 Q215.459,393.2505 216.4193,392.0461 Q217.3958,390.8254 219.2513,390.8254 Q219.7559,390.8254 220.2279,390.9393 Q220.7161,391.037 221.123,391.2649 L221.123,393.2668 Q220.6673,392.8436 220.2279,392.6483 Q219.7884,392.4367 219.3327,392.4367 Q218.3398,392.4367 217.8353,393.2343 Q217.3307,394.0155 217.3307,395.5617 Q217.3307,397.0917 217.8353,397.8729 Q218.3398,398.6542 219.3327,398.6542 Q219.7884,398.6542 220.2279,398.4589 Q220.6673,398.2635 221.123,397.8404 L221.123,399.8423 Z "/><text fill="#FFFFFF" font-family="Verdana" font-size="12.5" lengthAdjust="spacingAndGlyphs" textLength="57.2917" x="244.3229" y="400.3866">ArrayList</text><line style="stroke: #1A78C2; stroke-width: 1.0416666666666667;" x1="181.7708" x2="333.8542" y1="414.4694" y2="414.4694"/><text fill="#222222" font-family="Verdana" font-size="11.4583" lengthAdjust="spacingAndGlyphs" textLength="129.1667" x="193.2292" y="436.4059">Object[] elementData</text><line style="stroke: #1A78C2; stroke-width: 1.0416666666666667;" x1="181.7708" x2="333.8542" y1="449.2284" y2="449.2284"/><text fill="#222222" font-family="Verdana" font-size="11.4583" lengthAdjust="spacingAndGlyphs" textLength="33.3333" x="193.2292" y="471.165">size()</text><!--class TimeUnit--><rect fill="url(#gdmfe5v7zm2we0)" filter="url(#fdmfe5v7zm2we)" height="134.052" id="TimeUnit" rx="4.1667" ry="4.1667" style="stroke: #1A78C2; stroke-width: 1.0416666666666667;" width="100" x="314.0625" y="61.7778"/><ellipse cx="328.6458" cy="80.8319" fill="#EB937F" rx="10.4167" ry="10.4167" style="stroke: #1A78C2; stroke-width: 1.0416666666666667;"/><path d="M331.1849,85.5194 L325.5046,85.5194 L325.5046,76.4048 L331.1849,76.4048 L331.1849,77.9999 L327.3112,77.9999 L327.3112,79.953 L330.8105,79.953 L330.8105,81.5481 L327.3112,81.5481 L327.3112,83.9244 L331.1849,83.9244 L331.1849,85.5194 Z "/><text fill="#FFFFFF" font-family="Verdana" font-size="12.5" lengthAdjust="spacingAndGlyphs" textLength="56.25" x="348.4375" y="85.8032">TimeUnit</text><line style="stroke: #1A78C2; stroke-width: 1.0416666666666667;" x1="315.1042" x2="413.0208" y1="99.8861" y2="99.8861"/><text fill="#222222" font-family="Verdana" font-size="11.4583" lengthAdjust="spacingAndGlyphs" textLength="33.3333" x="326.5625" y="121.8226">DAYS</text><text fill="#222222" font-family="Verdana" font-size="11.4583" lengthAdjust="spacingAndGlyphs" textLength="42.7083" x="326.5625" y="148.2483">HOURS</text><text fill="#222222" font-family="Verdana" font-size="11.4583" lengthAdjust="spacingAndGlyphs" textLength="54.1667" x="326.5625" y="174.674">MINUTES</text><line style="stroke: #1A78C2; stroke-width: 1.0416666666666667;" x1="315.1042" x2="413.0208" y1="187.4964" y2="187.4964"/><!--class SuppressWarnings--><rect fill="url(#gdmfe5v7zm2we0)" filter="url(#fdmfe5v7zm2we)" height="54.775" id="SuppressWarnings" rx="4.1667" ry="4.1667" style="stroke: #1A78C2; stroke-width: 1.0416666666666667;" width="167.7083" x="451.0417" y="101.3611"/><ellipse cx="465.625" cy="120.4152" fill="#E3664A" rx="10.4167" ry="10.4167" style="stroke: #1A78C2; stroke-width: 1.0416666666666667;"/><path d="M466.8783,120.2199 Q466.8783,119.5201 466.569,119.1294 Q466.2598,118.7388 465.7064,118.7388 Q465.1693,118.7388 464.86,119.1294 Q464.5508,119.5201 464.5508,120.2199 Q464.5508,120.9035 464.86,121.2941 Q465.1693,121.6848 465.7064,121.6848 Q466.2598,121.6848 466.569,121.2941 Q466.8783,120.9035 466.8783,120.2199 Z M468.0176,122.7102 L466.8132,122.7102 L466.8132,122.2219 Q466.5853,122.5311 466.2598,122.6939 Q465.9505,122.8404 465.5111,122.8404 Q464.5182,122.8404 463.8997,122.1242 Q463.2813,121.3918 463.2813,120.2199 Q463.2813,119.0318 463.8835,118.3156 Q464.502,117.5995 465.5111,117.5995 Q465.9505,117.5995 466.276,117.746 Q466.6016,117.8925 466.8132,118.1854 L466.8132,117.9413 Q466.8132,117.1112 466.3574,116.6555 Q465.9017,116.1997 465.0716,116.1997 Q463.8021,116.1997 462.9883,117.3228 Q462.1908,118.4296 462.1908,120.2199 Q462.1908,122.0917 463.1185,123.2147 Q464.0462,124.3215 465.5924,124.3215 Q466.0807,124.3215 466.5365,124.175 Q466.9922,124.0285 467.4154,123.7356 L467.9688,124.8098 Q467.4805,125.1516 466.8945,125.3143 Q466.3086,125.4934 465.6576,125.4934 Q463.5091,125.4934 462.2396,124.0611 Q460.9701,122.6451 460.9701,120.2199 Q460.9701,117.8599 462.1094,116.4439 Q463.265,115.0279 465.1367,115.0279 Q466.4714,115.0279 467.2363,115.8254 Q468.0176,116.6229 468.0176,118.0227 L468.0176,122.7102 Z "/><text fill="#FFFFFF" font-family="Verdana" font-size="12.5" lengthAdjust="spacingAndGlyphs" textLength="123.9583" x="485.4167" y="125.3866">SuppressWarnings</text><line style="stroke: #1A78C2; stroke-width: 1.0416666666666667;" x1="452.0833" x2="617.7083" y1="139.4694" y2="139.4694"/><line style="stroke: #1A78C2; stroke-width: 1.0416666666666667;" x1="452.0833" x2="617.7083" y1="147.8027" y2="147.8027"/><!--link List to AbstractList--><path d="M248.4813,177.8713 C250.7656,204.4047 253.5059,236.2346 255.4239,258.5118 " fill="none" id="List-AbstractList" style="stroke: #2196F3; stroke-width: 3.125;"/><polygon fill="none" points="241.1829,178.1058,246.6606,156.7238,255.7125,176.8548,241.1829,178.1058" style="stroke: #2196F3; stroke-width: 3.125;"/><!--link Collection to AbstractCollection--><path d="M101.865,177.4717 C97.4589,204.0846 92.1546,236.1226 88.4477,258.5118 " fill="none" id="Collection-AbstractCollection" style="stroke: #2196F3; stroke-width: 3.125;"/><polygon fill="none" points="94.7033,176.0863,105.3,156.7238,109.0908,178.4684,94.7033,176.0863" style="stroke: #2196F3; stroke-width: 3.125;"/><!--link Collection to List--><path d="M182.6906,128.9653 C192.0222,128.9653 201.3538,128.9653 210.6853,128.9653 " fill="none" id="Collection-List" style="stroke: #2196F3; stroke-width: 3.125;"/><polygon fill="none" points="182.4321,136.2568,161.5988,128.9653,182.432,121.6735,182.4321,136.2568" style="stroke: #2196F3; stroke-width: 3.125;"/><!--link AbstractCollection to AbstractList--><path d="M182.7225,286.2569 C187.8458,286.2569 192.9693,286.2569 198.0926,286.2569 " fill="none" id="AbstractCollection-AbstractList" style="stroke: #2196F3; stroke-width: 3.125;"/><polygon fill="none" points="182.4931,293.5485,161.6598,286.2569,182.493,278.9651,182.4931,293.5485" style="stroke: #2196F3; stroke-width: 3.125;"/><!--link AbstractList to ArrayList--><path d="M257.8125,334.8411 C257.8125,348.1299 257.8125,362.6097 257.8125,376.1731 " fill="none" id="AbstractList-ArrayList" style="stroke: #2196F3; stroke-width: 3.125;"/><polygon fill="none" points="250.5209,334.8067,257.8125,313.9734,265.1043,334.8067,250.5209,334.8067" style="stroke: #2196F3; stroke-width: 3.125;"/><!--
@startuml







skinparam defaultFontName       "Verdana"
skinparam defaultFontSize       12
skinparam dpi                   100
skinparam shadowing             true
skinparam roundcorner           8
skinparam ParticipantPadding    10
skinparam BoxPadding            2
skinparam Padding               6
skinparam TitleFontColor	    #222
skinparam TitleFontSize	    	20
skinparam TitleBorderThickness 	0
skinparam ArrowColor            #666

skinparam legend {
	BackgroundColor #fff
	BorderColor #cccccc
	FontColor #222
}

skinparam activity {
	TitleFontSize 20
	TitleFontColor #222
	FontColor #FFF
	BorderColor #2196F3
	BackgroundColor #4dabf5-#2196F3
	BarColor #4CAF50
	StartColor #9C27B0
	EndColor #9C27B0
	DiamondBackgroundColor #FFF-#fff
  	DiamondBorderColor #cccccc
	DiamondFontColor #222
}

skinparam sequence {
	BorderColor #2196F3
	TitleFontSize 20
	TitleFontColor #222
	BackgroundColor transparent
	StartColor #2196F3
	EndColor #2196F3
    ParticipantBackgroundColor #4dabf5-#2196F3
    ParticipantBorderColor #2196F3
	ParticipantBorderThickness 0
	ParticipantFontColor #FFF
	ActorBackgroundColor transparent
    ActorBorderColor #2196F3
	ActorFontColor #2196F3
	ArrowThickness 3
	ArrowColor #2196F3
	BoxBackgroundColor #fff
	BoxBorderColor #666
	BoxFontColor #222
	LifeLineBorderColor #fff
	LifeLineBorderThickness 0
	LifeLineBackgroundColor #fff
	GroupBorderColor #666
	GroupFontColor #222
	GroupHeaderFontColor #9C27B0
	DividerBackgroundColor #FFF-#fff
    DividerBorderColor #666
    DividerBorderThickness 2
    DividerFontColor #222
	ReferenceBorderColor #666
	ReferenceFontColor #222
	ReferenceHeaderFontColor #9C27B0
}

skinparam partition {
	BorderColor #2196F3
	FontColor #2196F3
	BackgroundColor transparent
}

skinparam collections {
	BackgroundColor #4dabf5-#2196F3
	BorderColor #2196F3
}

skinparam control {
	BackgroundColor  #4dabf5-#2196F3
	BorderColor #1a78c2
	FontColor #222
}

skinparam entity {
	BackgroundColor  #4dabf5-#2196F3
	BorderColor #1a78c2
	FontColor #222
}

skinparam boundary {
	BackgroundColor  #4dabf5-#2196F3
	BorderColor #1a78c2
	FontColor #222
}

skinparam agent {
	BackgroundColor #orange
	BorderColor #999999
	FontColor #333333
}

skinparam note {
	BorderThickness 1
	BackgroundColor #b052c0-#9C27B0
	BorderColor #9C27B0
	FontColor #FFF
}

skinparam artifact {
	BackgroundColor #FFF-#fff
	BorderColor #666
	FontColor #222
}

skinparam component {
	BackgroundColor  #70bf73-#4CAF50
	BorderColor  #4CAF50
	FontColor #FFF
}

skinparam interface {
	BackgroundColor  #ea494f
	BorderColor  #e51c23
	FontColor #222
}

skinparam storage {
	BackgroundColor #ffad33-#ff9800
  	BorderColor #ff9800
	FontColor #FFF
}

skinparam node {
	BackgroundColor #fff-#fff
	BorderColor #222
	FontColor #222
}

skinparam cloud {
	BackgroundColor white-lightskyblue
	BorderColor transparent
	FontColor #222
}

skinparam database {
	BackgroundColor  #4dabf5-#2196F3
	BorderColor #1a78c2
	FontColor #FFF
}

skinparam actor {
	FontColor #222
}

skinparam class {
	HeaderBackgroundColor #1a78c2
	FontColor #FFF
	BackgroundColor #4dabf5-#1a78c2
	BorderColor #1a78c2
	StereotypeFontColor #222
	BorderThickness 1
	AttributeFontColor #222
	AttributeFontSize 11
}

skinparam object {
	FontColor #4CAF50
	BackgroundColor #fff-#cccccc
	BorderColor #cccccc
	StereotypeFontColor #222
	BorderThickness 1
	AttributeFontColor #222
	AttributeFontSize 11
}

skinparam usecase {
	BackgroundColor #fff-#fff
	BorderColor #fff
	BorderThickness 2
	FontColor #222
	StereotypeFontColor #2196F3
}

skinparam rectangle {
	BackgroundColor #fff-#cccccc
	BorderColor #1a78c2
	BorderThickness 2
	FontColor #2196F3
	StereotypeFontColor #2196F3
}

skinparam package {
	BackgroundColor #fff-#fff
  	BorderColor #2196F3
	FontColor #2196F3
	BorderThickness 2
}

skinparam folder {
	BackgroundColor #FFF-#fff
  	BorderColor #ff9800
	FontColor #222
	BorderThickness 2
}

skinparam frame {
	BackgroundColor #FFF-#fff
  	BorderColor #9C27B0
	FontColor #222
	BorderThickness 2
}

skinparam state {
  StartColor #9C27B0
  EndColor #9C27B0
  BackgroundColor #fff-#cccccc
  BorderColor #cccccc
  FontColor #222
}

title materia theme

skinparam BackgroundColor transparent

abstract class AbstractList
abstract AbstractCollection
interface List
interface Collection

List <|- - AbstractList
Collection <|- - AbstractCollection

Collection <|- List
AbstractCollection <|- AbstractList
AbstractList <|- - ArrayList

class ArrayList {
  Object[] elementData
  size()
}

enum TimeUnit {
  DAYS
  HOURS
  MINUTES
}

annotation SuppressWarnings

@enduml

PlantUML version 1.2019.08(Sat Jul 13 12:25:14 PDT 2019)
(MIT source distribution)
Java Runtime: OpenJDK Runtime Environment
JVM: OpenJDK 64-Bit Server VM
Java Version: 11.0.4+11-post-Ubuntu-1ubuntu218.04.3
Operating System: Linux
OS Version: 4.15.0-64-lowlatency
Default Encoding: UTF-8
Language: en
Country: US
--></g></svg>