<?xml version="1.0" encoding="UTF-8" standalone="no"?><svg xmlns="http://www.w3.org/2000/svg" xmlns:xlink="http://www.w3.org/1999/xlink" contentScriptType="application/ecmascript" contentStyleType="text/css" height="569.7917px" preserveAspectRatio="none" style="width:723px;height:569px;" version="1.1" viewBox="0 0 723 569" width="723.9583px" zoomAndPan="magnify"><defs><linearGradient id="gsqpkbsce505e0" x1="50%" x2="50%" y1="0%" y2="100%"><stop offset="0%" stop-color="#FFFFFF"/><stop offset="100%" stop-color="#FFFFFF"/></linearGradient><filter height="300%" id="fsqpkbsce505e" width="300%" x="-1" y="-1"><feGaussianBlur result="blurOut" stdDeviation="2.0833333333333335"/><feColorMatrix in="blurOut" result="blurOut2" type="matrix" values="0 0 0 0 0 0 0 0 0 0 0 0 0 0 0 0 0 0 .4 0"/><feOffset dx="4.166666666666667" dy="4.166666666666667" in="blurOut2" result="blurOut3"/><feBlend in="SourceGraphic" in2="blurOut3" mode="normal"/></filter><linearGradient id="gsqpkbsce505e1" x1="50%" x2="50%" y1="0%" y2="100%"><stop offset="0%" stop-color="#FFFFFF"/><stop offset="100%" stop-color="#87CEFA"/></linearGradient><linearGradient id="gsqpkbsce505e2" x1="50%" x2="50%" y1="0%" y2="100%"><stop offset="0%" stop-color="#4DABF5"/><stop offset="100%" stop-color="#2196F3"/></linearGradient><linearGradient id="gsqpkbsce505e3" x1="50%" x2="50%" y1="0%" y2="100%"><stop offset="0%" stop-color="#70BF73"/><stop offset="100%" stop-color="#4CAF50"/></linearGradient><linearGradient id="gsqpkbsce505e4" x1="50%" x2="50%" y1="0%" y2="100%"><stop offset="0%" stop-color="#FFAD33"/><stop offset="100%" stop-color="#FF9800"/></linearGradient></defs><g><rect fill="none" height="48.2361" rx="4.1667" ry="4.1667" style="stroke: none; stroke-width: 1.0416666666666667;" width="184.375" x="273.4375" y="2.0833"/><text fill="#222222" font-family="Verdana" font-size="20.8333" lengthAdjust="spacingAndGlyphs" textLength="155.2083" x="288.0208" y="34.4869">materia theme</text><!--cluster My Package--><path d="M18.75,70.6319 L111.4583,70.6319 A6.25,6.25 0 0 1 115.625,74.7986 L122.9167,104.5736 L425,104.5736 A4.1667,4.1667 0 0 1 429.1667,108.7402 L429.1667,162.2986 A4.1667,4.1667 0 0 1 425,166.4653 L18.75,166.4653 A4.1667,4.1667 0 0 1 14.5833,162.2986 L14.5833,74.7986 A4.1667,4.1667 0 0 1 18.75,70.6319 " fill="url(#gsqpkbsce505e0)" filter="url(#fsqpkbsce505e)" style="stroke: #2196F3; stroke-width: 1.5625;"/><line style="stroke: #2196F3; stroke-width: 1.5625;" x1="14.5833" x2="122.9167" y1="104.5736" y2="104.5736"/><text fill="#2196F3" font-family="Verdana" font-size="12.5" font-weight="bold" lengthAdjust="spacingAndGlyphs" textLength="82.2917" x="25" y="91.5324">My Package</text><!--cluster My Node--><polygon fill="url(#gsqpkbsce505e0)" filter="url(#fsqpkbsce505e)" points="40.625,188.8611,51.0417,178.4444,275,178.4444,275,269.0694,264.5833,279.4861,40.625,279.4861,40.625,188.8611" style="stroke: #222222; stroke-width: 1.5625;"/><line style="stroke: #222222; stroke-width: 1.5625;" x1="264.5833" x2="273.9583" y1="188.8611" y2="179.4861"/><line style="stroke: #222222; stroke-width: 1.5625;" x1="40.625" x2="264.5833" y1="188.8611" y2="188.8611"/><line style="stroke: #222222; stroke-width: 1.5625;" x1="264.5833" x2="264.5833" y1="188.8611" y2="279.4861"/><text fill="#222222" font-family="Verdana" font-size="12.5" font-weight="bold" lengthAdjust="spacingAndGlyphs" textLength="59.375" x="123.9583" y="210.8032">My Node</text><!--cluster My Cloud--><path d="M303.3634,192.9519 C306.5473,185.9061 310.6893,186.1607 315.6378,191.1525 C318.6027,183.6643 323.4919,183.509 328.3096,189.3974 C330.676,182.0071 335.5415,180.8548 340.8848,186.533 C343.6815,180.6082 350.0665,178.2241 354.2054,185.1407 C358.4464,180.0606 364.7556,180.89 367.4248,186.9978 C372.299,181.5906 375.9101,183.5334 378.6749,189.1504 C384.2923,183.2672 389.3443,184.327 392.3452,191.8237 C396.5698,185.6834 400.8784,186.5691 404.1652,192.7253 C411.2134,196.7072 410.4221,200.9167 405.1537,205.8279 C411.8592,207.7653 414.8915,213.1285 409.2133,218.909 C415.3244,222.8882 416.4452,226.7555 410.5701,231.9789 C416.6704,237.9184 415.9973,243.8253 407.5724,246.8336 C412.7248,251.0419 412.7066,254.4679 407.0927,258.2227 C413.4812,263.859 411.4938,270.399 403.3506,272.1233 C400.4898,279.0818 396.4233,280.3176 390.9929,274.6356 C388.618,280.9206 384.7816,281.8903 380.1021,276.8522 C377.9447,284.8492 372.6709,285.0415 367.0563,280.429 C364.4773,286.043 358.6064,287.6055 354.506,282.1547 C349.6964,287.7141 345.5015,286.2239 342.5163,280.257 C337.1522,287.127 331.8423,285.0762 328.5881,278.13 C323.3616,281.7812 318.9812,280.1559 317.5971,273.8771 C312.4089,278.9319 306.8712,279.4947 303.9549,271.5018 C296.5947,267.7347 297.6408,263.1774 303.0417,258.513 C297.4099,254.1081 296.9767,250.1752 303.1666,245.8872 C296.817,242.4034 296.2723,237.0577 301.4271,232.1201 C296.6928,228.151 297.902,222.719 303.1499,220.1916 C296.8636,215.3859 296.6347,210.1875 304.2412,206.4882 C297.4406,202.2356 296.3432,198.1006 303.3634,192.9519 " fill="url(#gsqpkbsce505e1)" style="stroke: #FFFFFF; stroke-width: 1.5625;"/><text fill="#222222" font-family="Verdana" font-size="12.5" font-weight="bold" lengthAdjust="spacingAndGlyphs" textLength="62.5" x="321.875" y="216.0116">My Cloud</text><!--cluster My Database--><path d="M292.7083,298.2361 C292.7083,287.8194 353.125,287.8194 353.125,287.8194 C353.125,287.8194 413.5417,287.8194 413.5417,298.2361 L413.5417,547.1944 C413.5417,557.6111 353.125,557.6111 353.125,557.6111 C353.125,557.6111 292.7083,557.6111 292.7083,547.1944 L292.7083,298.2361 " fill="url(#gsqpkbsce505e2)" filter="url(#fsqpkbsce505e)" style="stroke: #1A78C2; stroke-width: 1.5625;"/><path d="M292.7083,298.2361 C292.7083,308.6528 353.125,308.6528 353.125,308.6528 C353.125,308.6528 413.5417,308.6528 413.5417,298.2361 " fill="none" style="stroke: #1A78C2; stroke-width: 1.5625;"/><text fill="#FFFFFF" font-family="Verdana" font-size="12.5" font-weight="bold" lengthAdjust="spacingAndGlyphs" textLength="88.5417" x="308.8542" y="329.5532">My Database</text><!--cluster My folder--><path d="M305.2083,341.9861 L380.2083,341.9861 A6.25,6.25 0 0 1 384.375,346.1528 L391.6667,375.9277 L401.0417,375.9277 A4.1667,4.1667 0 0 1 405.2083,380.0944 L405.2083,433.6528 A4.1667,4.1667 0 0 1 401.0417,437.8194 L305.2083,437.8194 A4.1667,4.1667 0 0 1 301.0417,433.6528 L301.0417,346.1528 A4.1667,4.1667 0 0 1 305.2083,341.9861 " fill="url(#gsqpkbsce505e0)" filter="url(#fsqpkbsce505e)" style="stroke: #FF9800; stroke-width: 1.5625;"/><line style="stroke: #FF9800; stroke-width: 1.5625;" x1="301.0417" x2="391.6667" y1="375.9277" y2="375.9277"/><text fill="#222222" font-family="Verdana" font-size="12.5" font-weight="bold" lengthAdjust="spacingAndGlyphs" textLength="64.5833" x="311.4583" y="362.8866">My folder</text><!--cluster My Frame--><rect fill="url(#gsqpkbsce505e0)" filter="url(#fsqpkbsce505e)" height="95.8333" rx="4.1667" ry="4.1667" style="stroke: #9C27B0; stroke-width: 1.5625;" width="104.1667" x="301.0417" y="453.4444"/><path d="M391.6667,454.4861 L391.6667,473.8444 L381.25,484.2611 L301.0417,484.2611 " fill="none" style="stroke: #9C27B0; stroke-width: 1.5625;"/><text fill="#222222" font-family="Verdana" font-size="12.5" font-weight="bold" lengthAdjust="spacingAndGlyphs" textLength="67.7083" x="310.4167" y="473.3032">My Frame</text><!--entity HTTP--><ellipse cx="210.4167" cy="133.6528" fill="#EA494F" filter="url(#fsqpkbsce505e)" rx="8.3333" ry="8.3333" style="stroke: #E51C23; stroke-width: 2.0833333333333335;"/><text fill="#222222" font-family="Verdana" font-size="12.5" lengthAdjust="spacingAndGlyphs" textLength="32.2917" x="194.2708" y="170.1782">HTTP</text><!--entity First Component--><rect fill="url(#gsqpkbsce505e3)" filter="url(#fsqpkbsce505e)" height="48.525" rx="4.1667" ry="4.1667" style="stroke: #4CAF50; stroke-width: 1.5625;" width="141.6667" x="22.9167" y="109.1736"/><rect fill="url(#gsqpkbsce505e3)" height="5.2083" style="stroke: #4CAF50; stroke-width: 1.5625;" width="10.4167" x="17.7083" y="114.3819"/><rect fill="url(#gsqpkbsce505e3)" height="5.2083" style="stroke: #4CAF50; stroke-width: 1.5625;" width="10.4167" x="17.7083" y="147.2819"/><text fill="#FFFFFF" font-family="Verdana" font-size="12.5" lengthAdjust="spacingAndGlyphs" textLength="108.3333" x="39.5833" y="138.4074">First Component</text><!--entity Another Component--><rect fill="url(#gsqpkbsce505e3)" filter="url(#fsqpkbsce505e)" height="48.525" rx="4.1667" ry="4.1667" style="stroke: #4CAF50; stroke-width: 1.5625;" width="165.625" x="255.7292" y="109.1736"/><rect fill="url(#gsqpkbsce505e3)" height="5.2083" style="stroke: #4CAF50; stroke-width: 1.5625;" width="10.4167" x="250.5208" y="114.3819"/><rect fill="url(#gsqpkbsce505e3)" height="5.2083" style="stroke: #4CAF50; stroke-width: 1.5625;" width="10.4167" x="250.5208" y="147.2819"/><text fill="#FFFFFF" font-family="Verdana" font-size="12.5" lengthAdjust="spacingAndGlyphs" textLength="132.2917" x="272.3958" y="138.4074">Another Component</text><!--entity FTP--><ellipse cx="58.3333" cy="246.6736" fill="#EA494F" filter="url(#fsqpkbsce505e)" rx="8.3333" ry="8.3333" style="stroke: #E51C23; stroke-width: 2.0833333333333335;"/><text fill="#222222" font-family="Verdana" font-size="12.5" lengthAdjust="spacingAndGlyphs" textLength="22.9167" x="46.875" y="283.1991">FTP</text><!--entity Second Component--><rect fill="url(#gsqpkbsce505e3)" filter="url(#fsqpkbsce505e)" height="48.525" rx="4.1667" ry="4.1667" style="stroke: #4CAF50; stroke-width: 1.5625;" width="161.4583" x="104.6875" y="222.1944"/><rect fill="url(#gsqpkbsce505e3)" height="5.2083" style="stroke: #4CAF50; stroke-width: 1.5625;" width="10.4167" x="99.4792" y="227.4028"/><rect fill="url(#gsqpkbsce505e3)" height="5.2083" style="stroke: #4CAF50; stroke-width: 1.5625;" width="10.4167" x="99.4792" y="260.3027"/><text fill="#FFFFFF" font-family="Verdana" font-size="12.5" lengthAdjust="spacingAndGlyphs" textLength="128.125" x="121.3542" y="251.4282">Second Component</text><!--entity Example 1--><rect fill="url(#gsqpkbsce505e3)" filter="url(#fsqpkbsce505e)" height="48.525" rx="4.1667" ry="4.1667" style="stroke: #4CAF50; stroke-width: 1.5625;" width="101.0417" x="302.6042" y="222.1944"/><rect fill="url(#gsqpkbsce505e3)" height="5.2083" style="stroke: #4CAF50; stroke-width: 1.5625;" width="10.4167" x="297.3958" y="227.4028"/><rect fill="url(#gsqpkbsce505e3)" height="5.2083" style="stroke: #4CAF50; stroke-width: 1.5625;" width="10.4167" x="297.3958" y="260.3027"/><text fill="#FFFFFF" font-family="Verdana" font-size="12.5" lengthAdjust="spacingAndGlyphs" textLength="67.7083" x="319.2708" y="251.4282">Example 1</text><!--entity Folder 3--><rect fill="url(#gsqpkbsce505e3)" filter="url(#fsqpkbsce505e)" height="48.525" rx="4.1667" ry="4.1667" style="stroke: #4CAF50; stroke-width: 1.5625;" width="86.4583" x="309.8958" y="380.5278"/><rect fill="url(#gsqpkbsce505e3)" height="5.2083" style="stroke: #4CAF50; stroke-width: 1.5625;" width="10.4167" x="304.6875" y="385.7361"/><rect fill="url(#gsqpkbsce505e3)" height="5.2083" style="stroke: #4CAF50; stroke-width: 1.5625;" width="10.4167" x="304.6875" y="418.6361"/><text fill="#FFFFFF" font-family="Verdana" font-size="12.5" lengthAdjust="spacingAndGlyphs" textLength="53.125" x="326.5625" y="409.7616">Folder 3</text><!--entity Frame 4--><rect fill="url(#gsqpkbsce505e3)" filter="url(#fsqpkbsce505e)" height="48.525" rx="4.1667" ry="4.1667" style="stroke: #4CAF50; stroke-width: 1.5625;" width="86.4583" x="309.8958" y="491.9861"/><rect fill="url(#gsqpkbsce505e3)" height="5.2083" style="stroke: #4CAF50; stroke-width: 1.5625;" width="10.4167" x="304.6875" y="497.1944"/><rect fill="url(#gsqpkbsce505e3)" height="5.2083" style="stroke: #4CAF50; stroke-width: 1.5625;" width="10.4167" x="304.6875" y="530.0944"/><text fill="#FFFFFF" font-family="Verdana" font-size="12.5" lengthAdjust="spacingAndGlyphs" textLength="53.125" x="326.5625" y="521.2199">Frame 4</text><!--entity My Artifact--><rect fill="url(#gsqpkbsce505e0)" filter="url(#fsqpkbsce505e)" height="51.65" rx="4.1667" ry="4.1667" style="stroke: #666666; stroke-width: 1.5625;" width="111.4583" x="457.8125" y="107.6111"/><polygon fill="url(#gsqpkbsce505e0)" points="551.5625,112.8194,551.5625,127.4028,564.0625,127.4028,564.0625,119.0694,557.8125,112.8194,551.5625,112.8194" style="stroke: #666666; stroke-width: 1.5625;"/><line style="stroke: #666666; stroke-width: 1.5625;" x1="557.8125" x2="557.8125" y1="112.8194" y2="119.0694"/><line style="stroke: #666666; stroke-width: 1.5625;" x1="564.0625" x2="557.8125" y1="119.0694" y2="119.0694"/><text fill="#222222" font-family="Verdana" font-size="12.5" lengthAdjust="spacingAndGlyphs" textLength="67.7083" x="474.4792" y="139.9699">My Artifact</text><!--entity My Storage--><rect fill="url(#gsqpkbsce505e4)" filter="url(#fsqpkbsce505e)" height="48.525" rx="36.4583" ry="36.4583" style="stroke: #FF9800; stroke-width: 1.5625;" width="107.2917" x="605.7292" y="109.1736"/><text fill="#FFFFFF" font-family="Verdana" font-size="12.5" lengthAdjust="spacingAndGlyphs" textLength="73.9583" x="622.3958" y="138.4074">My Storage</text><!--link HTTP to First Component--><path d="M200.8036,133.6528 C188.817,133.6528 176.8304,133.6528 164.8438,133.6528 " fill="none" id="HTTP-First Component" style="stroke: #2196F3; stroke-width: 3.125;"/><!--link FTP to Second Component--><path d="M67.7653,246.6736 C80.0206,246.6736 92.276,246.6736 104.5314,246.6736 " fill="none" id="FTP-Second Component" style="stroke: #2196F3; stroke-width: 3.125;"/><!--link First Component to FTP--><path d="M86.0651,158.1766 C79.0222,180.6519 68.8251,213.1926 62.9591,231.9122 " fill="none" id="First Component-FTP" style="stroke: #2196F3; stroke-width: 3.125;"/><polygon fill="#2196F3" points="61.2858,237.2515,68.0652,229.5514,62.8433,232.2815,60.1132,227.0595,61.2858,237.2515" style="stroke: #2196F3; stroke-width: 3.125;"/><!--link Another Component to Example 1--><path d="M341.706,158.1766 C343.9076,175.239 346.8577,198.1024 349.2078,216.3158 " fill="none" id="Another Component-Example 1" style="stroke: #2196F3; stroke-width: 3.125;"/><polygon fill="#2196F3" points="349.9165,221.8073,352.8489,211.9761,349.2498,216.6418,344.5841,213.0428,349.9165,221.8073" style="stroke: #2196F3; stroke-width: 3.125;"/><!--link Example 1 to Folder 3--><path d="M353.125,271.4132 C353.125,299.4158 353.125,345.0272 353.125,375.0286 " fill="none" id="Example 1-Folder 3" style="stroke: #2196F3; stroke-width: 3.125;"/><polygon fill="#2196F3" points="353.125,380.4411,357.2917,371.0661,353.125,375.2328,348.9583,371.0661,353.125,380.4411" style="stroke: #2196F3; stroke-width: 3.125;"/><!--link Folder 3 to Frame 4--><path d="M353.125,429.7432 C353.125,446.482 353.125,468.6909 353.125,486.443 " fill="none" id="Folder 3-Frame 4" style="stroke: #2196F3; stroke-width: 3.125;"/><polygon fill="#2196F3" points="353.125,491.7982,357.2917,482.4232,353.125,486.5898,348.9583,482.4232,353.125,491.7982" style="stroke: #2196F3; stroke-width: 3.125;"/><!--
@startuml







skinparam defaultFontName       "Verdana"
skinparam defaultFontSize       12
skinparam dpi                   100
skinparam shadowing             true
skinparam roundcorner           8
skinparam ParticipantPadding    10
skinparam BoxPadding            2
skinparam Padding               6
skinparam TitleFontColor	    #222
skinparam TitleFontSize	    	20
skinparam TitleBorderThickness 	0
skinparam ArrowColor            #666

skinparam legend {
	BackgroundColor #fff
	BorderColor #cccccc
	FontColor #222
}

skinparam activity {
	TitleFontSize 20
	TitleFontColor #222
	FontColor #FFF
	BorderColor #2196F3
	BackgroundColor #4dabf5-#2196F3
	BarColor #4CAF50
	StartColor #9C27B0
	EndColor #9C27B0
	DiamondBackgroundColor #FFF-#fff
  	DiamondBorderColor #cccccc
	DiamondFontColor #222
}

skinparam sequence {
	BorderColor #2196F3
	TitleFontSize 20
	TitleFontColor #222
	BackgroundColor transparent
	StartColor #2196F3
	EndColor #2196F3
    ParticipantBackgroundColor #4dabf5-#2196F3
    ParticipantBorderColor #2196F3
	ParticipantBorderThickness 0
	ParticipantFontColor #FFF
	ActorBackgroundColor transparent
    ActorBorderColor #2196F3
	ActorFontColor #2196F3
	ArrowThickness 3
	ArrowColor #2196F3
	BoxBackgroundColor #fff
	BoxBorderColor #666
	BoxFontColor #222
	LifeLineBorderColor #fff
	LifeLineBorderThickness 0
	LifeLineBackgroundColor #fff
	GroupBorderColor #666
	GroupFontColor #222
	GroupHeaderFontColor #9C27B0
	DividerBackgroundColor #FFF-#fff
    DividerBorderColor #666
    DividerBorderThickness 2
    DividerFontColor #222
	ReferenceBorderColor #666
	ReferenceFontColor #222
	ReferenceHeaderFontColor #9C27B0
}

skinparam partition {
	BorderColor #2196F3
	FontColor #2196F3
	BackgroundColor transparent
}

skinparam collections {
	BackgroundColor #4dabf5-#2196F3
	BorderColor #2196F3
}

skinparam control {
	BackgroundColor  #4dabf5-#2196F3
	BorderColor #1a78c2
	FontColor #222
}

skinparam entity {
	BackgroundColor  #4dabf5-#2196F3
	BorderColor #1a78c2
	FontColor #222
}

skinparam boundary {
	BackgroundColor  #4dabf5-#2196F3
	BorderColor #1a78c2
	FontColor #222
}

skinparam agent {
	BackgroundColor #orange
	BorderColor #999999
	FontColor #333333
}

skinparam note {
	BorderThickness 1
	BackgroundColor #b052c0-#9C27B0
	BorderColor #9C27B0
	FontColor #FFF
}

skinparam artifact {
	BackgroundColor #FFF-#fff
	BorderColor #666
	FontColor #222
}

skinparam component {
	BackgroundColor  #70bf73-#4CAF50
	BorderColor  #4CAF50
	FontColor #FFF
}

skinparam interface {
	BackgroundColor  #ea494f
	BorderColor  #e51c23
	FontColor #222
}

skinparam storage {
	BackgroundColor #ffad33-#ff9800
  	BorderColor #ff9800
	FontColor #FFF
}

skinparam node {
	BackgroundColor #fff-#fff
	BorderColor #222
	FontColor #222
}

skinparam cloud {
	BackgroundColor white-lightskyblue
	BorderColor transparent
	FontColor #222
}

skinparam database {
	BackgroundColor  #4dabf5-#2196F3
	BorderColor #1a78c2
	FontColor #FFF
}

skinparam actor {
	FontColor #222
}

skinparam class {
	HeaderBackgroundColor #1a78c2
	FontColor #FFF
	BackgroundColor #4dabf5-#1a78c2
	BorderColor #1a78c2
	StereotypeFontColor #222
	BorderThickness 1
	AttributeFontColor #222
	AttributeFontSize 11
}

skinparam object {
	FontColor #4CAF50
	BackgroundColor #fff-#cccccc
	BorderColor #cccccc
	StereotypeFontColor #222
	BorderThickness 1
	AttributeFontColor #222
	AttributeFontSize 11
}

skinparam usecase {
	BackgroundColor #fff-#fff
	BorderColor #fff
	BorderThickness 2
	FontColor #222
	StereotypeFontColor #2196F3
}

skinparam rectangle {
	BackgroundColor #fff-#cccccc
	BorderColor #1a78c2
	BorderThickness 2
	FontColor #2196F3
	StereotypeFontColor #2196F3
}

skinparam package {
	BackgroundColor #fff-#fff
  	BorderColor #2196F3
	FontColor #2196F3
	BorderThickness 2
}

skinparam folder {
	BackgroundColor #FFF-#fff
  	BorderColor #ff9800
	FontColor #222
	BorderThickness 2
}

skinparam frame {
	BackgroundColor #FFF-#fff
  	BorderColor #9C27B0
	FontColor #222
	BorderThickness 2
}

skinparam state {
  StartColor #9C27B0
  EndColor #9C27B0
  BackgroundColor #fff-#cccccc
  BorderColor #cccccc
  FontColor #222
}

title materia theme

skinparam BackgroundColor transparent

package "My Package" {
  HTTP - [First Component]
  [Another Component]
}
 
node "My Node" {
  FTP - [Second Component]
  [First Component] - -> FTP
} 

cloud "My Cloud" {
  [Example 1]
}


database "My Database" {
  folder "My folder" {
	[Folder 3]
  }
  frame "My Frame" {
	[Frame 4]
  }
}

artifact "My Artifact"
storage "My Storage"

[Another Component] - -> [Example 1]
[Example 1] - -> [Folder 3]
[Folder 3] - -> [Frame 4]

@enduml

PlantUML version 1.2019.08(Sat Jul 13 12:25:14 PDT 2019)
(MIT source distribution)
Java Runtime: OpenJDK Runtime Environment
JVM: OpenJDK 64-Bit Server VM
Java Version: 11.0.4+11-post-Ubuntu-1ubuntu218.04.3
Operating System: Linux
OS Version: 4.15.0-64-lowlatency
Default Encoding: UTF-8
Language: en
Country: US
--></g></svg>