<?xml version="1.0" encoding="UTF-8" standalone="no"?><svg xmlns="http://www.w3.org/2000/svg" xmlns:xlink="http://www.w3.org/1999/xlink" contentScriptType="application/ecmascript" contentStyleType="text/css" height="716.6667px" preserveAspectRatio="none" style="width:742px;height:716px;" version="1.1" viewBox="0 0 742 716" width="742.7083px" zoomAndPan="magnify"><defs><linearGradient id="g186y2zd2a0gsz0" x1="50%" x2="50%" y1="0%" y2="100%"><stop offset="0%" stop-color="#FFFFFF"/><stop offset="100%" stop-color="#FFFFFF"/></linearGradient><filter height="300%" id="f186y2zd2a0gsz" width="300%" x="-1" y="-1"><feGaussianBlur result="blurOut" stdDeviation="2.0833333333333335"/><feColorMatrix in="blurOut" result="blurOut2" type="matrix" values="0 0 0 0 0 0 0 0 0 0 0 0 0 0 0 0 0 0 .4 0"/><feOffset dx="4.166666666666667" dy="4.166666666666667" in="blurOut2" result="blurOut3"/><feBlend in="SourceGraphic" in2="blurOut3" mode="normal"/></filter><linearGradient id="g186y2zd2a0gsz1" x1="50%" x2="50%" y1="0%" y2="100%"><stop offset="0%" stop-color="#FFFFFF"/><stop offset="100%" stop-color="#87CEFA"/></linearGradient><linearGradient id="g186y2zd2a0gsz2" x1="50%" x2="50%" y1="0%" y2="100%"><stop offset="0%" stop-color="#4DABF5"/><stop offset="100%" stop-color="#2196F3"/></linearGradient><linearGradient id="g186y2zd2a0gsz3" x1="50%" x2="50%" y1="0%" y2="100%"><stop offset="0%" stop-color="#70BF73"/><stop offset="100%" stop-color="#4CAF50"/></linearGradient><linearGradient id="g186y2zd2a0gsz4" x1="50%" x2="50%" y1="0%" y2="100%"><stop offset="0%" stop-color="#FFAD33"/><stop offset="100%" stop-color="#FF9800"/></linearGradient></defs><g><rect fill="none" height="48.2361" rx="4.1667" ry="4.1667" style="stroke: none; stroke-width: 1.0416666666666667;" width="184.375" x="282.8125" y="2.0833"/><text fill="#222222" font-family="Verdana" font-size="20.8333" lengthAdjust="spacingAndGlyphs" textLength="155.2083" x="297.3958" y="34.4869">materia theme</text><!--cluster My Package--><path d="M28.125,78.4444 L120.8333,78.4444 A6.25,6.25 0 0 1 125,82.6111 L132.2917,112.3861 L453.125,112.3861 A4.1667,4.1667 0 0 1 457.2917,116.5527 L457.2917,186.7778 A4.1667,4.1667 0 0 1 453.125,190.9444 L28.125,190.9444 A4.1667,4.1667 0 0 1 23.9583,186.7778 L23.9583,82.6111 A4.1667,4.1667 0 0 1 28.125,78.4444 " fill="url(#g186y2zd2a0gsz0)" filter="url(#f186y2zd2a0gsz)" style="stroke: #2196F3; stroke-width: 1.5625;"/><line style="stroke: #2196F3; stroke-width: 1.5625;" x1="23.9583" x2="132.2917" y1="112.3861" y2="112.3861"/><text fill="#2196F3" font-family="Verdana" font-size="12.5" font-weight="bold" lengthAdjust="spacingAndGlyphs" textLength="82.2917" x="34.375" y="99.3449">My Package</text><!--cluster My Node--><polygon fill="url(#g186y2zd2a0gsz0)" filter="url(#f186y2zd2a0gsz)" points="22.9167,226.3611,33.3333,215.9444,273.9583,215.9444,273.9583,323.2361,263.5417,333.6528,22.9167,333.6528,22.9167,226.3611" style="stroke: #222222; stroke-width: 1.5625;"/><line style="stroke: #222222; stroke-width: 1.5625;" x1="263.5417" x2="272.9167" y1="226.3611" y2="216.9861"/><line style="stroke: #222222; stroke-width: 1.5625;" x1="22.9167" x2="263.5417" y1="226.3611" y2="226.3611"/><line style="stroke: #222222; stroke-width: 1.5625;" x1="263.5417" x2="263.5417" y1="226.3611" y2="333.6528"/><text fill="#222222" font-family="Verdana" font-size="12.5" font-weight="bold" lengthAdjust="spacingAndGlyphs" textLength="59.375" x="114.5833" y="248.3032">My Node</text><!--cluster My Cloud--><path d="M315.908,230.1771 C319.3545,224.1924 326.0442,223.5952 329.659,229.9902 C333.2824,223.7682 337.3458,222.3445 342.2542,228.7039 C344.8374,222.2106 349.925,222.0998 354.066,227.1034 C356.9653,221.3844 363.1738,220.1363 366.8182,226.3041 C372.0191,221.1669 376.9891,221.7527 380.0321,228.6696 C383.6571,221.0426 389.2884,222.3325 393.5661,228.0055 C398.1486,222.2562 401.9427,223.1408 405.8307,228.7552 C414.6139,222.0223 424.3199,225.7209 426.0417,236.7778 C427.1337,236.5837 427.5722,237.4061 427.1844,238.3133 C433.7549,241.5042 435.2269,246.2028 429.8516,251.7628 C436.9563,255.5031 436.0978,260.8358 430.8733,265.4935 C436.7855,269.4612 438.1803,274.783 431.6483,279.442 C437.042,284.2706 437.7121,289.0422 430.2102,292.4444 C435.6786,296.3807 434.5856,301.9644 429.152,304.9804 C437.3008,315.9919 429.6884,324.0696 418.75,325.3194 C419.3582,325.2861 419.7271,325.6562 419.4045,326.2663 C416.5536,332.0271 410.6595,332.3796 407.3377,326.766 C403.1849,332.5 397.6353,333.6561 393.3257,326.9426 C390.2461,333.8826 384.3092,333.1809 380.4026,327.8108 C376.6029,333.6752 370.1858,333.2354 366.7114,327.4292 C363.9152,332.6772 358.0367,334.8015 354.3004,328.4337 C349.3056,334.6374 344.468,334.5004 341.0114,326.9477 C337.5877,333.046 332.2186,332.1835 329.1254,326.611 C318.9884,334.5148 309.591,330.061 307.2917,318.0278 C308.6165,317.6167 309.296,318.5951 308.917,319.7718 C302.3887,316.2995 302.7564,310.676 307.9929,306.3912 C301.7351,302.066 300.6615,297.6573 306.6401,292.1683 C300.3854,288.3405 298.9139,282.5866 305.62,277.8363 C299.9344,273.1362 300.8946,269.1815 306.6987,265.4848 C299.6422,261.5494 300.7297,256.2117 306.7411,252.3184 C297.4045,242.0842 302.3548,232.3132 314.5833,229.4861 C315.3127,229.1868 315.7795,229.3246 315.908,230.1771 " fill="url(#g186y2zd2a0gsz1)" style="stroke: #FFFFFF; stroke-width: 1.5625;"/><text fill="#222222" font-family="Verdana" font-size="12.5" font-weight="bold" lengthAdjust="spacingAndGlyphs" textLength="62.5" x="335.4167" y="253.5116">My Cloud</text><!--cluster My Database--><path d="M281.25,369.0694 C281.25,358.6528 366.6667,358.6528 366.6667,358.6528 C366.6667,358.6528 452.0833,358.6528 452.0833,369.0694 L452.0833,694.0694 C452.0833,704.4861 366.6667,704.4861 366.6667,704.4861 C366.6667,704.4861 281.25,704.4861 281.25,694.0694 L281.25,369.0694 " fill="url(#g186y2zd2a0gsz2)" filter="url(#f186y2zd2a0gsz)" style="stroke: #1A78C2; stroke-width: 1.5625;"/><path d="M281.25,369.0694 C281.25,379.4861 366.6667,379.4861 366.6667,379.4861 C366.6667,379.4861 452.0833,379.4861 452.0833,369.0694 " fill="none" style="stroke: #1A78C2; stroke-width: 1.5625;"/><text fill="#FFFFFF" font-family="Verdana" font-size="12.5" font-weight="bold" lengthAdjust="spacingAndGlyphs" textLength="88.5417" x="322.3958" y="400.3866">My Database</text><!--cluster My folder--><path d="M310.4167,429.4861 L385.4167,429.4861 A6.25,6.25 0 0 1 389.5833,433.6528 L396.875,463.4277 L422.9167,463.4277 A4.1667,4.1667 0 0 1 427.0833,467.5944 L427.0833,537.8194 A4.1667,4.1667 0 0 1 422.9167,541.9861 L310.4167,541.9861 A4.1667,4.1667 0 0 1 306.25,537.8194 L306.25,433.6528 A4.1667,4.1667 0 0 1 310.4167,429.4861 " fill="url(#g186y2zd2a0gsz0)" filter="url(#f186y2zd2a0gsz)" style="stroke: #FF9800; stroke-width: 1.5625;"/><line style="stroke: #FF9800; stroke-width: 1.5625;" x1="306.25" x2="396.875" y1="463.4277" y2="463.4277"/><text fill="#FF9800" font-family="Verdana" font-size="12.5" font-weight="bold" lengthAdjust="spacingAndGlyphs" textLength="64.5833" x="316.6667" y="450.3866">My folder</text><!--cluster My Frame--><rect fill="url(#g186y2zd2a0gsz0)" filter="url(#f186y2zd2a0gsz)" height="112.5" rx="4.1667" ry="4.1667" style="stroke: #9C27B0; stroke-width: 1.5625;" width="120.8333" x="306.25" y="566.9861"/><path d="M396.875,568.0278 L396.875,587.3861 L386.4583,597.8027 L306.25,597.8027 " fill="none" style="stroke: #9C27B0; stroke-width: 1.5625;"/><text fill="#9C27B0" font-family="Verdana" font-size="12.5" font-weight="bold" lengthAdjust="spacingAndGlyphs" textLength="67.7083" x="315.625" y="586.8449">My Frame</text><!--entity HTTP--><ellipse cx="228.125" cy="149.7986" fill="#EA494F" filter="url(#f186y2zd2a0gsz)" rx="8.3333" ry="8.3333" style="stroke: #E51C23; stroke-width: 2.0833333333333335;"/><text fill="#222222" font-family="Verdana" font-size="12.5" lengthAdjust="spacingAndGlyphs" textLength="32.2917" x="211.9792" y="186.3241">HTTP</text><!--entity First Component--><rect fill="url(#g186y2zd2a0gsz3)" filter="url(#f186y2zd2a0gsz)" height="48.525" rx="4.1667" ry="4.1667" style="stroke: #4CAF50; stroke-width: 1.5625;" width="141.6667" x="40.625" y="125.3194"/><rect fill="url(#g186y2zd2a0gsz3)" height="5.2083" style="stroke: #4CAF50; stroke-width: 1.5625;" width="10.4167" x="35.4167" y="130.5278"/><rect fill="url(#g186y2zd2a0gsz3)" height="5.2083" style="stroke: #4CAF50; stroke-width: 1.5625;" width="10.4167" x="35.4167" y="163.4277"/><text fill="#FFFFFF" font-family="Verdana" font-size="12.5" lengthAdjust="spacingAndGlyphs" textLength="108.3333" x="57.2917" y="154.5532">First Component</text><!--entity Another Component--><rect fill="url(#g186y2zd2a0gsz3)" filter="url(#f186y2zd2a0gsz)" height="48.525" rx="4.1667" ry="4.1667" style="stroke: #4CAF50; stroke-width: 1.5625;" width="165.625" x="274.4792" y="125.3194"/><rect fill="url(#g186y2zd2a0gsz3)" height="5.2083" style="stroke: #4CAF50; stroke-width: 1.5625;" width="10.4167" x="269.2708" y="130.5278"/><rect fill="url(#g186y2zd2a0gsz3)" height="5.2083" style="stroke: #4CAF50; stroke-width: 1.5625;" width="10.4167" x="269.2708" y="163.4277"/><text fill="#FFFFFF" font-family="Verdana" font-size="12.5" lengthAdjust="spacingAndGlyphs" textLength="132.2917" x="291.1458" y="154.5532">Another Component</text><!--entity FTP--><ellipse cx="48.9583" cy="292.5069" fill="#EA494F" filter="url(#f186y2zd2a0gsz)" rx="8.3333" ry="8.3333" style="stroke: #E51C23; stroke-width: 2.0833333333333335;"/><text fill="#222222" font-family="Verdana" font-size="12.5" lengthAdjust="spacingAndGlyphs" textLength="22.9167" x="37.5" y="329.0324">FTP</text><!--entity Second Component--><rect fill="url(#g186y2zd2a0gsz3)" filter="url(#f186y2zd2a0gsz)" height="48.525" rx="4.1667" ry="4.1667" style="stroke: #4CAF50; stroke-width: 1.5625;" width="161.4583" x="95.3125" y="268.0278"/><rect fill="url(#g186y2zd2a0gsz3)" height="5.2083" style="stroke: #4CAF50; stroke-width: 1.5625;" width="10.4167" x="90.1042" y="273.2361"/><rect fill="url(#g186y2zd2a0gsz3)" height="5.2083" style="stroke: #4CAF50; stroke-width: 1.5625;" width="10.4167" x="90.1042" y="306.1361"/><text fill="#FFFFFF" font-family="Verdana" font-size="12.5" lengthAdjust="spacingAndGlyphs" textLength="128.125" x="111.9792" y="297.2616">Second Component</text><!--entity Example 1--><rect fill="url(#g186y2zd2a0gsz3)" filter="url(#f186y2zd2a0gsz)" height="48.525" rx="4.1667" ry="4.1667" style="stroke: #4CAF50; stroke-width: 1.5625;" width="101.0417" x="316.1458" y="268.0278"/><rect fill="url(#g186y2zd2a0gsz3)" height="5.2083" style="stroke: #4CAF50; stroke-width: 1.5625;" width="10.4167" x="310.9375" y="273.2361"/><rect fill="url(#g186y2zd2a0gsz3)" height="5.2083" style="stroke: #4CAF50; stroke-width: 1.5625;" width="10.4167" x="310.9375" y="306.1361"/><text fill="#FFFFFF" font-family="Verdana" font-size="12.5" lengthAdjust="spacingAndGlyphs" textLength="67.7083" x="332.8125" y="297.2616">Example 1</text><!--entity Folder 3--><rect fill="url(#g186y2zd2a0gsz3)" filter="url(#f186y2zd2a0gsz)" height="48.525" rx="4.1667" ry="4.1667" style="stroke: #4CAF50; stroke-width: 1.5625;" width="86.4583" x="323.4375" y="476.3611"/><rect fill="url(#g186y2zd2a0gsz3)" height="5.2083" style="stroke: #4CAF50; stroke-width: 1.5625;" width="10.4167" x="318.2292" y="481.5694"/><rect fill="url(#g186y2zd2a0gsz3)" height="5.2083" style="stroke: #4CAF50; stroke-width: 1.5625;" width="10.4167" x="318.2292" y="514.4694"/><text fill="#FFFFFF" font-family="Verdana" font-size="12.5" lengthAdjust="spacingAndGlyphs" textLength="53.125" x="340.1042" y="505.5949">Folder 3</text><!--entity Frame 4--><rect fill="url(#g186y2zd2a0gsz3)" filter="url(#f186y2zd2a0gsz)" height="48.525" rx="4.1667" ry="4.1667" style="stroke: #4CAF50; stroke-width: 1.5625;" width="86.4583" x="323.4375" y="613.8611"/><rect fill="url(#g186y2zd2a0gsz3)" height="5.2083" style="stroke: #4CAF50; stroke-width: 1.5625;" width="10.4167" x="318.2292" y="619.0694"/><rect fill="url(#g186y2zd2a0gsz3)" height="5.2083" style="stroke: #4CAF50; stroke-width: 1.5625;" width="10.4167" x="318.2292" y="651.9694"/><text fill="#FFFFFF" font-family="Verdana" font-size="12.5" lengthAdjust="spacingAndGlyphs" textLength="53.125" x="340.1042" y="643.0949">Frame 4</text><!--entity My Artifact--><rect fill="url(#g186y2zd2a0gsz0)" filter="url(#f186y2zd2a0gsz)" height="51.65" rx="4.1667" ry="4.1667" style="stroke: #666666; stroke-width: 1.5625;" width="111.4583" x="476.5625" y="123.7569"/><polygon fill="url(#g186y2zd2a0gsz0)" points="570.3125,128.9653,570.3125,143.5486,582.8125,143.5486,582.8125,135.2153,576.5625,128.9653,570.3125,128.9653" style="stroke: #666666; stroke-width: 1.5625;"/><line style="stroke: #666666; stroke-width: 1.5625;" x1="576.5625" x2="576.5625" y1="128.9653" y2="135.2153"/><line style="stroke: #666666; stroke-width: 1.5625;" x1="582.8125" x2="576.5625" y1="135.2153" y2="135.2153"/><text fill="#666666" font-family="Verdana" font-size="12.5" lengthAdjust="spacingAndGlyphs" textLength="67.7083" x="493.2292" y="156.1157">My Artifact</text><!--entity My Storage--><rect fill="url(#g186y2zd2a0gsz4)" filter="url(#f186y2zd2a0gsz)" height="48.525" rx="36.4583" ry="36.4583" style="stroke: #FF9800; stroke-width: 1.5625;" width="107.2917" x="624.4792" y="125.3194"/><text fill="#FFFFFF" font-family="Verdana" font-size="12.5" lengthAdjust="spacingAndGlyphs" textLength="73.9583" x="641.1458" y="154.5532">My Storage</text><!--link HTTP to First Component--><path d="M218.5115,149.7986 C206.525,149.7986 194.5385,149.7986 182.5521,149.7986 " fill="none" id="HTTP-First Component" style="stroke: #2196F3; stroke-width: 3.125;"/><!--link FTP to Second Component--><path d="M58.3903,292.5069 C70.6456,292.5069 82.901,292.5069 95.1564,292.5069 " fill="none" id="FTP-Second Component" style="stroke: #2196F3; stroke-width: 3.125;"/><!--link First Component to FTP--><path d="M95.5224,174.5038 C89.2521,184.4528 82.3164,196.3215 77.0833,207.6111 C66.0604,231.3923 57.2325,260.7423 52.5735,277.6611 " fill="none" id="First Component-FTP" style="stroke: #2196F3; stroke-width: 3.125;"/><polygon fill="#2196F3" points="51.1561,282.8965,57.6288,274.9368,52.5177,277.8693,49.5853,272.7583,51.1561,282.8965" style="stroke: #2196F3; stroke-width: 3.125;"/><!--link Another Component to Example 1--><path d="M358.8604,174.3778 C360.476,198.6121 362.9969,236.4153 364.7344,262.4767 " fill="none" id="Another Component-Example 1" style="stroke: #2196F3; stroke-width: 3.125;"/><polygon fill="#2196F3" points="365.0927,267.8507,368.626,258.2191,364.746,262.6539,360.3111,258.7739,365.0927,267.8507" style="stroke: #2196F3; stroke-width: 3.125;"/><!--link Example 1 to Folder 3--><path d="M366.6667,317.208 C366.6667,355.1819 366.6667,429.633 366.6667,470.7653 " fill="none" id="Example 1-Folder 3" style="stroke: #2196F3; stroke-width: 3.125;"/><polygon fill="#2196F3" points="366.6667,476.0986,370.8333,466.7236,366.6667,470.8903,362.5,466.7236,366.6667,476.0986" style="stroke: #2196F3; stroke-width: 3.125;"/><!--link Folder 3 to Frame 4--><path d="M366.6667,525.4694 C366.6667,548.4361 366.6667,583.3975 366.6667,608.1059 " fill="none" id="Folder 3-Frame 4" style="stroke: #2196F3; stroke-width: 3.125;"/><polygon fill="#2196F3" points="366.6667,613.5267,370.8333,604.1517,366.6667,608.3184,362.5,604.1517,366.6667,613.5267" style="stroke: #2196F3; stroke-width: 3.125;"/><!--
@startuml







skinparam defaultFontName       "Verdana"
skinparam defaultFontSize       12
skinparam dpi                   100
skinparam shadowing             true
skinparam roundcorner           8
skinparam ParticipantPadding    10
skinparam BoxPadding            2
skinparam Padding               6
skinparam TitleFontColor	    #222
skinparam TitleFontSize	    	20
skinparam TitleBorderThickness 	0
skinparam ArrowColor            #666

skinparam legend {
	BackgroundColor #fff
	BorderColor #cccccc
	FontColor #222
}

skinparam activity {
	TitleFontSize 20
	TitleFontColor #222
	FontColor #FFF
	BorderColor #2196F3
	BackgroundColor #4dabf5-#2196F3
	BarColor #4CAF50
	StartColor #9C27B0
	EndColor #9C27B0
	DiamondBackgroundColor #FFF-#fff
  	DiamondBorderColor #cccccc
	DiamondFontColor #222
}

skinparam sequence {
	BorderColor #2196F3
	TitleFontSize 20
	TitleFontColor #222
	BackgroundColor transparent
	StartColor #2196F3
	EndColor #2196F3
    ParticipantBackgroundColor #4dabf5-#2196F3
    ParticipantBorderColor #2196F3
	ParticipantBorderThickness 0
	ParticipantFontColor #FFF
	ActorBackgroundColor transparent
    ActorBorderColor #2196F3
	ActorFontColor #2196F3
	ArrowThickness 3
	ArrowColor #2196F3
	BoxBackgroundColor #fff
	BoxBorderColor #666
	BoxFontColor #222
	LifeLineBorderColor #cccccc
	LifeLineBorderThickness 0
	LifeLineBackgroundColor #fff
	GroupBorderColor #666
	GroupFontColor #222
	GroupHeaderFontColor #9C27B0
	DividerBackgroundColor #FFF-#fff
    DividerBorderColor #666
    DividerBorderThickness 2
    DividerFontColor #222
	ReferenceBorderColor #666
	ReferenceFontColor #222
	ReferenceHeaderFontColor #9C27B0
}

skinparam partition {
	BorderColor #2196F3
	FontColor #2196F3
	BackgroundColor transparent
}

skinparam collections {
	BackgroundColor #4dabf5-#2196F3
	BorderColor #2196F3
}

skinparam control {
	BackgroundColor  #4dabf5-#2196F3
	BorderColor #1a78c2
	FontColor #222
}

skinparam entity {
	BackgroundColor  #4dabf5-#2196F3
	BorderColor #1a78c2
	FontColor #222
}

skinparam boundary {
	BackgroundColor  #4dabf5-#2196F3
	BorderColor #1a78c2
	FontColor #222
}

skinparam agent {
	BackgroundColor #orange
	BorderColor #999999
	FontColor #333333
}

skinparam note {
	BorderThickness 1
	BackgroundColor #b052c0-#9C27B0
	BorderColor #9C27B0
	FontColor #FFF
}

skinparam artifact {
	BackgroundColor #FFF-#fff
	BorderColor #666
	FontColor #666
}

skinparam component {
	BackgroundColor  #70bf73-#4CAF50
	BorderColor  #4CAF50
	FontColor #FFF
}

skinparam interface {
	BackgroundColor  #ea494f
	BorderColor  #e51c23
	FontColor #222
}

skinparam storage {
	BackgroundColor #ffad33-#ff9800
  	BorderColor #ff9800
	FontColor #FFF
}

skinparam node {
	BackgroundColor #fff-#fff
	BorderColor #222
	FontColor #222
}

skinparam cloud {
	BackgroundColor white-lightskyblue
	BorderColor transparent
	FontColor #222
}

skinparam database {
	BackgroundColor  #4dabf5-#2196F3
	BorderColor #1a78c2
	FontColor #FFF
}

skinparam actor {
	FontColor #222
}

skinparam class {
	HeaderBackgroundColor #2196F3-#1a78c2
	FontColor #FFF
	BackgroundColor #4dabf5-#2196F3
	BorderColor #1a78c2
	StereotypeFontColor #222
	BorderThickness 1
	AttributeFontColor #222
	AttributeFontSize 11
}

skinparam object {
	FontColor #4CAF50
	BackgroundColor #fff-#cccccc
	BorderColor #cccccc
	StereotypeFontColor #222
	BorderThickness 1
	AttributeFontColor #222
	AttributeFontSize 11
}

skinparam usecase {
	BackgroundColor #fff-#fff
	BorderColor #fff
	BorderThickness 2
	FontColor #222
	StereotypeFontColor #2196F3
}

skinparam rectangle {
	BackgroundColor #fff-#cccccc
	BorderColor #1a78c2
	BorderThickness 2
	FontColor #2196F3
	StereotypeFontColor #2196F3
}

skinparam package {
	BackgroundColor #fff-#fff
  	BorderColor #2196F3
	FontColor #2196F3
	BorderThickness 2
}

skinparam folder {
	BackgroundColor #FFF-#fff
  	BorderColor #ff9800
	FontColor #ff9800
	BorderThickness 2
}

skinparam frame {
	BackgroundColor #FFF-#fff
  	BorderColor #9C27B0
	FontColor #9C27B0
	BorderThickness 2
}

skinparam state {
	StartColor #9C27B0
	EndColor #9C27B0
	BackgroundColor #fff-#cccccc
	BorderColor #cccccc
	FontColor #9C27B0
	AttributeFontColor #222
	AttributeFontSize 11
}

title materia theme

skinparam BackgroundColor transparent

package "My Package" {
  HTTP - [First Component]
  [Another Component]
}
 
node "My Node" {
  FTP - [Second Component]
  [First Component] - -> FTP
} 

cloud "My Cloud" {
  [Example 1]
}


database "My Database" {
  folder "My folder" {
	[Folder 3]
  }
  frame "My Frame" {
	[Frame 4]
  }
}

artifact "My Artifact"
storage "My Storage"

[Another Component] - -> [Example 1]
[Example 1] - -> [Folder 3]
[Folder 3] - -> [Frame 4]

@enduml

PlantUML version 1.2019.08(Sat Jul 13 12:25:14 PDT 2019)
(MIT source distribution)
Java Runtime: Java(TM) SE Runtime Environment
JVM: Java HotSpot(TM) 64-Bit Server VM
Java Version: 1.8.0_212-b32
Operating System: Windows 10
OS Version: 10.0
Default Encoding: Cp1252
Language: en
Country: US
--></g></svg>