<?xml version="1.0" encoding="UTF-8" standalone="no"?><svg xmlns="http://www.w3.org/2000/svg" xmlns:xlink="http://www.w3.org/1999/xlink" contentScriptType="application/ecmascript" contentStyleType="text/css" height="716.6667px" preserveAspectRatio="none" style="width:879px;height:716px;" version="1.1" viewBox="0 0 879 716" width="879.1667px" zoomAndPan="magnify"><defs><linearGradient id="gyilmmlo4piqb0" x1="50%" x2="50%" y1="0%" y2="100%"><stop offset="0%" stop-color="#FFFFFF"/><stop offset="100%" stop-color="#FFFFFF"/></linearGradient><filter height="300%" id="fyilmmlo4piqb" width="300%" x="-1" y="-1"><feGaussianBlur result="blurOut" stdDeviation="2.0833333333333335"/><feColorMatrix in="blurOut" result="blurOut2" type="matrix" values="0 0 0 0 0 0 0 0 0 0 0 0 0 0 0 0 0 0 .4 0"/><feOffset dx="4.166666666666667" dy="4.166666666666667" in="blurOut2" result="blurOut3"/><feBlend in="SourceGraphic" in2="blurOut3" mode="normal"/></filter><linearGradient id="gyilmmlo4piqb1" x1="50%" x2="50%" y1="0%" y2="100%"><stop offset="0%" stop-color="#FFFFFF"/><stop offset="100%" stop-color="#87CEFA"/></linearGradient><linearGradient id="gyilmmlo4piqb2" x1="50%" x2="50%" y1="0%" y2="100%"><stop offset="0%" stop-color="#4DABF5"/><stop offset="100%" stop-color="#2196F3"/></linearGradient><linearGradient id="gyilmmlo4piqb3" x1="50%" x2="50%" y1="0%" y2="100%"><stop offset="0%" stop-color="#70BF73"/><stop offset="100%" stop-color="#4CAF50"/></linearGradient><linearGradient id="gyilmmlo4piqb4" x1="50%" x2="50%" y1="0%" y2="100%"><stop offset="0%" stop-color="#FFAD33"/><stop offset="100%" stop-color="#FF9800"/></linearGradient><linearGradient id="gyilmmlo4piqb5" x1="50%" x2="50%" y1="0%" y2="100%"><stop offset="0%" stop-color="#FF9800"/><stop offset="100%" stop-color="#CC7A00"/></linearGradient><linearGradient id="gyilmmlo4piqb6" x1="50%" x2="50%" y1="0%" y2="100%"><stop offset="0%" stop-color="#B052C0"/><stop offset="100%" stop-color="#9C27B0"/></linearGradient><linearGradient id="gyilmmlo4piqb7" x1="50%" x2="50%" y1="0%" y2="100%"><stop offset="0%" stop-color="#4DABF5"/><stop offset="100%" stop-color="#1A78C2"/></linearGradient></defs><g><rect fill="none" height="48.2361" rx="4.1667" ry="4.1667" style="stroke: none; stroke-width: 1.0416666666666667;" width="423.9583" x="230.7292" y="2.0833"/><text fill="#222222" font-family="Verdana" font-size="20.8333" lengthAdjust="spacingAndGlyphs" textLength="394.7917" x="245.3125" y="34.4869">Component Diagram - materia theme</text><!--cluster My Package--><path d="M27.0833,78.4444 L119.7917,78.4444 A6.25,6.25 0 0 1 123.9583,82.6111 L131.25,112.3861 L452.0833,112.3861 A4.1667,4.1667 0 0 1 456.25,116.5527 L456.25,186.7778 A4.1667,4.1667 0 0 1 452.0833,190.9444 L27.0833,190.9444 A4.1667,4.1667 0 0 1 22.9167,186.7778 L22.9167,82.6111 A4.1667,4.1667 0 0 1 27.0833,78.4444 " fill="url(#gyilmmlo4piqb0)" filter="url(#fyilmmlo4piqb)" style="stroke: #2196F3; stroke-width: 1.5625;"/><line style="stroke: #2196F3; stroke-width: 1.5625;" x1="22.9167" x2="131.25" y1="112.3861" y2="112.3861"/><text fill="#2196F3" font-family="Verdana" font-size="12.5" font-weight="bold" lengthAdjust="spacingAndGlyphs" textLength="82.2917" x="33.3333" y="99.3449">My Package</text><!--cluster My Node--><polygon fill="url(#gyilmmlo4piqb0)" filter="url(#fyilmmlo4piqb)" points="23.9583,226.3611,34.375,215.9444,275,215.9444,275,323.2361,264.5833,333.6528,23.9583,333.6528,23.9583,226.3611" style="stroke: #222222; stroke-width: 1.5625;"/><line style="stroke: #222222; stroke-width: 1.5625;" x1="264.5833" x2="273.9583" y1="226.3611" y2="216.9861"/><line style="stroke: #222222; stroke-width: 1.5625;" x1="23.9583" x2="264.5833" y1="226.3611" y2="226.3611"/><line style="stroke: #222222; stroke-width: 1.5625;" x1="264.5833" x2="264.5833" y1="226.3611" y2="333.6528"/><text fill="#222222" font-family="Verdana" font-size="12.5" font-weight="bold" lengthAdjust="spacingAndGlyphs" textLength="59.375" x="115.625" y="248.3032">My Node</text><!--cluster My Cloud--><path d="M316.9496,230.1771 C320.3962,224.1924 327.0858,223.5952 330.7006,229.9902 C334.3241,223.7682 338.3875,222.3445 343.2959,228.7039 C345.8791,222.2106 350.9667,222.0998 355.1077,227.1034 C358.0069,221.3844 364.2155,220.1363 367.8598,226.3041 C373.0608,221.1669 378.0307,221.7527 381.0737,228.6696 C384.6988,221.0426 390.3301,222.3325 394.6078,228.0055 C399.1903,222.2562 402.9844,223.1408 406.8723,228.7552 C415.6555,222.0223 425.3616,225.7209 427.0833,236.7778 C428.1753,236.5837 428.6139,237.4061 428.226,238.3133 C434.7966,241.5042 436.2686,246.2028 430.8933,251.7628 C437.9979,255.5031 437.1395,260.8358 431.915,265.4935 C437.8271,269.4612 439.222,274.783 432.6899,279.442 C438.0837,284.2706 438.7538,289.0422 431.2519,292.4444 C436.7203,296.3807 435.6273,301.9644 430.1936,304.9804 C438.3424,315.9919 430.7301,324.0696 419.7917,325.3194 C420.3998,325.2861 420.7688,325.6562 420.4461,326.2663 C417.5953,332.0271 411.7012,332.3796 408.3793,326.766 C404.2266,332.5 398.6769,333.6561 394.3673,326.9426 C391.2878,333.8826 385.3509,333.1809 381.4443,327.8108 C377.6445,333.6752 371.2275,333.2354 367.753,327.4292 C364.9569,332.6772 359.0783,334.8015 355.342,328.4337 C350.3473,334.6374 345.5096,334.5004 342.0531,326.9477 C338.6294,333.046 333.2602,332.1835 330.1671,326.611 C320.0301,334.5148 310.6327,330.061 308.3333,318.0278 C309.6581,317.6167 310.3377,318.5951 309.9587,319.7718 C303.4304,316.2995 303.798,310.676 309.0346,306.3912 C302.7768,302.066 301.7032,297.6573 307.6818,292.1683 C301.427,288.3405 299.9556,282.5866 306.6617,277.8363 C300.9761,273.1362 301.9363,269.1815 307.7404,265.4848 C300.6839,261.5494 301.7713,256.2117 307.7828,252.3184 C298.4461,242.0842 303.3965,232.3132 315.625,229.4861 C316.3544,229.1868 316.8212,229.3246 316.9496,230.1771 " fill="url(#gyilmmlo4piqb1)" style="stroke: #FFFFFF; stroke-width: 1.5625;"/><text fill="#222222" font-family="Verdana" font-size="12.5" font-weight="bold" lengthAdjust="spacingAndGlyphs" textLength="62.5" x="336.4583" y="253.5116">My Cloud</text><!--cluster My Database--><path d="M282.2917,369.0694 C282.2917,358.6528 367.7083,358.6528 367.7083,358.6528 C367.7083,358.6528 453.125,358.6528 453.125,369.0694 L453.125,694.0694 C453.125,704.4861 367.7083,704.4861 367.7083,704.4861 C367.7083,704.4861 282.2917,704.4861 282.2917,694.0694 L282.2917,369.0694 " fill="url(#gyilmmlo4piqb2)" filter="url(#fyilmmlo4piqb)" style="stroke: #1A78C2; stroke-width: 1.5625;"/><path d="M282.2917,369.0694 C282.2917,379.4861 367.7083,379.4861 367.7083,379.4861 C367.7083,379.4861 453.125,379.4861 453.125,369.0694 " fill="none" style="stroke: #1A78C2; stroke-width: 1.5625;"/><text fill="#222222" font-family="Verdana" font-size="12.5" font-weight="bold" lengthAdjust="spacingAndGlyphs" textLength="88.5417" x="323.4375" y="400.3866">My Database</text><!--cluster My folder--><path d="M311.4583,429.4861 L386.4583,429.4861 A6.25,6.25 0 0 1 390.625,433.6528 L397.9167,463.4277 L423.9583,463.4277 A4.1667,4.1667 0 0 1 428.125,467.5944 L428.125,537.8194 A4.1667,4.1667 0 0 1 423.9583,541.9861 L311.4583,541.9861 A4.1667,4.1667 0 0 1 307.2917,537.8194 L307.2917,433.6528 A4.1667,4.1667 0 0 1 311.4583,429.4861 " fill="url(#gyilmmlo4piqb0)" filter="url(#fyilmmlo4piqb)" style="stroke: #FF9800; stroke-width: 1.5625;"/><line style="stroke: #FF9800; stroke-width: 1.5625;" x1="307.2917" x2="397.9167" y1="463.4277" y2="463.4277"/><text fill="#FF9800" font-family="Verdana" font-size="12.5" font-weight="bold" lengthAdjust="spacingAndGlyphs" textLength="64.5833" x="317.7083" y="450.3866">My folder</text><!--cluster My Frame--><rect fill="url(#gyilmmlo4piqb0)" filter="url(#fyilmmlo4piqb)" height="112.5" rx="4.1667" ry="4.1667" style="stroke: #9C27B0; stroke-width: 1.5625;" width="120.8333" x="307.2917" y="566.9861"/><path d="M397.9167,568.0278 L397.9167,587.3861 L387.5,597.8027 L307.2917,597.8027 " fill="none" style="stroke: #9C27B0; stroke-width: 1.5625;"/><text fill="#9C27B0" font-family="Verdana" font-size="12.5" font-weight="bold" lengthAdjust="spacingAndGlyphs" textLength="67.7083" x="316.6667" y="586.8449">My Frame</text><!--entity HTTP--><ellipse cx="227.0833" cy="149.7986" fill="#B7161C" filter="url(#fyilmmlo4piqb)" rx="8.3333" ry="8.3333" style="stroke: #E51C23; stroke-width: 2.0833333333333335;"/><text fill="#222222" font-family="Verdana" font-size="12.5" lengthAdjust="spacingAndGlyphs" textLength="32.2917" x="210.9375" y="186.3241">HTTP</text><!--entity First Component--><rect fill="url(#gyilmmlo4piqb3)" filter="url(#fyilmmlo4piqb)" height="48.525" rx="4.1667" ry="4.1667" style="stroke: #4CAF50; stroke-width: 1.5625;" width="141.6667" x="39.5833" y="125.3194"/><rect fill="url(#gyilmmlo4piqb3)" height="5.2083" style="stroke: #4CAF50; stroke-width: 1.5625;" width="10.4167" x="34.375" y="130.5278"/><rect fill="url(#gyilmmlo4piqb3)" height="5.2083" style="stroke: #4CAF50; stroke-width: 1.5625;" width="10.4167" x="34.375" y="163.4277"/><text fill="#FFFFFF" font-family="Verdana" font-size="12.5" lengthAdjust="spacingAndGlyphs" textLength="108.3333" x="56.25" y="154.5532">First Component</text><!--entity Another Component--><rect fill="url(#gyilmmlo4piqb3)" filter="url(#fyilmmlo4piqb)" height="48.525" rx="4.1667" ry="4.1667" style="stroke: #4CAF50; stroke-width: 1.5625;" width="165.625" x="273.4375" y="125.3194"/><rect fill="url(#gyilmmlo4piqb3)" height="5.2083" style="stroke: #4CAF50; stroke-width: 1.5625;" width="10.4167" x="268.2292" y="130.5278"/><rect fill="url(#gyilmmlo4piqb3)" height="5.2083" style="stroke: #4CAF50; stroke-width: 1.5625;" width="10.4167" x="268.2292" y="163.4277"/><text fill="#FFFFFF" font-family="Verdana" font-size="12.5" lengthAdjust="spacingAndGlyphs" textLength="132.2917" x="290.1042" y="154.5532">Another Component</text><!--entity FTP--><ellipse cx="50" cy="292.5069" fill="#B7161C" filter="url(#fyilmmlo4piqb)" rx="8.3333" ry="8.3333" style="stroke: #E51C23; stroke-width: 2.0833333333333335;"/><text fill="#222222" font-family="Verdana" font-size="12.5" lengthAdjust="spacingAndGlyphs" textLength="22.9167" x="38.5417" y="329.0324">FTP</text><!--entity Second Component--><rect fill="url(#gyilmmlo4piqb3)" filter="url(#fyilmmlo4piqb)" height="48.525" rx="4.1667" ry="4.1667" style="stroke: #4CAF50; stroke-width: 1.5625;" width="161.4583" x="96.3542" y="268.0278"/><rect fill="url(#gyilmmlo4piqb3)" height="5.2083" style="stroke: #4CAF50; stroke-width: 1.5625;" width="10.4167" x="91.1458" y="273.2361"/><rect fill="url(#gyilmmlo4piqb3)" height="5.2083" style="stroke: #4CAF50; stroke-width: 1.5625;" width="10.4167" x="91.1458" y="306.1361"/><text fill="#FFFFFF" font-family="Verdana" font-size="12.5" lengthAdjust="spacingAndGlyphs" textLength="128.125" x="113.0208" y="297.2616">Second Component</text><!--entity Example 1--><rect fill="url(#gyilmmlo4piqb3)" filter="url(#fyilmmlo4piqb)" height="48.525" rx="4.1667" ry="4.1667" style="stroke: #4CAF50; stroke-width: 1.5625;" width="101.0417" x="317.1875" y="268.0278"/><rect fill="url(#gyilmmlo4piqb3)" height="5.2083" style="stroke: #4CAF50; stroke-width: 1.5625;" width="10.4167" x="311.9792" y="273.2361"/><rect fill="url(#gyilmmlo4piqb3)" height="5.2083" style="stroke: #4CAF50; stroke-width: 1.5625;" width="10.4167" x="311.9792" y="306.1361"/><text fill="#FFFFFF" font-family="Verdana" font-size="12.5" lengthAdjust="spacingAndGlyphs" textLength="67.7083" x="333.8542" y="297.2616">Example 1</text><!--entity Folder 3--><rect fill="url(#gyilmmlo4piqb3)" filter="url(#fyilmmlo4piqb)" height="48.525" rx="4.1667" ry="4.1667" style="stroke: #4CAF50; stroke-width: 1.5625;" width="86.4583" x="324.4792" y="476.3611"/><rect fill="url(#gyilmmlo4piqb3)" height="5.2083" style="stroke: #4CAF50; stroke-width: 1.5625;" width="10.4167" x="319.2708" y="481.5694"/><rect fill="url(#gyilmmlo4piqb3)" height="5.2083" style="stroke: #4CAF50; stroke-width: 1.5625;" width="10.4167" x="319.2708" y="514.4694"/><text fill="#FFFFFF" font-family="Verdana" font-size="12.5" lengthAdjust="spacingAndGlyphs" textLength="53.125" x="341.1458" y="505.5949">Folder 3</text><!--entity Frame 4--><rect fill="url(#gyilmmlo4piqb3)" filter="url(#fyilmmlo4piqb)" height="48.525" rx="4.1667" ry="4.1667" style="stroke: #4CAF50; stroke-width: 1.5625;" width="86.4583" x="324.4792" y="613.8611"/><rect fill="url(#gyilmmlo4piqb3)" height="5.2083" style="stroke: #4CAF50; stroke-width: 1.5625;" width="10.4167" x="319.2708" y="619.0694"/><rect fill="url(#gyilmmlo4piqb3)" height="5.2083" style="stroke: #4CAF50; stroke-width: 1.5625;" width="10.4167" x="319.2708" y="651.9694"/><text fill="#FFFFFF" font-family="Verdana" font-size="12.5" lengthAdjust="spacingAndGlyphs" textLength="53.125" x="341.1458" y="643.0949">Frame 4</text><!--entity My Artifact--><rect fill="url(#gyilmmlo4piqb0)" filter="url(#fyilmmlo4piqb)" height="51.65" rx="4.1667" ry="4.1667" style="stroke: #666666; stroke-width: 1.5625;" width="111.4583" x="476.5625" y="123.7569"/><polygon fill="url(#gyilmmlo4piqb0)" points="570.3125,128.9653,570.3125,143.5486,582.8125,143.5486,582.8125,135.2153,576.5625,128.9653,570.3125,128.9653" style="stroke: #666666; stroke-width: 1.5625;"/><line style="stroke: #666666; stroke-width: 1.5625;" x1="576.5625" x2="576.5625" y1="128.9653" y2="135.2153"/><line style="stroke: #666666; stroke-width: 1.5625;" x1="582.8125" x2="576.5625" y1="135.2153" y2="135.2153"/><text fill="#666666" font-family="Verdana" font-size="12.5" lengthAdjust="spacingAndGlyphs" textLength="67.7083" x="493.2292" y="156.1157">My Artifact</text><!--entity My Storage--><rect fill="url(#gyilmmlo4piqb4)" filter="url(#fyilmmlo4piqb)" height="48.525" rx="36.4583" ry="36.4583" style="stroke: #FF9800; stroke-width: 1.5625;" width="107.2917" x="624.4792" y="125.3194"/><text fill="#FFFFFF" font-family="Verdana" font-size="12.5" lengthAdjust="spacingAndGlyphs" textLength="73.9583" x="641.1458" y="154.5532">My Storage</text><!--entity My Queue--><path d="M773.4375,130.5278 L861.9792,130.5278 C867.1875,130.5278 867.1875,149.5819 867.1875,149.5819 C867.1875,149.5819 867.1875,168.6361 861.9792,168.6361 L773.4375,168.6361 C768.2292,168.6361 768.2292,149.5819 768.2292,149.5819 C768.2292,149.5819 768.2292,130.5278 773.4375,130.5278 " fill="url(#gyilmmlo4piqb5)" filter="url(#fyilmmlo4piqb)" style="stroke: #CC7A00; stroke-width: 1.5625;"/><path d="M861.9792,130.5278 C856.7708,130.5278 856.7708,149.5819 856.7708,149.5819 C856.7708,168.6361 861.9792,168.6361 861.9792,168.6361 " fill="none" style="stroke: #CC7A00; stroke-width: 1.5625;"/><text fill="#FFFFFF" font-family="Verdana" font-size="12.5" lengthAdjust="spacingAndGlyphs" textLength="65.625" x="779.6875" y="154.5532">My Queue</text><!--entity My Interface--><ellipse cx="532.2917" cy="292.5069" fill="#B7161C" filter="url(#fyilmmlo4piqb)" rx="8.3333" ry="8.3333" style="stroke: #E51C23; stroke-width: 2.0833333333333335;"/><text fill="#222222" font-family="Verdana" font-size="12.5" lengthAdjust="spacingAndGlyphs" textLength="81.25" x="491.6667" y="329.0324">My Interface</text><!--entity My Card--><rect fill="url(#gyilmmlo4piqb6)" filter="url(#fyilmmlo4piqb)" height="33.9417" rx="4.1667" ry="4.1667" style="stroke: #9C27B0; stroke-width: 1.5625;" width="86.4583" x="624.4792" y="275.3194"/><text fill="#FFFFFF" font-family="Verdana" font-size="12.5" lengthAdjust="spacingAndGlyphs" textLength="53.125" x="641.1458" y="297.2616">My Card</text><!--entity My File--><path d="M747.9167,272.1944 L747.9167,312.3861 A4.1667,4.1667 0 0 0 752.0833,316.5527 L820.8333,316.5527 A4.1667,4.1667 0 0 0 825,312.3861 L825,278.4444 L814.5833,268.0278 L752.0833,268.0278 A4.1667,4.1667 0 0 0 747.9167,272.1944 " fill="url(#gyilmmlo4piqb0)" filter="url(#fyilmmlo4piqb)" style="stroke: #666666; stroke-width: 1.5625;"/><path d="M814.5833,268.0278 L814.5833,274.2778 A4.1667,4.1667 0 0 0 818.75,278.4444 L825,278.4444 " fill="url(#gyilmmlo4piqb0)" style="stroke: #666666; stroke-width: 1.5625;"/><text fill="#666666" font-family="Verdana" font-size="12.5" lengthAdjust="spacingAndGlyphs" textLength="43.75" x="764.5833" y="297.2616">My File</text><!--entity My Stack--><rect fill="url(#gyilmmlo4piqb7)" filter="url(#fyilmmlo4piqb)" height="48.525" rx="4.1667" ry="4.1667" style="stroke: none; stroke-width: 1.5625;" width="90.625" x="486.9792" y="476.3611"/><path d="M471.3542,476.3611 L482.8125,476.3611 A4.1667,4.1667 0 0 1 486.9792,480.5278 L486.9792,520.7194 A4.1667,4.1667 0 0 0 491.1458,524.8861 L573.4375,524.8861 A4.1667,4.1667 0 0 0 577.6042,520.7194 L577.6042,480.5278 A4.1667,4.1667 0 0 1 581.7708,476.3611 L593.2292,476.3611 " fill="none" style="stroke: #2196F3; stroke-width: 1.5625;"/><text fill="#FFFFFF" font-family="Verdana" font-size="12.5" lengthAdjust="spacingAndGlyphs" textLength="57.2917" x="503.6458" y="505.5949">My Stack</text><!--link HTTP to First Component--><path d="M217.4698,149.7986 C205.4833,149.7986 193.4969,149.7986 181.5104,149.7986 " fill="none" id="HTTP-First Component" style="stroke: #2196F3; stroke-width: 3.125;"/><!--link FTP to Second Component--><path d="M59.432,292.5069 C71.6873,292.5069 83.9427,292.5069 96.198,292.5069 " fill="none" id="FTP-Second Component" style="stroke: #2196F3; stroke-width: 3.125;"/><!--link First Component to FTP--><path d="M95.6918,174.3382 C89.772,184.3611 83.1691,196.3278 78.125,207.6111 C67.4276,231.5403 58.4911,260.8413 53.7235,277.7111 " fill="none" id="First Component-FTP" style="stroke: #2196F3; stroke-width: 3.125;"/><polygon fill="#2196F3" points="52.2701,282.9298,58.7993,275.0164,53.6675,277.9125,50.7714,272.7807,52.2701,282.9298" style="stroke: #2196F3; stroke-width: 3.125;"/><!--link Another Component to Example 1--><path d="M358.1677,174.3778 C360.1427,198.6121 363.2229,236.4153 365.3458,262.4767 " fill="none" id="Another Component-Example 1" style="stroke: #2196F3; stroke-width: 3.125;"/><polygon fill="#2196F3" points="365.7844,267.8507,369.1767,258.1685,365.3618,262.6595,360.8708,258.8446,365.7844,267.8507" style="stroke: #2196F3; stroke-width: 3.125;"/><!--link Example 1 to Folder 3--><path d="M367.7083,317.208 C367.7083,355.1819 367.7083,429.633 367.7083,470.7653 " fill="none" id="Example 1-Folder 3" style="stroke: #2196F3; stroke-width: 3.125;"/><polygon fill="#2196F3" points="367.7083,476.0986,371.875,466.7236,367.7083,470.8903,363.5417,466.7236,367.7083,476.0986" style="stroke: #2196F3; stroke-width: 3.125;"/><!--link Folder 3 to Frame 4--><path d="M367.7083,525.4694 C367.7083,548.4361 367.7083,583.3975 367.7083,608.1059 " fill="none" id="Folder 3-Frame 4" style="stroke: #2196F3; stroke-width: 3.125;"/><polygon fill="#2196F3" points="367.7083,613.5267,371.875,604.1517,367.7083,608.3184,363.5417,604.1517,367.7083,613.5267" style="stroke: #2196F3; stroke-width: 3.125;"/><!--link My Artifact to My Storage--><!--link My Storage to My Queue--><!--link My Artifact to My Interface--><!--link My Interface to My Card--><!--link My Card to My File--><!--link My Interface to My Stack--><!--
@startuml



skinparam backgroundColor white






skinparam defaultFontName       "Verdana"
skinparam defaultFontSize       12
skinparam dpi                   100
skinparam shadowing             true
skinparam roundcorner           8
skinparam ParticipantPadding    10
skinparam BoxPadding            2
skinparam Padding               6
skinparam TitleFontColor	    #222
skinparam TitleFontSize	    	20
skinparam TitleBorderThickness 	0
skinparam ArrowColor            #666

skinparam legend {
	BackgroundColor #fff
	BorderColor #cccccc
	FontColor #222
}

skinparam activity {
	TitleFontSize 20
	TitleFontColor #222
	FontColor #FFF
	BorderColor #2196F3
	BackgroundColor #4dabf5-#2196F3
	BarColor #4CAF50
	StartColor #9C27B0
	EndColor #9C27B0
	DiamondBackgroundColor #FFF-#fff
  	DiamondBorderColor #cccccc
	DiamondFontColor #222
}

skinparam sequence {
	BorderColor #2196F3
	TitleFontSize 20
	TitleFontColor #222
	BackgroundColor transparent
	StartColor #2196F3
	EndColor #2196F3
    ParticipantBackgroundColor #4dabf5-#2196F3
    ParticipantBorderColor #2196F3
	ParticipantBorderThickness 0
	ParticipantFontColor #FFF
	ActorBackgroundColor transparent
    ActorBorderColor #2196F3
	ActorFontColor #2196F3
	ArrowThickness 3
	ArrowColor #2196F3
	BoxBackgroundColor #fff
	BoxBorderColor #666
	BoxFontColor #222
	LifeLineBorderColor #cccccc
	LifeLineBorderThickness 0
	LifeLineBackgroundColor #fff
	GroupBorderColor #666
	GroupFontColor #222
	GroupHeaderFontColor #9C27B0
	DividerBackgroundColor #FFF-#fff
    DividerBorderColor #666
    DividerBorderThickness 2
    DividerFontColor #222
	ReferenceBorderColor #666
	ReferenceFontColor #222
	ReferenceHeaderFontColor #9C27B0
}

skinparam partition {
	BorderColor #2196F3
	FontColor #2196F3
	BackgroundColor transparent
}

skinparam collections {
	BackgroundColor #4dabf5-#2196F3
	BorderColor #2196F3
}

skinparam control {
	BackgroundColor  #4dabf5-#2196F3
	BorderColor #1a78c2
	FontColor #222
}

skinparam entity {
	BackgroundColor  #4dabf5-#2196F3
	BorderColor #1a78c2
	FontColor #222
}

skinparam boundary {
	BackgroundColor  #4dabf5-#2196F3
	BorderColor #1a78c2
	FontColor #222
}

skinparam agent {
	BackgroundColor #orange
	BorderColor #999999
	FontColor #333333
}

skinparam note {
	BorderThickness 1
	BackgroundColor #b052c0-#9C27B0
	BorderColor #9C27B0
	FontColor #FFF
}

skinparam artifact {
	BackgroundColor #FFF-#fff
	BorderColor #666
	FontColor #666
}

skinparam component {
	BackgroundColor  #70bf73-#4CAF50
	BorderColor  #4CAF50
	FontColor #FFF
}

skinparam interface {
	BackgroundColor  #B7161C
	BorderColor  #e51c23
	FontColor #222
}

skinparam storage {
	BackgroundColor #ffad33-#ff9800
  	BorderColor #ff9800
	FontColor #FFF
}

skinparam node {
	BackgroundColor #fff-#fff
	BorderColor #222
	FontColor #222
}

skinparam cloud {
	BackgroundColor white-lightskyblue
	BorderColor transparent
	FontColor #222
}

skinparam database {
	BackgroundColor  #4dabf5-#2196F3
	BorderColor #1a78c2
	FontColor #222
}

skinparam actor {
	FontColor #222
}

skinparam class {
	HeaderBackgroundColor #2196F3-#1a78c2
	FontColor #FFF
	BackgroundColor #4dabf5-#2196F3
	BorderColor #1a78c2
	StereotypeFontColor #222
	BorderThickness 1
	AttributeFontColor #222
	AttributeFontSize 11
}

skinparam object {
	FontColor #4CAF50
	BackgroundColor #fff-#cccccc
	BorderColor #cccccc
	StereotypeFontColor #222
	BorderThickness 1
	AttributeFontColor #222
	AttributeFontSize 11
}

skinparam usecase {
	BackgroundColor #fff-#fff
	BorderColor #fff
	BorderThickness 2
	FontColor #222
	StereotypeFontColor #2196F3
}

skinparam rectangle {
	BackgroundColor #fff-#cccccc
	BorderColor #1a78c2
	BorderThickness 2
	FontColor #2196F3
	StereotypeFontColor #2196F3
}

skinparam package {
	BackgroundColor #fff-#fff
  	BorderColor #2196F3
	FontColor #2196F3
	BorderThickness 2
}

skinparam folder {
	BackgroundColor #FFF-#fff
  	BorderColor #ff9800
	FontColor #ff9800
	BorderThickness 2
}

skinparam frame {
	BackgroundColor #FFF-#fff
  	BorderColor #9C27B0
	FontColor #9C27B0
	BorderThickness 2
}

skinparam state {
	StartColor #9C27B0
	EndColor #9C27B0
	BackgroundColor #fff-#cccccc
	BorderColor #cccccc
	FontColor #9C27B0
	AttributeFontColor #222
	AttributeFontSize 11
}

skinparam queue {
	BackgroundColor #ff9800-#CC7A00
  	BorderColor #CC7A00
	FontColor #FFF
}

skinparam card {
	BackgroundColor #b052c0-#9C27B0
	BorderColor #9C27B0
	FontColor #FFF
}

skinparam file {
	BackgroundColor #fff-#fff
	BorderColor #666
	FontColor #666

}

skinparam stack {
	BackgroundColor #4dabf5-#1a78c2
	BorderColor #2196F3
	FontColor #FFF
}

title Component Diagram - materia theme


package "My Package" {
  HTTP - [First Component]
  [Another Component]
}
 
node "My Node" {
  FTP - [Second Component]
  [First Component] - -> FTP
} 

cloud "My Cloud" {
  [Example 1]
}


database "My Database" {
  folder "My folder" {
	[Folder 3]
  }
  frame "My Frame" {
	[Frame 4]
  }
}

artifact "My Artifact"
storage "My Storage"
queue "My Queue"
interface "My Interface"
card "My Card"
file "My File"
stack "My Stack"

[Another Component] - -> [Example 1]
[Example 1] - -> [Folder 3]
[Folder 3] - -> [Frame 4]

@enduml

PlantUML version 1.2019.08(Sat Jul 13 12:25:14 PDT 2019)
(MIT source distribution)
Java Runtime: Java(TM) SE Runtime Environment
JVM: Java HotSpot(TM) 64-Bit Server VM
Java Version: 1.8.0_212-b32
Operating System: Windows 10
OS Version: 10.0
Default Encoding: Cp1252
Language: en
Country: US
--></g></svg>