<?xml version="1.0" encoding="UTF-8" standalone="no"?><svg xmlns="http://www.w3.org/2000/svg" xmlns:xlink="http://www.w3.org/1999/xlink" contentScriptType="application/ecmascript" contentStyleType="text/css" height="1748.9583px" preserveAspectRatio="none" style="width:1479px;height:1748px;" version="1.1" viewBox="0 0 1479 1748" width="1479.1667px" zoomAndPan="magnify"><defs><linearGradient id="gamriova8k8370" x1="50%" x2="50%" y1="0%" y2="100%"><stop offset="0%" stop-color="#FFFFFF"/><stop offset="100%" stop-color="#FFFFFF"/></linearGradient><filter height="300%" id="famriova8k837" width="300%" x="-1" y="-1"><feGaussianBlur result="blurOut" stdDeviation="2.0833333333333335"/><feColorMatrix in="blurOut" result="blurOut2" type="matrix" values="0 0 0 0 0 0 0 0 0 0 0 0 0 0 0 0 0 0 .4 0"/><feOffset dx="4.166666666666667" dy="4.166666666666667" in="blurOut2" result="blurOut3"/><feBlend in="SourceGraphic" in2="blurOut3" mode="normal"/></filter><linearGradient id="gamriova8k8371" x1="50%" x2="50%" y1="0%" y2="100%"><stop offset="0%" stop-color="#4DABF5"/><stop offset="100%" stop-color="#2196F3"/></linearGradient><linearGradient id="gamriova8k8372" x1="50%" x2="50%" y1="0%" y2="100%"><stop offset="0%" stop-color="#B052C0"/><stop offset="100%" stop-color="#9C27B0"/></linearGradient></defs><g><rect fill="url(#gamriova8k8370)" height="46.4417" rx="4.1667" ry="4.1667" style="stroke: #CCCCCC; stroke-width: 1.0416666666666667;" width="281.25" x="593.75" y="30.8167"/><text fill="#2196F3" font-family="Verdana" font-size="12.5" font-weight="bold" lengthAdjust="spacingAndGlyphs" textLength="243.75" x="612.5" y="59.0088">Sequence Diagram - materia theme</text><rect fill="#FFFFFF" height="1629.8828" rx="4.1667" ry="4.1667" style="stroke: #666666; stroke-width: 1.0416666666666667;" width="364.5833" x="1059.375" y="88.7166"/><text fill="#222222" font-family="Verdana" font-size="12.5" font-weight="bold" lengthAdjust="spacingAndGlyphs" textLength="111.4583" x="1185.9375" y="111.7004">Internal Service</text><rect fill="#FFFFFF" filter="url(#famriova8k837)" height="305.2999" style="stroke: #CCCCCC; stroke-width: 1.0416666666666667;" width="10.4167" x="439.0625" y="388.0249"/><line style="stroke: #CCCCCC; stroke-width: 1.0416666666666667;" x1="73.9583" x2="73.9583" y1="193.4916" y2="701.6581"/><line style="stroke: #CCCCCC; stroke-width: 1.0416666666666667; stroke-dasharray: 1.0,4.0;" x1="73.9583" x2="73.9583" y1="701.6581" y2="766.8498"/><line style="stroke: #CCCCCC; stroke-width: 1.0416666666666667;" x1="73.9583" x2="73.9583" y1="766.8498" y2="1609.6578"/><line style="stroke: #CCCCCC; stroke-width: 1.0416666666666667;" x1="267.7083" x2="267.7083" y1="193.4916" y2="701.6581"/><line style="stroke: #CCCCCC; stroke-width: 1.0416666666666667; stroke-dasharray: 1.0,4.0;" x1="267.7083" x2="267.7083" y1="701.6581" y2="766.8498"/><line style="stroke: #CCCCCC; stroke-width: 1.0416666666666667;" x1="267.7083" x2="267.7083" y1="766.8498" y2="1609.6578"/><line style="stroke: #CCCCCC; stroke-width: 1.0416666666666667;" x1="443.75" x2="443.75" y1="193.4916" y2="701.6581"/><line style="stroke: #CCCCCC; stroke-width: 1.0416666666666667; stroke-dasharray: 1.0,4.0;" x1="443.75" x2="443.75" y1="701.6581" y2="766.8498"/><line style="stroke: #CCCCCC; stroke-width: 1.0416666666666667;" x1="443.75" x2="443.75" y1="766.8498" y2="1609.6578"/><line style="stroke: #CCCCCC; stroke-width: 1.0416666666666667;" x1="617.7083" x2="617.7083" y1="193.4916" y2="701.6581"/><line style="stroke: #CCCCCC; stroke-width: 1.0416666666666667; stroke-dasharray: 1.0,4.0;" x1="617.7083" x2="617.7083" y1="701.6581" y2="766.8498"/><line style="stroke: #CCCCCC; stroke-width: 1.0416666666666667;" x1="617.7083" x2="617.7083" y1="766.8498" y2="1609.6578"/><line style="stroke: #CCCCCC; stroke-width: 1.0416666666666667;" x1="811.4583" x2="811.4583" y1="193.4916" y2="701.6581"/><line style="stroke: #CCCCCC; stroke-width: 1.0416666666666667; stroke-dasharray: 1.0,4.0;" x1="811.4583" x2="811.4583" y1="701.6581" y2="766.8498"/><line style="stroke: #CCCCCC; stroke-width: 1.0416666666666667;" x1="811.4583" x2="811.4583" y1="766.8498" y2="1609.6578"/><line style="stroke: #CCCCCC; stroke-width: 1.0416666666666667;" x1="931.25" x2="931.25" y1="193.4916" y2="701.6581"/><line style="stroke: #CCCCCC; stroke-width: 1.0416666666666667; stroke-dasharray: 1.0,4.0;" x1="931.25" x2="931.25" y1="701.6581" y2="766.8498"/><line style="stroke: #CCCCCC; stroke-width: 1.0416666666666667;" x1="931.25" x2="931.25" y1="766.8498" y2="1609.6578"/><line style="stroke: #CCCCCC; stroke-width: 1.0416666666666667;" x1="1137.5" x2="1137.5" y1="193.4916" y2="701.6581"/><line style="stroke: #CCCCCC; stroke-width: 1.0416666666666667; stroke-dasharray: 1.0,4.0;" x1="1137.5" x2="1137.5" y1="701.6581" y2="766.8498"/><line style="stroke: #CCCCCC; stroke-width: 1.0416666666666667;" x1="1137.5" x2="1137.5" y1="766.8498" y2="1609.6578"/><line style="stroke: #CCCCCC; stroke-width: 1.0416666666666667;" x1="1320.8333" x2="1320.8333" y1="193.4916" y2="701.6581"/><line style="stroke: #CCCCCC; stroke-width: 1.0416666666666667; stroke-dasharray: 1.0,4.0;" x1="1320.8333" x2="1320.8333" y1="701.6581" y2="766.8498"/><line style="stroke: #CCCCCC; stroke-width: 1.0416666666666667;" x1="1320.8333" x2="1320.8333" y1="766.8498" y2="1609.6578"/><text fill="#222222" font-family="Verdana" font-size="12.5" lengthAdjust="spacingAndGlyphs" textLength="32.2917" x="55.2083" y="180.4504">Foo1</text><ellipse cx="74.4792" cy="98.0916" fill="#FFFFFF" filter="url(#famriova8k837)" rx="8.3333" ry="8.3333" style="stroke: #2196F3; stroke-width: 2.0833333333333335;"/><path d="M74.4792,106.425 L74.4792,134.55 M60.9375,114.7583 L88.0208,114.7583 M74.4792,134.55 L60.9375,150.175 M74.4792,134.55 L88.0208,150.175 " fill="none" filter="url(#famriova8k837)" style="stroke: #2196F3; stroke-width: 2.0833333333333335;"/><text fill="#222222" font-family="Verdana" font-size="12.5" lengthAdjust="spacingAndGlyphs" textLength="32.2917" x="55.2083" y="1631.5999">Foo1</text><ellipse cx="74.4792" cy="1655.0578" fill="#FFFFFF" filter="url(#famriova8k837)" rx="8.3333" ry="8.3333" style="stroke: #2196F3; stroke-width: 2.0833333333333335;"/><path d="M74.4792,1663.3911 L74.4792,1691.5161 M60.9375,1671.7244 L88.0208,1671.7244 M74.4792,1691.5161 L60.9375,1707.1411 M74.4792,1691.5161 L88.0208,1707.1411 " fill="none" filter="url(#famriova8k837)" style="stroke: #2196F3; stroke-width: 2.0833333333333335;"/><text fill="#222222" font-family="Verdana" font-size="12.5" lengthAdjust="spacingAndGlyphs" textLength="32.2917" x="248.9583" y="180.4504">Foo2</text><path d="M246.875,128.3 L246.875,153.3 M246.875,140.8 L264.5833,140.8 " fill="none" filter="url(#famriova8k837)" style="stroke: #1A78C2; stroke-width: 2.0833333333333335;"/><ellipse cx="277.0833" cy="140.8" fill="url(#gamriova8k8371)" filter="url(#famriova8k837)" rx="12.5" ry="12.5" style="stroke: #1A78C2; stroke-width: 2.0833333333333335;"/><text fill="#222222" font-family="Verdana" font-size="12.5" lengthAdjust="spacingAndGlyphs" textLength="32.2917" x="248.9583" y="1631.5999">Foo2</text><path d="M246.875,1648.8078 L246.875,1673.8078 M246.875,1661.3078 L264.5833,1661.3078 " fill="none" filter="url(#famriova8k837)" style="stroke: #1A78C2; stroke-width: 2.0833333333333335;"/><ellipse cx="277.0833" cy="1661.3078" fill="url(#gamriova8k8371)" filter="url(#famriova8k837)" rx="12.5" ry="12.5" style="stroke: #1A78C2; stroke-width: 2.0833333333333335;"/><text fill="#222222" font-family="Verdana" font-size="12.5" lengthAdjust="spacingAndGlyphs" textLength="32.2917" x="425" y="180.4504">Foo3</text><ellipse cx="444.2708" cy="140.8" fill="url(#gamriova8k8371)" filter="url(#famriova8k837)" rx="12.5" ry="12.5" style="stroke: #1A78C2; stroke-width: 2.0833333333333335;"/><polygon fill="#1A78C2" points="440.1042,128.3,446.3542,123.0916,444.2708,128.3,446.3542,133.5083,440.1042,128.3" style="stroke: #1A78C2; stroke-width: 1.0416666666666667;"/><text fill="#222222" font-family="Verdana" font-size="12.5" lengthAdjust="spacingAndGlyphs" textLength="32.2917" x="425" y="1631.5999">Foo3</text><ellipse cx="444.2708" cy="1661.3078" fill="url(#gamriova8k8371)" filter="url(#famriova8k837)" rx="12.5" ry="12.5" style="stroke: #1A78C2; stroke-width: 2.0833333333333335;"/><polygon fill="#1A78C2" points="440.1042,1648.8078,446.3542,1643.5994,444.2708,1648.8078,446.3542,1654.0161,440.1042,1648.8078" style="stroke: #1A78C2; stroke-width: 1.0416666666666667;"/><text fill="#222222" font-family="Verdana" font-size="12.5" lengthAdjust="spacingAndGlyphs" textLength="32.2917" x="598.9583" y="180.4504">Foo4</text><ellipse cx="618.2292" cy="140.8" fill="url(#gamriova8k8371)" filter="url(#famriova8k837)" rx="12.5" ry="12.5" style="stroke: #1A78C2; stroke-width: 2.0833333333333335;"/><line style="stroke: #1A78C2; stroke-width: 2.0833333333333335;" x1="605.7292" x2="630.7292" y1="155.3833" y2="155.3833"/><text fill="#222222" font-family="Verdana" font-size="12.5" lengthAdjust="spacingAndGlyphs" textLength="32.2917" x="598.9583" y="1631.5999">Foo4</text><ellipse cx="618.2292" cy="1661.3078" fill="url(#gamriova8k8371)" filter="url(#famriova8k837)" rx="12.5" ry="12.5" style="stroke: #1A78C2; stroke-width: 2.0833333333333335;"/><line style="stroke: #1A78C2; stroke-width: 2.0833333333333335;" x1="605.7292" x2="630.7292" y1="1675.8911" y2="1675.8911"/><text fill="#222222" font-family="Verdana" font-size="12.5" lengthAdjust="spacingAndGlyphs" textLength="32.2917" x="792.7083" y="180.4504">Foo5</text><path d="M793.2292,119.9666 C793.2292,109.55 811.9792,109.55 811.9792,109.55 C811.9792,109.55 830.7292,109.55 830.7292,119.9666 L830.7292,147.05 C830.7292,157.4666 811.9792,157.4666 811.9792,157.4666 C811.9792,157.4666 793.2292,157.4666 793.2292,147.05 L793.2292,119.9666 " fill="url(#gamriova8k8371)" filter="url(#famriova8k837)" style="stroke: #1A78C2; stroke-width: 1.5625;"/><path d="M793.2292,119.9666 C793.2292,130.3833 811.9792,130.3833 811.9792,130.3833 C811.9792,130.3833 830.7292,130.3833 830.7292,119.9666 " fill="none" style="stroke: #1A78C2; stroke-width: 1.5625;"/><text fill="#222222" font-family="Verdana" font-size="12.5" lengthAdjust="spacingAndGlyphs" textLength="32.2917" x="792.7083" y="1631.5999">Foo5</text><path d="M793.2292,1655.0578 C793.2292,1644.6411 811.9792,1644.6411 811.9792,1644.6411 C811.9792,1644.6411 830.7292,1644.6411 830.7292,1655.0578 L830.7292,1682.1411 C830.7292,1692.5578 811.9792,1692.5578 811.9792,1692.5578 C811.9792,1692.5578 793.2292,1692.5578 793.2292,1682.1411 L793.2292,1655.0578 " fill="url(#gamriova8k8371)" filter="url(#famriova8k837)" style="stroke: #1A78C2; stroke-width: 1.5625;"/><path d="M793.2292,1655.0578 C793.2292,1665.4744 811.9792,1665.4744 811.9792,1665.4744 C811.9792,1665.4744 830.7292,1665.4744 830.7292,1655.0578 " fill="none" style="stroke: #1A78C2; stroke-width: 1.5625;"/><rect fill="url(#gamriova8k8371)" filter="url(#famriova8k837)" height="50.6083" rx="4.1667" ry="4.1667" style="stroke: #2196F3; stroke-width: 1.5625;" width="67.7083" x="897.9167" y="133.5083"/><rect fill="url(#gamriova8k8371)" filter="url(#famriova8k837)" height="50.6083" rx="4.1667" ry="4.1667" style="stroke: #2196F3; stroke-width: 1.5625;" width="67.7083" x="893.75" y="137.675"/><text fill="#FFFFFF" font-family="Verdana" font-size="12.5" lengthAdjust="spacingAndGlyphs" textLength="32.2917" x="911.4583" y="167.9504">Foo6</text><rect fill="url(#gamriova8k8371)" filter="url(#famriova8k837)" height="50.6083" rx="4.1667" ry="4.1667" style="stroke: #2196F3; stroke-width: 1.5625;" width="67.7083" x="897.9167" y="1608.6161"/><rect fill="url(#gamriova8k8371)" filter="url(#famriova8k837)" height="50.6083" rx="4.1667" ry="4.1667" style="stroke: #2196F3; stroke-width: 1.5625;" width="67.7083" x="893.75" y="1612.7828"/><text fill="#FFFFFF" font-family="Verdana" font-size="12.5" lengthAdjust="spacingAndGlyphs" textLength="32.2917" x="911.4583" y="1643.0583">Foo6</text><rect fill="url(#gamriova8k8371)" filter="url(#famriova8k837)" height="50.6083" rx="4.1667" ry="4.1667" style="stroke: #2196F3; stroke-width: 0.0;" width="60.4167" x="1105.2083" y="137.675"/><text fill="#FFFFFF" font-family="Verdana" font-size="12.5" lengthAdjust="spacingAndGlyphs" textLength="25" x="1122.9167" y="167.9504">Bob</text><rect fill="url(#gamriova8k8371)" filter="url(#famriova8k837)" height="50.6083" rx="4.1667" ry="4.1667" style="stroke: #2196F3; stroke-width: 0.0;" width="60.4167" x="1105.2083" y="1608.6161"/><text fill="#FFFFFF" font-family="Verdana" font-size="12.5" lengthAdjust="spacingAndGlyphs" textLength="25" x="1122.9167" y="1638.8916">Bob</text><rect fill="url(#gamriova8k8371)" filter="url(#famriova8k837)" height="44.9666" rx="4.1667" ry="4.1667" style="stroke: #2196F3; stroke-width: 0.0;" width="110.4167" x="1263.5417" y="143.3167"/><ellipse cx="1281.25" cy="161.025" fill="#ADD1B2" rx="10.4167" ry="10.4167" style="stroke: #2196F3; stroke-width: 1.0416666666666667;"/><path d="M1283.1543,165.4521 Q1282.7311,165.6637 1282.2591,165.7776 Q1281.7871,165.8915 1281.2826,165.8915 Q1279.4271,165.8915 1278.4505,164.6871 Q1277.4902,163.4664 1277.4902,161.1715 Q1277.4902,158.8603 1278.4505,157.6558 Q1279.4271,156.4351 1281.2826,156.4351 Q1281.7871,156.4351 1282.2591,156.5491 Q1282.7474,156.6467 1283.1543,156.8746 L1283.1543,158.8765 Q1282.6986,158.4534 1282.2591,158.2581 Q1281.8197,158.0465 1281.3639,158.0465 Q1280.3711,158.0465 1279.8665,158.844 Q1279.362,159.6252 1279.362,161.1715 Q1279.362,162.7014 1279.8665,163.4827 Q1280.3711,164.2639 1281.3639,164.2639 Q1281.8197,164.2639 1282.2591,164.0686 Q1282.6986,163.8733 1283.1543,163.4501 L1283.1543,165.4521 Z "/><text fill="#FFFFFF" font-family="Verdana" font-size="12.5" font-style="italic" lengthAdjust="spacingAndGlyphs" textLength="68.75" x="1297.9167" y="163.1083">«Testable»</text><text fill="#FFFFFF" font-family="Verdana" font-size="12.5" lengthAdjust="spacingAndGlyphs" textLength="29.1667" x="1317.7083" y="178.3">Alice</text><rect fill="url(#gamriova8k8371)" filter="url(#famriova8k837)" height="44.9666" rx="4.1667" ry="4.1667" style="stroke: #2196F3; stroke-width: 0.0;" width="110.4167" x="1263.5417" y="1608.6161"/><ellipse cx="1281.25" cy="1626.3245" fill="#ADD1B2" rx="10.4167" ry="10.4167" style="stroke: #2196F3; stroke-width: 1.0416666666666667;"/><path d="M1283.1543,1630.7515 Q1282.7311,1630.9631 1282.2591,1631.0771 Q1281.7871,1631.191 1281.2826,1631.191 Q1279.4271,1631.191 1278.4505,1629.9866 Q1277.4902,1628.7659 1277.4902,1626.4709 Q1277.4902,1624.1597 1278.4505,1622.9553 Q1279.4271,1621.7346 1281.2826,1621.7346 Q1281.7871,1621.7346 1282.2591,1621.8486 Q1282.7474,1621.9462 1283.1543,1622.1741 L1283.1543,1624.176 Q1282.6986,1623.7528 1282.2591,1623.5575 Q1281.8197,1623.3459 1281.3639,1623.3459 Q1280.3711,1623.3459 1279.8665,1624.1435 Q1279.362,1624.9247 1279.362,1626.4709 Q1279.362,1628.0009 1279.8665,1628.7821 Q1280.3711,1629.5634 1281.3639,1629.5634 Q1281.8197,1629.5634 1282.2591,1629.3681 Q1282.6986,1629.1728 1283.1543,1628.7496 L1283.1543,1630.7515 Z "/><text fill="#FFFFFF" font-family="Verdana" font-size="12.5" font-style="italic" lengthAdjust="spacingAndGlyphs" textLength="68.75" x="1297.9167" y="1628.4078">«Testable»</text><text fill="#FFFFFF" font-family="Verdana" font-size="12.5" lengthAdjust="spacingAndGlyphs" textLength="29.1667" x="1317.7083" y="1643.5994">Alice</text><rect fill="#FFFFFF" filter="url(#famriova8k837)" height="305.2999" style="stroke: #CCCCCC; stroke-width: 1.0416666666666667;" width="10.4167" x="439.0625" y="388.0249"/><rect fill="url(#gamriova8k8370)" filter="url(#famriova8k837)" height="3.125" style="stroke: url(#gamriova8k8370); stroke-width: 1.0416666666666667;" width="1463.5417" x="3.125" y="235.4624"/><line style="stroke: #666666; stroke-width: 1.0416666666666667;" x1="3.125" x2="1466.6667" y1="235.4624" y2="235.4624"/><line style="stroke: #666666; stroke-width: 1.0416666666666667;" x1="3.125" x2="1466.6667" y1="238.5874" y2="238.5874"/><rect fill="url(#gamriova8k8370)" filter="url(#famriova8k837)" height="44.3583" style="stroke: #666666; stroke-width: 2.0833333333333335;" width="126.0417" x="671.875" y="214.325"/><text fill="#222222" font-family="Verdana" font-size="12.5" font-weight="bold" lengthAdjust="spacingAndGlyphs" textLength="86.4583" x="688.5417" y="241.4754">Initialization</text><polygon fill="#2196F3" points="255.7292,307.2083,266.1458,311.3749,255.7292,315.5416,259.8958,311.3749" style="stroke: #2196F3; stroke-width: 1.0416666666666667;"/><line style="stroke: #2196F3; stroke-width: 3.125;" x1="74.4792" x2="261.9792" y1="311.3749" y2="311.3749"/><text fill="#222222" font-family="Verdana" font-size="12.5" font-weight="bold" lengthAdjust="spacingAndGlyphs" textLength="40.625" x="92.1875" y="296.2504">[001]</text><text fill="#222222" font-family="Verdana" font-size="12.5" lengthAdjust="spacingAndGlyphs" textLength="82.2917" x="157.8125" y="296.2504">To boundary</text><polygon fill="#2196F3" points="426.5625,383.8582,436.9792,388.0249,426.5625,392.1916,430.7292,388.0249" style="stroke: #2196F3; stroke-width: 1.0416666666666667;"/><line style="stroke: #2196F3; stroke-width: 3.125;" x1="268.2292" x2="432.8125" y1="388.0249" y2="388.0249"/><text fill="#222222" font-family="Verdana" font-size="12.5" font-weight="bold" lengthAdjust="spacingAndGlyphs" textLength="40.625" x="285.9375" y="372.9004">[002]</text><text fill="#222222" font-family="Verdana" font-size="12.5" lengthAdjust="spacingAndGlyphs" textLength="64.5833" x="351.5625" y="372.9004">To control</text><rect fill="#FFFFFF" filter="url(#famriova8k837)" height="97.6583" style="stroke: #666666; stroke-width: 2.0833333333333335;" width="255.2083" x="585.4167" y="396.3582"/><polygon fill="#EEEEEE" points="585.4167,396.3582,672.9167,396.3582,672.9167,423.4416,662.5,433.8582,585.4167,433.8582,585.4167,396.3582" style="stroke: #666666; stroke-width: 2.0833333333333335;"/><text fill="#9C27B0" font-family="Verdana" font-size="12.5" font-weight="bold" lengthAdjust="spacingAndGlyphs" textLength="19.7917" x="609.375" y="421.4254">ref</text><text fill="#222222" font-family="Verdana" font-size="12.5" lengthAdjust="spacingAndGlyphs" textLength="94.7917" x="667.7083" y="461.0087">This can be on</text><text fill="#222222" font-family="Verdana" font-size="12.5" lengthAdjust="spacingAndGlyphs" textLength="82.2917" x="667.7083" y="476.2004">several lines</text><polygon fill="#2196F3" points="605.7292,537.3332,616.1458,541.4998,605.7292,545.6665,609.8958,541.4998" style="stroke: #2196F3; stroke-width: 1.0416666666666667;"/><line style="stroke: #2196F3; stroke-width: 3.125;" x1="449.4792" x2="611.9792" y1="541.4998" y2="541.4998"/><text fill="#222222" font-family="Verdana" font-size="12.5" font-weight="bold" lengthAdjust="spacingAndGlyphs" textLength="40.625" x="467.1875" y="526.3753">[003]</text><text fill="#222222" font-family="Verdana" font-size="12.5" lengthAdjust="spacingAndGlyphs" textLength="57.2917" x="532.8125" y="526.3753">To entity</text><polygon fill="#2196F3" points="799.4792,587.9415,809.8958,592.1082,799.4792,596.2748,803.6458,592.1082" style="stroke: #2196F3; stroke-width: 1.0416666666666667;"/><line style="stroke: #2196F3; stroke-width: 3.125;" x1="618.2292" x2="805.7292" y1="592.1082" y2="592.1082"/><text fill="#222222" font-family="Verdana" font-size="12.5" font-weight="bold" lengthAdjust="spacingAndGlyphs" textLength="40.625" x="635.9375" y="576.9836">[004]</text><text fill="#222222" font-family="Verdana" font-size="12.5" lengthAdjust="spacingAndGlyphs" textLength="82.2917" x="701.5625" y="576.9836">To database</text><polygon fill="#2196F3" points="460.9375,638.5498,450.5208,642.7165,460.9375,646.8831,456.7708,642.7165" style="stroke: #2196F3; stroke-width: 1.0416666666666667;"/><line style="stroke: #2196F3; stroke-width: 3.125; stroke-dasharray: 2.0,2.0;" x1="454.6875" x2="810.9375" y1="642.7165" y2="642.7165"/><text fill="#222222" font-family="Verdana" font-size="12.5" font-weight="bold" lengthAdjust="spacingAndGlyphs" textLength="40.625" x="477.6042" y="627.592">[005]</text><text fill="#222222" font-family="Verdana" font-size="12.5" lengthAdjust="spacingAndGlyphs" textLength="40.625" x="543.2292" y="627.592">return</text><polygon fill="#2196F3" points="279.6875,689.1581,269.2708,693.3248,279.6875,697.4915,275.5208,693.3248" style="stroke: #2196F3; stroke-width: 1.0416666666666667;"/><line style="stroke: #2196F3; stroke-width: 3.125; stroke-dasharray: 2.0,2.0;" x1="273.4375" x2="443.2292" y1="693.3248" y2="693.3248"/><text fill="#222222" font-family="Verdana" font-size="12.5" font-weight="bold" lengthAdjust="spacingAndGlyphs" textLength="40.625" x="296.3542" y="678.2003">[006]</text><text fill="#222222" font-family="Verdana" font-size="12.5" lengthAdjust="spacingAndGlyphs" textLength="40.625" x="361.9792" y="678.2003">return</text><text fill="#000000" font-family="Verdana" font-size="12.5" lengthAdjust="spacingAndGlyphs" textLength="36.4583" x="643.4896" y="739.2253">Some</text><text fill="#000000" font-family="Verdana" font-size="12.5" lengthAdjust="spacingAndGlyphs" textLength="67.7083" x="684.1146" y="739.2253">long delay</text><text fill="#000000" font-family="Verdana" font-size="12.5" lengthAdjust="spacingAndGlyphs" textLength="0" x="755.9896" y="739.2253"/><polygon fill="#2196F3" points="919.2708,804.9581,929.6875,809.1248,919.2708,813.2914,923.4375,809.1248" style="stroke: #2196F3; stroke-width: 1.0416666666666667;"/><line style="stroke: #2196F3; stroke-width: 3.125;" x1="74.4792" x2="925.5208" y1="809.1248" y2="809.1248"/><text fill="#222222" font-family="Verdana" font-size="12.5" font-weight="bold" lengthAdjust="spacingAndGlyphs" textLength="40.625" x="92.1875" y="794.0002">[007]</text><text fill="#222222" font-family="Verdana" font-size="12.5" lengthAdjust="spacingAndGlyphs" textLength="87.5" x="157.8125" y="794.0002">To collections</text><polygon fill="#2196F3" points="629.6875,855.5664,619.2708,859.7331,629.6875,863.8997,625.5208,859.7331" style="stroke: #2196F3; stroke-width: 1.0416666666666667;"/><line style="stroke: #2196F3; stroke-width: 3.125; stroke-dasharray: 2.0,2.0;" x1="623.4375" x2="930.7292" y1="859.7331" y2="859.7331"/><text fill="#222222" font-family="Verdana" font-size="12.5" font-weight="bold" lengthAdjust="spacingAndGlyphs" textLength="40.625" x="646.3542" y="844.6086">[008]</text><text fill="#4CAF50" font-family="Verdana" font-size="12.5" font-weight="bold" lengthAdjust="spacingAndGlyphs" textLength="53.125" x="711.9792" y="844.6086">success</text><path d="M17.7083,875.3581 L98.9583,875.3581 L98.9583,902.4414 L88.5417,912.8581 L13.5417,912.8581 L13.5417,879.5247 " fill="#EEEEEE" style="stroke: #666666; stroke-width: 1.0416666666666667;"/><rect fill="none" height="625.1831" rx="4.1667" ry="4.1667" style="stroke: #666666; stroke-width: 2.0833333333333335;" width="1437.5" x="13.5417" y="875.3581"/><text fill="#9C27B0" font-family="Verdana" font-size="12.5" font-weight="bold" lengthAdjust="spacingAndGlyphs" textLength="17.7083" x="39.5833" y="899.3835">alt</text><text fill="#222222" font-family="Verdana" font-size="12.5" font-weight="bold" lengthAdjust="spacingAndGlyphs" textLength="118.75" x="125" y="900.4252">[successful case]</text><polygon fill="#2196F3" points="1308.3333,971.9747,1318.75,976.1414,1308.3333,980.308,1312.5,976.1414" style="stroke: #2196F3; stroke-width: 1.0416666666666667;"/><line style="stroke: #2196F3; stroke-width: 3.125;" x1="74.4792" x2="1314.5833" y1="976.1414" y2="976.1414"/><text fill="#222222" font-family="Verdana" font-size="12.5" font-weight="bold" lengthAdjust="spacingAndGlyphs" textLength="40.625" x="92.1875" y="961.0168">[009]</text><text fill="#222222" font-family="Verdana" font-size="12.5" lengthAdjust="spacingAndGlyphs" textLength="158.3333" x="157.8125" y="961.0168">Authentication Accepted</text><polygon fill="#2196F3" points="85.9375,1022.583,75.5208,1026.7497,85.9375,1030.9163,81.7708,1026.7497" style="stroke: #2196F3; stroke-width: 1.0416666666666667;"/><line style="stroke: #2196F3; stroke-width: 3.125; stroke-dasharray: 2.0,2.0;" x1="79.6875" x2="1319.7917" y1="1026.7497" y2="1026.7497"/><text fill="#222222" font-family="Verdana" font-size="12.5" font-weight="bold" lengthAdjust="spacingAndGlyphs" textLength="40.625" x="102.6042" y="1011.6252">[010]</text><text fill="#222222" font-family="Verdana" font-size="12.5" lengthAdjust="spacingAndGlyphs" textLength="51.0417" x="168.2292" y="1011.6252">success</text><path d="M1154.1667,1044.458 L1154.1667,1081.958 A4.1667,4.1667 0 0 0 1158.3333,1086.1247 L1307.2917,1086.1247 A4.1667,4.1667 0 0 0 1311.4583,1081.958 L1311.4583,1050.708 L1301.0417,1040.2913 L1158.3333,1040.2913 A4.1667,4.1667 0 0 0 1154.1667,1044.458 " fill="url(#gamriova8k8372)" filter="url(#famriova8k837)" style="stroke: #9C27B0; stroke-width: 1.0416666666666667;"/><path d="M1301.0417,1040.2913 L1301.0417,1048.6247 A2.0833,2.0833 0 0 0 1303.125,1050.708 L1311.4583,1050.708 L1301.0417,1040.2913 " fill="url(#gamriova8k8372)" style="stroke: #9C27B0; stroke-width: 1.0416666666666667;"/><text fill="#FFFFFF" font-family="Verdana" font-size="12.5" lengthAdjust="spacingAndGlyphs" textLength="114.5833" x="1170.8333" y="1068.4835">this is a first note</text><line style="stroke: #666666; stroke-width: 1.0416666666666667; stroke-dasharray: 2.0,2.0;" x1="13.5417" x2="1451.0417" y1="1097.1497" y2="1097.1497"/><text fill="#222222" font-family="Verdana" font-size="12.5" font-weight="bold" lengthAdjust="spacingAndGlyphs" textLength="148.9583" x="29.1667" y="1120.1335">[some kind of failure]</text><polygon fill="#2196F3" points="1308.3333,1172.3246,1318.75,1176.4913,1308.3333,1180.658,1312.5,1176.4913" style="stroke: #2196F3; stroke-width: 1.0416666666666667;"/><line style="stroke: #2196F3; stroke-width: 3.125;" x1="74.4792" x2="1314.5833" y1="1176.4913" y2="1176.4913"/><text fill="#222222" font-family="Verdana" font-size="12.5" font-weight="bold" lengthAdjust="spacingAndGlyphs" textLength="40.625" x="92.1875" y="1161.3668">[011]</text><text fill="#222222" font-family="Verdana" font-size="12.5" lengthAdjust="spacingAndGlyphs" textLength="142.7083" x="157.8125" y="1161.3668">Authentication Failure</text><polygon fill="#2196F3" points="85.9375,1222.9329,75.5208,1227.0996,85.9375,1231.2663,81.7708,1227.0996" style="stroke: #2196F3; stroke-width: 1.0416666666666667;"/><line style="stroke: #2196F3; stroke-width: 3.125; stroke-dasharray: 2.0,2.0;" x1="79.6875" x2="1319.7917" y1="1227.0996" y2="1227.0996"/><text fill="#222222" font-family="Verdana" font-size="12.5" font-weight="bold" lengthAdjust="spacingAndGlyphs" textLength="40.625" x="102.6042" y="1211.9751">[012]</text><text fill="#E51C23" font-family="Verdana" font-size="12.5" font-weight="bold" lengthAdjust="spacingAndGlyphs" textLength="82.2917" x="168.2292" y="1211.9751">Bad request</text><path d="M28.125,1242.7246 L182.2917,1242.7246 L182.2917,1269.8079 L171.875,1280.2246 L23.9583,1280.2246 L23.9583,1246.8913 " fill="#EEEEEE" style="stroke: #666666; stroke-width: 1.0416666666666667;"/><rect fill="none" height="161.8083" rx="4.1667" ry="4.1667" style="stroke: #666666; stroke-width: 2.0833333333333335;" width="1416.6667" x="23.9583" y="1242.7246"/><text fill="#9C27B0" font-family="Verdana" font-size="12.5" font-weight="bold" lengthAdjust="spacingAndGlyphs" textLength="90.625" x="50" y="1266.7501">My own label</text><path d="M38.5417,1288.1246 L131.25,1288.1246 L131.25,1315.2079 L120.8333,1325.6246 L34.375,1325.6246 L34.375,1292.2913 " fill="#EEEEEE" style="stroke: #666666; stroke-width: 1.0416666666666667;"/><rect fill="none" height="109.1166" rx="4.1667" ry="4.1667" style="stroke: #666666; stroke-width: 2.0833333333333335;" width="1395.8333" x="34.375" y="1288.1246"/><text fill="#9C27B0" font-family="Verdana" font-size="12.5" font-weight="bold" lengthAdjust="spacingAndGlyphs" textLength="29.1667" x="60.4167" y="1312.1501">loop</text><text fill="#222222" font-family="Verdana" font-size="12.5" font-weight="bold" lengthAdjust="spacingAndGlyphs" textLength="91.6667" x="157.2917" y="1313.1917">[1000 times]</text><polygon fill="#2196F3" points="85.9375,1384.7412,75.5208,1388.9079,85.9375,1393.0745,81.7708,1388.9079" style="stroke: #2196F3; stroke-width: 1.0416666666666667;"/><line style="stroke: #2196F3; stroke-width: 3.125;" x1="79.6875" x2="1319.7917" y1="1388.9079" y2="1388.9079"/><text fill="#222222" font-family="Verdana" font-size="12.5" font-weight="bold" lengthAdjust="spacingAndGlyphs" textLength="40.625" x="102.6042" y="1373.7834">[013]</text><text fill="#222222" font-family="Verdana" font-size="12.5" lengthAdjust="spacingAndGlyphs" textLength="71.875" x="168.2292" y="1373.7834">DNS Attack</text><line style="stroke: #666666; stroke-width: 1.0416666666666667; stroke-dasharray: 2.0,2.0;" x1="13.5417" x2="1451.0417" y1="1412.8662" y2="1412.8662"/><text fill="#222222" font-family="Verdana" font-size="12.5" font-weight="bold" lengthAdjust="spacingAndGlyphs" textLength="115.625" x="29.1667" y="1435.85">[Just a Warning]</text><polygon fill="#2196F3" points="1308.3333,1488.0412,1318.75,1492.2078,1308.3333,1496.3745,1312.5,1492.2078" style="stroke: #2196F3; stroke-width: 1.0416666666666667;"/><line style="stroke: #2196F3; stroke-width: 3.125;" x1="74.4792" x2="1314.5833" y1="1492.2078" y2="1492.2078"/><text fill="#222222" font-family="Verdana" font-size="12.5" font-weight="bold" lengthAdjust="spacingAndGlyphs" textLength="40.625" x="92.1875" y="1477.0833">[014]</text><text fill="#FF9800" font-family="Verdana" font-size="12.5" font-weight="bold" lengthAdjust="spacingAndGlyphs" textLength="94.7917" x="157.8125" y="1477.0833">Please repeat</text><path d="M46.875,1517.2078 L46.875,1584.9162 A4.1667,4.1667 0 0 0 51.0417,1589.0828 L290.625,1589.0828 A4.1667,4.1667 0 0 0 294.7917,1584.9162 L294.7917,1523.4578 L284.375,1513.0412 L51.0417,1513.0412 A4.1667,4.1667 0 0 0 46.875,1517.2078 " fill="url(#gamriova8k8372)" filter="url(#famriova8k837)" style="stroke: #9C27B0; stroke-width: 1.0416666666666667;"/><path d="M284.375,1513.0412 L284.375,1521.3745 A2.0833,2.0833 0 0 0 286.4583,1523.4578 L294.7917,1523.4578 L284.375,1513.0412 " fill="url(#gamriova8k8372)" style="stroke: #9C27B0; stroke-width: 1.0416666666666667;"/><text fill="#FFFFFF" font-family="Verdana" font-size="12.5" lengthAdjust="spacingAndGlyphs" textLength="136.4583" x="95.8333" y="1541.2333">this is a second note</text><text fill="#FFFFFF" font-family="Verdana" font-size="12.5" lengthAdjust="spacingAndGlyphs" textLength="81.25" x="95.8333" y="1556.425">that is really</text><text fill="#FFFFFF" font-family="Verdana" font-size="12.5" lengthAdjust="spacingAndGlyphs" textLength="28.125" x="95.8333" y="1571.6166">long</text><text fill="#888888" font-family="Verdana" font-size="12.5" lengthAdjust="spacingAndGlyphs" textLength="85.4167" x="1381.25" y="15.6921">Page Header</text><text fill="#888888" font-family="Verdana" font-size="12.5" lengthAdjust="spacingAndGlyphs" textLength="75" x="697.3958" y="1735.3333">Page 1 of 1</text><!--MD5=[e2e700368dc72f4afccfba39c51569af]
@startuml



skinparam backgroundColor transparent






skinparam defaultFontName       "Verdana"
skinparam defaultFontSize       12
skinparam dpi                   100
skinparam shadowing             true
skinparam roundcorner           8
skinparam ParticipantPadding    40
skinparam BoxPadding            40
skinparam Padding               10
skinparam ArrowColor            #666
skinparam stereotype {
    CBackgroundColor #fff
    CBorderColor #cccccc
    ABackgroundColor #70bf73
    ABorderColor #3D8C40
    IBackgroundColor #B7161C
    IBorderColor #b7161c
    EBackgroundColor #ffad33
    EBorderColor #CC7A00
    NBackgroundColor #b052c0
    NBorderColor #7D1F8D
}
skinparam title {
	FontColor	                 #2196F3
	BorderColor	                 #cccccc
	FontSize	    	         20
	BorderRoundCorner            8
	BorderThickness 	         1
	BackgroundColor              #fff-#fff
}

skinparam legend {
	BackgroundColor #fff
	BorderColor #cccccc
	FontColor #222
}

skinparam activity {
	FontColor #FFF
	BorderColor #2196F3
	BackgroundColor #4dabf5-#2196F3
	BarColor #4CAF50
	StartColor #9C27B0
	EndColor #9C27B0
	DiamondBackgroundColor #FFF-#fff
  	DiamondBorderColor #cccccc
	DiamondFontColor #222
}

skinparam sequence {
	BorderColor #2196F3
	TitleFontColor #2196F3
	BackgroundColor transparent
	StartColor #2196F3
	EndColor #2196F3
    ParticipantBackgroundColor #4dabf5-#2196F3
    ParticipantBorderColor #2196F3
	ParticipantBorderThickness 0
	ParticipantFontColor #FFF
	ActorBackgroundColor transparent
    ActorBorderColor #2196F3
	ActorFontColor #2196F3
	ArrowThickness 3
	ArrowColor #2196F3
	ArrowFontColor #222
	BoxBackgroundColor #fff
	BoxBorderColor #666
	BoxFontColor #222
	LifeLineBorderColor #cccccc
	LifeLineBorderThickness 2
	LifeLineBackgroundColor #fff
	GroupBorderColor #666
	GroupFontColor #222
	GroupHeaderFontColor #9C27B0
	DividerBackgroundColor #FFF-#fff
    DividerBorderColor #666
    DividerBorderThickness 2
    DividerFontColor #222
	ReferenceBackgroundColor transparent
	ReferenceBorderColor #666
	ReferenceFontColor #222
	ReferenceHeaderFontColor #9C27B0
}

skinparam partition {
	BorderColor #2196F3
	FontColor #2196F3
	BackgroundColor transparent
}

skinparam collections {
	BackgroundColor #4dabf5-#2196F3
	BorderColor #2196F3
}

skinparam control {
	BackgroundColor  #4dabf5-#2196F3
	BorderColor #1a78c2
	FontColor #222
}

skinparam entity {
	BackgroundColor  #4dabf5-#2196F3
	BorderColor #1a78c2
	FontColor #222
}

skinparam boundary {
	BackgroundColor  #4dabf5-#2196F3
	BorderColor #1a78c2
	FontColor #222
}

skinparam agent {
	BackgroundColor #orange
	BorderColor #999999
	FontColor #333333
}

skinparam note {
	BorderThickness 1
	BackgroundColor #b052c0-#9C27B0
	BorderColor #9C27B0
	FontColor #FFF
}

skinparam artifact {
	BackgroundColor #FFF-#fff
	BorderColor #666
	FontColor #666
}

skinparam component {
	BackgroundColor  #70bf73-#4CAF50
	BorderColor  #4CAF50
	FontColor #FFF
}

skinparam interface {
	BackgroundColor  #B7161C
	BorderColor  #e51c23
	FontColor #222
}

skinparam storage {
	BackgroundColor #ffad33-#ff9800
  	BorderColor #ff9800
	FontColor #FFF
}

skinparam node {
	BackgroundColor #fff-#fff
	BorderColor #222
	FontColor #222
}

skinparam cloud {
	BackgroundColor white-lightskyblue
	BorderColor transparent
	FontColor #222
}

skinparam database {
	BackgroundColor  #4dabf5-#2196F3
	BorderColor #1a78c2
	FontColor #222
}

skinparam actor {
	FontColor #222
}

skinparam class {
	HeaderBackgroundColor #2196F3-#1a78c2
	FontColor #FFF
	BackgroundColor #4dabf5-#2196F3
	BorderColor #1a78c2
	StereotypeFontColor #222
	BorderThickness 1
	AttributeFontColor #fff
	AttributeFontSize 11
}

skinparam object {
	FontColor #4CAF50
	BackgroundColor #fff-#cccccc
	BorderColor #cccccc
	StereotypeFontColor #222
	BorderThickness 1
	AttributeFontColor #222
	AttributeFontSize 11
}

skinparam usecase {
	BackgroundColor #fff-#fff
	BorderColor #fff
	BorderThickness 2
	FontColor #222
	StereotypeFontColor #2196F3
}

skinparam rectangle {
	BackgroundColor #fff-#cccccc
	BorderColor #1a78c2
	BorderThickness 2
	FontColor #2196F3
	StereotypeFontColor #2196F3
}

skinparam package {
	BackgroundColor #fff-#fff
  	BorderColor #2196F3
	FontColor #2196F3
	BorderThickness 2
}

skinparam folder {
	BackgroundColor #FFF-#fff
  	BorderColor #ff9800
	FontColor #ff9800
	BorderThickness 2
}

skinparam frame {
	BackgroundColor #FFF-#fff
  	BorderColor #9C27B0
	FontColor #9C27B0
	BorderThickness 2
}

skinparam state {
	StartColor #9C27B0
	EndColor #9C27B0
	BackgroundColor #fff-#cccccc
	BorderColor #cccccc
	FontColor #9C27B0
	AttributeFontColor #222
	AttributeFontSize 11
}

skinparam queue {
	BackgroundColor #ff9800-#CC7A00
  	BorderColor #CC7A00
	FontColor #FFF
}

skinparam card {
	BackgroundColor #b052c0-#9C27B0
	BorderColor #9C27B0
	FontColor #FFF
}

skinparam file {
	BackgroundColor #fff-#fff
	BorderColor #666
	FontColor #666

}

skinparam stack {
	BackgroundColor #4dabf5-#1a78c2
	BorderColor #2196F3
	FontColor #FFF
}

title Sequence Diagram - materia theme


autonumber "<b>[000]"

header Page Header
footer Page %page% of %lastpage%

actor Foo1
boundary Foo2
control Foo3
entity Foo4
database Foo5
collections Foo6
participant Bob
participant Alice << (C,#ADD1B2) Testable >>

box "Internal Service"
	participant Bob
	participant Alice
end box

== Initialization ==
Foo1 -> Foo2 : To boundary
|||
Foo2 -> Foo3 ++: To control
ref over Foo4, Foo5
  This can be on
  several lines
end ref
Foo3 -> Foo4 : To entity

Foo4 -> Foo5 : To database
Foo5 - -> Foo3 - - : return
Foo3 - -> Foo2 - -: return
... Some ~~long delay~~ ...
Foo1 -> Foo6 : To collections
Foo6 - -> Foo4:   <font color=#4CAF50><b>success


alt successful case

Foo1 -> Alice: Authentication Accepted
Alice - -> Foo1: success

note left of Alice: this is a first note

else some kind of failure

	Foo1 -> Alice: Authentication Failure
    Alice - -> Foo1:   <font color=#e51c23><b>Bad request
	group My own label
	    loop 1000 times
	        Alice -> Foo1: DNS Attack
	    end
	end
	
else Just a Warning

   Foo1 -> Alice:   <font color=#ff9800><b>Please repeat
   
end

note over Foo1, Foo2
this is a second note
that is really
long
end note

@enduml

PlantUML version 1.2019.12(Sun Nov 03 02:24:54 PST 2019)
(GPL source distribution)
Java Runtime: OpenJDK Runtime Environment
JVM: OpenJDK 64-Bit Server VM
Java Version: 11.0.4+11-post-Ubuntu-1ubuntu218.04.3
Operating System: Linux
Default Encoding: UTF-8
Language: en
Country: US
--></g></svg>