<?xml version="1.0" encoding="UTF-8" standalone="no"?><svg xmlns="http://www.w3.org/2000/svg" xmlns:xlink="http://www.w3.org/1999/xlink" contentScriptType="application/ecmascript" contentStyleType="text/css" height="1218.75px" preserveAspectRatio="none" style="width:381px;height:1218px;" version="1.1" viewBox="0 0 381 1218" width="381.25px" zoomAndPan="magnify"><defs><linearGradient id="g22m5v3eh87mx0" x1="50%" x2="50%" y1="0%" y2="100%"><stop offset="0%" stop-color="#FFFFFF"/><stop offset="100%" stop-color="#FFFFFF"/></linearGradient><filter height="300%" id="f22m5v3eh87mx" width="300%" x="-1" y="-1"><feGaussianBlur result="blurOut" stdDeviation="2.0833333333333335"/><feColorMatrix in="blurOut" result="blurOut2" type="matrix" values="0 0 0 0 0 0 0 0 0 0 0 0 0 0 0 0 0 0 .4 0"/><feOffset dx="4.166666666666667" dy="4.166666666666667" in="blurOut2" result="blurOut3"/><feBlend in="SourceGraphic" in2="blurOut3" mode="normal"/></filter><linearGradient id="g22m5v3eh87mx1" x1="50%" x2="50%" y1="0%" y2="100%"><stop offset="0%" stop-color="#FFFFFF"/><stop offset="100%" stop-color="#CCCCCC"/></linearGradient></defs><g><rect fill="url(#g22m5v3eh87mx0)" height="48.2361" rx="4.1667" ry="4.1667" style="stroke: #CCCCCC; stroke-width: 1.0416666666666667;" width="360.4167" x="9.8958" y="2.0833"/><text fill="#2196F3" font-family="Verdana" font-size="20.8333" lengthAdjust="spacingAndGlyphs" textLength="331.25" x="24.4792" y="34.4869">State Diagram - materia theme</text><rect fill="#4CAF50" filter="url(#f22m5v3eh87mx)" height="8.3333" style="stroke: none; stroke-width: 1.0416666666666667;" width="83.3333" x="142.7083" y="145.1111"/><ellipse cx="184.375" cy="72.1944" fill="#9C27B0" filter="url(#f22m5v3eh87mx)" rx="10.4167" ry="10.4167" style="stroke: none; stroke-width: 1.0416666666666667;"/><rect fill="url(#g22m5v3eh87mx1)" filter="url(#f22m5v3eh87mx)" height="61.025" rx="13.0208" ry="13.0208" style="stroke: #CCCCCC; stroke-width: 1.5625;" width="77.0833" x="89.5833" y="215.9444"/><line style="stroke: #CCCCCC; stroke-width: 1.5625;" x1="89.5833" x2="166.6667" y1="254.0527" y2="254.0527"/><text fill="#9C27B0" font-family="Verdana" font-size="12.5" lengthAdjust="spacingAndGlyphs" textLength="43.75" x="106.25" y="239.9699">State2</text><rect fill="url(#g22m5v3eh87mx1)" filter="url(#f22m5v3eh87mx)" height="61.025" rx="13.0208" ry="13.0208" style="stroke: #CCCCCC; stroke-width: 1.5625;" width="77.0833" x="203.125" y="215.9444"/><line style="stroke: #CCCCCC; stroke-width: 1.5625;" x1="203.125" x2="280.2083" y1="254.0527" y2="254.0527"/><text fill="#9C27B0" font-family="Verdana" font-size="12.5" lengthAdjust="spacingAndGlyphs" textLength="43.75" x="219.7917" y="239.9699">State3</text><rect fill="#4CAF50" filter="url(#f22m5v3eh87mx)" height="8.3333" style="stroke: none; stroke-width: 1.0416666666666667;" width="83.3333" x="142.7083" y="339.9028"/><rect fill="url(#g22m5v3eh87mx1)" filter="url(#f22m5v3eh87mx)" height="61.025" rx="13.0208" ry="13.0208" style="stroke: #CCCCCC; stroke-width: 1.5625;" width="77.0833" x="145.8333" y="410.7361"/><line style="stroke: #CCCCCC; stroke-width: 1.5625;" x1="145.8333" x2="222.9167" y1="448.8444" y2="448.8444"/><text fill="#9C27B0" font-family="Verdana" font-size="12.5" lengthAdjust="spacingAndGlyphs" textLength="43.75" x="162.5" y="434.7616">State4</text><rect fill="url(#g22m5v3eh87mx1)" filter="url(#f22m5v3eh87mx)" height="673.525" rx="13.0208" ry="13.0208" style="stroke: #CCCCCC; stroke-width: 1.5625;" width="356.25" x="6.25" y="534.6944"/><rect fill="#FFFFFF" height="629.1667" rx="13.0208" ry="13.0208" style="stroke: #FFFFFF; stroke-width: 1.0416666666666667;" width="350" x="9.375" y="575.9277"/><line style="stroke: #CCCCCC; stroke-width: 1.5625;" x1="6.25" x2="362.5" y1="572.8027" y2="572.8027"/><text fill="#9C27B0" font-family="Verdana" font-size="12.5" lengthAdjust="spacingAndGlyphs" textLength="38.5417" x="165.1042" y="558.7199">Active</text><ellipse cx="28.125" cy="617.0736" fill="#9C27B0" filter="url(#f22m5v3eh87mx)" rx="10.4167" ry="10.4167" style="stroke: none; stroke-width: 1.0416666666666667;"/><rect fill="url(#g22m5v3eh87mx1)" filter="url(#f22m5v3eh87mx)" height="61.025" rx="13.0208" ry="13.0208" style="stroke: #CCCCCC; stroke-width: 1.5625;" width="110.4167" x="57.2917" y="586.3444"/><line style="stroke: #CCCCCC; stroke-width: 1.5625;" x1="57.2917" x2="167.7083" y1="624.4527" y2="624.4527"/><text fill="#9C27B0" font-family="Verdana" font-size="12.5" lengthAdjust="spacingAndGlyphs" textLength="77.0833" x="73.9583" y="610.3699">NumLockOff</text><rect fill="url(#g22m5v3eh87mx1)" filter="url(#f22m5v3eh87mx)" height="61.025" rx="13.0208" ry="13.0208" style="stroke: #CCCCCC; stroke-width: 1.5625;" width="110.4167" x="56.25" y="714.4694"/><line style="stroke: #CCCCCC; stroke-width: 1.5625;" x1="56.25" x2="166.6667" y1="752.5777" y2="752.5777"/><text fill="#9C27B0" font-family="Verdana" font-size="12.5" lengthAdjust="spacingAndGlyphs" textLength="77.0833" x="72.9167" y="738.4949">NumLockOn</text><!--MD5=[f1e44e9cdf7ed6fd162579f896fb76ea]
link *start*Active to NumLockOff--><path d="M38.6719,617.0736 C42.9977,617.0736 47.3236,617.0736 51.6495,617.0736 " fill="none" id="*start*Active-&gt;NumLockOff" style="stroke: #2196F3; stroke-width: 3.125;"/><polygon fill="#2196F3" points="57.129,617.0736,47.754,612.9069,51.9206,617.0736,47.754,621.2402,57.129,617.0736" style="stroke: #2196F3; stroke-width: 3.125;"/><!--MD5=[b6ef3c088f5474ecc81df30475e7d61b]
link NumLockOff to NumLockOn--><path d="M56.9283,645.0408 C44.4259,652.5044 33.7782,660.2408 30.2083,666.5527 C23.8268,677.8361 23.8586,684.4182 30.2083,695.7194 C35.4226,704.9997 43.1616,712.7435 51.8233,719.1361 " fill="none" id="NumLockOff-&gt;NumLockOn" style="stroke: #2196F3; stroke-width: 3.125;"/><polygon fill="#2196F3" points="56.1427,722.1665,50.8614,713.371,51.8791,719.175,46.0751,720.1928,56.1427,722.1665" style="stroke: #2196F3; stroke-width: 3.125;"/><text fill="#222222" font-family="Verdana" font-size="12.5" lengthAdjust="spacingAndGlyphs" textLength="127.0833" x="37.5" y="686.4115">EvNumLockPressed</text><!--MD5=[3bfddee0d82dc74c927fbeb3d3f2e6a3]
link NumLockOn to NumLockOff--><path d="M158.5165,714.3507 C163.9065,708.8085 168.6254,702.5811 171.875,695.7194 C177.4233,684.0039 177.3733,678.2919 171.875,666.5527 C169.4348,661.3428 166.1466,656.4901 162.3627,652.0212 " fill="none" id="NumLockOn-&gt;NumLockOff" style="stroke: #2196F3; stroke-width: 3.125;"/><polygon fill="#2196F3" points="158.7585,648.0257,161.944,657.7778,162.2471,651.8931,168.1318,652.1962,158.7585,648.0257" style="stroke: #2196F3; stroke-width: 3.125;"/><text fill="#222222" font-family="Verdana" font-size="12.5" lengthAdjust="spacingAndGlyphs" textLength="127.0833" x="183.3333" y="686.4115">EvNumLockPressed</text><line style="stroke: #CCCCCC; stroke-width: 1.5625; stroke-dasharray: 8.0,10.0;" x1="11.4583" x2="355.2083" y1="786.3444" y2="786.3444"/><ellipse cx="28.125" cy="825.4069" fill="#9C27B0" filter="url(#f22m5v3eh87mx)" rx="10.4167" ry="10.4167" style="stroke: none; stroke-width: 1.0416666666666667;"/><rect fill="url(#g22m5v3eh87mx1)" filter="url(#f22m5v3eh87mx)" height="61.025" rx="13.0208" ry="13.0208" style="stroke: #CCCCCC; stroke-width: 1.5625;" width="114.5833" x="57.2917" y="794.6777"/><line style="stroke: #CCCCCC; stroke-width: 1.5625;" x1="57.2917" x2="171.875" y1="832.7861" y2="832.7861"/><text fill="#9C27B0" font-family="Verdana" font-size="12.5" lengthAdjust="spacingAndGlyphs" textLength="81.25" x="73.9583" y="818.7032">CapsLockOff</text><rect fill="url(#g22m5v3eh87mx1)" filter="url(#f22m5v3eh87mx)" height="61.025" rx="13.0208" ry="13.0208" style="stroke: #CCCCCC; stroke-width: 1.5625;" width="114.5833" x="56.25" y="922.8027"/><line style="stroke: #CCCCCC; stroke-width: 1.5625;" x1="56.25" x2="170.8333" y1="960.9111" y2="960.9111"/><text fill="#9C27B0" font-family="Verdana" font-size="12.5" lengthAdjust="spacingAndGlyphs" textLength="81.25" x="72.9167" y="946.8282">CapsLockOn</text><!--MD5=[ad44b9de6595643ec3df1279e2e825ac]
link *start*CONC82 to CapsLockOff--><path d="M38.5946,825.4069 C42.9079,825.4069 47.2213,825.4069 51.5346,825.4069 " fill="none" id="*start*CONC82-&gt;CapsLockOff" style="stroke: #2196F3; stroke-width: 3.125;"/><polygon fill="#2196F3" points="56.9981,825.4069,47.6231,821.2402,51.7898,825.4069,47.6231,829.5736,56.9981,825.4069" style="stroke: #2196F3; stroke-width: 3.125;"/><!--MD5=[dc4675bd3056f3ef68701d9e8e02a3f3]
link CapsLockOff to CapsLockOn--><path d="M57.1785,853.5038 C44.5509,860.8871 33.8379,868.55 30.2083,874.8861 C23.7649,886.1342 23.7955,892.7871 30.2083,904.0527 C35.4301,913.2261 43.0971,920.8748 51.6971,927.1952 " fill="none" id="CapsLockOff-&gt;CapsLockOn" style="stroke: #2196F3; stroke-width: 3.125;"/><polygon fill="#2196F3" points="55.9873,930.1922,50.6879,921.4077,51.7176,927.2096,45.9157,928.2392,55.9873,930.1922" style="stroke: #2196F3; stroke-width: 3.125;"/><text fill="#222222" font-family="Verdana" font-size="12.5" lengthAdjust="spacingAndGlyphs" textLength="131.25" x="37.5" y="894.7449">EvCapsLockPressed</text><!--MD5=[79e17b083e07746bd1a647600952cab6]
link CapsLockOn to CapsLockOff--><path d="M162.4963,922.595 C167.9516,917.0963 172.7269,910.9047 176.0417,904.0527 C181.6869,892.3836 181.639,886.5783 176.0417,874.8861 C173.5057,869.5888 170.0953,864.6779 166.1746,860.1728 " fill="none" id="CapsLockOn-&gt;CapsLockOff" style="stroke: #2196F3; stroke-width: 3.125;"/><polygon fill="#2196F3" points="162.4407,856.15,165.7643,865.856,165.9838,859.9675,171.8723,860.187,162.4407,856.15" style="stroke: #2196F3; stroke-width: 3.125;"/><text fill="#222222" font-family="Verdana" font-size="12.5" lengthAdjust="spacingAndGlyphs" textLength="131.25" x="188.5417" y="894.7449">EvCapsLockPressed</text><line style="stroke: #CCCCCC; stroke-width: 1.5625; stroke-dasharray: 8.0,10.0;" x1="11.4583" x2="355.2083" y1="994.6777" y2="994.6777"/><ellipse cx="28.125" cy="1033.7402" fill="#9C27B0" filter="url(#f22m5v3eh87mx)" rx="10.4167" ry="10.4167" style="stroke: none; stroke-width: 1.0416666666666667;"/><rect fill="url(#g22m5v3eh87mx1)" filter="url(#f22m5v3eh87mx)" height="61.025" rx="13.0208" ry="13.0208" style="stroke: #CCCCCC; stroke-width: 1.5625;" width="115.625" x="57.8125" y="1003.0111"/><line style="stroke: #CCCCCC; stroke-width: 1.5625;" x1="57.8125" x2="173.4375" y1="1041.1194" y2="1041.1194"/><text fill="#9C27B0" font-family="Verdana" font-size="12.5" lengthAdjust="spacingAndGlyphs" textLength="82.2917" x="74.4792" y="1027.0365">ScrollLockOff</text><rect fill="url(#g22m5v3eh87mx1)" filter="url(#f22m5v3eh87mx)" height="61.025" rx="13.0208" ry="13.0208" style="stroke: #CCCCCC; stroke-width: 1.5625;" width="115.625" x="57.8125" y="1131.1361"/><line style="stroke: #CCCCCC; stroke-width: 1.5625;" x1="57.8125" x2="173.4375" y1="1169.2444" y2="1169.2444"/><text fill="#9C27B0" font-family="Verdana" font-size="12.5" lengthAdjust="spacingAndGlyphs" textLength="82.2917" x="74.4792" y="1155.1615">ScrollLockOn</text><!--MD5=[9a8b2c0f7fde6bd227d6334344b3ad45]
link *start*CONC90 to ScrollLockOff--><path d="M38.7207,1033.7402 C43.255,1033.7402 47.7893,1033.7402 52.3235,1033.7402 " fill="none" id="*start*CONC90-&gt;ScrollLockOff" style="stroke: #2196F3; stroke-width: 3.125;"/><polygon fill="#2196F3" points="57.6464,1033.7402,48.2714,1029.5736,52.438,1033.7402,48.2714,1037.9069,57.6464,1033.7402" style="stroke: #2196F3; stroke-width: 3.125;"/><!--MD5=[da4e1e55b4a6de250eca2c82023085fa]
link ScrollLockOff to ScrollLockOn--><path d="M57.6472,1057.3626 C47.4984,1064.1712 38.2847,1072.6912 32.2917,1083.2194 C25.8789,1094.485 25.8789,1101.1204 32.2917,1112.3861 C37.3483,1121.2693 44.6978,1128.7227 52.9672,1134.9248 " fill="none" id="ScrollLockOff-&gt;ScrollLockOn" style="stroke: #2196F3; stroke-width: 3.125;"/><polygon fill="#2196F3" points="57.6472,1138.2428,52.4091,1129.4216,53.3983,1135.2306,47.5894,1136.2198,57.6472,1138.2428" style="stroke: #2196F3; stroke-width: 3.125;"/><text fill="#222222" font-family="Verdana" font-size="12.5" lengthAdjust="spacingAndGlyphs" textLength="131.25" x="39.5833" y="1103.0782">EvCapsLockPressed</text><!--MD5=[6ad2c621f2407b82317910f4deb17639]
link ScrollLockOn to ScrollLockOff--><path d="M164.5796,1130.9284 C170.0349,1125.4296 174.8102,1119.238 178.125,1112.3861 C183.7702,1100.7169 183.7702,1094.8886 178.125,1083.2194 C175.5871,1077.9734 172.1931,1073.1144 168.2932,1068.6571 " fill="none" id="ScrollLockOn-&gt;ScrollLockOff" style="stroke: #2196F3; stroke-width: 3.125;"/><polygon fill="#2196F3" points="164.5796,1064.6771,167.9288,1074.3742,168.1328,1068.4852,174.0218,1068.6891,164.5796,1064.6771" style="stroke: #2196F3; stroke-width: 3.125;"/><text fill="#222222" font-family="Verdana" font-size="12.5" lengthAdjust="spacingAndGlyphs" textLength="131.25" x="189.5833" y="1103.0782">EvCapsLockPressed</text><!--MD5=[242ad121cef04112e9b0ee8f25f52375]
link *start to fork_state--><path d="M184.375,82.9125 C184.375,97.9705 184.375,125.161 184.375,139.6223 " fill="none" id="*start-&gt;fork_state" style="stroke: #2196F3; stroke-width: 3.125;"/><polygon fill="#2196F3" points="184.375,144.9683,188.5417,135.5933,184.375,139.7599,180.2083,135.5933,184.375,144.9683" style="stroke: #2196F3; stroke-width: 3.125;"/><!--MD5=[44dd36eb382d4fffd186e8c447a61da0]
link fork_state to State2--><path d="M181.958,153.4628 C176.2254,163.3886 161.3361,189.1692 148.666,211.1072 " fill="none" id="fork_state-&gt;State2" style="stroke: #2196F3; stroke-width: 3.125;"/><polygon fill="#2196F3" points="146.0001,215.7231,154.297,209.6888,148.605,211.2129,147.0808,205.5209,146.0001,215.7231" style="stroke: #2196F3; stroke-width: 3.125;"/><!--MD5=[43d4d70f9cd19f132a5eb1ce9d85c890]
link fork_state to State3--><path d="M186.8368,153.4628 C192.6755,163.3886 207.8405,189.1692 220.7452,211.1072 " fill="none" id="fork_state-&gt;State3" style="stroke: #2196F3; stroke-width: 3.125;"/><polygon fill="#2196F3" points="223.4605,215.7231,222.2986,205.5298,220.8198,211.2338,215.1158,209.755,223.4605,215.7231" style="stroke: #2196F3; stroke-width: 3.125;"/><!--MD5=[8cf5ef3a64654818495211b4c165bd62]
link State2 to join_state--><path d="M145.9228,277.4903 C157.4134,297.386 171.5747,321.9059 179.0958,334.9286 " fill="none" id="State2-&gt;join_state" style="stroke: #2196F3; stroke-width: 3.125;"/><polygon fill="#2196F3" points="181.8854,339.7588,180.8051,329.5566,179.2807,335.2486,173.5887,333.7242,181.8854,339.7588" style="stroke: #2196F3; stroke-width: 3.125;"/><!--MD5=[183fde86cac17ac230b97143534e47db]
link State3 to join_state--><path d="M223.5393,277.4903 C211.8358,297.386 197.4124,321.9059 189.752,334.9286 " fill="none" id="State3-&gt;join_state" style="stroke: #2196F3; stroke-width: 3.125;"/><polygon fill="#2196F3" points="186.9106,339.7588,195.2553,333.7908,189.5514,335.2696,188.0726,329.5656,186.9106,339.7588" style="stroke: #2196F3; stroke-width: 3.125;"/><!--MD5=[1e473d623208eebf6d5ebd6e9bc5a11d]
link join_state to State4--><path d="M184.375,348.2544 C184.375,358.0557 184.375,383.3161 184.375,405.071 " fill="none" id="join_state-&gt;State4" style="stroke: #2196F3; stroke-width: 3.125;"/><polygon fill="#2196F3" points="184.375,410.5147,188.5417,401.1397,184.375,405.3064,180.2083,401.1397,184.375,410.5147" style="stroke: #2196F3; stroke-width: 3.125;"/><!--MD5=[0a70b1a7cf318979336334b4227eefe4]
link State4 to Active--><path d="M184.375,472.4047 C184.375,487.2981 184.375,506.7957 184.375,529.1678 " fill="none" id="State4-&gt;Active" style="stroke: #2196F3; stroke-width: 3.125;"/><polygon fill="#2196F3" points="184.375,534.6029,188.5417,525.2279,184.375,529.3945,180.2083,525.2279,184.375,534.6029" style="stroke: #2196F3; stroke-width: 3.125;"/><!--MD5=[c1782934c5670fb9244c33eafd8e24eb]
@startuml



skinparam backgroundColor white






skinparam defaultFontName       "Verdana"
skinparam defaultFontSize       12
skinparam dpi                   100
skinparam shadowing             true
skinparam roundcorner           8
skinparam ParticipantPadding    10
skinparam BoxPadding            2
skinparam Padding               6
skinparam ArrowColor            #666
skinparam title {
	FontColor	                 #2196F3
	BorderColor	                 #cccccc
	FontSize	    	         20
	BorderRoundCorner            8
	BorderThickness 	         1
	BackgroundColor              #fff-#fff
}

skinparam legend {
	BackgroundColor #fff
	BorderColor #cccccc
	FontColor #222
}

skinparam activity {
	FontColor #FFF
	BorderColor #2196F3
	BackgroundColor #4dabf5-#2196F3
	BarColor #4CAF50
	StartColor #9C27B0
	EndColor #9C27B0
	DiamondBackgroundColor #FFF-#fff
  	DiamondBorderColor #cccccc
	DiamondFontColor #222
}

skinparam sequence {
	BorderColor #2196F3
	TitleFontColor #2196F3
	BackgroundColor transparent
	StartColor #2196F3
	EndColor #2196F3
    ParticipantBackgroundColor #4dabf5-#2196F3
    ParticipantBorderColor #2196F3
	ParticipantBorderThickness 0
	ParticipantFontColor #FFF
	ActorBackgroundColor transparent
    ActorBorderColor #2196F3
	ActorFontColor #2196F3
	ArrowThickness 3
	ArrowColor #2196F3
	ArrowFontColor #222
	BoxBackgroundColor #fff
	BoxBorderColor #666
	BoxFontColor #222
	LifeLineBorderColor #cccccc
	LifeLineBorderThickness 2
	LifeLineBackgroundColor #fff
	GroupBorderColor #666
	GroupFontColor #222
	GroupHeaderFontColor #9C27B0
	DividerBackgroundColor #FFF-#fff
    DividerBorderColor #666
    DividerBorderThickness 2
    DividerFontColor #222
	ReferenceBackgroundColor white
	ReferenceBorderColor #666
	ReferenceFontColor #222
	ReferenceHeaderFontColor #9C27B0
}

skinparam partition {
	BorderColor #2196F3
	FontColor #2196F3
	BackgroundColor transparent
}

skinparam collections {
	BackgroundColor #4dabf5-#2196F3
	BorderColor #2196F3
}

skinparam control {
	BackgroundColor  #4dabf5-#2196F3
	BorderColor #1a78c2
	FontColor #222
}

skinparam entity {
	BackgroundColor  #4dabf5-#2196F3
	BorderColor #1a78c2
	FontColor #222
}

skinparam boundary {
	BackgroundColor  #4dabf5-#2196F3
	BorderColor #1a78c2
	FontColor #222
}

skinparam agent {
	BackgroundColor #orange
	BorderColor #999999
	FontColor #333333
}

skinparam note {
	BorderThickness 1
	BackgroundColor #b052c0-#9C27B0
	BorderColor #9C27B0
	FontColor #FFF
}

skinparam artifact {
	BackgroundColor #FFF-#fff
	BorderColor #666
	FontColor #666
}

skinparam component {
	BackgroundColor  #70bf73-#4CAF50
	BorderColor  #4CAF50
	FontColor #FFF
}

skinparam interface {
	BackgroundColor  #B7161C
	BorderColor  #e51c23
	FontColor #222
}

skinparam storage {
	BackgroundColor #ffad33-#ff9800
  	BorderColor #ff9800
	FontColor #FFF
}

skinparam node {
	BackgroundColor #fff-#fff
	BorderColor #222
	FontColor #222
}

skinparam cloud {
	BackgroundColor white-lightskyblue
	BorderColor transparent
	FontColor #222
}

skinparam database {
	BackgroundColor  #4dabf5-#2196F3
	BorderColor #1a78c2
	FontColor #222
}

skinparam actor {
	FontColor #222
}

skinparam class {
	HeaderBackgroundColor #2196F3-#1a78c2
	FontColor #FFF
	BackgroundColor #4dabf5-#2196F3
	BorderColor #1a78c2
	StereotypeFontColor #222
	BorderThickness 1
	AttributeFontColor #222
	AttributeFontSize 11
}

skinparam object {
	FontColor #4CAF50
	BackgroundColor #fff-#cccccc
	BorderColor #cccccc
	StereotypeFontColor #222
	BorderThickness 1
	AttributeFontColor #222
	AttributeFontSize 11
}

skinparam usecase {
	BackgroundColor #fff-#fff
	BorderColor #fff
	BorderThickness 2
	FontColor #222
	StereotypeFontColor #2196F3
}

skinparam rectangle {
	BackgroundColor #fff-#cccccc
	BorderColor #1a78c2
	BorderThickness 2
	FontColor #2196F3
	StereotypeFontColor #2196F3
}

skinparam package {
	BackgroundColor #fff-#fff
  	BorderColor #2196F3
	FontColor #2196F3
	BorderThickness 2
}

skinparam folder {
	BackgroundColor #FFF-#fff
  	BorderColor #ff9800
	FontColor #ff9800
	BorderThickness 2
}

skinparam frame {
	BackgroundColor #FFF-#fff
  	BorderColor #9C27B0
	FontColor #9C27B0
	BorderThickness 2
}

skinparam state {
	StartColor #9C27B0
	EndColor #9C27B0
	BackgroundColor #fff-#cccccc
	BorderColor #cccccc
	FontColor #9C27B0
	AttributeFontColor #222
	AttributeFontSize 11
}

skinparam queue {
	BackgroundColor #ff9800-#CC7A00
  	BorderColor #CC7A00
	FontColor #FFF
}

skinparam card {
	BackgroundColor #b052c0-#9C27B0
	BorderColor #9C27B0
	FontColor #FFF
}

skinparam file {
	BackgroundColor #fff-#fff
	BorderColor #666
	FontColor #666

}

skinparam stack {
	BackgroundColor #4dabf5-#1a78c2
	BorderColor #2196F3
	FontColor #FFF
}

title State Diagram - materia theme


state fork_state <<fork>>
[*] - -> fork_state
fork_state - -> State2
fork_state - -> State3

state join_state <<join>>
State2 - -> join_state
State3 - -> join_state
join_state - -> State4
State4 - -> Active

state Active {
  [*] -> NumLockOff
  NumLockOff - -> NumLockOn : EvNumLockPressed
  NumLockOn - -> NumLockOff : EvNumLockPressed
  - -
  [*] -> CapsLockOff
  CapsLockOff - -> CapsLockOn : EvCapsLockPressed
  CapsLockOn - -> CapsLockOff : EvCapsLockPressed
  - -
  [*] -> ScrollLockOff
  ScrollLockOff - -> ScrollLockOn : EvCapsLockPressed
  ScrollLockOn - -> ScrollLockOff : EvCapsLockPressed
}

@enduml

PlantUML version 1.2019.11(Sun Sep 22 03:02:15 PDT 2019)
(GPL source distribution)
Java Runtime: OpenJDK Runtime Environment
JVM: OpenJDK 64-Bit Server VM
Java Version: 11.0.4+11-post-Ubuntu-1ubuntu218.04.3
Operating System: Linux
Default Encoding: UTF-8
Language: en
Country: US
--></g></svg>