<?xml version="1.0" encoding="UTF-8" standalone="no"?><svg xmlns="http://www.w3.org/2000/svg" xmlns:xlink="http://www.w3.org/1999/xlink" contentScriptType="application/ecmascript" contentStyleType="text/css" height="569.7917px" preserveAspectRatio="none" style="width:663px;height:569px;" version="1.1" viewBox="0 0 663 569" width="663.5417px" zoomAndPan="magnify"><defs><linearGradient id="g1aox2w5tv7msg0" x1="50%" x2="50%" y1="0%" y2="100%"><stop offset="0%" stop-color="#DBDBDB"/><stop offset="100%" stop-color="#D2D2D2"/></linearGradient><linearGradient id="g1aox2w5tv7msg1" x1="50%" x2="50%" y1="0%" y2="100%"><stop offset="0%" stop-color="#F3F3F3"/><stop offset="100%" stop-color="#E2E2E2"/></linearGradient></defs><g><rect fill="url(#g1aox2w5tv7msg0)" height="56.5694" rx="4.1667" ry="4.1667" style="stroke: #D2D2D2; stroke-width: 1.0416666666666667;" width="379.1667" x="145.3125" y="2.0833"/><text fill="#FFFFFF" font-family="Verdana" font-size="20.8333" lengthAdjust="spacingAndGlyphs" textLength="341.6667" x="164.0625" y="38.6536">Class Diagram - lightgray theme</text><!--MD5=[b4fa10df80476353258f72a232547d63]
class AbstractList--><rect fill="url(#g1aox2w5tv7msg1)" height="63.1083" id="AbstractList" rx="7.8125" ry="7.8125" style="stroke: #F3F3F3; stroke-width: 1.0416666666666667;" width="127.0833" x="206.7708" y="300.3194"/><ellipse cx="221.3542" cy="323.5402" fill="#5CAD5C" rx="10.4167" ry="10.4167" style="stroke: #297A29; stroke-width: 1.0416666666666667;"/><path d="M220.9473,320.4966 L220.1009,324.2238 L221.8099,324.2238 L220.9473,320.4966 Z M219.8568,318.8527 L222.054,318.8527 L224.5117,327.9673 L222.7051,327.9673 L222.1517,325.7212 L219.7428,325.7212 L219.1895,327.9673 L217.3828,327.9673 L219.8568,318.8527 Z "/><text fill="#336699" font-family="Verdana" font-size="12.5" font-style="italic" lengthAdjust="spacingAndGlyphs" textLength="75" x="245.3125" y="328.5116">AbstractList</text><line style="stroke: #F3F3F3; stroke-width: 1.0416666666666667;" x1="207.8125" x2="332.8125" y1="346.7611" y2="346.7611"/><line style="stroke: #F3F3F3; stroke-width: 1.0416666666666667;" x1="207.8125" x2="332.8125" y1="355.0944" y2="355.0944"/><!--MD5=[8e34b16d8d8f96f4a11290cd523ed859]
class AbstractCollection--><rect fill="url(#g1aox2w5tv7msg1)" height="63.1083" id="AbstractCollection" rx="7.8125" ry="7.8125" style="stroke: #F3F3F3; stroke-width: 1.0416666666666667;" width="163.5417" x="6.25" y="300.3194"/><ellipse cx="20.8333" cy="323.5402" fill="#5CAD5C" rx="10.4167" ry="10.4167" style="stroke: #297A29; stroke-width: 1.0416666666666667;"/><path d="M20.4264,320.4966 L19.5801,324.2238 L21.2891,324.2238 L20.4264,320.4966 Z M19.3359,318.8527 L21.5332,318.8527 L23.9909,327.9673 L22.1842,327.9673 L21.6309,325.7212 L19.222,325.7212 L18.6686,327.9673 L16.862,327.9673 L19.3359,318.8527 Z "/><text fill="#336699" font-family="Verdana" font-size="12.5" font-style="italic" lengthAdjust="spacingAndGlyphs" textLength="111.4583" x="44.7917" y="328.5116">AbstractCollection</text><line style="stroke: #F3F3F3; stroke-width: 1.0416666666666667;" x1="7.2917" x2="168.75" y1="346.7611" y2="346.7611"/><line style="stroke: #F3F3F3; stroke-width: 1.0416666666666667;" x1="7.2917" x2="168.75" y1="355.0944" y2="355.0944"/><!--MD5=[3d4177ac58b4411586d067f34e84928f]
class List--><rect fill="url(#g1aox2w5tv7msg1)" height="63.1083" id="List" rx="7.8125" ry="7.8125" style="stroke: #F3F3F3; stroke-width: 1.0416666666666667;" width="75" x="219.2708" y="122.1944"/><ellipse cx="233.8542" cy="145.4152" fill="#FF5C5C" rx="10.4167" ry="10.4167" style="stroke: #CC2929; stroke-width: 1.0416666666666667;"/><path d="M230.7454,142.5832 L230.7454,140.9882 L236.1654,140.9882 L236.1654,142.5832 L234.3587,142.5832 L234.3587,148.5077 L236.1654,148.5077 L236.1654,150.1027 L230.7454,150.1027 L230.7454,148.5077 L232.5521,148.5077 L232.5521,142.5832 L230.7454,142.5832 Z "/><text fill="#336699" font-family="Verdana" font-size="12.5" font-style="italic" lengthAdjust="spacingAndGlyphs" textLength="22.9167" x="257.8125" y="150.3866">List</text><line style="stroke: #F3F3F3; stroke-width: 1.0416666666666667;" x1="220.3125" x2="293.2292" y1="168.6361" y2="168.6361"/><line style="stroke: #F3F3F3; stroke-width: 1.0416666666666667;" x1="220.3125" x2="293.2292" y1="176.9694" y2="176.9694"/><!--MD5=[c160724f8e3bb89ca8141a12554ac2e3]
class Collection--><rect fill="url(#g1aox2w5tv7msg1)" height="63.1083" id="Collection" rx="7.8125" ry="7.8125" style="stroke: #F3F3F3; stroke-width: 1.0416666666666667;" width="111.4583" x="58.3333" y="122.1944"/><ellipse cx="72.9167" cy="145.4152" fill="#FF5C5C" rx="10.4167" ry="10.4167" style="stroke: #CC2929; stroke-width: 1.0416666666666667;"/><path d="M69.8079,142.5832 L69.8079,140.9882 L75.2279,140.9882 L75.2279,142.5832 L73.4212,142.5832 L73.4212,148.5077 L75.2279,148.5077 L75.2279,150.1027 L69.8079,150.1027 L69.8079,148.5077 L71.6146,148.5077 L71.6146,142.5832 L69.8079,142.5832 Z "/><text fill="#336699" font-family="Verdana" font-size="12.5" font-style="italic" lengthAdjust="spacingAndGlyphs" textLength="59.375" x="96.875" y="150.3866">Collection</text><line style="stroke: #F3F3F3; stroke-width: 1.0416666666666667;" x1="59.375" x2="168.75" y1="168.6361" y2="168.6361"/><line style="stroke: #F3F3F3; stroke-width: 1.0416666666666667;" x1="59.375" x2="168.75" y1="176.9694" y2="176.9694"/><!--MD5=[ab8871ed637f40707b866ba6597734bc]
class ArrayList--><rect fill="url(#g1aox2w5tv7msg1)" height="132.6263" id="ArrayList" rx="7.8125" ry="7.8125" style="stroke: #F3F3F3; stroke-width: 1.0416666666666667;" width="162.5" x="189.0625" y="426.3611"/><ellipse cx="227.5521" cy="449.5819" fill="#DBDBDB" rx="10.4167" ry="10.4167" style="stroke: #A8A8A8; stroke-width: 1.0416666666666667;"/><path d="M229.4564,454.009 Q229.0332,454.2206 228.5612,454.3345 Q228.0892,454.4484 227.5846,454.4484 Q225.7292,454.4484 224.7526,453.244 Q223.7923,452.0233 223.7923,449.7284 Q223.7923,447.4172 224.7526,446.2128 Q225.7292,444.9921 227.5846,444.9921 Q228.0892,444.9921 228.5612,445.106 Q229.0495,445.2037 229.4564,445.4315 L229.4564,447.4335 Q229.0007,447.0103 228.5612,446.815 Q228.1217,446.6034 227.666,446.6034 Q226.6732,446.6034 226.1686,447.4009 Q225.6641,448.1822 225.6641,449.7284 Q225.6641,451.2583 226.1686,452.0396 Q226.6732,452.8208 227.666,452.8208 Q228.1217,452.8208 228.5612,452.6255 Q229.0007,452.4302 229.4564,452.007 L229.4564,454.009 Z "/><text fill="#336699" font-family="Verdana" font-size="12.5" lengthAdjust="spacingAndGlyphs" textLength="57.2917" x="256.8229" y="454.5532">ArrayList</text><line style="stroke: #F3F3F3; stroke-width: 1.0416666666666667;" x1="190.1042" x2="350.5208" y1="472.8027" y2="472.8027"/><text fill="#303030" font-family="Verdana" font-size="11.4583" lengthAdjust="spacingAndGlyphs" textLength="129.1667" x="205.7292" y="498.9059">Object[] elementData</text><line style="stroke: #F3F3F3; stroke-width: 1.0416666666666667;" x1="190.1042" x2="350.5208" y1="515.8951" y2="515.8951"/><text fill="#303030" font-family="Verdana" font-size="11.4583" lengthAdjust="spacingAndGlyphs" textLength="33.3333" x="205.7292" y="541.9983">size()</text><!--MD5=[15b68e006199004da79ea2a4d117d8e9]
class TimeUnit--><rect fill="url(#g1aox2w5tv7msg1)" height="167.3854" id="TimeUnit" rx="7.8125" ry="7.8125" style="stroke: #F3F3F3; stroke-width: 1.0416666666666667;" width="108.3333" x="330.7292" y="70.1111"/><ellipse cx="345.3125" cy="93.3319" fill="#FFBE68" rx="10.4167" ry="10.4167" style="stroke: #CC8B35; stroke-width: 1.0416666666666667;"/><path d="M347.8516,98.0194 L342.1712,98.0194 L342.1712,88.9048 L347.8516,88.9048 L347.8516,90.4999 L343.9779,90.4999 L343.9779,92.453 L347.4772,92.453 L347.4772,94.0481 L343.9779,94.0481 L343.9779,96.4244 L347.8516,96.4244 L347.8516,98.0194 Z "/><text fill="#336699" font-family="Verdana" font-size="12.5" lengthAdjust="spacingAndGlyphs" textLength="56.25" x="369.2708" y="98.3032">TimeUnit</text><line style="stroke: #F3F3F3; stroke-width: 1.0416666666666667;" x1="331.7708" x2="438.0208" y1="116.5527" y2="116.5527"/><text fill="#303030" font-family="Verdana" font-size="11.4583" lengthAdjust="spacingAndGlyphs" textLength="33.3333" x="347.3958" y="142.6559">DAYS</text><text fill="#303030" font-family="Verdana" font-size="11.4583" lengthAdjust="spacingAndGlyphs" textLength="42.7083" x="347.3958" y="177.415">HOURS</text><text fill="#303030" font-family="Verdana" font-size="11.4583" lengthAdjust="spacingAndGlyphs" textLength="54.1667" x="347.3958" y="212.174">MINUTES</text><line style="stroke: #F3F3F3; stroke-width: 1.0416666666666667;" x1="331.7708" x2="438.0208" y1="229.1631" y2="229.1631"/><!--MD5=[0c8287f799745f7b534bf75518604c1e]
class SuppressWarnings--><rect fill="url(#g1aox2w5tv7msg1)" height="63.1083" id="SuppressWarnings" rx="7.8125" ry="7.8125" style="stroke: #F3F3F3; stroke-width: 1.0416666666666667;" width="176.0417" x="476.0417" y="122.1944"/><ellipse cx="490.625" cy="145.4152" fill="#5C85AD" rx="10.4167" ry="10.4167" style="stroke: #29527A; stroke-width: 1.0416666666666667;"/><path d="M491.8783,145.2199 Q491.8783,144.5201 491.569,144.1294 Q491.2598,143.7388 490.7064,143.7388 Q490.1693,143.7388 489.86,144.1294 Q489.5508,144.5201 489.5508,145.2199 Q489.5508,145.9035 489.86,146.2941 Q490.1693,146.6848 490.7064,146.6848 Q491.2598,146.6848 491.569,146.2941 Q491.8783,145.9035 491.8783,145.2199 Z M493.0176,147.7102 L491.8132,147.7102 L491.8132,147.2219 Q491.5853,147.5311 491.2598,147.6939 Q490.9505,147.8404 490.5111,147.8404 Q489.5182,147.8404 488.8997,147.1242 Q488.2813,146.3918 488.2813,145.2199 Q488.2813,144.0318 488.8835,143.3156 Q489.502,142.5995 490.5111,142.5995 Q490.9505,142.5995 491.276,142.746 Q491.6016,142.8925 491.8132,143.1854 L491.8132,142.9413 Q491.8132,142.1112 491.3574,141.6555 Q490.9017,141.1997 490.0716,141.1997 Q488.8021,141.1997 487.9883,142.3228 Q487.1908,143.4296 487.1908,145.2199 Q487.1908,147.0917 488.1185,148.2147 Q489.0462,149.3215 490.5924,149.3215 Q491.0807,149.3215 491.5365,149.175 Q491.9922,149.0285 492.4154,148.7356 L492.9688,149.8098 Q492.4805,150.1516 491.8945,150.3143 Q491.3086,150.4934 490.6576,150.4934 Q488.5091,150.4934 487.2396,149.0611 Q485.9701,147.6451 485.9701,145.2199 Q485.9701,142.8599 487.1094,141.4439 Q488.265,140.0279 490.1367,140.0279 Q491.4714,140.0279 492.2363,140.8254 Q493.0176,141.6229 493.0176,143.0227 L493.0176,147.7102 Z "/><text fill="#336699" font-family="Verdana" font-size="12.5" lengthAdjust="spacingAndGlyphs" textLength="123.9583" x="514.5833" y="150.3866">SuppressWarnings</text><line style="stroke: #F3F3F3; stroke-width: 1.0416666666666667;" x1="477.0833" x2="651.0417" y1="168.6361" y2="168.6361"/><line style="stroke: #F3F3F3; stroke-width: 1.0416666666666667;" x1="477.0833" x2="651.0417" y1="176.9694" y2="176.9694"/><!--MD5=[00308d07b6a5721fb0cf5861877e6652]
reverse link List to AbstractList--><path d="M260.7973,206.9283 C263.1036,237.2662 265.9215,274.3311 267.8897,300.221 " fill="none" id="List&lt;-AbstractList" style="stroke: #E2E2E2; stroke-width: 3.125;"/><polygon fill="none" points="253.5005,207.1366,259.1918,185.8105,268.0419,206.0311,253.5005,207.1366" style="stroke: #E2E2E2; stroke-width: 3.125;"/><!--MD5=[1822909749df1453bdd84de7a60a3406]
reverse link Collection to AbstractCollection--><path d="M106.3842,206.4847 C101.9369,236.9043 96.4836,274.2048 92.6801,300.221 " fill="none" id="Collection&lt;-AbstractCollection" style="stroke: #E2E2E2; stroke-width: 3.125;"/><polygon fill="none" points="99.1779,205.3697,109.4068,185.8105,113.6079,207.4795,99.1779,205.3697" style="stroke: #E2E2E2; stroke-width: 3.125;"/><!--MD5=[0159284274f96a472eb2618ad803aaca]
reverse link Collection to List--><path d="M190.9728,153.9653 C200.3366,153.9653 209.7004,153.9653 219.0643,153.9653 " fill="none" id="Collection&lt;-List" style="stroke: #E2E2E2; stroke-width: 3.125;"/><polygon fill="none" points="190.6414,161.2568,169.8079,153.9653,190.6413,146.6735,190.6414,161.2568" style="stroke: #E2E2E2; stroke-width: 3.125;"/><!--MD5=[7a3a52e8f65ef1a8d8d29530ea5cd870]
reverse link AbstractCollection to AbstractList--><path d="M190.9965,332.0903 C196.1257,332.0903 201.2549,332.0903 206.3842,332.0903 " fill="none" id="AbstractCollection&lt;-AbstractList" style="stroke: #E2E2E2; stroke-width: 3.125;"/><polygon fill="none" points="190.743,339.3818,169.9097,332.0903,190.7429,324.7985,190.743,339.3818" style="stroke: #E2E2E2; stroke-width: 3.125;"/><!--MD5=[40e4bb1af59cca28d4643aaff05088cc]
reverse link AbstractList to ArrayList--><path d="M270.3125,385.0425 C270.3125,398.2517 270.3125,412.58 270.3125,426.3395 " fill="none" id="AbstractList&lt;-ArrayList" style="stroke: #E2E2E2; stroke-width: 3.125;"/><polygon fill="none" points="263.0209,385.0008,270.3125,364.1674,277.6043,385.0007,263.0209,385.0008" style="stroke: #E2E2E2; stroke-width: 3.125;"/><!--MD5=[68c9e131b2d0bbbf95e2fca1bfd87891]
@startuml



skinparam backgroundColor transparent







skinparam defaultFontName        "Verdana"
skinparam defaultFontSize        12
skinparam dpi                    100
skinparam shadowing              false
skinparam roundcorner            15
skinparam ParticipantPadding     30
skinparam BoxPadding             30
skinparam Padding                10
skinparam ArrowColor             #737373
skinparam stereotype {
    CBackgroundColor #dbdbdb
    CBorderColor #a8a8a8
    ABackgroundColor #5cad5c
    ABorderColor #297a29
    IBackgroundColor #ff5c5c
    IBorderColor #cc2929
    EBackgroundColor #ffbe68
    EBorderColor #cc8b35
    NBackgroundColor #5c85ad
    NBorderColor #29527a
}
skinparam title {
	FontColor	                 white
	BorderColor	                 #d2d2d2
	FontSize	    	         20
	BorderRoundCorner            8
	BorderThickness 	         1
	BackgroundColor              #dbdbdb-#d2d2d2
}


skinparam legend {
	BackgroundColor #e2e2e2
	BorderColor #888888
	FontColor #336699
}

skinparam activity {
		FontColor #336699
	BorderColor #f3f3f3
	BackgroundColor #f3f3f3-#e2e2e2
	BarColor #339933
	StartColor #336699
	EndColor #336699
	DiamondBackgroundColor #d2d2d2-#a8a8a8
  	DiamondBorderColor #a8a8a8
	DiamondFontColor white
}

skinparam participant {
		FontColor #336699
	BorderColor #f3f3f3
	BackgroundColor #f3f3f3-#e2e2e2
	ParticipantBorderThickness 2
}

skinparam actor {
		FontColor #336699
	BorderColor #f3f3f3
	BackgroundColor #f3f3f3-#e2e2e2
}

skinparam arrow {
	Thickness 3
	Color #e2e2e2
	FontColor #303030
}

skinparam sequence {
	BorderColor #e2e2e2
	TitleFontColor white
	BackgroundColor transparent
	StartColor #e2e2e2
	EndColor #e2e2e2
	BoxBackgroundColor #fcfcfc
	BoxBorderColor #737373
	BoxFontColor #303030
	LifeLineBorderColor #a8a8a8
	LifeLineBorderThickness 2
	LifeLineBackgroundColor #dbdbdb
	GroupBorderColor #737373
	GroupFontColor #303030
	GroupHeaderFontColor #336699
	DividerBackgroundColor #FFF-#fcfcfc
    DividerBorderColor #737373
    DividerBorderThickness 2
    DividerFontColor #303030
	ReferenceBackgroundColor transparent
	ReferenceBorderColor #737373
	ReferenceFontColor #303030
	ReferenceHeaderFontColor #336699
}

skinparam partition {
	BorderColor #e2e2e2
	FontColor #888888
	BackgroundColor transparent
}

skinparam collections {
		FontColor #336699
	BorderColor #f3f3f3
	BackgroundColor #f3f3f3-#e2e2e2
}

skinparam control {
		FontColor #336699
	BorderColor #f3f3f3
	BackgroundColor #f3f3f3-#e2e2e2
}

skinparam entity {
		FontColor #336699
	BorderColor #f3f3f3
	BackgroundColor #f3f3f3-#e2e2e2
}

skinparam boundary {
		FontColor #336699
	BorderColor #f3f3f3
	BackgroundColor #f3f3f3-#e2e2e2
}

skinparam agent {
	BackgroundColor #orange
	BorderColor #999999
	FontColor #333333
}

skinparam note {
	BorderThickness 1
	BackgroundColor #5c85ad-#336699
	BorderColor #336699
	FontColor #FFF
}

skinparam artifact {
	BackgroundColor white-#fcfcfc
	BorderColor #a8a8a8
	FontColor #a8a8a8
}

skinparam component {
		FontColor #336699
	BorderColor #f3f3f3
	BackgroundColor #f3f3f3-#e2e2e2
}

skinparam interface {
	BackgroundColor  #ff5c5c
	BorderColor  #ff3333
	FontColor #303030
}

skinparam storage {
	BackgroundColor #ffbe68-#ffae42
  	BorderColor #ffae42
	FontColor #FFF
}

skinparam node {
	BackgroundColor transparent
	BorderColor #f3f3f3
	FontColor #336699
}

skinparam cloud {
	BackgroundColor #F2FCFE-#eeeeee
	BorderColor $F2FCFE
	FontColor #336699
}

skinparam database {
		FontColor #336699
	BorderColor #f3f3f3
	BackgroundColor #f3f3f3-#e2e2e2
	BackgroundColor  transparent
}

skinparam class {
		FontColor #336699
	BorderColor #f3f3f3
	BackgroundColor #f3f3f3-#e2e2e2
	HeaderBackgroundColor #f3f3f3-#888888
	StereotypeFontColor #303030
	StereotypeFontSize 9
	BorderThickness 1
	AttributeFontColor #303030
	AttributeFontSize 11
}

skinparam object {
		FontColor #336699
	BorderColor #f3f3f3
	BackgroundColor #f3f3f3-#e2e2e2
	StereotypeFontColor #fcfcfc
	BorderThickness 1
	AttributeFontColor #303030
	AttributeFontSize 11
}

skinparam usecase {
		FontColor #336699
	BorderColor #f3f3f3
	BackgroundColor #f3f3f3-#e2e2e2
	BorderThickness 2
	StereotypeFontColor #e2e2e2
}

skinparam rectangle {
		FontColor #336699
	BorderColor #f3f3f3
	BackgroundColor #f3f3f3-#e2e2e2
	BackgroundColor transparent
	BorderThickness 2
	StereotypeFontColor #e2e2e2
}

skinparam package {
		FontColor #336699
	BorderColor #f3f3f3
	BackgroundColor #f3f3f3-#e2e2e2
	BackgroundColor transparent
	BorderThickness 2
}

skinparam folder {
	BackgroundColor #f3f3f3
  	BorderColor #ffae42
	FontColor #ffae42
	BorderThickness 2
}

skinparam frame {
	BackgroundColor #f3f3f3
  	BorderColor #336699
	FontColor #336699
	BorderThickness 2
}

skinparam state {
		FontColor #336699
	BorderColor #f3f3f3
	BackgroundColor #f3f3f3-#e2e2e2
	StartColor #336699
	EndColor #336699
	AttributeFontColor white
	AttributeFontSize 11
}

skinparam queue {
		FontColor #336699
	BorderColor #f3f3f3
	BackgroundColor #f3f3f3-#e2e2e2
}

skinparam card {
	BackgroundColor #5c85ad-#336699
	BorderColor #336699
	FontColor #FFF
}

skinparam file {
	BackgroundColor #dbdbdb-#d2d2d2
	BorderColor #a8a8a8
	FontColor white

}

skinparam stack {
		FontColor #336699
	BorderColor #f3f3f3
	BackgroundColor #f3f3f3-#e2e2e2
}

title Class Diagram - lightgray theme


abstract class AbstractList
abstract AbstractCollection
interface List
interface Collection

List <|- - AbstractList
Collection <|- - AbstractCollection

Collection <|- List
AbstractCollection <|- AbstractList
AbstractList <|- - ArrayList

class ArrayList {
  Object[] elementData
  size()
}

enum TimeUnit {
  DAYS
  HOURS
  MINUTES
}

annotation SuppressWarnings

@enduml

PlantUML version 1.2020.00(Sat Jan 11 04:30:53 PST 2020)
(GPL source distribution)
Java Runtime: OpenJDK Runtime Environment
JVM: OpenJDK 64-Bit Server VM
Java Version: 11.0.5+10-post-Ubuntu-0ubuntu1.118.04
Operating System: Linux
Default Encoding: UTF-8
Language: en
Country: US
--></g></svg>