<?xml version="1.0" encoding="UTF-8" standalone="no"?><svg xmlns="http://www.w3.org/2000/svg" xmlns:xlink="http://www.w3.org/1999/xlink" contentScriptType="application/ecmascript" contentStyleType="text/css" height="669.7917px" preserveAspectRatio="none" style="width:1263px;height:669px;background:#00000000;" version="1.1" viewBox="0 0 1263 669" width="1263.5417px" zoomAndPan="magnify"><defs><linearGradient id="g1ikx19xyvm5t10" x1="50%" x2="50%" y1="0%" y2="100%"><stop offset="0%" stop-color="#DBDBDB"/><stop offset="100%" stop-color="#D2D2D2"/></linearGradient><linearGradient id="g1ikx19xyvm5t11" x1="50%" x2="50%" y1="0%" y2="100%"><stop offset="0%" stop-color="#F2FCFE"/><stop offset="100%" stop-color="#EEEEEE"/></linearGradient><linearGradient id="g1ikx19xyvm5t12" x1="50%" x2="50%" y1="0%" y2="100%"><stop offset="0%" stop-color="#F3F3F3"/><stop offset="100%" stop-color="#E2E2E2"/></linearGradient><linearGradient id="g1ikx19xyvm5t13" x1="50%" x2="50%" y1="0%" y2="100%"><stop offset="0%" stop-color="#FFFFFF"/><stop offset="100%" stop-color="#FCFCFC"/></linearGradient><linearGradient id="g1ikx19xyvm5t14" x1="50%" x2="50%" y1="0%" y2="100%"><stop offset="0%" stop-color="#FFBE68"/><stop offset="100%" stop-color="#FFAE42"/></linearGradient><linearGradient id="g1ikx19xyvm5t15" x1="50%" x2="50%" y1="0%" y2="100%"><stop offset="0%" stop-color="#5C85AD"/><stop offset="100%" stop-color="#336699"/></linearGradient></defs><g><rect fill="url(#g1ikx19xyvm5t10)" height="56.5694" rx="4.1667" ry="4.1667" style="stroke: #D2D2D2; stroke-width: 1.0416666666666667;" width="444.7917" x="413.0208" y="2.0833"/><text fill="#FFFFFF" font-family="Verdana" font-size="20.8333" lengthAdjust="spacingAndGlyphs" textLength="407.2917" x="431.7708" y="38.6536">Component Diagram - lightgray theme</text><!--MD5=[98956307d0c47524864de5bf9cdc747b]
cluster My Package--><path d="M22.3958,78.9653 L116.1458,78.9653 A11.7188,11.7188 0 0 1 123.9583,86.7778 L131.25,121.2402 L775.5208,121.2402 A7.8125,7.8125 0 0 1 783.3333,129.0527 L783.3333,183.6528 A7.8125,7.8125 0 0 1 775.5208,191.4653 L22.3958,191.4653 A7.8125,7.8125 0 0 1 14.5833,183.6528 L14.5833,86.7778 A7.8125,7.8125 0 0 1 22.3958,78.9653 " fill="#00000000" style="stroke: #F3F3F3; stroke-width: 1.5625;"/><line style="stroke: #F3F3F3; stroke-width: 1.5625;" x1="14.5833" x2="131.25" y1="121.2402" y2="121.2402"/><text fill="#336699" font-family="Verdana" font-size="12.5" font-weight="bold" lengthAdjust="spacingAndGlyphs" textLength="82.2917" x="29.1667" y="104.0324">My Package</text><!--MD5=[994b84a7865cf3a30290d65f6358d5f5]
cluster My Node--><polygon fill="#00000000" points="208.3333,225.8403,218.75,215.4236,620.8333,215.4236,620.8333,322.7153,610.4167,333.1319,208.3333,333.1319,208.3333,225.8403" style="stroke: #F3F3F3; stroke-width: 1.5625;"/><line style="stroke: #F3F3F3; stroke-width: 1.5625;" x1="610.4167" x2="619.7917" y1="225.8403" y2="216.4653"/><line style="stroke: #F3F3F3; stroke-width: 1.5625;" x1="208.3333" x2="610.4167" y1="225.8403" y2="225.8403"/><line style="stroke: #F3F3F3; stroke-width: 1.5625;" x1="610.4167" x2="610.4167" y1="225.8403" y2="333.1319"/><text fill="#336699" font-family="Verdana" font-size="12.5" font-weight="bold" lengthAdjust="spacingAndGlyphs" textLength="59.375" x="380.7292" y="251.9491">My Node</text><!--MD5=[8f762177cf9f076b8ea6eac76c5df33e]
cluster My Cloud--><path d="M656.6913,231.231 C659.1449,225.4562 664.4628,224.2044 668.726,229.2109 C671.9488,222.2933 676.5405,221.5397 681.1386,227.9279 C683.8359,223.8215 688.7947,222.8135 691.384,228.0464 C694.7365,220.6068 699.7246,219.9173 705.339,225.6501 C708.6907,221.3154 713.9402,222.0813 716.0145,227.1069 C721.2063,221.3195 726.0474,221.3301 729.3113,229.0104 C732.8348,223.5249 736.4171,224.6857 739.955,228.9947 C750.1867,221.3934 755.1756,225.9565 758.3333,236.2569 C759.2064,235.86 759.848,236.1938 759.975,237.1572 C766.5117,240.3239 767.5625,246.0568 761.1792,250.3984 C769.3031,253.9387 769.5268,260.2788 762.1717,264.8801 C768.3287,268.5399 767.7779,273.5017 762.2765,277.2601 C768.4155,282.5064 767.801,286.8893 760.8438,290.744 C767.8388,295.3747 766.2428,300.6158 759.8709,304.2863 C766.9098,315.2606 762.8126,321.9207 751.0417,324.7986 C751.8786,324.7736 752.1533,325.1842 751.9171,325.9648 C749.1971,331.9721 743.7113,333.4686 739.3596,327.7056 C736.4047,333.3448 730.4376,333.4315 727.3841,327.8104 C725.6552,334.1174 722.2422,335.2718 717.0296,331.3299 C713.5605,338.0893 708.0623,338.1778 704.5399,331.379 C700.531,336.8139 694.4316,337.7217 691.3829,330.3895 C687.1703,334.0112 683.6711,333.7998 680.9834,328.5932 C676.9743,333.3851 671.0916,332.7784 669.2048,326.3627 C658.9988,332.2797 650.0123,331.0861 647.9167,317.5069 C649.2699,317.0682 649.7175,317.673 649.7993,318.9237 C642.2189,314.951 641.2703,309.7964 648.3034,304.3261 C642.5359,302.2604 639.9694,297.0767 645.4323,292.3245 C638.6064,288.6395 637.9955,282.5322 645.0092,278.4259 C638.9178,272.6108 640.3301,268.113 647.6589,264.9335 C641.0374,261.1597 640.0653,255.3533 647.206,251.128 C638.3755,239.5899 643.5307,233.0984 655.2083,228.9653 C656.8374,228.7926 657.5179,229.7964 656.6913,231.231 " fill="url(#g1ikx19xyvm5t11)" style="stroke: #FFFFFF; stroke-width: 1.5625;"/><text fill="#336699" font-family="Verdana" font-size="12.5" font-weight="bold" lengthAdjust="spacingAndGlyphs" textLength="62.5" x="671.875" y="257.1574">My Cloud</text><!--MD5=[5435dd1da01795d79a1d1bdb7811705f]
cluster My Database--><path d="M638.5417,363.8611 C638.5417,353.4444 703.125,353.4444 703.125,353.4444 C703.125,353.4444 767.7083,353.4444 767.7083,363.8611 L767.7083,647.1944 C767.7083,657.6111 703.125,657.6111 703.125,657.6111 C703.125,657.6111 638.5417,657.6111 638.5417,647.1944 L638.5417,363.8611 " fill="#00000000" style="stroke: #F3F3F3; stroke-width: 1.5625;"/><path d="M638.5417,363.8611 C638.5417,374.2778 703.125,374.2778 703.125,374.2778 C703.125,374.2778 767.7083,374.2778 767.7083,363.8611 " fill="none" style="stroke: #F3F3F3; stroke-width: 1.5625;"/><text fill="#336699" font-family="Verdana" font-size="12.5" font-weight="bold" lengthAdjust="spacingAndGlyphs" textLength="88.5417" x="658.8542" y="399.3449">My Database</text><!--MD5=[db3eb734e65e00defc1adec42c70b029]
cluster My folder--><path d="M654.6875,415.9444 L730.7292,415.9444 A11.7188,11.7188 0 0 1 738.5417,423.7569 L745.8333,458.2194 L751.5625,458.2194 A7.8125,7.8125 0 0 1 759.375,466.0319 L759.375,520.6319 A7.8125,7.8125 0 0 1 751.5625,528.4444 L654.6875,528.4444 A7.8125,7.8125 0 0 1 646.875,520.6319 L646.875,423.7569 A7.8125,7.8125 0 0 1 654.6875,415.9444 " fill="#F3F3F3" style="stroke: #FFAE42; stroke-width: 1.5625;"/><line style="stroke: #FFAE42; stroke-width: 1.5625;" x1="646.875" x2="745.8333" y1="458.2194" y2="458.2194"/><text fill="#FFAE42" font-family="Verdana" font-size="12.5" font-weight="bold" lengthAdjust="spacingAndGlyphs" textLength="64.5833" x="661.4583" y="441.0116">My folder</text><!--MD5=[2f95c9c104e26437854e71862f3d840e]
cluster My Frame--><rect fill="#F3F3F3" height="112.5" rx="7.8125" ry="7.8125" style="stroke: #336699; stroke-width: 1.5625;" width="112.5" x="646.875" y="536.7778"/><path d="M745.8333,537.8194 L745.8333,565.5111 L735.4167,575.9277 L646.875,575.9277 " fill="none" style="stroke: #336699; stroke-width: 1.5625;"/><text fill="#336699" font-family="Verdana" font-size="12.5" font-weight="bold" lengthAdjust="spacingAndGlyphs" textLength="67.7083" x="660.4167" y="560.8032">My Frame</text><!--MD5=[96f7e1299d4a43069e6ed32352fcac20]
entity HTTP--><ellipse cx="556.25" cy="154.4861" fill="#FF5C5C" rx="8.3333" ry="8.3333" style="stroke: #FF3333; stroke-width: 2.0833333333333335;"/><text fill="#303030" font-family="Verdana" font-size="12.5" lengthAdjust="spacingAndGlyphs" textLength="32.2917" x="540.1042" y="195.1782">HTTP</text><!--MD5=[cbd7cda55f2530e2efe43ec72c097853]
entity First Component--><rect fill="url(#g1ikx19xyvm5t12)" height="56.8583" rx="7.8125" ry="7.8125" style="stroke: #F3F3F3; stroke-width: 1.5625;" width="150" x="360.4167" y="125.8403"/><rect fill="url(#g1ikx19xyvm5t12)" height="5.2083" style="stroke: #F3F3F3; stroke-width: 1.5625;" width="10.4167" x="355.2083" y="131.0486"/><rect fill="url(#g1ikx19xyvm5t12)" height="5.2083" style="stroke: #F3F3F3; stroke-width: 1.5625;" width="10.4167" x="355.2083" y="172.2819"/><text fill="#336699" font-family="Verdana" font-size="12.5" lengthAdjust="spacingAndGlyphs" textLength="108.3333" x="381.25" y="159.2407">First Component</text><!--MD5=[b9d11f23832c1491231c5b33e55ab8c6]
entity Another Component--><rect fill="url(#g1ikx19xyvm5t12)" height="56.8583" rx="7.8125" ry="7.8125" style="stroke: #F3F3F3; stroke-width: 1.5625;" width="173.9583" x="601.5625" y="125.8403"/><rect fill="url(#g1ikx19xyvm5t12)" height="5.2083" style="stroke: #F3F3F3; stroke-width: 1.5625;" width="10.4167" x="596.3542" y="131.0486"/><rect fill="url(#g1ikx19xyvm5t12)" height="5.2083" style="stroke: #F3F3F3; stroke-width: 1.5625;" width="10.4167" x="596.3542" y="172.2819"/><text fill="#336699" font-family="Verdana" font-size="12.5" lengthAdjust="spacingAndGlyphs" textLength="132.2917" x="622.3958" y="159.2407">Another Component</text><!--MD5=[aa625683a8c1a6d60f4cb888c4297339]
entity MyRectangle1--><rect fill="#00000000" height="56.8583" rx="7.8125" ry="7.8125" style="stroke: #F3F3F3; stroke-width: 2.0833333333333335;" width="132.2917" x="191.1458" y="125.8403"/><text fill="#336699" font-family="Verdana" font-size="12.5" lengthAdjust="spacingAndGlyphs" textLength="90.625" x="211.9792" y="159.2407">MyRectangle1</text><!--MD5=[deed3d4321eb4f26fdbc8b688b847966]
entity MyCollection1--><rect fill="#00000000" height="52.6917" rx="7.8125" ry="7.8125" style="stroke: #F3F3F3; stroke-width: 2.0833333333333335;" width="127.0833" x="27.0833" y="130.0069"/><rect fill="#00000000" height="52.6917" rx="7.8125" ry="7.8125" style="stroke: #F3F3F3; stroke-width: 2.0833333333333335;" width="127.0833" x="22.9167" y="125.8403"/><text fill="#336699" font-family="Verdana" font-size="12.5" lengthAdjust="spacingAndGlyphs" textLength="89.5833" x="41.6667" y="157.1574">MyCollection1</text><!--MD5=[76af18d92d7d7c0f7ebd8f4f605ac5aa]
entity FTP--><ellipse cx="395.8333" cy="296.1528" fill="#FF5C5C" rx="8.3333" ry="8.3333" style="stroke: #FF3333; stroke-width: 2.0833333333333335;"/><text fill="#303030" font-family="Verdana" font-size="12.5" lengthAdjust="spacingAndGlyphs" textLength="22.9167" x="384.375" y="336.8449">FTP</text><!--MD5=[0e2cc1aee2c7f52697e111b4fb84546c]
entity Second Component--><rect fill="url(#g1ikx19xyvm5t12)" height="56.8583" rx="7.8125" ry="7.8125" style="stroke: #F3F3F3; stroke-width: 1.5625;" width="169.7917" x="442.1875" y="267.5069"/><rect fill="url(#g1ikx19xyvm5t12)" height="5.2083" style="stroke: #F3F3F3; stroke-width: 1.5625;" width="10.4167" x="436.9792" y="272.7153"/><rect fill="url(#g1ikx19xyvm5t12)" height="5.2083" style="stroke: #F3F3F3; stroke-width: 1.5625;" width="10.4167" x="436.9792" y="313.9486"/><text fill="#336699" font-family="Verdana" font-size="12.5" lengthAdjust="spacingAndGlyphs" textLength="128.125" x="463.0208" y="300.9074">Second Component</text><!--MD5=[b8d85f5d3810694767e38854f60c8b6e]
entity MyRectangle2--><rect fill="#00000000" height="56.8583" rx="7.8125" ry="7.8125" style="stroke: #F3F3F3; stroke-width: 2.0833333333333335;" width="132.2917" x="217.1875" y="267.5069"/><text fill="#336699" font-family="Verdana" font-size="12.5" lengthAdjust="spacingAndGlyphs" textLength="90.625" x="238.0208" y="300.9074">MyRectangle2</text><!--MD5=[243c1e580c31013c48b02624e18b25a7]
entity Example 1--><rect fill="url(#g1ikx19xyvm5t12)" height="56.8583" rx="7.8125" ry="7.8125" style="stroke: #F3F3F3; stroke-width: 1.5625;" width="109.375" x="648.4375" y="267.5069"/><rect fill="url(#g1ikx19xyvm5t12)" height="5.2083" style="stroke: #F3F3F3; stroke-width: 1.5625;" width="10.4167" x="643.2292" y="272.7153"/><rect fill="url(#g1ikx19xyvm5t12)" height="5.2083" style="stroke: #F3F3F3; stroke-width: 1.5625;" width="10.4167" x="643.2292" y="313.9486"/><text fill="#336699" font-family="Verdana" font-size="12.5" lengthAdjust="spacingAndGlyphs" textLength="67.7083" x="669.2708" y="300.9074">Example 1</text><!--MD5=[3e0e08c92570480402984701ab5a6d2d]
entity Folder 3--><rect fill="url(#g1ikx19xyvm5t12)" height="56.8583" rx="7.8125" ry="7.8125" style="stroke: #F3F3F3; stroke-width: 1.5625;" width="94.7917" x="655.7292" y="462.8194"/><rect fill="url(#g1ikx19xyvm5t12)" height="5.2083" style="stroke: #F3F3F3; stroke-width: 1.5625;" width="10.4167" x="650.5208" y="468.0278"/><rect fill="url(#g1ikx19xyvm5t12)" height="5.2083" style="stroke: #F3F3F3; stroke-width: 1.5625;" width="10.4167" x="650.5208" y="509.2611"/><text fill="#336699" font-family="Verdana" font-size="12.5" lengthAdjust="spacingAndGlyphs" textLength="53.125" x="676.5625" y="496.2199">Folder 3</text><!--MD5=[63877ed85df621d134a6c80fb52dad56]
entity Frame 4--><rect fill="url(#g1ikx19xyvm5t12)" height="56.8583" rx="7.8125" ry="7.8125" style="stroke: #F3F3F3; stroke-width: 1.5625;" width="94.7917" x="655.7292" y="583.6528"/><rect fill="url(#g1ikx19xyvm5t12)" height="5.2083" style="stroke: #F3F3F3; stroke-width: 1.5625;" width="10.4167" x="650.5208" y="588.8611"/><rect fill="url(#g1ikx19xyvm5t12)" height="5.2083" style="stroke: #F3F3F3; stroke-width: 1.5625;" width="10.4167" x="650.5208" y="630.0944"/><text fill="#336699" font-family="Verdana" font-size="12.5" lengthAdjust="spacingAndGlyphs" textLength="53.125" x="676.5625" y="617.0532">Frame 4</text><!--MD5=[bb0325ec99f4f4d58c3e33c6fae3b543]
entity MyCollection2--><rect fill="#00000000" height="52.6917" rx="7.8125" ry="7.8125" style="stroke: #F3F3F3; stroke-width: 2.0833333333333335;" width="127.0833" x="816.6667" y="130.0069"/><rect fill="#00000000" height="52.6917" rx="7.8125" ry="7.8125" style="stroke: #F3F3F3; stroke-width: 2.0833333333333335;" width="127.0833" x="812.5" y="125.8403"/><text fill="#336699" font-family="Verdana" font-size="12.5" lengthAdjust="spacingAndGlyphs" textLength="89.5833" x="831.25" y="157.1574">MyCollection2</text><!--MD5=[4d6c9a8b502f46c0f85d26a51e5d57ce]
entity My Artifact--><rect fill="url(#g1ikx19xyvm5t13)" height="59.9833" rx="7.8125" ry="7.8125" style="stroke: #A8A8A8; stroke-width: 1.5625;" width="119.7917" x="980.7292" y="124.2778"/><polygon fill="url(#g1ikx19xyvm5t13)" points="1082.8125,129.4861,1082.8125,144.0694,1095.3125,144.0694,1095.3125,135.7361,1089.0625,129.4861,1082.8125,129.4861" style="stroke: #A8A8A8; stroke-width: 1.5625;"/><line style="stroke: #A8A8A8; stroke-width: 1.5625;" x1="1089.0625" x2="1089.0625" y1="129.4861" y2="135.7361"/><line style="stroke: #A8A8A8; stroke-width: 1.5625;" x1="1095.3125" x2="1089.0625" y1="135.7361" y2="135.7361"/><text fill="#A8A8A8" font-family="Verdana" font-size="12.5" lengthAdjust="spacingAndGlyphs" textLength="67.7083" x="1001.5625" y="160.8032">My Artifact</text><!--MD5=[6013850653c05993d855a7b82b2ebd6f]
entity My Storage--><rect fill="url(#g1ikx19xyvm5t14)" height="56.8583" rx="36.4583" ry="36.4583" style="stroke: #FFAE42; stroke-width: 1.5625;" width="115.625" x="1136.9792" y="125.8403"/><text fill="#FFFFFF" font-family="Verdana" font-size="12.5" lengthAdjust="spacingAndGlyphs" textLength="73.9583" x="1157.8125" y="159.2407">My Storage</text><!--MD5=[decf897d207c1b699121f5d4005ef96e]
entity My Queue--><path d="M829.6875,272.7153 L926.5625,272.7153 C931.7708,272.7153 931.7708,295.9361 931.7708,295.9361 C931.7708,295.9361 931.7708,319.1569 926.5625,319.1569 L829.6875,319.1569 C824.4792,319.1569 824.4792,295.9361 824.4792,295.9361 C824.4792,295.9361 824.4792,272.7153 829.6875,272.7153 " fill="url(#g1ikx19xyvm5t12)" style="stroke: #F3F3F3; stroke-width: 1.5625;"/><path d="M926.5625,272.7153 C921.3542,272.7153 921.3542,295.9361 921.3542,295.9361 C921.3542,319.1569 926.5625,319.1569 926.5625,319.1569 " fill="none" style="stroke: #F3F3F3; stroke-width: 1.5625;"/><text fill="#336699" font-family="Verdana" font-size="12.5" lengthAdjust="spacingAndGlyphs" textLength="65.625" x="840.1042" y="300.9074">My Queue</text><!--MD5=[db0b4290d55c456da6f1e605315daa68]
entity My Interface--><ellipse cx="1028.125" cy="296.1528" fill="#FF5C5C" rx="8.3333" ry="8.3333" style="stroke: #FF3333; stroke-width: 2.0833333333333335;"/><text fill="#303030" font-family="Verdana" font-size="12.5" lengthAdjust="spacingAndGlyphs" textLength="81.25" x="987.5" y="336.8449">My Interface</text><!--MD5=[c42dbb279bb2c76edeffd08640135261]
entity My Card--><rect fill="url(#g1ikx19xyvm5t15)" height="42.275" rx="7.8125" ry="7.8125" style="stroke: #336699; stroke-width: 1.5625;" width="94.7917" x="1124.4792" y="274.7986"/><text fill="#FFFFFF" font-family="Verdana" font-size="12.5" lengthAdjust="spacingAndGlyphs" textLength="53.125" x="1145.3125" y="300.9074">My Card</text><!--MD5=[4552e0ab931d4db86ba1ccdf7169c968]
entity My File--><path d="M835.4167,470.6319 L835.4167,511.8652 A7.8125,7.8125 0 0 0 843.2292,519.6777 L913.0208,519.6777 A7.8125,7.8125 0 0 0 920.8333,511.8652 L920.8333,473.2361 L910.4167,462.8194 L843.2292,462.8194 A7.8125,7.8125 0 0 0 835.4167,470.6319 " fill="url(#g1ikx19xyvm5t10)" style="stroke: #A8A8A8; stroke-width: 1.5625;"/><path d="M910.4167,462.8194 L910.4167,465.4236 A7.8125,7.8125 0 0 0 918.2292,473.2361 L920.8333,473.2361 " fill="url(#g1ikx19xyvm5t10)" style="stroke: #A8A8A8; stroke-width: 1.5625;"/><text fill="#FFFFFF" font-family="Verdana" font-size="12.5" lengthAdjust="spacingAndGlyphs" textLength="43.75" x="856.25" y="496.2199">My File</text><!--MD5=[5a51615613d2b2569e36ac803df4b251]
entity My Stack--><rect fill="url(#g1ikx19xyvm5t12)" height="56.8583" rx="7.8125" ry="7.8125" style="stroke: none; stroke-width: 1.5625;" width="98.9583" x="973.4375" y="462.8194"/><path d="M957.8125,462.8194 L965.625,462.8194 A7.8125,7.8125 0 0 1 973.4375,470.6319 L973.4375,511.8652 A7.8125,7.8125 0 0 0 981.25,519.6777 L1064.5833,519.6777 A7.8125,7.8125 0 0 0 1072.3958,511.8652 L1072.3958,470.6319 A7.8125,7.8125 0 0 1 1080.2083,462.8194 L1088.0208,462.8194 " fill="none" style="stroke: #F3F3F3; stroke-width: 1.5625;"/><text fill="#336699" font-family="Verdana" font-size="12.5" lengthAdjust="spacingAndGlyphs" textLength="57.2917" x="994.2708" y="496.2199">My Stack</text><!--MD5=[46d996859f59e5baf77956ce93023cee]
link HTTP to First Component--><path d="M546.5923,154.4861 C534.5501,154.4861 522.5078,154.4861 510.4655,154.4861 " fill="none" id="HTTP-First Component" style="stroke: #E2E2E2; stroke-width: 3.125;"/><!--MD5=[1966a42bb49d59057147dbda06282f4b]
link FTP to Second Component--><path d="M405.5746,296.1528 C417.7571,296.1528 429.9396,296.1528 442.1221,296.1528 " fill="none" id="FTP-Second Component" style="stroke: #E2E2E2; stroke-width: 3.125;"/><!--MD5=[d3aefbd8005e27b21e7ce98ddd948193]
link First Component to FTP--><path d="M427.4064,183.1544 C419.0826,212.9446 406.3877,258.3792 399.9239,281.513 " fill="none" id="First Component-&gt;FTP" style="stroke: #E2E2E2; stroke-width: 3.125;"/><polygon fill="#E2E2E2" points="398.4949,286.6272,405.0308,278.7194,399.8965,281.611,397.0049,276.4768,398.4949,286.6272" style="stroke: #E2E2E2; stroke-width: 3.125;"/><!--MD5=[efc1ffe8b578a0fb156c7bce303319bb]
link Another Component to Example 1--><path d="M691.4928,183.1544 C693.8296,205.8544 697.1015,237.6382 699.5801,261.717 " fill="none" id="Another Component-&gt;Example 1" style="stroke: #E2E2E2; stroke-width: 3.125;"/><polygon fill="#E2E2E2" points="700.1282,267.0408,703.313,257.2884,699.5949,261.8598,695.0235,258.1417,700.1282,267.0408" style="stroke: #E2E2E2; stroke-width: 3.125;"/><!--MD5=[7ec8393a78a133520e8846dd05a7857a]
link Example 1 to Folder 3--><path d="M703.125,324.9718 C703.125,360.1679 703.125,419.636 703.125,457.1568 " fill="none" id="Example 1-&gt;Folder 3" style="stroke: #E2E2E2; stroke-width: 3.125;"/><polygon fill="#E2E2E2" points="703.125,462.528,707.2917,453.153,703.125,457.3196,698.9583,453.153,703.125,462.528" style="stroke: #E2E2E2; stroke-width: 3.125;"/><!--MD5=[b96c7096199393c1414a8b4e9ed2c30f]
link Folder 3 to Frame 4--><path d="M703.125,520.4079 C703.125,537.7448 703.125,559.8791 703.125,578.0797 " fill="none" id="Folder 3-&gt;Frame 4" style="stroke: #E2E2E2; stroke-width: 3.125;"/><polygon fill="#E2E2E2" points="703.125,583.5921,707.2917,574.2171,703.125,578.3838,698.9583,574.2171,703.125,583.5921" style="stroke: #E2E2E2; stroke-width: 3.125;"/><!--MD5=[83be288af14fde8a86007c2b011fac4a]
link MyCollection2 to My Artifact--><!--MD5=[b21a3c93c2a22c7ef4934ace81b9a2fe]
link My Artifact to My Storage--><!--MD5=[6ba35b42f782a962813221ea03178716]
link MyCollection2 to My Queue--><!--MD5=[0babb46f3d0f67f91c828a5eda35ab7d]
link My Queue to My Interface--><!--MD5=[9bfee3aea78949ae207e8bd3b67fed50]
link My Interface to My Card--><!--MD5=[afe9315598834b0b9f57a7a5b2c7ee2a]
link My Queue to My File--><!--MD5=[f6296be58d13482500ae3b999db2843f]
link My File to My Stack--><!--MD5=[53e60b051facf465d92c4b6031d2e19c]
@startuml



skinparam backgroundColor transparent







skinparam defaultFontName        "Verdana"
skinparam defaultFontSize        12
skinparam dpi                    100
skinparam shadowing              false
skinparam roundcorner            15
skinparam ParticipantPadding     30
skinparam BoxPadding             30
skinparam Padding                10
skinparam ArrowColor             #737373
skinparam stereotype {
    CBackgroundColor #dbdbdb
    CBorderColor #a8a8a8
    ABackgroundColor #5cad5c
    ABorderColor #297a29
    IBackgroundColor #ff5c5c
    IBorderColor #cc2929
    EBackgroundColor #ffbe68
    EBorderColor #cc8b35
    NBackgroundColor #5c85ad
    NBorderColor #29527a
}
skinparam title {
	FontColor	                 white
	BorderColor	                 #d2d2d2
	FontSize	    	         20
	BorderRoundCorner            8
	BorderThickness 	         1
	BackgroundColor              #dbdbdb-#d2d2d2
}


skinparam legend {
	BackgroundColor #e2e2e2
	BorderColor #888888
	FontColor #336699
}


skinparam activity {
		FontColor #336699
	BorderColor #f3f3f3
	BackgroundColor #f3f3f3-#e2e2e2
	BarColor #339933
	StartColor #336699
	EndColor #336699
	DiamondBackgroundColor #d2d2d2-#a8a8a8
  	DiamondBorderColor #a8a8a8
	DiamondFontColor white
}


skinparam participant {
		FontColor #336699
	BorderColor #f3f3f3
	BackgroundColor #f3f3f3-#e2e2e2
	ParticipantBorderThickness 2
}


skinparam actor {
		FontColor #336699
	BorderColor #f3f3f3
	BackgroundColor #f3f3f3-#e2e2e2
}


skinparam arrow {
	Thickness 3
	Color #e2e2e2
	FontColor #303030
}


skinparam sequence {
	BorderColor #e2e2e2
	TitleFontColor white
	BackgroundColor transparent
	StartColor #e2e2e2
	EndColor #e2e2e2
	BoxBackgroundColor #fcfcfc
	BoxBorderColor #737373
	BoxFontColor #303030
	LifeLineBorderColor #a8a8a8
	LifeLineBorderThickness 2
	LifeLineBackgroundColor #dbdbdb
	GroupBorderColor #737373
	GroupFontColor #303030
	GroupHeaderFontColor #336699
	DividerBackgroundColor #FFF-#fcfcfc
    DividerBorderColor #737373
    DividerBorderThickness 2
    DividerFontColor #303030
	ReferenceBackgroundColor transparent
	ReferenceBorderColor #737373
	ReferenceFontColor #303030
	ReferenceHeaderFontColor #336699
}


skinparam partition {
	BorderColor #e2e2e2
	FontColor #888888
	BackgroundColor transparent
}


skinparam collections {
		FontColor #336699
	BorderColor #f3f3f3
	BackgroundColor #f3f3f3-#e2e2e2
}


skinparam control {
		FontColor #336699
	BorderColor #f3f3f3
	BackgroundColor #f3f3f3-#e2e2e2
}


skinparam entity {
		FontColor #336699
	BorderColor #f3f3f3
	BackgroundColor #f3f3f3-#e2e2e2
}


skinparam boundary {
		FontColor #336699
	BorderColor #f3f3f3
	BackgroundColor #f3f3f3-#e2e2e2
}


skinparam agent {
	BackgroundColor #orange
	BorderColor #999999
	FontColor #333333
}


skinparam note {
	BorderThickness 1
	BackgroundColor #5c85ad-#336699
	BorderColor #336699
	FontColor #FFF
}


skinparam artifact {
	BackgroundColor white-#fcfcfc
	BorderColor #a8a8a8
	FontColor #a8a8a8
}


skinparam component {
		FontColor #336699
	BorderColor #f3f3f3
	BackgroundColor #f3f3f3-#e2e2e2
}


skinparam interface {
	BackgroundColor  #ff5c5c
	BorderColor  #ff3333
	FontColor #303030
}


skinparam storage {
	BackgroundColor #ffbe68-#ffae42
  	BorderColor #ffae42
	FontColor #FFF
}


skinparam node {
	BackgroundColor transparent
	BorderColor #f3f3f3
	FontColor #336699
}


skinparam cloud {
	BackgroundColor #F2FCFE-#eeeeee
	BorderColor $F2FCFE
	FontColor #336699
}


skinparam database {
		FontColor #336699
	BorderColor #f3f3f3
	BackgroundColor #f3f3f3-#e2e2e2
	BackgroundColor  transparent
}


skinparam class {
		FontColor #336699
	BorderColor #f3f3f3
	BackgroundColor #f3f3f3-#e2e2e2
	HeaderBackgroundColor #f3f3f3-#888888
	StereotypeFontColor #303030
	StereotypeFontSize 9
	BorderThickness 1
	AttributeFontColor #303030
	AttributeFontSize 11
}


skinparam object {
		FontColor #336699
	BorderColor #f3f3f3
	BackgroundColor #f3f3f3-#e2e2e2
	StereotypeFontColor #fcfcfc
	BorderThickness 1
	AttributeFontColor #303030
	AttributeFontSize 11
}


skinparam usecase {
		FontColor #336699
	BorderColor #f3f3f3
	BackgroundColor #f3f3f3-#e2e2e2
	BorderThickness 2
	StereotypeFontColor #e2e2e2
}


skinparam rectangle {
		FontColor #336699
	BorderColor #f3f3f3
	BackgroundColor #f3f3f3-#e2e2e2
	BackgroundColor transparent
	BorderThickness 2
	StereotypeFontColor #e2e2e2
}


skinparam package {
		FontColor #336699
	BorderColor #f3f3f3
	BackgroundColor #f3f3f3-#e2e2e2
	BackgroundColor transparent
	BorderThickness 2
}


skinparam folder {
	BackgroundColor #f3f3f3
  	BorderColor #ffae42
	FontColor #ffae42
	BorderThickness 2
}


skinparam frame {
	BackgroundColor #f3f3f3
  	BorderColor #336699
	FontColor #336699
	BorderThickness 2
}


skinparam state {
		FontColor #336699
	BorderColor #f3f3f3
	BackgroundColor #f3f3f3-#e2e2e2
	StartColor #336699
	EndColor #336699
	AttributeFontColor white
	AttributeFontSize 11
}


skinparam queue {
		FontColor #336699
	BorderColor #f3f3f3
	BackgroundColor #f3f3f3-#e2e2e2
}


skinparam card {
	BackgroundColor #5c85ad-#336699
	BorderColor #336699
	FontColor #FFF
}


skinparam file {
	BackgroundColor #dbdbdb-#d2d2d2
	BorderColor #a8a8a8
	FontColor white

}


skinparam stack {
		FontColor #336699
	BorderColor #f3f3f3
	BackgroundColor #f3f3f3-#e2e2e2
}

title Component Diagram - lightgray theme


package "My Package" {
  HTTP - [First Component]
  [Another Component]
  rectangle MyRectangle1
  collections MyCollection1
}
 
node "My Node" {
  FTP - [Second Component]
  [First Component] - -> FTP
  rectangle MyRectangle2
} 

cloud "My Cloud" {
  [Example 1]
}

collections MyCollection2

database "My Database" {
  folder "My folder" {
	[Folder 3]
  }
  frame "My Frame" {
	[Frame 4]
  }
}

artifact "My Artifact"
storage "My Storage"
queue "My Queue"
interface "My Interface"
card "My Card"
file "My File"
stack "My Stack"

[Another Component] - -> [Example 1]
[Example 1] - -> [Folder 3]
[Folder 3] - -> [Frame 4]

@enduml

PlantUML version 1.2020.08(Sun Apr 26 07:08:22 PDT 2020)
(GPL source distribution)
Java Runtime: OpenJDK Runtime Environment
JVM: OpenJDK 64-Bit Server VM
Java Version: 11.0.8+10-post-Ubuntu-0ubuntu118.04.1
Operating System: Linux
Default Encoding: UTF-8
Language: en
Country: US
--></g></svg>