<?xml version="1.0" encoding="UTF-8" standalone="no"?><svg xmlns="http://www.w3.org/2000/svg" xmlns:xlink="http://www.w3.org/1999/xlink" contentScriptType="application/ecmascript" contentStyleType="text/css" height="817.7083px" preserveAspectRatio="none" style="width:1301px;height:817px;background:#00000000;" version="1.1" viewBox="0 0 1301 817" width="1301.0417px" zoomAndPan="magnify"><defs><linearGradient id="g1np9qkfu8w1r40" x1="50%" x2="50%" y1="0%" y2="100%"><stop offset="0%" stop-color="#DBDBDB"/><stop offset="100%" stop-color="#D2D2D2"/></linearGradient><linearGradient id="g1np9qkfu8w1r41" x1="50%" x2="50%" y1="0%" y2="100%"><stop offset="0%" stop-color="#F2FCFE"/><stop offset="100%" stop-color="#EEEEEE"/></linearGradient><linearGradient id="g1np9qkfu8w1r42" x1="50%" x2="50%" y1="0%" y2="100%"><stop offset="0%" stop-color="#F3F3F3"/><stop offset="100%" stop-color="#E2E2E2"/></linearGradient><linearGradient id="g1np9qkfu8w1r43" x1="50%" x2="50%" y1="0%" y2="100%"><stop offset="0%" stop-color="#FFFFFF"/><stop offset="100%" stop-color="#FCFCFC"/></linearGradient><linearGradient id="g1np9qkfu8w1r44" x1="50%" x2="50%" y1="0%" y2="100%"><stop offset="0%" stop-color="#FFBE68"/><stop offset="100%" stop-color="#FFAE42"/></linearGradient><linearGradient id="g1np9qkfu8w1r45" x1="50%" x2="50%" y1="0%" y2="100%"><stop offset="0%" stop-color="#5C85AD"/><stop offset="100%" stop-color="#336699"/></linearGradient></defs><g><rect fill="url(#g1np9qkfu8w1r40)" height="56.5694" rx="4.1667" ry="4.1667" style="stroke:#D2D2D2;stroke-width:1.0416666666666667;" width="444.7917" x="421.0938" y="2.0833"/><text fill="#FFFFFF" font-family="Verdana" font-size="20.8333" lengthAdjust="spacing" textLength="407.2917" x="439.8438" y="38.6536">Component Diagram - lightgray theme</text><!--MD5=[98956307d0c47524864de5bf9cdc747b]
cluster My Package--><path d="M14.0625,68.0278 L107.8125,68.0278 A11.7188,11.7188 0 0 1 115.625,75.8403 L122.9167,110.3027 L826.5625,110.3027 A7.8125,7.8125 0 0 1 834.375,118.1152 L834.375,199.7986 A7.8125,7.8125 0 0 1 826.5625,207.6111 L14.0625,207.6111 A7.8125,7.8125 0 0 1 6.25,199.7986 L6.25,75.8403 A7.8125,7.8125 0 0 1 14.0625,68.0278 " style="stroke:#F3F3F3;stroke-width:2.0833333333333335;fill:none;"/><line style="stroke:#F3F3F3;stroke-width:2.0833333333333335;fill:none;" x1="6.25" x2="122.9167" y1="110.3027" y2="110.3027"/><text fill="#336699" font-family="Verdana" font-size="12.5" font-weight="bold" lengthAdjust="spacing" textLength="82.2917" x="20.8333" y="93.0949">My Package</text><!--MD5=[994b84a7865cf3a30290d65f6358d5f5]
cluster My Node--><polygon points="170.8333,243.0278,181.25,232.6111,620.8333,232.6111,620.8333,366.9861,610.4167,377.4028,170.8333,377.4028,170.8333,243.0278" style="stroke:#F3F3F3;stroke-width:1.5625;fill:none;"/><line style="stroke:#F3F3F3;stroke-width:1.5625;fill:none;" x1="610.4167" x2="620.8333" y1="243.0278" y2="232.6111"/><line style="stroke:#F3F3F3;stroke-width:1.5625;fill:none;" x1="170.8333" x2="610.4167" y1="243.0278" y2="243.0278"/><line style="stroke:#F3F3F3;stroke-width:1.5625;fill:none;" x1="610.4167" x2="610.4167" y1="243.0278" y2="377.4028"/><text fill="#336699" font-family="Verdana" font-size="12.5" font-weight="bold" lengthAdjust="spacing" textLength="59.375" x="361.9792" y="269.1366">My Node</text><!--MD5=[8f762177cf9f076b8ea6eac76c5df33e]
cluster My Cloud--><path d="M662.5435,246.3351 C666.3435,240.3512 671.8153,241.0699 674.9635,247.0138 C678.2688,238.3259 684.2345,237.6932 689.8797,244.8045 C694.1015,239.1504 699.8412,239.9266 703.4267,245.5677 C706.8565,238.3528 711.7797,237.3642 716.6906,244.1662 C720.4072,238.4324 724.96,238.2246 728.7624,244.0767 C732.9879,236.8038 738.1374,237.2296 743.2967,243.0393 C748.54,236.7715 753.7633,238.9529 756.3914,245.6756 C759.8762,240.3892 764.1113,238.7812 768.4566,244.7536 C772.5568,238.1193 779.2101,240.1312 782.0611,246.1019 C791.4659,237.9726 799.4114,243.2141 802.0833,253.4444 C802.9619,253.8483 803.0484,254.6338 802.3251,255.2519 C808.2462,257.7794 810.7625,261.4516 805.5867,267.0475 C813.645,271.5947 812.5829,276.5986 805.9714,281.5353 C813.5852,283.5407 814.6125,289.7933 808.3255,294.3519 C816.0654,298.2391 817.0619,304.7806 809.4941,309.8239 C813.7962,313.8071 813.6676,318.645 807.9021,321.222 C814.3237,326.4007 813.0791,331.1532 806.7587,335.2967 C813.1727,340.3925 812.1702,345.1146 805.3218,348.799 C810.6351,359.0697 808.4412,368.6496 794.7917,369.0694 C795.2248,368.547 795.7596,368.6486 796.0579,369.2249 C792.0483,375.5953 787.8484,377.8403 782.1367,371.0216 C778.4799,377.3987 774.3016,378.2749 769.3201,372.4084 C765.7104,378.948 759.7344,378.3359 756.2398,372.2888 C752.1253,379.058 746.7979,379.0948 742.2836,372.7131 C738.692,379.8826 733.3458,379.3274 729.0922,373.3789 C724.5992,379.553 720.4347,379.4855 716.5069,372.8248 C711.817,378.0147 705.8536,377.6028 702.8733,370.8699 C699.2915,376.9873 692.5438,378.0779 689.2532,370.5787 C684.7988,377.8639 680.0402,377.2974 675.8215,370.3562 C665.8545,376.8587 656.5788,374.3465 654.1667,361.7778 C654.6444,361.8601 654.8281,362.0946 654.606,362.5666 C646.9495,359.6591 647.0768,352.792 652.9352,348.3016 C645.8833,345.6494 645.7931,339.004 651.4049,334.9052 C643.7007,332.2467 643.3038,325.4363 649.924,321.2269 C644.1179,319.0845 642.6592,314.4512 647.2763,309.8773 C640.9277,304.0147 641.9578,299.0541 650.0685,296.1277 C644.2552,290.3381 644.8428,285.7645 652.1371,281.8777 C646.7066,277.9663 645.4168,272.4431 652.4658,268.8465 C643.1,257.4947 646.8087,247.9882 661.4583,246.1528 C661.8544,245.6524 662.3276,245.7635 662.5435,246.3351 " fill="url(#g1np9qkfu8w1r41)" style="stroke:#FFFFFF;stroke-width:1.5625;"/><text fill="#336699" font-family="Verdana" font-size="12.5" font-weight="bold" lengthAdjust="spacing" textLength="62.5" x="696.875" y="274.3449">My Cloud</text><!--MD5=[5435dd1da01795d79a1d1bdb7811705f]
cluster My Database--><path d="M629.1667,412.8194 C629.1667,402.4028 728.125,402.4028 728.125,402.4028 C728.125,402.4028 827.0833,402.4028 827.0833,412.8194 L827.0833,800.3194 C827.0833,810.7361 728.125,810.7361 728.125,810.7361 C728.125,810.7361 629.1667,810.7361 629.1667,800.3194 L629.1667,412.8194 " style="stroke:#F3F3F3;stroke-width:1.5625;fill:none;"/><path d="M629.1667,412.8194 C629.1667,423.2361 728.125,423.2361 728.125,423.2361 C728.125,423.2361 827.0833,423.2361 827.0833,412.8194 " fill="none" style="stroke:#F3F3F3;stroke-width:1.5625;"/><text fill="#336699" font-family="Verdana" font-size="12.5" font-weight="bold" lengthAdjust="spacing" textLength="88.5417" x="683.8542" y="448.3032">My Database</text><!--MD5=[db3eb734e65e00defc1adec42c70b029]
cluster My folder--><path d="M661.9792,481.5694 L738.0208,481.5694 A11.7188,11.7188 0 0 1 745.8333,489.3819 L753.125,523.8444 L794.2708,523.8444 A7.8125,7.8125 0 0 1 802.0833,531.6569 L802.0833,613.3403 A7.8125,7.8125 0 0 1 794.2708,621.1528 L661.9792,621.1528 A7.8125,7.8125 0 0 1 654.1667,613.3403 L654.1667,489.3819 A7.8125,7.8125 0 0 1 661.9792,481.5694 " fill="#F3F3F3" style="stroke:#FFAE42;stroke-width:1.5625;"/><line style="stroke:#FFAE42;stroke-width:1.5625;" x1="654.1667" x2="753.125" y1="523.8444" y2="523.8444"/><text fill="#FFAE42" font-family="Verdana" font-size="12.5" font-weight="bold" lengthAdjust="spacing" textLength="64.5833" x="668.75" y="506.6366">My folder</text><!--MD5=[2f95c9c104e26437854e71862f3d840e]
cluster My Frame--><rect fill="#F3F3F3" height="139.5833" rx="7.8125" ry="7.8125" style="stroke:#336699;stroke-width:1.5625;" width="147.9167" x="654.1667" y="646.1528"/><path d="M753.125,646.1528 L753.125,674.8861 L742.7083,685.3027 L654.1667,685.3027 " fill="none" style="stroke:#336699;stroke-width:1.5625;"/><text fill="#336699" font-family="Verdana" font-size="12.5" font-weight="bold" lengthAdjust="spacing" textLength="67.7083" x="667.7083" y="670.1782">My Frame</text><!--MD5=[96f7e1299d4a43069e6ed32352fcac20]
entity HTTP--><ellipse cx="577.0833" cy="157.0903" fill="#FF5C5C" rx="8.3333" ry="8.3333" style="stroke:#FF3333;stroke-width:1.5625;"/><text fill="#303030" font-family="Verdana" font-size="12.5" lengthAdjust="spacing" textLength="32.2917" x="560.9375" y="197.7824">HTTP</text><!--MD5=[cbd7cda55f2530e2efe43ec72c097853]
entity First Component--><rect fill="url(#g1np9qkfu8w1r42)" height="67.275" rx="7.8125" ry="7.8125" style="stroke:#F3F3F3;stroke-width:1.5625;" width="170.8333" x="360.4167" y="123.2361"/><rect fill="url(#g1np9qkfu8w1r42)" height="10.4167" style="stroke:#F3F3F3;stroke-width:1.5625;" width="15.625" x="510.4167" y="128.4444"/><rect fill="url(#g1np9qkfu8w1r42)" height="2.0833" style="stroke:#F3F3F3;stroke-width:1.5625;" width="4.1667" x="508.3333" y="130.5278"/><rect fill="url(#g1np9qkfu8w1r42)" height="2.0833" style="stroke:#F3F3F3;stroke-width:1.5625;" width="4.1667" x="508.3333" y="134.6944"/><text fill="#336699" font-family="Verdana" font-size="12.5" lengthAdjust="spacing" textLength="108.3333" x="386.4583" y="167.0532">First Component</text><!--MD5=[b9d11f23832c1491231c5b33e55ab8c6]
entity Another Component--><rect fill="url(#g1np9qkfu8w1r42)" height="67.275" rx="7.8125" ry="7.8125" style="stroke:#F3F3F3;stroke-width:1.5625;" width="194.7917" x="623.4375" y="123.2361"/><rect fill="url(#g1np9qkfu8w1r42)" height="10.4167" style="stroke:#F3F3F3;stroke-width:1.5625;" width="15.625" x="797.3958" y="128.4444"/><rect fill="url(#g1np9qkfu8w1r42)" height="2.0833" style="stroke:#F3F3F3;stroke-width:1.5625;" width="4.1667" x="795.3125" y="130.5278"/><rect fill="url(#g1np9qkfu8w1r42)" height="2.0833" style="stroke:#F3F3F3;stroke-width:1.5625;" width="4.1667" x="795.3125" y="134.6944"/><text fill="#336699" font-family="Verdana" font-size="12.5" lengthAdjust="spacing" textLength="132.2917" x="649.4792" y="167.0532">Another Component</text><!--MD5=[aa625683a8c1a6d60f4cb888c4297339]
entity MyRectangle1--><rect height="56.8583" rx="7.8125" ry="7.8125" style="stroke:#F3F3F3;stroke-width:2.0833333333333335;fill:none;" width="132.2917" x="191.1458" y="128.4444"/><text fill="#336699" font-family="Verdana" font-size="12.5" lengthAdjust="spacing" textLength="90.625" x="211.9792" y="161.8449">MyRectangle1</text><!--MD5=[deed3d4321eb4f26fdbc8b688b847966]
entity MyCollection1--><rect fill="url(#g1np9qkfu8w1r42)" height="52.6917" rx="7.8125" ry="7.8125" style="stroke:#F3F3F3;stroke-width:1.5625;" width="127.0833" x="27.0833" y="132.6111"/><rect fill="url(#g1np9qkfu8w1r42)" height="52.6917" rx="7.8125" ry="7.8125" style="stroke:#F3F3F3;stroke-width:1.5625;" width="127.0833" x="22.9167" y="128.4444"/><text fill="#336699" font-family="Verdana" font-size="12.5" lengthAdjust="spacing" textLength="89.5833" x="41.6667" y="159.7616">MyCollection1</text><!--MD5=[76af18d92d7d7c0f7ebd8f4f605ac5aa]
entity FTP--><ellipse cx="366.6667" cy="326.8819" fill="#FF5C5C" rx="8.3333" ry="8.3333" style="stroke:#FF3333;stroke-width:1.5625;"/><text fill="#303030" font-family="Verdana" font-size="12.5" lengthAdjust="spacing" textLength="22.9167" x="355.2083" y="367.5741">FTP</text><!--MD5=[0e2cc1aee2c7f52697e111b4fb84546c]
entity Second Component--><rect fill="url(#g1np9qkfu8w1r42)" height="67.275" rx="7.8125" ry="7.8125" style="stroke:#F3F3F3;stroke-width:1.5625;" width="190.625" x="413.0208" y="293.0278"/><rect fill="url(#g1np9qkfu8w1r42)" height="10.4167" style="stroke:#F3F3F3;stroke-width:1.5625;" width="15.625" x="582.8125" y="298.2361"/><rect fill="url(#g1np9qkfu8w1r42)" height="2.0833" style="stroke:#F3F3F3;stroke-width:1.5625;" width="4.1667" x="580.7292" y="300.3194"/><rect fill="url(#g1np9qkfu8w1r42)" height="2.0833" style="stroke:#F3F3F3;stroke-width:1.5625;" width="4.1667" x="580.7292" y="304.4861"/><text fill="#336699" font-family="Verdana" font-size="12.5" lengthAdjust="spacing" textLength="128.125" x="439.0625" y="336.8449">Second Component</text><!--MD5=[b8d85f5d3810694767e38854f60c8b6e]
entity MyRectangle2--><rect height="56.8583" rx="7.8125" ry="7.8125" style="stroke:#F3F3F3;stroke-width:2.0833333333333335;fill:none;" width="132.2917" x="188.0208" y="298.2361"/><text fill="#336699" font-family="Verdana" font-size="12.5" lengthAdjust="spacing" textLength="90.625" x="208.8542" y="331.6366">MyRectangle2</text><!--MD5=[243c1e580c31013c48b02624e18b25a7]
entity Example 1--><rect fill="url(#g1np9qkfu8w1r42)" height="67.275" rx="7.8125" ry="7.8125" style="stroke:#F3F3F3;stroke-width:1.5625;" width="130.2083" x="663.0208" y="293.0278"/><rect fill="url(#g1np9qkfu8w1r42)" height="10.4167" style="stroke:#F3F3F3;stroke-width:1.5625;" width="15.625" x="772.3958" y="298.2361"/><rect fill="url(#g1np9qkfu8w1r42)" height="2.0833" style="stroke:#F3F3F3;stroke-width:1.5625;" width="4.1667" x="770.3125" y="300.3194"/><rect fill="url(#g1np9qkfu8w1r42)" height="2.0833" style="stroke:#F3F3F3;stroke-width:1.5625;" width="4.1667" x="770.3125" y="304.4861"/><text fill="#336699" font-family="Verdana" font-size="12.5" lengthAdjust="spacing" textLength="67.7083" x="689.0625" y="336.8449">Example 1</text><!--MD5=[3e0e08c92570480402984701ab5a6d2d]
entity Folder 3--><rect fill="url(#g1np9qkfu8w1r42)" height="67.275" rx="7.8125" ry="7.8125" style="stroke:#F3F3F3;stroke-width:1.5625;" width="115.625" x="670.3125" y="536.7778"/><rect fill="url(#g1np9qkfu8w1r42)" height="10.4167" style="stroke:#F3F3F3;stroke-width:1.5625;" width="15.625" x="765.1042" y="541.9861"/><rect fill="url(#g1np9qkfu8w1r42)" height="2.0833" style="stroke:#F3F3F3;stroke-width:1.5625;" width="4.1667" x="763.0208" y="544.0694"/><rect fill="url(#g1np9qkfu8w1r42)" height="2.0833" style="stroke:#F3F3F3;stroke-width:1.5625;" width="4.1667" x="763.0208" y="548.2361"/><text fill="#336699" font-family="Verdana" font-size="12.5" lengthAdjust="spacing" textLength="53.125" x="696.3542" y="580.5949">Folder 3</text><!--MD5=[63877ed85df621d134a6c80fb52dad56]
entity Frame 4--><rect fill="url(#g1np9qkfu8w1r42)" height="67.275" rx="7.8125" ry="7.8125" style="stroke:#F3F3F3;stroke-width:1.5625;" width="115.625" x="670.3125" y="701.3611"/><rect fill="url(#g1np9qkfu8w1r42)" height="10.4167" style="stroke:#F3F3F3;stroke-width:1.5625;" width="15.625" x="765.1042" y="706.5694"/><rect fill="url(#g1np9qkfu8w1r42)" height="2.0833" style="stroke:#F3F3F3;stroke-width:1.5625;" width="4.1667" x="763.0208" y="708.6528"/><rect fill="url(#g1np9qkfu8w1r42)" height="2.0833" style="stroke:#F3F3F3;stroke-width:1.5625;" width="4.1667" x="763.0208" y="712.8194"/><text fill="#336699" font-family="Verdana" font-size="12.5" lengthAdjust="spacing" textLength="53.125" x="696.3542" y="745.1782">Frame 4</text><!--MD5=[bb0325ec99f4f4d58c3e33c6fae3b543]
entity MyCollection2--><rect fill="url(#g1np9qkfu8w1r42)" height="52.6917" rx="7.8125" ry="7.8125" style="stroke:#F3F3F3;stroke-width:1.5625;" width="127.0833" x="859.375" y="132.6111"/><rect fill="url(#g1np9qkfu8w1r42)" height="52.6917" rx="7.8125" ry="7.8125" style="stroke:#F3F3F3;stroke-width:1.5625;" width="127.0833" x="855.2083" y="128.4444"/><text fill="#336699" font-family="Verdana" font-size="12.5" lengthAdjust="spacing" textLength="89.5833" x="873.9583" y="159.7616">MyCollection2</text><!--MD5=[4d6c9a8b502f46c0f85d26a51e5d57ce]
entity My Artifact--><rect fill="url(#g1np9qkfu8w1r43)" height="59.9833" rx="7.8125" ry="7.8125" style="stroke:#A8A8A8;stroke-width:1.5625;" width="119.7917" x="1023.4375" y="126.8819"/><polygon fill="url(#g1np9qkfu8w1r43)" points="1125.5208,132.0903,1125.5208,146.6736,1138.0208,146.6736,1138.0208,138.3403,1131.7708,132.0903,1125.5208,132.0903" style="stroke:#A8A8A8;stroke-width:1.5625;"/><line style="stroke:#A8A8A8;stroke-width:1.5625;" x1="1131.7708" x2="1131.7708" y1="132.0903" y2="138.3403"/><line style="stroke:#A8A8A8;stroke-width:1.5625;" x1="1138.0208" x2="1131.7708" y1="138.3403" y2="138.3403"/><text fill="#A8A8A8" font-family="Verdana" font-size="12.5" lengthAdjust="spacing" textLength="67.7083" x="1044.2708" y="163.4074">My Artifact</text><!--MD5=[6013850653c05993d855a7b82b2ebd6f]
entity My Storage--><rect fill="url(#g1np9qkfu8w1r44)" height="56.8583" rx="36.4583" ry="36.4583" style="stroke:#FFAE42;stroke-width:1.5625;" width="115.625" x="1179.6875" y="128.4444"/><text fill="#FFFFFF" font-family="Verdana" font-size="12.5" lengthAdjust="spacing" textLength="73.9583" x="1200.5208" y="161.8449">My Storage</text><!--MD5=[decf897d207c1b699121f5d4005ef96e]
entity My Queue--><path d="M872.3958,303.4444 L969.2708,303.4444 C974.4792,303.4444 974.4792,326.6652 974.4792,326.6652 C974.4792,326.6652 974.4792,349.8861 969.2708,349.8861 L872.3958,349.8861 C867.1875,349.8861 867.1875,326.6652 867.1875,326.6652 C867.1875,326.6652 867.1875,303.4444 872.3958,303.4444 " fill="url(#g1np9qkfu8w1r42)" style="stroke:#F3F3F3;stroke-width:1.5625;"/><path d="M969.2708,303.4444 C964.0625,303.4444 964.0625,326.6652 964.0625,326.6652 C964.0625,349.8861 969.2708,349.8861 969.2708,349.8861 " fill="none" style="stroke:#F3F3F3;stroke-width:1.5625;"/><text fill="#336699" font-family="Verdana" font-size="12.5" lengthAdjust="spacing" textLength="65.625" x="882.8125" y="331.6366">My Queue</text><!--MD5=[db0b4290d55c456da6f1e605315daa68]
entity My Interface--><ellipse cx="1070.8333" cy="326.8819" fill="#FF5C5C" rx="8.3333" ry="8.3333" style="stroke:#FF3333;stroke-width:1.5625;"/><text fill="#303030" font-family="Verdana" font-size="12.5" lengthAdjust="spacing" textLength="81.25" x="1030.2083" y="367.5741">My Interface</text><!--MD5=[c42dbb279bb2c76edeffd08640135261]
entity My Card--><rect fill="url(#g1np9qkfu8w1r45)" height="42.275" rx="7.8125" ry="7.8125" style="stroke:#336699;stroke-width:1.5625;" width="94.7917" x="1167.1875" y="305.5278"/><text fill="#FFFFFF" font-family="Verdana" font-size="12.5" lengthAdjust="spacing" textLength="53.125" x="1188.0208" y="331.6366">My Card</text><!--MD5=[4552e0ab931d4db86ba1ccdf7169c968]
entity My File--><path d="M878.125,549.7986 L878.125,591.0319 A7.8125,7.8125 0 0 0 885.9375,598.8444 L955.7292,598.8444 A7.8125,7.8125 0 0 0 963.5417,591.0319 L963.5417,552.4028 L953.125,541.9861 L885.9375,541.9861 A7.8125,7.8125 0 0 0 878.125,549.7986 " fill="url(#g1np9qkfu8w1r40)" style="stroke:#A8A8A8;stroke-width:1.5625;"/><path d="M953.125,541.9861 L953.125,544.5903 A7.8125,7.8125 0 0 0 960.9375,552.4028 L963.5417,552.4028 " fill="url(#g1np9qkfu8w1r40)" style="stroke:#A8A8A8;stroke-width:1.5625;"/><text fill="#FFFFFF" font-family="Verdana" font-size="12.5" lengthAdjust="spacing" textLength="43.75" x="898.9583" y="575.3866">My File</text><!--MD5=[5a51615613d2b2569e36ac803df4b251]
entity My Stack--><rect fill="url(#g1np9qkfu8w1r42)" height="56.8583" rx="7.8125" ry="7.8125" style="stroke:none;stroke-width:1.5625;" width="98.9583" x="1016.1458" y="541.9861"/><path d="M1000.5208,541.9861 L1008.3333,541.9861 A7.8125,7.8125 0 0 1 1016.1458,549.7986 L1016.1458,591.0319 A7.8125,7.8125 0 0 0 1023.9583,598.8444 L1107.2917,598.8444 A7.8125,7.8125 0 0 0 1115.1042,591.0319 L1115.1042,549.7986 A7.8125,7.8125 0 0 1 1122.9167,541.9861 L1130.7292,541.9861 " fill="none" style="stroke:#F3F3F3;stroke-width:1.5625;"/><text fill="#336699" font-family="Verdana" font-size="12.5" lengthAdjust="spacing" textLength="57.2917" x="1036.9792" y="575.3866">My Stack</text><!--MD5=[46d996859f59e5baf77956ce93023cee]
link HTTP to First Component--><path d="M567.4583,157.0903 C555.4583,157.0903 543.4583,157.0903 531.4583,157.0903 " fill="none" id="HTTP-First Component" style="stroke:#E2E2E2;stroke-width:3.125;"/><!--MD5=[1966a42bb49d59057147dbda06282f4b]
link FTP to Second Component--><path d="M376.0729,326.8819 C388.3021,326.8819 400.5313,326.8819 412.7604,326.8819 " fill="none" id="FTP-Second Component" style="stroke:#E2E2E2;stroke-width:3.125;"/><!--MD5=[d3aefbd8005e27b21e7ce98ddd948193]
link First Component to FTP--><path d="M416.3854,191.1111 C408.4896,201.2153 400.5625,212.7361 394.7917,224.2778 C380.0521,253.7465 372.1354,292.0069 368.7292,312.1111 " fill="none" id="First Component-to-FTP" style="stroke:#E2E2E2;stroke-width:3.125;"/><polygon fill="#E2E2E2" points="367.8958,317.2778,373.5068,308.6889,368.728,312.1363,365.2805,307.3575,367.8958,317.2778" style="stroke:#E2E2E2;stroke-width:3.125;"/><!--MD5=[efc1ffe8b578a0fb156c7bce303319bb]
link Another Component to Example 1--><path d="M722.2708,191.2673 C723.4792,218.9444 725.1979,258.434 726.4583,287.4757 " fill="none" id="Another Component-to-Example 1" style="stroke:#E2E2E2;stroke-width:3.125;"/><polygon fill="#E2E2E2" points="726.6875,292.7778,730.4489,283.2329,726.4645,287.5742,722.1232,283.5898,726.6875,292.7778" style="stroke:#E2E2E2;stroke-width:3.125;"/><!--MD5=[7ec8393a78a133520e8846dd05a7857a]
link Example 1 to Folder 3--><path d="M728.125,361.0173 C728.125,405.4548 728.125,484.2361 728.125,531.2257 " fill="none" id="Example 1-to-Folder 3" style="stroke:#E2E2E2;stroke-width:3.125;"/><polygon fill="#E2E2E2" points="728.125,536.5069,732.2917,527.1319,728.125,531.2986,723.9583,527.1319,728.125,536.5069" style="stroke:#E2E2E2;stroke-width:3.125;"/><!--MD5=[b96c7096199393c1414a8b4e9ed2c30f]
link Folder 3 to Frame 4--><path d="M728.125,604.559 C728.125,630.9861 728.125,668.1528 728.125,695.9132 " fill="none" id="Folder 3-to-Frame 4" style="stroke:#E2E2E2;stroke-width:3.125;"/><polygon fill="#E2E2E2" points="728.125,701.3403,732.2917,691.9653,728.125,696.1319,723.9583,691.9653,728.125,701.3403" style="stroke:#E2E2E2;stroke-width:3.125;"/><!--MD5=[83be288af14fde8a86007c2b011fac4a]
link MyCollection2 to My Artifact--><!--MD5=[b21a3c93c2a22c7ef4934ace81b9a2fe]
link My Artifact to My Storage--><!--MD5=[6ba35b42f782a962813221ea03178716]
link MyCollection2 to My Queue--><!--MD5=[0babb46f3d0f67f91c828a5eda35ab7d]
link My Queue to My Interface--><!--MD5=[9bfee3aea78949ae207e8bd3b67fed50]
link My Interface to My Card--><!--MD5=[afe9315598834b0b9f57a7a5b2c7ee2a]
link My Queue to My File--><!--MD5=[f6296be58d13482500ae3b999db2843f]
link My File to My Stack--><!--MD5=[e6fbaf9f1e79f13c1991cefec5193fce]
@startuml

!$THEME = "lightgray"

!if %not(%variable_exists("$BGCOLOR"))
!$BGCOLOR = "transparent"
!endif

skinparam backgroundColor $BGCOLOR
skinparam useBetaStyle false

!$WHITE = "#FFF"
!$GRAY_DARK = "#4d4d4d"
!$GRAY = "#737373"
!$LIGHT = "#fcfcfc"
!$DARK = "#303030"

!$FGCOLOR = $DARK
!$PRIMARY = "#e2e2e2"
!$PRIMARY_LIGHT = "#f3f3f3"
!$PRIMARY_DARK = "#888888"
!$PRIMARY_TEXT = "#336699"
!$SECONDARY = "#d2d2d2"
!$SECONDARY_LIGHT = "#dbdbdb"
!$SECONDARY_DARK = "#a8a8a8"
!$SECONDARY_TEXT = "white"
!$INFO = "#336699"
!$INFO_LIGHT = "#5c85ad"
!$INFO_DARK = "#29527a"
!$INFO_TEXT = $WHITE
!$SUCCESS = "#339933"
!$SUCCESS_LIGHT = "#5cad5c"
!$SUCCESS_DARK = "#297a29"
!$SUCCESS_TEXT = $WHITE
!$WARNING = "#ffae42"
!$WARNING_LIGHT = "#ffbe68"
!$WARNING_DARK = "#cc8b35"
!$WARNING_TEXT = $WHITE
!$DANGER = "#ff3333"
!$DANGER_LIGHT = "#ff5c5c"
!$DANGER_DARK = "#cc2929"
!$DANGER_TEXT = $WHITE

!procedure $success($msg)
  <font color=$SUCCESS><b>$msg
!endprocedure

!procedure $failure($msg)
  <font color=$DANGER><b>$msg
!endprocedure

!procedure $warning($msg)
  <font color=$WARNING><b>$msg
!endprocedure

!procedure $primary_scheme()
	FontColor $PRIMARY_TEXT
	BorderColor $PRIMARY_LIGHT
	BackgroundColor $PRIMARY_LIGHT-$PRIMARY
!endprocedure

skinparam defaultFontName        "Verdana"
skinparam defaultFontSize        12
skinparam dpi                    100
skinparam shadowing              false
skinparam roundcorner            15
skinparam ParticipantPadding     30
skinparam BoxPadding             30
skinparam Padding                10
skinparam ArrowColor             $GRAY
skinparam stereotype {
    CBackgroundColor $SECONDARY_LIGHT
    CBorderColor $SECONDARY_DARK
    ABackgroundColor $SUCCESS_LIGHT
    ABorderColor $SUCCESS_DARK
    IBackgroundColor $DANGER_LIGHT
    IBorderColor $DANGER_DARK
    EBackgroundColor $WARNING_LIGHT
    EBorderColor $WARNING_DARK
    NBackgroundColor $INFO_LIGHT
    NBorderColor $INFO_DARK
}
skinparam title {
	FontColor	                 $SECONDARY_TEXT
	BorderColor	                 $SECONDARY
	FontSize	    	         20
	BorderRoundCorner            8
	BorderThickness 	         1
	BackgroundColor              $SECONDARY_LIGHT-$SECONDARY
}


skinparam legend {
	BackgroundColor $PRIMARY
	BorderColor $PRIMARY_DARK
	FontColor $PRIMARY_TEXT
}

!startsub swimlane
skinparam swimlane {
	BorderColor $INFO
	BorderThickness 2
	TitleBackgroundColor  $SECONDARY_LIGHT-$SECONDARY
	TitleFontColor $PRIMARY
}
!endsub

!startsub activity

skinparam activity {
	$primary_scheme()
	BarColor $SUCCESS
	StartColor $INFO
	EndColor $INFO
	DiamondBackgroundColor $SECONDARY-$SECONDARY_DARK
  	DiamondBorderColor $SECONDARY_DARK
	DiamondFontColor $SECONDARY_TEXT
}
!endsub

!startsub participant

skinparam participant {
	$primary_scheme()
	ParticipantBorderThickness 2
}
!endsub

!startsub actor

skinparam actor {
	$primary_scheme()
}
!endsub

!startsub arrow

skinparam arrow {
	Thickness 3
	Color $PRIMARY
	FontColor $FGCOLOR
}
!endsub

!startsub sequence

skinparam sequence {
	BorderColor $PRIMARY
	TitleFontColor $SECONDARY_TEXT
	BackgroundColor $BGCOLOR
	StartColor $PRIMARY
	EndColor $PRIMARY
	BoxBackgroundColor $LIGHT
	BoxBorderColor $GRAY
	BoxFontColor $DARK
	LifeLineBorderColor $SECONDARY_DARK
	LifeLineBorderThickness 2
	LifeLineBackgroundColor $SECONDARY_LIGHT
	GroupBorderColor $GRAY
	GroupFontColor $DARK
	GroupHeaderFontColor $INFO
	DividerBackgroundColor $WHITE-$LIGHT
    DividerBorderColor $GRAY
    DividerBorderThickness 2
    DividerFontColor $DARK
	ReferenceBackgroundColor $BGCOLOR
	ReferenceBorderColor $GRAY
	ReferenceFontColor $DARK
	ReferenceHeaderFontColor $INFO
}
!endsub

!startsub partition

skinparam partition {
	BorderColor $PRIMARY
	FontColor $PRIMARY_DARK
	BackgroundColor $BGCOLOR
}
!endsub

!startsub collections

skinparam collections {
	$primary_scheme()
}
!endsub

!startsub control

skinparam control {
	$primary_scheme()
}
!endsub

!startsub entity

skinparam entity {
	$primary_scheme()
}
!endsub

!startsub boundary

skinparam boundary {
	$primary_scheme()
}
!endsub

!startsub agent

skinparam agent {
	BackgroundColor #orange
	BorderColor #999999
	FontColor #333333
}
!endsub

!startsub note

skinparam note {
	BorderThickness 1
	BackgroundColor $INFO_LIGHT-$INFO
	BorderColor $INFO
	FontColor $WHITE
}
!endsub

!startsub artifact

skinparam artifact {
	BackgroundColor white-$LIGHT
	BorderColor $SECONDARY_DARK
	FontColor $SECONDARY_DARK
}
!endsub

!startsub component

skinparam component {
	$primary_scheme()
}
!endsub

!startsub interface

skinparam interface {
	BackgroundColor  $DANGER_LIGHT
	BorderColor  $DANGER
	FontColor $DARK
}
!endsub

!startsub storage

skinparam storage {
	BackgroundColor $WARNING_LIGHT-$WARNING
  	BorderColor $WARNING
	FontColor $WARNING_TEXT
}
!endsub

!startsub node

skinparam node {
	BackgroundColor $BGCOLOR
	BorderColor $PRIMARY_LIGHT
	FontColor $PRIMARY_TEXT
}
!endsub

!startsub cloud

skinparam cloud {
	BackgroundColor #F2FCFE-#eeeeee
	BorderColor $F2FCFE
	FontColor $PRIMARY_TEXT
}
!endsub

!startsub database

skinparam database {
	$primary_scheme()
	BackgroundColor  $BGCOLOR
}
!endsub

!startsub class

skinparam class {
	$primary_scheme()
	HeaderBackgroundColor $PRIMARY_LIGHT-$PRIMARY_DARK
	StereotypeFontColor $DARK
	StereotypeFontSize 9
	BorderThickness 1
	AttributeFontColor $DARK
	AttributeFontSize 11
}
!endsub

!startsub object

skinparam object {
	$primary_scheme()
	StereotypeFontColor $LIGHT
	BorderThickness 1
	AttributeFontColor $DARK
	AttributeFontSize 11
}
!endsub

!startsub usecase

skinparam usecase {
	$primary_scheme()
	BorderThickness 2
	StereotypeFontColor $PRIMARY
}
!endsub

!startsub rectangle

skinparam rectangle {
	$primary_scheme()
	BackgroundColor $BGCOLOR
	BorderThickness 2
	StereotypeFontColor $PRIMARY
}
!endsub

!startsub package

skinparam package {
	$primary_scheme()
	BackgroundColor $BGCOLOR
	BorderThickness 2
}
!endsub

!startsub folder

skinparam folder {
	BackgroundColor $PRIMARY_LIGHT
  	BorderColor $WARNING
	FontColor $WARNING
	BorderThickness 2
}
!endsub

!startsub frame

skinparam frame {
	BackgroundColor $PRIMARY_LIGHT
  	BorderColor $INFO
	FontColor $INFO
	BorderThickness 2
}
!endsub

!startsub state

skinparam state {
	$primary_scheme()
	BorderColor $PRIMARY_DARK
	StartColor $INFO
	EndColor $INFO
	AttributeFontColor $SECONDARY_TEXT
	AttributeFontSize 11
}
!endsub

!startsub queue

skinparam queue {
	$primary_scheme()
}
!endsub

!startsub card

skinparam card {
	BackgroundColor $INFO_LIGHT-$INFO
	BorderColor $INFO
	FontColor $INFO_TEXT
}
!endsub

!startsub file

skinparam file {
	BackgroundColor $SECONDARY_LIGHT-$SECONDARY
	BorderColor $SECONDARY_DARK
	FontColor $SECONDARY_TEXT

}
!endsub

!startsub stack

skinparam stack {
	$primary_scheme()
}
!endsub

!if %variable_exists("$THEME")
title Component Diagram - $THEME theme
!else
title Component Diagram
!endif

'skinparam BackgroundColor transparent

package "My Package" {
  HTTP - [First Component]
  [Another Component]
  rectangle MyRectangle1
  collections MyCollection1
}
 
node "My Node" {
  FTP - [Second Component]
  [First Component] - -> FTP
  rectangle MyRectangle2
} 

cloud "My Cloud" {
  [Example 1]
}

collections MyCollection2

database "My Database" {
  folder "My folder" {
	[Folder 3]
  }
  frame "My Frame" {
	[Frame 4]
  }
}

artifact "My Artifact"
storage "My Storage"
queue "My Queue"
interface "My Interface"
card "My Card"
file "My File"
stack "My Stack"

[Another Component] - -> [Example 1]
[Example 1] - -> [Folder 3]
[Folder 3] - -> [Frame 4]

@enduml

@startuml



skinparam backgroundColor transparent
skinparam useBetaStyle false







skinparam defaultFontName        "Verdana"
skinparam defaultFontSize        12
skinparam dpi                    100
skinparam shadowing              false
skinparam roundcorner            15
skinparam ParticipantPadding     30
skinparam BoxPadding             30
skinparam Padding                10
skinparam ArrowColor             #737373
skinparam stereotype {
    CBackgroundColor #dbdbdb
    CBorderColor #a8a8a8
    ABackgroundColor #5cad5c
    ABorderColor #297a29
    IBackgroundColor #ff5c5c
    IBorderColor #cc2929
    EBackgroundColor #ffbe68
    EBorderColor #cc8b35
    NBackgroundColor #5c85ad
    NBorderColor #29527a
}
skinparam title {
	FontColor	                 white
	BorderColor	                 #d2d2d2
	FontSize	    	         20
	BorderRoundCorner            8
	BorderThickness 	         1
	BackgroundColor              #dbdbdb-#d2d2d2
}


skinparam legend {
	BackgroundColor #e2e2e2
	BorderColor #888888
	FontColor #336699
}

skinparam swimlane {
	BorderColor #336699
	BorderThickness 2
	TitleBackgroundColor  #dbdbdb-#d2d2d2
	TitleFontColor #e2e2e2
}


skinparam activity {
		FontColor #336699
	BorderColor #f3f3f3
	BackgroundColor #f3f3f3-#e2e2e2
	BarColor #339933
	StartColor #336699
	EndColor #336699
	DiamondBackgroundColor #d2d2d2-#a8a8a8
  	DiamondBorderColor #a8a8a8
	DiamondFontColor white
}


skinparam participant {
		FontColor #336699
	BorderColor #f3f3f3
	BackgroundColor #f3f3f3-#e2e2e2
	ParticipantBorderThickness 2
}


skinparam actor {
		FontColor #336699
	BorderColor #f3f3f3
	BackgroundColor #f3f3f3-#e2e2e2
}


skinparam arrow {
	Thickness 3
	Color #e2e2e2
	FontColor #303030
}


skinparam sequence {
	BorderColor #e2e2e2
	TitleFontColor white
	BackgroundColor transparent
	StartColor #e2e2e2
	EndColor #e2e2e2
	BoxBackgroundColor #fcfcfc
	BoxBorderColor #737373
	BoxFontColor #303030
	LifeLineBorderColor #a8a8a8
	LifeLineBorderThickness 2
	LifeLineBackgroundColor #dbdbdb
	GroupBorderColor #737373
	GroupFontColor #303030
	GroupHeaderFontColor #336699
	DividerBackgroundColor #FFF-#fcfcfc
    DividerBorderColor #737373
    DividerBorderThickness 2
    DividerFontColor #303030
	ReferenceBackgroundColor transparent
	ReferenceBorderColor #737373
	ReferenceFontColor #303030
	ReferenceHeaderFontColor #336699
}


skinparam partition {
	BorderColor #e2e2e2
	FontColor #888888
	BackgroundColor transparent
}


skinparam collections {
		FontColor #336699
	BorderColor #f3f3f3
	BackgroundColor #f3f3f3-#e2e2e2
}


skinparam control {
		FontColor #336699
	BorderColor #f3f3f3
	BackgroundColor #f3f3f3-#e2e2e2
}


skinparam entity {
		FontColor #336699
	BorderColor #f3f3f3
	BackgroundColor #f3f3f3-#e2e2e2
}


skinparam boundary {
		FontColor #336699
	BorderColor #f3f3f3
	BackgroundColor #f3f3f3-#e2e2e2
}


skinparam agent {
	BackgroundColor #orange
	BorderColor #999999
	FontColor #333333
}


skinparam note {
	BorderThickness 1
	BackgroundColor #5c85ad-#336699
	BorderColor #336699
	FontColor #FFF
}


skinparam artifact {
	BackgroundColor white-#fcfcfc
	BorderColor #a8a8a8
	FontColor #a8a8a8
}


skinparam component {
		FontColor #336699
	BorderColor #f3f3f3
	BackgroundColor #f3f3f3-#e2e2e2
}


skinparam interface {
	BackgroundColor  #ff5c5c
	BorderColor  #ff3333
	FontColor #303030
}


skinparam storage {
	BackgroundColor #ffbe68-#ffae42
  	BorderColor #ffae42
	FontColor #FFF
}


skinparam node {
	BackgroundColor transparent
	BorderColor #f3f3f3
	FontColor #336699
}


skinparam cloud {
	BackgroundColor #F2FCFE-#eeeeee
	BorderColor $F2FCFE
	FontColor #336699
}


skinparam database {
		FontColor #336699
	BorderColor #f3f3f3
	BackgroundColor #f3f3f3-#e2e2e2
	BackgroundColor  transparent
}


skinparam class {
		FontColor #336699
	BorderColor #f3f3f3
	BackgroundColor #f3f3f3-#e2e2e2
	HeaderBackgroundColor #f3f3f3-#888888
	StereotypeFontColor #303030
	StereotypeFontSize 9
	BorderThickness 1
	AttributeFontColor #303030
	AttributeFontSize 11
}


skinparam object {
		FontColor #336699
	BorderColor #f3f3f3
	BackgroundColor #f3f3f3-#e2e2e2
	StereotypeFontColor #fcfcfc
	BorderThickness 1
	AttributeFontColor #303030
	AttributeFontSize 11
}


skinparam usecase {
		FontColor #336699
	BorderColor #f3f3f3
	BackgroundColor #f3f3f3-#e2e2e2
	BorderThickness 2
	StereotypeFontColor #e2e2e2
}


skinparam rectangle {
		FontColor #336699
	BorderColor #f3f3f3
	BackgroundColor #f3f3f3-#e2e2e2
	BackgroundColor transparent
	BorderThickness 2
	StereotypeFontColor #e2e2e2
}


skinparam package {
		FontColor #336699
	BorderColor #f3f3f3
	BackgroundColor #f3f3f3-#e2e2e2
	BackgroundColor transparent
	BorderThickness 2
}


skinparam folder {
	BackgroundColor #f3f3f3
  	BorderColor #ffae42
	FontColor #ffae42
	BorderThickness 2
}


skinparam frame {
	BackgroundColor #f3f3f3
  	BorderColor #336699
	FontColor #336699
	BorderThickness 2
}


skinparam state {
		FontColor #336699
	BorderColor #f3f3f3
	BackgroundColor #f3f3f3-#e2e2e2
	BorderColor #888888
	StartColor #336699
	EndColor #336699
	AttributeFontColor white
	AttributeFontSize 11
}


skinparam queue {
		FontColor #336699
	BorderColor #f3f3f3
	BackgroundColor #f3f3f3-#e2e2e2
}


skinparam card {
	BackgroundColor #5c85ad-#336699
	BorderColor #336699
	FontColor #FFF
}


skinparam file {
	BackgroundColor #dbdbdb-#d2d2d2
	BorderColor #a8a8a8
	FontColor white

}


skinparam stack {
		FontColor #336699
	BorderColor #f3f3f3
	BackgroundColor #f3f3f3-#e2e2e2
}

title Component Diagram - lightgray theme


package "My Package" {
  HTTP - [First Component]
  [Another Component]
  rectangle MyRectangle1
  collections MyCollection1
}
 
node "My Node" {
  FTP - [Second Component]
  [First Component] - -> FTP
  rectangle MyRectangle2
} 

cloud "My Cloud" {
  [Example 1]
}

collections MyCollection2

database "My Database" {
  folder "My folder" {
	[Folder 3]
  }
  frame "My Frame" {
	[Frame 4]
  }
}

artifact "My Artifact"
storage "My Storage"
queue "My Queue"
interface "My Interface"
card "My Card"
file "My File"
stack "My Stack"

[Another Component] - -> [Example 1]
[Example 1] - -> [Folder 3]
[Folder 3] - -> [Frame 4]

@enduml

PlantUML version 1.2021.01(Mon Feb 01 23:55:08 PST 2021)
(GPL source distribution)
Java Runtime: OpenJDK Runtime Environment
JVM: OpenJDK 64-Bit Server VM
Default Encoding: UTF-8
Language: en
Country: US
--></g></svg>