<?xml version="1.0" encoding="UTF-8" standalone="no"?><svg xmlns="http://www.w3.org/2000/svg" xmlns:xlink="http://www.w3.org/1999/xlink" contentScriptType="application/ecmascript" contentStyleType="text/css" height="1748.9583px" preserveAspectRatio="none" style="width:1409px;height:1748px;background:#00000000;" version="1.1" viewBox="0 0 1409 1748" width="1409.375px" zoomAndPan="magnify"><defs><linearGradient id="gdi8mp9zotsxu0" x1="50%" x2="50%" y1="0%" y2="100%"><stop offset="0%" stop-color="#DBDBDB"/><stop offset="100%" stop-color="#D2D2D2"/></linearGradient><linearGradient id="gdi8mp9zotsxu1" x1="50%" x2="50%" y1="0%" y2="100%"><stop offset="0%" stop-color="#F3F3F3"/><stop offset="100%" stop-color="#E2E2E2"/></linearGradient><linearGradient id="gdi8mp9zotsxu2" x1="50%" x2="50%" y1="0%" y2="100%"><stop offset="0%" stop-color="#FFFFFF"/><stop offset="100%" stop-color="#FCFCFC"/></linearGradient><linearGradient id="gdi8mp9zotsxu3" x1="50%" x2="50%" y1="0%" y2="100%"><stop offset="0%" stop-color="#5C85AD"/><stop offset="100%" stop-color="#336699"/></linearGradient></defs><g><rect fill="url(#gdi8mp9zotsxu0)" height="56.5694" rx="4.1667" ry="4.1667" style="stroke: #D2D2D2; stroke-width: 1.0416666666666667;" width="427.0833" x="485.9375" y="30.8167"/><text fill="#FFFFFF" font-family="Verdana" font-size="20.8333" lengthAdjust="spacingAndGlyphs" textLength="389.5833" x="504.6875" y="67.3869">Sequence Diagram - lightgray theme</text><rect fill="#FCFCFC" height="1619.6411" rx="7.8125" ry="7.8125" style="stroke: #737373; stroke-width: 1.0416666666666667;" width="335.4167" x="1023.9583" y="98.8444"/><text fill="#303030" font-family="Verdana" font-size="12.5" font-weight="bold" lengthAdjust="spacingAndGlyphs" textLength="111.4583" x="1135.9375" y="121.8282">Internal Service</text><rect fill="#DBDBDB" height="305.2999" style="stroke: #A8A8A8; stroke-width: 1.0416666666666667;" width="10.4167" x="439.0625" y="400.411"/><rect fill="#FFFFFF" height="621.0164" rx="7.8125" ry="7.8125" style="stroke: #737373; stroke-width: 2.0833333333333335;" width="1372.9167" x="13.5417" y="887.7441"/><rect fill="#FFFFFF" height="315.7166" style="stroke: none; stroke-width: 1.0416666666666667;" width="1372.9167" x="13.5417" y="1104.3274"/><rect fill="#FFFFFF" height="161.8083" rx="7.8125" ry="7.8125" style="stroke: #737373; stroke-width: 2.0833333333333335;" width="1352.0833" x="23.9583" y="1250.944"/><rect fill="#FFFFFF" height="109.1166" rx="7.8125" ry="7.8125" style="stroke: #737373; stroke-width: 2.0833333333333335;" width="1331.25" x="34.375" y="1296.344"/><rect fill="#FFFFFF" height="88.7166" style="stroke: none; stroke-width: 1.0416666666666667;" width="1372.9167" x="13.5417" y="1420.0439"/><line style="stroke: #A8A8A8; stroke-width: 1.0416666666666667;" x1="73.9583" x2="73.9583" y1="205.8777" y2="714.0442"/><line style="stroke: #A8A8A8; stroke-width: 1.0416666666666667; stroke-dasharray: 1.0,4.0;" x1="73.9583" x2="73.9583" y1="714.0442" y2="779.2358"/><line style="stroke: #A8A8A8; stroke-width: 1.0416666666666667;" x1="73.9583" x2="73.9583" y1="779.2358" y2="1613.7105"/><line style="stroke: #A8A8A8; stroke-width: 1.0416666666666667;" x1="267.7083" x2="267.7083" y1="205.8777" y2="714.0442"/><line style="stroke: #A8A8A8; stroke-width: 1.0416666666666667; stroke-dasharray: 1.0,4.0;" x1="267.7083" x2="267.7083" y1="714.0442" y2="779.2358"/><line style="stroke: #A8A8A8; stroke-width: 1.0416666666666667;" x1="267.7083" x2="267.7083" y1="779.2358" y2="1613.7105"/><line style="stroke: #A8A8A8; stroke-width: 1.0416666666666667;" x1="443.75" x2="443.75" y1="205.8777" y2="714.0442"/><line style="stroke: #A8A8A8; stroke-width: 1.0416666666666667; stroke-dasharray: 1.0,4.0;" x1="443.75" x2="443.75" y1="714.0442" y2="779.2358"/><line style="stroke: #A8A8A8; stroke-width: 1.0416666666666667;" x1="443.75" x2="443.75" y1="779.2358" y2="1613.7105"/><line style="stroke: #A8A8A8; stroke-width: 1.0416666666666667;" x1="617.7083" x2="617.7083" y1="205.8777" y2="714.0442"/><line style="stroke: #A8A8A8; stroke-width: 1.0416666666666667; stroke-dasharray: 1.0,4.0;" x1="617.7083" x2="617.7083" y1="714.0442" y2="779.2358"/><line style="stroke: #A8A8A8; stroke-width: 1.0416666666666667;" x1="617.7083" x2="617.7083" y1="779.2358" y2="1613.7105"/><line style="stroke: #A8A8A8; stroke-width: 1.0416666666666667;" x1="811.4583" x2="811.4583" y1="205.8777" y2="714.0442"/><line style="stroke: #A8A8A8; stroke-width: 1.0416666666666667; stroke-dasharray: 1.0,4.0;" x1="811.4583" x2="811.4583" y1="714.0442" y2="779.2358"/><line style="stroke: #A8A8A8; stroke-width: 1.0416666666666667;" x1="811.4583" x2="811.4583" y1="779.2358" y2="1613.7105"/><line style="stroke: #A8A8A8; stroke-width: 1.0416666666666667;" x1="918.75" x2="918.75" y1="205.8777" y2="714.0442"/><line style="stroke: #A8A8A8; stroke-width: 1.0416666666666667; stroke-dasharray: 1.0,4.0;" x1="918.75" x2="918.75" y1="714.0442" y2="779.2358"/><line style="stroke: #A8A8A8; stroke-width: 1.0416666666666667;" x1="918.75" x2="918.75" y1="779.2358" y2="1613.7105"/><line style="stroke: #A8A8A8; stroke-width: 1.0416666666666667;" x1="1089.5833" x2="1089.5833" y1="205.8777" y2="714.0442"/><line style="stroke: #A8A8A8; stroke-width: 1.0416666666666667; stroke-dasharray: 1.0,4.0;" x1="1089.5833" x2="1089.5833" y1="714.0442" y2="779.2358"/><line style="stroke: #A8A8A8; stroke-width: 1.0416666666666667;" x1="1089.5833" x2="1089.5833" y1="779.2358" y2="1613.7105"/><line style="stroke: #A8A8A8; stroke-width: 1.0416666666666667;" x1="1258.3333" x2="1258.3333" y1="205.8777" y2="714.0442"/><line style="stroke: #A8A8A8; stroke-width: 1.0416666666666667; stroke-dasharray: 1.0,4.0;" x1="1258.3333" x2="1258.3333" y1="714.0442" y2="779.2358"/><line style="stroke: #A8A8A8; stroke-width: 1.0416666666666667;" x1="1258.3333" x2="1258.3333" y1="779.2358" y2="1613.7105"/><text fill="#336699" font-family="Verdana" font-size="12.5" lengthAdjust="spacingAndGlyphs" textLength="32.2917" x="55.2083" y="192.8365">Foo1</text><ellipse cx="74.4792" cy="114.6444" fill="url(#gdi8mp9zotsxu1)" rx="8.3333" ry="8.3333" style="stroke: #F3F3F3; stroke-width: 2.0833333333333335;"/><path d="M74.4792,122.9777 L74.4792,151.1027 M60.9375,131.311 L88.0208,131.311 M74.4792,151.1027 L60.9375,166.7277 M74.4792,151.1027 L88.0208,166.7277 " fill="none" style="stroke: #F3F3F3; stroke-width: 2.0833333333333335;"/><text fill="#336699" font-family="Verdana" font-size="12.5" lengthAdjust="spacingAndGlyphs" textLength="32.2917" x="55.2083" y="1635.6527">Foo1</text><ellipse cx="74.4792" cy="1659.1105" fill="url(#gdi8mp9zotsxu1)" rx="8.3333" ry="8.3333" style="stroke: #F3F3F3; stroke-width: 2.0833333333333335;"/><path d="M74.4792,1667.4438 L74.4792,1695.5688 M60.9375,1675.7772 L88.0208,1675.7772 M74.4792,1695.5688 L60.9375,1711.1938 M74.4792,1695.5688 L88.0208,1711.1938 " fill="none" style="stroke: #F3F3F3; stroke-width: 2.0833333333333335;"/><text fill="#336699" font-family="Verdana" font-size="12.5" lengthAdjust="spacingAndGlyphs" textLength="32.2917" x="248.9583" y="192.8365">Foo2</text><path d="M246.875,140.686 L246.875,165.686 M246.875,153.186 L264.5833,153.186 " fill="none" style="stroke: #F3F3F3; stroke-width: 2.0833333333333335;"/><ellipse cx="277.0833" cy="153.186" fill="url(#gdi8mp9zotsxu1)" rx="12.5" ry="12.5" style="stroke: #F3F3F3; stroke-width: 2.0833333333333335;"/><text fill="#336699" font-family="Verdana" font-size="12.5" lengthAdjust="spacingAndGlyphs" textLength="32.2917" x="248.9583" y="1635.6527">Foo2</text><path d="M246.875,1652.8605 L246.875,1677.8605 M246.875,1665.3605 L264.5833,1665.3605 " fill="none" style="stroke: #F3F3F3; stroke-width: 2.0833333333333335;"/><ellipse cx="277.0833" cy="1665.3605" fill="url(#gdi8mp9zotsxu1)" rx="12.5" ry="12.5" style="stroke: #F3F3F3; stroke-width: 2.0833333333333335;"/><text fill="#336699" font-family="Verdana" font-size="12.5" lengthAdjust="spacingAndGlyphs" textLength="32.2917" x="425" y="192.8365">Foo3</text><ellipse cx="444.2708" cy="153.186" fill="url(#gdi8mp9zotsxu1)" rx="12.5" ry="12.5" style="stroke: #F3F3F3; stroke-width: 2.0833333333333335;"/><polygon fill="#F3F3F3" points="440.1042,140.686,446.3542,135.4777,444.2708,140.686,446.3542,145.8944,440.1042,140.686" style="stroke: #F3F3F3; stroke-width: 1.0416666666666667;"/><text fill="#336699" font-family="Verdana" font-size="12.5" lengthAdjust="spacingAndGlyphs" textLength="32.2917" x="425" y="1635.6527">Foo3</text><ellipse cx="444.2708" cy="1665.3605" fill="url(#gdi8mp9zotsxu1)" rx="12.5" ry="12.5" style="stroke: #F3F3F3; stroke-width: 2.0833333333333335;"/><polygon fill="#F3F3F3" points="440.1042,1652.8605,446.3542,1647.6522,444.2708,1652.8605,446.3542,1658.0688,440.1042,1652.8605" style="stroke: #F3F3F3; stroke-width: 1.0416666666666667;"/><text fill="#336699" font-family="Verdana" font-size="12.5" lengthAdjust="spacingAndGlyphs" textLength="32.2917" x="598.9583" y="192.8365">Foo4</text><ellipse cx="618.2292" cy="153.186" fill="url(#gdi8mp9zotsxu1)" rx="12.5" ry="12.5" style="stroke: #F3F3F3; stroke-width: 2.0833333333333335;"/><line style="stroke: #F3F3F3; stroke-width: 2.0833333333333335;" x1="605.7292" x2="630.7292" y1="167.7694" y2="167.7694"/><text fill="#336699" font-family="Verdana" font-size="12.5" lengthAdjust="spacingAndGlyphs" textLength="32.2917" x="598.9583" y="1635.6527">Foo4</text><ellipse cx="618.2292" cy="1665.3605" fill="url(#gdi8mp9zotsxu1)" rx="12.5" ry="12.5" style="stroke: #F3F3F3; stroke-width: 2.0833333333333335;"/><line style="stroke: #F3F3F3; stroke-width: 2.0833333333333335;" x1="605.7292" x2="630.7292" y1="1679.9438" y2="1679.9438"/><text fill="#336699" font-family="Verdana" font-size="12.5" lengthAdjust="spacingAndGlyphs" textLength="32.2917" x="792.7083" y="192.8365">Foo5</text><path d="M793.2292,132.3527 C793.2292,121.936 811.9792,121.936 811.9792,121.936 C811.9792,121.936 830.7292,121.936 830.7292,132.3527 L830.7292,159.436 C830.7292,169.8527 811.9792,169.8527 811.9792,169.8527 C811.9792,169.8527 793.2292,169.8527 793.2292,159.436 L793.2292,132.3527 " fill="#00000000" style="stroke: #F3F3F3; stroke-width: 1.5625;"/><path d="M793.2292,132.3527 C793.2292,142.7694 811.9792,142.7694 811.9792,142.7694 C811.9792,142.7694 830.7292,142.7694 830.7292,132.3527 " fill="none" style="stroke: #F3F3F3; stroke-width: 1.5625;"/><text fill="#336699" font-family="Verdana" font-size="12.5" lengthAdjust="spacingAndGlyphs" textLength="32.2917" x="792.7083" y="1635.6527">Foo5</text><path d="M793.2292,1659.1105 C793.2292,1648.6938 811.9792,1648.6938 811.9792,1648.6938 C811.9792,1648.6938 830.7292,1648.6938 830.7292,1659.1105 L830.7292,1686.1938 C830.7292,1696.6105 811.9792,1696.6105 811.9792,1696.6105 C811.9792,1696.6105 793.2292,1696.6105 793.2292,1686.1938 L793.2292,1659.1105 " fill="#00000000" style="stroke: #F3F3F3; stroke-width: 1.5625;"/><path d="M793.2292,1659.1105 C793.2292,1669.5272 811.9792,1669.5272 811.9792,1669.5272 C811.9792,1669.5272 830.7292,1669.5272 830.7292,1659.1105 " fill="none" style="stroke: #F3F3F3; stroke-width: 1.5625;"/><rect fill="url(#gdi8mp9zotsxu1)" height="50.6083" rx="7.8125" ry="7.8125" style="stroke: #F3F3F3; stroke-width: 1.5625;" width="67.7083" x="887.5" y="150.061"/><rect fill="url(#gdi8mp9zotsxu1)" height="50.6083" rx="7.8125" ry="7.8125" style="stroke: #F3F3F3; stroke-width: 1.5625;" width="67.7083" x="883.3333" y="154.2277"/><text fill="#336699" font-family="Verdana" font-size="12.5" lengthAdjust="spacingAndGlyphs" textLength="32.2917" x="901.0417" y="184.5032">Foo6</text><rect fill="url(#gdi8mp9zotsxu1)" height="50.6083" rx="7.8125" ry="7.8125" style="stroke: #F3F3F3; stroke-width: 1.5625;" width="67.7083" x="887.5" y="1612.6689"/><rect fill="url(#gdi8mp9zotsxu1)" height="50.6083" rx="7.8125" ry="7.8125" style="stroke: #F3F3F3; stroke-width: 1.5625;" width="67.7083" x="883.3333" y="1616.8355"/><text fill="#336699" font-family="Verdana" font-size="12.5" lengthAdjust="spacingAndGlyphs" textLength="32.2917" x="901.0417" y="1647.111">Foo6</text><rect fill="url(#gdi8mp9zotsxu1)" height="50.6083" rx="7.8125" ry="7.8125" style="stroke: #F3F3F3; stroke-width: 1.5625;" width="60.4167" x="1059.375" y="154.2277"/><text fill="#336699" font-family="Verdana" font-size="12.5" lengthAdjust="spacingAndGlyphs" textLength="25" x="1077.0833" y="184.5032">Bob</text><rect fill="url(#gdi8mp9zotsxu1)" height="50.6083" rx="7.8125" ry="7.8125" style="stroke: #F3F3F3; stroke-width: 1.5625;" width="60.4167" x="1059.375" y="1612.6689"/><text fill="#336699" font-family="Verdana" font-size="12.5" lengthAdjust="spacingAndGlyphs" textLength="25" x="1077.0833" y="1642.9443">Bob</text><rect fill="url(#gdi8mp9zotsxu1)" height="65.8" rx="7.8125" ry="7.8125" style="stroke: #F3F3F3; stroke-width: 1.5625;" width="131.25" x="1192.7083" y="139.0361"/><ellipse cx="1210.4167" cy="156.7444" fill="#ADD1B2" rx="10.4167" ry="10.4167" style="stroke: #F3F3F3; stroke-width: 1.0416666666666667;"/><path d="M1212.321,161.1715 Q1211.8978,161.3831 1211.4258,161.497 Q1210.9538,161.6109 1210.4492,161.6109 Q1208.5938,161.6109 1207.6172,160.4065 Q1206.6569,159.1858 1206.6569,156.8909 Q1206.6569,154.5797 1207.6172,153.3752 Q1208.5938,152.1545 1210.4492,152.1545 Q1210.9538,152.1545 1211.4258,152.2685 Q1211.9141,152.3661 1212.321,152.594 L1212.321,154.5959 Q1211.8652,154.1728 1211.4258,153.9775 Q1210.9863,153.7659 1210.5306,153.7659 Q1209.5378,153.7659 1209.0332,154.5634 Q1208.5286,155.3446 1208.5286,156.8909 Q1208.5286,158.4208 1209.0332,159.2021 Q1209.5378,159.9833 1210.5306,159.9833 Q1210.9863,159.9833 1211.4258,159.788 Q1211.8652,159.5927 1212.321,159.1695 L1212.321,161.1715 Z "/><text fill="#000000" font-family="Verdana" font-size="12.5" font-style="italic" lengthAdjust="spacingAndGlyphs" textLength="68.75" x="1237.5" y="169.3115">«Testable»</text><text fill="#336699" font-family="Verdana" font-size="12.5" lengthAdjust="spacingAndGlyphs" textLength="29.1667" x="1257.2917" y="184.5032">Alice</text><rect fill="url(#gdi8mp9zotsxu1)" height="65.8" rx="7.8125" ry="7.8125" style="stroke: #F3F3F3; stroke-width: 1.5625;" width="131.25" x="1192.7083" y="1612.6689"/><ellipse cx="1210.4167" cy="1630.3772" fill="#ADD1B2" rx="10.4167" ry="10.4167" style="stroke: #F3F3F3; stroke-width: 1.0416666666666667;"/><path d="M1212.321,1634.8043 Q1211.8978,1635.0159 1211.4258,1635.1298 Q1210.9538,1635.2437 1210.4492,1635.2437 Q1208.5938,1635.2437 1207.6172,1634.0393 Q1206.6569,1632.8186 1206.6569,1630.5237 Q1206.6569,1628.2125 1207.6172,1627.0081 Q1208.5938,1625.7874 1210.4492,1625.7874 Q1210.9538,1625.7874 1211.4258,1625.9013 Q1211.9141,1625.9989 1212.321,1626.2268 L1212.321,1628.2288 Q1211.8652,1627.8056 1211.4258,1627.6103 Q1210.9863,1627.3987 1210.5306,1627.3987 Q1209.5378,1627.3987 1209.0332,1628.1962 Q1208.5286,1628.9775 1208.5286,1630.5237 Q1208.5286,1632.0536 1209.0332,1632.8349 Q1209.5378,1633.6161 1210.5306,1633.6161 Q1210.9863,1633.6161 1211.4258,1633.4208 Q1211.8652,1633.2255 1212.321,1632.8023 L1212.321,1634.8043 Z "/><text fill="#000000" font-family="Verdana" font-size="12.5" font-style="italic" lengthAdjust="spacingAndGlyphs" textLength="68.75" x="1237.5" y="1642.9443">«Testable»</text><text fill="#336699" font-family="Verdana" font-size="12.5" lengthAdjust="spacingAndGlyphs" textLength="29.1667" x="1257.2917" y="1658.136">Alice</text><rect fill="#DBDBDB" height="305.2999" style="stroke: #A8A8A8; stroke-width: 1.0416666666666667;" width="10.4167" x="439.0625" y="400.411"/><rect fill="url(#gdi8mp9zotsxu2)" height="3.125" style="stroke: url(#gdi8mp9zotsxu2); stroke-width: 1.0416666666666667;" width="1393.75" x="3.125" y="247.8485"/><line style="stroke: #737373; stroke-width: 1.0416666666666667;" x1="3.125" x2="1396.875" y1="247.8485" y2="247.8485"/><line style="stroke: #737373; stroke-width: 1.0416666666666667;" x1="3.125" x2="1396.875" y1="250.9735" y2="250.9735"/><rect fill="url(#gdi8mp9zotsxu2)" height="44.3583" style="stroke: #737373; stroke-width: 2.0833333333333335;" width="126.0417" x="636.9792" y="226.711"/><text fill="#303030" font-family="Verdana" font-size="12.5" font-weight="bold" lengthAdjust="spacingAndGlyphs" textLength="86.4583" x="653.6458" y="253.8615">Initialization</text><polygon fill="#E2E2E2" points="255.7292,319.5943,266.1458,323.761,255.7292,327.9277,259.8958,323.761" style="stroke: #E2E2E2; stroke-width: 1.0416666666666667;"/><line style="stroke: #E2E2E2; stroke-width: 3.125;" x1="74.4792" x2="261.9792" y1="323.761" y2="323.761"/><text fill="#303030" font-family="Verdana" font-size="12.5" font-weight="bold" lengthAdjust="spacingAndGlyphs" textLength="40.625" x="92.1875" y="308.6365">[001]</text><text fill="#303030" font-family="Verdana" font-size="12.5" lengthAdjust="spacingAndGlyphs" textLength="82.2917" x="157.8125" y="308.6365">To boundary</text><polygon fill="#E2E2E2" points="426.5625,396.2443,436.9792,400.411,426.5625,404.5776,430.7292,400.411" style="stroke: #E2E2E2; stroke-width: 1.0416666666666667;"/><line style="stroke: #E2E2E2; stroke-width: 3.125;" x1="268.2292" x2="432.8125" y1="400.411" y2="400.411"/><text fill="#303030" font-family="Verdana" font-size="12.5" font-weight="bold" lengthAdjust="spacingAndGlyphs" textLength="40.625" x="285.9375" y="385.2865">[002]</text><text fill="#303030" font-family="Verdana" font-size="12.5" lengthAdjust="spacingAndGlyphs" textLength="64.5833" x="351.5625" y="385.2865">To control</text><rect fill="#00000000" height="97.6583" style="stroke: #737373; stroke-width: 2.0833333333333335;" width="259.375" x="585.4167" y="408.7443"/><polygon fill="#EEEEEE" points="585.4167,408.7443,672.9167,408.7443,672.9167,435.8276,662.5,446.2443,585.4167,446.2443,585.4167,408.7443" style="stroke: #737373; stroke-width: 2.0833333333333335;"/><text fill="#336699" font-family="Verdana" font-size="12.5" font-weight="bold" lengthAdjust="spacingAndGlyphs" textLength="19.7917" x="609.375" y="433.8114">ref</text><text fill="#303030" font-family="Verdana" font-size="12.5" lengthAdjust="spacingAndGlyphs" textLength="94.7917" x="667.7083" y="473.3948">This can be on</text><text fill="#303030" font-family="Verdana" font-size="12.5" lengthAdjust="spacingAndGlyphs" textLength="82.2917" x="667.7083" y="488.5864">several lines</text><polygon fill="#E2E2E2" points="605.7292,549.7192,616.1458,553.8859,605.7292,558.0526,609.8958,553.8859" style="stroke: #E2E2E2; stroke-width: 1.0416666666666667;"/><line style="stroke: #E2E2E2; stroke-width: 3.125;" x1="449.4792" x2="611.9792" y1="553.8859" y2="553.8859"/><text fill="#303030" font-family="Verdana" font-size="12.5" font-weight="bold" lengthAdjust="spacingAndGlyphs" textLength="40.625" x="467.1875" y="538.7614">[003]</text><text fill="#303030" font-family="Verdana" font-size="12.5" lengthAdjust="spacingAndGlyphs" textLength="57.2917" x="532.8125" y="538.7614">To entity</text><polygon fill="#E2E2E2" points="799.4792,600.3276,809.8958,604.4942,799.4792,608.6609,803.6458,604.4942" style="stroke: #E2E2E2; stroke-width: 1.0416666666666667;"/><line style="stroke: #E2E2E2; stroke-width: 3.125;" x1="618.2292" x2="805.7292" y1="604.4942" y2="604.4942"/><text fill="#303030" font-family="Verdana" font-size="12.5" font-weight="bold" lengthAdjust="spacingAndGlyphs" textLength="40.625" x="635.9375" y="589.3697">[004]</text><text fill="#303030" font-family="Verdana" font-size="12.5" lengthAdjust="spacingAndGlyphs" textLength="82.2917" x="701.5625" y="589.3697">To database</text><polygon fill="#E2E2E2" points="460.9375,650.9359,450.5208,655.1025,460.9375,659.2692,456.7708,655.1025" style="stroke: #E2E2E2; stroke-width: 1.0416666666666667;"/><line style="stroke: #E2E2E2; stroke-width: 3.125; stroke-dasharray: 2.0,2.0;" x1="454.6875" x2="810.9375" y1="655.1025" y2="655.1025"/><text fill="#303030" font-family="Verdana" font-size="12.5" font-weight="bold" lengthAdjust="spacingAndGlyphs" textLength="40.625" x="477.6042" y="639.978">[005]</text><text fill="#303030" font-family="Verdana" font-size="12.5" lengthAdjust="spacingAndGlyphs" textLength="40.625" x="543.2292" y="639.978">return</text><polygon fill="#E2E2E2" points="279.6875,701.5442,269.2708,705.7109,279.6875,709.8775,275.5208,705.7109" style="stroke: #E2E2E2; stroke-width: 1.0416666666666667;"/><line style="stroke: #E2E2E2; stroke-width: 3.125; stroke-dasharray: 2.0,2.0;" x1="273.4375" x2="443.2292" y1="705.7109" y2="705.7109"/><text fill="#303030" font-family="Verdana" font-size="12.5" font-weight="bold" lengthAdjust="spacingAndGlyphs" textLength="40.625" x="296.3542" y="690.5863">[006]</text><text fill="#303030" font-family="Verdana" font-size="12.5" lengthAdjust="spacingAndGlyphs" textLength="40.625" x="361.9792" y="690.5863">return</text><text fill="#000000" font-family="Verdana" font-size="12.5" lengthAdjust="spacingAndGlyphs" textLength="36.4583" x="612.2396" y="751.6113">Some</text><text fill="#000000" font-family="Verdana" font-size="12.5" lengthAdjust="spacingAndGlyphs" textLength="67.7083" x="652.8646" y="751.6113">long delay</text><text fill="#000000" font-family="Verdana" font-size="12.5" lengthAdjust="spacingAndGlyphs" textLength="0" x="724.7396" y="751.6113"/><polygon fill="#E2E2E2" points="906.7708,817.3442,917.1875,821.5108,906.7708,825.6775,910.9375,821.5108" style="stroke: #E2E2E2; stroke-width: 1.0416666666666667;"/><line style="stroke: #E2E2E2; stroke-width: 3.125;" x1="74.4792" x2="913.0208" y1="821.5108" y2="821.5108"/><text fill="#303030" font-family="Verdana" font-size="12.5" font-weight="bold" lengthAdjust="spacingAndGlyphs" textLength="40.625" x="92.1875" y="806.3863">[007]</text><text fill="#303030" font-family="Verdana" font-size="12.5" lengthAdjust="spacingAndGlyphs" textLength="87.5" x="157.8125" y="806.3863">To collections</text><polygon fill="#E2E2E2" points="629.6875,867.9525,619.2708,872.1191,629.6875,876.2858,625.5208,872.1191" style="stroke: #E2E2E2; stroke-width: 1.0416666666666667;"/><line style="stroke: #E2E2E2; stroke-width: 3.125; stroke-dasharray: 2.0,2.0;" x1="623.4375" x2="918.2292" y1="872.1191" y2="872.1191"/><text fill="#303030" font-family="Verdana" font-size="12.5" font-weight="bold" lengthAdjust="spacingAndGlyphs" textLength="40.625" x="646.3542" y="856.9946">[008]</text><text fill="#339933" font-family="Verdana" font-size="12.5" font-weight="bold" lengthAdjust="spacingAndGlyphs" textLength="53.125" x="711.9792" y="856.9946">success</text><path d="M21.3542,887.7441 L98.9583,887.7441 L98.9583,914.8275 L88.5417,925.2441 L13.5417,925.2441 L13.5417,895.5566 " fill="#EEEEEE" style="stroke: #737373; stroke-width: 1.0416666666666667;"/><rect fill="none" height="621.0164" rx="7.8125" ry="7.8125" style="stroke: #737373; stroke-width: 2.0833333333333335;" width="1372.9167" x="13.5417" y="887.7441"/><text fill="#336699" font-family="Verdana" font-size="12.5" font-weight="bold" lengthAdjust="spacingAndGlyphs" textLength="17.7083" x="39.5833" y="911.7696">alt</text><text fill="#303030" font-family="Verdana" font-size="12.5" font-weight="bold" lengthAdjust="spacingAndGlyphs" textLength="118.75" x="125" y="912.8113">[successful case]</text><polygon fill="#E2E2E2" points="1245.8333,984.3608,1256.25,988.5274,1245.8333,992.6941,1250,988.5274" style="stroke: #E2E2E2; stroke-width: 1.0416666666666667;"/><line style="stroke: #E2E2E2; stroke-width: 3.125;" x1="74.4792" x2="1252.0833" y1="988.5274" y2="988.5274"/><text fill="#303030" font-family="Verdana" font-size="12.5" font-weight="bold" lengthAdjust="spacingAndGlyphs" textLength="40.625" x="92.1875" y="973.4029">[009]</text><text fill="#303030" font-family="Verdana" font-size="12.5" lengthAdjust="spacingAndGlyphs" textLength="158.3333" x="157.8125" y="973.4029">Authentication Accepted</text><polygon fill="#E2E2E2" points="85.9375,1034.9691,75.5208,1039.1357,85.9375,1043.3024,81.7708,1039.1357" style="stroke: #E2E2E2; stroke-width: 1.0416666666666667;"/><line style="stroke: #E2E2E2; stroke-width: 3.125; stroke-dasharray: 2.0,2.0;" x1="79.6875" x2="1257.2917" y1="1039.1357" y2="1039.1357"/><text fill="#303030" font-family="Verdana" font-size="12.5" font-weight="bold" lengthAdjust="spacingAndGlyphs" textLength="40.625" x="102.6042" y="1024.0112">[010]</text><text fill="#303030" font-family="Verdana" font-size="12.5" lengthAdjust="spacingAndGlyphs" textLength="51.0417" x="168.2292" y="1024.0112">success</text><path d="M1095.8333,1060.4899 L1095.8333,1090.6982 A7.8125,7.8125 0 0 0 1103.6458,1098.5107 L1245.3125,1098.5107 A7.8125,7.8125 0 0 0 1253.125,1090.6982 L1253.125,1063.0941 L1242.7083,1052.6774 L1103.6458,1052.6774 A7.8125,7.8125 0 0 0 1095.8333,1060.4899 " fill="url(#gdi8mp9zotsxu3)" style="stroke: #336699; stroke-width: 1.0416666666666667;"/><path d="M1242.7083,1052.6774 L1242.7083,1059.1878 A3.9063,3.9063 0 0 0 1246.6146,1063.0941 L1253.125,1063.0941 L1242.7083,1052.6774 " fill="url(#gdi8mp9zotsxu3)" style="stroke: #336699; stroke-width: 1.0416666666666667;"/><text fill="#FFFFFF" font-family="Verdana" font-size="12.5" lengthAdjust="spacingAndGlyphs" textLength="114.5833" x="1112.5" y="1080.8695">this is a first note</text><line style="stroke: #737373; stroke-width: 1.0416666666666667; stroke-dasharray: 2.0,2.0;" x1="13.5417" x2="1386.4583" y1="1105.3691" y2="1105.3691"/><text fill="#303030" font-family="Verdana" font-size="12.5" font-weight="bold" lengthAdjust="spacingAndGlyphs" textLength="148.9583" x="29.1667" y="1128.3529">[some kind of failure]</text><polygon fill="#E2E2E2" points="1245.8333,1180.544,1256.25,1184.7107,1245.8333,1188.8774,1250,1184.7107" style="stroke: #E2E2E2; stroke-width: 1.0416666666666667;"/><line style="stroke: #E2E2E2; stroke-width: 3.125;" x1="74.4792" x2="1252.0833" y1="1184.7107" y2="1184.7107"/><text fill="#303030" font-family="Verdana" font-size="12.5" font-weight="bold" lengthAdjust="spacingAndGlyphs" textLength="40.625" x="92.1875" y="1169.5862">[011]</text><text fill="#303030" font-family="Verdana" font-size="12.5" lengthAdjust="spacingAndGlyphs" textLength="142.7083" x="157.8125" y="1169.5862">Authentication Failure</text><polygon fill="#E2E2E2" points="85.9375,1231.1523,75.5208,1235.319,85.9375,1239.4857,81.7708,1235.319" style="stroke: #E2E2E2; stroke-width: 1.0416666666666667;"/><line style="stroke: #E2E2E2; stroke-width: 3.125; stroke-dasharray: 2.0,2.0;" x1="79.6875" x2="1257.2917" y1="1235.319" y2="1235.319"/><text fill="#303030" font-family="Verdana" font-size="12.5" font-weight="bold" lengthAdjust="spacingAndGlyphs" textLength="40.625" x="102.6042" y="1220.1945">[012]</text><text fill="#FF3333" font-family="Verdana" font-size="12.5" font-weight="bold" lengthAdjust="spacingAndGlyphs" textLength="82.2917" x="168.2292" y="1220.1945">Bad request</text><path d="M31.7708,1250.944 L182.2917,1250.944 L182.2917,1278.0273 L171.875,1288.444 L23.9583,1288.444 L23.9583,1258.7565 " fill="#EEEEEE" style="stroke: #737373; stroke-width: 1.0416666666666667;"/><rect fill="none" height="161.8083" rx="7.8125" ry="7.8125" style="stroke: #737373; stroke-width: 2.0833333333333335;" width="1352.0833" x="23.9583" y="1250.944"/><text fill="#336699" font-family="Verdana" font-size="12.5" font-weight="bold" lengthAdjust="spacingAndGlyphs" textLength="90.625" x="50" y="1274.9695">My own label</text><path d="M42.1875,1296.344 L131.25,1296.344 L131.25,1323.4273 L120.8333,1333.844 L34.375,1333.844 L34.375,1304.1565 " fill="#EEEEEE" style="stroke: #737373; stroke-width: 1.0416666666666667;"/><rect fill="none" height="109.1166" rx="7.8125" ry="7.8125" style="stroke: #737373; stroke-width: 2.0833333333333335;" width="1331.25" x="34.375" y="1296.344"/><text fill="#336699" font-family="Verdana" font-size="12.5" font-weight="bold" lengthAdjust="spacingAndGlyphs" textLength="29.1667" x="60.4167" y="1320.3695">loop</text><text fill="#303030" font-family="Verdana" font-size="12.5" font-weight="bold" lengthAdjust="spacingAndGlyphs" textLength="91.6667" x="157.2917" y="1321.4111">[1000 times]</text><polygon fill="#E2E2E2" points="85.9375,1392.9606,75.5208,1397.1273,85.9375,1401.2939,81.7708,1397.1273" style="stroke: #E2E2E2; stroke-width: 1.0416666666666667;"/><line style="stroke: #E2E2E2; stroke-width: 3.125;" x1="79.6875" x2="1257.2917" y1="1397.1273" y2="1397.1273"/><text fill="#303030" font-family="Verdana" font-size="12.5" font-weight="bold" lengthAdjust="spacingAndGlyphs" textLength="40.625" x="102.6042" y="1382.0028">[013]</text><text fill="#303030" font-family="Verdana" font-size="12.5" lengthAdjust="spacingAndGlyphs" textLength="71.875" x="168.2292" y="1382.0028">DNS Attack</text><line style="stroke: #737373; stroke-width: 1.0416666666666667; stroke-dasharray: 2.0,2.0;" x1="13.5417" x2="1386.4583" y1="1421.0856" y2="1421.0856"/><text fill="#303030" font-family="Verdana" font-size="12.5" font-weight="bold" lengthAdjust="spacingAndGlyphs" textLength="115.625" x="29.1667" y="1444.0694">[Just a Warning]</text><polygon fill="#E2E2E2" points="1245.8333,1496.2606,1256.25,1500.4272,1245.8333,1504.5939,1250,1500.4272" style="stroke: #E2E2E2; stroke-width: 1.0416666666666667;"/><line style="stroke: #E2E2E2; stroke-width: 3.125;" x1="74.4792" x2="1252.0833" y1="1500.4272" y2="1500.4272"/><text fill="#303030" font-family="Verdana" font-size="12.5" font-weight="bold" lengthAdjust="spacingAndGlyphs" textLength="40.625" x="92.1875" y="1485.3027">[014]</text><text fill="#FFAE42" font-family="Verdana" font-size="12.5" font-weight="bold" lengthAdjust="spacingAndGlyphs" textLength="94.7917" x="157.8125" y="1485.3027">Please repeat</text><path d="M46.875,1529.0731 L46.875,1589.4897 A7.8125,7.8125 0 0 0 54.6875,1597.3022 L286.9792,1597.3022 A7.8125,7.8125 0 0 0 294.7917,1589.4897 L294.7917,1531.6772 L284.375,1521.2606 L54.6875,1521.2606 A7.8125,7.8125 0 0 0 46.875,1529.0731 " fill="url(#gdi8mp9zotsxu3)" style="stroke: #336699; stroke-width: 1.0416666666666667;"/><path d="M284.375,1521.2606 L284.375,1527.771 A3.9063,3.9063 0 0 0 288.2813,1531.6772 L294.7917,1531.6772 L284.375,1521.2606 " fill="url(#gdi8mp9zotsxu3)" style="stroke: #336699; stroke-width: 1.0416666666666667;"/><text fill="#FFFFFF" font-family="Verdana" font-size="12.5" lengthAdjust="spacingAndGlyphs" textLength="136.4583" x="97.9167" y="1549.4527">this is a second note</text><text fill="#FFFFFF" font-family="Verdana" font-size="12.5" lengthAdjust="spacingAndGlyphs" textLength="81.25" x="97.9167" y="1564.6444">that is really</text><text fill="#FFFFFF" font-family="Verdana" font-size="12.5" lengthAdjust="spacingAndGlyphs" textLength="28.125" x="97.9167" y="1579.836">long</text><text fill="#888888" font-family="Verdana" font-size="12.5" lengthAdjust="spacingAndGlyphs" textLength="85.4167" x="1311.4583" y="15.6921">Page Header</text><text fill="#888888" font-family="Verdana" font-size="12.5" lengthAdjust="spacingAndGlyphs" textLength="75" x="662.5" y="1735.2193">Page 1 of 1</text><!--MD5=[02023f500dc9be7be35b52e59828777c]
@startuml



skinparam backgroundColor transparent







skinparam defaultFontName        "Verdana"
skinparam defaultFontSize        12
skinparam dpi                    100
skinparam shadowing              false
skinparam roundcorner            15
skinparam ParticipantPadding     30
skinparam BoxPadding             30
skinparam Padding                10
skinparam ArrowColor             #737373
skinparam stereotype {
    CBackgroundColor #dbdbdb
    CBorderColor #a8a8a8
    ABackgroundColor #5cad5c
    ABorderColor #297a29
    IBackgroundColor #ff5c5c
    IBorderColor #cc2929
    EBackgroundColor #ffbe68
    EBorderColor #cc8b35
    NBackgroundColor #5c85ad
    NBorderColor #29527a
}
skinparam title {
	FontColor	                 white
	BorderColor	                 #d2d2d2
	FontSize	    	         20
	BorderRoundCorner            8
	BorderThickness 	         1
	BackgroundColor              #dbdbdb-#d2d2d2
}


skinparam legend {
	BackgroundColor #e2e2e2
	BorderColor #888888
	FontColor #336699
}


skinparam activity {
		FontColor #336699
	BorderColor #f3f3f3
	BackgroundColor #f3f3f3-#e2e2e2
	BarColor #339933
	StartColor #336699
	EndColor #336699
	DiamondBackgroundColor #d2d2d2-#a8a8a8
  	DiamondBorderColor #a8a8a8
	DiamondFontColor white
}


skinparam participant {
		FontColor #336699
	BorderColor #f3f3f3
	BackgroundColor #f3f3f3-#e2e2e2
	ParticipantBorderThickness 2
}


skinparam actor {
		FontColor #336699
	BorderColor #f3f3f3
	BackgroundColor #f3f3f3-#e2e2e2
}


skinparam arrow {
	Thickness 3
	Color #e2e2e2
	FontColor #303030
}


skinparam sequence {
	BorderColor #e2e2e2
	TitleFontColor white
	BackgroundColor transparent
	StartColor #e2e2e2
	EndColor #e2e2e2
	BoxBackgroundColor #fcfcfc
	BoxBorderColor #737373
	BoxFontColor #303030
	LifeLineBorderColor #a8a8a8
	LifeLineBorderThickness 2
	LifeLineBackgroundColor #dbdbdb
	GroupBorderColor #737373
	GroupFontColor #303030
	GroupHeaderFontColor #336699
	DividerBackgroundColor #FFF-#fcfcfc
    DividerBorderColor #737373
    DividerBorderThickness 2
    DividerFontColor #303030
	ReferenceBackgroundColor transparent
	ReferenceBorderColor #737373
	ReferenceFontColor #303030
	ReferenceHeaderFontColor #336699
}


skinparam partition {
	BorderColor #e2e2e2
	FontColor #888888
	BackgroundColor transparent
}


skinparam collections {
		FontColor #336699
	BorderColor #f3f3f3
	BackgroundColor #f3f3f3-#e2e2e2
}


skinparam control {
		FontColor #336699
	BorderColor #f3f3f3
	BackgroundColor #f3f3f3-#e2e2e2
}


skinparam entity {
		FontColor #336699
	BorderColor #f3f3f3
	BackgroundColor #f3f3f3-#e2e2e2
}


skinparam boundary {
		FontColor #336699
	BorderColor #f3f3f3
	BackgroundColor #f3f3f3-#e2e2e2
}


skinparam agent {
	BackgroundColor #orange
	BorderColor #999999
	FontColor #333333
}


skinparam note {
	BorderThickness 1
	BackgroundColor #5c85ad-#336699
	BorderColor #336699
	FontColor #FFF
}


skinparam artifact {
	BackgroundColor white-#fcfcfc
	BorderColor #a8a8a8
	FontColor #a8a8a8
}


skinparam component {
		FontColor #336699
	BorderColor #f3f3f3
	BackgroundColor #f3f3f3-#e2e2e2
}


skinparam interface {
	BackgroundColor  #ff5c5c
	BorderColor  #ff3333
	FontColor #303030
}


skinparam storage {
	BackgroundColor #ffbe68-#ffae42
  	BorderColor #ffae42
	FontColor #FFF
}


skinparam node {
	BackgroundColor transparent
	BorderColor #f3f3f3
	FontColor #336699
}


skinparam cloud {
	BackgroundColor #F2FCFE-#eeeeee
	BorderColor $F2FCFE
	FontColor #336699
}


skinparam database {
		FontColor #336699
	BorderColor #f3f3f3
	BackgroundColor #f3f3f3-#e2e2e2
	BackgroundColor  transparent
}


skinparam class {
		FontColor #336699
	BorderColor #f3f3f3
	BackgroundColor #f3f3f3-#e2e2e2
	HeaderBackgroundColor #f3f3f3-#888888
	StereotypeFontColor #303030
	StereotypeFontSize 9
	BorderThickness 1
	AttributeFontColor #303030
	AttributeFontSize 11
}


skinparam object {
		FontColor #336699
	BorderColor #f3f3f3
	BackgroundColor #f3f3f3-#e2e2e2
	StereotypeFontColor #fcfcfc
	BorderThickness 1
	AttributeFontColor #303030
	AttributeFontSize 11
}


skinparam usecase {
		FontColor #336699
	BorderColor #f3f3f3
	BackgroundColor #f3f3f3-#e2e2e2
	BorderThickness 2
	StereotypeFontColor #e2e2e2
}


skinparam rectangle {
		FontColor #336699
	BorderColor #f3f3f3
	BackgroundColor #f3f3f3-#e2e2e2
	BackgroundColor transparent
	BorderThickness 2
	StereotypeFontColor #e2e2e2
}


skinparam package {
		FontColor #336699
	BorderColor #f3f3f3
	BackgroundColor #f3f3f3-#e2e2e2
	BackgroundColor transparent
	BorderThickness 2
}


skinparam folder {
	BackgroundColor #f3f3f3
  	BorderColor #ffae42
	FontColor #ffae42
	BorderThickness 2
}


skinparam frame {
	BackgroundColor #f3f3f3
  	BorderColor #336699
	FontColor #336699
	BorderThickness 2
}


skinparam state {
		FontColor #336699
	BorderColor #f3f3f3
	BackgroundColor #f3f3f3-#e2e2e2
	StartColor #336699
	EndColor #336699
	AttributeFontColor white
	AttributeFontSize 11
}


skinparam queue {
		FontColor #336699
	BorderColor #f3f3f3
	BackgroundColor #f3f3f3-#e2e2e2
}


skinparam card {
	BackgroundColor #5c85ad-#336699
	BorderColor #336699
	FontColor #FFF
}


skinparam file {
	BackgroundColor #dbdbdb-#d2d2d2
	BorderColor #a8a8a8
	FontColor white

}


skinparam stack {
		FontColor #336699
	BorderColor #f3f3f3
	BackgroundColor #f3f3f3-#e2e2e2
}

title Sequence Diagram - lightgray theme


autonumber "<b>[000]"

header Page Header
footer Page %page% of %lastpage%

actor Foo1
boundary Foo2
control Foo3
entity Foo4
database Foo5
collections Foo6
participant Bob
participant Alice << (C,#ADD1B2) Testable >>

box "Internal Service"
	participant Bob
	participant Alice
end box

== Initialization ==
Foo1 -> Foo2 : To boundary
|||
Foo2 -> Foo3 ++: To control
ref over Foo4, Foo5
  This can be on
  several lines
end ref
Foo3 -> Foo4 : To entity

Foo4 -> Foo5 : To database
Foo5 - -> Foo3 - - : return
Foo3 - -> Foo2 - -: return
... Some ~~long delay~~ ...
Foo1 -> Foo6 : To collections
Foo6 - -> Foo4:   <font color=#339933><b>success


alt successful case

Foo1 -> Alice: Authentication Accepted
Alice - -> Foo1: success

note left of Alice: this is a first note

else some kind of failure

	Foo1 -> Alice: Authentication Failure
    Alice - -> Foo1:   <font color=#ff3333><b>Bad request
	group My own label
	    loop 1000 times
	        Alice -> Foo1: DNS Attack
	    end
	end
	
else Just a Warning

   Foo1 -> Alice:   <font color=#ffae42><b>Please repeat
   
end

note over Foo1, Foo2
this is a second note
that is really
long
end note

@enduml

PlantUML version 1.2020.08(Sun Apr 26 07:08:22 PDT 2020)
(GPL source distribution)
Java Runtime: OpenJDK Runtime Environment
JVM: OpenJDK 64-Bit Server VM
Java Version: 11.0.8+10-post-Ubuntu-0ubuntu118.04.1
Operating System: Linux
Default Encoding: UTF-8
Language: en
Country: US
--></g></svg>