<?xml version="1.0" encoding="UTF-8" standalone="no"?><svg xmlns="http://www.w3.org/2000/svg" xmlns:xlink="http://www.w3.org/1999/xlink" contentScriptType="application/ecmascript" contentStyleType="text/css" height="532.2917px" preserveAspectRatio="none" style="width:646px;height:532px;" version="1.1" viewBox="0 0 646 532" width="646.875px" zoomAndPan="magnify"><defs><linearGradient id="g1t5mmn2sewnk0" x1="50%" x2="50%" y1="0%" y2="100%"><stop offset="0%" stop-color="#CDCDCD"/><stop offset="100%" stop-color="#9A9A9A"/></linearGradient><linearGradient id="g1t5mmn2sewnk1" x1="50%" x2="50%" y1="0%" y2="100%"><stop offset="0%" stop-color="#E5E4E2"/><stop offset="100%" stop-color="#B7B6B5"/></linearGradient></defs><g><rect fill="url(#g1t5mmn2sewnk0)" height="52.4028" rx="4.1667" ry="4.1667" style="stroke: #9A9A9A; stroke-width: 1.0416666666666667;" width="340.625" x="156.25" y="2.0833"/><text fill="#FDFDFD" font-family="Verdana" font-size="20.8333" lengthAdjust="spacingAndGlyphs" textLength="307.2917" x="172.9167" y="36.5702">Class Diagram - metal theme</text><!--MD5=[b4fa10df80476353258f72a232547d63]
class AbstractList--><rect fill="url(#g1t5mmn2sewnk1)" height="58.9417" id="AbstractList" rx="7.8125" ry="7.8125" style="stroke: #B7B6B5; stroke-width: 1.0416666666666667;" width="122.9167" x="202.6042" y="279.4861"/><ellipse cx="217.1875" cy="300.6236" fill="#5CAD5C" rx="10.4167" ry="10.4167" style="stroke: #297A29; stroke-width: 1.0416666666666667;"/><path d="M216.7806,297.58 L215.9342,301.3072 L217.6432,301.3072 L216.7806,297.58 Z M215.6901,295.9361 L217.8874,295.9361 L220.3451,305.0507 L218.5384,305.0507 L217.985,302.8046 L215.5762,302.8046 L215.0228,305.0507 L213.2161,305.0507 L215.6901,295.9361 Z "/><text fill="#4682B4" font-family="Verdana" font-size="12.5" font-style="italic" lengthAdjust="spacingAndGlyphs" textLength="75" x="239.0625" y="305.5949">AbstractList</text><line style="stroke: #B7B6B5; stroke-width: 1.0416666666666667;" x1="203.6458" x2="324.4792" y1="321.7611" y2="321.7611"/><line style="stroke: #B7B6B5; stroke-width: 1.0416666666666667;" x1="203.6458" x2="324.4792" y1="330.0944" y2="330.0944"/><!--MD5=[8e34b16d8d8f96f4a11290cd523ed859]
class AbstractCollection--><rect fill="url(#g1t5mmn2sewnk1)" height="58.9417" id="AbstractCollection" rx="7.8125" ry="7.8125" style="stroke: #B7B6B5; stroke-width: 1.0416666666666667;" width="159.375" x="6.25" y="279.4861"/><ellipse cx="20.8333" cy="300.6236" fill="#5CAD5C" rx="10.4167" ry="10.4167" style="stroke: #297A29; stroke-width: 1.0416666666666667;"/><path d="M20.4264,297.58 L19.5801,301.3072 L21.2891,301.3072 L20.4264,297.58 Z M19.3359,295.9361 L21.5332,295.9361 L23.9909,305.0507 L22.1842,305.0507 L21.6309,302.8046 L19.222,302.8046 L18.6686,305.0507 L16.862,305.0507 L19.3359,295.9361 Z "/><text fill="#4682B4" font-family="Verdana" font-size="12.5" font-style="italic" lengthAdjust="spacingAndGlyphs" textLength="111.4583" x="42.7083" y="305.5949">AbstractCollection</text><line style="stroke: #B7B6B5; stroke-width: 1.0416666666666667;" x1="7.2917" x2="164.5833" y1="321.7611" y2="321.7611"/><line style="stroke: #B7B6B5; stroke-width: 1.0416666666666667;" x1="7.2917" x2="164.5833" y1="330.0944" y2="330.0944"/><!--MD5=[3d4177ac58b4411586d067f34e84928f]
class List--><rect fill="url(#g1t5mmn2sewnk1)" height="58.9417" id="List" rx="7.8125" ry="7.8125" style="stroke: #B7B6B5; stroke-width: 1.0416666666666667;" width="70.8333" x="215.1042" y="111.7778"/><ellipse cx="229.6875" cy="132.9152" fill="#C5673E" rx="10.4167" ry="10.4167" style="stroke: #92340B; stroke-width: 1.0416666666666667;"/><path d="M226.5788,130.0832 L226.5788,128.4882 L231.9987,128.4882 L231.9987,130.0832 L230.1921,130.0832 L230.1921,136.0077 L231.9987,136.0077 L231.9987,137.6027 L226.5788,137.6027 L226.5788,136.0077 L228.3854,136.0077 L228.3854,130.0832 L226.5788,130.0832 Z "/><text fill="#4682B4" font-family="Verdana" font-size="12.5" font-style="italic" lengthAdjust="spacingAndGlyphs" textLength="22.9167" x="251.5625" y="137.8866">List</text><line style="stroke: #B7B6B5; stroke-width: 1.0416666666666667;" x1="216.1458" x2="284.8958" y1="154.0527" y2="154.0527"/><line style="stroke: #B7B6B5; stroke-width: 1.0416666666666667;" x1="216.1458" x2="284.8958" y1="162.3861" y2="162.3861"/><!--MD5=[c160724f8e3bb89ca8141a12554ac2e3]
class Collection--><rect fill="url(#g1t5mmn2sewnk1)" height="58.9417" id="Collection" rx="7.8125" ry="7.8125" style="stroke: #B7B6B5; stroke-width: 1.0416666666666667;" width="107.2917" x="58.3333" y="111.7778"/><ellipse cx="72.9167" cy="132.9152" fill="#C5673E" rx="10.4167" ry="10.4167" style="stroke: #92340B; stroke-width: 1.0416666666666667;"/><path d="M69.8079,130.0832 L69.8079,128.4882 L75.2279,128.4882 L75.2279,130.0832 L73.4212,130.0832 L73.4212,136.0077 L75.2279,136.0077 L75.2279,137.6027 L69.8079,137.6027 L69.8079,136.0077 L71.6146,136.0077 L71.6146,130.0832 L69.8079,130.0832 Z "/><text fill="#4682B4" font-family="Verdana" font-size="12.5" font-style="italic" lengthAdjust="spacingAndGlyphs" textLength="59.375" x="94.7917" y="137.8866">Collection</text><line style="stroke: #B7B6B5; stroke-width: 1.0416666666666667;" x1="59.375" x2="164.5833" y1="154.0527" y2="154.0527"/><line style="stroke: #B7B6B5; stroke-width: 1.0416666666666667;" x1="59.375" x2="164.5833" y1="162.3861" y2="162.3861"/><!--MD5=[ab8871ed637f40707b866ba6597734bc]
class ArrayList--><rect fill="url(#g1t5mmn2sewnk1)" height="120.1263" id="ArrayList" rx="7.8125" ry="7.8125" style="stroke: #B7B6B5; stroke-width: 1.0416666666666667;" width="158.3333" x="184.8958" y="401.3611"/><ellipse cx="223.3854" cy="422.4986" fill="#CDCDCD" rx="10.4167" ry="10.4167" style="stroke: #9A9A9A; stroke-width: 1.0416666666666667;"/><path d="M225.2897,426.9257 Q224.8665,427.1372 224.3945,427.2512 Q223.9225,427.3651 223.418,427.3651 Q221.5625,427.3651 220.5859,426.1607 Q219.6257,424.94 219.6257,422.6451 Q219.6257,420.3339 220.5859,419.1294 Q221.5625,417.9087 223.418,417.9087 Q223.9225,417.9087 224.3945,418.0227 Q224.8828,418.1203 225.2897,418.3482 L225.2897,420.3501 Q224.834,419.927 224.3945,419.7316 Q223.9551,419.5201 223.4993,419.5201 Q222.5065,419.5201 222.002,420.3176 Q221.4974,421.0988 221.4974,422.6451 Q221.4974,424.175 222.002,424.9563 Q222.5065,425.7375 223.4993,425.7375 Q223.9551,425.7375 224.3945,425.5422 Q224.834,425.3469 225.2897,424.9237 L225.2897,426.9257 Z "/><text fill="#4682B4" font-family="Verdana" font-size="12.5" lengthAdjust="spacingAndGlyphs" textLength="57.2917" x="250.5729" y="427.4699">ArrayList</text><line style="stroke: #B7B6B5; stroke-width: 1.0416666666666667;" x1="185.9375" x2="342.1875" y1="443.6361" y2="443.6361"/><text fill="#4D4D4D" font-family="Verdana" font-size="11.4583" lengthAdjust="spacingAndGlyphs" textLength="129.1667" x="199.4792" y="467.6559">Object[] elementData</text><line style="stroke: #B7B6B5; stroke-width: 1.0416666666666667;" x1="185.9375" x2="342.1875" y1="482.5617" y2="482.5617"/><text fill="#4D4D4D" font-family="Verdana" font-size="11.4583" lengthAdjust="spacingAndGlyphs" textLength="33.3333" x="199.4792" y="506.5816">size()</text><!--MD5=[15b68e006199004da79ea2a4d117d8e9]
class TimeUnit--><rect fill="url(#g1t5mmn2sewnk1)" height="150.7187" id="TimeUnit" rx="7.8125" ry="7.8125" style="stroke: #B7B6B5; stroke-width: 1.0416666666666667;" width="104.1667" x="322.3958" y="65.9444"/><ellipse cx="336.9792" cy="87.0819" fill="#FFDF33" rx="10.4167" ry="10.4167" style="stroke: #CCAC00; stroke-width: 1.0416666666666667;"/><path d="M339.5182,91.7694 L333.8379,91.7694 L333.8379,82.6548 L339.5182,82.6548 L339.5182,84.2499 L335.6445,84.2499 L335.6445,86.203 L339.1439,86.203 L339.1439,87.7981 L335.6445,87.7981 L335.6445,90.1744 L339.5182,90.1744 L339.5182,91.7694 Z "/><text fill="#4682B4" font-family="Verdana" font-size="12.5" lengthAdjust="spacingAndGlyphs" textLength="56.25" x="358.8542" y="92.0532">TimeUnit</text><line style="stroke: #B7B6B5; stroke-width: 1.0416666666666667;" x1="323.4375" x2="425.5208" y1="108.2194" y2="108.2194"/><text fill="#4D4D4D" font-family="Verdana" font-size="11.4583" lengthAdjust="spacingAndGlyphs" textLength="33.3333" x="336.9792" y="132.2393">DAYS</text><text fill="#4D4D4D" font-family="Verdana" font-size="11.4583" lengthAdjust="spacingAndGlyphs" textLength="42.7083" x="336.9792" y="162.8316">HOURS</text><text fill="#4D4D4D" font-family="Verdana" font-size="11.4583" lengthAdjust="spacingAndGlyphs" textLength="54.1667" x="336.9792" y="193.424">MINUTES</text><line style="stroke: #B7B6B5; stroke-width: 1.0416666666666667;" x1="323.4375" x2="425.5208" y1="208.3298" y2="208.3298"/><!--MD5=[0c8287f799745f7b534bf75518604c1e]
class SuppressWarnings--><rect fill="url(#g1t5mmn2sewnk1)" height="58.9417" id="SuppressWarnings" rx="7.8125" ry="7.8125" style="stroke: #B7B6B5; stroke-width: 1.0416666666666667;" width="171.875" x="463.5417" y="111.7778"/><ellipse cx="478.125" cy="132.9152" fill="#5C85AD" rx="10.4167" ry="10.4167" style="stroke: #29527A; stroke-width: 1.0416666666666667;"/><path d="M479.3783,132.7199 Q479.3783,132.0201 479.069,131.6294 Q478.7598,131.2388 478.2064,131.2388 Q477.6693,131.2388 477.36,131.6294 Q477.0508,132.0201 477.0508,132.7199 Q477.0508,133.4035 477.36,133.7941 Q477.6693,134.1848 478.2064,134.1848 Q478.7598,134.1848 479.069,133.7941 Q479.3783,133.4035 479.3783,132.7199 Z M480.5176,135.2102 L479.3132,135.2102 L479.3132,134.7219 Q479.0853,135.0311 478.7598,135.1939 Q478.4505,135.3404 478.0111,135.3404 Q477.0182,135.3404 476.3997,134.6242 Q475.7813,133.8918 475.7813,132.7199 Q475.7813,131.5318 476.3835,130.8156 Q477.002,130.0995 478.0111,130.0995 Q478.4505,130.0995 478.776,130.246 Q479.1016,130.3925 479.3132,130.6854 L479.3132,130.4413 Q479.3132,129.6112 478.8574,129.1555 Q478.4017,128.6997 477.5716,128.6997 Q476.3021,128.6997 475.4883,129.8228 Q474.6908,130.9296 474.6908,132.7199 Q474.6908,134.5917 475.6185,135.7147 Q476.5462,136.8215 478.0924,136.8215 Q478.5807,136.8215 479.0365,136.675 Q479.4922,136.5285 479.9154,136.2356 L480.4688,137.3098 Q479.9805,137.6516 479.3945,137.8143 Q478.8086,137.9934 478.1576,137.9934 Q476.0091,137.9934 474.7396,136.5611 Q473.4701,135.1451 473.4701,132.7199 Q473.4701,130.3599 474.6094,128.9439 Q475.765,127.5279 477.6367,127.5279 Q478.9714,127.5279 479.7363,128.3254 Q480.5176,129.1229 480.5176,130.5227 L480.5176,135.2102 Z "/><text fill="#4682B4" font-family="Verdana" font-size="12.5" lengthAdjust="spacingAndGlyphs" textLength="123.9583" x="500" y="137.8866">SuppressWarnings</text><line style="stroke: #B7B6B5; stroke-width: 1.0416666666666667;" x1="464.5833" x2="634.375" y1="154.0527" y2="154.0527"/><line style="stroke: #B7B6B5; stroke-width: 1.0416666666666667;" x1="464.5833" x2="634.375" y1="162.3861" y2="162.3861"/><!--MD5=[00308d07b6a5721fb0cf5861877e6652]
reverse link List to AbstractList--><path d="M254.6205,192.2378 C256.922,220.7414 259.714,255.3186 261.6625,279.4503 " fill="none" id="List&lt;-AbstractList" style="stroke: #E5E4E2; stroke-width: 3.125;"/><polygon fill="none" points="247.3506,192.8008,252.9418,171.4482,261.8867,191.627,247.3506,192.8008" style="stroke: #E5E4E2; stroke-width: 3.125;"/><!--MD5=[1822909749df1453bdd84de7a60a3406]
reverse link Collection to AbstractCollection--><path d="M104.0952,192.2378 C99.6692,220.7414 94.3001,255.3186 90.5529,279.4503 " fill="none" id="Collection&lt;-AbstractCollection" style="stroke: #E5E4E2; stroke-width: 3.125;"/><polygon fill="none" points="96.9214,190.9159,107.3234,171.4482,111.332,193.1536,96.9214,190.9159" style="stroke: #E5E4E2; stroke-width: 3.125;"/><!--MD5=[0159284274f96a472eb2618ad803aaca]
reverse link Collection to List--><path d="M186.8656,141.4653 C196.1739,141.4653 205.4821,141.4653 214.7904,141.4653 " fill="none" id="Collection&lt;-List" style="stroke: #E5E4E2; stroke-width: 3.125;"/><polygon fill="none" points="186.6598,148.7568,165.8265,141.4653,186.6597,134.1735,186.6598,148.7568" style="stroke: #E5E4E2; stroke-width: 3.125;"/><!--MD5=[7a3a52e8f65ef1a8d8d29530ea5cd870]
reverse link AbstractCollection to AbstractList--><path d="M187.0025,309.1736 C192.1223,309.1736 197.2421,309.1736 202.3618,309.1736 " fill="none" id="AbstractCollection&lt;-AbstractList" style="stroke: #E5E4E2; stroke-width: 3.125;"/><polygon fill="none" points="186.7879,316.4651,165.9546,309.1736,186.7879,301.8818,186.7879,316.4651" style="stroke: #E5E4E2; stroke-width: 3.125;"/><!--MD5=[40e4bb1af59cca28d4643aaff05088cc]
reverse link AbstractList to ArrayList--><path d="M264.0625,360.4696 C264.0625,373.5088 264.0625,387.6373 264.0625,401.0745 " fill="none" id="AbstractList&lt;-ArrayList" style="stroke: #E5E4E2; stroke-width: 3.125;"/><polygon fill="none" points="256.7709,360.0537,264.0625,339.2204,271.3543,360.0537,256.7709,360.0537" style="stroke: #E5E4E2; stroke-width: 3.125;"/><!--MD5=[e408f484fd68dde5960576474d080851]
@startuml



skinparam backgroundColor transparent










skinparam defaultFontName        "Verdana"
skinparam defaultFontSize        12
skinparam dpi                    100
skinparam shadowing              false
skinparam roundcorner            15
skinparam ParticipantPadding     30
skinparam BoxPadding             30
skinparam Padding                8
skinparam ArrowColor             #737373
skinparam stereotype {
    CBackgroundColor #cdcdcd
    CBorderColor #9a9a9a
    ABackgroundColor #5cad5c
    ABorderColor #297a29
    IBackgroundColor #c5673e
    IBorderColor #92340b
    EBackgroundColor #ffdf33
    EBorderColor #ccac00
    NBackgroundColor #5c85ad
    NBorderColor #29527a
}
skinparam title {
	FontColor	                 #fdfdfd
	BorderColor	                 #9a9a9a
	FontSize	    	         20
	BorderRoundCorner            8
	BorderThickness 	         1
	BackgroundColor              #cdcdcd-#9a9a9a
}


skinparam legend {
	BackgroundColor #eae9e8-#E5E4E2
	BorderColor #9a9a9a
	FontColor #4682b4
}

skinparam activity {
		FontColor #4682b4
	BorderColor #b7b6b5
	BackgroundColor #E5E4E2-#b7b6b5
	BarColor #CD7F32
	StartColor #4682b4
	EndColor #4682b4
	DiamondBackgroundColor #c0c0c0-#9a9a9a
  	DiamondBorderColor #9a9a9a
	DiamondFontColor #fdfdfd
}

skinparam participant {
		FontColor #4682b4
	BorderColor #b7b6b5
	BackgroundColor #E5E4E2-#b7b6b5
	ParticipantBorderThickness 2
}

skinparam actor {
		FontColor #4682b4
	BorderColor #b7b6b5
	BackgroundColor #E5E4E2-#b7b6b5
	FontColor #4d4d4d
}

skinparam arrow {
	Thickness 3
	Color #E5E4E2
	FontColor #4d4d4d
}

skinparam sequence {
	BorderColor #E5E4E2
	TitleFontColor #fdfdfd
	BackgroundColor transparent
	StartColor #E5E4E2
	EndColor #E5E4E2
	BoxBackgroundColor #f2f2f2
	BoxBorderColor #737373
	BoxFontColor #4d4d4d
	LifeLineBorderColor #9a9a9a
	LifeLineBorderThickness 3
	LifeLineBackgroundColor #cdcdcd-#9a9a9a
	GroupBorderColor #737373
	GroupFontColor #4d4d4d
	GroupHeaderFontColor #4682b4
	DividerBackgroundColor #fdfdfd-#f2f2f2
    DividerBorderColor #737373
    DividerBorderThickness 2
    DividerFontColor #4d4d4d
	ReferenceBackgroundColor transparent
	ReferenceBorderColor #737373
	ReferenceFontColor #4d4d4d
	ReferenceHeaderFontColor #4682b4
}

skinparam partition {
	BorderColor #E5E4E2
	FontColor #b7b6b5
	BackgroundColor transparent
}

skinparam collections {
		FontColor #4682b4
	BorderColor #b7b6b5
	BackgroundColor #E5E4E2-#b7b6b5
}

skinparam control {
		FontColor #4682b4
	BorderColor #b7b6b5
	BackgroundColor #E5E4E2-#b7b6b5
	FontColor #4d4d4d
}

skinparam entity {
		FontColor #4682b4
	BorderColor #b7b6b5
	BackgroundColor #E5E4E2-#b7b6b5
	FontColor #4d4d4d
}

skinparam boundary {
		FontColor #4682b4
	BorderColor #b7b6b5
	BackgroundColor #E5E4E2-#b7b6b5
	FontColor #4d4d4d
}

skinparam agent {
	BackgroundColor #orange
	BorderColor #999999
	FontColor #333333
}

skinparam note {
	BorderThickness 1
	BackgroundColor #c0d0e5-#8d9db2
	BorderColor #8d9db2
	FontColor #fdfdfd
}

skinparam artifact {
	BackgroundColor #cdcdcd-#9a9a9a
	BorderColor #9a9a9a
	FontColor #fdfdfd
}

skinparam component {
		FontColor #4682b4
	BorderColor #b7b6b5
	BackgroundColor #E5E4E2-#b7b6b5
}

skinparam interface {
	BackgroundColor  #c5673e
	BorderColor  #B7410E
	FontColor #4d4d4d
}

skinparam storage {
	BackgroundColor #ffdf33-#ccac00
  	BorderColor #ccac00
	FontColor #fdfdfd
}

skinparam node {
	BackgroundColor #eae9e8-#E5E4E2
	BorderColor #E5E4E2
	FontColor #4d4d4d
}

skinparam cloud {
	BackgroundColor #F2FCFE-#eeeeee
	BorderColor #F2FCFE
	FontColor #4d4d4d
}

skinparam database {
		FontColor #4682b4
	BorderColor #b7b6b5
	BackgroundColor #E5E4E2-#b7b6b5
	FontColor #4d4d4d
}

skinparam class {
		FontColor #4682b4
	BorderColor #b7b6b5
	BackgroundColor #E5E4E2-#b7b6b5
	HeaderBackgroundColor #eae9e8-#b7b6b5
	StereotypeFontColor #4d4d4d
	BorderThickness 1
	AttributeFontColor #4d4d4d
	AttributeFontSize 11
}

skinparam object {
		FontColor #4682b4
	BorderColor #b7b6b5
	BackgroundColor #E5E4E2-#b7b6b5
	StereotypeFontColor #f2f2f2
	BorderThickness 1
	AttributeFontColor #fdfdfd
	AttributeFontSize 11
}

skinparam usecase {
		FontColor #4682b4
	BorderColor #b7b6b5
	BackgroundColor #E5E4E2-#b7b6b5
	BorderThickness 2
	StereotypeFontColor #E5E4E2
}

skinparam rectangle {
		FontColor #4682b4
	BorderColor #b7b6b5
	BackgroundColor #E5E4E2-#b7b6b5
	BackgroundColor #fdfdfd-#f2f2f2
	BorderThickness 2
	StereotypeFontColor #E5E4E2
}

skinparam package {
		FontColor #4682b4
	BorderColor #b7b6b5
	BackgroundColor #E5E4E2-#b7b6b5
	BackgroundColor #eae9e8-#E5E4E2
	BorderThickness 2
}

skinparam folder {
	BackgroundColor #eae9e8-#E5E4E2
  	BorderColor #B7410E
	FontColor #B7410E
	BorderThickness 2
}

skinparam frame {
	BackgroundColor #eae9e8-#E5E4E2
  	BorderColor #4682b4
	FontColor #4682b4
	BorderThickness 2
}

skinparam state {
		FontColor #4682b4
	BorderColor #b7b6b5
	BackgroundColor #E5E4E2-#b7b6b5
	StartColor #4682b4
	EndColor #4682b4
	AttributeFontColor #c0c0c0
    AttributeFontSize 11
}

skinparam queue {
		FontColor #4682b4
	BorderColor #b7b6b5
	BackgroundColor #E5E4E2-#b7b6b5
}

skinparam card {
	BackgroundColor #5c85ad-#29527a
	BorderColor #4682b4
	FontColor #fdfdfd
}

skinparam file {
	BackgroundColor #cdcdcd-#9a9a9a
	BorderColor #737373
	FontColor #f2f2f2

}

skinparam stack {
		FontColor #4682b4
	BorderColor #b7b6b5
	BackgroundColor #E5E4E2-#b7b6b5
}

title Class Diagram - metal theme


abstract class AbstractList
abstract AbstractCollection
interface List
interface Collection

List <|- - AbstractList
Collection <|- - AbstractCollection

Collection <|- List
AbstractCollection <|- AbstractList
AbstractList <|- - ArrayList

class ArrayList {
  Object[] elementData
  size()
}

enum TimeUnit {
  DAYS
  HOURS
  MINUTES
}

annotation SuppressWarnings

@enduml

PlantUML version 1.2020.00(Sat Jan 11 04:30:53 PST 2020)
(GPL source distribution)
Java Runtime: OpenJDK Runtime Environment
JVM: OpenJDK 64-Bit Server VM
Java Version: 11.0.5+10-post-Ubuntu-0ubuntu1.118.04
Operating System: Linux
Default Encoding: UTF-8
Language: en
Country: US
--></g></svg>