<?xml version="1.0" encoding="UTF-8" standalone="no"?><svg xmlns="http://www.w3.org/2000/svg" xmlns:xlink="http://www.w3.org/1999/xlink" contentScriptType="application/ecmascript" contentStyleType="text/css" height="532.2917px" preserveAspectRatio="none" style="width:646px;height:532px;" version="1.1" viewBox="0 0 646 532" width="646.875px" zoomAndPan="magnify"><defs><linearGradient id="g1ci7knqlczj8v0" x1="50%" x2="50%" y1="0%" y2="100%"><stop offset="0%" stop-color="#CDCDCD"/><stop offset="100%" stop-color="#9A9A9A"/></linearGradient><linearGradient id="g1ci7knqlczj8v1" x1="50%" x2="50%" y1="0%" y2="100%"><stop offset="0%" stop-color="#EAE9E8"/><stop offset="100%" stop-color="#B7B6B5"/></linearGradient></defs><g><rect fill="url(#g1ci7knqlczj8v0)" height="52.4028" rx="4.1667" ry="4.1667" style="stroke: #9A9A9A; stroke-width: 1.0416666666666667;" width="340.625" x="156.25" y="2.0833"/><text fill="#FDFDFD" font-family="Verdana" font-size="20.8333" lengthAdjust="spacingAndGlyphs" textLength="307.2917" x="172.9167" y="36.5702">Class Diagram - metal theme</text><!--MD5=[b4fa10df80476353258f72a232547d63]
class AbstractList--><rect fill="url(#g1ci7knqlczj8v1)" height="58.9417" id="AbstractList" rx="7.8125" ry="7.8125" style="stroke: #B7B6B5; stroke-width: 1.0416666666666667;" width="122.9167" x="202.6042" y="279.4861"/><ellipse cx="217.1875" cy="300.6236" fill="#A9DCDF" rx="10.4167" ry="10.4167" style="stroke: #B7B6B5; stroke-width: 1.0416666666666667;"/><path d="M218.8151,302.772 L215.7878,302.772 L215.4785,303.537 L215.7878,303.537 Q216.2272,303.537 216.4225,303.7079 Q216.6178,303.8788 216.6178,304.1718 Q216.6178,304.4484 216.4225,304.6193 Q216.2272,304.7902 215.7878,304.7902 L214.0951,304.7902 Q213.6393,304.7902 213.4521,304.6193 Q213.265,304.4484 213.265,304.1555 Q213.265,303.8788 213.4684,303.6997 Q213.6719,303.5207 214.1276,303.537 L216.097,298.6379 L215.2832,298.6379 Q214.8275,298.6379 214.6322,298.467 Q214.4368,298.2961 214.4368,298.0194 Q214.4368,297.7264 214.6322,297.5555 Q214.8275,297.3846 215.2832,297.3846 L217.985,297.3846 L220.4753,303.537 Q220.9147,303.537 221.0449,303.6346 Q221.3379,303.83 221.3379,304.1718 Q221.3379,304.4484 221.1426,304.6193 Q220.9473,304.7902 220.5078,304.7902 L218.8151,304.7902 Q218.3594,304.7902 218.1722,304.6193 Q217.985,304.4484 217.985,304.1555 Q217.985,303.8788 218.1722,303.7079 Q218.3594,303.537 218.8151,303.537 L219.1243,303.537 L218.8151,302.772 Z M218.3105,301.5188 L217.3014,299.0448 L216.276,301.5188 L218.3105,301.5188 Z "/><text fill="#4682B4" font-family="Verdana" font-size="12.5" font-style="italic" lengthAdjust="spacingAndGlyphs" textLength="75" x="239.0625" y="305.5949">AbstractList</text><line style="stroke: #B7B6B5; stroke-width: 1.0416666666666667;" x1="203.6458" x2="324.4792" y1="321.7611" y2="321.7611"/><line style="stroke: #B7B6B5; stroke-width: 1.0416666666666667;" x1="203.6458" x2="324.4792" y1="330.0944" y2="330.0944"/><!--MD5=[8e34b16d8d8f96f4a11290cd523ed859]
class AbstractCollection--><rect fill="url(#g1ci7knqlczj8v1)" height="58.9417" id="AbstractCollection" rx="7.8125" ry="7.8125" style="stroke: #B7B6B5; stroke-width: 1.0416666666666667;" width="159.375" x="6.25" y="279.4861"/><ellipse cx="20.8333" cy="300.6236" fill="#A9DCDF" rx="10.4167" ry="10.4167" style="stroke: #B7B6B5; stroke-width: 1.0416666666666667;"/><path d="M22.4609,302.772 L19.4336,302.772 L19.1243,303.537 L19.4336,303.537 Q19.873,303.537 20.0684,303.7079 Q20.2637,303.8788 20.2637,304.1718 Q20.2637,304.4484 20.0684,304.6193 Q19.873,304.7902 19.4336,304.7902 L17.7409,304.7902 Q17.2852,304.7902 17.098,304.6193 Q16.9108,304.4484 16.9108,304.1555 Q16.9108,303.8788 17.1143,303.6997 Q17.3177,303.5207 17.7734,303.537 L19.7428,298.6379 L18.929,298.6379 Q18.4733,298.6379 18.278,298.467 Q18.0827,298.2961 18.0827,298.0194 Q18.0827,297.7264 18.278,297.5555 Q18.4733,297.3846 18.929,297.3846 L21.6309,297.3846 L24.1211,303.537 Q24.5605,303.537 24.6908,303.6346 Q24.9837,303.83 24.9837,304.1718 Q24.9837,304.4484 24.7884,304.6193 Q24.5931,304.7902 24.1536,304.7902 L22.4609,304.7902 Q22.0052,304.7902 21.818,304.6193 Q21.6309,304.4484 21.6309,304.1555 Q21.6309,303.8788 21.818,303.7079 Q22.0052,303.537 22.4609,303.537 L22.7702,303.537 L22.4609,302.772 Z M21.9564,301.5188 L20.9473,299.0448 L19.9219,301.5188 L21.9564,301.5188 Z "/><text fill="#4682B4" font-family="Verdana" font-size="12.5" font-style="italic" lengthAdjust="spacingAndGlyphs" textLength="111.4583" x="42.7083" y="305.5949">AbstractCollection</text><line style="stroke: #B7B6B5; stroke-width: 1.0416666666666667;" x1="7.2917" x2="164.5833" y1="321.7611" y2="321.7611"/><line style="stroke: #B7B6B5; stroke-width: 1.0416666666666667;" x1="7.2917" x2="164.5833" y1="330.0944" y2="330.0944"/><!--MD5=[3d4177ac58b4411586d067f34e84928f]
class List--><rect fill="url(#g1ci7knqlczj8v1)" height="58.9417" id="List" rx="7.8125" ry="7.8125" style="stroke: #B7B6B5; stroke-width: 1.0416666666666667;" width="70.8333" x="215.1042" y="111.7778"/><ellipse cx="229.6875" cy="132.9152" fill="#B4A7E5" rx="10.4167" ry="10.4167" style="stroke: #B7B6B5; stroke-width: 1.0416666666666667;"/><path d="M230.9408,130.9296 L230.9408,135.8287 L232.2103,135.8287 Q232.6497,135.8287 232.8451,135.9996 Q233.0404,136.1705 233.0404,136.4634 Q233.0404,136.7401 232.8451,136.911 Q232.6497,137.0819 232.2103,137.0819 L228.418,137.0819 Q227.9785,137.0819 227.7832,136.911 Q227.5879,136.7401 227.5879,136.4471 Q227.5879,136.1705 227.7832,135.9996 Q227.9785,135.8287 228.418,135.8287 L229.6875,135.8287 L229.6875,130.9296 L228.418,130.9296 Q227.9785,130.9296 227.7832,130.7587 Q227.5879,130.5878 227.5879,130.3111 Q227.5879,130.0181 227.7832,129.8472 Q227.9785,129.6763 228.418,129.6763 L232.2103,129.6763 Q232.6497,129.6763 232.8451,129.8472 Q233.0404,130.0181 233.0404,130.3111 Q233.0404,130.5878 232.8451,130.7587 Q232.6497,130.9296 232.2103,130.9296 L230.9408,130.9296 Z "/><text fill="#4682B4" font-family="Verdana" font-size="12.5" font-style="italic" lengthAdjust="spacingAndGlyphs" textLength="22.9167" x="251.5625" y="137.8866">List</text><line style="stroke: #B7B6B5; stroke-width: 1.0416666666666667;" x1="216.1458" x2="284.8958" y1="154.0527" y2="154.0527"/><line style="stroke: #B7B6B5; stroke-width: 1.0416666666666667;" x1="216.1458" x2="284.8958" y1="162.3861" y2="162.3861"/><!--MD5=[c160724f8e3bb89ca8141a12554ac2e3]
class Collection--><rect fill="url(#g1ci7knqlczj8v1)" height="58.9417" id="Collection" rx="7.8125" ry="7.8125" style="stroke: #B7B6B5; stroke-width: 1.0416666666666667;" width="107.2917" x="44.7917" y="111.7778"/><ellipse cx="59.375" cy="132.9152" fill="#B4A7E5" rx="10.4167" ry="10.4167" style="stroke: #B7B6B5; stroke-width: 1.0416666666666667;"/><path d="M60.6283,130.9296 L60.6283,135.8287 L61.8978,135.8287 Q62.3372,135.8287 62.5326,135.9996 Q62.7279,136.1705 62.7279,136.4634 Q62.7279,136.7401 62.5326,136.911 Q62.3372,137.0819 61.8978,137.0819 L58.1055,137.0819 Q57.666,137.0819 57.4707,136.911 Q57.2754,136.7401 57.2754,136.4471 Q57.2754,136.1705 57.4707,135.9996 Q57.666,135.8287 58.1055,135.8287 L59.375,135.8287 L59.375,130.9296 L58.1055,130.9296 Q57.666,130.9296 57.4707,130.7587 Q57.2754,130.5878 57.2754,130.3111 Q57.2754,130.0181 57.4707,129.8472 Q57.666,129.6763 58.1055,129.6763 L61.8978,129.6763 Q62.3372,129.6763 62.5326,129.8472 Q62.7279,130.0181 62.7279,130.3111 Q62.7279,130.5878 62.5326,130.7587 Q62.3372,130.9296 61.8978,130.9296 L60.6283,130.9296 Z "/><text fill="#4682B4" font-family="Verdana" font-size="12.5" font-style="italic" lengthAdjust="spacingAndGlyphs" textLength="59.375" x="81.25" y="137.8866">Collection</text><line style="stroke: #B7B6B5; stroke-width: 1.0416666666666667;" x1="45.8333" x2="151.0417" y1="154.0527" y2="154.0527"/><line style="stroke: #B7B6B5; stroke-width: 1.0416666666666667;" x1="45.8333" x2="151.0417" y1="162.3861" y2="162.3861"/><!--MD5=[ab8871ed637f40707b866ba6597734bc]
class ArrayList--><rect fill="url(#g1ci7knqlczj8v1)" height="120.1263" id="ArrayList" rx="7.8125" ry="7.8125" style="stroke: #B7B6B5; stroke-width: 1.0416666666666667;" width="158.3333" x="184.8958" y="401.3611"/><ellipse cx="223.3854" cy="422.4986" fill="#ADD1B2" rx="10.4167" ry="10.4167" style="stroke: #B7B6B5; stroke-width: 1.0416666666666667;"/><path d="M224.9316,419.5852 Q225.0456,419.4224 225.1839,419.341 Q225.3223,419.2596 225.485,419.2596 Q225.7617,419.2596 225.9326,419.455 Q226.1035,419.6503 226.1035,420.0897 L226.1035,421.1639 Q226.1035,421.6034 225.9326,421.7987 Q225.7617,421.994 225.485,421.994 Q225.2246,421.994 225.0781,421.8475 Q224.9316,421.7173 224.8503,421.3267 Q224.8177,421.0663 224.6875,420.9361 Q224.4271,420.6594 223.9795,420.4966 Q223.5319,420.3339 223.0762,420.3339 Q222.5228,420.3339 222.0508,420.578 Q221.5788,420.8221 221.2207,421.3674 Q220.8626,421.9126 220.8626,422.6776 L220.8626,423.4914 Q220.8626,424.3866 221.5218,424.9888 Q222.181,425.591 223.3366,425.591 Q224.0365,425.591 224.5247,425.412 Q224.8014,425.2981 225.1107,424.9725 Q225.306,424.7772 225.4199,424.7203 Q225.5339,424.6633 225.6641,424.6633 Q225.9245,424.6633 226.1117,424.8505 Q226.2988,425.0376 226.2988,425.2981 Q226.2988,425.5585 226.0384,425.8514 Q225.6641,426.2746 225.0781,426.5188 Q224.2969,426.8443 223.3529,426.8443 Q222.2298,426.8443 221.3509,426.3885 Q220.6185,426.0305 220.1139,425.233 Q219.6094,424.4354 219.6094,423.5077 L219.6094,422.6613 Q219.6094,421.6848 220.0651,420.8384 Q220.5208,419.9921 221.3265,419.5363 Q222.1322,419.0806 223.0273,419.0806 Q223.5807,419.0806 224.0527,419.2027 Q224.5247,419.3247 224.9316,419.5852 Z "/><text fill="#4682B4" font-family="Verdana" font-size="12.5" lengthAdjust="spacingAndGlyphs" textLength="57.2917" x="250.5729" y="427.4699">ArrayList</text><line style="stroke: #B7B6B5; stroke-width: 1.0416666666666667;" x1="185.9375" x2="342.1875" y1="443.6361" y2="443.6361"/><text fill="#FDFDFD" font-family="Verdana" font-size="11.4583" lengthAdjust="spacingAndGlyphs" textLength="129.1667" x="199.4792" y="467.6559">Object[] elementData</text><line style="stroke: #B7B6B5; stroke-width: 1.0416666666666667;" x1="185.9375" x2="342.1875" y1="482.5617" y2="482.5617"/><text fill="#FDFDFD" font-family="Verdana" font-size="11.4583" lengthAdjust="spacingAndGlyphs" textLength="33.3333" x="199.4792" y="506.5816">size()</text><!--MD5=[15b68e006199004da79ea2a4d117d8e9]
class TimeUnit--><rect fill="url(#g1ci7knqlczj8v1)" height="150.7187" id="TimeUnit" rx="7.8125" ry="7.8125" style="stroke: #B7B6B5; stroke-width: 1.0416666666666667;" width="104.1667" x="322.3958" y="65.9444"/><ellipse cx="336.9792" cy="87.0819" fill="#EB937F" rx="10.4167" ry="10.4167" style="stroke: #B7B6B5; stroke-width: 1.0416666666666667;"/><path d="M336.849,88.1561 L336.849,89.9953 L340.0391,89.9953 L340.0391,89.3117 Q340.0391,88.8723 340.21,88.677 Q340.3809,88.4816 340.6576,88.4816 Q340.9342,88.4816 341.1133,88.677 Q341.2923,88.8723 341.2923,89.3117 L341.2923,91.2486 L335.4004,91.2486 Q334.9447,91.2486 334.7493,91.0777 Q334.554,90.9068 334.554,90.6138 Q334.554,90.3371 334.7493,90.1662 Q334.9447,89.9953 335.4004,89.9953 L335.5957,89.9953 L335.5957,85.0962 L335.4004,85.0962 Q334.9447,85.0962 334.7493,84.9253 Q334.554,84.7544 334.554,84.4777 Q334.554,84.1848 334.7493,84.0139 Q334.9447,83.843 335.4004,83.843 L341.0156,83.843 L341.0156,85.7473 Q341.0156,86.203 340.8447,86.3902 Q340.6738,86.5774 340.3809,86.5774 Q340.1042,86.5774 339.9333,86.3902 Q339.7624,86.203 339.7624,85.7473 L339.7624,85.0962 L336.849,85.0962 L336.849,86.9029 L337.9395,86.9029 Q337.9395,86.4146 338.0371,86.2844 Q338.2161,85.9751 338.5742,85.9751 Q338.8509,85.9751 339.0218,86.1705 Q339.1927,86.3658 339.1927,86.8215 L339.1927,88.2538 Q339.1927,88.6607 339.0951,88.8072 Q338.8997,89.1001 338.5742,89.1001 Q338.2161,89.1001 338.0371,88.7909 Q337.9395,88.6607 337.9395,88.1561 L336.849,88.1561 Z "/><text fill="#4682B4" font-family="Verdana" font-size="12.5" lengthAdjust="spacingAndGlyphs" textLength="56.25" x="358.8542" y="92.0532">TimeUnit</text><line style="stroke: #B7B6B5; stroke-width: 1.0416666666666667;" x1="323.4375" x2="425.5208" y1="108.2194" y2="108.2194"/><text fill="#FDFDFD" font-family="Verdana" font-size="11.4583" lengthAdjust="spacingAndGlyphs" textLength="33.3333" x="336.9792" y="132.2393">DAYS</text><text fill="#FDFDFD" font-family="Verdana" font-size="11.4583" lengthAdjust="spacingAndGlyphs" textLength="42.7083" x="336.9792" y="162.8316">HOURS</text><text fill="#FDFDFD" font-family="Verdana" font-size="11.4583" lengthAdjust="spacingAndGlyphs" textLength="54.1667" x="336.9792" y="193.424">MINUTES</text><line style="stroke: #B7B6B5; stroke-width: 1.0416666666666667;" x1="323.4375" x2="425.5208" y1="208.3298" y2="208.3298"/><!--MD5=[0c8287f799745f7b534bf75518604c1e]
class SuppressWarnings--><rect fill="url(#g1ci7knqlczj8v1)" height="58.9417" id="SuppressWarnings" rx="7.8125" ry="7.8125" style="stroke: #B7B6B5; stroke-width: 1.0416666666666667;" width="171.875" x="463.5417" y="111.7778"/><ellipse cx="478.125" cy="132.9152" fill="#E3664A" rx="10.4167" ry="10.4167" style="stroke: #B7B6B5; stroke-width: 1.0416666666666667;"/><path d="M479.5085,131.1086 L479.5085,130.718 Q479.5085,130.1158 479.1585,129.7496 Q478.8086,129.3833 478.2552,129.3833 Q477.8158,129.3833 477.4333,129.6763 Q477.0508,129.9693 476.8555,130.425 Q476.4974,131.2388 476.4974,132.0363 L476.4974,133.8918 Q476.4974,135.3078 477.1322,136.1379 Q477.5553,136.6913 478.2878,136.6913 Q478.6947,136.6913 479.0283,136.5855 Q479.362,136.4797 479.541,136.2925 Q479.7201,136.1053 479.8828,136.1053 Q480.0781,136.1053 480.2083,136.2437 Q480.3385,136.382 480.3385,136.5936 Q480.3385,136.8866 479.9316,137.1796 Q479.3132,137.6027 478.2552,137.6027 Q477.4577,137.6027 476.9206,137.2284 Q476.2533,136.7564 475.9196,135.8287 Q475.5859,134.9009 475.5859,133.9895 L475.5859,131.9712 Q475.5859,130.5064 476.3102,129.481 Q477.0345,128.4556 478.2389,128.4556 Q478.776,128.4556 479.2643,128.6835 Q479.7526,128.9113 480.0944,129.4729 Q480.4362,130.0344 480.4362,130.718 L480.4362,134.0546 Q480.6966,134.1848 480.6966,134.4615 Q480.6966,134.6731 480.5501,134.8114 Q480.4036,134.9497 480.0618,134.9497 L479.5085,134.9497 L479.5085,134.9009 Q479.2155,134.9497 479.0853,134.9497 Q478.3529,134.9497 477.8076,134.4045 Q477.2624,133.8593 477.2624,133.1268 Q477.2624,132.3456 477.8646,131.7596 Q478.4668,131.1737 479.5085,131.1086 Z M479.5085,132.0526 Q478.8574,132.1177 478.5156,132.427 Q478.1738,132.7362 478.1738,133.1431 Q478.1738,133.4849 478.4587,133.7453 Q478.7435,134.0057 479.2155,134.0057 Q479.2969,134.0057 479.5085,133.9895 L479.5085,132.0526 Z "/><text fill="#4682B4" font-family="Verdana" font-size="12.5" lengthAdjust="spacingAndGlyphs" textLength="123.9583" x="500" y="137.8866">SuppressWarnings</text><line style="stroke: #B7B6B5; stroke-width: 1.0416666666666667;" x1="464.5833" x2="634.375" y1="154.0527" y2="154.0527"/><line style="stroke: #B7B6B5; stroke-width: 1.0416666666666667;" x1="464.5833" x2="634.375" y1="162.3861" y2="162.3861"/><!--MD5=[00308d07b6a5721fb0cf5861877e6652]
reverse link List to AbstractList--><path d="M254.6083,192.4944 C256.9302,220.8934 259.7542,255.4371 261.7083,279.335 " fill="none" id="List&lt;-AbstractList" style="stroke: #E5E4E2; stroke-width: 3.125;"/><polygon fill="none" points="247.3104,192.7153,252.8792,171.3569,261.8448,191.5267,247.3104,192.7153" style="stroke: #E5E4E2; stroke-width: 3.125;"/><!--MD5=[1822909749df1453bdd84de7a60a3406]
reverse link Collection to AbstractCollection--><path d="M94.6649,192.4944 C92.5216,220.8934 89.9145,255.4371 88.1108,279.335 " fill="none" id="Collection&lt;-AbstractCollection" style="stroke: #E5E4E2; stroke-width: 3.125;"/><polygon fill="none" points="87.4213,191.5819,96.2602,171.3569,101.9632,192.6798,87.4213,191.5819" style="stroke: #E5E4E2; stroke-width: 3.125;"/><!--MD5=[0159284274f96a472eb2618ad803aaca]
reverse link Collection to List--><path d="M173.2313,141.4653 C187.0885,141.4653 200.9458,141.4653 214.8031,141.4653 " fill="none" id="Collection&lt;-List" style="stroke: #E5E4E2; stroke-width: 3.125;"/><polygon fill="none" points="173.0344,148.7569,152.201,141.4653,173.0344,134.1736,173.0344,148.7569" style="stroke: #E5E4E2; stroke-width: 3.125;"/><!--MD5=[7a3a52e8f65ef1a8d8d29530ea5cd870]
reverse link AbstractCollection to AbstractList--><path d="M187.0021,309.1736 C192.1219,309.1736 197.2417,309.1736 202.3615,309.1736 " fill="none" id="AbstractCollection&lt;-AbstractList" style="stroke: #E5E4E2; stroke-width: 3.125;"/><polygon fill="none" points="186.7875,316.4653,165.9542,309.1736,186.7875,301.8819,186.7875,316.4653" style="stroke: #E5E4E2; stroke-width: 3.125;"/><!--MD5=[40e4bb1af59cca28d4643aaff05088cc]
reverse link AbstractList to ArrayList--><path d="M264.0625,360.4257 C264.0625,373.5246 264.0625,387.7611 264.0625,401.2673 " fill="none" id="AbstractList&lt;-ArrayList" style="stroke: #E5E4E2; stroke-width: 3.125;"/><polygon fill="none" points="256.7708,359.9705,264.0625,339.1371,271.3542,359.9705,256.7708,359.9705" style="stroke: #E5E4E2; stroke-width: 3.125;"/><!--MD5=[696cccaaa0856ce74df65ed07de5662c]
@startuml



skinparam backgroundColor transparent









skinparam defaultFontName        "Verdana"
skinparam defaultFontSize        12
skinparam dpi                    100
skinparam shadowing              false
skinparam roundcorner            15
skinparam ParticipantPadding     30
skinparam BoxPadding             30
skinparam Padding                8
skinparam ArrowColor             #737373
skinparam title {
	FontColor	                 #fdfdfd
	BorderColor	                 #9a9a9a
	FontSize	    	         20
	BorderRoundCorner            8
	BorderThickness 	         1
	BackgroundColor              #cdcdcd-#9a9a9a
}


skinparam legend {
	BackgroundColor #eae9e8-#E5E4E2
	BorderColor #9a9a9a
	FontColor #4682b4
}

skinparam activity {
	FontColor #4682b4
	BorderColor #b7b6b5
	BackgroundColor #E5E4E2-#b7b6b5
	BarColor #CD7F32
	StartColor #4682b4
	EndColor #4682b4
	DiamondBackgroundColor #c0c0c0-#9a9a9a
  	DiamondBorderColor #9a9a9a
	DiamondFontColor #fdfdfd
}

skinparam sequence {
	BorderColor #E5E4E2
	TitleFontColor #fdfdfd
	BackgroundColor transparent
	StartColor #E5E4E2
	EndColor #E5E4E2
    ParticipantBackgroundColor #eae9e8-#b7b6b5
    ParticipantBorderColor #E5E4E2
	ParticipantBorderThickness 0
	ParticipantFontColor #4682b4
	ActorBackgroundColor transparent
    ActorBorderColor #E5E4E2
	ActorFontColor #E5E4E2
	ArrowThickness 3
	ArrowColor #E5E4E2
	ArrowFontColor #4d4d4d
	BoxBackgroundColor #f2f2f2
	BoxBorderColor #737373
	BoxFontColor #4d4d4d
	LifeLineBorderColor #9a9a9a
	LifeLineBorderThickness 3
	LifeLineBackgroundColor #cdcdcd-#9a9a9a
	GroupBorderColor #737373
	GroupFontColor #4d4d4d
	GroupHeaderFontColor #4682b4
	DividerBackgroundColor #fdfdfd-#f2f2f2
    DividerBorderColor #737373
    DividerBorderThickness 2
    DividerFontColor #4d4d4d
	ReferenceBackgroundColor transparent
	ReferenceBorderColor #737373
	ReferenceFontColor #4d4d4d
	ReferenceHeaderFontColor #4682b4
}

skinparam partition {
	BorderColor #E5E4E2
	FontColor #b7b6b5
	BackgroundColor transparent
}

skinparam collections {
	BackgroundColor #eae9e8-#b7b6b5
	BorderColor #b7b6b5
}

skinparam control {
	BackgroundColor  #eae9e8-#b7b6b5
	BorderColor #b7b6b5
	FontColor #4d4d4d
}

skinparam entity {
	BackgroundColor  #eae9e8-#b7b6b5
	BorderColor #b7b6b5
	FontColor #4d4d4d
}

skinparam boundary {
	BackgroundColor  #eae9e8-#b7b6b5
	BorderColor #b7b6b5
	FontColor #4d4d4d
}

skinparam agent {
	BackgroundColor #orange
	BorderColor #999999
	FontColor #333333
}

skinparam note {
	BorderThickness 1
	BackgroundColor #5c85ad-#29527a
	BorderColor #29527a
	FontColor #fdfdfd
}

skinparam artifact {
	BackgroundColor #fdfdfd-#f2f2f2
	BorderColor #737373
	FontColor #737373
}

skinparam component {
	BackgroundColor  #d7995b-#a46628
	BorderColor  #a46628
	FontColor #fdfdfd
}

skinparam interface {
	BackgroundColor  #c5673e
	BorderColor  #B7410E
	FontColor #4d4d4d
}

skinparam storage {
	BackgroundColor #ffdf33-#ccac00
  	BorderColor #ccac00
	FontColor #fdfdfd
}

skinparam node {
	BackgroundColor #eae9e8-#b7b6b5
	BorderColor #b7b6b5
	FontColor #4682b4
}

skinparam cloud {
	BackgroundColor white-lightskyblue
	BorderColor transparent
	FontColor #4d4d4d
}

skinparam database {
	BackgroundColor  #eae9e8-#b7b6b5
	BorderColor #b7b6b5
	FontColor #4d4d4d
}

skinparam actor {
	FontColor #4d4d4d
}

skinparam class {
	HeaderBackgroundColor #eae9e8-#b7b6b5
	FontColor #4682b4
	BackgroundColor #eae9e8-#b7b6b5
	BorderColor #b7b6b5
	StereotypeFontColor #4d4d4d
	BorderThickness 1
	AttributeFontColor #fdfdfd
	AttributeFontSize 11
}

skinparam object {
	FontColor #4d4d4d
	BackgroundColor #cdcdcd-#9a9a9a
	BorderColor #9a9a9a
	StereotypeFontColor #f2f2f2
	BorderThickness 1
	AttributeFontColor #fdfdfd
	AttributeFontSize 11
}

skinparam usecase {
	BackgroundColor #cdcdcd-#c0c0c0
	BorderColor #c0c0c0
	BorderThickness 2
	FontColor #fdfdfd
	StereotypeFontColor #E5E4E2
}

skinparam rectangle {
	BackgroundColor #fdfdfd-#f2f2f2
	BorderColor #f2f2f2
	BorderThickness 2
	FontColor #4682b4
	StereotypeFontColor #E5E4E2
}

skinparam package {
	BackgroundColor #cdcdcd-#c0c0c0
  	BorderColor #E5E4E2
	FontColor #E5E4E2
	BorderThickness 2
}

skinparam folder {
	BackgroundColor #fdfdfd-#f2f2f2
  	BorderColor #FFD700
	FontColor #FFD700
	BorderThickness 2
}

skinparam frame {
	BackgroundColor #E5E4E2-#b7b6b5
  	BorderColor #4682b4
	FontColor #4682b4
	BorderThickness 2
}

skinparam state {
	StartColor #4682b4
	EndColor #4682b4
	BackgroundColor #cdcdcd-#9a9a9a
	BorderColor #9a9a9a
	FontColor #4682b4
	AttributeFontColor #c0c0c0
    AttributeFontSize 11
}

skinparam queue {
	BackgroundColor #FFD700-#ccac00
  	BorderColor #ccac00
	FontColor #fdfdfd
}

skinparam card {
	BackgroundColor #5c85ad-#29527a
	BorderColor #4682b4
	FontColor #fdfdfd
}

skinparam file {
	BackgroundColor #cdcdcd-#9a9a9a
	BorderColor #737373
	FontColor #f2f2f2

}

skinparam stack {
	BackgroundColor #eae9e8-#b7b6b5
	BorderColor #b7b6b5
	FontColor #4682b4
}

title Class Diagram - metal theme


abstract class AbstractList
abstract AbstractCollection
interface List
interface Collection

List <|- - AbstractList
Collection <|- - AbstractCollection

Collection <|- List
AbstractCollection <|- AbstractList
AbstractList <|- - ArrayList

class ArrayList {
  Object[] elementData
  size()
}

enum TimeUnit {
  DAYS
  HOURS
  MINUTES
}

annotation SuppressWarnings

@enduml

PlantUML version 1.2019.12(Sun Nov 03 02:24:54 PST 2019)
(GPL source distribution)
Java Runtime: Java(TM) SE Runtime Environment
JVM: Java HotSpot(TM) 64-Bit Server VM
Java Version: 1.8.0_212-b32
Operating System: Windows 10
Default Encoding: Cp1252
Language: en
Country: US
--></g></svg>