<?xml version="1.0" encoding="UTF-8" standalone="no"?><svg xmlns="http://www.w3.org/2000/svg" xmlns:xlink="http://www.w3.org/1999/xlink" contentScriptType="application/ecmascript" contentStyleType="text/css" height="631.25px" preserveAspectRatio="none" style="width:882px;height:631px;" version="1.1" viewBox="0 0 882 631" width="882.2917px" zoomAndPan="magnify"><defs><linearGradient id="gwvi3emlcg3760" x1="50%" x2="50%" y1="0%" y2="100%"><stop offset="0%" stop-color="#CDCDCD"/><stop offset="100%" stop-color="#9A9A9A"/></linearGradient><linearGradient id="gwvi3emlcg3761" x1="50%" x2="50%" y1="0%" y2="100%"><stop offset="0%" stop-color="#EAE9E8"/><stop offset="100%" stop-color="#E5E4E2"/></linearGradient><linearGradient id="gwvi3emlcg3762" x1="50%" x2="50%" y1="0%" y2="100%"><stop offset="0%" stop-color="#F2FCFE"/><stop offset="100%" stop-color="#EEEEEE"/></linearGradient><linearGradient id="gwvi3emlcg3763" x1="50%" x2="50%" y1="0%" y2="100%"><stop offset="0%" stop-color="#E5E4E2"/><stop offset="100%" stop-color="#B7B6B5"/></linearGradient><linearGradient id="gwvi3emlcg3764" x1="50%" x2="50%" y1="0%" y2="100%"><stop offset="0%" stop-color="#FFDF33"/><stop offset="100%" stop-color="#CCAC00"/></linearGradient><linearGradient id="gwvi3emlcg3765" x1="50%" x2="50%" y1="0%" y2="100%"><stop offset="0%" stop-color="#5C85AD"/><stop offset="100%" stop-color="#29527A"/></linearGradient></defs><g><rect fill="url(#gwvi3emlcg3760)" height="52.4028" rx="4.1667" ry="4.1667" style="stroke: #9A9A9A; stroke-width: 1.0416666666666667;" width="406.25" x="241.1458" y="2.0833"/><text fill="#FDFDFD" font-family="Verdana" font-size="20.8333" lengthAdjust="spacingAndGlyphs" textLength="372.9167" x="257.8125" y="36.5702">Component Diagram - metal theme</text><!--MD5=[98956307d0c47524864de5bf9cdc747b]
cluster My Package--><path d="M22.3958,74.7986 L111.9792,74.7986 A11.7188,11.7188 0 0 1 119.7917,82.6111 L127.0833,112.9069 L431.7708,112.9069 A7.8125,7.8125 0 0 1 439.5833,120.7194 L439.5833,171.1528 A7.8125,7.8125 0 0 1 431.7708,178.9653 L22.3958,178.9653 A7.8125,7.8125 0 0 1 14.5833,171.1528 L14.5833,82.6111 A7.8125,7.8125 0 0 1 22.3958,74.7986 " fill="url(#gwvi3emlcg3761)" style="stroke: #B7B6B5; stroke-width: 1.5625;"/><line style="stroke: #B7B6B5; stroke-width: 1.5625;" x1="14.5833" x2="127.0833" y1="112.9069" y2="112.9069"/><text fill="#4682B4" font-family="Verdana" font-size="12.5" font-weight="bold" lengthAdjust="spacingAndGlyphs" textLength="82.2917" x="27.0833" y="97.7824">My Package</text><!--MD5=[994b84a7865cf3a30290d65f6358d5f5]
cluster My Node--><polygon fill="url(#gwvi3emlcg3761)" points="43.75,215.4236,54.1667,205.0069,280.2083,205.0069,280.2083,303.9653,269.7917,314.3819,43.75,314.3819,43.75,215.4236" style="stroke: #E5E4E2; stroke-width: 1.5625;"/><line style="stroke: #E5E4E2; stroke-width: 1.5625;" x1="269.7917" x2="279.1667" y1="215.4236" y2="206.0486"/><line style="stroke: #E5E4E2; stroke-width: 1.5625;" x1="43.75" x2="269.7917" y1="215.4236" y2="215.4236"/><line style="stroke: #E5E4E2; stroke-width: 1.5625;" x1="269.7917" x2="269.7917" y1="215.4236" y2="314.3819"/><text fill="#4D4D4D" font-family="Verdana" font-size="12.5" font-weight="bold" lengthAdjust="spacingAndGlyphs" textLength="59.375" x="128.125" y="239.4491">My Node</text><!--MD5=[8f762177cf9f076b8ea6eac76c5df33e]
cluster My Cloud--><path d="M308.8668,218.6975 C312.3187,212.9067 318.0043,212.08 321.6851,218.4564 C325.3234,209.7745 332.1333,211.0124 336.9272,217.2781 C338.5067,209.8645 344.8115,208.6355 349.7234,213.9199 C353.5511,208.7922 357.165,207.0189 361.5942,213.2936 C367.5112,207.1695 371.6916,208.5653 374.9584,215.9211 C378.6171,208.5479 385.9564,207.9266 390.0278,215.5052 C394.9177,210.0871 398.228,211.593 401.5003,217.19 C406.155,212.0874 413.0675,212.1453 415.6437,219.5419 C423.2794,223.2831 424.2654,228.0593 418.3963,234.3165 C425.5024,238.9288 424.8431,244.794 418.7824,249.7359 C424.7347,252.3218 427.4496,257.5923 421.4168,262.6274 C426.6199,268.5359 427.1385,273.8214 418.818,277.3413 C424.4357,282.1604 426.024,288.2621 417.6499,291.9634 C424.2896,297.7589 425.0707,303.0295 416.7172,307.9504 C412.5197,314.1066 407.0496,313.7975 403.3454,307.424 C400.6927,315.1264 394.0805,315.7871 389.1129,309.8371 C384.7722,317.0957 380.1442,316.7066 374.8442,310.8835 C370.6877,317.7318 365.3058,316.7334 361.5183,310.5074 C357.5072,314.9199 353.4594,315.9945 350.2575,309.6595 C345.4406,316.6656 340.9309,317.0967 335.9135,309.8615 C331.0326,314.6409 326.0093,314.4769 323.801,307.1808 C319.137,314.9893 313.9988,313.7927 308.7012,307.8778 C299.4003,305.0217 300.3584,297.2402 306.1326,291.9525 C298.8044,288.5276 297.6925,283.7327 304.5072,278.5877 C296.1755,275.9492 296.1938,268.7761 302.6748,264.245 C297.1804,258.6837 295.7893,254.1042 303.9911,249.7901 C296.738,243.7649 299.0615,236.5211 307.3422,233.739 C301.0042,229.1697 301.7565,221.9037 308.8668,218.6975 " fill="url(#gwvi3emlcg3762)" style="stroke: #F2FCFE; stroke-width: 1.5625;"/><text fill="#4D4D4D" font-family="Verdana" font-size="12.5" font-weight="bold" lengthAdjust="spacingAndGlyphs" textLength="62.5" x="330.2083" y="244.6574">My Cloud</text><!--MD5=[5435dd1da01795d79a1d1bdb7811705f]
cluster My Database--><path d="M298.9583,343.0278 C298.9583,332.6111 361.4583,332.6111 361.4583,332.6111 C361.4583,332.6111 423.9583,332.6111 423.9583,343.0278 L423.9583,608.6528 C423.9583,619.0694 361.4583,619.0694 361.4583,619.0694 C361.4583,619.0694 298.9583,619.0694 298.9583,608.6528 L298.9583,343.0278 " fill="url(#gwvi3emlcg3763)" style="stroke: #B7B6B5; stroke-width: 1.5625;"/><path d="M298.9583,343.0278 C298.9583,353.4444 361.4583,353.4444 361.4583,353.4444 C361.4583,353.4444 423.9583,353.4444 423.9583,343.0278 " fill="none" style="stroke: #B7B6B5; stroke-width: 1.5625;"/><text fill="#4D4D4D" font-family="Verdana" font-size="12.5" font-weight="bold" lengthAdjust="spacingAndGlyphs" textLength="88.5417" x="317.1875" y="376.4282">My Database</text><!--MD5=[db3eb734e65e00defc1adec42c70b029]
cluster My folder--><path d="M315.1042,390.9444 L386.9792,390.9444 A11.7188,11.7188 0 0 1 394.7917,398.7569 L402.0833,429.0527 L407.8125,429.0527 A7.8125,7.8125 0 0 1 415.625,436.8652 L415.625,487.2986 A7.8125,7.8125 0 0 1 407.8125,495.1111 L315.1042,495.1111 A7.8125,7.8125 0 0 1 307.2917,487.2986 L307.2917,398.7569 A7.8125,7.8125 0 0 1 315.1042,390.9444 " fill="url(#gwvi3emlcg3761)" style="stroke: #B7410E; stroke-width: 1.5625;"/><line style="stroke: #B7410E; stroke-width: 1.5625;" x1="307.2917" x2="402.0833" y1="429.0527" y2="429.0527"/><text fill="#B7410E" font-family="Verdana" font-size="12.5" font-weight="bold" lengthAdjust="spacingAndGlyphs" textLength="64.5833" x="319.7917" y="413.9282">My folder</text><!--MD5=[2f95c9c104e26437854e71862f3d840e]
cluster My Frame--><rect fill="url(#gwvi3emlcg3761)" height="104.1667" rx="7.8125" ry="7.8125" style="stroke: #4682B4; stroke-width: 1.5625;" width="108.3333" x="307.2917" y="506.5694"/><path d="M402.0833,507.6111 L402.0833,531.1361 L391.6667,541.5527 L307.2917,541.5527 " fill="none" style="stroke: #4682B4; stroke-width: 1.5625;"/><text fill="#4682B4" font-family="Verdana" font-size="12.5" font-weight="bold" lengthAdjust="spacingAndGlyphs" textLength="67.7083" x="318.75" y="528.5116">My Frame</text><!--MD5=[96f7e1299d4a43069e6ed32352fcac20]
entity HTTP--><ellipse cx="214.5833" cy="144.0694" fill="#C5673E" rx="8.3333" ry="8.3333" style="stroke: #B7410E; stroke-width: 2.0833333333333335;"/><text fill="#4D4D4D" font-family="Verdana" font-size="12.5" lengthAdjust="spacingAndGlyphs" textLength="32.2917" x="198.4375" y="182.6782">HTTP</text><!--MD5=[cbd7cda55f2530e2efe43ec72c097853]
entity First Component--><rect fill="url(#gwvi3emlcg3763)" height="52.6917" rx="7.8125" ry="7.8125" style="stroke: #B7B6B5; stroke-width: 1.5625;" width="145.8333" x="22.9167" y="117.5069"/><rect fill="url(#gwvi3emlcg3763)" height="5.2083" style="stroke: #B7B6B5; stroke-width: 1.5625;" width="10.4167" x="17.7083" y="122.7153"/><rect fill="url(#gwvi3emlcg3763)" height="5.2083" style="stroke: #B7B6B5; stroke-width: 1.5625;" width="10.4167" x="17.7083" y="159.7819"/><text fill="#4682B4" font-family="Verdana" font-size="12.5" lengthAdjust="spacingAndGlyphs" textLength="108.3333" x="41.6667" y="148.8241">First Component</text><!--MD5=[b9d11f23832c1491231c5b33e55ab8c6]
entity Another Component--><rect fill="url(#gwvi3emlcg3763)" height="52.6917" rx="7.8125" ry="7.8125" style="stroke: #B7B6B5; stroke-width: 1.5625;" width="169.7917" x="260.9375" y="117.5069"/><rect fill="url(#gwvi3emlcg3763)" height="5.2083" style="stroke: #B7B6B5; stroke-width: 1.5625;" width="10.4167" x="255.7292" y="122.7153"/><rect fill="url(#gwvi3emlcg3763)" height="5.2083" style="stroke: #B7B6B5; stroke-width: 1.5625;" width="10.4167" x="255.7292" y="159.7819"/><text fill="#4682B4" font-family="Verdana" font-size="12.5" lengthAdjust="spacingAndGlyphs" textLength="132.2917" x="279.6875" y="148.8241">Another Component</text><!--MD5=[76af18d92d7d7c0f7ebd8f4f605ac5aa]
entity FTP--><ellipse cx="61.4583" cy="279.4861" fill="#C5673E" rx="8.3333" ry="8.3333" style="stroke: #B7410E; stroke-width: 2.0833333333333335;"/><text fill="#4D4D4D" font-family="Verdana" font-size="12.5" lengthAdjust="spacingAndGlyphs" textLength="22.9167" x="50" y="318.0949">FTP</text><!--MD5=[0e2cc1aee2c7f52697e111b4fb84546c]
entity Second Component--><rect fill="url(#gwvi3emlcg3763)" height="52.6917" rx="7.8125" ry="7.8125" style="stroke: #B7B6B5; stroke-width: 1.5625;" width="165.625" x="106.7708" y="252.9236"/><rect fill="url(#gwvi3emlcg3763)" height="5.2083" style="stroke: #B7B6B5; stroke-width: 1.5625;" width="10.4167" x="101.5625" y="258.1319"/><rect fill="url(#gwvi3emlcg3763)" height="5.2083" style="stroke: #B7B6B5; stroke-width: 1.5625;" width="10.4167" x="101.5625" y="295.1986"/><text fill="#4682B4" font-family="Verdana" font-size="12.5" lengthAdjust="spacingAndGlyphs" textLength="128.125" x="125.5208" y="284.2407">Second Component</text><!--MD5=[243c1e580c31013c48b02624e18b25a7]
entity Example 1--><rect fill="url(#gwvi3emlcg3763)" height="52.6917" rx="7.8125" ry="7.8125" style="stroke: #B7B6B5; stroke-width: 1.5625;" width="105.2083" x="308.8542" y="252.9236"/><rect fill="url(#gwvi3emlcg3763)" height="5.2083" style="stroke: #B7B6B5; stroke-width: 1.5625;" width="10.4167" x="303.6458" y="258.1319"/><rect fill="url(#gwvi3emlcg3763)" height="5.2083" style="stroke: #B7B6B5; stroke-width: 1.5625;" width="10.4167" x="303.6458" y="295.1986"/><text fill="#4682B4" font-family="Verdana" font-size="12.5" lengthAdjust="spacingAndGlyphs" textLength="67.7083" x="327.6042" y="284.2407">Example 1</text><!--MD5=[3e0e08c92570480402984701ab5a6d2d]
entity Folder 3--><rect fill="url(#gwvi3emlcg3763)" height="52.6917" rx="7.8125" ry="7.8125" style="stroke: #B7B6B5; stroke-width: 1.5625;" width="90.625" x="316.1458" y="433.6528"/><rect fill="url(#gwvi3emlcg3763)" height="5.2083" style="stroke: #B7B6B5; stroke-width: 1.5625;" width="10.4167" x="310.9375" y="438.8611"/><rect fill="url(#gwvi3emlcg3763)" height="5.2083" style="stroke: #B7B6B5; stroke-width: 1.5625;" width="10.4167" x="310.9375" y="475.9277"/><text fill="#4682B4" font-family="Verdana" font-size="12.5" lengthAdjust="spacingAndGlyphs" textLength="53.125" x="334.8958" y="464.9699">Folder 3</text><!--MD5=[63877ed85df621d134a6c80fb52dad56]
entity Frame 4--><rect fill="url(#gwvi3emlcg3763)" height="52.6917" rx="7.8125" ry="7.8125" style="stroke: #B7B6B5; stroke-width: 1.5625;" width="90.625" x="316.1458" y="549.2778"/><rect fill="url(#gwvi3emlcg3763)" height="5.2083" style="stroke: #B7B6B5; stroke-width: 1.5625;" width="10.4167" x="310.9375" y="554.4861"/><rect fill="url(#gwvi3emlcg3763)" height="5.2083" style="stroke: #B7B6B5; stroke-width: 1.5625;" width="10.4167" x="310.9375" y="591.5527"/><text fill="#4682B4" font-family="Verdana" font-size="12.5" lengthAdjust="spacingAndGlyphs" textLength="53.125" x="334.8958" y="580.5949">Frame 4</text><!--MD5=[4d6c9a8b502f46c0f85d26a51e5d57ce]
entity My Artifact--><rect fill="url(#gwvi3emlcg3760)" height="55.8167" rx="7.8125" ry="7.8125" style="stroke: #9A9A9A; stroke-width: 1.5625;" width="115.625" x="467.1875" y="115.9444"/><polygon fill="url(#gwvi3emlcg3760)" points="565.1042,121.1528,565.1042,135.7361,577.6042,135.7361,577.6042,127.4028,571.3542,121.1528,565.1042,121.1528" style="stroke: #9A9A9A; stroke-width: 1.5625;"/><line style="stroke: #9A9A9A; stroke-width: 1.5625;" x1="571.3542" x2="571.3542" y1="121.1528" y2="127.4028"/><line style="stroke: #9A9A9A; stroke-width: 1.5625;" x1="577.6042" x2="571.3542" y1="127.4028" y2="127.4028"/><text fill="#FDFDFD" font-family="Verdana" font-size="12.5" lengthAdjust="spacingAndGlyphs" textLength="67.7083" x="485.9375" y="150.3866">My Artifact</text><!--MD5=[6013850653c05993d855a7b82b2ebd6f]
entity My Storage--><rect fill="url(#gwvi3emlcg3764)" height="52.6917" rx="36.4583" ry="36.4583" style="stroke: #CCAC00; stroke-width: 1.5625;" width="111.4583" x="619.2708" y="117.5069"/><text fill="#FDFDFD" font-family="Verdana" font-size="12.5" lengthAdjust="spacingAndGlyphs" textLength="73.9583" x="638.0208" y="148.8241">My Storage</text><!--MD5=[decf897d207c1b699121f5d4005ef96e]
entity My Queue--><path d="M772.3958,122.7153 L865.1042,122.7153 C870.3125,122.7153 870.3125,143.8527 870.3125,143.8527 C870.3125,143.8527 870.3125,164.9902 865.1042,164.9902 L772.3958,164.9902 C767.1875,164.9902 767.1875,143.8527 767.1875,143.8527 C767.1875,143.8527 767.1875,122.7153 772.3958,122.7153 " fill="url(#gwvi3emlcg3763)" style="stroke: #B7B6B5; stroke-width: 1.5625;"/><path d="M865.1042,122.7153 C859.8958,122.7153 859.8958,143.8527 859.8958,143.8527 C859.8958,164.9902 865.1042,164.9902 865.1042,164.9902 " fill="none" style="stroke: #B7B6B5; stroke-width: 1.5625;"/><text fill="#4682B4" font-family="Verdana" font-size="12.5" lengthAdjust="spacingAndGlyphs" textLength="65.625" x="780.7292" y="148.8241">My Queue</text><!--MD5=[db0b4290d55c456da6f1e605315daa68]
entity My Interface--><ellipse cx="525" cy="279.4861" fill="#C5673E" rx="8.3333" ry="8.3333" style="stroke: #B7410E; stroke-width: 2.0833333333333335;"/><text fill="#4D4D4D" font-family="Verdana" font-size="12.5" lengthAdjust="spacingAndGlyphs" textLength="81.25" x="484.375" y="318.0949">My Interface</text><!--MD5=[c42dbb279bb2c76edeffd08640135261]
entity My Card--><rect fill="url(#gwvi3emlcg3765)" height="38.1083" rx="7.8125" ry="7.8125" style="stroke: #4682B4; stroke-width: 1.5625;" width="90.625" x="619.2708" y="260.2153"/><text fill="#FDFDFD" font-family="Verdana" font-size="12.5" lengthAdjust="spacingAndGlyphs" textLength="53.125" x="638.0208" y="284.2407">My Card</text><!--MD5=[4552e0ab931d4db86ba1ccdf7169c968]
entity My File--><path d="M746.875,260.7361 L746.875,297.8027 A7.8125,7.8125 0 0 0 754.6875,305.6152 L820.3125,305.6152 A7.8125,7.8125 0 0 0 828.125,297.8027 L828.125,263.3403 L817.7083,252.9236 L754.6875,252.9236 A7.8125,7.8125 0 0 0 746.875,260.7361 " fill="url(#gwvi3emlcg3760)" style="stroke: #737373; stroke-width: 1.5625;"/><path d="M817.7083,252.9236 L817.7083,255.5278 A7.8125,7.8125 0 0 0 825.5208,263.3403 L828.125,263.3403 " fill="url(#gwvi3emlcg3760)" style="stroke: #737373; stroke-width: 1.5625;"/><text fill="#F2F2F2" font-family="Verdana" font-size="12.5" lengthAdjust="spacingAndGlyphs" textLength="43.75" x="765.625" y="284.2407">My File</text><!--MD5=[5a51615613d2b2569e36ac803df4b251]
entity My Stack--><rect fill="url(#gwvi3emlcg3763)" height="52.6917" rx="7.8125" ry="7.8125" style="stroke: none; stroke-width: 1.5625;" width="94.7917" x="477.6042" y="433.6528"/><path d="M461.9792,433.6528 L469.7917,433.6528 A7.8125,7.8125 0 0 1 477.6042,441.4653 L477.6042,478.5319 A7.8125,7.8125 0 0 0 485.4167,486.3444 L564.5833,486.3444 A7.8125,7.8125 0 0 0 572.3958,478.5319 L572.3958,441.4653 A7.8125,7.8125 0 0 1 580.2083,433.6528 L588.0208,433.6528 " fill="none" style="stroke: #B7B6B5; stroke-width: 1.5625;"/><text fill="#4682B4" font-family="Verdana" font-size="12.5" lengthAdjust="spacingAndGlyphs" textLength="57.2917" x="496.3542" y="464.9699">My Stack</text><!--MD5=[46d996859f59e5baf77956ce93023cee]
link HTTP to First Component--><path d="M204.9944,144.0694 C193.0377,144.0694 181.081,144.0694 169.1244,144.0694 " fill="none" id="HTTP-First Component" style="stroke: #E5E4E2; stroke-width: 3.125;"/><!--MD5=[1966a42bb49d59057147dbda06282f4b]
link FTP to Second Component--><path d="M70.9676,279.4861 C82.8601,279.4861 94.7525,279.4861 106.645,279.4861 " fill="none" id="FTP-Second Component" style="stroke: #E5E4E2; stroke-width: 3.125;"/><!--MD5=[d3aefbd8005e27b21e7ce98ddd948193]
link First Component to FTP--><path d="M89.042,170.8234 C81.8991,198.9621 70.919,242.217 65.205,264.7267 " fill="none" id="First Component-&gt;FTP" style="stroke: #E5E4E2; stroke-width: 3.125;"/><polygon fill="#E5E4E2" points="63.8713,269.9807,70.2166,261.9191,65.1528,264.9325,62.1395,259.8687,63.8713,269.9807" style="stroke: #E5E4E2; stroke-width: 3.125;"/><!--MD5=[efc1ffe8b578a0fb156c7bce303319bb]
link Another Component to Example 1--><path d="M348.9203,170.8234 C351.4563,192.8018 355.0564,224.0022 357.7488,247.3362 " fill="none" id="Another Component-&gt;Example 1" style="stroke: #E5E4E2; stroke-width: 3.125;"/><polygon fill="#E5E4E2" points="358.3777,252.7876,361.4423,242.9968,357.7807,247.6136,353.1639,243.9521,358.3777,252.7876" style="stroke: #E5E4E2; stroke-width: 3.125;"/><!--MD5=[7ec8393a78a133520e8846dd05a7857a]
link Example 1 to Folder 3--><path d="M361.4583,306.1533 C361.4583,338.588 361.4583,393.2986 361.4583,428.0407 " fill="none" id="Example 1-&gt;Folder 3" style="stroke: #E5E4E2; stroke-width: 3.125;"/><polygon fill="#E5E4E2" points="361.4583,433.4386,365.625,424.0636,361.4583,428.2303,357.2917,424.0636,361.4583,433.4386" style="stroke: #E5E4E2; stroke-width: 3.125;"/><!--MD5=[b96c7096199393c1414a8b4e9ed2c30f]
link Folder 3 to Frame 4--><path d="M361.4583,487.0325 C361.4583,503.9609 361.4583,525.9231 361.4583,543.7714 " fill="none" id="Folder 3-&gt;Frame 4" style="stroke: #E5E4E2; stroke-width: 3.125;"/><polygon fill="#E5E4E2" points="361.4583,549.1684,365.625,539.7934,361.4583,543.96,357.2917,539.7934,361.4583,549.1684" style="stroke: #E5E4E2; stroke-width: 3.125;"/><!--MD5=[b21a3c93c2a22c7ef4934ace81b9a2fe]
link My Artifact to My Storage--><!--MD5=[e181977624df3f2540e75050355d9c90]
link My Storage to My Queue--><!--MD5=[756be6e13c059af04edf2b7b91188131]
link My Artifact to My Interface--><!--MD5=[9bfee3aea78949ae207e8bd3b67fed50]
link My Interface to My Card--><!--MD5=[7d5148706a659d88e9a451ba2a45522c]
link My Card to My File--><!--MD5=[25b27bb9c6f1602048cde482562a8061]
link My Interface to My Stack--><!--MD5=[c4e265633e7f51ed7e3868845a3bc8d4]
@startuml



skinparam backgroundColor transparent










skinparam defaultFontName        "Verdana"
skinparam defaultFontSize        12
skinparam dpi                    100
skinparam shadowing              false
skinparam roundcorner            15
skinparam ParticipantPadding     30
skinparam BoxPadding             30
skinparam Padding                8
skinparam ArrowColor             #737373
skinparam stereotype {
    CBackgroundColor #cdcdcd
    CBorderColor #9a9a9a
    ABackgroundColor #5cad5c
    ABorderColor #297a29
    IBackgroundColor #c5673e
    IBorderColor #92340b
    EBackgroundColor #ffdf33
    EBorderColor #ccac00
    NBackgroundColor #5c85ad
    NBorderColor #29527a
}
skinparam title {
	FontColor	                 #fdfdfd
	BorderColor	                 #9a9a9a
	FontSize	    	         20
	BorderRoundCorner            8
	BorderThickness 	         1
	BackgroundColor              #cdcdcd-#9a9a9a
}


skinparam legend {
	BackgroundColor #eae9e8-#E5E4E2
	BorderColor #9a9a9a
	FontColor #4682b4
}

skinparam activity {
		FontColor #4682b4
	BorderColor #b7b6b5
	BackgroundColor #E5E4E2-#b7b6b5
	BarColor #CD7F32
	StartColor #4682b4
	EndColor #4682b4
	DiamondBackgroundColor #c0c0c0-#9a9a9a
  	DiamondBorderColor #9a9a9a
	DiamondFontColor #fdfdfd
}

skinparam participant {
		FontColor #4682b4
	BorderColor #b7b6b5
	BackgroundColor #E5E4E2-#b7b6b5
	ParticipantBorderThickness 2
}

skinparam actor {
		FontColor #4682b4
	BorderColor #b7b6b5
	BackgroundColor #E5E4E2-#b7b6b5
	FontColor #4d4d4d
}

skinparam arrow {
	Thickness 3
	Color #E5E4E2
	FontColor #4d4d4d
}

skinparam sequence {
	BorderColor #E5E4E2
	TitleFontColor #fdfdfd
	BackgroundColor transparent
	StartColor #E5E4E2
	EndColor #E5E4E2
	BoxBackgroundColor #f2f2f2
	BoxBorderColor #737373
	BoxFontColor #4d4d4d
	LifeLineBorderColor #9a9a9a
	LifeLineBorderThickness 3
	LifeLineBackgroundColor #cdcdcd-#9a9a9a
	GroupBorderColor #737373
	GroupFontColor #4d4d4d
	GroupHeaderFontColor #4682b4
	DividerBackgroundColor #fdfdfd-#f2f2f2
    DividerBorderColor #737373
    DividerBorderThickness 2
    DividerFontColor #4d4d4d
	ReferenceBackgroundColor transparent
	ReferenceBorderColor #737373
	ReferenceFontColor #4d4d4d
	ReferenceHeaderFontColor #4682b4
}

skinparam partition {
	BorderColor #E5E4E2
	FontColor #b7b6b5
	BackgroundColor transparent
}

skinparam collections {
		FontColor #4682b4
	BorderColor #b7b6b5
	BackgroundColor #E5E4E2-#b7b6b5
}

skinparam control {
		FontColor #4682b4
	BorderColor #b7b6b5
	BackgroundColor #E5E4E2-#b7b6b5
	FontColor #4d4d4d
}

skinparam entity {
		FontColor #4682b4
	BorderColor #b7b6b5
	BackgroundColor #E5E4E2-#b7b6b5
	FontColor #4d4d4d
}

skinparam boundary {
		FontColor #4682b4
	BorderColor #b7b6b5
	BackgroundColor #E5E4E2-#b7b6b5
	FontColor #4d4d4d
}

skinparam agent {
	BackgroundColor #orange
	BorderColor #999999
	FontColor #333333
}

skinparam note {
	BorderThickness 1
	BackgroundColor #c0d0e5-#8d9db2
	BorderColor #8d9db2
	FontColor #fdfdfd
}

skinparam artifact {
	BackgroundColor #cdcdcd-#9a9a9a
	BorderColor #9a9a9a
	FontColor #fdfdfd
}

skinparam component {
		FontColor #4682b4
	BorderColor #b7b6b5
	BackgroundColor #E5E4E2-#b7b6b5
}

skinparam interface {
	BackgroundColor  #c5673e
	BorderColor  #B7410E
	FontColor #4d4d4d
}

skinparam storage {
	BackgroundColor #ffdf33-#ccac00
  	BorderColor #ccac00
	FontColor #fdfdfd
}

skinparam node {
	BackgroundColor #eae9e8-#E5E4E2
	BorderColor #E5E4E2
	FontColor #4d4d4d
}

skinparam cloud {
	BackgroundColor #F2FCFE-#eeeeee
	BorderColor #F2FCFE
	FontColor #4d4d4d
}

skinparam database {
		FontColor #4682b4
	BorderColor #b7b6b5
	BackgroundColor #E5E4E2-#b7b6b5
	FontColor #4d4d4d
}

skinparam class {
		FontColor #4682b4
	BorderColor #b7b6b5
	BackgroundColor #E5E4E2-#b7b6b5
	HeaderBackgroundColor #eae9e8-#b7b6b5
	StereotypeFontColor #4d4d4d
	BorderThickness 1
	AttributeFontColor #4d4d4d
	AttributeFontSize 11
}

skinparam object {
		FontColor #4682b4
	BorderColor #b7b6b5
	BackgroundColor #E5E4E2-#b7b6b5
	StereotypeFontColor #f2f2f2
	BorderThickness 1
	AttributeFontColor #fdfdfd
	AttributeFontSize 11
}

skinparam usecase {
		FontColor #4682b4
	BorderColor #b7b6b5
	BackgroundColor #E5E4E2-#b7b6b5
	BorderThickness 2
	StereotypeFontColor #E5E4E2
}

skinparam rectangle {
		FontColor #4682b4
	BorderColor #b7b6b5
	BackgroundColor #E5E4E2-#b7b6b5
	BackgroundColor #fdfdfd-#f2f2f2
	BorderThickness 2
	StereotypeFontColor #E5E4E2
}

skinparam package {
		FontColor #4682b4
	BorderColor #b7b6b5
	BackgroundColor #E5E4E2-#b7b6b5
	BackgroundColor #eae9e8-#E5E4E2
	BorderThickness 2
}

skinparam folder {
	BackgroundColor #eae9e8-#E5E4E2
  	BorderColor #B7410E
	FontColor #B7410E
	BorderThickness 2
}

skinparam frame {
	BackgroundColor #eae9e8-#E5E4E2
  	BorderColor #4682b4
	FontColor #4682b4
	BorderThickness 2
}

skinparam state {
		FontColor #4682b4
	BorderColor #b7b6b5
	BackgroundColor #E5E4E2-#b7b6b5
	StartColor #4682b4
	EndColor #4682b4
	AttributeFontColor #c0c0c0
    AttributeFontSize 11
}

skinparam queue {
		FontColor #4682b4
	BorderColor #b7b6b5
	BackgroundColor #E5E4E2-#b7b6b5
}

skinparam card {
	BackgroundColor #5c85ad-#29527a
	BorderColor #4682b4
	FontColor #fdfdfd
}

skinparam file {
	BackgroundColor #cdcdcd-#9a9a9a
	BorderColor #737373
	FontColor #f2f2f2

}

skinparam stack {
		FontColor #4682b4
	BorderColor #b7b6b5
	BackgroundColor #E5E4E2-#b7b6b5
}

title Component Diagram - metal theme


package "My Package" {
  HTTP - [First Component]
  [Another Component]
}
 
node "My Node" {
  FTP - [Second Component]
  [First Component] - -> FTP
} 

cloud "My Cloud" {
  [Example 1]
}


database "My Database" {
  folder "My folder" {
	[Folder 3]
  }
  frame "My Frame" {
	[Frame 4]
  }
}

artifact "My Artifact"
storage "My Storage"
queue "My Queue"
interface "My Interface"
card "My Card"
file "My File"
stack "My Stack"

[Another Component] - -> [Example 1]
[Example 1] - -> [Folder 3]
[Folder 3] - -> [Frame 4]

@enduml

PlantUML version 1.2020.00(Sat Jan 11 04:30:53 PST 2020)
(GPL source distribution)
Java Runtime: OpenJDK Runtime Environment
JVM: OpenJDK 64-Bit Server VM
Java Version: 11.0.5+10-post-Ubuntu-0ubuntu1.118.04
Operating System: Linux
Default Encoding: UTF-8
Language: en
Country: US
--></g></svg>