<?xml version="1.0" encoding="UTF-8" standalone="no"?><svg xmlns="http://www.w3.org/2000/svg" xmlns:xlink="http://www.w3.org/1999/xlink" contentScriptType="application/ecmascript" contentStyleType="text/css" height="758.3333px" preserveAspectRatio="none" style="width:900px;height:758px;" version="1.1" viewBox="0 0 900 758" width="900px" zoomAndPan="magnify"><defs><linearGradient id="g6g9l9o1bc0fw0" x1="50%" x2="50%" y1="0%" y2="100%"><stop offset="0%" stop-color="#CDCDCD"/><stop offset="100%" stop-color="#9A9A9A"/></linearGradient><linearGradient id="g6g9l9o1bc0fw1" x1="50%" x2="50%" y1="0%" y2="100%"><stop offset="0%" stop-color="#CDCDCD"/><stop offset="100%" stop-color="#C0C0C0"/></linearGradient><linearGradient id="g6g9l9o1bc0fw2" x1="50%" x2="50%" y1="0%" y2="100%"><stop offset="0%" stop-color="#EAE9E8"/><stop offset="100%" stop-color="#B7B6B5"/></linearGradient><linearGradient id="g6g9l9o1bc0fw3" x1="50%" x2="50%" y1="0%" y2="100%"><stop offset="0%" stop-color="#FFFFFF"/><stop offset="100%" stop-color="#87CEFA"/></linearGradient><linearGradient id="g6g9l9o1bc0fw4" x1="50%" x2="50%" y1="0%" y2="100%"><stop offset="0%" stop-color="#E5E4E2"/><stop offset="100%" stop-color="#B7B6B5"/></linearGradient><linearGradient id="g6g9l9o1bc0fw5" x1="50%" x2="50%" y1="0%" y2="100%"><stop offset="0%" stop-color="#D7995B"/><stop offset="100%" stop-color="#A46628"/></linearGradient><linearGradient id="g6g9l9o1bc0fw6" x1="50%" x2="50%" y1="0%" y2="100%"><stop offset="0%" stop-color="#FFFFFF"/><stop offset="100%" stop-color="#FCFCFC"/></linearGradient><linearGradient id="g6g9l9o1bc0fw7" x1="50%" x2="50%" y1="0%" y2="100%"><stop offset="0%" stop-color="#FFDF33"/><stop offset="100%" stop-color="#CCAC00"/></linearGradient><linearGradient id="g6g9l9o1bc0fw8" x1="50%" x2="50%" y1="0%" y2="100%"><stop offset="0%" stop-color="#FFD700"/><stop offset="100%" stop-color="#CCAC00"/></linearGradient><linearGradient id="g6g9l9o1bc0fw9" x1="50%" x2="50%" y1="0%" y2="100%"><stop offset="0%" stop-color="#5C85AD"/><stop offset="100%" stop-color="#29527A"/></linearGradient></defs><g><rect fill="url(#g6g9l9o1bc0fw0)" height="52.4028" rx="4.1667" ry="4.1667" style="stroke: #9A9A9A; stroke-width: 1.0416666666666667;" width="406.25" x="250" y="2.0833"/><text fill="#FFFFFF" font-family="Verdana" font-size="20.8333" lengthAdjust="spacingAndGlyphs" textLength="372.9167" x="266.6667" y="36.5702">Component Diagram - metal theme</text><!--MD5=[98956307d0c47524864de5bf9cdc747b]
cluster My Package--><path d="M30.7292,82.6111 L120.3125,82.6111 A11.7188,11.7188 0 0 1 128.125,90.4236 L135.4167,120.7194 L456.7708,120.7194 A7.8125,7.8125 0 0 1 464.5833,128.5319 L464.5833,195.6319 A7.8125,7.8125 0 0 1 456.7708,203.4444 L30.7292,203.4444 A7.8125,7.8125 0 0 1 22.9167,195.6319 L22.9167,90.4236 A7.8125,7.8125 0 0 1 30.7292,82.6111 " fill="url(#g6g9l9o1bc0fw1)" style="stroke: #E5E4E2; stroke-width: 1.5625;"/><line style="stroke: #E5E4E2; stroke-width: 1.5625;" x1="22.9167" x2="135.4167" y1="120.7194" y2="120.7194"/><text fill="#E5E4E2" font-family="Verdana" font-size="12.5" font-weight="bold" lengthAdjust="spacingAndGlyphs" textLength="82.2917" x="35.4167" y="105.5949">My Package</text><!--MD5=[994b84a7865cf3a30290d65f6358d5f5]
cluster My Node--><polygon fill="url(#g6g9l9o1bc0fw2)" points="23.9583,238.8611,34.375,228.4444,279.1667,228.4444,279.1667,344.0694,268.75,354.4861,23.9583,354.4861,23.9583,238.8611" style="stroke: #B7B6B5; stroke-width: 1.5625;"/><line style="stroke: #B7B6B5; stroke-width: 1.5625;" x1="268.75" x2="278.125" y1="238.8611" y2="229.4861"/><line style="stroke: #B7B6B5; stroke-width: 1.5625;" x1="23.9583" x2="268.75" y1="238.8611" y2="238.8611"/><line style="stroke: #B7B6B5; stroke-width: 1.5625;" x1="268.75" x2="268.75" y1="238.8611" y2="354.4861"/><text fill="#4682B4" font-family="Verdana" font-size="12.5" font-weight="bold" lengthAdjust="spacingAndGlyphs" textLength="59.375" x="117.7083" y="262.8866">My Node</text><!--MD5=[8f762177cf9f076b8ea6eac76c5df33e]
cluster My Cloud--><path d="M321.0908,244.2221 C323.0422,237.0984 329.187,234.5686 334.489,240.8811 C336.3612,233.747 342.3032,231.8121 347.2239,237.9577 C349.8348,231.5219 356.1267,230.1378 360.5352,236.0143 C363.7977,228.7623 369.1686,229.0009 374.2019,234.0464 C379.9515,227.2012 384.4018,228.5118 388.5456,235.689 C394.1226,229.8646 398.192,232.2776 401.0574,238.5042 C406.6816,232.6105 412.4597,232.7771 415.8522,240.8655 C426.0261,235.2206 432.3541,238.3837 435.4167,249.2778 C436.9185,249.1976 437.9317,249.9008 437.2392,251.5673 C442.8145,256.1998 443.1227,260.2463 436.9987,264.6639 C443.9945,269.3808 443.5125,275.038 436.8834,279.65 C444.484,283.0208 446.1059,289.2455 438.8231,294.5534 C447.61,300.2322 446.3549,305.5152 438.7986,311.17 C443.6147,315.6884 442.544,321.7879 436.5487,324.4786 C442.969,334.9105 442.2307,343.6983 428.125,346.1528 C429.4206,345.4559 430.3286,346.2953 430.282,347.5995 C426.5013,353.7632 419.4966,353.9652 415.4303,347.9476 C412.9084,354.9119 408.5786,356.6331 402.8175,351.2587 C399.3882,358.0637 393.6103,358.6197 388.4222,353.3567 C384.4504,360.7793 379.1983,360.1301 374.2949,354.3538 C369.258,359.4439 364.6181,358.4462 362.0761,351.7643 C356.4908,357.6689 350.257,358.3114 346.9174,349.4577 C343.8269,354.9275 338.9814,355.4422 335.5518,349.8046 C324.2999,355.9084 313.7153,353.8988 312.5,338.8611 C313.6343,338.7255 314.3101,339.562 313.7693,340.629 C306.325,336.425 305.0602,329.576 312.1341,323.9487 C306.4678,320.102 305.8817,314.2073 312.833,311.044 C305.177,305.856 305.5649,300.6842 312.1716,294.9116 C304.0253,289.9157 305.6879,284.7341 311.9798,279.5578 C305.43,274.1244 306.7324,269.9557 313.7165,266.2945 C303.1238,256.0072 307.7543,246.6176 319.7917,241.9861 C321.1454,241.9688 321.8231,243.0275 321.0908,244.2221 " fill="url(#g6g9l9o1bc0fw3)" style="stroke: #FFFFFF; stroke-width: 1.5625;"/><text fill="#303030" font-family="Verdana" font-size="12.5" font-weight="bold" lengthAdjust="spacingAndGlyphs" textLength="62.5" x="342.7083" y="268.0949">My Cloud</text><!--MD5=[5435dd1da01795d79a1d1bdb7811705f]
cluster My Database--><path d="M286.4583,389.9028 C286.4583,379.4861 373.9583,379.4861 373.9583,379.4861 C373.9583,379.4861 461.4583,379.4861 461.4583,389.9028 L461.4583,735.7361 C461.4583,746.1528 373.9583,746.1528 373.9583,746.1528 C373.9583,746.1528 286.4583,746.1528 286.4583,735.7361 L286.4583,389.9028 " fill="url(#g6g9l9o1bc0fw2)" style="stroke: #B7B6B5; stroke-width: 1.5625;"/><path d="M286.4583,389.9028 C286.4583,400.3194 373.9583,400.3194 373.9583,400.3194 C373.9583,400.3194 461.4583,400.3194 461.4583,389.9028 " fill="none" style="stroke: #B7B6B5; stroke-width: 1.5625;"/><text fill="#303030" font-family="Verdana" font-size="12.5" font-weight="bold" lengthAdjust="spacingAndGlyphs" textLength="88.5417" x="329.6875" y="423.3032">My Database</text><!--MD5=[db3eb734e65e00defc1adec42c70b029]
cluster My folder--><path d="M319.2708,454.4861 L391.1458,454.4861 A11.7188,11.7188 0 0 1 398.9583,462.2986 L406.25,492.5944 L428.6458,492.5944 A7.8125,7.8125 0 0 1 436.4583,500.4069 L436.4583,567.5069 A7.8125,7.8125 0 0 1 428.6458,575.3194 L319.2708,575.3194 A7.8125,7.8125 0 0 1 311.4583,567.5069 L311.4583,462.2986 A7.8125,7.8125 0 0 1 319.2708,454.4861 " fill="url(#g6g9l9o1bc0fw4)" style="stroke: #FFD700; stroke-width: 1.5625;"/><line style="stroke: #FFD700; stroke-width: 1.5625;" x1="311.4583" x2="406.25" y1="492.5944" y2="492.5944"/><text fill="#FFD700" font-family="Verdana" font-size="12.5" font-weight="bold" lengthAdjust="spacingAndGlyphs" textLength="64.5833" x="323.9583" y="477.4699">My folder</text><!--MD5=[2f95c9c104e26437854e71862f3d840e]
cluster My Frame--><rect fill="url(#g6g9l9o1bc0fw4)" height="120.8333" rx="7.8125" ry="7.8125" style="stroke: #4682B4; stroke-width: 1.5625;" width="125" x="311.4583" y="600.3194"/><path d="M406.25,601.3611 L406.25,624.8861 L395.8333,635.3027 L311.4583,635.3027 " fill="none" style="stroke: #4682B4; stroke-width: 1.5625;"/><text fill="#4682B4" font-family="Verdana" font-size="12.5" font-weight="bold" lengthAdjust="spacingAndGlyphs" textLength="67.7083" x="322.9167" y="622.2616">My Frame</text><!--MD5=[96f7e1299d4a43069e6ed32352fcac20]
entity HTTP--><ellipse cx="231.25" cy="160.2153" fill="#C5673E" rx="8.3333" ry="8.3333" style="stroke: #B7410E; stroke-width: 2.0833333333333335;"/><text fill="#303030" font-family="Verdana" font-size="12.5" lengthAdjust="spacingAndGlyphs" textLength="32.2917" x="215.1042" y="198.8241">HTTP</text><!--MD5=[cbd7cda55f2530e2efe43ec72c097853]
entity First Component--><rect fill="url(#g6g9l9o1bc0fw5)" height="52.6917" rx="7.8125" ry="7.8125" style="stroke: #A46628; stroke-width: 1.5625;" width="145.8333" x="39.5833" y="133.6528"/><rect fill="url(#g6g9l9o1bc0fw5)" height="5.2083" style="stroke: #A46628; stroke-width: 1.5625;" width="10.4167" x="34.375" y="138.8611"/><rect fill="url(#g6g9l9o1bc0fw5)" height="5.2083" style="stroke: #A46628; stroke-width: 1.5625;" width="10.4167" x="34.375" y="175.9277"/><text fill="#FFFFFF" font-family="Verdana" font-size="12.5" lengthAdjust="spacingAndGlyphs" textLength="108.3333" x="58.3333" y="164.9699">First Component</text><!--MD5=[b9d11f23832c1491231c5b33e55ab8c6]
entity Another Component--><rect fill="url(#g6g9l9o1bc0fw5)" height="52.6917" rx="7.8125" ry="7.8125" style="stroke: #A46628; stroke-width: 1.5625;" width="169.7917" x="277.6042" y="133.6528"/><rect fill="url(#g6g9l9o1bc0fw5)" height="5.2083" style="stroke: #A46628; stroke-width: 1.5625;" width="10.4167" x="272.3958" y="138.8611"/><rect fill="url(#g6g9l9o1bc0fw5)" height="5.2083" style="stroke: #A46628; stroke-width: 1.5625;" width="10.4167" x="272.3958" y="175.9277"/><text fill="#FFFFFF" font-family="Verdana" font-size="12.5" lengthAdjust="spacingAndGlyphs" textLength="132.2917" x="296.3542" y="164.9699">Another Component</text><!--MD5=[76af18d92d7d7c0f7ebd8f4f605ac5aa]
entity FTP--><ellipse cx="50" cy="311.2569" fill="#C5673E" rx="8.3333" ry="8.3333" style="stroke: #B7410E; stroke-width: 2.0833333333333335;"/><text fill="#303030" font-family="Verdana" font-size="12.5" lengthAdjust="spacingAndGlyphs" textLength="22.9167" x="38.5417" y="349.8657">FTP</text><!--MD5=[0e2cc1aee2c7f52697e111b4fb84546c]
entity Second Component--><rect fill="url(#g6g9l9o1bc0fw5)" height="52.6917" rx="7.8125" ry="7.8125" style="stroke: #A46628; stroke-width: 1.5625;" width="165.625" x="96.3542" y="284.6944"/><rect fill="url(#g6g9l9o1bc0fw5)" height="5.2083" style="stroke: #A46628; stroke-width: 1.5625;" width="10.4167" x="91.1458" y="289.9028"/><rect fill="url(#g6g9l9o1bc0fw5)" height="5.2083" style="stroke: #A46628; stroke-width: 1.5625;" width="10.4167" x="91.1458" y="326.9694"/><text fill="#FFFFFF" font-family="Verdana" font-size="12.5" lengthAdjust="spacingAndGlyphs" textLength="128.125" x="115.1042" y="316.0116">Second Component</text><!--MD5=[243c1e580c31013c48b02624e18b25a7]
entity Example 1--><rect fill="url(#g6g9l9o1bc0fw5)" height="52.6917" rx="7.8125" ry="7.8125" style="stroke: #A46628; stroke-width: 1.5625;" width="105.2083" x="321.3542" y="284.6944"/><rect fill="url(#g6g9l9o1bc0fw5)" height="5.2083" style="stroke: #A46628; stroke-width: 1.5625;" width="10.4167" x="316.1458" y="289.9028"/><rect fill="url(#g6g9l9o1bc0fw5)" height="5.2083" style="stroke: #A46628; stroke-width: 1.5625;" width="10.4167" x="316.1458" y="326.9694"/><text fill="#FFFFFF" font-family="Verdana" font-size="12.5" lengthAdjust="spacingAndGlyphs" textLength="67.7083" x="340.1042" y="316.0116">Example 1</text><!--MD5=[3e0e08c92570480402984701ab5a6d2d]
entity Folder 3--><rect fill="url(#g6g9l9o1bc0fw5)" height="52.6917" rx="7.8125" ry="7.8125" style="stroke: #A46628; stroke-width: 1.5625;" width="90.625" x="328.6458" y="505.5278"/><rect fill="url(#g6g9l9o1bc0fw5)" height="5.2083" style="stroke: #A46628; stroke-width: 1.5625;" width="10.4167" x="323.4375" y="510.7361"/><rect fill="url(#g6g9l9o1bc0fw5)" height="5.2083" style="stroke: #A46628; stroke-width: 1.5625;" width="10.4167" x="323.4375" y="547.8027"/><text fill="#FFFFFF" font-family="Verdana" font-size="12.5" lengthAdjust="spacingAndGlyphs" textLength="53.125" x="347.3958" y="536.8449">Folder 3</text><!--MD5=[63877ed85df621d134a6c80fb52dad56]
entity Frame 4--><rect fill="url(#g6g9l9o1bc0fw5)" height="52.6917" rx="7.8125" ry="7.8125" style="stroke: #A46628; stroke-width: 1.5625;" width="90.625" x="328.6458" y="651.3611"/><rect fill="url(#g6g9l9o1bc0fw5)" height="5.2083" style="stroke: #A46628; stroke-width: 1.5625;" width="10.4167" x="323.4375" y="656.5694"/><rect fill="url(#g6g9l9o1bc0fw5)" height="5.2083" style="stroke: #A46628; stroke-width: 1.5625;" width="10.4167" x="323.4375" y="693.6361"/><text fill="#FFFFFF" font-family="Verdana" font-size="12.5" lengthAdjust="spacingAndGlyphs" textLength="53.125" x="347.3958" y="682.6782">Frame 4</text><!--MD5=[4d6c9a8b502f46c0f85d26a51e5d57ce]
entity My Artifact--><rect fill="url(#g6g9l9o1bc0fw6)" height="55.8167" rx="7.8125" ry="7.8125" style="stroke: #737373; stroke-width: 1.5625;" width="115.625" x="484.8958" y="132.0903"/><polygon fill="url(#g6g9l9o1bc0fw6)" points="582.8125,137.2986,582.8125,151.8819,595.3125,151.8819,595.3125,143.5486,589.0625,137.2986,582.8125,137.2986" style="stroke: #737373; stroke-width: 1.5625;"/><line style="stroke: #737373; stroke-width: 1.5625;" x1="589.0625" x2="589.0625" y1="137.2986" y2="143.5486"/><line style="stroke: #737373; stroke-width: 1.5625;" x1="595.3125" x2="589.0625" y1="143.5486" y2="143.5486"/><text fill="#737373" font-family="Verdana" font-size="12.5" lengthAdjust="spacingAndGlyphs" textLength="67.7083" x="503.6458" y="166.5324">My Artifact</text><!--MD5=[6013850653c05993d855a7b82b2ebd6f]
entity My Storage--><rect fill="url(#g6g9l9o1bc0fw7)" height="52.6917" rx="36.4583" ry="36.4583" style="stroke: #CCAC00; stroke-width: 1.5625;" width="111.4583" x="636.9792" y="133.6528"/><text fill="#FFFFFF" font-family="Verdana" font-size="12.5" lengthAdjust="spacingAndGlyphs" textLength="73.9583" x="655.7292" y="164.9699">My Storage</text><!--MD5=[decf897d207c1b699121f5d4005ef96e]
entity My Queue--><path d="M790.1042,138.8611 L882.8125,138.8611 C888.0208,138.8611 888.0208,159.9986 888.0208,159.9986 C888.0208,159.9986 888.0208,181.1361 882.8125,181.1361 L790.1042,181.1361 C784.8958,181.1361 784.8958,159.9986 784.8958,159.9986 C784.8958,159.9986 784.8958,138.8611 790.1042,138.8611 " fill="url(#g6g9l9o1bc0fw8)" style="stroke: #CCAC00; stroke-width: 1.5625;"/><path d="M882.8125,138.8611 C877.6042,138.8611 877.6042,159.9986 877.6042,159.9986 C877.6042,181.1361 882.8125,181.1361 882.8125,181.1361 " fill="none" style="stroke: #CCAC00; stroke-width: 1.5625;"/><text fill="#FFFFFF" font-family="Verdana" font-size="12.5" lengthAdjust="spacingAndGlyphs" textLength="65.625" x="798.4375" y="164.9699">My Queue</text><!--MD5=[db0b4290d55c456da6f1e605315daa68]
entity My Interface--><ellipse cx="542.7083" cy="311.2569" fill="#C5673E" rx="8.3333" ry="8.3333" style="stroke: #B7410E; stroke-width: 2.0833333333333335;"/><text fill="#303030" font-family="Verdana" font-size="12.5" lengthAdjust="spacingAndGlyphs" textLength="81.25" x="502.0833" y="349.8657">My Interface</text><!--MD5=[c42dbb279bb2c76edeffd08640135261]
entity My Card--><rect fill="url(#g6g9l9o1bc0fw9)" height="38.1083" rx="7.8125" ry="7.8125" style="stroke: #4682B4; stroke-width: 1.5625;" width="90.625" x="636.9792" y="291.9861"/><text fill="#FFFFFF" font-family="Verdana" font-size="12.5" lengthAdjust="spacingAndGlyphs" textLength="53.125" x="655.7292" y="316.0116">My Card</text><!--MD5=[4552e0ab931d4db86ba1ccdf7169c968]
entity My File--><path d="M764.5833,292.5069 L764.5833,329.5736 A7.8125,7.8125 0 0 0 772.3958,337.3861 L838.0208,337.3861 A7.8125,7.8125 0 0 0 845.8333,329.5736 L845.8333,295.1111 L835.4167,284.6944 L772.3958,284.6944 A7.8125,7.8125 0 0 0 764.5833,292.5069 " fill="url(#g6g9l9o1bc0fw0)" style="stroke: #737373; stroke-width: 1.5625;"/><path d="M835.4167,284.6944 L835.4167,287.2986 A7.8125,7.8125 0 0 0 843.2292,295.1111 L845.8333,295.1111 " fill="url(#g6g9l9o1bc0fw0)" style="stroke: #737373; stroke-width: 1.5625;"/><text fill="#FCFCFC" font-family="Verdana" font-size="12.5" lengthAdjust="spacingAndGlyphs" textLength="43.75" x="783.3333" y="316.0116">My File</text><!--MD5=[5a51615613d2b2569e36ac803df4b251]
entity My Stack--><rect fill="url(#g6g9l9o1bc0fw2)" height="52.6917" rx="7.8125" ry="7.8125" style="stroke: none; stroke-width: 1.5625;" width="94.7917" x="495.3125" y="505.5278"/><path d="M479.6875,505.5278 L487.5,505.5278 A7.8125,7.8125 0 0 1 495.3125,513.3403 L495.3125,550.4069 A7.8125,7.8125 0 0 0 503.125,558.2194 L582.2917,558.2194 A7.8125,7.8125 0 0 0 590.1042,550.4069 L590.1042,513.3403 A7.8125,7.8125 0 0 1 597.9167,505.5278 L605.7292,505.5278 " fill="none" style="stroke: #B7B6B5; stroke-width: 1.5625;"/><text fill="#4682B4" font-family="Verdana" font-size="12.5" lengthAdjust="spacingAndGlyphs" textLength="57.2917" x="514.0625" y="536.8449">My Stack</text><!--MD5=[46d996859f59e5baf77956ce93023cee]
link HTTP to First Component--><path d="M221.6615,160.2153 C209.7042,160.2153 197.7479,160.2153 185.7906,160.2153 " fill="none" id="HTTP-First Component" style="stroke: #E5E4E2; stroke-width: 3.125;"/><!--MD5=[1966a42bb49d59057147dbda06282f4b]
link FTP to Second Component--><path d="M59.5866,311.2569 C71.7315,311.2569 83.8763,311.2569 96.0211,311.2569 " fill="none" id="FTP-Second Component" style="stroke: #E5E4E2; stroke-width: 3.125;"/><!--MD5=[d3aefbd8005e27b21e7ce98ddd948193]
link First Component to FTP--><path d="M95.7898,186.9559 C89.6982,197.0278 83.0934,208.8528 78.125,220.1111 C66.613,246.1975 57.7571,278.4486 53.2649,296.433 " fill="none" id="First Component-&gt;FTP" style="stroke: #E5E4E2; stroke-width: 3.125;"/><polygon fill="#E5E4E2" points="52.0127,301.534,58.2933,293.4219,53.2538,296.4757,50.2,291.4362,52.0127,301.534" style="stroke: #E5E4E2; stroke-width: 3.125;"/><!--MD5=[efc1ffe8b578a0fb156c7bce303319bb]
link Another Component to Example 1--><path d="M364.4698,186.8642 C366.4375,212.4423 369.4646,251.7903 371.5677,279.1413 " fill="none" id="Another Component-&gt;Example 1" style="stroke: #E5E4E2; stroke-width: 3.125;"/><polygon fill="#E5E4E2" points="371.976,284.4444,375.4099,274.7769,371.5758,279.2515,367.1012,275.4173,371.976,284.4444" style="stroke: #E5E4E2; stroke-width: 3.125;"/><!--MD5=[7ec8393a78a133520e8846dd05a7857a]
link Example 1 to Folder 3--><path d="M373.9583,337.8205 C373.9583,378.134 373.9583,456.4319 373.9583,499.9621 " fill="none" id="Example 1-&gt;Folder 3" style="stroke: #E5E4E2; stroke-width: 3.125;"/><polygon fill="#E5E4E2" points="373.9583,505.3517,378.125,495.9767,373.9583,500.1434,369.7917,495.9767,373.9583,505.3517" style="stroke: #E5E4E2; stroke-width: 3.125;"/><!--MD5=[b96c7096199393c1414a8b4e9ed2c30f]
link Folder 3 to Frame 4--><path d="M373.9583,558.8319 C373.9583,583.109 373.9583,619.5736 373.9583,645.5455 " fill="none" id="Folder 3-&gt;Frame 4" style="stroke: #E5E4E2; stroke-width: 3.125;"/><polygon fill="#E5E4E2" points="373.9583,650.9205,378.125,641.5455,373.9583,645.7121,369.7917,641.5455,373.9583,650.9205" style="stroke: #E5E4E2; stroke-width: 3.125;"/><!--MD5=[b21a3c93c2a22c7ef4934ace81b9a2fe]
link My Artifact to My Storage--><!--MD5=[e181977624df3f2540e75050355d9c90]
link My Storage to My Queue--><!--MD5=[756be6e13c059af04edf2b7b91188131]
link My Artifact to My Interface--><!--MD5=[9bfee3aea78949ae207e8bd3b67fed50]
link My Interface to My Card--><!--MD5=[7d5148706a659d88e9a451ba2a45522c]
link My Card to My File--><!--MD5=[25b27bb9c6f1602048cde482562a8061]
link My Interface to My Stack--><!--MD5=[e3c2b67c771f2189e70d1f662921fddf]
@startuml



skinparam backgroundColor transparent









skinparam defaultFontName        "Verdana"
skinparam defaultFontSize        12
skinparam dpi                    100
skinparam shadowing              false
skinparam roundcorner            15
skinparam ParticipantPadding     30
skinparam BoxPadding             30
skinparam Padding                8
skinparam ArrowColor             #737373
skinparam title {
	FontColor	                 #FFF
	BorderColor	                 #9a9a9a
	FontSize	    	         20
	BorderRoundCorner            8
	BorderThickness 	         1
	BackgroundColor              #cdcdcd-#9a9a9a
}


skinparam legend {
	BackgroundColor #c0c0c0
	BorderColor #9a9a9a
	FontColor #FFF
}

skinparam activity {
	FontColor #4682b4
	BorderColor #b7b6b5
	BackgroundColor #E5E4E2-#b7b6b5
	BarColor #CD7F32
	StartColor #4682b4
	EndColor #4682b4
	DiamondBackgroundColor #c0c0c0-#9a9a9a
  	DiamondBorderColor #9a9a9a
	DiamondFontColor #FFF
}

skinparam sequence {
	BorderColor #E5E4E2
	TitleFontColor #FFF
	BackgroundColor transparent
	StartColor #E5E4E2
	EndColor #E5E4E2
    ParticipantBackgroundColor #eae9e8-#b7b6b5
    ParticipantBorderColor #E5E4E2
	ParticipantBorderThickness 0
	ParticipantFontColor #4682b4
	ActorBackgroundColor transparent
    ActorBorderColor #E5E4E2
	ActorFontColor #E5E4E2
	ArrowThickness 3
	ArrowColor #E5E4E2
	ArrowFontColor #303030
	BoxBackgroundColor #fcfcfc
	BoxBorderColor #737373
	BoxFontColor #303030
	LifeLineBorderColor #9a9a9a
	LifeLineBorderThickness 3
	LifeLineBackgroundColor #cdcdcd
	GroupBorderColor #737373
	GroupFontColor #303030
	GroupHeaderFontColor #4682b4
	DividerBackgroundColor #FFF-#fcfcfc
    DividerBorderColor #737373
    DividerBorderThickness 2
    DividerFontColor #303030
	ReferenceBackgroundColor transparent
	ReferenceBorderColor #737373
	ReferenceFontColor #303030
	ReferenceHeaderFontColor #4682b4
}

skinparam partition {
	BorderColor #E5E4E2
	FontColor #b7b6b5
	BackgroundColor transparent
}

skinparam collections {
	BackgroundColor #eae9e8-#b7b6b5
	BorderColor #b7b6b5
}

skinparam control {
	BackgroundColor  #eae9e8-#b7b6b5
	BorderColor #b7b6b5
	FontColor #303030
}

skinparam entity {
	BackgroundColor  #eae9e8-#b7b6b5
	BorderColor #b7b6b5
	FontColor #303030
}

skinparam boundary {
	BackgroundColor  #eae9e8-#b7b6b5
	BorderColor #b7b6b5
	FontColor #303030
}

skinparam agent {
	BackgroundColor #orange
	BorderColor #999999
	FontColor #333333
}

skinparam note {
	BorderThickness 1
	BackgroundColor #5c85ad-#29527a
	BorderColor #29527a
	FontColor #FFF
}

skinparam artifact {
	BackgroundColor #FFF-#fcfcfc
	BorderColor #737373
	FontColor #737373
}

skinparam component {
	BackgroundColor  #d7995b-#a46628
	BorderColor  #a46628
	FontColor #FFF
}

skinparam interface {
	BackgroundColor  #c5673e
	BorderColor  #B7410E
	FontColor #303030
}

skinparam storage {
	BackgroundColor #ffdf33-#ccac00
  	BorderColor #ccac00
	FontColor #FFF
}

skinparam node {
	BackgroundColor #eae9e8-#b7b6b5
	BorderColor #b7b6b5
	FontColor #4682b4
}

skinparam cloud {
	BackgroundColor white-lightskyblue
	BorderColor transparent
	FontColor #303030
}

skinparam database {
	BackgroundColor  #eae9e8-#b7b6b5
	BorderColor #b7b6b5
	FontColor #303030
}

skinparam actor {
	FontColor #303030
}

skinparam class {
	HeaderBackgroundColor #eae9e8-#b7b6b5
	FontColor #4682b4
	BackgroundColor #eae9e8-#b7b6b5
	BorderColor #b7b6b5
	StereotypeFontColor #303030
	BorderThickness 1
	AttributeFontColor #303030
	AttributeFontSize 11
}

skinparam object {
	FontColor #4682b4
	BackgroundColor #cdcdcd-#9a9a9a
	BorderColor #9a9a9a
	StereotypeFontColor #fcfcfc
	BorderThickness 1
	AttributeFontColor #FFF
	AttributeFontSize 11
}

skinparam usecase {
	BackgroundColor #cdcdcd-#c0c0c0
	BorderColor #c0c0c0
	BorderThickness 2
	FontColor #FFF
	StereotypeFontColor #E5E4E2
}

skinparam rectangle {
	BackgroundColor #E5E4E2-#b7b6b5
	BorderColor #b7b6b5
	BorderThickness 2
	FontColor #4682b4
	StereotypeFontColor #E5E4E2
}

skinparam package {
	BackgroundColor #cdcdcd-#c0c0c0
  	BorderColor #E5E4E2
	FontColor #E5E4E2
	BorderThickness 2
}

skinparam folder {
	BackgroundColor #E5E4E2-#b7b6b5
  	BorderColor #FFD700
	FontColor #FFD700
	BorderThickness 2
}

skinparam frame {
	BackgroundColor #E5E4E2-#b7b6b5
  	BorderColor #4682b4
	FontColor #4682b4
	BorderThickness 2
}

skinparam state {
	StartColor #4682b4
	EndColor #4682b4
	BackgroundColor #cdcdcd-#9a9a9a
	BorderColor #9a9a9a
	FontColor #4682b4
	AttributeFontColor #c0c0c0
    AttributeFontSize 11
}

skinparam queue {
	BackgroundColor #FFD700-#ccac00
  	BorderColor #ccac00
	FontColor #FFF
}

skinparam card {
	BackgroundColor #5c85ad-#29527a
	BorderColor #4682b4
	FontColor #FFF
}

skinparam file {
	BackgroundColor #cdcdcd-#9a9a9a
	BorderColor #737373
	FontColor #fcfcfc

}

skinparam stack {
	BackgroundColor #eae9e8-#b7b6b5
	BorderColor #b7b6b5
	FontColor #4682b4
}

title Component Diagram - metal theme


package "My Package" {
  HTTP - [First Component]
  [Another Component]
}
 
node "My Node" {
  FTP - [Second Component]
  [First Component] - -> FTP
} 

cloud "My Cloud" {
  [Example 1]
}


database "My Database" {
  folder "My folder" {
	[Folder 3]
  }
  frame "My Frame" {
	[Frame 4]
  }
}

artifact "My Artifact"
storage "My Storage"
queue "My Queue"
interface "My Interface"
card "My Card"
file "My File"
stack "My Stack"

[Another Component] - -> [Example 1]
[Example 1] - -> [Folder 3]
[Folder 3] - -> [Frame 4]

@enduml

PlantUML version 1.2019.12(Sun Nov 03 02:24:54 PST 2019)
(GPL source distribution)
Java Runtime: Java(TM) SE Runtime Environment
JVM: Java HotSpot(TM) 64-Bit Server VM
Java Version: 1.8.0_212-b32
Operating System: Windows 10
Default Encoding: Cp1252
Language: en
Country: US
--></g></svg>