<?xml version="1.0" encoding="UTF-8" standalone="no"?><svg xmlns="http://www.w3.org/2000/svg" xmlns:xlink="http://www.w3.org/1999/xlink" contentScriptType="application/ecmascript" contentStyleType="text/css" height="1607.2917px" preserveAspectRatio="none" style="width:1342px;height:1607px;" version="1.1" viewBox="0 0 1342 1607" width="1342.7083px" zoomAndPan="magnify"><defs><linearGradient id="gx6axi61wegvh0" x1="50%" x2="50%" y1="0%" y2="100%"><stop offset="0%" stop-color="#CDCDCD"/><stop offset="100%" stop-color="#9A9A9A"/></linearGradient><linearGradient id="gx6axi61wegvh1" x1="50%" x2="50%" y1="0%" y2="100%"><stop offset="0%" stop-color="#EAE9E8"/><stop offset="100%" stop-color="#B7B6B5"/></linearGradient><linearGradient id="gx6axi61wegvh2" x1="50%" x2="50%" y1="0%" y2="100%"><stop offset="0%" stop-color="#FDFDFD"/><stop offset="100%" stop-color="#FCFCFC"/></linearGradient><linearGradient id="gx6axi61wegvh3" x1="50%" x2="50%" y1="0%" y2="100%"><stop offset="0%" stop-color="#5C85AD"/><stop offset="100%" stop-color="#29527A"/></linearGradient></defs><g><rect fill="url(#gx6axi61wegvh0)" height="42.275" rx="4.1667" ry="4.1667" style="stroke: #9A9A9A; stroke-width: 1.0416666666666667;" width="262.5" x="534.8958" y="30.8167"/><text fill="#FDFDFD" font-family="Verdana" font-size="12.5" font-weight="bold" lengthAdjust="spacingAndGlyphs" textLength="229.1667" x="551.5625" y="56.9255">Sequence Diagram - metal theme</text><rect fill="#FCFCFC" height="1492.3828" rx="7.8125" ry="7.8125" style="stroke: #737373; stroke-width: 1.0416666666666667;" width="310.4167" x="982.2917" y="84.55"/><text fill="#4D4D4D" font-family="Verdana" font-size="12.5" font-weight="bold" lengthAdjust="spacingAndGlyphs" textLength="111.4583" x="1081.7708" y="105.4504">Internal Service</text><rect fill="url(#gx6axi61wegvh0)" height="280.2999" style="stroke: #9A9A9A; stroke-width: 1.0416666666666667;" width="10.4167" x="420.3125" y="363.0249"/><line style="stroke: #9A9A9A; stroke-width: 1.0416666666666667;" x1="71.875" x2="71.875" y1="180.9916" y2="651.6581"/><line style="stroke: #9A9A9A; stroke-width: 1.0416666666666667; stroke-dasharray: 1.0,4.0;" x1="71.875" x2="71.875" y1="651.6581" y2="712.6831"/><line style="stroke: #9A9A9A; stroke-width: 1.0416666666666667;" x1="71.875" x2="71.875" y1="712.6831" y2="1476.3245"/><line style="stroke: #9A9A9A; stroke-width: 1.0416666666666667;" x1="257.2917" x2="257.2917" y1="180.9916" y2="651.6581"/><line style="stroke: #9A9A9A; stroke-width: 1.0416666666666667; stroke-dasharray: 1.0,4.0;" x1="257.2917" x2="257.2917" y1="651.6581" y2="712.6831"/><line style="stroke: #9A9A9A; stroke-width: 1.0416666666666667;" x1="257.2917" x2="257.2917" y1="712.6831" y2="1476.3245"/><line style="stroke: #9A9A9A; stroke-width: 1.0416666666666667;" x1="425" x2="425" y1="180.9916" y2="651.6581"/><line style="stroke: #9A9A9A; stroke-width: 1.0416666666666667; stroke-dasharray: 1.0,4.0;" x1="425" x2="425" y1="651.6581" y2="712.6831"/><line style="stroke: #9A9A9A; stroke-width: 1.0416666666666667;" x1="425" x2="425" y1="712.6831" y2="1476.3245"/><line style="stroke: #9A9A9A; stroke-width: 1.0416666666666667;" x1="590.625" x2="590.625" y1="180.9916" y2="651.6581"/><line style="stroke: #9A9A9A; stroke-width: 1.0416666666666667; stroke-dasharray: 1.0,4.0;" x1="590.625" x2="590.625" y1="651.6581" y2="712.6831"/><line style="stroke: #9A9A9A; stroke-width: 1.0416666666666667;" x1="590.625" x2="590.625" y1="712.6831" y2="1476.3245"/><line style="stroke: #9A9A9A; stroke-width: 1.0416666666666667;" x1="776.0417" x2="776.0417" y1="180.9916" y2="651.6581"/><line style="stroke: #9A9A9A; stroke-width: 1.0416666666666667; stroke-dasharray: 1.0,4.0;" x1="776.0417" x2="776.0417" y1="651.6581" y2="712.6831"/><line style="stroke: #9A9A9A; stroke-width: 1.0416666666666667;" x1="776.0417" x2="776.0417" y1="712.6831" y2="1476.3245"/><line style="stroke: #9A9A9A; stroke-width: 1.0416666666666667;" x1="879.1667" x2="879.1667" y1="180.9916" y2="651.6581"/><line style="stroke: #9A9A9A; stroke-width: 1.0416666666666667; stroke-dasharray: 1.0,4.0;" x1="879.1667" x2="879.1667" y1="651.6581" y2="712.6831"/><line style="stroke: #9A9A9A; stroke-width: 1.0416666666666667;" x1="879.1667" x2="879.1667" y1="712.6831" y2="1476.3245"/><line style="stroke: #9A9A9A; stroke-width: 1.0416666666666667;" x1="1045.8333" x2="1045.8333" y1="180.9916" y2="651.6581"/><line style="stroke: #9A9A9A; stroke-width: 1.0416666666666667; stroke-dasharray: 1.0,4.0;" x1="1045.8333" x2="1045.8333" y1="651.6581" y2="712.6831"/><line style="stroke: #9A9A9A; stroke-width: 1.0416666666666667;" x1="1045.8333" x2="1045.8333" y1="712.6831" y2="1476.3245"/><line style="stroke: #9A9A9A; stroke-width: 1.0416666666666667;" x1="1202.0833" x2="1202.0833" y1="180.9916" y2="651.6581"/><line style="stroke: #9A9A9A; stroke-width: 1.0416666666666667; stroke-dasharray: 1.0,4.0;" x1="1202.0833" x2="1202.0833" y1="651.6581" y2="712.6831"/><line style="stroke: #9A9A9A; stroke-width: 1.0416666666666667;" x1="1202.0833" x2="1202.0833" y1="712.6831" y2="1476.3245"/><text fill="#4D4D4D" font-family="Verdana" font-size="12.5" lengthAdjust="spacingAndGlyphs" textLength="32.2917" x="53.125" y="170.0338">Foo1</text><ellipse cx="72.3958" cy="93.925" fill="#FFFFFF" rx="8.3333" ry="8.3333" style="stroke: #E5E4E2; stroke-width: 2.0833333333333335;"/><path d="M72.3958,102.2583 L72.3958,130.3833 M58.8542,110.5916 L85.9375,110.5916 M72.3958,130.3833 L58.8542,146.0083 M72.3958,130.3833 L85.9375,146.0083 " fill="none" style="stroke: #E5E4E2; stroke-width: 2.0833333333333335;"/><text fill="#4D4D4D" font-family="Verdana" font-size="12.5" lengthAdjust="spacingAndGlyphs" textLength="32.2917" x="53.125" y="1496.1833">Foo1</text><ellipse cx="72.3958" cy="1517.5578" fill="#FFFFFF" rx="8.3333" ry="8.3333" style="stroke: #E5E4E2; stroke-width: 2.0833333333333335;"/><path d="M72.3958,1525.8911 L72.3958,1554.0161 M58.8542,1534.2244 L85.9375,1534.2244 M72.3958,1554.0161 L58.8542,1569.6411 M72.3958,1554.0161 L85.9375,1569.6411 " fill="none" style="stroke: #E5E4E2; stroke-width: 2.0833333333333335;"/><text fill="#4D4D4D" font-family="Verdana" font-size="12.5" lengthAdjust="spacingAndGlyphs" textLength="32.2917" x="238.5417" y="170.0338">Foo2</text><path d="M236.4583,119.9666 L236.4583,144.9666 M236.4583,132.4666 L254.1667,132.4666 " fill="none" style="stroke: #B7B6B5; stroke-width: 2.0833333333333335;"/><ellipse cx="266.6667" cy="132.4666" fill="url(#gx6axi61wegvh1)" rx="12.5" ry="12.5" style="stroke: #B7B6B5; stroke-width: 2.0833333333333335;"/><text fill="#4D4D4D" font-family="Verdana" font-size="12.5" lengthAdjust="spacingAndGlyphs" textLength="32.2917" x="238.5417" y="1496.1833">Foo2</text><path d="M236.4583,1511.3078 L236.4583,1536.3078 M236.4583,1523.8078 L254.1667,1523.8078 " fill="none" style="stroke: #B7B6B5; stroke-width: 2.0833333333333335;"/><ellipse cx="266.6667" cy="1523.8078" fill="url(#gx6axi61wegvh1)" rx="12.5" ry="12.5" style="stroke: #B7B6B5; stroke-width: 2.0833333333333335;"/><text fill="#4D4D4D" font-family="Verdana" font-size="12.5" lengthAdjust="spacingAndGlyphs" textLength="32.2917" x="406.25" y="170.0338">Foo3</text><ellipse cx="425.5208" cy="132.4666" fill="url(#gx6axi61wegvh1)" rx="12.5" ry="12.5" style="stroke: #B7B6B5; stroke-width: 2.0833333333333335;"/><polygon fill="#B7B6B5" points="421.3542,119.9666,427.6042,114.7583,425.5208,119.9666,427.6042,125.175,421.3542,119.9666" style="stroke: #B7B6B5; stroke-width: 1.0416666666666667;"/><text fill="#4D4D4D" font-family="Verdana" font-size="12.5" lengthAdjust="spacingAndGlyphs" textLength="32.2917" x="406.25" y="1496.1833">Foo3</text><ellipse cx="425.5208" cy="1523.8078" fill="url(#gx6axi61wegvh1)" rx="12.5" ry="12.5" style="stroke: #B7B6B5; stroke-width: 2.0833333333333335;"/><polygon fill="#B7B6B5" points="421.3542,1511.3078,427.6042,1506.0994,425.5208,1511.3078,427.6042,1516.5161,421.3542,1511.3078" style="stroke: #B7B6B5; stroke-width: 1.0416666666666667;"/><text fill="#4D4D4D" font-family="Verdana" font-size="12.5" lengthAdjust="spacingAndGlyphs" textLength="32.2917" x="571.875" y="170.0338">Foo4</text><ellipse cx="591.1458" cy="132.4666" fill="url(#gx6axi61wegvh1)" rx="12.5" ry="12.5" style="stroke: #B7B6B5; stroke-width: 2.0833333333333335;"/><line style="stroke: #B7B6B5; stroke-width: 2.0833333333333335;" x1="578.6458" x2="603.6458" y1="147.05" y2="147.05"/><text fill="#4D4D4D" font-family="Verdana" font-size="12.5" lengthAdjust="spacingAndGlyphs" textLength="32.2917" x="571.875" y="1496.1833">Foo4</text><ellipse cx="591.1458" cy="1523.8078" fill="url(#gx6axi61wegvh1)" rx="12.5" ry="12.5" style="stroke: #B7B6B5; stroke-width: 2.0833333333333335;"/><line style="stroke: #B7B6B5; stroke-width: 2.0833333333333335;" x1="578.6458" x2="603.6458" y1="1538.3911" y2="1538.3911"/><text fill="#4D4D4D" font-family="Verdana" font-size="12.5" lengthAdjust="spacingAndGlyphs" textLength="32.2917" x="757.2917" y="170.0338">Foo5</text><path d="M757.8125,111.6333 C757.8125,101.2166 776.5625,101.2166 776.5625,101.2166 C776.5625,101.2166 795.3125,101.2166 795.3125,111.6333 L795.3125,138.7166 C795.3125,149.1333 776.5625,149.1333 776.5625,149.1333 C776.5625,149.1333 757.8125,149.1333 757.8125,138.7166 L757.8125,111.6333 " fill="url(#gx6axi61wegvh1)" style="stroke: #B7B6B5; stroke-width: 1.5625;"/><path d="M757.8125,111.6333 C757.8125,122.05 776.5625,122.05 776.5625,122.05 C776.5625,122.05 795.3125,122.05 795.3125,111.6333 " fill="none" style="stroke: #B7B6B5; stroke-width: 1.5625;"/><text fill="#4D4D4D" font-family="Verdana" font-size="12.5" lengthAdjust="spacingAndGlyphs" textLength="32.2917" x="757.2917" y="1496.1833">Foo5</text><path d="M757.8125,1517.5578 C757.8125,1507.1411 776.5625,1507.1411 776.5625,1507.1411 C776.5625,1507.1411 795.3125,1507.1411 795.3125,1517.5578 L795.3125,1544.6411 C795.3125,1555.0578 776.5625,1555.0578 776.5625,1555.0578 C776.5625,1555.0578 757.8125,1555.0578 757.8125,1544.6411 L757.8125,1517.5578 " fill="url(#gx6axi61wegvh1)" style="stroke: #B7B6B5; stroke-width: 1.5625;"/><path d="M757.8125,1517.5578 C757.8125,1527.9744 776.5625,1527.9744 776.5625,1527.9744 C776.5625,1527.9744 795.3125,1527.9744 795.3125,1517.5578 " fill="none" style="stroke: #B7B6B5; stroke-width: 1.5625;"/><rect fill="url(#gx6axi61wegvh1)" height="46.4417" rx="7.8125" ry="7.8125" style="stroke: #B7B6B5; stroke-width: 1.5625;" width="63.5417" x="850" y="129.3416"/><rect fill="url(#gx6axi61wegvh1)" height="46.4417" rx="7.8125" ry="7.8125" style="stroke: #B7B6B5; stroke-width: 1.5625;" width="63.5417" x="845.8333" y="133.5083"/><text fill="#4682B4" font-family="Verdana" font-size="12.5" lengthAdjust="spacingAndGlyphs" textLength="32.2917" x="861.4583" y="161.7004">Foo6</text><rect fill="url(#gx6axi61wegvh1)" height="46.4417" rx="7.8125" ry="7.8125" style="stroke: #B7B6B5; stroke-width: 1.5625;" width="63.5417" x="850" y="1475.2828"/><rect fill="url(#gx6axi61wegvh1)" height="46.4417" rx="7.8125" ry="7.8125" style="stroke: #B7B6B5; stroke-width: 1.5625;" width="63.5417" x="845.8333" y="1479.4495"/><text fill="#4682B4" font-family="Verdana" font-size="12.5" lengthAdjust="spacingAndGlyphs" textLength="32.2917" x="861.4583" y="1507.6416">Foo6</text><rect fill="url(#gx6axi61wegvh1)" height="46.4417" rx="7.8125" ry="7.8125" style="stroke: #E5E4E2; stroke-width: 0.0;" width="56.25" x="1017.7083" y="133.5083"/><text fill="#4682B4" font-family="Verdana" font-size="12.5" lengthAdjust="spacingAndGlyphs" textLength="25" x="1033.3333" y="161.7004">Bob</text><rect fill="url(#gx6axi61wegvh1)" height="46.4417" rx="7.8125" ry="7.8125" style="stroke: #E5E4E2; stroke-width: 0.0;" width="56.25" x="1017.7083" y="1475.2828"/><text fill="#4682B4" font-family="Verdana" font-size="12.5" lengthAdjust="spacingAndGlyphs" textLength="25" x="1033.3333" y="1503.4749">Bob</text><rect fill="url(#gx6axi61wegvh1)" height="44.9666" rx="7.8125" ry="7.8125" style="stroke: #E5E4E2; stroke-width: 0.0;" width="110.4167" x="1146.875" y="134.9833"/><ellipse cx="1164.5833" cy="152.6917" fill="#ADD1B2" rx="10.4167" ry="10.4167" style="stroke: #E5E4E2; stroke-width: 1.0416666666666667;"/><path d="M1166.1296,149.7782 Q1166.2435,149.6155 1166.3818,149.5341 Q1166.5202,149.4527 1166.6829,149.4527 Q1166.9596,149.4527 1167.1305,149.648 Q1167.3014,149.8433 1167.3014,150.2828 L1167.3014,151.357 Q1167.3014,151.7965 1167.1305,151.9918 Q1166.9596,152.1871 1166.6829,152.1871 Q1166.4225,152.1871 1166.276,152.0406 Q1166.1296,151.9104 1166.0482,151.5198 Q1166.0156,151.2594 1165.8854,151.1292 Q1165.625,150.8525 1165.1774,150.6897 Q1164.7298,150.5269 1164.2741,150.5269 Q1163.7207,150.5269 1163.2487,150.7711 Q1162.7767,151.0152 1162.4186,151.5605 Q1162.0605,152.1057 1162.0605,152.8707 L1162.0605,153.6845 Q1162.0605,154.5797 1162.7197,155.1819 Q1163.3789,155.7841 1164.5345,155.7841 Q1165.2344,155.7841 1165.7227,155.6051 Q1165.9993,155.4911 1166.3086,155.1656 Q1166.5039,154.9703 1166.6178,154.9133 Q1166.7318,154.8564 1166.862,154.8564 Q1167.1224,154.8564 1167.3096,155.0435 Q1167.4967,155.2307 1167.4967,155.4911 Q1167.4967,155.7515 1167.2363,156.0445 Q1166.862,156.4677 1166.276,156.7118 Q1165.4948,157.0374 1164.5508,157.0374 Q1163.4277,157.0374 1162.5488,156.5816 Q1161.8164,156.2236 1161.3118,155.426 Q1160.8073,154.6285 1160.8073,153.7008 L1160.8073,152.8544 Q1160.8073,151.8778 1161.263,151.0315 Q1161.7188,150.1851 1162.5244,149.7294 Q1163.3301,149.2737 1164.2253,149.2737 Q1164.7786,149.2737 1165.2507,149.3958 Q1165.7227,149.5178 1166.1296,149.7782 Z "/><text fill="#4682B4" font-family="Verdana" font-size="12.5" font-style="italic" lengthAdjust="spacingAndGlyphs" textLength="68.75" x="1181.25" y="154.775">«Testable»</text><text fill="#4682B4" font-family="Verdana" font-size="12.5" lengthAdjust="spacingAndGlyphs" textLength="29.1667" x="1201.0417" y="169.9666">Alice</text><rect fill="url(#gx6axi61wegvh1)" height="44.9666" rx="7.8125" ry="7.8125" style="stroke: #E5E4E2; stroke-width: 0.0;" width="110.4167" x="1146.875" y="1475.2828"/><ellipse cx="1164.5833" cy="1492.9911" fill="#ADD1B2" rx="10.4167" ry="10.4167" style="stroke: #E5E4E2; stroke-width: 1.0416666666666667;"/><path d="M1166.1296,1490.0777 Q1166.2435,1489.915 1166.3818,1489.8336 Q1166.5202,1489.7522 1166.6829,1489.7522 Q1166.9596,1489.7522 1167.1305,1489.9475 Q1167.3014,1490.1428 1167.3014,1490.5823 L1167.3014,1491.6565 Q1167.3014,1492.0959 1167.1305,1492.2913 Q1166.9596,1492.4866 1166.6829,1492.4866 Q1166.4225,1492.4866 1166.276,1492.3401 Q1166.1296,1492.2099 1166.0482,1491.8193 Q1166.0156,1491.5588 1165.8854,1491.4286 Q1165.625,1491.1519 1165.1774,1490.9892 Q1164.7298,1490.8264 1164.2741,1490.8264 Q1163.7207,1490.8264 1163.2487,1491.0706 Q1162.7767,1491.3147 1162.4186,1491.8599 Q1162.0605,1492.4052 1162.0605,1493.1702 L1162.0605,1493.984 Q1162.0605,1494.8792 1162.7197,1495.4814 Q1163.3789,1496.0836 1164.5345,1496.0836 Q1165.2344,1496.0836 1165.7227,1495.9045 Q1165.9993,1495.7906 1166.3086,1495.4651 Q1166.5039,1495.2698 1166.6178,1495.2128 Q1166.7318,1495.1558 1166.862,1495.1558 Q1167.1224,1495.1558 1167.3096,1495.343 Q1167.4967,1495.5302 1167.4967,1495.7906 Q1167.4967,1496.051 1167.2363,1496.344 Q1166.862,1496.7672 1166.276,1497.0113 Q1165.4948,1497.3368 1164.5508,1497.3368 Q1163.4277,1497.3368 1162.5488,1496.8811 Q1161.8164,1496.523 1161.3118,1495.7255 Q1160.8073,1494.928 1160.8073,1494.0002 L1160.8073,1493.1539 Q1160.8073,1492.1773 1161.263,1491.331 Q1161.7188,1490.4846 1162.5244,1490.0289 Q1163.3301,1489.5732 1164.2253,1489.5732 Q1164.7786,1489.5732 1165.2507,1489.6952 Q1165.7227,1489.8173 1166.1296,1490.0777 Z "/><text fill="#4682B4" font-family="Verdana" font-size="12.5" font-style="italic" lengthAdjust="spacingAndGlyphs" textLength="68.75" x="1181.25" y="1495.0745">«Testable»</text><text fill="#4682B4" font-family="Verdana" font-size="12.5" lengthAdjust="spacingAndGlyphs" textLength="29.1667" x="1201.0417" y="1510.2661">Alice</text><rect fill="url(#gx6axi61wegvh0)" height="280.2999" style="stroke: #9A9A9A; stroke-width: 1.0416666666666667;" width="10.4167" x="420.3125" y="363.0249"/><rect fill="url(#gx6axi61wegvh2)" height="3.125" style="stroke: url(#gx6axi61wegvh2); stroke-width: 1.0416666666666667;" width="1327.0833" x="3.125" y="220.8791"/><line style="stroke: #737373; stroke-width: 1.0416666666666667;" x1="3.125" x2="1330.2083" y1="220.8791" y2="220.8791"/><line style="stroke: #737373; stroke-width: 1.0416666666666667;" x1="3.125" x2="1330.2083" y1="224.0041" y2="224.0041"/><rect fill="url(#gx6axi61wegvh2)" height="40.1917" style="stroke: #737373; stroke-width: 2.0833333333333335;" width="121.875" x="605.7292" y="201.825"/><text fill="#4D4D4D" font-family="Verdana" font-size="12.5" font-weight="bold" lengthAdjust="spacingAndGlyphs" textLength="86.4583" x="620.3125" y="226.8921">Initialization</text><polygon fill="#E5E4E2" points="245.3125,286.3749,255.7292,290.5416,245.3125,294.7083,249.4792,290.5416" style="stroke: #E5E4E2; stroke-width: 1.0416666666666667;"/><line style="stroke: #E5E4E2; stroke-width: 3.125;" x1="72.3958" x2="251.5625" y1="290.5416" y2="290.5416"/><text fill="#4D4D4D" font-family="Verdana" font-size="12.5" font-weight="bold" lengthAdjust="spacingAndGlyphs" textLength="40.625" x="88.0208" y="277.5004">[001]</text><text fill="#4D4D4D" font-family="Verdana" font-size="12.5" lengthAdjust="spacingAndGlyphs" textLength="82.2917" x="149.4792" y="277.5004">To boundary</text><polygon fill="#E5E4E2" points="407.8125,358.8582,418.2292,363.0249,407.8125,367.1916,411.9792,363.0249" style="stroke: #E5E4E2; stroke-width: 1.0416666666666667;"/><line style="stroke: #E5E4E2; stroke-width: 3.125;" x1="257.8125" x2="414.0625" y1="363.0249" y2="363.0249"/><text fill="#4D4D4D" font-family="Verdana" font-size="12.5" font-weight="bold" lengthAdjust="spacingAndGlyphs" textLength="40.625" x="273.4375" y="349.9837">[002]</text><text fill="#4D4D4D" font-family="Verdana" font-size="12.5" lengthAdjust="spacingAndGlyphs" textLength="64.5833" x="334.8958" y="349.9837">To control</text><rect fill="#FFFFFF" height="89.325" style="stroke: #737373; stroke-width: 2.0833333333333335;" width="246.875" x="560.4167" y="371.3582"/><polygon fill="#EEEEEE" points="560.4167,371.3582,643.75,371.3582,643.75,394.2749,633.3333,404.6916,560.4167,404.6916,560.4167,371.3582" style="stroke: #737373; stroke-width: 2.0833333333333335;"/><text fill="#4682B4" font-family="Verdana" font-size="12.5" font-weight="bold" lengthAdjust="spacingAndGlyphs" textLength="19.7917" x="582.2917" y="394.342">ref</text><text fill="#4D4D4D" font-family="Verdana" font-size="12.5" lengthAdjust="spacingAndGlyphs" textLength="94.7917" x="636.4583" y="429.7587">This can be on</text><text fill="#4D4D4D" font-family="Verdana" font-size="12.5" lengthAdjust="spacingAndGlyphs" textLength="82.2917" x="636.4583" y="444.9504">several lines</text><polygon fill="#E5E4E2" points="578.6458,499.8332,589.0625,503.9998,578.6458,508.1665,582.8125,503.9998" style="stroke: #E5E4E2; stroke-width: 1.0416666666666667;"/><line style="stroke: #E5E4E2; stroke-width: 3.125;" x1="430.7292" x2="584.8958" y1="503.9998" y2="503.9998"/><text fill="#4D4D4D" font-family="Verdana" font-size="12.5" font-weight="bold" lengthAdjust="spacingAndGlyphs" textLength="40.625" x="446.3542" y="490.9587">[003]</text><text fill="#4D4D4D" font-family="Verdana" font-size="12.5" lengthAdjust="spacingAndGlyphs" textLength="57.2917" x="507.8125" y="490.9587">To entity</text><polygon fill="#E5E4E2" points="764.0625,546.2748,774.4792,550.4415,764.0625,554.6082,768.2292,550.4415" style="stroke: #E5E4E2; stroke-width: 1.0416666666666667;"/><line style="stroke: #E5E4E2; stroke-width: 3.125;" x1="591.1458" x2="770.3125" y1="550.4415" y2="550.4415"/><text fill="#4D4D4D" font-family="Verdana" font-size="12.5" font-weight="bold" lengthAdjust="spacingAndGlyphs" textLength="40.625" x="606.7708" y="537.4003">[004]</text><text fill="#4D4D4D" font-family="Verdana" font-size="12.5" lengthAdjust="spacingAndGlyphs" textLength="82.2917" x="668.2292" y="537.4003">To database</text><polygon fill="#E5E4E2" points="442.1875,592.7165,431.7708,596.8831,442.1875,601.0498,438.0208,596.8831" style="stroke: #E5E4E2; stroke-width: 1.0416666666666667;"/><line style="stroke: #E5E4E2; stroke-width: 3.125; stroke-dasharray: 2.0,2.0;" x1="435.9375" x2="775.5208" y1="596.8831" y2="596.8831"/><text fill="#4D4D4D" font-family="Verdana" font-size="12.5" font-weight="bold" lengthAdjust="spacingAndGlyphs" textLength="40.625" x="456.7708" y="583.842">[005]</text><text fill="#4D4D4D" font-family="Verdana" font-size="12.5" lengthAdjust="spacingAndGlyphs" textLength="40.625" x="518.2292" y="583.842">return</text><polygon fill="#E5E4E2" points="269.2708,639.1581,258.8542,643.3248,269.2708,647.4915,265.1042,643.3248" style="stroke: #E5E4E2; stroke-width: 1.0416666666666667;"/><line style="stroke: #E5E4E2; stroke-width: 3.125; stroke-dasharray: 2.0,2.0;" x1="263.0208" x2="424.4792" y1="643.3248" y2="643.3248"/><text fill="#4D4D4D" font-family="Verdana" font-size="12.5" font-weight="bold" lengthAdjust="spacingAndGlyphs" textLength="40.625" x="283.8542" y="630.2836">[006]</text><text fill="#4D4D4D" font-family="Verdana" font-size="12.5" lengthAdjust="spacingAndGlyphs" textLength="40.625" x="345.3125" y="630.2836">return</text><text fill="#000000" font-family="Verdana" font-size="12.5" lengthAdjust="spacingAndGlyphs" textLength="36.4583" x="583.0729" y="687.1419">Some</text><text fill="#000000" font-family="Verdana" font-size="12.5" lengthAdjust="spacingAndGlyphs" textLength="67.7083" x="623.6979" y="687.1419">long delay</text><text fill="#000000" font-family="Verdana" font-size="12.5" lengthAdjust="spacingAndGlyphs" textLength="0" x="695.5729" y="687.1419"/><polygon fill="#E5E4E2" points="867.1875,746.6248,877.6042,750.7914,867.1875,754.9581,871.3542,750.7914" style="stroke: #E5E4E2; stroke-width: 1.0416666666666667;"/><line style="stroke: #E5E4E2; stroke-width: 3.125;" x1="72.3958" x2="873.4375" y1="750.7914" y2="750.7914"/><text fill="#4D4D4D" font-family="Verdana" font-size="12.5" font-weight="bold" lengthAdjust="spacingAndGlyphs" textLength="40.625" x="88.0208" y="737.7502">[007]</text><text fill="#4D4D4D" font-family="Verdana" font-size="12.5" lengthAdjust="spacingAndGlyphs" textLength="87.5" x="149.4792" y="737.7502">To collections</text><polygon fill="#E5E4E2" points="602.6042,793.0664,592.1875,797.2331,602.6042,801.3997,598.4375,797.2331" style="stroke: #E5E4E2; stroke-width: 1.0416666666666667;"/><line style="stroke: #E5E4E2; stroke-width: 3.125; stroke-dasharray: 2.0,2.0;" x1="596.3542" x2="878.6458" y1="797.2331" y2="797.2331"/><text fill="#4D4D4D" font-family="Verdana" font-size="12.5" font-weight="bold" lengthAdjust="spacingAndGlyphs" textLength="40.625" x="617.1875" y="784.1919">[008]</text><text fill="#339933" font-family="Verdana" font-size="12.5" font-weight="bold" lengthAdjust="spacingAndGlyphs" textLength="53.125" x="678.6458" y="784.1919">success</text><path d="M21.3542,812.8581 L94.7917,812.8581 L94.7917,835.7747 L84.375,846.1914 L13.5417,846.1914 L13.5417,820.6706 " fill="#EEEEEE" style="stroke: #737373; stroke-width: 1.0416666666666667;"/><rect fill="none" height="562.6831" rx="7.8125" ry="7.8125" style="stroke: #737373; stroke-width: 2.0833333333333335;" width="1306.25" x="13.5417" y="812.8581"/><text fill="#4682B4" font-family="Verdana" font-size="12.5" font-weight="bold" lengthAdjust="spacingAndGlyphs" textLength="17.7083" x="37.5" y="834.8002">alt</text><text fill="#4D4D4D" font-family="Verdana" font-size="12.5" font-weight="bold" lengthAdjust="spacingAndGlyphs" textLength="118.75" x="118.75" y="835.8419">[successful case]</text><polygon fill="#E5E4E2" points="1189.5833,896.9747,1200,901.1414,1189.5833,905.308,1193.75,901.1414" style="stroke: #E5E4E2; stroke-width: 1.0416666666666667;"/><line style="stroke: #E5E4E2; stroke-width: 3.125;" x1="72.3958" x2="1195.8333" y1="901.1414" y2="901.1414"/><text fill="#4D4D4D" font-family="Verdana" font-size="12.5" font-weight="bold" lengthAdjust="spacingAndGlyphs" textLength="40.625" x="88.0208" y="888.1002">[009]</text><text fill="#4D4D4D" font-family="Verdana" font-size="12.5" lengthAdjust="spacingAndGlyphs" textLength="158.3333" x="149.4792" y="888.1002">Authentication Accepted</text><polygon fill="#E5E4E2" points="83.8542,943.4163,73.4375,947.583,83.8542,951.7497,79.6875,947.583" style="stroke: #E5E4E2; stroke-width: 1.0416666666666667;"/><line style="stroke: #E5E4E2; stroke-width: 3.125; stroke-dasharray: 2.0,2.0;" x1="77.6042" x2="1201.0417" y1="947.583" y2="947.583"/><text fill="#4D4D4D" font-family="Verdana" font-size="12.5" font-weight="bold" lengthAdjust="spacingAndGlyphs" textLength="40.625" x="98.4375" y="934.5418">[010]</text><text fill="#4D4D4D" font-family="Verdana" font-size="12.5" lengthAdjust="spacingAndGlyphs" textLength="51.0417" x="159.8958" y="934.5418">success</text><path d="M1043.75,968.9372 L1043.75,994.9788 A7.8125,7.8125 0 0 0 1051.5625,1002.7913 L1189.0625,1002.7913 A7.8125,7.8125 0 0 0 1196.875,994.9788 L1196.875,971.5413 L1186.4583,961.1247 L1051.5625,961.1247 A7.8125,7.8125 0 0 0 1043.75,968.9372 " fill="url(#gx6axi61wegvh3)" style="stroke: #29527A; stroke-width: 1.0416666666666667;"/><path d="M1186.4583,961.1247 L1186.4583,967.6351 A3.9063,3.9063 0 0 0 1190.3646,971.5413 L1196.875,971.5413 L1186.4583,961.1247 " fill="url(#gx6axi61wegvh3)" style="stroke: #29527A; stroke-width: 1.0416666666666667;"/><text fill="#FDFDFD" font-family="Verdana" font-size="12.5" lengthAdjust="spacingAndGlyphs" textLength="114.5833" x="1058.3333" y="987.2335">this is a first note</text><line style="stroke: #737373; stroke-width: 1.0416666666666667; stroke-dasharray: 2.0,2.0;" x1="13.5417" x2="1319.7917" y1="1009.6497" y2="1009.6497"/><text fill="#4D4D4D" font-family="Verdana" font-size="12.5" font-weight="bold" lengthAdjust="spacingAndGlyphs" textLength="148.9583" x="27.0833" y="1030.5501">[some kind of failure]</text><polygon fill="#E5E4E2" points="1189.5833,1076.4913,1200,1080.658,1189.5833,1084.8246,1193.75,1080.658" style="stroke: #E5E4E2; stroke-width: 1.0416666666666667;"/><line style="stroke: #E5E4E2; stroke-width: 3.125;" x1="72.3958" x2="1195.8333" y1="1080.658" y2="1080.658"/><text fill="#4D4D4D" font-family="Verdana" font-size="12.5" font-weight="bold" lengthAdjust="spacingAndGlyphs" textLength="40.625" x="88.0208" y="1067.6168">[011]</text><text fill="#4D4D4D" font-family="Verdana" font-size="12.5" lengthAdjust="spacingAndGlyphs" textLength="142.7083" x="149.4792" y="1067.6168">Authentication Failure</text><polygon fill="#E5E4E2" points="83.8542,1122.9329,73.4375,1127.0996,83.8542,1131.2663,79.6875,1127.0996" style="stroke: #E5E4E2; stroke-width: 1.0416666666666667;"/><line style="stroke: #E5E4E2; stroke-width: 3.125; stroke-dasharray: 2.0,2.0;" x1="77.6042" x2="1201.0417" y1="1127.0996" y2="1127.0996"/><text fill="#4D4D4D" font-family="Verdana" font-size="12.5" font-weight="bold" lengthAdjust="spacingAndGlyphs" textLength="40.625" x="98.4375" y="1114.0584">[012]</text><text fill="#B7410E" font-family="Verdana" font-size="12.5" font-weight="bold" lengthAdjust="spacingAndGlyphs" textLength="82.2917" x="159.8958" y="1114.0584">Bad request</text><path d="M31.7708,1142.7246 L178.125,1142.7246 L178.125,1165.6413 L167.7083,1176.0579 L23.9583,1176.0579 L23.9583,1150.5371 " fill="#EEEEEE" style="stroke: #737373; stroke-width: 1.0416666666666667;"/><rect fill="none" height="145.1416" rx="7.8125" ry="7.8125" style="stroke: #737373; stroke-width: 2.0833333333333335;" width="1285.4167" x="23.9583" y="1142.7246"/><text fill="#4682B4" font-family="Verdana" font-size="12.5" font-weight="bold" lengthAdjust="spacingAndGlyphs" textLength="90.625" x="47.9167" y="1164.6667">My own label</text><path d="M42.1875,1183.9579 L127.0833,1183.9579 L127.0833,1206.8746 L116.6667,1217.2913 L34.375,1217.2913 L34.375,1191.7704 " fill="#EEEEEE" style="stroke: #737373; stroke-width: 1.0416666666666667;"/><rect fill="none" height="96.6166" rx="7.8125" ry="7.8125" style="stroke: #737373; stroke-width: 2.0833333333333335;" width="1264.5833" x="34.375" y="1183.9579"/><text fill="#4682B4" font-family="Verdana" font-size="12.5" font-weight="bold" lengthAdjust="spacingAndGlyphs" textLength="29.1667" x="58.3333" y="1205.9001">loop</text><text fill="#4D4D4D" font-family="Verdana" font-size="12.5" font-weight="bold" lengthAdjust="spacingAndGlyphs" textLength="91.6667" x="151.0417" y="1206.9417">[1000 times]</text><polygon fill="#E5E4E2" points="83.8542,1268.0745,73.4375,1272.2412,83.8542,1276.4079,79.6875,1272.2412" style="stroke: #E5E4E2; stroke-width: 1.0416666666666667;"/><line style="stroke: #E5E4E2; stroke-width: 3.125;" x1="77.6042" x2="1201.0417" y1="1272.2412" y2="1272.2412"/><text fill="#4D4D4D" font-family="Verdana" font-size="12.5" font-weight="bold" lengthAdjust="spacingAndGlyphs" textLength="40.625" x="98.4375" y="1259.2">[013]</text><text fill="#4D4D4D" font-family="Verdana" font-size="12.5" lengthAdjust="spacingAndGlyphs" textLength="71.875" x="159.8958" y="1259.2">DNS Attack</text><line style="stroke: #737373; stroke-width: 1.0416666666666667; stroke-dasharray: 2.0,2.0;" x1="13.5417" x2="1319.7917" y1="1296.1995" y2="1296.1995"/><text fill="#4D4D4D" font-family="Verdana" font-size="12.5" font-weight="bold" lengthAdjust="spacingAndGlyphs" textLength="115.625" x="27.0833" y="1317.1">[Just a Warning]</text><polygon fill="#E5E4E2" points="1189.5833,1363.0412,1200,1367.2078,1189.5833,1371.3745,1193.75,1367.2078" style="stroke: #E5E4E2; stroke-width: 1.0416666666666667;"/><line style="stroke: #E5E4E2; stroke-width: 3.125;" x1="72.3958" x2="1195.8333" y1="1367.2078" y2="1367.2078"/><text fill="#4D4D4D" font-family="Verdana" font-size="12.5" font-weight="bold" lengthAdjust="spacingAndGlyphs" textLength="40.625" x="88.0208" y="1354.1667">[014]</text><text fill="#FFD700" font-family="Verdana" font-size="12.5" font-weight="bold" lengthAdjust="spacingAndGlyphs" textLength="94.7917" x="149.4792" y="1354.1667">Please repeat</text><path d="M46.875,1395.8537 L46.875,1452.1037 A7.8125,7.8125 0 0 0 54.6875,1459.9162 L274.4792,1459.9162 A7.8125,7.8125 0 0 0 282.2917,1452.1037 L282.2917,1398.4578 L271.875,1388.0412 L54.6875,1388.0412 A7.8125,7.8125 0 0 0 46.875,1395.8537 " fill="url(#gx6axi61wegvh3)" style="stroke: #29527A; stroke-width: 1.0416666666666667;"/><path d="M271.875,1388.0412 L271.875,1394.5516 A3.9063,3.9063 0 0 0 275.7813,1398.4578 L282.2917,1398.4578 L271.875,1388.0412 " fill="url(#gx6axi61wegvh3)" style="stroke: #29527A; stroke-width: 1.0416666666666667;"/><text fill="#FDFDFD" font-family="Verdana" font-size="12.5" lengthAdjust="spacingAndGlyphs" textLength="136.4583" x="91.6667" y="1414.15">this is a second note</text><text fill="#FDFDFD" font-family="Verdana" font-size="12.5" lengthAdjust="spacingAndGlyphs" textLength="81.25" x="91.6667" y="1429.3416">that is really</text><text fill="#FDFDFD" font-family="Verdana" font-size="12.5" lengthAdjust="spacingAndGlyphs" textLength="28.125" x="91.6667" y="1444.5333">long</text><text fill="#888888" font-family="Verdana" font-size="12.5" lengthAdjust="spacingAndGlyphs" textLength="85.4167" x="1244.7917" y="15.6921">Page Header</text><text fill="#888888" font-family="Verdana" font-size="12.5" lengthAdjust="spacingAndGlyphs" textLength="75" x="629.1667" y="1593.6666">Page 1 of 1</text><!--MD5=[945a7b8d08ab4a3963a9e889dd26f4c7]
@startuml



skinparam backgroundColor transparent









skinparam defaultFontName        "Verdana"
skinparam defaultFontSize        12
skinparam dpi                    100
skinparam shadowing              false
skinparam roundcorner            15
skinparam ParticipantPadding     30
skinparam BoxPadding             30
skinparam Padding                8
skinparam ArrowColor             #737373
skinparam title {
	FontColor	                 #fdfdfd
	BorderColor	                 #9a9a9a
	FontSize	    	         20
	BorderRoundCorner            8
	BorderThickness 	         1
	BackgroundColor              #cdcdcd-#9a9a9a
}


skinparam legend {
	BackgroundColor #c0c0c0
	BorderColor #9a9a9a
	FontColor #fdfdfd
}

skinparam activity {
	FontColor #4682b4
	BorderColor #b7b6b5
	BackgroundColor #E5E4E2-#b7b6b5
	BarColor #CD7F32
	StartColor #4682b4
	EndColor #4682b4
	DiamondBackgroundColor #c0c0c0-#9a9a9a
  	DiamondBorderColor #9a9a9a
	DiamondFontColor #fdfdfd
}

skinparam sequence {
	BorderColor #E5E4E2
	TitleFontColor #fdfdfd
	BackgroundColor transparent
	StartColor #E5E4E2
	EndColor #E5E4E2
    ParticipantBackgroundColor #eae9e8-#b7b6b5
    ParticipantBorderColor #E5E4E2
	ParticipantBorderThickness 0
	ParticipantFontColor #4682b4
	ActorBackgroundColor transparent
    ActorBorderColor #E5E4E2
	ActorFontColor #E5E4E2
	ArrowThickness 3
	ArrowColor #E5E4E2
	ArrowFontColor #4d4d4d
	BoxBackgroundColor #fcfcfc
	BoxBorderColor #737373
	BoxFontColor #4d4d4d
	LifeLineBorderColor #9a9a9a
	LifeLineBorderThickness 3
	LifeLineBackgroundColor #cdcdcd-#9a9a9a
	GroupBorderColor #737373
	GroupFontColor #4d4d4d
	GroupHeaderFontColor #4682b4
	DividerBackgroundColor #fdfdfd-#fcfcfc
    DividerBorderColor #737373
    DividerBorderThickness 2
    DividerFontColor #4d4d4d
	ReferenceBackgroundColor transparent
	ReferenceBorderColor #737373
	ReferenceFontColor #4d4d4d
	ReferenceHeaderFontColor #4682b4
}

skinparam partition {
	BorderColor #E5E4E2
	FontColor #b7b6b5
	BackgroundColor transparent
}

skinparam collections {
	BackgroundColor #eae9e8-#b7b6b5
	BorderColor #b7b6b5
}

skinparam control {
	BackgroundColor  #eae9e8-#b7b6b5
	BorderColor #b7b6b5
	FontColor #4d4d4d
}

skinparam entity {
	BackgroundColor  #eae9e8-#b7b6b5
	BorderColor #b7b6b5
	FontColor #4d4d4d
}

skinparam boundary {
	BackgroundColor  #eae9e8-#b7b6b5
	BorderColor #b7b6b5
	FontColor #4d4d4d
}

skinparam agent {
	BackgroundColor #orange
	BorderColor #999999
	FontColor #333333
}

skinparam note {
	BorderThickness 1
	BackgroundColor #5c85ad-#29527a
	BorderColor #29527a
	FontColor #fdfdfd
}

skinparam artifact {
	BackgroundColor #fdfdfd-#fcfcfc
	BorderColor #737373
	FontColor #737373
}

skinparam component {
	BackgroundColor  #d7995b-#a46628
	BorderColor  #a46628
	FontColor #fdfdfd
}

skinparam interface {
	BackgroundColor  #c5673e
	BorderColor  #B7410E
	FontColor #4d4d4d
}

skinparam storage {
	BackgroundColor #ffdf33-#ccac00
  	BorderColor #ccac00
	FontColor #fdfdfd
}

skinparam node {
	BackgroundColor #eae9e8-#b7b6b5
	BorderColor #b7b6b5
	FontColor #4682b4
}

skinparam cloud {
	BackgroundColor white-lightskyblue
	BorderColor transparent
	FontColor #4d4d4d
}

skinparam database {
	BackgroundColor  #eae9e8-#b7b6b5
	BorderColor #b7b6b5
	FontColor #4d4d4d
}

skinparam actor {
	FontColor #4d4d4d
}

skinparam class {
	HeaderBackgroundColor #eae9e8-#b7b6b5
	FontColor #4682b4
	BackgroundColor #eae9e8-#b7b6b5
	BorderColor #b7b6b5
	StereotypeFontColor #4d4d4d
	BorderThickness 1
	AttributeFontColor #fdfdfd
	AttributeFontSize 11
}

skinparam object {
	FontColor #4d4d4d
	BackgroundColor #cdcdcd-#9a9a9a
	BorderColor #9a9a9a
	StereotypeFontColor #fcfcfc
	BorderThickness 1
	AttributeFontColor #fdfdfd
	AttributeFontSize 11
}

skinparam usecase {
	BackgroundColor #cdcdcd-#c0c0c0
	BorderColor #c0c0c0
	BorderThickness 2
	FontColor #fdfdfd
	StereotypeFontColor #E5E4E2
}

skinparam rectangle {
	BackgroundColor #E5E4E2-#b7b6b5
	BorderColor #b7b6b5
	BorderThickness 2
	FontColor #4682b4
	StereotypeFontColor #E5E4E2
}

skinparam package {
	BackgroundColor #cdcdcd-#c0c0c0
  	BorderColor #E5E4E2
	FontColor #E5E4E2
	BorderThickness 2
}

skinparam folder {
	BackgroundColor #E5E4E2-#b7b6b5
  	BorderColor #FFD700
	FontColor #FFD700
	BorderThickness 2
}

skinparam frame {
	BackgroundColor #E5E4E2-#b7b6b5
  	BorderColor #4682b4
	FontColor #4682b4
	BorderThickness 2
}

skinparam state {
	StartColor #4682b4
	EndColor #4682b4
	BackgroundColor #cdcdcd-#9a9a9a
	BorderColor #9a9a9a
	FontColor #4682b4
	AttributeFontColor #c0c0c0
    AttributeFontSize 11
}

skinparam queue {
	BackgroundColor #FFD700-#ccac00
  	BorderColor #ccac00
	FontColor #fdfdfd
}

skinparam card {
	BackgroundColor #5c85ad-#29527a
	BorderColor #4682b4
	FontColor #fdfdfd
}

skinparam file {
	BackgroundColor #cdcdcd-#9a9a9a
	BorderColor #737373
	FontColor #fcfcfc

}

skinparam stack {
	BackgroundColor #eae9e8-#b7b6b5
	BorderColor #b7b6b5
	FontColor #4682b4
}

title Sequence Diagram - metal theme


autonumber "<b>[000]"

header Page Header
footer Page %page% of %lastpage%

actor Foo1
boundary Foo2
control Foo3
entity Foo4
database Foo5
collections Foo6
participant Bob
participant Alice << (C,#ADD1B2) Testable >>

box "Internal Service"
	participant Bob
	participant Alice
end box

== Initialization ==
Foo1 -> Foo2 : To boundary
|||
Foo2 -> Foo3 ++: To control
ref over Foo4, Foo5
  This can be on
  several lines
end ref
Foo3 -> Foo4 : To entity

Foo4 -> Foo5 : To database
Foo5 - -> Foo3 - - : return
Foo3 - -> Foo2 - -: return
... Some ~~long delay~~ ...
Foo1 -> Foo6 : To collections
Foo6 - -> Foo4:   <font color=#339933><b>success


alt successful case

Foo1 -> Alice: Authentication Accepted
Alice - -> Foo1: success

note left of Alice: this is a first note

else some kind of failure

	Foo1 -> Alice: Authentication Failure
    Alice - -> Foo1:   <font color=#B7410E><b>Bad request
	group My own label
	    loop 1000 times
	        Alice -> Foo1: DNS Attack
	    end
	end
	
else Just a Warning

   Foo1 -> Alice:   <font color=#FFD700><b>Please repeat
   
end

note over Foo1, Foo2
this is a second note
that is really
long
end note

@enduml

PlantUML version 1.2019.12(Sun Nov 03 02:24:54 PST 2019)
(GPL source distribution)
Java Runtime: Java(TM) SE Runtime Environment
JVM: Java HotSpot(TM) 64-Bit Server VM
Java Version: 1.8.0_212-b32
Operating System: Windows 10
Default Encoding: Cp1252
Language: en
Country: US
--></g></svg>