<?xml version="1.0" encoding="UTF-8" standalone="no"?><svg xmlns="http://www.w3.org/2000/svg" xmlns:xlink="http://www.w3.org/1999/xlink" contentScriptType="application/ecmascript" contentStyleType="text/css" height="1619.7917px" preserveAspectRatio="none" style="width:1359px;height:1619px;background:#00000000;" version="1.1" viewBox="0 0 1359 1619" width="1359.375px" zoomAndPan="magnify"><defs><linearGradient id="gelj4sjxszv2m0" x1="50%" x2="50%" y1="0%" y2="100%"><stop offset="0%" stop-color="#CDCDCD"/><stop offset="100%" stop-color="#9A9A9A"/></linearGradient><linearGradient id="gelj4sjxszv2m1" x1="50%" x2="50%" y1="0%" y2="100%"><stop offset="0%" stop-color="#E5E4E2"/><stop offset="100%" stop-color="#B7B6B5"/></linearGradient><linearGradient id="gelj4sjxszv2m2" x1="50%" x2="50%" y1="0%" y2="100%"><stop offset="0%" stop-color="#FDFDFD"/><stop offset="100%" stop-color="#F2F2F2"/></linearGradient><linearGradient id="gelj4sjxszv2m3" x1="50%" x2="50%" y1="0%" y2="100%"><stop offset="0%" stop-color="#C0D0E5"/><stop offset="100%" stop-color="#8D9DB2"/></linearGradient></defs><g><rect fill="url(#gelj4sjxszv2m0)" height="52.4028" rx="4.1667" ry="4.1667" style="stroke: #9A9A9A; stroke-width: 1.0416666666666667;" width="388.5417" x="480.2083" y="30.8167"/><text fill="#FDFDFD" font-family="Verdana" font-size="20.8333" lengthAdjust="spacingAndGlyphs" textLength="355.2083" x="496.875" y="65.3035">Sequence Diagram - metal theme</text><rect fill="#F2F2F2" height="1494.6411" rx="7.8125" ry="7.8125" style="stroke: #737373; stroke-width: 1.0416666666666667;" width="327.0833" x="982.2917" y="94.6777"/><text fill="#4D4D4D" font-family="Verdana" font-size="12.5" font-weight="bold" lengthAdjust="spacingAndGlyphs" textLength="111.4583" x="1090.1042" y="115.5782">Internal Service</text><rect fill="url(#gelj4sjxszv2m0)" height="280.2999" style="stroke: #9A9A9A; stroke-width: 1.0416666666666667;" width="10.4167" x="420.3125" y="375.411"/><rect fill="#FFFFFF" height="562.6831" rx="7.8125" ry="7.8125" style="stroke: #737373; stroke-width: 2.0833333333333335;" width="1322.9167" x="13.5417" y="825.2441"/><rect fill="#FFFFFF" height="286.5499" style="stroke: none; stroke-width: 1.0416666666666667;" width="1322.9167" x="13.5417" y="1020.9941"/><rect fill="#FFFFFF" height="145.1416" rx="7.8125" ry="7.8125" style="stroke: #737373; stroke-width: 2.0833333333333335;" width="1302.0833" x="23.9583" y="1155.1107"/><rect fill="#FFFFFF" height="96.6166" rx="7.8125" ry="7.8125" style="stroke: #737373; stroke-width: 2.0833333333333335;" width="1281.25" x="34.375" y="1196.344"/><rect fill="#FFFFFF" height="80.3833" style="stroke: none; stroke-width: 1.0416666666666667;" width="1322.9167" x="13.5417" y="1307.5439"/><line style="stroke: #9A9A9A; stroke-width: 1.0416666666666667;" x1="71.875" x2="71.875" y1="193.3777" y2="664.0442"/><line style="stroke: #9A9A9A; stroke-width: 1.0416666666666667; stroke-dasharray: 1.0,4.0;" x1="71.875" x2="71.875" y1="664.0442" y2="725.0692"/><line style="stroke: #9A9A9A; stroke-width: 1.0416666666666667;" x1="71.875" x2="71.875" y1="725.0692" y2="1488.7105"/><line style="stroke: #9A9A9A; stroke-width: 1.0416666666666667;" x1="257.2917" x2="257.2917" y1="193.3777" y2="664.0442"/><line style="stroke: #9A9A9A; stroke-width: 1.0416666666666667; stroke-dasharray: 1.0,4.0;" x1="257.2917" x2="257.2917" y1="664.0442" y2="725.0692"/><line style="stroke: #9A9A9A; stroke-width: 1.0416666666666667;" x1="257.2917" x2="257.2917" y1="725.0692" y2="1488.7105"/><line style="stroke: #9A9A9A; stroke-width: 1.0416666666666667;" x1="425" x2="425" y1="193.3777" y2="664.0442"/><line style="stroke: #9A9A9A; stroke-width: 1.0416666666666667; stroke-dasharray: 1.0,4.0;" x1="425" x2="425" y1="664.0442" y2="725.0692"/><line style="stroke: #9A9A9A; stroke-width: 1.0416666666666667;" x1="425" x2="425" y1="725.0692" y2="1488.7105"/><line style="stroke: #9A9A9A; stroke-width: 1.0416666666666667;" x1="590.625" x2="590.625" y1="193.3777" y2="664.0442"/><line style="stroke: #9A9A9A; stroke-width: 1.0416666666666667; stroke-dasharray: 1.0,4.0;" x1="590.625" x2="590.625" y1="664.0442" y2="725.0692"/><line style="stroke: #9A9A9A; stroke-width: 1.0416666666666667;" x1="590.625" x2="590.625" y1="725.0692" y2="1488.7105"/><line style="stroke: #9A9A9A; stroke-width: 1.0416666666666667;" x1="776.0417" x2="776.0417" y1="193.3777" y2="664.0442"/><line style="stroke: #9A9A9A; stroke-width: 1.0416666666666667; stroke-dasharray: 1.0,4.0;" x1="776.0417" x2="776.0417" y1="664.0442" y2="725.0692"/><line style="stroke: #9A9A9A; stroke-width: 1.0416666666666667;" x1="776.0417" x2="776.0417" y1="725.0692" y2="1488.7105"/><line style="stroke: #9A9A9A; stroke-width: 1.0416666666666667;" x1="879.1667" x2="879.1667" y1="193.3777" y2="664.0442"/><line style="stroke: #9A9A9A; stroke-width: 1.0416666666666667; stroke-dasharray: 1.0,4.0;" x1="879.1667" x2="879.1667" y1="664.0442" y2="725.0692"/><line style="stroke: #9A9A9A; stroke-width: 1.0416666666666667;" x1="879.1667" x2="879.1667" y1="725.0692" y2="1488.7105"/><line style="stroke: #9A9A9A; stroke-width: 1.0416666666666667;" x1="1045.8333" x2="1045.8333" y1="193.3777" y2="664.0442"/><line style="stroke: #9A9A9A; stroke-width: 1.0416666666666667; stroke-dasharray: 1.0,4.0;" x1="1045.8333" x2="1045.8333" y1="664.0442" y2="725.0692"/><line style="stroke: #9A9A9A; stroke-width: 1.0416666666666667;" x1="1045.8333" x2="1045.8333" y1="725.0692" y2="1488.7105"/><line style="stroke: #9A9A9A; stroke-width: 1.0416666666666667;" x1="1210.4167" x2="1210.4167" y1="193.3777" y2="664.0442"/><line style="stroke: #9A9A9A; stroke-width: 1.0416666666666667; stroke-dasharray: 1.0,4.0;" x1="1210.4167" x2="1210.4167" y1="664.0442" y2="725.0692"/><line style="stroke: #9A9A9A; stroke-width: 1.0416666666666667;" x1="1210.4167" x2="1210.4167" y1="725.0692" y2="1488.7105"/><text fill="#4D4D4D" font-family="Verdana" font-size="12.5" lengthAdjust="spacingAndGlyphs" textLength="32.2917" x="53.125" y="182.4198">Foo1</text><ellipse cx="72.3958" cy="106.311" fill="url(#gelj4sjxszv2m1)" rx="8.3333" ry="8.3333" style="stroke: #B7B6B5; stroke-width: 2.0833333333333335;"/><path d="M72.3958,114.6444 L72.3958,142.7694 M58.8542,122.9777 L85.9375,122.9777 M72.3958,142.7694 L58.8542,158.3944 M72.3958,142.7694 L85.9375,158.3944 " fill="none" style="stroke: #B7B6B5; stroke-width: 2.0833333333333335;"/><text fill="#4D4D4D" font-family="Verdana" font-size="12.5" lengthAdjust="spacingAndGlyphs" textLength="32.2917" x="53.125" y="1508.5693">Foo1</text><ellipse cx="72.3958" cy="1529.9438" fill="url(#gelj4sjxszv2m1)" rx="8.3333" ry="8.3333" style="stroke: #B7B6B5; stroke-width: 2.0833333333333335;"/><path d="M72.3958,1538.2772 L72.3958,1566.4022 M58.8542,1546.6105 L85.9375,1546.6105 M72.3958,1566.4022 L58.8542,1582.0272 M72.3958,1566.4022 L85.9375,1582.0272 " fill="none" style="stroke: #B7B6B5; stroke-width: 2.0833333333333335;"/><text fill="#4D4D4D" font-family="Verdana" font-size="12.5" lengthAdjust="spacingAndGlyphs" textLength="32.2917" x="238.5417" y="182.4198">Foo2</text><path d="M236.4583,132.3527 L236.4583,157.3527 M236.4583,144.8527 L254.1667,144.8527 " fill="none" style="stroke: #B7B6B5; stroke-width: 2.0833333333333335;"/><ellipse cx="266.6667" cy="144.8527" fill="url(#gelj4sjxszv2m1)" rx="12.5" ry="12.5" style="stroke: #B7B6B5; stroke-width: 2.0833333333333335;"/><text fill="#4D4D4D" font-family="Verdana" font-size="12.5" lengthAdjust="spacingAndGlyphs" textLength="32.2917" x="238.5417" y="1508.5693">Foo2</text><path d="M236.4583,1523.6938 L236.4583,1548.6938 M236.4583,1536.1938 L254.1667,1536.1938 " fill="none" style="stroke: #B7B6B5; stroke-width: 2.0833333333333335;"/><ellipse cx="266.6667" cy="1536.1938" fill="url(#gelj4sjxszv2m1)" rx="12.5" ry="12.5" style="stroke: #B7B6B5; stroke-width: 2.0833333333333335;"/><text fill="#4D4D4D" font-family="Verdana" font-size="12.5" lengthAdjust="spacingAndGlyphs" textLength="32.2917" x="406.25" y="182.4198">Foo3</text><ellipse cx="425.5208" cy="144.8527" fill="url(#gelj4sjxszv2m1)" rx="12.5" ry="12.5" style="stroke: #B7B6B5; stroke-width: 2.0833333333333335;"/><polygon fill="#B7B6B5" points="421.3542,132.3527,427.6042,127.1444,425.5208,132.3527,427.6042,137.561,421.3542,132.3527" style="stroke: #B7B6B5; stroke-width: 1.0416666666666667;"/><text fill="#4D4D4D" font-family="Verdana" font-size="12.5" lengthAdjust="spacingAndGlyphs" textLength="32.2917" x="406.25" y="1508.5693">Foo3</text><ellipse cx="425.5208" cy="1536.1938" fill="url(#gelj4sjxszv2m1)" rx="12.5" ry="12.5" style="stroke: #B7B6B5; stroke-width: 2.0833333333333335;"/><polygon fill="#B7B6B5" points="421.3542,1523.6938,427.6042,1518.4855,425.5208,1523.6938,427.6042,1528.9022,421.3542,1523.6938" style="stroke: #B7B6B5; stroke-width: 1.0416666666666667;"/><text fill="#4D4D4D" font-family="Verdana" font-size="12.5" lengthAdjust="spacingAndGlyphs" textLength="32.2917" x="571.875" y="182.4198">Foo4</text><ellipse cx="591.1458" cy="144.8527" fill="url(#gelj4sjxszv2m1)" rx="12.5" ry="12.5" style="stroke: #B7B6B5; stroke-width: 2.0833333333333335;"/><line style="stroke: #B7B6B5; stroke-width: 2.0833333333333335;" x1="578.6458" x2="603.6458" y1="159.436" y2="159.436"/><text fill="#4D4D4D" font-family="Verdana" font-size="12.5" lengthAdjust="spacingAndGlyphs" textLength="32.2917" x="571.875" y="1508.5693">Foo4</text><ellipse cx="591.1458" cy="1536.1938" fill="url(#gelj4sjxszv2m1)" rx="12.5" ry="12.5" style="stroke: #B7B6B5; stroke-width: 2.0833333333333335;"/><line style="stroke: #B7B6B5; stroke-width: 2.0833333333333335;" x1="578.6458" x2="603.6458" y1="1550.7772" y2="1550.7772"/><text fill="#4D4D4D" font-family="Verdana" font-size="12.5" lengthAdjust="spacingAndGlyphs" textLength="32.2917" x="757.2917" y="182.4198">Foo5</text><path d="M757.8125,124.0194 C757.8125,113.6027 776.5625,113.6027 776.5625,113.6027 C776.5625,113.6027 795.3125,113.6027 795.3125,124.0194 L795.3125,151.1027 C795.3125,161.5194 776.5625,161.5194 776.5625,161.5194 C776.5625,161.5194 757.8125,161.5194 757.8125,151.1027 L757.8125,124.0194 " fill="url(#gelj4sjxszv2m1)" style="stroke: #B7B6B5; stroke-width: 1.5625;"/><path d="M757.8125,124.0194 C757.8125,134.436 776.5625,134.436 776.5625,134.436 C776.5625,134.436 795.3125,134.436 795.3125,124.0194 " fill="none" style="stroke: #B7B6B5; stroke-width: 1.5625;"/><text fill="#4D4D4D" font-family="Verdana" font-size="12.5" lengthAdjust="spacingAndGlyphs" textLength="32.2917" x="757.2917" y="1508.5693">Foo5</text><path d="M757.8125,1529.9438 C757.8125,1519.5272 776.5625,1519.5272 776.5625,1519.5272 C776.5625,1519.5272 795.3125,1519.5272 795.3125,1529.9438 L795.3125,1557.0272 C795.3125,1567.4438 776.5625,1567.4438 776.5625,1567.4438 C776.5625,1567.4438 757.8125,1567.4438 757.8125,1557.0272 L757.8125,1529.9438 " fill="url(#gelj4sjxszv2m1)" style="stroke: #B7B6B5; stroke-width: 1.5625;"/><path d="M757.8125,1529.9438 C757.8125,1540.3605 776.5625,1540.3605 776.5625,1540.3605 C776.5625,1540.3605 795.3125,1540.3605 795.3125,1529.9438 " fill="none" style="stroke: #B7B6B5; stroke-width: 1.5625;"/><rect fill="url(#gelj4sjxszv2m1)" height="46.4417" rx="7.8125" ry="7.8125" style="stroke: #B7B6B5; stroke-width: 1.5625;" width="63.5417" x="850" y="141.7277"/><rect fill="url(#gelj4sjxszv2m1)" height="46.4417" rx="7.8125" ry="7.8125" style="stroke: #B7B6B5; stroke-width: 1.5625;" width="63.5417" x="845.8333" y="145.8944"/><text fill="#4682B4" font-family="Verdana" font-size="12.5" lengthAdjust="spacingAndGlyphs" textLength="32.2917" x="861.4583" y="174.0865">Foo6</text><rect fill="url(#gelj4sjxszv2m1)" height="46.4417" rx="7.8125" ry="7.8125" style="stroke: #B7B6B5; stroke-width: 1.5625;" width="63.5417" x="850" y="1487.6689"/><rect fill="url(#gelj4sjxszv2m1)" height="46.4417" rx="7.8125" ry="7.8125" style="stroke: #B7B6B5; stroke-width: 1.5625;" width="63.5417" x="845.8333" y="1491.8355"/><text fill="#4682B4" font-family="Verdana" font-size="12.5" lengthAdjust="spacingAndGlyphs" textLength="32.2917" x="861.4583" y="1520.0277">Foo6</text><rect fill="url(#gelj4sjxszv2m1)" height="46.4417" rx="7.8125" ry="7.8125" style="stroke: #B7B6B5; stroke-width: 1.5625;" width="56.25" x="1017.7083" y="145.8944"/><text fill="#4682B4" font-family="Verdana" font-size="12.5" lengthAdjust="spacingAndGlyphs" textLength="25" x="1033.3333" y="174.0865">Bob</text><rect fill="url(#gelj4sjxszv2m1)" height="46.4417" rx="7.8125" ry="7.8125" style="stroke: #B7B6B5; stroke-width: 1.5625;" width="56.25" x="1017.7083" y="1487.6689"/><text fill="#4682B4" font-family="Verdana" font-size="12.5" lengthAdjust="spacingAndGlyphs" textLength="25" x="1033.3333" y="1515.861">Bob</text><rect fill="url(#gelj4sjxszv2m1)" height="61.6333" rx="7.8125" ry="7.8125" style="stroke: #B7B6B5; stroke-width: 1.5625;" width="127.0833" x="1146.875" y="130.7027"/><ellipse cx="1164.5833" cy="148.4111" fill="#ADD1B2" rx="10.4167" ry="10.4167" style="stroke: #B7B6B5; stroke-width: 1.0416666666666667;"/><path d="M1166.1296,145.4976 Q1166.2435,145.3349 1166.3818,145.2535 Q1166.5202,145.1721 1166.6829,145.1721 Q1166.9596,145.1721 1167.1305,145.3674 Q1167.3014,145.5627 1167.3014,146.0022 L1167.3014,147.0764 Q1167.3014,147.5159 1167.1305,147.7112 Q1166.9596,147.9065 1166.6829,147.9065 Q1166.4225,147.9065 1166.276,147.76 Q1166.1296,147.6298 1166.0482,147.2392 Q1166.0156,146.9788 1165.8854,146.8486 Q1165.625,146.5719 1165.1774,146.4091 Q1164.7298,146.2463 1164.2741,146.2463 Q1163.7207,146.2463 1163.2487,146.4905 Q1162.7767,146.7346 1162.4186,147.2799 Q1162.0605,147.8251 1162.0605,148.5901 L1162.0605,149.4039 Q1162.0605,150.2991 1162.7197,150.9013 Q1163.3789,151.5035 1164.5345,151.5035 Q1165.2344,151.5035 1165.7227,151.3245 Q1165.9993,151.2105 1166.3086,150.885 Q1166.5039,150.6897 1166.6178,150.6327 Q1166.7318,150.5758 1166.862,150.5758 Q1167.1224,150.5758 1167.3096,150.7629 Q1167.4967,150.9501 1167.4967,151.2105 Q1167.4967,151.4709 1167.2363,151.7639 Q1166.862,152.1871 1166.276,152.4312 Q1165.4948,152.7568 1164.5508,152.7568 Q1163.4277,152.7568 1162.5488,152.301 Q1161.8164,151.943 1161.3118,151.1454 Q1160.8073,150.3479 1160.8073,149.4202 L1160.8073,148.5738 Q1160.8073,147.5972 1161.263,146.7509 Q1161.7188,145.9045 1162.5244,145.4488 Q1163.3301,144.9931 1164.2253,144.9931 Q1164.7786,144.9931 1165.2507,145.1152 Q1165.7227,145.2372 1166.1296,145.4976 Z "/><text fill="#000000" font-family="Verdana" font-size="12.5" font-style="italic" lengthAdjust="spacingAndGlyphs" textLength="68.75" x="1189.5833" y="158.8949">«Testable»</text><text fill="#4682B4" font-family="Verdana" font-size="12.5" lengthAdjust="spacingAndGlyphs" textLength="29.1667" x="1209.375" y="174.0865">Alice</text><rect fill="url(#gelj4sjxszv2m1)" height="61.6333" rx="7.8125" ry="7.8125" style="stroke: #B7B6B5; stroke-width: 1.5625;" width="127.0833" x="1146.875" y="1487.6689"/><ellipse cx="1164.5833" cy="1505.3772" fill="#ADD1B2" rx="10.4167" ry="10.4167" style="stroke: #B7B6B5; stroke-width: 1.0416666666666667;"/><path d="M1166.1296,1502.4638 Q1166.2435,1502.301 1166.3818,1502.2196 Q1166.5202,1502.1383 1166.6829,1502.1383 Q1166.9596,1502.1383 1167.1305,1502.3336 Q1167.3014,1502.5289 1167.3014,1502.9683 L1167.3014,1504.0426 Q1167.3014,1504.482 1167.1305,1504.6773 Q1166.9596,1504.8726 1166.6829,1504.8726 Q1166.4225,1504.8726 1166.276,1504.7262 Q1166.1296,1504.5959 1166.0482,1504.2053 Q1166.0156,1503.9449 1165.8854,1503.8147 Q1165.625,1503.538 1165.1774,1503.3752 Q1164.7298,1503.2125 1164.2741,1503.2125 Q1163.7207,1503.2125 1163.2487,1503.4566 Q1162.7767,1503.7008 1162.4186,1504.246 Q1162.0605,1504.7913 1162.0605,1505.5562 L1162.0605,1506.37 Q1162.0605,1507.2652 1162.7197,1507.8674 Q1163.3789,1508.4696 1164.5345,1508.4696 Q1165.2344,1508.4696 1165.7227,1508.2906 Q1165.9993,1508.1767 1166.3086,1507.8512 Q1166.5039,1507.6558 1166.6178,1507.5989 Q1166.7318,1507.5419 1166.862,1507.5419 Q1167.1224,1507.5419 1167.3096,1507.7291 Q1167.4967,1507.9163 1167.4967,1508.1767 Q1167.4967,1508.4371 1167.2363,1508.7301 Q1166.862,1509.1532 1166.276,1509.3974 Q1165.4948,1509.7229 1164.5508,1509.7229 Q1163.4277,1509.7229 1162.5488,1509.2672 Q1161.8164,1508.9091 1161.3118,1508.1116 Q1160.8073,1507.314 1160.8073,1506.3863 L1160.8073,1505.54 Q1160.8073,1504.5634 1161.263,1503.717 Q1161.7188,1502.8707 1162.5244,1502.415 Q1163.3301,1501.9592 1164.2253,1501.9592 Q1164.7786,1501.9592 1165.2507,1502.0813 Q1165.7227,1502.2034 1166.1296,1502.4638 Z "/><text fill="#000000" font-family="Verdana" font-size="12.5" font-style="italic" lengthAdjust="spacingAndGlyphs" textLength="68.75" x="1189.5833" y="1515.861">«Testable»</text><text fill="#4682B4" font-family="Verdana" font-size="12.5" lengthAdjust="spacingAndGlyphs" textLength="29.1667" x="1209.375" y="1531.0527">Alice</text><rect fill="url(#gelj4sjxszv2m0)" height="280.2999" style="stroke: #9A9A9A; stroke-width: 1.0416666666666667;" width="10.4167" x="420.3125" y="375.411"/><rect fill="url(#gelj4sjxszv2m2)" height="3.125" style="stroke: url(#gelj4sjxszv2m2); stroke-width: 1.0416666666666667;" width="1343.75" x="3.125" y="233.2652"/><line style="stroke: #737373; stroke-width: 1.0416666666666667;" x1="3.125" x2="1346.875" y1="233.2652" y2="233.2652"/><line style="stroke: #737373; stroke-width: 1.0416666666666667;" x1="3.125" x2="1346.875" y1="236.3902" y2="236.3902"/><rect fill="url(#gelj4sjxszv2m2)" height="40.1917" style="stroke: #737373; stroke-width: 2.0833333333333335;" width="121.875" x="614.0625" y="214.211"/><text fill="#4D4D4D" font-family="Verdana" font-size="12.5" font-weight="bold" lengthAdjust="spacingAndGlyphs" textLength="86.4583" x="628.6458" y="239.2782">Initialization</text><polygon fill="#E5E4E2" points="245.3125,298.761,255.7292,302.9277,245.3125,307.0943,249.4792,302.9277" style="stroke: #E5E4E2; stroke-width: 1.0416666666666667;"/><line style="stroke: #E5E4E2; stroke-width: 3.125;" x1="72.3958" x2="251.5625" y1="302.9277" y2="302.9277"/><text fill="#4D4D4D" font-family="Verdana" font-size="12.5" font-weight="bold" lengthAdjust="spacingAndGlyphs" textLength="40.625" x="88.0208" y="289.8865">[001]</text><text fill="#4D4D4D" font-family="Verdana" font-size="12.5" lengthAdjust="spacingAndGlyphs" textLength="82.2917" x="149.4792" y="289.8865">To boundary</text><polygon fill="#E5E4E2" points="407.8125,371.2443,418.2292,375.411,407.8125,379.5776,411.9792,375.411" style="stroke: #E5E4E2; stroke-width: 1.0416666666666667;"/><line style="stroke: #E5E4E2; stroke-width: 3.125;" x1="257.8125" x2="414.0625" y1="375.411" y2="375.411"/><text fill="#4D4D4D" font-family="Verdana" font-size="12.5" font-weight="bold" lengthAdjust="spacingAndGlyphs" textLength="40.625" x="273.4375" y="362.3698">[002]</text><text fill="#4D4D4D" font-family="Verdana" font-size="12.5" lengthAdjust="spacingAndGlyphs" textLength="64.5833" x="334.8958" y="362.3698">To control</text><rect fill="#00000000" height="89.325" style="stroke: #737373; stroke-width: 2.0833333333333335;" width="246.875" x="560.4167" y="383.7443"/><polygon fill="#EEEEEE" points="560.4167,383.7443,643.75,383.7443,643.75,406.661,633.3333,417.0776,560.4167,417.0776,560.4167,383.7443" style="stroke: #737373; stroke-width: 2.0833333333333335;"/><text fill="#4682B4" font-family="Verdana" font-size="12.5" font-weight="bold" lengthAdjust="spacingAndGlyphs" textLength="19.7917" x="582.2917" y="406.7281">ref</text><text fill="#4D4D4D" font-family="Verdana" font-size="12.5" lengthAdjust="spacingAndGlyphs" textLength="94.7917" x="636.4583" y="442.1448">This can be on</text><text fill="#4D4D4D" font-family="Verdana" font-size="12.5" lengthAdjust="spacingAndGlyphs" textLength="82.2917" x="636.4583" y="457.3364">several lines</text><polygon fill="#E5E4E2" points="578.6458,512.2192,589.0625,516.3859,578.6458,520.5526,582.8125,516.3859" style="stroke: #E5E4E2; stroke-width: 1.0416666666666667;"/><line style="stroke: #E5E4E2; stroke-width: 3.125;" x1="430.7292" x2="584.8958" y1="516.3859" y2="516.3859"/><text fill="#4D4D4D" font-family="Verdana" font-size="12.5" font-weight="bold" lengthAdjust="spacingAndGlyphs" textLength="40.625" x="446.3542" y="503.3447">[003]</text><text fill="#4D4D4D" font-family="Verdana" font-size="12.5" lengthAdjust="spacingAndGlyphs" textLength="57.2917" x="507.8125" y="503.3447">To entity</text><polygon fill="#E5E4E2" points="764.0625,558.6609,774.4792,562.8276,764.0625,566.9942,768.2292,562.8276" style="stroke: #E5E4E2; stroke-width: 1.0416666666666667;"/><line style="stroke: #E5E4E2; stroke-width: 3.125;" x1="591.1458" x2="770.3125" y1="562.8276" y2="562.8276"/><text fill="#4D4D4D" font-family="Verdana" font-size="12.5" font-weight="bold" lengthAdjust="spacingAndGlyphs" textLength="40.625" x="606.7708" y="549.7864">[004]</text><text fill="#4D4D4D" font-family="Verdana" font-size="12.5" lengthAdjust="spacingAndGlyphs" textLength="82.2917" x="668.2292" y="549.7864">To database</text><polygon fill="#E5E4E2" points="442.1875,605.1025,431.7708,609.2692,442.1875,613.4359,438.0208,609.2692" style="stroke: #E5E4E2; stroke-width: 1.0416666666666667;"/><line style="stroke: #E5E4E2; stroke-width: 3.125; stroke-dasharray: 2.0,2.0;" x1="435.9375" x2="775.5208" y1="609.2692" y2="609.2692"/><text fill="#4D4D4D" font-family="Verdana" font-size="12.5" font-weight="bold" lengthAdjust="spacingAndGlyphs" textLength="40.625" x="456.7708" y="596.228">[005]</text><text fill="#4D4D4D" font-family="Verdana" font-size="12.5" lengthAdjust="spacingAndGlyphs" textLength="40.625" x="518.2292" y="596.228">return</text><polygon fill="#E5E4E2" points="269.2708,651.5442,258.8542,655.7109,269.2708,659.8775,265.1042,655.7109" style="stroke: #E5E4E2; stroke-width: 1.0416666666666667;"/><line style="stroke: #E5E4E2; stroke-width: 3.125; stroke-dasharray: 2.0,2.0;" x1="263.0208" x2="424.4792" y1="655.7109" y2="655.7109"/><text fill="#4D4D4D" font-family="Verdana" font-size="12.5" font-weight="bold" lengthAdjust="spacingAndGlyphs" textLength="40.625" x="283.8542" y="642.6697">[006]</text><text fill="#4D4D4D" font-family="Verdana" font-size="12.5" lengthAdjust="spacingAndGlyphs" textLength="40.625" x="345.3125" y="642.6697">return</text><text fill="#000000" font-family="Verdana" font-size="12.5" lengthAdjust="spacingAndGlyphs" textLength="36.4583" x="587.2396" y="699.528">Some</text><text fill="#000000" font-family="Verdana" font-size="12.5" lengthAdjust="spacingAndGlyphs" textLength="67.7083" x="627.8646" y="699.528">long delay</text><text fill="#000000" font-family="Verdana" font-size="12.5" lengthAdjust="spacingAndGlyphs" textLength="0" x="699.7396" y="699.528"/><polygon fill="#E5E4E2" points="867.1875,759.0108,877.6042,763.1775,867.1875,767.3442,871.3542,763.1775" style="stroke: #E5E4E2; stroke-width: 1.0416666666666667;"/><line style="stroke: #E5E4E2; stroke-width: 3.125;" x1="72.3958" x2="873.4375" y1="763.1775" y2="763.1775"/><text fill="#4D4D4D" font-family="Verdana" font-size="12.5" font-weight="bold" lengthAdjust="spacingAndGlyphs" textLength="40.625" x="88.0208" y="750.1363">[007]</text><text fill="#4D4D4D" font-family="Verdana" font-size="12.5" lengthAdjust="spacingAndGlyphs" textLength="87.5" x="149.4792" y="750.1363">To collections</text><polygon fill="#E5E4E2" points="602.6042,805.4525,592.1875,809.6191,602.6042,813.7858,598.4375,809.6191" style="stroke: #E5E4E2; stroke-width: 1.0416666666666667;"/><line style="stroke: #E5E4E2; stroke-width: 3.125; stroke-dasharray: 2.0,2.0;" x1="596.3542" x2="878.6458" y1="809.6191" y2="809.6191"/><text fill="#4D4D4D" font-family="Verdana" font-size="12.5" font-weight="bold" lengthAdjust="spacingAndGlyphs" textLength="40.625" x="617.1875" y="796.578">[008]</text><text fill="#339933" font-family="Verdana" font-size="12.5" font-weight="bold" lengthAdjust="spacingAndGlyphs" textLength="53.125" x="678.6458" y="796.578">success</text><path d="M21.3542,825.2441 L94.7917,825.2441 L94.7917,848.1608 L84.375,858.5775 L13.5417,858.5775 L13.5417,833.0566 " fill="#EEEEEE" style="stroke: #737373; stroke-width: 1.0416666666666667;"/><rect fill="none" height="562.6831" rx="7.8125" ry="7.8125" style="stroke: #737373; stroke-width: 2.0833333333333335;" width="1322.9167" x="13.5417" y="825.2441"/><text fill="#4682B4" font-family="Verdana" font-size="12.5" font-weight="bold" lengthAdjust="spacingAndGlyphs" textLength="17.7083" x="37.5" y="847.1863">alt</text><text fill="#4D4D4D" font-family="Verdana" font-size="12.5" font-weight="bold" lengthAdjust="spacingAndGlyphs" textLength="118.75" x="118.75" y="848.2279">[successful case]</text><polygon fill="#E5E4E2" points="1197.9167,909.3608,1208.3333,913.5274,1197.9167,917.6941,1202.0833,913.5274" style="stroke: #E5E4E2; stroke-width: 1.0416666666666667;"/><line style="stroke: #E5E4E2; stroke-width: 3.125;" x1="72.3958" x2="1204.1667" y1="913.5274" y2="913.5274"/><text fill="#4D4D4D" font-family="Verdana" font-size="12.5" font-weight="bold" lengthAdjust="spacingAndGlyphs" textLength="40.625" x="88.0208" y="900.4862">[009]</text><text fill="#4D4D4D" font-family="Verdana" font-size="12.5" lengthAdjust="spacingAndGlyphs" textLength="158.3333" x="149.4792" y="900.4862">Authentication Accepted</text><polygon fill="#E5E4E2" points="83.8542,955.8024,73.4375,959.9691,83.8542,964.1357,79.6875,959.9691" style="stroke: #E5E4E2; stroke-width: 1.0416666666666667;"/><line style="stroke: #E5E4E2; stroke-width: 3.125; stroke-dasharray: 2.0,2.0;" x1="77.6042" x2="1209.375" y1="959.9691" y2="959.9691"/><text fill="#4D4D4D" font-family="Verdana" font-size="12.5" font-weight="bold" lengthAdjust="spacingAndGlyphs" textLength="40.625" x="98.4375" y="946.9279">[010]</text><text fill="#4D4D4D" font-family="Verdana" font-size="12.5" lengthAdjust="spacingAndGlyphs" textLength="51.0417" x="159.8958" y="946.9279">success</text><path d="M1052.0833,981.3232 L1052.0833,1007.3649 A7.8125,7.8125 0 0 0 1059.8958,1015.1774 L1197.3958,1015.1774 A7.8125,7.8125 0 0 0 1205.2083,1007.3649 L1205.2083,983.9274 L1194.7917,973.5107 L1059.8958,973.5107 A7.8125,7.8125 0 0 0 1052.0833,981.3232 " fill="url(#gelj4sjxszv2m3)" style="stroke: #8D9DB2; stroke-width: 1.0416666666666667;"/><path d="M1194.7917,973.5107 L1194.7917,980.0212 A3.9063,3.9063 0 0 0 1198.6979,983.9274 L1205.2083,983.9274 L1194.7917,973.5107 " fill="url(#gelj4sjxszv2m3)" style="stroke: #8D9DB2; stroke-width: 1.0416666666666667;"/><text fill="#FDFDFD" font-family="Verdana" font-size="12.5" lengthAdjust="spacingAndGlyphs" textLength="114.5833" x="1066.6667" y="999.6195">this is a first note</text><line style="stroke: #737373; stroke-width: 1.0416666666666667; stroke-dasharray: 2.0,2.0;" x1="13.5417" x2="1336.4583" y1="1022.0357" y2="1022.0357"/><text fill="#4D4D4D" font-family="Verdana" font-size="12.5" font-weight="bold" lengthAdjust="spacingAndGlyphs" textLength="148.9583" x="27.0833" y="1042.9362">[some kind of failure]</text><polygon fill="#E5E4E2" points="1197.9167,1088.8774,1208.3333,1093.044,1197.9167,1097.2107,1202.0833,1093.044" style="stroke: #E5E4E2; stroke-width: 1.0416666666666667;"/><line style="stroke: #E5E4E2; stroke-width: 3.125;" x1="72.3958" x2="1204.1667" y1="1093.044" y2="1093.044"/><text fill="#4D4D4D" font-family="Verdana" font-size="12.5" font-weight="bold" lengthAdjust="spacingAndGlyphs" textLength="40.625" x="88.0208" y="1080.0028">[011]</text><text fill="#4D4D4D" font-family="Verdana" font-size="12.5" lengthAdjust="spacingAndGlyphs" textLength="142.7083" x="149.4792" y="1080.0028">Authentication Failure</text><polygon fill="#E5E4E2" points="83.8542,1135.319,73.4375,1139.4857,83.8542,1143.6523,79.6875,1139.4857" style="stroke: #E5E4E2; stroke-width: 1.0416666666666667;"/><line style="stroke: #E5E4E2; stroke-width: 3.125; stroke-dasharray: 2.0,2.0;" x1="77.6042" x2="1209.375" y1="1139.4857" y2="1139.4857"/><text fill="#4D4D4D" font-family="Verdana" font-size="12.5" font-weight="bold" lengthAdjust="spacingAndGlyphs" textLength="40.625" x="98.4375" y="1126.4445">[012]</text><text fill="#B7410E" font-family="Verdana" font-size="12.5" font-weight="bold" lengthAdjust="spacingAndGlyphs" textLength="82.2917" x="159.8958" y="1126.4445">Bad request</text><path d="M31.7708,1155.1107 L178.125,1155.1107 L178.125,1178.0273 L167.7083,1188.444 L23.9583,1188.444 L23.9583,1162.9232 " fill="#EEEEEE" style="stroke: #737373; stroke-width: 1.0416666666666667;"/><rect fill="none" height="145.1416" rx="7.8125" ry="7.8125" style="stroke: #737373; stroke-width: 2.0833333333333335;" width="1302.0833" x="23.9583" y="1155.1107"/><text fill="#4682B4" font-family="Verdana" font-size="12.5" font-weight="bold" lengthAdjust="spacingAndGlyphs" textLength="90.625" x="47.9167" y="1177.0528">My own label</text><path d="M42.1875,1196.344 L127.0833,1196.344 L127.0833,1219.2607 L116.6667,1229.6773 L34.375,1229.6773 L34.375,1204.1565 " fill="#EEEEEE" style="stroke: #737373; stroke-width: 1.0416666666666667;"/><rect fill="none" height="96.6166" rx="7.8125" ry="7.8125" style="stroke: #737373; stroke-width: 2.0833333333333335;" width="1281.25" x="34.375" y="1196.344"/><text fill="#4682B4" font-family="Verdana" font-size="12.5" font-weight="bold" lengthAdjust="spacingAndGlyphs" textLength="29.1667" x="58.3333" y="1218.2861">loop</text><text fill="#4D4D4D" font-family="Verdana" font-size="12.5" font-weight="bold" lengthAdjust="spacingAndGlyphs" textLength="91.6667" x="151.0417" y="1219.3278">[1000 times]</text><polygon fill="#E5E4E2" points="83.8542,1280.4606,73.4375,1284.6273,83.8542,1288.7939,79.6875,1284.6273" style="stroke: #E5E4E2; stroke-width: 1.0416666666666667;"/><line style="stroke: #E5E4E2; stroke-width: 3.125;" x1="77.6042" x2="1209.375" y1="1284.6273" y2="1284.6273"/><text fill="#4D4D4D" font-family="Verdana" font-size="12.5" font-weight="bold" lengthAdjust="spacingAndGlyphs" textLength="40.625" x="98.4375" y="1271.5861">[013]</text><text fill="#4D4D4D" font-family="Verdana" font-size="12.5" lengthAdjust="spacingAndGlyphs" textLength="71.875" x="159.8958" y="1271.5861">DNS Attack</text><line style="stroke: #737373; stroke-width: 1.0416666666666667; stroke-dasharray: 2.0,2.0;" x1="13.5417" x2="1336.4583" y1="1308.5856" y2="1308.5856"/><text fill="#4D4D4D" font-family="Verdana" font-size="12.5" font-weight="bold" lengthAdjust="spacingAndGlyphs" textLength="115.625" x="27.0833" y="1329.4861">[Just a Warning]</text><polygon fill="#E5E4E2" points="1197.9167,1375.4272,1208.3333,1379.5939,1197.9167,1383.7606,1202.0833,1379.5939" style="stroke: #E5E4E2; stroke-width: 1.0416666666666667;"/><line style="stroke: #E5E4E2; stroke-width: 3.125;" x1="72.3958" x2="1204.1667" y1="1379.5939" y2="1379.5939"/><text fill="#4D4D4D" font-family="Verdana" font-size="12.5" font-weight="bold" lengthAdjust="spacingAndGlyphs" textLength="40.625" x="88.0208" y="1366.5527">[014]</text><text fill="#FFD700" font-family="Verdana" font-size="12.5" font-weight="bold" lengthAdjust="spacingAndGlyphs" textLength="94.7917" x="149.4792" y="1366.5527">Please repeat</text><path d="M46.875,1408.2397 L46.875,1464.4897 A7.8125,7.8125 0 0 0 54.6875,1472.3022 L274.4792,1472.3022 A7.8125,7.8125 0 0 0 282.2917,1464.4897 L282.2917,1410.8439 L271.875,1400.4272 L54.6875,1400.4272 A7.8125,7.8125 0 0 0 46.875,1408.2397 " fill="url(#gelj4sjxszv2m3)" style="stroke: #8D9DB2; stroke-width: 1.0416666666666667;"/><path d="M271.875,1400.4272 L271.875,1406.9377 A3.9063,3.9063 0 0 0 275.7813,1410.8439 L282.2917,1410.8439 L271.875,1400.4272 " fill="url(#gelj4sjxszv2m3)" style="stroke: #8D9DB2; stroke-width: 1.0416666666666667;"/><text fill="#FDFDFD" font-family="Verdana" font-size="12.5" lengthAdjust="spacingAndGlyphs" textLength="136.4583" x="91.6667" y="1426.5361">this is a second note</text><text fill="#FDFDFD" font-family="Verdana" font-size="12.5" lengthAdjust="spacingAndGlyphs" textLength="81.25" x="91.6667" y="1441.7277">that is really</text><text fill="#FDFDFD" font-family="Verdana" font-size="12.5" lengthAdjust="spacingAndGlyphs" textLength="28.125" x="91.6667" y="1456.9194">long</text><text fill="#888888" font-family="Verdana" font-size="12.5" lengthAdjust="spacingAndGlyphs" textLength="85.4167" x="1261.4583" y="15.6921">Page Header</text><text fill="#888888" font-family="Verdana" font-size="12.5" lengthAdjust="spacingAndGlyphs" textLength="75" x="637.5" y="1606.0527">Page 1 of 1</text><!--MD5=[094882b36a0c1a28fa97f1b40af6860e]
@startuml



skinparam backgroundColor transparent










skinparam defaultFontName        "Verdana"
skinparam defaultFontSize        12
skinparam dpi                    100
skinparam shadowing              false
skinparam roundcorner            15
skinparam ParticipantPadding     30
skinparam BoxPadding             30
skinparam Padding                8
skinparam ArrowColor             #737373
skinparam stereotype {
    CBackgroundColor #cdcdcd
    CBorderColor #9a9a9a
    ABackgroundColor #5cad5c
    ABorderColor #297a29
    IBackgroundColor #c5673e
    IBorderColor #92340b
    EBackgroundColor #ffdf33
    EBorderColor #ccac00
    NBackgroundColor #5c85ad
    NBorderColor #29527a
}
skinparam title {
	FontColor	                 #fdfdfd
	BorderColor	                 #9a9a9a
	FontSize	    	         20
	BorderRoundCorner            8
	BorderThickness 	         1
	BackgroundColor              #cdcdcd-#9a9a9a
}


skinparam legend {
	BackgroundColor #eae9e8-#E5E4E2
	BorderColor #9a9a9a
	FontColor #4682b4
}

skinparam swimlane {
	BorderColor #4682b4
	BorderThickness 2
	TitleBackgroundColor  #cdcdcd-#c0c0c0
	TitleFontColor #E5E4E2
}


skinparam activity {
		FontColor #4682b4
	BorderColor #b7b6b5
	BackgroundColor #E5E4E2-#b7b6b5
	BarColor #CD7F32
	StartColor #4682b4
	EndColor #4682b4
	DiamondBackgroundColor #c0c0c0-#9a9a9a
  	DiamondBorderColor #9a9a9a
	DiamondFontColor #fdfdfd
}


skinparam participant {
		FontColor #4682b4
	BorderColor #b7b6b5
	BackgroundColor #E5E4E2-#b7b6b5
	ParticipantBorderThickness 2
}


skinparam actor {
		FontColor #4682b4
	BorderColor #b7b6b5
	BackgroundColor #E5E4E2-#b7b6b5
	FontColor #4d4d4d
}


skinparam arrow {
	Thickness 3
	Color #E5E4E2
	FontColor #4d4d4d
}


skinparam sequence {
	BorderColor #E5E4E2
	TitleFontColor #fdfdfd
	BackgroundColor transparent
	StartColor #E5E4E2
	EndColor #E5E4E2
	BoxBackgroundColor #f2f2f2
	BoxBorderColor #737373
	BoxFontColor #4d4d4d
	LifeLineBorderColor #9a9a9a
	LifeLineBorderThickness 3
	LifeLineBackgroundColor #cdcdcd-#9a9a9a
	GroupBorderColor #737373
	GroupFontColor #4d4d4d
	GroupHeaderFontColor #4682b4
	DividerBackgroundColor #fdfdfd-#f2f2f2
    DividerBorderColor #737373
    DividerBorderThickness 2
    DividerFontColor #4d4d4d
	ReferenceBackgroundColor transparent
	ReferenceBorderColor #737373
	ReferenceFontColor #4d4d4d
	ReferenceHeaderFontColor #4682b4
}


skinparam partition {
	BorderColor #E5E4E2
	FontColor #b7b6b5
	BackgroundColor transparent
}


skinparam collections {
		FontColor #4682b4
	BorderColor #b7b6b5
	BackgroundColor #E5E4E2-#b7b6b5
}


skinparam control {
		FontColor #4682b4
	BorderColor #b7b6b5
	BackgroundColor #E5E4E2-#b7b6b5
	FontColor #4d4d4d
}


skinparam entity {
		FontColor #4682b4
	BorderColor #b7b6b5
	BackgroundColor #E5E4E2-#b7b6b5
	FontColor #4d4d4d
}


skinparam boundary {
		FontColor #4682b4
	BorderColor #b7b6b5
	BackgroundColor #E5E4E2-#b7b6b5
	FontColor #4d4d4d
}


skinparam agent {
	BackgroundColor #orange
	BorderColor #999999
	FontColor #333333
}


skinparam note {
	BorderThickness 1
	BackgroundColor #c0d0e5-#8d9db2
	BorderColor #8d9db2
	FontColor #fdfdfd
}


skinparam artifact {
	BackgroundColor #cdcdcd-#9a9a9a
	BorderColor #9a9a9a
	FontColor #fdfdfd
}


skinparam component {
		FontColor #4682b4
	BorderColor #b7b6b5
	BackgroundColor #E5E4E2-#b7b6b5
}


skinparam interface {
	BackgroundColor  #c5673e
	BorderColor  #B7410E
	FontColor #4d4d4d
}


skinparam storage {
	BackgroundColor #ffdf33-#ccac00
  	BorderColor #ccac00
	FontColor #fdfdfd
}


skinparam node {
	BackgroundColor #eae9e8-#E5E4E2
	BorderColor #E5E4E2
	FontColor #4d4d4d
}


skinparam cloud {
	BackgroundColor #F2FCFE-#eeeeee
	BorderColor #F2FCFE
	FontColor #4d4d4d
}


skinparam database {
		FontColor #4682b4
	BorderColor #b7b6b5
	BackgroundColor #E5E4E2-#b7b6b5
	FontColor #4d4d4d
}


skinparam class {
		FontColor #4682b4
	BorderColor #b7b6b5
	BackgroundColor #E5E4E2-#b7b6b5
	HeaderBackgroundColor #eae9e8-#b7b6b5
	StereotypeFontColor #4d4d4d
	BorderThickness 1
	AttributeFontColor #4d4d4d
	AttributeFontSize 11
}


skinparam object {
		FontColor #4682b4
	BorderColor #b7b6b5
	BackgroundColor #E5E4E2-#b7b6b5
	StereotypeFontColor #f2f2f2
	BorderThickness 1
	AttributeFontColor #fdfdfd
	AttributeFontSize 11
}


skinparam usecase {
		FontColor #4682b4
	BorderColor #b7b6b5
	BackgroundColor #E5E4E2-#b7b6b5
	BorderThickness 2
	StereotypeFontColor #E5E4E2
}


skinparam rectangle {
		FontColor #4682b4
	BorderColor #b7b6b5
	BackgroundColor #E5E4E2-#b7b6b5
	BackgroundColor #fdfdfd-#f2f2f2
	BorderThickness 2
	StereotypeFontColor #E5E4E2
}


skinparam package {
		FontColor #4682b4
	BorderColor #b7b6b5
	BackgroundColor #E5E4E2-#b7b6b5
	BackgroundColor #eae9e8-#E5E4E2
	BorderThickness 2
}


skinparam folder {
	BackgroundColor #eae9e8-#E5E4E2
  	BorderColor #B7410E
	FontColor #B7410E
	BorderThickness 2
}


skinparam frame {
	BackgroundColor #eae9e8-#E5E4E2
  	BorderColor #4682b4
	FontColor #4682b4
	BorderThickness 2
}


skinparam state {
		FontColor #4682b4
	BorderColor #b7b6b5
	BackgroundColor #E5E4E2-#b7b6b5
	StartColor #4682b4
	EndColor #4682b4
	AttributeFontColor #c0c0c0
    AttributeFontSize 11
}


skinparam queue {
		FontColor #4682b4
	BorderColor #b7b6b5
	BackgroundColor #E5E4E2-#b7b6b5
}


skinparam card {
	BackgroundColor #5c85ad-#29527a
	BorderColor #4682b4
	FontColor #fdfdfd
}


skinparam file {
	BackgroundColor #cdcdcd-#9a9a9a
	BorderColor #737373
	FontColor #f2f2f2

}


skinparam stack {
		FontColor #4682b4
	BorderColor #b7b6b5
	BackgroundColor #E5E4E2-#b7b6b5
}

title Sequence Diagram - metal theme


autonumber "<b>[000]"

header Page Header
footer Page %page% of %lastpage%

actor Foo1
boundary Foo2
control Foo3
entity Foo4
database Foo5
collections Foo6
participant Bob
participant Alice << (C,#ADD1B2) Testable >>

box "Internal Service"
	participant Bob
	participant Alice
end box

== Initialization ==
Foo1 -> Foo2 : To boundary
|||
Foo2 -> Foo3 ++: To control
ref over Foo4, Foo5
  This can be on
  several lines
end ref
Foo3 -> Foo4 : To entity

Foo4 -> Foo5 : To database
Foo5 - -> Foo3 - - : return
Foo3 - -> Foo2 - -: return
... Some ~~long delay~~ ...
Foo1 -> Foo6 : To collections
Foo6 - -> Foo4:   <font color=#339933><b>success


alt successful case

Foo1 -> Alice: Authentication Accepted
Alice - -> Foo1: success

note left of Alice: this is a first note

else some kind of failure

	Foo1 -> Alice: Authentication Failure
    Alice - -> Foo1:   <font color=#B7410E><b>Bad request
	group My own label
	    loop 1000 times
	        Alice -> Foo1: DNS Attack
	    end
	end
	
else Just a Warning

   Foo1 -> Alice:   <font color=#FFD700><b>Please repeat
   
end

note over Foo1, Foo2
this is a second note
that is really
long
end note

@enduml

PlantUML version 1.2020.08(Sun Apr 26 07:08:22 PDT 2020)
(GPL source distribution)
Java Runtime: Java(TM) SE Runtime Environment
JVM: Java HotSpot(TM) 64-Bit Server VM
Java Version: 1.8.0_251-b32
Operating System: Windows 10
Default Encoding: Cp1252
Language: en
Country: US
--></g></svg>