<?xml version="1.0" encoding="UTF-8" standalone="no"?><svg xmlns="http://www.w3.org/2000/svg" xmlns:xlink="http://www.w3.org/1999/xlink" contentScriptType="application/ecmascript" contentStyleType="text/css" height="589px" preserveAspectRatio="none" style="width:366px;height:589px;background:#00000000;" version="1.1" viewBox="0 0 366 589" width="366px" zoomAndPan="magnify"><defs/><g><text fill="#000000" font-family="sans-serif" font-size="18" lengthAdjust="spacingAndGlyphs" textLength="342" x="12" y="26.708">Activity Diagram - resume-light theme</text><ellipse cx="183.5" cy="40.9531" fill="#000000" rx="10" ry="10" style="stroke: none; stroke-width: 1.0;"/><rect fill="#FEFECE" height="33.9688" rx="12.5" ry="12.5" style="stroke: #A80036; stroke-width: 1.5;" width="50" x="158.5" y="70.9531"/><text fill="#000000" font-family="sans-serif" font-size="12" lengthAdjust="spacingAndGlyphs" textLength="30" x="168.5" y="92.0918">start</text><rect fill="#000000" height="6" rx="2.5" ry="2.5" style="stroke: #000000; stroke-width: 1.0;" width="199" x="84" y="124.9219"/><rect fill="#FFFFFF" height="151.2344" rx="5" ry="5" style="stroke: #000000; stroke-width: 2.0;" width="99" x="96" y="141.7236"/><path d="M185,142.7236 L185,151.0205 L175,161.0205 L96,161.0205 " fill="none" style="stroke: #000000; stroke-width: 2.0;"/><text fill="#000000" font-family="sans-serif" font-size="14" lengthAdjust="spacingAndGlyphs" textLength="79" x="99" y="155.7188">My Partition</text><rect fill="#FEFECE" height="33.9688" rx="12.5" ry="12.5" style="stroke: #A80036; stroke-width: 1.5;" width="48" x="121.5" y="178.0205"/><text fill="#000000" font-family="sans-serif" font-size="12" lengthAdjust="spacingAndGlyphs" textLength="28" x="131.5" y="199.1592">foo1</text><rect fill="#FEFECE" height="33.9688" rx="12.5" ry="12.5" style="stroke: #A80036; stroke-width: 1.5;" width="48" x="121.5" y="246.9893"/><text fill="#000000" font-family="sans-serif" font-size="12" lengthAdjust="spacingAndGlyphs" textLength="28" x="131.5" y="268.1279">foo2</text><rect fill="#FEFECE" height="33.9688" rx="12.5" ry="12.5" style="stroke: #A80036; stroke-width: 1.5;" width="48" x="223" y="204.3564"/><text fill="#000000" font-family="sans-serif" font-size="12" lengthAdjust="spacingAndGlyphs" textLength="28" x="233" y="225.4951">foo3</text><rect fill="#000000" height="6" rx="2.5" ry="2.5" style="stroke: #000000; stroke-width: 1.0;" width="199" x="84" y="312.958"/><rect fill="#FEFECE" height="33.9688" rx="12.5" ry="12.5" style="stroke: #A80036; stroke-width: 1.5;" width="48" x="159.5" y="382.958"/><text fill="#000000" font-family="sans-serif" font-size="12" lengthAdjust="spacingAndGlyphs" textLength="28" x="169.5" y="404.0967">foo5</text><polygon fill="#FEFECE" points="171,338.958,196,338.958,208,350.958,196,362.958,171,362.958,159,350.958,171,338.958" style="stroke: #A80036; stroke-width: 1.5;"/><text fill="#000000" font-family="sans-serif" font-size="11" lengthAdjust="spacingAndGlyphs" textLength="25" x="171" y="354.7661">foo4</text><rect fill="#FEFECE" height="33.9688" rx="12.5" ry="12.5" style="stroke: #A80036; stroke-width: 1.5;" width="48" x="159.5" y="458.9268"/><text fill="#000000" font-family="sans-serif" font-size="12" lengthAdjust="spacingAndGlyphs" textLength="28" x="169.5" y="480.0654">foo6</text><rect fill="#FEFECE" height="33.9688" rx="12.5" ry="12.5" style="stroke: #A80036; stroke-width: 1.5;" width="48" x="159.5" y="502.8955"/><text fill="#000000" font-family="sans-serif" font-size="12" lengthAdjust="spacingAndGlyphs" textLength="28" x="169.5" y="524.0342">foo7</text><ellipse cx="183.5" cy="567.8643" fill="#FFFFFF" rx="11" ry="11" style="stroke: #000000; stroke-width: 1.0;"/><ellipse cx="183.5" cy="567.8643" fill="#000000" rx="6" ry="6" style="stroke: #7F7F7F; stroke-width: 1.0;"/><line style="stroke: #A80036; stroke-width: 1.5;" x1="183.5" x2="183.5" y1="50.9531" y2="70.9531"/><polygon fill="#A80036" points="179.5,60.9531,183.5,70.9531,187.5,60.9531,183.5,64.9531" style="stroke: #A80036; stroke-width: 1.0;"/><line style="stroke: #A80036; stroke-width: 1.5;" x1="145.5" x2="145.5" y1="211.9893" y2="246.9893"/><polygon fill="#A80036" points="141.5,236.9893,145.5,246.9893,149.5,236.9893,145.5,240.9893" style="stroke: #A80036; stroke-width: 1.0;"/><line style="stroke: #A80036; stroke-width: 1.5;" x1="145.5" x2="145.5" y1="130.9219" y2="178.0205"/><polygon fill="#A80036" points="141.5,168.0205,145.5,178.0205,149.5,168.0205,145.5,172.0205" style="stroke: #A80036; stroke-width: 1.0;"/><line style="stroke: #A80036; stroke-width: 1.5;" x1="247" x2="247" y1="130.9219" y2="204.3564"/><polygon fill="#A80036" points="243,194.3564,247,204.3564,251,194.3564,247,198.3564" style="stroke: #A80036; stroke-width: 1.0;"/><line style="stroke: #A80036; stroke-width: 1.5;" x1="145.5" x2="145.5" y1="280.958" y2="312.958"/><polygon fill="#A80036" points="141.5,302.958,145.5,312.958,149.5,302.958,145.5,306.958" style="stroke: #A80036; stroke-width: 1.0;"/><line style="stroke: #A80036; stroke-width: 1.5;" x1="183.5" x2="183.5" y1="104.9219" y2="124.9219"/><polygon fill="#A80036" points="179.5,114.9219,183.5,124.9219,187.5,114.9219,183.5,118.9219" style="stroke: #A80036; stroke-width: 1.0;"/><line style="stroke: #A80036; stroke-width: 1.5;" x1="183.5" x2="183.5" y1="362.958" y2="382.958"/><polygon fill="#A80036" points="179.5,372.958,183.5,382.958,187.5,372.958,183.5,376.958" style="stroke: #A80036; stroke-width: 1.0;"/><line style="stroke: #A80036; stroke-width: 1.5;" x1="208" x2="220" y1="350.958" y2="350.958"/><polygon fill="#A80036" points="216,386.9424,220,396.9424,224,386.9424,220,390.9424" style="stroke: #A80036; stroke-width: 1.5;"/><line style="stroke: #A80036; stroke-width: 1.5;" x1="220" x2="220" y1="350.958" y2="438.9268"/><line style="stroke: #A80036; stroke-width: 1.5;" x1="220" x2="183.5" y1="438.9268" y2="438.9268"/><line style="stroke: #A80036; stroke-width: 1.5;" x1="183.5" x2="183.5" y1="438.9268" y2="458.9268"/><polygon fill="#A80036" points="179.5,448.9268,183.5,458.9268,187.5,448.9268,183.5,452.9268" style="stroke: #A80036; stroke-width: 1.0;"/><line style="stroke: #A80036; stroke-width: 1.5;" x1="183.5" x2="183.5" y1="318.958" y2="338.958"/><polygon fill="#A80036" points="179.5,328.958,183.5,338.958,187.5,328.958,183.5,332.958" style="stroke: #A80036; stroke-width: 1.0;"/><line style="stroke: #A80036; stroke-width: 1.5;" x1="183.5" x2="183.5" y1="536.8643" y2="556.8643"/><polygon fill="#A80036" points="179.5,546.8643,183.5,556.8643,187.5,546.8643,183.5,550.8643" style="stroke: #A80036; stroke-width: 1.0;"/><!--MD5=[3c3f4d3b16b12796fb06d67b7d1e066b]
@startuml



skinparam backgroundColor transparent


skinparam  {
    skinparam defaultFontName   "Verdana"
    skinparam defaultFontSize   12
    defaultTextAlignment        center
    shadowing                   false
    RoundCorner                 10
    TitleFontSize               18
}
<style>
    wbsDiagram {
        LineColor #f0f0f0
        BorderThickness 3
        BackgroundColor #f9f9f9
        FontColor #6a9fb5
        :depth(0) {
            fontSize 16
            fontStyle bold
        }
        :depth(1) {
            fontSize 14
            padding 5
            fontStyle bold
        }
        :depth(2) {
            fontSize 12
            padding 3
        }
        :depth(3) {
            fontSize 10
            padding 2
        }

    }
</style>

title Activity Diagram - resume-light theme


start
 :start;
 fork
  partition "My Partition" {
   :foo1;
   :foo2;
  }
 fork again
   :foo3;
   detach
 endfork
 if (foo4) then
   :foo5;
   detach
 endif
 :foo6;
 detach
 :foo7;
 stop
@enduml

PlantUML version 1.2020.08(Sun Apr 26 07:08:22 PDT 2020)
(GPL source distribution)
Java Runtime: OpenJDK Runtime Environment
JVM: OpenJDK 64-Bit Server VM
Java Version: 11.0.8+10-post-Ubuntu-0ubuntu118.04.1
Operating System: Linux
Default Encoding: UTF-8
Language: en
Country: US
--></g></svg>