<?xml version="1.0" encoding="UTF-8" standalone="no"?><svg xmlns="http://www.w3.org/2000/svg" xmlns:xlink="http://www.w3.org/1999/xlink" contentScriptType="application/ecmascript" contentStyleType="text/css" height="599px" preserveAspectRatio="none" style="width:320px;height:599px;background:#00000000;" version="1.1" viewBox="0 0 320 599" width="320px" zoomAndPan="magnify"><defs/><g><text fill="#000000" font-family="sans-serif" font-size="18" lengthAdjust="spacingAndGlyphs" textLength="296" x="12" y="28.6855">Activity Diagram - resume-light theme</text><ellipse cx="160.5" cy="42.6406" fill="#000000" rx="10" ry="10" style="stroke: none; stroke-width: 1.0;"/><rect fill="#FEFECE" height="35.0938" rx="12.5" ry="12.5" style="stroke: #A80036; stroke-width: 1.5;" width="44" x="138.5" y="72.6406"/><text fill="#000000" font-family="sans-serif" font-size="12" lengthAdjust="spacingAndGlyphs" textLength="24" x="148.5" y="95.0977">start</text><rect fill="#000000" height="6" rx="2.5" ry="2.5" style="stroke: #000000; stroke-width: 1.0;" width="190" x="65.5" y="127.7344"/><rect fill="#FFFFFF" height="154.7969" rx="5" ry="5" style="stroke: #000000; stroke-width: 2.0;" width="94" x="77.5" y="144.3105"/><path d="M161.5,145.3105 L161.5,154.9199 L151.5,164.9199 L77.5,164.9199 " fill="none" style="stroke: #000000; stroke-width: 2.0;"/><text fill="#000000" font-family="sans-serif" font-size="14" lengthAdjust="spacingAndGlyphs" textLength="74" x="80.5" y="159.8438">My Partition</text><rect fill="#FEFECE" height="35.0938" rx="12.5" ry="12.5" style="stroke: #A80036; stroke-width: 1.5;" width="44" x="102.5" y="181.9199"/><text fill="#000000" font-family="sans-serif" font-size="12" lengthAdjust="spacingAndGlyphs" textLength="24" x="112.5" y="204.377">foo1</text><rect fill="#FEFECE" height="35.0938" rx="12.5" ry="12.5" style="stroke: #A80036; stroke-width: 1.5;" width="44" x="102.5" y="252.0137"/><text fill="#000000" font-family="sans-serif" font-size="12" lengthAdjust="spacingAndGlyphs" textLength="24" x="112.5" y="274.4707">foo2</text><rect fill="#FEFECE" height="35.0938" rx="12.5" ry="12.5" style="stroke: #A80036; stroke-width: 1.5;" width="44" x="199.5" y="208.1621"/><text fill="#000000" font-family="sans-serif" font-size="12" lengthAdjust="spacingAndGlyphs" textLength="24" x="209.5" y="230.6191">foo3</text><rect fill="#000000" height="6" rx="2.5" ry="2.5" style="stroke: #000000; stroke-width: 1.0;" width="190" x="65.5" y="319.1074"/><rect fill="#FEFECE" height="35.0938" rx="12.5" ry="12.5" style="stroke: #A80036; stroke-width: 1.5;" width="44" x="138.5" y="389.1074"/><text fill="#000000" font-family="sans-serif" font-size="12" lengthAdjust="spacingAndGlyphs" textLength="24" x="148.5" y="411.5645">foo5</text><polygon fill="#FEFECE" points="148.5,345.1074,172.5,345.1074,184.5,357.1074,172.5,369.1074,148.5,369.1074,136.5,357.1074,148.5,345.1074" style="stroke: #A80036; stroke-width: 1.5;"/><text fill="#000000" font-family="sans-serif" font-size="11" lengthAdjust="spacingAndGlyphs" textLength="22" x="149.5" y="361.6084">foo4</text><rect fill="#FEFECE" height="35.0938" rx="12.5" ry="12.5" style="stroke: #A80036; stroke-width: 1.5;" width="44" x="138.5" y="466.2012"/><text fill="#000000" font-family="sans-serif" font-size="12" lengthAdjust="spacingAndGlyphs" textLength="24" x="148.5" y="488.6582">foo6</text><rect fill="#FEFECE" height="35.0938" rx="12.5" ry="12.5" style="stroke: #A80036; stroke-width: 1.5;" width="44" x="138.5" y="511.2949"/><text fill="#000000" font-family="sans-serif" font-size="12" lengthAdjust="spacingAndGlyphs" textLength="24" x="148.5" y="533.752">foo7</text><ellipse cx="160.5" cy="577.3887" fill="#FFFFFF" rx="11" ry="11" style="stroke: #000000; stroke-width: 1.0;"/><ellipse cx="160.5" cy="577.3887" fill="#000000" rx="6" ry="6" style="stroke: #7F7F7F; stroke-width: 1.0;"/><line style="stroke: #A80036; stroke-width: 1.5;" x1="160.5" x2="160.5" y1="52.6406" y2="72.6406"/><polygon fill="#A80036" points="156.5,62.6406,160.5,72.6406,164.5,62.6406,160.5,66.6406" style="stroke: #A80036; stroke-width: 1.0;"/><line style="stroke: #A80036; stroke-width: 1.5;" x1="124.5" x2="124.5" y1="217.0137" y2="252.0137"/><polygon fill="#A80036" points="120.5,242.0137,124.5,252.0137,128.5,242.0137,124.5,246.0137" style="stroke: #A80036; stroke-width: 1.0;"/><line style="stroke: #A80036; stroke-width: 1.5;" x1="124.5" x2="124.5" y1="133.7344" y2="181.9199"/><polygon fill="#A80036" points="120.5,171.9199,124.5,181.9199,128.5,171.9199,124.5,175.9199" style="stroke: #A80036; stroke-width: 1.0;"/><line style="stroke: #A80036; stroke-width: 1.5;" x1="221.5" x2="221.5" y1="133.7344" y2="208.1621"/><polygon fill="#A80036" points="217.5,198.1621,221.5,208.1621,225.5,198.1621,221.5,202.1621" style="stroke: #A80036; stroke-width: 1.0;"/><line style="stroke: #A80036; stroke-width: 1.5;" x1="124.5" x2="124.5" y1="287.1074" y2="319.1074"/><polygon fill="#A80036" points="120.5,309.1074,124.5,319.1074,128.5,309.1074,124.5,313.1074" style="stroke: #A80036; stroke-width: 1.0;"/><line style="stroke: #A80036; stroke-width: 1.5;" x1="160.5" x2="160.5" y1="107.7344" y2="127.7344"/><polygon fill="#A80036" points="156.5,117.7344,160.5,127.7344,164.5,117.7344,160.5,121.7344" style="stroke: #A80036; stroke-width: 1.0;"/><line style="stroke: #A80036; stroke-width: 1.5;" x1="160.5" x2="160.5" y1="369.1074" y2="389.1074"/><polygon fill="#A80036" points="156.5,379.1074,160.5,389.1074,164.5,379.1074,160.5,383.1074" style="stroke: #A80036; stroke-width: 1.0;"/><line style="stroke: #A80036; stroke-width: 1.5;" x1="184.5" x2="196.5" y1="357.1074" y2="357.1074"/><polygon fill="#A80036" points="192.5,393.6543,196.5,403.6543,200.5,393.6543,196.5,397.6543" style="stroke: #A80036; stroke-width: 1.5;"/><line style="stroke: #A80036; stroke-width: 1.5;" x1="196.5" x2="196.5" y1="357.1074" y2="446.2012"/><line style="stroke: #A80036; stroke-width: 1.5;" x1="196.5" x2="160.5" y1="446.2012" y2="446.2012"/><line style="stroke: #A80036; stroke-width: 1.5;" x1="160.5" x2="160.5" y1="446.2012" y2="466.2012"/><polygon fill="#A80036" points="156.5,456.2012,160.5,466.2012,164.5,456.2012,160.5,460.2012" style="stroke: #A80036; stroke-width: 1.0;"/><line style="stroke: #A80036; stroke-width: 1.5;" x1="160.5" x2="160.5" y1="325.1074" y2="345.1074"/><polygon fill="#A80036" points="156.5,335.1074,160.5,345.1074,164.5,335.1074,160.5,339.1074" style="stroke: #A80036; stroke-width: 1.0;"/><line style="stroke: #A80036; stroke-width: 1.5;" x1="160.5" x2="160.5" y1="546.3887" y2="566.3887"/><polygon fill="#A80036" points="156.5,556.3887,160.5,566.3887,164.5,556.3887,160.5,560.3887" style="stroke: #A80036; stroke-width: 1.0;"/><!--MD5=[b104c01d57de0597f504a075bfaea80c]
@startuml



skinparam backgroundColor transparent


skinparam  {
    skinparam defaultFontName   "Verdana"
    skinparam defaultFontSize   12
    defaultTextAlignment        center
    shadowing                   false
    RoundCorner                 10
    TitleFontSize               18
}
<style>
    wbsDiagram {
        LineColor #f0f0f0
        BorderThickness 3
        BackgroundColor #f9f9f9
        FontColor #6a9fb5
        :depth(0) {
            fontSize 16
            fontStyle bold
        }
        :depth(1) {
            fontSize 14
            padding 5
            fontStyle bold
        }
        :depth(2) {
            fontSize 12
            padding 3
        }
        :depth(3) {
            fontSize 10
            padding 2
        }

    }
</style>

title Activity Diagram - resume-light theme


start
 :start;
 fork
  partition "My Partition" {
   :foo1;
   :foo2;
  }
 fork again
   :foo3;
   detach
 endfork
 if (foo4) then
   :foo5;
   detach
 endif
 :foo6;
 detach
 :foo7;
 stop
@enduml

PlantUML version 1.2020.08(Sun Apr 26 07:08:22 PDT 2020)
(GPL source distribution)
Java Runtime: Java(TM) SE Runtime Environment
JVM: Java HotSpot(TM) 64-Bit Server VM
Java Version: 1.8.0_251-b32
Operating System: Windows 10
Default Encoding: Cp1252
Language: en
Country: US
--></g></svg>