<?xml version="1.0" encoding="UTF-8" standalone="no"?><svg xmlns="http://www.w3.org/2000/svg" xmlns:xlink="http://www.w3.org/1999/xlink" contentScriptType="application/ecmascript" contentStyleType="text/css" height="592px" preserveAspectRatio="none" style="width:321px;height:592px;background:#00000000;" version="1.1" viewBox="0 0 321 592" width="321px" zoomAndPan="magnify"><defs><filter height="300%" id="fqh8jqp7uym1f" width="300%" x="-1" y="-1"><feGaussianBlur result="blurOut" stdDeviation="2.0"/><feColorMatrix in="blurOut" result="blurOut2" type="matrix" values="0 0 0 0 0 0 0 0 0 0 0 0 0 0 0 0 0 0 .4 0"/><feOffset dx="4.0" dy="4.0" in="blurOut2" result="blurOut3"/><feBlend in="SourceGraphic" in2="blurOut3" mode="normal"/></filter></defs><g><rect fill="none" height="26.2969" style="stroke:none;stroke-width:1.0;" width="308" x="5" y="5"/><text fill="#000000" font-family="sans-serif" font-size="14" font-weight="bold" lengthAdjust="spacing" textLength="298" x="10" y="22.9951">Activity Diagram - resume-light theme</text><ellipse cx="160.5" cy="47.2969" fill="#000000" filter="url(#fqh8jqp7uym1f)" rx="10" ry="10" style="stroke:none;stroke-width:1.0;"/><rect fill="#FEFECE" filter="url(#fqh8jqp7uym1f)" height="33.9688" rx="12.5" ry="12.5" style="stroke:#A80036;stroke-width:1.5;" width="50" x="135.5" y="77.2969"/><text fill="#000000" font-family="sans-serif" font-size="12" lengthAdjust="spacing" textLength="30" x="145.5" y="98.4355">start</text><rect fill="#000000" height="6" rx="2.5" ry="2.5" style="stroke:#000000;stroke-width:1.0;" width="199" x="61" y="131.2656"/><rect fill="#FFFFFF" filter="url(#fqh8jqp7uym1f)" height="151.2344" style="stroke:#000000;stroke-width:2.0;" width="99" x="73" y="148.0674"/><path d="M162,148.0674 L162,157.3643 L152,167.3643 L73,167.3643 " fill="none" style="stroke:#000000;stroke-width:2.0;"/><text fill="#000000" font-family="sans-serif" font-size="14" lengthAdjust="spacing" textLength="79" x="76" y="162.0625">My Partition</text><rect fill="#FEFECE" filter="url(#fqh8jqp7uym1f)" height="33.9688" rx="12.5" ry="12.5" style="stroke:#A80036;stroke-width:1.5;" width="48" x="98.5" y="184.3643"/><text fill="#000000" font-family="sans-serif" font-size="12" lengthAdjust="spacing" textLength="28" x="108.5" y="205.5029">foo1</text><rect fill="#FEFECE" filter="url(#fqh8jqp7uym1f)" height="33.9688" rx="12.5" ry="12.5" style="stroke:#A80036;stroke-width:1.5;" width="48" x="98.5" y="253.333"/><text fill="#000000" font-family="sans-serif" font-size="12" lengthAdjust="spacing" textLength="28" x="108.5" y="274.4717">foo2</text><rect fill="#FEFECE" filter="url(#fqh8jqp7uym1f)" height="33.9688" rx="12.5" ry="12.5" style="stroke:#A80036;stroke-width:1.5;" width="48" x="200" y="210.7002"/><text fill="#000000" font-family="sans-serif" font-size="12" lengthAdjust="spacing" textLength="28" x="210" y="231.8389">foo3</text><rect fill="#000000" height="6" rx="2.5" ry="2.5" style="stroke:#000000;stroke-width:1.0;" width="199" x="61" y="319.3018"/><rect fill="#FEFECE" filter="url(#fqh8jqp7uym1f)" height="33.9688" rx="12.5" ry="12.5" style="stroke:#A80036;stroke-width:1.5;" width="48" x="136.5" y="389.3018"/><text fill="#000000" font-family="sans-serif" font-size="12" lengthAdjust="spacing" textLength="28" x="146.5" y="410.4404">foo5</text><polygon fill="#FEFECE" filter="url(#fqh8jqp7uym1f)" points="148,345.3018,173,345.3018,185,357.3018,173,369.3018,148,369.3018,136,357.3018,148,345.3018" style="stroke:#A80036;stroke-width:1.5;"/><text fill="#000000" font-family="sans-serif" font-size="11" lengthAdjust="spacing" textLength="25" x="148" y="361.1099">foo4</text><rect fill="#FEFECE" filter="url(#fqh8jqp7uym1f)" height="33.9688" rx="12.5" ry="12.5" style="stroke:#A80036;stroke-width:1.5;" width="48" x="136.5" y="465.2705"/><text fill="#000000" font-family="sans-serif" font-size="12" lengthAdjust="spacing" textLength="28" x="146.5" y="486.4092">foo6</text><rect fill="#FEFECE" filter="url(#fqh8jqp7uym1f)" height="33.9688" rx="12.5" ry="12.5" style="stroke:#A80036;stroke-width:1.5;" width="48" x="136.5" y="509.2393"/><text fill="#000000" font-family="sans-serif" font-size="12" lengthAdjust="spacing" textLength="28" x="146.5" y="530.3779">foo7</text><ellipse cx="160.5" cy="574.208" filter="url(#fqh8jqp7uym1f)" rx="11" ry="11" style="stroke:#000000;stroke-width:1.0;fill:none;"/><ellipse cx="160.5" cy="574.208" fill="#000000" rx="6" ry="6" style="stroke:#000000;stroke-width:1.0;"/><line style="stroke:#A80036;stroke-width:1.5;" x1="160.5" x2="160.5" y1="57.2969" y2="77.2969"/><polygon fill="#A80036" points="156.5,67.2969,160.5,77.2969,164.5,67.2969,160.5,71.2969" style="stroke:#A80036;stroke-width:1.0;"/><line style="stroke:#A80036;stroke-width:1.5;" x1="122.5" x2="122.5" y1="218.333" y2="253.333"/><polygon fill="#A80036" points="118.5,243.333,122.5,253.333,126.5,243.333,122.5,247.333" style="stroke:#A80036;stroke-width:1.0;"/><line style="stroke:#A80036;stroke-width:1.5;" x1="122.5" x2="122.5" y1="137.2656" y2="184.3643"/><polygon fill="#A80036" points="118.5,174.3643,122.5,184.3643,126.5,174.3643,122.5,178.3643" style="stroke:#A80036;stroke-width:1.0;"/><line style="stroke:#A80036;stroke-width:1.5;" x1="224" x2="224" y1="137.2656" y2="210.7002"/><polygon fill="#A80036" points="220,200.7002,224,210.7002,228,200.7002,224,204.7002" style="stroke:#A80036;stroke-width:1.0;"/><line style="stroke:#A80036;stroke-width:1.5;" x1="122.5" x2="122.5" y1="287.3018" y2="319.3018"/><polygon fill="#A80036" points="118.5,309.3018,122.5,319.3018,126.5,309.3018,122.5,313.3018" style="stroke:#A80036;stroke-width:1.0;"/><line style="stroke:#A80036;stroke-width:1.5;" x1="160.5" x2="160.5" y1="111.2656" y2="131.2656"/><polygon fill="#A80036" points="156.5,121.2656,160.5,131.2656,164.5,121.2656,160.5,125.2656" style="stroke:#A80036;stroke-width:1.0;"/><line style="stroke:#A80036;stroke-width:1.5;" x1="160.5" x2="160.5" y1="369.3018" y2="389.3018"/><polygon fill="#A80036" points="156.5,379.3018,160.5,389.3018,164.5,379.3018,160.5,383.3018" style="stroke:#A80036;stroke-width:1.0;"/><line style="stroke:#A80036;stroke-width:1.5;" x1="185" x2="197" y1="357.3018" y2="357.3018"/><polygon fill="#A80036" points="193,393.2861,197,403.2861,201,393.2861,197,397.2861" style="stroke:#A80036;stroke-width:1.5;"/><line style="stroke:#A80036;stroke-width:1.5;" x1="197" x2="197" y1="357.3018" y2="445.2705"/><line style="stroke:#A80036;stroke-width:1.5;" x1="197" x2="160.5" y1="445.2705" y2="445.2705"/><line style="stroke:#A80036;stroke-width:1.5;" x1="160.5" x2="160.5" y1="445.2705" y2="465.2705"/><polygon fill="#A80036" points="156.5,455.2705,160.5,465.2705,164.5,455.2705,160.5,459.2705" style="stroke:#A80036;stroke-width:1.0;"/><line style="stroke:#A80036;stroke-width:1.5;" x1="160.5" x2="160.5" y1="325.3018" y2="345.3018"/><polygon fill="#A80036" points="156.5,335.3018,160.5,345.3018,164.5,335.3018,160.5,339.3018" style="stroke:#A80036;stroke-width:1.0;"/><line style="stroke:#A80036;stroke-width:1.5;" x1="160.5" x2="160.5" y1="543.208" y2="563.208"/><polygon fill="#A80036" points="156.5,553.208,160.5,563.208,164.5,553.208,160.5,557.208" style="stroke:#A80036;stroke-width:1.0;"/><!--MD5=[ad6bf7d79b749259dff39f8f37612b6c]
@startuml

!$THEME = "resume-light"

!if %not(%variable_exists("$BGCOLOR"))
!$BGCOLOR = "transparent"
!endif

skinparam backgroundColor $BGCOLOR
skinparam useBetaStyle false


skinparam  {
    skinparam defaultFontName   "Verdana"
    skinparam defaultFontSize   12
    defaultTextAlignment        center
    shadowing                   false
    RoundCorner                 10
    TitleFontSize               18
}
<style>
    wbsDiagram {
        LineColor #f0f0f0
        BorderThickness 3
        BackgroundColor #f9f9f9
        FontColor #6a9fb5
        :depth(0) {
            fontSize 16
            fontStyle bold
        }
        :depth(1) {
            fontSize 14
            padding 5
            fontStyle bold
        }
        :depth(2) {
            fontSize 12
            padding 3
        }
        :depth(3) {
            fontSize 10
            padding 2
        }

    }
</style>

!if %variable_exists("$THEME")
title Activity Diagram - $THEME theme
!else
title Activity Diagram
!endif

'skinparam BackgroundColor transparent

start
 :start;
 fork
  partition "My Partition" {
   :foo1;
   :foo2;
  }
 fork again
   :foo3;
   detach
 endfork
 if (foo4) then
   :foo5;
   detach
 endif
 :foo6;
 detach
 :foo7;
 stop
@enduml

@startuml



skinparam backgroundColor transparent
skinparam useBetaStyle false


skinparam  {
    skinparam defaultFontName   "Verdana"
    skinparam defaultFontSize   12
    defaultTextAlignment        center
    shadowing                   false
    RoundCorner                 10
    TitleFontSize               18
}
<style>
    wbsDiagram {
        LineColor #f0f0f0
        BorderThickness 3
        BackgroundColor #f9f9f9
        FontColor #6a9fb5
        :depth(0) {
            fontSize 16
            fontStyle bold
        }
        :depth(1) {
            fontSize 14
            padding 5
            fontStyle bold
        }
        :depth(2) {
            fontSize 12
            padding 3
        }
        :depth(3) {
            fontSize 10
            padding 2
        }

    }
</style>

title Activity Diagram - resume-light theme


start
 :start;
 fork
  partition "My Partition" {
   :foo1;
   :foo2;
  }
 fork again
   :foo3;
   detach
 endfork
 if (foo4) then
   :foo5;
   detach
 endif
 :foo6;
 detach
 :foo7;
 stop
@enduml

PlantUML version 1.2021.01(Mon Feb 01 23:55:08 PST 2021)
(GPL source distribution)
Java Runtime: OpenJDK Runtime Environment
JVM: OpenJDK 64-Bit Server VM
Default Encoding: UTF-8
Language: en
Country: US
--></g></svg>