<?xml version="1.0" encoding="UTF-8" standalone="no"?><svg xmlns="http://www.w3.org/2000/svg" xmlns:xlink="http://www.w3.org/1999/xlink" contentScriptType="application/ecmascript" contentStyleType="text/css" height="429px" preserveAspectRatio="none" style="width:605px;height:429px;background:#00000000;" version="1.1" viewBox="0 0 605 429" width="605px" zoomAndPan="magnify"><defs/><g><rect fill="none" height="32.6406" rx="5" ry="5" style="stroke: none; stroke-width: 1.0;" width="356" x="73.5" y="15"/><text fill="#000000" font-family="sans-serif" font-size="18" font-weight="bold" lengthAdjust="spacingAndGlyphs" textLength="346" x="78.5" y="38.6855">Mindmap Diagram - resume-light theme</text><rect fill="#FEFECE" height="37.6094" rx="5" ry="5" style="stroke: #A80036; stroke-width: 1.5;" width="40" x="304" y="222.0664"/><text fill="#000000" font-family="sans-serif" font-size="14" lengthAdjust="spacingAndGlyphs" textLength="20" x="314" y="246.5996">OS</text><rect fill="#FEFECE" height="37.6094" rx="5" ry="5" style="stroke: #A80036; stroke-width: 1.5;" width="65" x="394" y="150.0547"/><text fill="#000000" font-family="sans-serif" font-size="14" lengthAdjust="spacingAndGlyphs" textLength="45" x="404" y="174.5879">Ubuntu</text><rect fill="#FEFECE" height="37.6094" rx="5" ry="5" style="stroke: #A80036; stroke-width: 1.5;" width="83" x="509" y="63.6406"/><text fill="#000000" font-family="sans-serif" font-size="14" lengthAdjust="spacingAndGlyphs" textLength="63" x="519" y="88.1738">Linux Mint</text><path d="M459,168.8594 L469,168.8594 C484,168.8594 484,82.4453 499,82.4453 L509,82.4453 " fill="none" style="stroke: #A80036; stroke-width: 1.0;"/><rect fill="#FEFECE" height="37.6094" rx="5" ry="5" style="stroke: #A80036; stroke-width: 1.5;" width="73" x="509" y="121.25"/><text fill="#000000" font-family="sans-serif" font-size="14" lengthAdjust="spacingAndGlyphs" textLength="53" x="519" y="145.7832">Kubuntu</text><path d="M459,168.8594 L469,168.8594 C484,168.8594 484,140.0547 499,140.0547 L509,140.0547 " fill="none" style="stroke: #A80036; stroke-width: 1.0;"/><rect fill="#FEFECE" height="37.6094" rx="5" ry="5" style="stroke: #A80036; stroke-width: 1.5;" width="72" x="509" y="178.8594"/><text fill="#000000" font-family="sans-serif" font-size="14" lengthAdjust="spacingAndGlyphs" textLength="52" x="519" y="203.3926">Lubuntu</text><path d="M459,168.8594 L469,168.8594 C484,168.8594 484,197.6641 499,197.6641 L509,197.6641 " fill="none" style="stroke: #A80036; stroke-width: 1.0;"/><rect fill="#FEFECE" height="37.6094" rx="5" ry="5" style="stroke: #A80036; stroke-width: 1.5;" width="85" x="509" y="236.4688"/><text fill="#000000" font-family="sans-serif" font-size="14" lengthAdjust="spacingAndGlyphs" textLength="65" x="519" y="261.002">KDE Neon</text><path d="M459,168.8594 L469,168.8594 C484,168.8594 484,255.2734 499,255.2734 L509,255.2734 " fill="none" style="stroke: #A80036; stroke-width: 1.0;"/><path d="M344,240.8711 L354,240.8711 C369,240.8711 369,168.8594 384,168.8594 L394,168.8594 " fill="none" style="stroke: #A80036; stroke-width: 1.0;"/><rect fill="#FEFECE" height="37.6094" rx="5" ry="5" style="stroke: #A80036; stroke-width: 1.5;" width="58" x="394" y="207.6641"/><text fill="#000000" font-family="sans-serif" font-size="14" lengthAdjust="spacingAndGlyphs" textLength="38" x="404" y="232.1973">LMDE</text><path d="M344,240.8711 L354,240.8711 C369,240.8711 369,226.4688 384,226.4688 L394,226.4688 " fill="none" style="stroke: #A80036; stroke-width: 1.0;"/><rect fill="#FEFECE" height="37.6094" rx="5" ry="5" style="stroke: #A80036; stroke-width: 1.5;" width="72" x="394" y="265.2734"/><text fill="#000000" font-family="sans-serif" font-size="14" lengthAdjust="spacingAndGlyphs" textLength="52" x="404" y="289.8066">SolydXK</text><path d="M344,240.8711 L354,240.8711 C369,240.8711 369,284.0781 384,284.0781 L394,284.0781 " fill="none" style="stroke: #A80036; stroke-width: 1.0;"/><rect fill="#FEFECE" height="37.6094" rx="5" ry="5" style="stroke: #A80036; stroke-width: 1.5;" width="80" x="394" y="322.8828"/><text fill="#000000" font-family="sans-serif" font-size="14" lengthAdjust="spacingAndGlyphs" textLength="60" x="404" y="347.416">SteamOS</text><path d="M344,240.8711 L354,240.8711 C369,240.8711 369,341.6875 384,341.6875 L394,341.6875 " fill="none" style="stroke: #A80036; stroke-width: 1.0;"/><rect fill="#FEFECE" height="37.6094" rx="5" ry="5" style="stroke: #A80036; stroke-width: 1.5;" width="80" x="394" y="380.4922"/><text fill="#000000" font-family="sans-serif" font-size="14" lengthAdjust="spacingAndGlyphs" textLength="60" x="404" y="405.0254">Raspbian</text><path d="M344,240.8711 L354,240.8711 C369,240.8711 369,399.2969 384,399.2969 L394,399.2969 " fill="none" style="stroke: #A80036; stroke-width: 1.0;"/><rect fill="#FEFECE" height="37.6094" rx="5" ry="5" style="stroke: #A80036; stroke-width: 1.5;" width="96" x="158" y="150.0547"/><text fill="#000000" font-family="sans-serif" font-size="14" lengthAdjust="spacingAndGlyphs" textLength="76" x="168" y="174.5879">Windows 95</text><path d="M304,240.8711 L294,240.8711 C279,240.8711 279,168.8594 264,168.8594 L254,168.8594 " fill="none" style="stroke: #A80036; stroke-width: 1.0;"/><rect fill="#FEFECE" height="37.6094" rx="5" ry="5" style="stroke: #A80036; stroke-width: 1.5;" width="96" x="158" y="207.6641"/><text fill="#000000" font-family="sans-serif" font-size="14" lengthAdjust="spacingAndGlyphs" textLength="76" x="168" y="232.1973">Windows 98</text><path d="M304,240.8711 L294,240.8711 C279,240.8711 279,226.4688 264,226.4688 L254,226.4688 " fill="none" style="stroke: #A80036; stroke-width: 1.0;"/><rect fill="#FEFECE" height="37.6094" rx="5" ry="5" style="stroke: #A80036; stroke-width: 1.5;" width="98" x="156" y="265.2734"/><text fill="#000000" font-family="sans-serif" font-size="14" lengthAdjust="spacingAndGlyphs" textLength="78" x="166" y="289.8066">Windows NT</text><rect fill="#FEFECE" height="37.6094" rx="5" ry="5" style="stroke: #A80036; stroke-width: 1.5;" width="88" x="18" y="236.4688"/><text fill="#000000" font-family="sans-serif" font-size="14" lengthAdjust="spacingAndGlyphs" textLength="68" x="28" y="261.002">Windows 8</text><path d="M156,284.0781 L146,284.0781 C131,284.0781 131,255.2734 116,255.2734 L106,255.2734 " fill="none" style="stroke: #A80036; stroke-width: 1.0;"/><rect fill="#FEFECE" height="37.6094" rx="5" ry="5" style="stroke: #A80036; stroke-width: 1.5;" width="96" x="10" y="294.0781"/><text fill="#000000" font-family="sans-serif" font-size="14" lengthAdjust="spacingAndGlyphs" textLength="76" x="20" y="318.6113">Windows 10</text><path d="M156,284.0781 L146,284.0781 C131,284.0781 131,312.8828 116,312.8828 L106,312.8828 " fill="none" style="stroke: #A80036; stroke-width: 1.0;"/><path d="M304,240.8711 L294,240.8711 C279,240.8711 279,284.0781 264,284.0781 L254,284.0781 " fill="none" style="stroke: #A80036; stroke-width: 1.0;"/><!--MD5=[0a5770394a3d1bf6180c7712d05985a9]
@startmindmap



skinparam backgroundColor transparent


skinparam  {
    skinparam defaultFontName   "Verdana"
    skinparam defaultFontSize   12
    defaultTextAlignment        center
    shadowing                   false
    RoundCorner                 10
    TitleFontSize               18
}
<style>
    wbsDiagram {
        LineColor #f0f0f0
        BorderThickness 3
        BackgroundColor #f9f9f9
        FontColor #6a9fb5
        :depth(0) {
            fontSize 16
            fontStyle bold
        }
        :depth(1) {
            fontSize 14
            padding 5
            fontStyle bold
        }
        :depth(2) {
            fontSize 12
            padding 3
        }
        :depth(3) {
            fontSize 10
            padding 2
        }

    }
</style>

title Mindmap Diagram - resume-light theme


+ OS
++ Ubuntu
+++ Linux Mint
+++ Kubuntu
+++ Lubuntu
+++ KDE Neon
++ LMDE
++ SolydXK
++ SteamOS
++ Raspbian
- - Windows 95
- - Windows 98
- - Windows NT
- - - Windows 8
- - - Windows 10

@endmindmap

PlantUML version 1.2020.08(Sun Apr 26 07:08:22 PDT 2020)
(GPL source distribution)
Java Runtime: Java(TM) SE Runtime Environment
JVM: Java HotSpot(TM) 64-Bit Server VM
Java Version: 1.8.0_251-b32
Operating System: Windows 10
Default Encoding: Cp1252
Language: en
Country: US
--></g></svg>