<?xml version="1.0" encoding="UTF-8" standalone="no"?><svg xmlns="http://www.w3.org/2000/svg" xmlns:xlink="http://www.w3.org/1999/xlink" contentScriptType="application/ecmascript" contentStyleType="text/css" height="1101px" preserveAspectRatio="none" style="width:849px;height:1101px;background:#00000000;" version="1.1" viewBox="0 0 849 1101" width="849px" zoomAndPan="magnify"><defs/><g><text fill="#000000" font-family="sans-serif" font-size="18" lengthAdjust="spacingAndGlyphs" textLength="321" x="259.5" y="44.2637">Sequence Diagram - resume-light theme</text><rect fill="#DDDDDD" height="1017.5156" rx="5" ry="5" style="stroke: #A80036; stroke-width: 1.0;" width="170" x="631" y="56.2188"/><text fill="#000000" font-family="sans-serif" font-size="13" font-weight="bold" lengthAdjust="spacingAndGlyphs" textLength="101" x="665.5" y="69.7139">Internal Service</text><rect fill="#FFFFFF" height="185.4609" style="stroke: #A80036; stroke-width: 1.0;" width="10" x="299.5" y="267.8828"/><rect fill="#FFFFFF" height="333.1875" rx="5" ry="5" style="stroke: #000000; stroke-width: 2.0;" width="814" x="13" y="570.8828"/><rect fill="#FFFFFF" height="171.5938" style="stroke: none; stroke-width: 1.0;" width="814" x="13" y="686.2891"/><rect fill="#FFFFFF" height="81.0547" rx="5" ry="5" style="stroke: #000000; stroke-width: 2.0;" width="794" x="23" y="769.8281"/><rect fill="#FFFFFF" height="48.7031" rx="5" ry="5" style="stroke: #000000; stroke-width: 2.0;" width="774" x="33" y="795.1797"/><rect fill="#FFFFFF" height="46.1875" style="stroke: none; stroke-width: 1.0;" width="814" x="13" y="857.8828"/><line style="stroke: #A80036; stroke-width: 1.0;" x1="62" x2="62" y1="135.8281" y2="461.3438"/><line style="stroke: #A80036; stroke-width: 1.0; stroke-dasharray: 1.0,4.0;" x1="62" x2="62" y1="461.3438" y2="503.1797"/><line style="stroke: #A80036; stroke-width: 1.0;" x1="62" x2="62" y1="503.1797" y2="990.125"/><line style="stroke: #A80036; stroke-width: 1.0;" x1="190" x2="190" y1="135.8281" y2="461.3438"/><line style="stroke: #A80036; stroke-width: 1.0; stroke-dasharray: 1.0,4.0;" x1="190" x2="190" y1="461.3438" y2="503.1797"/><line style="stroke: #A80036; stroke-width: 1.0;" x1="190" x2="190" y1="503.1797" y2="990.125"/><line style="stroke: #A80036; stroke-width: 1.0;" x1="304" x2="304" y1="135.8281" y2="461.3438"/><line style="stroke: #A80036; stroke-width: 1.0; stroke-dasharray: 1.0,4.0;" x1="304" x2="304" y1="461.3438" y2="503.1797"/><line style="stroke: #A80036; stroke-width: 1.0;" x1="304" x2="304" y1="503.1797" y2="990.125"/><line style="stroke: #A80036; stroke-width: 1.0;" x1="416" x2="416" y1="135.8281" y2="461.3438"/><line style="stroke: #A80036; stroke-width: 1.0; stroke-dasharray: 1.0,4.0;" x1="416" x2="416" y1="461.3438" y2="503.1797"/><line style="stroke: #A80036; stroke-width: 1.0;" x1="416" x2="416" y1="503.1797" y2="990.125"/><line style="stroke: #A80036; stroke-width: 1.0;" x1="544" x2="544" y1="135.8281" y2="461.3438"/><line style="stroke: #A80036; stroke-width: 1.0; stroke-dasharray: 1.0,4.0;" x1="544" x2="544" y1="461.3438" y2="503.1797"/><line style="stroke: #A80036; stroke-width: 1.0;" x1="544" x2="544" y1="503.1797" y2="990.125"/><line style="stroke: #A80036; stroke-width: 1.0;" x1="599" x2="599" y1="135.8281" y2="461.3438"/><line style="stroke: #A80036; stroke-width: 1.0; stroke-dasharray: 1.0,4.0;" x1="599" x2="599" y1="461.3438" y2="503.1797"/><line style="stroke: #A80036; stroke-width: 1.0;" x1="599" x2="599" y1="503.1797" y2="990.125"/><line style="stroke: #A80036; stroke-width: 1.0;" x1="654" x2="654" y1="135.8281" y2="461.3438"/><line style="stroke: #A80036; stroke-width: 1.0; stroke-dasharray: 1.0,4.0;" x1="654" x2="654" y1="461.3438" y2="503.1797"/><line style="stroke: #A80036; stroke-width: 1.0;" x1="654" x2="654" y1="503.1797" y2="990.125"/><line style="stroke: #A80036; stroke-width: 1.0;" x1="740" x2="740" y1="135.8281" y2="461.3438"/><line style="stroke: #A80036; stroke-width: 1.0; stroke-dasharray: 1.0,4.0;" x1="740" x2="740" y1="461.3438" y2="503.1797"/><line style="stroke: #A80036; stroke-width: 1.0;" x1="740" x2="740" y1="503.1797" y2="990.125"/><text fill="#000000" font-family="sans-serif" font-size="14" lengthAdjust="spacingAndGlyphs" textLength="33" x="43" y="132.752">Foo1</text><ellipse cx="62.5" cy="65.2188" fill="#FEFECE" rx="8" ry="8" style="stroke: #A80036; stroke-width: 2.0;"/><path d="M62.5,73.2188 L62.5,100.2188 M49.5,81.2188 L75.5,81.2188 M62.5,100.2188 L49.5,115.2188 M62.5,100.2188 L75.5,115.2188 " fill="none" style="stroke: #A80036; stroke-width: 2.0;"/><text fill="#000000" font-family="sans-serif" font-size="14" lengthAdjust="spacingAndGlyphs" textLength="33" x="43" y="1003.6582">Foo1</text><ellipse cx="62.5" cy="1016.7344" fill="#FEFECE" rx="8" ry="8" style="stroke: #A80036; stroke-width: 2.0;"/><path d="M62.5,1024.7344 L62.5,1051.7344 M49.5,1032.7344 L75.5,1032.7344 M62.5,1051.7344 L49.5,1066.7344 M62.5,1051.7344 L75.5,1066.7344 " fill="none" style="stroke: #A80036; stroke-width: 2.0;"/><text fill="#000000" font-family="sans-serif" font-size="14" lengthAdjust="spacingAndGlyphs" textLength="33" x="171" y="132.752">Foo2</text><path d="M170,90.2188 L170,114.2188 M170,102.2188 L187,102.2188 " fill="none" style="stroke: #A80036; stroke-width: 2.0;"/><ellipse cx="199" cy="102.2188" fill="#FEFECE" rx="12" ry="12" style="stroke: #A80036; stroke-width: 2.0;"/><text fill="#000000" font-family="sans-serif" font-size="14" lengthAdjust="spacingAndGlyphs" textLength="33" x="171" y="1003.6582">Foo2</text><path d="M170,1010.7344 L170,1034.7344 M170,1022.7344 L187,1022.7344 " fill="none" style="stroke: #A80036; stroke-width: 2.0;"/><ellipse cx="199" cy="1022.7344" fill="#FEFECE" rx="12" ry="12" style="stroke: #A80036; stroke-width: 2.0;"/><text fill="#000000" font-family="sans-serif" font-size="14" lengthAdjust="spacingAndGlyphs" textLength="33" x="285" y="132.752">Foo3</text><ellipse cx="304.5" cy="102.2188" fill="#FEFECE" rx="12" ry="12" style="stroke: #A80036; stroke-width: 2.0;"/><polygon fill="#A80036" points="300.5,90.2188,306.5,85.2188,304.5,90.2188,306.5,95.2188,300.5,90.2188" style="stroke: #A80036; stroke-width: 1.0;"/><text fill="#000000" font-family="sans-serif" font-size="14" lengthAdjust="spacingAndGlyphs" textLength="33" x="285" y="1003.6582">Foo3</text><ellipse cx="304.5" cy="1022.7344" fill="#FEFECE" rx="12" ry="12" style="stroke: #A80036; stroke-width: 2.0;"/><polygon fill="#A80036" points="300.5,1010.7344,306.5,1005.7344,304.5,1010.7344,306.5,1015.7344,300.5,1010.7344" style="stroke: #A80036; stroke-width: 1.0;"/><text fill="#000000" font-family="sans-serif" font-size="14" lengthAdjust="spacingAndGlyphs" textLength="33" x="397" y="132.752">Foo4</text><ellipse cx="416.5" cy="102.2188" fill="#FEFECE" rx="12" ry="12" style="stroke: #A80036; stroke-width: 2.0;"/><line style="stroke: #A80036; stroke-width: 2.0;" x1="404.5" x2="428.5" y1="116.2188" y2="116.2188"/><text fill="#000000" font-family="sans-serif" font-size="14" lengthAdjust="spacingAndGlyphs" textLength="33" x="397" y="1003.6582">Foo4</text><ellipse cx="416.5" cy="1022.7344" fill="#FEFECE" rx="12" ry="12" style="stroke: #A80036; stroke-width: 2.0;"/><line style="stroke: #A80036; stroke-width: 2.0;" x1="404.5" x2="428.5" y1="1036.7344" y2="1036.7344"/><text fill="#000000" font-family="sans-serif" font-size="14" lengthAdjust="spacingAndGlyphs" textLength="33" x="525" y="132.752">Foo5</text><path d="M526.5,82.2188 C526.5,72.2188 544.5,72.2188 544.5,72.2188 C544.5,72.2188 562.5,72.2188 562.5,82.2188 L562.5,108.2188 C562.5,118.2188 544.5,118.2188 544.5,118.2188 C544.5,118.2188 526.5,118.2188 526.5,108.2188 L526.5,82.2188 " fill="#FEFECE" style="stroke: #000000; stroke-width: 1.5;"/><path d="M526.5,82.2188 C526.5,92.2188 544.5,92.2188 544.5,92.2188 C544.5,92.2188 562.5,92.2188 562.5,82.2188 " fill="none" style="stroke: #000000; stroke-width: 1.5;"/><text fill="#000000" font-family="sans-serif" font-size="14" lengthAdjust="spacingAndGlyphs" textLength="33" x="525" y="1003.6582">Foo5</text><path d="M526.5,1016.7344 C526.5,1006.7344 544.5,1006.7344 544.5,1006.7344 C544.5,1006.7344 562.5,1006.7344 562.5,1016.7344 L562.5,1042.7344 C562.5,1052.7344 544.5,1052.7344 544.5,1052.7344 C544.5,1052.7344 526.5,1052.7344 526.5,1042.7344 L526.5,1016.7344 " fill="#FEFECE" style="stroke: #000000; stroke-width: 1.5;"/><path d="M526.5,1016.7344 C526.5,1026.7344 544.5,1026.7344 544.5,1026.7344 C544.5,1026.7344 562.5,1026.7344 562.5,1016.7344 " fill="none" style="stroke: #000000; stroke-width: 1.5;"/><rect fill="#FEFECE" height="31.6094" rx="5" ry="5" style="stroke: #A80036; stroke-width: 1.5;" width="47" x="578" y="99.2188"/><rect fill="#FEFECE" height="31.6094" rx="5" ry="5" style="stroke: #A80036; stroke-width: 1.5;" width="47" x="574" y="103.2188"/><text fill="#000000" font-family="sans-serif" font-size="14" lengthAdjust="spacingAndGlyphs" textLength="33" x="581" y="124.752">Foo6</text><rect fill="#FEFECE" height="31.6094" rx="5" ry="5" style="stroke: #A80036; stroke-width: 1.5;" width="47" x="578" y="989.125"/><rect fill="#FEFECE" height="31.6094" rx="5" ry="5" style="stroke: #A80036; stroke-width: 1.5;" width="47" x="574" y="993.125"/><text fill="#000000" font-family="sans-serif" font-size="14" lengthAdjust="spacingAndGlyphs" textLength="33" x="581" y="1014.6582">Foo6</text><rect fill="#FEFECE" height="31.6094" rx="5" ry="5" style="stroke: #A80036; stroke-width: 1.5;" width="39" x="635" y="103.2188"/><text fill="#000000" font-family="sans-serif" font-size="14" lengthAdjust="spacingAndGlyphs" textLength="25" x="642" y="124.752">Bob</text><rect fill="#FEFECE" height="31.6094" rx="5" ry="5" style="stroke: #A80036; stroke-width: 1.5;" width="39" x="635" y="989.125"/><text fill="#000000" font-family="sans-serif" font-size="14" lengthAdjust="spacingAndGlyphs" textLength="25" x="642" y="1010.6582">Bob</text><rect fill="#FEFECE" height="49.2188" rx="5" ry="5" style="stroke: #A80036; stroke-width: 1.5;" width="113" x="684" y="85.6094"/><ellipse cx="702" cy="103.6094" fill="#ADD1B2" rx="11" ry="11" style="stroke: #A80036; stroke-width: 1.0;"/><path d="M704.7656,99.4844 Q704.9219,99.2656 705.1094,99.1563 Q705.2969,99.0469 705.5156,99.0469 Q705.8906,99.0469 706.125,99.3047 Q706.3594,99.5625 706.3594,100.1719 L706.3594,101.625 Q706.3594,102.2344 706.125,102.5 Q705.8906,102.7656 705.5156,102.7656 Q705.1719,102.7656 704.9688,102.5625 Q704.7656,102.375 704.6563,101.8594 Q704.6094,101.5 704.4219,101.3125 Q704.0938,100.9375 703.4844,100.7188 Q702.875,100.5 702.25,100.5 Q701.4844,100.5 700.8516,100.8281 Q700.2188,101.1563 699.7266,101.9063 Q699.2344,102.6563 699.2344,103.6875 L699.2344,104.7813 Q699.2344,106.0156 700.125,106.8359 Q701.0156,107.6563 702.6094,107.6563 Q703.5469,107.6563 704.2031,107.4063 Q704.5938,107.25 705.0156,106.8125 Q705.2813,106.5469 705.4297,106.4688 Q705.5781,106.3906 705.7813,106.3906 Q706.1094,106.3906 706.3672,106.6484 Q706.625,106.9063 706.625,107.25 Q706.625,107.5938 706.2813,108 Q705.7813,108.5781 704.9844,108.9063 Q703.9063,109.3594 702.6094,109.3594 Q701.0938,109.3594 699.8906,108.7344 Q698.9063,108.2344 698.2188,107.1641 Q697.5313,106.0938 697.5313,104.8125 L697.5313,103.6563 Q697.5313,102.3281 698.1484,101.1797 Q698.7656,100.0313 699.8594,99.4141 Q700.9531,98.7969 702.1875,98.7969 Q702.9219,98.7969 703.5703,98.9609 Q704.2188,99.125 704.7656,99.4844 Z "/><text fill="#000000" font-family="sans-serif" font-size="14" font-style="italic" lengthAdjust="spacingAndGlyphs" textLength="71" x="719" y="107.1426">«Testable»</text><text fill="#000000" font-family="sans-serif" font-size="14" lengthAdjust="spacingAndGlyphs" textLength="30" x="739.5" y="124.752">Alice</text><rect fill="#FEFECE" height="49.2188" rx="5" ry="5" style="stroke: #A80036; stroke-width: 1.5;" width="113" x="684" y="989.125"/><ellipse cx="702" cy="1007.125" fill="#ADD1B2" rx="11" ry="11" style="stroke: #A80036; stroke-width: 1.0;"/><path d="M704.7656,1003 Q704.9219,1002.7813 705.1094,1002.6719 Q705.2969,1002.5625 705.5156,1002.5625 Q705.8906,1002.5625 706.125,1002.8203 Q706.3594,1003.0781 706.3594,1003.6875 L706.3594,1005.1406 Q706.3594,1005.75 706.125,1006.0156 Q705.8906,1006.2813 705.5156,1006.2813 Q705.1719,1006.2813 704.9688,1006.0781 Q704.7656,1005.8906 704.6563,1005.375 Q704.6094,1005.0156 704.4219,1004.8281 Q704.0938,1004.4531 703.4844,1004.2344 Q702.875,1004.0156 702.25,1004.0156 Q701.4844,1004.0156 700.8516,1004.3438 Q700.2188,1004.6719 699.7266,1005.4219 Q699.2344,1006.1719 699.2344,1007.2031 L699.2344,1008.2969 Q699.2344,1009.5313 700.125,1010.3516 Q701.0156,1011.1719 702.6094,1011.1719 Q703.5469,1011.1719 704.2031,1010.9219 Q704.5938,1010.7656 705.0156,1010.3281 Q705.2813,1010.0625 705.4297,1009.9844 Q705.5781,1009.9063 705.7813,1009.9063 Q706.1094,1009.9063 706.3672,1010.1641 Q706.625,1010.4219 706.625,1010.7656 Q706.625,1011.1094 706.2813,1011.5156 Q705.7813,1012.0938 704.9844,1012.4219 Q703.9063,1012.875 702.6094,1012.875 Q701.0938,1012.875 699.8906,1012.25 Q698.9063,1011.75 698.2188,1010.6797 Q697.5313,1009.6094 697.5313,1008.3281 L697.5313,1007.1719 Q697.5313,1005.8438 698.1484,1004.6953 Q698.7656,1003.5469 699.8594,1002.9297 Q700.9531,1002.3125 702.1875,1002.3125 Q702.9219,1002.3125 703.5703,1002.4766 Q704.2188,1002.6406 704.7656,1003 Z "/><text fill="#000000" font-family="sans-serif" font-size="14" font-style="italic" lengthAdjust="spacingAndGlyphs" textLength="71" x="719" y="1010.6582">«Testable»</text><text fill="#000000" font-family="sans-serif" font-size="14" lengthAdjust="spacingAndGlyphs" textLength="30" x="739.5" y="1028.2676">Alice</text><rect fill="#FFFFFF" height="185.4609" style="stroke: #A80036; stroke-width: 1.0;" width="10" x="299.5" y="267.8828"/><rect fill="#EEEEEE" height="3" style="stroke: #EEEEEE; stroke-width: 1.0;" width="834" x="3" y="167.0039"/><line style="stroke: #000000; stroke-width: 1.0;" x1="3" x2="837" y1="167.0039" y2="167.0039"/><line style="stroke: #000000; stroke-width: 1.0;" x1="3" x2="837" y1="170.0039" y2="170.0039"/><rect fill="#EEEEEE" height="24.3516" style="stroke: #000000; stroke-width: 2.0;" width="97" x="371.5" y="155.8281"/><text fill="#000000" font-family="sans-serif" font-size="13" font-weight="bold" lengthAdjust="spacingAndGlyphs" textLength="79" x="377.5" y="173.3232">Initialization</text><polygon fill="#A80036" points="178.5,208.5313,188.5,212.5313,178.5,216.5313,182.5,212.5313" style="stroke: #A80036; stroke-width: 1.0;"/><line style="stroke: #A80036; stroke-width: 1.0;" x1="62.5" x2="184.5" y1="212.5313" y2="212.5313"/><text fill="#000000" font-family="sans-serif" font-size="13" font-weight="bold" lengthAdjust="spacingAndGlyphs" textLength="29" x="69.5" y="207.6748">[001]</text><text fill="#000000" font-family="sans-serif" font-size="13" lengthAdjust="spacingAndGlyphs" textLength="71" x="102.5" y="207.6748">To boundary</text><polygon fill="#A80036" points="287.5,263.8828,297.5,267.8828,287.5,271.8828,291.5,267.8828" style="stroke: #A80036; stroke-width: 1.0;"/><line style="stroke: #A80036; stroke-width: 1.0;" x1="190.5" x2="293.5" y1="267.8828" y2="267.8828"/><text fill="#000000" font-family="sans-serif" font-size="13" font-weight="bold" lengthAdjust="spacingAndGlyphs" textLength="29" x="197.5" y="263.0264">[002]</text><text fill="#000000" font-family="sans-serif" font-size="13" lengthAdjust="spacingAndGlyphs" textLength="57" x="230.5" y="263.0264">To control</text><rect fill="#FFFFFF" height="59.0547" style="stroke: #000000; stroke-width: 2.0;" width="173" x="394" y="275.8828"/><polygon fill="#EEEEEE" points="394,275.8828,456,275.8828,456,283.8828,446,293.8828,394,293.8828,394,275.8828" style="stroke: #000000; stroke-width: 2.0;"/><text fill="#000000" font-family="sans-serif" font-size="13" font-weight="bold" lengthAdjust="spacingAndGlyphs" textLength="17" x="407" y="291.3779">ref</text><text fill="#000000" font-family="sans-serif" font-size="13" lengthAdjust="spacingAndGlyphs" textLength="85" x="438" y="311.3779">This can be on</text><text fill="#000000" font-family="sans-serif" font-size="13" lengthAdjust="spacingAndGlyphs" textLength="71" x="438" y="327.7295">several lines</text><polygon fill="#A80036" points="404.5,358.2891,414.5,362.2891,404.5,366.2891,408.5,362.2891" style="stroke: #A80036; stroke-width: 1.0;"/><line style="stroke: #A80036; stroke-width: 1.0;" x1="309.5" x2="410.5" y1="362.2891" y2="362.2891"/><text fill="#000000" font-family="sans-serif" font-size="13" font-weight="bold" lengthAdjust="spacingAndGlyphs" textLength="29" x="316.5" y="357.4326">[003]</text><text fill="#000000" font-family="sans-serif" font-size="13" lengthAdjust="spacingAndGlyphs" textLength="50" x="349.5" y="357.4326">To entity</text><polygon fill="#A80036" points="532.5,388.6406,542.5,392.6406,532.5,396.6406,536.5,392.6406" style="stroke: #A80036; stroke-width: 1.0;"/><line style="stroke: #A80036; stroke-width: 1.0;" x1="416.5" x2="538.5" y1="392.6406" y2="392.6406"/><text fill="#000000" font-family="sans-serif" font-size="13" font-weight="bold" lengthAdjust="spacingAndGlyphs" textLength="29" x="423.5" y="387.7842">[004]</text><text fill="#000000" font-family="sans-serif" font-size="13" lengthAdjust="spacingAndGlyphs" textLength="71" x="456.5" y="387.7842">To database</text><polygon fill="#A80036" points="320.5,418.9922,310.5,422.9922,320.5,426.9922,316.5,422.9922" style="stroke: #A80036; stroke-width: 1.0;"/><line style="stroke: #A80036; stroke-width: 1.0; stroke-dasharray: 2.0,2.0;" x1="314.5" x2="543.5" y1="422.9922" y2="422.9922"/><text fill="#000000" font-family="sans-serif" font-size="13" font-weight="bold" lengthAdjust="spacingAndGlyphs" textLength="29" x="326.5" y="418.1357">[005]</text><text fill="#000000" font-family="sans-serif" font-size="13" lengthAdjust="spacingAndGlyphs" textLength="33" x="359.5" y="418.1357">return</text><polygon fill="#A80036" points="201.5,449.3438,191.5,453.3438,201.5,457.3438,197.5,453.3438" style="stroke: #A80036; stroke-width: 1.0;"/><line style="stroke: #A80036; stroke-width: 1.0; stroke-dasharray: 2.0,2.0;" x1="195.5" x2="303.5" y1="453.3438" y2="453.3438"/><text fill="#000000" font-family="sans-serif" font-size="13" font-weight="bold" lengthAdjust="spacingAndGlyphs" textLength="29" x="207.5" y="448.4873">[006]</text><text fill="#000000" font-family="sans-serif" font-size="13" lengthAdjust="spacingAndGlyphs" textLength="33" x="240.5" y="448.4873">return</text><text fill="#000000" font-family="sans-serif" font-size="11" lengthAdjust="spacingAndGlyphs" textLength="27" x="362" y="486.7627">Some</text><text fill="#000000" font-family="sans-serif" font-size="11" lengthAdjust="spacingAndGlyphs" textLength="49" x="392" y="486.7627">long delay</text><text fill="#000000" font-family="sans-serif" font-size="11" lengthAdjust="spacingAndGlyphs" textLength="0" x="444" y="486.7627"/><polygon fill="#A80036" points="587.5,521.5313,597.5,525.5313,587.5,529.5313,591.5,525.5313" style="stroke: #A80036; stroke-width: 1.0;"/><line style="stroke: #A80036; stroke-width: 1.0;" x1="62.5" x2="593.5" y1="525.5313" y2="525.5313"/><text fill="#000000" font-family="sans-serif" font-size="13" font-weight="bold" lengthAdjust="spacingAndGlyphs" textLength="29" x="69.5" y="520.6748">[007]</text><text fill="#000000" font-family="sans-serif" font-size="13" lengthAdjust="spacingAndGlyphs" textLength="80" x="102.5" y="520.6748">To collections</text><polygon fill="#A80036" points="427.5,551.8828,417.5,555.8828,427.5,559.8828,423.5,555.8828" style="stroke: #A80036; stroke-width: 1.0;"/><line style="stroke: #A80036; stroke-width: 1.0; stroke-dasharray: 2.0,2.0;" x1="421.5" x2="598.5" y1="555.8828" y2="555.8828"/><text fill="#000000" font-family="sans-serif" font-size="13" font-weight="bold" lengthAdjust="spacingAndGlyphs" textLength="29" x="433.5" y="551.0264">[008]</text><text fill="#000000" font-family="sans-serif" font-size="13" lengthAdjust="spacingAndGlyphs" textLength="123" x="466.5" y="551.0264">$success("success")</text><path d="M18,570.8828 L74,570.8828 L74,578.8828 L64,588.8828 L13,588.8828 L13,575.8828 " fill="#EEEEEE" style="stroke: #000000; stroke-width: 1.0;"/><rect fill="none" height="333.1875" rx="5" ry="5" style="stroke: #000000; stroke-width: 2.0;" width="814" x="13" y="570.8828"/><text fill="#000000" font-family="sans-serif" font-size="13" font-weight="bold" lengthAdjust="spacingAndGlyphs" textLength="16" x="28" y="585.3779">alt</text><text fill="#000000" font-family="sans-serif" font-size="11" font-weight="bold" lengthAdjust="spacingAndGlyphs" textLength="98" x="89" y="584.3018">[successful case]</text><polygon fill="#A80036" points="728.5,607.5859,738.5,611.5859,728.5,615.5859,732.5,611.5859" style="stroke: #A80036; stroke-width: 1.0;"/><line style="stroke: #A80036; stroke-width: 1.0;" x1="62.5" x2="734.5" y1="611.5859" y2="611.5859"/><text fill="#000000" font-family="sans-serif" font-size="13" font-weight="bold" lengthAdjust="spacingAndGlyphs" textLength="29" x="69.5" y="606.7295">[009]</text><text fill="#000000" font-family="sans-serif" font-size="13" lengthAdjust="spacingAndGlyphs" textLength="142" x="102.5" y="606.7295">Authentication Accepted</text><polygon fill="#A80036" points="73.5,637.9375,63.5,641.9375,73.5,645.9375,69.5,641.9375" style="stroke: #A80036; stroke-width: 1.0;"/><line style="stroke: #A80036; stroke-width: 1.0; stroke-dasharray: 2.0,2.0;" x1="67.5" x2="739.5" y1="641.9375" y2="641.9375"/><text fill="#000000" font-family="sans-serif" font-size="13" font-weight="bold" lengthAdjust="spacingAndGlyphs" textLength="29" x="79.5" y="637.0811">[010]</text><text fill="#000000" font-family="sans-serif" font-size="13" lengthAdjust="spacingAndGlyphs" textLength="49" x="112.5" y="637.0811">success</text><path d="M605,659.9375 L605,675.9375 A5,5 0 0 0 610,680.9375 L730,680.9375 A5,5 0 0 0 735,675.9375 L735,664.9375 L725,654.9375 L610,654.9375 A5,5 0 0 0 605,659.9375 " fill="#FBFB77" style="stroke: #A80036; stroke-width: 1.0;"/><path d="M725,654.9375 L725,662.4375 A2.5,2.5 0 0 0 727.5,664.9375 L735,664.9375 L725,654.9375 " fill="#FBFB77" style="stroke: #A80036; stroke-width: 1.0;"/><text fill="#000000" font-family="sans-serif" font-size="13" lengthAdjust="spacingAndGlyphs" textLength="100" x="620" y="673.4326">this is a first note</text><line style="stroke: #000000; stroke-width: 1.0; stroke-dasharray: 2.0,2.0;" x1="13" x2="827" y1="687.2891" y2="687.2891"/><text fill="#000000" font-family="sans-serif" font-size="11" font-weight="bold" lengthAdjust="spacingAndGlyphs" textLength="119" x="18" y="698.708">[some kind of failure]</text><polygon fill="#A80036" points="728.5,720.4766,738.5,724.4766,728.5,728.4766,732.5,724.4766" style="stroke: #A80036; stroke-width: 1.0;"/><line style="stroke: #A80036; stroke-width: 1.0;" x1="62.5" x2="734.5" y1="724.4766" y2="724.4766"/><text fill="#000000" font-family="sans-serif" font-size="13" font-weight="bold" lengthAdjust="spacingAndGlyphs" textLength="29" x="69.5" y="719.6201">[011]</text><text fill="#000000" font-family="sans-serif" font-size="13" lengthAdjust="spacingAndGlyphs" textLength="126" x="102.5" y="719.6201">Authentication Failure</text><polygon fill="#A80036" points="73.5,750.8281,63.5,754.8281,73.5,758.8281,69.5,754.8281" style="stroke: #A80036; stroke-width: 1.0;"/><line style="stroke: #A80036; stroke-width: 1.0; stroke-dasharray: 2.0,2.0;" x1="67.5" x2="739.5" y1="754.8281" y2="754.8281"/><text fill="#000000" font-family="sans-serif" font-size="13" font-weight="bold" lengthAdjust="spacingAndGlyphs" textLength="29" x="79.5" y="749.9717">[012]</text><text fill="#000000" font-family="sans-serif" font-size="13" lengthAdjust="spacingAndGlyphs" textLength="129" x="112.5" y="749.9717">$failure("Bad request")</text><path d="M28,769.8281 L153,769.8281 L153,777.8281 L143,787.8281 L23,787.8281 L23,774.8281 " fill="#EEEEEE" style="stroke: #000000; stroke-width: 1.0;"/><rect fill="none" height="81.0547" rx="5" ry="5" style="stroke: #000000; stroke-width: 2.0;" width="794" x="23" y="769.8281"/><text fill="#000000" font-family="sans-serif" font-size="13" font-weight="bold" lengthAdjust="spacingAndGlyphs" textLength="85" x="38" y="784.3232">My own label</text><path d="M38,795.1797 L106,795.1797 L106,803.1797 L96,813.1797 L33,813.1797 L33,800.1797 " fill="#EEEEEE" style="stroke: #000000; stroke-width: 1.0;"/><rect fill="none" height="48.7031" rx="5" ry="5" style="stroke: #000000; stroke-width: 2.0;" width="774" x="33" y="795.1797"/><text fill="#000000" font-family="sans-serif" font-size="13" font-weight="bold" lengthAdjust="spacingAndGlyphs" textLength="28" x="48" y="809.6748">loop</text><text fill="#000000" font-family="sans-serif" font-size="11" font-weight="bold" lengthAdjust="spacingAndGlyphs" textLength="67" x="121" y="808.5986">[1000 times]</text><polygon fill="#A80036" points="73.5,831.8828,63.5,835.8828,73.5,839.8828,69.5,835.8828" style="stroke: #A80036; stroke-width: 1.0;"/><line style="stroke: #A80036; stroke-width: 1.0;" x1="67.5" x2="739.5" y1="835.8828" y2="835.8828"/><text fill="#000000" font-family="sans-serif" font-size="13" font-weight="bold" lengthAdjust="spacingAndGlyphs" textLength="29" x="79.5" y="831.0264">[013]</text><text fill="#000000" font-family="sans-serif" font-size="13" lengthAdjust="spacingAndGlyphs" textLength="69" x="112.5" y="831.0264">DNS Attack</text><line style="stroke: #000000; stroke-width: 1.0; stroke-dasharray: 2.0,2.0;" x1="13" x2="827" y1="858.8828" y2="858.8828"/><text fill="#000000" font-family="sans-serif" font-size="11" font-weight="bold" lengthAdjust="spacingAndGlyphs" textLength="89" x="18" y="870.3018">[Just a Warning]</text><polygon fill="#A80036" points="728.5,892.0703,738.5,896.0703,728.5,900.0703,732.5,896.0703" style="stroke: #A80036; stroke-width: 1.0;"/><line style="stroke: #A80036; stroke-width: 1.0;" x1="62.5" x2="734.5" y1="896.0703" y2="896.0703"/><text fill="#000000" font-family="sans-serif" font-size="13" font-weight="bold" lengthAdjust="spacingAndGlyphs" textLength="29" x="69.5" y="891.2139">[014]</text><text fill="#000000" font-family="sans-serif" font-size="13" lengthAdjust="spacingAndGlyphs" textLength="149" x="102.5" y="891.2139">$warning("Please repeat")</text><path d="M43,921.0703 L43,970.0703 A5,5 0 0 0 48,975.0703 L205,975.0703 A5,5 0 0 0 210,970.0703 L210,926.0703 L200,916.0703 L48,916.0703 A5,5 0 0 0 43,921.0703 " fill="#FBFB77" style="stroke: #A80036; stroke-width: 1.0;"/><path d="M200,916.0703 L200,923.5703 A2.5,2.5 0 0 0 202.5,926.0703 L210,926.0703 L200,916.0703 " fill="#FBFB77" style="stroke: #A80036; stroke-width: 1.0;"/><text fill="#000000" font-family="sans-serif" font-size="13" lengthAdjust="spacingAndGlyphs" textLength="121" x="66" y="934.5654">this is a second note</text><text fill="#000000" font-family="sans-serif" font-size="13" lengthAdjust="spacingAndGlyphs" textLength="71" x="91" y="950.917">that is really</text><text fill="#000000" font-family="sans-serif" font-size="13" lengthAdjust="spacingAndGlyphs" textLength="24" x="114.5" y="967.2686">long</text><text fill="#888888" font-family="sans-serif" font-size="10" lengthAdjust="spacingAndGlyphs" textLength="62" x="775" y="13.3809">Page Header</text><text fill="#888888" font-family="sans-serif" font-size="10" lengthAdjust="spacingAndGlyphs" textLength="55" x="392.5" y="1088.1152">Page 1 of 1</text><!--MD5=[092d67bf75569f1406c92bb8ee72fad2]
@startuml



skinparam backgroundColor transparent


skinparam  {
    skinparam defaultFontName   "Verdana"
    skinparam defaultFontSize   12
    defaultTextAlignment        center
    shadowing                   false
    RoundCorner                 10
    TitleFontSize               18
}
<style>
    wbsDiagram {
        LineColor #f0f0f0
        BorderThickness 3
        BackgroundColor #f9f9f9
        FontColor #6a9fb5
        :depth(0) {
            fontSize 16
            fontStyle bold
        }
        :depth(1) {
            fontSize 14
            padding 5
            fontStyle bold
        }
        :depth(2) {
            fontSize 12
            padding 3
        }
        :depth(3) {
            fontSize 10
            padding 2
        }

    }
</style>

title Sequence Diagram - resume-light theme


autonumber "<b>[000]"

header Page Header
footer Page %page% of %lastpage%

actor Foo1
boundary Foo2
control Foo3
entity Foo4
database Foo5
collections Foo6
participant Bob
participant Alice << (C,#ADD1B2) Testable >>

box "Internal Service"
	participant Bob
	participant Alice
end box

== Initialization ==
Foo1 -> Foo2 : To boundary
|||
Foo2 -> Foo3 ++: To control
ref over Foo4, Foo5
  This can be on
  several lines
end ref
Foo3 -> Foo4 : To entity

Foo4 -> Foo5 : To database
Foo5 - -> Foo3 - - : return
Foo3 - -> Foo2 - -: return
... Some ~~long delay~~ ...
Foo1 -> Foo6 : To collections
Foo6 - -> Foo4: $success("success")


alt successful case

Foo1 -> Alice: Authentication Accepted
Alice - -> Foo1: success

note left of Alice: this is a first note

else some kind of failure

	Foo1 -> Alice: Authentication Failure
    Alice - -> Foo1: $failure("Bad request")
	group My own label
	    loop 1000 times
	        Alice -> Foo1: DNS Attack
	    end
	end
	
else Just a Warning

   Foo1 -> Alice: $warning("Please repeat")
   
end

note over Foo1, Foo2
this is a second note
that is really
long
end note

@enduml

PlantUML version 1.2020.08(Sun Apr 26 07:08:22 PDT 2020)
(GPL source distribution)
Java Runtime: Java(TM) SE Runtime Environment
JVM: Java HotSpot(TM) 64-Bit Server VM
Java Version: 1.8.0_251-b32
Operating System: Windows 10
Default Encoding: Cp1252
Language: en
Country: US
--></g></svg>