<?xml version="1.0" encoding="UTF-8" standalone="no"?><svg xmlns="http://www.w3.org/2000/svg" xmlns:xlink="http://www.w3.org/1999/xlink" contentScriptType="application/ecmascript" contentStyleType="text/css" height="430.2083px" preserveAspectRatio="none" style="width:596px;height:430px;" version="1.1" viewBox="0 0 596 430" width="596.875px" zoomAndPan="magnify"><defs/><g><rect fill="none" height="39.9028" rx="4.1667" ry="4.1667" style="stroke: #FFFFFF; stroke-width: 20.833333333333336;" width="172.9167" x="215.1042" y="2.0833"/><text fill="#ADAFAE" font-family="Verdana" font-size="20.8333" lengthAdjust="spacingAndGlyphs" textLength="152.0833" x="225.5208" y="30.3202">Cyborg Theme</text><!--class AbstractList--><rect fill="#2A9FD6" height="47.9167" id="AbstractList" rx="4.1667" ry="4.1667" style="stroke: #55B2DE; stroke-width: 1.0416666666666667;" width="110.4167" x="190.1042" y="222.1944"/><ellipse cx="204.6875" cy="237.8194" fill="#A9DCDF" rx="10.4167" ry="10.4167" style="stroke: #55B2DE; stroke-width: 1.0416666666666667;"/><path d="M204.2806,234.7758 L203.4342,238.503 L205.1432,238.503 L204.2806,234.7758 Z M203.1901,233.1319 L205.3874,233.1319 L207.8451,242.2465 L206.0384,242.2465 L205.485,240.0004 L203.0762,240.0004 L202.5228,242.2465 L200.7161,242.2465 L203.1901,233.1319 Z "/><text fill="#FFFFFF" font-family="Verdana" font-size="12.5" font-style="italic" lengthAdjust="spacingAndGlyphs" textLength="75" x="220.3125" y="242.7907">AbstractList</text><line style="stroke: #55B2DE; stroke-width: 1.0416666666666667;" x1="191.1458" x2="299.4792" y1="253.4444" y2="253.4444"/><line style="stroke: #55B2DE; stroke-width: 1.0416666666666667;" x1="191.1458" x2="299.4792" y1="261.7778" y2="261.7778"/><!--class AbstractCollection--><rect fill="#2A9FD6" height="47.9167" id="AbstractCollection" rx="4.1667" ry="4.1667" style="stroke: #55B2DE; stroke-width: 1.0416666666666667;" width="146.875" x="6.25" y="222.1944"/><ellipse cx="20.8333" cy="237.8194" fill="#A9DCDF" rx="10.4167" ry="10.4167" style="stroke: #55B2DE; stroke-width: 1.0416666666666667;"/><path d="M20.4264,234.7758 L19.5801,238.503 L21.2891,238.503 L20.4264,234.7758 Z M19.3359,233.1319 L21.5332,233.1319 L23.9909,242.2465 L22.1842,242.2465 L21.6309,240.0004 L19.222,240.0004 L18.6686,242.2465 L16.862,242.2465 L19.3359,233.1319 Z "/><text fill="#FFFFFF" font-family="Verdana" font-size="12.5" font-style="italic" lengthAdjust="spacingAndGlyphs" textLength="111.4583" x="36.4583" y="242.7907">AbstractCollection</text><line style="stroke: #55B2DE; stroke-width: 1.0416666666666667;" x1="7.2917" x2="152.0833" y1="253.4444" y2="253.4444"/><line style="stroke: #55B2DE; stroke-width: 1.0416666666666667;" x1="7.2917" x2="152.0833" y1="261.7778" y2="261.7778"/><!--class List--><rect fill="#2A9FD6" height="47.9167" id="List" rx="4.1667" ry="4.1667" style="stroke: #55B2DE; stroke-width: 1.0416666666666667;" width="58.3333" x="202.6042" y="82.6111"/><ellipse cx="217.1875" cy="98.2361" fill="#B4A7E5" rx="10.4167" ry="10.4167" style="stroke: #55B2DE; stroke-width: 1.0416666666666667;"/><path d="M214.0788,95.4041 L214.0788,93.809 L219.4987,93.809 L219.4987,95.4041 L217.6921,95.4041 L217.6921,101.3285 L219.4987,101.3285 L219.4987,102.9236 L214.0788,102.9236 L214.0788,101.3285 L215.8854,101.3285 L215.8854,95.4041 L214.0788,95.4041 Z "/><text fill="#FFFFFF" font-family="Verdana" font-size="12.5" font-style="italic" lengthAdjust="spacingAndGlyphs" textLength="22.9167" x="232.8125" y="103.2074">List</text><line style="stroke: #55B2DE; stroke-width: 1.0416666666666667;" x1="203.6458" x2="259.8958" y1="113.8611" y2="113.8611"/><line style="stroke: #55B2DE; stroke-width: 1.0416666666666667;" x1="203.6458" x2="259.8958" y1="122.1944" y2="122.1944"/><!--class Collection--><rect fill="#2A9FD6" height="47.9167" id="Collection" rx="4.1667" ry="4.1667" style="stroke: #55B2DE; stroke-width: 1.0416666666666667;" width="94.7917" x="58.3333" y="82.6111"/><ellipse cx="72.9167" cy="98.2361" fill="#B4A7E5" rx="10.4167" ry="10.4167" style="stroke: #55B2DE; stroke-width: 1.0416666666666667;"/><path d="M69.8079,95.4041 L69.8079,93.809 L75.2279,93.809 L75.2279,95.4041 L73.4212,95.4041 L73.4212,101.3285 L75.2279,101.3285 L75.2279,102.9236 L69.8079,102.9236 L69.8079,101.3285 L71.6146,101.3285 L71.6146,95.4041 L69.8079,95.4041 Z "/><text fill="#FFFFFF" font-family="Verdana" font-size="12.5" font-style="italic" lengthAdjust="spacingAndGlyphs" textLength="59.375" x="88.5417" y="103.2074">Collection</text><line style="stroke: #55B2DE; stroke-width: 1.0416666666666667;" x1="59.375" x2="152.0833" y1="113.8611" y2="113.8611"/><line style="stroke: #55B2DE; stroke-width: 1.0416666666666667;" x1="59.375" x2="152.0833" y1="122.1944" y2="122.1944"/><!--class ArrayList--><rect fill="#2A9FD6" height="86.6333" id="ArrayList" rx="4.1667" ry="4.1667" style="stroke: #55B2DE; stroke-width: 1.0416666666666667;" width="158.3333" x="166.1458" y="332.6111"/><ellipse cx="210.4167" cy="348.2361" fill="#ADD1B2" rx="10.4167" ry="10.4167" style="stroke: #55B2DE; stroke-width: 1.0416666666666667;"/><path d="M212.321,352.6632 Q211.8978,352.8748 211.4258,352.9887 Q210.9538,353.1026 210.4492,353.1026 Q208.5938,353.1026 207.6172,351.8982 Q206.6569,350.6775 206.6569,348.3826 Q206.6569,346.0714 207.6172,344.8669 Q208.5938,343.6462 210.4492,343.6462 Q210.9538,343.6462 211.4258,343.7602 Q211.9141,343.8578 212.321,344.0857 L212.321,346.0876 Q211.8652,345.6645 211.4258,345.4692 Q210.9863,345.2576 210.5306,345.2576 Q209.5378,345.2576 209.0332,346.0551 Q208.5286,346.8363 208.5286,348.3826 Q208.5286,349.9125 209.0332,350.6938 Q209.5378,351.475 210.5306,351.475 Q210.9863,351.475 211.4258,351.2797 Q211.8652,351.0844 212.321,350.6612 L212.321,352.6632 Z "/><text fill="#FFFFFF" font-family="Verdana" font-size="12.5" lengthAdjust="spacingAndGlyphs" textLength="57.2917" x="232.2917" y="353.2074">ArrayList</text><line style="stroke: #55B2DE; stroke-width: 1.0416666666666667;" x1="167.1875" x2="323.4375" y1="363.8611" y2="363.8611"/><text fill="#222222" font-family="Verdana" font-size="12.5" lengthAdjust="spacingAndGlyphs" textLength="141.6667" x="174.4792" y="382.6782">Object[] elementData</text><line style="stroke: #55B2DE; stroke-width: 1.0416666666666667;" x1="167.1875" x2="323.4375" y1="391.5527" y2="391.5527"/><text fill="#222222" font-family="Verdana" font-size="12.5" lengthAdjust="spacingAndGlyphs" textLength="36.4583" x="174.4792" y="410.3699">size()</text><!--class TimeUnit--><rect fill="#2A9FD6" height="105.9916" id="TimeUnit" rx="4.1667" ry="4.1667" style="stroke: #55B2DE; stroke-width: 1.0416666666666667;" width="91.6667" x="297.3958" y="53.4444"/><ellipse cx="311.9792" cy="69.0694" fill="#EB937F" rx="10.4167" ry="10.4167" style="stroke: #55B2DE; stroke-width: 1.0416666666666667;"/><path d="M314.5182,73.7569 L308.8379,73.7569 L308.8379,64.6423 L314.5182,64.6423 L314.5182,66.2374 L310.6445,66.2374 L310.6445,68.1905 L314.1439,68.1905 L314.1439,69.7856 L310.6445,69.7856 L310.6445,72.1619 L314.5182,72.1619 L314.5182,73.7569 Z "/><text fill="#FFFFFF" font-family="Verdana" font-size="12.5" lengthAdjust="spacingAndGlyphs" textLength="56.25" x="327.6042" y="74.0407">TimeUnit</text><line style="stroke: #55B2DE; stroke-width: 1.0416666666666667;" x1="298.4375" x2="388.0208" y1="84.6944" y2="84.6944"/><text fill="#222222" font-family="Verdana" font-size="12.5" lengthAdjust="spacingAndGlyphs" textLength="33.3333" x="305.7292" y="103.5116">DAYS</text><text fill="#222222" font-family="Verdana" font-size="12.5" lengthAdjust="spacingAndGlyphs" textLength="45.8333" x="305.7292" y="122.8699">HOURS</text><text fill="#222222" font-family="Verdana" font-size="12.5" lengthAdjust="spacingAndGlyphs" textLength="58.3333" x="305.7292" y="142.2282">MINUTES</text><line style="stroke: #55B2DE; stroke-width: 1.0416666666666667;" x1="298.4375" x2="388.0208" y1="151.1027" y2="151.1027"/><!--class SuppressWarnings--><rect fill="#2A9FD6" height="47.9167" id="SuppressWarnings" rx="4.1667" ry="4.1667" style="stroke: #55B2DE; stroke-width: 1.0416666666666667;" width="159.375" x="426.0417" y="82.6111"/><ellipse cx="440.625" cy="98.2361" fill="#E3664A" rx="10.4167" ry="10.4167" style="stroke: #55B2DE; stroke-width: 1.0416666666666667;"/><path d="M441.8783,98.0408 Q441.8783,97.3409 441.569,96.9503 Q441.2598,96.5597 440.7064,96.5597 Q440.1693,96.5597 439.86,96.9503 Q439.5508,97.3409 439.5508,98.0408 Q439.5508,98.7244 439.86,99.115 Q440.1693,99.5056 440.7064,99.5056 Q441.2598,99.5056 441.569,99.115 Q441.8783,98.7244 441.8783,98.0408 Z M443.0176,100.531 L441.8132,100.531 L441.8132,100.0427 Q441.5853,100.352 441.2598,100.5147 Q440.9505,100.6612 440.5111,100.6612 Q439.5182,100.6612 438.8997,99.9451 Q438.2813,99.2126 438.2813,98.0408 Q438.2813,96.8526 438.8835,96.1365 Q439.502,95.4203 440.5111,95.4203 Q440.9505,95.4203 441.276,95.5668 Q441.6016,95.7133 441.8132,96.0063 L441.8132,95.7621 Q441.8132,94.932 441.3574,94.4763 Q440.9017,94.0206 440.0716,94.0206 Q438.8021,94.0206 437.9883,95.1436 Q437.1908,96.2504 437.1908,98.0408 Q437.1908,99.9125 438.1185,101.0356 Q439.0462,102.1423 440.5924,102.1423 Q441.0807,102.1423 441.5365,101.9958 Q441.9922,101.8494 442.4154,101.5564 L442.9688,102.6306 Q442.4805,102.9724 441.8945,103.1352 Q441.3086,103.3142 440.6576,103.3142 Q438.5091,103.3142 437.2396,101.8819 Q435.9701,100.4659 435.9701,98.0408 Q435.9701,95.6807 437.1094,94.2647 Q438.265,92.8487 440.1367,92.8487 Q441.4714,92.8487 442.2363,93.6462 Q443.0176,94.4438 443.0176,95.8435 L443.0176,100.531 Z "/><text fill="#FFFFFF" font-family="Verdana" font-size="12.5" lengthAdjust="spacingAndGlyphs" textLength="123.9583" x="456.25" y="103.2074">SuppressWarnings</text><line style="stroke: #55B2DE; stroke-width: 1.0416666666666667;" x1="427.0833" x2="584.375" y1="113.8611" y2="113.8611"/><line style="stroke: #55B2DE; stroke-width: 1.0416666666666667;" x1="427.0833" x2="584.375" y1="122.1944" y2="122.1944"/><!--link List to AbstractList--><path d="M236.111,151.3073 C238.3872,174.7683 241.0857,202.5842 242.9697,222.0035 " fill="none" id="List-AbstractList" style="stroke: #ADAFAE; stroke-width: 2.0833333333333335;"/><polygon fill="none" points="228.8529,152.0047,234.0988,130.5646,243.3681,150.5965,228.8529,152.0047" style="stroke: #ADAFAE; stroke-width: 2.0833333333333335;"/><!--link Collection to AbstractCollection--><path d="M97.3825,151.3073 C93.0055,174.7683 87.8159,202.5842 84.1929,222.0035 " fill="none" id="Collection-AbstractCollection" style="stroke: #ADAFAE; stroke-width: 2.0833333333333335;"/><polygon fill="none" points="90.2634,149.7072,101.2524,130.5646,104.5995,152.3819,90.2634,149.7072" style="stroke: #ADAFAE; stroke-width: 2.0833333333333335;"/><!--link Collection to List--><path d="M174.5106,106.5694 C183.8119,106.5694 193.1131,106.5694 202.4145,106.5694 " fill="none" id="Collection-List" style="stroke: #ADAFAE; stroke-width: 2.0833333333333335;"/><polygon fill="none" points="174.3205,113.861,153.4872,106.5694,174.3204,99.2776,174.3205,113.861" style="stroke: #ADAFAE; stroke-width: 2.0833333333333335;"/><!--link AbstractCollection to AbstractList--><path d="M174.3184,246.1528 C179.5613,246.1528 184.8041,246.1528 190.0469,246.1528 " fill="none" id="AbstractCollection-AbstractList" style="stroke: #ADAFAE; stroke-width: 2.0833333333333335;"/><polygon fill="none" points="174.2757,253.4443,153.4424,246.1528,174.2757,238.861,174.2757,253.4443" style="stroke: #ADAFAE; stroke-width: 2.0833333333333335;"/><!--link AbstractList to ArrayList--><path d="M245.3125,291.1387 C245.3125,304.5306 245.3125,319.1732 245.3125,332.4604 " fill="none" id="AbstractList-ArrayList" style="stroke: #ADAFAE; stroke-width: 2.0833333333333335;"/><polygon fill="none" points="238.0209,291.0755,245.3125,270.242,252.6043,291.0754,238.0209,291.0755" style="stroke: #ADAFAE; stroke-width: 2.0833333333333335;"/><!--
@startuml







skinparam BackgroundColor transparent

skinparam defaultFontName       "Verdana"
skinparam defaultFontSize       12
skinparam dpi                   100
skinparam shadowing             false
skinparam roundcorner           8
skinparam ParticipantPadding    10
skinparam BoxPadding            2
skinparam Padding               2
skinparam TitleFontColor	    #ADAFAE
skinparam TitleFontSize	    	20
skinparam TitleBorderThickness 	20
skinparam TitleBorderColor	 	transparent
skinparam ArrowColor            #ADAFAE

skinparam activity {
	TitleFontSize 20
	TitleFontColor #ADAFAE
	FontColor #FFF
	BorderColor #2A9FD6
	BackgroundColor #2A9FD6
	BarColor #77B300
	StartColor #9933CC
	EndColor #9933CC
	DiamondBackgroundColor #777777
  	DiamondBorderColor #777777
  	DiamondFontColor #FFF
}
	
skinparam sequence {
	BorderColor #2A9FD6
	TitleFontSize 14
	TitleFontColor #ADAFAE
	BackgroundColor transparent
	StartColor #2A9FD6
	EndColor #2A9FD6
    ParticipantBackgroundColor #2A9FD6
    ParticipantBorderColor #2A9FD6
	ParticipantBorderThickness 0
	ParticipantFontColor #FFF
	ActorBackgroundColor transparent
    ActorBorderColor #2A9FD6
	ActorFontColor #2A9FD6
	ArrowThickness 2
	BoxBackgroundColor transparent
	BoxBorderColor #ADAFAE
	BoxFontColor $DARk
	LifeLineBorderColor #2A9FD6
	LifeLineBorderThickness 4
	LifeLineBackgroundColor #555
	GroupBorderColor #ADAFAE
	GroupFontColor #ADAFAE
	GroupHeaderFontColor #9933CC
	DividerBackgroundColor #ADAFAE
    DividerBorderColor #ADAFAE
    DividerBorderThickness 2
    DividerFontColor #222
	ReferenceBorderColor #ADAFAE
	ReferenceFontColor #ADAFAE
	ReferenceHeaderFontColor #9933CC
}

skinparam partition {
	BorderColor #2A9FD6
	FontColor #2A9FD6
}

skinparam collections {
	BackgroundColor #2A9FD6
	BorderColor #55B2DE
}

skinparam control {
	BackgroundColor  #2A9FD6
	BorderColor #55B2DE
	FontColor #ADAFAE
}

skinparam entity {
	BackgroundColor  #2A9FD6
	BorderColor #55B2DE
	FontColor #ADAFAE
}

skinparam boundary {
	BackgroundColor  #2A9FD6
	BorderColor #55B2DE
	FontColor #ADAFAE
}

skinparam agent {
	BackgroundColor $WARNINIG
	BorderColor $WARNING_SHADE
	FontColor #ADAFAE
}

skinparam note {
	BorderThickness 1
	BackgroundColor #9933CC
	BorderColor #AD5CD6
	FontColor #FFF
}

skinparam artifact {
	BackgroundColor #ADAFAE
	BorderColor #BDBFBE
	FontColor #222
}

skinparam component {
	BackgroundColor  #77B300
	BorderColor  #92C233
	FontColor #FFF
}

skinparam interface {
	BackgroundColor  #D63333
	BorderColor  #CC0000
	FontColor #ADAFAE
}

skinparam storage {
	BackgroundColor #FF8800
  	BorderColor #FFA033
	FontColor #FFF
}

skinparam node {
	BackgroundColor  #555
	BorderColor #ADAFAE
	FontColor #ADAFAE
}

skinparam cloud {
	BackgroundColor white-#55B2DE
	BorderColor transparent
	FontColor #ADAFAE
}

skinparam database {
	BackgroundColor  #2A9FD6
	BorderColor #55B2DE
	FontColor #ADAFAE
}

skinparam actor {
	FontColor #ADAFAE
}

skinparam class {
	HeaderBackgroundColor #227FAB
	FontColor #FFF
	BackgroundColor #2A9FD6
	BorderColor #55B2DE
	StereotypeFontColor #ADAFAE
	LineThickness 4
	BorderThickness 1
	AttributeFontColor #222
}

skinparam usecase {
	BackgroundColor #555
	BorderColor #555
	BorderThickness 2
	FontColor #ADAFAE
	StereotypeFontColor #2A9FD6
}


skinparam rectangle {
	BackgroundColor #222
	BorderColor #227FAB
	BorderThickness 2
	FontColor #2A9FD6
	StereotypeFontColor #2A9FD6
}

skinparam package {
	BackgroundColor #555
  	BorderColor #2A9FD6
	FontColor #ADAFAE
	BorderThickness 2
}

skinparam folder {
	BackgroundColor #444444
  	BorderColor #FF8800
	FontColor #ADAFAE
	BorderThickness 2
}

skinparam frame {
	BackgroundColor #444444
  	BorderColor #9933CC
	FontColor #ADAFAE
	BorderThickness 2
}

title Cyborg Theme

abstract class AbstractList
abstract AbstractCollection
interface List
interface Collection

List <|- - AbstractList
Collection <|- - AbstractCollection

Collection <|- List
AbstractCollection <|- AbstractList
AbstractList <|- - ArrayList

class ArrayList {
  Object[] elementData
  size()
}

enum TimeUnit {
  DAYS
  HOURS
  MINUTES
}

annotation SuppressWarnings

@enduml

PlantUML version 1.2019.08(Sat Jul 13 12:25:14 PDT 2019)
(MIT source distribution)
Java Runtime: OpenJDK Runtime Environment
JVM: OpenJDK 64-Bit Server VM
Java Version: 11.0.4+11-post-Ubuntu-1ubuntu218.04.3
Operating System: Linux
OS Version: 4.15.0-64-lowlatency
Default Encoding: UTF-8
Language: en
Country: US
--></g></svg>