<?xml version="1.0" encoding="UTF-8" standalone="no"?><svg xmlns="http://www.w3.org/2000/svg" xmlns:xlink="http://www.w3.org/1999/xlink" contentScriptType="application/ecmascript" contentStyleType="text/css" height="639.5833px" preserveAspectRatio="none" style="width:655px;height:639px;" version="1.1" viewBox="0 0 655 639" width="655.2083px" zoomAndPan="magnify"><defs><linearGradient id="g17do0pqi1wj290" x1="50%" x2="50%" y1="0%" y2="100%"><stop offset="0%" stop-color="#FFFFFF"/><stop offset="100%" stop-color="#55B2DE"/></linearGradient></defs><g><rect fill="none" height="40.7878" rx="4.1667" ry="4.1667" style="stroke: none; stroke-width: 1.0416666666666667;" width="208.3333" x="226.5625" y="2.0833"/><text fill="#ADAFAE" font-family="Helvetica" font-size="20.8333" lengthAdjust="spacingAndGlyphs" textLength="187.5" x="236.9792" y="31.0018">Component Diagram</text><!--cluster My Package--><path d="M27.0833,70.9961 L101.0417,70.9961 A6.25,6.25 0 0 1 105.2083,75.1628 L112.5,97.1354 L404.1667,97.1354 A4.1667,4.1667 0 0 1 408.3333,101.3021 L408.3333,163.7044 A4.1667,4.1667 0 0 1 404.1667,167.8711 L27.0833,167.8711 A4.1667,4.1667 0 0 1 22.9167,163.7044 L22.9167,75.1628 A4.1667,4.1667 0 0 1 27.0833,70.9961 " fill="#555555" style="stroke: #2A9FD6; stroke-width: 1.5625;"/><line style="stroke: #2A9FD6; stroke-width: 1.5625;" x1="22.9167" x2="112.5" y1="97.1354" y2="97.1354"/><text fill="#2A9FD6" font-family="Helvetica" font-size="12.5" font-weight="bold" lengthAdjust="spacingAndGlyphs" textLength="71.875" x="29.1667" y="88.1388">My Package</text><!--cluster My Node--><polygon fill="#555555" points="46.875,203.2878,57.2917,192.8711,275,192.8711,275,284.5378,264.5833,294.9544,46.875,294.9544,46.875,203.2878" style="stroke: #ADAFAE; stroke-width: 1.5625;"/><line style="stroke: #ADAFAE; stroke-width: 1.5625;" x1="264.5833" x2="273.9583" y1="203.2878" y2="193.9128"/><line style="stroke: #ADAFAE; stroke-width: 1.5625;" x1="46.875" x2="264.5833" y1="203.2878" y2="203.2878"/><line style="stroke: #ADAFAE; stroke-width: 1.5625;" x1="264.5833" x2="264.5833" y1="203.2878" y2="294.9544"/><text fill="#ADAFAE" font-family="Helvetica" font-size="12.5" font-weight="bold" lengthAdjust="spacingAndGlyphs" textLength="50" x="131.7708" y="221.4722">My Node</text><!--cluster My Cloud--><path d="M309.9006,206.4232 C314.2118,199.3516 319.0481,199.5708 323.274,206.5046 C326.3445,201.8244 330.8672,201.9962 334.1301,206.2713 C337.7954,198.9396 343.4064,199.0685 347.6364,205.7262 C350.1989,198.4056 356.4308,197.7751 360.4395,204.3982 C365.7492,199.8941 369.9418,199.4931 373.3807,206.5011 C376.844,200.428 380.8479,200.0657 385.0555,205.7628 C389.8471,198.8176 395.5538,200.5608 398.9429,207.1969 C403.2475,200.0721 409.2145,201.0881 412.5267,208.1474 C419.2,211.8265 417.2737,218.0401 411.6638,220.8872 C418.5201,224.723 419.1572,228.8123 413.4079,234.2885 C420.538,238.2906 420.9313,244.3603 413.3669,248.3194 C420.0595,253.0264 420.713,257.2903 413.5082,262.1394 C419.4892,267.2527 418.9382,271.2067 412.2666,275.1088 C417.2871,279.3919 416.9557,283.9172 411.4357,287.493 C408.4502,293.271 404.7362,295.5644 399.446,289.9101 C396.2079,296.0802 391.7108,298.1455 386.225,292.4052 C383.4227,298.9843 377.5796,300.2973 372.7054,294.707 C370.3965,301.5236 364.7962,302.7469 360.0807,297.1556 C355.1876,301.4791 350.3076,300.1989 348.2702,293.9619 C343.6367,299.4665 338.7295,300.2559 335.0982,292.9328 C330.3229,298.6657 325.4787,297.1949 322.8546,290.767 C316.4581,296.875 312.2109,295.416 309.1775,287.4896 C302.3587,285.3013 300.7023,278.2786 305.9475,273.337 C299.9238,270.3629 298.4557,265.5805 304.3203,261.034 C296.7821,259.7377 294.7259,253.41 299.9819,247.8905 C295.2656,241.8062 296.2043,237.1949 303.6889,234.4842 C297.469,229.8685 298.4948,223.2359 305.6645,220.5136 C299.8436,214.2389 302.4658,208.7128 309.9006,206.4232 " fill="url(#g17do0pqi1wj290)" style="stroke: #FFFFFF; stroke-width: 1.5625;"/><text fill="#ADAFAE" font-family="Helvetica" font-size="12.5" font-weight="bold" lengthAdjust="spacingAndGlyphs" textLength="53.125" x="332.8125" y="226.6805">My Cloud</text><!--cluster My Database--><path d="M281.25,330.3711 C281.25,319.9544 359.375,319.9544 359.375,319.9544 C359.375,319.9544 437.5,319.9544 437.5,330.3711 L437.5,616.8294 C437.5,627.2461 359.375,627.2461 359.375,627.2461 C359.375,627.2461 281.25,627.2461 281.25,616.8294 L281.25,330.3711 " fill="#2A9FD6" style="stroke: #55B2DE; stroke-width: 1.5625;"/><path d="M281.25,330.3711 C281.25,340.7878 359.375,340.7878 359.375,340.7878 C359.375,340.7878 437.5,340.7878 437.5,330.3711 " fill="none" style="stroke: #55B2DE; stroke-width: 1.5625;"/><text fill="#FFFFFF" font-family="Helvetica" font-size="12.5" font-weight="bold" lengthAdjust="spacingAndGlyphs" textLength="76.0417" x="321.3542" y="357.9305">My Database</text><!--cluster My folder--><path d="M310.4167,383.4961 L366.6667,383.4961 A6.25,6.25 0 0 1 370.8333,387.6628 L378.125,409.6354 L408.3333,409.6354 A4.1667,4.1667 0 0 1 412.5,413.8021 L412.5,476.2044 A4.1667,4.1667 0 0 1 408.3333,480.3711 L310.4167,480.3711 A4.1667,4.1667 0 0 1 306.25,476.2044 L306.25,387.6628 A4.1667,4.1667 0 0 1 310.4167,383.4961 " fill="#444444" style="stroke: #FF8800; stroke-width: 1.5625;"/><line style="stroke: #FF8800; stroke-width: 1.5625;" x1="306.25" x2="378.125" y1="409.6354" y2="409.6354"/><text fill="#ADAFAE" font-family="Helvetica" font-size="12.5" font-weight="bold" lengthAdjust="spacingAndGlyphs" textLength="54.1667" x="312.5" y="400.6388">My folder</text><!--cluster My Frame--><rect fill="#444444" height="96.875" rx="4.1667" ry="4.1667" style="stroke: #9933CC; stroke-width: 1.5625;" width="106.25" x="306.25" y="505.3711"/><path d="M378.125,506.4128 L378.125,517.9688 L367.7083,528.3854 L306.25,528.3854 " fill="none" style="stroke: #9933CC; stroke-width: 1.5625;"/><text fill="#ADAFAE" font-family="Helvetica" font-size="12.5" font-weight="bold" lengthAdjust="spacingAndGlyphs" textLength="57.2917" x="311.4583" y="521.4722">My Frame</text><!--entity HTTP--><ellipse cx="206.25" cy="130.8919" fill="#D63333" rx="8.3333" ry="8.3333" style="stroke: #CC0000; stroke-width: 2.0833333333333335;"/><text fill="#ADAFAE" font-family="Helvetica" font-size="12.5" lengthAdjust="spacingAndGlyphs" textLength="32.2917" x="190.1042" y="163.6597">HTTP</text><!--entity First Component--><rect fill="#77B300" height="40.7227" rx="4.1667" ry="4.1667" style="stroke: #92C233; stroke-width: 1.5625;" width="120.8333" x="39.5833" y="110.5794"/><rect fill="#77B300" height="5.2083" style="stroke: #92C233; stroke-width: 1.5625;" width="10.4167" x="34.375" y="115.7878"/><rect fill="#77B300" height="5.2083" style="stroke: #92C233; stroke-width: 1.5625;" width="10.4167" x="34.375" y="140.8854"/><text fill="#FFFFFF" font-family="Helvetica" font-size="12.5" lengthAdjust="spacingAndGlyphs" textLength="95.8333" x="52.0833" y="136.0555">First Component</text><!--entity Another Component--><rect fill="#77B300" height="40.7227" rx="4.1667" ry="4.1667" style="stroke: #92C233; stroke-width: 1.5625;" width="139.5833" x="252.0833" y="110.5794"/><rect fill="#77B300" height="5.2083" style="stroke: #92C233; stroke-width: 1.5625;" width="10.4167" x="246.875" y="115.7878"/><rect fill="#77B300" height="5.2083" style="stroke: #92C233; stroke-width: 1.5625;" width="10.4167" x="246.875" y="140.8854"/><text fill="#FFFFFF" font-family="Helvetica" font-size="12.5" lengthAdjust="spacingAndGlyphs" textLength="114.5833" x="264.5833" y="136.0555">Another Component</text><!--entity FTP--><ellipse cx="72.9167" cy="257.9753" fill="#D63333" rx="8.3333" ry="8.3333" style="stroke: #CC0000; stroke-width: 2.0833333333333335;"/><text fill="#ADAFAE" font-family="Helvetica" font-size="12.5" lengthAdjust="spacingAndGlyphs" textLength="22.9167" x="61.4583" y="290.743">FTP</text><!--entity Second Component--><rect fill="#77B300" height="40.7227" rx="4.1667" ry="4.1667" style="stroke: #92C233; stroke-width: 1.5625;" width="139.5833" x="118.75" y="237.6628"/><rect fill="#77B300" height="5.2083" style="stroke: #92C233; stroke-width: 1.5625;" width="10.4167" x="113.5417" y="242.8711"/><rect fill="#77B300" height="5.2083" style="stroke: #92C233; stroke-width: 1.5625;" width="10.4167" x="113.5417" y="267.9688"/><text fill="#FFFFFF" font-family="Helvetica" font-size="12.5" lengthAdjust="spacingAndGlyphs" textLength="114.5833" x="131.25" y="263.1388">Second Component</text><!--entity Example 1--><rect fill="#77B300" height="40.7227" rx="4.1667" ry="4.1667" style="stroke: #92C233; stroke-width: 1.5625;" width="85.4167" x="316.6667" y="237.6628"/><rect fill="#77B300" height="5.2083" style="stroke: #92C233; stroke-width: 1.5625;" width="10.4167" x="311.4583" y="242.8711"/><rect fill="#77B300" height="5.2083" style="stroke: #92C233; stroke-width: 1.5625;" width="10.4167" x="311.4583" y="267.9688"/><text fill="#FFFFFF" font-family="Helvetica" font-size="12.5" lengthAdjust="spacingAndGlyphs" textLength="60.4167" x="329.1667" y="263.1388">Example 1</text><!--entity Folder 3--><rect fill="#77B300" height="40.7227" rx="4.1667" ry="4.1667" style="stroke: #92C233; stroke-width: 1.5625;" width="71.875" x="323.4375" y="423.0794"/><rect fill="#77B300" height="5.2083" style="stroke: #92C233; stroke-width: 1.5625;" width="10.4167" x="318.2292" y="428.2878"/><rect fill="#77B300" height="5.2083" style="stroke: #92C233; stroke-width: 1.5625;" width="10.4167" x="318.2292" y="453.3854"/><text fill="#FFFFFF" font-family="Helvetica" font-size="12.5" lengthAdjust="spacingAndGlyphs" textLength="46.875" x="335.9375" y="448.5555">Folder 3</text><!--entity Frame 4--><rect fill="#77B300" height="40.7227" rx="4.1667" ry="4.1667" style="stroke: #92C233; stroke-width: 1.5625;" width="72.9167" x="322.9167" y="544.9544"/><rect fill="#77B300" height="5.2083" style="stroke: #92C233; stroke-width: 1.5625;" width="10.4167" x="317.7083" y="550.1628"/><rect fill="#77B300" height="5.2083" style="stroke: #92C233; stroke-width: 1.5625;" width="10.4167" x="317.7083" y="575.2604"/><text fill="#FFFFFF" font-family="Helvetica" font-size="12.5" lengthAdjust="spacingAndGlyphs" textLength="47.9167" x="335.4167" y="570.4305">Frame 4</text><!--entity My Artifact--><rect fill="#ADAFAE" height="43.8477" rx="4.1667" ry="4.1667" style="stroke: #BDBFBE; stroke-width: 1.5625;" width="90.625" x="428.6458" y="109.0169"/><polygon fill="#ADAFAE" points="501.5625,114.2253,501.5625,128.8086,514.0625,128.8086,514.0625,120.4753,507.8125,114.2253,501.5625,114.2253" style="stroke: #BDBFBE; stroke-width: 1.5625;"/><line style="stroke: #BDBFBE; stroke-width: 1.5625;" x1="507.8125" x2="507.8125" y1="114.2253" y2="120.4753"/><line style="stroke: #BDBFBE; stroke-width: 1.5625;" x1="514.0625" x2="507.8125" y1="120.4753" y2="120.4753"/><text fill="#222222" font-family="Helvetica" font-size="12.5" lengthAdjust="spacingAndGlyphs" textLength="55.2083" x="441.1458" y="137.618">My Artifact</text><!--entity My Storage--><rect fill="#FF8800" height="40.7227" rx="36.4583" ry="36.4583" style="stroke: #FFA033; stroke-width: 1.5625;" width="87.5" x="556.25" y="110.5794"/><text fill="#FFFFFF" font-family="Helvetica" font-size="12.5" lengthAdjust="spacingAndGlyphs" textLength="62.5" x="568.75" y="136.0555">My Storage</text><!--link HTTP to First Component--><path d="M196.6198,130.8919 C184.6115,130.8919 172.6042,130.8919 160.5958,130.8919 " fill="none" id="HTTP-First Component" style="stroke: #2A9FD6; stroke-width: 3.125;"/><!--link FTP to Second Component--><path d="M82.4016,257.9753 C94.4252,257.9753 106.4489,257.9753 118.4729,257.9753 " fill="none" id="FTP-Second Component" style="stroke: #2A9FD6; stroke-width: 3.125;"/><!--link First Component to FTP--><path d="M95.7682,151.4648 C90.2274,177.0378 80.6559,221.2138 75.8497,243.3971 " fill="none" id="First Component-FTP" style="stroke: #2A9FD6; stroke-width: 3.125;"/><polygon fill="#2A9FD6" points="74.7357,248.5378,80.7927,240.2574,75.8384,243.4475,72.6483,238.4931,74.7357,248.5378" style="stroke: #2A9FD6; stroke-width: 3.125;"/><!--link Another Component to Example 1--><path d="M327.7344,151.4648 C334.2844,173.2971 344.901,208.6867 352.0073,232.3763 " fill="none" id="Another Component-Example 1" style="stroke: #2A9FD6; stroke-width: 3.125;"/><polygon fill="#2A9FD6" points="353.5563,237.5398,354.8558,227.3633,352.0609,232.5508,346.8733,229.7559,353.5563,237.5398" style="stroke: #2A9FD6; stroke-width: 3.125;"/><!--link Example 1 to Folder 3--><path d="M359.375,278.2898 C359.375,311.7128 359.375,380.3878 359.375,417.4013 " fill="none" id="Example 1-Folder 3" style="stroke: #2A9FD6; stroke-width: 3.125;"/><polygon fill="#2A9FD6" points="359.375,423.0596,363.5417,413.6846,359.375,417.8513,355.2083,413.6846,359.375,423.0596" style="stroke: #2A9FD6; stroke-width: 3.125;"/><!--link Folder 3 to Frame 4--><path d="M359.375,463.9471 C359.375,484.4826 359.375,516.8732 359.375,539.2586 " fill="none" id="Folder 3-Frame 4" style="stroke: #2A9FD6; stroke-width: 3.125;"/><polygon fill="#2A9FD6" points="359.375,544.7204,363.5417,535.3454,359.375,539.512,355.2083,535.3454,359.375,544.7204" style="stroke: #2A9FD6; stroke-width: 3.125;"/><!--
@startuml







skinparam defaultFontName       "Helvetica"
skinparam defaultFontSize       12
skinparam dpi                   100
skinparam shadowing             false
skinparam roundcorner           8
skinparam ParticipantPadding    10
skinparam BoxPadding            2
skinparam Padding               2
skinparam TitleFontColor	    #ADAFAE
skinparam TitleFontSize	    	20
skinparam TitleBorderThickness 	0
skinparam ArrowColor            #ADAFAE


skinparam legend {
	BackgroundColor #555
	BorderColor #777777
	FontColor #ADAFAE
}

skinparam activity {
	TitleFontSize 20
	TitleFontColor #ADAFAE
	FontColor #FFF
	BorderColor #2A9FD6
	BackgroundColor #2A9FD6
	BarColor #77B300
	StartColor #9933CC
	EndColor #9933CC
	DiamondBackgroundColor #444444
  	DiamondBorderColor #777777
  	DiamondFontColor #FFF
}
	
skinparam sequence {
	BorderColor #2A9FD6
	TitleFontSize 20
	TitleFontColor #ADAFAE
	BackgroundColor transparent
	StartColor #2A9FD6
	EndColor #2A9FD6
    ParticipantBackgroundColor #2A9FD6
    ParticipantBorderColor #2A9FD6
	ParticipantBorderThickness 0
	ParticipantFontColor #FFF
	ActorBackgroundColor transparent
    ActorBorderColor #2A9FD6
	ActorFontColor #2A9FD6
	ArrowThickness 3
	ArrowColor #2A9FD6
	BoxBackgroundColor transparent
	BoxBorderColor #ADAFAE
	BoxFontColor $DARk
	LifeLineBorderColor #555
	LifeLineBorderThickness 0
	LifeLineBackgroundColor #777777
	GroupBorderColor #ADAFAE
	GroupFontColor #ADAFAE
	GroupHeaderFontColor #9933CC
	DividerBackgroundColor #ADAFAE
    DividerBorderColor #ADAFAE
    DividerBorderThickness 2
    DividerFontColor #222
	ReferenceBorderColor #ADAFAE
	ReferenceFontColor #ADAFAE
	ReferenceHeaderFontColor #9933CC
}

skinparam partition {
	BorderColor #2A9FD6
	FontColor #2A9FD6
	BackgroundColor transparent
}

skinparam collections {
	BackgroundColor #2A9FD6
	BorderColor #55B2DE
}

skinparam control {
	BackgroundColor  #2A9FD6
	BorderColor #55B2DE
	FontColor #ADAFAE
}

skinparam entity {
	BackgroundColor  #2A9FD6
	BorderColor #55B2DE
	FontColor #ADAFAE
}

skinparam boundary {
	BackgroundColor  #2A9FD6
	BorderColor #55B2DE
	FontColor #ADAFAE
}

skinparam agent {
	BackgroundColor $WARNINIG
	BorderColor $WARNING_LIGHT
	FontColor #ADAFAE
}

skinparam note {
	BorderThickness 1
	BackgroundColor #9933CC
	BorderColor #AD5CD6
	FontColor #FFF
}

skinparam artifact {
	BackgroundColor #ADAFAE
	BorderColor #BDBFBE
	FontColor #222
}

skinparam component {
	BackgroundColor  #77B300
	BorderColor  #92C233
	FontColor #FFF
}

skinparam interface {
	BackgroundColor  #D63333
	BorderColor  #CC0000
	FontColor #ADAFAE
}

skinparam storage {
	BackgroundColor #FF8800
  	BorderColor #FFA033
	FontColor #FFF
}

skinparam node {
	BackgroundColor  #555
	BorderColor #ADAFAE
	FontColor #ADAFAE
}

skinparam cloud {
	BackgroundColor white-#55B2DE
	BorderColor transparent
	FontColor #ADAFAE
}

skinparam database {
	BackgroundColor  #2A9FD6
	BorderColor #55B2DE
	FontColor $PRIAMRY_TEXT
}

skinparam actor {
	FontColor #ADAFAE
}

skinparam class {
	HeaderBackgroundColor #227FAB
	FontColor #FFF
	BackgroundColor #2A9FD6
	BorderColor #55B2DE
	StereotypeFontColor #ADAFAE
	LineThickness 4
	BorderThickness 1
	AttributeFontColor #222
}

skinparam object {
	FontColor #77B300
	BackgroundColor #555
	BorderColor #777777
	StereotypeFontColor #ADAFAE
	BorderThickness 1
	AttributeFontColor #ADAFAE
}

skinparam usecase {
	BackgroundColor #555
	BorderColor #555
	BorderThickness 2
	FontColor #FFF
	StereotypeFontColor #2A9FD6
}


skinparam rectangle {
	BackgroundColor #444444
	BorderColor #227FAB
	BorderThickness 2
	FontColor #2A9FD6
	StereotypeFontColor #2A9FD6
}

skinparam package {
	BackgroundColor #555
  	BorderColor #2A9FD6
	FontColor #2A9FD6
	BorderThickness 2
}

skinparam folder {
	BackgroundColor #444444
  	BorderColor #FF8800
	FontColor #ADAFAE
	BorderThickness 2
}

skinparam frame {
	BackgroundColor #444444
  	BorderColor #9933CC
	FontColor #ADAFAE
	BorderThickness 2
}

skinparam state {
  StartColor #9933CC
  EndColor #9933CC
  BackgroundColor #555
  BorderColor #777777
  FontColor #FFF
}

title Component Diagram

skinparam BackgroundColor transparent

package "My Package" {
  HTTP - [First Component]
  [Another Component]
}
 
node "My Node" {
  FTP - [Second Component]
  [First Component] - -> FTP
} 

cloud "My Cloud" {
  [Example 1]
}


database "My Database" {
  folder "My folder" {
	[Folder 3]
  }
  frame "My Frame" {
	[Frame 4]
  }
}

artifact "My Artifact"
storage "My Storage"

[Another Component] - -> [Example 1]
[Example 1] - -> [Folder 3]
[Folder 3] - -> [Frame 4]

@enduml

PlantUML version 1.2019.08(Sat Jul 13 12:25:14 PDT 2019)
(MIT source distribution)
Java Runtime: Java(TM) SE Runtime Environment
JVM: Java HotSpot(TM) 64-Bit Server VM
Java Version: 1.8.0_212-b32
Operating System: Windows 10
OS Version: 10.0
Default Encoding: Cp1252
Language: en
Country: US
--></g></svg>