<?xml version="1.0" encoding="UTF-8" standalone="no"?><svg xmlns="http://www.w3.org/2000/svg" xmlns:xlink="http://www.w3.org/1999/xlink" contentScriptType="application/ecmascript" contentStyleType="text/css" height="1261.4583px" preserveAspectRatio="none" style="width:956px;height:1261px;" version="1.1" viewBox="0 0 956 1261" width="956.25px" zoomAndPan="magnify"><defs/><g><rect fill="none" height="40.7878" rx="4.1667" ry="4.1667" style="stroke: none; stroke-width: 1.0416666666666667;" width="156.25" x="394.7917" y="31.3477"/><text fill="#ADAFAE" font-family="Helvetica" font-size="20.8333" font-weight="bold" lengthAdjust="spacingAndGlyphs" textLength="135.4167" x="405.2083" y="60.2661">cyborg theme</text><rect fill="none" height="1146.875" rx="4.1667" ry="4.1667" style="stroke: #ADAFAE; stroke-width: 1.0416666666666667;" width="208.3333" x="697.9167" y="83.5938"/><text fill="#FFFFFF" font-family="Helvetica" font-size="12.5" font-weight="bold" lengthAdjust="spacingAndGlyphs" textLength="92.7083" x="755.7292" y="98.6532">Internal Service</text><rect fill="#777777" height="209.0169" style="stroke: #555555; stroke-width: 1.0416666666666667;" width="10.4167" x="321.875" y="314.1927"/><line style="stroke: #555555; stroke-width: 1.0416666666666667;" x1="64.5833" x2="64.5833" y1="168.0664" y2="531.543"/><line style="stroke: #555555; stroke-width: 1.0416666666666667; stroke-dasharray: 1.0,4.0;" x1="64.5833" x2="64.5833" y1="531.543" y2="580.599"/><line style="stroke: #555555; stroke-width: 1.0416666666666667;" x1="64.5833" x2="64.5833" y1="580.599" y2="1141.8294"/><line style="stroke: #555555; stroke-width: 1.0416666666666667;" x1="202.6042" x2="202.6042" y1="168.0664" y2="531.543"/><line style="stroke: #555555; stroke-width: 1.0416666666666667; stroke-dasharray: 1.0,4.0;" x1="202.6042" x2="202.6042" y1="531.543" y2="580.599"/><line style="stroke: #555555; stroke-width: 1.0416666666666667;" x1="202.6042" x2="202.6042" y1="580.599" y2="1141.8294"/><line style="stroke: #555555; stroke-width: 1.0416666666666667;" x1="327.0833" x2="327.0833" y1="168.0664" y2="531.543"/><line style="stroke: #555555; stroke-width: 1.0416666666666667; stroke-dasharray: 1.0,4.0;" x1="327.0833" x2="327.0833" y1="531.543" y2="580.599"/><line style="stroke: #555555; stroke-width: 1.0416666666666667;" x1="327.0833" x2="327.0833" y1="580.599" y2="1141.8294"/><line style="stroke: #555555; stroke-width: 1.0416666666666667;" x1="446.875" x2="446.875" y1="168.0664" y2="531.543"/><line style="stroke: #555555; stroke-width: 1.0416666666666667; stroke-dasharray: 1.0,4.0;" x1="446.875" x2="446.875" y1="531.543" y2="580.599"/><line style="stroke: #555555; stroke-width: 1.0416666666666667;" x1="446.875" x2="446.875" y1="580.599" y2="1141.8294"/><line style="stroke: #555555; stroke-width: 1.0416666666666667;" x1="586.4583" x2="586.4583" y1="168.0664" y2="531.543"/><line style="stroke: #555555; stroke-width: 1.0416666666666667; stroke-dasharray: 1.0,4.0;" x1="586.4583" x2="586.4583" y1="531.543" y2="580.599"/><line style="stroke: #555555; stroke-width: 1.0416666666666667;" x1="586.4583" x2="586.4583" y1="580.599" y2="1141.8294"/><line style="stroke: #555555; stroke-width: 1.0416666666666667;" x1="653.125" x2="653.125" y1="168.0664" y2="531.543"/><line style="stroke: #555555; stroke-width: 1.0416666666666667; stroke-dasharray: 1.0,4.0;" x1="653.125" x2="653.125" y1="531.543" y2="580.599"/><line style="stroke: #555555; stroke-width: 1.0416666666666667;" x1="653.125" x2="653.125" y1="580.599" y2="1141.8294"/><line style="stroke: #555555; stroke-width: 1.0416666666666667;" x1="733.3333" x2="733.3333" y1="168.0664" y2="531.543"/><line style="stroke: #555555; stroke-width: 1.0416666666666667; stroke-dasharray: 1.0,4.0;" x1="733.3333" x2="733.3333" y1="531.543" y2="580.599"/><line style="stroke: #555555; stroke-width: 1.0416666666666667;" x1="733.3333" x2="733.3333" y1="580.599" y2="1141.8294"/><line style="stroke: #555555; stroke-width: 1.0416666666666667;" x1="838.5417" x2="838.5417" y1="168.0664" y2="531.543"/><line style="stroke: #555555; stroke-width: 1.0416666666666667; stroke-dasharray: 1.0,4.0;" x1="838.5417" x2="838.5417" y1="531.543" y2="580.599"/><line style="stroke: #555555; stroke-width: 1.0416666666666667;" x1="838.5417" x2="838.5417" y1="580.599" y2="1141.8294"/><text fill="#ADAFAE" font-family="Helvetica" font-size="12.5" lengthAdjust="spacingAndGlyphs" textLength="29.1667" x="46.875" y="163.2365">Foo1</text><ellipse cx="64.5833" cy="92.9688" fill="#FFFFFF" rx="8.3333" ry="8.3333" style="stroke: #2A9FD6; stroke-width: 2.0833333333333335;"/><path d="M64.5833,101.3021 L64.5833,129.4271 M51.0417,109.6354 L78.125,109.6354 M64.5833,129.4271 L51.0417,145.0521 M64.5833,129.4271 L78.125,145.0521 " fill="none" style="stroke: #2A9FD6; stroke-width: 2.0833333333333335;"/><text fill="#ADAFAE" font-family="Helvetica" font-size="12.5" lengthAdjust="spacingAndGlyphs" textLength="29.1667" x="46.875" y="1155.8472">Foo1</text><ellipse cx="64.5833" cy="1171.0938" fill="#FFFFFF" rx="8.3333" ry="8.3333" style="stroke: #2A9FD6; stroke-width: 2.0833333333333335;"/><path d="M64.5833,1179.4271 L64.5833,1207.5521 M51.0417,1187.7604 L78.125,1187.7604 M64.5833,1207.5521 L51.0417,1223.1771 M64.5833,1207.5521 L78.125,1223.1771 " fill="none" style="stroke: #2A9FD6; stroke-width: 2.0833333333333335;"/><text fill="#ADAFAE" font-family="Helvetica" font-size="12.5" lengthAdjust="spacingAndGlyphs" textLength="29.1667" x="185.4167" y="163.2365">Foo2</text><path d="M181.7708,119.0104 L181.7708,144.0104 M181.7708,131.5104 L199.4792,131.5104 " fill="none" style="stroke: #55B2DE; stroke-width: 2.0833333333333335;"/><ellipse cx="211.9792" cy="131.5104" fill="#2A9FD6" rx="12.5" ry="12.5" style="stroke: #55B2DE; stroke-width: 2.0833333333333335;"/><text fill="#ADAFAE" font-family="Helvetica" font-size="12.5" lengthAdjust="spacingAndGlyphs" textLength="29.1667" x="185.4167" y="1155.8472">Foo2</text><path d="M181.7708,1164.8438 L181.7708,1189.8438 M181.7708,1177.3438 L199.4792,1177.3438 " fill="none" style="stroke: #55B2DE; stroke-width: 2.0833333333333335;"/><ellipse cx="211.9792" cy="1177.3438" fill="#2A9FD6" rx="12.5" ry="12.5" style="stroke: #55B2DE; stroke-width: 2.0833333333333335;"/><text fill="#ADAFAE" font-family="Helvetica" font-size="12.5" lengthAdjust="spacingAndGlyphs" textLength="29.1667" x="309.375" y="163.2365">Foo3</text><ellipse cx="327.0833" cy="131.5104" fill="#2A9FD6" rx="12.5" ry="12.5" style="stroke: #55B2DE; stroke-width: 2.0833333333333335;"/><polygon fill="#55B2DE" points="322.9167,119.0104,329.1667,113.8021,327.0833,119.0104,329.1667,124.2188,322.9167,119.0104" style="stroke: #55B2DE; stroke-width: 1.0416666666666667;"/><text fill="#ADAFAE" font-family="Helvetica" font-size="12.5" lengthAdjust="spacingAndGlyphs" textLength="29.1667" x="309.375" y="1155.8472">Foo3</text><ellipse cx="327.0833" cy="1177.3438" fill="#2A9FD6" rx="12.5" ry="12.5" style="stroke: #55B2DE; stroke-width: 2.0833333333333335;"/><polygon fill="#55B2DE" points="322.9167,1164.8438,329.1667,1159.6354,327.0833,1164.8438,329.1667,1170.0521,322.9167,1164.8438" style="stroke: #55B2DE; stroke-width: 1.0416666666666667;"/><text fill="#ADAFAE" font-family="Helvetica" font-size="12.5" lengthAdjust="spacingAndGlyphs" textLength="29.1667" x="429.1667" y="163.2365">Foo4</text><ellipse cx="446.875" cy="131.5104" fill="#2A9FD6" rx="12.5" ry="12.5" style="stroke: #55B2DE; stroke-width: 2.0833333333333335;"/><line style="stroke: #55B2DE; stroke-width: 2.0833333333333335;" x1="434.375" x2="459.375" y1="146.0938" y2="146.0938"/><text fill="#ADAFAE" font-family="Helvetica" font-size="12.5" lengthAdjust="spacingAndGlyphs" textLength="29.1667" x="429.1667" y="1155.8472">Foo4</text><ellipse cx="446.875" cy="1177.3438" fill="#2A9FD6" rx="12.5" ry="12.5" style="stroke: #55B2DE; stroke-width: 2.0833333333333335;"/><line style="stroke: #55B2DE; stroke-width: 2.0833333333333335;" x1="434.375" x2="459.375" y1="1191.9271" y2="1191.9271"/><text fill="#FFFFFF" font-family="Helvetica" font-size="12.5" lengthAdjust="spacingAndGlyphs" textLength="29.1667" x="568.75" y="163.2365">Foo5</text><path d="M567.7083,110.6771 C567.7083,100.2604 586.4583,100.2604 586.4583,100.2604 C586.4583,100.2604 605.2083,100.2604 605.2083,110.6771 L605.2083,137.7604 C605.2083,148.1771 586.4583,148.1771 586.4583,148.1771 C586.4583,148.1771 567.7083,148.1771 567.7083,137.7604 L567.7083,110.6771 " fill="#2A9FD6" style="stroke: #55B2DE; stroke-width: 1.5625;"/><path d="M567.7083,110.6771 C567.7083,121.0938 586.4583,121.0938 586.4583,121.0938 C586.4583,121.0938 605.2083,121.0938 605.2083,110.6771 " fill="none" style="stroke: #55B2DE; stroke-width: 1.5625;"/><text fill="#FFFFFF" font-family="Helvetica" font-size="12.5" lengthAdjust="spacingAndGlyphs" textLength="29.1667" x="568.75" y="1155.8472">Foo5</text><path d="M567.7083,1171.0938 C567.7083,1160.6771 586.4583,1160.6771 586.4583,1160.6771 C586.4583,1160.6771 605.2083,1160.6771 605.2083,1171.0938 L605.2083,1198.1771 C605.2083,1208.5938 586.4583,1208.5938 586.4583,1208.5938 C586.4583,1208.5938 567.7083,1208.5938 567.7083,1198.1771 L567.7083,1171.0938 " fill="#2A9FD6" style="stroke: #55B2DE; stroke-width: 1.5625;"/><path d="M567.7083,1171.0938 C567.7083,1181.5104 586.4583,1181.5104 586.4583,1181.5104 C586.4583,1181.5104 605.2083,1181.5104 605.2083,1171.0938 " fill="none" style="stroke: #55B2DE; stroke-width: 1.5625;"/><rect fill="#2A9FD6" height="34.4727" rx="4.1667" ry="4.1667" style="stroke: #55B2DE; stroke-width: 1.5625;" width="47.9167" x="631.25" y="128.3854"/><rect fill="#2A9FD6" height="34.4727" rx="4.1667" ry="4.1667" style="stroke: #55B2DE; stroke-width: 1.5625;" width="47.9167" x="627.0833" y="132.5521"/><text fill="#FFFFFF" font-family="Helvetica" font-size="12.5" lengthAdjust="spacingAndGlyphs" textLength="29.1667" x="636.4583" y="154.9032">Foo6</text><rect fill="#2A9FD6" height="34.4727" rx="4.1667" ry="4.1667" style="stroke: #55B2DE; stroke-width: 1.5625;" width="47.9167" x="631.25" y="1140.7878"/><rect fill="#2A9FD6" height="34.4727" rx="4.1667" ry="4.1667" style="stroke: #55B2DE; stroke-width: 1.5625;" width="47.9167" x="627.0833" y="1144.9544"/><text fill="#FFFFFF" font-family="Helvetica" font-size="12.5" lengthAdjust="spacingAndGlyphs" textLength="29.1667" x="636.4583" y="1167.3055">Foo6</text><rect fill="#2A9FD6" height="34.4727" rx="4.1667" ry="4.1667" style="stroke: #2A9FD6; stroke-width: 0.0;" width="41.6667" x="712.5" y="132.5521"/><text fill="#FFFFFF" font-family="Helvetica" font-size="12.5" lengthAdjust="spacingAndGlyphs" textLength="22.9167" x="721.875" y="154.9032">Bob</text><rect fill="#2A9FD6" height="34.4727" rx="4.1667" ry="4.1667" style="stroke: #2A9FD6; stroke-width: 0.0;" width="41.6667" x="712.5" y="1140.7878"/><text fill="#FFFFFF" font-family="Helvetica" font-size="12.5" lengthAdjust="spacingAndGlyphs" textLength="22.9167" x="721.875" y="1163.1388">Bob</text><rect fill="#2A9FD6" height="46.0286" rx="4.1667" ry="4.1667" style="stroke: #2A9FD6; stroke-width: 0.0;" width="106.25" x="785.4167" y="120.9961"/><ellipse cx="803.125" cy="138.7044" fill="#ADD1B2" rx="10.4167" ry="10.4167" style="stroke: #2A9FD6; stroke-width: 1.0416666666666667;"/><path d="M804.6712,135.791 Q804.7852,135.6283 804.9235,135.5469 Q805.0618,135.4655 805.2246,135.4655 Q805.5013,135.4655 805.6722,135.6608 Q805.8431,135.8561 805.8431,136.2956 L805.8431,137.3698 Q805.8431,137.8092 805.6722,138.0046 Q805.5013,138.1999 805.2246,138.1999 Q804.9642,138.1999 804.8177,138.0534 Q804.6712,137.9232 804.5898,137.5326 Q804.5573,137.2721 804.4271,137.1419 Q804.1667,136.8652 803.7191,136.7025 Q803.2715,136.5397 802.8158,136.5397 Q802.2624,136.5397 801.7904,136.7839 Q801.3184,137.028 800.9603,137.5732 Q800.6022,138.1185 800.6022,138.8835 L800.6022,139.6973 Q800.6022,140.5924 801.2614,141.1947 Q801.9206,141.7969 803.0762,141.7969 Q803.776,141.7969 804.2643,141.6178 Q804.541,141.5039 804.8503,141.1784 Q805.0456,140.9831 805.1595,140.9261 Q805.2734,140.8691 805.4036,140.8691 Q805.6641,140.8691 805.8512,141.0563 Q806.0384,141.2435 806.0384,141.5039 Q806.0384,141.7643 805.778,142.0573 Q805.4036,142.4805 804.8177,142.7246 Q804.0365,143.0501 803.0924,143.0501 Q801.9694,143.0501 801.0905,142.5944 Q800.3581,142.2363 799.8535,141.4388 Q799.349,140.6413 799.349,139.7135 L799.349,138.8672 Q799.349,137.8906 799.8047,137.0443 Q800.2604,136.1979 801.0661,135.7422 Q801.8717,135.2865 802.7669,135.2865 Q803.3203,135.2865 803.7923,135.4085 Q804.2643,135.5306 804.6712,135.791 Z "/><text fill="#FFFFFF" font-family="Helvetica" font-size="12.5" font-style="italic" lengthAdjust="spacingAndGlyphs" textLength="64.5833" x="819.7917" y="140.7878">«Testable»</text><text fill="#FFFFFF" font-family="Helvetica" font-size="12.5" lengthAdjust="spacingAndGlyphs" textLength="27.0833" x="838.5417" y="156.5104">Alice</text><rect fill="#2A9FD6" height="46.0286" rx="4.1667" ry="4.1667" style="stroke: #2A9FD6; stroke-width: 0.0;" width="106.25" x="785.4167" y="1140.7878"/><ellipse cx="803.125" cy="1158.4961" fill="#ADD1B2" rx="10.4167" ry="10.4167" style="stroke: #2A9FD6; stroke-width: 1.0416666666666667;"/><path d="M804.6712,1155.5827 Q804.7852,1155.4199 804.9235,1155.3385 Q805.0618,1155.2572 805.2246,1155.2572 Q805.5013,1155.2572 805.6722,1155.4525 Q805.8431,1155.6478 805.8431,1156.0872 L805.8431,1157.1615 Q805.8431,1157.6009 805.6722,1157.7962 Q805.5013,1157.9915 805.2246,1157.9915 Q804.9642,1157.9915 804.8177,1157.8451 Q804.6712,1157.7148 804.5898,1157.3242 Q804.5573,1157.0638 804.4271,1156.9336 Q804.1667,1156.6569 803.7191,1156.4941 Q803.2715,1156.3314 802.8158,1156.3314 Q802.2624,1156.3314 801.7904,1156.5755 Q801.3184,1156.8197 800.9603,1157.3649 Q800.6022,1157.9102 800.6022,1158.6751 L800.6022,1159.4889 Q800.6022,1160.3841 801.2614,1160.9863 Q801.9206,1161.5885 803.0762,1161.5885 Q803.776,1161.5885 804.2643,1161.4095 Q804.541,1161.2956 804.8503,1160.9701 Q805.0456,1160.7747 805.1595,1160.7178 Q805.2734,1160.6608 805.4036,1160.6608 Q805.6641,1160.6608 805.8512,1160.848 Q806.0384,1161.0352 806.0384,1161.2956 Q806.0384,1161.556 805.778,1161.849 Q805.4036,1162.2721 804.8177,1162.5163 Q804.0365,1162.8418 803.0924,1162.8418 Q801.9694,1162.8418 801.0905,1162.3861 Q800.3581,1162.028 799.8535,1161.2305 Q799.349,1160.4329 799.349,1159.5052 L799.349,1158.6589 Q799.349,1157.6823 799.8047,1156.8359 Q800.2604,1155.9896 801.0661,1155.5339 Q801.8717,1155.0781 802.7669,1155.0781 Q803.3203,1155.0781 803.7923,1155.2002 Q804.2643,1155.3223 804.6712,1155.5827 Z "/><text fill="#FFFFFF" font-family="Helvetica" font-size="12.5" font-style="italic" lengthAdjust="spacingAndGlyphs" textLength="64.5833" x="819.7917" y="1160.5794">«Testable»</text><text fill="#FFFFFF" font-family="Helvetica" font-size="12.5" lengthAdjust="spacingAndGlyphs" textLength="27.0833" x="838.5417" y="1176.3021">Alice</text><rect fill="#777777" height="209.0169" style="stroke: #555555; stroke-width: 1.0416666666666667;" width="10.4167" x="321.875" y="314.1927"/><rect fill="#ADAFAE" height="3.125" style="stroke: #ADAFAE; stroke-width: 1.0416666666666667;" width="940.625" x="3.125" y="201.9694"/><line style="stroke: #ADAFAE; stroke-width: 1.0416666666666667;" x1="3.125" x2="943.75" y1="201.9694" y2="201.9694"/><line style="stroke: #ADAFAE; stroke-width: 1.0416666666666667;" x1="3.125" x2="943.75" y1="205.0944" y2="205.0944"/><rect fill="#ADAFAE" height="28.2227" style="stroke: #ADAFAE; stroke-width: 2.0833333333333335;" width="91.6667" x="427.6042" y="188.8997"/><text fill="#222222" font-family="Helvetica" font-size="12.5" font-weight="bold" lengthAdjust="spacingAndGlyphs" textLength="69.7917" x="435.9375" y="208.1258">Initialization</text><polygon fill="#2A9FD6" points="190.625,249.5117,201.0417,253.6784,190.625,257.8451,194.7917,253.6784" style="stroke: #2A9FD6; stroke-width: 1.0416666666666667;"/><line style="stroke: #2A9FD6; stroke-width: 3.125;" x1="64.5833" x2="196.875" y1="253.6784" y2="253.6784"/><text fill="#000000" font-family="Helvetica" font-size="12.5" font-weight="bold" lengthAdjust="spacingAndGlyphs" textLength="30.2083" x="73.9583" y="246.7651">[001]</text><text fill="#000000" font-family="Helvetica" font-size="12.5" lengthAdjust="spacingAndGlyphs" textLength="70.8333" x="112.5" y="246.7651">To boundary</text><polygon fill="#2A9FD6" points="309.375,310.026,319.7917,314.1927,309.375,318.3594,313.5417,314.1927" style="stroke: #2A9FD6; stroke-width: 1.0416666666666667;"/><line style="stroke: #2A9FD6; stroke-width: 3.125;" x1="203.125" x2="315.625" y1="314.1927" y2="314.1927"/><text fill="#000000" font-family="Helvetica" font-size="12.5" font-weight="bold" lengthAdjust="spacingAndGlyphs" textLength="30.2083" x="212.5" y="307.2795">[002]</text><text fill="#000000" font-family="Helvetica" font-size="12.5" lengthAdjust="spacingAndGlyphs" textLength="56.25" x="251.0417" y="307.2795">To control</text><rect fill="#FFFFFF" height="65.918" style="stroke: #ADAFAE; stroke-width: 2.0833333333333335;" width="185.4167" x="423.9583" y="322.526"/><polygon fill="#EEEEEE" points="423.9583,322.526,491.6667,322.526,491.6667,333.9844,481.25,344.401,423.9583,344.401,423.9583,322.526" style="stroke: #ADAFAE; stroke-width: 2.0833333333333335;"/><text fill="#9933CC" font-family="Helvetica" font-size="12.5" font-weight="bold" lengthAdjust="spacingAndGlyphs" textLength="16.6667" x="439.5833" y="339.6688">ref</text><text fill="#ADAFAE" font-family="Helvetica" font-size="12.5" lengthAdjust="spacingAndGlyphs" textLength="84.375" x="474.4792" y="363.6271">This can be on</text><text fill="#ADAFAE" font-family="Helvetica" font-size="12.5" lengthAdjust="spacingAndGlyphs" textLength="72.9167" x="474.4792" y="379.3498">several lines</text><polygon fill="#2A9FD6" points="434.375,415.625,444.7917,419.7917,434.375,423.9583,438.5417,419.7917" style="stroke: #2A9FD6; stroke-width: 1.0416666666666667;"/><line style="stroke: #2A9FD6; stroke-width: 3.125;" x1="332.2917" x2="440.625" y1="419.7917" y2="419.7917"/><text fill="#000000" font-family="Helvetica" font-size="12.5" font-weight="bold" lengthAdjust="spacingAndGlyphs" textLength="30.2083" x="341.6667" y="412.8784">[003]</text><text fill="#000000" font-family="Helvetica" font-size="12.5" lengthAdjust="spacingAndGlyphs" textLength="46.875" x="380.2083" y="412.8784">To entity</text><polygon fill="#2A9FD6" points="573.9583,450.0977,584.375,454.2643,573.9583,458.431,578.125,454.2643" style="stroke: #2A9FD6; stroke-width: 1.0416666666666667;"/><line style="stroke: #2A9FD6; stroke-width: 3.125;" x1="446.875" x2="580.2083" y1="454.2643" y2="454.2643"/><text fill="#000000" font-family="Helvetica" font-size="12.5" font-weight="bold" lengthAdjust="spacingAndGlyphs" textLength="30.2083" x="456.25" y="447.3511">[004]</text><text fill="#000000" font-family="Helvetica" font-size="12.5" lengthAdjust="spacingAndGlyphs" textLength="71.875" x="494.7917" y="447.3511">To database</text><polygon fill="#2A9FD6" points="343.75,484.5703,333.3333,488.737,343.75,492.9036,339.5833,488.737" style="stroke: #2A9FD6; stroke-width: 1.0416666666666667;"/><line style="stroke: #2A9FD6; stroke-width: 3.125; stroke-dasharray: 2.0,2.0;" x1="337.5" x2="585.4167" y1="488.737" y2="488.737"/><text fill="#000000" font-family="Helvetica" font-size="12.5" font-weight="bold" lengthAdjust="spacingAndGlyphs" textLength="30.2083" x="352.0833" y="481.8237">[005]</text><text fill="#000000" font-family="Helvetica" font-size="12.5" lengthAdjust="spacingAndGlyphs" textLength="33.3333" x="390.625" y="481.8237">return</text><polygon fill="#2A9FD6" points="214.5833,519.043,204.1667,523.2096,214.5833,527.3763,210.4167,523.2096" style="stroke: #2A9FD6; stroke-width: 1.0416666666666667;"/><line style="stroke: #2A9FD6; stroke-width: 3.125; stroke-dasharray: 2.0,2.0;" x1="208.3333" x2="326.0417" y1="523.2096" y2="523.2096"/><text fill="#000000" font-family="Helvetica" font-size="12.5" font-weight="bold" lengthAdjust="spacingAndGlyphs" textLength="30.2083" x="222.9167" y="516.2964">[006]</text><text fill="#000000" font-family="Helvetica" font-size="12.5" lengthAdjust="spacingAndGlyphs" textLength="33.3333" x="261.4583" y="516.2964">return</text><text fill="#000000" font-family="Helvetica" font-size="12.5" lengthAdjust="spacingAndGlyphs" textLength="34.375" x="403.6458" y="561.1857">Some</text><text fill="#000000" font-family="Helvetica" font-size="12.5" lengthAdjust="spacingAndGlyphs" textLength="58.3333" x="441.1458" y="561.1857">long delay</text><text fill="#000000" font-family="Helvetica" font-size="12.5" lengthAdjust="spacingAndGlyphs" textLength="0" x="502.6042" y="561.1857"/><polygon fill="#2A9FD6" points="640.625,602.5716,651.0417,606.7383,640.625,610.9049,644.7917,606.7383" style="stroke: #2A9FD6; stroke-width: 1.0416666666666667;"/><line style="stroke: #2A9FD6; stroke-width: 3.125;" x1="64.5833" x2="646.875" y1="606.7383" y2="606.7383"/><text fill="#000000" font-family="Helvetica" font-size="12.5" font-weight="bold" lengthAdjust="spacingAndGlyphs" textLength="30.2083" x="73.9583" y="599.825">[007]</text><text fill="#000000" font-family="Helvetica" font-size="12.5" lengthAdjust="spacingAndGlyphs" textLength="79.1667" x="112.5" y="599.825">To collections</text><polygon fill="#2A9FD6" points="458.3333,637.0443,447.9167,641.2109,458.3333,645.3776,454.1667,641.2109" style="stroke: #2A9FD6; stroke-width: 1.0416666666666667;"/><line style="stroke: #2A9FD6; stroke-width: 3.125; stroke-dasharray: 2.0,2.0;" x1="452.0833" x2="652.0833" y1="641.2109" y2="641.2109"/><text fill="#000000" font-family="Helvetica" font-size="12.5" font-weight="bold" lengthAdjust="spacingAndGlyphs" textLength="30.2083" x="466.6667" y="634.2977">[008]</text><text fill="#77B300" font-family="Helvetica" font-size="12.5" font-weight="bold" lengthAdjust="spacingAndGlyphs" textLength="51.0417" x="505.2083" y="634.2977">success</text><path d="M17.7083,656.8359 L79.1667,656.8359 L79.1667,668.2943 L68.75,678.7109 L13.5417,678.7109 L13.5417,661.0026 " fill="#EEEEEE" style="stroke: #ADAFAE; stroke-width: 1.0416666666666667;"/><rect fill="none" height="395.1172" rx="4.1667" ry="4.1667" style="stroke: #ADAFAE; stroke-width: 2.0833333333333335;" width="919.7917" x="13.5417" y="656.8359"/><text fill="#9933CC" font-family="Helvetica" font-size="12.5" font-weight="bold" lengthAdjust="spacingAndGlyphs" textLength="14.5833" x="31.25" y="672.937">alt</text><text fill="#ADAFAE" font-family="Helvetica" font-size="12.5" font-weight="bold" lengthAdjust="spacingAndGlyphs" textLength="106.25" x="96.875" y="673.9787">[successful case]</text><polygon fill="#2A9FD6" points="826.0417,705.0456,836.4583,709.2122,826.0417,713.3789,830.2083,709.2122" style="stroke: #2A9FD6; stroke-width: 1.0416666666666667;"/><line style="stroke: #2A9FD6; stroke-width: 3.125;" x1="64.5833" x2="832.2917" y1="709.2122" y2="709.2122"/><text fill="#000000" font-family="Helvetica" font-size="12.5" font-weight="bold" lengthAdjust="spacingAndGlyphs" textLength="30.2083" x="73.9583" y="702.299">[009]</text><text fill="#000000" font-family="Helvetica" font-size="12.5" lengthAdjust="spacingAndGlyphs" textLength="135.4167" x="112.5" y="702.299">Authentication Accepted</text><polygon fill="#2A9FD6" points="76.0417,739.5182,65.625,743.6849,76.0417,747.8516,71.875,743.6849" style="stroke: #2A9FD6; stroke-width: 1.0416666666666667;"/><line style="stroke: #2A9FD6; stroke-width: 3.125; stroke-dasharray: 2.0,2.0;" x1="69.7917" x2="837.5" y1="743.6849" y2="743.6849"/><text fill="#000000" font-family="Helvetica" font-size="12.5" font-weight="bold" lengthAdjust="spacingAndGlyphs" textLength="30.2083" x="84.375" y="736.7716">[010]</text><text fill="#000000" font-family="Helvetica" font-size="12.5" lengthAdjust="spacingAndGlyphs" textLength="48.9583" x="122.9167" y="736.7716">success</text><path d="M710.4167,761.3932 L710.4167,783.2682 A4.1667,4.1667 0 0 0 714.5833,787.4349 L829.1667,787.4349 A4.1667,4.1667 0 0 0 833.3333,783.2682 L833.3333,767.6432 L822.9167,757.2266 L714.5833,757.2266 A4.1667,4.1667 0 0 0 710.4167,761.3932 " fill="#9933CC" style="stroke: #AD5CD6; stroke-width: 1.0416666666666667;"/><path d="M822.9167,757.2266 L822.9167,765.5599 A2.0833,2.0833 0 0 0 825,767.6432 L833.3333,767.6432 L822.9167,757.2266 " fill="#9933CC" style="stroke: #AD5CD6; stroke-width: 1.0416666666666667;"/><text fill="#FFFFFF" font-family="Helvetica" font-size="12.5" lengthAdjust="spacingAndGlyphs" textLength="96.875" x="718.75" y="777.4943">this is a first note</text><line style="stroke: #ADAFAE; stroke-width: 1.0416666666666667; stroke-dasharray: 2.0,2.0;" x1="13.5417" x2="933.3333" y1="793.7826" y2="793.7826"/><text fill="#ADAFAE" font-family="Helvetica" font-size="12.5" font-weight="bold" lengthAdjust="spacingAndGlyphs" textLength="125" x="20.8333" y="808.842">[some kind of failure]</text><polygon fill="#2A9FD6" points="826.0417,836.6862,836.4583,840.8529,826.0417,845.0195,830.2083,840.8529" style="stroke: #2A9FD6; stroke-width: 1.0416666666666667;"/><line style="stroke: #2A9FD6; stroke-width: 3.125;" x1="64.5833" x2="832.2917" y1="840.8529" y2="840.8529"/><text fill="#000000" font-family="Helvetica" font-size="12.5" font-weight="bold" lengthAdjust="spacingAndGlyphs" textLength="30.2083" x="73.9583" y="833.9396">[011]</text><text fill="#000000" font-family="Helvetica" font-size="12.5" lengthAdjust="spacingAndGlyphs" textLength="122.9167" x="112.5" y="833.9396">Authentication Failure</text><polygon fill="#2A9FD6" points="76.0417,871.1589,65.625,875.3255,76.0417,879.4922,71.875,875.3255" style="stroke: #2A9FD6; stroke-width: 1.0416666666666667;"/><line style="stroke: #2A9FD6; stroke-width: 3.125; stroke-dasharray: 2.0,2.0;" x1="69.7917" x2="837.5" y1="875.3255" y2="875.3255"/><text fill="#000000" font-family="Helvetica" font-size="12.5" font-weight="bold" lengthAdjust="spacingAndGlyphs" textLength="30.2083" x="84.375" y="868.4123">[012]</text><text fill="#CC0000" font-family="Helvetica" font-size="12.5" font-weight="bold" lengthAdjust="spacingAndGlyphs" textLength="71.875" x="122.9167" y="868.4123">Bad request</text><path d="M28.125,890.9505 L151.0417,890.9505 L151.0417,902.4089 L140.625,912.8255 L23.9583,912.8255 L23.9583,895.1172 " fill="#EEEEEE" style="stroke: #ADAFAE; stroke-width: 1.0416666666666667;"/><rect fill="none" height="97.2656" rx="4.1667" ry="4.1667" style="stroke: #ADAFAE; stroke-width: 2.0833333333333335;" width="898.9583" x="23.9583" y="890.9505"/><text fill="#9933CC" font-family="Helvetica" font-size="12.5" font-weight="bold" lengthAdjust="spacingAndGlyphs" textLength="76.0417" x="41.6667" y="907.0516">My own label</text><path d="M38.5417,920.2148 L110.4167,920.2148 L110.4167,931.6732 L100,942.0898 L34.375,942.0898 L34.375,924.3815 " fill="#EEEEEE" style="stroke: #ADAFAE; stroke-width: 1.0416666666666667;"/><rect fill="none" height="60.7096" rx="4.1667" ry="4.1667" style="stroke: #ADAFAE; stroke-width: 2.0833333333333335;" width="878.125" x="34.375" y="920.2148"/><text fill="#9933CC" font-family="Helvetica" font-size="12.5" font-weight="bold" lengthAdjust="spacingAndGlyphs" textLength="25" x="52.0833" y="936.3159">loop</text><text fill="#ADAFAE" font-family="Helvetica" font-size="12.5" font-weight="bold" lengthAdjust="spacingAndGlyphs" textLength="73.9583" x="128.125" y="937.3576">[1000 times]</text><polygon fill="#2A9FD6" points="76.0417,968.4245,65.625,972.5911,76.0417,976.7578,71.875,972.5911" style="stroke: #2A9FD6; stroke-width: 1.0416666666666667;"/><line style="stroke: #2A9FD6; stroke-width: 3.125;" x1="69.7917" x2="837.5" y1="972.5911" y2="972.5911"/><text fill="#000000" font-family="Helvetica" font-size="12.5" font-weight="bold" lengthAdjust="spacingAndGlyphs" textLength="30.2083" x="84.375" y="965.6779">[013]</text><text fill="#000000" font-family="Helvetica" font-size="12.5" lengthAdjust="spacingAndGlyphs" textLength="63.5417" x="122.9167" y="965.6779">DNS Attack</text><line style="stroke: #ADAFAE; stroke-width: 1.0416666666666667; stroke-dasharray: 2.0,2.0;" x1="13.5417" x2="933.3333" y1="996.5495" y2="996.5495"/><text fill="#ADAFAE" font-family="Helvetica" font-size="12.5" font-weight="bold" lengthAdjust="spacingAndGlyphs" textLength="97.9167" x="20.8333" y="1011.6089">[Just a Warning]</text><polygon fill="#2A9FD6" points="826.0417,1039.4531,836.4583,1043.6198,826.0417,1047.7865,830.2083,1043.6198" style="stroke: #2A9FD6; stroke-width: 1.0416666666666667;"/><line style="stroke: #2A9FD6; stroke-width: 3.125;" x1="64.5833" x2="832.2917" y1="1043.6198" y2="1043.6198"/><text fill="#000000" font-family="Helvetica" font-size="12.5" font-weight="bold" lengthAdjust="spacingAndGlyphs" textLength="30.2083" x="73.9583" y="1036.7065">[014]</text><text fill="#FF8800" font-family="Helvetica" font-size="12.5" font-weight="bold" lengthAdjust="spacingAndGlyphs" textLength="82.2917" x="112.5" y="1036.7065">Please repeat</text><path d="M43.75,1068.6198 L43.75,1121.7448 A4.1667,4.1667 0 0 0 47.9167,1125.9115 L217.7083,1125.9115 A4.1667,4.1667 0 0 0 221.875,1121.7448 L221.875,1074.8698 L211.4583,1064.4531 L47.9167,1064.4531 A4.1667,4.1667 0 0 0 43.75,1068.6198 " fill="#9933CC" style="stroke: #AD5CD6; stroke-width: 1.0416666666666667;"/><path d="M211.4583,1064.4531 L211.4583,1072.7865 A2.0833,2.0833 0 0 0 213.5417,1074.8698 L221.875,1074.8698 L211.4583,1064.4531 " fill="#9933CC" style="stroke: #AD5CD6; stroke-width: 1.0416666666666667;"/><text fill="#FFFFFF" font-family="Helvetica" font-size="12.5" lengthAdjust="spacingAndGlyphs" textLength="118.75" x="69.0104" y="1084.7209">this is a second note</text><text fill="#FFFFFF" font-family="Helvetica" font-size="12.5" lengthAdjust="spacingAndGlyphs" textLength="67.7083" x="69.0104" y="1100.4435">that is really</text><text fill="#FFFFFF" font-family="Helvetica" font-size="12.5" lengthAdjust="spacingAndGlyphs" textLength="25" x="69.0104" y="1116.1662">long</text><text fill="#888888" font-family="Helvetica" font-size="12.5" lengthAdjust="spacingAndGlyphs" textLength="76.0417" x="867.7083" y="16.1011">Page Header</text><text fill="#888888" font-family="Helvetica" font-size="12.5" lengthAdjust="spacingAndGlyphs" textLength="64.5833" x="441.1458" y="1247.6115">Page 1 of 1</text><!--
@startuml







skinparam defaultFontName       "Helvetica"
skinparam defaultFontSize       12
skinparam dpi                   100
skinparam shadowing             false
skinparam roundcorner           8
skinparam ParticipantPadding    10
skinparam BoxPadding            2
skinparam Padding               2
skinparam TitleFontColor	    #ADAFAE
skinparam TitleFontSize	    	20
skinparam TitleBorderThickness 	0
skinparam ArrowColor            #ADAFAE


skinparam legend {
	BackgroundColor #555
	BorderColor #777777
	FontColor #ADAFAE
}

skinparam activity {
	TitleFontSize 20
	TitleFontColor #ADAFAE
	FontColor #FFF
	BorderColor #2A9FD6
	BackgroundColor #2A9FD6
	BarColor #77B300
	StartColor #9933CC
	EndColor #9933CC
	DiamondBackgroundColor #444444
  	DiamondBorderColor #777777
  	DiamondFontColor #FFF
}
	
skinparam sequence {
	BorderColor #2A9FD6
	TitleFontSize 20
	TitleFontColor #ADAFAE
	BackgroundColor transparent
	StartColor #2A9FD6
	EndColor #2A9FD6
    ParticipantBackgroundColor #2A9FD6
    ParticipantBorderColor #2A9FD6
	ParticipantBorderThickness 0
	ParticipantFontColor #FFF
	ActorBackgroundColor transparent
    ActorBorderColor #2A9FD6
	ActorFontColor #2A9FD6
	ArrowThickness 3
	ArrowColor #2A9FD6
	BoxBackgroundColor transparent
	BoxBorderColor #ADAFAE
	BoxFontColor $DARk
	LifeLineBorderColor #555
	LifeLineBorderThickness 0
	LifeLineBackgroundColor #777777
	GroupBorderColor #ADAFAE
	GroupFontColor #ADAFAE
	GroupHeaderFontColor #9933CC
	DividerBackgroundColor #ADAFAE
    DividerBorderColor #ADAFAE
    DividerBorderThickness 2
    DividerFontColor #222
	ReferenceBorderColor #ADAFAE
	ReferenceFontColor #ADAFAE
	ReferenceHeaderFontColor #9933CC
}

skinparam partition {
	BorderColor #2A9FD6
	FontColor #2A9FD6
	BackgroundColor transparent
}

skinparam collections {
	BackgroundColor #2A9FD6
	BorderColor #55B2DE
}

skinparam control {
	BackgroundColor  #2A9FD6
	BorderColor #55B2DE
	FontColor #ADAFAE
}

skinparam entity {
	BackgroundColor  #2A9FD6
	BorderColor #55B2DE
	FontColor #ADAFAE
}

skinparam boundary {
	BackgroundColor  #2A9FD6
	BorderColor #55B2DE
	FontColor #ADAFAE
}

skinparam agent {
	BackgroundColor $WARNINIG
	BorderColor $WARNING_LIGHT
	FontColor #ADAFAE
}

skinparam note {
	BorderThickness 1
	BackgroundColor #9933CC
	BorderColor #AD5CD6
	FontColor #FFF
}

skinparam artifact {
	BackgroundColor #ADAFAE
	BorderColor #BDBFBE
	FontColor #222
}

skinparam component {
	BackgroundColor  #77B300
	BorderColor  #92C233
	FontColor #FFF
}

skinparam interface {
	BackgroundColor  #D63333
	BorderColor  #CC0000
	FontColor #ADAFAE
}

skinparam storage {
	BackgroundColor #FF8800
  	BorderColor #FFA033
	FontColor #FFF
}

skinparam node {
	BackgroundColor  #555
	BorderColor #ADAFAE
	FontColor #ADAFAE
}

skinparam cloud {
	BackgroundColor white-#55B2DE
	BorderColor transparent
	FontColor #ADAFAE
}

skinparam database {
	BackgroundColor  #2A9FD6
	BorderColor #55B2DE
	FontColor $PRIAMRY_TEXT
}

skinparam actor {
	FontColor #ADAFAE
}

skinparam class {
	HeaderBackgroundColor #227FAB
	FontColor #FFF
	BackgroundColor #2A9FD6
	BorderColor #55B2DE
	StereotypeFontColor #ADAFAE
	LineThickness 4
	BorderThickness 1
	AttributeFontColor #222
}

skinparam object {
	FontColor #77B300
	BackgroundColor #555
	BorderColor #777777
	StereotypeFontColor #ADAFAE
	BorderThickness 1
	AttributeFontColor #ADAFAE
}

skinparam usecase {
	BackgroundColor #555
	BorderColor #555
	BorderThickness 2
	FontColor #FFF
	StereotypeFontColor #2A9FD6
}


skinparam rectangle {
	BackgroundColor #444444
	BorderColor #227FAB
	BorderThickness 2
	FontColor #2A9FD6
	StereotypeFontColor #2A9FD6
}

skinparam package {
	BackgroundColor #555
  	BorderColor #2A9FD6
	FontColor #2A9FD6
	BorderThickness 2
}

skinparam folder {
	BackgroundColor #444444
  	BorderColor #FF8800
	FontColor #ADAFAE
	BorderThickness 2
}

skinparam frame {
	BackgroundColor #444444
  	BorderColor #9933CC
	FontColor #ADAFAE
	BorderThickness 2
}

skinparam state {
  StartColor #9933CC
  EndColor #9933CC
  BackgroundColor #555
  BorderColor #777777
  FontColor #FFF
}

title cyborg theme

skinparam BackgroundColor transparent

autonumber "<b>[000]"

header Page Header
footer Page %page% of %lastpage%

actor Foo1
boundary Foo2
control Foo3
entity Foo4
database Foo5
collections Foo6
participant Bob
participant Alice << (C,#ADD1B2) Testable >>

box "Internal Service"
	participant Bob
	participant Alice
end box

== Initialization ==
Foo1 -> Foo2 : To boundary
|||
Foo2 -> Foo3 ++: To control
ref over Foo4, Foo5
  This can be on
  several lines
end ref
Foo3 -> Foo4 : To entity

Foo4 -> Foo5 : To database
Foo5 - -> Foo3 - - : return
Foo3 - -> Foo2 - -: return
... Some ~~long delay~~ ...
Foo1 -> Foo6 : To collections
Foo6 - -> Foo4:   <font color=#77B300><b>success


alt successful case

Foo1 -> Alice: Authentication Accepted
Alice - -> Foo1: success

note left of Alice: this is a first note

else some kind of failure

	Foo1 -> Alice: Authentication Failure
    Alice - -> Foo1:   <font color=#CC0000><b>Bad request
	group My own label
	    loop 1000 times
	        Alice -> Foo1: DNS Attack
	    end
	end
	
else Just a Warning

   Foo1 -> Alice:   <font color=#FF8800><b>Please repeat
   
end

note over Foo1, Foo2
this is a second note
that is really
long
end note

@enduml

PlantUML version 1.2019.08(Sat Jul 13 12:25:14 PDT 2019)
(MIT source distribution)
Java Runtime: Java(TM) SE Runtime Environment
JVM: Java HotSpot(TM) 64-Bit Server VM
Java Version: 1.8.0_212-b32
Operating System: Windows 10
OS Version: 10.0
Default Encoding: Cp1252
Language: en
Country: US
--></g></svg>