<?xml version="1.0" encoding="UTF-8" standalone="no"?><svg xmlns="http://www.w3.org/2000/svg" xmlns:xlink="http://www.w3.org/1999/xlink" contentScriptType="application/ecmascript" contentStyleType="text/css" height="1234.375px" preserveAspectRatio="none" style="width:1051px;height:1234px;" version="1.1" viewBox="0 0 1051 1234" width="1051.0417px" zoomAndPan="magnify"><defs/><g><rect fill="none" height="32.3069" rx="4.1667" ry="4.1667" style="stroke: #FFFFFF; stroke-width: 20.833333333333336;" width="139.5833" x="450.5208" y="30.8167"/><text fill="#ADAFAE" font-family="Verdana" font-size="14.5833" font-weight="bold" lengthAdjust="spacingAndGlyphs" textLength="118.75" x="460.9375" y="52.77">Cyborg Theme</text><rect fill="none" height="1129.8828" rx="4.1667" ry="4.1667" style="stroke: #ADAFAE; stroke-width: 1.0416666666666667;" width="214.5833" x="786.4583" y="74.5819"/><text fill="#FFFFFF" font-family="Verdana" font-size="12.5" font-weight="bold" lengthAdjust="spacingAndGlyphs" textLength="111.4583" x="838.0208" y="89.2324">Internal Service</text><rect fill="#555555" height="205.2999" style="stroke: #2A9FD6; stroke-width: 1.0416666666666667;" width="10.4167" x="364.0625" y="303.0568"/><line style="stroke: #2A9FD6; stroke-width: 1.0416666666666667;" x1="65.625" x2="65.625" y1="158.5236" y2="516.6901"/><line style="stroke: #2A9FD6; stroke-width: 1.0416666666666667; stroke-dasharray: 1.0,4.0;" x1="65.625" x2="65.625" y1="516.6901" y2="565.215"/><line style="stroke: #2A9FD6; stroke-width: 1.0416666666666667;" x1="65.625" x2="65.625" y1="565.215" y2="1116.3564"/><line style="stroke: #2A9FD6; stroke-width: 1.0416666666666667;" x1="226.0417" x2="226.0417" y1="158.5236" y2="516.6901"/><line style="stroke: #2A9FD6; stroke-width: 1.0416666666666667; stroke-dasharray: 1.0,4.0;" x1="226.0417" x2="226.0417" y1="516.6901" y2="565.215"/><line style="stroke: #2A9FD6; stroke-width: 1.0416666666666667;" x1="226.0417" x2="226.0417" y1="565.215" y2="1116.3564"/><line style="stroke: #2A9FD6; stroke-width: 1.0416666666666667;" x1="368.75" x2="368.75" y1="158.5236" y2="516.6901"/><line style="stroke: #2A9FD6; stroke-width: 1.0416666666666667; stroke-dasharray: 1.0,4.0;" x1="368.75" x2="368.75" y1="516.6901" y2="565.215"/><line style="stroke: #2A9FD6; stroke-width: 1.0416666666666667;" x1="368.75" x2="368.75" y1="565.215" y2="1116.3564"/><line style="stroke: #2A9FD6; stroke-width: 1.0416666666666667;" x1="509.375" x2="509.375" y1="158.5236" y2="516.6901"/><line style="stroke: #2A9FD6; stroke-width: 1.0416666666666667; stroke-dasharray: 1.0,4.0;" x1="509.375" x2="509.375" y1="516.6901" y2="565.215"/><line style="stroke: #2A9FD6; stroke-width: 1.0416666666666667;" x1="509.375" x2="509.375" y1="565.215" y2="1116.3564"/><line style="stroke: #2A9FD6; stroke-width: 1.0416666666666667;" x1="669.7917" x2="669.7917" y1="158.5236" y2="516.6901"/><line style="stroke: #2A9FD6; stroke-width: 1.0416666666666667; stroke-dasharray: 1.0,4.0;" x1="669.7917" x2="669.7917" y1="516.6901" y2="565.215"/><line style="stroke: #2A9FD6; stroke-width: 1.0416666666666667;" x1="669.7917" x2="669.7917" y1="565.215" y2="1116.3564"/><line style="stroke: #2A9FD6; stroke-width: 1.0416666666666667;" x1="739.5833" x2="739.5833" y1="158.5236" y2="516.6901"/><line style="stroke: #2A9FD6; stroke-width: 1.0416666666666667; stroke-dasharray: 1.0,4.0;" x1="739.5833" x2="739.5833" y1="516.6901" y2="565.215"/><line style="stroke: #2A9FD6; stroke-width: 1.0416666666666667;" x1="739.5833" x2="739.5833" y1="565.215" y2="1116.3564"/><line style="stroke: #2A9FD6; stroke-width: 1.0416666666666667;" x1="822.9167" x2="822.9167" y1="158.5236" y2="516.6901"/><line style="stroke: #2A9FD6; stroke-width: 1.0416666666666667; stroke-dasharray: 1.0,4.0;" x1="822.9167" x2="822.9167" y1="516.6901" y2="565.215"/><line style="stroke: #2A9FD6; stroke-width: 1.0416666666666667;" x1="822.9167" x2="822.9167" y1="565.215" y2="1116.3564"/><line style="stroke: #2A9FD6; stroke-width: 1.0416666666666667;" x1="931.25" x2="931.25" y1="158.5236" y2="516.6901"/><line style="stroke: #2A9FD6; stroke-width: 1.0416666666666667; stroke-dasharray: 1.0,4.0;" x1="931.25" x2="931.25" y1="516.6901" y2="565.215"/><line style="stroke: #2A9FD6; stroke-width: 1.0416666666666667;" x1="931.25" x2="931.25" y1="565.215" y2="1116.3564"/><text fill="#ADAFAE" font-family="Verdana" font-size="12.5" lengthAdjust="spacingAndGlyphs" textLength="32.2917" x="46.875" y="153.8157">Foo1</text><ellipse cx="66.1458" cy="83.9569" fill="#FFFFFF" rx="8.3333" ry="8.3333" style="stroke: #2A9FD6; stroke-width: 2.0833333333333335;"/><path d="M66.1458,92.2902 L66.1458,120.4152 M52.6042,100.6236 L79.6875,100.6236 M66.1458,120.4152 L52.6042,136.0402 M66.1458,120.4152 L79.6875,136.0402 " fill="none" style="stroke: #2A9FD6; stroke-width: 2.0833333333333335;"/><text fill="#ADAFAE" font-family="Verdana" font-size="12.5" lengthAdjust="spacingAndGlyphs" textLength="32.2917" x="46.875" y="1129.9652">Foo1</text><ellipse cx="66.1458" cy="1145.0897" fill="#FFFFFF" rx="8.3333" ry="8.3333" style="stroke: #2A9FD6; stroke-width: 2.0833333333333335;"/><path d="M66.1458,1153.4231 L66.1458,1181.5481 M52.6042,1161.7564 L79.6875,1161.7564 M66.1458,1181.5481 L52.6042,1197.1731 M66.1458,1181.5481 L79.6875,1197.1731 " fill="none" style="stroke: #2A9FD6; stroke-width: 2.0833333333333335;"/><text fill="#ADAFAE" font-family="Verdana" font-size="12.5" lengthAdjust="spacingAndGlyphs" textLength="32.2917" x="207.2917" y="153.8157">Foo2</text><path d="M205.2083,109.9986 L205.2083,134.9986 M205.2083,122.4986 L222.9167,122.4986 " fill="none" style="stroke: #55B2DE; stroke-width: 2.0833333333333335;"/><ellipse cx="235.4167" cy="122.4986" fill="#2A9FD6" rx="12.5" ry="12.5" style="stroke: #55B2DE; stroke-width: 2.0833333333333335;"/><text fill="#ADAFAE" font-family="Verdana" font-size="12.5" lengthAdjust="spacingAndGlyphs" textLength="32.2917" x="207.2917" y="1129.9652">Foo2</text><path d="M205.2083,1138.8397 L205.2083,1163.8397 M205.2083,1151.3397 L222.9167,1151.3397 " fill="none" style="stroke: #55B2DE; stroke-width: 2.0833333333333335;"/><ellipse cx="235.4167" cy="1151.3397" fill="#2A9FD6" rx="12.5" ry="12.5" style="stroke: #55B2DE; stroke-width: 2.0833333333333335;"/><text fill="#ADAFAE" font-family="Verdana" font-size="12.5" lengthAdjust="spacingAndGlyphs" textLength="32.2917" x="350" y="153.8157">Foo3</text><ellipse cx="369.2708" cy="122.4986" fill="#2A9FD6" rx="12.5" ry="12.5" style="stroke: #55B2DE; stroke-width: 2.0833333333333335;"/><polygon fill="#55B2DE" points="365.1042,109.9986,371.3542,104.7902,369.2708,109.9986,371.3542,115.2069,365.1042,109.9986" style="stroke: #55B2DE; stroke-width: 1.0416666666666667;"/><text fill="#ADAFAE" font-family="Verdana" font-size="12.5" lengthAdjust="spacingAndGlyphs" textLength="32.2917" x="350" y="1129.9652">Foo3</text><ellipse cx="369.2708" cy="1151.3397" fill="#2A9FD6" rx="12.5" ry="12.5" style="stroke: #55B2DE; stroke-width: 2.0833333333333335;"/><polygon fill="#55B2DE" points="365.1042,1138.8397,371.3542,1133.6314,369.2708,1138.8397,371.3542,1144.0481,365.1042,1138.8397" style="stroke: #55B2DE; stroke-width: 1.0416666666666667;"/><text fill="#ADAFAE" font-family="Verdana" font-size="12.5" lengthAdjust="spacingAndGlyphs" textLength="32.2917" x="490.625" y="153.8157">Foo4</text><ellipse cx="509.8958" cy="122.4986" fill="#2A9FD6" rx="12.5" ry="12.5" style="stroke: #55B2DE; stroke-width: 2.0833333333333335;"/><line style="stroke: #55B2DE; stroke-width: 2.0833333333333335;" x1="497.3958" x2="522.3958" y1="137.0819" y2="137.0819"/><text fill="#ADAFAE" font-family="Verdana" font-size="12.5" lengthAdjust="spacingAndGlyphs" textLength="32.2917" x="490.625" y="1129.9652">Foo4</text><ellipse cx="509.8958" cy="1151.3397" fill="#2A9FD6" rx="12.5" ry="12.5" style="stroke: #55B2DE; stroke-width: 2.0833333333333335;"/><line style="stroke: #55B2DE; stroke-width: 2.0833333333333335;" x1="497.3958" x2="522.3958" y1="1165.9231" y2="1165.9231"/><text fill="#ADAFAE" font-family="Verdana" font-size="12.5" lengthAdjust="spacingAndGlyphs" textLength="32.2917" x="651.0417" y="153.8157">Foo5</text><path d="M651.5625,101.6652 C651.5625,91.2486 670.3125,91.2486 670.3125,91.2486 C670.3125,91.2486 689.0625,91.2486 689.0625,101.6652 L689.0625,128.7486 C689.0625,139.1652 670.3125,139.1652 670.3125,139.1652 C670.3125,139.1652 651.5625,139.1652 651.5625,128.7486 L651.5625,101.6652 " fill="#2A9FD6" style="stroke: #55B2DE; stroke-width: 1.5625;"/><path d="M651.5625,101.6652 C651.5625,112.0819 670.3125,112.0819 670.3125,112.0819 C670.3125,112.0819 689.0625,112.0819 689.0625,101.6652 " fill="none" style="stroke: #55B2DE; stroke-width: 1.5625;"/><text fill="#ADAFAE" font-family="Verdana" font-size="12.5" lengthAdjust="spacingAndGlyphs" textLength="32.2917" x="651.0417" y="1129.9652">Foo5</text><path d="M651.5625,1145.0897 C651.5625,1134.6731 670.3125,1134.6731 670.3125,1134.6731 C670.3125,1134.6731 689.0625,1134.6731 689.0625,1145.0897 L689.0625,1172.1731 C689.0625,1182.5897 670.3125,1182.5897 670.3125,1182.5897 C670.3125,1182.5897 651.5625,1182.5897 651.5625,1172.1731 L651.5625,1145.0897 " fill="#2A9FD6" style="stroke: #55B2DE; stroke-width: 1.5625;"/><path d="M651.5625,1145.0897 C651.5625,1155.5064 670.3125,1155.5064 670.3125,1155.5064 C670.3125,1155.5064 689.0625,1155.5064 689.0625,1145.0897 " fill="none" style="stroke: #55B2DE; stroke-width: 1.5625;"/><rect fill="#2A9FD6" height="33.9417" rx="4.1667" ry="4.1667" style="stroke: #55B2DE; stroke-width: 1.5625;" width="51.0417" x="716.6667" y="119.3736"/><rect fill="#2A9FD6" height="33.9417" rx="4.1667" ry="4.1667" style="stroke: #55B2DE; stroke-width: 1.5625;" width="51.0417" x="712.5" y="123.5402"/><text fill="#FFFFFF" font-family="Verdana" font-size="12.5" lengthAdjust="spacingAndGlyphs" textLength="32.2917" x="721.875" y="145.4824">Foo6</text><rect fill="#2A9FD6" height="33.9417" rx="4.1667" ry="4.1667" style="stroke: #55B2DE; stroke-width: 1.5625;" width="51.0417" x="716.6667" y="1115.3147"/><rect fill="#2A9FD6" height="33.9417" rx="4.1667" ry="4.1667" style="stroke: #55B2DE; stroke-width: 1.5625;" width="51.0417" x="712.5" y="1119.4814"/><text fill="#FFFFFF" font-family="Verdana" font-size="12.5" lengthAdjust="spacingAndGlyphs" textLength="32.2917" x="721.875" y="1141.4235">Foo6</text><rect fill="#2A9FD6" height="33.9417" rx="4.1667" ry="4.1667" style="stroke: #2A9FD6; stroke-width: 0.0;" width="43.75" x="801.0417" y="123.5402"/><text fill="#FFFFFF" font-family="Verdana" font-size="12.5" lengthAdjust="spacingAndGlyphs" textLength="25" x="810.4167" y="145.4824">Bob</text><rect fill="#2A9FD6" height="33.9417" rx="4.1667" ry="4.1667" style="stroke: #2A9FD6; stroke-width: 0.0;" width="43.75" x="801.0417" y="1115.3147"/><text fill="#FFFFFF" font-family="Verdana" font-size="12.5" lengthAdjust="spacingAndGlyphs" textLength="25" x="810.4167" y="1137.2569">Bob</text><rect fill="#2A9FD6" height="44.9666" rx="4.1667" ry="4.1667" style="stroke: #2A9FD6; stroke-width: 0.0;" width="110.4167" x="876.0417" y="112.5153"/><ellipse cx="893.75" cy="130.2236" fill="#ADD1B2" rx="10.4167" ry="10.4167" style="stroke: #2A9FD6; stroke-width: 1.0416666666666667;"/><path d="M895.2962,127.3102 Q895.4102,127.1474 895.5485,127.066 Q895.6868,126.9847 895.8496,126.9847 Q896.1263,126.9847 896.2972,127.18 Q896.4681,127.3753 896.4681,127.8147 L896.4681,128.889 Q896.4681,129.3284 896.2972,129.5237 Q896.1263,129.719 895.8496,129.719 Q895.5892,129.719 895.4427,129.5726 Q895.2962,129.4423 895.2148,129.0517 Q895.1823,128.7913 895.0521,128.6611 Q894.7917,128.3844 894.3441,128.2216 Q893.8965,128.0589 893.4408,128.0589 Q892.8874,128.0589 892.4154,128.303 Q891.9434,128.5472 891.5853,129.0924 Q891.2272,129.6377 891.2272,130.4026 L891.2272,131.2164 Q891.2272,132.1116 891.8864,132.7138 Q892.5456,133.316 893.7012,133.316 Q894.401,133.316 894.8893,133.137 Q895.166,133.0231 895.4753,132.6976 Q895.6706,132.5022 895.7845,132.4453 Q895.8984,132.3883 896.0286,132.3883 Q896.2891,132.3883 896.4762,132.5755 Q896.6634,132.7627 896.6634,133.0231 Q896.6634,133.2835 896.403,133.5765 Q896.0286,133.9996 895.4427,134.2438 Q894.6615,134.5693 893.7174,134.5693 Q892.5944,134.5693 891.7155,134.1136 Q890.9831,133.7555 890.4785,132.958 Q889.974,132.1604 889.974,131.2327 L889.974,130.3864 Q889.974,129.4098 890.4297,128.5634 Q890.8854,127.7171 891.6911,127.2614 Q892.4967,126.8056 893.3919,126.8056 Q893.9453,126.8056 894.4173,126.9277 Q894.8893,127.0498 895.2962,127.3102 Z "/><text fill="#FFFFFF" font-family="Verdana" font-size="12.5" font-style="italic" lengthAdjust="spacingAndGlyphs" textLength="68.75" x="910.4167" y="132.3069">«Testable»</text><text fill="#FFFFFF" font-family="Verdana" font-size="12.5" lengthAdjust="spacingAndGlyphs" textLength="29.1667" x="930.2083" y="147.4986">Alice</text><rect fill="#2A9FD6" height="44.9666" rx="4.1667" ry="4.1667" style="stroke: #2A9FD6; stroke-width: 0.0;" width="110.4167" x="876.0417" y="1115.3147"/><ellipse cx="893.75" cy="1133.0231" fill="#ADD1B2" rx="10.4167" ry="10.4167" style="stroke: #2A9FD6; stroke-width: 1.0416666666666667;"/><path d="M895.2962,1130.1097 Q895.4102,1129.9469 895.5485,1129.8655 Q895.6868,1129.7841 895.8496,1129.7841 Q896.1263,1129.7841 896.2972,1129.9795 Q896.4681,1130.1748 896.4681,1130.6142 L896.4681,1131.6884 Q896.4681,1132.1279 896.2972,1132.3232 Q896.1263,1132.5185 895.8496,1132.5185 Q895.5892,1132.5185 895.4427,1132.372 Q895.2962,1132.2418 895.2148,1131.8512 Q895.1823,1131.5908 895.0521,1131.4606 Q894.7917,1131.1839 894.3441,1131.0211 Q893.8965,1130.8584 893.4408,1130.8584 Q892.8874,1130.8584 892.4154,1131.1025 Q891.9434,1131.3466 891.5853,1131.8919 Q891.2272,1132.4371 891.2272,1133.2021 L891.2272,1134.0159 Q891.2272,1134.9111 891.8864,1135.5133 Q892.5456,1136.1155 893.7012,1136.1155 Q894.401,1136.1155 894.8893,1135.9365 Q895.166,1135.8226 895.4753,1135.497 Q895.6706,1135.3017 895.7845,1135.2448 Q895.8984,1135.1878 896.0286,1135.1878 Q896.2891,1135.1878 896.4762,1135.375 Q896.6634,1135.5621 896.6634,1135.8226 Q896.6634,1136.083 896.403,1136.3759 Q896.0286,1136.7991 895.4427,1137.0433 Q894.6615,1137.3688 893.7174,1137.3688 Q892.5944,1137.3688 891.7155,1136.913 Q890.9831,1136.555 890.4785,1135.7574 Q889.974,1134.9599 889.974,1134.0322 L889.974,1133.1858 Q889.974,1132.2093 890.4297,1131.3629 Q890.8854,1130.5166 891.6911,1130.0608 Q892.4967,1129.6051 893.3919,1129.6051 Q893.9453,1129.6051 894.4173,1129.7272 Q894.8893,1129.8492 895.2962,1130.1097 Z "/><text fill="#FFFFFF" font-family="Verdana" font-size="12.5" font-style="italic" lengthAdjust="spacingAndGlyphs" textLength="68.75" x="910.4167" y="1135.1064">«Testable»</text><text fill="#FFFFFF" font-family="Verdana" font-size="12.5" lengthAdjust="spacingAndGlyphs" textLength="29.1667" x="930.2083" y="1150.2981">Alice</text><rect fill="#555555" height="205.2999" style="stroke: #2A9FD6; stroke-width: 1.0416666666666667;" width="10.4167" x="364.0625" y="303.0568"/><rect fill="#ADAFAE" height="3.125" style="stroke: #ADAFAE; stroke-width: 1.0416666666666667;" width="1035.4167" x="3.125" y="192.1611"/><line style="stroke: #ADAFAE; stroke-width: 1.0416666666666667;" x1="3.125" x2="1038.5417" y1="192.1611" y2="192.1611"/><line style="stroke: #ADAFAE; stroke-width: 1.0416666666666667;" x1="3.125" x2="1038.5417" y1="195.2861" y2="195.2861"/><rect fill="#ADAFAE" height="27.6917" style="stroke: #ADAFAE; stroke-width: 2.0833333333333335;" width="109.375" x="466.1458" y="179.3569"/><text fill="#222222" font-family="Verdana" font-size="12.5" font-weight="bold" lengthAdjust="spacingAndGlyphs" textLength="86.4583" x="474.4792" y="198.174">Initialization</text><polygon fill="#ADAFAE" points="214.0625,238.9069,224.4792,243.0735,214.0625,247.2402,218.2292,243.0735" style="stroke: #ADAFAE; stroke-width: 1.0416666666666667;"/><line style="stroke: #ADAFAE; stroke-width: 2.0833333333333335;" x1="66.1458" x2="220.3125" y1="243.0735" y2="243.0735"/><text fill="#000000" font-family="Verdana" font-size="12.5" font-weight="bold" lengthAdjust="spacingAndGlyphs" textLength="40.625" x="75.5208" y="236.2823">[001]</text><text fill="#000000" font-family="Verdana" font-size="12.5" lengthAdjust="spacingAndGlyphs" textLength="82.2917" x="124.4792" y="236.2823">To boundary</text><polygon fill="#ADAFAE" points="351.5625,298.8902,361.9792,303.0568,351.5625,307.2235,355.7292,303.0568" style="stroke: #ADAFAE; stroke-width: 1.0416666666666667;"/><line style="stroke: #ADAFAE; stroke-width: 2.0833333333333335;" x1="226.5625" x2="357.8125" y1="303.0568" y2="303.0568"/><text fill="#000000" font-family="Verdana" font-size="12.5" font-weight="bold" lengthAdjust="spacingAndGlyphs" textLength="40.625" x="235.9375" y="296.2657">[002]</text><text fill="#000000" font-family="Verdana" font-size="12.5" lengthAdjust="spacingAndGlyphs" textLength="64.5833" x="284.8958" y="296.2657">To control</text><rect fill="#FFFFFF" height="64.325" style="stroke: #ADAFAE; stroke-width: 2.0833333333333335;" width="209.375" x="485.4167" y="311.3902"/><polygon fill="#EEEEEE" points="485.4167,311.3902,556.25,311.3902,556.25,321.8068,545.8333,332.2235,485.4167,332.2235,485.4167,311.3902" style="stroke: #ADAFAE; stroke-width: 2.0833333333333335;"/><text fill="#9933CC" font-family="Verdana" font-size="12.5" font-weight="bold" lengthAdjust="spacingAndGlyphs" textLength="19.7917" x="501.0417" y="328.124">ref</text><text fill="#ADAFAE" font-family="Verdana" font-size="12.5" lengthAdjust="spacingAndGlyphs" textLength="94.7917" x="542.7083" y="351.0406">This can be on</text><text fill="#ADAFAE" font-family="Verdana" font-size="12.5" lengthAdjust="spacingAndGlyphs" textLength="82.2917" x="542.7083" y="366.2323">several lines</text><polygon fill="#ADAFAE" points="497.3958,402.3651,507.8125,406.5318,497.3958,410.6984,501.5625,406.5318" style="stroke: #ADAFAE; stroke-width: 1.0416666666666667;"/><line style="stroke: #ADAFAE; stroke-width: 2.0833333333333335;" x1="374.4792" x2="503.6458" y1="406.5318" y2="406.5318"/><text fill="#000000" font-family="Verdana" font-size="12.5" font-weight="bold" lengthAdjust="spacingAndGlyphs" textLength="40.625" x="383.8542" y="399.7406">[003]</text><text fill="#000000" font-family="Verdana" font-size="12.5" lengthAdjust="spacingAndGlyphs" textLength="57.2917" x="432.8125" y="399.7406">To entity</text><polygon fill="#ADAFAE" points="657.8125,436.3068,668.2292,440.4734,657.8125,444.6401,661.9792,440.4734" style="stroke: #ADAFAE; stroke-width: 1.0416666666666667;"/><line style="stroke: #ADAFAE; stroke-width: 2.0833333333333335;" x1="509.8958" x2="664.0625" y1="440.4734" y2="440.4734"/><text fill="#000000" font-family="Verdana" font-size="12.5" font-weight="bold" lengthAdjust="spacingAndGlyphs" textLength="40.625" x="519.2708" y="433.6823">[004]</text><text fill="#000000" font-family="Verdana" font-size="12.5" lengthAdjust="spacingAndGlyphs" textLength="82.2917" x="568.2292" y="433.6823">To database</text><polygon fill="#ADAFAE" points="385.9375,470.2484,375.5208,474.4151,385.9375,478.5817,381.7708,474.4151" style="stroke: #ADAFAE; stroke-width: 1.0416666666666667;"/><line style="stroke: #ADAFAE; stroke-width: 2.0833333333333335; stroke-dasharray: 2.0,2.0;" x1="379.6875" x2="669.2708" y1="474.4151" y2="474.4151"/><text fill="#000000" font-family="Verdana" font-size="12.5" font-weight="bold" lengthAdjust="spacingAndGlyphs" textLength="40.625" x="394.2708" y="467.6239">[005]</text><text fill="#000000" font-family="Verdana" font-size="12.5" lengthAdjust="spacingAndGlyphs" textLength="40.625" x="443.2292" y="467.6239">return</text><polygon fill="#ADAFAE" points="238.0208,504.1901,227.6042,508.3567,238.0208,512.5234,233.8542,508.3567" style="stroke: #ADAFAE; stroke-width: 1.0416666666666667;"/><line style="stroke: #ADAFAE; stroke-width: 2.0833333333333335; stroke-dasharray: 2.0,2.0;" x1="231.7708" x2="368.2292" y1="508.3567" y2="508.3567"/><text fill="#000000" font-family="Verdana" font-size="12.5" font-weight="bold" lengthAdjust="spacingAndGlyphs" textLength="40.625" x="246.3542" y="501.5656">[006]</text><text fill="#000000" font-family="Verdana" font-size="12.5" lengthAdjust="spacingAndGlyphs" textLength="40.625" x="295.3125" y="501.5656">return</text><text fill="#000000" font-family="Verdana" font-size="12.5" lengthAdjust="spacingAndGlyphs" textLength="36.4583" x="444.5313" y="545.9239">Some</text><text fill="#000000" font-family="Verdana" font-size="12.5" lengthAdjust="spacingAndGlyphs" textLength="67.7083" x="485.1563" y="545.9239">long delay</text><text fill="#000000" font-family="Verdana" font-size="12.5" lengthAdjust="spacingAndGlyphs" textLength="0" x="557.0313" y="545.9239"/><polygon fill="#ADAFAE" points="727.6042,586.6567,738.0208,590.8234,727.6042,594.99,731.7708,590.8234" style="stroke: #ADAFAE; stroke-width: 1.0416666666666667;"/><line style="stroke: #ADAFAE; stroke-width: 2.0833333333333335;" x1="66.1458" x2="733.8542" y1="590.8234" y2="590.8234"/><text fill="#000000" font-family="Verdana" font-size="12.5" font-weight="bold" lengthAdjust="spacingAndGlyphs" textLength="40.625" x="75.5208" y="584.0322">[007]</text><text fill="#000000" font-family="Verdana" font-size="12.5" lengthAdjust="spacingAndGlyphs" textLength="87.5" x="124.4792" y="584.0322">To collections</text><polygon fill="#ADAFAE" points="521.3542,620.5983,510.9375,624.765,521.3542,628.9317,517.1875,624.765" style="stroke: #ADAFAE; stroke-width: 1.0416666666666667;"/><line style="stroke: #ADAFAE; stroke-width: 2.0833333333333335; stroke-dasharray: 2.0,2.0;" x1="515.1042" x2="739.0625" y1="624.765" y2="624.765"/><text fill="#000000" font-family="Verdana" font-size="12.5" font-weight="bold" lengthAdjust="spacingAndGlyphs" textLength="40.625" x="529.6875" y="617.9738">[008]</text><text fill="#77B300" font-family="Verdana" font-size="12.5" font-weight="bold" lengthAdjust="spacingAndGlyphs" textLength="53.125" x="578.6458" y="617.9738">success</text><path d="M17.7083,640.39 L82.2917,640.39 L82.2917,650.8067 L71.875,661.2233 L13.5417,661.2233 L13.5417,644.5567 " fill="#EEEEEE" style="stroke: #ADAFAE; stroke-width: 1.0416666666666667;"/><rect fill="none" height="387.6831" rx="4.1667" ry="4.1667" style="stroke: #ADAFAE; stroke-width: 2.0833333333333335;" width="1014.5833" x="13.5417" y="640.39"/><text fill="#9933CC" font-family="Verdana" font-size="12.5" font-weight="bold" lengthAdjust="spacingAndGlyphs" textLength="17.7083" x="31.25" y="656.0822">alt</text><text fill="#ADAFAE" font-family="Verdana" font-size="12.5" font-weight="bold" lengthAdjust="spacingAndGlyphs" textLength="118.75" x="100" y="657.1238">[successful case]</text><polygon fill="#ADAFAE" points="918.75,687.0066,929.1667,691.1733,918.75,695.34,922.9167,691.1733" style="stroke: #ADAFAE; stroke-width: 1.0416666666666667;"/><line style="stroke: #ADAFAE; stroke-width: 2.0833333333333335;" x1="66.1458" x2="925" y1="691.1733" y2="691.1733"/><text fill="#000000" font-family="Verdana" font-size="12.5" font-weight="bold" lengthAdjust="spacingAndGlyphs" textLength="40.625" x="75.5208" y="684.3821">[009]</text><text fill="#000000" font-family="Verdana" font-size="12.5" lengthAdjust="spacingAndGlyphs" textLength="158.3333" x="124.4792" y="684.3821">Authentication Accepted</text><polygon fill="#ADAFAE" points="77.6042,720.9483,67.1875,725.1149,77.6042,729.2816,73.4375,725.1149" style="stroke: #ADAFAE; stroke-width: 1.0416666666666667;"/><line style="stroke: #ADAFAE; stroke-width: 2.0833333333333335; stroke-dasharray: 2.0,2.0;" x1="71.3542" x2="930.2083" y1="725.1149" y2="725.1149"/><text fill="#000000" font-family="Verdana" font-size="12.5" font-weight="bold" lengthAdjust="spacingAndGlyphs" textLength="40.625" x="85.9375" y="718.3238">[010]</text><text fill="#000000" font-family="Verdana" font-size="12.5" lengthAdjust="spacingAndGlyphs" textLength="51.0417" x="134.8958" y="718.3238">success</text><path d="M785.4167,742.8233 L785.4167,763.6566 A4.1667,4.1667 0 0 0 789.5833,767.8233 L921.875,767.8233 A4.1667,4.1667 0 0 0 926.0417,763.6566 L926.0417,749.0733 L915.625,738.6566 L789.5833,738.6566 A4.1667,4.1667 0 0 0 785.4167,742.8233 " fill="#9933CC" style="stroke: #AD5CD6; stroke-width: 1.0416666666666667;"/><path d="M915.625,738.6566 L915.625,746.9899 A2.0833,2.0833 0 0 0 917.7083,749.0733 L926.0417,749.0733 L915.625,738.6566 " fill="#9933CC" style="stroke: #AD5CD6; stroke-width: 1.0416666666666667;"/><text fill="#FFFFFF" font-family="Verdana" font-size="12.5" lengthAdjust="spacingAndGlyphs" textLength="114.5833" x="793.75" y="758.5154">this is a first note</text><line style="stroke: #ADAFAE; stroke-width: 1.0416666666666667; stroke-dasharray: 2.0,2.0;" x1="13.5417" x2="1028.125" y1="774.6816" y2="774.6816"/><text fill="#ADAFAE" font-family="Verdana" font-size="12.5" font-weight="bold" lengthAdjust="spacingAndGlyphs" textLength="148.9583" x="20.8333" y="789.3321">[some kind of failure]</text><polygon fill="#ADAFAE" points="918.75,816.5232,929.1667,820.6899,918.75,824.8566,922.9167,820.6899" style="stroke: #ADAFAE; stroke-width: 1.0416666666666667;"/><line style="stroke: #ADAFAE; stroke-width: 2.0833333333333335;" x1="66.1458" x2="925" y1="820.6899" y2="820.6899"/><text fill="#000000" font-family="Verdana" font-size="12.5" font-weight="bold" lengthAdjust="spacingAndGlyphs" textLength="40.625" x="75.5208" y="813.8987">[011]</text><text fill="#000000" font-family="Verdana" font-size="12.5" lengthAdjust="spacingAndGlyphs" textLength="142.7083" x="124.4792" y="813.8987">Authentication Failure</text><polygon fill="#ADAFAE" points="77.6042,850.4649,67.1875,854.6316,77.6042,858.7982,73.4375,854.6316" style="stroke: #ADAFAE; stroke-width: 1.0416666666666667;"/><line style="stroke: #ADAFAE; stroke-width: 2.0833333333333335; stroke-dasharray: 2.0,2.0;" x1="71.3542" x2="930.2083" y1="854.6316" y2="854.6316"/><text fill="#000000" font-family="Verdana" font-size="12.5" font-weight="bold" lengthAdjust="spacingAndGlyphs" textLength="40.625" x="85.9375" y="847.8404">[012]</text><text fill="#CC0000" font-family="Verdana" font-size="12.5" font-weight="bold" lengthAdjust="spacingAndGlyphs" textLength="82.2917" x="134.8958" y="847.8404">Bad request</text><path d="M28.125,870.2566 L165.625,870.2566 L165.625,880.6732 L155.2083,891.0899 L23.9583,891.0899 L23.9583,874.4232 " fill="#EEEEEE" style="stroke: #ADAFAE; stroke-width: 1.0416666666666667;"/><rect fill="none" height="95.1416" rx="4.1667" ry="4.1667" style="stroke: #ADAFAE; stroke-width: 2.0833333333333335;" width="993.75" x="23.9583" y="870.2566"/><text fill="#9933CC" font-family="Verdana" font-size="12.5" font-weight="bold" lengthAdjust="spacingAndGlyphs" textLength="90.625" x="41.6667" y="885.9487">My own label</text><path d="M38.5417,898.9899 L114.5833,898.9899 L114.5833,909.4065 L104.1667,919.8232 L34.375,919.8232 L34.375,903.1565 " fill="#EEEEEE" style="stroke: #ADAFAE; stroke-width: 1.0416666666666667;"/><rect fill="none" height="59.1166" rx="4.1667" ry="4.1667" style="stroke: #ADAFAE; stroke-width: 2.0833333333333335;" width="972.9167" x="34.375" y="898.9899"/><text fill="#9933CC" font-family="Verdana" font-size="12.5" font-weight="bold" lengthAdjust="spacingAndGlyphs" textLength="29.1667" x="52.0833" y="914.682">loop</text><text fill="#ADAFAE" font-family="Verdana" font-size="12.5" font-weight="bold" lengthAdjust="spacingAndGlyphs" textLength="91.6667" x="132.2917" y="915.7237">[1000 times]</text><polygon fill="#ADAFAE" points="77.6042,945.6065,67.1875,949.7732,77.6042,953.9398,73.4375,949.7732" style="stroke: #ADAFAE; stroke-width: 1.0416666666666667;"/><line style="stroke: #ADAFAE; stroke-width: 2.0833333333333335;" x1="71.3542" x2="930.2083" y1="949.7732" y2="949.7732"/><text fill="#000000" font-family="Verdana" font-size="12.5" font-weight="bold" lengthAdjust="spacingAndGlyphs" textLength="40.625" x="85.9375" y="942.982">[013]</text><text fill="#000000" font-family="Verdana" font-size="12.5" lengthAdjust="spacingAndGlyphs" textLength="71.875" x="134.8958" y="942.982">DNS Attack</text><line style="stroke: #ADAFAE; stroke-width: 1.0416666666666667; stroke-dasharray: 2.0,2.0;" x1="13.5417" x2="1028.125" y1="973.7315" y2="973.7315"/><text fill="#ADAFAE" font-family="Verdana" font-size="12.5" font-weight="bold" lengthAdjust="spacingAndGlyphs" textLength="115.625" x="20.8333" y="988.382">[Just a Warning]</text><polygon fill="#ADAFAE" points="918.75,1015.5731,929.1667,1019.7398,918.75,1023.9065,922.9167,1019.7398" style="stroke: #ADAFAE; stroke-width: 1.0416666666666667;"/><line style="stroke: #ADAFAE; stroke-width: 2.0833333333333335;" x1="66.1458" x2="925" y1="1019.7398" y2="1019.7398"/><text fill="#000000" font-family="Verdana" font-size="12.5" font-weight="bold" lengthAdjust="spacingAndGlyphs" textLength="40.625" x="75.5208" y="1012.9486">[014]</text><text fill="#FF8800" font-family="Verdana" font-size="12.5" font-weight="bold" lengthAdjust="spacingAndGlyphs" textLength="94.7917" x="124.4792" y="1012.9486">Please repeat</text><path d="M44.7917,1044.7398 L44.7917,1095.7815 A4.1667,4.1667 0 0 0 48.9583,1099.9481 L242.7083,1099.9481 A4.1667,4.1667 0 0 0 246.875,1095.7815 L246.875,1050.9898 L236.4583,1040.5731 L48.9583,1040.5731 A4.1667,4.1667 0 0 0 44.7917,1044.7398 " fill="#9933CC" style="stroke: #AD5CD6; stroke-width: 1.0416666666666667;"/><path d="M236.4583,1040.5731 L236.4583,1048.9065 A2.0833,2.0833 0 0 0 238.5417,1050.9898 L246.875,1050.9898 L236.4583,1040.5731 " fill="#9933CC" style="stroke: #AD5CD6; stroke-width: 1.0416666666666667;"/><text fill="#FFFFFF" font-family="Verdana" font-size="12.5" lengthAdjust="spacingAndGlyphs" textLength="136.4583" x="72.9167" y="1060.4319">this is a second note</text><text fill="#FFFFFF" font-family="Verdana" font-size="12.5" lengthAdjust="spacingAndGlyphs" textLength="81.25" x="72.9167" y="1075.6236">that is really</text><text fill="#FFFFFF" font-family="Verdana" font-size="12.5" lengthAdjust="spacingAndGlyphs" textLength="28.125" x="72.9167" y="1090.8152">long</text><text fill="#888888" font-family="Verdana" font-size="12.5" lengthAdjust="spacingAndGlyphs" textLength="85.4167" x="953.125" y="15.6921">Page Header</text><text fill="#888888" font-family="Verdana" font-size="12.5" lengthAdjust="spacingAndGlyphs" textLength="75" x="483.3333" y="1221.1985">Page 1 of 1</text><!--
@startuml







skinparam BackgroundColor transparent

skinparam defaultFontName       "Verdana"
skinparam defaultFontSize       12
skinparam dpi                   100
skinparam shadowing             false
skinparam roundcorner           8
skinparam ParticipantPadding    10
skinparam BoxPadding            2
skinparam Padding               2
skinparam TitleFontColor	    #ADAFAE
skinparam TitleFontSize	    	20
skinparam TitleBorderThickness 	20
skinparam TitleBorderColor	 	transparent
skinparam ArrowColor            #ADAFAE

skinparam activity {
	TitleFontSize 20
	TitleFontColor #ADAFAE
	FontColor #FFF
	BorderColor #2A9FD6
	BackgroundColor #2A9FD6
	BarColor #77B300
	StartColor #9933CC
	EndColor #9933CC
	DiamondBackgroundColor #777777
  	DiamondBorderColor #777777
  	DiamondFontColor #FFF
}
	
skinparam sequence {
	BorderColor #2A9FD6
	TitleFontSize 14
	TitleFontColor #ADAFAE
	BackgroundColor transparent
	StartColor #2A9FD6
	EndColor #2A9FD6
    ParticipantBackgroundColor #2A9FD6
    ParticipantBorderColor #2A9FD6
	ParticipantBorderThickness 0
	ParticipantFontColor #FFF
	ActorBackgroundColor transparent
    ActorBorderColor #2A9FD6
	ActorFontColor #2A9FD6
	ArrowThickness 2
	BoxBackgroundColor transparent
	BoxBorderColor #ADAFAE
	BoxFontColor $DARk
	LifeLineBorderColor #2A9FD6
	LifeLineBorderThickness 4
	LifeLineBackgroundColor #555
	GroupBorderColor #ADAFAE
	GroupFontColor #ADAFAE
	GroupHeaderFontColor #9933CC
	DividerBackgroundColor #ADAFAE
    DividerBorderColor #ADAFAE
    DividerBorderThickness 2
    DividerFontColor #222
	ReferenceBorderColor #ADAFAE
	ReferenceFontColor #ADAFAE
	ReferenceHeaderFontColor #9933CC
}

skinparam partition {
	BorderColor #2A9FD6
	FontColor #2A9FD6
}

skinparam collections {
	BackgroundColor #2A9FD6
	BorderColor #55B2DE
}

skinparam control {
	BackgroundColor  #2A9FD6
	BorderColor #55B2DE
	FontColor #ADAFAE
}

skinparam entity {
	BackgroundColor  #2A9FD6
	BorderColor #55B2DE
	FontColor #ADAFAE
}

skinparam boundary {
	BackgroundColor  #2A9FD6
	BorderColor #55B2DE
	FontColor #ADAFAE
}

skinparam agent {
	BackgroundColor $WARNINIG
	BorderColor $WARNING_SHADE
	FontColor #ADAFAE
}

skinparam note {
	BorderThickness 1
	BackgroundColor #9933CC
	BorderColor #AD5CD6
	FontColor #FFF
}

skinparam artifact {
	BackgroundColor #ADAFAE
	BorderColor #BDBFBE
	FontColor #222
}

skinparam component {
	BackgroundColor  #77B300
	BorderColor  #92C233
	FontColor #FFF
}

skinparam interface {
	BackgroundColor  #D63333
	BorderColor  #CC0000
	FontColor #ADAFAE
}

skinparam storage {
	BackgroundColor #FF8800
  	BorderColor #FFA033
	FontColor #FFF
}

skinparam node {
	BackgroundColor  #555
	BorderColor #ADAFAE
	FontColor #ADAFAE
}

skinparam cloud {
	BackgroundColor white-#55B2DE
	BorderColor transparent
	FontColor #ADAFAE
}

skinparam database {
	BackgroundColor  #2A9FD6
	BorderColor #55B2DE
	FontColor #ADAFAE
}

skinparam actor {
	FontColor #ADAFAE
}

skinparam class {
	HeaderBackgroundColor #227FAB
	FontColor #FFF
	BackgroundColor #2A9FD6
	BorderColor #55B2DE
	StereotypeFontColor #ADAFAE
	LineThickness 4
	BorderThickness 1
	AttributeFontColor #222
}

skinparam usecase {
	BackgroundColor #555
	BorderColor #555
	BorderThickness 2
	FontColor #ADAFAE
	StereotypeFontColor #2A9FD6
}


skinparam rectangle {
	BackgroundColor #222
	BorderColor #227FAB
	BorderThickness 2
	FontColor #2A9FD6
	StereotypeFontColor #2A9FD6
}

skinparam package {
	BackgroundColor #555
  	BorderColor #2A9FD6
	FontColor #ADAFAE
	BorderThickness 2
}

skinparam folder {
	BackgroundColor #444444
  	BorderColor #FF8800
	FontColor #ADAFAE
	BorderThickness 2
}

skinparam frame {
	BackgroundColor #444444
  	BorderColor #9933CC
	FontColor #ADAFAE
	BorderThickness 2
}

title Cyborg Theme

autonumber "<b>[000]"

header Page Header
footer Page %page% of %lastpage%

actor Foo1
boundary Foo2
control Foo3
entity Foo4
database Foo5
collections Foo6
participant Bob
participant Alice << (C,#ADD1B2) Testable >>

box "Internal Service"
	participant Bob
	participant Alice
end box

== Initialization ==
Foo1 -> Foo2 : To boundary
|||
Foo2 -> Foo3 ++: To control
ref over Foo4, Foo5
  This can be on
  several lines
end ref
Foo3 -> Foo4 : To entity

Foo4 -> Foo5 : To database
Foo5 - -> Foo3 - - : return
Foo3 - -> Foo2 - -: return
... Some ~~long delay~~ ...
Foo1 -> Foo6 : To collections
Foo6 - -> Foo4:   <font color=#77B300><b>success


alt successful case

Foo1 -> Alice: Authentication Accepted
Alice - -> Foo1: success

note left of Alice: this is a first note

else some kind of failure

	Foo1 -> Alice: Authentication Failure
    Alice - -> Foo1:   <font color=#CC0000><b>Bad request
	group My own label
	    loop 1000 times
	        Alice -> Foo1: DNS Attack
	    end
	end
	
else Just a Warning

   Foo1 -> Alice:   <font color=#FF8800><b>Please repeat
   
end

note over Foo1, Foo2
this is a second note
that is really
long
end note

@enduml

PlantUML version 1.2019.08(Sat Jul 13 12:25:14 PDT 2019)
(MIT source distribution)
Java Runtime: Java(TM) SE Runtime Environment
JVM: Java HotSpot(TM) 64-Bit Server VM
Java Version: 1.8.0_212-b32
Operating System: Windows 10
OS Version: 10.0
Default Encoding: Cp1252
Language: en
Country: US
--></g></svg>