<?xml version="1.0" encoding="UTF-8" standalone="no"?><svg xmlns="http://www.w3.org/2000/svg" xmlns:xlink="http://www.w3.org/1999/xlink" contentScriptType="application/ecmascript" contentStyleType="text/css" height="713.5417px" preserveAspectRatio="none" style="width:1227px;height:713px;background:#00000000;" version="1.1" viewBox="0 0 1227 713" width="1227.0833px" zoomAndPan="magnify"><defs><linearGradient id="g1linb22mp6ipy0" x1="50%" x2="50%" y1="0%" y2="100%"><stop offset="0%" stop-color="#999890"/><stop offset="100%" stop-color="#8E8C84"/></linearGradient><linearGradient id="g1linb22mp6ipy1" x1="50%" x2="50%" y1="0%" y2="100%"><stop offset="0%" stop-color="#F2FCFE"/><stop offset="100%" stop-color="#EEEEEE"/></linearGradient></defs><g><rect fill="url(#g1linb22mp6ipy0)" height="46.1528" rx="4.1667" ry="4.1667" style="stroke:#807E77;stroke-width:1.0416666666666667;" width="446.875" x="383.0729" y="2.0833"/><text fill="#325D88" font-family="Verdana" font-size="20.8333" lengthAdjust="spacing" textLength="419.7917" x="396.6146" y="33.4452">Component Diagram - sandstone theme</text><!--MD5=[98956307d0c47524864de5bf9cdc747b]
cluster My Package--><path d="M10.4167,57.6111 L101.0417,57.6111 A6.25,6.25 0 0 1 105.2083,61.7778 L112.5,89.4694 L788.5417,89.4694 A4.1667,4.1667 0 0 1 792.7083,93.6361 L792.7083,172.1944 A4.1667,4.1667 0 0 1 788.5417,176.3611 L10.4167,176.3611 A4.1667,4.1667 0 0 1 6.25,172.1944 L6.25,61.7778 A4.1667,4.1667 0 0 1 10.4167,57.6111 " fill="#8E8C84" style="stroke:#325D88;stroke-width:2.0833333333333335;"/><line style="stroke:#325D88;stroke-width:2.0833333333333335;" x1="6.25" x2="112.5" y1="89.4694" y2="89.4694"/><text fill="#325D88" font-family="Verdana" font-size="12.5" font-weight="bold" lengthAdjust="spacing" textLength="82.2917" x="15.625" y="77.4699">My Package</text><!--MD5=[994b84a7865cf3a30290d65f6358d5f5]
cluster My Node--><polygon fill="#8E8C84" points="159.375,211.7778,169.7917,201.3611,588.5417,201.3611,588.5417,314.9028,578.125,325.3194,159.375,325.3194,159.375,211.7778" style="stroke:#F8F5F0;stroke-width:1.5625;"/><line style="stroke:#F8F5F0;stroke-width:1.5625;" x1="578.125" x2="588.5417" y1="211.7778" y2="201.3611"/><line style="stroke:#F8F5F0;stroke-width:1.5625;" x1="159.375" x2="578.125" y1="211.7778" y2="211.7778"/><line style="stroke:#F8F5F0;stroke-width:1.5625;" x1="578.125" x2="578.125" y1="211.7778" y2="325.3194"/><text fill="#F8F5F0" font-family="Verdana" font-size="12.5" font-weight="bold" lengthAdjust="spacing" textLength="59.375" x="340.1042" y="232.6782">My Node</text><!--MD5=[8f762177cf9f076b8ea6eac76c5df33e]
cluster My Cloud--><path d="M629.7202,216.8881 C632.4366,210.9718 638.2453,209.5866 642.5662,215.082 C645.4946,209.1562 650.7247,207.3245 655.2675,213.3688 C658.6592,206.8781 663.2069,207.3375 667.6819,212.1823 C669.6806,205.1883 675.5931,204.6829 680.1597,209.4603 C683.2839,204.6186 687.0962,203.5845 690.8668,208.77 C696.4274,201.7079 700.7919,203.594 704.8336,210.3097 C708.8085,205.1 713.142,206.0129 716.4391,211.0754 C722.0695,205.6928 726.6296,205.9656 729.6147,213.7271 C732.9558,209.0837 737.8792,207.9292 740.9778,213.9845 C751.3994,207.6373 756.5738,211.4655 759.375,222.1944 C759.9129,221.8702 760.3145,222.1321 760.2945,222.743 C769.2609,225.8124 768.6025,233.1678 762.5476,238.399 C770.2688,243.0302 770.0166,249.067 761.8931,252.9873 C768.8506,256.0432 769.4787,261.5382 763.3466,266.0505 C769.9347,270.1913 770.851,276.8332 763.5743,281.1826 C771.4539,285.8944 769.2036,292.4775 762.469,296.107 C770.0081,306.8245 764.6744,316.2818 752.0833,316.9861 C752.4373,316.603 752.896,316.5232 753.1283,317.1164 C751.044,323.2229 745.6478,324.368 741.303,319.5671 C737.8181,324.6517 733.9112,325.5697 729.7594,320.3114 C725.8061,325.8703 721.4973,327.0605 716.7702,321.1908 C712.868,326.5507 707.7554,327.4732 704.3289,320.7029 C700.9768,327.8961 696.2094,327.8052 690.9124,322.8508 C687.0061,327.5086 682.7232,327.3409 679.1154,322.4809 C674.6716,327.0776 670.5302,327.3111 666.9318,321.492 C662.6331,326.2867 657.8435,324.5103 655.8659,318.9996 C652.7129,325.1955 646.3484,326.0946 642.4662,319.7808 C631.751,328.3057 622.7501,321.2578 621.875,309.6944 C622.3039,309.1627 622.6666,309.3385 622.9703,309.8285 C616.1272,307.4366 616.4775,301.4209 621.1656,297.3599 C612.8537,293.8172 611.896,287.217 618.1805,281.0094 C610.4219,277.9796 609.7344,272.1426 614.8507,266.215 C608.5836,260.7481 610.714,254.3151 618.4349,252.5053 C611.3358,247.1687 612.7677,241.8011 619.824,237.8018 C612.5842,226.5441 615.6377,217.687 629.1667,214.9028 C630.4182,215.182 630.6242,216.0079 629.7202,216.8881 " fill="url(#g1linb22mp6ipy1)" style="stroke:#F2FCFE;stroke-width:1.5625;"/><text fill="#3E3F3A" font-family="Verdana" font-size="12.5" font-weight="bold" lengthAdjust="spacing" textLength="62.5" x="659.375" y="237.8866">My Cloud</text><!--MD5=[5435dd1da01795d79a1d1bdb7811705f]
cluster My Database--><path d="M595.8333,360.7361 C595.8333,350.3194 690.625,350.3194 690.625,350.3194 C690.625,350.3194 785.4167,350.3194 785.4167,360.7361 L785.4167,696.1528 C785.4167,706.5694 690.625,706.5694 690.625,706.5694 C690.625,706.5694 595.8333,706.5694 595.8333,696.1528 L595.8333,360.7361 " fill="#325D88" style="stroke:#2D547A;stroke-width:1.5625;"/><path d="M595.8333,360.7361 C595.8333,371.1528 690.625,371.1528 690.625,371.1528 C690.625,371.1528 785.4167,371.1528 785.4167,360.7361 " fill="none" style="stroke:#2D547A;stroke-width:1.5625;"/><text fill="#FFFFFF" font-family="Verdana" font-size="12.5" font-weight="bold" lengthAdjust="spacing" textLength="88.5417" x="646.3542" y="391.0116">My Database</text><!--MD5=[db3eb734e65e00defc1adec42c70b029]
cluster My folder--><path d="M625,419.0694 L697.9167,419.0694 A6.25,6.25 0 0 1 702.0833,423.2361 L709.375,450.9277 L756.25,450.9277 A4.1667,4.1667 0 0 1 760.4167,455.0944 L760.4167,533.6528 A4.1667,4.1667 0 0 1 756.25,537.8194 L625,537.8194 A4.1667,4.1667 0 0 1 620.8333,533.6528 L620.8333,423.2361 A4.1667,4.1667 0 0 1 625,419.0694 " fill="#999890" style="stroke:#F47C3C;stroke-width:1.5625;"/><line style="stroke:#F47C3C;stroke-width:1.5625;" x1="620.8333" x2="709.375" y1="450.9277" y2="450.9277"/><text fill="#F47C3C" font-family="Verdana" font-size="12.5" font-weight="bold" lengthAdjust="spacing" textLength="64.5833" x="630.2083" y="438.9282">My folder</text><!--MD5=[2f95c9c104e26437854e71862f3d840e]
cluster My Frame--><rect fill="#999890" height="118.75" rx="4.1667" ry="4.1667" style="stroke:#29ABE0;stroke-width:1.5625;" width="139.5833" x="620.8333" y="562.8194"/><path d="M709.375,562.8194 L709.375,581.1361 L698.9583,591.5527 L620.8333,591.5527 " fill="none" style="stroke:#29ABE0;stroke-width:1.5625;"/><text fill="#29ABE0" font-family="Verdana" font-size="12.5" font-weight="bold" lengthAdjust="spacing" textLength="67.7083" x="629.1667" y="581.6366">My Frame</text><!--MD5=[96f7e1299d4a43069e6ed32352fcac20]
entity HTTP--><ellipse cx="545.8333" cy="131.0486" fill="#C34B47" rx="8.3333" ry="8.3333" style="stroke:#D9534F;stroke-width:1.5625;"/><text fill="#3E3F3A" font-family="Verdana" font-size="12.5" lengthAdjust="spacing" textLength="32.2917" x="529.6875" y="166.5324">HTTP</text><!--MD5=[cbd7cda55f2530e2efe43ec72c097853]
entity First Component--><rect fill="#325D88" height="56.8583" rx="4.1667" ry="4.1667" style="stroke:#2D547A;stroke-width:1.5625;" width="160.4167" x="339.5833" y="102.4028"/><rect fill="#325D88" height="10.4167" style="stroke:#2D547A;stroke-width:1.5625;" width="15.625" x="479.1667" y="107.6111"/><rect fill="#325D88" height="2.0833" style="stroke:#2D547A;stroke-width:1.5625;" width="4.1667" x="477.0833" y="109.6944"/><rect fill="#325D88" height="2.0833" style="stroke:#2D547A;stroke-width:1.5625;" width="4.1667" x="477.0833" y="113.8611"/><text fill="#FFFFFF" font-family="Verdana" font-size="12.5" lengthAdjust="spacing" textLength="108.3333" x="360.4167" y="141.0116">First Component</text><!--MD5=[b9d11f23832c1491231c5b33e55ab8c6]
entity Another Component--><rect fill="#325D88" height="56.8583" rx="4.1667" ry="4.1667" style="stroke:#2D547A;stroke-width:1.5625;" width="184.375" x="592.1875" y="102.4028"/><rect fill="#325D88" height="10.4167" style="stroke:#2D547A;stroke-width:1.5625;" width="15.625" x="755.7292" y="107.6111"/><rect fill="#325D88" height="2.0833" style="stroke:#2D547A;stroke-width:1.5625;" width="4.1667" x="753.6458" y="109.6944"/><rect fill="#325D88" height="2.0833" style="stroke:#2D547A;stroke-width:1.5625;" width="4.1667" x="753.6458" y="113.8611"/><text fill="#FFFFFF" font-family="Verdana" font-size="12.5" lengthAdjust="spacing" textLength="132.2917" x="613.0208" y="141.0116">Another Component</text><!--MD5=[aa625683a8c1a6d60f4cb888c4297339]
entity MyRectangle1--><rect fill="#999890" height="46.4417" rx="4.1667" ry="4.1667" style="stroke:#2D547A;stroke-width:2.0833333333333335;" width="121.875" x="180.7292" y="107.6111"/><text fill="#FFFFFF" font-family="Verdana" font-size="12.5" lengthAdjust="spacing" textLength="90.625" x="196.3542" y="135.8032">MyRectangle1</text><!--MD5=[deed3d4321eb4f26fdbc8b688b847966]
entity MyCollection1--><rect fill="#325D88" height="42.275" rx="4.1667" ry="4.1667" style="stroke:#2D547A;stroke-width:1.5625;" width="116.6667" x="27.0833" y="111.7778"/><rect fill="#325D88" height="42.275" rx="4.1667" ry="4.1667" style="stroke:#2D547A;stroke-width:1.5625;" width="116.6667" x="22.9167" y="107.6111"/><text fill="#FFFFFF" font-family="Verdana" font-size="12.5" lengthAdjust="spacing" textLength="89.5833" x="36.4583" y="133.7199">MyCollection1</text><!--MD5=[76af18d92d7d7c0f7ebd8f4f605ac5aa]
entity FTP--><ellipse cx="344.7917" cy="280.0069" fill="#C34B47" rx="8.3333" ry="8.3333" style="stroke:#D9534F;stroke-width:1.5625;"/><text fill="#3E3F3A" font-family="Verdana" font-size="12.5" lengthAdjust="spacing" textLength="22.9167" x="333.3333" y="315.4907">FTP</text><!--MD5=[0e2cc1aee2c7f52697e111b4fb84546c]
entity Second Component--><rect fill="#325D88" height="56.8583" rx="4.1667" ry="4.1667" style="stroke:#2D547A;stroke-width:1.5625;" width="180.2083" x="391.1458" y="251.3611"/><rect fill="#325D88" height="10.4167" style="stroke:#2D547A;stroke-width:1.5625;" width="15.625" x="550.5208" y="256.5694"/><rect fill="#325D88" height="2.0833" style="stroke:#2D547A;stroke-width:1.5625;" width="4.1667" x="548.4375" y="258.6528"/><rect fill="#325D88" height="2.0833" style="stroke:#2D547A;stroke-width:1.5625;" width="4.1667" x="548.4375" y="262.8194"/><text fill="#FFFFFF" font-family="Verdana" font-size="12.5" lengthAdjust="spacing" textLength="128.125" x="411.9792" y="289.9699">Second Component</text><!--MD5=[b8d85f5d3810694767e38854f60c8b6e]
entity MyRectangle2--><rect fill="#999890" height="46.4417" rx="4.1667" ry="4.1667" style="stroke:#2D547A;stroke-width:2.0833333333333335;" width="121.875" x="176.5625" y="256.5694"/><text fill="#FFFFFF" font-family="Verdana" font-size="12.5" lengthAdjust="spacing" textLength="90.625" x="192.1875" y="284.7616">MyRectangle2</text><!--MD5=[243c1e580c31013c48b02624e18b25a7]
entity Example 1--><rect fill="#325D88" height="56.8583" rx="4.1667" ry="4.1667" style="stroke:#2D547A;stroke-width:1.5625;" width="119.7917" x="630.7292" y="251.3611"/><rect fill="#325D88" height="10.4167" style="stroke:#2D547A;stroke-width:1.5625;" width="15.625" x="729.6875" y="256.5694"/><rect fill="#325D88" height="2.0833" style="stroke:#2D547A;stroke-width:1.5625;" width="4.1667" x="727.6042" y="258.6528"/><rect fill="#325D88" height="2.0833" style="stroke:#2D547A;stroke-width:1.5625;" width="4.1667" x="727.6042" y="262.8194"/><text fill="#FFFFFF" font-family="Verdana" font-size="12.5" lengthAdjust="spacing" textLength="67.7083" x="651.5625" y="289.9699">Example 1</text><!--MD5=[3e0e08c92570480402984701ab5a6d2d]
entity Folder 3--><rect fill="#325D88" height="56.8583" rx="4.1667" ry="4.1667" style="stroke:#2D547A;stroke-width:1.5625;" width="105.2083" x="638.0208" y="463.8611"/><rect fill="#325D88" height="10.4167" style="stroke:#2D547A;stroke-width:1.5625;" width="15.625" x="722.3958" y="469.0694"/><rect fill="#325D88" height="2.0833" style="stroke:#2D547A;stroke-width:1.5625;" width="4.1667" x="720.3125" y="471.1528"/><rect fill="#325D88" height="2.0833" style="stroke:#2D547A;stroke-width:1.5625;" width="4.1667" x="720.3125" y="475.3194"/><text fill="#FFFFFF" font-family="Verdana" font-size="12.5" lengthAdjust="spacing" textLength="53.125" x="658.8542" y="502.4699">Folder 3</text><!--MD5=[63877ed85df621d134a6c80fb52dad56]
entity Frame 4--><rect fill="#325D88" height="56.8583" rx="4.1667" ry="4.1667" style="stroke:#2D547A;stroke-width:1.5625;" width="105.2083" x="638.0208" y="607.6111"/><rect fill="#325D88" height="10.4167" style="stroke:#2D547A;stroke-width:1.5625;" width="15.625" x="722.3958" y="612.8194"/><rect fill="#325D88" height="2.0833" style="stroke:#2D547A;stroke-width:1.5625;" width="4.1667" x="720.3125" y="614.9028"/><rect fill="#325D88" height="2.0833" style="stroke:#2D547A;stroke-width:1.5625;" width="4.1667" x="720.3125" y="619.0694"/><text fill="#FFFFFF" font-family="Verdana" font-size="12.5" lengthAdjust="spacing" textLength="53.125" x="658.8542" y="646.2199">Frame 4</text><!--MD5=[bb0325ec99f4f4d58c3e33c6fae3b543]
entity MyCollection2--><rect fill="#325D88" height="42.275" rx="4.1667" ry="4.1667" style="stroke:#2D547A;stroke-width:1.5625;" width="116.6667" x="816.6667" y="111.7778"/><rect fill="#325D88" height="42.275" rx="4.1667" ry="4.1667" style="stroke:#2D547A;stroke-width:1.5625;" width="116.6667" x="812.5" y="107.6111"/><text fill="#FFFFFF" font-family="Verdana" font-size="12.5" lengthAdjust="spacing" textLength="89.5833" x="826.0417" y="133.7199">MyCollection2</text><!--MD5=[4d6c9a8b502f46c0f85d26a51e5d57ce]
entity My Artifact--><rect fill="#3E3F3A" height="49.5667" rx="4.1667" ry="4.1667" style="stroke:#383934;stroke-width:1.5625;" width="109.375" x="970.3125" y="106.0486"/><polygon fill="#3E3F3A" points="1061.9792,111.2569,1061.9792,125.8403,1074.4792,125.8403,1074.4792,117.5069,1068.2292,111.2569,1061.9792,111.2569" style="stroke:#383934;stroke-width:1.5625;"/><line style="stroke:#383934;stroke-width:1.5625;" x1="1068.2292" x2="1068.2292" y1="111.2569" y2="117.5069"/><line style="stroke:#383934;stroke-width:1.5625;" x1="1074.4792" x2="1068.2292" y1="117.5069" y2="117.5069"/><text fill="#F8F5F0" font-family="Verdana" font-size="12.5" lengthAdjust="spacing" textLength="67.7083" x="985.9375" y="137.3657">My Artifact</text><!--MD5=[6013850653c05993d855a7b82b2ebd6f]
entity My Storage--><rect fill="#F47C3C" height="46.4417" rx="36.4583" ry="36.4583" style="stroke:#DC7036;stroke-width:1.5625;" width="105.2083" x="1116.1458" y="107.6111"/><text fill="#FFFFFF" font-family="Verdana" font-size="12.5" lengthAdjust="spacing" textLength="73.9583" x="1131.7708" y="135.8032">My Storage</text><!--MD5=[decf897d207c1b699121f5d4005ef96e]
entity My Queue--><path d="M829.6875,261.7778 L916.1458,261.7778 C921.3542,261.7778 921.3542,279.7902 921.3542,279.7902 C921.3542,279.7902 921.3542,297.8027 916.1458,297.8027 L829.6875,297.8027 C824.4792,297.8027 824.4792,279.7902 824.4792,279.7902 C824.4792,279.7902 824.4792,261.7778 829.6875,261.7778 " fill="#325D88" style="stroke:#2D547A;stroke-width:1.5625;"/><path d="M916.1458,261.7778 C910.9375,261.7778 910.9375,279.7902 910.9375,279.7902 C910.9375,297.8027 916.1458,297.8027 916.1458,297.8027 " fill="none" style="stroke:#2D547A;stroke-width:1.5625;"/><text fill="#FFFFFF" font-family="Verdana" font-size="12.5" lengthAdjust="spacing" textLength="65.625" x="834.8958" y="284.7616">My Queue</text><!--MD5=[db0b4290d55c456da6f1e605315daa68]
entity My Interface--><ellipse cx="1012.5" cy="280.0069" fill="#C34B47" rx="8.3333" ry="8.3333" style="stroke:#D9534F;stroke-width:1.5625;"/><text fill="#3E3F3A" font-family="Verdana" font-size="12.5" lengthAdjust="spacing" textLength="81.25" x="971.875" y="315.4907">My Interface</text><!--MD5=[c42dbb279bb2c76edeffd08640135261]
entity My Card--><rect fill="#29ABE0" height="31.8583" rx="4.1667" ry="4.1667" style="stroke:#259ACA;stroke-width:1.5625;" width="84.375" x="1103.6458" y="263.8611"/><text fill="#FFFFFF" font-family="Verdana" font-size="12.5" lengthAdjust="spacing" textLength="53.125" x="1119.2708" y="284.7616">My Card</text><!--MD5=[4552e0ab931d4db86ba1ccdf7169c968]
entity My File--><path d="M835.4167,473.2361 L835.4167,511.3444 A4.1667,4.1667 0 0 0 839.5833,515.5111 L906.25,515.5111 A4.1667,4.1667 0 0 0 910.4167,511.3444 L910.4167,479.4861 L900,469.0694 L839.5833,469.0694 A4.1667,4.1667 0 0 0 835.4167,473.2361 " fill="#807E77" style="stroke:#F8F5F0;stroke-width:1.5625;"/><path d="M900,469.0694 L900,475.3194 A4.1667,4.1667 0 0 0 904.1667,479.4861 L910.4167,479.4861 " fill="#807E77" style="stroke:#F8F5F0;stroke-width:1.5625;"/><text fill="#F8F5F0" font-family="Verdana" font-size="12.5" lengthAdjust="spacing" textLength="43.75" x="851.0417" y="497.2616">My File</text><!--MD5=[5a51615613d2b2569e36ac803df4b251]
entity My Stack--><rect fill="#325D88" height="46.4417" rx="4.1667" ry="4.1667" style="stroke:none;stroke-width:1.5625;" width="88.5417" x="963.0208" y="469.0694"/><path d="M947.3958,469.0694 L958.8542,469.0694 A4.1667,4.1667 0 0 1 963.0208,473.2361 L963.0208,511.3444 A4.1667,4.1667 0 0 0 967.1875,515.5111 L1047.3958,515.5111 A4.1667,4.1667 0 0 0 1051.5625,511.3444 L1051.5625,473.2361 A4.1667,4.1667 0 0 1 1055.7292,469.0694 L1067.1875,469.0694 " fill="none" style="stroke:#2D547A;stroke-width:1.5625;"/><text fill="#FFFFFF" font-family="Verdana" font-size="12.5" lengthAdjust="spacing" textLength="57.2917" x="978.6458" y="497.2616">My Stack</text><!--MD5=[46d996859f59e5baf77956ce93023cee]
link HTTP to First Component--><path d="M536.1771,131.0486 C524.1354,131.0486 512.0833,131.0486 500.0417,131.0486 " fill="none" id="HTTP-First Component" style="stroke:#325D88;stroke-width:3.125;"/><!--MD5=[1966a42bb49d59057147dbda06282f4b]
link FTP to Second Component--><path d="M354.3854,280.0069 C366.6146,280.0069 378.8333,280.0069 391.0625,280.0069 " fill="none" id="FTP-Second Component" style="stroke:#325D88;stroke-width:3.125;"/><!--MD5=[d3aefbd8005e27b21e7ce98ddd948193]
link First Component to FTP--><path d="M395.25,159.8611 C387.3229,169.8194 379.0313,181.4653 372.9167,193.0278 C360.2708,216.9757 351.8958,247.6632 347.7813,265.1423 " fill="none" id="First Component-to-FTP" style="stroke:#325D88;stroke-width:3.125;"/><polygon fill="#325D88" points="346.5417,270.5382,352.6886,262.3244,347.6998,265.4602,344.5639,260.4714,346.5417,270.5382" style="stroke:#325D88;stroke-width:3.125;"/><!--MD5=[efc1ffe8b578a0fb156c7bce303319bb]
link Another Component to Example 1--><path d="M685.5521,159.7153 C686.5833,184.0798 688.1042,219.6319 689.2083,245.5798 " fill="none" id="Another Component-to-Example 1" style="stroke:#325D88;stroke-width:3.125;"/><polygon fill="#325D88" points="689.4375,250.9653,693.1978,241.42,689.2139,245.7617,684.8721,241.7778,689.4375,250.9653" style="stroke:#325D88;stroke-width:3.125;"/><!--MD5=[7ec8393a78a133520e8846dd05a7857a]
link Example 1 to Folder 3--><path d="M690.625,308.9861 C690.625,347.6111 690.625,417.1944 690.625,458.3715 " fill="none" id="Example 1-to-Folder 3" style="stroke:#325D88;stroke-width:3.125;"/><polygon fill="#325D88" points="690.625,463.7465,694.7917,454.3715,690.625,458.5382,686.4583,454.3715,690.625,463.7465" style="stroke:#325D88;stroke-width:3.125;"/><!--MD5=[b96c7096199393c1414a8b4e9ed2c30f]
link Folder 3 to Frame 4--><path d="M690.625,521.2048 C690.625,544.2569 690.625,577.184 690.625,601.7361 " fill="none" id="Folder 3-to-Frame 4" style="stroke:#325D88;stroke-width:3.125;"/><polygon fill="#325D88" points="690.625,607.1528,694.7917,597.7778,690.625,601.9444,686.4583,597.7778,690.625,607.1528" style="stroke:#325D88;stroke-width:3.125;"/><!--MD5=[83be288af14fde8a86007c2b011fac4a]
link MyCollection2 to My Artifact--><!--MD5=[b21a3c93c2a22c7ef4934ace81b9a2fe]
link My Artifact to My Storage--><!--MD5=[6ba35b42f782a962813221ea03178716]
link MyCollection2 to My Queue--><!--MD5=[0babb46f3d0f67f91c828a5eda35ab7d]
link My Queue to My Interface--><!--MD5=[9bfee3aea78949ae207e8bd3b67fed50]
link My Interface to My Card--><!--MD5=[afe9315598834b0b9f57a7a5b2c7ee2a]
link My Queue to My File--><!--MD5=[f6296be58d13482500ae3b999db2843f]
link My File to My Stack--><!--MD5=[2bc97f56ff386cd7120726c6f5a33142]
@startuml

!$THEME = "sandstone"

!if %not(%variable_exists("$BGCOLOR"))
!$BGCOLOR = "transparent"
!endif

skinparam backgroundColor $BGCOLOR
skinparam useBetaStyle false

!$BLUE = "#325d88"
!$INDIGO = "#6610f2"
!$PURPLE = "#6f42c1"
!$PINK = "#e83e8c"
!$RED = "#d9534f"
!$ORANGE = "#f47c3c"
!$YELLOW = "#ffc107"
!$GREEN = "#93c54b"
!$TEAL = "#20c997"
!$CYAN = "#29abe0"
!$WHITE = "#fff"
!$GRAY = "#8e8c84"
!$GRAYDARK = "#3e3f3a"
!$PRIMARY = "#325d88"
!$SECONDARY = "#8e8c84"
!$SUCCESS = "#93c54b"
!$INFO = "#29abe0"
!$WARNING = "#f47c3c"
!$DANGER = "#d9534f"
!$LIGHT = "#f8f5f0"
!$DARK = "#3e3f3a"

!$FGCOLOR = $WHITE
!$PRIMARY_DARK = "#2d547a"
!$PRIMARY_LIGHT = "#476d94"
!$PRIMARY_TEXT = $WHITE
!$SECONDARY_DARK = "#807e77"
!$SECONDARY_LIGHT = "#999890"
!$SECONDARY_TEXT = $WHITE
!$INFO_DARK = "#259aca"
!$INFO_LIGHT = "#3eb3e3"
!$INFO_TEXT = $WHITE
!$SUCCESS_DARK = "#84b144"
!$SUCCESS_LIGHT = "#9ecb5d"
!$SUCCESS_TEXT = $WHITE
!$WARNING_DARK = "#dc7036"
!$WARNING_LIGHT = "#f58950"
!$WARNING_TEXT = $WHITE
!$DANGER_DARK = "#c34b47"
!$DANGER_LIGHT = "#AE423F"
!$DANGER_TEXT = $WHITE
!$DARK_DARK = "#383934"
!$DARK_LIGHT = "#51524e"
!$LIGHT_DARK = "#dfddd8"
!$LIGHT_LIGHT = "#f9f6f2"

!procedure $success($msg)
  <font color=$SUCCESS><b>$msg
!endprocedure

!procedure $failure($msg)
  <font color=$DANGER><b>$msg
!endprocedure

!procedure $warning($msg)
  <font color=$WARNING><b>$msg
!endprocedure

!procedure $primary_scheme()
	FontColor $PRIMARY_TEXT
	BorderColor $PRIMARY_DARK
	BackgroundColor $PRIMARY
!endprocedure

skinparam defaultFontName       "Verdana"
skinparam defaultFontSize       12
skinparam dpi                   100
skinparam shadowing             false
skinparam roundcorner           8
skinparam ParticipantPadding    40
skinparam BoxPadding            40
skinparam Padding               5
skinparam ArrowColor            $DARK
skinparam stereotype {
    CBackgroundColor $SECONDARY_LIGHT
    CBorderColor $SECONDARY_DARK
    ABackgroundColor $SUCCESS_LIGHT
    ABorderColor $SUCCESS_DARK
    IBackgroundColor $DANGER_LIGHT
    IBorderColor $DANGER_DARK
    EBackgroundColor $WARNING_LIGHT
    EBorderColor $WARNING_DARK
    NBackgroundColor $INFO_LIGHT
    NBorderColor $INFO_DARK
}
skinparam title {
	FontColor	                 $PRIMARY
	BorderColor	                 $SECONDARY_DARK
	FontSize	    	         20
	BorderRoundCorner            8
	BorderThickness 	         1
	BackgroundColor              $SECONDARY_LIGHT-$SECONDARY
}

skinparam legend {
	BackgroundColor $SECONDARY
	BorderColor $SECONDARY_DARK
	FontColor $LIGHT
}

!startsub swimlane
skinparam swimlane {
	BorderColor $INFO
	BorderThickness 2
	TitleBackgroundColor  $SECONDARY_LIGHT-$SECONDARY
	TitleFontColor $PRIMARY
}
!endsub

!startsub activity

skinparam activity {
	$primary_scheme()
	BarColor $SUCCESS
	StartColor $INFO
	EndColor $INFO
	DiamondBackgroundColor $SECONDARY_LIGHT
  	DiamondBorderColor $SECONDARY_DARK
  	DiamondFontColor $SECONDARY_TEXT
}
!endsub

!startsub participant

skinparam participant {
	$primary_scheme()
	ParticipantBorderThickness 2
}
!endsub

!startsub actor

skinparam actor {
	$primary_scheme()
}
!endsub

!startsub arrow

skinparam arrow {
	Thickness 3
	Color $PRIMARY
	FontColor $FGCOLOR
}
!endsub

!startsub sequence

skinparam sequence {
	BorderColor $PRIMARY
	TitleFontColor $PRIMARY
	BackgroundColor $BGCOLOR
	StartColor $PRIMARY
	EndColor $PRIMARY
	BoxBackgroundColor $BGCOLOR
	BoxBorderColor $DARK
	BoxFontColor $DARk
	LifeLineBorderColor $SECONDARY
	LifeLineBorderThickness 2
	LifeLineBackgroundColor $SECONDARY_DARK
	GroupBorderColor $DARK
	GroupFontColor $DARK
	GroupHeaderFontColor $INFO
	GroupBackgroundColor $SECONDARY
	GroupHeaderBackgroundColor $BGCOLOR
	DividerBackgroundColor $DARK
    DividerBorderColor $DARK
    DividerBorderThickness 2
    DividerFontColor $LIGHT
	ReferenceBackgroundColor $BGCOLOR
	ReferenceBorderColor $DARK
	ReferenceFontColor $DARK
	ReferenceHeaderFontColor $INFO
	ReferenceHeaderBackgroundColor $SECONDARY
}
!endsub

!startsub partition

skinparam partition {
	BorderColor $PRIMARY
	FontColor $PRIMARY
	BackgroundColor $BGCOLOR
}
!endsub

!startsub collections

skinparam collections {
	$primary_scheme()
}
!endsub

!startsub control

skinparam control {
	$primary_scheme()
}
!endsub

!startsub entity

skinparam entity {
	$primary_scheme()
}
!endsub

!startsub boundary

skinparam boundary {
	$primary_scheme()
}
!endsub

!startsub agent

skinparam agent {
	BackgroundColor $WARNING
	BorderColor $WARNING_LIGHT
	FontColor $DARK
}
!endsub

!startsub note

skinparam note {
	BorderThickness 1
	BackgroundColor $INFO
	BorderColor $INFO_DARK
	FontColor $WHITE
}
!endsub

!startsub artifact

skinparam artifact {
	BackgroundColor $DARK
	BorderColor $DARK_DARK
	FontColor $LIGHT
}
!endsub

!startsub component

skinparam component {
	$primary_scheme()
}
!endsub

!startsub interface

skinparam interface {
	BackgroundColor  $DANGER_DARK
	BorderColor  $DANGER
	FontColor $DARK
}
!endsub

!startsub storage

skinparam storage {
	BackgroundColor $WARNING
  	BorderColor $WARNING_DARK
	FontColor $WARNING_TEXT
}
!endsub

!startsub node

skinparam node {
	BackgroundColor  $SECONDARY
	BorderColor $LIGHT
	FontColor $LIGHT
}
!endsub

!startsub cloud

skinparam cloud {
	BackgroundColor #F2FCFE-#eeeeee
	BorderColor #F2FCFE
	FontColor $DARK
}
!endsub

!startsub database

skinparam database {
	$primary_scheme()
}
!endsub

!startsub class

skinparam class {
	$primary_scheme()
	HeaderBackgroundColor $PRIMARY_LIGHT
	StereotypeFontColor $DARK
	BorderThickness 1
	AttributeFontColor $DARK
	AttributeFontSize 11
}
!endsub

!startsub object

skinparam object {
	$primary_scheme()
	StereotypeFontColor $DARK
	BorderThickness 1
	AttributeFontColor $SECONDARY_TEXT
	AttributeFontSize 11
}
!endsub

!startsub usecase

skinparam usecase {
	$primary_scheme()
	BorderThickness 2
	StereotypeFontColor $PRIMARY
}
!endsub

!startsub rectangle

skinparam rectangle {
	$primary_scheme()
	BackgroundColor $SECONDARY_LIGHT
	BorderThickness 2
	StereotypeFontColor $PRIMARY
}
!endsub

!startsub package

skinparam package {
	BackgroundColor $SECONDARY
  	BorderColor $PRIMARY
	FontColor $PRIMARY
	BorderThickness 2
}
!endsub

!startsub folder

skinparam folder {
	BackgroundColor $SECONDARY_LIGHT
  	BorderColor $WARNING
	FontColor $WARNING
	BorderThickness 2
}
!endsub

!startsub frame

skinparam frame {
	BackgroundColor $SECONDARY_LIGHT
  	BorderColor $INFO
	FontColor $INFO
	BorderThickness 2
}
!endsub

!startsub state

skinparam state {
	$primary_scheme()
	BackgroundColor $PRIMARY_LIGHT
	StartColor $INFO
	EndColor $INFO
	AttributeFontColor $SECONDARY_TEXT
	AttributeFontSize 11
}
!endsub

!startsub queue

skinparam queue {
	$primary_scheme()
}
!endsub

!startsub card

skinparam card {
	BackgroundColor $INFO
	BorderColor $INFO_DARK
	FontColor $INFO_TEXT
}
!endsub

!startsub file

skinparam file {
	BackgroundColor $SECONDARY_DARK
	BorderColor $LIGHT
	FontColor $LIGHT
}
!endsub

!startsub stack

skinparam stack {
	$primary_scheme()
}
!endsub

!if %variable_exists("$THEME")
title Component Diagram - $THEME theme
!else
title Component Diagram
!endif

'skinparam BackgroundColor transparent

package "My Package" {
  HTTP - [First Component]
  [Another Component]
  rectangle MyRectangle1
  collections MyCollection1
}
 
node "My Node" {
  FTP - [Second Component]
  [First Component] - -> FTP
  rectangle MyRectangle2
} 

cloud "My Cloud" {
  [Example 1]
}

collections MyCollection2

database "My Database" {
  folder "My folder" {
	[Folder 3]
  }
  frame "My Frame" {
	[Frame 4]
  }
}

artifact "My Artifact"
storage "My Storage"
queue "My Queue"
interface "My Interface"
card "My Card"
file "My File"
stack "My Stack"

[Another Component] - -> [Example 1]
[Example 1] - -> [Folder 3]
[Folder 3] - -> [Frame 4]

@enduml

@startuml



skinparam backgroundColor transparent
skinparam useBetaStyle false







skinparam defaultFontName       "Verdana"
skinparam defaultFontSize       12
skinparam dpi                   100
skinparam shadowing             false
skinparam roundcorner           8
skinparam ParticipantPadding    40
skinparam BoxPadding            40
skinparam Padding               5
skinparam ArrowColor            #3e3f3a
skinparam stereotype {
    CBackgroundColor #999890
    CBorderColor #807e77
    ABackgroundColor #9ecb5d
    ABorderColor #84b144
    IBackgroundColor #AE423F
    IBorderColor #c34b47
    EBackgroundColor #f58950
    EBorderColor #dc7036
    NBackgroundColor #3eb3e3
    NBorderColor #259aca
}
skinparam title {
	FontColor	                 #325d88
	BorderColor	                 #807e77
	FontSize	    	         20
	BorderRoundCorner            8
	BorderThickness 	         1
	BackgroundColor              #999890-#8e8c84
}

skinparam legend {
	BackgroundColor #8e8c84
	BorderColor #807e77
	FontColor #f8f5f0
}

skinparam swimlane {
	BorderColor #29abe0
	BorderThickness 2
	TitleBackgroundColor  #999890-#8e8c84
	TitleFontColor #325d88
}


skinparam activity {
		FontColor #fff
	BorderColor #2d547a
	BackgroundColor #325d88
	BarColor #93c54b
	StartColor #29abe0
	EndColor #29abe0
	DiamondBackgroundColor #999890
  	DiamondBorderColor #807e77
  	DiamondFontColor #fff
}


skinparam participant {
		FontColor #fff
	BorderColor #2d547a
	BackgroundColor #325d88
	ParticipantBorderThickness 2
}


skinparam actor {
		FontColor #fff
	BorderColor #2d547a
	BackgroundColor #325d88
}


skinparam arrow {
	Thickness 3
	Color #325d88
	FontColor #fff
}


skinparam sequence {
	BorderColor #325d88
	TitleFontColor #325d88
	BackgroundColor transparent
	StartColor #325d88
	EndColor #325d88
	BoxBackgroundColor transparent
	BoxBorderColor #3e3f3a
	BoxFontColor $DARk
	LifeLineBorderColor #8e8c84
	LifeLineBorderThickness 2
	LifeLineBackgroundColor #807e77
	GroupBorderColor #3e3f3a
	GroupFontColor #3e3f3a
	GroupHeaderFontColor #29abe0
	GroupBackgroundColor #8e8c84
	GroupHeaderBackgroundColor transparent
	DividerBackgroundColor #3e3f3a
    DividerBorderColor #3e3f3a
    DividerBorderThickness 2
    DividerFontColor #f8f5f0
	ReferenceBackgroundColor transparent
	ReferenceBorderColor #3e3f3a
	ReferenceFontColor #3e3f3a
	ReferenceHeaderFontColor #29abe0
	ReferenceHeaderBackgroundColor #8e8c84
}


skinparam partition {
	BorderColor #325d88
	FontColor #325d88
	BackgroundColor transparent
}


skinparam collections {
		FontColor #fff
	BorderColor #2d547a
	BackgroundColor #325d88
}


skinparam control {
		FontColor #fff
	BorderColor #2d547a
	BackgroundColor #325d88
}


skinparam entity {
		FontColor #fff
	BorderColor #2d547a
	BackgroundColor #325d88
}


skinparam boundary {
		FontColor #fff
	BorderColor #2d547a
	BackgroundColor #325d88
}


skinparam agent {
	BackgroundColor #f47c3c
	BorderColor #f58950
	FontColor #3e3f3a
}


skinparam note {
	BorderThickness 1
	BackgroundColor #29abe0
	BorderColor #259aca
	FontColor #fff
}


skinparam artifact {
	BackgroundColor #3e3f3a
	BorderColor #383934
	FontColor #f8f5f0
}


skinparam component {
		FontColor #fff
	BorderColor #2d547a
	BackgroundColor #325d88
}


skinparam interface {
	BackgroundColor  #c34b47
	BorderColor  #d9534f
	FontColor #3e3f3a
}


skinparam storage {
	BackgroundColor #f47c3c
  	BorderColor #dc7036
	FontColor #fff
}


skinparam node {
	BackgroundColor  #8e8c84
	BorderColor #f8f5f0
	FontColor #f8f5f0
}


skinparam cloud {
	BackgroundColor #F2FCFE-#eeeeee
	BorderColor #F2FCFE
	FontColor #3e3f3a
}


skinparam database {
		FontColor #fff
	BorderColor #2d547a
	BackgroundColor #325d88
}


skinparam class {
		FontColor #fff
	BorderColor #2d547a
	BackgroundColor #325d88
	HeaderBackgroundColor #476d94
	StereotypeFontColor #3e3f3a
	BorderThickness 1
	AttributeFontColor #3e3f3a
	AttributeFontSize 11
}


skinparam object {
		FontColor #fff
	BorderColor #2d547a
	BackgroundColor #325d88
	StereotypeFontColor #3e3f3a
	BorderThickness 1
	AttributeFontColor #fff
	AttributeFontSize 11
}


skinparam usecase {
		FontColor #fff
	BorderColor #2d547a
	BackgroundColor #325d88
	BorderThickness 2
	StereotypeFontColor #325d88
}


skinparam rectangle {
		FontColor #fff
	BorderColor #2d547a
	BackgroundColor #325d88
	BackgroundColor #999890
	BorderThickness 2
	StereotypeFontColor #325d88
}


skinparam package {
	BackgroundColor #8e8c84
  	BorderColor #325d88
	FontColor #325d88
	BorderThickness 2
}


skinparam folder {
	BackgroundColor #999890
  	BorderColor #f47c3c
	FontColor #f47c3c
	BorderThickness 2
}


skinparam frame {
	BackgroundColor #999890
  	BorderColor #29abe0
	FontColor #29abe0
	BorderThickness 2
}


skinparam state {
		FontColor #fff
	BorderColor #2d547a
	BackgroundColor #325d88
	BackgroundColor #476d94
	StartColor #29abe0
	EndColor #29abe0
	AttributeFontColor #fff
	AttributeFontSize 11
}


skinparam queue {
		FontColor #fff
	BorderColor #2d547a
	BackgroundColor #325d88
}


skinparam card {
	BackgroundColor #29abe0
	BorderColor #259aca
	FontColor #fff
}


skinparam file {
	BackgroundColor #807e77
	BorderColor #f8f5f0
	FontColor #f8f5f0
}


skinparam stack {
		FontColor #fff
	BorderColor #2d547a
	BackgroundColor #325d88
}

title Component Diagram - sandstone theme


package "My Package" {
  HTTP - [First Component]
  [Another Component]
  rectangle MyRectangle1
  collections MyCollection1
}
 
node "My Node" {
  FTP - [Second Component]
  [First Component] - -> FTP
  rectangle MyRectangle2
} 

cloud "My Cloud" {
  [Example 1]
}

collections MyCollection2

database "My Database" {
  folder "My folder" {
	[Folder 3]
  }
  frame "My Frame" {
	[Frame 4]
  }
}

artifact "My Artifact"
storage "My Storage"
queue "My Queue"
interface "My Interface"
card "My Card"
file "My File"
stack "My Stack"

[Another Component] - -> [Example 1]
[Example 1] - -> [Folder 3]
[Folder 3] - -> [Frame 4]

@enduml

PlantUML version 1.2021.01(Mon Feb 01 23:55:08 PST 2021)
(GPL source distribution)
Java Runtime: OpenJDK Runtime Environment
JVM: OpenJDK 64-Bit Server VM
Default Encoding: UTF-8
Language: en
Country: US
--></g></svg>