<?xml version="1.0" encoding="UTF-8" standalone="no"?><svg xmlns="http://www.w3.org/2000/svg" xmlns:xlink="http://www.w3.org/1999/xlink" contentScriptType="application/ecmascript" contentStyleType="text/css" height="476.0417px" preserveAspectRatio="none" style="width:621px;height:476px;" version="1.1" viewBox="0 0 621 476" width="621.875px" zoomAndPan="magnify"><defs><linearGradient id="gzlkdpeqfqk210" x1="50%" x2="50%" y1="0%" y2="100%"><stop offset="0%" stop-color="#F5F5F5"/><stop offset="100%" stop-color="#F2F2F2"/></linearGradient><linearGradient id="gzlkdpeqfqk211" x1="50%" x2="50%" y1="0%" y2="100%"><stop offset="0%" stop-color="#33B2E2"/><stop offset="100%" stop-color="#009FDB"/></linearGradient></defs><g><rect fill="url(#gzlkdpeqfqk210)" height="46.1528" rx="4.1667" ry="4.1667" style="stroke: #C2C2C2; stroke-width: 1.0416666666666667;" width="366.6667" x="130.7292" y="2.0833"/><text fill="#009FDB" font-family="Verdana" font-size="20.8333" lengthAdjust="spacingAndGlyphs" textLength="339.5833" x="144.2708" y="33.4452">Class Diagram - bluegray theme</text><!--MD5=[b4fa10df80476353258f72a232547d63]
class AbstractList--><rect fill="url(#gzlkdpeqfqk211)" height="52.6917" id="AbstractList" rx="4.1667" ry="4.1667" style="stroke: #007FAF; stroke-width: 1.0416666666666667;" width="116.6667" x="196.3542" y="248.2361"/><ellipse cx="210.9375" cy="266.2486" fill="#A9DCDF" rx="10.4167" ry="10.4167" style="stroke: #007FAF; stroke-width: 1.0416666666666667;"/><path d="M210.5306,263.205 L209.6842,266.9322 L211.3932,266.9322 L210.5306,263.205 Z M209.4401,261.5611 L211.6374,261.5611 L214.0951,270.6757 L212.2884,270.6757 L211.735,268.4296 L209.3262,268.4296 L208.7728,270.6757 L206.9661,270.6757 L209.4401,261.5611 Z "/><text fill="#FFFFFF" font-family="Verdana" font-size="12.5" font-style="italic" lengthAdjust="spacingAndGlyphs" textLength="75" x="229.6875" y="271.2199">AbstractList</text><line style="stroke: #007FAF; stroke-width: 1.0416666666666667;" x1="197.3958" x2="311.9792" y1="284.2611" y2="284.2611"/><line style="stroke: #007FAF; stroke-width: 1.0416666666666667;" x1="197.3958" x2="311.9792" y1="292.5944" y2="292.5944"/><!--MD5=[8e34b16d8d8f96f4a11290cd523ed859]
class AbstractCollection--><rect fill="url(#gzlkdpeqfqk211)" height="52.6917" id="AbstractCollection" rx="4.1667" ry="4.1667" style="stroke: #007FAF; stroke-width: 1.0416666666666667;" width="153.125" x="6.25" y="248.2361"/><ellipse cx="20.8333" cy="266.2486" fill="#A9DCDF" rx="10.4167" ry="10.4167" style="stroke: #007FAF; stroke-width: 1.0416666666666667;"/><path d="M20.4264,263.205 L19.5801,266.9322 L21.2891,266.9322 L20.4264,263.205 Z M19.3359,261.5611 L21.5332,261.5611 L23.9909,270.6757 L22.1842,270.6757 L21.6309,268.4296 L19.222,268.4296 L18.6686,270.6757 L16.862,270.6757 L19.3359,261.5611 Z "/><text fill="#FFFFFF" font-family="Verdana" font-size="12.5" font-style="italic" lengthAdjust="spacingAndGlyphs" textLength="111.4583" x="39.5833" y="271.2199">AbstractCollection</text><line style="stroke: #007FAF; stroke-width: 1.0416666666666667;" x1="7.2917" x2="158.3333" y1="284.2611" y2="284.2611"/><line style="stroke: #007FAF; stroke-width: 1.0416666666666667;" x1="7.2917" x2="158.3333" y1="292.5944" y2="292.5944"/><!--MD5=[3d4177ac58b4411586d067f34e84928f]
class List--><rect fill="url(#gzlkdpeqfqk211)" height="52.6917" id="List" rx="4.1667" ry="4.1667" style="stroke: #007FAF; stroke-width: 1.0416666666666667;" width="64.5833" x="208.8542" y="96.1528"/><ellipse cx="223.4375" cy="114.1652" fill="#B4A7E5" rx="10.4167" ry="10.4167" style="stroke: #007FAF; stroke-width: 1.0416666666666667;"/><path d="M220.3288,111.3332 L220.3288,109.7382 L225.7487,109.7382 L225.7487,111.3332 L223.9421,111.3332 L223.9421,117.2577 L225.7487,117.2577 L225.7487,118.8527 L220.3288,118.8527 L220.3288,117.2577 L222.1354,117.2577 L222.1354,111.3332 L220.3288,111.3332 Z "/><text fill="#FFFFFF" font-family="Verdana" font-size="12.5" font-style="italic" lengthAdjust="spacingAndGlyphs" textLength="22.9167" x="242.1875" y="119.1366">List</text><line style="stroke: #007FAF; stroke-width: 1.0416666666666667;" x1="209.8958" x2="272.3958" y1="132.1777" y2="132.1777"/><line style="stroke: #007FAF; stroke-width: 1.0416666666666667;" x1="209.8958" x2="272.3958" y1="140.5111" y2="140.5111"/><!--MD5=[c160724f8e3bb89ca8141a12554ac2e3]
class Collection--><rect fill="url(#gzlkdpeqfqk211)" height="52.6917" id="Collection" rx="4.1667" ry="4.1667" style="stroke: #007FAF; stroke-width: 1.0416666666666667;" width="101.0417" x="58.3333" y="96.1528"/><ellipse cx="72.9167" cy="114.1652" fill="#B4A7E5" rx="10.4167" ry="10.4167" style="stroke: #007FAF; stroke-width: 1.0416666666666667;"/><path d="M69.8079,111.3332 L69.8079,109.7382 L75.2279,109.7382 L75.2279,111.3332 L73.4212,111.3332 L73.4212,117.2577 L75.2279,117.2577 L75.2279,118.8527 L69.8079,118.8527 L69.8079,117.2577 L71.6146,117.2577 L71.6146,111.3332 L69.8079,111.3332 Z "/><text fill="#FFFFFF" font-family="Verdana" font-size="12.5" font-style="italic" lengthAdjust="spacingAndGlyphs" textLength="59.375" x="91.6667" y="119.1366">Collection</text><line style="stroke: #007FAF; stroke-width: 1.0416666666666667;" x1="59.375" x2="158.3333" y1="132.1777" y2="132.1777"/><line style="stroke: #007FAF; stroke-width: 1.0416666666666667;" x1="59.375" x2="158.3333" y1="140.5111" y2="140.5111"/><!--MD5=[ab8871ed637f40707b866ba6597734bc]
class ArrayList--><rect fill="url(#gzlkdpeqfqk211)" height="101.3763" id="ArrayList" rx="4.1667" ry="4.1667" style="stroke: #007FAF; stroke-width: 1.0416666666666667;" width="152.0833" x="178.6458" y="363.8611"/><ellipse cx="217.1354" cy="381.8736" fill="#ADD1B2" rx="10.4167" ry="10.4167" style="stroke: #007FAF; stroke-width: 1.0416666666666667;"/><path d="M219.0397,386.3007 Q218.6165,386.5122 218.1445,386.6262 Q217.6725,386.7401 217.168,386.7401 Q215.3125,386.7401 214.3359,385.5357 Q213.3757,384.315 213.3757,382.0201 Q213.3757,379.7089 214.3359,378.5044 Q215.3125,377.2837 217.168,377.2837 Q217.6725,377.2837 218.1445,377.3977 Q218.6328,377.4953 219.0397,377.7232 L219.0397,379.7251 Q218.584,379.302 218.1445,379.1066 Q217.7051,378.8951 217.2493,378.8951 Q216.2565,378.8951 215.752,379.6926 Q215.2474,380.4738 215.2474,382.0201 Q215.2474,383.55 215.752,384.3313 Q216.2565,385.1125 217.2493,385.1125 Q217.7051,385.1125 218.1445,384.9172 Q218.584,384.7219 219.0397,384.2987 L219.0397,386.3007 Z "/><text fill="#FFFFFF" font-family="Verdana" font-size="12.5" lengthAdjust="spacingAndGlyphs" textLength="57.2917" x="241.1979" y="386.8449">ArrayList</text><line style="stroke: #007FAF; stroke-width: 1.0416666666666667;" x1="179.6875" x2="329.6875" y1="399.8861" y2="399.8861"/><text fill="#5A5A5A" font-family="Verdana" font-size="11.4583" lengthAdjust="spacingAndGlyphs" textLength="129.1667" x="190.1042" y="420.7809">Object[] elementData</text><line style="stroke: #007FAF; stroke-width: 1.0416666666666667;" x1="179.6875" x2="329.6875" y1="432.5617" y2="432.5617"/><text fill="#5A5A5A" font-family="Verdana" font-size="11.4583" lengthAdjust="spacingAndGlyphs" textLength="33.3333" x="190.1042" y="453.4566">size()</text><!--MD5=[15b68e006199004da79ea2a4d117d8e9]
class TimeUnit--><rect fill="url(#gzlkdpeqfqk211)" height="125.7187" id="TimeUnit" rx="4.1667" ry="4.1667" style="stroke: #007FAF; stroke-width: 1.0416666666666667;" width="97.9167" x="309.8958" y="59.6944"/><ellipse cx="324.4792" cy="77.7069" fill="#EB937F" rx="10.4167" ry="10.4167" style="stroke: #007FAF; stroke-width: 1.0416666666666667;"/><path d="M327.0182,82.3944 L321.3379,82.3944 L321.3379,73.2798 L327.0182,73.2798 L327.0182,74.8749 L323.1445,74.8749 L323.1445,76.828 L326.6439,76.828 L326.6439,78.4231 L323.1445,78.4231 L323.1445,80.7994 L327.0182,80.7994 L327.0182,82.3944 Z "/><text fill="#FFFFFF" font-family="Verdana" font-size="12.5" lengthAdjust="spacingAndGlyphs" textLength="56.25" x="343.2292" y="82.6782">TimeUnit</text><line style="stroke: #007FAF; stroke-width: 1.0416666666666667;" x1="310.9375" x2="406.7708" y1="95.7194" y2="95.7194"/><text fill="#5A5A5A" font-family="Verdana" font-size="11.4583" lengthAdjust="spacingAndGlyphs" textLength="33.3333" x="321.3542" y="116.6143">DAYS</text><text fill="#5A5A5A" font-family="Verdana" font-size="11.4583" lengthAdjust="spacingAndGlyphs" textLength="42.7083" x="321.3542" y="140.9566">HOURS</text><text fill="#5A5A5A" font-family="Verdana" font-size="11.4583" lengthAdjust="spacingAndGlyphs" textLength="54.1667" x="321.3542" y="165.299">MINUTES</text><line style="stroke: #007FAF; stroke-width: 1.0416666666666667;" x1="310.9375" x2="406.7708" y1="177.0798" y2="177.0798"/><!--MD5=[0c8287f799745f7b534bf75518604c1e]
class SuppressWarnings--><rect fill="url(#gzlkdpeqfqk211)" height="52.6917" id="SuppressWarnings" rx="4.1667" ry="4.1667" style="stroke: #007FAF; stroke-width: 1.0416666666666667;" width="165.625" x="444.7917" y="96.1528"/><ellipse cx="459.375" cy="114.1652" fill="#E3664A" rx="10.4167" ry="10.4167" style="stroke: #007FAF; stroke-width: 1.0416666666666667;"/><path d="M460.6283,113.9699 Q460.6283,113.2701 460.319,112.8794 Q460.0098,112.4888 459.4564,112.4888 Q458.9193,112.4888 458.61,112.8794 Q458.3008,113.2701 458.3008,113.9699 Q458.3008,114.6535 458.61,115.0441 Q458.9193,115.4348 459.4564,115.4348 Q460.0098,115.4348 460.319,115.0441 Q460.6283,114.6535 460.6283,113.9699 Z M461.7676,116.4602 L460.5632,116.4602 L460.5632,115.9719 Q460.3353,116.2811 460.0098,116.4439 Q459.7005,116.5904 459.2611,116.5904 Q458.2682,116.5904 457.6497,115.8742 Q457.0313,115.1418 457.0313,113.9699 Q457.0313,112.7818 457.6335,112.0656 Q458.252,111.3495 459.2611,111.3495 Q459.7005,111.3495 460.026,111.496 Q460.3516,111.6425 460.5632,111.9354 L460.5632,111.6913 Q460.5632,110.8612 460.1074,110.4055 Q459.6517,109.9497 458.8216,109.9497 Q457.5521,109.9497 456.7383,111.0728 Q455.9408,112.1796 455.9408,113.9699 Q455.9408,115.8417 456.8685,116.9647 Q457.7962,118.0715 459.3424,118.0715 Q459.8307,118.0715 460.2865,117.925 Q460.7422,117.7785 461.1654,117.4856 L461.7188,118.5598 Q461.2305,118.9016 460.6445,119.0643 Q460.0586,119.2434 459.4076,119.2434 Q457.2591,119.2434 455.9896,117.8111 Q454.7201,116.3951 454.7201,113.9699 Q454.7201,111.6099 455.8594,110.1939 Q457.015,108.7779 458.8867,108.7779 Q460.2214,108.7779 460.9863,109.5754 Q461.7676,110.3729 461.7676,111.7727 L461.7676,116.4602 Z "/><text fill="#FFFFFF" font-family="Verdana" font-size="12.5" lengthAdjust="spacingAndGlyphs" textLength="123.9583" x="478.125" y="119.1366">SuppressWarnings</text><line style="stroke: #007FAF; stroke-width: 1.0416666666666667;" x1="445.8333" x2="609.375" y1="132.1777" y2="132.1777"/><line style="stroke: #007FAF; stroke-width: 1.0416666666666667;" x1="445.8333" x2="609.375" y1="140.5111" y2="140.5111"/><!--MD5=[00308d07b6a5721fb0cf5861877e6652]
reverse link List to AbstractList--><path d="M245.3969,170.4582 C247.6821,196.1228 250.414,226.8035 252.3216,248.2275 " fill="none" id="List&lt;-AbstractList" style="stroke: #009FDB; stroke-width: 3.125;"/><polygon fill="none" points="238.1205,170.9525,243.5356,149.5546,252.6464,169.6591,238.1205,170.9525" style="stroke: #009FDB; stroke-width: 3.125;"/><!--MD5=[1822909749df1453bdd84de7a60a3406]
reverse link Collection to AbstractCollection--><path d="M100.679,170.4582 C96.2844,196.1228 91.0308,226.8035 87.3623,248.2275 " fill="none" id="Collection&lt;-AbstractCollection" style="stroke: #009FDB; stroke-width: 3.125;"/><polygon fill="none" points="93.5551,168.8584,104.2583,149.5546,107.9292,171.3197,93.5551,168.8584" style="stroke: #009FDB; stroke-width: 3.125;"/><!--MD5=[0159284274f96a472eb2618ad803aaca]
reverse link Collection to List--><path d="M180.602,122.7153 C189.9393,122.7153 199.2766,122.7153 208.6139,122.7153 " fill="none" id="Collection&lt;-List" style="stroke: #009FDB; stroke-width: 3.125;"/><polygon fill="none" points="180.3304,130.0068,159.4971,122.7153,180.3304,115.4235,180.3304,130.0068" style="stroke: #009FDB; stroke-width: 3.125;"/><!--MD5=[7a3a52e8f65ef1a8d8d29530ea5cd870]
reverse link AbstractCollection to AbstractList--><path d="M180.7114,274.7986 C185.8255,274.7986 190.9397,274.7986 196.054,274.7986 " fill="none" id="AbstractCollection&lt;-AbstractList" style="stroke: #009FDB; stroke-width: 3.125;"/><polygon fill="none" points="180.5197,282.0901,159.6863,274.7986,180.5196,267.5068,180.5197,282.0901" style="stroke: #009FDB; stroke-width: 3.125;"/><!--MD5=[40e4bb1af59cca28d4643aaff05088cc]
reverse link AbstractList to ArrayList--><path d="M254.6875,322.2493 C254.6875,335.5643 254.6875,350.0919 254.6875,363.5928 " fill="none" id="AbstractList&lt;-ArrayList" style="stroke: #009FDB; stroke-width: 3.125;"/><polygon fill="none" points="247.3959,322.215,254.6875,301.3817,261.9793,322.2149,247.3959,322.215" style="stroke: #009FDB; stroke-width: 3.125;"/><!--MD5=[97ace6d0a721be243dd60180fecd5e58]
@startuml



skinparam backgroundColor transparent







skinparam defaultFontName        "Verdana"
skinparam defaultFontSize        12
skinparam dpi                    100
skinparam shadowing              false
skinparam roundcorner            8
skinparam ParticipantPadding     30
skinparam BoxPadding             40
skinparam Padding                5
skinparam ArrowColor             #959595
skinparam title {
	FontColor	                 #009fdb
	BorderColor	                 #c2c2c2
	FontSize	    	         20
	BorderRoundCorner            8
	BorderThickness 	         1
	BackgroundColor              #f5f5f5-#f2f2f2
}


skinparam legend {
	BackgroundColor #f2f2f2
	BorderColor #c2c2c2
	FontColor #5a5a5a
}

skinparam activity {
	FontColor #fff
	BorderColor #009fdb
	BackgroundColor #33b2e2-#009fdb
	BarColor #b5bd00
	StartColor #0568ae
	EndColor #0568ae
	DiamondBackgroundColor #fff-#f5f5f5
  	DiamondBorderColor #c2c2c2
	DiamondFontColor #5a5a5a
}

skinparam sequence {
	BorderColor #009fdb
	TitleFontColor #009fdb
	BackgroundColor transparent
	StartColor #009fdb
	EndColor #009fdb
	ParticipantBackgroundColor #33b2e2-#009fdb
    ParticipantBorderColor #009fdb
	ParticipantBorderThickness 0
	ParticipantFontColor #fff
	ActorBackgroundColor transparent
    ActorBorderColor #009fdb
	ActorFontColor #009fdb
	ArrowThickness 3
	ArrowColor #009fdb
	ArrowFontColor #5a5a5a
	BoxBackgroundColor #d2d2d2
	BoxBorderColor #959595
	BoxFontColor #5a5a5a
	LifeLineBorderColor #c2c2c2
	LifeLineBorderThickness 2
	LifeLineBackgroundColor #f5f5f5
	GroupBorderColor #959595
	GroupFontColor #5a5a5a
	GroupHeaderFontColor #0568ae
	DividerBackgroundColor #fff-#d2d2d2
    DividerBorderColor #959595
    DividerBorderThickness 2
    DividerFontColor #5a5a5a
	ReferenceBackgroundColor transparent
	ReferenceBorderColor #959595
	ReferenceFontColor #5a5a5a
	ReferenceHeaderFontColor #0568ae
}

skinparam partition {
	BorderColor #009fdb
	FontColor #009fdb
	BackgroundColor transparent
}

skinparam collections {
	BackgroundColor #33b2e2-#009fdb
	BorderColor #009fdb
}

skinparam control {
	BackgroundColor  #33b2e2-#009fdb
	BorderColor #007faf
	FontColor #5a5a5a
}

skinparam entity {
	BackgroundColor  #33b2e2-#009fdb
	BorderColor #007faf
	FontColor #5a5a5a
}

skinparam boundary {
	BackgroundColor  #33b2e2-#009fdb
	BorderColor #007faf
	FontColor #5a5a5a
}

skinparam agent {
	BackgroundColor #orange
	BorderColor #999999
	FontColor #333333
}

skinparam note {
	BorderThickness 1
	BackgroundColor #3786be-#0568ae
	BorderColor #0568ae
	FontColor #fff
}

skinparam artifact {
	BackgroundColor #fff-#d2d2d2
	BorderColor #959595
	FontColor #959595
}

skinparam component {
	BackgroundColor  #c4ca33-#b5bd00
	BorderColor  #b5bd00
	FontColor #fff
}

skinparam interface {
	BackgroundColor  #d95555
	BorderColor  #cf2a2a
	FontColor #5a5a5a
}

skinparam storage {
	BackgroundColor #ee9033-#ea7400
  	BorderColor #ea7400
	FontColor #fff
}

skinparam node {
	BackgroundColor #f5f5f5-#f2f2f2
	BorderColor #c2c2c2
	FontColor #009fdb
	StereotypeFontColor #5a5a5a
}

skinparam cloud {
	BackgroundColor white-#F2FCFE
	BorderColor transparent
	FontColor #5a5a5a
}

skinparam database {
    BackgroundColor  #33b2e2-#009fdb
	BorderColor #007faf
	FontColor #fff
	StereotypeFontColor #d2d2d2
}

skinparam actor {
	FontColor #5a5a5a
}

skinparam class {
	HeaderBackgroundColor #009fdb-#007faf
	FontColor #fff
	BackgroundColor #33b2e2-#009fdb
	BorderColor #007faf
	StereotypeFontColor #5a5a5a
	BorderThickness 1
	AttributeFontColor #5a5a5a
	AttributeFontSize 11
}

skinparam object {
	FontColor #b5bd00
	BackgroundColor #f2f2f2-#c2c2c2
	BorderColor #c2c2c2
	StereotypeFontColor #5a5a5a
	BorderThickness 1
	AttributeFontColor #5a5a5a
	AttributeFontSize 11
}

skinparam usecase {
	BackgroundColor #f5f5f5-#f2f2f2
	BorderColor #f2f2f2
	BorderThickness 2
	FontColor #5a5a5a
	StereotypeFontColor #009fdb
}

skinparam rectangle {
	BackgroundColor #f2f2f2-#c2c2c2
	BorderColor #007faf
	BorderThickness 2
	FontColor #009fdb
	StereotypeFontColor #009fdb
}

skinparam package {
	BackgroundColor #f5f5f5-#f2f2f2
  	BorderColor #009fdb
	FontColor #009fdb
	BorderThickness 2
}

skinparam folder {
	BackgroundColor #fff-#f5f5f5
  	BorderColor #ea7400
	FontColor #ea7400
	BorderThickness 2
}

skinparam frame {
	BackgroundColor #fff-#f5f5f5
  	BorderColor #0568ae
	FontColor #0568ae
	BorderThickness 2
}

skinparam state {
	StartColor #0568ae
	EndColor #0568ae
	BackgroundColor #f2f2f2-#c2c2c2
	BorderColor #c2c2c2
	FontColor #0568ae
	AttributeFontColor #5a5a5a
	AttributeFontSize 11
}

skinparam queue {
	BackgroundColor #ea7400-#bb5d00
  	BorderColor #bb5d00
	FontColor #fff
}

skinparam card {
	BackgroundColor #3786be-#0568ae
	BorderColor #0568ae
	FontColor #fff
}

skinparam file {
	BackgroundColor #f5f5f5-#f2f2f2
	BorderColor #959595
	FontColor #959595

}

skinparam stack {
	BackgroundColor #33b2e2-#007faf
	BorderColor #009fdb
	FontColor #fff
}

title Class Diagram - bluegray theme


abstract class AbstractList
abstract AbstractCollection
interface List
interface Collection

List <|- - AbstractList
Collection <|- - AbstractCollection

Collection <|- List
AbstractCollection <|- AbstractList
AbstractList <|- - ArrayList

class ArrayList {
  Object[] elementData
  size()
}

enum TimeUnit {
  DAYS
  HOURS
  MINUTES
}

annotation SuppressWarnings

@enduml

PlantUML version 1.2019.12(Sun Nov 03 02:24:54 PST 2019)
(GPL source distribution)
Java Runtime: OpenJDK Runtime Environment
JVM: OpenJDK 64-Bit Server VM
Java Version: 11.0.4+11-post-Ubuntu-1ubuntu218.04.3
Operating System: Linux
Default Encoding: UTF-8
Language: en
Country: US
--></g></svg>