<?xml version="1.0" encoding="UTF-8" standalone="no"?><svg xmlns="http://www.w3.org/2000/svg" xmlns:xlink="http://www.w3.org/1999/xlink" contentScriptType="application/ecmascript" contentStyleType="text/css" height="695.8333px" preserveAspectRatio="none" style="width:869px;height:695px;" version="1.1" viewBox="0 0 869 695" width="869.7917px" zoomAndPan="magnify"><defs><linearGradient id="gzer44x2rcudb0" x1="50%" x2="50%" y1="0%" y2="100%"><stop offset="0%" stop-color="#F5F5F5"/><stop offset="100%" stop-color="#F2F2F2"/></linearGradient><linearGradient id="gzer44x2rcudb1" x1="50%" x2="50%" y1="0%" y2="100%"><stop offset="0%" stop-color="#FFFFFF"/><stop offset="100%" stop-color="#F2FCFE"/></linearGradient><linearGradient id="gzer44x2rcudb2" x1="50%" x2="50%" y1="0%" y2="100%"><stop offset="0%" stop-color="#33B2E2"/><stop offset="100%" stop-color="#009FDB"/></linearGradient><linearGradient id="gzer44x2rcudb3" x1="50%" x2="50%" y1="0%" y2="100%"><stop offset="0%" stop-color="#FFFFFF"/><stop offset="100%" stop-color="#F5F5F5"/></linearGradient><linearGradient id="gzer44x2rcudb4" x1="50%" x2="50%" y1="0%" y2="100%"><stop offset="0%" stop-color="#C4CA33"/><stop offset="100%" stop-color="#B5BD00"/></linearGradient><linearGradient id="gzer44x2rcudb5" x1="50%" x2="50%" y1="0%" y2="100%"><stop offset="0%" stop-color="#FFFFFF"/><stop offset="100%" stop-color="#D2D2D2"/></linearGradient><linearGradient id="gzer44x2rcudb6" x1="50%" x2="50%" y1="0%" y2="100%"><stop offset="0%" stop-color="#EE9033"/><stop offset="100%" stop-color="#EA7400"/></linearGradient><linearGradient id="gzer44x2rcudb7" x1="50%" x2="50%" y1="0%" y2="100%"><stop offset="0%" stop-color="#EA7400"/><stop offset="100%" stop-color="#BB5D00"/></linearGradient><linearGradient id="gzer44x2rcudb8" x1="50%" x2="50%" y1="0%" y2="100%"><stop offset="0%" stop-color="#3786BE"/><stop offset="100%" stop-color="#0568AE"/></linearGradient><linearGradient id="gzer44x2rcudb9" x1="50%" x2="50%" y1="0%" y2="100%"><stop offset="0%" stop-color="#33B2E2"/><stop offset="100%" stop-color="#007FAF"/></linearGradient></defs><g><rect fill="url(#gzer44x2rcudb0)" height="46.1528" rx="4.1667" ry="4.1667" style="stroke: #C2C2C2; stroke-width: 1.0416666666666667;" width="432.2917" x="221.875" y="2.0833"/><text fill="#009FDB" font-family="Verdana" font-size="20.8333" lengthAdjust="spacingAndGlyphs" textLength="405.2083" x="235.4167" y="33.4452">Component Diagram - bluegray theme</text><!--MD5=[98956307d0c47524864de5bf9cdc747b]
cluster My Package--><path d="M29.1667,76.3611 L119.7917,76.3611 A6.25,6.25 0 0 1 123.9583,80.5278 L131.25,108.2194 L450,108.2194 A4.1667,4.1667 0 0 1 454.1667,112.3861 L454.1667,180.5278 A4.1667,4.1667 0 0 1 450,184.6944 L29.1667,184.6944 A4.1667,4.1667 0 0 1 25,180.5278 L25,80.5278 A4.1667,4.1667 0 0 1 29.1667,76.3611 " fill="url(#gzer44x2rcudb0)" style="stroke: #009FDB; stroke-width: 1.5625;"/><line style="stroke: #009FDB; stroke-width: 1.5625;" x1="25" x2="131.25" y1="108.2194" y2="108.2194"/><text fill="#009FDB" font-family="Verdana" font-size="12.5" font-weight="bold" lengthAdjust="spacingAndGlyphs" textLength="82.2917" x="34.375" y="96.2199">My Package</text><!--MD5=[994b84a7865cf3a30290d65f6358d5f5]
cluster My Node--><polygon fill="url(#gzer44x2rcudb0)" points="22.9167,220.1111,33.3333,209.6944,271.875,209.6944,271.875,312.8194,261.4583,323.2361,22.9167,323.2361,22.9167,220.1111" style="stroke: #C2C2C2; stroke-width: 1.5625;"/><line style="stroke: #C2C2C2; stroke-width: 1.5625;" x1="261.4583" x2="270.8333" y1="220.1111" y2="210.7361"/><line style="stroke: #C2C2C2; stroke-width: 1.5625;" x1="22.9167" x2="261.4583" y1="220.1111" y2="220.1111"/><line style="stroke: #C2C2C2; stroke-width: 1.5625;" x1="261.4583" x2="261.4583" y1="220.1111" y2="323.2361"/><text fill="#009FDB" font-family="Verdana" font-size="12.5" font-weight="bold" lengthAdjust="spacingAndGlyphs" textLength="59.375" x="113.5417" y="241.0116">My Node</text><!--MD5=[8f762177cf9f076b8ea6eac76c5df33e]
cluster My Cloud--><path d="M312.7171,225.0471 C315.5564,217.1176 321.2688,217.3806 326.3723,222.7164 C328.5408,215.0809 332.2665,214.2 338.133,219.3022 C341.3935,212.7976 347.339,211.5933 351.6539,218.2162 C354.232,211.8758 359.765,212.4404 363.5551,216.878 C368.2694,211.0724 374.0754,213.2635 376.7409,219.1822 C381.9626,213.8318 387.8045,214.2207 391.1833,221.32 C395.7104,215.9037 400.8071,216.4046 403.6109,223.0897 C412.4215,217.2302 420.0001,219.3567 421.875,230.5278 C422.4358,230.0878 422.9761,230.1394 423.1438,230.9323 C431.1201,233.2307 432.3485,239.424 426.7352,245.1542 C433.256,246.4819 435.6469,252.2143 430.6083,257.2449 C436.8975,260.9289 436.8969,265.1559 431.9277,270.0042 C435.7594,275.7008 436.0661,280.0215 428.3692,282.4117 C433.8996,288.2838 433.4249,293.0391 425.6611,296.3233 C429.5695,307.2071 427.8719,314.2723 414.5833,314.9028 C415.3202,314.0026 415.8949,314.0406 416.4215,315.0999 C413.8367,321.2306 408.5068,322.7238 403.4279,318.1186 C401.1321,325.8425 395.0049,326.6441 390.2337,320.4683 C387.0842,327.6479 381.2358,328.7933 376.7066,321.7836 C373.9352,327.5297 369.2287,328.6252 365.4402,322.7714 C361.1813,329.9145 354.8324,330.1566 351.0743,322.292 C346.6641,326.5258 342.1809,325.4441 340.0692,319.7453 C335.6115,324.9541 329.0475,324.0793 326.8816,317.2374 C317.3309,323.9271 306.0269,320.5815 305.2083,307.6111 C305.7789,307.3037 306.1412,307.598 306.2219,308.1735 C299.6932,305.2394 298.5011,301.4448 303.691,296.0618 C298.0495,293.581 296.0287,288.9746 301.1702,284.2019 C294.4826,282.3319 292.433,276.6898 296.9384,271.1817 C291.2292,264.784 294.5142,259.6304 301.4507,257.3615 C295.7927,251.9928 297.1451,248.0821 303.9169,245.2431 C297.2204,235.1636 297.9637,225.0345 312.5,223.2361 C313.4276,223.703 313.4637,224.3796 312.7171,225.0471 " fill="url(#gzer44x2rcudb1)" style="stroke: #F2F2F2; stroke-width: 1.5625;"/><text fill="#5A5A5A" font-family="Verdana" font-size="12.5" font-weight="bold" lengthAdjust="spacingAndGlyphs" textLength="62.5" x="332.2917" y="246.2199">My Cloud</text><!--MD5=[5435dd1da01795d79a1d1bdb7811705f]
cluster My Database--><path d="M279.1667,358.6528 C279.1667,348.2361 363.5417,348.2361 363.5417,348.2361 C363.5417,348.2361 447.9167,348.2361 447.9167,358.6528 L447.9167,673.2361 C447.9167,683.6528 363.5417,683.6528 363.5417,683.6528 C363.5417,683.6528 279.1667,683.6528 279.1667,673.2361 L279.1667,358.6528 " fill="url(#gzer44x2rcudb2)" style="stroke: #007FAF; stroke-width: 1.5625;"/><path d="M279.1667,358.6528 C279.1667,369.0694 363.5417,369.0694 363.5417,369.0694 C363.5417,369.0694 447.9167,369.0694 447.9167,358.6528 " fill="none" style="stroke: #007FAF; stroke-width: 1.5625;"/><text fill="#FFFFFF" font-family="Verdana" font-size="12.5" font-weight="bold" lengthAdjust="spacingAndGlyphs" textLength="88.5417" x="319.2708" y="388.9282">My Database</text><!--MD5=[db3eb734e65e00defc1adec42c70b029]
cluster My folder--><path d="M308.3333,416.9861 L381.25,416.9861 A6.25,6.25 0 0 1 385.4167,421.1528 L392.7083,448.8444 L418.75,448.8444 A4.1667,4.1667 0 0 1 422.9167,453.0111 L422.9167,521.1528 A4.1667,4.1667 0 0 1 418.75,525.3194 L308.3333,525.3194 A4.1667,4.1667 0 0 1 304.1667,521.1528 L304.1667,421.1528 A4.1667,4.1667 0 0 1 308.3333,416.9861 " fill="url(#gzer44x2rcudb3)" style="stroke: #EA7400; stroke-width: 1.5625;"/><line style="stroke: #EA7400; stroke-width: 1.5625;" x1="304.1667" x2="392.7083" y1="448.8444" y2="448.8444"/><text fill="#EA7400" font-family="Verdana" font-size="12.5" font-weight="bold" lengthAdjust="spacingAndGlyphs" textLength="64.5833" x="313.5417" y="436.8449">My folder</text><!--MD5=[2f95c9c104e26437854e71862f3d840e]
cluster My Frame--><rect fill="url(#gzer44x2rcudb3)" height="108.3333" rx="4.1667" ry="4.1667" style="stroke: #0568AE; stroke-width: 1.5625;" width="118.75" x="304.1667" y="550.3194"/><path d="M392.7083,551.3611 L392.7083,568.6361 L382.2917,579.0527 L304.1667,579.0527 " fill="none" style="stroke: #0568AE; stroke-width: 1.5625;"/><text fill="#0568AE" font-family="Verdana" font-size="12.5" font-weight="bold" lengthAdjust="spacingAndGlyphs" textLength="67.7083" x="312.5" y="569.1366">My Frame</text><!--MD5=[96f7e1299d4a43069e6ed32352fcac20]
entity HTTP--><ellipse cx="227.0833" cy="144.5903" fill="#D95555" rx="8.3333" ry="8.3333" style="stroke: #CF2A2A; stroke-width: 2.0833333333333335;"/><text fill="#5A5A5A" font-family="Verdana" font-size="12.5" lengthAdjust="spacingAndGlyphs" textLength="32.2917" x="210.9375" y="180.0741">HTTP</text><!--MD5=[cbd7cda55f2530e2efe43ec72c097853]
entity First Component--><rect fill="url(#gzer44x2rcudb4)" height="46.4417" rx="4.1667" ry="4.1667" style="stroke: #B5BD00; stroke-width: 1.5625;" width="139.5833" x="41.6667" y="121.1528"/><rect fill="url(#gzer44x2rcudb4)" height="5.2083" style="stroke: #B5BD00; stroke-width: 1.5625;" width="10.4167" x="36.4583" y="126.3611"/><rect fill="url(#gzer44x2rcudb4)" height="5.2083" style="stroke: #B5BD00; stroke-width: 1.5625;" width="10.4167" x="36.4583" y="157.1777"/><text fill="#FFFFFF" font-family="Verdana" font-size="12.5" lengthAdjust="spacingAndGlyphs" textLength="108.3333" x="57.2917" y="149.3449">First Component</text><!--MD5=[b9d11f23832c1491231c5b33e55ab8c6]
entity Another Component--><rect fill="url(#gzer44x2rcudb4)" height="46.4417" rx="4.1667" ry="4.1667" style="stroke: #B5BD00; stroke-width: 1.5625;" width="163.5417" x="273.4375" y="121.1528"/><rect fill="url(#gzer44x2rcudb4)" height="5.2083" style="stroke: #B5BD00; stroke-width: 1.5625;" width="10.4167" x="268.2292" y="126.3611"/><rect fill="url(#gzer44x2rcudb4)" height="5.2083" style="stroke: #B5BD00; stroke-width: 1.5625;" width="10.4167" x="268.2292" y="157.1777"/><text fill="#FFFFFF" font-family="Verdana" font-size="12.5" lengthAdjust="spacingAndGlyphs" textLength="132.2917" x="289.0625" y="149.3449">Another Component</text><!--MD5=[76af18d92d7d7c0f7ebd8f4f605ac5aa]
entity FTP--><ellipse cx="48.9583" cy="283.1319" fill="#D95555" rx="8.3333" ry="8.3333" style="stroke: #CF2A2A; stroke-width: 2.0833333333333335;"/><text fill="#5A5A5A" font-family="Verdana" font-size="12.5" lengthAdjust="spacingAndGlyphs" textLength="22.9167" x="37.5" y="318.6157">FTP</text><!--MD5=[0e2cc1aee2c7f52697e111b4fb84546c]
entity Second Component--><rect fill="url(#gzer44x2rcudb4)" height="46.4417" rx="4.1667" ry="4.1667" style="stroke: #B5BD00; stroke-width: 1.5625;" width="159.375" x="95.3125" y="259.6944"/><rect fill="url(#gzer44x2rcudb4)" height="5.2083" style="stroke: #B5BD00; stroke-width: 1.5625;" width="10.4167" x="90.1042" y="264.9028"/><rect fill="url(#gzer44x2rcudb4)" height="5.2083" style="stroke: #B5BD00; stroke-width: 1.5625;" width="10.4167" x="90.1042" y="295.7194"/><text fill="#FFFFFF" font-family="Verdana" font-size="12.5" lengthAdjust="spacingAndGlyphs" textLength="128.125" x="110.9375" y="287.8866">Second Component</text><!--MD5=[243c1e580c31013c48b02624e18b25a7]
entity Example 1--><rect fill="url(#gzer44x2rcudb4)" height="46.4417" rx="4.1667" ry="4.1667" style="stroke: #B5BD00; stroke-width: 1.5625;" width="98.9583" x="314.0625" y="259.6944"/><rect fill="url(#gzer44x2rcudb4)" height="5.2083" style="stroke: #B5BD00; stroke-width: 1.5625;" width="10.4167" x="308.8542" y="264.9028"/><rect fill="url(#gzer44x2rcudb4)" height="5.2083" style="stroke: #B5BD00; stroke-width: 1.5625;" width="10.4167" x="308.8542" y="295.7194"/><text fill="#FFFFFF" font-family="Verdana" font-size="12.5" lengthAdjust="spacingAndGlyphs" textLength="67.7083" x="329.6875" y="287.8866">Example 1</text><!--MD5=[3e0e08c92570480402984701ab5a6d2d]
entity Folder 3--><rect fill="url(#gzer44x2rcudb4)" height="46.4417" rx="4.1667" ry="4.1667" style="stroke: #B5BD00; stroke-width: 1.5625;" width="84.375" x="321.3542" y="461.7778"/><rect fill="url(#gzer44x2rcudb4)" height="5.2083" style="stroke: #B5BD00; stroke-width: 1.5625;" width="10.4167" x="316.1458" y="466.9861"/><rect fill="url(#gzer44x2rcudb4)" height="5.2083" style="stroke: #B5BD00; stroke-width: 1.5625;" width="10.4167" x="316.1458" y="497.8027"/><text fill="#FFFFFF" font-family="Verdana" font-size="12.5" lengthAdjust="spacingAndGlyphs" textLength="53.125" x="336.9792" y="489.9699">Folder 3</text><!--MD5=[63877ed85df621d134a6c80fb52dad56]
entity Frame 4--><rect fill="url(#gzer44x2rcudb4)" height="46.4417" rx="4.1667" ry="4.1667" style="stroke: #B5BD00; stroke-width: 1.5625;" width="84.375" x="321.3542" y="595.1111"/><rect fill="url(#gzer44x2rcudb4)" height="5.2083" style="stroke: #B5BD00; stroke-width: 1.5625;" width="10.4167" x="316.1458" y="600.3194"/><rect fill="url(#gzer44x2rcudb4)" height="5.2083" style="stroke: #B5BD00; stroke-width: 1.5625;" width="10.4167" x="316.1458" y="631.1361"/><text fill="#FFFFFF" font-family="Verdana" font-size="12.5" lengthAdjust="spacingAndGlyphs" textLength="53.125" x="336.9792" y="623.3032">Frame 4</text><!--MD5=[4d6c9a8b502f46c0f85d26a51e5d57ce]
entity My Artifact--><rect fill="url(#gzer44x2rcudb5)" height="49.5667" rx="4.1667" ry="4.1667" style="stroke: #959595; stroke-width: 1.5625;" width="109.375" x="473.4375" y="119.5903"/><polygon fill="url(#gzer44x2rcudb5)" points="565.1042,124.7986,565.1042,139.3819,577.6042,139.3819,577.6042,131.0486,571.3542,124.7986,565.1042,124.7986" style="stroke: #959595; stroke-width: 1.5625;"/><line style="stroke: #959595; stroke-width: 1.5625;" x1="571.3542" x2="571.3542" y1="124.7986" y2="131.0486"/><line style="stroke: #959595; stroke-width: 1.5625;" x1="577.6042" x2="571.3542" y1="131.0486" y2="131.0486"/><text fill="#959595" font-family="Verdana" font-size="12.5" lengthAdjust="spacingAndGlyphs" textLength="67.7083" x="489.0625" y="150.9074">My Artifact</text><!--MD5=[6013850653c05993d855a7b82b2ebd6f]
entity My Storage--><rect fill="url(#gzer44x2rcudb6)" height="46.4417" rx="36.4583" ry="36.4583" style="stroke: #EA7400; stroke-width: 1.5625;" width="105.2083" x="619.2708" y="121.1528"/><text fill="#FFFFFF" font-family="Verdana" font-size="12.5" lengthAdjust="spacingAndGlyphs" textLength="73.9583" x="634.8958" y="149.3449">My Storage</text><!--MD5=[decf897d207c1b699121f5d4005ef96e]
entity My Queue--><path d="M766.1458,126.3611 L852.6042,126.3611 C857.8125,126.3611 857.8125,144.3736 857.8125,144.3736 C857.8125,144.3736 857.8125,162.3861 852.6042,162.3861 L766.1458,162.3861 C760.9375,162.3861 760.9375,144.3736 760.9375,144.3736 C760.9375,144.3736 760.9375,126.3611 766.1458,126.3611 " fill="url(#gzer44x2rcudb7)" style="stroke: #BB5D00; stroke-width: 1.5625;"/><path d="M852.6042,126.3611 C847.3958,126.3611 847.3958,144.3736 847.3958,144.3736 C847.3958,162.3861 852.6042,162.3861 852.6042,162.3861 " fill="none" style="stroke: #BB5D00; stroke-width: 1.5625;"/><text fill="#FFFFFF" font-family="Verdana" font-size="12.5" lengthAdjust="spacingAndGlyphs" textLength="65.625" x="771.3542" y="149.3449">My Queue</text><!--MD5=[db0b4290d55c456da6f1e605315daa68]
entity My Interface--><ellipse cx="528.125" cy="283.1319" fill="#D95555" rx="8.3333" ry="8.3333" style="stroke: #CF2A2A; stroke-width: 2.0833333333333335;"/><text fill="#5A5A5A" font-family="Verdana" font-size="12.5" lengthAdjust="spacingAndGlyphs" textLength="81.25" x="487.5" y="318.6157">My Interface</text><!--MD5=[c42dbb279bb2c76edeffd08640135261]
entity My Card--><rect fill="url(#gzer44x2rcudb8)" height="31.8583" rx="4.1667" ry="4.1667" style="stroke: #0568AE; stroke-width: 1.5625;" width="84.375" x="619.2708" y="266.9861"/><text fill="#FFFFFF" font-family="Verdana" font-size="12.5" lengthAdjust="spacingAndGlyphs" textLength="53.125" x="634.8958" y="287.8866">My Card</text><!--MD5=[4552e0ab931d4db86ba1ccdf7169c968]
entity My File--><path d="M740.625,263.8611 L740.625,301.9694 A4.1667,4.1667 0 0 0 744.7917,306.1361 L811.4583,306.1361 A4.1667,4.1667 0 0 0 815.625,301.9694 L815.625,270.1111 L805.2083,259.6944 L744.7917,259.6944 A4.1667,4.1667 0 0 0 740.625,263.8611 " fill="url(#gzer44x2rcudb0)" style="stroke: #959595; stroke-width: 1.5625;"/><path d="M805.2083,259.6944 L805.2083,265.9444 A4.1667,4.1667 0 0 0 809.375,270.1111 L815.625,270.1111 " fill="url(#gzer44x2rcudb0)" style="stroke: #959595; stroke-width: 1.5625;"/><text fill="#959595" font-family="Verdana" font-size="12.5" lengthAdjust="spacingAndGlyphs" textLength="43.75" x="756.25" y="287.8866">My File</text><!--MD5=[5a51615613d2b2569e36ac803df4b251]
entity My Stack--><rect fill="url(#gzer44x2rcudb9)" height="46.4417" rx="4.1667" ry="4.1667" style="stroke: none; stroke-width: 1.5625;" width="88.5417" x="483.8542" y="461.7778"/><path d="M468.2292,461.7778 L479.6875,461.7778 A4.1667,4.1667 0 0 1 483.8542,465.9444 L483.8542,504.0527 A4.1667,4.1667 0 0 0 488.0208,508.2194 L568.2292,508.2194 A4.1667,4.1667 0 0 0 572.3958,504.0527 L572.3958,465.9444 A4.1667,4.1667 0 0 1 576.5625,461.7778 L588.0208,461.7778 " fill="none" style="stroke: #009FDB; stroke-width: 1.5625;"/><text fill="#FFFFFF" font-family="Verdana" font-size="12.5" lengthAdjust="spacingAndGlyphs" textLength="57.2917" x="499.4792" y="489.9699">My Stack</text><!--MD5=[46d996859f59e5baf77956ce93023cee]
link HTTP to First Component--><path d="M217.4604,144.5903 C205.4625,144.5903 193.4635,144.5903 181.4656,144.5903 " fill="none" id="HTTP-First Component" style="stroke: #009FDB; stroke-width: 3.125;"/><!--MD5=[1966a42bb49d59057147dbda06282f4b]
link FTP to Second Component--><path d="M58.8053,283.1319 C70.909,283.1319 83.0126,283.1319 95.1161,283.1319 " fill="none" id="FTP-Second Component" style="stroke: #009FDB; stroke-width: 3.125;"/><!--MD5=[d3aefbd8005e27b21e7ce98ddd948193]
link First Component to FTP--><path d="M96.0832,168.0475 C89.6856,177.9757 82.5031,189.9663 77.0833,201.3611 C66.3157,223.9996 57.5134,251.908 52.7704,268.2767 " fill="none" id="First Component-&gt;FTP" style="stroke: #009FDB; stroke-width: 3.125;"/><polygon fill="#009FDB" points="51.3205,273.3621,57.8987,265.4895,52.749,268.3535,49.885,263.2038,51.3205,273.3621" style="stroke: #009FDB; stroke-width: 3.125;"/><!--MD5=[efc1ffe8b578a0fb156c7bce303319bb]
link Another Component to Example 1--><path d="M356.5844,168.1653 C358.026,191.7694 360.2917,228.8788 361.8438,254.2882 " fill="none" id="Another Component-&gt;Example 1" style="stroke: #009FDB; stroke-width: 3.125;"/><polygon fill="#009FDB" points="362.1635,259.5236,365.7493,249.9114,361.8451,254.325,357.4315,250.4208,362.1635,259.5236" style="stroke: #009FDB; stroke-width: 3.125;"/><!--MD5=[7ec8393a78a133520e8846dd05a7857a]
link Example 1 to Folder 3--><path d="M363.5417,306.7278 C363.5417,343.4361 363.5417,416.0184 363.5417,456.0413 " fill="none" id="Example 1-&gt;Folder 3" style="stroke: #009FDB; stroke-width: 3.125;"/><polygon fill="#009FDB" points="363.5417,461.7028,367.7083,452.3278,363.5417,456.4944,359.375,452.3278,363.5417,461.7028" style="stroke: #009FDB; stroke-width: 3.125;"/><!--MD5=[b96c7096199393c1414a8b4e9ed2c30f]
link Folder 3 to Frame 4--><path d="M363.5417,508.8194 C363.5417,531.1694 363.5417,565.4507 363.5417,589.5225 " fill="none" id="Folder 3-&gt;Frame 4" style="stroke: #009FDB; stroke-width: 3.125;"/><polygon fill="#009FDB" points="363.5417,594.7996,367.7083,585.4246,363.5417,589.5913,359.375,585.4246,363.5417,594.7996" style="stroke: #009FDB; stroke-width: 3.125;"/><!--MD5=[b21a3c93c2a22c7ef4934ace81b9a2fe]
link My Artifact to My Storage--><!--MD5=[e181977624df3f2540e75050355d9c90]
link My Storage to My Queue--><!--MD5=[756be6e13c059af04edf2b7b91188131]
link My Artifact to My Interface--><!--MD5=[9bfee3aea78949ae207e8bd3b67fed50]
link My Interface to My Card--><!--MD5=[7d5148706a659d88e9a451ba2a45522c]
link My Card to My File--><!--MD5=[25b27bb9c6f1602048cde482562a8061]
link My Interface to My Stack--><!--MD5=[e28bac98ba6f8247fd0666e4c8ee3bf6]
@startuml



skinparam backgroundColor transparent







skinparam defaultFontName        "Verdana"
skinparam defaultFontSize        12
skinparam dpi                    100
skinparam shadowing              false
skinparam roundcorner            8
skinparam ParticipantPadding     30
skinparam BoxPadding             40
skinparam Padding                5
skinparam ArrowColor             #959595
skinparam stereotype {
    CBackgroundColor #f5f5f5
    CBorderColor #c2c2c2
    ABackgroundColor #c4ca33
    ABorderColor #919700
    IBackgroundColor #d95555
    IBorderColor #a62222
    EBackgroundColor #ee9033
    EBorderColor #bb5d00
    NBackgroundColor #3786be
    NBorderColor #04538b
}
skinparam title {
	FontColor	                 #009fdb
	BorderColor	                 #c2c2c2
	FontSize	    	         20
	BorderRoundCorner            8
	BorderThickness 	         1
	BackgroundColor              #f5f5f5-#f2f2f2
}


skinparam legend {
	BackgroundColor #f2f2f2
	BorderColor #c2c2c2
	FontColor #5a5a5a
}

skinparam activity {
	FontColor #fff
	BorderColor #009fdb
	BackgroundColor #33b2e2-#009fdb
	BarColor #b5bd00
	StartColor #0568ae
	EndColor #0568ae
	DiamondBackgroundColor #fff-#f5f5f5
  	DiamondBorderColor #c2c2c2
	DiamondFontColor #5a5a5a
}

skinparam sequence {
	BorderColor #009fdb
	TitleFontColor #009fdb
	BackgroundColor transparent
	StartColor #009fdb
	EndColor #009fdb
	ParticipantBackgroundColor #33b2e2-#009fdb
    ParticipantBorderColor #009fdb
	ParticipantBorderThickness 0
	ParticipantFontColor #fff
	ActorBackgroundColor transparent
    ActorBorderColor #009fdb
	ActorFontColor #009fdb
	ArrowThickness 3
	ArrowColor #009fdb
	ArrowFontColor #5a5a5a
	BoxBackgroundColor #d2d2d2
	BoxBorderColor #959595
	BoxFontColor #5a5a5a
	LifeLineBorderColor #c2c2c2
	LifeLineBorderThickness 2
	LifeLineBackgroundColor #f5f5f5
	GroupBorderColor #959595
	GroupFontColor #5a5a5a
	GroupHeaderFontColor #0568ae
	DividerBackgroundColor #fff-#d2d2d2
    DividerBorderColor #959595
    DividerBorderThickness 2
    DividerFontColor #5a5a5a
	ReferenceBackgroundColor transparent
	ReferenceBorderColor #959595
	ReferenceFontColor #5a5a5a
	ReferenceHeaderFontColor #0568ae
}

skinparam partition {
	BorderColor #009fdb
	FontColor #009fdb
	BackgroundColor transparent
}

skinparam collections {
	BackgroundColor #33b2e2-#009fdb
	BorderColor #009fdb
}

skinparam control {
	BackgroundColor  #33b2e2-#009fdb
	BorderColor #007faf
	FontColor #5a5a5a
}

skinparam entity {
	BackgroundColor  #33b2e2-#009fdb
	BorderColor #007faf
	FontColor #5a5a5a
}

skinparam boundary {
	BackgroundColor  #33b2e2-#009fdb
	BorderColor #007faf
	FontColor #5a5a5a
}

skinparam agent {
	BackgroundColor #orange
	BorderColor #999999
	FontColor #333333
}

skinparam note {
	BorderThickness 1
	BackgroundColor #3786be-#0568ae
	BorderColor #0568ae
	FontColor #fff
}

skinparam artifact {
	BackgroundColor #fff-#d2d2d2
	BorderColor #959595
	FontColor #959595
}

skinparam component {
	BackgroundColor  #c4ca33-#b5bd00
	BorderColor  #b5bd00
	FontColor #fff
}

skinparam interface {
	BackgroundColor  #d95555
	BorderColor  #cf2a2a
	FontColor #5a5a5a
}

skinparam storage {
	BackgroundColor #ee9033-#ea7400
  	BorderColor #ea7400
	FontColor #fff
}

skinparam node {
	BackgroundColor #f5f5f5-#f2f2f2
	BorderColor #c2c2c2
	FontColor #009fdb
	StereotypeFontColor #5a5a5a
}

skinparam cloud {
	BackgroundColor white-#F2FCFE
	BorderColor #f2f2f2
	FontColor #5a5a5a
}

skinparam database {
    BackgroundColor  #33b2e2-#009fdb
	BorderColor #007faf
	FontColor #fff
	StereotypeFontColor #d2d2d2
}

skinparam actor {
	FontColor #5a5a5a
}

skinparam class {
	HeaderBackgroundColor #009fdb-#007faf
	FontColor #fff
	BackgroundColor #33b2e2-#009fdb
	BorderColor #007faf
	StereotypeFontColor #5a5a5a
	BorderThickness 1
	AttributeFontColor #d2d2d2
	AttributeFontSize 11
}

skinparam object {
	FontColor #b5bd00
	BackgroundColor #f2f2f2-#c2c2c2
	BorderColor #c2c2c2
	StereotypeFontColor #5a5a5a
	BorderThickness 1
	AttributeFontColor #5a5a5a
	AttributeFontSize 11
}

skinparam usecase {
	BackgroundColor #f2f2f2-#c2c2c2
	BorderColor #c2c2c2
	BorderThickness 2
	FontColor #5a5a5a
	StereotypeFontColor #009fdb
}

skinparam rectangle {
	BackgroundColor #f5f5f5-#f2f2f2
	BorderColor #007faf
	BorderThickness 2
	FontColor #009fdb
	StereotypeFontColor #009fdb
}

skinparam package {
	BackgroundColor #f5f5f5-#f2f2f2
  	BorderColor #009fdb
	FontColor #009fdb
	BorderThickness 2
}

skinparam folder {
	BackgroundColor #fff-#f5f5f5
  	BorderColor #ea7400
	FontColor #ea7400
	BorderThickness 2
}

skinparam frame {
	BackgroundColor #fff-#f5f5f5
  	BorderColor #0568ae
	FontColor #0568ae
	BorderThickness 2
}

skinparam state {
	StartColor #0568ae
	EndColor #0568ae
	BackgroundColor #f2f2f2-#c2c2c2
	BorderColor #c2c2c2
	FontColor #0568ae
	AttributeFontColor #5a5a5a
	AttributeFontSize 11
}

skinparam queue {
	BackgroundColor #ea7400-#bb5d00
  	BorderColor #bb5d00
	FontColor #fff
}

skinparam card {
	BackgroundColor #3786be-#0568ae
	BorderColor #0568ae
	FontColor #fff
}

skinparam file {
	BackgroundColor #f5f5f5-#f2f2f2
	BorderColor #959595
	FontColor #959595

}

skinparam stack {
	BackgroundColor #33b2e2-#007faf
	BorderColor #009fdb
	FontColor #fff
}

title Component Diagram - bluegray theme


package "My Package" {
  HTTP - [First Component]
  [Another Component]
}
 
node "My Node" {
  FTP - [Second Component]
  [First Component] - -> FTP
} 

cloud "My Cloud" {
  [Example 1]
}


database "My Database" {
  folder "My folder" {
	[Folder 3]
  }
  frame "My Frame" {
	[Frame 4]
  }
}

artifact "My Artifact"
storage "My Storage"
queue "My Queue"
interface "My Interface"
card "My Card"
file "My File"
stack "My Stack"

[Another Component] - -> [Example 1]
[Example 1] - -> [Folder 3]
[Folder 3] - -> [Frame 4]

@enduml

PlantUML version 1.2019.12(Sun Nov 03 02:24:54 PST 2019)
(GPL source distribution)
Java Runtime: Java(TM) SE Runtime Environment
JVM: Java HotSpot(TM) 64-Bit Server VM
Java Version: 1.8.0_212-b32
Operating System: Windows 10
Default Encoding: Cp1252
Language: en
Country: US
--></g></svg>