<?xml version="1.0" encoding="UTF-8" standalone="no"?><svg xmlns="http://www.w3.org/2000/svg" xmlns:xlink="http://www.w3.org/1999/xlink" contentScriptType="application/ecmascript" contentStyleType="text/css" height="1419.7917px" preserveAspectRatio="none" style="width:1289px;height:1419px;" version="1.1" viewBox="0 0 1289 1419" width="1289.5833px" zoomAndPan="magnify"><defs><linearGradient id="gjkw9njd01we20" x1="50%" x2="50%" y1="0%" y2="100%"><stop offset="0%" stop-color="#F5F5F5"/><stop offset="100%" stop-color="#F2F2F2"/></linearGradient><linearGradient id="gjkw9njd01we21" x1="50%" x2="50%" y1="0%" y2="100%"><stop offset="0%" stop-color="#33B2E2"/><stop offset="100%" stop-color="#009FDB"/></linearGradient><linearGradient id="gjkw9njd01we22" x1="50%" x2="50%" y1="0%" y2="100%"><stop offset="0%" stop-color="#FFFFFF"/><stop offset="100%" stop-color="#D2D2D2"/></linearGradient><linearGradient id="gjkw9njd01we23" x1="50%" x2="50%" y1="0%" y2="100%"><stop offset="0%" stop-color="#3786BE"/><stop offset="100%" stop-color="#0568AE"/></linearGradient></defs><g><rect fill="url(#gjkw9njd01we20)" height="36.025" rx="4.1667" ry="4.1667" style="stroke: #C2C2C2; stroke-width: 1.0416666666666667;" width="278.125" x="500.5208" y="30.8167"/><text fill="#009FDB" font-family="Verdana" font-size="12.5" font-weight="bold" lengthAdjust="spacingAndGlyphs" textLength="251.0417" x="514.0625" y="53.8005">Sequence Diagram - bluegray theme</text><rect fill="#D2D2D2" height="1311.1328" rx="4.1667" ry="4.1667" style="stroke: #959595; stroke-width: 1.0416666666666667;" width="304.1667" x="930.2083" y="78.3"/><text fill="#5A5A5A" font-family="Verdana" font-size="12.5" font-weight="bold" lengthAdjust="spacingAndGlyphs" textLength="111.4583" x="1026.5625" y="96.0754">Internal Service</text><rect fill="#F5F5F5" height="242.7999" style="stroke: #C2C2C2; stroke-width: 1.0416666666666667;" width="10.4167" x="392.1875" y="331.7749"/><line style="stroke: #C2C2C2; stroke-width: 1.0416666666666667;" x1="68.75" x2="68.75" y1="168.4916" y2="582.9081"/><line style="stroke: #C2C2C2; stroke-width: 1.0416666666666667; stroke-dasharray: 1.0,4.0;" x1="68.75" x2="68.75" y1="582.9081" y2="637.6831"/><line style="stroke: #C2C2C2; stroke-width: 1.0416666666666667;" x1="68.75" x2="68.75" y1="637.6831" y2="1295.0745"/><line style="stroke: #C2C2C2; stroke-width: 1.0416666666666667;" x1="241.6667" x2="241.6667" y1="168.4916" y2="582.9081"/><line style="stroke: #C2C2C2; stroke-width: 1.0416666666666667; stroke-dasharray: 1.0,4.0;" x1="241.6667" x2="241.6667" y1="582.9081" y2="637.6831"/><line style="stroke: #C2C2C2; stroke-width: 1.0416666666666667;" x1="241.6667" x2="241.6667" y1="637.6831" y2="1295.0745"/><line style="stroke: #C2C2C2; stroke-width: 1.0416666666666667;" x1="396.875" x2="396.875" y1="168.4916" y2="582.9081"/><line style="stroke: #C2C2C2; stroke-width: 1.0416666666666667; stroke-dasharray: 1.0,4.0;" x1="396.875" x2="396.875" y1="582.9081" y2="637.6831"/><line style="stroke: #C2C2C2; stroke-width: 1.0416666666666667;" x1="396.875" x2="396.875" y1="637.6831" y2="1295.0745"/><line style="stroke: #C2C2C2; stroke-width: 1.0416666666666667;" x1="550" x2="550" y1="168.4916" y2="582.9081"/><line style="stroke: #C2C2C2; stroke-width: 1.0416666666666667; stroke-dasharray: 1.0,4.0;" x1="550" x2="550" y1="582.9081" y2="637.6831"/><line style="stroke: #C2C2C2; stroke-width: 1.0416666666666667;" x1="550" x2="550" y1="637.6831" y2="1295.0745"/><line style="stroke: #C2C2C2; stroke-width: 1.0416666666666667;" x1="722.9167" x2="722.9167" y1="168.4916" y2="582.9081"/><line style="stroke: #C2C2C2; stroke-width: 1.0416666666666667; stroke-dasharray: 1.0,4.0;" x1="722.9167" x2="722.9167" y1="582.9081" y2="637.6831"/><line style="stroke: #C2C2C2; stroke-width: 1.0416666666666667;" x1="722.9167" x2="722.9167" y1="637.6831" y2="1295.0745"/><line style="stroke: #C2C2C2; stroke-width: 1.0416666666666667;" x1="819.7917" x2="819.7917" y1="168.4916" y2="582.9081"/><line style="stroke: #C2C2C2; stroke-width: 1.0416666666666667; stroke-dasharray: 1.0,4.0;" x1="819.7917" x2="819.7917" y1="582.9081" y2="637.6831"/><line style="stroke: #C2C2C2; stroke-width: 1.0416666666666667;" x1="819.7917" x2="819.7917" y1="637.6831" y2="1295.0745"/><line style="stroke: #C2C2C2; stroke-width: 1.0416666666666667;" x1="990.625" x2="990.625" y1="168.4916" y2="582.9081"/><line style="stroke: #C2C2C2; stroke-width: 1.0416666666666667; stroke-dasharray: 1.0,4.0;" x1="990.625" x2="990.625" y1="582.9081" y2="637.6831"/><line style="stroke: #C2C2C2; stroke-width: 1.0416666666666667;" x1="990.625" x2="990.625" y1="637.6831" y2="1295.0745"/><line style="stroke: #C2C2C2; stroke-width: 1.0416666666666667;" x1="1143.75" x2="1143.75" y1="168.4916" y2="582.9081"/><line style="stroke: #C2C2C2; stroke-width: 1.0416666666666667; stroke-dasharray: 1.0,4.0;" x1="1143.75" x2="1143.75" y1="582.9081" y2="637.6831"/><line style="stroke: #C2C2C2; stroke-width: 1.0416666666666667;" x1="1143.75" x2="1143.75" y1="637.6831" y2="1295.0745"/><text fill="#5A5A5A" font-family="Verdana" font-size="12.5" lengthAdjust="spacingAndGlyphs" textLength="32.2917" x="50" y="160.6588">Foo1</text><ellipse cx="69.2708" cy="87.675" fill="#FFFFFF" rx="8.3333" ry="8.3333" style="stroke: #009FDB; stroke-width: 2.0833333333333335;"/><path d="M69.2708,96.0083 L69.2708,124.1333 M55.7292,104.3416 L82.8125,104.3416 M69.2708,124.1333 L55.7292,139.7583 M69.2708,124.1333 L82.8125,139.7583 " fill="none" style="stroke: #009FDB; stroke-width: 2.0833333333333335;"/><text fill="#5A5A5A" font-family="Verdana" font-size="12.5" lengthAdjust="spacingAndGlyphs" textLength="32.2917" x="50" y="1311.8083">Foo1</text><ellipse cx="69.2708" cy="1330.0578" fill="#FFFFFF" rx="8.3333" ry="8.3333" style="stroke: #009FDB; stroke-width: 2.0833333333333335;"/><path d="M69.2708,1338.3911 L69.2708,1366.5161 M55.7292,1346.7244 L82.8125,1346.7244 M69.2708,1366.5161 L55.7292,1382.1411 M69.2708,1366.5161 L82.8125,1382.1411 " fill="none" style="stroke: #009FDB; stroke-width: 2.0833333333333335;"/><text fill="#5A5A5A" font-family="Verdana" font-size="12.5" lengthAdjust="spacingAndGlyphs" textLength="32.2917" x="222.9167" y="160.6588">Foo2</text><path d="M220.8333,113.7166 L220.8333,138.7166 M220.8333,126.2166 L238.5417,126.2166 " fill="none" style="stroke: #007FAF; stroke-width: 2.0833333333333335;"/><ellipse cx="251.0417" cy="126.2166" fill="url(#gjkw9njd01we21)" rx="12.5" ry="12.5" style="stroke: #007FAF; stroke-width: 2.0833333333333335;"/><text fill="#5A5A5A" font-family="Verdana" font-size="12.5" lengthAdjust="spacingAndGlyphs" textLength="32.2917" x="222.9167" y="1311.8083">Foo2</text><path d="M220.8333,1323.8078 L220.8333,1348.8078 M220.8333,1336.3078 L238.5417,1336.3078 " fill="none" style="stroke: #007FAF; stroke-width: 2.0833333333333335;"/><ellipse cx="251.0417" cy="1336.3078" fill="url(#gjkw9njd01we21)" rx="12.5" ry="12.5" style="stroke: #007FAF; stroke-width: 2.0833333333333335;"/><text fill="#5A5A5A" font-family="Verdana" font-size="12.5" lengthAdjust="spacingAndGlyphs" textLength="32.2917" x="378.125" y="160.6588">Foo3</text><ellipse cx="397.3958" cy="126.2166" fill="url(#gjkw9njd01we21)" rx="12.5" ry="12.5" style="stroke: #007FAF; stroke-width: 2.0833333333333335;"/><polygon fill="#007FAF" points="393.2292,113.7166,399.4792,108.5083,397.3958,113.7166,399.4792,118.925,393.2292,113.7166" style="stroke: #007FAF; stroke-width: 1.0416666666666667;"/><text fill="#5A5A5A" font-family="Verdana" font-size="12.5" lengthAdjust="spacingAndGlyphs" textLength="32.2917" x="378.125" y="1311.8083">Foo3</text><ellipse cx="397.3958" cy="1336.3078" fill="url(#gjkw9njd01we21)" rx="12.5" ry="12.5" style="stroke: #007FAF; stroke-width: 2.0833333333333335;"/><polygon fill="#007FAF" points="393.2292,1323.8078,399.4792,1318.5994,397.3958,1323.8078,399.4792,1329.0161,393.2292,1323.8078" style="stroke: #007FAF; stroke-width: 1.0416666666666667;"/><text fill="#5A5A5A" font-family="Verdana" font-size="12.5" lengthAdjust="spacingAndGlyphs" textLength="32.2917" x="531.25" y="160.6588">Foo4</text><ellipse cx="550.5208" cy="126.2166" fill="url(#gjkw9njd01we21)" rx="12.5" ry="12.5" style="stroke: #007FAF; stroke-width: 2.0833333333333335;"/><line style="stroke: #007FAF; stroke-width: 2.0833333333333335;" x1="538.0208" x2="563.0208" y1="140.8" y2="140.8"/><text fill="#5A5A5A" font-family="Verdana" font-size="12.5" lengthAdjust="spacingAndGlyphs" textLength="32.2917" x="531.25" y="1311.8083">Foo4</text><ellipse cx="550.5208" cy="1336.3078" fill="url(#gjkw9njd01we21)" rx="12.5" ry="12.5" style="stroke: #007FAF; stroke-width: 2.0833333333333335;"/><line style="stroke: #007FAF; stroke-width: 2.0833333333333335;" x1="538.0208" x2="563.0208" y1="1350.8911" y2="1350.8911"/><text fill="#FFFFFF" font-family="Verdana" font-size="12.5" lengthAdjust="spacingAndGlyphs" textLength="32.2917" x="704.1667" y="160.6588">Foo5</text><path d="M704.6875,105.3833 C704.6875,94.9666 723.4375,94.9666 723.4375,94.9666 C723.4375,94.9666 742.1875,94.9666 742.1875,105.3833 L742.1875,132.4666 C742.1875,142.8833 723.4375,142.8833 723.4375,142.8833 C723.4375,142.8833 704.6875,142.8833 704.6875,132.4666 L704.6875,105.3833 " fill="url(#gjkw9njd01we21)" style="stroke: #007FAF; stroke-width: 1.5625;"/><path d="M704.6875,105.3833 C704.6875,115.8 723.4375,115.8 723.4375,115.8 C723.4375,115.8 742.1875,115.8 742.1875,105.3833 " fill="none" style="stroke: #007FAF; stroke-width: 1.5625;"/><text fill="#FFFFFF" font-family="Verdana" font-size="12.5" lengthAdjust="spacingAndGlyphs" textLength="32.2917" x="704.1667" y="1311.8083">Foo5</text><path d="M704.6875,1330.0578 C704.6875,1319.6411 723.4375,1319.6411 723.4375,1319.6411 C723.4375,1319.6411 742.1875,1319.6411 742.1875,1330.0578 L742.1875,1357.1411 C742.1875,1367.5578 723.4375,1367.5578 723.4375,1367.5578 C723.4375,1367.5578 704.6875,1367.5578 704.6875,1357.1411 L704.6875,1330.0578 " fill="url(#gjkw9njd01we21)" style="stroke: #007FAF; stroke-width: 1.5625;"/><path d="M704.6875,1330.0578 C704.6875,1340.4744 723.4375,1340.4744 723.4375,1340.4744 C723.4375,1340.4744 742.1875,1340.4744 742.1875,1330.0578 " fill="none" style="stroke: #007FAF; stroke-width: 1.5625;"/><rect fill="url(#gjkw9njd01we21)" height="40.1917" rx="4.1667" ry="4.1667" style="stroke: #009FDB; stroke-width: 1.5625;" width="57.2917" x="793.75" y="123.0916"/><rect fill="url(#gjkw9njd01we21)" height="40.1917" rx="4.1667" ry="4.1667" style="stroke: #009FDB; stroke-width: 1.5625;" width="57.2917" x="789.5833" y="127.2583"/><text fill="#FFFFFF" font-family="Verdana" font-size="12.5" lengthAdjust="spacingAndGlyphs" textLength="32.2917" x="802.0833" y="152.3254">Foo6</text><rect fill="url(#gjkw9njd01we21)" height="40.1917" rx="4.1667" ry="4.1667" style="stroke: #009FDB; stroke-width: 1.5625;" width="57.2917" x="793.75" y="1294.0328"/><rect fill="url(#gjkw9njd01we21)" height="40.1917" rx="4.1667" ry="4.1667" style="stroke: #009FDB; stroke-width: 1.5625;" width="57.2917" x="789.5833" y="1298.1995"/><text fill="#FFFFFF" font-family="Verdana" font-size="12.5" lengthAdjust="spacingAndGlyphs" textLength="32.2917" x="802.0833" y="1323.2666">Foo6</text><rect fill="url(#gjkw9njd01we21)" height="40.1917" rx="4.1667" ry="4.1667" style="stroke: #009FDB; stroke-width: 0.0;" width="50" x="965.625" y="127.2583"/><text fill="#FFFFFF" font-family="Verdana" font-size="12.5" lengthAdjust="spacingAndGlyphs" textLength="25" x="978.125" y="152.3254">Bob</text><rect fill="url(#gjkw9njd01we21)" height="40.1917" rx="4.1667" ry="4.1667" style="stroke: #009FDB; stroke-width: 0.0;" width="50" x="965.625" y="1294.0328"/><text fill="#FFFFFF" font-family="Verdana" font-size="12.5" lengthAdjust="spacingAndGlyphs" textLength="25" x="978.125" y="1319.0999">Bob</text><rect fill="url(#gjkw9njd01we21)" height="44.9666" rx="4.1667" ry="4.1667" style="stroke: #009FDB; stroke-width: 0.0;" width="110.4167" x="1088.5417" y="122.4833"/><ellipse cx="1106.25" cy="140.1917" fill="#ADD1B2" rx="10.4167" ry="10.4167" style="stroke: #009FDB; stroke-width: 1.0416666666666667;"/><path d="M1108.1543,144.6187 Q1107.7311,144.8303 1107.2591,144.9443 Q1106.7871,145.0582 1106.2826,145.0582 Q1104.4271,145.0582 1103.4505,143.8538 Q1102.4902,142.6331 1102.4902,140.3381 Q1102.4902,138.0269 1103.4505,136.8225 Q1104.4271,135.6018 1106.2826,135.6018 Q1106.7871,135.6018 1107.2591,135.7157 Q1107.7474,135.8134 1108.1543,136.0413 L1108.1543,138.0432 Q1107.6986,137.62 1107.2591,137.4247 Q1106.8197,137.2131 1106.3639,137.2131 Q1105.3711,137.2131 1104.8665,138.0107 Q1104.362,138.7919 1104.362,140.3381 Q1104.362,141.8681 1104.8665,142.6493 Q1105.3711,143.4306 1106.3639,143.4306 Q1106.8197,143.4306 1107.2591,143.2353 Q1107.6986,143.04 1108.1543,142.6168 L1108.1543,144.6187 Z "/><text fill="#FFFFFF" font-family="Verdana" font-size="12.5" font-style="italic" lengthAdjust="spacingAndGlyphs" textLength="68.75" x="1122.9167" y="142.275">«Testable»</text><text fill="#FFFFFF" font-family="Verdana" font-size="12.5" lengthAdjust="spacingAndGlyphs" textLength="29.1667" x="1142.7083" y="157.4666">Alice</text><rect fill="url(#gjkw9njd01we21)" height="44.9666" rx="4.1667" ry="4.1667" style="stroke: #009FDB; stroke-width: 0.0;" width="110.4167" x="1088.5417" y="1294.0328"/><ellipse cx="1106.25" cy="1311.7411" fill="#ADD1B2" rx="10.4167" ry="10.4167" style="stroke: #009FDB; stroke-width: 1.0416666666666667;"/><path d="M1108.1543,1316.1682 Q1107.7311,1316.3798 1107.2591,1316.4937 Q1106.7871,1316.6077 1106.2826,1316.6077 Q1104.4271,1316.6077 1103.4505,1315.4032 Q1102.4902,1314.1825 1102.4902,1311.8876 Q1102.4902,1309.5764 1103.4505,1308.372 Q1104.4271,1307.1513 1106.2826,1307.1513 Q1106.7871,1307.1513 1107.2591,1307.2652 Q1107.7474,1307.3629 1108.1543,1307.5907 L1108.1543,1309.5927 Q1107.6986,1309.1695 1107.2591,1308.9742 Q1106.8197,1308.7626 1106.3639,1308.7626 Q1105.3711,1308.7626 1104.8665,1309.5601 Q1104.362,1310.3414 1104.362,1311.8876 Q1104.362,1313.4176 1104.8665,1314.1988 Q1105.3711,1314.9801 1106.3639,1314.9801 Q1106.8197,1314.9801 1107.2591,1314.7847 Q1107.6986,1314.5894 1108.1543,1314.1663 L1108.1543,1316.1682 Z "/><text fill="#FFFFFF" font-family="Verdana" font-size="12.5" font-style="italic" lengthAdjust="spacingAndGlyphs" textLength="68.75" x="1122.9167" y="1313.8245">«Testable»</text><text fill="#FFFFFF" font-family="Verdana" font-size="12.5" lengthAdjust="spacingAndGlyphs" textLength="29.1667" x="1142.7083" y="1329.0161">Alice</text><rect fill="#F5F5F5" height="242.7999" style="stroke: #C2C2C2; stroke-width: 1.0416666666666667;" width="10.4167" x="392.1875" y="331.7749"/><rect fill="url(#gjkw9njd01we22)" height="3.125" style="stroke: url(#gjkw9njd01we22); stroke-width: 1.0416666666666667;" width="1273.9583" x="3.125" y="205.2541"/><line style="stroke: #959595; stroke-width: 1.0416666666666667;" x1="3.125" x2="1277.0833" y1="205.2541" y2="205.2541"/><line style="stroke: #959595; stroke-width: 1.0416666666666667;" x1="3.125" x2="1277.0833" y1="208.3791" y2="208.3791"/><rect fill="url(#gjkw9njd01we22)" height="33.9417" style="stroke: #959595; stroke-width: 2.0833333333333335;" width="115.625" x="582.2917" y="189.325"/><text fill="#5A5A5A" font-family="Verdana" font-size="12.5" font-weight="bold" lengthAdjust="spacingAndGlyphs" textLength="86.4583" x="593.75" y="211.2671">Initialization</text><polygon fill="#009FDB" points="229.6875,261.3749,240.1042,265.5416,229.6875,269.7083,233.8542,265.5416" style="stroke: #009FDB; stroke-width: 1.0416666666666667;"/><line style="stroke: #009FDB; stroke-width: 3.125;" x1="69.2708" x2="235.9375" y1="265.5416" y2="265.5416"/><text fill="#5A5A5A" font-family="Verdana" font-size="12.5" font-weight="bold" lengthAdjust="spacingAndGlyphs" textLength="40.625" x="81.7708" y="255.6254">[001]</text><text fill="#5A5A5A" font-family="Verdana" font-size="12.5" lengthAdjust="spacingAndGlyphs" textLength="82.2917" x="136.9792" y="255.6254">To boundary</text><polygon fill="#009FDB" points="379.6875,327.6082,390.1042,331.7749,379.6875,335.9416,383.8542,331.7749" style="stroke: #009FDB; stroke-width: 1.0416666666666667;"/><line style="stroke: #009FDB; stroke-width: 3.125;" x1="242.1875" x2="385.9375" y1="331.7749" y2="331.7749"/><text fill="#5A5A5A" font-family="Verdana" font-size="12.5" font-weight="bold" lengthAdjust="spacingAndGlyphs" textLength="40.625" x="254.6875" y="321.8587">[002]</text><text fill="#5A5A5A" font-family="Verdana" font-size="12.5" lengthAdjust="spacingAndGlyphs" textLength="64.5833" x="309.8958" y="321.8587">To control</text><rect fill="#FFFFFF" height="76.825" style="stroke: #959595; stroke-width: 2.0833333333333335;" width="228.125" x="522.9167" y="340.1082"/><polygon fill="#EEEEEE" points="522.9167,340.1082,600,340.1082,600,356.7749,589.5833,367.1916,522.9167,367.1916,522.9167,340.1082" style="stroke: #959595; stroke-width: 2.0833333333333335;"/><text fill="#0568AE" font-family="Verdana" font-size="12.5" font-weight="bold" lengthAdjust="spacingAndGlyphs" textLength="19.7917" x="541.6667" y="359.967">ref</text><text fill="#5A5A5A" font-family="Verdana" font-size="12.5" lengthAdjust="spacingAndGlyphs" textLength="94.7917" x="589.5833" y="389.1337">This can be on</text><text fill="#5A5A5A" font-family="Verdana" font-size="12.5" lengthAdjust="spacingAndGlyphs" textLength="82.2917" x="589.5833" y="404.3254">several lines</text><polygon fill="#009FDB" points="538.0208,449.8332,548.4375,453.9998,538.0208,458.1665,542.1875,453.9998" style="stroke: #009FDB; stroke-width: 1.0416666666666667;"/><line style="stroke: #009FDB; stroke-width: 3.125;" x1="402.6042" x2="544.2708" y1="453.9998" y2="453.9998"/><text fill="#5A5A5A" font-family="Verdana" font-size="12.5" font-weight="bold" lengthAdjust="spacingAndGlyphs" textLength="40.625" x="415.1042" y="444.0837">[003]</text><text fill="#5A5A5A" font-family="Verdana" font-size="12.5" lengthAdjust="spacingAndGlyphs" textLength="57.2917" x="470.3125" y="444.0837">To entity</text><polygon fill="#009FDB" points="710.9375,490.0248,721.3542,494.1915,710.9375,498.3582,715.1042,494.1915" style="stroke: #009FDB; stroke-width: 1.0416666666666667;"/><line style="stroke: #009FDB; stroke-width: 3.125;" x1="550.5208" x2="717.1875" y1="494.1915" y2="494.1915"/><text fill="#5A5A5A" font-family="Verdana" font-size="12.5" font-weight="bold" lengthAdjust="spacingAndGlyphs" textLength="40.625" x="563.0208" y="484.2753">[004]</text><text fill="#5A5A5A" font-family="Verdana" font-size="12.5" lengthAdjust="spacingAndGlyphs" textLength="82.2917" x="618.2292" y="484.2753">To database</text><polygon fill="#009FDB" points="414.0625,530.2165,403.6458,534.3831,414.0625,538.5498,409.8958,534.3831" style="stroke: #009FDB; stroke-width: 1.0416666666666667;"/><line style="stroke: #009FDB; stroke-width: 3.125; stroke-dasharray: 2.0,2.0;" x1="407.8125" x2="722.3958" y1="534.3831" y2="534.3831"/><text fill="#5A5A5A" font-family="Verdana" font-size="12.5" font-weight="bold" lengthAdjust="spacingAndGlyphs" textLength="40.625" x="425.5208" y="524.467">[005]</text><text fill="#5A5A5A" font-family="Verdana" font-size="12.5" lengthAdjust="spacingAndGlyphs" textLength="40.625" x="480.7292" y="524.467">return</text><polygon fill="#009FDB" points="253.6458,570.4081,243.2292,574.5748,253.6458,578.7415,249.4792,574.5748" style="stroke: #009FDB; stroke-width: 1.0416666666666667;"/><line style="stroke: #009FDB; stroke-width: 3.125; stroke-dasharray: 2.0,2.0;" x1="247.3958" x2="396.3542" y1="574.5748" y2="574.5748"/><text fill="#5A5A5A" font-family="Verdana" font-size="12.5" font-weight="bold" lengthAdjust="spacingAndGlyphs" textLength="40.625" x="265.1042" y="564.6586">[006]</text><text fill="#5A5A5A" font-family="Verdana" font-size="12.5" lengthAdjust="spacingAndGlyphs" textLength="40.625" x="320.3125" y="564.6586">return</text><text fill="#000000" font-family="Verdana" font-size="12.5" lengthAdjust="spacingAndGlyphs" textLength="36.4583" x="552.3438" y="615.2669">Some</text><text fill="#000000" font-family="Verdana" font-size="12.5" lengthAdjust="spacingAndGlyphs" textLength="67.7083" x="592.9688" y="615.2669">long delay</text><text fill="#000000" font-family="Verdana" font-size="12.5" lengthAdjust="spacingAndGlyphs" textLength="0" x="664.8438" y="615.2669"/><polygon fill="#009FDB" points="807.8125,665.3748,818.2292,669.5414,807.8125,673.7081,811.9792,669.5414" style="stroke: #009FDB; stroke-width: 1.0416666666666667;"/><line style="stroke: #009FDB; stroke-width: 3.125;" x1="69.2708" x2="814.0625" y1="669.5414" y2="669.5414"/><text fill="#5A5A5A" font-family="Verdana" font-size="12.5" font-weight="bold" lengthAdjust="spacingAndGlyphs" textLength="40.625" x="81.7708" y="659.6252">[007]</text><text fill="#5A5A5A" font-family="Verdana" font-size="12.5" lengthAdjust="spacingAndGlyphs" textLength="87.5" x="136.9792" y="659.6252">To collections</text><polygon fill="#009FDB" points="561.9792,705.5664,551.5625,709.7331,561.9792,713.8997,557.8125,709.7331" style="stroke: #009FDB; stroke-width: 1.0416666666666667;"/><line style="stroke: #009FDB; stroke-width: 3.125; stroke-dasharray: 2.0,2.0;" x1="555.7292" x2="819.2708" y1="709.7331" y2="709.7331"/><text fill="#5A5A5A" font-family="Verdana" font-size="12.5" font-weight="bold" lengthAdjust="spacingAndGlyphs" textLength="40.625" x="573.4375" y="699.8169">[008]</text><text fill="#B5BD00" font-family="Verdana" font-size="12.5" font-weight="bold" lengthAdjust="spacingAndGlyphs" textLength="53.125" x="628.6458" y="699.8169">success</text><path d="M17.7083,725.3581 L88.5417,725.3581 L88.5417,742.0247 L78.125,752.4414 L13.5417,752.4414 L13.5417,729.5247 " fill="#EEEEEE" style="stroke: #959595; stroke-width: 1.0416666666666667;"/><rect fill="none" height="475.1831" rx="4.1667" ry="4.1667" style="stroke: #959595; stroke-width: 2.0833333333333335;" width="1247.9167" x="13.5417" y="725.3581"/><text fill="#0568AE" font-family="Verdana" font-size="12.5" font-weight="bold" lengthAdjust="spacingAndGlyphs" textLength="17.7083" x="34.375" y="744.1752">alt</text><text fill="#5A5A5A" font-family="Verdana" font-size="12.5" font-weight="bold" lengthAdjust="spacingAndGlyphs" textLength="118.75" x="109.375" y="745.2169">[successful case]</text><polygon fill="#009FDB" points="1131.25,790.7247,1141.6667,794.8914,1131.25,799.058,1135.4167,794.8914" style="stroke: #009FDB; stroke-width: 1.0416666666666667;"/><line style="stroke: #009FDB; stroke-width: 3.125;" x1="69.2708" x2="1137.5" y1="794.8914" y2="794.8914"/><text fill="#5A5A5A" font-family="Verdana" font-size="12.5" font-weight="bold" lengthAdjust="spacingAndGlyphs" textLength="40.625" x="81.7708" y="784.9752">[009]</text><text fill="#5A5A5A" font-family="Verdana" font-size="12.5" lengthAdjust="spacingAndGlyphs" textLength="158.3333" x="136.9792" y="784.9752">Authentication Accepted</text><polygon fill="#009FDB" points="80.7292,830.9163,70.3125,835.083,80.7292,839.2497,76.5625,835.083" style="stroke: #009FDB; stroke-width: 1.0416666666666667;"/><line style="stroke: #009FDB; stroke-width: 3.125; stroke-dasharray: 2.0,2.0;" x1="74.4792" x2="1142.7083" y1="835.083" y2="835.083"/><text fill="#5A5A5A" font-family="Verdana" font-size="12.5" font-weight="bold" lengthAdjust="spacingAndGlyphs" textLength="40.625" x="92.1875" y="825.1668">[010]</text><text fill="#5A5A5A" font-family="Verdana" font-size="12.5" lengthAdjust="spacingAndGlyphs" textLength="51.0417" x="147.3958" y="825.1668">success</text><path d="M991.6667,852.7913 L991.6667,879.8747 A4.1667,4.1667 0 0 0 995.8333,884.0413 L1134.375,884.0413 A4.1667,4.1667 0 0 0 1138.5417,879.8747 L1138.5417,859.0413 L1128.125,848.6247 L995.8333,848.6247 A4.1667,4.1667 0 0 0 991.6667,852.7913 " fill="url(#gjkw9njd01we23)" style="stroke: #0568AE; stroke-width: 1.0416666666666667;"/><path d="M1128.125,848.6247 L1128.125,856.958 A2.0833,2.0833 0 0 0 1130.2083,859.0413 L1138.5417,859.0413 L1128.125,848.6247 " fill="url(#gjkw9njd01we23)" style="stroke: #0568AE; stroke-width: 1.0416666666666667;"/><text fill="#FFFFFF" font-family="Verdana" font-size="12.5" lengthAdjust="spacingAndGlyphs" textLength="114.5833" x="1003.125" y="871.6085">this is a first note</text><line style="stroke: #959595; stroke-width: 1.0416666666666667; stroke-dasharray: 2.0,2.0;" x1="13.5417" x2="1261.4583" y1="890.8997" y2="890.8997"/><text fill="#5A5A5A" font-family="Verdana" font-size="12.5" font-weight="bold" lengthAdjust="spacingAndGlyphs" textLength="148.9583" x="23.9583" y="908.6751">[some kind of failure]</text><polygon fill="#009FDB" points="1131.25,945.2413,1141.6667,949.408,1131.25,953.5746,1135.4167,949.408" style="stroke: #009FDB; stroke-width: 1.0416666666666667;"/><line style="stroke: #009FDB; stroke-width: 3.125;" x1="69.2708" x2="1137.5" y1="949.408" y2="949.408"/><text fill="#5A5A5A" font-family="Verdana" font-size="12.5" font-weight="bold" lengthAdjust="spacingAndGlyphs" textLength="40.625" x="81.7708" y="939.4918">[011]</text><text fill="#5A5A5A" font-family="Verdana" font-size="12.5" lengthAdjust="spacingAndGlyphs" textLength="142.7083" x="136.9792" y="939.4918">Authentication Failure</text><polygon fill="#009FDB" points="80.7292,985.4329,70.3125,989.5996,80.7292,993.7663,76.5625,989.5996" style="stroke: #009FDB; stroke-width: 1.0416666666666667;"/><line style="stroke: #009FDB; stroke-width: 3.125; stroke-dasharray: 2.0,2.0;" x1="74.4792" x2="1142.7083" y1="989.5996" y2="989.5996"/><text fill="#5A5A5A" font-family="Verdana" font-size="12.5" font-weight="bold" lengthAdjust="spacingAndGlyphs" textLength="40.625" x="92.1875" y="979.6834">[012]</text><text fill="#CF2A2A" font-family="Verdana" font-size="12.5" font-weight="bold" lengthAdjust="spacingAndGlyphs" textLength="82.2917" x="147.3958" y="979.6834">Bad request</text><path d="M28.125,1005.2246 L171.875,1005.2246 L171.875,1021.8913 L161.4583,1032.3079 L23.9583,1032.3079 L23.9583,1009.3913 " fill="#EEEEEE" style="stroke: #959595; stroke-width: 1.0416666666666667;"/><rect fill="none" height="120.1416" rx="4.1667" ry="4.1667" style="stroke: #959595; stroke-width: 2.0833333333333335;" width="1227.0833" x="23.9583" y="1005.2246"/><text fill="#0568AE" font-family="Verdana" font-size="12.5" font-weight="bold" lengthAdjust="spacingAndGlyphs" textLength="90.625" x="44.7917" y="1024.0417">My own label</text><path d="M38.5417,1040.2079 L120.8333,1040.2079 L120.8333,1056.8746 L110.4167,1067.2913 L34.375,1067.2913 L34.375,1044.3746 " fill="#EEEEEE" style="stroke: #959595; stroke-width: 1.0416666666666667;"/><rect fill="none" height="77.8666" rx="4.1667" ry="4.1667" style="stroke: #959595; stroke-width: 2.0833333333333335;" width="1206.25" x="34.375" y="1040.2079"/><text fill="#0568AE" font-family="Verdana" font-size="12.5" font-weight="bold" lengthAdjust="spacingAndGlyphs" textLength="29.1667" x="55.2083" y="1059.0251">loop</text><text fill="#5A5A5A" font-family="Verdana" font-size="12.5" font-weight="bold" lengthAdjust="spacingAndGlyphs" textLength="91.6667" x="141.6667" y="1060.0667">[1000 times]</text><polygon fill="#009FDB" points="80.7292,1105.5745,70.3125,1109.7412,80.7292,1113.9079,76.5625,1109.7412" style="stroke: #009FDB; stroke-width: 1.0416666666666667;"/><line style="stroke: #009FDB; stroke-width: 3.125;" x1="74.4792" x2="1142.7083" y1="1109.7412" y2="1109.7412"/><text fill="#5A5A5A" font-family="Verdana" font-size="12.5" font-weight="bold" lengthAdjust="spacingAndGlyphs" textLength="40.625" x="92.1875" y="1099.825">[013]</text><text fill="#5A5A5A" font-family="Verdana" font-size="12.5" lengthAdjust="spacingAndGlyphs" textLength="71.875" x="147.3958" y="1099.825">DNS Attack</text><line style="stroke: #959595; stroke-width: 1.0416666666666667; stroke-dasharray: 2.0,2.0;" x1="13.5417" x2="1261.4583" y1="1133.6995" y2="1133.6995"/><text fill="#5A5A5A" font-family="Verdana" font-size="12.5" font-weight="bold" lengthAdjust="spacingAndGlyphs" textLength="115.625" x="23.9583" y="1151.475">[Just a Warning]</text><polygon fill="#009FDB" points="1131.25,1188.0412,1141.6667,1192.2078,1131.25,1196.3745,1135.4167,1192.2078" style="stroke: #009FDB; stroke-width: 1.0416666666666667;"/><line style="stroke: #009FDB; stroke-width: 3.125;" x1="69.2708" x2="1137.5" y1="1192.2078" y2="1192.2078"/><text fill="#5A5A5A" font-family="Verdana" font-size="12.5" font-weight="bold" lengthAdjust="spacingAndGlyphs" textLength="40.625" x="81.7708" y="1182.2917">[014]</text><text fill="#EA7400" font-family="Verdana" font-size="12.5" font-weight="bold" lengthAdjust="spacingAndGlyphs" textLength="94.7917" x="136.9792" y="1182.2917">Please repeat</text><path d="M46.875,1217.2078 L46.875,1274.4995 A4.1667,4.1667 0 0 0 51.0417,1278.6662 L260.4167,1278.6662 A4.1667,4.1667 0 0 0 264.5833,1274.4995 L264.5833,1223.4578 L254.1667,1213.0412 L51.0417,1213.0412 A4.1667,4.1667 0 0 0 46.875,1217.2078 " fill="url(#gjkw9njd01we23)" style="stroke: #0568AE; stroke-width: 1.0416666666666667;"/><path d="M254.1667,1213.0412 L254.1667,1221.3745 A2.0833,2.0833 0 0 0 256.25,1223.4578 L264.5833,1223.4578 L254.1667,1213.0412 " fill="url(#gjkw9njd01we23)" style="stroke: #0568AE; stroke-width: 1.0416666666666667;"/><text fill="#FFFFFF" font-family="Verdana" font-size="12.5" lengthAdjust="spacingAndGlyphs" textLength="136.4583" x="82.8125" y="1236.025">this is a second note</text><text fill="#FFFFFF" font-family="Verdana" font-size="12.5" lengthAdjust="spacingAndGlyphs" textLength="81.25" x="82.8125" y="1251.2166">that is really</text><text fill="#FFFFFF" font-family="Verdana" font-size="12.5" lengthAdjust="spacingAndGlyphs" textLength="28.125" x="82.8125" y="1266.4083">long</text><text fill="#888888" font-family="Verdana" font-size="12.5" lengthAdjust="spacingAndGlyphs" textLength="85.4167" x="1191.6667" y="15.6921">Page Header</text><text fill="#888888" font-family="Verdana" font-size="12.5" lengthAdjust="spacingAndGlyphs" textLength="75" x="602.6042" y="1406.1666">Page 1 of 1</text><!--MD5=[51f56e1b95402bb6efbe9579190f4996]
@startuml



skinparam backgroundColor transparent







skinparam defaultFontName        "Verdana"
skinparam defaultFontSize        12
skinparam dpi                    100
skinparam shadowing              false
skinparam roundcorner            8
skinparam ParticipantPadding     30
skinparam BoxPadding             40
skinparam Padding                5
skinparam ArrowColor             #959595
skinparam stereotype {
    CBackgroundColor #f5f5f5
    CBorderColor #c2c2c2
    ABackgroundColor #c4ca33
    ABorderColor #919700
    IBackgroundColor #d95555
    IBorderColor #a62222
    EBackgroundColor #ee9033
    EBorderColor #bb5d00
    NBackgroundColor #3786be
    NBorderColor #04538b
}
skinparam title {
	FontColor	                 #009fdb
	BorderColor	                 #c2c2c2
	FontSize	    	         20
	BorderRoundCorner            8
	BorderThickness 	         1
	BackgroundColor              #f5f5f5-#f2f2f2
}


skinparam legend {
	BackgroundColor #f2f2f2
	BorderColor #c2c2c2
	FontColor #5a5a5a
}

skinparam activity {
	FontColor #fff
	BorderColor #009fdb
	BackgroundColor #33b2e2-#009fdb
	BarColor #b5bd00
	StartColor #0568ae
	EndColor #0568ae
	DiamondBackgroundColor #fff-#f5f5f5
  	DiamondBorderColor #c2c2c2
	DiamondFontColor #5a5a5a
}

skinparam sequence {
	BorderColor #009fdb
	TitleFontColor #009fdb
	BackgroundColor transparent
	StartColor #009fdb
	EndColor #009fdb
	ParticipantBackgroundColor #33b2e2-#009fdb
    ParticipantBorderColor #009fdb
	ParticipantBorderThickness 0
	ParticipantFontColor #fff
	ActorBackgroundColor transparent
    ActorBorderColor #009fdb
	ActorFontColor #009fdb
	ArrowThickness 3
	ArrowColor #009fdb
	ArrowFontColor #5a5a5a
	BoxBackgroundColor #d2d2d2
	BoxBorderColor #959595
	BoxFontColor #5a5a5a
	LifeLineBorderColor #c2c2c2
	LifeLineBorderThickness 2
	LifeLineBackgroundColor #f5f5f5
	GroupBorderColor #959595
	GroupFontColor #5a5a5a
	GroupHeaderFontColor #0568ae
	DividerBackgroundColor #fff-#d2d2d2
    DividerBorderColor #959595
    DividerBorderThickness 2
    DividerFontColor #5a5a5a
	ReferenceBackgroundColor transparent
	ReferenceBorderColor #959595
	ReferenceFontColor #5a5a5a
	ReferenceHeaderFontColor #0568ae
}

skinparam partition {
	BorderColor #009fdb
	FontColor #009fdb
	BackgroundColor transparent
}

skinparam collections {
	BackgroundColor #33b2e2-#009fdb
	BorderColor #009fdb
}

skinparam control {
	BackgroundColor  #33b2e2-#009fdb
	BorderColor #007faf
	FontColor #5a5a5a
}

skinparam entity {
	BackgroundColor  #33b2e2-#009fdb
	BorderColor #007faf
	FontColor #5a5a5a
}

skinparam boundary {
	BackgroundColor  #33b2e2-#009fdb
	BorderColor #007faf
	FontColor #5a5a5a
}

skinparam agent {
	BackgroundColor #orange
	BorderColor #999999
	FontColor #333333
}

skinparam note {
	BorderThickness 1
	BackgroundColor #3786be-#0568ae
	BorderColor #0568ae
	FontColor #fff
}

skinparam artifact {
	BackgroundColor #fff-#d2d2d2
	BorderColor #959595
	FontColor #959595
}

skinparam component {
	BackgroundColor  #c4ca33-#b5bd00
	BorderColor  #b5bd00
	FontColor #fff
}

skinparam interface {
	BackgroundColor  #d95555
	BorderColor  #cf2a2a
	FontColor #5a5a5a
}

skinparam storage {
	BackgroundColor #ee9033-#ea7400
  	BorderColor #ea7400
	FontColor #fff
}

skinparam node {
	BackgroundColor #f5f5f5-#f2f2f2
	BorderColor #c2c2c2
	FontColor #009fdb
	StereotypeFontColor #5a5a5a
}

skinparam cloud {
	BackgroundColor white-#F2FCFE
	BorderColor #f2f2f2
	FontColor #5a5a5a
}

skinparam database {
    BackgroundColor  #33b2e2-#009fdb
	BorderColor #007faf
	FontColor #fff
	StereotypeFontColor #d2d2d2
}

skinparam actor {
	FontColor #5a5a5a
}

skinparam class {
	HeaderBackgroundColor #009fdb-#007faf
	FontColor #fff
	BackgroundColor #33b2e2-#009fdb
	BorderColor #007faf
	StereotypeFontColor #5a5a5a
	BorderThickness 1
	AttributeFontColor #d2d2d2
	AttributeFontSize 11
}

skinparam object {
	FontColor #b5bd00
	BackgroundColor #f2f2f2-#c2c2c2
	BorderColor #c2c2c2
	StereotypeFontColor #5a5a5a
	BorderThickness 1
	AttributeFontColor #5a5a5a
	AttributeFontSize 11
}

skinparam usecase {
	BackgroundColor #f5f5f5-#f2f2f2
	BorderColor #f2f2f2
	BorderThickness 2
	FontColor #5a5a5a
	StereotypeFontColor #009fdb
}

skinparam rectangle {
	BackgroundColor #f2f2f2-#c2c2c2
	BorderColor #007faf
	BorderThickness 2
	FontColor #009fdb
	StereotypeFontColor #009fdb
}

skinparam package {
	BackgroundColor #f5f5f5-#f2f2f2
  	BorderColor #009fdb
	FontColor #009fdb
	BorderThickness 2
}

skinparam folder {
	BackgroundColor #fff-#f5f5f5
  	BorderColor #ea7400
	FontColor #ea7400
	BorderThickness 2
}

skinparam frame {
	BackgroundColor #fff-#f5f5f5
  	BorderColor #0568ae
	FontColor #0568ae
	BorderThickness 2
}

skinparam state {
	StartColor #0568ae
	EndColor #0568ae
	BackgroundColor #f2f2f2-#c2c2c2
	BorderColor #c2c2c2
	FontColor #0568ae
	AttributeFontColor #5a5a5a
	AttributeFontSize 11
}

skinparam queue {
	BackgroundColor #ea7400-#bb5d00
  	BorderColor #bb5d00
	FontColor #fff
}

skinparam card {
	BackgroundColor #3786be-#0568ae
	BorderColor #0568ae
	FontColor #fff
}

skinparam file {
	BackgroundColor #f5f5f5-#f2f2f2
	BorderColor #959595
	FontColor #959595

}

skinparam stack {
	BackgroundColor #33b2e2-#007faf
	BorderColor #009fdb
	FontColor #fff
}

title Sequence Diagram - bluegray theme


autonumber "<b>[000]"

header Page Header
footer Page %page% of %lastpage%

actor Foo1
boundary Foo2
control Foo3
entity Foo4
database Foo5
collections Foo6
participant Bob
participant Alice << (C,#ADD1B2) Testable >>

box "Internal Service"
	participant Bob
	participant Alice
end box

== Initialization ==
Foo1 -> Foo2 : To boundary
|||
Foo2 -> Foo3 ++: To control
ref over Foo4, Foo5
  This can be on
  several lines
end ref
Foo3 -> Foo4 : To entity

Foo4 -> Foo5 : To database
Foo5 - -> Foo3 - - : return
Foo3 - -> Foo2 - -: return
... Some ~~long delay~~ ...
Foo1 -> Foo6 : To collections
Foo6 - -> Foo4:   <font color=#b5bd00><b>success


alt successful case

Foo1 -> Alice: Authentication Accepted
Alice - -> Foo1: success

note left of Alice: this is a first note

else some kind of failure

	Foo1 -> Alice: Authentication Failure
    Alice - -> Foo1:   <font color=#cf2a2a><b>Bad request
	group My own label
	    loop 1000 times
	        Alice -> Foo1: DNS Attack
	    end
	end
	
else Just a Warning

   Foo1 -> Alice:   <font color=#ea7400><b>Please repeat
   
end

note over Foo1, Foo2
this is a second note
that is really
long
end note

@enduml

PlantUML version 1.2019.12(Sun Nov 03 02:24:54 PST 2019)
(GPL source distribution)
Java Runtime: OpenJDK Runtime Environment
JVM: OpenJDK 64-Bit Server VM
Java Version: 11.0.4+11-post-Ubuntu-1ubuntu218.04.3
Operating System: Linux
Default Encoding: UTF-8
Language: en
Country: US
--></g></svg>