<?xml version="1.0" encoding="UTF-8" standalone="no"?><svg xmlns="http://www.w3.org/2000/svg" xmlns:xlink="http://www.w3.org/1999/xlink" contentScriptType="application/ecmascript" contentStyleType="text/css" height="1175px" preserveAspectRatio="none" style="width:383px;height:1175px;" version="1.1" viewBox="0 0 383 1175" width="383.3333px" zoomAndPan="magnify"><defs><linearGradient id="gnzfcgba314a30" x1="50%" x2="50%" y1="0%" y2="100%"><stop offset="0%" stop-color="#F5F5F5"/><stop offset="100%" stop-color="#F2F2F2"/></linearGradient><linearGradient id="gnzfcgba314a31" x1="50%" x2="50%" y1="0%" y2="100%"><stop offset="0%" stop-color="#F2F2F2"/><stop offset="100%" stop-color="#C2C2C2"/></linearGradient></defs><g><rect fill="url(#gnzfcgba314a30)" height="46.1528" rx="4.1667" ry="4.1667" style="stroke: #C2C2C2; stroke-width: 1.0416666666666667;" width="368.75" x="3.125" y="2.0833"/><text fill="#009FDB" font-family="Verdana" font-size="20.8333" lengthAdjust="spacingAndGlyphs" textLength="341.6667" x="16.6667" y="33.4452">State Diagram - bluegray theme</text><rect fill="#B5BD00" height="8.3333" style="stroke: none; stroke-width: 1.0416666666666667;" width="83.3333" x="140.1042" y="143.0278"/><ellipse cx="181.7708" cy="70.1111" fill="#0568AE" rx="10.4167" ry="10.4167" style="stroke: none; stroke-width: 1.0416666666666667;"/><rect fill="url(#gnzfcgba314a31)" height="56.8583" rx="13.0208" ry="13.0208" style="stroke: #C2C2C2; stroke-width: 1.5625;" width="75" x="89.0625" y="213.8611"/><line style="stroke: #C2C2C2; stroke-width: 1.5625;" x1="89.0625" x2="164.0625" y1="249.8861" y2="249.8861"/><text fill="#0568AE" font-family="Verdana" font-size="12.5" lengthAdjust="spacingAndGlyphs" textLength="43.75" x="104.6875" y="236.8449">State2</text><rect fill="url(#gnzfcgba314a31)" height="56.8583" rx="13.0208" ry="13.0208" style="stroke: #C2C2C2; stroke-width: 1.5625;" width="75" x="200.5208" y="213.8611"/><line style="stroke: #C2C2C2; stroke-width: 1.5625;" x1="200.5208" x2="275.5208" y1="249.8861" y2="249.8861"/><text fill="#0568AE" font-family="Verdana" font-size="12.5" lengthAdjust="spacingAndGlyphs" textLength="43.75" x="216.1458" y="236.8449">State3</text><rect fill="#B5BD00" height="8.3333" style="stroke: none; stroke-width: 1.0416666666666667;" width="83.3333" x="140.1042" y="333.6528"/><rect fill="url(#gnzfcgba314a31)" height="56.8583" rx="13.0208" ry="13.0208" style="stroke: #C2C2C2; stroke-width: 1.5625;" width="75" x="144.2708" y="404.4861"/><line style="stroke: #C2C2C2; stroke-width: 1.5625;" x1="144.2708" x2="219.2708" y1="440.5111" y2="440.5111"/><text fill="#0568AE" font-family="Verdana" font-size="12.5" lengthAdjust="spacingAndGlyphs" textLength="43.75" x="159.8958" y="427.4699">State4</text><rect fill="url(#gnzfcgba314a31)" height="640.1917" rx="13.0208" ry="13.0208" style="stroke: #C2C2C2; stroke-width: 1.5625;" width="351.0417" x="6.25" y="524.2778"/><rect fill="#FFFFFF" height="597.9167" rx="13.0208" ry="13.0208" style="stroke: #FFFFFF; stroke-width: 1.0416666666666667;" width="344.7917" x="9.375" y="563.4277"/><line style="stroke: #C2C2C2; stroke-width: 1.5625;" x1="6.25" x2="357.2917" y1="560.3027" y2="560.3027"/><text fill="#0568AE" font-family="Verdana" font-size="12.5" lengthAdjust="spacingAndGlyphs" textLength="38.5417" x="162.5" y="547.2616">Active</text><ellipse cx="28.125" cy="602.4902" fill="#0568AE" rx="10.4167" ry="10.4167" style="stroke: none; stroke-width: 1.0416666666666667;"/><rect fill="url(#gnzfcgba314a31)" height="56.8583" rx="13.0208" ry="13.0208" style="stroke: #C2C2C2; stroke-width: 1.5625;" width="108.3333" x="57.2917" y="573.8444"/><line style="stroke: #C2C2C2; stroke-width: 1.5625;" x1="57.2917" x2="165.625" y1="609.8694" y2="609.8694"/><text fill="#0568AE" font-family="Verdana" font-size="12.5" lengthAdjust="spacingAndGlyphs" textLength="77.0833" x="72.9167" y="596.8282">NumLockOff</text><rect fill="url(#gnzfcgba314a31)" height="56.8583" rx="13.0208" ry="13.0208" style="stroke: #C2C2C2; stroke-width: 1.5625;" width="108.3333" x="56.25" y="695.7194"/><line style="stroke: #C2C2C2; stroke-width: 1.5625;" x1="56.25" x2="164.5833" y1="731.7444" y2="731.7444"/><text fill="#0568AE" font-family="Verdana" font-size="12.5" lengthAdjust="spacingAndGlyphs" textLength="77.0833" x="71.875" y="718.7032">NumLockOn</text><!--MD5=[f1e44e9cdf7ed6fd162579f896fb76ea]
link *start*Active to NumLockOff--><path d="M38.8672,602.4902 C43.1206,602.4902 47.374,602.4902 51.6274,602.4902 " fill="none" id="*start*Active-&gt;NumLockOff" style="stroke: #009FDB; stroke-width: 3.125;"/><polygon fill="#009FDB" points="57.015,602.4902,47.64,598.3236,51.8067,602.4902,47.64,606.6569,57.015,602.4902" style="stroke: #009FDB; stroke-width: 3.125;"/><!--MD5=[b6ef3c088f5474ecc81df30475e7d61b]
link NumLockOff to NumLockOn--><path d="M57.0469,629.2361 C44.5194,636.2986 33.7971,643.7069 30.2083,649.8861 C24.163,660.2949 24.1921,666.5438 30.2083,676.9694 C35.2953,685.7846 42.7683,693.0742 51.1371,699.0537 " fill="none" id="NumLockOff-&gt;NumLockOn" style="stroke: #009FDB; stroke-width: 3.125;"/><polygon fill="#009FDB" points="55.8691,702.2422,50.4226,693.5481,51.5498,699.3318,45.766,700.459,55.8691,702.2422" style="stroke: #009FDB; stroke-width: 3.125;"/><text fill="#5A5A5A" font-family="Verdana" font-size="12.5" lengthAdjust="spacingAndGlyphs" textLength="127.0833" x="36.4583" y="668.7032">EvNumLockPressed</text><!--MD5=[3bfddee0d82dc74c927fbeb3d3f2e6a3]
link NumLockOn to NumLockOff--><path d="M155.7729,695.5399 C161.4302,690.1038 166.4083,683.9037 169.7917,676.9694 C175.0708,666.1516 175.024,660.7265 169.7917,649.8861 C167.2083,644.535 163.675,639.6111 159.6135,635.134 " fill="none" id="NumLockOn-&gt;NumLockOff" style="stroke: #009FDB; stroke-width: 3.125;"/><polygon fill="#009FDB" points="155.7479,631.1486,159.2833,640.7794,159.3738,634.8875,165.2657,634.978,155.7479,631.1486" style="stroke: #009FDB; stroke-width: 3.125;"/><text fill="#5A5A5A" font-family="Verdana" font-size="12.5" lengthAdjust="spacingAndGlyphs" textLength="127.0833" x="180.2083" y="668.7032">EvNumLockPressed</text><line style="stroke: #C2C2C2; stroke-width: 1.5625; stroke-dasharray: 8.0,10.0;" x1="11.4583" x2="350" y1="763.4277" y2="763.4277"/><ellipse cx="28.125" cy="800.4069" fill="#0568AE" rx="10.4167" ry="10.4167" style="stroke: none; stroke-width: 1.0416666666666667;"/><rect fill="url(#gnzfcgba314a31)" height="56.8583" rx="13.0208" ry="13.0208" style="stroke: #C2C2C2; stroke-width: 1.5625;" width="112.5" x="57.2917" y="771.7611"/><line style="stroke: #C2C2C2; stroke-width: 1.5625;" x1="57.2917" x2="169.7917" y1="807.7861" y2="807.7861"/><text fill="#0568AE" font-family="Verdana" font-size="12.5" lengthAdjust="spacingAndGlyphs" textLength="81.25" x="72.9167" y="794.7449">CapsLockOff</text><rect fill="url(#gnzfcgba314a31)" height="56.8583" rx="13.0208" ry="13.0208" style="stroke: #C2C2C2; stroke-width: 1.5625;" width="112.5" x="56.25" y="893.6361"/><line style="stroke: #C2C2C2; stroke-width: 1.5625;" x1="56.25" x2="168.75" y1="929.6611" y2="929.6611"/><text fill="#0568AE" font-family="Verdana" font-size="12.5" lengthAdjust="spacingAndGlyphs" textLength="81.25" x="71.875" y="916.6199">CapsLockOn</text><!--MD5=[ad44b9de6595643ec3df1279e2e825ac]
link *start*CONC82 to CapsLockOff--><path d="M38.8021,800.4069 C43.1129,800.4069 47.4238,800.4069 51.7346,800.4069 " fill="none" id="*start*CONC82-&gt;CapsLockOff" style="stroke: #009FDB; stroke-width: 3.125;"/><polygon fill="#009FDB" points="57.195,800.4069,47.82,796.2402,51.9867,800.4069,47.82,804.5736,57.195,800.4069" style="stroke: #009FDB; stroke-width: 3.125;"/><!--MD5=[dc4675bd3056f3ef68701d9e8e02a3f3]
link CapsLockOff to CapsLockOn--><path d="M56.877,827.5059 C44.4053,834.4215 33.8168,841.6663 30.2083,847.8027 C24.1068,858.1788 24.1346,864.4938 30.2083,874.8861 C35.3744,883.7252 42.9156,891.0101 51.3661,896.9732 " fill="none" id="CapsLockOff-&gt;CapsLockOn" style="stroke: #009FDB; stroke-width: 3.125;"/><polygon fill="#009FDB" points="56.1451,900.1514,50.6463,891.4903,51.8083,897.2671,46.0315,898.4292,56.1451,900.1514" style="stroke: #009FDB; stroke-width: 3.125;"/><text fill="#5A5A5A" font-family="Verdana" font-size="12.5" lengthAdjust="spacingAndGlyphs" textLength="131.25" x="36.4583" y="866.6199">EvCapsLockPressed</text><!--MD5=[79e17b083e07746bd1a647600952cab6]
link CapsLockOn to CapsLockOff--><path d="M159.7198,893.3967 C165.4563,887.9973 170.501,881.8238 173.9583,874.8861 C179.3271,864.1125 179.2823,858.5983 173.9583,847.8027 C171.3167,842.4465 167.726,837.5371 163.6042,833.084 " fill="none" id="CapsLockOn-&gt;CapsLockOff" style="stroke: #009FDB; stroke-width: 3.125;"/><polygon fill="#009FDB" points="159.6813,829.1236,163.3176,838.7167,163.3462,832.8242,169.2387,832.8528,159.6813,829.1236" style="stroke: #009FDB; stroke-width: 3.125;"/><text fill="#5A5A5A" font-family="Verdana" font-size="12.5" lengthAdjust="spacingAndGlyphs" textLength="131.25" x="184.375" y="866.6199">EvCapsLockPressed</text><line style="stroke: #C2C2C2; stroke-width: 1.5625; stroke-dasharray: 8.0,10.0;" x1="11.4583" x2="350" y1="961.3444" y2="961.3444"/><ellipse cx="28.125" cy="998.3236" fill="#0568AE" rx="10.4167" ry="10.4167" style="stroke: none; stroke-width: 1.0416666666666667;"/><rect fill="url(#gnzfcgba314a31)" height="56.8583" rx="13.0208" ry="13.0208" style="stroke: #C2C2C2; stroke-width: 1.5625;" width="113.5417" x="57.8125" y="969.6777"/><line style="stroke: #C2C2C2; stroke-width: 1.5625;" x1="57.8125" x2="171.3542" y1="1005.7027" y2="1005.7027"/><text fill="#0568AE" font-family="Verdana" font-size="12.5" lengthAdjust="spacingAndGlyphs" textLength="82.2917" x="73.4375" y="992.6615">ScrollLockOff</text><rect fill="url(#gnzfcgba314a31)" height="56.8583" rx="13.0208" ry="13.0208" style="stroke: #C2C2C2; stroke-width: 1.5625;" width="113.5417" x="57.8125" y="1091.5527"/><line style="stroke: #C2C2C2; stroke-width: 1.5625;" x1="57.8125" x2="171.3542" y1="1127.5777" y2="1127.5777"/><text fill="#0568AE" font-family="Verdana" font-size="12.5" lengthAdjust="spacingAndGlyphs" textLength="82.2917" x="73.4375" y="1114.5365">ScrollLockOn</text><!--MD5=[9a8b2c0f7fde6bd227d6334344b3ad45]
link *start*CONC90 to ScrollLockOff--><path d="M38.5946,998.3236 C43.1459,998.3236 47.6974,998.3236 52.2488,998.3236 " fill="none" id="*start*CONC90-&gt;ScrollLockOff" style="stroke: #009FDB; stroke-width: 3.125;"/><polygon fill="#009FDB" points="57.5918,998.3236,48.2168,994.1569,52.3834,998.3236,48.2168,1002.4902,57.5918,998.3236" style="stroke: #009FDB; stroke-width: 3.125;"/><!--MD5=[da4e1e55b4a6de250eca2c82023085fa]
link ScrollLockOff to ScrollLockOn--><path d="M57.8092,1020.7184 C47.6184,1027.1746 38.3317,1035.385 32.2917,1045.7194 C26.2179,1056.1117 26.2179,1062.4104 32.2917,1072.8027 C37.3879,1081.5225 44.7955,1088.7297 53.1074,1094.6473 " fill="none" id="ScrollLockOff-&gt;ScrollLockOn" style="stroke: #009FDB; stroke-width: 3.125;"/><polygon fill="#009FDB" points="57.8092,1097.8037,52.3479,1089.1189,53.4849,1094.9007,47.7031,1096.0377,57.8092,1097.8037" style="stroke: #009FDB; stroke-width: 3.125;"/><text fill="#5A5A5A" font-family="Verdana" font-size="12.5" lengthAdjust="spacingAndGlyphs" textLength="131.25" x="38.5417" y="1064.5365">EvCapsLockPressed</text><!--MD5=[6ad2c621f2407b82317910f4deb17639]
link ScrollLockOn to ScrollLockOff--><path d="M161.8031,1091.3134 C167.5396,1085.914 172.5844,1079.7404 176.0417,1072.8027 C181.4104,1062.0292 181.4104,1056.4929 176.0417,1045.7194 C173.3948,1040.4079 169.8167,1035.5444 165.7104,1031.1329 " fill="none" id="ScrollLockOn-&gt;ScrollLockOff" style="stroke: #009FDB; stroke-width: 3.125;"/><polygon fill="#009FDB" points="161.8031,1027.209,165.4647,1036.7926,165.4778,1030.9,171.3703,1030.9131,161.8031,1027.209" style="stroke: #009FDB; stroke-width: 3.125;"/><text fill="#5A5A5A" font-family="Verdana" font-size="12.5" lengthAdjust="spacingAndGlyphs" textLength="131.25" x="185.4167" y="1064.5365">EvCapsLockPressed</text><!--MD5=[242ad121cef04112e9b0ee8f25f52375]
link *start to fork_state--><path d="M181.7708,80.6528 C181.7708,95.2778 181.7708,123.1215 181.7708,137.3309 " fill="none" id="*start-&gt;fork_state" style="stroke: #009FDB; stroke-width: 3.125;"/><polygon fill="#009FDB" points="181.7708,142.8048,185.9375,133.4298,181.7708,137.5965,177.6042,133.4298,181.7708,142.8048" style="stroke: #009FDB; stroke-width: 3.125;"/><!--MD5=[44dd36eb382d4fffd186e8c447a61da0]
link fork_state to State2--><path d="M179.674,151.7767 C174.1208,161.1548 158.5781,187.4017 145.7313,209.0955 " fill="none" id="fork_state-&gt;State2" style="stroke: #009FDB; stroke-width: 3.125;"/><polygon fill="#009FDB" points="143.0354,213.6475,151.3966,207.7026,145.6886,209.1656,144.2255,203.4576,143.0354,213.6475" style="stroke: #009FDB; stroke-width: 3.125;"/><!--MD5=[43d4d70f9cd19f132a5eb1ce9d85c890]
link fork_state to State3--><path d="M183.9073,151.7767 C189.5656,161.1548 205.401,187.4017 218.4906,209.0955 " fill="none" id="fork_state-&gt;State3" style="stroke: #009FDB; stroke-width: 3.125;"/><polygon fill="#009FDB" points="221.2365,213.6475,219.9615,203.4678,218.5461,209.1879,212.826,207.7725,221.2365,213.6475" style="stroke: #009FDB; stroke-width: 3.125;"/><!--MD5=[8cf5ef3a64654818495211b4c165bd62]
link State2 to join_state--><path d="M143.1271,271.5205 C154.6885,291.0434 169.3427,315.7903 176.849,328.4663 " fill="none" id="State2-&gt;join_state" style="stroke: #009FDB; stroke-width: 3.125;"/><polygon fill="#009FDB" points="179.5979,333.109,178.4063,322.9192,176.9441,328.6275,171.2359,327.1653,179.5979,333.109" style="stroke: #009FDB; stroke-width: 3.125;"/><!--MD5=[183fde86cac17ac230b97143534e47db]
link State3 to join_state--><path d="M221.1438,271.5205 C209.3646,291.0434 194.4333,315.7903 186.7854,328.4663 " fill="none" id="State3-&gt;join_state" style="stroke: #009FDB; stroke-width: 3.125;"/><polygon fill="#009FDB" points="183.9844,333.109,192.3948,327.2339,186.6748,328.6493,185.2593,322.9293,183.9844,333.109" style="stroke: #009FDB; stroke-width: 3.125;"/><!--MD5=[1e473d623208eebf6d5ebd6e9bc5a11d]
link join_state to State4--><path d="M181.7708,342.4017 C181.7708,351.6621 181.7708,377.3705 181.7708,398.9007 " fill="none" id="join_state-&gt;State4" style="stroke: #009FDB; stroke-width: 3.125;"/><polygon fill="#009FDB" points="181.7708,404.2725,185.9375,394.8975,181.7708,399.0642,177.6042,394.8975,181.7708,404.2725" style="stroke: #009FDB; stroke-width: 3.125;"/><!--MD5=[0a70b1a7cf318979336334b4227eefe4]
link State4 to Active--><path d="M181.7708,461.9903 C181.7708,476.5673 181.7708,496.084 181.7708,518.61 " fill="none" id="State4-&gt;Active" style="stroke: #009FDB; stroke-width: 3.125;"/><polygon fill="#009FDB" points="181.7708,524.085,185.9375,514.71,181.7708,518.8767,177.6042,514.71,181.7708,524.085" style="stroke: #009FDB; stroke-width: 3.125;"/><!--MD5=[5fafabca182c54abf5d45cef161385ac]
@startuml



skinparam backgroundColor transparent







skinparam defaultFontName        "Verdana"
skinparam defaultFontSize        12
skinparam dpi                    100
skinparam shadowing              false
skinparam roundcorner            8
skinparam ParticipantPadding     30
skinparam BoxPadding             40
skinparam Padding                5
skinparam ArrowColor             #959595
skinparam stereotype {
    CBackgroundColor #f5f5f5
    CBorderColor #c2c2c2
    ABackgroundColor #c4ca33
    ABorderColor #919700
    IBackgroundColor #d95555
    IBorderColor #a62222
    EBackgroundColor #ee9033
    EBorderColor #bb5d00
    NBackgroundColor #3786be
    NBorderColor #04538b
}
skinparam title {
	FontColor	                 #009fdb
	BorderColor	                 #c2c2c2
	FontSize	    	         20
	BorderRoundCorner            8
	BorderThickness 	         1
	BackgroundColor              #f5f5f5-#f2f2f2
}


skinparam legend {
	BackgroundColor #f2f2f2
	BorderColor #c2c2c2
	FontColor #5a5a5a
}

skinparam activity {
	FontColor #fff
	BorderColor #009fdb
	BackgroundColor #33b2e2-#009fdb
	BarColor #b5bd00
	StartColor #0568ae
	EndColor #0568ae
	DiamondBackgroundColor #fff-#f5f5f5
  	DiamondBorderColor #c2c2c2
	DiamondFontColor #5a5a5a
}

skinparam sequence {
	BorderColor #009fdb
	TitleFontColor #009fdb
	BackgroundColor transparent
	StartColor #009fdb
	EndColor #009fdb
	ParticipantBackgroundColor #33b2e2-#009fdb
    ParticipantBorderColor #009fdb
	ParticipantBorderThickness 0
	ParticipantFontColor #fff
	ActorBackgroundColor transparent
    ActorBorderColor #009fdb
	ActorFontColor #009fdb
	ArrowThickness 3
	ArrowColor #009fdb
	ArrowFontColor #5a5a5a
	BoxBackgroundColor #d2d2d2
	BoxBorderColor #959595
	BoxFontColor #5a5a5a
	LifeLineBorderColor #c2c2c2
	LifeLineBorderThickness 2
	LifeLineBackgroundColor #f5f5f5
	GroupBorderColor #959595
	GroupFontColor #5a5a5a
	GroupHeaderFontColor #0568ae
	DividerBackgroundColor #fff-#d2d2d2
    DividerBorderColor #959595
    DividerBorderThickness 2
    DividerFontColor #5a5a5a
	ReferenceBackgroundColor transparent
	ReferenceBorderColor #959595
	ReferenceFontColor #5a5a5a
	ReferenceHeaderFontColor #0568ae
}

skinparam partition {
	BorderColor #009fdb
	FontColor #009fdb
	BackgroundColor transparent
}

skinparam collections {
	BackgroundColor #33b2e2-#009fdb
	BorderColor #009fdb
}

skinparam control {
	BackgroundColor  #33b2e2-#009fdb
	BorderColor #007faf
	FontColor #5a5a5a
}

skinparam entity {
	BackgroundColor  #33b2e2-#009fdb
	BorderColor #007faf
	FontColor #5a5a5a
}

skinparam boundary {
	BackgroundColor  #33b2e2-#009fdb
	BorderColor #007faf
	FontColor #5a5a5a
}

skinparam agent {
	BackgroundColor #orange
	BorderColor #999999
	FontColor #333333
}

skinparam note {
	BorderThickness 1
	BackgroundColor #3786be-#0568ae
	BorderColor #0568ae
	FontColor #fff
}

skinparam artifact {
	BackgroundColor #fff-#d2d2d2
	BorderColor #959595
	FontColor #959595
}

skinparam component {
	BackgroundColor  #c4ca33-#b5bd00
	BorderColor  #b5bd00
	FontColor #fff
}

skinparam interface {
	BackgroundColor  #d95555
	BorderColor  #cf2a2a
	FontColor #5a5a5a
}

skinparam storage {
	BackgroundColor #ee9033-#ea7400
  	BorderColor #ea7400
	FontColor #fff
}

skinparam node {
	BackgroundColor #f5f5f5-#f2f2f2
	BorderColor #c2c2c2
	FontColor #009fdb
	StereotypeFontColor #5a5a5a
}

skinparam cloud {
	BackgroundColor white-#F2FCFE
	BorderColor #f2f2f2
	FontColor #5a5a5a
}

skinparam database {
    BackgroundColor  #33b2e2-#009fdb
	BorderColor #007faf
	FontColor #fff
	StereotypeFontColor #d2d2d2
}

skinparam actor {
	FontColor #5a5a5a
}

skinparam class {
	HeaderBackgroundColor #009fdb-#007faf
	FontColor #fff
	BackgroundColor #33b2e2-#009fdb
	BorderColor #007faf
	StereotypeFontColor #5a5a5a
	BorderThickness 1
	AttributeFontColor #d2d2d2
	AttributeFontSize 11
}

skinparam object {
	FontColor #b5bd00
	BackgroundColor #f2f2f2-#c2c2c2
	BorderColor #c2c2c2
	StereotypeFontColor #5a5a5a
	BorderThickness 1
	AttributeFontColor #5a5a5a
	AttributeFontSize 11
}

skinparam usecase {
	BackgroundColor #f2f2f2-#c2c2c2
	BorderColor #c2c2c2
	BorderThickness 2
	FontColor #5a5a5a
	StereotypeFontColor #009fdb
}

skinparam rectangle {
	BackgroundColor #f5f5f5-#f2f2f2
	BorderColor #007faf
	BorderThickness 2
	FontColor #009fdb
	StereotypeFontColor #009fdb
}

skinparam package {
	BackgroundColor #f5f5f5-#f2f2f2
  	BorderColor #009fdb
	FontColor #009fdb
	BorderThickness 2
}

skinparam folder {
	BackgroundColor #fff-#f5f5f5
  	BorderColor #ea7400
	FontColor #ea7400
	BorderThickness 2
}

skinparam frame {
	BackgroundColor #fff-#f5f5f5
  	BorderColor #0568ae
	FontColor #0568ae
	BorderThickness 2
}

skinparam state {
	StartColor #0568ae
	EndColor #0568ae
	BackgroundColor #f2f2f2-#c2c2c2
	BorderColor #c2c2c2
	FontColor #0568ae
	AttributeFontColor #5a5a5a
	AttributeFontSize 11
}

skinparam queue {
	BackgroundColor #ea7400-#bb5d00
  	BorderColor #bb5d00
	FontColor #fff
}

skinparam card {
	BackgroundColor #3786be-#0568ae
	BorderColor #0568ae
	FontColor #fff
}

skinparam file {
	BackgroundColor #f5f5f5-#f2f2f2
	BorderColor #959595
	FontColor #959595

}

skinparam stack {
	BackgroundColor #33b2e2-#007faf
	BorderColor #009fdb
	FontColor #fff
}

title State Diagram - bluegray theme


state fork_state <<fork>>
[*] - -> fork_state
fork_state - -> State2
fork_state - -> State3

state join_state <<join>>
State2 - -> join_state
State3 - -> join_state
join_state - -> State4
State4 - -> Active

state Active {
  [*] -> NumLockOff
  NumLockOff - -> NumLockOn : EvNumLockPressed
  NumLockOn - -> NumLockOff : EvNumLockPressed
  - -
  [*] -> CapsLockOff
  CapsLockOff - -> CapsLockOn : EvCapsLockPressed
  CapsLockOn - -> CapsLockOff : EvCapsLockPressed
  - -
  [*] -> ScrollLockOff
  ScrollLockOff - -> ScrollLockOn : EvCapsLockPressed
  ScrollLockOn - -> ScrollLockOff : EvCapsLockPressed
}

@enduml

PlantUML version 1.2019.12(Sun Nov 03 02:24:54 PST 2019)
(GPL source distribution)
Java Runtime: Java(TM) SE Runtime Environment
JVM: Java HotSpot(TM) 64-Bit Server VM
Java Version: 1.8.0_212-b32
Operating System: Windows 10
Default Encoding: Cp1252
Language: en
Country: US
--></g></svg>