<?xml version="1.0" encoding="UTF-8" standalone="no"?><svg xmlns="http://www.w3.org/2000/svg" xmlns:xlink="http://www.w3.org/1999/xlink" contentScriptType="application/ecmascript" contentStyleType="text/css" height="1175px" preserveAspectRatio="none" style="width:383px;height:1175px;" version="1.1" viewBox="0 0 383 1175" width="383.3333px" zoomAndPan="magnify"><defs><linearGradient id="gzr0ac4rib3nl0" x1="50%" x2="50%" y1="0%" y2="100%"><stop offset="0%" stop-color="#F5F5F5"/><stop offset="100%" stop-color="#F2F2F2"/></linearGradient><linearGradient id="gzr0ac4rib3nl1" x1="50%" x2="50%" y1="0%" y2="100%"><stop offset="0%" stop-color="#F2F2F2"/><stop offset="100%" stop-color="#C2C2C2"/></linearGradient></defs><g><rect fill="url(#gzr0ac4rib3nl0)" height="46.1528" rx="4.1667" ry="4.1667" style="stroke: #C2C2C2; stroke-width: 1.0416666666666667;" width="368.75" x="3.125" y="2.0833"/><text fill="#009FDB" font-family="Verdana" font-size="20.8333" lengthAdjust="spacingAndGlyphs" textLength="341.6667" x="16.6667" y="33.4452">State Diagram - bluegray theme</text><rect fill="#B5BD00" height="8.3333" style="stroke: none; stroke-width: 1.0416666666666667;" width="83.3333" x="140.1042" y="143.0278"/><ellipse cx="181.7708" cy="70.1111" fill="#0568AE" rx="10.4167" ry="10.4167" style="stroke: none; stroke-width: 1.0416666666666667;"/><rect fill="url(#gzr0ac4rib3nl1)" height="56.8583" rx="13.0208" ry="13.0208" style="stroke: #C2C2C2; stroke-width: 1.5625;" width="75" x="89.0625" y="213.8611"/><line style="stroke: #C2C2C2; stroke-width: 1.5625;" x1="89.0625" x2="164.0625" y1="249.8861" y2="249.8861"/><text fill="#0568AE" font-family="Verdana" font-size="12.5" lengthAdjust="spacingAndGlyphs" textLength="43.75" x="104.6875" y="236.8449">State2</text><rect fill="url(#gzr0ac4rib3nl1)" height="56.8583" rx="13.0208" ry="13.0208" style="stroke: #C2C2C2; stroke-width: 1.5625;" width="75" x="200.5208" y="213.8611"/><line style="stroke: #C2C2C2; stroke-width: 1.5625;" x1="200.5208" x2="275.5208" y1="249.8861" y2="249.8861"/><text fill="#0568AE" font-family="Verdana" font-size="12.5" lengthAdjust="spacingAndGlyphs" textLength="43.75" x="216.1458" y="236.8449">State3</text><rect fill="#B5BD00" height="8.3333" style="stroke: none; stroke-width: 1.0416666666666667;" width="83.3333" x="140.1042" y="333.6528"/><rect fill="url(#gzr0ac4rib3nl1)" height="56.8583" rx="13.0208" ry="13.0208" style="stroke: #C2C2C2; stroke-width: 1.5625;" width="75" x="144.2708" y="404.4861"/><line style="stroke: #C2C2C2; stroke-width: 1.5625;" x1="144.2708" x2="219.2708" y1="440.5111" y2="440.5111"/><text fill="#0568AE" font-family="Verdana" font-size="12.5" lengthAdjust="spacingAndGlyphs" textLength="43.75" x="159.8958" y="427.4699">State4</text><rect fill="url(#gzr0ac4rib3nl1)" height="640.1917" rx="13.0208" ry="13.0208" style="stroke: #C2C2C2; stroke-width: 1.5625;" width="351.0417" x="6.25" y="524.2778"/><rect fill="#FFFFFF" height="597.9167" rx="13.0208" ry="13.0208" style="stroke: #FFFFFF; stroke-width: 1.0416666666666667;" width="344.7917" x="9.375" y="563.4277"/><line style="stroke: #C2C2C2; stroke-width: 1.5625;" x1="6.25" x2="357.2917" y1="560.3027" y2="560.3027"/><text fill="#0568AE" font-family="Verdana" font-size="12.5" lengthAdjust="spacingAndGlyphs" textLength="38.5417" x="162.5" y="547.2616">Active</text><ellipse cx="28.125" cy="602.4902" fill="#0568AE" rx="10.4167" ry="10.4167" style="stroke: none; stroke-width: 1.0416666666666667;"/><rect fill="url(#gzr0ac4rib3nl1)" height="56.8583" rx="13.0208" ry="13.0208" style="stroke: #C2C2C2; stroke-width: 1.5625;" width="108.3333" x="57.2917" y="573.8444"/><line style="stroke: #C2C2C2; stroke-width: 1.5625;" x1="57.2917" x2="165.625" y1="609.8694" y2="609.8694"/><text fill="#0568AE" font-family="Verdana" font-size="12.5" lengthAdjust="spacingAndGlyphs" textLength="77.0833" x="72.9167" y="596.8282">NumLockOff</text><rect fill="url(#gzr0ac4rib3nl1)" height="56.8583" rx="13.0208" ry="13.0208" style="stroke: #C2C2C2; stroke-width: 1.5625;" width="108.3333" x="56.25" y="695.7194"/><line style="stroke: #C2C2C2; stroke-width: 1.5625;" x1="56.25" x2="164.5833" y1="731.7444" y2="731.7444"/><text fill="#0568AE" font-family="Verdana" font-size="12.5" lengthAdjust="spacingAndGlyphs" textLength="77.0833" x="71.875" y="718.7032">NumLockOn</text><!--MD5=[f1e44e9cdf7ed6fd162579f896fb76ea]
link *start*Active to NumLockOff--><path d="M38.5417,602.4902 C42.8808,602.4902 47.2201,602.4902 51.5593,602.4902 " fill="none" id="*start*Active-&gt;NumLockOff" style="stroke: #009FDB; stroke-width: 3.125;"/><polygon fill="#009FDB" points="57.0556,602.4902,47.6806,598.3236,51.8473,602.4902,47.6806,606.6569,57.0556,602.4902" style="stroke: #009FDB; stroke-width: 3.125;"/><!--MD5=[b6ef3c088f5474ecc81df30475e7d61b]
link NumLockOff to NumLockOn--><path d="M57.034,628.8848 C44.5063,636.1077 33.7871,643.6553 30.2083,649.8861 C24.2131,660.3239 24.2426,666.5147 30.2083,676.9694 C35.2811,685.8593 42.7472,693.2502 51.1131,699.3401 " fill="none" id="NumLockOff-&gt;NumLockOn" style="stroke: #009FDB; stroke-width: 3.125;"/><polygon fill="#009FDB" points="55.8441,702.5908,50.4769,693.8475,51.5514,699.6412,45.7576,700.7157,55.8441,702.5908" style="stroke: #009FDB; stroke-width: 3.125;"/><text fill="#5A5A5A" font-family="Verdana" font-size="12.5" lengthAdjust="spacingAndGlyphs" textLength="127.0833" x="36.4583" y="668.7032">EvNumLockPressed</text><!--MD5=[3bfddee0d82dc74c927fbeb3d3f2e6a3]
link NumLockOn to NumLockOff--><path d="M156.0756,695.5362 C161.6121,690.0651 166.4741,683.8625 169.7917,676.9694 C175.0118,666.1232 174.9649,660.7547 169.7917,649.8861 C167.2584,644.5638 163.8029,639.6441 159.8296,635.1507 " fill="none" id="NumLockOn-&gt;NumLockOff" style="stroke: #009FDB; stroke-width: 3.125;"/><polygon fill="#009FDB" points="156.0466,631.1445,159.4538,640.8214,159.6225,634.9313,165.5126,635.1,156.0466,631.1445" style="stroke: #009FDB; stroke-width: 3.125;"/><text fill="#5A5A5A" font-family="Verdana" font-size="12.5" lengthAdjust="spacingAndGlyphs" textLength="127.0833" x="180.2083" y="668.7032">EvNumLockPressed</text><line style="stroke: #C2C2C2; stroke-width: 1.5625; stroke-dasharray: 8.0,10.0;" x1="11.4583" x2="350" y1="763.4277" y2="763.4277"/><ellipse cx="28.125" cy="800.4069" fill="#0568AE" rx="10.4167" ry="10.4167" style="stroke: none; stroke-width: 1.0416666666666667;"/><rect fill="url(#gzr0ac4rib3nl1)" height="56.8583" rx="13.0208" ry="13.0208" style="stroke: #C2C2C2; stroke-width: 1.5625;" width="112.5" x="57.2917" y="771.7611"/><line style="stroke: #C2C2C2; stroke-width: 1.5625;" x1="57.2917" x2="169.7917" y1="807.7861" y2="807.7861"/><text fill="#0568AE" font-family="Verdana" font-size="12.5" lengthAdjust="spacingAndGlyphs" textLength="81.25" x="72.9167" y="794.7449">CapsLockOff</text><rect fill="url(#gzr0ac4rib3nl1)" height="56.8583" rx="13.0208" ry="13.0208" style="stroke: #C2C2C2; stroke-width: 1.5625;" width="112.5" x="56.25" y="893.6361"/><line style="stroke: #C2C2C2; stroke-width: 1.5625;" x1="56.25" x2="168.75" y1="929.6611" y2="929.6611"/><text fill="#0568AE" font-family="Verdana" font-size="12.5" lengthAdjust="spacingAndGlyphs" textLength="81.25" x="71.875" y="916.6199">CapsLockOn</text><!--MD5=[ad44b9de6595643ec3df1279e2e825ac]
link *start*CONC82 to CapsLockOff--><path d="M38.8021,800.4069 C43.1129,800.4069 47.4238,800.4069 51.7346,800.4069 " fill="none" id="*start*CONC82-&gt;CapsLockOff" style="stroke: #009FDB; stroke-width: 3.125;"/><polygon fill="#009FDB" points="57.195,800.4069,47.82,796.2402,51.9867,800.4069,47.82,804.5736,57.195,800.4069" style="stroke: #009FDB; stroke-width: 3.125;"/><!--MD5=[dc4675bd3056f3ef68701d9e8e02a3f3]
link CapsLockOff to CapsLockOn--><path d="M56.8638,827.1658 C44.3921,834.2376 33.8068,841.6163 30.2083,847.8027 C24.1561,858.2075 24.1844,864.4648 30.2083,874.8861 C35.36,883.7983 42.894,891.1825 51.3416,897.254 " fill="none" id="CapsLockOff-&gt;CapsLockOn" style="stroke: #009FDB; stroke-width: 3.125;"/><polygon fill="#009FDB" points="56.1194,900.4934,50.6982,891.7835,51.8085,897.5705,46.0215,898.6808,56.1194,900.4934" style="stroke: #009FDB; stroke-width: 3.125;"/><text fill="#5A5A5A" font-family="Verdana" font-size="12.5" lengthAdjust="spacingAndGlyphs" textLength="131.25" x="36.4583" y="866.6199">EvCapsLockPressed</text><!--MD5=[79e17b083e07746bd1a647600952cab6]
link CapsLockOn to CapsLockOff--><path d="M160.0319,893.3832 C165.6433,887.9512 170.5698,881.7784 173.9583,874.8861 C179.2691,864.0839 179.2243,858.6268 173.9583,847.8027 C171.3684,842.4793 167.8592,837.5766 163.8274,833.1089 " fill="none" id="CapsLockOn-&gt;CapsLockOff" style="stroke: #009FDB; stroke-width: 3.125;"/><polygon fill="#009FDB" points="159.9893,829.1286,163.4974,838.7694,163.6045,832.8778,169.4961,832.9849,159.9893,829.1286" style="stroke: #009FDB; stroke-width: 3.125;"/><text fill="#5A5A5A" font-family="Verdana" font-size="12.5" lengthAdjust="spacingAndGlyphs" textLength="131.25" x="184.375" y="866.6199">EvCapsLockPressed</text><line style="stroke: #C2C2C2; stroke-width: 1.5625; stroke-dasharray: 8.0,10.0;" x1="11.4583" x2="350" y1="961.3444" y2="961.3444"/><ellipse cx="28.125" cy="998.3236" fill="#0568AE" rx="10.4167" ry="10.4167" style="stroke: none; stroke-width: 1.0416666666666667;"/><rect fill="url(#gzr0ac4rib3nl1)" height="56.8583" rx="13.0208" ry="13.0208" style="stroke: #C2C2C2; stroke-width: 1.5625;" width="113.5417" x="57.8125" y="969.6777"/><line style="stroke: #C2C2C2; stroke-width: 1.5625;" x1="57.8125" x2="171.3542" y1="1005.7027" y2="1005.7027"/><text fill="#0568AE" font-family="Verdana" font-size="12.5" lengthAdjust="spacingAndGlyphs" textLength="82.2917" x="73.4375" y="992.6615">ScrollLockOff</text><rect fill="url(#gzr0ac4rib3nl1)" height="56.8583" rx="13.0208" ry="13.0208" style="stroke: #C2C2C2; stroke-width: 1.5625;" width="113.5417" x="57.8125" y="1091.5527"/><line style="stroke: #C2C2C2; stroke-width: 1.5625;" x1="57.8125" x2="171.3542" y1="1127.5777" y2="1127.5777"/><text fill="#0568AE" font-family="Verdana" font-size="12.5" lengthAdjust="spacingAndGlyphs" textLength="82.2917" x="73.4375" y="1114.5365">ScrollLockOn</text><!--MD5=[9a8b2c0f7fde6bd227d6334344b3ad45]
link *start*CONC90 to ScrollLockOff--><path d="M38.5946,998.3236 C43.1459,998.3236 47.6974,998.3236 52.2488,998.3236 " fill="none" id="*start*CONC90-&gt;ScrollLockOff" style="stroke: #009FDB; stroke-width: 3.125;"/><polygon fill="#009FDB" points="57.5918,998.3236,48.2168,994.1569,52.3834,998.3236,48.2168,1002.4902,57.5918,998.3236" style="stroke: #009FDB; stroke-width: 3.125;"/><!--MD5=[da4e1e55b4a6de250eca2c82023085fa]
link ScrollLockOff to ScrollLockOn--><path d="M57.7834,1020.3818 C47.5945,1026.9684 38.3149,1035.2996 32.2917,1045.7194 C26.2677,1056.1407 26.2677,1062.3815 32.2917,1072.8027 C37.3738,1081.5945 44.7741,1088.8993 53.0829,1094.9238 " fill="none" id="ScrollLockOff-&gt;ScrollLockOn" style="stroke: #009FDB; stroke-width: 3.125;"/><polygon fill="#009FDB" points="57.7834,1098.1403,52.3996,1089.4073,53.4851,1095.199,47.6934,1096.2846,57.7834,1098.1403" style="stroke: #009FDB; stroke-width: 3.125;"/><text fill="#5A5A5A" font-family="Verdana" font-size="12.5" lengthAdjust="spacingAndGlyphs" textLength="131.25" x="38.5417" y="1064.5365">EvCapsLockPressed</text><!--MD5=[6ad2c621f2407b82317910f4deb17639]
link ScrollLockOn to ScrollLockOff--><path d="M162.1152,1091.2998 C167.7267,1085.8678 172.6531,1079.695 176.0417,1072.8027 C181.3524,1062.0005 181.3524,1056.5216 176.0417,1045.7194 C173.4473,1040.4424 169.9515,1035.5873 165.9369,1031.1635 " fill="none" id="ScrollLockOn-&gt;ScrollLockOff" style="stroke: #009FDB; stroke-width: 3.125;"/><polygon fill="#009FDB" points="162.1152,1027.2223,165.6502,1036.8533,165.7409,1030.9614,171.6328,1031.0521,162.1152,1027.2223" style="stroke: #009FDB; stroke-width: 3.125;"/><text fill="#5A5A5A" font-family="Verdana" font-size="12.5" lengthAdjust="spacingAndGlyphs" textLength="131.25" x="185.4167" y="1064.5365">EvCapsLockPressed</text><!--MD5=[242ad121cef04112e9b0ee8f25f52375]
link *start to fork_state--><path d="M181.7708,80.8292 C181.7708,95.8871 181.7708,123.0776 181.7708,137.539 " fill="none" id="*start-&gt;fork_state" style="stroke: #009FDB; stroke-width: 3.125;"/><polygon fill="#009FDB" points="181.7708,142.8849,185.9375,133.5099,181.7708,137.6766,177.6042,133.5099,181.7708,142.8849" style="stroke: #009FDB; stroke-width: 3.125;"/><!--MD5=[44dd36eb382d4fffd186e8c447a61da0]
link fork_state to State2--><path d="M179.2552,151.5374 C173.3865,161.6693 158.3375,187.6501 145.8178,209.2643 " fill="none" id="fork_state-&gt;State2" style="stroke: #009FDB; stroke-width: 3.125;"/><polygon fill="#009FDB" points="143.1889,213.803,151.4934,207.7791,145.7994,209.2961,144.2824,203.6022,143.1889,213.803" style="stroke: #009FDB; stroke-width: 3.125;"/><!--MD5=[43d4d70f9cd19f132a5eb1ce9d85c890]
link fork_state to State3--><path d="M184.334,151.5374 C190.3134,161.6693 205.6464,187.6501 218.4023,209.2643 " fill="none" id="fork_state-&gt;State3" style="stroke: #009FDB; stroke-width: 3.125;"/><polygon fill="#009FDB" points="221.0808,213.803,219.9044,203.6114,218.4337,209.3175,212.7276,207.8468,221.0808,213.803" style="stroke: #009FDB; stroke-width: 3.125;"/><!--MD5=[8cf5ef3a64654818495211b4c165bd62]
link State2 to join_state--><path d="M143.4268,271.6217 C154.7474,291.1659 168.9231,315.639 176.4686,328.6656 " fill="none" id="State2-&gt;join_state" style="stroke: #009FDB; stroke-width: 3.125;"/><polygon fill="#009FDB" points="179.2688,333.4998,178.1752,323.2991,176.6582,328.993,170.9643,327.476,179.2688,333.4998" style="stroke: #009FDB; stroke-width: 3.125;"/><!--MD5=[183fde86cac17ac230b97143534e47db]
link State3 to join_state--><path d="M220.8383,271.6217 C209.2011,291.3404 194.6027,316.0764 186.9688,329.0118 " fill="none" id="State3-&gt;join_state" style="stroke: #009FDB; stroke-width: 3.125;"/><polygon fill="#009FDB" points="184.3201,333.4998,192.6734,327.5438,186.9673,329.0144,185.4967,323.3083,184.3201,333.4998" style="stroke: #009FDB; stroke-width: 3.125;"/><!--MD5=[1e473d623208eebf6d5ebd6e9bc5a11d]
link join_state to State4--><path d="M181.7708,342.1624 C181.7708,352.1671 181.7708,377.6254 181.7708,399.0734 " fill="none" id="join_state-&gt;State4" style="stroke: #009FDB; stroke-width: 3.125;"/><polygon fill="#009FDB" points="181.7708,404.428,185.9375,395.053,181.7708,399.2196,177.6042,395.053,181.7708,404.428" style="stroke: #009FDB; stroke-width: 3.125;"/><!--MD5=[0a70b1a7cf318979336334b4227eefe4]
link State4 to Active--><path d="M181.7708,462.0648 C181.7708,476.7134 181.7708,496.1373 181.7708,518.4846 " fill="none" id="State4-&gt;Active" style="stroke: #009FDB; stroke-width: 3.125;"/><polygon fill="#009FDB" points="181.7708,523.9146,185.9375,514.5396,181.7708,518.7063,177.6042,514.5396,181.7708,523.9146" style="stroke: #009FDB; stroke-width: 3.125;"/><!--MD5=[d2bd3a4805440203c08537fa600c1714]
@startuml



skinparam backgroundColor transparent







skinparam defaultFontName        "Verdana"
skinparam defaultFontSize        12
skinparam dpi                    100
skinparam shadowing              false
skinparam roundcorner            8
skinparam ParticipantPadding     30
skinparam BoxPadding             40
skinparam Padding                5
skinparam ArrowColor             #959595
skinparam title {
	FontColor	                 #009fdb
	BorderColor	                 #c2c2c2
	FontSize	    	         20
	BorderRoundCorner            8
	BorderThickness 	         1
	BackgroundColor              #f5f5f5-#f2f2f2
}


skinparam legend {
	BackgroundColor #f2f2f2
	BorderColor #c2c2c2
	FontColor #5a5a5a
}

skinparam activity {
	FontColor #fff
	BorderColor #009fdb
	BackgroundColor #33b2e2-#009fdb
	BarColor #b5bd00
	StartColor #0568ae
	EndColor #0568ae
	DiamondBackgroundColor #fff-#f5f5f5
  	DiamondBorderColor #c2c2c2
	DiamondFontColor #5a5a5a
}

skinparam sequence {
	BorderColor #009fdb
	TitleFontColor #009fdb
	BackgroundColor transparent
	StartColor #009fdb
	EndColor #009fdb
	ParticipantBackgroundColor #33b2e2-#009fdb
    ParticipantBorderColor #009fdb
	ParticipantBorderThickness 0
	ParticipantFontColor #fff
	ActorBackgroundColor transparent
    ActorBorderColor #009fdb
	ActorFontColor #009fdb
	ArrowThickness 3
	ArrowColor #009fdb
	ArrowFontColor #5a5a5a
	BoxBackgroundColor #d2d2d2
	BoxBorderColor #959595
	BoxFontColor #5a5a5a
	LifeLineBorderColor #c2c2c2
	LifeLineBorderThickness 2
	LifeLineBackgroundColor #f5f5f5
	GroupBorderColor #959595
	GroupFontColor #5a5a5a
	GroupHeaderFontColor #0568ae
	DividerBackgroundColor #fff-#d2d2d2
    DividerBorderColor #959595
    DividerBorderThickness 2
    DividerFontColor #5a5a5a
	ReferenceBackgroundColor transparent
	ReferenceBorderColor #959595
	ReferenceFontColor #5a5a5a
	ReferenceHeaderFontColor #0568ae
}

skinparam partition {
	BorderColor #009fdb
	FontColor #009fdb
	BackgroundColor transparent
}

skinparam collections {
	BackgroundColor #33b2e2-#009fdb
	BorderColor #009fdb
}

skinparam control {
	BackgroundColor  #33b2e2-#009fdb
	BorderColor #007faf
	FontColor #5a5a5a
}

skinparam entity {
	BackgroundColor  #33b2e2-#009fdb
	BorderColor #007faf
	FontColor #5a5a5a
}

skinparam boundary {
	BackgroundColor  #33b2e2-#009fdb
	BorderColor #007faf
	FontColor #5a5a5a
}

skinparam agent {
	BackgroundColor #orange
	BorderColor #999999
	FontColor #333333
}

skinparam note {
	BorderThickness 1
	BackgroundColor #3786be-#0568ae
	BorderColor #0568ae
	FontColor #fff
}

skinparam artifact {
	BackgroundColor #fff-#d2d2d2
	BorderColor #959595
	FontColor #959595
}

skinparam component {
	BackgroundColor  #c4ca33-#b5bd00
	BorderColor  #b5bd00
	FontColor #fff
}

skinparam interface {
	BackgroundColor  #d95555
	BorderColor  #cf2a2a
	FontColor #5a5a5a
}

skinparam storage {
	BackgroundColor #ee9033-#ea7400
  	BorderColor #ea7400
	FontColor #fff
}

skinparam node {
	BackgroundColor #f5f5f5-#f2f2f2
	BorderColor #c2c2c2
	FontColor #009fdb
	StereotypeFontColor #5a5a5a
}

skinparam cloud {
	BackgroundColor white-lightskyblue
	BorderColor transparent
	FontColor #5a5a5a
}

skinparam database {
    BackgroundColor  #33b2e2-#009fdb
	BorderColor #007faf
	FontColor #fff
	StereotypeFontColor #d2d2d2
}

skinparam actor {
	FontColor #5a5a5a
}

skinparam class {
	HeaderBackgroundColor #009fdb-#007faf
	FontColor #fff
	BackgroundColor #33b2e2-#009fdb
	BorderColor #007faf
	StereotypeFontColor #5a5a5a
	BorderThickness 1
	AttributeFontColor #5a5a5a
	AttributeFontSize 11
}

skinparam object {
	FontColor #b5bd00
	BackgroundColor #f2f2f2-#c2c2c2
	BorderColor #c2c2c2
	StereotypeFontColor #5a5a5a
	BorderThickness 1
	AttributeFontColor #5a5a5a
	AttributeFontSize 11
}

skinparam usecase {
	BackgroundColor #f5f5f5-#f2f2f2
	BorderColor #f2f2f2
	BorderThickness 2
	FontColor #5a5a5a
	StereotypeFontColor #009fdb
}

skinparam rectangle {
	BackgroundColor #f2f2f2-#c2c2c2
	BorderColor #007faf
	BorderThickness 2
	FontColor #009fdb
	StereotypeFontColor #009fdb
}

skinparam package {
	BackgroundColor #f5f5f5-#f2f2f2
  	BorderColor #009fdb
	FontColor #009fdb
	BorderThickness 2
}

skinparam folder {
	BackgroundColor #fff-#f5f5f5
  	BorderColor #ea7400
	FontColor #ea7400
	BorderThickness 2
}

skinparam frame {
	BackgroundColor #fff-#f5f5f5
  	BorderColor #0568ae
	FontColor #0568ae
	BorderThickness 2
}

skinparam state {
	StartColor #0568ae
	EndColor #0568ae
	BackgroundColor #f2f2f2-#c2c2c2
	BorderColor #c2c2c2
	FontColor #0568ae
	AttributeFontColor #5a5a5a
	AttributeFontSize 11
}

skinparam queue {
	BackgroundColor #ea7400-#bb5d00
  	BorderColor #bb5d00
	FontColor #fff
}

skinparam card {
	BackgroundColor #3786be-#0568ae
	BorderColor #0568ae
	FontColor #fff
}

skinparam file {
	BackgroundColor #f5f5f5-#f2f2f2
	BorderColor #959595
	FontColor #959595

}

skinparam stack {
	BackgroundColor #33b2e2-#007faf
	BorderColor #009fdb
	FontColor #fff
}

title State Diagram - bluegray theme


state fork_state <<fork>>
[*] - -> fork_state
fork_state - -> State2
fork_state - -> State3

state join_state <<join>>
State2 - -> join_state
State3 - -> join_state
join_state - -> State4
State4 - -> Active

state Active {
  [*] -> NumLockOff
  NumLockOff - -> NumLockOn : EvNumLockPressed
  NumLockOn - -> NumLockOff : EvNumLockPressed
  - -
  [*] -> CapsLockOff
  CapsLockOff - -> CapsLockOn : EvCapsLockPressed
  CapsLockOn - -> CapsLockOff : EvCapsLockPressed
  - -
  [*] -> ScrollLockOff
  ScrollLockOff - -> ScrollLockOn : EvCapsLockPressed
  ScrollLockOn - -> ScrollLockOff : EvCapsLockPressed
}

@enduml

PlantUML version 1.2019.12(Sun Nov 03 02:24:54 PST 2019)
(GPL source distribution)
Java Runtime: OpenJDK Runtime Environment
JVM: OpenJDK 64-Bit Server VM
Java Version: 11.0.4+11-post-Ubuntu-1ubuntu218.04.3
Operating System: Linux
Default Encoding: UTF-8
Language: en
Country: US
--></g></svg>