<?xml version="1.0" encoding="UTF-8" standalone="no"?><svg xmlns="http://www.w3.org/2000/svg" xmlns:xlink="http://www.w3.org/1999/xlink" contentScriptType="application/ecmascript" contentStyleType="text/css" height="712.5px" preserveAspectRatio="none" style="width:483px;height:712px;background:#00000000;" version="1.1" viewBox="0 0 483 712" width="483.3333px" zoomAndPan="magnify"><defs/><g><polygon points="16.6667,12.5,16.6667,12.7189,27.0591,12.0684,37.4516,12.7013,47.844,12.9163,58.2364,11.7569,68.6289,12.419,79.0213,12.0557,89.4138,12.1005,99.8062,12.429,110.1986,11.7798,120.5911,13.0767,130.9835,11.8435,141.376,12.294,151.7684,12.9499,162.1609,12.4106,172.5533,12.5711,182.9457,12.4667,193.3382,12.686,203.7306,12.7491,214.1231,13.1101,224.5155,13.199,234.9079,13.2076,245.3004,12.7652,255.6928,12.9829,266.0853,13.2315,276.4777,11.7488,286.8702,13.2068,297.2626,12.1911,307.655,13.0561,318.0475,11.9844,328.4399,12.4286,338.8324,13.2725,349.2248,12.4492,359.6172,12.6097,370.0097,12.8527,380.4021,12.9336,390.7946,12.4959,401.187,12.7992,411.5795,11.9037,421.9719,12.7962,432.3643,13.071,442.7568,12.9631,453.1492,13.1386,463.5417,12.5,463.4775,12.345,464.0443,12.5349,464.6376,12.7888,465.3016,13.2133,465.8726,13.4133,466.4879,13.7204,466.7065,13.8109,466.676,14.2864,466.8661,14.8533,467.2934,15.5185,467.2503,15.9888,467.7083,16.6667,467.5281,16.6667,467.9337,24.0169,467.8596,31.3672,467.9634,38.7174,467.5966,46.0677,467.7083,53.418,467.8107,53.4604,467.6537,54.0857,467.0686,54.5337,466.9453,55.173,466.7724,55.7917,466.4879,56.3642,466.5745,56.5733,465.8981,56.607,465.3709,57.0008,464.6466,56.9188,464.0409,57.1233,463.5417,57.5846,463.5417,58.1092,453.1492,56.8378,442.7568,58.1148,432.3643,57.7999,421.9719,57.3056,411.5795,57.2161,401.187,58.0625,390.7946,57.2728,380.4021,58.2012,370.0097,57.0089,359.6172,58.2278,349.2248,58.0891,338.8324,57.8398,328.4399,57.6338,318.0475,58.3415,307.655,58.2238,297.2626,57.7609,286.8702,57.864,276.4777,57.4489,266.0853,58.3309,255.6928,57.746,245.3004,57.7644,234.9079,56.9509,224.5155,57.1625,214.1231,58.1375,203.7306,58.0323,193.3382,57.5399,182.9457,57.249,172.5533,57.3566,162.1609,56.8699,151.7684,58.0167,141.376,58.355,130.9835,58.133,120.5911,58.3085,110.1986,57.4422,99.8062,57.6755,89.4138,57.1809,79.0213,57.8805,68.6289,57.8417,58.2364,58.16,47.844,57.3454,37.4516,57.4446,27.0591,58.0466,16.6667,57.5846,16.7421,57.7666,16.0093,57.1761,15.4624,57.0343,14.9187,56.9003,14.2285,56.4124,13.7204,56.3642,13.8338,56.4112,13.5591,55.8093,13.1999,55.1723,13.0338,54.6154,12.9778,54.104,12.5,53.418,12.3914,53.418,12.6094,46.0677,12.5992,38.7174,12.5402,31.3672,12.5489,24.0169,12.5,16.6667,12.5364,16.6817,12.5439,15.9945,12.8596,15.4349,13.0842,14.8376,13.4968,14.3181,13.7204,13.7204,13.7321,13.7487,14.3311,13.5282,14.8602,13.1389,15.4792,12.9665,16.0614,12.7055,16.6667,12.5" style="stroke:#4D4D4D;stroke-width:1.0416666666666667;fill:none;"/><text fill="#2E2E2E" font-family="Segoe Print" font-size="20.8333" lengthAdjust="spacing" textLength="428.125" x="26.0417" y="42.2546">Activity Diagram - sketchy-outline theme</text><polygon fill="#17A2B8" points="252.1409,73.66,250.614,75.7464,248.808,78.8022,246.225,80.8615,243.5108,81.9877,241.3466,82.0854,238.565,80.677,235.9405,79.7569,233.9484,77.8888,232.9035,75.7501,232.2838,74.0473,231.6767,71.823,230.6913,69.9089,231.4485,68.0401,232.1119,65.993,234.6016,64.3739,236.3532,62.2732,238.5212,61.5756,241.0986,60.9748,244.4038,61.3318,246.2141,62.1855,248.3189,62.5725,250.878,65.1945,251.7701,67.9624,252.1577,69.8511,251.7187,72.9633" style="stroke:none;stroke-width:1.0416666666666667;"/><polygon points="223.4375,102.3763,223.4375,102.4493,230.7292,102.2324,238.0208,102.4434,245.3125,102.5151,252.6042,102.1286,259.8958,102.3763,259.8855,102.3514,261.6806,103.0022,263.5277,103.7788,265.411,104.6427,267.1697,105.2055,269.103,106.19,269.2806,106.2636,269.6635,107.9477,270.565,109.8466,271.5297,111.7717,272.1264,113.5443,272.9167,115.3971,272.9404,115.3971,272.9056,119.349,272.9787,123.3008,272.9997,127.2526,273.12,131.2044,272.9167,135.1563,273.1319,135.2454,272.3718,137.0879,271.4729,138.8729,270.7772,140.7421,270.091,142.6153,269.103,144.3634,269.0071,144.132,267.3517,145.3438,265.3807,145.7937,263.6496,146.8228,261.6715,147.2555,259.8958,148.1771,259.8958,148.1533,252.6042,148.4346,245.3125,148.1602,238.0208,148.2136,230.7292,148.2947,223.4375,148.1771,223.4928,148.3106,221.5956,147.4131,219.7928,146.7437,217.8372,145.7052,216.1096,145.2173,214.2304,144.3634,214.4062,144.4362,213.6102,142.581,212.9015,140.762,211.7872,138.7749,210.9702,136.911,210.4167,135.1563,210.2009,135.1563,210.3962,131.2044,210.3484,127.2526,210.6533,123.3008,210.356,119.349,210.4167,115.3971,210.3066,115.3516,211.2526,113.586,211.7282,111.6257,212.5384,109.8039,213.6758,108.1177,214.2304,106.19,214.2883,106.3298,216.1694,105.6629,217.8705,104.5613,219.7971,104.0042,221.6745,103.3284,223.4375,102.3763" style="stroke:#333333;stroke-width:1.5625;fill:none;"/><text fill="#2E2E2E" font-family="Segoe Print" font-size="12.5" lengthAdjust="spacing" textLength="31.25" x="226.0417" y="129.6041">start</text><polygon fill="#28A745" points="133.3333,169.0104,133.3333,169.2294,143.6508,168.5788,153.9683,169.2118,164.2857,169.4267,174.6032,168.2673,184.9206,168.9295,195.2381,168.5662,205.5556,168.6109,215.873,168.9394,226.1905,168.2902,236.5079,169.5871,246.8254,168.3539,257.1429,168.8044,267.4603,169.4604,277.7778,168.9211,288.0952,169.0815,298.4127,168.9771,308.7302,169.1964,319.0476,169.2595,329.3651,169.6205,339.6825,169.7094,350,169.0104,350.0903,169.2283,350.4021,169.2446,350.7982,169.4642,351.1982,169.6933,351.3773,169.3893,351.8414,169.7732,352.0591,169.8633,351.8989,170.102,352.3178,170.5807,352.1403,170.8122,352.4296,171.2372,352.6042,171.6146,352.8617,171.6146,352.5872,171.8229,352.6407,172.0313,352.7217,172.2396,352.7487,172.4479,352.6042,172.6563,352.6029,172.6557,352.5438,173.0627,352.1154,173.3168,352.2377,173.7989,352.1698,174.2022,351.8414,174.4977,351.9005,174.6403,351.5546,174.8469,351.0407,174.6478,350.6499,174.7461,350.2857,174.9085,350,175.2604,350,175.1991,339.6825,175.0557,329.3651,175.9702,319.0476,175.0785,308.7302,174.9031,298.4127,175.4982,288.0952,174.5658,277.7778,174.7197,267.4603,175.9364,257.1429,175.7142,246.8254,176.0255,236.5079,174.9252,226.1905,175.5929,215.873,175.8754,205.5556,174.7683,195.2381,175.1606,184.9206,175.3916,174.6032,175.9393,164.2857,175.2561,153.9683,175.7423,143.6508,174.6836,133.3333,175.2604,133.2433,175.0432,133.032,175.2694,132.5015,174.7253,132.2961,174.966,131.8877,174.7165,131.4919,174.4977,131.406,174.4621,131.2259,174.0824,131.334,173.8221,130.9382,173.353,131.0716,173.1032,130.7292,172.6563,130.5372,172.6563,130.9436,172.4479,130.8973,172.2396,130.8142,172.0313,130.7456,171.8229,130.7292,171.6146,130.9623,171.7111,131.0785,171.3278,131.0886,170.9005,131.2728,170.5454,131.2976,170.1241,131.4919,169.7732,131.5871,170.003,131.8808,169.6703,132.2514,169.5234,132.5159,169.1204,132.9112,169.033,133.3333,169.0104" style="stroke:#28A745;stroke-width:1.0416666666666667;"/><polygon points="147.3958,185.6771,147.3958,185.896,157.2917,185.2455,167.1875,185.8784,177.0833,186.0934,186.9792,184.934,196.875,185.5961,206.7708,185.2328,216.6667,185.2776,226.5625,185.6061,236.4583,184.9569,246.3542,185.6771,246.4277,185.8547,246.8597,185.719,247.5064,186.1018,248.1793,186.5479,248.6998,186.6259,249.3004,186.8975,249.3223,186.9065,249.5343,187.4825,249.8459,188.0997,250.1094,188.697,250.4646,189.3323,250.5208,189.8438,251.2198,189.8438,251.2284,200.3159,250.7861,210.7881,251.0037,221.2603,251.2523,231.7325,249.7696,242.2047,251.2276,252.6769,250.212,263.1491,251.0769,273.6213,250.0052,284.0935,250.4495,294.5657,251.2933,305.0379,250.4701,315.5101,250.6305,325.9823,250.8736,336.4545,250.9544,346.9267,250.5168,357.3989,250.5208,367.8711,250.613,367.9093,250.0931,368.3843,250.1239,369.0874,249.9645,369.7117,249.6871,370.2872,249.3004,370.8174,249.3819,371.014,248.647,370.9065,248.0353,371.0963,247.4501,371.3503,246.9356,371.7748,246.3542,372.0378,246.3542,371.833,236.4583,372.7476,226.5625,371.8558,216.6667,371.6804,206.7708,372.2755,196.875,371.3431,186.9792,371.497,177.0833,372.7138,167.1875,372.4916,157.2917,372.8029,147.3958,372.0378,147.3531,371.9345,146.849,371.8961,146.2958,371.739,145.5653,371.154,145.0261,371.0307,144.4496,370.8174,144.49,370.8341,144.4146,370.3147,143.9601,369.6383,143.8657,369.1111,143.2956,368.3868,143.2292,367.8711,142.5237,367.8711,143.7538,357.3989,142.4824,346.9267,143.7593,336.4545,143.4444,325.9823,142.9501,315.5101,142.8607,305.0379,143.707,294.5657,142.9174,284.0935,143.8457,273.6213,142.6534,263.1491,143.8723,252.6769,143.7336,242.2047,143.4843,231.7325,143.2784,221.2603,143.9861,210.7881,143.8683,200.3159,143.2292,189.8438,143.2835,189.8662,143.5593,189.2901,143.6755,188.6479,144.1912,188.1712,144.2552,187.5073,144.4496,186.8975,144.4725,186.9528,144.958,186.4582,145.5742,186.2793,146.2878,186.3355,146.8637,186.059,147.3958,185.6771" style="stroke:#333333;stroke-width:2.0833333333333335;fill:none;"/><path d="M240.1042,185.6771 L240.2988,185.6771 L239.7205,189.2122 L240.2831,192.7474 L240.4742,196.2826 L239.4436,199.8177 L240.1042,203.3529 L240.0533,203.302 L237.7416,205.157 L235.6864,207.2684 L233.8095,209.5582 L231.3182,211.2335 L229.6875,213.7695 L229.6875,215.3074 L218.8802,212.0188 L208.0729,213.2202 L197.2656,214.9694 L186.4583,213.5313 L175.651,213.9591 L164.8438,213.6808 L154.0365,214.2654 L143.2292,213.7695 " fill="none" style="stroke:#333333;stroke-width:2.0833333333333335;"/><text fill="#333333" font-family="Segoe Print" font-size="12.5" lengthAdjust="spacing" textLength="76.0417" x="151.5625" y="203.5299">My Partition</text><polygon points="179.6875,231.4779,179.6875,231.5508,186.5625,231.334,193.4375,231.545,200.3125,231.6166,207.1875,231.2302,214.0625,231.4779,214.0522,231.4529,215.8473,232.1038,217.6944,232.8803,219.5777,233.7442,221.3363,234.3071,223.2696,235.2916,223.4472,235.3651,223.8302,237.0493,224.7317,238.9481,225.6964,240.8732,226.2931,242.6459,227.0833,244.4987,227.107,244.4987,227.0722,248.4505,227.1453,252.4023,227.1664,256.3542,227.2867,260.306,227.0833,264.2578,227.2986,264.347,226.5385,266.1895,225.6395,267.9745,224.9438,269.8437,224.2576,271.7168,223.2696,273.4649,223.1738,273.2336,221.5184,274.4453,219.5474,274.8953,217.8163,275.9244,215.8381,276.3571,214.0625,277.2786,214.0625,277.2549,207.1875,277.5361,200.3125,277.2617,193.4375,277.3152,186.5625,277.3962,179.6875,277.2786,179.7428,277.4122,177.8456,276.5147,176.0428,275.8453,174.0872,274.8068,172.3596,274.3189,170.4804,273.4649,170.6562,273.5378,169.8602,271.6826,169.1515,269.8635,168.0372,267.8765,167.2202,266.0126,166.6667,264.2578,166.4509,264.2578,166.6462,260.306,166.5984,256.3542,166.9033,252.4023,166.606,248.4505,166.6667,244.4987,166.5566,244.4531,167.5026,242.6876,167.9782,240.7272,168.7884,238.9054,169.9258,237.2192,170.4804,235.2916,170.5383,235.4313,172.4194,234.7645,174.1205,233.6629,176.0471,233.1057,177.9245,232.43,179.6875,231.4779" style="stroke:#333333;stroke-width:1.5625;fill:none;"/><text fill="#2E2E2E" font-family="Segoe Print" font-size="12.5" lengthAdjust="spacing" textLength="29.1667" x="182.2917" y="258.7056">foo1</text><polygon points="179.6875,313.737,179.6875,313.81,186.5625,313.5931,193.4375,313.8041,200.3125,313.8758,207.1875,313.4893,214.0625,313.737,214.0522,313.712,215.8473,314.3629,217.6944,315.1394,219.5777,316.0033,221.3363,316.5662,223.2696,317.5507,223.4472,317.6243,223.8302,319.3084,224.7317,321.2073,225.6964,323.1324,226.2931,324.905,227.0833,326.7578,227.107,326.7578,227.0722,330.7096,227.1453,334.6615,227.1664,338.6133,227.2867,342.5651,227.0833,346.5169,227.2986,346.6061,226.5385,348.4486,225.6395,350.2336,224.9438,352.1028,224.2576,353.9759,223.2696,355.724,223.1738,355.4927,221.5184,356.7044,219.5474,357.1544,217.8163,358.1835,215.8381,358.6162,214.0625,359.5378,214.0625,359.514,207.1875,359.7953,200.3125,359.5208,193.4375,359.5743,186.5625,359.6553,179.6875,359.5378,179.7428,359.6713,177.8456,358.7738,176.0428,358.1044,174.0872,357.0659,172.3596,356.578,170.4804,355.724,170.6562,355.7969,169.8602,353.9417,169.1515,352.1227,168.0372,350.1356,167.2202,348.2717,166.6667,346.5169,166.4509,346.5169,166.6462,342.5651,166.5984,338.6133,166.9033,334.6615,166.606,330.7096,166.6667,326.7578,166.5566,326.7122,167.5026,324.9467,167.9782,322.9864,168.7884,321.1646,169.9258,319.4783,170.4804,317.5507,170.5383,317.6905,172.4194,317.0236,174.1205,315.922,176.0471,315.3649,177.9245,314.6891,179.6875,313.737" style="stroke:#333333;stroke-width:1.5625;fill:none;"/><text fill="#2E2E2E" font-family="Segoe Print" font-size="12.5" lengthAdjust="spacing" textLength="29.1667" x="182.2917" y="340.9648">foo2</text><polygon points="292.7083,260.1237,292.7083,260.1967,299.5833,259.9798,306.4583,260.1908,313.3333,260.2625,320.2083,259.876,327.0833,260.1237,327.073,260.0988,328.8681,260.7496,330.7152,261.5262,332.5985,262.3901,334.3572,262.9529,336.2905,263.9374,336.4681,264.011,336.851,265.6951,337.7525,267.594,338.7172,269.5191,339.3139,271.2917,340.1042,273.1445,340.1279,273.1445,340.0931,277.0964,340.1662,281.0482,340.1872,285,340.3075,288.9518,340.1042,292.9036,340.3194,292.9928,339.5593,294.8353,338.6604,296.6203,337.9647,298.4895,337.2785,300.3627,336.2905,302.1108,336.1946,301.8794,334.5392,303.0912,332.5682,303.5411,330.8371,304.5702,328.859,305.0029,327.0833,305.9245,327.0833,305.9007,320.2083,306.182,313.3333,305.9076,306.4583,305.961,299.5833,306.0421,292.7083,305.9245,292.7636,306.058,290.8664,305.1605,289.0636,304.4911,287.108,303.4526,285.3804,302.9647,283.5012,302.1108,283.6771,302.1836,282.8811,300.3284,282.1724,298.5094,281.058,296.5223,280.241,294.6584,279.6875,292.9036,279.4717,292.9036,279.6671,288.9518,279.6193,285,279.9241,281.0482,279.6268,277.0964,279.6875,273.1445,279.5775,273.0989,280.5235,271.3334,280.9991,269.3731,281.8092,267.5513,282.9466,265.8651,283.5012,263.9374,283.5591,264.0772,285.4402,263.4103,287.1413,262.3087,289.0679,261.7516,290.9454,261.0758,292.7083,260.1237" style="stroke:#333333;stroke-width:1.5625;fill:none;"/><text fill="#2E2E2E" font-family="Segoe Print" font-size="12.5" lengthAdjust="spacing" textLength="29.1667" x="295.3125" y="287.3515">foo3</text><polygon fill="#28A745" points="133.3333,392.8711,133.3333,393.09,143.6508,392.4395,153.9683,393.0724,164.2857,393.2874,174.6032,392.128,184.9206,392.7901,195.2381,392.4268,205.5556,392.4716,215.873,392.8001,226.1905,392.1509,236.5079,393.4478,246.8254,392.2146,257.1429,392.6651,267.4603,393.321,277.7778,392.7817,288.0952,392.9422,298.4127,392.8378,308.7302,393.0571,319.0476,393.1202,329.3651,393.4812,339.6825,393.5701,350,392.8711,350.0903,393.089,350.4021,393.1053,350.7982,393.3249,351.1982,393.554,351.3773,393.2499,351.8414,393.6338,352.0591,393.724,351.8989,393.9627,352.3178,394.4413,352.1403,394.6729,352.4296,395.0979,352.6042,395.4753,352.8617,395.4753,352.5872,395.6836,352.6407,395.8919,352.7217,396.1003,352.7487,396.3086,352.6042,396.5169,352.6029,396.5164,352.5438,396.9234,352.1154,397.1774,352.2377,397.6596,352.1698,398.0629,351.8414,398.3584,351.9005,398.501,351.5546,398.7076,351.0407,398.5085,350.6499,398.6068,350.2857,398.7692,350,399.1211,350,399.0598,339.6825,398.9164,329.3651,399.8309,319.0476,398.9391,308.7302,398.7637,298.4127,399.3589,288.0952,398.4265,277.7778,398.5803,267.4603,399.7971,257.1429,399.5749,246.8254,399.8862,236.5079,398.7859,226.1905,399.4536,215.873,399.7361,205.5556,398.629,195.2381,399.0212,184.9206,399.2523,174.6032,399.8,164.2857,399.1167,153.9683,399.6029,143.6508,398.5442,133.3333,399.1211,133.2433,398.9038,133.032,399.1301,132.5015,398.586,132.2961,398.8267,131.8877,398.5772,131.4919,398.3584,131.406,398.3228,131.2259,397.9431,131.334,397.6827,130.9382,397.2137,131.0716,396.9639,130.7292,396.5169,130.5372,396.5169,130.9436,396.3086,130.8973,396.1003,130.8142,395.8919,130.7456,395.6836,130.7292,395.4753,130.9623,395.5718,131.0785,395.1885,131.0886,394.7612,131.2728,394.406,131.2976,393.9848,131.4919,393.6338,131.5871,393.8637,131.8808,393.531,132.2514,393.3841,132.5159,392.981,132.9112,392.8937,133.3333,392.8711" style="stroke:#28A745;stroke-width:1.0416666666666667;"/><polygon points="224.4792,465.7878,224.4792,465.8607,231.3542,465.6439,238.2292,465.8549,245.1042,465.9265,251.9792,465.5401,258.8542,465.7878,258.8438,465.7628,260.6389,466.4137,262.4861,467.1902,264.3694,468.0541,266.128,468.6169,268.0613,469.6015,268.2389,469.675,268.6218,471.3591,269.5233,473.258,270.4881,475.1831,271.0847,476.9558,271.875,478.8086,271.8987,478.8086,271.8639,482.7604,271.937,486.7122,271.958,490.6641,272.0784,494.6159,271.875,498.5677,272.0903,498.6569,271.3302,500.4994,270.4312,502.2844,269.7355,504.1536,269.0493,506.0267,268.0613,507.7748,267.9655,507.5435,266.31,508.7552,264.339,509.2052,262.6079,510.2343,260.6298,510.667,258.8542,511.5885,258.8542,511.5648,251.9792,511.846,245.1042,511.5716,238.2292,511.6251,231.3542,511.7061,224.4792,511.5885,224.5345,511.7221,222.6372,510.8245,220.8345,510.1552,218.8788,509.1167,217.1513,508.6288,215.272,507.7748,215.4479,507.8477,214.6519,505.9925,213.9432,504.1734,212.8289,502.1864,212.0119,500.3225,211.4583,498.5677,211.2426,498.5677,211.4379,494.6159,211.3901,490.6641,211.6949,486.7122,211.3977,482.7604,211.4583,478.8086,211.3483,478.763,212.2943,476.9975,212.7699,475.0371,213.58,473.2153,214.7175,471.5291,215.272,469.6015,215.3299,469.7412,217.2111,469.0743,218.9121,467.9728,220.8387,467.4156,222.7162,466.7399,224.4792,465.7878" style="stroke:#333333;stroke-width:1.5625;fill:none;"/><text fill="#2E2E2E" font-family="Segoe Print" font-size="12.5" lengthAdjust="spacing" textLength="29.1667" x="227.0833" y="493.0155">foo5</text><polygon points="221.875,419.9544,221.875,420.0274,229.7917,419.8106,237.7083,420.0215,245.625,420.0932,253.5417,419.7067,261.4583,419.9544,261.4393,419.9353,263.8536,422.3497,266.3642,424.8603,268.9416,427.4377,271.2886,429.7847,273.9583,432.4544,274.0943,432.5904,271.3036,434.7997,268.9098,437.4059,266.5644,440.0605,263.9373,442.4334,261.4583,444.9544,261.4583,444.9781,253.5417,444.9433,245.625,445.0164,237.7083,445.0375,229.7917,445.1578,221.875,444.9544,222.0398,445.1192,219.5418,442.6212,216.9375,440.0169,214.4888,437.5682,212.0474,435.1268,209.375,432.4544,209.1979,432.2774,212.0416,430.121,214.3022,427.3816,217.0061,425.0855,219.2535,422.3329,221.875,419.9544" style="stroke:#4D4D4D;stroke-width:1.5625;fill:none;"/><text fill="#2E2E2E" font-family="Segoe Print" font-size="12.5" lengthAdjust="spacing" textLength="29.1667" x="227.0833" y="436.7818">foo4</text><polygon points="224.4792,555.3385,224.4792,555.4115,231.3542,555.1947,238.2292,555.4057,245.1042,555.4773,251.9792,555.0908,258.8542,555.3385,258.8438,555.3136,260.6389,555.9645,262.4861,556.741,264.3694,557.6049,266.128,558.1677,268.0613,559.1523,268.2389,559.2258,268.6218,560.9099,269.5233,562.8088,270.4881,564.7339,271.0847,566.5066,271.875,568.3594,271.8987,568.3594,271.8639,572.3112,271.937,576.263,271.958,580.2148,272.0784,584.1667,271.875,588.1185,272.0903,588.2077,271.3302,590.0502,270.4312,591.8352,269.7355,593.7044,269.0493,595.5775,268.0613,597.3256,267.9655,597.0943,266.31,598.306,264.339,598.756,262.6079,599.7851,260.6298,600.2178,258.8542,601.1393,258.8542,601.1155,251.9792,601.3968,245.1042,601.1224,238.2292,601.1759,231.3542,601.2569,224.4792,601.1393,224.5345,601.2728,222.6372,600.3753,220.8345,599.706,218.8788,598.6675,217.1513,598.1796,215.272,597.3256,215.4479,597.3985,214.6519,595.5433,213.9432,593.7242,212.8289,591.7371,212.0119,589.8733,211.4583,588.1185,211.2426,588.1185,211.4379,584.1667,211.3901,580.2148,211.6949,576.263,211.3977,572.3112,211.4583,568.3594,211.3483,568.3138,212.2943,566.5483,212.7699,564.5879,213.58,562.7661,214.7175,561.0799,215.272,559.1523,215.3299,559.292,217.2111,558.6251,218.9121,557.5235,220.8387,556.9664,222.7162,556.2907,224.4792,555.3385" style="stroke:#333333;stroke-width:1.5625;fill:none;"/><text fill="#2E2E2E" font-family="Segoe Print" font-size="12.5" lengthAdjust="spacing" textLength="29.1667" x="227.0833" y="582.5663">foo6</text><polygon points="224.4792,611.556,224.4792,611.629,231.3542,611.4121,238.2292,611.6231,245.1042,611.6948,251.9792,611.3083,258.8542,611.556,258.8438,611.5311,260.6389,612.1819,262.4861,612.9585,264.3694,613.8224,266.128,614.3852,268.0613,615.3697,268.2389,615.4433,268.6218,617.1274,269.5233,619.0263,270.4881,620.9514,271.0847,622.724,271.875,624.5768,271.8987,624.5768,271.8639,628.5286,271.937,632.4805,271.958,636.4323,272.0784,640.3841,271.875,644.3359,272.0903,644.4251,271.3302,646.2676,270.4312,648.0526,269.7355,649.9218,269.0493,651.7949,268.0613,653.5431,267.9655,653.3117,266.31,654.5235,264.339,654.9734,262.6079,656.0025,260.6298,656.4352,258.8542,657.3568,258.8542,657.333,251.9792,657.6143,245.1042,657.3398,238.2292,657.3933,231.3542,657.4743,224.4792,657.3568,224.5345,657.4903,222.6372,656.5928,220.8345,655.9234,218.8788,654.8849,217.1513,654.397,215.272,653.5431,215.4479,653.6159,214.6519,651.7607,213.9432,649.9417,212.8289,647.9546,212.0119,646.0907,211.4583,644.3359,211.2426,644.3359,211.4379,640.3841,211.3901,636.4323,211.6949,632.4805,211.3977,628.5286,211.4583,624.5768,211.3483,624.5312,212.2943,622.7657,212.7699,620.8054,213.58,618.9836,214.7175,617.2974,215.272,615.3697,215.3299,615.5095,217.2111,614.8426,218.9121,613.741,220.8387,613.1839,222.7162,612.5081,224.4792,611.556" style="stroke:#333333;stroke-width:1.5625;fill:none;"/><text fill="#2E2E2E" font-family="Segoe Print" font-size="12.5" lengthAdjust="spacing" textLength="29.1667" x="227.0833" y="638.7838">foo7</text><polygon points="253.1883,692.4356,251.5087,694.7305,249.5221,698.0919,246.6809,700.3572,243.6952,701.5959,241.3146,701.7035,238.2549,700.1542,235.3679,699.1421,233.1766,697.0872,232.0271,694.7347,231.3455,692.8615,230.6777,690.4148,229.5937,688.3093,230.4267,686.2536,231.1565,684.0018,233.8951,682.2208,235.8218,679.91,238.2067,679.1426,241.0418,678.4818,244.6775,678.8744,246.6688,679.8136,248.9841,680.2393,251.7991,683.1234,252.7805,686.1682,253.2068,688.2457,252.7239,691.6691" style="stroke:#17A2B8;stroke-width:1.0416666666666667;fill:none;"/><polygon fill="#17A2B8" points="247.9512,691.1687,247.0351,692.4205,245.9514,694.254,244.4017,695.4896,242.7731,696.1653,241.4746,696.2239,239.8057,695.3789,238.231,694.8268,237.0357,693.7059,236.4087,692.4227,236.0369,691.401,235.6727,690.0664,235.0814,688.918,235.5358,687.7967,235.9338,686.5685,237.4276,685.597,238.4786,684.3366,239.7794,683.918,241.3258,683.5576,243.3089,683.7717,244.3951,684.284,245.658,684.5162,247.1935,686.0893,247.7287,687.7501,247.9613,688.8833,247.6979,690.7506" style="stroke:#0B515C;stroke-width:1.0416666666666667;"/><path d="M241.6667,81.543 L241.764,81.543 L241.4749,85.7096 L241.7562,89.8763 L241.8517,94.043 L241.3364,98.2096 L241.6667,102.3763 " fill="#333333" style="stroke:#333333;stroke-width:1.5625;"/><polygon fill="#333333" points="237.5,91.9596,237.5678,91.9867,238.1998,93.9895,239.229,96.1512,240.1289,98.2612,240.6033,100.201,241.6667,102.3763,241.6416,102.3663,242.3625,100.238,243.2097,98.1602,244.1447,96.1175,244.7771,93.9538,245.8333,91.9596,245.9693,92.0956,244.8453,92.6382,244.1181,93.5777,243.4394,94.5657,242.4789,95.2719,241.6667,96.1263,241.6834,96.1431,240.8255,95.2851,240.0438,94.5035,239.2254,93.685,238.4771,92.9368,237.5,91.9596" style="stroke:#333333;stroke-width:1.0416666666666667;"/><path d="M196.875,277.2786 L196.9723,277.2786 L196.6832,284.5703 L196.9645,291.862 L197.06,299.1536 L196.5447,306.4453 L196.875,313.737 " fill="#333333" style="stroke:#333333;stroke-width:1.5625;"/><polygon fill="#333333" points="192.7083,303.3203,192.7761,303.3474,193.4081,305.3502,194.4373,307.5119,195.3372,309.6219,195.8117,311.5616,196.875,313.737,196.8499,313.727,197.5708,311.5986,198.418,309.5209,199.353,307.4782,199.9854,305.3145,201.0417,303.3203,201.1776,303.4562,200.0536,303.9989,199.3264,304.9384,198.6477,305.9264,197.6873,306.6326,196.875,307.487,196.8918,307.5037,196.0338,306.6458,195.2522,305.8641,194.4337,305.0457,193.6855,304.2974,192.7083,303.3203" style="stroke:#333333;stroke-width:1.0416666666666667;"/><path d="M196.875,175.2604 L197.1669,175.2604 L196.2996,186.5039 L197.1435,197.7474 L197.4301,208.9909 L195.8842,220.2344 L196.875,231.4779 " fill="#333333" style="stroke:#333333;stroke-width:1.5625;"/><polygon fill="#333333" points="192.7083,221.0612,192.7761,221.0883,193.4081,223.0911,194.4373,225.2528,195.3372,227.3627,195.8117,229.3025,196.875,231.4779,196.8499,231.4678,197.5708,229.3395,198.418,227.2617,199.353,225.2191,199.9854,223.0554,201.0417,221.0612,201.1776,221.1971,200.0536,221.7398,199.3264,222.6793,198.6477,223.6673,197.6873,224.3735,196.875,225.2279,196.8918,225.2446,196.0338,224.3867,195.2522,223.605,194.4337,222.7866,193.6855,222.0383,192.7083,221.0612" style="stroke:#333333;stroke-width:1.0416666666666667;"/><path d="M309.8958,175.2604 L310.1878,175.2604 L309.3204,185.8683 L310.1643,196.4762 L310.4509,207.0841 L308.905,217.6921 L309.7879,228.3 L309.3035,238.9079 L309.3632,249.5158 L309.8958,260.1237 " fill="#333333" style="stroke:#333333;stroke-width:1.5625;"/><polygon fill="#333333" points="305.7292,249.707,305.7969,249.7341,306.4289,251.7369,307.4581,253.8986,308.358,256.0086,308.8325,257.9484,309.8958,260.1237,309.8708,260.1137,310.5917,257.9854,311.4389,255.9076,312.3739,253.8649,313.0063,251.7012,314.0625,249.707,314.1984,249.843,313.0744,250.3856,312.3473,251.3251,311.6686,252.3131,310.7081,253.0193,309.8958,253.8737,309.9126,253.8905,309.0547,253.0325,308.273,252.2509,307.4545,251.4324,306.7063,250.6842,305.7292,249.707" style="stroke:#333333;stroke-width:1.0416666666666667;"/><path d="M196.875,359.5378 L196.9723,359.5378 L196.6832,366.2044 L196.9645,372.8711 L197.06,379.5378 L196.5447,386.2044 L196.875,392.8711 " fill="#333333" style="stroke:#333333;stroke-width:1.5625;"/><polygon fill="#333333" points="192.7083,382.4544,192.7761,382.4815,193.4081,384.4843,194.4373,386.646,195.3372,388.756,195.8117,390.6958,196.875,392.8711,196.8499,392.8611,197.5708,390.7328,198.418,388.655,199.353,386.6123,199.9854,384.4486,201.0417,382.4544,201.1776,382.5904,200.0536,383.133,199.3264,384.0725,198.6477,385.0605,197.6873,385.7667,196.875,386.6211,196.8918,386.6378,196.0338,385.7799,195.2522,384.9983,194.4337,384.1798,193.6855,383.4316,192.7083,382.4544" style="stroke:#333333;stroke-width:1.0416666666666667;"/><path d="M241.6667,148.1771 L241.764,148.1771 L241.4749,152.3438 L241.7562,156.5104 L241.8517,160.6771 L241.3364,164.8438 L241.6667,169.0104 " fill="#333333" style="stroke:#333333;stroke-width:1.5625;"/><polygon fill="#333333" points="237.5,158.5938,237.5678,158.6209,238.1998,160.6237,239.229,162.7853,240.1289,164.8953,240.6033,166.8351,241.6667,169.0104,241.6416,169.0004,242.3625,166.8721,243.2097,164.7943,244.1447,162.7516,244.7771,160.5879,245.8333,158.5938,245.9693,158.7297,244.8453,159.2723,244.1181,160.2119,243.4394,161.1998,242.4789,161.906,241.6667,162.7604,241.6834,162.7772,240.8255,161.9192,240.0438,161.1376,239.2254,160.3191,238.4771,159.5709,237.5,158.5938" style="stroke:#333333;stroke-width:1.0416666666666667;"/><path d="M241.6667,444.9544 L241.764,444.9544 L241.4749,449.1211 L241.7562,453.2878 L241.8517,457.4544 L241.3364,461.6211 L241.6667,465.7878 " fill="#333333" style="stroke:#333333;stroke-width:1.5625;"/><polygon fill="#333333" points="237.5,455.3711,237.5678,455.3982,238.1998,457.401,239.229,459.5627,240.1289,461.6726,240.6033,463.6124,241.6667,465.7878,241.6416,465.7777,242.3625,463.6494,243.2097,461.5716,244.1447,459.529,244.7771,457.3653,245.8333,455.3711,245.9693,455.507,244.8453,456.0497,244.1181,456.9892,243.4394,457.9771,242.4789,458.6834,241.6667,459.5378,241.6834,459.5545,240.8255,458.6966,240.0438,457.9149,239.2254,457.0965,238.4771,456.3482,237.5,455.3711" style="stroke:#333333;stroke-width:1.0416666666666667;"/><path d="M273.9583,432.4544 L273.9583,432.5517 L276.4583,432.2626 L278.9583,432.5439 L281.4583,432.6395 L283.9583,432.1242 L286.4583,432.4544 " fill="#333333" style="stroke:#333333;stroke-width:1.5625;"/><polygon fill="#333333" points="282.2917,475.1465,282.3594,475.1736,282.9914,477.1764,284.0206,479.3381,284.9205,481.448,285.395,483.3878,286.4583,485.5632,286.4333,485.5531,287.1542,483.4248,288.0014,481.347,288.9364,479.3044,289.5688,477.1407,290.625,475.1465,290.7609,475.2824,289.6369,475.8251,288.9098,476.7646,288.2311,477.7525,287.2706,478.4588,286.4583,479.3132,286.4751,479.3299,285.6172,478.472,284.8355,477.6903,284.017,476.8719,283.2688,476.1236,282.2917,475.1465" style="stroke:#333333;stroke-width:1.5625;"/><path d="M286.4583,432.4544 L286.7503,432.4544 L285.8829,442.6595 L286.7268,452.8646 L287.0134,463.0697 L285.4675,473.2747 L286.3504,483.4798 L285.866,493.6849 L285.9257,503.89 L286.3637,514.0951 L285.4981,524.3001 L286.4583,534.5052 " fill="#333333" style="stroke:#333333;stroke-width:1.5625;"/><path d="M286.4583,534.5052 L286.4583,534.6025 L277.5,534.3134 L268.5417,534.5947 L259.5833,534.6902 L250.625,534.1749 L241.6667,534.5052 " fill="#333333" style="stroke:#333333;stroke-width:1.5625;"/><path d="M241.6667,534.5052 L241.764,534.5052 L241.4749,538.6719 L241.7562,542.8385 L241.8517,547.0052 L241.3364,551.1719 L241.6667,555.3385 " fill="#333333" style="stroke:#333333;stroke-width:1.5625;"/><polygon fill="#333333" points="237.5,544.9219,237.5678,544.949,238.1998,546.9518,239.229,549.1135,240.1289,551.2234,240.6033,553.1632,241.6667,555.3385,241.6416,555.3285,242.3625,553.2002,243.2097,551.1224,244.1447,549.0798,244.7771,546.9161,245.8333,544.9219,245.9693,545.0578,244.8453,545.6005,244.1181,546.54,243.4394,547.5279,242.4789,548.2341,241.6667,549.0885,241.6834,549.1053,240.8255,548.2474,240.0438,547.4657,239.2254,546.6473,238.4771,545.899,237.5,544.9219" style="stroke:#333333;stroke-width:1.0416666666666667;"/><path d="M241.6667,399.1211 L241.764,399.1211 L241.4749,403.2878 L241.7562,407.4544 L241.8517,411.6211 L241.3364,415.7878 L241.6667,419.9544 " fill="#333333" style="stroke:#333333;stroke-width:1.5625;"/><polygon fill="#333333" points="237.5,409.5378,237.5678,409.5649,238.1998,411.5677,239.229,413.7294,240.1289,415.8393,240.6033,417.7791,241.6667,419.9544,241.6416,419.9444,242.3625,417.8161,243.2097,415.7383,244.1447,413.6956,244.7771,411.5319,245.8333,409.5378,245.9693,409.6737,244.8453,410.2163,244.1181,411.1559,243.4394,412.1438,242.4789,412.85,241.6667,413.7044,241.6834,413.7212,240.8255,412.8632,240.0438,412.0816,239.2254,411.2631,238.4771,410.5149,237.5,409.5378" style="stroke:#333333;stroke-width:1.0416666666666667;"/><path d="M241.6667,657.3568 L241.764,657.3568 L241.4749,661.5234 L241.7562,665.6901 L241.8517,669.8568 L241.3364,674.0234 L241.6667,678.1901 " fill="#333333" style="stroke:#333333;stroke-width:1.5625;"/><polygon fill="#333333" points="237.5,667.7734,237.5678,667.8005,238.1998,669.8033,239.229,671.965,240.1289,674.075,240.6033,676.0148,241.6667,678.1901,241.6416,678.1801,242.3625,676.0518,243.2097,673.974,244.1447,671.9313,244.7771,669.7676,245.8333,667.7734,245.9693,667.9094,244.8453,668.452,244.1181,669.3915,243.4394,670.3795,242.4789,671.0857,241.6667,671.9401,241.6834,671.9569,240.8255,671.0989,240.0438,670.3173,239.2254,669.4988,238.4771,668.7506,237.5,667.7734" style="stroke:#333333;stroke-width:1.0416666666666667;"/><!--MD5=[d5dc1dea4e855e88285b8a7cd752c071]
@startuml

!$THEME = "sketchy-outline"

!if %not(%variable_exists("$BGCOLOR"))
!$BGCOLOR = "transparent"
!endif

skinparam backgroundColor $BGCOLOR
skinparam handwritten true
skinparam shadowing false

!$BLUE = "#007bff"
!$INDIGO = "#6610f2"
!$PURPLE = "#6f42c1"
!$PINK = "#e83e8c"
!$RED = "#dc3545"
!$ORANGE = "#fd7e14"
!$YELLOW = "#ffc107"
!$GREEN = "#28a745"
!$TEAL = "#20c997"
!$CYAN = "#17a2b8"
!$WHITE = "#ffffff"
!$GRAY = "#868e96"
!$GRAYDARK = "#333333"
!$PRIMARY = "#333333"
!$SECONDARY = "#555555"
!$SUCCESS = "#28a745"
!$INFO = "#17a2b8"
!$WARNING = "#ffc107"
!$DANGER = "#dc3545"
!$LIGHT = "#ffffff"
!$DARK = "#555555"

!$FGCOLOR = $WHITE
!$PRIMARY_DARK = "#2e2e2e"
!$PRIMARY_LIGHT = "#474747"
!$PRIMARY_TEXT = "#2e2e2e"
!$SECONDARY_DARK = "#4d4d4d"
!$SECONDARY_LIGHT = "#666666"
!$SECONDARY_TEXT = $WHITE
!$INFO_DARK = "#1592a6"
!$INFO_LIGHT = "#2eabbf"
!$INFO_TEXT = $WHITE
!$SUCCESS_DARK = "#24963e"
!$SUCCESS_LIGHT = "#3eb058"
!$SUCCESS_TEXT = $WHITE
!$WARNING_DARK = "#e6ae06"
!$WARNING_LIGHT = "#ffc720"
!$WARNING_TEXT = $WHITE
!$DANGER_DARK = "#c6303e"
!$DANGER_LIGHT = "#e04958"
!$DANGER_TEXT = $WHITE
!$DARK_DARK = "#4d4d4d"
!$DARK_LIGHT = "#666666"
!$LIGHT_DARK = "#e6e6e6"
!$LIGHT_LIGHT = "#ffffff"

!procedure $success($msg)
  <font color=$SUCCESS><b>$msg
!endprocedure

!procedure $failure($msg)
  <font color=$DANGER><b>$msg
!endprocedure

!procedure $warning($msg)
  <font color=$WARNING><b>$msg
!endprocedure

!procedure $primary_scheme()
	FontColor $PRIMARY_TEXT
	BorderColor $PRIMARY
	BackgroundColor $BGCOLOR
!endprocedure

skinparam defaultFontName       "Segoe Print"
skinparam defaultFontSize       12
skinparam dpi                   100
skinparam shadowing             false
skinparam roundcorner           8
skinparam ParticipantPadding    40
skinparam BoxPadding            40
skinparam Padding               5
skinparam ArrowColor            $DARK
skinparam stereotype {
    CBackgroundColor $BGCOLOR
    CBorderColor $SECONDARY_DARK
    ABackgroundColor $BGCOLOR
    ABorderColor $SUCCESS_DARK
    IBackgroundColor $BGCOLOR
    IBorderColor $DANGER_DARK
    EBackgroundColor $BGCOLOR
    EBorderColor $WARNING_DARK
    NBackgroundColor $BGCOLOR
    NBorderColor $INFO_DARK
}
skinparam title {
	FontColor	                 $PRIMARY_TEXT
	BorderColor	                 $SECONDARY_DARK
	FontSize	    	         20
	BorderRoundCorner            8
	BorderThickness 	         1
	BackgroundColor              $BGCOLOR
}

skinparam legend {
	BackgroundColor $BGCOLOR
	BorderColor $SECONDARY_DARK
	FontColor $PRIMARY_TEXT
}

!startsub swimlane
skinparam swimlane {
	BorderColor $INFO
	BorderThickness 2
	TitleBackgroundColor  $BGCOLOR
	TitleFontColor $PRIMARY_TEXT
}
!endsub

!startsub activity

skinparam activity {
	$primary_scheme()
	BarColor $SUCCESS
	StartColor $INFO
	EndColor $INFO
	DiamondBackgroundColor $BGCOLOR
  	DiamondBorderColor $SECONDARY_DARK
  	DiamondFontColor $PRIMARY_TEXT
}
!endsub

!startsub participant

skinparam participant {
	$primary_scheme()
	ParticipantBorderThickness 2
}
!endsub

!startsub actor

skinparam actor {
	$primary_scheme()
}
!endsub

!startsub arrow

skinparam arrow {
	Thickness 3
	Color $PRIMARY
	FontColor $PRIMARY_TEXT
}
!endsub

!startsub sequence

skinparam sequence {
	BorderColor $PRIMARY
	TitleFontColor $PRIMARY_TEXT
	BackgroundColor $BGCOLOR
	StartColor $PRIMARY
	EndColor $PRIMARY
	BoxBackgroundColor $BGCOLOR
	BoxBorderColor $DARK
	BoxFontColor $DARK
	LifeLineBorderColor $SECONDARY
	LifeLineBorderThickness 2
	LifeLineBackgroundColor $SECONDARY_DARK
	GroupBorderColor $DARK
	GroupFontColor $DARK
	GroupHeaderFontColor $INFO
	GroupBackgroundColor $SECONDARY
	GroupHeaderBackgroundColor $BGCOLOR
	DividerBackgroundColor $DARK
    DividerBorderColor $DARK
    DividerBorderThickness 2
    DividerFontColor $LIGHT
	ReferenceBackgroundColor $BGCOLOR
	ReferenceBorderColor $DARK
	ReferenceFontColor $DARK
	ReferenceHeaderFontColor $INFO
	ReferenceHeaderBackgroundColor $SECONDARY
}
!endsub

!startsub partition

skinparam partition {
	BorderColor $PRIMARY
	FontColor $PRIMARY
	BackgroundColor $BGCOLOR
}
!endsub

!startsub collections

skinparam collections {
	$primary_scheme()
}
!endsub

!startsub control

skinparam control {
	$primary_scheme()
}
!endsub

!startsub entity

skinparam entity {
	$primary_scheme()
}
!endsub

!startsub boundary

skinparam boundary {
	$primary_scheme()
}
!endsub

!startsub agent

skinparam agent {
	BackgroundColor $WARNING
	BorderColor $WARNING_LIGHT
	FontColor $DARK
}
!endsub

!startsub note

skinparam note {
	BorderThickness 1
	BackgroundColor $INFO
	BorderColor $INFO_DARK
	FontColor $WHITE
}
!endsub

!startsub artifact

skinparam artifact {
	BackgroundColor $BGCOLOR
	BorderColor $DARK_DARK
	FontColor $DARK_DARK
}
!endsub

!startsub component

skinparam component {
	$primary_scheme()
}
!endsub

!startsub interface

skinparam interface {
	BackgroundColor  $BGCOLOR
	BorderColor  $DANGER
	FontColor $DARK
}
!endsub

!startsub storage

skinparam storage {
	BackgroundColor $BGCOLOR
  	BorderColor $WARNING_DARK
	FontColor $WARNING_DARK
}
!endsub

!startsub node

skinparam node {
	BackgroundColor  $BGCOLOR
	BorderColor $LIGHT
	FontColor $LIGHT
}
!endsub

!startsub cloud

skinparam cloud {
	BackgroundColor $BGCOLOR
	BorderColor #F2FCFE
	FontColor $PRIMARY_TEXT
}
!endsub

!startsub database

skinparam database {
	$primary_scheme()
}
!endsub

!startsub class

skinparam class {
	$primary_scheme()
	FontColor $LIGHT
	HeaderBackgroundColor $BGCOLOR
	StereotypeFontColor $DARK
	BorderThickness 1
	AttributeFontColor $DARK
	AttributeFontSize 11
}
!endsub

!startsub object

skinparam object {
	$primary_scheme()
	StereotypeFontColor $PRIMARY_TEXT
	BorderThickness 1
	AttributeFontColor $PRIMARY_TEXT
	AttributeFontSize 11
}
!endsub

!startsub usecase

skinparam usecase {
	$primary_scheme()
	BorderThickness 2
	StereotypeFontColor $PRIMARY
}
!endsub

!startsub rectangle

skinparam rectangle {
	$primary_scheme()
	BorderThickness 2
	StereotypeFontColor $PRIMARY
}
!endsub

!startsub package

skinparam package {
	BackgroundColor $BGCOLOR
  	BorderColor $PRIMARY
	FontColor $PRIMARY
	BorderThickness 2
}
!endsub

!startsub folder

skinparam folder {
	BackgroundColor $BGCOLOR
  	BorderColor $WARNING
	FontColor $WARNING
	BorderThickness 2
}
!endsub

!startsub frame

skinparam frame {
	BackgroundColor $BGCOLOR
  	BorderColor $INFO
	FontColor $INFO
	BorderThickness 2
}
!endsub

!startsub state

skinparam state {
	$primary_scheme()
	StartColor $INFO
	EndColor $INFO
	AttributeFontColor $SECONDARY_TEXT
	AttributeFontSize 11
}
!endsub

!startsub queue

skinparam queue {
	$primary_scheme()
}
!endsub

!startsub card

skinparam card {
	BackgroundColor $BGCOLOR
	BorderColor $INFO_DARK
	FontColor $INFO_DARK
}
!endsub

!startsub file

skinparam file {
	BackgroundColor $BGCOLOR
	BorderColor $LIGHT
	FontColor $LIGHT
}
!endsub

!startsub stack

skinparam stack {
	$primary_scheme()
}
!endsub

!if %variable_exists("$THEME")
title Activity Diagram - $THEME theme
!else
title Activity Diagram
!endif

'skinparam BackgroundColor transparent

start
 :start;
 fork
  partition "My Partition" {
   :foo1;
   :foo2;
  }
 fork again
   :foo3;
   detach
 endfork
 if (foo4) then
   :foo5;
   detach
 endif
 :foo6;
 detach
 :foo7;
 stop
@enduml

@startuml



skinparam backgroundColor transparent
skinparam handwritten true
skinparam shadowing false







skinparam defaultFontName       "Segoe Print"
skinparam defaultFontSize       12
skinparam dpi                   100
skinparam shadowing             false
skinparam roundcorner           8
skinparam ParticipantPadding    40
skinparam BoxPadding            40
skinparam Padding               5
skinparam ArrowColor            #555555
skinparam stereotype {
    CBackgroundColor transparent
    CBorderColor #4d4d4d
    ABackgroundColor transparent
    ABorderColor #24963e
    IBackgroundColor transparent
    IBorderColor #c6303e
    EBackgroundColor transparent
    EBorderColor #e6ae06
    NBackgroundColor transparent
    NBorderColor #1592a6
}
skinparam title {
	FontColor	                 #2e2e2e
	BorderColor	                 #4d4d4d
	FontSize	    	         20
	BorderRoundCorner            8
	BorderThickness 	         1
	BackgroundColor              transparent
}

skinparam legend {
	BackgroundColor transparent
	BorderColor #4d4d4d
	FontColor #2e2e2e
}

skinparam swimlane {
	BorderColor #17a2b8
	BorderThickness 2
	TitleBackgroundColor  transparent
	TitleFontColor #2e2e2e
}


skinparam activity {
		FontColor #2e2e2e
	BorderColor #333333
	BackgroundColor transparent
	BarColor #28a745
	StartColor #17a2b8
	EndColor #17a2b8
	DiamondBackgroundColor transparent
  	DiamondBorderColor #4d4d4d
  	DiamondFontColor #2e2e2e
}


skinparam participant {
		FontColor #2e2e2e
	BorderColor #333333
	BackgroundColor transparent
	ParticipantBorderThickness 2
}


skinparam actor {
		FontColor #2e2e2e
	BorderColor #333333
	BackgroundColor transparent
}


skinparam arrow {
	Thickness 3
	Color #333333
	FontColor #2e2e2e
}


skinparam sequence {
	BorderColor #333333
	TitleFontColor #2e2e2e
	BackgroundColor transparent
	StartColor #333333
	EndColor #333333
	BoxBackgroundColor transparent
	BoxBorderColor #555555
	BoxFontColor #555555
	LifeLineBorderColor #555555
	LifeLineBorderThickness 2
	LifeLineBackgroundColor #4d4d4d
	GroupBorderColor #555555
	GroupFontColor #555555
	GroupHeaderFontColor #17a2b8
	GroupBackgroundColor #555555
	GroupHeaderBackgroundColor transparent
	DividerBackgroundColor #555555
    DividerBorderColor #555555
    DividerBorderThickness 2
    DividerFontColor #ffffff
	ReferenceBackgroundColor transparent
	ReferenceBorderColor #555555
	ReferenceFontColor #555555
	ReferenceHeaderFontColor #17a2b8
	ReferenceHeaderBackgroundColor #555555
}


skinparam partition {
	BorderColor #333333
	FontColor #333333
	BackgroundColor transparent
}


skinparam collections {
		FontColor #2e2e2e
	BorderColor #333333
	BackgroundColor transparent
}


skinparam control {
		FontColor #2e2e2e
	BorderColor #333333
	BackgroundColor transparent
}


skinparam entity {
		FontColor #2e2e2e
	BorderColor #333333
	BackgroundColor transparent
}


skinparam boundary {
		FontColor #2e2e2e
	BorderColor #333333
	BackgroundColor transparent
}


skinparam agent {
	BackgroundColor #ffc107
	BorderColor #ffc720
	FontColor #555555
}


skinparam note {
	BorderThickness 1
	BackgroundColor #17a2b8
	BorderColor #1592a6
	FontColor #ffffff
}


skinparam artifact {
	BackgroundColor transparent
	BorderColor #4d4d4d
	FontColor #4d4d4d
}


skinparam component {
		FontColor #2e2e2e
	BorderColor #333333
	BackgroundColor transparent
}


skinparam interface {
	BackgroundColor  transparent
	BorderColor  #dc3545
	FontColor #555555
}


skinparam storage {
	BackgroundColor transparent
  	BorderColor #e6ae06
	FontColor #e6ae06
}


skinparam node {
	BackgroundColor  transparent
	BorderColor #ffffff
	FontColor #ffffff
}


skinparam cloud {
	BackgroundColor transparent
	BorderColor #F2FCFE
	FontColor #2e2e2e
}


skinparam database {
		FontColor #2e2e2e
	BorderColor #333333
	BackgroundColor transparent
}


skinparam class {
		FontColor #2e2e2e
	BorderColor #333333
	BackgroundColor transparent
	FontColor #ffffff
	HeaderBackgroundColor transparent
	StereotypeFontColor #555555
	BorderThickness 1
	AttributeFontColor #555555
	AttributeFontSize 11
}


skinparam object {
		FontColor #2e2e2e
	BorderColor #333333
	BackgroundColor transparent
	StereotypeFontColor #2e2e2e
	BorderThickness 1
	AttributeFontColor #2e2e2e
	AttributeFontSize 11
}


skinparam usecase {
		FontColor #2e2e2e
	BorderColor #333333
	BackgroundColor transparent
	BorderThickness 2
	StereotypeFontColor #333333
}


skinparam rectangle {
		FontColor #2e2e2e
	BorderColor #333333
	BackgroundColor transparent
	BorderThickness 2
	StereotypeFontColor #333333
}


skinparam package {
	BackgroundColor transparent
  	BorderColor #333333
	FontColor #333333
	BorderThickness 2
}


skinparam folder {
	BackgroundColor transparent
  	BorderColor #ffc107
	FontColor #ffc107
	BorderThickness 2
}


skinparam frame {
	BackgroundColor transparent
  	BorderColor #17a2b8
	FontColor #17a2b8
	BorderThickness 2
}


skinparam state {
		FontColor #2e2e2e
	BorderColor #333333
	BackgroundColor transparent
	StartColor #17a2b8
	EndColor #17a2b8
	AttributeFontColor #ffffff
	AttributeFontSize 11
}


skinparam queue {
		FontColor #2e2e2e
	BorderColor #333333
	BackgroundColor transparent
}


skinparam card {
	BackgroundColor transparent
	BorderColor #1592a6
	FontColor #1592a6
}


skinparam file {
	BackgroundColor transparent
	BorderColor #ffffff
	FontColor #ffffff
}


skinparam stack {
		FontColor #2e2e2e
	BorderColor #333333
	BackgroundColor transparent
}

title Activity Diagram - sketchy-outline theme


start
 :start;
 fork
  partition "My Partition" {
   :foo1;
   :foo2;
  }
 fork again
   :foo3;
   detach
 endfork
 if (foo4) then
   :foo5;
   detach
 endif
 :foo6;
 detach
 :foo7;
 stop
@enduml

PlantUML version 1.2021.01(Mon Feb 01 23:55:08 PST 2021)
(GPL source distribution)
Java Runtime: OpenJDK Runtime Environment
JVM: OpenJDK 64-Bit Server VM
Default Encoding: UTF-8
Language: en
Country: US
--></g></svg>