<?xml version="1.0" encoding="UTF-8" standalone="no"?><svg xmlns="http://www.w3.org/2000/svg" xmlns:xlink="http://www.w3.org/1999/xlink" contentScriptType="application/ecmascript" contentStyleType="text/css" height="467.7083px" preserveAspectRatio="none" style="width:627px;height:467px;background:#00000000;" version="1.1" viewBox="0 0 627 467" width="627.0833px" zoomAndPan="magnify"><defs/><g><polygon fill="#00000000" points="92.1875,2.0833,92.1875,2.3023,102.5025,1.6517,112.8176,2.2847,123.1326,2.4997,133.4477,1.3402,143.7627,2.0024,154.0777,1.6391,164.3928,1.6839,174.7078,2.0123,185.0229,1.3632,195.3379,2.66,205.6529,1.4268,215.968,1.8773,226.283,2.5333,236.5981,1.994,246.9131,2.1544,257.2282,2.0501,267.5432,2.2693,277.8582,2.3324,288.1733,2.6934,298.4883,2.7823,308.8034,2.7909,319.1184,2.3486,329.4334,2.5662,339.7485,2.8148,350.0635,1.3321,360.3786,2.7901,370.6936,1.7745,381.0086,2.6394,391.3237,1.5677,401.6387,2.012,411.9538,2.8558,422.2688,2.0326,432.5838,2.193,442.8989,2.4361,453.2139,2.5169,463.529,2.0793,473.844,2.3825,484.159,1.4871,494.4741,2.3796,504.7891,2.6544,515.1042,2.0833,515.1632,2.2259,515.7749,2.5241,516.2185,2.4165,516.7853,2.6064,517.3786,2.8603,518.0504,3.3037,518.0316,3.2959,518.2315,3.8669,518.7572,4.5728,518.7266,5.0483,518.9167,5.6152,519.2708,6.25,519.3501,6.25,519.0393,13.6003,519.0906,20.9505,519.4962,28.3008,519.4221,35.651,519.2708,43.0013,519.5065,43.0989,518.9235,43.5478,518.8851,44.2222,518.728,44.8475,518.143,45.2956,518.0504,45.9476,518.0377,45.9168,517.4779,46.2321,516.9585,46.6448,516.2821,46.6785,515.7549,47.0723,515.1042,47.168,515.1042,46.5911,504.7891,46.4625,494.4741,47.6926,484.159,46.4212,473.844,47.6981,463.529,47.3832,453.2139,46.8889,442.8989,46.7995,432.5838,47.6458,422.2688,46.8562,411.9538,47.7845,401.6387,46.5922,391.3237,47.8111,381.0086,47.6725,370.6936,47.4231,360.3786,47.2172,350.0635,47.9249,339.7485,47.8071,329.4334,47.3443,319.1184,47.4473,308.8034,47.0323,298.4883,47.9143,288.1733,47.3293,277.8582,47.3477,267.5432,46.5343,257.2282,46.7459,246.9131,47.7208,236.5981,47.6156,226.283,47.1232,215.968,46.8324,205.6529,46.9399,195.3379,46.4532,185.0229,47.6,174.7078,47.9383,164.3928,47.7163,154.0777,47.8919,143.7627,47.0255,133.4477,47.2588,123.1326,46.7642,112.8176,47.4638,102.5025,47.425,92.1875,47.168,92.2609,47.3452,91.5677,46.8502,90.9911,46.6367,90.4787,46.578,89.9059,46.3737,89.2412,45.9476,89.0768,45.8795,88.9349,45.3326,88.8009,44.7889,88.313,44.0986,88.3783,43.6375,88.0208,43.0013,88.1104,43.0013,87.9858,35.651,88.0702,28.3008,88.2738,20.9505,87.9122,13.6003,88.0208,6.25,88.1219,6.2919,88.3565,5.6987,88.5461,5.0869,88.7983,4.501,89.0335,3.9081,89.2412,3.3037,89.1583,3.1035,89.7772,2.9311,90.3584,2.6675,91.0175,2.592,91.61,2.3557,92.1875,2.0833" style="stroke: #4D4D4D; stroke-width: 1.0416666666666667;"/><text fill="#2E2E2E" font-family="Segoe Print" font-size="20.8333" lengthAdjust="spacingAndGlyphs" textLength="404.1667" x="101.5625" y="31.838">Class Diagram - sketchy-outline theme</text><!--MD5=[b4fa10df80476353258f72a232547d63]
class AbstractList--><polygon fill="#00000000" points="207.2917,243.0013,207.2917,243.2202,217.2348,242.5697,227.178,243.2026,237.1212,243.4176,247.0644,242.2582,257.0076,242.9204,266.9508,242.557,276.8939,242.6018,286.8371,242.9303,296.7803,242.2811,306.7235,243.578,316.6667,243.0013,316.5829,242.7991,317.2296,243.1819,317.9026,243.628,318.423,243.706,319.0328,243.9995,319.6129,244.2217,319.6027,244.2174,319.9143,244.8347,320.1778,245.432,320.5331,246.0673,320.8045,246.6679,320.8333,247.168,321.0692,247.168,320.9217,255.9115,320.9943,264.6549,321.0772,273.3984,320.5829,282.1419,320.8333,290.8854,321.051,290.9756,320.4941,291.4353,320.5164,292.1349,319.9423,292.5874,319.835,293.2333,319.6129,293.8317,319.7115,294.0696,319.0172,294.0601,318.4484,294.3536,317.8902,294.6726,317.3112,294.9415,316.6667,295.0521,316.6667,295.048,306.7235,295.3513,296.7803,294.4558,286.8371,295.3483,276.8939,295.6231,266.9508,295.5151,257.0076,295.6907,247.0644,294.5489,237.1212,294.3727,227.178,294.4048,217.2348,294.9907,207.2917,295.0521,207.2656,294.989,206.793,295.0266,206.0899,294.5079,205.4783,294.2098,204.965,294.149,204.3454,293.8317,204.1315,293.7431,203.9348,293.1735,204.0654,292.7394,203.7529,292.1218,203.6047,291.5723,203.125,290.8854,203.0133,290.8854,203.2358,282.1419,203.33,273.3984,202.961,264.6549,203.0917,255.9115,203.125,247.168,203.1654,247.1847,203.5782,246.6653,203.6118,245.9889,204.0056,245.4617,203.9237,244.7374,204.3454,244.2217,204.2554,244.0044,205.0016,244.1392,205.4286,243.5035,206.1808,243.6527,206.7299,243.3117,207.2917,243.0013" style="stroke: #333333; stroke-width: 1.0416666666666667;"/><polygon fill="#00000000" points="207.2917,243.0013,207.2917,243.2202,217.2348,242.5697,227.178,243.2026,237.1212,243.4176,247.0644,242.2582,257.0076,242.9204,266.9508,242.557,276.8939,242.6018,286.8371,242.9303,296.7803,242.2811,306.7235,243.578,316.6667,243.0013,316.5829,242.7991,317.2296,243.1819,317.9026,243.628,318.423,243.706,319.0328,243.9995,319.6129,244.2217,319.6027,244.2174,319.9143,244.8347,320.1778,245.432,320.5331,246.0673,320.8045,246.6679,320.8333,247.168,321.0692,247.168,320.9217,252.5781,320.9943,257.9883,321.0772,263.3984,320.5829,268.8086,320.8333,274.2188,321.051,274.3089,320.4941,274.7686,320.5164,275.4682,319.9423,275.9207,319.835,276.5667,319.6129,277.165,319.7115,277.4029,319.0172,277.3935,318.4484,277.687,317.8902,278.0059,317.3112,278.2749,316.6667,278.3854,316.6667,278.3813,306.7235,278.6846,296.7803,277.7891,286.8371,278.6817,276.8939,278.9565,266.9508,278.8485,257.0076,279.024,247.0644,277.8822,237.1212,277.7061,227.178,277.7381,217.2348,278.3241,207.2917,278.3854,207.2656,278.3224,206.793,278.3599,206.0899,277.8412,205.4783,277.5431,204.965,277.4823,204.3454,277.165,204.1315,277.0764,203.9348,276.5068,204.0654,276.0727,203.7529,275.4552,203.6047,274.9056,203.125,274.2188,203.0133,274.2188,203.2358,268.8086,203.33,263.3984,202.961,257.9883,203.0917,252.5781,203.125,247.168,203.1654,247.1847,203.5782,246.6653,203.6118,245.9889,204.0056,245.4617,203.9237,244.7374,204.3454,244.2217,204.2554,244.0044,205.0016,244.1392,205.4286,243.5035,206.1808,243.6527,206.7299,243.3117,207.2917,243.0013" style="stroke: #00000000; stroke-width: 1.0416666666666667;"/><polygon fill="#00000000" points="203.125,274.2188,203.125,274.4377,213.8258,273.7872,224.5265,274.4201,235.2273,274.6351,245.928,273.4756,256.6288,274.1378,267.3295,273.7745,278.0303,273.8193,288.7311,274.1478,299.4318,273.4986,310.1326,274.7955,320.8333,274.2188,320.6145,274.2188,320.7647,275.0521,320.9833,275.8854,320.8035,276.7188,320.857,277.5521,320.8333,278.3854,320.8333,278.3521,310.1326,278.5714,299.4318,278.6345,288.7311,278.9955,278.0303,279.0844,267.3295,279.093,256.6288,278.6507,245.928,278.8683,235.2273,279.1169,224.5265,277.6342,213.8258,279.0922,203.125,278.3854,203.022,278.3854,203.3104,277.5521,202.9531,276.7188,203.1012,275.8854,203.3825,275.0521,203.125,274.2188" style="stroke: #00000000; stroke-width: 1.0416666666666667;"/><polygon fill="none" points="207.2917,243.0013,207.2917,243.2202,217.2348,242.5697,227.178,243.2026,237.1212,243.4176,247.0644,242.2582,257.0076,242.9204,266.9508,242.557,276.8939,242.6018,286.8371,242.9303,296.7803,242.2811,306.7235,243.578,316.6667,243.0013,316.5829,242.7991,317.2296,243.1819,317.9026,243.628,318.423,243.706,319.0328,243.9995,319.6129,244.2217,319.6027,244.2174,319.9143,244.8347,320.1778,245.432,320.5331,246.0673,320.8045,246.6679,320.8333,247.168,321.0692,247.168,320.9217,255.9115,320.9943,264.6549,321.0772,273.3984,320.5829,282.1419,320.8333,290.8854,321.051,290.9756,320.4941,291.4353,320.5164,292.1349,319.9423,292.5874,319.835,293.2333,319.6129,293.8317,319.7115,294.0696,319.0172,294.0601,318.4484,294.3536,317.8902,294.6726,317.3112,294.9415,316.6667,295.0521,316.6667,295.048,306.7235,295.3513,296.7803,294.4558,286.8371,295.3483,276.8939,295.6231,266.9508,295.5151,257.0076,295.6907,247.0644,294.5489,237.1212,294.3727,227.178,294.4048,217.2348,294.9907,207.2917,295.0521,207.2656,294.989,206.793,295.0266,206.0899,294.5079,205.4783,294.2098,204.965,294.149,204.3454,293.8317,204.1315,293.7431,203.9348,293.1735,204.0654,292.7394,203.7529,292.1218,203.6047,291.5723,203.125,290.8854,203.0133,290.8854,203.2358,282.1419,203.33,273.3984,202.961,264.6549,203.0917,255.9115,203.125,247.168,203.1654,247.1847,203.5782,246.6653,203.6118,245.9889,204.0056,245.4617,203.9237,244.7374,204.3454,244.2217,204.2554,244.0044,205.0016,244.1392,205.4286,243.5035,206.1808,243.6527,206.7299,243.3117,207.2917,243.0013" style="stroke: #333333; stroke-width: 1.0416666666666667;"/><polygon fill="#00000000" points="228.1825,263.2271,226.6556,265.3134,224.8496,268.3692,222.2667,270.4286,219.5524,271.5547,217.3883,271.6525,214.6067,270.2441,211.9822,269.324,209.9901,267.4558,208.9451,265.3172,208.3254,263.6143,207.7183,261.39,206.7329,259.476,207.4902,257.6072,208.1536,255.5601,210.6433,253.941,212.3949,251.8402,214.5629,251.1426,217.1403,250.5419,220.4455,250.8988,222.2558,251.7526,224.3605,252.1396,226.9197,254.7615,227.8118,257.5295,228.1994,259.4181,227.7604,262.5304" style="stroke: #24963E; stroke-width: 1.0416666666666667;"/><path d="M217.3014,257.6497 L216.4551,261.377 L218.1641,261.377 L217.3014,257.6497 Z M216.2109,256.0059 L218.4082,256.0059 L220.8659,265.1204 L219.0592,265.1204 L218.5059,262.8743 L216.097,262.8743 L215.5436,265.1204 L213.737,265.1204 L216.2109,256.0059 Z "/><text fill="#2E2E2E" font-family="Segoe Print" font-size="12.5" font-style="italic" lengthAdjust="spacingAndGlyphs" textLength="76.0417" x="236.4583" y="265.0208">AbstractList</text><path d="M204.1667,278.3854 L204.1667,278.6773 L214.678,277.81 L225.1894,278.6539 L235.7008,278.9405 L246.2121,277.3946 L256.7235,278.2775 L267.2348,277.7931 L277.7462,277.8528 L288.2576,278.2908 L298.7689,277.4252 L309.2803,279.1544 L319.7917,278.3854 " fill="#00000000" style="stroke: #333333; stroke-width: 1.0416666666666667;"/><path d="M204.1667,286.7188 L204.1667,287.0107 L214.678,286.1433 L225.1894,286.9872 L235.7008,287.2739 L246.2121,285.7279 L256.7235,286.6108 L267.2348,286.1264 L277.7462,286.1861 L288.2576,286.6241 L298.7689,285.7585 L309.2803,287.4877 L319.7917,286.7188 " fill="#00000000" style="stroke: #333333; stroke-width: 1.0416666666666667;"/><!--MD5=[8e34b16d8d8f96f4a11290cd523ed859]
class AbstractCollection--><polygon fill="#00000000" points="11.4583,243.0013,11.4583,243.2202,21.5278,242.5697,31.5972,243.2026,41.6667,243.4176,51.7361,242.2582,61.8056,242.9204,71.875,242.557,81.9444,242.6018,92.0139,242.9303,102.0833,242.2811,112.1528,243.578,122.2222,242.3448,132.2917,242.7953,142.3611,243.4512,152.4306,242.912,162.5,243.0013,162.5091,243.0232,163.085,243.2351,163.7022,243.5467,164.2995,243.8102,164.9348,244.1655,165.4463,244.2217,165.6615,244.3109,165.9083,244.9012,166.0161,245.434,166.3272,246.0511,166.6479,246.672,166.6667,247.168,166.4163,247.168,166.9023,255.9115,166.5637,264.6549,166.852,273.3984,166.4948,282.1419,166.6667,290.8854,166.6447,290.8763,166.6605,291.5732,166.1629,292.0575,165.9682,292.6672,165.799,293.2874,165.4463,293.8317,165.5016,293.9652,164.8565,294.0745,164.3059,294.412,163.6025,294.3803,163.127,294.8992,162.5,295.0521,162.5,295.6231,152.4306,295.5151,142.3611,295.6907,132.2917,294.5489,122.2222,294.3727,112.1528,294.4048,102.0833,294.9907,92.0139,294.8474,81.9444,295.7619,71.875,294.8701,61.8056,294.6947,51.7361,295.2899,41.6667,294.3575,31.5972,294.5113,21.5278,295.7281,11.4583,295.0521,11.5162,295.1918,10.9667,295.0436,10.2371,294.4607,9.733,294.4222,9.1798,294.2652,8.5121,293.8317,8.3605,293.7689,8.2372,293.2297,8.0643,292.6699,7.9889,292.1505,7.5344,291.4741,7.2917,290.8854,7.4523,290.8854,7.0994,282.1419,7.0565,273.3984,7.4665,264.6549,7.0427,255.9115,7.2917,247.168,7.4549,247.2356,7.602,246.6062,7.6939,245.9539,7.9104,245.3532,8.4151,244.8719,8.5121,244.2217,8.4723,244.1257,9.18,244.1675,9.6171,243.5562,10.3619,243.6875,10.9334,243.4007,11.4583,243.0013" style="stroke: #333333; stroke-width: 1.0416666666666667;"/><polygon fill="#00000000" points="11.4583,243.0013,11.4583,243.2202,21.5278,242.5697,31.5972,243.2026,41.6667,243.4176,51.7361,242.2582,61.8056,242.9204,71.875,242.557,81.9444,242.6018,92.0139,242.9303,102.0833,242.2811,112.1528,243.578,122.2222,242.3448,132.2917,242.7953,142.3611,243.4512,152.4306,242.912,162.5,243.0013,162.5091,243.0232,163.085,243.2351,163.7022,243.5467,164.2995,243.8102,164.9348,244.1655,165.4463,244.2217,165.6615,244.3109,165.9083,244.9012,166.0161,245.434,166.3272,246.0511,166.6479,246.672,166.6667,247.168,166.4163,247.168,166.9023,252.5781,166.5637,257.9883,166.852,263.3984,166.4948,268.8086,166.6667,274.2188,166.6447,274.2096,166.6605,274.9065,166.1629,275.3908,165.9682,276.0005,165.799,276.6208,165.4463,277.165,165.5016,277.2986,164.8565,277.4079,164.3059,277.7453,163.6025,277.7136,163.127,278.2326,162.5,278.3854,162.5,278.9565,152.4306,278.8485,142.3611,279.024,132.2917,277.8822,122.2222,277.7061,112.1528,277.7381,102.0833,278.3241,92.0139,278.1807,81.9444,279.0952,71.875,278.2035,61.8056,278.0281,51.7361,278.6232,41.6667,277.6908,31.5972,277.8447,21.5278,279.0614,11.4583,278.3854,11.5162,278.5252,10.9667,278.377,10.2371,277.794,9.733,277.7556,9.1798,277.5985,8.5121,277.165,8.3605,277.1023,8.2372,276.563,8.0643,276.0033,7.9889,275.4839,7.5344,274.8074,7.2917,274.2188,7.4523,274.2188,7.0994,268.8086,7.0565,263.3984,7.4665,257.9883,7.0427,252.5781,7.2917,247.168,7.4549,247.2356,7.602,246.6062,7.6939,245.9539,7.9104,245.3532,8.4151,244.8719,8.5121,244.2217,8.4723,244.1257,9.18,244.1675,9.6171,243.5562,10.3619,243.6875,10.9334,243.4007,11.4583,243.0013" style="stroke: #00000000; stroke-width: 1.0416666666666667;"/><polygon fill="#00000000" points="7.2917,274.2188,7.2917,274.4377,17.9167,273.7872,28.5417,274.4201,39.1667,274.6351,49.7917,273.4756,60.4167,274.1378,71.0417,273.7745,81.6667,273.8193,92.2917,274.1478,102.9167,273.4986,113.5417,274.7955,124.1667,273.5622,134.7917,274.0127,145.4167,274.6687,156.0417,274.1294,166.6667,274.2188,166.6904,274.2188,166.6556,275.0521,166.7287,275.8854,166.7497,276.7188,166.87,277.5521,166.6667,278.3854,166.6667,279.0844,156.0417,279.093,145.4167,278.6507,134.7917,278.8683,124.1667,279.1169,113.5417,277.6342,102.9167,279.0922,92.2917,278.0766,81.6667,278.9415,71.0417,277.8698,60.4167,278.3141,49.7917,279.1579,39.1667,278.3347,28.5417,278.4951,17.9167,278.7382,7.2917,278.3854,7.4362,278.3854,7.2903,277.5521,7.3914,276.7188,7.0929,275.8854,7.3904,275.0521,7.2917,274.2188" style="stroke: #00000000; stroke-width: 1.0416666666666667;"/><polygon fill="none" points="11.4583,243.0013,11.4583,243.2202,21.5278,242.5697,31.5972,243.2026,41.6667,243.4176,51.7361,242.2582,61.8056,242.9204,71.875,242.557,81.9444,242.6018,92.0139,242.9303,102.0833,242.2811,112.1528,243.578,122.2222,242.3448,132.2917,242.7953,142.3611,243.4512,152.4306,242.912,162.5,243.0013,162.5091,243.0232,163.085,243.2351,163.7022,243.5467,164.2995,243.8102,164.9348,244.1655,165.4463,244.2217,165.6615,244.3109,165.9083,244.9012,166.0161,245.434,166.3272,246.0511,166.6479,246.672,166.6667,247.168,166.4163,247.168,166.9023,255.9115,166.5637,264.6549,166.852,273.3984,166.4948,282.1419,166.6667,290.8854,166.6447,290.8763,166.6605,291.5732,166.1629,292.0575,165.9682,292.6672,165.799,293.2874,165.4463,293.8317,165.5016,293.9652,164.8565,294.0745,164.3059,294.412,163.6025,294.3803,163.127,294.8992,162.5,295.0521,162.5,295.6231,152.4306,295.5151,142.3611,295.6907,132.2917,294.5489,122.2222,294.3727,112.1528,294.4048,102.0833,294.9907,92.0139,294.8474,81.9444,295.7619,71.875,294.8701,61.8056,294.6947,51.7361,295.2899,41.6667,294.3575,31.5972,294.5113,21.5278,295.7281,11.4583,295.0521,11.5162,295.1918,10.9667,295.0436,10.2371,294.4607,9.733,294.4222,9.1798,294.2652,8.5121,293.8317,8.3605,293.7689,8.2372,293.2297,8.0643,292.6699,7.9889,292.1505,7.5344,291.4741,7.2917,290.8854,7.4523,290.8854,7.0994,282.1419,7.0565,273.3984,7.4665,264.6549,7.0427,255.9115,7.2917,247.168,7.4549,247.2356,7.602,246.6062,7.6939,245.9539,7.9104,245.3532,8.4151,244.8719,8.5121,244.2217,8.4723,244.1257,9.18,244.1675,9.6171,243.5562,10.3619,243.6875,10.9334,243.4007,11.4583,243.0013" style="stroke: #333333; stroke-width: 1.0416666666666667;"/><polygon fill="#00000000" points="32.3492,263.2271,30.8223,265.3134,29.0163,268.3692,26.4334,270.4286,23.7191,271.5547,21.5549,271.6525,18.7734,270.2441,16.1488,269.324,14.1568,267.4558,13.1118,265.3172,12.4921,263.6143,11.885,261.39,10.8996,259.476,11.6568,257.6072,12.3203,255.5601,14.8099,253.941,16.5615,251.8402,18.7295,251.1426,21.3069,250.5419,24.6121,250.8988,26.4224,251.7526,28.5272,252.1396,31.0863,254.7615,31.9785,257.5295,32.3661,259.4181,31.927,262.5304" style="stroke: #24963E; stroke-width: 1.0416666666666667;"/><path d="M21.4681,257.6497 L20.6217,261.377 L22.3307,261.377 L21.4681,257.6497 Z M20.3776,256.0059 L22.5749,256.0059 L25.0326,265.1204 L23.2259,265.1204 L22.6725,262.8743 L20.2637,262.8743 L19.7103,265.1204 L17.9036,265.1204 L20.3776,256.0059 Z "/><text fill="#2E2E2E" font-family="Segoe Print" font-size="12.5" font-style="italic" lengthAdjust="spacingAndGlyphs" textLength="117.7083" x="40.625" y="265.0208">AbstractCollection</text><path d="M8.3333,278.3854 L8.3333,278.6773 L18.8194,277.81 L29.3056,278.6539 L39.7917,278.9405 L50.2778,277.3946 L60.7639,278.2775 L71.25,277.7931 L81.7361,277.8528 L92.2222,278.2908 L102.7083,277.4252 L113.1944,279.1544 L123.6806,277.51 L134.1667,278.1107 L144.6528,278.9853 L155.1389,278.2663 L165.625,278.3854 " fill="#00000000" style="stroke: #333333; stroke-width: 1.0416666666666667;"/><path d="M8.3333,286.7188 L8.3333,287.0107 L18.8194,286.1433 L29.3056,286.9872 L39.7917,287.2739 L50.2778,285.7279 L60.7639,286.6108 L71.25,286.1264 L81.7361,286.1861 L92.2222,286.6241 L102.7083,285.7585 L113.1944,287.4877 L123.6806,285.8434 L134.1667,286.4441 L144.6528,287.3187 L155.1389,286.5996 L165.625,286.7188 " fill="#00000000" style="stroke: #333333; stroke-width: 1.0416666666666667;"/><!--MD5=[3d4177ac58b4411586d067f34e84928f]
class List--><polygon fill="#00000000" points="220.8333,93.0013,220.8333,93.2202,231.875,92.5697,242.9167,93.2026,253.9583,93.4176,265,92.2582,276.0417,93.0013,276.0313,92.9764,276.5743,93.1086,277.1692,93.3664,277.8004,93.7117,278.3068,93.7558,278.9879,94.2217,279.1655,94.2953,279.0298,94.7272,279.4127,95.3739,279.8587,96.0469,279.9367,96.5673,280.2083,97.168,280.232,97.168,280.1972,105.9115,280.2703,114.6549,280.2914,123.3984,280.4117,132.1419,280.2083,140.8854,280.4236,140.9746,280.1822,141.5649,279.8019,142.0978,279.6248,142.7148,279.4573,143.3357,278.9879,143.8317,278.8921,143.6003,278.4888,144.2934,277.77,144.2247,277.2911,144.7352,276.5651,144.6492,276.0417,145.0521,276.0417,144.9807,265,145.8246,253.9583,145.0013,242.9167,145.1618,231.875,145.4048,220.8333,145.0521,220.8886,145.1856,220.2436,144.8068,219.693,144.6561,218.9895,144.1362,218.5141,144.167,217.8871,143.8317,218.0629,143.9045,217.7856,143.3015,217.5956,142.7346,216.9999,141.9997,216.7015,141.388,216.6667,140.8854,216.4509,140.8854,216.6462,132.1419,216.5984,123.3984,216.9033,114.6549,216.606,105.9115,216.6667,97.168,216.5566,97.1224,216.984,96.609,216.9409,95.9009,217.2324,95.3312,217.8512,94.8972,217.8871,94.2217,217.9449,94.3614,218.5739,94.2132,219.0228,93.6303,219.6972,93.5919,220.3225,93.4348,220.8333,93.0013" style="stroke: #333333; stroke-width: 1.0416666666666667;"/><polygon fill="#00000000" points="220.8333,93.0013,220.8333,93.2202,231.875,92.5697,242.9167,93.2026,253.9583,93.4176,265,92.2582,276.0417,93.0013,276.0313,92.9764,276.5743,93.1086,277.1692,93.3664,277.8004,93.7117,278.3068,93.7558,278.9879,94.2217,279.1655,94.2953,279.0298,94.7272,279.4127,95.3739,279.8587,96.0469,279.9367,96.5673,280.2083,97.168,280.232,97.168,280.1972,102.5781,280.2703,107.9883,280.2914,113.3984,280.4117,118.8086,280.2083,124.2188,280.4236,124.3079,280.1822,124.8983,279.8019,125.4311,279.6248,126.0481,279.4573,126.6691,278.9879,127.165,278.8921,126.9337,278.4888,127.6268,277.77,127.5581,277.2911,128.0685,276.5651,127.9825,276.0417,128.3854,276.0417,128.3141,265,129.1579,253.9583,128.3347,242.9167,128.4951,231.875,128.7382,220.8333,128.3854,220.8886,128.5189,220.2436,128.1401,219.693,127.9894,218.9895,127.4696,218.5141,127.5003,217.8871,127.165,218.0629,127.2379,217.7856,126.6348,217.5956,126.068,216.9999,125.3331,216.7015,124.7213,216.6667,124.2188,216.4509,124.2188,216.6462,118.8086,216.5984,113.3984,216.9033,107.9883,216.606,102.5781,216.6667,97.168,216.5566,97.1224,216.984,96.609,216.9409,95.9009,217.2324,95.3312,217.8512,94.8972,217.8871,94.2217,217.9449,94.3614,218.5739,94.2132,219.0228,93.6303,219.6972,93.5919,220.3225,93.4348,220.8333,93.0013" style="stroke: #00000000; stroke-width: 1.0416666666666667;"/><polygon fill="#00000000" points="216.6667,124.2188,216.6667,124.4377,227.2569,123.7872,237.8472,124.4201,248.4375,124.6351,259.0278,123.4756,269.6181,124.1378,280.2083,124.2188,280.0602,124.2188,280.0752,125.0521,280.1847,125.8854,279.9683,126.7188,280.4006,127.5521,280.2083,128.3854,280.2083,127.7289,269.6181,128.1794,259.0278,128.8354,248.4375,128.2961,237.8472,128.4565,227.2569,128.3521,216.6667,128.3854,216.7287,128.3854,216.7497,127.5521,216.87,126.7188,216.8997,125.8854,216.9025,125.0521,216.6667,124.2188" style="stroke: #00000000; stroke-width: 1.0416666666666667;"/><polygon fill="none" points="220.8333,93.0013,220.8333,93.2202,231.875,92.5697,242.9167,93.2026,253.9583,93.4176,265,92.2582,276.0417,93.0013,276.0313,92.9764,276.5743,93.1086,277.1692,93.3664,277.8004,93.7117,278.3068,93.7558,278.9879,94.2217,279.1655,94.2953,279.0298,94.7272,279.4127,95.3739,279.8587,96.0469,279.9367,96.5673,280.2083,97.168,280.232,97.168,280.1972,105.9115,280.2703,114.6549,280.2914,123.3984,280.4117,132.1419,280.2083,140.8854,280.4236,140.9746,280.1822,141.5649,279.8019,142.0978,279.6248,142.7148,279.4573,143.3357,278.9879,143.8317,278.8921,143.6003,278.4888,144.2934,277.77,144.2247,277.2911,144.7352,276.5651,144.6492,276.0417,145.0521,276.0417,144.9807,265,145.8246,253.9583,145.0013,242.9167,145.1618,231.875,145.4048,220.8333,145.0521,220.8886,145.1856,220.2436,144.8068,219.693,144.6561,218.9895,144.1362,218.5141,144.167,217.8871,143.8317,218.0629,143.9045,217.7856,143.3015,217.5956,142.7346,216.9999,141.9997,216.7015,141.388,216.6667,140.8854,216.4509,140.8854,216.6462,132.1419,216.5984,123.3984,216.9033,114.6549,216.606,105.9115,216.6667,97.168,216.5566,97.1224,216.984,96.609,216.9409,95.9009,217.2324,95.3312,217.8512,94.8972,217.8871,94.2217,217.9449,94.3614,218.5739,94.2132,219.0228,93.6303,219.6972,93.5919,220.3225,93.4348,220.8333,93.0013" style="stroke: #333333; stroke-width: 1.0416666666666667;"/><polygon fill="#00000000" points="241.7242,113.2271,240.1973,115.3134,238.3913,118.3692,235.8084,120.4286,233.0941,121.5547,230.9299,121.6525,228.1484,120.2441,225.5238,119.324,223.5318,117.4558,222.4868,115.3172,221.8671,113.6143,221.26,111.39,220.2746,109.476,221.0318,107.6072,221.6953,105.5601,224.1849,103.941,225.9365,101.8402,228.1045,101.1426,230.6819,100.5419,233.9871,100.8988,235.7974,101.7526,237.9022,102.1396,240.4613,104.7615,241.3535,107.5295,241.7411,109.4181,241.302,112.5304" style="stroke: #C6303E; stroke-width: 1.0416666666666667;"/><path d="M228.1413,107.8613 L228.1413,106.2663 L233.5612,106.2663 L233.5612,107.8613 L231.7546,107.8613 L231.7546,113.7858 L233.5612,113.7858 L233.5612,115.3809 L228.1413,115.3809 L228.1413,113.7858 L229.9479,113.7858 L229.9479,107.8613 L228.1413,107.8613 Z "/><text fill="#2E2E2E" font-family="Segoe Print" font-size="12.5" font-style="italic" lengthAdjust="spacingAndGlyphs" textLength="21.875" x="250" y="115.0208">List</text><path d="M217.7083,128.3854 L217.7083,128.6773 L227.9514,127.81 L238.1944,128.6539 L248.4375,128.9405 L258.6806,127.3946 L268.9236,128.2775 L279.1667,128.3854 " fill="#00000000" style="stroke: #333333; stroke-width: 1.0416666666666667;"/><path d="M217.7083,136.7188 L217.7083,137.0107 L227.9514,136.1433 L238.1944,136.9872 L248.4375,137.2739 L258.6806,135.7279 L268.9236,136.6108 L279.1667,136.7188 " fill="#00000000" style="stroke: #333333; stroke-width: 1.0416666666666667;"/><!--MD5=[c160724f8e3bb89ca8141a12554ac2e3]
class Collection--><polygon fill="#00000000" points="65.625,93.0013,65.625,93.2202,76.3889,92.5697,87.1528,93.2026,97.9167,93.4176,108.6806,92.2582,119.4444,92.9204,130.2083,92.557,140.9722,92.6018,151.7361,92.9303,162.5,93.0013,162.4081,92.7795,163.1628,93.423,163.5948,93.2873,164.2415,93.6701,164.9144,94.1162,165.4463,94.2217,165.4188,94.2103,165.7122,94.82,165.9242,95.396,166.2358,96.0132,166.4993,96.6105,166.6667,97.168,166.87,97.168,166.8997,105.9115,166.9025,114.6549,166.7551,123.3984,166.8276,132.1419,166.6667,140.8854,166.8919,140.9787,166.1912,141.3788,166.3962,142.1541,165.8393,142.6138,165.8616,143.3134,165.4463,143.8317,165.3805,143.6729,164.8479,144.0538,164.3663,144.5578,163.672,144.5483,163.1032,144.8418,162.5,145.0521,162.5,145.4048,151.7361,145.4857,140.9722,145.048,130.2083,145.3513,119.4444,144.4558,108.6806,145.3483,97.9167,145.6231,87.1528,145.5151,76.3889,145.6907,65.625,145.0521,65.5608,144.8971,64.9491,144.5988,64.3639,144.3646,63.8494,144.301,63.2419,144.0127,62.6787,143.8317,62.8973,143.9222,62.3786,143.2192,62.0805,142.6076,62.0197,142.0943,61.4885,141.3861,61.4583,140.8854,61.2781,140.8854,61.6837,132.1419,61.6096,123.3984,61.7134,114.6549,61.3466,105.9115,61.4583,97.168,61.5607,97.2104,61.8918,96.6572,61.7949,95.9267,62.1598,95.3875,62.4751,94.8277,62.6787,94.2217,62.7653,94.4308,63.2674,93.9763,63.9187,93.8819,64.3729,93.3118,64.9458,93.0281,65.625,93.0013" style="stroke: #333333; stroke-width: 1.0416666666666667;"/><polygon fill="#00000000" points="65.625,93.0013,65.625,93.2202,76.3889,92.5697,87.1528,93.2026,97.9167,93.4176,108.6806,92.2582,119.4444,92.9204,130.2083,92.557,140.9722,92.6018,151.7361,92.9303,162.5,93.0013,162.4081,92.7795,163.1628,93.423,163.5948,93.2873,164.2415,93.6701,164.9144,94.1162,165.4463,94.2217,165.4188,94.2103,165.7122,94.82,165.9242,95.396,166.2358,96.0132,166.4993,96.6105,166.6667,97.168,166.87,97.168,166.8997,102.5781,166.9025,107.9883,166.7551,113.3984,166.8276,118.8086,166.6667,124.2188,166.8919,124.3121,166.1912,124.7122,166.3962,125.4874,165.8393,125.9471,165.8616,126.6467,165.4463,127.165,165.3805,127.0062,164.8479,127.3871,164.3663,127.8911,163.672,127.8816,163.1032,128.1751,162.5,128.3854,162.5,128.7382,151.7361,128.819,140.9722,128.3813,130.2083,128.6846,119.4444,127.7891,108.6806,128.6817,97.9167,128.9565,87.1528,128.8485,76.3889,129.024,65.625,128.3854,65.5608,128.2304,64.9491,127.9321,64.3639,127.6979,63.8494,127.6343,63.2419,127.3461,62.6787,127.165,62.8973,127.2556,62.3786,126.5526,62.0805,125.9409,62.0197,125.4276,61.4885,124.7194,61.4583,124.2188,61.2781,124.2188,61.6837,118.8086,61.6096,113.3984,61.7134,107.9883,61.3466,102.5781,61.4583,97.168,61.5607,97.2104,61.8918,96.6572,61.7949,95.9267,62.1598,95.3875,62.4751,94.8277,62.6787,94.2217,62.7653,94.4308,63.2674,93.9763,63.9187,93.8819,64.3729,93.3118,64.9458,93.0281,65.625,93.0013" style="stroke: #00000000; stroke-width: 1.0416666666666667;"/><polygon fill="#00000000" points="61.4583,124.2188,61.4583,124.4377,71.9792,123.7872,82.5,124.4201,93.0208,124.6351,103.5417,123.4756,114.0625,124.1378,124.5833,123.7745,135.1042,123.8193,145.625,124.1478,156.1458,123.4986,166.6667,124.2188,166.8589,124.2188,166.4478,125.0521,166.598,125.8854,166.8166,126.7188,166.6369,127.5521,166.6667,128.3854,166.6667,128.4565,156.1458,128.3521,145.625,128.5714,135.1042,128.6345,124.5833,128.9955,114.0625,129.0844,103.5417,129.093,93.0208,128.6507,82.5,128.8683,71.9792,129.1169,61.4583,128.3854,61.2079,128.3854,61.6939,127.5521,61.3554,126.7188,61.6437,125.8854,61.2865,125.0521,61.4583,124.2188" style="stroke: #00000000; stroke-width: 1.0416666666666667;"/><polygon fill="none" points="65.625,93.0013,65.625,93.2202,76.3889,92.5697,87.1528,93.2026,97.9167,93.4176,108.6806,92.2582,119.4444,92.9204,130.2083,92.557,140.9722,92.6018,151.7361,92.9303,162.5,93.0013,162.4081,92.7795,163.1628,93.423,163.5948,93.2873,164.2415,93.6701,164.9144,94.1162,165.4463,94.2217,165.4188,94.2103,165.7122,94.82,165.9242,95.396,166.2358,96.0132,166.4993,96.6105,166.6667,97.168,166.87,97.168,166.8997,105.9115,166.9025,114.6549,166.7551,123.3984,166.8276,132.1419,166.6667,140.8854,166.8919,140.9787,166.1912,141.3788,166.3962,142.1541,165.8393,142.6138,165.8616,143.3134,165.4463,143.8317,165.3805,143.6729,164.8479,144.0538,164.3663,144.5578,163.672,144.5483,163.1032,144.8418,162.5,145.0521,162.5,145.4048,151.7361,145.4857,140.9722,145.048,130.2083,145.3513,119.4444,144.4558,108.6806,145.3483,97.9167,145.6231,87.1528,145.5151,76.3889,145.6907,65.625,145.0521,65.5608,144.8971,64.9491,144.5988,64.3639,144.3646,63.8494,144.301,63.2419,144.0127,62.6787,143.8317,62.8973,143.9222,62.3786,143.2192,62.0805,142.6076,62.0197,142.0943,61.4885,141.3861,61.4583,140.8854,61.2781,140.8854,61.6837,132.1419,61.6096,123.3984,61.7134,114.6549,61.3466,105.9115,61.4583,97.168,61.5607,97.2104,61.8918,96.6572,61.7949,95.9267,62.1598,95.3875,62.4751,94.8277,62.6787,94.2217,62.7653,94.4308,63.2674,93.9763,63.9187,93.8819,64.3729,93.3118,64.9458,93.0281,65.625,93.0013" style="stroke: #333333; stroke-width: 1.0416666666666667;"/><polygon fill="#00000000" points="86.5159,113.2271,84.989,115.3134,83.183,118.3692,80.6,120.4286,77.8858,121.5547,75.7216,121.6525,72.94,120.2441,70.3155,119.324,68.3234,117.4558,67.2785,115.3172,66.6588,113.6143,66.0517,111.39,65.0663,109.476,65.8235,107.6072,66.4869,105.5601,68.9766,103.941,70.7282,101.8402,72.8962,101.1426,75.4736,100.5419,78.7788,100.8988,80.5891,101.7526,82.6939,102.1396,85.253,104.7615,86.1451,107.5295,86.5327,109.4181,86.0937,112.5304" style="stroke: #C6303E; stroke-width: 1.0416666666666667;"/><path d="M72.9329,107.8613 L72.9329,106.2663 L78.3529,106.2663 L78.3529,107.8613 L76.5462,107.8613 L76.5462,113.7858 L78.3529,113.7858 L78.3529,115.3809 L72.9329,115.3809 L72.9329,113.7858 L74.7396,113.7858 L74.7396,107.8613 L72.9329,107.8613 Z "/><text fill="#2E2E2E" font-family="Segoe Print" font-size="12.5" font-style="italic" lengthAdjust="spacingAndGlyphs" textLength="63.5417" x="94.7917" y="115.0208">Collection</text><path d="M62.5,128.3854 L62.5,128.6773 L72.8125,127.81 L83.125,128.6539 L93.4375,128.9405 L103.75,127.3946 L114.0625,128.2775 L124.375,127.7931 L134.6875,127.8528 L145,128.2908 L155.3125,127.4252 L165.625,128.3854 " fill="#00000000" style="stroke: #333333; stroke-width: 1.0416666666666667;"/><path d="M62.5,136.7188 L62.5,137.0107 L72.8125,136.1433 L83.125,136.9872 L93.4375,137.2739 L103.75,135.7279 L114.0625,136.6108 L124.375,136.1264 L134.6875,136.1861 L145,136.6241 L155.3125,135.7585 L165.625,136.7188 " fill="#00000000" style="stroke: #333333; stroke-width: 1.0416666666666667;"/><!--MD5=[ab8871ed637f40707b866ba6597734bc]
class ArrayList--><polygon fill="#00000000" points="192.1875,357.5846,192.1875,357.8036,202.9247,357.1531,213.6619,357.786,224.399,358.001,235.1362,356.8415,245.8734,357.5037,256.6106,357.1404,267.3478,357.1852,278.0849,357.5136,288.8221,356.8645,299.5593,358.1613,310.2965,356.9281,321.0337,357.3786,331.7708,357.5846,331.8282,357.7232,332.3487,357.8012,332.9584,358.0947,333.5344,358.3066,334.1516,358.6182,334.7171,358.805,334.7938,358.8368,335.1491,359.4721,335.4205,360.0727,335.6672,360.663,335.7751,361.1959,335.9375,361.7513,336.4204,361.7513,336.669,371.8877,335.1863,382.024,336.6443,392.1604,335.6286,402.2967,336.4936,412.4331,335.4219,422.5694,335.8661,432.7058,336.71,442.8422,335.9375,452.9785,335.9219,452.972,335.7272,453.5818,335.558,454.202,335.3388,454.8016,334.9599,455.335,334.7171,455.9248,334.7553,456.0169,334.0518,455.9852,333.5764,456.5042,333.0222,456.8329,332.4192,457.0437,331.7708,457.1452,331.7708,457.7837,321.0337,456.642,310.2965,456.4658,299.5593,456.4979,288.8221,457.0838,278.0849,456.9405,267.3478,457.855,256.6106,456.9632,245.8734,456.7878,235.1362,457.383,224.399,456.4506,213.6619,456.6044,202.9247,457.8212,192.1875,457.1452,192.2454,457.2849,191.6958,457.1367,190.9662,456.5538,190.4621,456.5153,189.9089,456.3583,189.2412,455.9248,189.0897,455.862,188.9664,455.3228,188.7935,454.763,188.7181,454.2436,188.2636,453.5672,188.0208,452.9785,188.5027,452.9785,187.444,442.8422,187.3154,432.7058,188.5454,422.5694,187.274,412.4331,188.551,402.2967,188.2361,392.1604,187.7418,382.024,187.6523,371.8877,188.0208,361.7513,188.168,361.8123,188.1689,361.1223,188.6989,360.6514,188.5758,359.9101,189.1952,359.4763,189.2412,358.805,189.3056,358.9604,189.863,358.6395,190.426,358.332,191.1055,358.3059,191.6798,358.0255,192.1875,357.5846" style="stroke: #333333; stroke-width: 1.0416666666666667;"/><polygon fill="#00000000" points="192.1875,357.5846,192.1875,357.8036,202.9247,357.1531,213.6619,357.786,224.399,358.001,235.1362,356.8415,245.8734,357.5037,256.6106,357.1404,267.3478,357.1852,278.0849,357.5136,288.8221,356.8645,299.5593,358.1613,310.2965,356.9281,321.0337,357.3786,331.7708,357.5846,331.8282,357.7232,332.3487,357.8012,332.9584,358.0947,333.5344,358.3066,334.1516,358.6182,334.7171,358.805,334.7938,358.8368,335.1491,359.4721,335.4205,360.0727,335.6672,360.663,335.7751,361.1959,335.9375,361.7513,336.0985,361.7513,336.1813,367.1615,335.6871,372.5716,336.1731,377.9818,335.8345,383.3919,335.9375,388.8021,336.1087,388.873,335.5346,389.3256,335.4274,389.9715,335.4432,390.6684,334.9456,391.1526,334.7171,391.7484,334.7311,391.7821,334.1729,392.1011,333.5939,392.37,332.9488,392.4793,332.3983,392.8168,331.7708,392.9688,331.7708,392.3725,321.0337,393.265,310.2965,393.5398,299.5593,393.4318,288.8221,393.6073,278.0849,392.4655,267.3478,392.2894,256.6106,392.3215,245.8734,392.9074,235.1362,392.764,224.399,393.6786,213.6619,392.7868,202.9247,392.6114,192.1875,392.9688,192.2178,393.042,191.5096,392.5108,190.94,392.3141,190.506,392.4447,189.8884,392.1322,189.2412,391.7484,189.4768,391.846,188.8939,391.1163,188.8555,390.6123,188.6984,390.059,188.1134,389.3286,188.0208,388.8021,187.9875,388.8021,188.0646,383.3919,188.2471,377.9818,188.0194,372.5716,188.1814,367.1615,188.0208,361.7513,187.8432,361.6777,188.0477,361.0721,188.6705,360.6397,188.5231,359.8883,189.1604,359.4619,189.2412,358.805,189.2687,358.8713,189.7949,358.475,190.3727,358.2034,191.0699,358.22,191.5585,357.7327,192.1875,357.5846" style="stroke: #00000000; stroke-width: 1.0416666666666667;"/><polygon fill="#00000000" points="188.0208,388.8021,188.0208,389.021,198.5863,388.3705,209.1518,389.0034,219.7173,389.2184,230.2827,388.059,240.8482,388.7211,251.4137,388.3578,261.9792,388.4026,272.5446,388.7311,283.1101,388.0819,293.6756,389.3788,304.2411,388.1455,314.8065,388.5961,325.372,389.252,335.9375,388.8021,335.9077,388.8021,335.9612,389.6354,335.9264,390.4688,335.9995,391.3021,336.0205,392.1354,335.9375,392.9688,335.9375,393.5788,325.372,393.6678,314.8065,393.6763,304.2411,393.234,293.6756,393.4517,283.1101,393.7002,272.5446,392.2175,261.9792,393.6755,251.4137,392.6599,240.8482,393.5248,230.2827,392.4531,219.7173,392.8974,209.1518,393.7413,198.5863,392.918,188.0208,392.9688,188.0574,392.9688,188.1384,392.1354,188.1654,391.3021,188.0195,390.4688,188.1206,389.6354,188.0208,388.8021" style="stroke: #00000000; stroke-width: 1.0416666666666667;"/><polygon fill="none" points="192.1875,357.5846,192.1875,357.8036,202.9247,357.1531,213.6619,357.786,224.399,358.001,235.1362,356.8415,245.8734,357.5037,256.6106,357.1404,267.3478,357.1852,278.0849,357.5136,288.8221,356.8645,299.5593,358.1613,310.2965,356.9281,321.0337,357.3786,331.7708,357.5846,331.8282,357.7232,332.3487,357.8012,332.9584,358.0947,333.5344,358.3066,334.1516,358.6182,334.7171,358.805,334.7938,358.8368,335.1491,359.4721,335.4205,360.0727,335.6672,360.663,335.7751,361.1959,335.9375,361.7513,336.4204,361.7513,336.669,371.8877,335.1863,382.024,336.6443,392.1604,335.6286,402.2967,336.4936,412.4331,335.4219,422.5694,335.8661,432.7058,336.71,442.8422,335.9375,452.9785,335.9219,452.972,335.7272,453.5818,335.558,454.202,335.3388,454.8016,334.9599,455.335,334.7171,455.9248,334.7553,456.0169,334.0518,455.9852,333.5764,456.5042,333.0222,456.8329,332.4192,457.0437,331.7708,457.1452,331.7708,457.7837,321.0337,456.642,310.2965,456.4658,299.5593,456.4979,288.8221,457.0838,278.0849,456.9405,267.3478,457.855,256.6106,456.9632,245.8734,456.7878,235.1362,457.383,224.399,456.4506,213.6619,456.6044,202.9247,457.8212,192.1875,457.1452,192.2454,457.2849,191.6958,457.1367,190.9662,456.5538,190.4621,456.5153,189.9089,456.3583,189.2412,455.9248,189.0897,455.862,188.9664,455.3228,188.7935,454.763,188.7181,454.2436,188.2636,453.5672,188.0208,452.9785,188.5027,452.9785,187.444,442.8422,187.3154,432.7058,188.5454,422.5694,187.274,412.4331,188.551,402.2967,188.2361,392.1604,187.7418,382.024,187.6523,371.8877,188.0208,361.7513,188.168,361.8123,188.1689,361.1223,188.6989,360.6514,188.5758,359.9101,189.1952,359.4763,189.2412,358.805,189.3056,358.9604,189.863,358.6395,190.426,358.332,191.1055,358.3059,191.6798,358.0255,192.1875,357.5846" style="stroke: #333333; stroke-width: 1.0416666666666667;"/><polygon fill="#00000000" points="236.0471,377.8104,234.5202,379.8968,232.7142,382.9526,230.1313,385.0119,227.417,386.1381,225.2528,386.2358,222.4713,384.8274,219.8467,383.9073,217.8547,382.0392,216.8097,379.9005,216.19,378.1977,215.5829,375.9734,214.5975,374.0593,215.3548,372.1905,216.0182,370.1434,218.5079,368.5243,220.2594,366.4236,222.4275,365.726,225.0048,365.1252,228.31,365.4822,230.1203,366.3359,232.2251,366.7229,234.7843,369.3449,235.6764,372.1128,236.064,374.0015,235.625,377.1137" style="stroke: #4D4D4D; stroke-width: 1.0416666666666667;"/><path d="M227.4772,379.7038 Q227.054,379.9154 226.582,380.0293 Q226.11,380.1432 225.6055,380.1432 Q223.75,380.1432 222.7734,378.9388 Q221.8132,377.7181 221.8132,375.4232 Q221.8132,373.112 222.7734,371.9076 Q223.75,370.6868 225.6055,370.6868 Q226.11,370.6868 226.582,370.8008 Q227.0703,370.8984 227.4772,371.1263 L227.4772,373.1283 Q227.0215,372.7051 226.582,372.5098 Q226.1426,372.2982 225.6868,372.2982 Q224.694,372.2982 224.1895,373.0957 Q223.6849,373.877 223.6849,375.4232 Q223.6849,376.9531 224.1895,377.7344 Q224.694,378.5156 225.6868,378.5156 Q226.1426,378.5156 226.582,378.3203 Q227.0215,378.125 227.4772,377.7018 L227.4772,379.7038 Z "/><text fill="#2E2E2E" font-family="Segoe Print" font-size="12.5" lengthAdjust="spacingAndGlyphs" textLength="55.2083" x="249.4271" y="379.6041">ArrayList</text><path d="M189.0625,392.9688 L189.0625,393.2607 L199.4792,392.3933 L209.8958,393.2372 L220.3125,393.5239 L230.7292,391.9779 L241.1458,392.8608 L251.5625,392.3764 L261.9792,392.4361 L272.3958,392.8741 L282.8125,392.0085 L293.2292,393.7377 L303.6458,392.0934 L314.0625,392.6941 L324.4792,393.5687 L334.8958,392.9688 " fill="#00000000" style="stroke: #333333; stroke-width: 1.0416666666666667;"/><text fill="#555555" font-family="Segoe Print" font-size="11.4583" lengthAdjust="spacingAndGlyphs" textLength="125" x="199.4792" y="412.9796">Object[] elementData</text><path d="M189.0625,425.057 L189.0625,425.3489 L199.4792,424.4815 L209.8958,425.3254 L220.3125,425.6121 L230.7292,424.0661 L241.1458,424.949 L251.5625,424.4646 L261.9792,424.5243 L272.3958,424.9623 L282.8125,424.0967 L293.2292,425.8259 L303.6458,424.1816 L314.0625,424.7823 L324.4792,425.6569 L334.8958,425.057 " fill="#00000000" style="stroke: #333333; stroke-width: 1.0416666666666667;"/><text fill="#555555" font-family="Segoe Print" font-size="11.4583" lengthAdjust="spacingAndGlyphs" textLength="31.25" x="199.4792" y="445.0679">size()</text><!--MD5=[15b68e006199004da79ea2a4d117d8e9]
class TimeUnit--><polygon fill="#00000000" points="321.3542,57.5846,321.3542,57.8036,331.3079,57.1531,341.2616,57.786,351.2153,58.001,361.169,56.8415,371.1227,57.5037,381.0764,57.1404,391.0301,57.1852,400.9838,57.5136,410.9375,57.5846,410.8456,57.3629,411.6003,58.0063,412.0323,57.8706,412.679,58.2534,413.3519,58.6995,413.8838,58.805,413.8563,58.7936,414.1497,59.4033,414.3617,59.9793,414.6733,60.5965,414.9368,61.1938,415.1042,61.7513,415.7143,61.7513,415.8032,72.2042,415.8117,82.6571,415.3694,93.1101,415.5871,103.563,415.8357,114.0159,414.3529,124.4688,415.8109,134.9217,414.7953,145.3746,415.6602,155.8276,414.5885,166.2805,415.1042,176.7334,415.0822,176.7243,415.098,177.4212,414.6004,177.9054,414.4057,178.5152,414.2365,179.1354,413.8838,179.6797,413.9391,179.8132,413.294,179.9225,412.7434,180.26,412.04,180.2283,411.5645,180.7472,410.9375,180.9001,410.9375,181.4711,400.9838,181.3631,391.0301,181.5386,381.0764,180.3969,371.1227,180.2207,361.169,180.2528,351.2153,180.8387,341.2616,180.6953,331.3079,181.6099,321.3542,180.9001,321.331,180.844,320.7193,180.5459,320.206,180.4851,319.4978,179.9539,318.9282,179.7572,318.4079,179.6797,318.6161,179.7659,318.3036,179.1483,318.1554,178.5988,317.5724,177.8692,317.534,177.3651,317.1875,176.7334,317.8025,176.7334,316.6954,166.2805,317.0876,155.8276,317.3187,145.3746,317.8664,134.9217,317.1831,124.4688,317.6693,114.0159,316.6106,103.563,316.482,93.1101,317.7121,82.6571,316.4407,72.2042,317.1875,61.7513,317.3508,61.8189,317.4979,61.1895,317.5897,60.5372,317.8062,59.9365,318.311,59.4552,318.4079,58.805,318.3681,58.709,319.0758,58.7508,319.513,58.1396,320.2577,58.2709,320.8293,57.9841,321.3542,57.5846" style="stroke: #333333; stroke-width: 1.0416666666666667;"/><polygon fill="#00000000" points="321.3542,57.5846,321.3542,57.8036,331.3079,57.1531,341.2616,57.786,351.2153,58.001,361.169,56.8415,371.1227,57.5037,381.0764,57.1404,391.0301,57.1852,400.9838,57.5136,410.9375,57.5846,410.8456,57.3629,411.6003,58.0063,412.0323,57.8706,412.679,58.2534,413.3519,58.6995,413.8838,58.805,413.8563,58.7936,414.1497,59.4033,414.3617,59.9793,414.6733,60.5965,414.9368,61.1938,415.1042,61.7513,415.3075,61.7513,415.3372,67.1615,415.34,72.5716,415.1926,77.9818,415.2651,83.3919,415.1042,88.8021,415.3294,88.8954,414.6287,89.2955,414.8337,90.0708,414.2768,90.5305,414.2991,91.23,413.8838,91.7484,413.818,91.5896,413.2854,91.9705,412.8038,92.4744,412.1095,92.465,411.5407,92.7585,410.9375,92.9688,410.9375,93.3215,400.9838,93.4023,391.0301,92.9647,381.0764,93.2679,371.1227,92.3725,361.169,93.265,351.2153,93.5398,341.2616,93.4318,331.3079,93.6073,321.3542,92.9688,321.29,92.8138,320.6783,92.5155,320.0931,92.2813,319.5786,92.2176,318.971,91.9294,318.4079,91.7484,318.6265,91.8389,318.1078,91.1359,317.8097,90.5243,317.7489,90.0109,317.2177,89.3027,317.1875,88.8021,317.0072,88.8021,317.4128,83.3919,317.3388,77.9818,317.4425,72.5716,317.0758,67.1615,317.1875,61.7513,317.2899,61.7937,317.621,61.2405,317.5241,60.51,317.889,59.9708,318.2042,59.411,318.4079,58.805,318.4945,59.0141,318.9966,58.5596,319.6479,58.4653,320.1021,57.8951,320.6749,57.6115,321.3542,57.5846" style="stroke: #00000000; stroke-width: 1.0416666666666667;"/><polygon fill="#00000000" points="317.1875,88.8021,317.1875,89.021,328.0671,88.3705,338.9468,89.0034,349.8264,89.2184,360.706,88.059,371.5856,88.7211,382.4653,88.3578,393.3449,88.4026,404.2245,88.7311,415.1042,88.8021,414.8641,88.8021,415.2964,89.6354,414.8853,90.4688,415.0355,91.3021,415.2541,92.1354,415.1042,92.9688,415.1042,92.8794,404.2245,93.0398,393.3449,92.9355,382.4653,93.1547,371.5856,93.2178,360.706,93.5788,349.8264,93.6678,338.9468,93.6763,328.0671,93.234,317.1875,92.9688,317.3485,92.9688,317.4313,92.1354,316.9371,91.3021,317.4231,90.4688,317.0845,89.6354,317.1875,88.8021" style="stroke: #00000000; stroke-width: 1.0416666666666667;"/><polygon fill="none" points="321.3542,57.5846,321.3542,57.8036,331.3079,57.1531,341.2616,57.786,351.2153,58.001,361.169,56.8415,371.1227,57.5037,381.0764,57.1404,391.0301,57.1852,400.9838,57.5136,410.9375,57.5846,410.8456,57.3629,411.6003,58.0063,412.0323,57.8706,412.679,58.2534,413.3519,58.6995,413.8838,58.805,413.8563,58.7936,414.1497,59.4033,414.3617,59.9793,414.6733,60.5965,414.9368,61.1938,415.1042,61.7513,415.7143,61.7513,415.8032,72.2042,415.8117,82.6571,415.3694,93.1101,415.5871,103.563,415.8357,114.0159,414.3529,124.4688,415.8109,134.9217,414.7953,145.3746,415.6602,155.8276,414.5885,166.2805,415.1042,176.7334,415.0822,176.7243,415.098,177.4212,414.6004,177.9054,414.4057,178.5152,414.2365,179.1354,413.8838,179.6797,413.9391,179.8132,413.294,179.9225,412.7434,180.26,412.04,180.2283,411.5645,180.7472,410.9375,180.9001,410.9375,181.4711,400.9838,181.3631,391.0301,181.5386,381.0764,180.3969,371.1227,180.2207,361.169,180.2528,351.2153,180.8387,341.2616,180.6953,331.3079,181.6099,321.3542,180.9001,321.331,180.844,320.7193,180.5459,320.206,180.4851,319.4978,179.9539,318.9282,179.7572,318.4079,179.6797,318.6161,179.7659,318.3036,179.1483,318.1554,178.5988,317.5724,177.8692,317.534,177.3651,317.1875,176.7334,317.8025,176.7334,316.6954,166.2805,317.0876,155.8276,317.3187,145.3746,317.8664,134.9217,317.1831,124.4688,317.6693,114.0159,316.6106,103.563,316.482,93.1101,317.7121,82.6571,316.4407,72.2042,317.1875,61.7513,317.3508,61.8189,317.4979,61.1895,317.5897,60.5372,317.8062,59.9365,318.311,59.4552,318.4079,58.805,318.3681,58.709,319.0758,58.7508,319.513,58.1396,320.2577,58.2709,320.8293,57.9841,321.3542,57.5846" style="stroke: #333333; stroke-width: 1.0416666666666667;"/><polygon fill="#00000000" points="342.245,77.8104,340.7181,79.8968,338.9121,82.9526,336.3292,85.0119,333.6149,86.1381,331.4508,86.2358,328.6692,84.8274,326.0447,83.9073,324.0526,82.0392,323.0076,79.9005,322.3879,78.1977,321.7808,75.9734,320.7954,74.0593,321.5527,72.1905,322.2161,70.1434,324.7058,68.5243,326.4574,66.4236,328.6254,65.726,331.2028,65.1252,334.508,65.4822,336.3183,66.3359,338.423,66.7229,340.9822,69.3449,341.8743,72.1128,342.2619,74.0015,341.8229,77.1137" style="stroke: #E6AE06; stroke-width: 1.0416666666666667;"/><path d="M334.3099,79.9642 L328.6296,79.9642 L328.6296,70.8496 L334.3099,70.8496 L334.3099,72.4447 L330.4362,72.4447 L330.4362,74.3978 L333.9355,74.3978 L333.9355,75.9928 L330.4362,75.9928 L330.4362,78.3691 L334.3099,78.3691 L334.3099,79.9642 Z "/><text fill="#2E2E2E" font-family="Segoe Print" font-size="12.5" lengthAdjust="spacingAndGlyphs" textLength="56.25" x="350.5208" y="79.6041">TimeUnit</text><path d="M318.2292,92.9688 L318.2292,93.2607 L328.8773,92.3933 L339.5255,93.2372 L350.1736,93.5239 L360.8218,91.9779 L371.4699,92.8608 L382.1181,92.3764 L392.7662,92.4361 L403.4144,92.8741 L414.0625,92.9688 " fill="#00000000" style="stroke: #333333; stroke-width: 1.0416666666666667;"/><text fill="#555555" font-family="Segoe Print" font-size="11.4583" lengthAdjust="spacingAndGlyphs" textLength="31.25" x="328.6458" y="112.9796">DAYS</text><text fill="#555555" font-family="Segoe Print" font-size="11.4583" lengthAdjust="spacingAndGlyphs" textLength="41.6667" x="328.6458" y="136.7345">HOURS</text><text fill="#555555" font-family="Segoe Print" font-size="11.4583" lengthAdjust="spacingAndGlyphs" textLength="52.0833" x="328.6458" y="160.4894">MINUTES</text><path d="M318.2292,172.5667 L318.2292,172.8587 L328.8773,171.9913 L339.5255,172.8352 L350.1736,173.1218 L360.8218,171.5759 L371.4699,172.4588 L382.1181,171.9744 L392.7662,172.0341 L403.4144,172.4721 L414.0625,172.5667 " fill="#00000000" style="stroke: #333333; stroke-width: 1.0416666666666667;"/><!--MD5=[0c8287f799745f7b534bf75518604c1e]
class SuppressWarnings--><polygon fill="#00000000" points="456.25,93.0013,456.25,93.2202,466.5972,92.5697,476.9444,93.2026,487.2917,93.4176,497.6389,92.2582,507.9861,92.9204,518.3333,92.557,528.6806,92.6018,539.0278,92.9303,549.375,92.2811,559.7222,93.578,570.0694,92.3448,580.4167,92.7953,590.7639,93.4512,601.1111,92.912,611.4583,93.0013,611.4674,93.0232,612.0433,93.2351,612.6606,93.5467,613.2579,93.8102,613.8932,94.1655,614.4046,94.2217,614.6199,94.3109,614.8666,94.9012,614.9744,95.434,615.2856,96.0511,615.6062,96.672,615.625,97.168,615.3746,97.168,615.8606,105.9115,615.522,114.6549,615.8104,123.3984,615.4531,132.1419,615.625,140.8854,615.603,140.8763,615.6188,141.5732,615.1212,142.0575,614.9265,142.6672,614.7573,143.2874,614.4046,143.8317,614.4599,143.9652,613.8148,144.0745,613.2643,144.412,612.5608,144.3803,612.0854,144.8992,611.4583,145.0521,611.4583,145.6231,601.1111,145.5151,590.7639,145.6907,580.4167,144.5489,570.0694,144.3727,559.7222,144.4048,549.375,144.9907,539.0278,144.8474,528.6806,145.7619,518.3333,144.8701,507.9861,144.6947,497.6389,145.2899,487.2917,144.3575,476.9444,144.5113,466.5972,145.7281,456.25,145.0521,456.3079,145.1918,455.7583,145.0436,455.0287,144.4607,454.5246,144.4222,453.9714,144.2652,453.3037,143.8317,453.1522,143.7689,453.0289,143.2297,452.856,142.6699,452.7806,142.1505,452.3261,141.4741,452.0833,140.8854,452.2439,140.8854,451.891,132.1419,451.8482,123.3984,452.2582,114.6549,451.8344,105.9115,452.0833,97.168,452.2466,97.2356,452.3937,96.6062,452.4855,95.9539,452.7021,95.3532,453.2068,94.8719,453.3037,94.2217,453.2639,94.1257,453.9716,94.1675,454.4088,93.5562,455.1535,93.6875,455.7251,93.4007,456.25,93.0013" style="stroke: #333333; stroke-width: 1.0416666666666667;"/><polygon fill="#00000000" points="456.25,93.0013,456.25,93.2202,466.5972,92.5697,476.9444,93.2026,487.2917,93.4176,497.6389,92.2582,507.9861,92.9204,518.3333,92.557,528.6806,92.6018,539.0278,92.9303,549.375,92.2811,559.7222,93.578,570.0694,92.3448,580.4167,92.7953,590.7639,93.4512,601.1111,92.912,611.4583,93.0013,611.4674,93.0232,612.0433,93.2351,612.6606,93.5467,613.2579,93.8102,613.8932,94.1655,614.4046,94.2217,614.6199,94.3109,614.8666,94.9012,614.9744,95.434,615.2856,96.0511,615.6062,96.672,615.625,97.168,615.3746,97.168,615.8606,102.5781,615.522,107.9883,615.8104,113.3984,615.4531,118.8086,615.625,124.2188,615.603,124.2096,615.6188,124.9065,615.1212,125.3908,614.9265,126.0005,614.7573,126.6208,614.4046,127.165,614.4599,127.2986,613.8148,127.4079,613.2643,127.7453,612.5608,127.7136,612.0854,128.2326,611.4583,128.3854,611.4583,128.9565,601.1111,128.8485,590.7639,129.024,580.4167,127.8822,570.0694,127.7061,559.7222,127.7381,549.375,128.3241,539.0278,128.1807,528.6806,129.0952,518.3333,128.2035,507.9861,128.0281,497.6389,128.6232,487.2917,127.6908,476.9444,127.8447,466.5972,129.0614,456.25,128.3854,456.3079,128.5252,455.7583,128.377,455.0287,127.794,454.5246,127.7556,453.9714,127.5985,453.3037,127.165,453.1522,127.1023,453.0289,126.563,452.856,126.0033,452.7806,125.4839,452.3261,124.8074,452.0833,124.2188,452.2439,124.2188,451.891,118.8086,451.8482,113.3984,452.2582,107.9883,451.8344,102.5781,452.0833,97.168,452.2466,97.2356,452.3937,96.6062,452.4855,95.9539,452.7021,95.3532,453.2068,94.8719,453.3037,94.2217,453.2639,94.1257,453.9716,94.1675,454.4088,93.5562,455.1535,93.6875,455.7251,93.4007,456.25,93.0013" style="stroke: #00000000; stroke-width: 1.0416666666666667;"/><polygon fill="#00000000" points="452.0833,124.2188,452.0833,124.4377,462.3047,123.7872,472.526,124.4201,482.7474,124.6351,492.9688,123.4756,503.1901,124.1378,513.4115,123.7745,523.6328,123.8193,533.8542,124.1478,544.0755,123.4986,554.2969,124.7955,564.5182,123.5622,574.7396,124.0127,584.9609,124.6687,595.1823,124.1294,605.4036,124.2898,615.625,124.2188,615.6139,124.2188,615.687,125.0521,615.708,125.8854,615.8284,126.7188,615.858,127.5521,615.625,128.3854,615.625,129.093,605.4036,128.6507,595.1823,128.8683,584.9609,129.1169,574.7396,127.6342,564.5182,129.0922,554.2969,128.0766,544.0755,128.9415,533.8542,127.8698,523.6328,128.3141,513.4115,129.1579,503.1901,128.3347,492.9688,128.4951,482.7474,128.7382,472.526,128.819,462.3047,128.3813,452.0833,128.3854,452.1831,128.3854,451.8846,127.5521,452.1821,126.7188,452.2737,125.8854,452.2377,125.0521,452.0833,124.2188" style="stroke: #00000000; stroke-width: 1.0416666666666667;"/><polygon fill="none" points="456.25,93.0013,456.25,93.2202,466.5972,92.5697,476.9444,93.2026,487.2917,93.4176,497.6389,92.2582,507.9861,92.9204,518.3333,92.557,528.6806,92.6018,539.0278,92.9303,549.375,92.2811,559.7222,93.578,570.0694,92.3448,580.4167,92.7953,590.7639,93.4512,601.1111,92.912,611.4583,93.0013,611.4674,93.0232,612.0433,93.2351,612.6606,93.5467,613.2579,93.8102,613.8932,94.1655,614.4046,94.2217,614.6199,94.3109,614.8666,94.9012,614.9744,95.434,615.2856,96.0511,615.6062,96.672,615.625,97.168,615.3746,97.168,615.8606,105.9115,615.522,114.6549,615.8104,123.3984,615.4531,132.1419,615.625,140.8854,615.603,140.8763,615.6188,141.5732,615.1212,142.0575,614.9265,142.6672,614.7573,143.2874,614.4046,143.8317,614.4599,143.9652,613.8148,144.0745,613.2643,144.412,612.5608,144.3803,612.0854,144.8992,611.4583,145.0521,611.4583,145.6231,601.1111,145.5151,590.7639,145.6907,580.4167,144.5489,570.0694,144.3727,559.7222,144.4048,549.375,144.9907,539.0278,144.8474,528.6806,145.7619,518.3333,144.8701,507.9861,144.6947,497.6389,145.2899,487.2917,144.3575,476.9444,144.5113,466.5972,145.7281,456.25,145.0521,456.3079,145.1918,455.7583,145.0436,455.0287,144.4607,454.5246,144.4222,453.9714,144.2652,453.3037,143.8317,453.1522,143.7689,453.0289,143.2297,452.856,142.6699,452.7806,142.1505,452.3261,141.4741,452.0833,140.8854,452.2439,140.8854,451.891,132.1419,451.8482,123.3984,452.2582,114.6549,451.8344,105.9115,452.0833,97.168,452.2466,97.2356,452.3937,96.6062,452.4855,95.9539,452.7021,95.3532,453.2068,94.8719,453.3037,94.2217,453.2639,94.1257,453.9716,94.1675,454.4088,93.5562,455.1535,93.6875,455.7251,93.4007,456.25,93.0013" style="stroke: #333333; stroke-width: 1.0416666666666667;"/><polygon fill="#00000000" points="477.1409,113.2271,475.614,115.3134,473.808,118.3692,471.225,120.4286,468.5108,121.5547,466.3466,121.6525,463.565,120.2441,460.9405,119.324,458.9484,117.4558,457.9035,115.3172,457.2838,113.6143,456.6767,111.39,455.6913,109.476,456.4485,107.6072,457.1119,105.5601,459.6016,103.941,461.3532,101.8402,463.5212,101.1426,466.0986,100.5419,469.4038,100.8988,471.2141,101.7526,473.3189,102.1396,475.878,104.7615,476.7701,107.5295,477.1577,109.4181,476.7187,112.5304" style="stroke: #1592A6; stroke-width: 1.0416666666666667;"/><path d="M467.9199,110.498 Q467.9199,109.7982 467.6107,109.4076 Q467.3014,109.0169 466.748,109.0169 Q466.2109,109.0169 465.9017,109.4076 Q465.5924,109.7982 465.5924,110.498 Q465.5924,111.1816 465.9017,111.5723 Q466.2109,111.9629 466.748,111.9629 Q467.3014,111.9629 467.6107,111.5723 Q467.9199,111.1816 467.9199,110.498 Z M469.0592,112.9883 L467.8548,112.9883 L467.8548,112.5 Q467.627,112.8092 467.3014,112.972 Q466.9922,113.1185 466.5527,113.1185 Q465.5599,113.1185 464.9414,112.4023 Q464.3229,111.6699 464.3229,110.498 Q464.3229,109.3099 464.9251,108.5938 Q465.5436,107.8776 466.5527,107.8776 Q466.9922,107.8776 467.3177,108.0241 Q467.6432,108.1706 467.8548,108.4635 L467.8548,108.2194 Q467.8548,107.3893 467.3991,106.9336 Q466.9434,106.4779 466.1133,106.4779 Q464.8438,106.4779 464.0299,107.6009 Q463.2324,108.7077 463.2324,110.498 Q463.2324,112.3698 464.1602,113.4928 Q465.0879,114.5996 466.6341,114.5996 Q467.1224,114.5996 467.5781,114.4531 Q468.0339,114.3066 468.457,114.0137 L469.0104,115.0879 Q468.5221,115.4297 467.9362,115.5924 Q467.3503,115.7715 466.6992,115.7715 Q464.5508,115.7715 463.2813,114.3392 Q462.0117,112.9232 462.0117,110.498 Q462.0117,108.138 463.151,106.722 Q464.3066,105.306 466.1784,105.306 Q467.513,105.306 468.278,106.1035 Q469.0592,106.901 469.0592,108.3008 L469.0592,112.9883 Z "/><text fill="#2E2E2E" font-family="Segoe Print" font-size="12.5" lengthAdjust="spacingAndGlyphs" textLength="121.875" x="485.4167" y="115.0208">SuppressWarnings</text><path d="M453.125,128.3854 L453.125,128.6773 L463.2161,127.81 L473.3073,128.6539 L483.3984,128.9405 L493.4896,127.3946 L503.5807,128.2775 L513.6719,127.7931 L523.763,127.8528 L533.8542,128.2908 L543.9453,127.4252 L554.0365,129.1544 L564.1276,127.51 L574.2188,128.1107 L584.3099,128.9853 L594.401,128.2663 L604.4922,128.4802 L614.5833,128.3854 " fill="#00000000" style="stroke: #333333; stroke-width: 1.0416666666666667;"/><path d="M453.125,136.7188 L453.125,137.0107 L463.2161,136.1433 L473.3073,136.9872 L483.3984,137.2739 L493.4896,135.7279 L503.5807,136.6108 L513.6719,136.1264 L523.763,136.1861 L533.8542,136.6241 L543.9453,135.7585 L554.0365,137.4877 L564.1276,135.8434 L574.2188,136.4441 L584.3099,137.3187 L594.401,136.5996 L604.4922,136.8135 L614.5833,136.7188 " fill="#00000000" style="stroke: #333333; stroke-width: 1.0416666666666667;"/><!--MD5=[00308d07b6a5721fb0cf5861877e6652]
reverse link List to AbstractList--><path d="M252.6916,166.1645 L252.9823,166.1908 L253.1057,177.048 L254.9333,188.0591 L256.206,199.0201 L255.6536,209.8163 L257.5201,220.8309 L258.0248,231.7226 L259.602,242.7111 " fill="none" style="stroke: #333333; stroke-width: 3.125;"/><polygon fill="none" points="245.4074,166.5756,245.4782,166.5934,246.3457,162.2595,247.628,158.0301,248.7753,153.7667,249.4783,149.3914,250.7963,145.171,250.7717,145.1598,252.4885,149.1284,254.3292,153.1532,256.256,157.2172,257.8861,161.1463,259.9317,165.2643,259.949,165.4558,257.0071,165.3086,254.1158,165.7204,251.2306,166.2004,248.3096,166.2837,245.4074,166.5756" style="stroke: #333333; stroke-width: 3.125;"/><!--MD5=[1822909749df1453bdd84de7a60a3406]
reverse link Collection to AbstractCollection--><path d="M105.6239,165.7804 L105.9111,165.8322 L103.3213,175.2945 L102.4155,185.0607 L100.9613,194.728 L97.7036,204.0697 L96.8362,213.8429 L94.6232,223.3732 L92.9457,233.0001 L91.7335,242.7111 " fill="none" style="stroke: #333333; stroke-width: 3.125;"/><polygon fill="none" points="98.4675,164.3771,98.531,164.4131,100.5178,160.465,102.8769,156.7278,105.1147,152.9218,106.9539,148.8901,109.3449,145.171,109.3182,145.1667,109.8934,149.5072,110.6029,153.869,111.4058,158.2458,111.8869,162.5712,112.8188,166.9685,112.8529,167.1577,109.9096,166.2349,107.066,165.8644,104.2347,165.5613,101.3325,164.8661,98.4675,164.3771" style="stroke: #333333; stroke-width: 3.125;"/><!--MD5=[0159284274f96a472eb2618ad803aaca]
reverse link Collection to List--><path d="M187.7986,119.043 L187.7986,119.1403 L193.5497,118.8512 L199.3007,119.1325 L205.0517,119.228 L210.8027,118.7127 L216.5538,119.043 " fill="none" style="stroke: #333333; stroke-width: 3.125;"/><polygon fill="none" points="187.6485,126.3345,187.6727,126.4034,183.4344,124.7404,179.3374,123.4813,175.1944,122.0906,170.9,120.2675,166.8152,119.043,166.8063,119.0175,170.9329,117.4448,175.1045,116.0006,179.3073,114.6456,183.4025,112.983,187.6484,111.7512,187.8407,111.7512,187.4296,114.6679,187.5798,117.5845,187.7985,120.5012,187.6187,123.4179,187.6485,126.3345" style="stroke: #333333; stroke-width: 3.125;"/><!--MD5=[7a3a52e8f65ef1a8d8d29530ea5cd870]
reverse link AbstractCollection to AbstractList--><path d="M188.0554,269.043 L188.0554,269.1403 L191.037,268.8512 L194.0185,269.1325 L197,269.228 L199.9816,268.7127 L202.9631,269.043 " fill="none" style="stroke: #333333; stroke-width: 3.125;"/><polygon fill="none" points="187.793,276.3345,187.8171,276.4034,183.5788,274.7404,179.4819,273.4813,175.3389,272.0906,171.0445,270.2675,166.9597,269.043,166.9508,269.0175,171.0774,267.4448,175.249,266.0006,179.4518,264.6456,183.547,262.983,187.7929,261.7512,187.9852,261.7512,187.5741,264.6679,187.7243,267.5845,187.943,270.5012,187.7632,273.4179,187.793,276.3345" style="stroke: #333333; stroke-width: 3.125;"/><!--MD5=[40e4bb1af59cca28d4643aaff05088cc]
reverse link AbstractList to ArrayList--><path d="M261.9792,316.014 L262.0765,316.014 L261.7874,324.315 L262.0687,332.616 L262.1642,340.9169 L261.6489,349.2179 L261.9792,357.5189 " fill="none" style="stroke: #333333; stroke-width: 3.125;"/><polygon fill="none" points="254.6876,315.9349,254.7565,315.9591,256.0101,311.7208,257.6676,307.6238,259.1935,303.4808,260.2871,299.1865,261.9792,295.1016,261.9537,295.0927,263.2977,299.2193,264.7702,303.3909,266.3319,307.5937,267.586,311.6889,269.2709,315.9348,269.2709,316.1271,266.3543,315.716,263.4376,315.8662,260.5209,316.0849,257.6043,315.9051,254.6876,315.9349" style="stroke: #333333; stroke-width: 3.125;"/><!--MD5=[5ac220787ed10ee927cb8fb3ece9fc57]
@startuml

!$THEME = "sketchy-outline"

!if %not(%variable_exists("$BGCOLOR"))
!$BGCOLOR = "transparent"
!endif

skinparam backgroundColor $BGCOLOR
skinparam handwritten true
skinparam shadowing false

!$BLUE = "#007bff"
!$INDIGO = "#6610f2"
!$PURPLE = "#6f42c1"
!$PINK = "#e83e8c"
!$RED = "#dc3545"
!$ORANGE = "#fd7e14"
!$YELLOW = "#ffc107"
!$GREEN = "#28a745"
!$TEAL = "#20c997"
!$CYAN = "#17a2b8"
!$WHITE = "#ffffff"
!$GRAY = "#868e96"
!$GRAYDARK = "#333333"
!$PRIMARY = "#333333"
!$SECONDARY = "#555555"
!$SUCCESS = "#28a745"
!$INFO = "#17a2b8"
!$WARNING = "#ffc107"
!$DANGER = "#dc3545"
!$LIGHT = "#ffffff"
!$DARK = "#555555"

!$FGCOLOR = $WHITE
!$PRIMARY_DARK = "#2e2e2e"
!$PRIMARY_LIGHT = "#474747"
!$PRIMARY_TEXT = "#2e2e2e"
!$SECONDARY_DARK = "#4d4d4d"
!$SECONDARY_LIGHT = "#666666"
!$SECONDARY_TEXT = $WHITE
!$INFO_DARK = "#1592a6"
!$INFO_LIGHT = "#2eabbf"
!$INFO_TEXT = $WHITE
!$SUCCESS_DARK = "#24963e"
!$SUCCESS_LIGHT = "#3eb058"
!$SUCCESS_TEXT = $WHITE
!$WARNING_DARK = "#e6ae06"
!$WARNING_LIGHT = "#ffc720"
!$WARNING_TEXT = $WHITE
!$DANGER_DARK = "#c6303e"
!$DANGER_LIGHT = "#e04958"
!$DANGER_TEXT = $WHITE
!$DARK_DARK = "#4d4d4d"
!$DARK_LIGHT = "#666666"
!$LIGHT_DARK = "#e6e6e6"
!$LIGHT_LIGHT = "#ffffff"

!procedure $success($msg)
  <font color=$SUCCESS><b>$msg
!endprocedure

!procedure $failure($msg)
  <font color=$DANGER><b>$msg
!endprocedure

!procedure $warning($msg)
  <font color=$WARNING><b>$msg
!endprocedure

!procedure $primary_scheme()
	FontColor $PRIMARY_TEXT
	BorderColor $PRIMARY
	BackgroundColor $BGCOLOR
!endprocedure

skinparam defaultFontName       "Segoe Print"
skinparam defaultFontSize       12
skinparam dpi                   100
skinparam shadowing             false
skinparam roundcorner           8
skinparam ParticipantPadding    40
skinparam BoxPadding            40
skinparam Padding               5
skinparam ArrowColor            $DARK
skinparam stereotype {
    CBackgroundColor $BGCOLOR
    CBorderColor $SECONDARY_DARK
    ABackgroundColor $BGCOLOR
    ABorderColor $SUCCESS_DARK
    IBackgroundColor $BGCOLOR
    IBorderColor $DANGER_DARK
    EBackgroundColor $BGCOLOR
    EBorderColor $WARNING_DARK
    NBackgroundColor $BGCOLOR
    NBorderColor $INFO_DARK
}
skinparam title {
	FontColor	                 $PRIMARY_TEXT
	BorderColor	                 $SECONDARY_DARK
	FontSize	    	         20
	BorderRoundCorner            8
	BorderThickness 	         1
	BackgroundColor              $BGCOLOR
}

skinparam legend {
	BackgroundColor $BGCOLOR
	BorderColor $SECONDARY_DARK
	FontColor $PRIMARY_TEXT
}

!startsub swimlane
skinparam swimlane {
	BorderColor $INFO
	BorderThickness 2
	TitleBackgroundColor  $BGCOLOR
	TitleFontColor $PRIMARY_TEXT
}
!endsub

!startsub activity

skinparam activity {
	$primary_scheme()
	BarColor $SUCCESS
	StartColor $INFO
	EndColor $INFO
	DiamondBackgroundColor $BGCOLOR
  	DiamondBorderColor $SECONDARY_DARK
  	DiamondFontColor $PRIMARY_TEXT
}
!endsub

!startsub participant

skinparam participant {
	$primary_scheme()
	ParticipantBorderThickness 2
}
!endsub

!startsub actor

skinparam actor {
	$primary_scheme()
}
!endsub

!startsub arrow

skinparam arrow {
	Thickness 3
	Color $PRIMARY
	FontColor $PRIMARY_TEXT
}
!endsub

!startsub sequence

skinparam sequence {
	BorderColor $PRIMARY
	TitleFontColor $PRIMARY_TEXT
	BackgroundColor $BGCOLOR
	StartColor $PRIMARY
	EndColor $PRIMARY
	BoxBackgroundColor $BGCOLOR
	BoxBorderColor $DARK
	BoxFontColor $DARK
	LifeLineBorderColor $SECONDARY
	LifeLineBorderThickness 2
	LifeLineBackgroundColor $SECONDARY_DARK
	GroupBorderColor $DARK
	GroupFontColor $DARK
	GroupHeaderFontColor $INFO
	GroupBackgroundColor $SECONDARY
	GroupHeaderBackgroundColor $BGCOLOR
	DividerBackgroundColor $DARK
    DividerBorderColor $DARK
    DividerBorderThickness 2
    DividerFontColor $LIGHT
	ReferenceBackgroundColor $BGCOLOR
	ReferenceBorderColor $DARK
	ReferenceFontColor $DARK
	ReferenceHeaderFontColor $INFO
	ReferenceHeaderBackgroundColor $SECONDARY
}
!endsub

!startsub partition

skinparam partition {
	BorderColor $PRIMARY
	FontColor $PRIMARY
	BackgroundColor $BGCOLOR
}
!endsub

!startsub collections

skinparam collections {
	$primary_scheme()
}
!endsub

!startsub control

skinparam control {
	$primary_scheme()
}
!endsub

!startsub entity

skinparam entity {
	$primary_scheme()
}
!endsub

!startsub boundary

skinparam boundary {
	$primary_scheme()
}
!endsub

!startsub agent

skinparam agent {
	BackgroundColor $WARNING
	BorderColor $WARNING_LIGHT
	FontColor $DARK
}
!endsub

!startsub note

skinparam note {
	BorderThickness 1
	BackgroundColor $INFO
	BorderColor $INFO_DARK
	FontColor $WHITE
}
!endsub

!startsub artifact

skinparam artifact {
	BackgroundColor $BGCOLOR
	BorderColor $DARK_DARK
	FontColor $DARK_DARK
}
!endsub

!startsub component

skinparam component {
	$primary_scheme()
}
!endsub

!startsub interface

skinparam interface {
	BackgroundColor  $BGCOLOR
	BorderColor  $DANGER
	FontColor $DARK
}
!endsub

!startsub storage

skinparam storage {
	BackgroundColor $BGCOLOR
  	BorderColor $WARNING_DARK
	FontColor $WARNING_DARK
}
!endsub

!startsub node

skinparam node {
	BackgroundColor  $BGCOLOR
	BorderColor $LIGHT
	FontColor $LIGHT
}
!endsub

!startsub cloud

skinparam cloud {
	BackgroundColor $BGCOLOR
	BorderColor #F2FCFE
	FontColor $PRIMARY_TEXT
}
!endsub

!startsub database

skinparam database {
	$primary_scheme()
}
!endsub

!startsub class

skinparam class {
	$primary_scheme()
	HeaderBackgroundColor $BGCOLOR
	StereotypeFontColor $DARK
	BorderThickness 1
	AttributeFontColor $DARK
	AttributeFontSize 11
}
!endsub

!startsub object

skinparam object {
	$primary_scheme()
	StereotypeFontColor $PRIMARY_TEXT
	BorderThickness 1
	AttributeFontColor $PRIMARY_TEXT
	AttributeFontSize 11
}
!endsub

!startsub usecase

skinparam usecase {
	$primary_scheme()
	BorderThickness 2
	StereotypeFontColor $PRIMARY
}
!endsub

!startsub rectangle

skinparam rectangle {
	$primary_scheme()
	BorderThickness 2
	StereotypeFontColor $PRIMARY
}
!endsub

!startsub package

skinparam package {
	BackgroundColor $BGCOLOR
  	BorderColor $PRIMARY
	FontColor $PRIMARY
	BorderThickness 2
}
!endsub

!startsub folder

skinparam folder {
	BackgroundColor $BGCOLOR
  	BorderColor $WARNING
	FontColor $WARNING
	BorderThickness 2
}
!endsub

!startsub frame

skinparam frame {
	BackgroundColor $BGCOLOR
  	BorderColor $INFO
	FontColor $INFO
	BorderThickness 2
}
!endsub

!startsub state

skinparam state {
	$primary_scheme()
	StartColor $INFO
	EndColor $INFO
	AttributeFontColor $SECONDARY_TEXT
	AttributeFontSize 11
}
!endsub

!startsub queue

skinparam queue {
	$primary_scheme()
}
!endsub

!startsub card

skinparam card {
	BackgroundColor $BGCOLOR
	BorderColor $INFO_DARK
	FontColor $INFO_DARK
}
!endsub

!startsub file

skinparam file {
	BackgroundColor $BGCOLOR
	BorderColor $LIGHT
	FontColor $LIGHT
}
!endsub

!startsub stack

skinparam stack {
	$primary_scheme()
}
!endsub

!if %variable_exists("$THEME")
title Class Diagram - $THEME theme
!else
title Class Diagram
!endif

'skinparam BackgroundColor transparent

abstract class AbstractList
abstract AbstractCollection
interface List
interface Collection

List <|- - AbstractList
Collection <|- - AbstractCollection

Collection <|- List
AbstractCollection <|- AbstractList
AbstractList <|- - ArrayList

class ArrayList {
  Object[] elementData
  size()
}

enum TimeUnit {
  DAYS
  HOURS
  MINUTES
}

annotation SuppressWarnings

@enduml

@startuml



skinparam backgroundColor transparent
skinparam handwritten true
skinparam shadowing false







skinparam defaultFontName       "Segoe Print"
skinparam defaultFontSize       12
skinparam dpi                   100
skinparam shadowing             false
skinparam roundcorner           8
skinparam ParticipantPadding    40
skinparam BoxPadding            40
skinparam Padding               5
skinparam ArrowColor            #555555
skinparam stereotype {
    CBackgroundColor transparent
    CBorderColor #4d4d4d
    ABackgroundColor transparent
    ABorderColor #24963e
    IBackgroundColor transparent
    IBorderColor #c6303e
    EBackgroundColor transparent
    EBorderColor #e6ae06
    NBackgroundColor transparent
    NBorderColor #1592a6
}
skinparam title {
	FontColor	                 #2e2e2e
	BorderColor	                 #4d4d4d
	FontSize	    	         20
	BorderRoundCorner            8
	BorderThickness 	         1
	BackgroundColor              transparent
}

skinparam legend {
	BackgroundColor transparent
	BorderColor #4d4d4d
	FontColor #2e2e2e
}

skinparam swimlane {
	BorderColor #17a2b8
	BorderThickness 2
	TitleBackgroundColor  transparent
	TitleFontColor #2e2e2e
}


skinparam activity {
		FontColor #2e2e2e
	BorderColor #333333
	BackgroundColor transparent
	BarColor #28a745
	StartColor #17a2b8
	EndColor #17a2b8
	DiamondBackgroundColor transparent
  	DiamondBorderColor #4d4d4d
  	DiamondFontColor #2e2e2e
}


skinparam participant {
		FontColor #2e2e2e
	BorderColor #333333
	BackgroundColor transparent
	ParticipantBorderThickness 2
}


skinparam actor {
		FontColor #2e2e2e
	BorderColor #333333
	BackgroundColor transparent
}


skinparam arrow {
	Thickness 3
	Color #333333
	FontColor #2e2e2e
}


skinparam sequence {
	BorderColor #333333
	TitleFontColor #2e2e2e
	BackgroundColor transparent
	StartColor #333333
	EndColor #333333
	BoxBackgroundColor transparent
	BoxBorderColor #555555
	BoxFontColor #555555
	LifeLineBorderColor #555555
	LifeLineBorderThickness 2
	LifeLineBackgroundColor #4d4d4d
	GroupBorderColor #555555
	GroupFontColor #555555
	GroupHeaderFontColor #17a2b8
	GroupBackgroundColor #555555
	GroupHeaderBackgroundColor transparent
	DividerBackgroundColor #555555
    DividerBorderColor #555555
    DividerBorderThickness 2
    DividerFontColor #ffffff
	ReferenceBackgroundColor transparent
	ReferenceBorderColor #555555
	ReferenceFontColor #555555
	ReferenceHeaderFontColor #17a2b8
	ReferenceHeaderBackgroundColor #555555
}


skinparam partition {
	BorderColor #333333
	FontColor #333333
	BackgroundColor transparent
}


skinparam collections {
		FontColor #2e2e2e
	BorderColor #333333
	BackgroundColor transparent
}


skinparam control {
		FontColor #2e2e2e
	BorderColor #333333
	BackgroundColor transparent
}


skinparam entity {
		FontColor #2e2e2e
	BorderColor #333333
	BackgroundColor transparent
}


skinparam boundary {
		FontColor #2e2e2e
	BorderColor #333333
	BackgroundColor transparent
}


skinparam agent {
	BackgroundColor #ffc107
	BorderColor #ffc720
	FontColor #555555
}


skinparam note {
	BorderThickness 1
	BackgroundColor #17a2b8
	BorderColor #1592a6
	FontColor #ffffff
}


skinparam artifact {
	BackgroundColor transparent
	BorderColor #4d4d4d
	FontColor #4d4d4d
}


skinparam component {
		FontColor #2e2e2e
	BorderColor #333333
	BackgroundColor transparent
}


skinparam interface {
	BackgroundColor  transparent
	BorderColor  #dc3545
	FontColor #555555
}


skinparam storage {
	BackgroundColor transparent
  	BorderColor #e6ae06
	FontColor #e6ae06
}


skinparam node {
	BackgroundColor  transparent
	BorderColor #ffffff
	FontColor #ffffff
}


skinparam cloud {
	BackgroundColor transparent
	BorderColor #F2FCFE
	FontColor #2e2e2e
}


skinparam database {
		FontColor #2e2e2e
	BorderColor #333333
	BackgroundColor transparent
}


skinparam class {
		FontColor #2e2e2e
	BorderColor #333333
	BackgroundColor transparent
	HeaderBackgroundColor transparent
	StereotypeFontColor #555555
	BorderThickness 1
	AttributeFontColor #555555
	AttributeFontSize 11
}


skinparam object {
		FontColor #2e2e2e
	BorderColor #333333
	BackgroundColor transparent
	StereotypeFontColor #2e2e2e
	BorderThickness 1
	AttributeFontColor #2e2e2e
	AttributeFontSize 11
}


skinparam usecase {
		FontColor #2e2e2e
	BorderColor #333333
	BackgroundColor transparent
	BorderThickness 2
	StereotypeFontColor #333333
}


skinparam rectangle {
		FontColor #2e2e2e
	BorderColor #333333
	BackgroundColor transparent
	BorderThickness 2
	StereotypeFontColor #333333
}


skinparam package {
	BackgroundColor transparent
  	BorderColor #333333
	FontColor #333333
	BorderThickness 2
}


skinparam folder {
	BackgroundColor transparent
  	BorderColor #ffc107
	FontColor #ffc107
	BorderThickness 2
}


skinparam frame {
	BackgroundColor transparent
  	BorderColor #17a2b8
	FontColor #17a2b8
	BorderThickness 2
}


skinparam state {
		FontColor #2e2e2e
	BorderColor #333333
	BackgroundColor transparent
	StartColor #17a2b8
	EndColor #17a2b8
	AttributeFontColor #ffffff
	AttributeFontSize 11
}


skinparam queue {
		FontColor #2e2e2e
	BorderColor #333333
	BackgroundColor transparent
}


skinparam card {
	BackgroundColor transparent
	BorderColor #1592a6
	FontColor #1592a6
}


skinparam file {
	BackgroundColor transparent
	BorderColor #ffffff
	FontColor #ffffff
}


skinparam stack {
		FontColor #2e2e2e
	BorderColor #333333
	BackgroundColor transparent
}

title Class Diagram - sketchy-outline theme


abstract class AbstractList
abstract AbstractCollection
interface List
interface Collection

List <|- - AbstractList
Collection <|- - AbstractCollection

Collection <|- List
AbstractCollection <|- AbstractList
AbstractList <|- - ArrayList

class ArrayList {
  Object[] elementData
  size()
}

enum TimeUnit {
  DAYS
  HOURS
  MINUTES
}

annotation SuppressWarnings

@enduml

PlantUML version 1.2020.16beta7(Unknown compile time)
(GPL source distribution)
Java Runtime: OpenJDK Runtime Environment
JVM: OpenJDK 64-Bit Server VM
Default Encoding: UTF-8
Language: en
Country: US
--></g></svg>