<?xml version="1.0" encoding="UTF-8" standalone="no"?><svg xmlns="http://www.w3.org/2000/svg" xmlns:xlink="http://www.w3.org/1999/xlink" contentScriptType="application/ecmascript" contentStyleType="text/css" height="584.375px" preserveAspectRatio="none" style="width:1218px;height:584px;background:#00000000;" version="1.1" viewBox="0 0 1218 584" width="1218.75px" zoomAndPan="magnify"><defs/><g><polygon fill="#00000000" points="354.1667,2.0833,354.1667,2.3023,364.6055,1.6517,375.0443,2.2847,385.4832,2.4997,395.922,1.3402,406.3608,2.0024,416.7996,1.6391,427.2385,1.6839,437.6773,2.0123,448.1161,1.3632,458.555,2.66,468.9938,1.4268,479.4326,1.8773,489.8715,2.5333,500.3103,1.994,510.7491,2.1544,521.1879,2.0501,531.6268,2.2693,542.0656,2.3324,552.5044,2.6934,562.9433,2.7823,573.3821,2.7909,583.8209,2.3486,594.2598,2.5662,604.6986,2.8148,615.1374,1.3321,625.5762,2.7901,636.0151,1.7745,646.4539,2.6394,656.8927,1.5677,667.3316,2.012,677.7704,2.8558,688.2092,2.0326,698.648,2.193,709.0869,2.4361,719.5257,2.5169,729.9645,2.0793,740.4034,2.3825,750.8422,1.4871,761.281,2.3796,771.7199,2.6544,782.1587,2.5464,792.5975,2.7219,803.0363,1.5801,813.4752,1.404,823.914,1.436,834.3528,2.022,844.7917,2.0833,844.7656,2.0203,845.4715,2.546,845.947,2.5155,846.5138,2.7055,847.179,3.1329,847.7379,3.3037,847.524,3.2151,847.8155,3.824,848.4343,4.5685,848.6099,5.1294,848.9499,5.7583,848.9583,6.25,848.8466,6.25,849.0692,13.6003,849.1633,20.9505,848.7943,28.3008,848.925,35.651,848.9583,43.0013,848.9987,43.018,848.9233,43.6772,848.4688,44.1793,848.3745,44.8305,847.8044,45.2847,847.7379,45.9476,847.648,45.7303,847.2156,46.3532,846.4642,46.2057,846.0378,46.8431,845.4084,46.9902,844.7917,47.168,844.7917,46.8889,834.3528,46.7995,823.914,47.6458,813.4752,46.8562,803.0363,47.7845,792.5975,46.5922,782.1587,47.8111,771.7199,47.6725,761.281,47.4231,750.8422,47.2172,740.4034,47.9249,729.9645,47.8071,719.5257,47.3443,709.0869,47.4473,698.648,47.0323,688.2092,47.9143,677.7704,47.3293,667.3316,47.3477,656.8927,46.5343,646.4539,46.7459,636.0151,47.7208,625.5762,47.6156,615.1374,47.1232,604.6986,46.8324,594.2598,46.9399,583.8209,46.4532,573.3821,47.6,562.9433,47.9383,552.5044,47.7163,542.0656,47.8919,531.6268,47.0255,521.1879,47.2588,510.7491,46.7642,500.3103,47.4638,489.8715,47.425,479.4326,47.7434,468.9938,46.9287,458.555,47.028,448.1161,47.6299,437.6773,47.7589,427.2385,46.6341,416.7996,46.966,406.3608,47.3235,395.922,46.5317,385.4832,47.5361,375.0443,47.4367,364.6055,47.063,354.1667,47.168,354.1856,47.2136,353.6742,47.1576,352.9466,46.5794,352.4408,46.5368,351.8476,46.2833,351.2204,45.9476,351.2575,45.963,351.0215,45.377,350.7686,44.7841,350.2879,44.0969,350.1155,43.5373,350,43.0013,349.8397,43.0013,350.0222,35.651,350.0306,28.3008,350.0562,20.9505,349.899,13.6003,350,6.25,349.9783,6.241,350.2055,5.6448,350.6732,5.1481,350.8691,4.5389,350.8206,3.8285,351.2204,3.3037,351.2107,3.2803,351.7329,2.8745,352.4372,2.9081,353.069,2.7667,353.6498,2.5021,354.1667,2.0833" style="stroke: #4D4D4D; stroke-width: 1.0416666666666667;"/><text fill="#2E2E2E" font-family="Segoe Print" font-size="20.8333" lengthAdjust="spacingAndGlyphs" textLength="471.875" x="363.5417" y="31.838">Component Diagram - sketchy-outline theme</text><!--MD5=[98956307d0c47524864de5bf9cdc747b]
cluster My Package--><path d="M10.4167,56.543 L106.25,56.543 A6.25,6.25 0 0 1 110.4167,60.7096 L117.7083,87.7604 L768.75,87.7604 A4.1667,4.1667 0 0 1 772.9167,91.9271 L772.9167,152.3763 A4.1667,4.1667 0 0 1 768.75,156.543 L10.4167,156.543 A4.1667,4.1667 0 0 1 6.25,152.3763 L6.25,60.7096 A4.1667,4.1667 0 0 1 10.4167,56.543 " fill="#00000000" style="stroke: #333333; stroke-width: 2.0833333333333335;"/><path d="M6.25,87.7604 L6.25,88.0523 L16.3826,87.185 L26.5152,88.0289 L36.6477,88.3155 L46.7803,86.7696 L56.9129,87.6525 L67.0455,87.1681 L77.178,87.2278 L87.3106,87.6658 L97.4432,86.8002 L107.5758,88.5294 L117.7083,87.7604 " fill="#00000000" style="stroke: #333333; stroke-width: 2.0833333333333335;"/><text fill="#333333" font-family="Segoe Print" font-size="12.5" font-weight="bold" lengthAdjust="spacingAndGlyphs" textLength="87.5" x="15.625" y="75.4374">My Package</text><!--MD5=[994b84a7865cf3a30290d65f6358d5f5]
cluster My Node--><polygon fill="#00000000" points="187.5,189.8763,187.5516,189.9279,189.4816,187.6912,191.7141,185.7571,193.8481,183.7244,195.6582,181.3678,197.9167,179.4596,197.9167,179.3787,208.2265,179.0154,218.5363,179.0602,228.8462,179.3886,239.156,178.7395,249.4658,180.0363,259.7756,178.8031,270.0855,179.2536,280.3953,179.9096,290.7051,179.3703,301.015,179.5307,311.3248,179.4264,321.6346,179.6456,331.9444,179.7087,342.2543,180.0697,352.5641,180.1586,362.8739,180.1672,373.1838,179.7249,383.4936,179.9425,393.8034,180.1911,404.1132,178.7084,414.4231,180.1664,424.7329,179.1508,435.0427,180.0157,445.3526,178.944,455.6624,179.3883,465.9722,180.2321,476.2821,179.4089,486.5919,179.5693,496.9017,179.8124,507.2115,179.8932,517.5214,179.4556,527.8312,179.7588,538.141,178.8634,548.4509,179.7559,558.7607,180.0307,569.0705,179.9227,579.3803,180.0982,589.6902,178.9564,600,179.4596,599.3206,179.4596,599.3527,189.992,599.9387,200.5245,599.7953,211.0569,600.7098,221.5893,599.818,232.1217,599.6427,242.6541,600.2378,253.1865,599.3054,263.7189,600,274.2513,599.8725,274.1238,598.076,276.494,595.9403,278.5249,593.9303,280.6816,591.5877,282.5056,589.5833,284.668,589.5833,285.0005,579.2735,285.283,568.9637,284.1759,558.6538,284.5681,548.344,284.7992,538.0342,285.3469,527.7244,284.6636,517.4145,285.1498,507.1047,284.0911,496.7949,283.9625,486.485,285.1926,476.1752,283.9212,465.8654,285.1981,455.5556,284.8832,445.2457,284.3889,434.9359,284.2995,424.6261,285.1458,414.3162,284.3562,404.0064,285.2845,393.6966,284.0922,383.3868,285.3111,373.0769,285.1725,362.7671,284.9231,352.4573,284.7172,342.1474,285.4249,331.8376,285.3071,321.5278,284.8443,311.2179,284.9473,300.9081,284.5323,290.5983,285.4143,280.2885,284.8293,269.9786,284.8477,259.6688,284.0343,249.359,284.2459,239.0491,285.2208,228.7393,285.1156,218.4295,284.6232,208.1197,284.3324,197.8098,284.4399,187.5,284.668,186.7852,284.668,187.932,274.1356,188.2704,263.6032,188.0483,253.0707,188.2239,242.5383,187.3576,232.0059,187.5909,221.4735,187.0963,210.9411,187.7959,200.4087,187.5,189.8763" style="stroke: #FFFFFF; stroke-width: 1.5625;"/><path d="M589.5833,189.8763 L589.6521,189.9451 L591.531,187.6573 L593.8133,185.7729 L595.9642,183.7571 L597.6831,181.3094 L600,179.4596 " fill="#00000000" style="stroke: #FFFFFF; stroke-width: 1.5625;"/><path d="M187.5,189.8763 L187.5,190.1682 L197.8098,189.3009 L208.1197,190.1448 L218.4295,190.4314 L228.7393,188.8855 L239.0491,189.7684 L249.359,189.2839 L259.6688,189.3437 L269.9786,189.7816 L280.2885,188.9161 L290.5983,190.6452 L300.9081,189.0009 L311.2179,189.6016 L321.5278,190.4762 L331.8376,189.7572 L342.1474,189.9711 L352.4573,189.8319 L362.7671,190.1243 L373.0769,190.2084 L383.3868,190.6898 L393.6966,190.8083 L404.0064,190.8197 L414.3162,190.23 L424.6261,190.5202 L434.9359,190.8516 L445.2457,188.8747 L455.5556,190.8187 L465.8654,189.4645 L476.1752,190.6177 L486.485,189.1888 L496.7949,189.7812 L507.1047,190.9063 L517.4145,189.8086 L527.7244,190.0226 L538.0342,190.3466 L548.344,190.4544 L558.6538,189.8709 L568.9637,190.2752 L579.2735,189.0813 L589.5833,189.8763 " fill="#00000000" style="stroke: #FFFFFF; stroke-width: 1.5625;"/><path d="M589.5833,189.8763 L589.8753,189.8763 L589.0079,200.4087 L589.8518,210.9411 L590.1384,221.4735 L588.5925,232.0059 L589.4754,242.5383 L588.991,253.0707 L589.0507,263.6032 L589.4887,274.1356 L589.5833,284.668 " fill="#00000000" style="stroke: #FFFFFF; stroke-width: 1.5625;"/><text fill="#FFFFFF" font-family="Segoe Print" font-size="12.5" font-weight="bold" lengthAdjust="spacingAndGlyphs" textLength="63.5417" x="357.8125" y="209.8124">My Node</text><!--MD5=[8f762177cf9f076b8ea6eac76c5df33e]
cluster My Cloud--><path d="M629.0219,193.9094 L629.0219,193.9094 L629.038,194.0053 L631.4118,193.3143 L633.8798,193.1859 L636.3172,192.8743 L638.6536,191.9602 L641.1298,191.8801 L641.1298,191.8801 L641.1242,191.8446 L643.6036,191.2902 L646.1114,190.915 L648.6387,190.6643 L651.0984,189.9845 L653.6529,189.9058 L653.6529,189.9058 L653.6732,190.1613 L655.8235,189.4406 L658.0329,189.466 L660.2497,189.5823 L662.4243,189.1691 L664.6211,189.0344 L664.6211,189.0344 L664.627,189.0655 L666.9496,188.5756 L669.2991,188.2271 L671.6356,187.8104 L673.9969,187.5237 L676.2774,186.8131 L676.2774,186.8131 L676.352,187.1147 L678.9995,186.4636 L681.5989,185.6179 L684.2687,185.057 L686.9419,184.5095 L689.5104,183.539 L689.5104,183.539 L689.4251,183.2162 L691.9089,184.4551 L694.1119,184.6311 L696.5283,185.6151 L698.725,185.7669 L701.1018,186.6009 L701.1018,186.6009 L701.0981,186.5694 L703.2804,187.1926 L705.3765,187.0798 L707.5235,187.4013 L709.6747,187.7593 L711.7952,187.8542 L711.7952,187.8542 L711.8292,188.0439 L714.4921,188.3367 L717.2131,188.9536 L719.84,189.0462 L722.6073,189.9209 L725.2813,190.2755 L725.2813,190.2755 L725.3234,190.5258 L727.5782,190.8589 L729.8539,191.3163 L732.0325,191.1964 L734.2823,191.4996 L736.5951,192.1778 L736.5951,192.1778 L736.5681,191.8914 L738.71,192.3507 L740.8214,192.4872 L742.9771,193.0919 L745.0573,192.8973 L747.1823,193.1778 L747.1823,193.1778 L747.026,193.1495 L747.7944,196.0048 L747.8947,198.7392 L748.4701,201.5595 L749.5103,204.4639 L749.7228,207.2186 L749.7228,207.2186 L749.918,207.2692 L750.8218,210.2753 L751.1184,213.1241 L752.1755,216.1699 L753.067,219.1728 L753.5723,222.0757 L753.5723,222.0757 L753.3582,222.0313 L754.0965,224.804 L754.7648,227.5623 L755.5708,230.3491 L755.8412,233.0248 L756.4108,235.7626 L756.4108,235.7626 L756.6223,235.7959 L755.7,238.6321 L755.186,241.5325 L755.2686,244.5267 L754.2529,247.3482 L754.1233,250.3091 L754.1233,250.3091 L754.3472,250.3825 L753.3371,253.0135 L752.2512,255.6197 L751.3363,258.282 L750.8167,261.0738 L749.7377,263.6823 L749.7377,263.6823 L749.602,263.6542 L749.4548,266.399 L748.3846,268.9525 L748.3638,271.7235 L747.7522,274.3721 L746.9814,276.9876 L746.9814,276.9876 L747.0019,277.0992 L744.7997,277.4107 L742.6709,278.1216 L740.4759,278.4717 L738.2531,278.6709 L736.0533,278.9954 L736.0533,278.9954 L736.0685,279.1186 L733.8585,279.2048 L731.7189,279.8632 L729.4996,279.8745 L727.3131,280.1519 L725.1159,280.3419 L725.1159,280.3419 L725.0832,280.0622 L722.6887,280.4367 L720.3336,281.1482 L717.9228,281.3829 L715.492,281.4466 L713.089,281.7475 L713.089,281.7475 L713.0605,281.6011 L710.3959,282.1672 L707.681,282.474 L705.1044,283.4935 L702.4594,284.1603 L699.7204,284.3434 L699.7204,284.3434 L699.7624,284.5834 L697.4399,285.0691 L695.0375,285.0986 L692.7194,285.6095 L690.3456,285.8018 L688.0405,286.3873 L688.0405,286.3873 L688.0661,286.5163 L685.5961,286.0103 L683.1569,285.6599 L680.6198,284.8156 L678.1617,284.3697 L675.7071,283.9416 L675.7071,283.9416 L675.7537,284.1416 L673.5627,283.6845 L671.2455,282.6846 L669.075,282.3154 L666.9071,281.9572 L664.6875,281.3769 L664.6875,281.3769 L664.6718,281.0946 L662.3009,281.4071 L659.9029,281.2298 L657.498,280.9308 L655.1086,280.9099 L652.7093,280.711 L652.7093,280.711 L652.7659,281.0436 L650.3587,280.1726 L648.0811,280.0636 L645.7525,279.6546 L643.413,279.1814 L641.0778,278.733 L641.0778,278.733 L641.0821,278.7981 L638.6809,278.6266 L636.2581,278.127 L633.8647,278.0714 L631.4625,277.8846 L629.0764,277.939 L629.0764,277.939 L629.1056,277.9433 L628.6866,275.0287 L628.2902,272.1174 L627.6528,269.1706 L627.325,266.2694 L626.9258,263.3577 L626.9258,263.3577 L626.8735,263.3387 L626.1079,260.5202 L624.9738,257.5673 L623.5083,254.4935 L622.619,251.6299 L621.582,248.7124 L621.582,248.7124 L621.3201,248.6592 L621.1679,246.0602 L620.7682,243.4108 L620.1944,240.7261 L619.2048,237.9568 L618.8575,235.3181 L618.8575,235.3181 L619.0642,235.3766 L619.333,232.3752 L620.5595,229.6449 L621.1434,226.7327 L622.1263,223.9334 L622.8896,221.072 L622.8896,221.072 L622.9997,221.0883 L623.516,218.3362 L623.3803,215.4875 L624.3379,212.8007 L624.612,210.0127 L624.9406,207.2328 L624.9406,207.2328 L625.0979,207.281 L626.0879,204.6695 L626.5755,201.9042 L627.467,199.2625 L628.3001,196.603 L629.0219,193.9094 " fill="#00000000" style="stroke: #F2FCFE; stroke-width: 1.5625;"/><text fill="#2E2E2E" font-family="Segoe Print" font-size="12.5" font-weight="bold" lengthAdjust="spacingAndGlyphs" textLength="66.6667" x="654.1667" y="215.0208">My Cloud</text><!--MD5=[5435dd1da01795d79a1d1bdb7811705f]
cluster My Database--><path d="M617.7083,304.4596 L617.7083,304.4596 L617.7554,304.5448 L619.7966,303.0873 L622.1136,302.1291 L624.3408,301.0083 L626.2726,299.3528 L628.6133,298.4375 L628.6074,298.402 L630.8165,297.8724 L633.0553,297.5218 L635.3147,297.2955 L637.503,296.6406 L639.7909,296.5861 L639.8156,296.8412 L642.3254,296.0475 L644.9074,295.9985 L647.4981,296.0405 L650.0377,295.5537 L652.6042,295.3451 L652.606,295.3766 L655.166,295.1797 L657.7343,295.1265 L660.2986,295.0039 L662.8707,295.0135 L665.4175,294.5923 L665.4282,294.9028 L667.6639,294.8293 L669.8926,294.5555 L672.1314,294.5748 L674.3708,294.608 L676.5951,294.2057 L676.5901,293.8719 L678.7807,294.4873 L680.955,294.0034 L683.1417,294.3552 L685.3156,293.8464 L687.5,294.043 L687.5,294.043 L687.4995,294.0113 L689.6861,294.4188 L691.8616,294.0855 L694.0437,294.1894 L696.2263,294.3299 L698.4049,294.2057 L698.4116,294.3983 L700.6404,294.2812 L702.8806,294.4932 L705.1023,294.1728 L707.3516,294.6466 L709.5825,294.5923 L709.5974,294.8456 L712.1573,294.9483 L714.7245,295.1767 L717.2574,294.8207 L719.8155,294.8931 L722.3958,295.3451 L722.3681,295.0587 L724.9559,295.5661 L727.5124,295.7509 L730.1142,296.4037 L732.6387,296.2574 L735.2091,296.5861 L735.1832,296.4294 L737.4619,297.0606 L739.6297,297.0221 L741.8764,297.4598 L744.2003,298.3636 L746.3867,298.4375 L746.4842,298.6141 L748.7321,299.9396 L750.6767,300.7159 L753.0011,302.1801 L755.2428,303.4945 L757.2917,304.4596 L755.9794,304.4596 L757.0254,314.7513 L757.6416,325.043 L759.1021,335.3346 L757.28,345.6263 L758.5766,355.918 L755.7534,366.2096 L755.4104,376.5013 L758.6906,386.793 L755.3002,397.0846 L758.7055,407.3763 L757.8656,417.668 L756.5475,427.9596 L756.309,438.2513 L758.566,448.543 L756.4602,458.8346 L758.9357,469.1263 L755.7563,479.418 L759.0067,489.7096 L758.637,500.0013 L757.9721,510.293 L757.4228,520.5846 L759.31,530.8763 L758.996,541.168 L757.7618,551.4596 L757.2917,561.7513 L757.2917,561.7513 L757.3517,561.86 L755.0815,562.9029 L753.09,564.4505 L750.7834,565.4273 L748.6063,566.6389 L746.3867,567.7734 L746.3407,567.4956 L744.1205,567.9586 L741.9558,568.7564 L739.7127,569.0806 L737.4414,569.2349 L735.2091,569.6248 L735.1948,569.4764 L732.6367,569.7722 L730.0532,569.8051 L727.5397,570.5606 L724.9915,570.9585 L722.3958,570.8659 L722.4101,571.1092 L719.852,571.3376 L717.2668,571.1038 L714.7102,571.3579 L712.1347,571.289 L709.5825,571.6187 L709.5871,571.7501 L707.351,571.8101 L705.1203,572.0289 L702.8723,571.7443 L700.6383,571.8657 L698.4049,572.0052 L698.408,572.2105 L696.2279,572.3004 L694.0394,571.8331 L691.8606,572.0131 L689.682,572.2045 L687.5,572.168 L687.5,572.168 L687.4958,571.8852 L685.3215,572.299 L683.1398,572.2223 L680.9563,572.0237 L678.777,572.1036 L676.5951,572.0052 L676.6067,572.3424 L674.3545,571.7831 L672.1291,571.9963 L669.8931,571.9054 L667.6548,571.7495 L665.4175,571.6187 L665.4213,571.6838 L662.8579,571.5205 L660.2752,571.0291 L657.7186,570.9817 L655.1543,570.8031 L652.6042,570.8659 L652.607,570.8953 L650.0454,570.6583 L647.4861,570.444 L644.9032,569.9872 L642.3505,569.8419 L639.7909,569.6248 L639.7818,569.5699 L637.599,569.518 L635.3521,569.0791 L633.0476,568.2922 L630.8433,568.1104 L628.6133,567.7734 L628.4841,567.5395 L626.4968,566.6859 L624.3875,565.6112 L622.1922,564.3809 L619.7918,562.7792 L617.7083,561.7513 L618.9971,561.7513 L615.645,551.4596 L618.2643,541.168 L616.8769,530.8763 L617.977,520.5846 L618.3759,510.293 L619.0197,500.0013 L615.7086,489.7096 L619.0291,479.418 L618.2033,469.1263 L618.6954,458.8346 L619.7856,448.543 L617.7236,438.2513 L618.1952,427.9596 L618.3012,417.668 L618.2562,407.3763 L617.7061,397.0846 L619.6825,386.793 L616.0146,376.5013 L619.2786,366.2096 L615.975,355.918 L616.2075,345.6263 L617.8195,335.3346 L617.7869,325.043 L616.3394,314.7513 L617.7083,304.4596 " fill="#00000000" style="stroke: #333333; stroke-width: 1.5625;"/><path d="M617.7083,304.4596 L617.7083,304.4596 L617.7554,304.5448 L619.7966,305.4962 L622.1136,306.9468 L624.3408,308.2349 L626.2726,308.9882 L628.6133,310.4818 L628.6074,310.4463 L630.8165,310.6573 L633.0553,311.0472 L635.3147,311.5615 L637.503,311.6471 L639.7909,312.3332 L639.8156,312.5883 L642.3254,312.2909 L644.9074,312.7385 L647.4981,313.2768 L650.0377,313.2865 L652.6042,313.5742 L652.606,313.6058 L655.166,313.71 L657.7343,313.9578 L660.2986,314.1364 L662.8707,314.4471 L665.4175,314.327 L665.4282,314.6375 L667.6639,314.7186 L669.8926,314.5994 L672.1314,314.7734 L674.3708,314.9611 L676.5951,314.7135 L676.5901,314.3797 L678.7807,315.0602 L680.955,314.6414 L683.1417,315.0583 L685.3156,314.6146 L687.5,314.8763 L687.5,314.8763 L687.4995,314.8446 L689.6861,315.187 L691.8616,314.7886 L694.0437,314.8274 L696.2263,314.9028 L698.4049,314.7135 L698.4116,314.9061 L700.6404,314.6344 L702.8806,314.6918 L705.1023,314.2168 L707.3516,314.5359 L709.5825,314.327 L709.5974,314.5803 L712.1573,314.3819 L714.7245,314.3092 L717.2574,313.6521 L719.8155,313.4234 L722.3958,313.5742 L722.3681,313.2879 L724.9559,313.2989 L727.5124,312.9872 L730.1142,313.1436 L732.6387,312.5009 L735.2091,312.3332 L735.1832,312.1765 L737.4619,312.0671 L739.6297,311.288 L741.8764,310.9852 L744.2003,311.1485 L746.3867,310.4818 L746.4842,310.6583 L748.7321,309.575 L750.6767,307.9425 L753.0011,306.9979 L755.2428,305.9033 L757.2917,304.4596 " fill="none" style="stroke: #333333; stroke-width: 1.5625;"/><text fill="#2E2E2E" font-family="Segoe Print" font-size="12.5" font-weight="bold" lengthAdjust="spacingAndGlyphs" textLength="96.875" x="639.0625" y="333.7708">My Database</text><!--MD5=[db3eb734e65e00defc1adec42c70b029]
cluster My folder--><path d="M630.2083,345.0846 L707.2917,345.0846 A6.25,6.25 0 0 1 711.4583,349.2513 L718.75,376.3021 L744.7917,376.3021 A4.1667,4.1667 0 0 1 748.9583,380.4688 L748.9583,440.918 A4.1667,4.1667 0 0 1 744.7917,445.0846 L630.2083,445.0846 A4.1667,4.1667 0 0 1 626.0417,440.918 L626.0417,349.2513 A4.1667,4.1667 0 0 1 630.2083,345.0846 " fill="#00000000" style="stroke: #FFC107; stroke-width: 1.5625;"/><path d="M626.0417,376.3021 L626.0417,376.594 L636.3426,375.7266 L646.6435,376.5705 L656.9444,376.8572 L667.2454,375.3113 L677.5463,376.1941 L687.8472,375.7097 L698.1481,375.7694 L708.4491,376.2074 L718.75,376.3021 " fill="#00000000" style="stroke: #FFC107; stroke-width: 1.5625;"/><text fill="#FFC107" font-family="Segoe Print" font-size="12.5" font-weight="bold" lengthAdjust="spacingAndGlyphs" textLength="68.75" x="635.4167" y="363.9791">My folder</text><!--MD5=[2f95c9c104e26437854e71862f3d840e]
cluster My Frame--><polygon fill="#00000000" points="630.2083,463.8346,630.2083,464.0536,640.625,463.4031,651.0417,464.036,661.4583,464.251,671.875,463.0915,682.2917,463.7537,692.7083,463.3904,703.125,463.4352,713.5417,463.7636,723.9583,463.1145,734.375,464.4113,744.7917,463.8346,744.7079,463.6324,745.3546,464.0153,746.0276,464.4614,746.548,464.5394,747.1578,464.8328,747.7379,465.055,747.7277,465.0508,748.0393,465.668,748.3028,466.2653,748.6581,466.9006,748.9295,467.5012,748.9583,468.0013,749.6659,468.0013,749.2236,478.1865,749.4412,488.3717,749.6898,498.5569,748.2071,508.742,749.6651,518.9272,748.6495,529.1124,749.5144,539.2976,748.4427,549.4828,748.9583,559.668,748.9364,559.6589,748.9522,560.3558,748.4545,560.84,748.2599,561.4497,748.0907,562.07,747.7379,562.6142,747.7933,562.7478,747.1482,562.8571,746.5976,563.1945,745.8941,563.1629,745.4187,563.6818,744.7917,563.8346,744.7917,564.4057,734.375,564.2977,723.9583,564.4732,713.5417,563.3314,703.125,563.1553,692.7083,563.1873,682.2917,563.7733,671.875,563.6299,661.4583,564.5444,651.0417,563.6527,640.625,563.4773,630.2083,563.8346,630.2387,563.9079,629.5305,563.3766,628.9608,563.1799,628.5268,563.3106,627.9092,562.9981,627.2621,562.6142,627.4977,562.7118,626.9147,561.9822,626.8763,561.4781,626.7192,560.9249,626.1342,560.1945,626.0417,559.668,625.9418,559.668,626.1729,549.4828,626.7206,539.2976,626.0373,529.1124,626.5235,518.9272,625.4648,508.742,625.3362,498.5569,626.5663,488.3717,625.2949,478.1865,626.0417,468.0013,626.2049,468.0689,626.352,467.4395,626.4439,466.7872,626.6604,466.1865,627.1651,465.7052,627.2621,465.055,627.2223,464.959,627.93,465.0008,628.3671,464.3896,629.1119,464.5209,629.6834,464.2341,630.2083,463.8346" style="stroke: #17A2B8; stroke-width: 1.5625;"/><path d="M717.7083,463.8346 L717.9029,463.8346 L717.3247,467.3698 L717.8873,470.9049 L718.0784,474.4401 L717.0478,477.9753 L717.7083,481.5104 L717.6575,481.4595 L715.3458,483.3145 L713.2906,485.426 L711.4137,487.7158 L708.9223,489.3911 L707.2917,491.9271 L707.2917,493.465 L697.1354,490.1763 L686.9792,491.3777 L676.8229,493.1269 L666.6667,491.6888 L656.5104,492.1166 L646.3542,491.8383 L636.1979,492.423 L626.0417,491.9271 " fill="none" style="stroke: #17A2B8; stroke-width: 1.5625;"/><text fill="#17A2B8" font-family="Segoe Print" font-size="12.5" font-weight="bold" lengthAdjust="spacingAndGlyphs" textLength="70.8333" x="634.375" y="481.6874">My Frame</text><!--MD5=[96f7e1299d4a43069e6ed32352fcac20]
entity HTTP--><polygon fill="#00000000" points="543.796,122.1116,542.5745,123.7807,541.1297,126.2253,539.0633,127.8728,536.892,128.7737,535.1606,128.8519,532.9354,127.7252,530.8357,126.9891,529.2421,125.4946,528.4061,123.7837,527.9104,122.4214,527.4247,120.642,526.6364,119.1108,527.2421,117.6157,527.7729,115.978,529.7646,114.6827,531.1659,113.0021,532.9003,112.4441,534.9622,111.9635,537.6064,112.249,539.0546,112.932,540.7384,113.2416,542.7857,115.3392,543.4994,117.5535,543.8095,119.0644,543.4583,121.5542" style="stroke: #DC3545; stroke-width: 2.0833333333333335;"/><text fill="#555555" font-family="Segoe Print" font-size="12.5" lengthAdjust="spacingAndGlyphs" textLength="32.2917" x="519.2708" y="154.6041">HTTP</text><!--MD5=[cbd7cda55f2530e2efe43ec72c097853]
entity First Component--><polygon fill="#00000000" points="333.8542,91.9596,333.8542,92.1786,343.9236,91.5281,353.9931,92.161,364.0625,92.376,374.1319,91.2165,384.2014,91.8787,394.2708,91.5154,404.3403,91.5602,414.4097,91.8886,424.4792,91.2395,434.5486,92.5363,444.6181,91.3031,454.6875,91.7536,464.7569,92.4096,474.8264,91.8703,484.8958,91.9596,484.9049,91.9815,485.4808,92.1935,486.0981,92.5051,486.6954,92.7686,487.3307,93.1238,487.8421,93.18,488.0574,93.2692,488.3041,93.8595,488.4119,94.3924,488.7231,95.0094,489.0437,95.6304,489.0625,96.1263,488.3113,96.1263,489.7693,105.7031,488.7536,115.2799,489.6186,124.8568,488.5469,134.4336,489.0625,144.0104,489.0405,144.0013,489.0563,144.6982,488.5587,145.1825,488.364,145.7922,488.1948,146.4124,487.8421,146.9567,487.8974,147.0902,487.2523,147.1995,486.7018,147.537,485.9983,147.5053,485.5229,148.0242,484.8958,148.1771,484.8958,148.7481,474.8264,148.6401,464.7569,148.8157,454.6875,147.6739,444.6181,147.4977,434.5486,147.5298,424.4792,148.1157,414.4097,147.9724,404.3403,148.8869,394.2708,147.9951,384.2014,147.8197,374.1319,148.4149,364.0625,147.4825,353.9931,147.6363,343.9236,148.8531,333.8542,148.1771,333.9121,148.3168,333.3625,148.1686,332.6329,147.5857,332.1288,147.5472,331.5756,147.3902,330.9079,146.9567,330.7563,146.8939,330.6331,146.3547,330.4601,145.7949,330.3847,145.2755,329.9302,144.5991,329.6875,144.0104,330.1693,144.0104,329.1106,134.4336,328.982,124.8568,330.2121,115.2799,328.9407,105.7031,329.6875,96.1263,329.8508,96.1939,329.9979,95.5645,330.0897,94.9122,330.3062,94.3115,330.811,93.8302,330.9079,93.18,330.8681,93.084,331.5758,93.1258,332.013,92.5146,332.7577,92.6459,333.3293,92.3591,333.8542,91.9596" style="stroke: #333333; stroke-width: 1.5625;"/><polygon fill="#00000000" points="468.2292,97.168,468.2292,97.2409,471.3542,97.0241,474.4792,97.2351,477.6042,97.3067,480.7292,96.9203,483.8542,97.168,483.8272,97.168,483.7061,99.2513,483.721,101.3346,483.8305,103.418,483.6141,105.5013,483.8542,107.5846,483.8542,107.7769,480.7292,107.3658,477.6042,107.516,474.4792,107.7346,471.3542,107.5549,468.2292,107.5846,468.2529,107.5846,468.2181,105.5013,468.2912,103.418,468.3122,101.3346,468.4325,99.2513,468.2292,97.168" style="stroke: #333333; stroke-width: 1.5625;"/><polygon fill="#00000000" points="466.1458,99.2513,466.1458,99.3243,466.9792,99.1074,467.8125,99.3184,468.6458,99.3901,469.4792,99.0036,470.3125,99.2513,470.2855,99.2513,470.1644,99.668,470.1793,100.0846,470.2888,100.5013,470.0724,100.918,470.3125,101.3346,470.3125,101.5269,469.4792,101.1158,468.6458,101.266,467.8125,101.4846,466.9792,101.3049,466.1458,101.3346,466.1695,101.3346,466.1347,100.918,466.2078,100.5013,466.2289,100.0846,466.3492,99.668,466.1458,99.2513" style="stroke: #333333; stroke-width: 1.5625;"/><polygon fill="#00000000" points="466.1458,103.418,466.1458,103.4909,466.9792,103.2741,467.8125,103.4851,468.6458,103.5567,469.4792,103.1703,470.3125,103.418,470.2855,103.418,470.1644,103.8346,470.1793,104.2513,470.2888,104.668,470.0724,105.0846,470.3125,105.5013,470.3125,105.6935,469.4792,105.2825,468.6458,105.4326,467.8125,105.6513,466.9792,105.4715,466.1458,105.5013,466.1695,105.5013,466.1347,105.0846,466.2078,104.668,466.2289,104.2513,466.3492,103.8346,466.1458,103.418" style="stroke: #333333; stroke-width: 1.5625;"/><text fill="#2E2E2E" font-family="Segoe Print" font-size="12.5" lengthAdjust="spacingAndGlyphs" textLength="107.2917" x="350.5208" y="129.6041">First Component</text><!--MD5=[b9d11f23832c1491231c5b33e55ab8c6]
entity Another Component--><polygon fill="#00000000" points="585.4167,91.9596,585.4167,92.1786,595.7108,91.5281,606.0049,92.161,616.299,92.376,626.5931,91.2165,636.8873,91.8787,647.1814,91.5154,657.4755,91.5602,667.7696,91.8886,678.0637,91.2395,688.3578,92.5363,698.652,91.3031,708.9461,91.7536,719.2402,92.4096,729.5343,91.8703,739.8284,92.0307,750.1225,91.9264,760.4167,91.9596,760.4404,92.0169,761.0377,92.2804,761.673,92.6357,762.2736,92.9071,762.8639,93.1538,763.3629,93.18,763.4446,93.2139,763.7557,93.8309,764.0764,94.4518,763.8638,94.852,764.5569,95.6272,764.5833,96.1263,764.2745,96.1263,765.1394,105.7031,764.0677,115.2799,764.512,124.8568,765.3558,134.4336,764.5833,144.0104,764.5677,144.0039,764.373,144.6137,764.2038,145.2339,763.9846,145.8335,763.6058,146.3669,763.3629,146.9567,763.4011,147.0488,762.6976,147.0171,762.2222,147.5361,761.668,147.8648,761.065,148.0756,760.4167,148.1771,760.4167,148.8157,750.1225,147.6739,739.8284,147.4977,729.5343,147.5298,719.2402,148.1157,708.9461,147.9724,698.652,148.8869,688.3578,147.9951,678.0637,147.8197,667.7696,148.4149,657.4755,147.4825,647.1814,147.6363,636.8873,148.8531,626.5931,148.6309,616.299,148.9422,606.0049,147.8419,595.7108,148.5096,585.4167,148.1771,585.4951,148.3665,584.7646,147.7815,584.2254,147.6582,583.6656,147.4853,583.1462,147.4099,582.4704,146.9567,582.469,146.9561,582.3747,146.4289,581.8046,145.7046,581.5209,145.0989,581.6556,144.6666,581.25,144.0104,580.5032,144.0104,581.7802,134.4336,581.4652,124.8568,580.9709,115.2799,580.8815,105.7031,581.25,96.1263,581.3972,96.1873,581.3981,95.4973,581.928,95.0264,581.8049,94.2851,582.4244,93.8513,582.4704,93.18,582.5347,93.3354,583.0922,93.0145,583.6552,92.707,584.3347,92.6809,584.9089,92.4005,585.4167,91.9596" style="stroke: #333333; stroke-width: 1.5625;"/><polygon fill="#00000000" points="743.75,97.168,743.75,97.2409,746.875,97.0241,750,97.2351,753.125,97.3067,756.25,96.9203,759.375,97.168,759.348,97.168,759.2269,99.2513,759.2418,101.3346,759.3513,103.418,759.1349,105.5013,759.375,107.5846,759.375,107.7769,756.25,107.3658,753.125,107.516,750,107.7346,746.875,107.5549,743.75,107.5846,743.7737,107.5846,743.7389,105.5013,743.812,103.418,743.833,101.3346,743.9534,99.2513,743.75,97.168" style="stroke: #333333; stroke-width: 1.5625;"/><polygon fill="#00000000" points="741.6667,99.2513,741.6667,99.3243,742.5,99.1074,743.3333,99.3184,744.1667,99.3901,745,99.0036,745.8333,99.2513,745.8063,99.2513,745.6852,99.668,745.7002,100.0846,745.8097,100.5013,745.5933,100.918,745.8333,101.3346,745.8333,101.5269,745,101.1158,744.1667,101.266,743.3333,101.4846,742.5,101.3049,741.6667,101.3346,741.6904,101.3346,741.6556,100.918,741.7287,100.5013,741.7497,100.0846,741.87,99.668,741.6667,99.2513" style="stroke: #333333; stroke-width: 1.5625;"/><polygon fill="#00000000" points="741.6667,103.418,741.6667,103.4909,742.5,103.2741,743.3333,103.4851,744.1667,103.5567,745,103.1703,745.8333,103.418,745.8063,103.418,745.6852,103.8346,745.7002,104.2513,745.8097,104.668,745.5933,105.0846,745.8333,105.5013,745.8333,105.6935,745,105.2825,744.1667,105.4326,743.3333,105.6513,742.5,105.4715,741.6667,105.5013,741.6904,105.5013,741.6556,105.0846,741.7287,104.668,741.7497,104.2513,741.87,103.8346,741.6667,103.418" style="stroke: #333333; stroke-width: 1.5625;"/><text fill="#2E2E2E" font-family="Segoe Print" font-size="12.5" lengthAdjust="spacingAndGlyphs" textLength="131.25" x="602.0833" y="129.6041">Another Component</text><!--MD5=[aa625683a8c1a6d60f4cb888c4297339]
entity MyRectangle1--><polygon fill="#00000000" points="175.5208,97.168,175.5208,97.3869,185.8428,96.7364,196.1648,97.3693,206.4867,97.5843,216.8087,96.4248,227.1307,97.087,237.4527,96.7237,247.7746,96.7685,258.0966,97.097,268.4186,96.4478,278.7405,97.7447,289.0625,97.168,288.9788,96.9658,289.6255,97.3486,290.2984,97.7947,290.8189,97.8727,291.4286,98.1662,292.0088,98.3884,291.9985,98.3841,292.3101,99.0013,292.5736,99.5986,292.9289,100.2339,293.2004,100.8345,293.2292,101.3346,293.465,101.3346,293.3176,108.8281,293.3901,116.3216,293.473,123.8151,292.9788,131.3086,293.2292,138.8021,293.4468,138.8922,292.89,139.3519,292.9123,140.0515,292.3381,140.5041,292.2309,141.15,292.0088,141.7484,292.1073,141.9863,291.413,141.9768,290.8443,142.2703,290.286,142.5892,289.7071,142.8582,289.0625,142.9688,289.0625,142.9647,278.7405,143.2679,268.4186,142.3725,258.0966,143.265,247.7746,143.5398,237.4527,143.4318,227.1307,143.6073,216.8087,142.4655,206.4867,142.2894,196.1648,142.3215,185.8428,142.9074,175.5208,142.9688,175.4947,142.9057,175.0221,142.9433,174.3191,142.4246,173.7075,142.1265,173.1941,142.0657,172.5746,141.7484,172.3606,141.6598,172.1639,141.0901,172.2946,140.6561,171.9821,140.0385,171.8339,139.4889,171.3542,138.8021,171.2424,138.8021,171.465,131.3086,171.5592,123.8151,171.1901,116.3216,171.3209,108.8281,171.3542,101.3346,171.3946,101.3514,171.8073,100.832,171.841,100.1556,172.2348,99.6283,172.1528,98.904,172.5746,98.3884,172.4846,98.1711,173.2307,98.3058,173.6578,97.6702,174.41,97.8194,174.959,97.4783,175.5208,97.168" style="stroke: #333333; stroke-width: 2.0833333333333335;"/><text fill="#2E2E2E" font-family="Segoe Print" font-size="12.5" lengthAdjust="spacingAndGlyphs" textLength="90.625" x="186.9792" y="124.3958">MyRectangle1</text><!--MD5=[deed3d4321eb4f26fdbc8b688b847966]
entity MyCollection1--><polygon fill="#00000000" points="23.4375,101.3346,23.4375,101.5536,34.1667,100.9031,44.8958,101.536,55.625,101.751,66.3542,100.5915,77.0833,101.2537,87.8125,100.8904,98.5417,100.9352,109.2708,101.2636,120,100.6145,130.7292,101.3346,130.8027,101.5122,131.2347,101.3765,131.8814,101.7593,132.5543,102.2054,133.0748,102.2834,133.6754,102.555,133.6973,102.5641,133.9093,103.14,134.2209,103.7573,134.4844,104.3546,134.8396,104.9899,134.8958,105.5013,135.1288,105.5013,135.1317,112.1615,134.9842,118.8216,135.0568,125.4818,135.1397,132.1419,134.8958,138.8021,134.6645,138.7063,134.8694,139.4815,134.3126,139.9412,134.3348,140.6408,133.7607,141.0933,133.6754,141.7484,133.6663,141.7264,133.1847,142.2303,132.4905,142.2209,131.9217,142.5144,131.3634,142.8333,130.7292,142.9688,130.7292,143.4023,120,142.9647,109.2708,143.2679,98.5417,142.3725,87.8125,143.265,77.0833,143.5398,66.3542,143.4318,55.625,143.6073,44.8958,142.4655,34.1667,142.2894,23.4375,142.9688,23.3549,142.7694,22.8404,142.7058,22.2329,142.4175,21.7603,142.4551,21.0573,141.9364,20.4912,141.7484,20.3812,141.7028,20.3204,141.1894,19.7892,140.4812,19.5925,139.9116,19.7231,139.4776,19.2708,138.8021,19.4221,138.8021,19.5259,132.1419,19.1591,125.4818,19.3817,118.8216,19.4758,112.1615,19.2708,105.5013,19.1193,105.4385,19.4842,104.8993,19.7994,104.3395,20.2121,103.8201,20.2458,103.1437,20.4912,102.555,20.5527,102.7034,21.0069,102.1333,21.5797,101.8496,22.3259,101.9843,22.753,101.3487,23.4375,101.3346" style="stroke: #333333; stroke-width: 2.0833333333333335;"/><polygon fill="#00000000" points="19.2708,97.168,19.2708,97.3869,30,96.7364,40.7292,97.3693,51.4583,97.5843,62.1875,96.4248,72.9167,97.087,83.6458,96.7237,94.375,96.7685,105.1042,97.097,115.8333,96.4478,126.5625,97.168,126.6361,97.3456,127.068,97.2099,127.7147,97.5927,128.3877,98.0388,128.9081,98.1168,129.5088,98.3884,129.5307,98.3974,129.7426,98.9734,130.0542,99.5906,130.3177,100.1879,130.673,100.8232,130.7292,101.3346,130.9622,101.3346,130.965,107.9948,130.8176,114.6549,130.8901,121.3151,130.973,127.9753,130.7292,134.6354,130.4978,134.5396,130.7027,135.3148,130.1459,135.7745,130.1682,136.4741,129.5941,136.9267,129.5088,137.5817,129.4997,137.5597,129.0181,138.0637,128.3238,138.0542,127.755,138.3477,127.1968,138.6666,126.5625,138.8021,126.5625,139.2357,115.8333,138.798,105.1042,139.1013,94.375,138.2058,83.6458,139.0983,72.9167,139.3731,62.1875,139.2651,51.4583,139.4407,40.7292,138.2989,30,138.1227,19.2708,138.8021,19.1883,138.6027,18.6738,138.5391,18.0662,138.2509,17.5936,138.2884,16.8906,137.7697,16.3246,137.5817,16.2145,137.5361,16.1537,137.0228,15.6225,136.3146,15.4258,135.7449,15.5564,135.3109,15.1042,134.6354,15.2554,134.6354,15.3592,127.9753,14.9924,121.3151,15.215,114.6549,15.3092,107.9948,15.1042,101.3346,14.9526,101.2719,15.3175,100.7326,15.6327,100.1729,16.0455,99.6535,16.0791,98.9771,16.3246,98.3884,16.386,98.5367,16.8402,97.9666,17.4131,97.6829,18.1592,97.8177,18.5863,97.1821,19.2708,97.168" style="stroke: #333333; stroke-width: 2.0833333333333335;"/><text fill="#2E2E2E" font-family="Segoe Print" font-size="12.5" lengthAdjust="spacingAndGlyphs" textLength="88.5417" x="28.6458" y="122.3124">MyCollection1</text><!--MD5=[76af18d92d7d7c0f7ebd8f4f605ac5aa]
entity FTP--><polygon fill="#00000000" points="372.9627,250.2366,371.7412,251.9057,370.2964,254.3503,368.23,255.9978,366.0586,256.8987,364.3273,256.9769,362.102,255.8502,360.0024,255.1141,358.4087,253.6196,357.5728,251.9087,357.077,250.5464,356.5913,248.767,355.803,247.2358,356.4088,245.7407,356.9395,244.103,358.9313,242.8077,360.3325,241.1271,362.067,240.5691,364.1289,240.0885,366.773,240.374,368.2213,241.057,369.9051,241.3666,371.9524,243.4642,372.6661,245.6785,372.9762,247.1894,372.625,249.6792" style="stroke: #DC3545; stroke-width: 2.0833333333333335;"/><text fill="#555555" font-family="Segoe Print" font-size="12.5" lengthAdjust="spacingAndGlyphs" textLength="22.9167" x="353.125" y="282.7291">FTP</text><!--MD5=[0e2cc1aee2c7f52697e111b4fb84546c]
entity Second Component--><polygon fill="#00000000" points="415.1042,220.0846,415.1042,220.3036,425.2145,219.6531,435.3248,220.286,445.435,220.501,455.5453,219.3415,465.6556,220.0037,475.7659,219.6404,485.8762,219.6852,495.9865,220.0136,506.0968,219.3645,516.2071,220.6613,526.3174,219.4281,536.4277,219.8786,546.538,220.5346,556.6483,219.9953,566.7586,220.1557,576.8689,220.0514,586.9792,220.0846,587.0029,220.1419,587.6002,220.4054,588.2355,220.7607,588.8361,221.0321,589.4264,221.2788,589.9254,221.305,590.0071,221.3389,590.3182,221.9559,590.6389,222.5768,590.4263,222.977,591.1194,223.7522,591.1458,224.2513,590.837,224.2513,591.7019,233.8281,590.6302,243.4049,591.0745,252.9818,591.9183,262.5586,591.1458,272.1354,591.1302,272.1289,590.9355,272.7387,590.7663,273.3589,590.5471,273.9585,590.1683,274.4919,589.9254,275.0817,589.9636,275.1738,589.2601,275.1421,588.7847,275.6611,588.2305,275.9898,587.6275,276.2006,586.9792,276.3021,586.9792,276.9407,576.8689,275.7989,566.7586,275.6227,556.6483,275.6548,546.538,276.2407,536.4277,276.0974,526.3174,277.0119,516.2071,276.1201,506.0968,275.9447,495.9865,276.5399,485.8762,275.6075,475.7659,275.7613,465.6556,276.9781,455.5453,276.7559,445.435,277.0672,435.3248,275.9669,425.2145,276.6346,415.1042,276.3021,415.1826,276.4915,414.4521,275.9065,413.9129,275.7832,413.3531,275.6103,412.8337,275.5349,412.1579,275.0817,412.1565,275.0811,412.0622,274.5539,411.4921,273.8296,411.2084,273.2239,411.3431,272.7916,410.9375,272.1354,410.1907,272.1354,411.4677,262.5586,411.1527,252.9818,410.6584,243.4049,410.569,233.8281,410.9375,224.2513,411.0847,224.3123,411.0856,223.6223,411.6155,223.1514,411.4924,222.4101,412.1119,221.9763,412.1579,221.305,412.2222,221.4604,412.7797,221.1395,413.3427,220.832,414.0222,220.8059,414.5964,220.5255,415.1042,220.0846" style="stroke: #333333; stroke-width: 1.5625;"/><polygon fill="#00000000" points="570.3125,225.293,570.3125,225.3659,573.4375,225.1491,576.5625,225.3601,579.6875,225.4317,582.8125,225.0453,585.9375,225.293,585.9105,225.293,585.7894,227.3763,585.8043,229.4596,585.9138,231.543,585.6974,233.6263,585.9375,235.7096,585.9375,235.9019,582.8125,235.4908,579.6875,235.641,576.5625,235.8596,573.4375,235.6799,570.3125,235.7096,570.3362,235.7096,570.3014,233.6263,570.3745,231.543,570.3955,229.4596,570.5159,227.3763,570.3125,225.293" style="stroke: #333333; stroke-width: 1.5625;"/><polygon fill="#00000000" points="568.2292,227.3763,568.2292,227.4493,569.0625,227.2324,569.8958,227.4434,570.7292,227.5151,571.5625,227.1286,572.3958,227.3763,572.3688,227.3763,572.2477,227.793,572.2627,228.2096,572.3722,228.6263,572.1558,229.043,572.3958,229.4596,572.3958,229.6519,571.5625,229.2408,570.7292,229.391,569.8958,229.6096,569.0625,229.4299,568.2292,229.4596,568.2529,229.4596,568.2181,229.043,568.2912,228.6263,568.3122,228.2096,568.4325,227.793,568.2292,227.3763" style="stroke: #333333; stroke-width: 1.5625;"/><polygon fill="#00000000" points="568.2292,231.543,568.2292,231.6159,569.0625,231.3991,569.8958,231.6101,570.7292,231.6817,571.5625,231.2953,572.3958,231.543,572.3688,231.543,572.2477,231.9596,572.2627,232.3763,572.3722,232.793,572.1558,233.2096,572.3958,233.6263,572.3958,233.8185,571.5625,233.4075,570.7292,233.5576,569.8958,233.7763,569.0625,233.5965,568.2292,233.6263,568.2529,233.6263,568.2181,233.2096,568.2912,232.793,568.3122,232.3763,568.4325,231.9596,568.2292,231.543" style="stroke: #333333; stroke-width: 1.5625;"/><text fill="#2E2E2E" font-family="Segoe Print" font-size="12.5" lengthAdjust="spacingAndGlyphs" textLength="128.125" x="431.7708" y="257.7291">Second Component</text><!--MD5=[b8d85f5d3810694767e38854f60c8b6e]
entity MyRectangle2--><polygon fill="#00000000" points="200.5208,225.293,200.5208,225.5119,210.8428,224.8614,221.1648,225.4943,231.4867,225.7093,241.8087,224.5498,252.1307,225.212,262.4527,224.8487,272.7746,224.8935,283.0966,225.222,293.4186,224.5728,303.7405,225.8697,314.0625,225.293,313.9788,225.0908,314.6255,225.4736,315.2984,225.9197,315.8189,225.9977,316.4286,226.2912,317.0088,226.5134,316.9985,226.5091,317.3101,227.1263,317.5736,227.7236,317.9289,228.3589,318.2004,228.9595,318.2292,229.4596,318.465,229.4596,318.3176,236.9531,318.3901,244.4466,318.473,251.9401,317.9788,259.4336,318.2292,266.9271,318.4468,267.0172,317.89,267.4769,317.9123,268.1765,317.3381,268.6291,317.2309,269.275,317.0088,269.8734,317.1073,270.1113,316.413,270.1018,315.8443,270.3953,315.286,270.7142,314.7071,270.9832,314.0625,271.0938,314.0625,271.0897,303.7405,271.3929,293.4186,270.4975,283.0966,271.39,272.7746,271.6648,262.4527,271.5568,252.1307,271.7323,241.8087,270.5905,231.4867,270.4144,221.1648,270.4465,210.8428,271.0324,200.5208,271.0938,200.4947,271.0307,200.0221,271.0683,199.3191,270.5496,198.7075,270.2515,198.1941,270.1907,197.5746,269.8734,197.3606,269.7848,197.1639,269.2151,197.2946,268.7811,196.9821,268.1635,196.8339,267.6139,196.3542,266.9271,196.2424,266.9271,196.465,259.4336,196.5592,251.9401,196.1901,244.4466,196.3209,236.9531,196.3542,229.4596,196.3946,229.4764,196.8073,228.957,196.841,228.2806,197.2348,227.7533,197.1528,227.029,197.5746,226.5134,197.4846,226.2961,198.2307,226.4308,198.6578,225.7952,199.41,225.9444,199.959,225.6033,200.5208,225.293" style="stroke: #333333; stroke-width: 2.0833333333333335;"/><text fill="#2E2E2E" font-family="Segoe Print" font-size="12.5" lengthAdjust="spacingAndGlyphs" textLength="90.625" x="211.9792" y="252.5208">MyRectangle2</text><!--MD5=[243c1e580c31013c48b02624e18b25a7]
entity Example 1--><polygon fill="#00000000" points="632.2917,220.0846,632.2917,220.3036,642.3295,219.6531,652.3674,220.286,662.4053,220.501,672.4432,219.3415,682.4811,220.0037,692.5189,219.6404,702.5568,219.6852,712.5947,220.0136,722.6326,219.3645,732.6705,220.6613,742.7083,220.0846,742.6246,219.8824,743.2713,220.2653,743.9442,220.7114,744.4647,220.7894,745.0744,221.0828,745.6546,221.305,745.6444,221.3008,745.956,221.918,746.2195,222.5153,746.5747,223.1506,746.8462,223.7512,746.875,224.2513,747.5826,224.2513,747.1402,233.8281,747.3579,243.4049,747.6065,252.9818,746.1238,262.5586,746.875,272.1354,747.0927,272.2256,746.5358,272.6853,746.5581,273.3849,745.984,273.8374,745.8767,274.4833,745.6546,275.0817,745.7532,275.3196,745.0589,275.3101,744.4901,275.6036,743.9318,275.9226,743.3529,276.1915,742.7083,276.3021,742.7083,276.298,732.6705,276.6013,722.6326,275.7058,712.5947,276.5983,702.5568,276.8731,692.5189,276.7651,682.4811,276.9407,672.4432,275.7989,662.4053,275.6227,652.3674,275.6548,642.3295,276.2407,632.2917,276.3021,632.2656,276.239,631.793,276.2766,631.0899,275.7579,630.4783,275.4598,629.965,275.399,629.3454,275.0817,629.1315,274.9931,628.9348,274.4235,629.0654,273.9894,628.7529,273.3718,628.6047,272.8223,628.125,272.1354,627.7898,272.1354,628.4575,262.5586,628.74,252.9818,627.6329,243.4049,628.0251,233.8281,628.125,224.2513,628.1654,224.268,628.5782,223.7486,628.6118,223.0722,629.0056,222.545,628.9237,221.8207,629.3454,221.305,629.2554,221.0878,630.0016,221.2225,630.4286,220.5869,631.1808,220.7361,631.7299,220.395,632.2917,220.0846" style="stroke: #333333; stroke-width: 1.5625;"/><polygon fill="#00000000" points="726.0417,225.293,726.0417,225.3659,729.1667,225.1491,732.2917,225.3601,735.4167,225.4317,738.5417,225.0453,741.6667,225.293,741.6397,225.293,741.5186,227.3763,741.5335,229.4596,741.643,231.543,741.4266,233.6263,741.6667,235.7096,741.6667,235.9019,738.5417,235.4908,735.4167,235.641,732.2917,235.8596,729.1667,235.6799,726.0417,235.7096,726.0654,235.7096,726.0306,233.6263,726.1037,231.543,726.1247,229.4596,726.245,227.3763,726.0417,225.293" style="stroke: #333333; stroke-width: 1.5625;"/><polygon fill="#00000000" points="723.9583,227.3763,723.9583,227.4493,724.7917,227.2324,725.625,227.4434,726.4583,227.5151,727.2917,227.1286,728.125,227.3763,728.098,227.3763,727.9769,227.793,727.9918,228.2096,728.1013,228.6263,727.8849,229.043,728.125,229.4596,728.125,229.6519,727.2917,229.2408,726.4583,229.391,725.625,229.6096,724.7917,229.4299,723.9583,229.4596,723.982,229.4596,723.9472,229.043,724.0203,228.6263,724.0414,228.2096,724.1617,227.793,723.9583,227.3763" style="stroke: #333333; stroke-width: 1.5625;"/><polygon fill="#00000000" points="723.9583,231.543,723.9583,231.6159,724.7917,231.3991,725.625,231.6101,726.4583,231.6817,727.2917,231.2953,728.125,231.543,728.098,231.543,727.9769,231.9596,727.9918,232.3763,728.1013,232.793,727.8849,233.2096,728.125,233.6263,728.125,233.8185,727.2917,233.4075,726.4583,233.5576,725.625,233.7763,724.7917,233.5965,723.9583,233.6263,723.982,233.6263,723.9472,233.2096,724.0203,232.793,724.0414,232.3763,724.1617,231.9596,723.9583,231.543" style="stroke: #333333; stroke-width: 1.5625;"/><text fill="#2E2E2E" font-family="Segoe Print" font-size="12.5" lengthAdjust="spacingAndGlyphs" textLength="66.6667" x="648.9583" y="257.7291">Example 1</text><!--MD5=[3e0e08c92570480402984701ab5a6d2d]
entity Folder 3--><polygon fill="#00000000" points="639.0625,380.5013,639.0625,380.7202,649.8264,380.0697,660.5903,380.7026,671.3542,380.9176,682.1181,379.7582,692.8819,380.4204,703.6458,380.057,714.4097,380.1018,725.1736,380.4303,735.9375,380.5013,735.8456,380.2795,736.6003,380.923,737.0323,380.7873,737.679,381.1701,738.3519,381.6162,738.8838,381.7217,738.8563,381.7103,739.1497,382.32,739.3617,382.896,739.6733,383.5132,739.9368,384.1105,740.1042,384.668,740.7143,384.668,740.8032,394.2448,740.8117,403.8216,740.3694,413.3984,740.5871,422.9753,740.1042,432.5521,740.3294,432.6454,739.6287,433.0455,739.8337,433.8208,739.2768,434.2805,739.2991,434.98,738.8838,435.4984,738.818,435.3396,738.2854,435.7205,737.8038,436.2244,737.1095,436.215,736.5407,436.5085,735.9375,436.7188,735.9375,437.0715,725.1736,437.1523,714.4097,436.7147,703.6458,437.0179,692.8819,436.1225,682.1181,437.015,671.3542,437.2898,660.5903,437.1818,649.8264,437.3573,639.0625,436.7188,638.9983,436.5638,638.3866,436.2655,637.8014,436.0313,637.2869,435.9676,636.6794,435.6794,636.1162,435.4984,636.3348,435.5889,635.8161,434.8859,635.518,434.2743,635.4572,433.7609,634.926,433.0527,634.8958,432.5521,634.3551,432.5521,635.5718,422.9753,635.3497,413.3984,635.6609,403.8216,634.5606,394.2448,634.8958,384.668,634.9982,384.7104,635.3293,384.1572,635.2324,383.4267,635.5973,382.8875,635.9126,382.3277,636.1162,381.7217,636.2028,381.9308,636.7049,381.4763,637.3562,381.3819,637.8104,380.8118,638.3833,380.5281,639.0625,380.5013" style="stroke: #333333; stroke-width: 1.5625;"/><polygon fill="#00000000" points="719.2708,385.7096,719.2708,385.7826,722.3958,385.5658,725.5208,385.7767,728.6458,385.8484,731.7708,385.4619,734.8958,385.7096,734.8688,385.7096,734.7477,387.793,734.7627,389.8763,734.8722,391.9596,734.6558,394.043,734.8958,396.1263,734.8958,396.3185,731.7708,395.9075,728.6458,396.0576,725.5208,396.2763,722.3958,396.0965,719.2708,396.1263,719.2945,396.1263,719.2597,394.043,719.3328,391.9596,719.3539,389.8763,719.4742,387.793,719.2708,385.7096" style="stroke: #333333; stroke-width: 1.5625;"/><polygon fill="#00000000" points="717.1875,387.793,717.1875,387.8659,718.0208,387.6491,718.8542,387.8601,719.6875,387.9317,720.5208,387.5453,721.3542,387.793,721.3272,387.793,721.2061,388.2096,721.221,388.6263,721.3305,389.043,721.1141,389.4596,721.3542,389.8763,721.3542,390.0685,720.5208,389.6575,719.6875,389.8076,718.8542,390.0263,718.0208,389.8465,717.1875,389.8763,717.2112,389.8763,717.1764,389.4596,717.2495,389.043,717.2705,388.6263,717.3909,388.2096,717.1875,387.793" style="stroke: #333333; stroke-width: 1.5625;"/><polygon fill="#00000000" points="717.1875,391.9596,717.1875,392.0326,718.0208,391.8158,718.8542,392.0267,719.6875,392.0984,720.5208,391.7119,721.3542,391.9596,721.3272,391.9596,721.2061,392.3763,721.221,392.793,721.3305,393.2096,721.1141,393.6263,721.3542,394.043,721.3542,394.2352,720.5208,393.8241,719.6875,393.9743,718.8542,394.193,718.0208,394.0132,717.1875,394.043,717.2112,394.043,717.1764,393.6263,717.2495,393.2096,717.2705,392.793,717.3909,392.3763,717.1875,391.9596" style="stroke: #333333; stroke-width: 1.5625;"/><text fill="#2E2E2E" font-family="Segoe Print" font-size="12.5" lengthAdjust="spacingAndGlyphs" textLength="53.125" x="655.7292" y="418.1458">Folder 3</text><!--MD5=[63877ed85df621d134a6c80fb52dad56]
entity Frame 4--><polygon fill="#00000000" points="639.0625,499.2513,639.0625,499.4702,649.8264,498.8197,660.5903,499.4526,671.3542,499.6676,682.1181,498.5082,692.8819,499.1704,703.6458,498.807,714.4097,498.8518,725.1736,499.1803,735.9375,499.2513,735.8456,499.0295,736.6003,499.673,737.0323,499.5373,737.679,499.9201,738.3519,500.3662,738.8838,500.4717,738.8563,500.4603,739.1497,501.07,739.3617,501.646,739.6733,502.2632,739.9368,502.8605,740.1042,503.418,740.7143,503.418,740.8032,512.9948,740.8117,522.5716,740.3694,532.1484,740.5871,541.7253,740.1042,551.3021,740.3294,551.3954,739.6287,551.7955,739.8337,552.5708,739.2768,553.0305,739.2991,553.73,738.8838,554.2484,738.818,554.0896,738.2854,554.4705,737.8038,554.9744,737.1095,554.965,736.5407,555.2585,735.9375,555.4688,735.9375,555.8215,725.1736,555.9023,714.4097,555.4647,703.6458,555.7679,692.8819,554.8725,682.1181,555.765,671.3542,556.0398,660.5903,555.9318,649.8264,556.1073,639.0625,555.4688,638.9983,555.3138,638.3866,555.0155,637.8014,554.7813,637.2869,554.7176,636.6794,554.4294,636.1162,554.2484,636.3348,554.3389,635.8161,553.6359,635.518,553.0243,635.4572,552.5109,634.926,551.8027,634.8958,551.3021,634.3551,551.3021,635.5718,541.7253,635.3497,532.1484,635.6609,522.5716,634.5606,512.9948,634.8958,503.418,634.9982,503.4604,635.3293,502.9072,635.2324,502.1767,635.5973,501.6375,635.9126,501.0777,636.1162,500.4717,636.2028,500.6808,636.7049,500.2263,637.3562,500.1319,637.8104,499.5618,638.3833,499.2781,639.0625,499.2513" style="stroke: #333333; stroke-width: 1.5625;"/><polygon fill="#00000000" points="719.2708,504.4596,719.2708,504.5326,722.3958,504.3158,725.5208,504.5267,728.6458,504.5984,731.7708,504.2119,734.8958,504.4596,734.8688,504.4596,734.7477,506.543,734.7627,508.6263,734.8722,510.7096,734.6558,512.793,734.8958,514.8763,734.8958,515.0685,731.7708,514.6575,728.6458,514.8076,725.5208,515.0263,722.3958,514.8465,719.2708,514.8763,719.2945,514.8763,719.2597,512.793,719.3328,510.7096,719.3539,508.6263,719.4742,506.543,719.2708,504.4596" style="stroke: #333333; stroke-width: 1.5625;"/><polygon fill="#00000000" points="717.1875,506.543,717.1875,506.6159,718.0208,506.3991,718.8542,506.6101,719.6875,506.6817,720.5208,506.2953,721.3542,506.543,721.3272,506.543,721.2061,506.9596,721.221,507.3763,721.3305,507.793,721.1141,508.2096,721.3542,508.6263,721.3542,508.8185,720.5208,508.4075,719.6875,508.5576,718.8542,508.7763,718.0208,508.5965,717.1875,508.6263,717.2112,508.6263,717.1764,508.2096,717.2495,507.793,717.2705,507.3763,717.3909,506.9596,717.1875,506.543" style="stroke: #333333; stroke-width: 1.5625;"/><polygon fill="#00000000" points="717.1875,510.7096,717.1875,510.7826,718.0208,510.5658,718.8542,510.7767,719.6875,510.8484,720.5208,510.4619,721.3542,510.7096,721.3272,510.7096,721.2061,511.1263,721.221,511.543,721.3305,511.9596,721.1141,512.3763,721.3542,512.793,721.3542,512.9852,720.5208,512.5741,719.6875,512.7243,718.8542,512.943,718.0208,512.7632,717.1875,512.793,717.2112,512.793,717.1764,512.3763,717.2495,511.9596,717.2705,511.543,717.3909,511.1263,717.1875,510.7096" style="stroke: #333333; stroke-width: 1.5625;"/><text fill="#2E2E2E" font-family="Segoe Print" font-size="12.5" lengthAdjust="spacingAndGlyphs" textLength="53.125" x="655.7292" y="536.8958">Frame 4</text><!--MD5=[bb0325ec99f4f4d58c3e33c6fae3b543]
entity MyCollection2--><polygon fill="#00000000" points="808.8542,101.3346,808.8542,101.5536,819.5833,100.9031,830.3125,101.536,841.0417,101.751,851.7708,100.5915,862.5,101.2537,873.2292,100.8904,883.9583,100.9352,894.6875,101.2636,905.4167,100.6145,916.1458,101.3346,916.2194,101.5122,916.6513,101.3765,917.2981,101.7593,917.971,102.2054,918.4915,102.2834,919.0921,102.555,919.114,102.5641,919.3259,103.14,919.6375,103.7573,919.9011,104.3546,920.2563,104.9899,920.3125,105.5013,920.5455,105.5013,920.5484,112.1615,920.4009,118.8216,920.4735,125.4818,920.5563,132.1419,920.3125,138.8021,920.0811,138.7063,920.2861,139.4815,919.7292,139.9412,919.7515,140.6408,919.1774,141.0933,919.0921,141.7484,919.083,141.7264,918.6014,142.2303,917.9071,142.2209,917.3383,142.5144,916.7801,142.8333,916.1458,142.9688,916.1458,143.4023,905.4167,142.9647,894.6875,143.2679,883.9583,142.3725,873.2292,143.265,862.5,143.5398,851.7708,143.4318,841.0417,143.6073,830.3125,142.4655,819.5833,142.2894,808.8542,142.9688,808.7716,142.7694,808.2571,142.7058,807.6495,142.4175,807.1769,142.4551,806.4739,141.9364,805.9079,141.7484,805.7978,141.7028,805.737,141.1894,805.2058,140.4812,805.0091,139.9116,805.1398,139.4776,804.6875,138.8021,804.8388,138.8021,804.9425,132.1419,804.5758,125.4818,804.7983,118.8216,804.8925,112.1615,804.6875,105.5013,804.536,105.4385,804.9008,104.8993,805.2161,104.3395,805.6288,103.8201,805.6625,103.1437,805.9079,102.555,805.9694,102.7034,806.4236,102.1333,806.9964,101.8496,807.7426,101.9843,808.1696,101.3487,808.8542,101.3346" style="stroke: #333333; stroke-width: 2.0833333333333335;"/><polygon fill="#00000000" points="804.6875,97.168,804.6875,97.3869,815.4167,96.7364,826.1458,97.3693,836.875,97.5843,847.6042,96.4248,858.3333,97.087,869.0625,96.7237,879.7917,96.7685,890.5208,97.097,901.25,96.4478,911.9792,97.168,912.0527,97.3456,912.4847,97.2099,913.1314,97.5927,913.8043,98.0388,914.3248,98.1168,914.9254,98.3884,914.9473,98.3974,915.1593,98.9734,915.4709,99.5906,915.7344,100.1879,916.0896,100.8232,916.1458,101.3346,916.3788,101.3346,916.3817,107.9948,916.2342,114.6549,916.3068,121.3151,916.3897,127.9753,916.1458,134.6354,915.9145,134.5396,916.1194,135.3148,915.5626,135.7745,915.5848,136.4741,915.0107,136.9267,914.9254,137.5817,914.9163,137.5597,914.4347,138.0637,913.7405,138.0542,913.1717,138.3477,912.6134,138.6666,911.9792,138.8021,911.9792,139.2357,901.25,138.798,890.5208,139.1013,879.7917,138.2058,869.0625,139.0983,858.3333,139.3731,847.6042,139.2651,836.875,139.4407,826.1458,138.2989,815.4167,138.1227,804.6875,138.8021,804.6049,138.6027,804.0904,138.5391,803.4829,138.2509,803.0103,138.2884,802.3073,137.7697,801.7412,137.5817,801.6312,137.5361,801.5704,137.0228,801.0392,136.3146,800.8425,135.7449,800.9731,135.3109,800.5208,134.6354,800.6721,134.6354,800.7759,127.9753,800.4091,121.3151,800.6317,114.6549,800.7258,107.9948,800.5208,101.3346,800.3693,101.2719,800.7342,100.7326,801.0494,100.1729,801.4621,99.6535,801.4958,98.9771,801.7412,98.3884,801.8027,98.5367,802.2569,97.9666,802.8297,97.6829,803.5759,97.8177,804.003,97.1821,804.6875,97.168" style="stroke: #333333; stroke-width: 2.0833333333333335;"/><text fill="#2E2E2E" font-family="Segoe Print" font-size="12.5" lengthAdjust="spacingAndGlyphs" textLength="88.5417" x="814.0625" y="122.3124">MyCollection2</text><!--MD5=[4d6c9a8b502f46c0f85d26a51e5d57ce]
entity My Artifact--><polygon fill="#00000000" points="960.9375,95.6055,960.9375,95.8244,971.0417,95.1739,981.1458,95.8068,991.25,96.0218,1001.3542,94.8623,1011.4583,95.5245,1021.5625,95.1612,1031.6667,95.206,1041.7708,95.5345,1051.875,94.8853,1061.9792,95.6055,1062.0527,95.7831,1062.4847,95.6474,1063.1314,96.0302,1063.8043,96.4763,1064.3248,96.5543,1064.9254,96.8259,1064.9473,96.8349,1065.1593,97.4109,1065.4709,98.0281,1065.7344,98.6254,1066.0896,99.2607,1066.1458,99.7721,1066.3788,99.7721,1066.3817,107.8906,1066.2342,116.0091,1066.3068,124.1276,1066.3897,132.2461,1066.1458,140.3646,1065.9145,140.2688,1066.1194,141.044,1065.5626,141.5037,1065.5848,142.2033,1065.0107,142.6558,1064.9254,143.3109,1064.9163,143.2889,1064.4347,143.7928,1063.7405,143.7834,1063.1717,144.0769,1062.6134,144.3958,1061.9792,144.5313,1061.9792,144.9648,1051.875,144.5272,1041.7708,144.8304,1031.6667,143.935,1021.5625,144.8275,1011.4583,145.1023,1001.3542,144.9943,991.25,145.1698,981.1458,144.028,971.0417,143.8519,960.9375,144.5313,960.8549,144.3319,960.3404,144.2683,959.7329,143.98,959.2603,144.0176,958.5573,143.4989,957.9912,143.3109,957.8812,143.2653,957.8204,142.7519,957.2892,142.0437,957.0925,141.4741,957.2231,141.0401,956.7708,140.3646,956.9221,140.3646,957.0259,132.2461,956.6591,124.1276,956.8817,116.0091,956.9758,107.8906,956.7708,99.7721,956.6193,99.7094,956.9842,99.1701,957.2994,98.6104,957.7121,98.091,957.7458,97.4146,957.9912,96.8259,958.0527,96.9742,958.5069,96.4041,959.0797,96.1204,959.8259,96.2552,960.253,95.6196,960.9375,95.6055" style="stroke: #4D4D4D; stroke-width: 1.5625;"/><polygon fill="#00000000" points="1048.4375,100.8138,1048.5105,100.8138,1048.2936,103.7305,1048.5046,106.6471,1048.5763,109.5638,1048.1898,112.4805,1048.4375,115.3971,1048.4375,115.3702,1050.9375,115.249,1053.4375,115.264,1055.9375,115.3735,1058.4375,115.1571,1060.9375,115.3971,1061.1297,115.3971,1060.7187,113.7305,1060.8688,112.0638,1061.0875,110.3971,1060.9077,108.7305,1060.9375,107.0638,1060.9543,107.0806,1059.6797,105.806,1058.4813,104.6076,1057.2462,103.3725,1056.0813,102.2076,1054.6875,100.8138,1054.6875,101.0468,1053.4375,101.0497,1052.1875,100.9022,1050.9375,100.9748,1049.6875,101.0576,1048.4375,100.8138" style="stroke: #4D4D4D; stroke-width: 1.5625;"/><path d="M1054.6875,100.8138 L1054.7848,100.8138 L1054.4957,102.0638 L1054.777,103.3138 L1054.8725,104.5638 L1054.3572,105.8138 L1054.6875,107.0638 " fill="#00000000" style="stroke: #4D4D4D; stroke-width: 1.5625;"/><path d="M1060.9375,107.0638 L1060.9375,107.1611 L1059.6875,106.872 L1058.4375,107.1533 L1057.1875,107.2488 L1055.9375,106.7335 L1054.6875,107.0638 " fill="#00000000" style="stroke: #4D4D4D; stroke-width: 1.5625;"/><text fill="#4D4D4D" font-family="Segoe Print" font-size="12.5" lengthAdjust="spacingAndGlyphs" textLength="67.7083" x="972.3958" y="125.9583">My Artifact</text><!--MD5=[6013850653c05993d855a7b82b2ebd6f]
entity My Storage--><polygon fill="#00000000" points="1139.5833,97.168,1139.5833,97.2409,1145.8333,97.0241,1152.0833,97.2351,1158.3333,97.3067,1164.5833,96.9203,1170.8333,97.168,1170.8265,97.1419,1175.952,98.3661,1181.1118,99.722,1186.2953,101.1695,1191.3968,102.3015,1196.6133,103.8753,1196.7738,103.9812,1198.5662,106.9935,1200.8273,110.3147,1203.1455,113.6737,1205.1311,116.8134,1207.2917,120.0684,1207.3114,120.0814,1205.1467,123.3009,1203.0721,126.5797,1200.9539,129.8299,1198.9187,133.1347,1196.6133,136.2614,1196.6719,136.4869,1191.5167,137.8311,1186.3236,139.0299,1181.1858,140.4416,1176.0507,141.8633,1170.8333,142.9688,1170.8333,142.7183,1164.5833,143.2043,1158.3333,142.8658,1152.0833,143.1541,1145.8333,142.7969,1139.5833,142.9688,1139.5773,142.9457,1134.4922,141.8765,1129.2671,140.2694,1124.1246,138.9797,1118.989,137.7166,1113.8034,136.2614,1113.9241,136.3409,1111.6666,133.022,1109.6153,129.8391,1107.2304,126.4361,1105.3431,123.3613,1103.125,120.0684,1103.2839,120.1731,1105.3895,116.9147,1107.5741,113.7083,1109.392,110.2602,1111.4787,106.9893,1113.8034,103.8753,1113.7491,103.6665,1118.9542,102.5141,1124.0982,101.1263,1129.3309,100.0799,1134.4121,98.4507,1139.5833,97.168" style="stroke: #E6AE06; stroke-width: 1.5625;"/><text fill="#E6AE06" font-family="Segoe Print" font-size="12.5" lengthAdjust="spacingAndGlyphs" textLength="72.9167" x="1118.75" y="124.3958">My Storage</text><!--MD5=[decf897d207c1b699121f5d4005ef96e]
entity My Queue--><path d="M818.2292,230.5013 L818.2292,231.0851 L828.776,229.3504 L839.3229,231.0382 L849.8698,231.6115 L860.4167,228.5196 L870.9635,230.2854 L881.5104,229.3166 L892.0573,229.436 L902.6042,230.5013 L902.6042,230.5013 L902.5739,230.4924 L903.3388,233.9493 L904.9334,237.6505 L905.4492,241.0341 L906.683,244.6291 L907.8125,248.1934 L907.8125,248.1934 L908.0043,248.2498 L906.7327,251.7206 L905.7595,255.2791 L904.6733,258.8044 L903.7251,262.3703 L902.6042,265.8854 L902.6042,266.5497 L892.0573,267.5123 L881.5104,267.7495 L870.9635,267.7722 L860.4167,266.5927 L849.8698,267.1732 L839.3229,267.8361 L828.776,263.8821 L818.2292,265.8854 L818.2292,265.8854 L818.5305,265.9741 L817.0558,262.3082 L816.3829,258.8784 L814.8843,255.2055 L814.0321,251.7228 L813.0208,248.1934 L813.0208,248.1934 L813.3502,248.2903 L814.0409,244.6486 L815.1509,241.1303 L816.2962,237.6224 L817.3724,234.0941 L818.2292,230.5013 " fill="#00000000" style="stroke: #333333; stroke-width: 1.5625;"/><path d="M902.6042,230.5013 L902.6042,230.5013 L902.6975,230.5288 L901.3785,233.9855 L900.6067,237.6034 L899.6567,241.1688 L898.1207,244.5617 L897.3958,248.1934 L897.3958,248.1934 L897.3613,248.1832 L898.2481,251.676 L899.3088,255.22 L900.4906,258.7997 L901.2555,262.2566 L902.6042,265.8854 " fill="none" style="stroke: #333333; stroke-width: 1.5625;"/><text fill="#2E2E2E" font-family="Segoe Print" font-size="12.5" lengthAdjust="spacingAndGlyphs" textLength="63.5417" x="823.4375" y="252.5208">My Queue</text><!--MD5=[db0b4290d55c456da6f1e605315daa68]
entity My Interface--><polygon fill="#00000000" points="1006.296,250.2366,1005.0745,251.9057,1003.6297,254.3503,1001.5633,255.9978,999.392,256.8987,997.6606,256.9769,995.4354,255.8502,993.3357,255.1141,991.7421,253.6196,990.9061,251.9087,990.4104,250.5464,989.9247,248.767,989.1364,247.2358,989.7421,245.7407,990.2729,244.103,992.2646,242.8077,993.6659,241.1271,995.4003,240.5691,997.4622,240.0885,1000.1064,240.374,1001.5546,241.057,1003.2384,241.3666,1005.2857,243.4642,1005.9994,245.6785,1006.3095,247.1894,1005.9583,249.6792" style="stroke: #DC3545; stroke-width: 2.0833333333333335;"/><text fill="#555555" font-family="Segoe Print" font-size="12.5" lengthAdjust="spacingAndGlyphs" textLength="79.1667" x="958.3333" y="282.7291">My Interface</text><!--MD5=[c42dbb279bb2c76edeffd08640135261]
entity My Card--><polygon fill="#00000000" points="1092.1875,232.5846,1092.1875,232.8036,1102.753,232.1531,1113.3185,232.786,1123.8839,233.001,1134.4494,231.8415,1145.0149,232.5037,1155.5804,232.1404,1166.1458,232.5846,1166.0949,232.4616,1166.726,232.8068,1167.2325,232.851,1167.9872,233.4945,1168.4191,233.3588,1169.0921,233.805,1169.0287,233.7787,1169.4748,234.4517,1169.5528,234.9721,1169.8462,235.5819,1170.0582,236.1578,1170.3125,236.7513,1170.3745,236.7513,1170.3955,241.3281,1170.5159,245.9049,1170.5455,250.4818,1170.5484,255.0586,1170.3125,259.6354,1170.3942,259.6693,1170.2171,260.2863,1170.0496,260.9072,1169.3489,261.3074,1169.5538,262.0826,1169.0921,262.5817,1169.0527,262.4866,1168.5738,262.997,1167.8478,262.9111,1167.3152,263.292,1166.8336,263.7959,1166.1458,263.8021,1166.1458,263.7513,1155.5804,263.9118,1145.0149,264.1548,1134.4494,264.2357,1123.8839,263.798,1113.3185,264.1013,1102.753,263.2058,1092.1875,263.8021,1092.2253,263.8933,1091.6711,263.7339,1091.0681,263.4565,1090.5012,263.2665,1089.7663,262.6708,1089.2412,262.5817,1089.032,262.495,1088.7978,261.9099,1088.7342,261.3954,1088.4459,260.7878,1088.4835,260.3152,1088.0208,259.6354,1087.9602,259.6354,1087.9017,255.0586,1088.1001,250.4818,1087.7893,245.9049,1087.8406,241.3281,1088.0208,236.7513,1088.229,236.8375,1088.4047,236.2199,1088.7446,235.6704,1088.6498,234.9408,1089.0995,234.4367,1089.2412,233.805,1089.3197,233.9944,1089.7677,233.4094,1090.407,233.2861,1091.0257,233.1132,1091.6848,233.0378,1092.1875,232.5846" style="stroke: #1592A6; stroke-width: 1.5625;"/><text fill="#1592A6" font-family="Segoe Print" font-size="12.5" lengthAdjust="spacingAndGlyphs" textLength="51.0417" x="1103.6458" y="252.5208">My Card</text><!--MD5=[4552e0ab931d4db86ba1ccdf7169c968]
entity My File--><path d="M823.4375,389.8763 L823.4375,427.3438 A4.1667,4.1667 0 0 0 827.6042,431.5104 L893.2292,431.5104 A4.1667,4.1667 0 0 0 897.3958,427.3438 L897.3958,396.1263 L886.9792,385.7096 L827.6042,385.7096 A4.1667,4.1667 0 0 0 823.4375,389.8763 " fill="#00000000" style="stroke: #FFFFFF; stroke-width: 1.5625;"/><path d="M886.9792,385.7096 L886.9792,391.9596 A4.1667,4.1667 0 0 0 891.1458,396.1263 L897.3958,396.1263 " fill="#00000000" style="stroke: #FFFFFF; stroke-width: 1.5625;"/><text fill="#FFFFFF" font-family="Segoe Print" font-size="12.5" lengthAdjust="spacingAndGlyphs" textLength="42.7083" x="839.0625" y="412.9374">My File</text><!--MD5=[5a51615613d2b2569e36ac803df4b251]
entity My Stack--><polygon fill="#00000000" points="953.6458,385.7096,953.6458,385.9286,963.6719,385.2781,973.6979,385.911,983.724,386.126,993.75,384.9665,1003.776,385.6287,1013.8021,385.2654,1023.8281,385.3102,1033.8542,385.7096,1033.8451,385.6878,1034.3516,385.7319,1035.1062,386.3754,1035.5382,386.2397,1036.1849,386.6225,1036.8004,386.93,1036.939,386.9874,1037.017,387.5079,1037.3105,388.1176,1037.5224,388.6935,1037.834,389.3108,1038.0208,389.8763,1038.1039,389.8763,1038.2242,397.3698,1038.2538,404.8633,1038.2567,412.3568,1038.1092,419.8503,1038.0208,427.3438,1038.1695,427.4053,1038.002,428.0263,1037.3013,428.4264,1037.5063,429.2017,1036.9494,429.6614,1036.8004,430.29,1036.8714,430.4613,1036.1454,430.3753,1035.6128,430.7562,1035.1312,431.2602,1034.4369,431.2507,1033.8542,431.5104,1033.8542,431.6201,1023.8281,431.8632,1013.8021,431.944,1003.776,431.5063,993.75,431.8096,983.724,430.9141,973.6979,431.8067,963.6719,432.0815,953.6458,431.5104,953.7049,431.653,953.138,431.463,952.4031,430.8673,951.7914,430.569,951.2062,430.3348,950.6996,430.29,950.6807,430.2822,950.3924,429.6747,950.43,429.2021,949.9113,428.4991,949.6132,427.8874,949.4792,427.3438,949.5584,427.3438,949.2476,419.8503,949.2989,412.3568,949.7045,404.8633,949.6304,397.3698,949.4792,389.8763,949.7148,389.9739,949.62,389.2443,950.0697,388.7402,950.4008,388.187,950.3039,387.4565,950.6996,386.93,950.6868,386.8993,951.3056,386.7264,951.9647,386.6509,952.4668,386.1964,953.118,386.1021,953.6458,385.7096" style="stroke: none; stroke-width: 1.5625;"/><path d="M933.8542,385.7096 L945.3125,385.7096 A4.1667,4.1667 0 0 1 949.4792,389.8763 L949.4792,427.3438 A4.1667,4.1667 0 0 0 953.6458,431.5104 L1033.8542,431.5104 A4.1667,4.1667 0 0 0 1038.0208,427.3438 L1038.0208,389.8763 A4.1667,4.1667 0 0 1 1042.1875,385.7096 L1053.6458,385.7096 " fill="none" style="stroke: #333333; stroke-width: 1.5625;"/><text fill="#2E2E2E" font-family="Segoe Print" font-size="12.5" lengthAdjust="spacingAndGlyphs" textLength="57.2917" x="965.1042" y="412.9374">My Stack</text><!--MD5=[46d996859f59e5baf77956ce93023cee]
link HTTP to First Component--><path d="M526.0158,120.0846 L526.0158,120.1819 L518.6398,119.8928 L511.2638,120.1741 L503.8878,120.2697 L496.5118,119.7544 L489.1357,120.0846 " fill="none" style="stroke: #333333; stroke-width: 3.125;"/><!--MD5=[1966a42bb49d59057147dbda06282f4b]
link FTP to Second Component--><path d="M374.178,248.2096 L374.178,248.3069 L381.5123,248.0178 L388.8466,248.2991 L396.181,248.3947 L403.5153,247.8794 L410.8496,248.2096 " fill="none" style="stroke: #333333; stroke-width: 3.125;"/><!--MD5=[d3aefbd8005e27b21e7ce98ddd948193]
link First Component to FTP--><path d="M399.4343,148.5197 L399.7098,148.6161 L395.5807,157.7991 L393.0669,167.5469 L390.0271,177.1107 L385.2574,186.0698 L382.7804,195.8304 L379.0127,205.1398 L375.7587,214.6288 L372.8618,224.2426 L369.6407,233.7431 " fill="none" style="stroke: #333333; stroke-width: 3.125;"/><polygon fill="#333333" points="367.8645,238.824,367.9177,238.874,369.1651,237.2305,370.7242,235.8801,372.1818,234.4342,373.3056,232.6745,374.8915,231.3492,374.8798,231.3249,373.7656,231.7275,372.7104,232.2526,371.6963,232.8628,370.5407,233.1795,369.5832,233.9074,369.7564,233.9909,368.8745,232.7508,368.4981,231.7543,368.1834,230.7876,367.5098,229.6479,367.025,228.5992,367.0486,228.6011,367.1818,230.6432,367.4226,232.6942,367.6114,234.7409,367.8993,236.7957,367.8645,238.824" style="stroke: #333333; stroke-width: 3.125;"/><!--MD5=[efc1ffe8b578a0fb156c7bce303319bb]
link Another Component to Example 1--><path d="M676.1532,148.5197 L676.4433,148.5528 L676.8329,159.4492 L678.9228,170.5392 L680.459,181.5662 L680.1744,192.3859 L682.303,203.4803 L683.6617,214.487 " fill="none" style="stroke: #333333; stroke-width: 3.125;"/><polygon fill="#333333" points="684.2725,219.854,684.3421,219.8759,684.7512,217.8536,685.5684,215.9597,686.2527,214.024,686.5,211.9508,687.3523,210.068,687.3312,210.0512,686.5026,210.898,685.7806,211.8295,685.1325,212.8199,684.2294,213.6074,683.6835,214.6791,683.8032,214.8295,682.625,213.7741,681.7963,213.1578,681.0102,212.5952,679.9761,211.7208,679.0724,211.0103,679.0928,211.0223,680.1029,212.7734,681.2059,214.5792,682.264,216.3586,683.4078,218.1884,684.2725,219.854" style="stroke: #333333; stroke-width: 3.125;"/><!--MD5=[7ec8393a78a133520e8846dd05a7857a]
link Example 1 to Folder 3--><path d="M687.5,276.5196 L687.7919,276.5196 L686.9246,287.4655 L687.7685,298.4114 L688.0551,309.3573 L686.5092,320.3032 L687.3921,331.2491 L686.9076,342.1951 L686.9674,353.141 L687.4053,364.0869 L687.5,375.0328 " fill="none" style="stroke: #333333; stroke-width: 3.125;"/><polygon fill="#333333" points="687.5,380.3299,687.5667,380.3596,688.2019,378.3965,689.228,376.6072,690.1268,374.7613,690.607,372.7293,691.6667,370.9549,691.6476,370.9359,690.7286,371.6836,689.9058,372.5275,689.1499,373.4382,688.1636,374.1185,687.5,375.1216,687.6359,375.2575,686.5119,374.1335,685.7848,373.4064,685.1061,372.7277,684.1456,371.7672,683.3333,370.9549,683.355,370.9646,684.1565,372.8254,685.0566,374.7301,685.9092,376.6137,686.8525,378.5375,687.5,380.3299" style="stroke: #333333; stroke-width: 3.125;"/><!--MD5=[b96c7096199393c1414a8b4e9ed2c30f]
link Folder 3 to Frame 4--><path d="M687.5,436.7684 L687.7919,436.7684 L686.9246,448.1315 L687.7685,459.4946 L688.0551,470.8578 L686.5092,482.2209 L687.5,493.584 " fill="none" style="stroke: #333333; stroke-width: 3.125;"/><polygon fill="#333333" points="687.5,499.0246,687.5667,499.0543,688.2019,497.0912,689.228,495.3019,690.1268,493.456,690.607,491.424,691.6667,489.6496,691.6476,489.6306,690.7286,490.3783,689.9058,491.2221,689.1499,492.1329,688.1636,492.8132,687.5,493.8163,687.6359,493.9522,686.5119,492.8282,685.7848,492.1011,685.1061,491.4224,684.1456,490.4619,683.3333,489.6496,683.355,489.6593,684.1565,491.5201,685.0566,493.4248,685.9092,495.3084,686.8525,497.2322,687.5,499.0246" style="stroke: #333333; stroke-width: 3.125;"/><!--MD5=[83be288af14fde8a86007c2b011fac4a]
link MyCollection2 to My Artifact--><!--MD5=[b21a3c93c2a22c7ef4934ace81b9a2fe]
link My Artifact to My Storage--><!--MD5=[6ba35b42f782a962813221ea03178716]
link MyCollection2 to My Queue--><!--MD5=[0babb46f3d0f67f91c828a5eda35ab7d]
link My Queue to My Interface--><!--MD5=[9bfee3aea78949ae207e8bd3b67fed50]
link My Interface to My Card--><!--MD5=[afe9315598834b0b9f57a7a5b2c7ee2a]
link My Queue to My File--><!--MD5=[f6296be58d13482500ae3b999db2843f]
link My File to My Stack--><!--MD5=[18c07cc80ca08df5ff0685825ee71f1c]
@startuml

!$THEME = "sketchy-outline"

!if %not(%variable_exists("$BGCOLOR"))
!$BGCOLOR = "transparent"
!endif

skinparam backgroundColor $BGCOLOR
skinparam handwritten true
skinparam shadowing false

!$BLUE = "#007bff"
!$INDIGO = "#6610f2"
!$PURPLE = "#6f42c1"
!$PINK = "#e83e8c"
!$RED = "#dc3545"
!$ORANGE = "#fd7e14"
!$YELLOW = "#ffc107"
!$GREEN = "#28a745"
!$TEAL = "#20c997"
!$CYAN = "#17a2b8"
!$WHITE = "#ffffff"
!$GRAY = "#868e96"
!$GRAYDARK = "#333333"
!$PRIMARY = "#333333"
!$SECONDARY = "#555555"
!$SUCCESS = "#28a745"
!$INFO = "#17a2b8"
!$WARNING = "#ffc107"
!$DANGER = "#dc3545"
!$LIGHT = "#ffffff"
!$DARK = "#555555"

!$FGCOLOR = $WHITE
!$PRIMARY_DARK = "#2e2e2e"
!$PRIMARY_LIGHT = "#474747"
!$PRIMARY_TEXT = "#2e2e2e"
!$SECONDARY_DARK = "#4d4d4d"
!$SECONDARY_LIGHT = "#666666"
!$SECONDARY_TEXT = $WHITE
!$INFO_DARK = "#1592a6"
!$INFO_LIGHT = "#2eabbf"
!$INFO_TEXT = $WHITE
!$SUCCESS_DARK = "#24963e"
!$SUCCESS_LIGHT = "#3eb058"
!$SUCCESS_TEXT = $WHITE
!$WARNING_DARK = "#e6ae06"
!$WARNING_LIGHT = "#ffc720"
!$WARNING_TEXT = $WHITE
!$DANGER_DARK = "#c6303e"
!$DANGER_LIGHT = "#e04958"
!$DANGER_TEXT = $WHITE
!$DARK_DARK = "#4d4d4d"
!$DARK_LIGHT = "#666666"
!$LIGHT_DARK = "#e6e6e6"
!$LIGHT_LIGHT = "#ffffff"

!procedure $success($msg)
  <font color=$SUCCESS><b>$msg
!endprocedure

!procedure $failure($msg)
  <font color=$DANGER><b>$msg
!endprocedure

!procedure $warning($msg)
  <font color=$WARNING><b>$msg
!endprocedure

!procedure $primary_scheme()
	FontColor $PRIMARY_TEXT
	BorderColor $PRIMARY
	BackgroundColor $BGCOLOR
!endprocedure

skinparam defaultFontName       "Segoe Print"
skinparam defaultFontSize       12
skinparam dpi                   100
skinparam shadowing             false
skinparam roundcorner           8
skinparam ParticipantPadding    40
skinparam BoxPadding            40
skinparam Padding               5
skinparam ArrowColor            $DARK
skinparam stereotype {
    CBackgroundColor $BGCOLOR
    CBorderColor $SECONDARY_DARK
    ABackgroundColor $BGCOLOR
    ABorderColor $SUCCESS_DARK
    IBackgroundColor $BGCOLOR
    IBorderColor $DANGER_DARK
    EBackgroundColor $BGCOLOR
    EBorderColor $WARNING_DARK
    NBackgroundColor $BGCOLOR
    NBorderColor $INFO_DARK
}
skinparam title {
	FontColor	                 $PRIMARY_TEXT
	BorderColor	                 $SECONDARY_DARK
	FontSize	    	         20
	BorderRoundCorner            8
	BorderThickness 	         1
	BackgroundColor              $BGCOLOR
}

skinparam legend {
	BackgroundColor $BGCOLOR
	BorderColor $SECONDARY_DARK
	FontColor $PRIMARY_TEXT
}

!startsub swimlane
skinparam swimlane {
	BorderColor $INFO
	BorderThickness 2
	TitleBackgroundColor  $BGCOLOR
	TitleFontColor $PRIMARY_TEXT
}
!endsub

!startsub activity

skinparam activity {
	$primary_scheme()
	BarColor $SUCCESS
	StartColor $INFO
	EndColor $INFO
	DiamondBackgroundColor $BGCOLOR
  	DiamondBorderColor $SECONDARY_DARK
  	DiamondFontColor $PRIMARY_TEXT
}
!endsub

!startsub participant

skinparam participant {
	$primary_scheme()
	ParticipantBorderThickness 2
}
!endsub

!startsub actor

skinparam actor {
	$primary_scheme()
}
!endsub

!startsub arrow

skinparam arrow {
	Thickness 3
	Color $PRIMARY
	FontColor $PRIMARY_TEXT
}
!endsub

!startsub sequence

skinparam sequence {
	BorderColor $PRIMARY
	TitleFontColor $PRIMARY_TEXT
	BackgroundColor $BGCOLOR
	StartColor $PRIMARY
	EndColor $PRIMARY
	BoxBackgroundColor $BGCOLOR
	BoxBorderColor $DARK
	BoxFontColor $DARK
	LifeLineBorderColor $SECONDARY
	LifeLineBorderThickness 2
	LifeLineBackgroundColor $SECONDARY_DARK
	GroupBorderColor $DARK
	GroupFontColor $DARK
	GroupHeaderFontColor $INFO
	GroupBackgroundColor $SECONDARY
	GroupHeaderBackgroundColor $BGCOLOR
	DividerBackgroundColor $DARK
    DividerBorderColor $DARK
    DividerBorderThickness 2
    DividerFontColor $LIGHT
	ReferenceBackgroundColor $BGCOLOR
	ReferenceBorderColor $DARK
	ReferenceFontColor $DARK
	ReferenceHeaderFontColor $INFO
	ReferenceHeaderBackgroundColor $SECONDARY
}
!endsub

!startsub partition

skinparam partition {
	BorderColor $PRIMARY
	FontColor $PRIMARY
	BackgroundColor $BGCOLOR
}
!endsub

!startsub collections

skinparam collections {
	$primary_scheme()
}
!endsub

!startsub control

skinparam control {
	$primary_scheme()
}
!endsub

!startsub entity

skinparam entity {
	$primary_scheme()
}
!endsub

!startsub boundary

skinparam boundary {
	$primary_scheme()
}
!endsub

!startsub agent

skinparam agent {
	BackgroundColor $WARNING
	BorderColor $WARNING_LIGHT
	FontColor $DARK
}
!endsub

!startsub note

skinparam note {
	BorderThickness 1
	BackgroundColor $INFO
	BorderColor $INFO_DARK
	FontColor $WHITE
}
!endsub

!startsub artifact

skinparam artifact {
	BackgroundColor $BGCOLOR
	BorderColor $DARK_DARK
	FontColor $DARK_DARK
}
!endsub

!startsub component

skinparam component {
	$primary_scheme()
}
!endsub

!startsub interface

skinparam interface {
	BackgroundColor  $BGCOLOR
	BorderColor  $DANGER
	FontColor $DARK
}
!endsub

!startsub storage

skinparam storage {
	BackgroundColor $BGCOLOR
  	BorderColor $WARNING_DARK
	FontColor $WARNING_DARK
}
!endsub

!startsub node

skinparam node {
	BackgroundColor  $BGCOLOR
	BorderColor $LIGHT
	FontColor $LIGHT
}
!endsub

!startsub cloud

skinparam cloud {
	BackgroundColor $BGCOLOR
	BorderColor #F2FCFE
	FontColor $PRIMARY_TEXT
}
!endsub

!startsub database

skinparam database {
	$primary_scheme()
}
!endsub

!startsub class

skinparam class {
	$primary_scheme()
	HeaderBackgroundColor $BGCOLOR
	StereotypeFontColor $DARK
	BorderThickness 1
	AttributeFontColor $DARK
	AttributeFontSize 11
}
!endsub

!startsub object

skinparam object {
	$primary_scheme()
	StereotypeFontColor $PRIMARY_TEXT
	BorderThickness 1
	AttributeFontColor $PRIMARY_TEXT
	AttributeFontSize 11
}
!endsub

!startsub usecase

skinparam usecase {
	$primary_scheme()
	BorderThickness 2
	StereotypeFontColor $PRIMARY
}
!endsub

!startsub rectangle

skinparam rectangle {
	$primary_scheme()
	BorderThickness 2
	StereotypeFontColor $PRIMARY
}
!endsub

!startsub package

skinparam package {
	BackgroundColor $BGCOLOR
  	BorderColor $PRIMARY
	FontColor $PRIMARY
	BorderThickness 2
}
!endsub

!startsub folder

skinparam folder {
	BackgroundColor $BGCOLOR
  	BorderColor $WARNING
	FontColor $WARNING
	BorderThickness 2
}
!endsub

!startsub frame

skinparam frame {
	BackgroundColor $BGCOLOR
  	BorderColor $INFO
	FontColor $INFO
	BorderThickness 2
}
!endsub

!startsub state

skinparam state {
	$primary_scheme()
	StartColor $INFO
	EndColor $INFO
	AttributeFontColor $SECONDARY_TEXT
	AttributeFontSize 11
}
!endsub

!startsub queue

skinparam queue {
	$primary_scheme()
}
!endsub

!startsub card

skinparam card {
	BackgroundColor $BGCOLOR
	BorderColor $INFO_DARK
	FontColor $INFO_DARK
}
!endsub

!startsub file

skinparam file {
	BackgroundColor $BGCOLOR
	BorderColor $LIGHT
	FontColor $LIGHT
}
!endsub

!startsub stack

skinparam stack {
	$primary_scheme()
}
!endsub

!if %variable_exists("$THEME")
title Component Diagram - $THEME theme
!else
title Component Diagram
!endif

'skinparam BackgroundColor transparent

package "My Package" {
  HTTP - [First Component]
  [Another Component]
  rectangle MyRectangle1
  collections MyCollection1
}
 
node "My Node" {
  FTP - [Second Component]
  [First Component] - -> FTP
  rectangle MyRectangle2
} 

cloud "My Cloud" {
  [Example 1]
}

collections MyCollection2

database "My Database" {
  folder "My folder" {
	[Folder 3]
  }
  frame "My Frame" {
	[Frame 4]
  }
}

artifact "My Artifact"
storage "My Storage"
queue "My Queue"
interface "My Interface"
card "My Card"
file "My File"
stack "My Stack"

[Another Component] - -> [Example 1]
[Example 1] - -> [Folder 3]
[Folder 3] - -> [Frame 4]

@enduml

@startuml



skinparam backgroundColor transparent
skinparam handwritten true
skinparam shadowing false







skinparam defaultFontName       "Segoe Print"
skinparam defaultFontSize       12
skinparam dpi                   100
skinparam shadowing             false
skinparam roundcorner           8
skinparam ParticipantPadding    40
skinparam BoxPadding            40
skinparam Padding               5
skinparam ArrowColor            #555555
skinparam stereotype {
    CBackgroundColor transparent
    CBorderColor #4d4d4d
    ABackgroundColor transparent
    ABorderColor #24963e
    IBackgroundColor transparent
    IBorderColor #c6303e
    EBackgroundColor transparent
    EBorderColor #e6ae06
    NBackgroundColor transparent
    NBorderColor #1592a6
}
skinparam title {
	FontColor	                 #2e2e2e
	BorderColor	                 #4d4d4d
	FontSize	    	         20
	BorderRoundCorner            8
	BorderThickness 	         1
	BackgroundColor              transparent
}

skinparam legend {
	BackgroundColor transparent
	BorderColor #4d4d4d
	FontColor #2e2e2e
}

skinparam swimlane {
	BorderColor #17a2b8
	BorderThickness 2
	TitleBackgroundColor  transparent
	TitleFontColor #2e2e2e
}


skinparam activity {
		FontColor #2e2e2e
	BorderColor #333333
	BackgroundColor transparent
	BarColor #28a745
	StartColor #17a2b8
	EndColor #17a2b8
	DiamondBackgroundColor transparent
  	DiamondBorderColor #4d4d4d
  	DiamondFontColor #2e2e2e
}


skinparam participant {
		FontColor #2e2e2e
	BorderColor #333333
	BackgroundColor transparent
	ParticipantBorderThickness 2
}


skinparam actor {
		FontColor #2e2e2e
	BorderColor #333333
	BackgroundColor transparent
}


skinparam arrow {
	Thickness 3
	Color #333333
	FontColor #2e2e2e
}


skinparam sequence {
	BorderColor #333333
	TitleFontColor #2e2e2e
	BackgroundColor transparent
	StartColor #333333
	EndColor #333333
	BoxBackgroundColor transparent
	BoxBorderColor #555555
	BoxFontColor #555555
	LifeLineBorderColor #555555
	LifeLineBorderThickness 2
	LifeLineBackgroundColor #4d4d4d
	GroupBorderColor #555555
	GroupFontColor #555555
	GroupHeaderFontColor #17a2b8
	GroupBackgroundColor #555555
	GroupHeaderBackgroundColor transparent
	DividerBackgroundColor #555555
    DividerBorderColor #555555
    DividerBorderThickness 2
    DividerFontColor #ffffff
	ReferenceBackgroundColor transparent
	ReferenceBorderColor #555555
	ReferenceFontColor #555555
	ReferenceHeaderFontColor #17a2b8
	ReferenceHeaderBackgroundColor #555555
}


skinparam partition {
	BorderColor #333333
	FontColor #333333
	BackgroundColor transparent
}


skinparam collections {
		FontColor #2e2e2e
	BorderColor #333333
	BackgroundColor transparent
}


skinparam control {
		FontColor #2e2e2e
	BorderColor #333333
	BackgroundColor transparent
}


skinparam entity {
		FontColor #2e2e2e
	BorderColor #333333
	BackgroundColor transparent
}


skinparam boundary {
		FontColor #2e2e2e
	BorderColor #333333
	BackgroundColor transparent
}


skinparam agent {
	BackgroundColor #ffc107
	BorderColor #ffc720
	FontColor #555555
}


skinparam note {
	BorderThickness 1
	BackgroundColor #17a2b8
	BorderColor #1592a6
	FontColor #ffffff
}


skinparam artifact {
	BackgroundColor transparent
	BorderColor #4d4d4d
	FontColor #4d4d4d
}


skinparam component {
		FontColor #2e2e2e
	BorderColor #333333
	BackgroundColor transparent
}


skinparam interface {
	BackgroundColor  transparent
	BorderColor  #dc3545
	FontColor #555555
}


skinparam storage {
	BackgroundColor transparent
  	BorderColor #e6ae06
	FontColor #e6ae06
}


skinparam node {
	BackgroundColor  transparent
	BorderColor #ffffff
	FontColor #ffffff
}


skinparam cloud {
	BackgroundColor transparent
	BorderColor #F2FCFE
	FontColor #2e2e2e
}


skinparam database {
		FontColor #2e2e2e
	BorderColor #333333
	BackgroundColor transparent
}


skinparam class {
		FontColor #2e2e2e
	BorderColor #333333
	BackgroundColor transparent
	HeaderBackgroundColor transparent
	StereotypeFontColor #555555
	BorderThickness 1
	AttributeFontColor #555555
	AttributeFontSize 11
}


skinparam object {
		FontColor #2e2e2e
	BorderColor #333333
	BackgroundColor transparent
	StereotypeFontColor #2e2e2e
	BorderThickness 1
	AttributeFontColor #2e2e2e
	AttributeFontSize 11
}


skinparam usecase {
		FontColor #2e2e2e
	BorderColor #333333
	BackgroundColor transparent
	BorderThickness 2
	StereotypeFontColor #333333
}


skinparam rectangle {
		FontColor #2e2e2e
	BorderColor #333333
	BackgroundColor transparent
	BorderThickness 2
	StereotypeFontColor #333333
}


skinparam package {
	BackgroundColor transparent
  	BorderColor #333333
	FontColor #333333
	BorderThickness 2
}


skinparam folder {
	BackgroundColor transparent
  	BorderColor #ffc107
	FontColor #ffc107
	BorderThickness 2
}


skinparam frame {
	BackgroundColor transparent
  	BorderColor #17a2b8
	FontColor #17a2b8
	BorderThickness 2
}


skinparam state {
		FontColor #2e2e2e
	BorderColor #333333
	BackgroundColor transparent
	StartColor #17a2b8
	EndColor #17a2b8
	AttributeFontColor #ffffff
	AttributeFontSize 11
}


skinparam queue {
		FontColor #2e2e2e
	BorderColor #333333
	BackgroundColor transparent
}


skinparam card {
	BackgroundColor transparent
	BorderColor #1592a6
	FontColor #1592a6
}


skinparam file {
	BackgroundColor transparent
	BorderColor #ffffff
	FontColor #ffffff
}


skinparam stack {
		FontColor #2e2e2e
	BorderColor #333333
	BackgroundColor transparent
}

title Component Diagram - sketchy-outline theme


package "My Package" {
  HTTP - [First Component]
  [Another Component]
  rectangle MyRectangle1
  collections MyCollection1
}
 
node "My Node" {
  FTP - [Second Component]
  [First Component] - -> FTP
  rectangle MyRectangle2
} 

cloud "My Cloud" {
  [Example 1]
}

collections MyCollection2

database "My Database" {
  folder "My folder" {
	[Folder 3]
  }
  frame "My Frame" {
	[Frame 4]
  }
}

artifact "My Artifact"
storage "My Storage"
queue "My Queue"
interface "My Interface"
card "My Card"
file "My File"
stack "My Stack"

[Another Component] - -> [Example 1]
[Example 1] - -> [Folder 3]
[Folder 3] - -> [Frame 4]

@enduml

PlantUML version 1.2020.16beta7(Unknown compile time)
(GPL source distribution)
Java Runtime: OpenJDK Runtime Environment
JVM: OpenJDK 64-Bit Server VM
Default Encoding: UTF-8
Language: en
Country: US
--></g></svg>