<?xml version="1.0" encoding="UTF-8" standalone="no"?><svg xmlns="http://www.w3.org/2000/svg" xmlns:xlink="http://www.w3.org/1999/xlink" contentScriptType="application/ecmascript" contentStyleType="text/css" height="1141.6667px" preserveAspectRatio="none" style="width:445px;height:1141px;background:#00000000;" version="1.1" viewBox="0 0 445 1141" width="445.8333px" zoomAndPan="magnify"><defs/><g><polygon fill="#00000000" points="6.25,2.0833,6.25,2.3023,16.5904,1.6517,26.9309,2.2847,37.2713,2.4997,47.6118,1.3402,57.9522,2.0024,68.2927,1.6391,78.6331,1.6839,88.9736,2.0123,99.314,1.3632,109.6545,2.66,119.9949,1.4268,130.3354,1.8773,140.6758,2.5333,151.0163,1.994,161.3567,2.1544,171.6972,2.0501,182.0376,2.2693,192.378,2.3324,202.7185,2.6934,213.0589,2.7823,223.3994,2.7909,233.7398,2.3486,244.0803,2.5662,254.4207,2.8148,264.7612,1.3321,275.1016,2.7901,285.4421,1.7745,295.7825,2.6394,306.123,1.5677,316.4634,2.012,326.8039,2.8558,337.1443,2.0326,347.4848,2.193,357.8252,2.4361,368.1657,2.5169,378.5061,2.0793,388.8465,2.3825,399.187,1.4871,409.5274,2.3796,419.8679,2.6544,430.2083,2.0833,430.2674,2.2259,430.879,2.5241,431.3227,2.4165,431.8894,2.6064,432.4828,2.8603,433.1546,3.3037,433.1357,3.2959,433.3356,3.8669,433.8614,4.5728,433.8308,5.0483,434.0209,5.6152,434.375,6.25,434.4543,6.25,434.1435,13.6003,434.1947,20.9505,434.6003,28.3008,434.5263,35.651,434.375,43.0013,434.6106,43.0989,434.0277,43.5478,433.9892,44.2222,433.8322,44.8475,433.2471,45.2956,433.1546,45.9476,433.1419,45.9168,432.5821,46.2321,432.0627,46.6448,431.3863,46.6785,430.8591,47.0723,430.2083,47.168,430.2083,46.5911,419.8679,46.4625,409.5274,47.6926,399.187,46.4212,388.8465,47.6981,378.5061,47.3832,368.1657,46.8889,357.8252,46.7995,347.4848,47.6458,337.1443,46.8562,326.8039,47.7845,316.4634,46.5922,306.123,47.8111,295.7825,47.6725,285.4421,47.4231,275.1016,47.2172,264.7612,47.9249,254.4207,47.8071,244.0803,47.3443,233.7398,47.4473,223.3994,47.0323,213.0589,47.9143,202.7185,47.3293,192.378,47.3477,182.0376,46.5343,171.6972,46.7459,161.3567,47.7208,151.0163,47.6156,140.6758,47.1232,130.3354,46.8324,119.9949,46.9399,109.6545,46.4532,99.314,47.6,88.9736,47.9383,78.6331,47.7163,68.2927,47.8919,57.9522,47.0255,47.6118,47.2588,37.2713,46.7642,26.9309,47.4638,16.5904,47.425,6.25,47.168,6.3234,47.3452,5.6302,46.8502,5.0536,46.6367,4.5412,46.578,3.9684,46.3737,3.3037,45.9476,3.1393,45.8795,2.9974,45.3326,2.8634,44.7889,2.3755,44.0986,2.4408,43.6375,2.0833,43.0013,2.1729,43.0013,2.0483,35.651,2.1327,28.3008,2.3363,20.9505,1.9747,13.6003,2.0833,6.25,2.1844,6.2919,2.419,5.6987,2.6086,5.0869,2.8608,4.501,3.096,3.9081,3.3037,3.3037,3.2208,3.1035,3.8397,2.9311,4.4209,2.6675,5.08,2.592,5.6725,2.3557,6.25,2.0833" style="stroke: #4D4D4D; stroke-width: 1.0416666666666667;"/><text fill="#2E2E2E" font-family="Segoe Print" font-size="20.8333" lengthAdjust="spacingAndGlyphs" textLength="405.2083" x="15.625" y="31.838">State Diagram - sketchy-outline theme</text><polygon fill="#28A745" points="183.8542,139.8763,183.8542,140.0952,194.2708,139.4447,204.6875,140.0776,215.1042,140.2926,225.5208,139.1332,235.9375,139.7954,246.3542,139.432,256.7708,139.4768,267.1875,139.8763,267.1638,139.8763,266.9474,141.543,267.3797,143.2096,266.9687,144.8763,267.1188,146.543,267.1875,148.2096,267.1875,148.6596,256.7708,148.1203,246.3542,148.2807,235.9375,148.1764,225.5208,148.3956,215.1042,148.4587,204.6875,148.8197,194.2708,148.9086,183.8542,148.2096,184.09,148.2096,183.9426,146.543,184.0151,144.8763,184.098,143.2096,183.6038,141.543,183.8542,139.8763" style="stroke: none; stroke-width: 1.0416666666666667;"/><polygon fill="#17A2B8" points="235.995,69.4934,234.4681,71.5797,232.6621,74.6355,230.0792,76.6949,227.3649,77.821,225.2008,77.9187,222.4192,76.5103,219.7947,75.5902,217.8026,73.7221,216.7576,71.5835,216.1379,69.8806,215.5308,67.6563,214.5454,65.7423,215.3027,63.8735,215.9661,61.8263,218.4558,60.2072,220.2074,58.1065,222.3754,57.4089,224.9528,56.8082,228.258,57.1651,230.0683,58.0189,232.173,58.4058,234.7322,61.0278,235.6243,63.7958,236.0119,65.6844,235.5729,68.7966" style="stroke: none; stroke-width: 1.0416666666666667;"/><g id="State2"><polygon fill="#00000000" points="145.8333,210.7096,145.8333,210.9286,155.625,210.2781,165.4167,210.911,175.2083,211.126,185,209.9665,194.7917,210.7096,194.7813,210.6847,196.5764,211.3356,198.4236,212.1121,200.3069,212.976,202.0655,213.5388,203.9988,214.5233,204.1764,214.5969,204.5593,216.281,205.4608,218.1799,206.4256,220.105,207.0222,221.8776,207.8125,223.7305,207.8362,223.7305,207.8014,229.7656,207.8745,235.8008,207.8955,241.8359,208.0159,247.8711,207.8125,253.9063,208.0278,253.9954,207.2677,255.8379,206.3687,257.6229,205.673,259.4921,204.9868,261.3653,203.9988,263.1134,203.903,262.882,202.2475,264.0938,200.2765,264.5437,198.5454,265.5728,196.5673,266.0055,194.7917,266.9271,194.7917,266.8557,185,267.6996,175.2083,266.8763,165.4167,267.0368,155.625,267.2798,145.8333,266.9271,145.8886,267.0606,143.9914,266.1631,142.1886,265.4937,140.233,264.4552,138.5054,263.9673,136.6262,263.1134,136.8021,263.1862,136.0061,261.331,135.2974,259.512,134.183,257.5249,133.366,255.661,132.8125,253.9063,132.5967,253.9063,132.7921,247.8711,132.7443,241.8359,133.0491,235.8008,132.7518,229.7656,132.8125,223.7305,132.7025,223.6849,133.6485,221.9194,134.1241,219.959,134.9342,218.1372,136.0716,216.451,136.6262,214.5233,136.6841,214.6631,138.5652,213.9962,140.2663,212.8946,142.1929,212.3375,144.0704,211.6618,145.8333,210.7096" style="stroke: #333333; stroke-width: 1.5625;"/><path d="M132.8125,246.0938 L132.8125,246.3857 L143.5268,245.5183 L154.2411,246.3622 L164.9554,246.6489 L175.6696,245.1029 L186.3839,245.9858 L197.0982,245.5014 L207.8125,246.0938 " fill="#00000000" style="stroke: #333333; stroke-width: 1.5625;"/><text fill="#2E2E2E" font-family="Segoe Print" font-size="12.5" lengthAdjust="spacingAndGlyphs" textLength="43.75" x="148.4375" y="232.7291">State2</text></g><g id="State3"><polygon fill="#00000000" points="257.2917,210.7096,257.2917,210.9286,267.0833,210.2781,276.875,210.911,286.6667,211.126,296.4583,209.9665,306.25,210.7096,306.2397,210.6847,308.0348,211.3356,309.8819,212.1121,311.7652,212.976,313.5238,213.5388,315.4571,214.5233,315.6347,214.5969,316.0177,216.281,316.9192,218.1799,317.8839,220.105,318.4806,221.8776,319.2708,223.7305,319.2945,223.7305,319.2597,229.7656,319.3328,235.8008,319.3539,241.8359,319.4742,247.8711,319.2708,253.9063,319.4861,253.9954,318.726,255.8379,317.827,257.6229,317.1313,259.4921,316.4451,261.3653,315.4571,263.1134,315.3613,262.882,313.7059,264.0938,311.7349,264.5437,310.0038,265.5728,308.0256,266.0055,306.25,266.9271,306.25,266.8557,296.4583,267.6996,286.6667,266.8763,276.875,267.0368,267.0833,267.2798,257.2917,266.9271,257.347,267.0606,255.4497,266.1631,253.647,265.4937,251.6913,264.4552,249.9638,263.9673,248.0845,263.1134,248.2604,263.1862,247.4644,261.331,246.7557,259.512,245.6414,257.5249,244.8244,255.661,244.2708,253.9063,244.0551,253.9063,244.2504,247.8711,244.2026,241.8359,244.5074,235.8008,244.2102,229.7656,244.2708,223.7305,244.1608,223.6849,245.1068,221.9194,245.5824,219.959,246.3925,218.1372,247.53,216.451,248.0845,214.5233,248.1424,214.6631,250.0236,213.9962,251.7246,212.8946,253.6512,212.3375,255.5287,211.6618,257.2917,210.7096" style="stroke: #333333; stroke-width: 1.5625;"/><path d="M244.2708,246.0938 L244.2708,246.3857 L254.9851,245.5183 L265.6994,246.3622 L276.4137,246.6489 L287.128,245.1029 L297.8423,245.9858 L308.5565,245.5014 L319.2708,246.0938 " fill="#00000000" style="stroke: #333333; stroke-width: 1.5625;"/><text fill="#2E2E2E" font-family="Segoe Print" font-size="12.5" lengthAdjust="spacingAndGlyphs" textLength="43.75" x="259.8958" y="232.7291">State3</text></g><polygon fill="#28A745" points="183.8542,329.4596,183.8542,329.6786,194.2708,329.0281,204.6875,329.661,215.1042,329.876,225.5208,328.7165,235.9375,329.3787,246.3542,329.0154,256.7708,329.0602,267.1875,329.4596,267.1638,329.4596,266.9474,331.1263,267.3797,332.793,266.9687,334.4596,267.1188,336.1263,267.1875,337.793,267.1875,338.2429,256.7708,337.7036,246.3542,337.8641,235.9375,337.7597,225.5208,337.9789,215.1042,338.0421,204.6875,338.4031,194.2708,338.492,183.8542,337.793,184.09,337.793,183.9426,336.1263,184.0151,334.4596,184.098,332.793,183.6038,331.1263,183.8542,329.4596" style="stroke: none; stroke-width: 1.0416666666666667;"/><g id="State4"><polygon fill="#00000000" points="201.0417,400.293,201.0417,400.5119,210.8333,399.8614,220.625,400.4943,230.4167,400.7093,240.2083,399.5498,250,400.293,249.9897,400.268,251.7848,400.9189,253.6319,401.6954,255.5152,402.5593,257.2738,403.1222,259.2071,404.1067,259.3847,404.1802,259.7677,405.8644,260.6692,407.7633,261.6339,409.6883,262.2306,411.461,263.0208,413.3138,263.0445,413.3138,263.0097,419.349,263.0828,425.3841,263.1039,431.4193,263.2242,437.4544,263.0208,443.4896,263.2361,443.5788,262.476,445.4213,261.577,447.2063,260.8813,449.0755,260.1951,450.9486,259.2071,452.6967,259.1113,452.4654,257.4559,453.6771,255.4849,454.1271,253.7538,455.1562,251.7756,455.5889,250,456.5104,250,456.4391,240.2083,457.2829,230.4167,456.4597,220.625,456.6201,210.8333,456.8632,201.0417,456.5104,201.097,456.6439,199.1997,455.7464,197.397,455.0771,195.4413,454.0386,193.7138,453.5507,191.8345,452.6967,192.0104,452.7695,191.2144,450.9143,190.5057,449.0953,189.3914,447.1082,188.5744,445.2443,188.0208,443.4896,187.8051,443.4896,188.0004,437.4544,187.9526,431.4193,188.2574,425.3841,187.9602,419.349,188.0208,413.3138,187.9108,413.2682,188.8568,411.5027,189.3324,409.5423,190.1425,407.7206,191.28,406.0343,191.8345,404.1067,191.8924,404.2464,193.7736,403.5796,195.4746,402.478,197.4012,401.9209,199.2787,401.2451,201.0417,400.293" style="stroke: #333333; stroke-width: 1.5625;"/><path d="M188.0208,435.6771 L188.0208,435.969 L198.7351,435.1016 L209.4494,435.9455 L220.1637,436.2322 L230.878,434.6863 L241.5923,435.5691 L252.3065,435.0847 L263.0208,435.6771 " fill="#00000000" style="stroke: #333333; stroke-width: 1.5625;"/><text fill="#2E2E2E" font-family="Segoe Print" font-size="12.5" lengthAdjust="spacingAndGlyphs" textLength="43.75" x="203.6458" y="422.3124">State4</text></g><polygon fill="#00000000" points="80.2083,519.043,80.2083,519.2619,90.5878,518.6114,100.9673,519.2443,111.3467,519.4593,121.7262,518.2998,132.1057,518.962,142.4851,518.5987,152.8646,518.6435,163.244,518.972,173.6235,518.3228,184.003,519.6197,194.3824,518.3864,204.7619,518.837,215.1414,519.4929,225.5208,518.9536,235.9003,519.1141,246.2798,519.0097,256.6592,519.2289,267.0387,519.2921,277.4182,519.6531,287.7976,519.742,298.1771,519.7505,308.5565,519.3082,318.936,519.5259,329.3155,519.7745,339.6949,518.2917,350.0744,519.7498,360.4539,518.7341,370.8333,519.043,370.9043,519.2142,372.609,519.6469,374.5071,520.5465,376.4561,521.5691,378.1926,522.0783,380.0405,522.8567,380.0742,522.8707,380.9118,524.7431,381.6995,526.5948,382.3274,528.3804,383.1836,530.2605,383.8542,532.0638,383.2579,532.0638,384.1504,542.5153,384.4252,552.9669,384.3172,563.4184,384.4927,573.87,383.351,584.3215,383.1748,594.7731,383.2069,605.2246,383.7928,615.6762,383.6494,626.1277,384.564,636.5792,383.6722,647.0308,383.4968,657.4823,384.0919,667.9339,383.1595,678.3854,383.3134,688.837,384.5302,699.2885,384.308,709.74,384.6193,720.1916,383.519,730.6431,384.1867,741.0947,384.4692,751.5462,383.3621,761.9978,383.7543,772.4493,383.9854,782.9009,384.5331,793.3524,383.8498,803.8039,384.336,814.2555,383.2773,824.707,383.1487,835.1586,384.3788,845.6101,383.1074,856.0617,384.3843,866.5132,384.0694,876.9648,383.5751,887.4163,383.4857,897.8678,384.332,908.3194,383.5424,918.7709,384.4707,929.2225,383.2784,939.674,384.4973,950.1256,384.3586,960.5771,384.1093,971.0286,383.9034,981.4802,384.6111,991.9317,384.4933,1002.3833,384.0305,1012.8348,384.1335,1023.2864,383.7185,1033.7379,384.6005,1044.1895,384.0155,1054.641,384.0339,1065.0925,383.2205,1075.5441,383.4321,1085.9956,384.407,1096.4472,384.3018,1106.8987,383.8542,1117.3503,383.8404,1117.3446,382.9881,1119.1489,382.2585,1121.004,381.3458,1122.7834,380.9362,1124.7711,380.0405,1126.5574,380.1387,1126.7946,378.269,1127.489,376.4499,1128.3058,374.498,1128.8017,372.6863,1129.6363,370.8333,1130.3711,370.8333,1129.9673,360.4539,1130.667,350.0744,1130.6281,339.6949,1130.9465,329.3155,1130.1319,318.936,1130.2311,308.5565,1130.833,298.1771,1130.9621,287.7976,1129.8372,277.4182,1130.1691,267.0387,1130.5266,256.6592,1129.7348,246.2798,1130.7392,235.9003,1130.6398,225.5208,1130.2661,215.1414,1130.5193,204.7619,1131.1301,194.3824,1130.0452,184.003,1130.6992,173.6235,1130.6686,163.244,1130.4917,152.8646,1130.5179,142.4851,1130.4893,132.1057,1129.7209,121.7262,1129.9536,111.3467,1129.8903,100.9673,1130.4376,90.5878,1130.4629,80.2083,1130.3711,80.2298,1130.423,78.3282,1129.515,76.5165,1128.8239,74.6681,1128.0443,72.9193,1127.5052,71.0012,1126.5574,71.1381,1126.6141,70.0827,1124.6514,69.4523,1122.8648,68.5278,1120.9564,68.0428,1119.23,67.1875,1117.3503,67.8213,1117.3503,67.7548,1106.8987,66.7338,1096.4472,67.6708,1085.9956,66.4137,1075.5441,67.396,1065.0925,66.8757,1054.641,67.2883,1044.1895,67.4378,1033.7379,67.6793,1023.2864,66.4376,1012.8348,67.6828,1002.3833,67.3731,991.9317,67.5576,981.4802,67.9665,971.0286,67.1932,960.5771,67.3701,950.1256,67.4098,939.674,67.393,929.2225,67.1867,918.7709,67.9278,908.3194,66.5524,897.8678,67.7763,887.4163,66.5375,876.9648,66.6247,866.5132,67.2292,856.0617,67.217,845.6101,66.6741,835.1586,67.6185,824.707,67.3009,814.2555,67.9444,803.8039,67.8824,793.3524,66.7206,782.9009,66.773,772.4493,67.0529,761.9978,67.5578,751.5462,67.6073,741.0947,67.5012,730.6431,66.8313,720.1916,67.8504,709.74,67.8477,699.2885,67.1382,688.837,66.9385,678.3854,66.7694,667.9339,66.964,657.4823,67.3306,647.0308,67.1163,636.5792,66.7523,626.1277,67.6952,615.6762,66.7094,605.2246,67.7108,594.7731,67.6325,584.3215,67.5749,573.87,67.9089,563.4184,66.9314,552.9669,66.8743,542.5153,67.1875,532.0638,67.354,532.1327,67.7588,530.1431,68.6379,528.3499,69.5128,526.5549,70.2605,524.7072,71.0012,522.8567,70.9536,522.7417,72.8369,522.0802,74.783,521.5701,76.6117,520.7765,78.2877,519.6144,80.2083,519.043" style="stroke: #333333; stroke-width: 1.5625;"/><polygon fill="#00000000" points="83.3333,557.5521,83.3333,557.771,93.8657,557.1205,104.3981,557.7534,114.9306,557.9684,125.463,556.809,135.9954,557.4711,146.5278,557.1078,157.0602,557.1526,167.5926,557.4811,178.125,556.8319,188.6574,558.1288,199.1898,556.8955,209.7222,557.3461,220.2546,558.002,230.787,557.4627,241.3194,557.6232,251.8519,557.5188,262.3843,557.738,272.9167,557.8012,283.4491,558.1622,293.9815,558.2511,304.5139,558.2596,315.0463,557.8173,325.5787,558.035,336.1111,558.2836,346.6435,556.8008,357.1759,558.2589,367.7083,557.5521,367.6689,557.457,369.6207,558.4861,371.3254,558.9188,373.2235,559.8183,375.1726,560.841,376.9155,561.3658,376.8998,561.3593,377.712,563.2212,378.5496,565.0936,379.3372,566.9454,379.9652,568.731,380.7292,570.5729,381.0283,570.5729,380.1329,581.0278,381.0254,591.4826,381.3002,601.9375,381.1922,612.3923,381.3677,622.8472,380.226,633.302,380.0498,643.7569,380.0819,654.2117,380.6678,664.6666,380.5244,675.1214,381.439,685.5763,380.5472,696.0311,380.3718,706.486,380.9669,716.9409,380.0345,727.3957,380.1884,737.8506,381.4052,748.3054,381.183,758.7603,381.4943,769.2151,380.394,779.67,381.0617,790.1248,381.3442,800.5797,380.2371,811.0345,380.6293,821.4894,380.8604,831.9442,381.4081,842.3991,380.7248,852.8539,381.211,863.3088,380.1523,873.7636,380.0237,884.2185,381.2538,894.6734,379.9824,905.1282,381.2593,915.5831,380.9444,926.0379,380.4501,936.4928,380.3607,946.9476,381.207,957.4025,380.4174,967.8573,381.3457,978.3122,380.1534,988.767,381.3723,999.2219,381.2336,1009.6767,380.9843,1020.1316,380.7784,1030.5864,381.4861,1041.0413,381.3683,1051.4961,380.9055,1061.951,381.0085,1072.4058,380.5935,1082.8607,381.4755,1093.3156,380.8905,1103.7704,380.7292,1114.2253,380.7845,1114.2482,379.7713,1115.9858,379.0737,1117.8543,378.6112,1119.8201,377.8161,1121.6481,376.9155,1123.4324,376.9097,1123.4186,375.0312,1124.0918,373.2035,1124.8876,371.3,1125.5005,369.6049,1126.6164,367.7083,1127.2461,367.7083,1128.0165,357.1759,1127.7944,346.6435,1127.97,336.1111,1127.1037,325.5787,1127.3369,315.0463,1126.8423,304.5139,1127.542,293.9815,1127.5031,283.4491,1127.8215,272.9167,1127.0069,262.3843,1127.1061,251.8519,1127.708,241.3194,1127.8371,230.787,1126.7122,220.2546,1127.0441,209.7222,1127.4016,199.1898,1126.6098,188.6574,1127.6142,178.125,1127.5148,167.5926,1127.1411,157.0602,1127.3943,146.5278,1128.0051,135.9954,1126.9202,125.463,1127.5742,114.9306,1127.5436,104.3981,1127.3667,93.8657,1127.3929,83.3333,1127.2461,83.3484,1127.2825,81.409,1126.2831,79.5972,1125.592,77.7477,1124.8098,75.9761,1124.2156,74.1262,1123.4324,74.1545,1123.4441,73.4154,1121.6124,72.5074,1119.7109,71.8163,1117.8991,71.0367,1116.0507,70.3125,1114.2253,70.9134,1114.2253,70.7568,1103.7704,69.8067,1093.3156,70.2365,1082.8607,69.7112,1072.4058,70.6129,1061.951,70.9463,1051.4961,70.8798,1041.0413,69.8588,1030.5864,70.7958,1020.1316,69.5387,1009.6767,70.521,999.2219,70.0007,988.767,70.4133,978.3122,70.5628,967.8573,70.8043,957.4025,69.5626,946.9476,70.8078,936.4928,70.4981,926.0379,70.6826,915.5831,71.0915,905.1282,70.3182,894.6734,70.4951,884.2185,70.5348,873.7636,70.518,863.3088,70.3117,852.8539,71.0528,842.3991,69.6774,831.9442,70.9013,821.4894,69.6625,811.0345,69.7497,800.5797,70.3542,790.1248,70.342,779.67,69.7991,769.2151,70.7435,758.7603,70.4259,748.3054,71.0694,737.8506,71.0074,727.3957,69.8456,716.9409,69.898,706.486,70.1779,696.0311,70.6828,685.5763,70.7323,675.1214,70.6262,664.6666,69.9563,654.2117,70.9754,643.7569,70.9727,633.302,70.2632,622.8472,70.0635,612.3923,69.8944,601.9375,70.089,591.4826,70.4556,581.0278,70.3125,570.5729,70.2906,570.5638,70.9412,568.676,71.9943,566.9548,72.4535,564.9877,73.5246,563.274,74.1262,561.3658,74.183,561.5029,76.017,560.7223,77.9011,560.0625,79.6178,558.9987,81.452,558.2184,83.3333,557.5521" style="stroke: #00000000; stroke-width: 1.0416666666666667;"/><path d="M67.1875,554.4271 L67.1875,554.719 L77.7431,553.8516 L88.2986,554.6955 L98.8542,554.9822 L109.4097,553.4363 L119.9653,554.3191 L130.5208,553.8347 L141.0764,553.8944 L151.6319,554.3324 L162.1875,553.4668 L172.7431,555.196 L183.2986,553.5517 L193.8542,554.1524 L204.4097,555.027 L214.9653,554.3079 L225.5208,554.5219 L236.0764,554.3827 L246.6319,554.675 L257.1875,554.7592 L267.7431,555.2405 L278.2986,555.3591 L288.8542,555.3705 L299.4097,554.7807 L309.9653,555.071 L320.5208,555.4024 L331.0764,553.4254 L341.6319,555.3695 L352.1875,554.0153 L362.7431,555.1685 L373.2986,553.7396 L383.8542,554.4271 " fill="#00000000" style="stroke: #333333; stroke-width: 1.5625;"/><text fill="#2E2E2E" font-family="Segoe Print" font-size="12.5" lengthAdjust="spacingAndGlyphs" textLength="38.5417" x="206.25" y="541.0624">Active</text><polygon fill="#17A2B8" points="99.5367,597.5858,98.0098,599.6722,96.2038,602.7279,93.6209,604.7873,90.9066,605.9135,88.7424,606.0112,85.9609,604.6028,83.3363,603.6827,81.3443,601.8146,80.2993,599.6759,79.6796,597.973,79.0725,595.7488,78.0871,593.8347,78.8443,591.9659,79.5078,589.9188,81.9974,588.2997,83.749,586.199,85.917,585.5014,88.4944,584.9006,91.7996,585.2575,93.6099,586.1113,95.7147,586.4983,98.2738,589.1202,99.166,591.8882,99.5536,593.7768,99.1145,596.8891" style="stroke: none; stroke-width: 1.0416666666666667;"/><g id="Active.NumLockOff"><polygon fill="#00000000" points="131.7708,566.9271,131.7708,567.146,141.9271,566.4955,152.0833,567.1284,162.2396,567.3434,172.3958,566.184,182.5521,566.8461,192.7083,566.4828,202.8646,566.5276,213.0208,566.9271,213.0118,566.9052,214.7704,567.468,216.7772,568.6302,218.4614,569.0131,220.3603,569.9146,222.228,570.7408,222.3665,570.7982,222.9632,572.5708,223.7753,574.4327,224.5059,576.2608,225.3362,578.1302,226.0417,579.9479,226.1247,579.9479,226.245,585.9831,226.2747,592.0182,226.2775,598.0534,226.1301,604.0885,226.0417,610.1237,226.1904,610.1853,225.5042,612.0584,224.2848,613.7107,223.9711,615.7381,222.8956,617.45,222.228,619.3308,222.2989,619.5021,220.3208,619.9348,218.536,620.8343,216.8022,621.8569,214.8558,622.3662,213.0208,623.1445,213.0208,623.2542,202.8646,623.4973,192.7083,623.5781,182.5521,623.1405,172.3958,623.4437,162.2396,622.5483,152.0833,623.4408,141.9271,623.7156,131.7708,623.1445,131.8299,623.2871,130.0109,622.5784,128.0238,621.4641,126.1599,620.6471,124.3226,619.8942,122.5637,619.3308,122.5448,619.323,121.7379,617.4633,121.2568,615.7385,120.2195,613.7833,119.4027,611.9195,118.75,610.1237,118.8293,610.1237,118.5185,604.0885,118.5697,598.0534,118.9753,592.0182,118.9013,585.9831,118.75,579.9479,118.9856,580.0455,119.4095,578.0637,120.3779,576.3075,121.2276,574.5021,121.6494,572.5194,122.5637,570.7408,122.551,570.71,124.4219,570.0185,126.3332,569.4244,128.0874,568.4512,129.9909,567.8382,131.7708,566.9271" style="stroke: #333333; stroke-width: 1.5625;"/><path d="M118.75,602.3112 L118.75,602.6031 L129.4792,601.7358 L140.2083,602.5797 L150.9375,602.8663 L161.6667,601.3204 L172.3958,602.2033 L183.125,601.7188 L193.8542,601.7786 L204.5833,602.2165 L215.3125,601.351 L226.0417,602.3112 " fill="#00000000" style="stroke: #333333; stroke-width: 1.5625;"/><text fill="#2E2E2E" font-family="Segoe Print" font-size="12.5" lengthAdjust="spacingAndGlyphs" textLength="76.0417" x="134.375" y="588.9465">NumLockOff</text></g><g id="Active.NumLockOn"><polygon fill="#00000000" points="131.7708,686.7188,131.7708,686.9377,141.9271,686.2872,152.0833,686.9201,162.2396,687.1351,172.3958,685.9756,182.5521,686.6378,192.7083,686.2745,202.8646,686.3193,213.0208,686.7188,213.0118,686.6969,214.7704,687.2597,216.7772,688.4218,218.4614,688.8048,220.3603,689.7063,222.228,690.5325,222.3665,690.5899,222.9632,692.3625,223.7753,694.2244,224.5059,696.0525,225.3362,697.9219,226.0417,699.7396,226.1247,699.7396,226.245,705.7747,226.2747,711.8099,226.2775,717.8451,226.1301,723.8802,226.0417,729.9154,226.1904,729.977,225.5042,731.8501,224.2848,733.5024,223.9711,735.5298,222.8956,737.2417,222.228,739.1225,222.2989,739.2937,220.3208,739.7264,218.536,740.626,216.8022,741.6486,214.8558,742.1578,213.0208,742.9362,213.0208,743.0459,202.8646,743.2889,192.7083,743.3698,182.5521,742.9321,172.3958,743.2354,162.2396,742.3399,152.0833,743.2324,141.9271,743.5072,131.7708,742.9362,131.8299,743.0788,130.0109,742.3701,128.0238,741.2557,126.1599,740.4388,124.3226,739.6859,122.5637,739.1225,122.5448,739.1147,121.7379,737.2549,121.2568,735.5302,120.2195,733.575,119.4027,731.7112,118.75,729.9154,118.8293,729.9154,118.5185,723.8802,118.5697,717.8451,118.9753,711.8099,118.9013,705.7747,118.75,699.7396,118.9856,699.8372,119.4095,697.8554,120.3779,696.0991,121.2276,694.2938,121.6494,692.3111,122.5637,690.5325,122.551,690.5017,124.4219,689.8101,126.3332,689.2161,128.0874,688.2429,129.9909,687.6299,131.7708,686.7188" style="stroke: #333333; stroke-width: 1.5625;"/><path d="M118.75,722.1029 L118.75,722.3948 L129.4792,721.5274 L140.2083,722.3713 L150.9375,722.658 L161.6667,721.112 L172.3958,721.9949 L183.125,721.5105 L193.8542,721.5702 L204.5833,722.0082 L215.3125,721.1426 L226.0417,722.1029 " fill="#00000000" style="stroke: #333333; stroke-width: 1.5625;"/><text fill="#2E2E2E" font-family="Segoe Print" font-size="12.5" lengthAdjust="spacingAndGlyphs" textLength="76.0417" x="134.375" y="708.7382">NumLockOn</text></g><!--MD5=[f1e44e9cdf7ed6fd162579f896fb76ea]
link *start*Active to NumLockOff--><path d="M99.4792,595.0521 L99.4792,595.1494 L102.2224,594.8603 L104.9657,595.1416 L107.709,595.2371 L110.4523,594.7218 L113.1955,595.0521 " fill="none" style="stroke: #333333; stroke-width: 3.125;"/><polygon fill="#333333" points="118.5628,595.0521,118.5925,595.1188,116.6294,594.0873,114.8401,593.4467,112.9942,592.6789,110.9622,591.4924,109.1878,590.8854,109.1687,590.8663,109.9164,591.614,110.7603,592.4579,111.6711,593.3687,112.3514,594.049,113.3545,595.0521,113.4904,595.188,112.3664,595.7307,111.6393,596.6702,110.9605,597.6581,110.0001,598.3644,109.1878,599.2188,109.1974,599.2404,111.0583,598.3753,112.963,597.6087,114.8465,596.7946,116.7704,596.0713,118.5628,595.0521" style="stroke: #333333; stroke-width: 3.125;"/><!--MD5=[b6ef3c088f5474ecc81df30475e7d61b]
link NumLockOff to NumLockOn--><path d="M118.6682,621.1658 L118.7212,621.2474 L115.253,623.1552 L112.0956,625.5414 L108.8369,627.7718 L105.2455,629.4899 L102.1147,631.9171 L102.0892,631.8918 L99.9891,633.7801 L98.0178,635.7961 L96.136,637.9009 L93.9457,639.6997 L92.1875,641.9271 L92.4308,642.0078 L91.0465,644.4394 L90.3724,647.1066 L89.7851,649.8026 L88.6935,652.3312 L87.8671,654.9479 L87.8971,654.9579 L88.7171,657.5474 L89.6737,660.1823 L90.5644,662.7953 L91.5808,665.45 L92.1875,667.9688 L92.4341,668.1577 L94.38,670.695 L96.1668,673.1103 L98.1865,675.7041 L100.217,678.3062 L101.9018,680.6434 L101.6872,680.3877 L104.5747,682.9583 L106.7554,684.6869 L109.4735,687.0556 L111.6381,688.7651 L114.2564,691.0149 " fill="none" style="stroke: #333333; stroke-width: 3.125;"/><polygon fill="#333333" points="118.6575,693.9389,118.7191,693.978,117.4355,692.13,116.5129,690.5115,115.4728,688.8183,114.046,686.8793,113.1544,685.2805,113.128,685.2751,113.2422,686.4064,113.4898,687.5646,113.8301,688.7415,113.851,689.854,114.3193,691.0567,114.3573,691.2452,113.1208,691.0752,111.9952,691.4554,110.8832,691.9027,109.6924,691.9594,108.543,692.2216,108.547,692.245,110.5641,692.5541,112.5992,692.9696,114.6256,693.3338,116.6686,693.7959,118.6575,693.9389" style="stroke: #333333; stroke-width: 3.125;"/><text fill="#2E2E2E" font-family="Segoe Print" font-size="12.5" lengthAdjust="spacingAndGlyphs" textLength="126.0417" x="98.4375" y="659.7799">EvNumLockPressed</text><!--MD5=[3bfddee0d82dc74c927fbeb3d3f2e6a3]
link NumLockOn to NumLockOff--><path d="M216.9765,686.5704 L217.0495,686.6347 L218.376,684.6914 L220.1305,683.1251 L221.7457,681.436 L222.9024,679.3431 L224.6937,677.8092 L224.663,677.7903 L225.7325,675.7378 L226.9565,673.7802 L228.2881,671.8884 L229.2492,669.7695 L230.7292,667.9688 L230.9755,668.0397 L231.1991,665.2838 L232.1419,662.7351 L233.1724,660.2116 L233.6924,657.5411 L234.481,654.9479 L234.5113,654.9567 L233.7164,652.3397 L233.0597,649.7625 L232.3363,647.1661 L231.7401,644.6063 L230.7292,641.9271 L230.9859,642.102 L228.9953,639.1779 L226.8391,636.1409 L224.9253,633.2691 L223.0228,630.405 L220.7604,627.2956 " fill="none" style="stroke: #333333; stroke-width: 3.125;"/><polygon fill="#333333" points="216.9765,623.3254,217.0452,623.35,217.5313,625.2092,218.4204,627.2124,219.1782,629.1688,219.5046,630.971,220.4282,632.9865,220.4013,632.9859,220.3085,631.8048,220.3517,630.627,220.4895,629.4514,220.3015,628.2681,220.5698,627.0957,220.5744,627.2879,221.7427,626.9052,222.9245,627.0836,224.1079,627.3305,225.2817,627.1791,226.4606,627.2372,226.4697,627.2591,224.5596,626.4446,222.6906,625.7298,220.8018,624.9669,218.9508,624.2958,216.9765,623.3254" style="stroke: #333333; stroke-width: 3.125;"/><text fill="#2E2E2E" font-family="Segoe Print" font-size="12.5" lengthAdjust="spacingAndGlyphs" textLength="126.0417" x="240.1042" y="659.7799">EvNumLockPressed</text><path d="M72.3958,748.1445 L72.3958,748.4365 L82.8843,747.5691 L93.3728,748.413 L103.8614,748.6996 L114.3499,747.1537 L124.8384,748.0366 L135.3269,747.5522 L145.8154,747.6119 L156.3039,748.0499 L166.7924,747.1843 L177.2809,748.9135 L187.7694,747.2691 L198.2579,747.8699 L208.7464,748.7445 L219.2349,748.0254 L229.7234,748.2393 L240.2119,748.1002 L250.7004,748.3925 L261.1889,748.4767 L271.6774,748.958 L282.1659,749.0766 L292.6545,749.0879 L303.143,748.4982 L313.6315,748.7884 L324.12,749.1199 L334.6085,747.1429 L345.097,749.0869 L355.5855,747.7327 L366.074,748.8859 L376.5625,748.1445 " fill="none" style="stroke: #333333; stroke-width: 1.5625; stroke-dasharray: 8.0,10.0;"/><polygon fill="#17A2B8" points="99.5367,786.0949,98.0098,788.1813,96.2038,791.2371,93.6209,793.2964,90.9066,794.4226,88.7424,794.5203,85.9609,793.1119,83.3363,792.1918,81.3443,790.3237,80.2993,788.185,79.6796,786.4822,79.0725,784.2579,78.0871,782.3438,78.8443,780.475,79.5078,778.4279,81.9974,776.8088,83.749,774.7081,85.917,774.0105,88.4944,773.4097,91.7996,773.7667,93.6099,774.6204,95.7147,775.0074,98.2738,777.6294,99.166,780.3973,99.5536,782.286,99.1145,785.3982" style="stroke: none; stroke-width: 1.0416666666666667;"/><g id="Active.CONC87.CapsLockOff"><polygon fill="#00000000" points="131.25,755.4362,131.25,755.6551,141.7969,755.0046,152.3438,755.6375,162.8906,755.8525,173.4375,754.6931,183.9844,755.3552,194.5313,754.9919,205.0781,755.0367,215.625,755.4362,215.6159,755.4143,217.3746,755.9772,219.3814,757.1393,221.0655,757.5222,222.9644,758.4237,224.8321,759.2499,224.9707,759.3073,225.5673,761.0799,226.3795,762.9418,227.1101,764.7699,227.9404,766.6393,228.6458,768.457,228.7289,768.457,228.8492,774.4922,228.8788,780.5273,228.8817,786.5625,228.7342,792.5977,228.6458,798.6328,228.7945,798.6944,228.1084,800.5675,226.889,802.2198,226.5753,804.2472,225.4997,805.9591,224.8321,807.8399,224.9031,808.0112,222.9249,808.4439,221.1402,809.3434,219.4064,810.3661,217.4599,810.8753,215.625,811.6536,215.625,811.7633,205.0781,812.0064,194.5313,812.0872,183.9844,811.6496,173.4375,811.9528,162.8906,811.0574,152.3438,811.9499,141.7969,812.2247,131.25,811.6536,131.3091,811.7962,129.49,811.0876,127.503,809.9732,125.6391,809.1562,123.8017,808.4033,122.0429,807.8399,122.024,807.8321,121.2171,805.9724,120.736,804.2476,119.6986,802.2924,118.8819,800.4287,118.2292,798.6328,118.3084,798.6328,117.9976,792.5977,118.0489,786.5625,118.4545,780.5273,118.3804,774.4922,118.2292,768.457,118.4648,768.5546,118.8887,766.5728,119.857,764.8166,120.7068,763.0112,121.1286,761.0286,122.0429,759.2499,122.0301,759.2192,123.901,758.5276,125.8123,757.9335,127.5666,756.9603,129.47,756.3473,131.25,755.4362" style="stroke: #333333; stroke-width: 1.5625;"/><path d="M118.2292,790.8203 L118.2292,791.1122 L128.267,790.2449 L138.3049,791.0888 L148.3428,791.3754 L158.3807,789.8295 L168.4186,790.7124 L178.4564,790.228 L188.4943,790.2877 L198.5322,790.7257 L208.5701,789.8601 L218.608,791.5893 L228.6458,790.8203 " fill="#00000000" style="stroke: #333333; stroke-width: 1.5625;"/><text fill="#2E2E2E" font-family="Segoe Print" font-size="12.5" lengthAdjust="spacingAndGlyphs" textLength="79.1667" x="133.8542" y="777.4556">CapsLockOff</text></g><g id="Active.CONC87.CapsLockOn"><polygon fill="#00000000" points="130.2083,875.2279,130.2083,875.4468,140.7552,874.7963,151.3021,875.4292,161.849,875.6442,172.3958,874.4847,182.9427,875.1469,193.4896,874.7836,204.0365,874.8284,214.5833,875.2279,214.5743,875.206,216.3329,875.7688,218.3397,876.931,220.0239,877.3139,221.9228,878.2154,223.7905,879.0416,223.929,879.099,224.5257,880.8716,225.3378,882.7335,226.0684,884.5616,226.8987,886.431,227.6042,888.2487,227.6872,888.2487,227.8075,894.2839,227.8372,900.319,227.84,906.3542,227.6926,912.3893,227.6042,918.4245,227.7529,918.4861,227.0667,920.3592,225.8473,922.0115,225.5336,924.0389,224.4581,925.7508,223.7905,927.6316,223.8614,927.8028,221.8833,928.2355,220.0985,929.1351,218.3647,930.1577,216.4183,930.6669,214.5833,931.4453,214.5833,931.555,204.0365,931.798,193.4896,931.8789,182.9427,931.4412,172.3958,931.7445,161.849,930.849,151.3021,931.7415,140.7552,932.0163,130.2083,931.4453,130.2674,931.5879,128.4484,930.8792,126.4613,929.7649,124.5974,928.9479,122.7601,928.195,121.0012,927.6316,120.9823,927.6238,120.1754,925.7641,119.6943,924.0393,118.657,922.0841,117.8402,920.2203,117.1875,918.4245,117.2668,918.4245,116.956,912.3893,117.0072,906.3542,117.4128,900.319,117.3388,894.2839,117.1875,888.2487,117.4231,888.3463,117.847,886.3645,118.8154,884.6083,119.6651,882.8029,120.0869,880.8202,121.0012,879.0416,120.9885,879.0108,122.8594,878.3193,124.7707,877.7252,126.5249,876.752,128.4284,876.139,130.2083,875.2279" style="stroke: #333333; stroke-width: 1.5625;"/><path d="M117.1875,910.612 L117.1875,910.9039 L127.2254,910.0365 L137.2633,910.8804 L147.3011,911.1671 L157.339,909.6212 L167.3769,910.504 L177.4148,910.0196 L187.4527,910.0793 L197.4905,910.5173 L207.5284,909.6517 L217.5663,911.3809 L227.6042,910.612 " fill="#00000000" style="stroke: #333333; stroke-width: 1.5625;"/><text fill="#2E2E2E" font-family="Segoe Print" font-size="12.5" lengthAdjust="spacingAndGlyphs" textLength="79.1667" x="132.8125" y="897.2473">CapsLockOn</text></g><!--MD5=[70bdb58272bc1a7d9e9d21dfe0316432]
link *start*CONC87 to CapsLockOff--><path d="M99.6094,783.5612 L99.6094,783.6585 L102.2049,783.3694 L104.8004,783.6507 L107.3959,783.7462 L109.9915,783.2309 L112.587,783.5612 " fill="none" style="stroke: #333333; stroke-width: 3.125;"/><polygon fill="#333333" points="118.0665,783.5612,118.0961,783.6279,116.133,782.5964,114.3437,781.9559,112.4978,781.188,110.4659,780.0015,108.6915,779.3945,108.6724,779.3755,109.4201,780.1232,110.264,780.967,111.1747,781.8778,111.855,782.5581,112.8581,783.5612,112.9941,783.6971,111.87,784.2398,111.1429,785.1793,110.4642,786.1673,109.5037,786.8735,108.6915,787.7279,108.7011,787.7495,110.562,786.8844,112.4666,786.1178,114.3502,785.3037,116.2741,784.5804,118.0665,783.5612" style="stroke: #333333; stroke-width: 3.125;"/><!--MD5=[dc4675bd3056f3ef68701d9e8e02a3f3]
link CapsLockOff to CapsLockOn--><path d="M117.8975,809.7899 L117.9498,809.872 L114.4511,811.7592 L111.2591,814.1273 L107.9672,816.3389 L104.3469,818.0353 L101.1812,820.4448 L101.1558,820.4193 L99.0348,822.3031 L97.0418,824.3155 L95.1377,826.4173 L92.9271,828.2111 L91.1458,830.4362 L91.3889,830.5175 L89.9987,832.9466 L89.3183,835.6131 L88.7244,838.3085 L87.6267,840.8355 L86.794,843.4511 L86.824,843.4611 L87.6504,846.0517 L88.6131,848.688 L89.5101,851.3022 L90.5327,853.9584 L91.1458,856.4779 L91.3928,856.6664 L93.2668,859.1192 L94.9815,861.4505 L96.9294,863.9597 L98.8882,866.4773 L100.5008,868.7305 L100.2842,868.4764 L103.074,870.9888 L105.1508,872.6645 L107.7696,874.9763 L109.8302,876.633 L112.3483,878.8266 " fill="none" style="stroke: #333333; stroke-width: 3.125;"/><polygon fill="#333333" points="117.1419,882.0517,117.2037,882.0905,115.9295,880.2372,115.0178,878.6112,113.988,876.9112,112.5702,874.9677,111.6895,873.3613,111.663,873.3561,111.7704,874.4895,112.0113,875.6489,112.3449,876.8265,112.3588,877.9416,112.8206,879.1443,112.8575,879.3329,111.622,879.1557,110.4942,879.5293,109.3796,879.9701,108.1885,880.0199,107.0376,880.2753,107.0417,880.2987,109.0565,880.6197,111.09,881.0469,113.1145,881.4229,115.1562,881.8967,117.1419,882.0517" style="stroke: #333333; stroke-width: 3.125;"/><text fill="#2E2E2E" font-family="Segoe Print" font-size="12.5" lengthAdjust="spacingAndGlyphs" textLength="129.1667" x="97.3958" y="848.289">EvCapsLockPressed</text><!--MD5=[79e17b083e07746bd1a647600952cab6]
link CapsLockOn to CapsLockOff--><path d="M218.8355,875.0157 L218.9079,875.0807 L220.2593,873.1447 L222.0349,871.5899 L223.6723,869.911 L224.8555,867.8237 L226.6675,866.3017 L226.637,866.2827 L227.7291,864.2322 L228.975,862.278 L230.3277,860.3907 L231.3121,858.2729 L232.8125,856.4779 L233.0585,856.5497 L233.2928,853.7935 L234.2454,851.2471 L235.2856,848.7263 L235.816,846.0565 L236.6145,843.465 L236.6448,843.4739 L235.8399,840.8551 L235.173,838.2767 L234.4396,835.6787 L233.8332,833.1179 L232.8125,830.4362 L233.0682,830.6126 L231.0398,827.6695 L228.8465,824.6127 L226.8945,821.7224 L224.954,818.84 L222.6548,815.7102 " fill="none" style="stroke: #333333; stroke-width: 3.125;"/><polygon fill="#333333" points="218.8018,811.7265,218.8703,811.7516,219.3712,813.6042,220.274,815.6037,221.0459,817.5554,221.3875,819.3498,222.3247,821.3619,222.2977,821.3614,222.1963,820.1811,222.2308,819.003,222.3599,817.8265,222.1632,816.6445,222.4228,815.4702,222.426,815.6624,223.5975,815.271,224.7784,815.4407,225.9603,815.679,227.1357,815.5189,228.3145,815.5683,228.3234,815.5902,226.4078,814.7896,224.5326,814.089,222.638,813.3402,220.7805,812.6834,218.8018,811.7265" style="stroke: #333333; stroke-width: 3.125;"/><text fill="#2E2E2E" font-family="Segoe Print" font-size="12.5" lengthAdjust="spacingAndGlyphs" textLength="129.1667" x="243.2292" y="848.289">EvCapsLockPressed</text><path d="M72.3958,936.6536 L72.3958,936.9456 L82.8843,936.0782 L93.3728,936.9221 L103.8614,937.2088 L114.3499,935.6628 L124.8384,936.5457 L135.3269,936.0613 L145.8154,936.121 L156.3039,936.559 L166.7924,935.6934 L177.2809,937.4226 L187.7694,935.7783 L198.2579,936.379 L208.7464,937.2536 L219.2349,936.5345 L229.7234,936.7484 L240.2119,936.6093 L250.7004,936.9016 L261.1889,936.9858 L271.6774,937.4671 L282.1659,937.5857 L292.6545,937.5971 L303.143,937.0073 L313.6315,937.2975 L324.12,937.629 L334.6085,935.652 L345.097,937.596 L355.5855,936.2418 L366.074,937.3951 L376.5625,936.6536 " fill="none" style="stroke: #333333; stroke-width: 1.5625; stroke-dasharray: 8.0,10.0;"/><polygon fill="#17A2B8" points="99.5367,974.6041,98.0098,976.6904,96.2038,979.7462,93.6209,981.8055,90.9066,982.9317,88.7424,983.0294,85.9609,981.621,83.3363,980.7009,81.3443,978.8328,80.2993,976.6942,79.6796,974.9913,79.0725,972.767,78.0871,970.853,78.8443,968.9841,79.5078,966.937,81.9974,965.3179,83.749,963.2172,85.917,962.5196,88.4944,961.9188,91.7996,962.2758,93.6099,963.1295,95.7147,963.5165,98.2738,966.1385,99.166,968.9064,99.5536,970.7951,99.1145,973.9073" style="stroke: none; stroke-width: 1.0416666666666667;"/><g id="Active.CONC95.ScrollLockOff"><polygon fill="#00000000" points="131.7708,943.9453,131.7708,944.1643,142.7083,943.5137,153.6458,944.1467,164.5833,944.3616,175.5208,943.2022,186.4583,943.8644,197.3958,943.501,208.3333,943.5458,219.2708,943.9453,219.2618,943.9234,221.0204,944.4863,223.0272,945.6484,224.7114,946.0314,226.6103,946.9328,228.478,947.759,228.6165,947.8164,229.2132,949.5891,230.0253,951.4509,230.7559,953.2791,231.5862,955.1484,232.2917,956.9661,232.3747,956.9661,232.495,963.0013,232.5247,969.0365,232.5275,975.0716,232.3801,981.1068,232.2917,987.1419,232.4404,987.2035,231.7542,989.0767,230.5348,990.7289,230.2211,992.7564,229.1456,994.4682,228.478,996.349,228.5489,996.5203,226.5708,996.953,224.786,997.8526,223.0522,998.8752,221.1058,999.3844,219.2708,1000.1628,219.2708,1000.2725,208.3333,1000.5155,197.3958,1000.5963,186.4583,1000.1587,175.5208,1000.4619,164.5833,999.5665,153.6458,1000.459,142.7083,1000.7338,131.7708,1000.1628,131.8299,1000.3054,130.0109,999.5967,128.0238,998.4823,126.1599,997.6653,124.3226,996.9124,122.5637,996.349,122.5448,996.3412,121.7379,994.4815,121.2568,992.7567,120.2195,990.8016,119.4027,988.9378,118.75,987.1419,118.8293,987.1419,118.5185,981.1068,118.5697,975.0716,118.9753,969.0365,118.9013,963.0013,118.75,956.9661,118.9856,957.0637,119.4095,955.082,120.3779,953.3257,121.2276,951.5203,121.6494,949.5377,122.5637,947.759,122.551,947.7283,124.4219,947.0367,126.3332,946.4426,128.0874,945.4695,129.9909,944.8564,131.7708,943.9453" style="stroke: #333333; stroke-width: 1.5625;"/><path d="M118.75,979.3294 L118.75,979.6213 L129.072,978.754 L139.3939,979.5979 L149.7159,979.8845 L160.0379,978.3386 L170.3598,979.2215 L180.6818,978.7371 L191.0038,978.7968 L201.3258,979.2348 L211.6477,978.3692 L221.9697,980.0984 L232.2917,979.3294 " fill="#00000000" style="stroke: #333333; stroke-width: 1.5625;"/><text fill="#2E2E2E" font-family="Segoe Print" font-size="12.5" lengthAdjust="spacingAndGlyphs" textLength="82.2917" x="134.375" y="965.9648">ScrollLockOff</text></g><g id="Active.CONC95.ScrollLockOn"><polygon fill="#00000000" points="131.7708,1063.737,131.7708,1063.9559,142.7083,1063.3054,153.6458,1063.9383,164.5833,1064.1533,175.5208,1062.9939,186.4583,1063.656,197.3958,1063.2927,208.3333,1063.3375,219.2708,1063.737,219.2618,1063.7151,221.0204,1064.2779,223.0272,1065.4401,224.7114,1065.823,226.6103,1066.7245,228.478,1067.5507,228.6165,1067.6081,229.2132,1069.3807,230.0253,1071.2426,230.7559,1073.0707,231.5862,1074.9401,232.2917,1076.7578,232.3747,1076.7578,232.495,1082.793,232.5247,1088.8281,232.5275,1094.8633,232.3801,1100.8984,232.2917,1106.9336,232.4404,1106.9952,231.7542,1108.8683,230.5348,1110.5206,230.2211,1112.548,229.1456,1114.2599,228.478,1116.1407,228.5489,1116.312,226.5708,1116.7447,224.786,1117.6442,223.0522,1118.6668,221.1058,1119.1761,219.2708,1119.9544,219.2708,1120.0641,208.3333,1120.3072,197.3958,1120.388,186.4583,1119.9504,175.5208,1120.2536,164.5833,1119.3582,153.6458,1120.2507,142.7083,1120.5255,131.7708,1119.9544,131.8299,1120.097,130.0109,1119.3883,128.0238,1118.274,126.1599,1117.457,124.3226,1116.7041,122.5637,1116.1407,122.5448,1116.1329,121.7379,1114.2732,121.2568,1112.5484,120.2195,1110.5932,119.4027,1108.7294,118.75,1106.9336,118.8293,1106.9336,118.5185,1100.8984,118.5697,1094.8633,118.9753,1088.8281,118.9013,1082.793,118.75,1076.7578,118.9856,1076.8554,119.4095,1074.8736,120.3779,1073.1174,121.2276,1071.312,121.6494,1069.3293,122.5637,1067.5507,122.551,1067.5199,124.4219,1066.8284,126.3332,1066.2343,128.0874,1065.2611,129.9909,1064.6481,131.7708,1063.737" style="stroke: #333333; stroke-width: 1.5625;"/><path d="M118.75,1099.1211 L118.75,1099.413 L129.072,1098.5456 L139.3939,1099.3895 L149.7159,1099.6762 L160.0379,1098.1303 L170.3598,1099.0132 L180.6818,1098.5287 L191.0038,1098.5885 L201.3258,1099.0264 L211.6477,1098.1609 L221.9697,1099.89 L232.2917,1099.1211 " fill="#00000000" style="stroke: #333333; stroke-width: 1.5625;"/><text fill="#2E2E2E" font-family="Segoe Print" font-size="12.5" lengthAdjust="spacingAndGlyphs" textLength="82.2917" x="134.375" y="1085.7564">ScrollLockOn</text></g><!--MD5=[8676698f49c1acec7e35e8e65e103748]
link *start*CONC95 to ScrollLockOff--><path d="M99.5321,972.0703 L99.5321,972.1676 L102.2629,971.8785 L104.9938,972.1598 L107.7246,972.2553 L110.4554,971.74 L113.1863,972.0703 " fill="none" style="stroke: #333333; stroke-width: 3.125;"/><polygon fill="#333333" points="118.5293,972.0703,118.5589,972.137,116.5958,971.1055,114.8065,970.465,112.9606,969.6971,110.9287,968.5106,109.1543,967.9036,109.1352,967.8846,109.8829,968.6323,110.7268,969.4762,111.6375,970.3869,112.3179,971.0672,113.3209,972.0703,113.4569,972.2062,112.3329,972.7489,111.6057,973.6884,110.927,974.6764,109.9665,975.3826,109.1543,976.237,109.1639,976.2586,111.0248,975.3935,112.9294,974.627,114.813,973.8129,116.7369,973.0895,118.5293,972.0703" style="stroke: #333333; stroke-width: 3.125;"/><!--MD5=[da4e1e55b4a6de250eca2c82023085fa]
link ScrollLockOff to ScrollLockOn--><path d="M118.6132,994.4421 L118.674,994.5181 L115.7629,996.4736 L113.2078,998.8748 L110.5368,1001.1308 L107.4846,1002.9096 L104.9601,1005.349 L104.9318,1005.3268 L102.667,1007.9462 L100.5448,1010.6778 L98.5217,1013.4873 L96.1571,1016.0282 L94.2708,1018.9453 L94.514,1019.0264 L93.1257,1021.4572 L92.4474,1024.1247 L91.8557,1026.8211 L90.76,1029.3494 L89.9293,1031.9661 L89.9593,1031.9761 L90.7836,1034.5656 L91.7444,1037.2006 L92.6393,1039.8137 L93.6598,1042.4686 L94.2708,1044.987 L94.5189,1045.174 L96.2786,1047.5073 L97.8782,1049.72 L99.7121,1052.1092 L101.5569,1054.5067 L103.0539,1056.6421 L102.8337,1056.3911 L105.4753,1058.8211 L107.3917,1060.4247 L109.8595,1062.6566 L111.7595,1064.2415 L114.1249,1066.3567 " fill="none" style="stroke: #333333; stroke-width: 3.125;"/><polygon fill="#333333" points="118.6132,1069.4902,118.6757,1069.5279,117.4297,1067.6592,116.55,1066.0116,115.551,1064.292,114.1598,1062.3357,113.3115,1060.7071,113.285,1060.7023,113.372,1061.8415,113.5929,1063.0044,113.9069,1064.1839,113.9001,1065.3063,114.3427,1066.5087,114.3764,1066.698,113.1441,1066.4994,112.0101,1066.8535,110.888,1067.2751,109.6962,1067.3043,108.5411,1067.5399,108.5456,1067.5631,110.5534,1067.919,112.5817,1068.3809,114.6002,1068.7916,116.6375,1069.2998,118.6132,1069.4902" style="stroke: #333333; stroke-width: 3.125;"/><text fill="#2E2E2E" font-family="Segoe Print" font-size="12.5" lengthAdjust="spacingAndGlyphs" textLength="129.1667" x="100.5208" y="1036.7981">EvCapsLockPressed</text><!--MD5=[6ad2c621f2407b82317910f4deb17639]
link ScrollLockOn to ScrollLockOff--><path d="M221.9605,1063.5248 L222.0329,1063.5898 L223.3843,1061.6538 L225.1599,1060.099 L226.7973,1058.4201 L227.9805,1056.3329 L229.7925,1054.8108 L229.762,1054.7918 L230.8541,1052.7414 L232.1,1050.7871 L233.4527,1048.8998 L234.4371,1046.782 L235.9375,1044.987 L236.1835,1045.0591 L236.4212,1042.3007 L237.377,1039.7529 L238.4205,1037.2308 L238.9541,1034.5591 L239.7559,1031.9661 L239.7863,1031.975 L238.9781,1029.3578 L238.3079,1026.7811 L237.5711,1024.1848 L236.9614,1021.6258 L235.9375,1018.9453 L236.1926,1019.1226 L234.1682,1016.2062 L231.9792,1013.1756 L230.0311,1010.3123 L228.0942,1007.4568 L225.7997,1004.3528 " fill="none" style="stroke: #333333; stroke-width: 3.125;"/><polygon fill="#333333" points="221.9605,1000.4075,222.029,1000.4328,222.5359,1002.2826,223.4443,1004.2806,224.2219,1006.2304,224.5697,1008.0215,225.5124,1010.0322,225.4855,1010.0319,225.3804,1008.8518,225.4114,1007.6736,225.537,1006.4967,225.3367,1005.3154,225.5928,1004.1402,225.5954,1004.3324,226.7682,1003.9375,227.9487,1004.1037,229.1301,1004.3384,230.306,1004.1747,231.4848,1004.2206,231.4936,1004.2426,229.5758,1003.4477,227.6981,1002.7529,225.8011,1002.0098,223.941,1001.3589,221.9605,1000.4075" style="stroke: #333333; stroke-width: 3.125;"/><text fill="#2E2E2E" font-family="Segoe Print" font-size="12.5" lengthAdjust="spacingAndGlyphs" textLength="129.1667" x="245.3125" y="1036.7981">EvCapsLockPressed</text><!--MD5=[242ad121cef04112e9b0ee8f25f52375]
link *start to fork_state--><path d="M225.5208,77.6778 L225.8128,77.6778 L224.9454,89.0197 L225.7893,100.3617 L226.0759,111.7036 L224.53,123.0456 L225.5208,134.3876 " fill="none" style="stroke: #333333; stroke-width: 3.125;"/><polygon fill="#333333" points="225.5208,139.7335,225.5875,139.7631,226.2227,137.8001,227.2488,136.0107,228.1476,134.1649,228.6278,132.1329,229.6875,130.3585,229.6684,130.3394,228.7495,131.0871,227.9267,131.931,227.1708,132.8418,226.1844,133.5221,225.5208,134.5252,225.6568,134.6611,224.5328,133.5371,223.8056,132.8099,223.1269,132.1312,222.1664,131.1708,221.3542,130.3585,221.3758,130.3681,222.1774,132.229,223.0775,134.1337,223.93,136.0172,224.8733,137.9411,225.5208,139.7335" style="stroke: #333333; stroke-width: 3.125;"/><!--MD5=[44dd36eb382d4fffd186e8c447a61da0]
link fork_state to State2--><path d="M223.0052,148.3622 L223.2575,148.5092 L216.9351,157.6412 L212.0914,167.6345 L206.7662,177.3473 L199.8574,186.1379 L195.0474,196.1508 L189.5678,205.7737 " fill="none" style="stroke: #333333; stroke-width: 3.125;"/><polygon fill="#333333" points="186.9389,210.2876,186.9816,210.3467,188.5184,208.9701,190.3057,207.9403,192.0114,206.7976,193.4489,205.2834,195.2577,204.2835,195.2508,204.2574,194.0804,204.441,192.9447,204.7561,191.8331,205.1627,190.6384,205.2541,189.5601,205.7869,189.746,205.836,189.0479,204.5916,188.8924,203.4904,188.8031,202.4067,188.3286,201.2213,188.0567,200.0894,188.0802,200.092,187.8221,202.1278,187.6712,204.1754,187.4685,206.2173,187.3646,208.2701,186.9389,210.2876" style="stroke: #333333; stroke-width: 3.125;"/><!--MD5=[43d4d70f9cd19f132a5eb1ce9d85c890]
link fork_state to State3--><path d="M228.084,148.3622 L228.335,148.5112 L233.2671,157.6372 L239.6709,167.6364 L245.5955,177.3513 L249.9441,186.1309 L256.3814,196.15 L262.1523,205.7737 " fill="none" style="stroke: #333333; stroke-width: 3.125;"/><polygon fill="#333333" points="264.8308,210.2876,264.9033,210.2961,264.4477,208.233,264.417,206.2199,264.2479,204.1906,263.6238,202.1076,263.6296,200.0989,263.6034,200.0922,263.1947,201.2042,262.9178,202.3498,262.7326,203.5188,262.2315,204.6073,262.1728,205.8085,262.2203,205.9948,260.9768,205.3051,259.872,205.1593,258.7841,205.0798,257.5977,204.6142,256.4632,204.3518,256.4769,204.3711,258.1303,205.5299,259.8461,206.7766,261.5318,207.981,263.275,209.2663,264.8308,210.2876" style="stroke: #333333; stroke-width: 3.125;"/><!--MD5=[8cf5ef3a64654818495211b4c165bd62]
link State2 to join_state--><path d="M186.8768,267.2753 L187.129,267.4222 L191.9601,276.5675 L198.27,286.574 L204.0983,296.3001 L208.3431,305.1038 L214.6866,315.13 L220.3605,324.7661 " fill="none" style="stroke: #333333; stroke-width: 3.125;"/><polygon fill="#333333" points="222.9893,329.2796,223.0618,329.2876,222.6227,327.2243,222.6088,325.2077,222.4565,323.1759,221.8487,321.0941,221.8713,319.0815,221.8452,319.0746,221.4275,320.1832,221.1412,321.3265,220.9464,322.494,220.4365,323.5783,220.3679,324.779,220.417,324.9649,219.1726,324.2668,218.0714,324.1113,216.9877,324.022,215.8023,323.5475,214.6704,323.2756,214.6843,323.2949,216.3277,324.4674,218.0342,325.7275,219.7103,326.9454,221.4445,328.2437,222.9893,329.2796" style="stroke: #333333; stroke-width: 3.125;"/><!--MD5=[183fde86cac17ac230b97143534e47db]
link State3 to join_state--><path d="M264.894,267.2753 L265.145,267.4242 L258.7132,276.5634 L253.753,286.5759 L248.3136,296.304 L241.2983,305.0968 L236.3716,315.1292 L230.7785,324.7661 " fill="none" style="stroke: #333333; stroke-width: 3.125;"/><polygon fill="#333333" points="228.1002,329.2796,228.1424,329.3392,229.6905,327.9751,231.4861,326.96,233.2011,325.8313,234.651,324.3289,236.4678,323.3437,236.4611,323.3176,235.2893,323.4916,234.151,323.7974,233.0362,324.1949,231.8407,324.2766,230.7582,324.8006,230.9444,324.8481,230.2548,323.6045,230.1089,322.4998,230.0294,321.4119,229.5638,320.2255,229.3013,319.091,229.3248,319.0937,229.0501,321.1274,228.8824,323.1737,228.6631,325.2139,228.5424,327.2657,228.1002,329.2796" style="stroke: #333333; stroke-width: 3.125;"/><!--MD5=[1e473d623208eebf6d5ebd6e9bc5a11d]
link join_state to State4--><path d="M225.5208,337.9456 L225.8128,337.9456 L224.9454,349.2656 L225.7893,360.5856 L226.0759,371.9056 L224.53,383.2256 L225.5208,394.5456 " fill="none" style="stroke: #333333; stroke-width: 3.125;"/><polygon fill="#333333" points="225.5208,399.8709,225.5875,399.9005,226.2227,397.9375,227.2488,396.1481,228.1476,394.3022,228.6278,392.2703,229.6875,390.4959,229.6684,390.4768,228.7495,391.2245,227.9267,392.0684,227.1708,392.9792,226.1844,393.6595,225.5208,394.6626,225.6568,394.7985,224.5328,393.6745,223.8056,392.9473,223.1269,392.2686,222.1664,391.3082,221.3542,390.4959,221.3758,390.5055,222.1774,392.3664,223.0775,394.2711,223.93,396.1546,224.8733,398.0785,225.5208,399.8709" style="stroke: #333333; stroke-width: 3.125;"/><!--MD5=[0a70b1a7cf318979336334b4227eefe4]
link State4 to Active--><path d="M225.5208,456.6051 L225.8128,456.6051 L224.9454,467.943 L225.7893,479.2809 L226.0759,490.6188 L224.53,501.9567 L225.5208,513.2946 " fill="none" style="stroke: #333333; stroke-width: 3.125;"/><polygon fill="#333333" points="225.5208,518.7573,225.5875,518.787,226.2227,516.8239,227.2488,515.0346,228.1476,513.1887,228.6278,511.1567,229.6875,509.3823,229.6684,509.3633,228.7495,510.111,227.9267,510.9549,227.1708,511.8656,226.1844,512.5459,225.5208,513.549,225.6568,513.6849,224.5328,512.5609,223.8056,511.8338,223.1269,511.1551,222.1664,510.1946,221.3542,509.3823,221.3758,509.392,222.1774,511.2528,223.0775,513.1575,223.93,515.0411,224.8733,516.9649,225.5208,518.7573" style="stroke: #333333; stroke-width: 3.125;"/><!--MD5=[10d0bbb6efcc74b0780903d8dfaf9761]
@startuml

!$THEME = "sketchy-outline"

!if %not(%variable_exists("$BGCOLOR"))
!$BGCOLOR = "transparent"
!endif

skinparam backgroundColor $BGCOLOR
skinparam handwritten true
skinparam shadowing false

!$BLUE = "#007bff"
!$INDIGO = "#6610f2"
!$PURPLE = "#6f42c1"
!$PINK = "#e83e8c"
!$RED = "#dc3545"
!$ORANGE = "#fd7e14"
!$YELLOW = "#ffc107"
!$GREEN = "#28a745"
!$TEAL = "#20c997"
!$CYAN = "#17a2b8"
!$WHITE = "#ffffff"
!$GRAY = "#868e96"
!$GRAYDARK = "#333333"
!$PRIMARY = "#333333"
!$SECONDARY = "#555555"
!$SUCCESS = "#28a745"
!$INFO = "#17a2b8"
!$WARNING = "#ffc107"
!$DANGER = "#dc3545"
!$LIGHT = "#ffffff"
!$DARK = "#555555"

!$FGCOLOR = $WHITE
!$PRIMARY_DARK = "#2e2e2e"
!$PRIMARY_LIGHT = "#474747"
!$PRIMARY_TEXT = "#2e2e2e"
!$SECONDARY_DARK = "#4d4d4d"
!$SECONDARY_LIGHT = "#666666"
!$SECONDARY_TEXT = $WHITE
!$INFO_DARK = "#1592a6"
!$INFO_LIGHT = "#2eabbf"
!$INFO_TEXT = $WHITE
!$SUCCESS_DARK = "#24963e"
!$SUCCESS_LIGHT = "#3eb058"
!$SUCCESS_TEXT = $WHITE
!$WARNING_DARK = "#e6ae06"
!$WARNING_LIGHT = "#ffc720"
!$WARNING_TEXT = $WHITE
!$DANGER_DARK = "#c6303e"
!$DANGER_LIGHT = "#e04958"
!$DANGER_TEXT = $WHITE
!$DARK_DARK = "#4d4d4d"
!$DARK_LIGHT = "#666666"
!$LIGHT_DARK = "#e6e6e6"
!$LIGHT_LIGHT = "#ffffff"

!procedure $success($msg)
  <font color=$SUCCESS><b>$msg
!endprocedure

!procedure $failure($msg)
  <font color=$DANGER><b>$msg
!endprocedure

!procedure $warning($msg)
  <font color=$WARNING><b>$msg
!endprocedure

!procedure $primary_scheme()
	FontColor $PRIMARY_TEXT
	BorderColor $PRIMARY
	BackgroundColor $BGCOLOR
!endprocedure

skinparam defaultFontName       "Segoe Print"
skinparam defaultFontSize       12
skinparam dpi                   100
skinparam shadowing             false
skinparam roundcorner           8
skinparam ParticipantPadding    40
skinparam BoxPadding            40
skinparam Padding               5
skinparam ArrowColor            $DARK
skinparam stereotype {
    CBackgroundColor $BGCOLOR
    CBorderColor $SECONDARY_DARK
    ABackgroundColor $BGCOLOR
    ABorderColor $SUCCESS_DARK
    IBackgroundColor $BGCOLOR
    IBorderColor $DANGER_DARK
    EBackgroundColor $BGCOLOR
    EBorderColor $WARNING_DARK
    NBackgroundColor $BGCOLOR
    NBorderColor $INFO_DARK
}
skinparam title {
	FontColor	                 $PRIMARY_TEXT
	BorderColor	                 $SECONDARY_DARK
	FontSize	    	         20
	BorderRoundCorner            8
	BorderThickness 	         1
	BackgroundColor              $BGCOLOR
}

skinparam legend {
	BackgroundColor $BGCOLOR
	BorderColor $SECONDARY_DARK
	FontColor $PRIMARY_TEXT
}

!startsub swimlane
skinparam swimlane {
	BorderColor $INFO
	BorderThickness 2
	TitleBackgroundColor  $BGCOLOR
	TitleFontColor $PRIMARY_TEXT
}
!endsub

!startsub activity

skinparam activity {
	$primary_scheme()
	BarColor $SUCCESS
	StartColor $INFO
	EndColor $INFO
	DiamondBackgroundColor $BGCOLOR
  	DiamondBorderColor $SECONDARY_DARK
  	DiamondFontColor $PRIMARY_TEXT
}
!endsub

!startsub participant

skinparam participant {
	$primary_scheme()
	ParticipantBorderThickness 2
}
!endsub

!startsub actor

skinparam actor {
	$primary_scheme()
}
!endsub

!startsub arrow

skinparam arrow {
	Thickness 3
	Color $PRIMARY
	FontColor $PRIMARY_TEXT
}
!endsub

!startsub sequence

skinparam sequence {
	BorderColor $PRIMARY
	TitleFontColor $PRIMARY_TEXT
	BackgroundColor $BGCOLOR
	StartColor $PRIMARY
	EndColor $PRIMARY
	BoxBackgroundColor $BGCOLOR
	BoxBorderColor $DARK
	BoxFontColor $DARK
	LifeLineBorderColor $SECONDARY
	LifeLineBorderThickness 2
	LifeLineBackgroundColor $SECONDARY_DARK
	GroupBorderColor $DARK
	GroupFontColor $DARK
	GroupHeaderFontColor $INFO
	GroupBackgroundColor $SECONDARY
	GroupHeaderBackgroundColor $BGCOLOR
	DividerBackgroundColor $DARK
    DividerBorderColor $DARK
    DividerBorderThickness 2
    DividerFontColor $LIGHT
	ReferenceBackgroundColor $BGCOLOR
	ReferenceBorderColor $DARK
	ReferenceFontColor $DARK
	ReferenceHeaderFontColor $INFO
	ReferenceHeaderBackgroundColor $SECONDARY
}
!endsub

!startsub partition

skinparam partition {
	BorderColor $PRIMARY
	FontColor $PRIMARY
	BackgroundColor $BGCOLOR
}
!endsub

!startsub collections

skinparam collections {
	$primary_scheme()
}
!endsub

!startsub control

skinparam control {
	$primary_scheme()
}
!endsub

!startsub entity

skinparam entity {
	$primary_scheme()
}
!endsub

!startsub boundary

skinparam boundary {
	$primary_scheme()
}
!endsub

!startsub agent

skinparam agent {
	BackgroundColor $WARNING
	BorderColor $WARNING_LIGHT
	FontColor $DARK
}
!endsub

!startsub note

skinparam note {
	BorderThickness 1
	BackgroundColor $INFO
	BorderColor $INFO_DARK
	FontColor $WHITE
}
!endsub

!startsub artifact

skinparam artifact {
	BackgroundColor $BGCOLOR
	BorderColor $DARK_DARK
	FontColor $DARK_DARK
}
!endsub

!startsub component

skinparam component {
	$primary_scheme()
}
!endsub

!startsub interface

skinparam interface {
	BackgroundColor  $BGCOLOR
	BorderColor  $DANGER
	FontColor $DARK
}
!endsub

!startsub storage

skinparam storage {
	BackgroundColor $BGCOLOR
  	BorderColor $WARNING_DARK
	FontColor $WARNING_DARK
}
!endsub

!startsub node

skinparam node {
	BackgroundColor  $BGCOLOR
	BorderColor $LIGHT
	FontColor $LIGHT
}
!endsub

!startsub cloud

skinparam cloud {
	BackgroundColor $BGCOLOR
	BorderColor #F2FCFE
	FontColor $PRIMARY_TEXT
}
!endsub

!startsub database

skinparam database {
	$primary_scheme()
}
!endsub

!startsub class

skinparam class {
	$primary_scheme()
	HeaderBackgroundColor $BGCOLOR
	StereotypeFontColor $DARK
	BorderThickness 1
	AttributeFontColor $DARK
	AttributeFontSize 11
}
!endsub

!startsub object

skinparam object {
	$primary_scheme()
	StereotypeFontColor $PRIMARY_TEXT
	BorderThickness 1
	AttributeFontColor $PRIMARY_TEXT
	AttributeFontSize 11
}
!endsub

!startsub usecase

skinparam usecase {
	$primary_scheme()
	BorderThickness 2
	StereotypeFontColor $PRIMARY
}
!endsub

!startsub rectangle

skinparam rectangle {
	$primary_scheme()
	BorderThickness 2
	StereotypeFontColor $PRIMARY
}
!endsub

!startsub package

skinparam package {
	BackgroundColor $BGCOLOR
  	BorderColor $PRIMARY
	FontColor $PRIMARY
	BorderThickness 2
}
!endsub

!startsub folder

skinparam folder {
	BackgroundColor $BGCOLOR
  	BorderColor $WARNING
	FontColor $WARNING
	BorderThickness 2
}
!endsub

!startsub frame

skinparam frame {
	BackgroundColor $BGCOLOR
  	BorderColor $INFO
	FontColor $INFO
	BorderThickness 2
}
!endsub

!startsub state

skinparam state {
	$primary_scheme()
	StartColor $INFO
	EndColor $INFO
	AttributeFontColor $SECONDARY_TEXT
	AttributeFontSize 11
}
!endsub

!startsub queue

skinparam queue {
	$primary_scheme()
}
!endsub

!startsub card

skinparam card {
	BackgroundColor $BGCOLOR
	BorderColor $INFO_DARK
	FontColor $INFO_DARK
}
!endsub

!startsub file

skinparam file {
	BackgroundColor $BGCOLOR
	BorderColor $LIGHT
	FontColor $LIGHT
}
!endsub

!startsub stack

skinparam stack {
	$primary_scheme()
}
!endsub

!if %variable_exists("$THEME")
title State Diagram - $THEME theme
!else
title State Diagram
!endif

'skinparam BackgroundColor transparent

state fork_state <<fork>>
[*] - -> fork_state
fork_state - -> State2
fork_state - -> State3

state join_state <<join>>
State2 - -> join_state
State3 - -> join_state
join_state - -> State4
State4 - -> Active

state Active {
  [*] -> NumLockOff
  NumLockOff - -> NumLockOn : EvNumLockPressed
  NumLockOn - -> NumLockOff : EvNumLockPressed
  - -
  [*] -> CapsLockOff
  CapsLockOff - -> CapsLockOn : EvCapsLockPressed
  CapsLockOn - -> CapsLockOff : EvCapsLockPressed
  - -
  [*] -> ScrollLockOff
  ScrollLockOff - -> ScrollLockOn : EvCapsLockPressed
  ScrollLockOn - -> ScrollLockOff : EvCapsLockPressed
}

@enduml

@startuml



skinparam backgroundColor transparent
skinparam handwritten true
skinparam shadowing false







skinparam defaultFontName       "Segoe Print"
skinparam defaultFontSize       12
skinparam dpi                   100
skinparam shadowing             false
skinparam roundcorner           8
skinparam ParticipantPadding    40
skinparam BoxPadding            40
skinparam Padding               5
skinparam ArrowColor            #555555
skinparam stereotype {
    CBackgroundColor transparent
    CBorderColor #4d4d4d
    ABackgroundColor transparent
    ABorderColor #24963e
    IBackgroundColor transparent
    IBorderColor #c6303e
    EBackgroundColor transparent
    EBorderColor #e6ae06
    NBackgroundColor transparent
    NBorderColor #1592a6
}
skinparam title {
	FontColor	                 #2e2e2e
	BorderColor	                 #4d4d4d
	FontSize	    	         20
	BorderRoundCorner            8
	BorderThickness 	         1
	BackgroundColor              transparent
}

skinparam legend {
	BackgroundColor transparent
	BorderColor #4d4d4d
	FontColor #2e2e2e
}

skinparam swimlane {
	BorderColor #17a2b8
	BorderThickness 2
	TitleBackgroundColor  transparent
	TitleFontColor #2e2e2e
}


skinparam activity {
		FontColor #2e2e2e
	BorderColor #333333
	BackgroundColor transparent
	BarColor #28a745
	StartColor #17a2b8
	EndColor #17a2b8
	DiamondBackgroundColor transparent
  	DiamondBorderColor #4d4d4d
  	DiamondFontColor #2e2e2e
}


skinparam participant {
		FontColor #2e2e2e
	BorderColor #333333
	BackgroundColor transparent
	ParticipantBorderThickness 2
}


skinparam actor {
		FontColor #2e2e2e
	BorderColor #333333
	BackgroundColor transparent
}


skinparam arrow {
	Thickness 3
	Color #333333
	FontColor #2e2e2e
}


skinparam sequence {
	BorderColor #333333
	TitleFontColor #2e2e2e
	BackgroundColor transparent
	StartColor #333333
	EndColor #333333
	BoxBackgroundColor transparent
	BoxBorderColor #555555
	BoxFontColor #555555
	LifeLineBorderColor #555555
	LifeLineBorderThickness 2
	LifeLineBackgroundColor #4d4d4d
	GroupBorderColor #555555
	GroupFontColor #555555
	GroupHeaderFontColor #17a2b8
	GroupBackgroundColor #555555
	GroupHeaderBackgroundColor transparent
	DividerBackgroundColor #555555
    DividerBorderColor #555555
    DividerBorderThickness 2
    DividerFontColor #ffffff
	ReferenceBackgroundColor transparent
	ReferenceBorderColor #555555
	ReferenceFontColor #555555
	ReferenceHeaderFontColor #17a2b8
	ReferenceHeaderBackgroundColor #555555
}


skinparam partition {
	BorderColor #333333
	FontColor #333333
	BackgroundColor transparent
}


skinparam collections {
		FontColor #2e2e2e
	BorderColor #333333
	BackgroundColor transparent
}


skinparam control {
		FontColor #2e2e2e
	BorderColor #333333
	BackgroundColor transparent
}


skinparam entity {
		FontColor #2e2e2e
	BorderColor #333333
	BackgroundColor transparent
}


skinparam boundary {
		FontColor #2e2e2e
	BorderColor #333333
	BackgroundColor transparent
}


skinparam agent {
	BackgroundColor #ffc107
	BorderColor #ffc720
	FontColor #555555
}


skinparam note {
	BorderThickness 1
	BackgroundColor #17a2b8
	BorderColor #1592a6
	FontColor #ffffff
}


skinparam artifact {
	BackgroundColor transparent
	BorderColor #4d4d4d
	FontColor #4d4d4d
}


skinparam component {
		FontColor #2e2e2e
	BorderColor #333333
	BackgroundColor transparent
}


skinparam interface {
	BackgroundColor  transparent
	BorderColor  #dc3545
	FontColor #555555
}


skinparam storage {
	BackgroundColor transparent
  	BorderColor #e6ae06
	FontColor #e6ae06
}


skinparam node {
	BackgroundColor  transparent
	BorderColor #ffffff
	FontColor #ffffff
}


skinparam cloud {
	BackgroundColor transparent
	BorderColor #F2FCFE
	FontColor #2e2e2e
}


skinparam database {
		FontColor #2e2e2e
	BorderColor #333333
	BackgroundColor transparent
}


skinparam class {
		FontColor #2e2e2e
	BorderColor #333333
	BackgroundColor transparent
	HeaderBackgroundColor transparent
	StereotypeFontColor #555555
	BorderThickness 1
	AttributeFontColor #555555
	AttributeFontSize 11
}


skinparam object {
		FontColor #2e2e2e
	BorderColor #333333
	BackgroundColor transparent
	StereotypeFontColor #2e2e2e
	BorderThickness 1
	AttributeFontColor #2e2e2e
	AttributeFontSize 11
}


skinparam usecase {
		FontColor #2e2e2e
	BorderColor #333333
	BackgroundColor transparent
	BorderThickness 2
	StereotypeFontColor #333333
}


skinparam rectangle {
		FontColor #2e2e2e
	BorderColor #333333
	BackgroundColor transparent
	BorderThickness 2
	StereotypeFontColor #333333
}


skinparam package {
	BackgroundColor transparent
  	BorderColor #333333
	FontColor #333333
	BorderThickness 2
}


skinparam folder {
	BackgroundColor transparent
  	BorderColor #ffc107
	FontColor #ffc107
	BorderThickness 2
}


skinparam frame {
	BackgroundColor transparent
  	BorderColor #17a2b8
	FontColor #17a2b8
	BorderThickness 2
}


skinparam state {
		FontColor #2e2e2e
	BorderColor #333333
	BackgroundColor transparent
	StartColor #17a2b8
	EndColor #17a2b8
	AttributeFontColor #ffffff
	AttributeFontSize 11
}


skinparam queue {
		FontColor #2e2e2e
	BorderColor #333333
	BackgroundColor transparent
}


skinparam card {
	BackgroundColor transparent
	BorderColor #1592a6
	FontColor #1592a6
}


skinparam file {
	BackgroundColor transparent
	BorderColor #ffffff
	FontColor #ffffff
}


skinparam stack {
		FontColor #2e2e2e
	BorderColor #333333
	BackgroundColor transparent
}

title State Diagram - sketchy-outline theme


state fork_state <<fork>>
[*] - -> fork_state
fork_state - -> State2
fork_state - -> State3

state join_state <<join>>
State2 - -> join_state
State3 - -> join_state
join_state - -> State4
State4 - -> Active

state Active {
  [*] -> NumLockOff
  NumLockOff - -> NumLockOn : EvNumLockPressed
  NumLockOn - -> NumLockOff : EvNumLockPressed
  - -
  [*] -> CapsLockOff
  CapsLockOff - -> CapsLockOn : EvCapsLockPressed
  CapsLockOn - -> CapsLockOff : EvCapsLockPressed
  - -
  [*] -> ScrollLockOff
  ScrollLockOff - -> ScrollLockOn : EvCapsLockPressed
  ScrollLockOn - -> ScrollLockOff : EvCapsLockPressed
}

@enduml

PlantUML version 1.2020.16beta7(Unknown compile time)
(GPL source distribution)
Java Runtime: OpenJDK Runtime Environment
JVM: OpenJDK 64-Bit Server VM
Default Encoding: UTF-8
Language: en
Country: US
--></g></svg>