<?xml version="1.0" encoding="UTF-8" standalone="no"?><svg xmlns="http://www.w3.org/2000/svg" xmlns:xlink="http://www.w3.org/1999/xlink" contentScriptType="application/ecmascript" contentStyleType="text/css" height="1136.4583px" preserveAspectRatio="none" style="width:444px;height:1136px;background:#00000000;" version="1.1" viewBox="0 0 444 1136" width="444.7917px" zoomAndPan="magnify"><defs/><g><polygon points="6.25,2.0833,6.25,2.3023,16.5904,1.6517,26.9309,2.2847,37.2713,2.4997,47.6118,1.3402,57.9522,2.0024,68.2927,1.6391,78.6331,1.6839,88.9736,2.0123,99.314,1.3632,109.6545,2.66,119.9949,1.4268,130.3354,1.8773,140.6758,2.5333,151.0163,1.994,161.3567,2.1544,171.6972,2.0501,182.0376,2.2693,192.378,2.3324,202.7185,2.6934,213.0589,2.7823,223.3994,2.7909,233.7398,2.3486,244.0803,2.5662,254.4207,2.8148,264.7612,1.3321,275.1016,2.7901,285.4421,1.7745,295.7825,2.6394,306.123,1.5677,316.4634,2.012,326.8039,2.8558,337.1443,2.0326,347.4848,2.193,357.8252,2.4361,368.1657,2.5169,378.5061,2.0793,388.8465,2.3825,399.187,1.4871,409.5274,2.3796,419.8679,2.6544,430.2083,2.0833,430.2674,2.2259,430.879,2.5241,431.3227,2.4165,431.8894,2.6064,432.4828,2.8603,433.1546,3.3037,433.1357,3.2959,433.3356,3.8669,433.8614,4.5728,433.8308,5.0483,434.0209,5.6152,434.375,6.25,434.4543,6.25,434.1435,13.6003,434.1947,20.9505,434.6003,28.3008,434.5263,35.651,434.375,43.0013,434.6106,43.0989,434.0277,43.5478,433.9892,44.2222,433.8322,44.8475,433.2471,45.2956,433.1546,45.9476,433.1419,45.9168,432.5821,46.2321,432.0627,46.6448,431.3863,46.6785,430.8591,47.0723,430.2083,47.168,430.2083,46.5911,419.8679,46.4625,409.5274,47.6926,399.187,46.4212,388.8465,47.6981,378.5061,47.3832,368.1657,46.8889,357.8252,46.7995,347.4848,47.6458,337.1443,46.8562,326.8039,47.7845,316.4634,46.5922,306.123,47.8111,295.7825,47.6725,285.4421,47.4231,275.1016,47.2172,264.7612,47.9249,254.4207,47.8071,244.0803,47.3443,233.7398,47.4473,223.3994,47.0323,213.0589,47.9143,202.7185,47.3293,192.378,47.3477,182.0376,46.5343,171.6972,46.7459,161.3567,47.7208,151.0163,47.6156,140.6758,47.1232,130.3354,46.8324,119.9949,46.9399,109.6545,46.4532,99.314,47.6,88.9736,47.9383,78.6331,47.7163,68.2927,47.8919,57.9522,47.0255,47.6118,47.2588,37.2713,46.7642,26.9309,47.4638,16.5904,47.425,6.25,47.168,6.3234,47.3452,5.6302,46.8502,5.0536,46.6367,4.5412,46.578,3.9684,46.3737,3.3037,45.9476,3.1393,45.8795,2.9974,45.3326,2.8634,44.7889,2.3755,44.0986,2.4408,43.6375,2.0833,43.0013,2.1729,43.0013,2.0483,35.651,2.1327,28.3008,2.3363,20.9505,1.9747,13.6003,2.0833,6.25,2.1844,6.2919,2.419,5.6987,2.6086,5.0869,2.8608,4.501,3.096,3.9081,3.3037,3.3037,3.2208,3.1035,3.8397,2.9311,4.4209,2.6675,5.08,2.592,5.6725,2.3557,6.25,2.0833" style="stroke:#4D4D4D;stroke-width:1.0416666666666667;fill:none;"/><text fill="#2E2E2E" font-family="Segoe Print" font-size="20.8333" lengthAdjust="spacing" textLength="405.2083" x="15.625" y="31.838">State Diagram - sketchy-outline theme</text><polygon fill="#28A745" points="183.8542,139.8763,183.8542,140.0952,194.2708,139.4447,204.6875,140.0776,215.1042,140.2926,225.5208,139.1332,235.9375,139.7954,246.3542,139.432,256.7708,139.4768,267.1875,139.8763,267.1638,139.8763,266.9474,141.543,267.3797,143.2096,266.9687,144.8763,267.1188,146.543,267.1875,148.2096,267.1875,148.6596,256.7708,148.1203,246.3542,148.2807,235.9375,148.1764,225.5208,148.3956,215.1042,148.4587,204.6875,148.8197,194.2708,148.9086,183.8542,148.2096,184.09,148.2096,183.9426,146.543,184.0151,144.8763,184.098,143.2096,183.6038,141.543,183.8542,139.8763" style="stroke:none;stroke-width:1.0416666666666667;"/><polygon fill="#17A2B8" points="235.995,69.4934,234.4681,71.5797,232.6621,74.6355,230.0792,76.6949,227.3649,77.821,225.2008,77.9187,222.4192,76.5103,219.7947,75.5902,217.8026,73.7221,216.7576,71.5835,216.1379,69.8806,215.5308,67.6563,214.5454,65.7423,215.3027,63.8735,215.9661,61.8263,218.4558,60.2072,220.2074,58.1065,222.3754,57.4089,224.9528,56.8082,228.258,57.1651,230.0683,58.0189,232.173,58.4058,234.7322,61.0278,235.6243,63.7958,236.0119,65.6844,235.5729,68.7966" style="stroke:none;stroke-width:1.0416666666666667;"/><g id="State2"><polygon points="145.8333,210.7096,145.8333,210.9286,155.625,210.2781,165.4167,210.911,175.2083,211.126,185,209.9665,194.7917,210.7096,194.7813,210.6847,196.5764,211.3356,198.4236,212.1121,200.3069,212.976,202.0655,213.5388,203.9988,214.5233,204.1764,214.5969,204.5593,216.281,205.4608,218.1799,206.4256,220.105,207.0222,221.8776,207.8125,223.7305,207.8362,223.7305,207.8014,229.7656,207.8745,235.8008,207.8955,241.8359,208.0159,247.8711,207.8125,253.9063,208.0278,253.9954,207.2677,255.8379,206.3687,257.6229,205.673,259.4921,204.9868,261.3653,203.9988,263.1134,203.903,262.882,202.2475,264.0938,200.2765,264.5437,198.5454,265.5728,196.5673,266.0055,194.7917,266.9271,194.7917,266.8557,185,267.6996,175.2083,266.8763,165.4167,267.0368,155.625,267.2798,145.8333,266.9271,145.8886,267.0606,143.9914,266.1631,142.1886,265.4937,140.233,264.4552,138.5054,263.9673,136.6262,263.1134,136.8021,263.1862,136.0061,261.331,135.2974,259.512,134.183,257.5249,133.366,255.661,132.8125,253.9063,132.5967,253.9063,132.7921,247.8711,132.7443,241.8359,133.0491,235.8008,132.7518,229.7656,132.8125,223.7305,132.7025,223.6849,133.6485,221.9194,134.1241,219.959,134.9342,218.1372,136.0716,216.451,136.6262,214.5233,136.6841,214.6631,138.5652,213.9962,140.2663,212.8946,142.1929,212.3375,144.0704,211.6618,145.8333,210.7096" style="stroke:#333333;stroke-width:1.5625;fill:none;"/><path d="M132.8125,246.0938 L132.8125,246.3857 L143.5268,245.5183 L154.2411,246.3622 L164.9554,246.6489 L175.6696,245.1029 L186.3839,245.9858 L197.0982,245.5014 L207.8125,246.0938 " style="stroke:#333333;stroke-width:1.5625;fill:none;"/><text fill="#2E2E2E" font-family="Segoe Print" font-size="12.5" lengthAdjust="spacing" textLength="43.75" x="148.4375" y="232.7291">State2</text></g><g id="State3"><polygon points="257.2917,210.7096,257.2917,210.9286,267.0833,210.2781,276.875,210.911,286.6667,211.126,296.4583,209.9665,306.25,210.7096,306.2397,210.6847,308.0348,211.3356,309.8819,212.1121,311.7652,212.976,313.5238,213.5388,315.4571,214.5233,315.6347,214.5969,316.0177,216.281,316.9192,218.1799,317.8839,220.105,318.4806,221.8776,319.2708,223.7305,319.2945,223.7305,319.2597,229.7656,319.3328,235.8008,319.3539,241.8359,319.4742,247.8711,319.2708,253.9063,319.4861,253.9954,318.726,255.8379,317.827,257.6229,317.1313,259.4921,316.4451,261.3653,315.4571,263.1134,315.3613,262.882,313.7059,264.0938,311.7349,264.5437,310.0038,265.5728,308.0256,266.0055,306.25,266.9271,306.25,266.8557,296.4583,267.6996,286.6667,266.8763,276.875,267.0368,267.0833,267.2798,257.2917,266.9271,257.347,267.0606,255.4497,266.1631,253.647,265.4937,251.6913,264.4552,249.9638,263.9673,248.0845,263.1134,248.2604,263.1862,247.4644,261.331,246.7557,259.512,245.6414,257.5249,244.8244,255.661,244.2708,253.9063,244.0551,253.9063,244.2504,247.8711,244.2026,241.8359,244.5074,235.8008,244.2102,229.7656,244.2708,223.7305,244.1608,223.6849,245.1068,221.9194,245.5824,219.959,246.3925,218.1372,247.53,216.451,248.0845,214.5233,248.1424,214.6631,250.0236,213.9962,251.7246,212.8946,253.6512,212.3375,255.5287,211.6618,257.2917,210.7096" style="stroke:#333333;stroke-width:1.5625;fill:none;"/><path d="M244.2708,246.0938 L244.2708,246.3857 L254.9851,245.5183 L265.6994,246.3622 L276.4137,246.6489 L287.128,245.1029 L297.8423,245.9858 L308.5565,245.5014 L319.2708,246.0938 " style="stroke:#333333;stroke-width:1.5625;fill:none;"/><text fill="#2E2E2E" font-family="Segoe Print" font-size="12.5" lengthAdjust="spacing" textLength="43.75" x="259.8958" y="232.7291">State3</text></g><polygon fill="#28A745" points="183.8542,329.4596,183.8542,329.6786,194.2708,329.0281,204.6875,329.661,215.1042,329.876,225.5208,328.7165,235.9375,329.3787,246.3542,329.0154,256.7708,329.0602,267.1875,329.4596,267.1638,329.4596,266.9474,331.1263,267.3797,332.793,266.9687,334.4596,267.1188,336.1263,267.1875,337.793,267.1875,338.2429,256.7708,337.7036,246.3542,337.8641,235.9375,337.7597,225.5208,337.9789,215.1042,338.0421,204.6875,338.4031,194.2708,338.492,183.8542,337.793,184.09,337.793,183.9426,336.1263,184.0151,334.4596,184.098,332.793,183.6038,331.1263,183.8542,329.4596" style="stroke:none;stroke-width:1.0416666666666667;"/><g id="State4"><polygon points="201.0417,400.293,201.0417,400.5119,210.8333,399.8614,220.625,400.4943,230.4167,400.7093,240.2083,399.5498,250,400.293,249.9897,400.268,251.7848,400.9189,253.6319,401.6954,255.5152,402.5593,257.2738,403.1222,259.2071,404.1067,259.3847,404.1802,259.7677,405.8644,260.6692,407.7633,261.6339,409.6883,262.2306,411.461,263.0208,413.3138,263.0445,413.3138,263.0097,419.349,263.0828,425.3841,263.1039,431.4193,263.2242,437.4544,263.0208,443.4896,263.2361,443.5788,262.476,445.4213,261.577,447.2063,260.8813,449.0755,260.1951,450.9486,259.2071,452.6967,259.1113,452.4654,257.4559,453.6771,255.4849,454.1271,253.7538,455.1562,251.7756,455.5889,250,456.5104,250,456.4391,240.2083,457.2829,230.4167,456.4597,220.625,456.6201,210.8333,456.8632,201.0417,456.5104,201.097,456.6439,199.1997,455.7464,197.397,455.0771,195.4413,454.0386,193.7138,453.5507,191.8345,452.6967,192.0104,452.7695,191.2144,450.9143,190.5057,449.0953,189.3914,447.1082,188.5744,445.2443,188.0208,443.4896,187.8051,443.4896,188.0004,437.4544,187.9526,431.4193,188.2574,425.3841,187.9602,419.349,188.0208,413.3138,187.9108,413.2682,188.8568,411.5027,189.3324,409.5423,190.1425,407.7206,191.28,406.0343,191.8345,404.1067,191.8924,404.2464,193.7736,403.5796,195.4746,402.478,197.4012,401.9209,199.2787,401.2451,201.0417,400.293" style="stroke:#333333;stroke-width:1.5625;fill:none;"/><path d="M188.0208,435.6771 L188.0208,435.969 L198.7351,435.1016 L209.4494,435.9455 L220.1637,436.2322 L230.878,434.6863 L241.5923,435.5691 L252.3065,435.0847 L263.0208,435.6771 " style="stroke:#333333;stroke-width:1.5625;fill:none;"/><text fill="#2E2E2E" font-family="Segoe Print" font-size="12.5" lengthAdjust="spacing" textLength="43.75" x="203.6458" y="422.3124">State4</text></g><polygon points="77.0833,519.043,77.0833,519.2619,87.3204,518.6114,97.5575,519.2443,107.7945,519.4593,118.0316,518.2998,128.2687,518.962,138.5057,518.5987,148.7428,518.6435,158.9799,518.972,169.217,518.3228,179.454,519.6197,189.6911,518.3864,199.9282,518.837,210.1652,519.4929,220.4023,518.9536,230.6394,519.1141,240.8764,519.0097,251.1135,519.2289,261.3506,519.2921,271.5876,519.6531,281.8247,519.742,292.0618,519.7505,302.2989,519.3082,312.5359,519.5259,322.773,519.7745,333.0101,518.2917,343.2471,519.7498,353.4842,518.7341,363.7213,519.599,373.9583,519.043,373.8926,518.8842,375.7907,519.7837,377.7397,520.8064,379.4761,521.3156,381.338,522.1277,383.1655,522.8567,383.2741,522.9017,384.0617,524.7534,384.6897,526.539,385.5458,528.4191,386.0328,530.1463,386.9792,532.0638,387.2754,532.0638,387.5502,542.5153,387.4422,552.9669,387.6177,563.4184,386.476,573.87,386.2998,584.3215,386.3319,594.7731,386.9178,605.2246,386.7744,615.6762,387.689,626.1277,386.7972,636.5792,386.6218,647.0308,387.2169,657.4823,386.2845,667.9339,386.4384,678.3854,387.6552,688.837,387.433,699.2885,387.7443,709.74,386.644,720.1916,387.3117,730.6431,387.5942,741.0947,386.4871,751.5462,386.8793,761.9978,387.1104,772.4493,387.6581,782.9009,386.9748,793.3524,387.461,803.8039,386.4023,814.2555,386.2737,824.707,387.5038,835.1586,386.2324,845.6101,387.5093,856.0617,387.1944,866.5132,386.7001,876.9648,386.6107,887.4163,387.457,897.8678,386.6674,908.3194,387.5957,918.7709,386.4034,929.2225,387.6223,939.674,387.4836,950.1256,387.2343,960.5771,387.0284,971.0286,387.7361,981.4802,387.6183,991.9317,387.1555,1002.3833,387.2585,1012.8348,386.8435,1023.2864,387.7255,1033.7379,387.1405,1044.1895,387.1589,1054.641,386.3455,1065.0925,386.5571,1075.5441,387.532,1085.9956,387.4268,1096.4472,386.9344,1106.8987,386.9792,1117.3503,386.8758,1117.3075,386.1462,1119.1626,385.2336,1120.9419,384.824,1122.9296,384.1654,1124.8142,383.1655,1126.5574,383.2354,1126.7262,381.4164,1127.5431,379.4644,1128.039,377.6528,1128.8736,375.7483,1129.484,373.9583,1130.3711,373.9583,1130.667,363.7213,1130.6281,353.4842,1130.9465,343.2471,1130.1319,333.0101,1130.2311,322.773,1130.833,312.5359,1130.9621,302.2989,1129.8372,292.0618,1130.1691,281.8247,1130.5266,271.5876,1129.7348,261.3506,1130.7392,251.1135,1130.6398,240.8764,1130.2661,230.6394,1130.5193,220.4023,1131.1301,210.1652,1130.0452,199.9282,1130.6992,189.6911,1130.6686,179.454,1130.4917,169.217,1130.5179,158.9799,1130.4893,148.7428,1129.7209,138.5057,1129.9536,128.2687,1129.8903,118.0316,1130.4376,107.7945,1130.4629,97.5575,1130.5396,87.3204,1130.068,77.0833,1130.3711,77.0744,1130.3494,75.2259,1129.5698,73.4771,1129.0307,71.6157,1128.2197,69.6531,1127.1644,67.8762,1126.5574,67.8528,1126.5477,66.9283,1124.6393,66.4432,1122.9129,65.7832,1121.114,64.9999,1119.264,64.0625,1117.3503,63.6088,1117.3503,64.5458,1106.8987,63.2887,1096.4472,64.271,1085.9956,63.7507,1075.5441,64.1633,1065.0925,64.3128,1054.641,64.5543,1044.1895,63.3126,1033.7379,64.5578,1023.2864,64.2481,1012.8348,64.4326,1002.3833,64.8415,991.9317,64.0682,981.4802,64.2451,971.0286,64.2848,960.5771,64.268,950.1256,64.0617,939.674,64.8028,929.2225,63.4274,918.7709,64.6513,908.3194,63.4125,897.8678,63.4997,887.4163,64.1042,876.9648,64.092,866.5132,63.5491,856.0617,64.4935,845.6101,64.1759,835.1586,64.8194,824.707,64.7574,814.2555,63.5956,803.8039,63.648,793.3524,63.9279,782.9009,64.4328,772.4493,64.4823,761.9978,64.3762,751.5462,63.7063,741.0947,64.7254,730.6431,64.7227,720.1916,64.0132,709.74,63.8135,699.2885,63.6444,688.837,63.839,678.3854,64.2056,667.9339,63.9913,657.4823,63.6273,647.0308,64.5702,636.5792,63.5844,626.1277,64.5858,615.6762,64.5075,605.2246,64.4499,594.7731,64.7839,584.3215,63.8064,573.87,63.7493,563.4184,64.603,552.9669,63.4407,542.5153,64.0625,532.0638,63.9874,532.0327,64.8623,530.2377,65.61,528.3901,66.2357,526.4919,67.0997,524.6924,67.8762,522.8567,67.9752,523.0955,69.8038,522.302,71.4798,521.1399,73.4109,520.5936,75.1736,519.6409,77.0833,519.043" style="stroke:#333333;stroke-width:1.5625;fill:none;"/><polygon points="80.2083,557.5521,80.2083,557.771,90.5878,557.1205,100.9673,557.7534,111.3467,557.9684,121.7262,556.809,132.1057,557.4711,142.4851,557.1078,152.8646,557.1526,163.244,557.4811,173.6235,556.8319,184.003,558.1288,194.3824,556.8955,204.7619,557.3461,215.1414,558.002,225.5208,557.4627,235.9003,557.6232,246.2798,557.5188,256.6592,557.738,267.0387,557.8012,277.4182,558.1622,287.7976,558.2511,298.1771,558.2596,308.5565,557.8173,318.936,558.035,329.3155,558.2836,339.6949,556.8008,350.0744,558.2589,360.4539,557.2432,370.8333,557.5521,370.9043,557.7233,372.609,558.156,374.5071,559.0556,376.4561,560.0782,378.1926,560.5874,380.0405,561.3658,380.0742,561.3798,380.9118,563.2522,381.6995,565.104,382.3274,566.8895,383.1836,568.7697,383.8542,570.5729,383.2579,570.5729,384.1504,581.0278,384.4252,591.4826,384.3172,601.9375,384.4927,612.3923,383.351,622.8472,383.1748,633.302,383.2069,643.7569,383.7928,654.2117,383.6494,664.6666,384.564,675.1214,383.6722,685.5763,383.4968,696.0311,384.0919,706.486,383.1595,716.9409,383.3134,727.3957,384.5302,737.8506,384.308,748.3054,384.6193,758.7603,383.519,769.2151,384.1867,779.67,384.4692,790.1248,383.3621,800.5797,383.7543,811.0345,383.9854,821.4894,384.5331,831.9442,383.8498,842.3991,384.336,852.8539,383.2773,863.3088,383.1487,873.7636,384.3788,884.2185,383.1074,894.6734,384.3843,905.1282,384.0694,915.5831,383.5751,926.0379,383.4857,936.4928,384.332,946.9476,383.5424,957.4025,384.4707,967.8573,383.2784,978.3122,384.4973,988.767,384.3586,999.2219,384.1093,1009.6767,383.9034,1020.1316,384.6111,1030.5864,384.4933,1041.0413,384.0305,1051.4961,384.1335,1061.951,383.7185,1072.4058,384.6005,1082.8607,384.0155,1093.3156,384.0339,1103.7704,383.8542,1114.2253,383.659,1114.1444,382.9614,1116.0128,382.4989,1117.9786,381.7038,1119.8066,380.7894,1121.5853,380.0405,1123.4324,379.9976,1123.329,378.1699,1124.1249,376.2664,1124.7377,374.5713,1125.8537,372.773,1126.7206,370.8333,1127.2461,370.8333,1127.7944,360.4539,1127.97,350.0744,1127.1037,339.6949,1127.3369,329.3155,1126.8423,318.936,1127.542,308.5565,1127.5031,298.1771,1127.8215,287.7976,1127.0069,277.4182,1127.1061,267.0387,1127.708,256.6592,1127.8371,246.2798,1126.7122,235.9003,1127.0441,225.5208,1127.4016,215.1414,1126.6098,204.7619,1127.6142,194.3824,1127.5148,184.003,1127.1411,173.6235,1127.3943,163.244,1128.0051,152.8646,1126.9202,142.4851,1127.5742,132.1057,1127.5436,121.7262,1127.3667,111.3467,1127.3929,100.9673,1127.3643,90.5878,1126.5959,80.2083,1127.2461,80.1551,1127.1175,78.3056,1126.3353,76.534,1125.7411,74.6958,1124.9861,72.8641,1124.247,71.0012,1123.4324,70.9079,1123.3937,70.2168,1121.582,69.4372,1119.7336,68.898,1117.9848,68.0871,1116.1234,67.1875,1114.2253,66.6817,1114.2253,67.1115,1103.7704,66.5862,1093.3156,67.4879,1082.8607,67.8213,1072.4058,67.7548,1061.951,66.7338,1051.4961,67.6708,1041.0413,66.4137,1030.5864,67.396,1020.1316,66.8757,1009.6767,67.2883,999.2219,67.4378,988.767,67.6793,978.3122,66.4376,967.8573,67.6828,957.4025,67.3731,946.9476,67.5576,936.4928,67.9665,926.0379,67.1932,915.5831,67.3701,905.1282,67.4098,894.6734,67.393,884.2185,67.1867,873.7636,67.9278,863.3088,66.5524,852.8539,67.7763,842.3991,66.5375,831.9442,66.6247,821.4894,67.2292,811.0345,67.217,800.5797,66.6741,790.1248,67.6185,779.67,67.3009,769.2151,67.9444,758.7603,67.8824,748.3054,66.7206,737.8506,66.773,727.3957,67.0529,716.9409,67.5578,706.486,67.6073,696.0311,67.5012,685.5763,66.8313,675.1214,67.8504,664.6666,67.8477,654.2117,67.1382,643.7569,66.9385,633.302,66.7694,622.8472,66.964,612.3923,67.3306,601.9375,67.1163,591.4826,66.7523,581.0278,67.1875,570.5729,67.3438,570.6377,67.803,568.6705,68.8741,566.9568,69.6128,565.1054,70.3578,563.2566,71.0012,561.3658,71.0932,561.5879,72.81,560.5242,74.6441,559.7439,76.5944,559.244,78.2876,558.1233,80.2083,557.5521" style="stroke:#00000000;stroke-width:1.0416666666666667;fill:none;"/><path d="M64.0625,554.4271 L64.0625,554.719 L74.4792,553.8516 L84.8958,554.6955 L95.3125,554.9822 L105.7292,553.4363 L116.1458,554.3191 L126.5625,553.8347 L136.9792,553.8944 L147.3958,554.3324 L157.8125,553.4668 L168.2292,555.196 L178.6458,553.5517 L189.0625,554.1524 L199.4792,555.027 L209.8958,554.3079 L220.3125,554.5219 L230.7292,554.3827 L241.1458,554.675 L251.5625,554.7592 L261.9792,555.2405 L272.3958,555.3591 L282.8125,555.3705 L293.2292,554.7807 L303.6458,555.071 L314.0625,555.4024 L324.4792,553.4254 L334.8958,555.3695 L345.3125,554.0153 L355.7292,555.1685 L366.1458,553.7396 L376.5625,554.3319 L386.9792,554.4271 " style="stroke:#333333;stroke-width:1.5625;fill:none;"/><text fill="#2E2E2E" font-family="Segoe Print" font-size="12.5" lengthAdjust="spacing" textLength="38.5417" x="206.25" y="541.0624">Active</text><polygon fill="#17A2B8" points="96.4117,597.5858,94.8848,599.6722,93.0788,602.7279,90.4959,604.7873,87.7816,605.9135,85.6174,606.0112,82.8359,604.6028,80.2113,603.6827,78.2193,601.8146,77.1743,599.6759,76.5546,597.973,75.9475,595.7488,74.9621,593.8347,75.7193,591.9659,76.3828,589.9188,78.8724,588.2997,80.624,586.199,82.792,585.5014,85.3694,584.9006,88.6746,585.2575,90.4849,586.1113,92.5897,586.4983,95.1488,589.1202,96.041,591.8882,96.4286,593.7768,95.9895,596.8891" style="stroke:none;stroke-width:1.0416666666666667;"/><g id="Active.NumLockOff"><polygon points="128.6458,566.9271,128.6458,567.146,138.8021,566.4955,148.9583,567.1284,159.1146,567.3434,169.2708,566.184,179.4271,566.8461,189.5833,566.4828,199.7396,566.5276,209.8958,566.9271,209.8868,566.9052,211.6454,567.468,213.6522,568.6302,215.3364,569.0131,217.2353,569.9146,219.103,570.7408,219.2415,570.7982,219.8382,572.5708,220.6503,574.4327,221.3809,576.2608,222.2112,578.1302,222.9167,579.9479,222.9997,579.9479,223.12,585.9831,223.1497,592.0182,223.1525,598.0534,223.0051,604.0885,222.9167,610.1237,223.0654,610.1853,222.3792,612.0584,221.1598,613.7107,220.8461,615.7381,219.7706,617.45,219.103,619.3308,219.1739,619.5021,217.1958,619.9348,215.411,620.8343,213.6772,621.8569,211.7308,622.3662,209.8958,623.1445,209.8958,623.2542,199.7396,623.4973,189.5833,623.5781,179.4271,623.1405,169.2708,623.4437,159.1146,622.5483,148.9583,623.4408,138.8021,623.7156,128.6458,623.1445,128.7049,623.2871,126.8859,622.5784,124.8988,621.4641,123.0349,620.6471,121.1976,619.8942,119.4387,619.3308,119.4198,619.323,118.6129,617.4633,118.1318,615.7385,117.0945,613.7833,116.2777,611.9195,115.625,610.1237,115.7043,610.1237,115.3935,604.0885,115.4447,598.0534,115.8503,592.0182,115.7763,585.9831,115.625,579.9479,115.8606,580.0455,116.2845,578.0637,117.2529,576.3075,118.1026,574.5021,118.5244,572.5194,119.4387,570.7408,119.426,570.71,121.2969,570.0185,123.2082,569.4244,124.9624,568.4512,126.8659,567.8382,128.6458,566.9271" style="stroke:#333333;stroke-width:1.5625;fill:none;"/><path d="M115.625,602.3112 L115.625,602.6031 L126.3542,601.7358 L137.0833,602.5797 L147.8125,602.8663 L158.5417,601.3204 L169.2708,602.2033 L180,601.7188 L190.7292,601.7786 L201.4583,602.2165 L212.1875,601.351 L222.9167,602.3112 " style="stroke:#333333;stroke-width:1.5625;fill:none;"/><text fill="#2E2E2E" font-family="Segoe Print" font-size="12.5" lengthAdjust="spacing" textLength="76.0417" x="131.25" y="588.9465">NumLockOff</text></g><g id="Active.NumLockOn"><polygon points="128.6458,686.7188,128.6458,686.9377,138.8021,686.2872,148.9583,686.9201,159.1146,687.1351,169.2708,685.9756,179.4271,686.6378,189.5833,686.2745,199.7396,686.3193,209.8958,686.7188,209.8868,686.6969,211.6454,687.2597,213.6522,688.4218,215.3364,688.8048,217.2353,689.7063,219.103,690.5325,219.2415,690.5899,219.8382,692.3625,220.6503,694.2244,221.3809,696.0525,222.2112,697.9219,222.9167,699.7396,222.9997,699.7396,223.12,705.7747,223.1497,711.8099,223.1525,717.8451,223.0051,723.8802,222.9167,729.9154,223.0654,729.977,222.3792,731.8501,221.1598,733.5024,220.8461,735.5298,219.7706,737.2417,219.103,739.1225,219.1739,739.2937,217.1958,739.7264,215.411,740.626,213.6772,741.6486,211.7308,742.1578,209.8958,742.9362,209.8958,743.0459,199.7396,743.2889,189.5833,743.3698,179.4271,742.9321,169.2708,743.2354,159.1146,742.3399,148.9583,743.2324,138.8021,743.5072,128.6458,742.9362,128.7049,743.0788,126.8859,742.3701,124.8988,741.2557,123.0349,740.4388,121.1976,739.6859,119.4387,739.1225,119.4198,739.1147,118.6129,737.2549,118.1318,735.5302,117.0945,733.575,116.2777,731.7112,115.625,729.9154,115.7043,729.9154,115.3935,723.8802,115.4447,717.8451,115.8503,711.8099,115.7763,705.7747,115.625,699.7396,115.8606,699.8372,116.2845,697.8554,117.2529,696.0991,118.1026,694.2938,118.5244,692.3111,119.4387,690.5325,119.426,690.5017,121.2969,689.8101,123.2082,689.2161,124.9624,688.2429,126.8659,687.6299,128.6458,686.7188" style="stroke:#333333;stroke-width:1.5625;fill:none;"/><path d="M115.625,722.1029 L115.625,722.3948 L126.3542,721.5274 L137.0833,722.3713 L147.8125,722.658 L158.5417,721.112 L169.2708,721.9949 L180,721.5105 L190.7292,721.5702 L201.4583,722.0082 L212.1875,721.1426 L222.9167,722.1029 " style="stroke:#333333;stroke-width:1.5625;fill:none;"/><text fill="#2E2E2E" font-family="Segoe Print" font-size="12.5" lengthAdjust="spacing" textLength="76.0417" x="131.25" y="708.7382">NumLockOn</text></g><!--MD5=[f1e44e9cdf7ed6fd162579f896fb76ea]
link *start*Active to NumLockOff--><path d="M96.3542,595.0521 L96.3542,595.1494 L99.0979,594.8603 L101.8417,595.1416 L104.5854,595.2371 L107.3292,594.7218 L110.0729,595.0521 " fill="none" style="stroke:#333333;stroke-width:3.125;"/><polygon fill="#333333" points="115.4375,595.0521,115.4671,595.1188,113.5041,594.0873,111.7148,593.4467,109.8689,592.6789,107.8369,591.4924,106.0625,590.8854,106.0434,590.8663,106.7911,591.614,107.635,592.4579,108.5458,593.3687,109.2261,594.049,110.2292,595.0521,110.3651,595.188,109.2411,595.7307,108.5139,596.6702,107.8352,597.6581,106.8748,598.3644,106.0625,599.2188,106.0721,599.2404,107.933,598.3753,109.8377,597.6087,111.7212,596.7946,113.6451,596.0713,115.4375,595.0521" style="stroke:#333333;stroke-width:3.125;"/><!--MD5=[b6ef3c088f5474ecc81df30475e7d61b]
link NumLockOff to NumLockOn--><path d="M115.5625,616.3125 L115.6212,616.3901 L112.4687,618.41 L109.6602,620.8849 L106.7397,623.2117 L103.4509,625.0511 L100.6719,627.5651 L100.6439,627.5425 L98.1964,630.3134 L95.89,633.1983 L93.6817,636.1625 L91.1355,638.8535 L89.0625,641.9271 L89.3056,642.0085 L87.9139,644.4386 L87.2319,647.1063 L86.6365,649.8031 L85.5373,652.3311 L84.7031,654.9479 L84.7331,654.9579 L85.561,657.5474 L86.5253,660.1825 L87.4237,662.7956 L88.4477,665.4507 L89.0625,667.9688 L89.3079,668.1592 L91.257,670.6694 L93.0478,673.0566 L95.0703,675.6238 L97.1037,678.1993 L98.793,680.5078 L98.5804,680.2504 L101.4657,682.7922 L103.6509,684.4863 L106.3683,686.8249 L108.5377,688.4999 L111.1563,690.7188 " fill="none" style="stroke:#333333;stroke-width:3.125;"/><polygon fill="#333333" points="115.5625,693.5833,115.6237,693.6231,114.3235,691.7846,113.3821,690.1793,112.3238,688.4981,110.8815,686.5672,109.9708,684.9819,109.9444,684.9763,110.0708,686.1039,110.3302,687.2598,110.6821,688.4354,110.7153,689.5432,111.1949,690.7459,111.2349,690.9339,109.9967,690.7766,108.8751,691.1684,107.7677,691.6271,106.5775,691.696,105.4309,691.97,105.4346,691.9934,107.4555,692.2817,109.4933,692.6766,111.5229,693.02,113.5682,693.4615,115.5625,693.5833" style="stroke:#333333;stroke-width:3.125;"/><text fill="#2E2E2E" font-family="Segoe Print" font-size="12.5" lengthAdjust="spacing" textLength="126.0417" x="95.3125" y="659.7799">EvNumLockPressed</text><!--MD5=[3bfddee0d82dc74c927fbeb3d3f2e6a3]
link NumLockOn to NumLockOff--><path d="M213.5521,686.5625 L213.6243,686.6277 L214.9876,684.6878 L216.7742,683.1303 L218.423,681.4483 L219.6185,679.3567 L221.4414,677.832 L221.4109,677.813 L222.5065,675.7547 L223.7559,673.7926 L225.1123,671.8973 L226.1002,669.7718 L227.6042,667.9688 L227.8502,668.0405 L228.0834,665.2829 L229.035,662.7348 L230.0743,660.2122 L230.6035,657.541 L231.401,654.9479 L231.4314,654.9568 L230.6275,652.3396 L229.9616,649.7627 L229.2292,647.1664 L228.6239,644.6072 L227.6042,641.9271 L227.8592,642.1045 L225.8248,639.1775 L223.6259,636.1361 L221.6679,633.2621 L219.7211,630.3961 L217.4167,627.2813 " fill="none" style="stroke:#333333;stroke-width:3.125;"/><polygon fill="#333333" points="213.5521,623.3333,213.6205,623.3588,214.1345,625.2055,215.0493,627.2016,215.8337,629.1491,216.1888,630.9364,217.138,632.9454,217.111,632.9452,217.0018,631.7655,217.0287,630.5872,217.1501,629.4099,216.9456,628.2292,217.1975,627.0532,217.1995,627.2454,218.3738,626.8463,219.5538,627.0083,220.7344,627.2389,221.911,627.071,223.0898,627.1127,223.0985,627.1347,221.1782,626.3465,219.2975,625.6586,217.3978,624.9223,215.5345,624.2783,213.5521,623.3333" style="stroke:#333333;stroke-width:3.125;"/><text fill="#2E2E2E" font-family="Segoe Print" font-size="12.5" lengthAdjust="spacing" textLength="126.0417" x="236.9792" y="659.7799">EvNumLockPressed</text><path d="M69.2708,748.1445 L69.2708,748.4365 L79.6181,747.5691 L89.9653,748.413 L100.3125,748.6996 L110.6597,747.1537 L121.0069,748.0366 L131.3542,747.5522 L141.7014,747.6119 L152.0486,748.0499 L162.3958,747.1843 L172.7431,748.9135 L183.0903,747.2691 L193.4375,747.8699 L203.7847,748.7445 L214.1319,748.0254 L224.4792,748.2393 L234.8264,748.1002 L245.1736,748.3925 L255.5208,748.4767 L265.8681,748.958 L276.2153,749.0766 L286.5625,749.0879 L296.9097,748.4982 L307.2569,748.7884 L317.6042,749.1199 L327.9514,747.1429 L338.2986,749.0869 L348.6458,747.7327 L358.9931,748.8859 L369.3403,747.457 L379.6875,748.1445 " fill="none" style="stroke:#333333;stroke-width:1.5625;stroke-dasharray:8.0,10.0;"/><polygon fill="#17A2B8" points="96.4117,786.0949,94.8848,788.1813,93.0788,791.2371,90.4959,793.2964,87.7816,794.4226,85.6174,794.5203,82.8359,793.1119,80.2113,792.1918,78.2193,790.3237,77.1743,788.185,76.5546,786.4822,75.9475,784.2579,74.9621,782.3438,75.7193,780.475,76.3828,778.4279,78.8724,776.8088,80.624,774.7081,82.792,774.0105,85.3694,773.4097,88.6746,773.7667,90.4849,774.6204,92.5897,775.0074,95.1488,777.6294,96.041,780.3973,96.4286,782.286,95.9895,785.3982" style="stroke:none;stroke-width:1.0416666666666667;"/><g id="Active.CONC87.CapsLockOff"><polygon points="128.125,755.4362,128.125,755.6551,138.6719,755.0046,149.2188,755.6375,159.7656,755.8525,170.3125,754.6931,180.8594,755.3552,191.4063,754.9919,201.9531,755.0367,212.5,755.4362,212.4909,755.4143,214.2496,755.9772,216.2564,757.1393,217.9405,757.5222,219.8394,758.4237,221.7071,759.2499,221.8457,759.3073,222.4423,761.0799,223.2545,762.9418,223.9851,764.7699,224.8154,766.6393,225.5208,768.457,225.6039,768.457,225.7242,774.4922,225.7538,780.5273,225.7567,786.5625,225.6092,792.5977,225.5208,798.6328,225.6695,798.6944,224.9834,800.5675,223.764,802.2198,223.4503,804.2472,222.3747,805.9591,221.7071,807.8399,221.7781,808.0112,219.7999,808.4439,218.0152,809.3434,216.2814,810.3661,214.3349,810.8753,212.5,811.6536,212.5,811.7633,201.9531,812.0064,191.4063,812.0872,180.8594,811.6496,170.3125,811.9528,159.7656,811.0574,149.2188,811.9499,138.6719,812.2247,128.125,811.6536,128.1841,811.7962,126.365,811.0876,124.378,809.9732,122.5141,809.1562,120.6767,808.4033,118.9179,807.8399,118.899,807.8321,118.0921,805.9724,117.611,804.2476,116.5736,802.2924,115.7569,800.4287,115.1042,798.6328,115.1834,798.6328,114.8726,792.5977,114.9239,786.5625,115.3295,780.5273,115.2554,774.4922,115.1042,768.457,115.3398,768.5546,115.7637,766.5728,116.732,764.8166,117.5818,763.0112,118.0036,761.0286,118.9179,759.2499,118.9051,759.2192,120.776,758.5276,122.6873,757.9335,124.4416,756.9603,126.345,756.3473,128.125,755.4362" style="stroke:#333333;stroke-width:1.5625;fill:none;"/><path d="M115.1042,790.8203 L115.1042,791.1122 L125.142,790.2449 L135.1799,791.0888 L145.2178,791.3754 L155.2557,789.8295 L165.2936,790.7124 L175.3314,790.228 L185.3693,790.2877 L195.4072,790.7257 L205.4451,789.8601 L215.483,791.5893 L225.5208,790.8203 " style="stroke:#333333;stroke-width:1.5625;fill:none;"/><text fill="#2E2E2E" font-family="Segoe Print" font-size="12.5" lengthAdjust="spacing" textLength="79.1667" x="130.7292" y="777.4556">CapsLockOff</text></g><g id="Active.CONC87.CapsLockOn"><polygon points="127.0833,875.2279,127.0833,875.4468,137.6302,874.7963,148.1771,875.4292,158.724,875.6442,169.2708,874.4847,179.8177,875.1469,190.3646,874.7836,200.9115,874.8284,211.4583,875.2279,211.4493,875.206,213.2079,875.7688,215.2147,876.931,216.8989,877.3139,218.7978,878.2154,220.6655,879.0416,220.804,879.099,221.4007,880.8716,222.2128,882.7335,222.9434,884.5616,223.7737,886.431,224.4792,888.2487,224.5622,888.2487,224.6825,894.2839,224.7122,900.319,224.715,906.3542,224.5676,912.3893,224.4792,918.4245,224.6279,918.4861,223.9417,920.3592,222.7223,922.0115,222.4086,924.0389,221.3331,925.7508,220.6655,927.6316,220.7364,927.8028,218.7583,928.2355,216.9735,929.1351,215.2397,930.1577,213.2933,930.6669,211.4583,931.4453,211.4583,931.555,200.9115,931.798,190.3646,931.8789,179.8177,931.4412,169.2708,931.7445,158.724,930.849,148.1771,931.7415,137.6302,932.0163,127.0833,931.4453,127.1424,931.5879,125.3234,930.8792,123.3363,929.7649,121.4724,928.9479,119.6351,928.195,117.8762,927.6316,117.8573,927.6238,117.0504,925.7641,116.5693,924.0393,115.532,922.0841,114.7152,920.2203,114.0625,918.4245,114.1418,918.4245,113.831,912.3893,113.8822,906.3542,114.2878,900.319,114.2138,894.2839,114.0625,888.2487,114.2981,888.3463,114.722,886.3645,115.6904,884.6083,116.5401,882.8029,116.9619,880.8202,117.8762,879.0416,117.8635,879.0108,119.7344,878.3193,121.6457,877.7252,123.3999,876.752,125.3034,876.139,127.0833,875.2279" style="stroke:#333333;stroke-width:1.5625;fill:none;"/><path d="M114.0625,910.612 L114.0625,910.9039 L124.1004,910.0365 L134.1383,910.8804 L144.1761,911.1671 L154.214,909.6212 L164.2519,910.504 L174.2898,910.0196 L184.3277,910.0793 L194.3655,910.5173 L204.4034,909.6517 L214.4413,911.3809 L224.4792,910.612 " style="stroke:#333333;stroke-width:1.5625;fill:none;"/><text fill="#2E2E2E" font-family="Segoe Print" font-size="12.5" lengthAdjust="spacing" textLength="79.1667" x="129.6875" y="897.2473">CapsLockOn</text></g><!--MD5=[70bdb58272bc1a7d9e9d21dfe0316432]
link *start*CONC87 to CapsLockOff--><path d="M96.4792,783.5612 L96.4792,783.6585 L99.075,783.3694 L101.6708,783.6507 L104.2667,783.7462 L106.8625,783.2309 L109.4583,783.5612 " fill="none" style="stroke:#333333;stroke-width:3.125;"/><polygon fill="#333333" points="114.9375,783.5612,114.9671,783.6279,113.0041,782.5964,111.2148,781.9559,109.3689,781.188,107.3369,780.0015,105.5625,779.3945,105.5434,779.3755,106.2911,780.1232,107.135,780.967,108.0458,781.8778,108.7261,782.5581,109.7292,783.5612,109.8651,783.6971,108.7411,784.2398,108.0139,785.1793,107.3352,786.1673,106.3748,786.8735,105.5625,787.7279,105.5721,787.7495,107.433,786.8844,109.3377,786.1178,111.2212,785.3037,113.1451,784.5804,114.9375,783.5612" style="stroke:#333333;stroke-width:3.125;"/><!--MD5=[dc4675bd3056f3ef68701d9e8e02a3f3]
link CapsLockOff to CapsLockOn--><path d="M114.7813,810.1341 L114.8328,810.2166 L111.3364,812.0594 L108.1422,814.3861 L104.8496,816.5551 L101.2334,818.2061 L98.0651,820.5742 L98.0399,820.5485 L95.9179,822.4057 L93.923,824.3923 L92.0164,826.4689 L89.8054,828.2354 L88.0208,830.4362 L88.2637,830.5181 L86.867,832.9464 L86.1794,835.6137 L85.5783,838.3102 L84.4738,840.8371 L83.6341,843.4531 L83.6641,843.4632 L84.4974,846.0534 L85.4671,848.6894 L86.3711,851.3033 L87.4005,853.9595 L88.0208,856.4779 L88.2666,856.6679 L90.1441,859.0952 L91.8631,861.4 L93.8141,863.8841 L95.776,866.3767 L97.3932,868.6029 L97.1788,868.347 L99.9664,870.8311 L102.0478,872.4727 L104.666,874.7548 L106.7314,876.3772 L109.25,878.5404 " fill="none" style="stroke:#333333;stroke-width:3.125;"/><polygon fill="#333333" points="114.0417,881.707,114.1032,881.7463,112.8157,879.9005,111.8888,878.285,110.8445,876.5945,109.4141,874.6574,108.5182,873.0617,108.4917,873.0563,108.6088,874.1867,108.8591,875.3444,109.2021,876.521,109.2257,877.6324,109.6967,878.8352,109.7351,879.0235,108.4982,878.8564,107.3735,879.2393,106.2626,879.6892,105.0719,879.7488,103.9232,880.0137,103.9271,880.037,105.945,880.3414,107.9808,880.7522,110.008,881.1116,112.0515,881.5689,114.0417,881.707" style="stroke:#333333;stroke-width:3.125;"/><text fill="#2E2E2E" font-family="Segoe Print" font-size="12.5" lengthAdjust="spacing" textLength="129.1667" x="94.2708" y="848.289">EvCapsLockPressed</text><!--MD5=[79e17b083e07746bd1a647600952cab6]
link CapsLockOn to CapsLockOff--><path d="M215.4063,875.0195 L215.4778,875.0855 L216.8652,873.1526 L218.6721,871.6062 L220.3423,869.934 L221.5633,867.8478 L223.4063,866.3346 L223.3759,866.3153 L224.496,864.2572 L225.769,862.2965 L227.1484,860.4036 L228.1613,858.2772 L229.6875,856.4779 L229.9333,856.5505 L230.1764,853.7926 L231.1372,851.2467 L232.1855,848.7267 L232.7244,846.0562 L233.5313,843.4648 L233.5616,843.4738 L232.7483,840.8549 L232.073,838.2768 L231.3312,835.679 L230.7163,833.1187 L229.6875,830.4362 L229.941,830.6158 L227.817,827.6159 L225.5295,824.5002 L223.4814,821.554 L221.4444,818.6158 L219.0521,815.4258 " fill="none" style="stroke:#333333;stroke-width:3.125;"/><polygon fill="#333333" points="215.375,811.7279,215.4432,811.7539,215.9733,813.5931,216.9031,815.585,217.7027,817.5271,218.0744,819.3057,219.0385,821.3107,219.0115,821.3106,218.8928,820.1319,218.9101,818.9534,219.022,817.7751,218.808,816.5962,219.0504,815.4181,219.0508,815.6104,220.2285,815.2017,221.4073,815.3542,222.5862,815.5753,223.7644,815.3979,224.9429,815.43,224.9515,815.4521,223.0254,814.6793,221.1381,814.007,219.2321,813.2862,217.362,812.658,215.375,811.7279" style="stroke:#333333;stroke-width:3.125;"/><text fill="#2E2E2E" font-family="Segoe Print" font-size="12.5" lengthAdjust="spacing" textLength="129.1667" x="240.1042" y="848.289">EvCapsLockPressed</text><path d="M69.2708,936.6536 L69.2708,936.9456 L79.6181,936.0782 L89.9653,936.9221 L100.3125,937.2088 L110.6597,935.6628 L121.0069,936.5457 L131.3542,936.0613 L141.7014,936.121 L152.0486,936.559 L162.3958,935.6934 L172.7431,937.4226 L183.0903,935.7783 L193.4375,936.379 L203.7847,937.2536 L214.1319,936.5345 L224.4792,936.7484 L234.8264,936.6093 L245.1736,936.9016 L255.5208,936.9858 L265.8681,937.4671 L276.2153,937.5857 L286.5625,937.5971 L296.9097,937.0073 L307.2569,937.2975 L317.6042,937.629 L327.9514,935.652 L338.2986,937.596 L348.6458,936.2418 L358.9931,937.3951 L369.3403,935.9661 L379.6875,936.6536 " fill="none" style="stroke:#333333;stroke-width:1.5625;stroke-dasharray:8.0,10.0;"/><polygon fill="#17A2B8" points="96.4117,974.6041,94.8848,976.6904,93.0788,979.7462,90.4959,981.8055,87.7816,982.9317,85.6174,983.0294,82.8359,981.621,80.2113,980.7009,78.2193,978.8328,77.1743,976.6942,76.5546,974.9913,75.9475,972.767,74.9621,970.853,75.7193,968.9841,76.3828,966.937,78.8724,965.3179,80.624,963.2172,82.792,962.5196,85.3694,961.9188,88.6746,962.2758,90.4849,963.1295,92.5897,963.5165,95.1488,966.1385,96.041,968.9064,96.4286,970.7951,95.9895,973.9073" style="stroke:none;stroke-width:1.0416666666666667;"/><g id="Active.CONC95.ScrollLockOff"><polygon points="128.6458,943.9453,128.6458,944.1643,139.5833,943.5137,150.5208,944.1467,161.4583,944.3616,172.3958,943.2022,183.3333,943.8644,194.2708,943.501,205.2083,943.5458,216.1458,943.9453,216.1368,943.9234,217.8954,944.4863,219.9022,945.6484,221.5864,946.0314,223.4853,946.9328,225.353,947.759,225.4915,947.8164,226.0882,949.5891,226.9003,951.4509,227.6309,953.2791,228.4612,955.1484,229.1667,956.9661,229.2497,956.9661,229.37,963.0013,229.3997,969.0365,229.4025,975.0716,229.2551,981.1068,229.1667,987.1419,229.3154,987.2035,228.6292,989.0767,227.4098,990.7289,227.0961,992.7564,226.0206,994.4682,225.353,996.349,225.4239,996.5203,223.4458,996.953,221.661,997.8526,219.9272,998.8752,217.9808,999.3844,216.1458,1000.1628,216.1458,1000.2725,205.2083,1000.5155,194.2708,1000.5963,183.3333,1000.1587,172.3958,1000.4619,161.4583,999.5665,150.5208,1000.459,139.5833,1000.7338,128.6458,1000.1628,128.7049,1000.3054,126.8859,999.5967,124.8988,998.4823,123.0349,997.6653,121.1976,996.9124,119.4387,996.349,119.4198,996.3412,118.6129,994.4815,118.1318,992.7567,117.0945,990.8016,116.2777,988.9378,115.625,987.1419,115.7043,987.1419,115.3935,981.1068,115.4447,975.0716,115.8503,969.0365,115.7763,963.0013,115.625,956.9661,115.8606,957.0637,116.2845,955.082,117.2529,953.3257,118.1026,951.5203,118.5244,949.5377,119.4387,947.759,119.426,947.7283,121.2969,947.0367,123.2082,946.4426,124.9624,945.4695,126.8659,944.8564,128.6458,943.9453" style="stroke:#333333;stroke-width:1.5625;fill:none;"/><path d="M115.625,979.3294 L115.625,979.6213 L125.947,978.754 L136.2689,979.5979 L146.5909,979.8845 L156.9129,978.3386 L167.2348,979.2215 L177.5568,978.7371 L187.8788,978.7968 L198.2008,979.2348 L208.5227,978.3692 L218.8447,980.0984 L229.1667,979.3294 " style="stroke:#333333;stroke-width:1.5625;fill:none;"/><text fill="#2E2E2E" font-family="Segoe Print" font-size="12.5" lengthAdjust="spacing" textLength="82.2917" x="131.25" y="965.9648">ScrollLockOff</text></g><g id="Active.CONC95.ScrollLockOn"><polygon points="128.6458,1063.737,128.6458,1063.9559,139.5833,1063.3054,150.5208,1063.9383,161.4583,1064.1533,172.3958,1062.9939,183.3333,1063.656,194.2708,1063.2927,205.2083,1063.3375,216.1458,1063.737,216.1368,1063.7151,217.8954,1064.2779,219.9022,1065.4401,221.5864,1065.823,223.4853,1066.7245,225.353,1067.5507,225.4915,1067.6081,226.0882,1069.3807,226.9003,1071.2426,227.6309,1073.0707,228.4612,1074.9401,229.1667,1076.7578,229.2497,1076.7578,229.37,1082.793,229.3997,1088.8281,229.4025,1094.8633,229.2551,1100.8984,229.1667,1106.9336,229.3154,1106.9952,228.6292,1108.8683,227.4098,1110.5206,227.0961,1112.548,226.0206,1114.2599,225.353,1116.1407,225.4239,1116.312,223.4458,1116.7447,221.661,1117.6442,219.9272,1118.6668,217.9808,1119.1761,216.1458,1119.9544,216.1458,1120.0641,205.2083,1120.3072,194.2708,1120.388,183.3333,1119.9504,172.3958,1120.2536,161.4583,1119.3582,150.5208,1120.2507,139.5833,1120.5255,128.6458,1119.9544,128.7049,1120.097,126.8859,1119.3883,124.8988,1118.274,123.0349,1117.457,121.1976,1116.7041,119.4387,1116.1407,119.4198,1116.1329,118.6129,1114.2732,118.1318,1112.5484,117.0945,1110.5932,116.2777,1108.7294,115.625,1106.9336,115.7043,1106.9336,115.3935,1100.8984,115.4447,1094.8633,115.8503,1088.8281,115.7763,1082.793,115.625,1076.7578,115.8606,1076.8554,116.2845,1074.8736,117.2529,1073.1174,118.1026,1071.312,118.5244,1069.3293,119.4387,1067.5507,119.426,1067.5199,121.2969,1066.8284,123.2082,1066.2343,124.9624,1065.2611,126.8659,1064.6481,128.6458,1063.737" style="stroke:#333333;stroke-width:1.5625;fill:none;"/><path d="M115.625,1099.1211 L115.625,1099.413 L125.947,1098.5456 L136.2689,1099.3895 L146.5909,1099.6762 L156.9129,1098.1303 L167.2348,1099.0132 L177.5568,1098.5287 L187.8788,1098.5885 L198.2008,1099.0264 L208.5227,1098.1609 L218.8447,1099.89 L229.1667,1099.1211 " style="stroke:#333333;stroke-width:1.5625;fill:none;"/><text fill="#2E2E2E" font-family="Segoe Print" font-size="12.5" lengthAdjust="spacing" textLength="82.2917" x="131.25" y="1085.7564">ScrollLockOn</text></g><!--MD5=[8676698f49c1acec7e35e8e65e103748]
link *start*CONC95 to ScrollLockOff--><path d="M96.4063,972.0703 L96.4063,972.1676 L99.1375,971.8785 L101.8688,972.1598 L104.6,972.2553 L107.3313,971.74 L110.0625,972.0703 " fill="none" style="stroke:#333333;stroke-width:3.125;"/><polygon fill="#333333" points="115.4063,972.0703,115.4359,972.137,113.4728,971.1055,111.6835,970.465,109.8376,969.6971,107.8056,968.5106,106.0313,967.9036,106.0122,967.8846,106.7599,968.6323,107.6038,969.4762,108.5145,970.3869,109.1948,971.0672,110.1979,972.0703,110.3338,972.2062,109.2098,972.7489,108.4827,973.6884,107.804,974.6764,106.8435,975.3826,106.0313,976.237,106.0409,976.2586,107.9017,975.3935,109.8064,974.627,111.69,973.8129,113.6138,973.0895,115.4063,972.0703" style="stroke:#333333;stroke-width:3.125;"/><!--MD5=[da4e1e55b4a6de250eca2c82023085fa]
link ScrollLockOff to ScrollLockOn--><path d="M115.5104,994.7682 L115.5705,994.8447 L112.6609,996.7632 L110.1037,999.1303 L107.4318,1001.3512 L104.3824,1003.0919 L101.8555,1005.4974 L101.8273,1005.475 L99.5591,1008.064 L97.4327,1010.766 L95.405,1013.5465 L93.0374,1016.0563 L91.1458,1018.9453 L91.3888,1019.0269 L89.9942,1021.4565 L89.309,1024.1245 L88.7104,1026.8215 L87.6082,1029.3493 L86.7708,1031.9661 L86.8008,1031.9762 L87.6318,1034.5656 L88.5992,1037.2008 L89.5008,1039.8139 L90.5279,1042.4692 L91.1458,1044.987 L91.3928,1045.1755 L93.156,1047.4843 L94.7599,1049.6715 L96.5969,1052.0367 L98.4449,1054.4102 L99.9466,1056.5195 L99.7283,1056.2669 L102.3669,1058.6715 L104.2865,1060.2443 L106.7528,1062.4495 L108.6561,1064.0034 L111.0208,1066.0911 " fill="none" style="stroke:#333333;stroke-width:3.125;"/><polygon fill="#333333" points="115.5104,1069.1641,115.5726,1069.2023,114.3121,1067.3414,113.416,1065.7048,112.4012,1063.9952,110.9963,1062.0454,110.1314,1060.428,110.1049,1060.4231,110.2023,1061.5593,110.4335,1062.7205,110.7576,1063.8991,110.7613,1065.0178,111.2138,1066.2203,111.2491,1066.4093,110.0151,1066.2217,108.8842,1066.5858,107.7659,1067.0172,106.5745,1067.0569,105.4215,1067.3027,105.4258,1067.326,107.4372,1067.664,109.4683,1068.1082,111.4899,1068.5012,113.5295,1068.9918,115.5104,1069.1641" style="stroke:#333333;stroke-width:3.125;"/><text fill="#2E2E2E" font-family="Segoe Print" font-size="12.5" lengthAdjust="spacing" textLength="129.1667" x="97.3958" y="1036.7981">EvCapsLockPressed</text><!--MD5=[6ad2c621f2407b82317910f4deb17639]
link ScrollLockOn to ScrollLockOff--><path d="M218.5313,1063.5286 L218.6028,1063.5946 L219.9902,1061.6617 L221.7971,1060.1153 L223.4673,1058.4431 L224.6883,1056.357 L226.5313,1054.8438 L226.5009,1054.8244 L227.621,1052.7663 L228.894,1050.8056 L230.2734,1048.9127 L231.2863,1046.7863 L232.8125,1044.987 L233.0582,1045.0598 L233.3046,1042.2999 L234.2685,1039.7526 L235.3199,1037.2313 L235.8619,1034.559 L236.6719,1031.9661 L236.7022,1031.9751 L235.8858,1029.3578 L235.2074,1026.7813 L234.4624,1024.1851 L233.8443,1021.6265 L232.8125,1018.9453 L233.0659,1019.125 L230.9961,1016.2043 L228.7628,1013.1677 L226.7688,1010.3007 L224.786,1007.4417 L222.4479,1004.3307 " fill="none" style="stroke:#333333;stroke-width:3.125;"/><polygon fill="#333333" points="218.5313,1000.4036,218.5994,1000.4297,219.1296,1002.2688,220.0593,1004.2607,220.859,1006.2029,221.2307,1007.9815,222.1947,1009.9865,222.1678,1009.9864,222.049,1008.8077,222.0663,1007.6292,222.1782,1006.4509,221.9642,1005.272,222.2067,1004.0939,222.207,1004.2862,223.3847,1003.8775,224.5635,1004.03,225.7425,1004.2511,226.9206,1004.0737,228.0992,1004.1058,228.1077,1004.1279,226.1816,1003.355,224.2944,1002.6828,222.3884,1001.962,220.5182,1001.3337,218.5313,1000.4036" style="stroke:#333333;stroke-width:3.125;"/><text fill="#2E2E2E" font-family="Segoe Print" font-size="12.5" lengthAdjust="spacing" textLength="129.1667" x="242.1875" y="1036.7981">EvCapsLockPressed</text><!--MD5=[242ad121cef04112e9b0ee8f25f52375]
link *start to fork_state--><path d="M225.5208,77.5013 L225.8128,77.5013 L224.9454,88.8367 L225.7893,100.1721 L226.0759,111.5076 L224.53,122.843 L225.5208,134.1784 " fill="none" style="stroke:#333333;stroke-width:3.125;"/><polygon fill="#333333" points="225.5208,139.6576,225.5875,139.6872,226.2227,137.7241,227.2488,135.9348,228.1476,134.0889,228.6278,132.0569,229.6875,130.2826,229.6684,130.2635,228.7495,131.0112,227.9267,131.8551,227.1708,132.7658,226.1844,133.4461,225.5208,134.4492,225.6568,134.5852,224.5328,133.4611,223.8056,132.734,223.1269,132.0553,222.1664,131.0948,221.3542,130.2826,221.3758,130.2922,222.1774,132.153,223.0775,134.0577,223.93,135.9413,224.8733,137.8651,225.5208,139.6576" style="stroke:#333333;stroke-width:3.125;"/><!--MD5=[44dd36eb382d4fffd186e8c447a61da0]
link fork_state to State2--><path d="M223.4271,148.6055 L223.6779,148.7548 L217.233,157.8822 L212.2584,167.8852 L206.8051,177.603 L199.7772,186.3832 L194.8361,196.4061 L189.2292,206.0326 " fill="none" style="stroke:#333333;stroke-width:3.125;"/><polygon fill="#333333" points="186.5208,210.5742,186.5629,210.6338,188.1142,209.2735,189.9122,208.2627,191.6299,207.1381,193.0834,205.6392,194.9026,204.6584,194.896,204.6322,193.7237,204.8034,192.5848,205.1065,191.469,205.5013,190.2734,205.5802,189.1895,206.1015,189.3759,206.1486,188.6887,204.9053,188.5457,203.7995,188.469,202.7104,188.0061,201.5238,187.7463,200.3885,187.7699,200.3913,187.4902,202.4243,187.3177,204.4702,187.0935,206.5098,186.9678,208.5614,186.5208,210.5742" style="stroke:#333333;stroke-width:3.125;"/><!--MD5=[43d4d70f9cd19f132a5eb1ce9d85c890]
link fork_state to State3--><path d="M227.6563,148.6055 L227.9058,148.7569 L232.9716,157.8781 L239.5003,167.8871 L245.5527,177.607 L250.0383,186.3762 L256.6004,196.4054 L262.5,206.0326 " fill="none" style="stroke:#333333;stroke-width:3.125;"/><polygon fill="#333333" points="265.25,210.5742,265.3224,210.5834,264.8492,208.5206,264.8004,206.5116,264.6134,204.485,263.9719,202.4009,263.9595,200.3965,263.9333,200.39,263.5344,201.5056,263.2675,202.6536,263.0925,203.8241,262.601,204.9169,262.5528,206.1187,262.5987,206.3053,261.3561,205.6248,260.2476,205.4893,259.1553,205.4203,257.968,204.9644,256.8306,204.712,256.8442,204.7314,258.5082,205.8753,260.2338,207.1077,261.9297,208.2975,263.6823,209.5687,265.25,210.5742" style="stroke:#333333;stroke-width:3.125;"/><!--MD5=[8cf5ef3a64654818495211b4c165bd62]
link State2 to join_state--><path d="M186.5833,267.1888 L186.8342,267.3382 L191.7851,276.4604 L198.2064,286.4581 L204.1488,296.1707 L208.5167,304.9458 L214.9715,314.9634 L220.7604,324.5846 " fill="none" style="stroke:#333333;stroke-width:3.125;"/><polygon fill="#333333" points="223.4896,329.1784,223.5621,329.187,223.1046,327.1239,223.072,325.1113,222.901,323.0822,222.2751,320.9991,222.279,318.9908,222.2528,318.9842,221.8451,320.0966,221.5693,321.2424,221.3851,322.4116,220.8851,323.5005,220.8274,324.7018,220.8748,324.8881,219.6313,324.1994,218.5261,324.0546,217.4378,323.9762,216.2513,323.5117,215.1165,323.2503,215.1301,323.2696,216.7847,324.4268,218.5015,325.6721,220.1883,326.8749,221.9325,328.1587,223.4896,329.1784" style="stroke:#333333;stroke-width:3.125;"/><!--MD5=[183fde86cac17ac230b97143534e47db]
link State3 to join_state--><path d="M265.1979,267.1888 L265.4475,267.3402 L258.9021,276.4563 L253.8198,286.46 L248.261,296.1747 L241.1355,304.9387 L236.0865,314.9627 L230.375,324.5846 " fill="none" style="stroke:#333333;stroke-width:3.125;"/><polygon fill="#333333" points="227.5833,329.1784,227.6249,329.2384,229.1882,327.8918,230.995,326.8969,232.7226,325.7875,234.1892,324.3014,236.017,323.3367,236.0106,323.3105,234.8369,323.4714,233.6953,323.7644,232.576,324.1494,231.3798,324.2176,230.2914,324.7294,230.4782,324.7749,229.8002,323.5326,229.6676,322.423,229.6015,321.3295,229.1483,320.1419,228.8987,319.0038,228.9222,319.0069,228.6246,321.0373,228.434,323.0816,228.1918,325.1192,228.0481,327.1695,227.5833,329.1784" style="stroke:#333333;stroke-width:3.125;"/><!--MD5=[1e473d623208eebf6d5ebd6e9bc5a11d]
link join_state to State4--><path d="M225.5208,338.1888 L225.8128,338.1888 L224.9454,349.5096 L225.7893,360.8305 L226.0759,372.1513 L224.53,383.4721 L225.5208,394.793 " fill="none" style="stroke:#333333;stroke-width:3.125;"/><polygon fill="#333333" points="225.5208,400.1576,225.5875,400.1872,226.2227,398.2241,227.2488,396.4348,228.1476,394.5889,228.6278,392.5569,229.6875,390.7826,229.6684,390.7635,228.7495,391.5112,227.9267,392.3551,227.1708,393.2658,226.1844,393.9461,225.5208,394.9492,225.6568,395.0852,224.5328,393.9611,223.8056,393.234,223.1269,392.5553,222.1664,391.5948,221.3542,390.7826,221.3758,390.7922,222.1774,392.653,223.0775,394.5577,223.93,396.4413,224.8733,398.3651,225.5208,400.1576" style="stroke:#333333;stroke-width:3.125;"/><!--MD5=[0a70b1a7cf318979336334b4227eefe4]
link State4 to Active--><path d="M225.5208,456.5638 L225.8128,456.5638 L224.9454,467.993 L225.7893,479.4221 L226.0759,490.8513 L224.53,502.2805 L225.5208,513.7096 " fill="none" style="stroke:#333333;stroke-width:3.125;"/><polygon fill="#333333" points="225.5208,518.9284,225.5875,518.958,226.2227,516.995,227.2488,515.2056,228.1476,513.3597,228.6278,511.3278,229.6875,509.5534,229.6684,509.5343,228.7495,510.282,227.9267,511.1259,227.1708,512.0367,226.1844,512.717,225.5208,513.7201,225.6568,513.856,224.5328,512.732,223.8056,512.0048,223.1269,511.3261,222.1664,510.3657,221.3542,509.5534,221.3758,509.563,222.1774,511.4239,223.0775,513.3286,223.93,515.2121,224.8733,517.136,225.5208,518.9284" style="stroke:#333333;stroke-width:3.125;"/><!--MD5=[4cc4529558c04eeffd77f507c63d36f8]
@startuml

!$THEME = "sketchy-outline"

!if %not(%variable_exists("$BGCOLOR"))
!$BGCOLOR = "transparent"
!endif

skinparam backgroundColor $BGCOLOR
skinparam handwritten true
skinparam shadowing false

!$BLUE = "#007bff"
!$INDIGO = "#6610f2"
!$PURPLE = "#6f42c1"
!$PINK = "#e83e8c"
!$RED = "#dc3545"
!$ORANGE = "#fd7e14"
!$YELLOW = "#ffc107"
!$GREEN = "#28a745"
!$TEAL = "#20c997"
!$CYAN = "#17a2b8"
!$WHITE = "#ffffff"
!$GRAY = "#868e96"
!$GRAYDARK = "#333333"
!$PRIMARY = "#333333"
!$SECONDARY = "#555555"
!$SUCCESS = "#28a745"
!$INFO = "#17a2b8"
!$WARNING = "#ffc107"
!$DANGER = "#dc3545"
!$LIGHT = "#ffffff"
!$DARK = "#555555"

!$FGCOLOR = $WHITE
!$PRIMARY_DARK = "#2e2e2e"
!$PRIMARY_LIGHT = "#474747"
!$PRIMARY_TEXT = "#2e2e2e"
!$SECONDARY_DARK = "#4d4d4d"
!$SECONDARY_LIGHT = "#666666"
!$SECONDARY_TEXT = $WHITE
!$INFO_DARK = "#1592a6"
!$INFO_LIGHT = "#2eabbf"
!$INFO_TEXT = $WHITE
!$SUCCESS_DARK = "#24963e"
!$SUCCESS_LIGHT = "#3eb058"
!$SUCCESS_TEXT = $WHITE
!$WARNING_DARK = "#e6ae06"
!$WARNING_LIGHT = "#ffc720"
!$WARNING_TEXT = $WHITE
!$DANGER_DARK = "#c6303e"
!$DANGER_LIGHT = "#e04958"
!$DANGER_TEXT = $WHITE
!$DARK_DARK = "#4d4d4d"
!$DARK_LIGHT = "#666666"
!$LIGHT_DARK = "#e6e6e6"
!$LIGHT_LIGHT = "#ffffff"

!procedure $success($msg)
  <font color=$SUCCESS><b>$msg
!endprocedure

!procedure $failure($msg)
  <font color=$DANGER><b>$msg
!endprocedure

!procedure $warning($msg)
  <font color=$WARNING><b>$msg
!endprocedure

!procedure $primary_scheme()
	FontColor $PRIMARY_TEXT
	BorderColor $PRIMARY
	BackgroundColor $BGCOLOR
!endprocedure

skinparam defaultFontName       "Segoe Print"
skinparam defaultFontSize       12
skinparam dpi                   100
skinparam shadowing             false
skinparam roundcorner           8
skinparam ParticipantPadding    40
skinparam BoxPadding            40
skinparam Padding               5
skinparam ArrowColor            $DARK
skinparam stereotype {
    CBackgroundColor $BGCOLOR
    CBorderColor $SECONDARY_DARK
    ABackgroundColor $BGCOLOR
    ABorderColor $SUCCESS_DARK
    IBackgroundColor $BGCOLOR
    IBorderColor $DANGER_DARK
    EBackgroundColor $BGCOLOR
    EBorderColor $WARNING_DARK
    NBackgroundColor $BGCOLOR
    NBorderColor $INFO_DARK
}
skinparam title {
	FontColor	                 $PRIMARY_TEXT
	BorderColor	                 $SECONDARY_DARK
	FontSize	    	         20
	BorderRoundCorner            8
	BorderThickness 	         1
	BackgroundColor              $BGCOLOR
}

skinparam legend {
	BackgroundColor $BGCOLOR
	BorderColor $SECONDARY_DARK
	FontColor $PRIMARY_TEXT
}

!startsub swimlane
skinparam swimlane {
	BorderColor $INFO
	BorderThickness 2
	TitleBackgroundColor  $BGCOLOR
	TitleFontColor $PRIMARY_TEXT
}
!endsub

!startsub activity

skinparam activity {
	$primary_scheme()
	BarColor $SUCCESS
	StartColor $INFO
	EndColor $INFO
	DiamondBackgroundColor $BGCOLOR
  	DiamondBorderColor $SECONDARY_DARK
  	DiamondFontColor $PRIMARY_TEXT
}
!endsub

!startsub participant

skinparam participant {
	$primary_scheme()
	ParticipantBorderThickness 2
}
!endsub

!startsub actor

skinparam actor {
	$primary_scheme()
}
!endsub

!startsub arrow

skinparam arrow {
	Thickness 3
	Color $PRIMARY
	FontColor $PRIMARY_TEXT
}
!endsub

!startsub sequence

skinparam sequence {
	BorderColor $PRIMARY
	TitleFontColor $PRIMARY_TEXT
	BackgroundColor $BGCOLOR
	StartColor $PRIMARY
	EndColor $PRIMARY
	BoxBackgroundColor $BGCOLOR
	BoxBorderColor $DARK
	BoxFontColor $DARK
	LifeLineBorderColor $SECONDARY
	LifeLineBorderThickness 2
	LifeLineBackgroundColor $SECONDARY_DARK
	GroupBorderColor $DARK
	GroupFontColor $DARK
	GroupHeaderFontColor $INFO
	GroupBackgroundColor $SECONDARY
	GroupHeaderBackgroundColor $BGCOLOR
	DividerBackgroundColor $DARK
    DividerBorderColor $DARK
    DividerBorderThickness 2
    DividerFontColor $LIGHT
	ReferenceBackgroundColor $BGCOLOR
	ReferenceBorderColor $DARK
	ReferenceFontColor $DARK
	ReferenceHeaderFontColor $INFO
	ReferenceHeaderBackgroundColor $SECONDARY
}
!endsub

!startsub partition

skinparam partition {
	BorderColor $PRIMARY
	FontColor $PRIMARY
	BackgroundColor $BGCOLOR
}
!endsub

!startsub collections

skinparam collections {
	$primary_scheme()
}
!endsub

!startsub control

skinparam control {
	$primary_scheme()
}
!endsub

!startsub entity

skinparam entity {
	$primary_scheme()
}
!endsub

!startsub boundary

skinparam boundary {
	$primary_scheme()
}
!endsub

!startsub agent

skinparam agent {
	BackgroundColor $WARNING
	BorderColor $WARNING_LIGHT
	FontColor $DARK
}
!endsub

!startsub note

skinparam note {
	BorderThickness 1
	BackgroundColor $INFO
	BorderColor $INFO_DARK
	FontColor $WHITE
}
!endsub

!startsub artifact

skinparam artifact {
	BackgroundColor $BGCOLOR
	BorderColor $DARK_DARK
	FontColor $DARK_DARK
}
!endsub

!startsub component

skinparam component {
	$primary_scheme()
}
!endsub

!startsub interface

skinparam interface {
	BackgroundColor  $BGCOLOR
	BorderColor  $DANGER
	FontColor $DARK
}
!endsub

!startsub storage

skinparam storage {
	BackgroundColor $BGCOLOR
  	BorderColor $WARNING_DARK
	FontColor $WARNING_DARK
}
!endsub

!startsub node

skinparam node {
	BackgroundColor  $BGCOLOR
	BorderColor $LIGHT
	FontColor $LIGHT
}
!endsub

!startsub cloud

skinparam cloud {
	BackgroundColor $BGCOLOR
	BorderColor #F2FCFE
	FontColor $PRIMARY_TEXT
}
!endsub

!startsub database

skinparam database {
	$primary_scheme()
}
!endsub

!startsub class

skinparam class {
	$primary_scheme()
	HeaderBackgroundColor $BGCOLOR
	StereotypeFontColor $DARK
	BorderThickness 1
	AttributeFontColor $DARK
	AttributeFontSize 11
}
!endsub

!startsub object

skinparam object {
	$primary_scheme()
	StereotypeFontColor $PRIMARY_TEXT
	BorderThickness 1
	AttributeFontColor $PRIMARY_TEXT
	AttributeFontSize 11
}
!endsub

!startsub usecase

skinparam usecase {
	$primary_scheme()
	BorderThickness 2
	StereotypeFontColor $PRIMARY
}
!endsub

!startsub rectangle

skinparam rectangle {
	$primary_scheme()
	BorderThickness 2
	StereotypeFontColor $PRIMARY
}
!endsub

!startsub package

skinparam package {
	BackgroundColor $BGCOLOR
  	BorderColor $PRIMARY
	FontColor $PRIMARY
	BorderThickness 2
}
!endsub

!startsub folder

skinparam folder {
	BackgroundColor $BGCOLOR
  	BorderColor $WARNING
	FontColor $WARNING
	BorderThickness 2
}
!endsub

!startsub frame

skinparam frame {
	BackgroundColor $BGCOLOR
  	BorderColor $INFO
	FontColor $INFO
	BorderThickness 2
}
!endsub

!startsub state

skinparam state {
	$primary_scheme()
	StartColor $INFO
	EndColor $INFO
	AttributeFontColor $SECONDARY_TEXT
	AttributeFontSize 11
}
!endsub

!startsub queue

skinparam queue {
	$primary_scheme()
}
!endsub

!startsub card

skinparam card {
	BackgroundColor $BGCOLOR
	BorderColor $INFO_DARK
	FontColor $INFO_DARK
}
!endsub

!startsub file

skinparam file {
	BackgroundColor $BGCOLOR
	BorderColor $LIGHT
	FontColor $LIGHT
}
!endsub

!startsub stack

skinparam stack {
	$primary_scheme()
}
!endsub

!if %variable_exists("$THEME")
title State Diagram - $THEME theme
!else
title State Diagram
!endif

'skinparam BackgroundColor transparent

state fork_state <<fork>>
[*] - -> fork_state
fork_state - -> State2
fork_state - -> State3

state join_state <<join>>
State2 - -> join_state
State3 - -> join_state
join_state - -> State4
State4 - -> Active

state Active {
  [*] -> NumLockOff
  NumLockOff - -> NumLockOn : EvNumLockPressed
  NumLockOn - -> NumLockOff : EvNumLockPressed
  - -
  [*] -> CapsLockOff
  CapsLockOff - -> CapsLockOn : EvCapsLockPressed
  CapsLockOn - -> CapsLockOff : EvCapsLockPressed
  - -
  [*] -> ScrollLockOff
  ScrollLockOff - -> ScrollLockOn : EvCapsLockPressed
  ScrollLockOn - -> ScrollLockOff : EvCapsLockPressed
}

@enduml

@startuml



skinparam backgroundColor transparent
skinparam handwritten true
skinparam shadowing false







skinparam defaultFontName       "Segoe Print"
skinparam defaultFontSize       12
skinparam dpi                   100
skinparam shadowing             false
skinparam roundcorner           8
skinparam ParticipantPadding    40
skinparam BoxPadding            40
skinparam Padding               5
skinparam ArrowColor            #555555
skinparam stereotype {
    CBackgroundColor transparent
    CBorderColor #4d4d4d
    ABackgroundColor transparent
    ABorderColor #24963e
    IBackgroundColor transparent
    IBorderColor #c6303e
    EBackgroundColor transparent
    EBorderColor #e6ae06
    NBackgroundColor transparent
    NBorderColor #1592a6
}
skinparam title {
	FontColor	                 #2e2e2e
	BorderColor	                 #4d4d4d
	FontSize	    	         20
	BorderRoundCorner            8
	BorderThickness 	         1
	BackgroundColor              transparent
}

skinparam legend {
	BackgroundColor transparent
	BorderColor #4d4d4d
	FontColor #2e2e2e
}

skinparam swimlane {
	BorderColor #17a2b8
	BorderThickness 2
	TitleBackgroundColor  transparent
	TitleFontColor #2e2e2e
}


skinparam activity {
		FontColor #2e2e2e
	BorderColor #333333
	BackgroundColor transparent
	BarColor #28a745
	StartColor #17a2b8
	EndColor #17a2b8
	DiamondBackgroundColor transparent
  	DiamondBorderColor #4d4d4d
  	DiamondFontColor #2e2e2e
}


skinparam participant {
		FontColor #2e2e2e
	BorderColor #333333
	BackgroundColor transparent
	ParticipantBorderThickness 2
}


skinparam actor {
		FontColor #2e2e2e
	BorderColor #333333
	BackgroundColor transparent
}


skinparam arrow {
	Thickness 3
	Color #333333
	FontColor #2e2e2e
}


skinparam sequence {
	BorderColor #333333
	TitleFontColor #2e2e2e
	BackgroundColor transparent
	StartColor #333333
	EndColor #333333
	BoxBackgroundColor transparent
	BoxBorderColor #555555
	BoxFontColor #555555
	LifeLineBorderColor #555555
	LifeLineBorderThickness 2
	LifeLineBackgroundColor #4d4d4d
	GroupBorderColor #555555
	GroupFontColor #555555
	GroupHeaderFontColor #17a2b8
	GroupBackgroundColor #555555
	GroupHeaderBackgroundColor transparent
	DividerBackgroundColor #555555
    DividerBorderColor #555555
    DividerBorderThickness 2
    DividerFontColor #ffffff
	ReferenceBackgroundColor transparent
	ReferenceBorderColor #555555
	ReferenceFontColor #555555
	ReferenceHeaderFontColor #17a2b8
	ReferenceHeaderBackgroundColor #555555
}


skinparam partition {
	BorderColor #333333
	FontColor #333333
	BackgroundColor transparent
}


skinparam collections {
		FontColor #2e2e2e
	BorderColor #333333
	BackgroundColor transparent
}


skinparam control {
		FontColor #2e2e2e
	BorderColor #333333
	BackgroundColor transparent
}


skinparam entity {
		FontColor #2e2e2e
	BorderColor #333333
	BackgroundColor transparent
}


skinparam boundary {
		FontColor #2e2e2e
	BorderColor #333333
	BackgroundColor transparent
}


skinparam agent {
	BackgroundColor #ffc107
	BorderColor #ffc720
	FontColor #555555
}


skinparam note {
	BorderThickness 1
	BackgroundColor #17a2b8
	BorderColor #1592a6
	FontColor #ffffff
}


skinparam artifact {
	BackgroundColor transparent
	BorderColor #4d4d4d
	FontColor #4d4d4d
}


skinparam component {
		FontColor #2e2e2e
	BorderColor #333333
	BackgroundColor transparent
}


skinparam interface {
	BackgroundColor  transparent
	BorderColor  #dc3545
	FontColor #555555
}


skinparam storage {
	BackgroundColor transparent
  	BorderColor #e6ae06
	FontColor #e6ae06
}


skinparam node {
	BackgroundColor  transparent
	BorderColor #ffffff
	FontColor #ffffff
}


skinparam cloud {
	BackgroundColor transparent
	BorderColor #F2FCFE
	FontColor #2e2e2e
}


skinparam database {
		FontColor #2e2e2e
	BorderColor #333333
	BackgroundColor transparent
}


skinparam class {
		FontColor #2e2e2e
	BorderColor #333333
	BackgroundColor transparent
	HeaderBackgroundColor transparent
	StereotypeFontColor #555555
	BorderThickness 1
	AttributeFontColor #555555
	AttributeFontSize 11
}


skinparam object {
		FontColor #2e2e2e
	BorderColor #333333
	BackgroundColor transparent
	StereotypeFontColor #2e2e2e
	BorderThickness 1
	AttributeFontColor #2e2e2e
	AttributeFontSize 11
}


skinparam usecase {
		FontColor #2e2e2e
	BorderColor #333333
	BackgroundColor transparent
	BorderThickness 2
	StereotypeFontColor #333333
}


skinparam rectangle {
		FontColor #2e2e2e
	BorderColor #333333
	BackgroundColor transparent
	BorderThickness 2
	StereotypeFontColor #333333
}


skinparam package {
	BackgroundColor transparent
  	BorderColor #333333
	FontColor #333333
	BorderThickness 2
}


skinparam folder {
	BackgroundColor transparent
  	BorderColor #ffc107
	FontColor #ffc107
	BorderThickness 2
}


skinparam frame {
	BackgroundColor transparent
  	BorderColor #17a2b8
	FontColor #17a2b8
	BorderThickness 2
}


skinparam state {
		FontColor #2e2e2e
	BorderColor #333333
	BackgroundColor transparent
	StartColor #17a2b8
	EndColor #17a2b8
	AttributeFontColor #ffffff
	AttributeFontSize 11
}


skinparam queue {
		FontColor #2e2e2e
	BorderColor #333333
	BackgroundColor transparent
}


skinparam card {
	BackgroundColor transparent
	BorderColor #1592a6
	FontColor #1592a6
}


skinparam file {
	BackgroundColor transparent
	BorderColor #ffffff
	FontColor #ffffff
}


skinparam stack {
		FontColor #2e2e2e
	BorderColor #333333
	BackgroundColor transparent
}

title State Diagram - sketchy-outline theme


state fork_state <<fork>>
[*] - -> fork_state
fork_state - -> State2
fork_state - -> State3

state join_state <<join>>
State2 - -> join_state
State3 - -> join_state
join_state - -> State4
State4 - -> Active

state Active {
  [*] -> NumLockOff
  NumLockOff - -> NumLockOn : EvNumLockPressed
  NumLockOn - -> NumLockOff : EvNumLockPressed
  - -
  [*] -> CapsLockOff
  CapsLockOff - -> CapsLockOn : EvCapsLockPressed
  CapsLockOn - -> CapsLockOff : EvCapsLockPressed
  - -
  [*] -> ScrollLockOff
  ScrollLockOff - -> ScrollLockOn : EvCapsLockPressed
  ScrollLockOn - -> ScrollLockOff : EvCapsLockPressed
}

@enduml

PlantUML version 1.2021.01(Mon Feb 01 23:55:08 PST 2021)
(GPL source distribution)
Java Runtime: OpenJDK Runtime Environment
JVM: OpenJDK 64-Bit Server VM
Default Encoding: UTF-8
Language: en
Country: US
--></g></svg>