<?xml version="1.0" encoding="UTF-8" standalone="no"?><svg xmlns="http://www.w3.org/2000/svg" xmlns:xlink="http://www.w3.org/1999/xlink" contentScriptType="application/ecmascript" contentStyleType="text/css" height="1166.6667px" preserveAspectRatio="none" style="width:444px;height:1166px;background:#00000000;" version="1.1" viewBox="0 0 444 1166" width="444.7917px" zoomAndPan="magnify"><defs/><g><polygon points="6.25,2.0833,6.25,2.3023,16.5904,1.6517,26.9309,2.2847,37.2713,2.4997,47.6118,1.3402,57.9522,2.0024,68.2927,1.6391,78.6331,1.6839,88.9736,2.0123,99.314,1.3632,109.6545,2.66,119.9949,1.4268,130.3354,1.8773,140.6758,2.5333,151.0163,1.994,161.3567,2.1544,171.6972,2.0501,182.0376,2.2693,192.378,2.3324,202.7185,2.6934,213.0589,2.7823,223.3994,2.7909,233.7398,2.3486,244.0803,2.5662,254.4207,2.8148,264.7612,1.3321,275.1016,2.7901,285.4421,1.7745,295.7825,2.6394,306.123,1.5677,316.4634,2.012,326.8039,2.8558,337.1443,2.0326,347.4848,2.193,357.8252,2.4361,368.1657,2.5169,378.5061,2.0793,388.8465,2.3825,399.187,1.4871,409.5274,2.3796,419.8679,2.6544,430.2083,2.0833,430.2674,2.2259,430.879,2.5241,431.3227,2.4165,431.8894,2.6064,432.4828,2.8603,433.1546,3.3037,433.1357,3.2959,433.3356,3.8669,433.8614,4.5728,433.8308,5.0483,434.0209,5.6152,434.375,6.25,434.4543,6.25,434.1435,13.6003,434.1947,20.9505,434.6003,28.3008,434.5263,35.651,434.375,43.0013,434.6106,43.0989,434.0277,43.5478,433.9892,44.2222,433.8322,44.8475,433.2471,45.2956,433.1546,45.9476,433.1419,45.9168,432.5821,46.2321,432.0627,46.6448,431.3863,46.6785,430.8591,47.0723,430.2083,47.168,430.2083,46.5911,419.8679,46.4625,409.5274,47.6926,399.187,46.4212,388.8465,47.6981,378.5061,47.3832,368.1657,46.8889,357.8252,46.7995,347.4848,47.6458,337.1443,46.8562,326.8039,47.7845,316.4634,46.5922,306.123,47.8111,295.7825,47.6725,285.4421,47.4231,275.1016,47.2172,264.7612,47.9249,254.4207,47.8071,244.0803,47.3443,233.7398,47.4473,223.3994,47.0323,213.0589,47.9143,202.7185,47.3293,192.378,47.3477,182.0376,46.5343,171.6972,46.7459,161.3567,47.7208,151.0163,47.6156,140.6758,47.1232,130.3354,46.8324,119.9949,46.9399,109.6545,46.4532,99.314,47.6,88.9736,47.9383,78.6331,47.7163,68.2927,47.8919,57.9522,47.0255,47.6118,47.2588,37.2713,46.7642,26.9309,47.4638,16.5904,47.425,6.25,47.168,6.3234,47.3452,5.6302,46.8502,5.0536,46.6367,4.5412,46.578,3.9684,46.3737,3.3037,45.9476,3.1393,45.8795,2.9974,45.3326,2.8634,44.7889,2.3755,44.0986,2.4408,43.6375,2.0833,43.0013,2.1729,43.0013,2.0483,35.651,2.1327,28.3008,2.3363,20.9505,1.9747,13.6003,2.0833,6.25,2.1844,6.2919,2.419,5.6987,2.6086,5.0869,2.8608,4.501,3.096,3.9081,3.3037,3.3037,3.2208,3.1035,3.8397,2.9311,4.4209,2.6675,5.08,2.592,5.6725,2.3557,6.25,2.0833" style="stroke:#4D4D4D;stroke-width:1.0416666666666667;fill:none;"/><text fill="#2E2E2E" font-family="Segoe Print" font-size="20.8333" lengthAdjust="spacing" textLength="405.2083" x="15.625" y="31.838">State Diagram - sketchy-outline theme</text><polygon fill="#28A745" points="182.8125,140.918,182.8125,141.1369,193.2292,140.4864,203.6458,141.1193,214.0625,141.3343,224.4792,140.1748,234.8958,140.837,245.3125,140.4737,255.7292,140.5185,266.1458,140.918,266.1222,140.918,265.9058,142.5846,266.3381,144.2513,265.927,145.918,266.0772,147.5846,266.1458,149.2513,266.1458,149.7012,255.7292,149.162,245.3125,149.3224,234.8958,149.218,224.4792,149.4373,214.0625,149.5004,203.6458,149.8614,193.2292,149.9503,182.8125,149.2513,183.0484,149.2513,182.9009,147.5846,182.9735,145.918,183.0563,144.2513,182.5621,142.5846,182.8125,140.918" style="stroke:none;stroke-width:1.0416666666666667;"/><polygon fill="#17A2B8" points="234.9534,69.4934,233.4265,71.5797,231.6205,74.6355,229.0375,76.6949,226.3233,77.821,224.1591,77.9187,221.3775,76.5103,218.753,75.5902,216.7609,73.7221,215.716,71.5835,215.0963,69.8806,214.4892,67.6563,213.5038,65.7423,214.261,63.8735,214.9244,61.8263,217.4141,60.2072,219.1657,58.1065,221.3337,57.4089,223.9111,56.8082,227.2163,57.1651,229.0266,58.0189,231.1314,58.4058,233.6905,61.0278,234.5826,63.7958,234.9702,65.6844,234.5312,68.7966" style="stroke:none;stroke-width:1.0416666666666667;"/><g id="State2"><polygon points="144.7917,212.793,144.7917,213.0119,154.5833,212.3614,164.375,212.9943,174.1667,213.2093,183.9583,212.0498,193.75,212.793,193.7397,212.768,195.5348,213.4189,197.3819,214.1954,199.2652,215.0593,201.0238,215.6222,202.9571,216.6067,203.1347,216.6802,203.5177,218.3644,204.4192,220.2633,205.3839,222.1883,205.9806,223.961,206.7708,225.8138,206.7945,225.8138,206.7597,231.849,206.8328,237.8841,206.8539,243.9193,206.9742,249.9544,206.7708,255.9896,206.9861,256.0788,206.226,257.9213,205.327,259.7063,204.6313,261.5755,203.9451,263.4486,202.9571,265.1967,202.8613,264.9654,201.2059,266.1771,199.2349,266.6271,197.5038,267.6562,195.5256,268.0889,193.75,269.0104,193.75,268.9391,183.9583,269.7829,174.1667,268.9597,164.375,269.1201,154.5833,269.3632,144.7917,269.0104,144.847,269.1439,142.9497,268.2464,141.147,267.5771,139.1913,266.5386,137.4638,266.0507,135.5845,265.1967,135.7604,265.2695,134.9644,263.4143,134.2557,261.5953,133.1414,259.6082,132.3244,257.7443,131.7708,255.9896,131.5551,255.9896,131.7504,249.9544,131.7026,243.9193,132.0074,237.8841,131.7102,231.849,131.7708,225.8138,131.6608,225.7682,132.6068,224.0027,133.0824,222.0423,133.8925,220.2206,135.03,218.5343,135.5845,216.6067,135.6424,216.7464,137.5236,216.0796,139.2246,214.978,141.1512,214.4209,143.0287,213.7451,144.7917,212.793" style="stroke:#333333;stroke-width:1.5625;fill:none;"/><path d="M131.7708,248.1771 L131.7708,248.469 L142.4851,247.6016 L153.1994,248.4455 L163.9137,248.7322 L174.628,247.1863 L185.3423,248.0691 L196.0565,247.5847 L206.7708,248.1771 " style="stroke:#333333;stroke-width:1.5625;fill:none;"/><text fill="#2E2E2E" font-family="Segoe Print" font-size="12.5" lengthAdjust="spacing" textLength="43.75" x="147.3958" y="234.8124">State2</text></g><g id="State3"><polygon points="262.5,212.793,262.5,213.0119,272.2917,212.3614,282.0833,212.9943,291.875,213.2093,301.6667,212.0498,311.4583,212.793,311.448,212.768,313.2431,213.4189,315.0902,214.1954,316.9735,215.0593,318.7322,215.6222,320.6655,216.6067,320.8431,216.6802,321.226,218.3644,322.1275,220.2633,323.0922,222.1883,323.6889,223.961,324.4792,225.8138,324.5029,225.8138,324.4681,231.849,324.5412,237.8841,324.5622,243.9193,324.6825,249.9544,324.4792,255.9896,324.6944,256.0788,323.9343,257.9213,323.0354,259.7063,322.3397,261.5755,321.6535,263.4486,320.6655,265.1967,320.5696,264.9654,318.9142,266.1771,316.9432,266.6271,315.2121,267.6562,313.234,268.0889,311.4583,269.0104,311.4583,268.9391,301.6667,269.7829,291.875,268.9597,282.0833,269.1201,272.2917,269.3632,262.5,269.0104,262.5553,269.1439,260.6581,268.2464,258.8553,267.5771,256.8997,266.5386,255.1721,266.0507,253.2929,265.1967,253.4687,265.2695,252.6727,263.4143,251.964,261.5953,250.8497,259.6082,250.0327,257.7443,249.4792,255.9896,249.2634,255.9896,249.4587,249.9544,249.4109,243.9193,249.7158,237.8841,249.4185,231.849,249.4792,225.8138,249.3691,225.7682,250.3151,224.0027,250.7907,222.0423,251.6009,220.2206,252.7383,218.5343,253.2929,216.6067,253.3508,216.7464,255.2319,216.0796,256.933,214.978,258.8596,214.4209,260.737,213.7451,262.5,212.793" style="stroke:#333333;stroke-width:1.5625;fill:none;"/><path d="M249.4792,248.1771 L249.4792,248.469 L260.1935,247.6016 L270.9077,248.4455 L281.622,248.7322 L292.3363,247.1863 L303.0506,248.0691 L313.7649,247.5847 L324.4792,248.1771 " style="stroke:#333333;stroke-width:1.5625;fill:none;"/><text fill="#2E2E2E" font-family="Segoe Print" font-size="12.5" lengthAdjust="spacing" textLength="43.75" x="265.1042" y="234.8124">State3</text></g><polygon fill="#28A745" points="183.8542,357.5846,183.8542,357.8036,194.2708,357.1531,204.6875,357.786,215.1042,358.001,225.5208,356.8415,235.9375,357.5037,246.3542,357.1404,256.7708,357.1852,267.1875,357.5846,267.1638,357.5846,266.9474,359.2513,267.3797,360.918,266.9687,362.5846,267.1188,364.2513,267.1875,365.918,267.1875,366.3679,256.7708,365.8286,246.3542,365.9891,235.9375,365.8847,225.5208,366.1039,215.1042,366.1671,204.6875,366.5281,194.2708,366.617,183.8542,365.918,184.09,365.918,183.9426,364.2513,184.0151,362.5846,184.098,360.918,183.6038,359.2513,183.8542,357.5846" style="stroke:none;stroke-width:1.0416666666666667;"/><g id="State4"><polygon points="201.0417,429.4596,201.0417,429.6786,210.8333,429.0281,220.625,429.661,230.4167,429.876,240.2083,428.7165,250,429.4596,249.9897,429.4347,251.7848,430.0856,253.6319,430.8621,255.5152,431.726,257.2738,432.2888,259.2071,433.2733,259.3847,433.3469,259.7677,435.031,260.6692,436.9299,261.6339,438.855,262.2306,440.6276,263.0208,442.4805,263.0445,442.4805,263.0097,448.5156,263.0828,454.5508,263.1039,460.5859,263.2242,466.6211,263.0208,472.6563,263.2361,472.7454,262.476,474.5879,261.577,476.3729,260.8813,478.2421,260.1951,480.1153,259.2071,481.8634,259.1113,481.632,257.4559,482.8438,255.4849,483.2937,253.7538,484.3228,251.7756,484.7555,250,485.6771,250,485.6057,240.2083,486.4496,230.4167,485.6263,220.625,485.7868,210.8333,486.0298,201.0417,485.6771,201.097,485.8106,199.1997,484.9131,197.397,484.2437,195.4413,483.2052,193.7138,482.7173,191.8345,481.8634,192.0104,481.9362,191.2144,480.081,190.5057,478.262,189.3914,476.2749,188.5744,474.411,188.0208,472.6563,187.8051,472.6563,188.0004,466.6211,187.9526,460.5859,188.2574,454.5508,187.9602,448.5156,188.0208,442.4805,187.9108,442.4349,188.8568,440.6694,189.3324,438.709,190.1425,436.8872,191.28,435.201,191.8345,433.2733,191.8924,433.4131,193.7736,432.7462,195.4746,431.6446,197.4012,431.0875,199.2787,430.4118,201.0417,429.4596" style="stroke:#333333;stroke-width:1.5625;fill:none;"/><path d="M188.0208,464.8438 L188.0208,465.1357 L198.7351,464.2683 L209.4494,465.1122 L220.1637,465.3989 L230.878,463.8529 L241.5923,464.7358 L252.3065,464.2514 L263.0208,464.8438 " style="stroke:#333333;stroke-width:1.5625;fill:none;"/><text fill="#2E2E2E" font-family="Segoe Print" font-size="12.5" lengthAdjust="spacing" textLength="43.75" x="203.6458" y="451.4791">State4</text></g><polygon points="77.0833,549.2513,77.0833,549.4702,87.3204,548.8197,97.5575,549.4526,107.7945,549.6676,118.0316,548.5082,128.2687,549.1704,138.5057,548.807,148.7428,548.8518,158.9799,549.1803,169.217,548.5311,179.454,549.828,189.6911,548.5948,199.9282,549.0453,210.1652,549.7012,220.4023,549.162,230.6394,549.3224,240.8764,549.218,251.1135,549.4373,261.3506,549.5004,271.5876,549.8614,281.8247,549.9503,292.0618,549.9589,302.2989,549.5165,312.5359,549.7342,322.773,549.9828,333.0101,548.5001,343.2471,549.9581,353.4842,548.9424,363.7213,549.8074,373.9583,549.2513,373.8926,549.0925,375.7907,549.9921,377.7397,551.0147,379.4761,551.5239,381.338,552.3361,383.1655,553.065,383.2741,553.11,384.0617,554.9617,384.6897,556.7473,385.5458,558.6275,386.0328,560.3547,386.9792,562.2721,387.2754,562.2721,387.5502,572.7237,387.4422,583.1752,387.6177,593.6268,386.476,604.0783,386.2998,614.5299,386.3319,624.9814,386.9178,635.4329,386.7744,645.8845,387.689,656.336,386.7972,666.7876,386.6218,677.2391,387.2169,687.6907,386.2845,698.1422,386.4384,708.5938,387.6552,719.0453,387.433,729.4968,387.7443,739.9484,386.644,750.3999,387.3117,760.8515,387.5942,771.303,386.4871,781.7546,386.8793,792.2061,387.1104,802.6576,387.6581,813.1092,386.9748,823.5607,387.461,834.0123,386.4023,844.4638,386.2737,854.9154,387.5038,865.3669,386.2324,875.8185,387.5093,886.27,387.1944,896.7215,386.7001,907.1731,386.6107,917.6246,387.457,928.0762,386.6674,938.5277,387.5957,948.9793,386.4034,959.4308,387.6223,969.8823,387.4836,980.3339,387.2343,990.7854,387.0284,1001.237,387.7361,1011.6885,387.6183,1022.1401,387.1555,1032.5916,387.2585,1043.0432,386.8435,1053.4947,387.7255,1063.9462,387.1405,1074.3978,387.1589,1084.8493,386.3455,1095.3009,386.5571,1105.7524,387.532,1116.204,387.4268,1126.6555,386.9344,1137.107,386.9792,1147.5586,386.8758,1147.5158,386.1462,1149.3709,385.2336,1151.1503,384.824,1153.138,384.1654,1155.0226,383.1655,1156.7657,383.2354,1156.9346,381.4164,1157.7514,379.4644,1158.2473,377.6528,1159.0819,375.7483,1159.6923,373.9583,1160.5794,373.9583,1160.8753,363.7213,1160.8365,353.4842,1161.1548,343.2471,1160.3402,333.0101,1160.4394,322.773,1161.0414,312.5359,1161.1704,302.2989,1160.0455,292.0618,1160.3775,281.8247,1160.7349,271.5876,1159.9431,261.3506,1160.9475,251.1135,1160.8482,240.8764,1160.4745,230.6394,1160.7276,220.4023,1161.3385,210.1652,1160.2535,199.9282,1160.9075,189.6911,1160.877,179.454,1160.7,169.217,1160.7262,158.9799,1160.6976,148.7428,1159.9293,138.5057,1160.1619,128.2687,1160.0987,118.0316,1160.6459,107.7945,1160.6712,97.5575,1160.7479,87.3204,1160.2763,77.0833,1160.5794,77.0744,1160.5578,75.2259,1159.7781,73.4771,1159.239,71.6157,1158.428,69.6531,1157.3727,67.8762,1156.7657,67.8528,1156.756,66.9283,1154.8476,66.4432,1153.1212,65.7832,1151.3223,64.9999,1149.4724,64.0625,1147.5586,63.6088,1147.5586,64.5458,1137.107,63.2887,1126.6555,64.271,1116.204,63.7507,1105.7524,64.1633,1095.3009,64.3128,1084.8493,64.5543,1074.3978,63.3126,1063.9462,64.5578,1053.4947,64.2481,1043.0432,64.4326,1032.5916,64.8415,1022.1401,64.0682,1011.6885,64.2451,1001.237,64.2848,990.7854,64.268,980.3339,64.0617,969.8823,64.8028,959.4308,63.4274,948.9793,64.6513,938.5277,63.4125,928.0762,63.4997,917.6246,64.1042,907.1731,64.092,896.7215,63.5491,886.27,64.4935,875.8185,64.1759,865.3669,64.8194,854.9154,64.7574,844.4638,63.5956,834.0123,63.648,823.5607,63.9279,813.1092,64.4328,802.6576,64.4823,792.2061,64.3762,781.7546,63.7063,771.303,64.7254,760.8515,64.7227,750.3999,64.0132,739.9484,63.8135,729.4968,63.6444,719.0453,63.839,708.5938,64.2056,698.1422,63.9913,687.6907,63.6273,677.2391,64.5702,666.7876,63.5844,656.336,64.5858,645.8845,64.5075,635.4329,64.4499,624.9814,64.7839,614.5299,63.8064,604.0783,63.7493,593.6268,64.603,583.1752,63.4407,572.7237,64.0625,562.2721,63.9874,562.241,64.8623,560.4461,65.61,558.5984,66.2357,556.7002,67.0997,554.9007,67.8762,553.065,67.9752,553.3039,69.8038,552.5103,71.4798,551.3482,73.4109,550.802,75.1736,549.8492,77.0833,549.2513" style="stroke:#333333;stroke-width:1.5625;fill:none;"/><polygon points="80.2083,587.7604,80.2083,587.9794,90.5878,587.3288,100.9673,587.9618,111.3467,588.1767,121.7262,587.0173,132.1057,587.6795,142.4851,587.3162,152.8646,587.3609,163.244,587.6894,173.6235,587.0402,184.003,588.3371,194.3824,587.1039,204.7619,587.5544,215.1414,588.2104,225.5208,587.6711,235.9003,587.8315,246.2798,587.7271,256.6592,587.9464,267.0387,588.0095,277.4182,588.3705,287.7976,588.4594,298.1771,588.468,308.5565,588.0257,318.936,588.2433,329.3155,588.4919,339.6949,587.0092,350.0744,588.4672,360.4539,587.4516,370.8333,587.7604,370.9043,587.9317,372.609,588.3644,374.5071,589.2639,376.4561,590.2865,378.1926,590.7958,380.0405,591.5741,380.0742,591.5881,380.9118,593.4605,381.6995,595.3123,382.3274,597.0979,383.1836,598.978,383.8542,600.7813,383.2579,600.7813,384.1504,611.2361,384.4252,621.691,384.3172,632.1458,384.4927,642.6007,383.351,653.0555,383.1748,663.5104,383.2069,673.9652,383.7928,684.4201,383.6494,694.8749,384.564,705.3298,383.6722,715.7846,383.4968,726.2395,384.0919,736.6943,383.1595,747.1492,383.3134,757.604,384.5302,768.0589,384.308,778.5137,384.6193,788.9686,383.519,799.4235,384.1867,809.8783,384.4692,820.3332,383.3621,830.788,383.7543,841.2429,383.9854,851.6977,384.5331,862.1526,383.8498,872.6074,384.336,883.0623,383.2773,893.5171,383.1487,903.972,384.3788,914.4268,383.1074,924.8817,384.3843,935.3365,384.0694,945.7914,383.5751,956.2462,383.4857,966.7011,384.332,977.1559,383.5424,987.6108,384.4707,998.0657,383.2784,1008.5205,384.4973,1018.9754,384.3586,1029.4302,384.1093,1039.8851,383.9034,1050.3399,384.6111,1060.7948,384.4933,1071.2496,384.0305,1081.7045,384.1335,1092.1593,383.7185,1102.6142,384.6005,1113.069,384.0155,1123.5239,384.0339,1133.9787,383.8542,1144.4336,383.659,1144.3528,382.9614,1146.2212,382.4989,1148.187,381.7038,1150.015,380.7894,1151.7936,380.0405,1153.6407,379.9976,1153.5374,378.1699,1154.3332,376.2664,1154.9461,374.5713,1156.062,372.773,1156.9289,370.8333,1157.4544,370.8333,1158.0028,360.4539,1158.1783,350.0744,1157.312,339.6949,1157.5453,329.3155,1157.0507,318.936,1157.7503,308.5565,1157.7115,298.1771,1158.0298,287.7976,1157.2152,277.4182,1157.3144,267.0387,1157.9164,256.6592,1158.0454,246.2798,1156.9205,235.9003,1157.2525,225.5208,1157.6099,215.1414,1156.8181,204.7619,1157.8225,194.3824,1157.7232,184.003,1157.3495,173.6235,1157.6026,163.244,1158.2135,152.8646,1157.1285,142.4851,1157.7825,132.1057,1157.752,121.7262,1157.575,111.3467,1157.6012,100.9673,1157.5726,90.5878,1156.8043,80.2083,1157.4544,80.1551,1157.3258,78.3056,1156.5436,76.534,1155.9494,74.6958,1155.1945,72.8641,1154.4553,71.0012,1153.6407,70.9079,1153.602,70.2168,1151.7903,69.4372,1149.9419,68.898,1148.1931,68.0871,1146.3317,67.1875,1144.4336,66.6817,1144.4336,67.1115,1133.9787,66.5862,1123.5239,67.4879,1113.069,67.8213,1102.6142,67.7548,1092.1593,66.7338,1081.7045,67.6708,1071.2496,66.4137,1060.7948,67.396,1050.3399,66.8757,1039.8851,67.2883,1029.4302,67.4378,1018.9754,67.6793,1008.5205,66.4376,998.0657,67.6828,987.6108,67.3731,977.1559,67.5576,966.7011,67.9665,956.2462,67.1932,945.7914,67.3701,935.3365,67.4098,924.8817,67.393,914.4268,67.1867,903.972,67.9278,893.5171,66.5524,883.0623,67.7763,872.6074,66.5375,862.1526,66.6247,851.6977,67.2292,841.2429,67.217,830.788,66.6741,820.3332,67.6185,809.8783,67.3009,799.4235,67.9444,788.9686,67.8824,778.5137,66.7206,768.0589,66.773,757.604,67.0529,747.1492,67.5578,736.6943,67.6073,726.2395,67.5012,715.7846,66.8313,705.3298,67.8504,694.8749,67.8477,684.4201,67.1382,673.9652,66.9385,663.5104,66.7694,653.0555,66.964,642.6007,67.3306,632.1458,67.1163,621.691,66.7523,611.2361,67.1875,600.7813,67.3438,600.846,67.803,598.8788,68.8741,597.1652,69.6128,595.3137,70.3578,593.465,71.0012,591.5741,71.0932,591.7963,72.81,590.7325,74.6441,589.9522,76.5944,589.4524,78.2876,588.3317,80.2083,587.7604" style="stroke:#00000000;stroke-width:1.0416666666666667;fill:none;"/><path d="M64.0625,584.6354 L64.0625,584.9273 L74.4792,584.06 L84.8958,584.9039 L95.3125,585.1905 L105.7292,583.6446 L116.1458,584.5275 L126.5625,584.0431 L136.9792,584.1028 L147.3958,584.5408 L157.8125,583.6752 L168.2292,585.4044 L178.6458,583.76 L189.0625,584.3607 L199.4792,585.2353 L209.8958,584.5163 L220.3125,584.7302 L230.7292,584.591 L241.1458,584.8834 L251.5625,584.9675 L261.9792,585.4489 L272.3958,585.5674 L282.8125,585.5788 L293.2292,584.9891 L303.6458,585.2793 L314.0625,585.6107 L324.4792,583.6338 L334.8958,585.5778 L345.3125,584.2236 L355.7292,585.3768 L366.1458,583.9479 L376.5625,584.5403 L386.9792,584.6354 " style="stroke:#333333;stroke-width:1.5625;fill:none;"/><text fill="#2E2E2E" font-family="Segoe Print" font-size="12.5" lengthAdjust="spacing" textLength="38.5417" x="206.25" y="571.2708">Active</text><polygon fill="#17A2B8" points="96.4117,627.7942,94.8848,629.8805,93.0788,632.9363,90.4959,634.9956,87.7816,636.1218,85.6174,636.2195,82.8359,634.8111,80.2113,633.891,78.2193,632.0229,77.1743,629.8843,76.5546,628.1814,75.9475,625.9571,74.9621,624.0431,75.7193,622.1742,76.3828,620.1271,78.8724,618.508,80.624,616.4073,82.792,615.7097,85.3694,615.1089,88.6746,615.4659,90.4849,616.3196,92.5897,616.7066,95.1488,619.3286,96.041,622.0965,96.4286,623.9852,95.9895,627.0974" style="stroke:none;stroke-width:1.0416666666666667;"/><g id="Active.NumLockOff"><polygon points="128.6458,597.1354,128.6458,597.3544,138.8021,596.7038,148.9583,597.3368,159.1146,597.5517,169.2708,596.3923,179.4271,597.0545,189.5833,596.6912,199.7396,596.7359,209.8958,597.1354,209.8868,597.1136,211.6454,597.6764,213.6522,598.8385,215.3364,599.2215,217.2353,600.1229,219.103,600.9491,219.2415,601.0065,219.8382,602.7792,220.6503,604.641,221.3809,606.4692,222.2112,608.3385,222.9167,610.1563,222.9997,610.1563,223.12,616.1914,223.1497,622.2266,223.1525,628.2617,223.0051,634.2969,222.9167,640.332,223.0654,640.3936,222.3792,642.2668,221.1598,643.9191,220.8461,645.9465,219.7706,647.6583,219.103,649.5392,219.1739,649.7104,217.1958,650.1431,215.411,651.0427,213.6772,652.0653,211.7308,652.5745,209.8958,653.3529,209.8958,653.4626,199.7396,653.7056,189.5833,653.7864,179.4271,653.3488,169.2708,653.652,159.1146,652.7566,148.9583,653.6491,138.8021,653.9239,128.6458,653.3529,128.7049,653.4955,126.8859,652.7868,124.8988,651.6724,123.0349,650.8554,121.1976,650.1026,119.4387,649.5392,119.4198,649.5313,118.6129,647.6716,118.1318,645.9468,117.0945,643.9917,116.2777,642.1279,115.625,640.332,115.7043,640.332,115.3935,634.2969,115.4447,628.2617,115.8503,622.2266,115.7763,616.1914,115.625,610.1563,115.8606,610.2538,116.2845,608.2721,117.2529,606.5158,118.1026,604.7104,118.5244,602.7278,119.4387,600.9491,119.426,600.9184,121.2969,600.2268,123.2082,599.6327,124.9624,598.6596,126.8659,598.0465,128.6458,597.1354" style="stroke:#333333;stroke-width:1.5625;fill:none;"/><path d="M115.625,632.5195 L115.625,632.8115 L126.3542,631.9441 L137.0833,632.788 L147.8125,633.0746 L158.5417,631.5287 L169.2708,632.4116 L180,631.9272 L190.7292,631.9869 L201.4583,632.4249 L212.1875,631.5593 L222.9167,632.5195 " style="stroke:#333333;stroke-width:1.5625;fill:none;"/><text fill="#2E2E2E" font-family="Segoe Print" font-size="12.5" lengthAdjust="spacing" textLength="76.0417" x="131.25" y="619.1549">NumLockOff</text></g><g id="Active.NumLockOn"><polygon points="128.6458,716.9271,128.6458,717.146,138.8021,716.4955,148.9583,717.1284,159.1146,717.3434,169.2708,716.184,179.4271,716.8461,189.5833,716.4828,199.7396,716.5276,209.8958,716.9271,209.8868,716.9052,211.6454,717.468,213.6522,718.6302,215.3364,719.0131,217.2353,719.9146,219.103,720.7408,219.2415,720.7982,219.8382,722.5708,220.6503,724.4327,221.3809,726.2608,222.2112,728.1302,222.9167,729.9479,222.9997,729.9479,223.12,735.9831,223.1497,742.0182,223.1525,748.0534,223.0051,754.0885,222.9167,760.1237,223.0654,760.1853,222.3792,762.0584,221.1598,763.7107,220.8461,765.7381,219.7706,767.45,219.103,769.3308,219.1739,769.5021,217.1958,769.9348,215.411,770.8343,213.6772,771.8569,211.7308,772.3662,209.8958,773.1445,209.8958,773.2542,199.7396,773.4973,189.5833,773.5781,179.4271,773.1405,169.2708,773.4437,159.1146,772.5483,148.9583,773.4408,138.8021,773.7156,128.6458,773.1445,128.7049,773.2871,126.8859,772.5784,124.8988,771.4641,123.0349,770.6471,121.1976,769.8942,119.4387,769.3308,119.4198,769.323,118.6129,767.4633,118.1318,765.7385,117.0945,763.7833,116.2777,761.9195,115.625,760.1237,115.7043,760.1237,115.3935,754.0885,115.4447,748.0534,115.8503,742.0182,115.7763,735.9831,115.625,729.9479,115.8606,730.0455,116.2845,728.0637,117.2529,726.3075,118.1026,724.5021,118.5244,722.5194,119.4387,720.7408,119.426,720.71,121.2969,720.0185,123.2082,719.4244,124.9624,718.4512,126.8659,717.8382,128.6458,716.9271" style="stroke:#333333;stroke-width:1.5625;fill:none;"/><path d="M115.625,752.3112 L115.625,752.6031 L126.3542,751.7358 L137.0833,752.5797 L147.8125,752.8663 L158.5417,751.3204 L169.2708,752.2033 L180,751.7188 L190.7292,751.7786 L201.4583,752.2165 L212.1875,751.351 L222.9167,752.3112 " style="stroke:#333333;stroke-width:1.5625;fill:none;"/><text fill="#2E2E2E" font-family="Segoe Print" font-size="12.5" lengthAdjust="spacing" textLength="76.0417" x="131.25" y="738.9465">NumLockOn</text></g><!--MD5=[f1e44e9cdf7ed6fd162579f896fb76ea]
link *start*Active to NumLockOff--><path d="M96.3542,625.2604 L96.3542,625.3577 L99.0979,625.0686 L101.8417,625.3499 L104.5854,625.4455 L107.3292,624.9301 L110.0729,625.2604 " fill="none" style="stroke:#333333;stroke-width:3.125;"/><polygon fill="#333333" points="115.4375,625.2604,115.4671,625.3271,113.5041,624.2956,111.7148,623.6551,109.8689,622.8872,107.8369,621.7007,106.0625,621.0938,106.0434,621.0747,106.7911,621.8224,107.635,622.6663,108.5458,623.577,109.2261,624.2573,110.2292,625.2604,110.3651,625.3963,109.2411,625.939,108.5139,626.8785,107.8352,627.8665,106.8748,628.5727,106.0625,629.4271,106.0721,629.4487,107.933,628.5836,109.8377,627.8171,111.7212,627.003,113.6451,626.2796,115.4375,625.2604" style="stroke:#333333;stroke-width:3.125;"/><!--MD5=[b6ef3c088f5474ecc81df30475e7d61b]
link NumLockOff to NumLockOn--><path d="M115.5625,646.5208 L115.6212,646.5985 L112.4687,648.6183 L109.6602,651.0933 L106.7397,653.42 L103.4509,655.2594 L100.6719,657.7734 L100.6439,657.7508 L98.1964,660.5217 L95.89,663.4066 L93.6817,666.3708 L91.1355,669.0618 L89.0625,672.1354 L89.3056,672.2168 L87.9139,674.6469 L87.2319,677.3147 L86.6365,680.0114 L85.5373,682.5395 L84.7031,685.1563 L84.7331,685.1663 L85.561,687.7557 L86.5253,690.3908 L87.4237,693.0039 L88.4477,695.659 L89.0625,698.1771 L89.3079,698.3675 L91.257,700.8777 L93.0478,703.265 L95.0703,705.8321 L97.1037,708.4076 L98.793,710.7161 L98.5804,710.4587 L101.4657,713.0005 L103.6509,714.6947 L106.3683,717.0333 L108.5377,718.7082 L111.1563,720.9271 " fill="none" style="stroke:#333333;stroke-width:3.125;"/><polygon fill="#333333" points="115.5625,723.7917,115.6237,723.8314,114.3235,721.993,113.3821,720.3877,112.3238,718.7064,110.8815,716.7755,109.9708,715.1902,109.9444,715.1846,110.0708,716.3123,110.3302,717.4682,110.6821,718.6437,110.7153,719.7516,111.1949,720.9542,111.2349,721.1423,109.9967,720.985,108.8751,721.3767,107.7677,721.8354,106.5775,721.9044,105.4309,722.1783,105.4346,722.2017,107.4555,722.49,109.4933,722.8849,111.5229,723.2283,113.5682,723.6698,115.5625,723.7917" style="stroke:#333333;stroke-width:3.125;"/><text fill="#2E2E2E" font-family="Segoe Print" font-size="12.5" lengthAdjust="spacing" textLength="126.0417" x="95.3125" y="689.9882">EvNumLockPressed</text><!--MD5=[3bfddee0d82dc74c927fbeb3d3f2e6a3]
link NumLockOn to NumLockOff--><path d="M213.5521,716.7708 L213.6243,716.8361 L214.9876,714.8961 L216.7742,713.3386 L218.423,711.6566 L219.6185,709.565 L221.4414,708.0404 L221.4109,708.0213 L222.5065,705.9631 L223.7559,704.001 L225.1123,702.1057 L226.1002,699.9801 L227.6042,698.1771 L227.8502,698.2488 L228.0834,695.4912 L229.035,692.9431 L230.0743,690.4206 L230.6035,687.7493 L231.401,685.1563 L231.4314,685.1651 L230.6275,682.5479 L229.9616,679.9711 L229.2292,677.3747 L228.6239,674.8155 L227.6042,672.1354 L227.8592,672.3128 L225.8248,669.3858 L223.6259,666.3444 L221.6679,663.4705 L219.7211,660.6044 L217.4167,657.4896 " fill="none" style="stroke:#333333;stroke-width:3.125;"/><polygon fill="#333333" points="213.5521,653.5417,213.6205,653.5672,214.1345,655.4138,215.0493,657.41,215.8337,659.3574,216.1888,661.1448,217.138,663.1538,217.111,663.1535,217.0018,661.9738,217.0287,660.7955,217.1501,659.6182,216.9456,658.4376,217.1975,657.2615,217.1995,657.4538,218.3738,657.0546,219.5538,657.2167,220.7344,657.4472,221.911,657.2794,223.0898,657.321,223.0985,657.3431,221.1782,656.5549,219.2975,655.8669,217.3978,655.1306,215.5345,654.4866,213.5521,653.5417" style="stroke:#333333;stroke-width:3.125;"/><text fill="#2E2E2E" font-family="Segoe Print" font-size="12.5" lengthAdjust="spacing" textLength="126.0417" x="236.9792" y="689.9882">EvNumLockPressed</text><path d="M69.2708,778.3529 L69.2708,778.6448 L79.6181,777.7774 L89.9653,778.6213 L100.3125,778.908 L110.6597,777.362 L121.0069,778.2449 L131.3542,777.7605 L141.7014,777.8202 L152.0486,778.2582 L162.3958,777.3926 L172.7431,779.1218 L183.0903,777.4775 L193.4375,778.0782 L203.7847,778.9528 L214.1319,778.2337 L224.4792,778.4476 L234.8264,778.3085 L245.1736,778.6008 L255.5208,778.685 L265.8681,779.1663 L276.2153,779.2849 L286.5625,779.2963 L296.9097,778.7065 L307.2569,778.9967 L317.6042,779.3282 L327.9514,777.3512 L338.2986,779.2952 L348.6458,777.9411 L358.9931,779.0943 L369.3403,777.6653 L379.6875,778.3529 " fill="none" style="stroke:#333333;stroke-width:1.5625;stroke-dasharray:8.0,10.0;"/><polygon fill="#17A2B8" points="96.4117,816.3033,94.8848,818.3896,93.0788,821.4454,90.4959,823.5048,87.7816,824.6309,85.6174,824.7286,82.8359,823.3202,80.2113,822.4001,78.2193,820.532,77.1743,818.3934,76.5546,816.6905,75.9475,814.4662,74.9621,812.5522,75.7193,810.6834,76.3828,808.6362,78.8724,807.0171,80.624,804.9164,82.792,804.2188,85.3694,803.6181,88.6746,803.975,90.4849,804.8287,92.5897,805.2157,95.1488,807.8377,96.041,810.6057,96.4286,812.4943,95.9895,815.6065" style="stroke:none;stroke-width:1.0416666666666667;"/><g id="Active.CONC87.CapsLockOff"><polygon points="128.125,785.6445,128.125,785.8635,138.6719,785.2129,149.2188,785.8459,159.7656,786.0609,170.3125,784.9014,180.8594,785.5636,191.4063,785.2003,201.9531,785.2451,212.5,785.6445,212.4909,785.6227,214.2496,786.1855,216.2564,787.3476,217.9405,787.7306,219.8394,788.6321,221.7071,789.4582,221.8457,789.5156,222.4423,791.2883,223.2545,793.1502,223.9851,794.9783,224.8154,796.8477,225.5208,798.6654,225.6039,798.6654,225.7242,804.7005,225.7538,810.7357,225.7567,816.7708,225.6092,822.806,225.5208,828.8411,225.6695,828.9027,224.9834,830.7759,223.764,832.4282,223.4503,834.4556,222.3747,836.1674,221.7071,838.0483,221.7781,838.2195,219.7999,838.6522,218.0152,839.5518,216.2814,840.5744,214.3349,841.0836,212.5,841.862,212.5,841.9717,201.9531,842.2147,191.4063,842.2956,180.8594,841.8579,170.3125,842.1612,159.7656,841.2657,149.2188,842.1582,138.6719,842.433,128.125,841.862,128.1841,842.0046,126.365,841.2959,124.378,840.1815,122.5141,839.3645,120.6767,838.6117,118.9179,838.0483,118.899,838.0404,118.0921,836.1807,117.611,834.456,116.5736,832.5008,115.7569,830.637,115.1042,828.8411,115.1834,828.8411,114.8726,822.806,114.9239,816.7708,115.3295,810.7357,115.2554,804.7005,115.1042,798.6654,115.3398,798.763,115.7637,796.7812,116.732,795.0249,117.5818,793.2195,118.0036,791.2369,118.9179,789.4582,118.9051,789.4275,120.776,788.7359,122.6873,788.1418,124.4416,787.1687,126.345,786.5557,128.125,785.6445" style="stroke:#333333;stroke-width:1.5625;fill:none;"/><path d="M115.1042,821.0286 L115.1042,821.3206 L125.142,820.4532 L135.1799,821.2971 L145.2178,821.5838 L155.2557,820.0378 L165.2936,820.9207 L175.3314,820.4363 L185.3693,820.496 L195.4072,820.934 L205.4451,820.0684 L215.483,821.7976 L225.5208,821.0286 " style="stroke:#333333;stroke-width:1.5625;fill:none;"/><text fill="#2E2E2E" font-family="Segoe Print" font-size="12.5" lengthAdjust="spacing" textLength="79.1667" x="130.7292" y="807.664">CapsLockOff</text></g><g id="Active.CONC87.CapsLockOn"><polygon points="127.0833,905.4362,127.0833,905.6551,137.6302,905.0046,148.1771,905.6375,158.724,905.8525,169.2708,904.6931,179.8177,905.3552,190.3646,904.9919,200.9115,905.0367,211.4583,905.4362,211.4493,905.4143,213.2079,905.9772,215.2147,907.1393,216.8989,907.5222,218.7978,908.4237,220.6655,909.2499,220.804,909.3073,221.4007,911.0799,222.2128,912.9418,222.9434,914.7699,223.7737,916.6393,224.4792,918.457,224.5622,918.457,224.6825,924.4922,224.7122,930.5273,224.715,936.5625,224.5676,942.5977,224.4792,948.6328,224.6279,948.6944,223.9417,950.5675,222.7223,952.2198,222.4086,954.2472,221.3331,955.9591,220.6655,957.8399,220.7364,958.0112,218.7583,958.4439,216.9735,959.3434,215.2397,960.3661,213.2933,960.8753,211.4583,961.6536,211.4583,961.7633,200.9115,962.0064,190.3646,962.0872,179.8177,961.6496,169.2708,961.9528,158.724,961.0574,148.1771,961.9499,137.6302,962.2247,127.0833,961.6536,127.1424,961.7962,125.3234,961.0876,123.3363,959.9732,121.4724,959.1562,119.6351,958.4033,117.8762,957.8399,117.8573,957.8321,117.0504,955.9724,116.5693,954.2476,115.532,952.2924,114.7152,950.4287,114.0625,948.6328,114.1418,948.6328,113.831,942.5977,113.8822,936.5625,114.2878,930.5273,114.2138,924.4922,114.0625,918.457,114.2981,918.5546,114.722,916.5728,115.6904,914.8166,116.5401,913.0112,116.9619,911.0286,117.8762,909.2499,117.8635,909.2192,119.7344,908.5276,121.6457,907.9335,123.3999,906.9603,125.3034,906.3473,127.0833,905.4362" style="stroke:#333333;stroke-width:1.5625;fill:none;"/><path d="M114.0625,940.8203 L114.0625,941.1122 L124.1004,940.2449 L134.1383,941.0888 L144.1761,941.3754 L154.214,939.8295 L164.2519,940.7124 L174.2898,940.228 L184.3277,940.2877 L194.3655,940.7257 L204.4034,939.8601 L214.4413,941.5893 L224.4792,940.8203 " style="stroke:#333333;stroke-width:1.5625;fill:none;"/><text fill="#2E2E2E" font-family="Segoe Print" font-size="12.5" lengthAdjust="spacing" textLength="79.1667" x="129.6875" y="927.4556">CapsLockOn</text></g><!--MD5=[70bdb58272bc1a7d9e9d21dfe0316432]
link *start*CONC87 to CapsLockOff--><path d="M96.4792,813.7695 L96.4792,813.8668 L99.075,813.5777 L101.6708,813.859 L104.2667,813.9546 L106.8625,813.4393 L109.4583,813.7695 " fill="none" style="stroke:#333333;stroke-width:3.125;"/><polygon fill="#333333" points="114.9375,813.7695,114.9671,813.8362,113.0041,812.8047,111.2148,812.1642,109.3689,811.3963,107.3369,810.2098,105.5625,809.6029,105.5434,809.5838,106.2911,810.3315,107.135,811.1754,108.0458,812.0861,108.7261,812.7665,109.7292,813.7695,109.8651,813.9055,108.7411,814.4481,108.0139,815.3876,107.3352,816.3756,106.3748,817.0818,105.5625,817.9362,105.5721,817.9578,107.433,817.0927,109.3377,816.3262,111.2212,815.5121,113.1451,814.7887,114.9375,813.7695" style="stroke:#333333;stroke-width:3.125;"/><!--MD5=[dc4675bd3056f3ef68701d9e8e02a3f3]
link CapsLockOff to CapsLockOn--><path d="M114.7813,840.3424 L114.8328,840.425 L111.3364,842.2678 L108.1422,844.5944 L104.8496,846.7635 L101.2334,848.4144 L98.0651,850.7826 L98.0399,850.7569 L95.9179,852.6141 L93.923,854.6007 L92.0164,856.6772 L89.8054,858.4437 L88.0208,860.6445 L88.2637,860.7264 L86.867,863.1547 L86.1794,865.8221 L85.5783,868.5186 L84.4738,871.0454 L83.6341,873.6615 L83.6641,873.6715 L84.4974,876.2617 L85.4671,878.8977 L86.3711,881.5116 L87.4005,884.1678 L88.0208,886.6862 L88.2666,886.8762 L90.1441,889.3035 L91.8631,891.6083 L93.8141,894.0925 L95.776,896.585 L97.3932,898.8112 L97.1788,898.5553 L99.9664,901.0394 L102.0478,902.681 L104.666,904.9631 L106.7314,906.5856 L109.25,908.7487 " fill="none" style="stroke:#333333;stroke-width:3.125;"/><polygon fill="#333333" points="114.0417,911.9154,114.1032,911.9547,112.8157,910.1088,111.8888,908.4933,110.8445,906.8029,109.4141,904.8657,108.5182,903.27,108.4917,903.2646,108.6088,904.3951,108.8591,905.5528,109.2021,906.7294,109.2257,907.8408,109.6967,909.0435,109.7351,909.2318,108.4982,909.0648,107.3735,909.4476,106.2626,909.8975,105.0719,909.9571,103.9232,910.222,103.9271,910.2454,105.945,910.5497,107.9808,910.9605,110.008,911.3199,112.0515,911.7773,114.0417,911.9154" style="stroke:#333333;stroke-width:3.125;"/><text fill="#2E2E2E" font-family="Segoe Print" font-size="12.5" lengthAdjust="spacing" textLength="129.1667" x="94.2708" y="878.4973">EvCapsLockPressed</text><!--MD5=[79e17b083e07746bd1a647600952cab6]
link CapsLockOn to CapsLockOff--><path d="M215.4063,905.2279 L215.4778,905.2938 L216.8652,903.3609 L218.6721,901.8145 L220.3423,900.1423 L221.5633,898.0562 L223.4063,896.543 L223.3759,896.5236 L224.496,894.4655 L225.769,892.5048 L227.1484,890.6119 L228.1613,888.4855 L229.6875,886.6862 L229.9333,886.7588 L230.1764,884.0009 L231.1372,881.4551 L232.1855,878.935 L232.7244,876.2645 L233.5313,873.6732 L233.5616,873.6821 L232.7483,871.0633 L232.073,868.4851 L231.3312,865.8873 L230.7163,863.327 L229.6875,860.6445 L229.941,860.8241 L227.817,857.8243 L225.5295,854.7085 L223.4814,851.7624 L221.4444,848.8242 L219.0521,845.6341 " fill="none" style="stroke:#333333;stroke-width:3.125;"/><polygon fill="#333333" points="215.375,841.9362,215.4432,841.9623,215.9733,843.8014,216.9031,845.7933,217.7027,847.7354,218.0744,849.514,219.0385,851.519,219.0115,851.519,218.8928,850.3402,218.9101,849.1617,219.022,847.9834,218.808,846.8045,219.0504,845.6265,219.0508,845.8187,220.2285,845.41,221.4073,845.5626,222.5862,845.7836,223.7644,845.6062,224.9429,845.6384,224.9515,845.6605,223.0254,844.8876,221.1381,844.2153,219.2321,843.4945,217.362,842.8663,215.375,841.9362" style="stroke:#333333;stroke-width:3.125;"/><text fill="#2E2E2E" font-family="Segoe Print" font-size="12.5" lengthAdjust="spacing" textLength="129.1667" x="240.1042" y="878.4973">EvCapsLockPressed</text><path d="M69.2708,966.862 L69.2708,967.1539 L79.6181,966.2865 L89.9653,967.1304 L100.3125,967.4171 L110.6597,965.8712 L121.0069,966.754 L131.3542,966.2696 L141.7014,966.3293 L152.0486,966.7673 L162.3958,965.9017 L172.7431,967.6309 L183.0903,965.9866 L193.4375,966.5873 L203.7847,967.4619 L214.1319,966.7428 L224.4792,966.9568 L234.8264,966.8176 L245.1736,967.1099 L255.5208,967.1941 L265.8681,967.6754 L276.2153,967.794 L286.5625,967.8054 L296.9097,967.2156 L307.2569,967.5058 L317.6042,967.8373 L327.9514,965.8603 L338.2986,967.8044 L348.6458,966.4502 L358.9931,967.6034 L369.3403,966.1744 L379.6875,966.862 " fill="none" style="stroke:#333333;stroke-width:1.5625;stroke-dasharray:8.0,10.0;"/><polygon fill="#17A2B8" points="96.4117,1004.8124,94.8848,1006.8987,93.0788,1009.9545,90.4959,1012.0139,87.7816,1013.14,85.6174,1013.2378,82.8359,1011.8294,80.2113,1010.9093,78.2193,1009.0411,77.1743,1006.9025,76.5546,1005.1996,75.9475,1002.9753,74.9621,1001.0613,75.7193,999.1925,76.3828,997.1453,78.8724,995.5263,80.624,993.4255,82.792,992.7279,85.3694,992.1272,88.6746,992.4841,90.4849,993.3379,92.5897,993.7248,95.1488,996.3468,96.041,999.1148,96.4286,1001.0034,95.9895,1004.1156" style="stroke:none;stroke-width:1.0416666666666667;"/><g id="Active.CONC95.ScrollLockOff"><polygon points="128.6458,974.1536,128.6458,974.3726,139.5833,973.7221,150.5208,974.355,161.4583,974.57,172.3958,973.4105,183.3333,974.0727,194.2708,973.7094,205.2083,973.7542,216.1458,974.1536,216.1368,974.1318,217.8954,974.6946,219.9022,975.8567,221.5864,976.2397,223.4853,977.1412,225.353,977.9674,225.4915,978.0248,226.0882,979.7974,226.9003,981.6593,227.6309,983.4874,228.4612,985.3568,229.1667,987.1745,229.2497,987.1745,229.37,993.2096,229.3997,999.2448,229.4025,1005.2799,229.2551,1011.3151,229.1667,1017.3503,229.3154,1017.4119,228.6292,1019.285,227.4098,1020.9373,227.0961,1022.9647,226.0206,1024.6766,225.353,1026.5574,225.4239,1026.7286,223.4458,1027.1613,221.661,1028.0609,219.9272,1029.0835,217.9808,1029.5927,216.1458,1030.3711,216.1458,1030.4808,205.2083,1030.7238,194.2708,1030.8047,183.3333,1030.367,172.3958,1030.6703,161.4583,1029.7748,150.5208,1030.6673,139.5833,1030.9421,128.6458,1030.3711,128.7049,1030.5137,126.8859,1029.805,124.8988,1028.6906,123.0349,1027.8737,121.1976,1027.1208,119.4387,1026.5574,119.4198,1026.5496,118.6129,1024.6898,118.1318,1022.9651,117.0945,1021.0099,116.2777,1019.1461,115.625,1017.3503,115.7043,1017.3503,115.3935,1011.3151,115.4447,1005.2799,115.8503,999.2448,115.7763,993.2096,115.625,987.1745,115.8606,987.2721,116.2845,985.2903,117.2529,983.534,118.1026,981.7287,118.5244,979.746,119.4387,977.9674,119.426,977.9366,121.2969,977.245,123.2082,976.651,124.9624,975.6778,126.8659,975.0648,128.6458,974.1536" style="stroke:#333333;stroke-width:1.5625;fill:none;"/><path d="M115.625,1009.5378 L115.625,1009.8297 L125.947,1008.9623 L136.2689,1009.8062 L146.5909,1010.0929 L156.9129,1008.5469 L167.2348,1009.4298 L177.5568,1008.9454 L187.8788,1009.0051 L198.2008,1009.4431 L208.5227,1008.5775 L218.8447,1010.3067 L229.1667,1009.5378 " style="stroke:#333333;stroke-width:1.5625;fill:none;"/><text fill="#2E2E2E" font-family="Segoe Print" font-size="12.5" lengthAdjust="spacing" textLength="82.2917" x="131.25" y="996.1731">ScrollLockOff</text></g><g id="Active.CONC95.ScrollLockOn"><polygon points="128.6458,1093.9453,128.6458,1094.1643,139.5833,1093.5137,150.5208,1094.1467,161.4583,1094.3616,172.3958,1093.2022,183.3333,1093.8644,194.2708,1093.501,205.2083,1093.5458,216.1458,1093.9453,216.1368,1093.9234,217.8954,1094.4863,219.9022,1095.6484,221.5864,1096.0314,223.4853,1096.9328,225.353,1097.759,225.4915,1097.8164,226.0882,1099.5891,226.9003,1101.4509,227.6309,1103.2791,228.4612,1105.1484,229.1667,1106.9661,229.2497,1106.9661,229.37,1113.0013,229.3997,1119.0365,229.4025,1125.0716,229.2551,1131.1068,229.1667,1137.1419,229.3154,1137.2035,228.6292,1139.0767,227.4098,1140.7289,227.0961,1142.7564,226.0206,1144.4682,225.353,1146.349,225.4239,1146.5203,223.4458,1146.953,221.661,1147.8526,219.9272,1148.8752,217.9808,1149.3844,216.1458,1150.1628,216.1458,1150.2725,205.2083,1150.5155,194.2708,1150.5963,183.3333,1150.1587,172.3958,1150.4619,161.4583,1149.5665,150.5208,1150.459,139.5833,1150.7338,128.6458,1150.1628,128.7049,1150.3054,126.8859,1149.5967,124.8988,1148.4823,123.0349,1147.6653,121.1976,1146.9124,119.4387,1146.349,119.4198,1146.3412,118.6129,1144.4815,118.1318,1142.7567,117.0945,1140.8016,116.2777,1138.9378,115.625,1137.1419,115.7043,1137.1419,115.3935,1131.1068,115.4447,1125.0716,115.8503,1119.0365,115.7763,1113.0013,115.625,1106.9661,115.8606,1107.0637,116.2845,1105.082,117.2529,1103.3257,118.1026,1101.5203,118.5244,1099.5377,119.4387,1097.759,119.426,1097.7283,121.2969,1097.0367,123.2082,1096.4426,124.9624,1095.4695,126.8659,1094.8564,128.6458,1093.9453" style="stroke:#333333;stroke-width:1.5625;fill:none;"/><path d="M115.625,1129.3294 L115.625,1129.6213 L125.947,1128.754 L136.2689,1129.5979 L146.5909,1129.8845 L156.9129,1128.3386 L167.2348,1129.2215 L177.5568,1128.7371 L187.8788,1128.7968 L198.2008,1129.2348 L208.5227,1128.3692 L218.8447,1130.0984 L229.1667,1129.3294 " style="stroke:#333333;stroke-width:1.5625;fill:none;"/><text fill="#2E2E2E" font-family="Segoe Print" font-size="12.5" lengthAdjust="spacing" textLength="82.2917" x="131.25" y="1115.9648">ScrollLockOn</text></g><!--MD5=[8676698f49c1acec7e35e8e65e103748]
link *start*CONC95 to ScrollLockOff--><path d="M96.4063,1002.2786 L96.4063,1002.376 L99.1375,1002.0868 L101.8688,1002.3681 L104.6,1002.4637 L107.3313,1001.9484 L110.0625,1002.2786 " fill="none" style="stroke:#333333;stroke-width:3.125;"/><polygon fill="#333333" points="115.4063,1002.2786,115.4359,1002.3453,113.4728,1001.3139,111.6835,1000.6733,109.8376,999.9055,107.8056,998.719,106.0313,998.112,106.0122,998.0929,106.7599,998.8406,107.6038,999.6845,108.5145,1000.5952,109.1948,1001.2756,110.1979,1002.2786,110.3338,1002.4146,109.2098,1002.9572,108.4827,1003.8968,107.804,1004.8847,106.8435,1005.5909,106.0313,1006.4453,106.0409,1006.467,107.9017,1005.6018,109.8064,1004.8353,111.69,1004.0212,113.6138,1003.2978,115.4063,1002.2786" style="stroke:#333333;stroke-width:3.125;"/><!--MD5=[da4e1e55b4a6de250eca2c82023085fa]
link ScrollLockOff to ScrollLockOn--><path d="M115.5104,1024.9766 L115.5705,1025.0531 L112.6609,1026.9716 L110.1037,1029.3386 L107.4318,1031.5596 L104.3824,1033.3002 L101.8555,1035.7057 L101.8273,1035.6833 L99.5591,1038.2723 L97.4327,1040.9743 L95.405,1043.7548 L93.0374,1046.2647 L91.1458,1049.1536 L91.3888,1049.2353 L89.9942,1051.6649 L89.309,1054.3328 L88.7104,1057.0298 L87.6082,1059.5577 L86.7708,1062.1745 L86.8008,1062.1845 L87.6318,1064.7739 L88.5992,1067.4091 L89.5008,1070.0222 L90.5279,1072.6775 L91.1458,1075.1953 L91.3928,1075.3838 L93.156,1077.6926 L94.7599,1079.8798 L96.5969,1082.245 L98.4449,1084.6186 L99.9466,1086.7279 L99.7283,1086.4753 L102.3669,1088.8798 L104.2865,1090.4527 L106.7528,1092.6578 L108.6561,1094.2118 L111.0208,1096.2995 " fill="none" style="stroke:#333333;stroke-width:3.125;"/><polygon fill="#333333" points="115.5104,1099.3724,115.5726,1099.4107,114.3121,1097.5498,113.416,1095.9132,112.4012,1094.2035,110.9963,1092.2537,110.1314,1090.6364,110.1049,1090.6314,110.2023,1091.7676,110.4335,1092.9288,110.7576,1094.1074,110.7613,1095.2261,111.2138,1096.4287,111.2491,1096.6176,110.0151,1096.43,108.8842,1096.7941,107.7659,1097.2255,106.5745,1097.2653,105.4215,1097.511,105.4258,1097.5343,107.4372,1097.8724,109.4683,1098.3165,111.4899,1098.7095,113.5295,1099.2001,115.5104,1099.3724" style="stroke:#333333;stroke-width:3.125;"/><text fill="#2E2E2E" font-family="Segoe Print" font-size="12.5" lengthAdjust="spacing" textLength="129.1667" x="97.3958" y="1067.0064">EvCapsLockPressed</text><!--MD5=[6ad2c621f2407b82317910f4deb17639]
link ScrollLockOn to ScrollLockOff--><path d="M218.5313,1093.737 L218.6028,1093.8029 L219.9902,1091.87 L221.7971,1090.3236 L223.4673,1088.6514 L224.6883,1086.5653 L226.5313,1085.0521 L226.5009,1085.0327 L227.621,1082.9746 L228.894,1081.014 L230.2734,1079.1211 L231.2863,1076.9947 L232.8125,1075.1953 L233.0582,1075.2682 L233.3046,1072.5082 L234.2685,1069.961 L235.3199,1067.4396 L235.8619,1064.7674 L236.6719,1062.1745 L236.7022,1062.1835 L235.8858,1059.5661 L235.2074,1056.9896 L234.4624,1054.3934 L233.8443,1051.8349 L232.8125,1049.1536 L233.0659,1049.3334 L230.9961,1046.4126 L228.7628,1043.376 L226.7688,1040.5091 L224.786,1037.65 L222.4479,1034.5391 " fill="none" style="stroke:#333333;stroke-width:3.125;"/><polygon fill="#333333" points="218.5313,1030.612,218.5994,1030.638,219.1296,1032.4772,220.0593,1034.4691,220.859,1036.4112,221.2307,1038.1898,222.1947,1040.1948,222.1678,1040.1947,222.049,1039.016,222.0663,1037.8375,222.1782,1036.6592,221.9642,1035.4803,222.2067,1034.3023,222.207,1034.4945,223.3847,1034.0858,224.5635,1034.2384,225.7425,1034.4594,226.9206,1034.282,228.0992,1034.3142,228.1077,1034.3363,226.1816,1033.5634,224.2944,1032.8911,222.3884,1032.1703,220.5182,1031.5421,218.5313,1030.612" style="stroke:#333333;stroke-width:3.125;"/><text fill="#2E2E2E" font-family="Segoe Print" font-size="12.5" lengthAdjust="spacing" textLength="129.1667" x="242.1875" y="1067.0064">EvCapsLockPressed</text><!--MD5=[242ad121cef04112e9b0ee8f25f52375]
link *start to fork_state--><path d="M224.4792,77.6367 L224.7711,77.6367 L223.9037,87.2131 L224.7476,96.7895 L225.0343,106.3659 L223.4883,115.9423 L224.3712,125.5187 L224.4792,135.0951 " fill="none" style="stroke:#333333;stroke-width:3.125;"/><polygon fill="#333333" points="224.4792,140.6471,224.5459,140.6768,225.181,138.7137,226.2072,136.9244,227.106,135.0785,227.5861,133.0465,228.6458,131.2721,228.6268,131.2531,227.7078,132.0008,226.885,132.8446,226.1291,133.7554,225.1428,134.4357,224.4792,135.4388,224.6151,135.5747,223.4911,134.4507,222.7639,133.7236,222.0852,133.0449,221.1248,132.0844,220.3125,131.2721,220.3342,131.2818,221.1357,133.1426,222.0358,135.0473,222.8884,136.9309,223.8317,138.8547,224.4792,140.6471" style="stroke:#333333;stroke-width:3.125;"/><!--MD5=[44dd36eb382d4fffd186e8c447a61da0]
link fork_state to State2--><path d="M222.3854,149.6888 L222.637,149.8369 L216.1899,159.0756 L211.2174,169.1827 L205.7648,179.0069 L198.733,187.9013 L193.7941,198.0281 L188.1875,207.7617 " fill="none" style="stroke:#333333;stroke-width:3.125;"/><polygon fill="#333333" points="185.4792,212.3451,185.5217,212.4043,187.0623,211.0319,188.8524,210.007,190.5612,208.869,192.0029,207.3587,193.8144,206.3637,193.8075,206.3376,192.6366,206.518,191.5001,206.83,190.3874,207.2336,189.1924,207.3218,188.1127,207.8516,188.2987,207.9002,187.6034,206.656,187.4511,205.5536,187.3651,204.4685,186.8936,203.2828,186.6248,202.15,186.6484,202.1526,186.3847,204.1878,186.2282,206.2349,186.02,208.2763,185.9104,210.3288,185.4792,212.3451" style="stroke:#333333;stroke-width:3.125;"/><!--MD5=[43d4d70f9cd19f132a5eb1ce9d85c890]
link fork_state to State3--><path d="M226.8542,149.6888 L227.0971,149.8507 L231.9051,157.6658 L238.1371,166.43 L243.9054,174.8851 L248.1488,182.3238 L254.4132,191.1096 L259.5398,199.1371 L265.5625,207.7617 " fill="none" style="stroke:#333333;stroke-width:3.125;"/><polygon fill="#333333" points="268.625,212.3451,268.6969,212.3574,268.1349,210.2986,267.9946,208.3123,267.7169,206.3024,266.9877,204.2147,266.8836,202.2347,266.8571,202.2294,266.5081,203.3616,266.2926,204.5203,266.1697,205.6975,265.7273,206.811,265.7325,208.0137,265.7701,208.2023,264.534,207.5689,263.4075,207.486,262.2944,207.4702,261.1035,207.0637,259.9535,206.8627,259.9661,206.8827,261.6819,207.9498,263.4552,209.108,265.2008,210.2223,266.9994,211.4205,268.625,212.3451" style="stroke:#333333;stroke-width:3.125;"/><!--MD5=[8cf5ef3a64654818495211b4c165bd62]
link State2 to join_state--><path d="M155.4375,269.293 L155.5301,269.3227 L154.3613,272.015 L153.7356,274.8817 L152.933,277.6917 L151.5488,280.3147 L150.9697,283.1965 L150.9342,283.1906 L150.2872,286.1245 L149.8192,289.088 L149.4755,292.0719 L148.7031,294.9852 L148.5313,297.9974 L148.7872,298.0118 L148.4053,300.9228 L148.7707,303.8759 L149.2272,306.8341 L149.1533,309.7625 L149.3584,312.7065 L149.3878,312.718 L150.4104,315.4268 L151.567,318.1879 L152.659,320.9237 L153.8742,323.7078 L154.6875,326.3346 L154.9227,326.5377 L156.8269,328.7425 L158.5795,330.8165 L160.5541,333.0821 L162.5391,335.3567 L164.1943,337.3467 L164.0029,337.0732 L166.7825,339.2896 L168.9316,340.6054 L171.5601,342.606 L173.6949,343.9014 L176.2344,345.7747 L176.2209,345.746 L179.0147,347.3205 L181.4939,348.224 L184.1588,349.5234 L186.8392,350.856 L189.4072,351.9489 L189.4675,352.1319 L191.9877,352.7972 L194.6109,353.7753 L197.0675,354.2474 L199.7726,355.4742 L202.3125,356.1992 " fill="none" style="stroke:#333333;stroke-width:3.125;"/><polygon fill="#333333" points="207.6875,357.5742,207.7328,357.6314,205.9892,356.1881,204.5112,355.0803,202.9466,353.8632,201.0978,352.2869,199.6425,351.2079,199.6193,351.1941,200.1151,352.1468,200.728,353.1687,201.4222,354.2388,201.836,355.143,202.6427,356.2795,202.7405,356.445,201.5169,356.6912,200.579,357.4205,199.676,358.2087,198.5702,358.654,197.571,359.2796,197.575,359.303,199.5925,358.9276,201.6279,358.6586,203.6547,358.3383,205.698,358.1158,207.6875,357.5742" style="stroke:#333333;stroke-width:3.125;"/><text fill="#2E2E2E" font-family="Segoe Print" font-size="12.5" lengthAdjust="spacing" textLength="98.9583" x="160.9375" y="318.1458">some message</text><!--MD5=[183fde86cac17ac230b97143534e47db]
link State3 to join_state--><path d="M286.4583,269.2096 L286.555,269.2211 L285.9394,271.9645 L285.8902,274.775 L285.6566,277.5637 L284.8164,280.2806 L284.8159,283.0968 L284.7807,283.0897 L284.0246,286.0186 L283.4462,288.9834 L282.9915,291.9731 L282.1109,294.8769 L281.8268,297.901 L282.071,297.9791 L280.6069,300.7602 L279.8557,303.7691 L279.1914,306.8058 L278.0212,309.6808 L277.117,312.6408 L277.1453,312.6548 L275.7429,315.373 L274.4692,318.1551 L273.1335,320.9064 L271.9162,323.7165 L270.3125,326.3346 L270.5573,326.5259 L269.1267,328.3627 L267.5383,330.076 L266.1809,331.97 L264.8344,333.8725 L263.1447,335.5067 L262.9195,335.2601 L261.6232,337.3217 L259.5854,338.5714 L258.1113,340.4383 L256.0567,341.6696 L254.4779,343.4219 L254.4593,343.3961 L252.8588,345.0112 L250.8253,346.0251 L249.0473,347.3938 L247.2907,348.7922 L245.3794,349.9757 L245.4787,350.1409 L243.6859,350.9918 L242.0628,352.1249 L240.1652,352.8015 L238.6771,354.159 L236.9167,355.0638 " fill="none" style="stroke:#333333;stroke-width:3.125;"/><polygon fill="#333333" points="232.2292,357.5534,232.2343,357.6262,234.266,357.2669,236.3276,357.3345,238.3794,357.263,240.3994,356.7346,242.4635,356.8387,242.4556,356.8129,241.2933,356.3517,240.1709,356.0206,239.0763,355.7799,237.8861,355.2276,236.8297,355.1117,237.0135,355.168,236.9659,353.9208,237.4549,352.838,238.0093,351.7754,238.1829,350.5959,238.5567,349.4779,238.5754,349.4925,237.2825,351.0862,236.0745,352.7463,234.8256,354.3744,233.6548,356.0637,232.2292,357.5534" style="stroke:#333333;stroke-width:3.125;"/><!--MD5=[1e473d623208eebf6d5ebd6e9bc5a11d]
link join_state to State4--><path d="M225.5208,366.3555 L225.8128,366.3555 L224.9454,377.8034 L225.7893,389.2513 L226.0759,400.6992 L224.53,412.1471 L225.5208,423.5951 " fill="none" style="stroke:#333333;stroke-width:3.125;"/><polygon fill="#333333" points="225.5208,429.0117,225.5875,429.0414,226.2227,427.0783,227.2488,425.289,228.1476,423.4431,228.6278,421.4111,229.6875,419.6367,229.6684,419.6176,228.7495,420.3653,227.9267,421.2092,227.1708,422.12,226.1844,422.8003,225.5208,423.8034,225.6568,423.9393,224.5328,422.8153,223.8056,422.0882,223.1269,421.4094,222.1664,420.449,221.3542,419.6367,221.3758,419.6463,222.1774,421.5072,223.0775,423.4119,223.93,425.2954,224.8733,427.2193,225.5208,429.0117" style="stroke:#333333;stroke-width:3.125;"/><!--MD5=[0a70b1a7cf318979336334b4227eefe4]
link State4 to Active--><path d="M225.5208,485.793 L225.8128,485.793 L224.9454,495.4701 L225.7893,505.1471 L226.0759,514.8242 L224.53,524.5013 L225.4129,534.1784 L225.5208,543.8555 " fill="none" style="stroke:#333333;stroke-width:3.125;"/><polygon fill="#333333" points="225.5208,549.168,225.5875,549.1976,226.2227,547.2345,227.2488,545.4452,228.1476,543.5993,228.6278,541.5674,229.6875,539.793,229.6684,539.7739,228.7495,540.5216,227.9267,541.3655,227.1708,542.2762,226.1844,542.9566,225.5208,543.9596,225.6568,544.0956,224.5328,542.9716,223.8056,542.2444,223.1269,541.5657,222.1664,540.6052,221.3542,539.793,221.3758,539.8026,222.1774,541.6635,223.0775,543.5681,223.93,545.4517,224.8733,547.3756,225.5208,549.168" style="stroke:#333333;stroke-width:3.125;"/><!--MD5=[534d4c69ae0f0b4c608c254e1244ef6b]
@startuml

!$THEME = "sketchy-outline"

!if %not(%variable_exists("$BGCOLOR"))
!$BGCOLOR = "transparent"
!endif

skinparam backgroundColor $BGCOLOR
skinparam useBetaStyle false
skinparam handwritten true
skinparam shadowing false

!$BLUE = "#007bff"
!$INDIGO = "#6610f2"
!$PURPLE = "#6f42c1"
!$PINK = "#e83e8c"
!$RED = "#dc3545"
!$ORANGE = "#fd7e14"
!$YELLOW = "#ffc107"
!$GREEN = "#28a745"
!$TEAL = "#20c997"
!$CYAN = "#17a2b8"
!$WHITE = "#ffffff"
!$GRAY = "#868e96"
!$GRAYDARK = "#333333"
!$PRIMARY = "#333333"
!$SECONDARY = "#555555"
!$SUCCESS = "#28a745"
!$INFO = "#17a2b8"
!$WARNING = "#ffc107"
!$DANGER = "#dc3545"
!$LIGHT = "#ffffff"
!$DARK = "#555555"

!$FGCOLOR = $WHITE
!$PRIMARY_DARK = "#2e2e2e"
!$PRIMARY_LIGHT = "#474747"
!$PRIMARY_TEXT = "#2e2e2e"
!$SECONDARY_DARK = "#4d4d4d"
!$SECONDARY_LIGHT = "#666666"
!$SECONDARY_TEXT = $WHITE
!$INFO_DARK = "#1592a6"
!$INFO_LIGHT = "#2eabbf"
!$INFO_TEXT = $WHITE
!$SUCCESS_DARK = "#24963e"
!$SUCCESS_LIGHT = "#3eb058"
!$SUCCESS_TEXT = $WHITE
!$WARNING_DARK = "#e6ae06"
!$WARNING_LIGHT = "#ffc720"
!$WARNING_TEXT = $WHITE
!$DANGER_DARK = "#c6303e"
!$DANGER_LIGHT = "#e04958"
!$DANGER_TEXT = $WHITE
!$DARK_DARK = "#4d4d4d"
!$DARK_LIGHT = "#666666"
!$LIGHT_DARK = "#e6e6e6"
!$LIGHT_LIGHT = "#ffffff"

!procedure $success($msg)
  <font color=$SUCCESS><b>$msg
!endprocedure

!procedure $failure($msg)
  <font color=$DANGER><b>$msg
!endprocedure

!procedure $warning($msg)
  <font color=$WARNING><b>$msg
!endprocedure

!procedure $primary_scheme()
	FontColor $PRIMARY_TEXT
	BorderColor $PRIMARY
	BackgroundColor $BGCOLOR
!endprocedure

skinparam defaultFontName       "Segoe Print"
skinparam defaultFontSize       12
skinparam dpi                   100
skinparam shadowing             false
skinparam roundcorner           8
skinparam ParticipantPadding    40
skinparam BoxPadding            40
skinparam Padding               5
skinparam ArrowColor            $DARK
skinparam stereotype {
    CBackgroundColor $BGCOLOR
    CBorderColor $SECONDARY_DARK
    ABackgroundColor $BGCOLOR
    ABorderColor $SUCCESS_DARK
    IBackgroundColor $BGCOLOR
    IBorderColor $DANGER_DARK
    EBackgroundColor $BGCOLOR
    EBorderColor $WARNING_DARK
    NBackgroundColor $BGCOLOR
    NBorderColor $INFO_DARK
}
skinparam title {
	FontColor	                 $PRIMARY_TEXT
	BorderColor	                 $SECONDARY_DARK
	FontSize	    	         20
	BorderRoundCorner            8
	BorderThickness 	         1
	BackgroundColor              $BGCOLOR
}

skinparam legend {
	BackgroundColor $BGCOLOR
	BorderColor $SECONDARY_DARK
	FontColor $PRIMARY_TEXT
}

!startsub swimlane
skinparam swimlane {
	BorderColor $INFO
	BorderThickness 2
	TitleBackgroundColor  $BGCOLOR
	TitleFontColor $PRIMARY_TEXT
}
!endsub

!startsub activity

skinparam activity {
	$primary_scheme()
	BarColor $SUCCESS
	StartColor $INFO
	EndColor $INFO
	DiamondBackgroundColor $BGCOLOR
  	DiamondBorderColor $SECONDARY_DARK
  	DiamondFontColor $PRIMARY_TEXT
}
!endsub

!startsub participant

skinparam participant {
	$primary_scheme()
	ParticipantBorderThickness 2
}
!endsub

!startsub actor

skinparam actor {
	$primary_scheme()
}
!endsub

!startsub arrow

skinparam arrow {
	Thickness 3
	Color $PRIMARY
	FontColor $PRIMARY_TEXT
}
!endsub

!startsub sequence

skinparam sequence {
	BorderColor $PRIMARY
	TitleFontColor $PRIMARY_TEXT
	BackgroundColor $BGCOLOR
	StartColor $PRIMARY
	EndColor $PRIMARY
	BoxBackgroundColor $BGCOLOR
	BoxBorderColor $DARK
	BoxFontColor $DARK
	LifeLineBorderColor $SECONDARY
	LifeLineBorderThickness 2
	LifeLineBackgroundColor $SECONDARY_DARK
	GroupBorderColor $DARK
	GroupFontColor $DARK
	GroupHeaderFontColor $INFO
	GroupBackgroundColor $SECONDARY
	GroupHeaderBackgroundColor $BGCOLOR
	DividerBackgroundColor $DARK
    DividerBorderColor $DARK
    DividerBorderThickness 2
    DividerFontColor $LIGHT
	ReferenceBackgroundColor $BGCOLOR
	ReferenceBorderColor $DARK
	ReferenceFontColor $DARK
	ReferenceHeaderFontColor $INFO
	ReferenceHeaderBackgroundColor $SECONDARY
}
!endsub

!startsub partition

skinparam partition {
	BorderColor $PRIMARY
	FontColor $PRIMARY
	BackgroundColor $BGCOLOR
}
!endsub

!startsub collections

skinparam collections {
	$primary_scheme()
}
!endsub

!startsub control

skinparam control {
	$primary_scheme()
}
!endsub

!startsub entity

skinparam entity {
	$primary_scheme()
}
!endsub

!startsub boundary

skinparam boundary {
	$primary_scheme()
}
!endsub

!startsub agent

skinparam agent {
	BackgroundColor $WARNING
	BorderColor $WARNING_LIGHT
	FontColor $DARK
}
!endsub

!startsub note

skinparam note {
	BorderThickness 1
	BackgroundColor $INFO
	BorderColor $INFO_DARK
	FontColor $WHITE
}
!endsub

!startsub artifact

skinparam artifact {
	BackgroundColor $BGCOLOR
	BorderColor $DARK_DARK
	FontColor $DARK_DARK
}
!endsub

!startsub component

skinparam component {
	$primary_scheme()
}
!endsub

!startsub interface

skinparam interface {
	BackgroundColor  $BGCOLOR
	BorderColor  $DANGER
	FontColor $DARK
}
!endsub

!startsub storage

skinparam storage {
	BackgroundColor $BGCOLOR
  	BorderColor $WARNING_DARK
	FontColor $WARNING_DARK
}
!endsub

!startsub node

skinparam node {
	BackgroundColor  $BGCOLOR
	BorderColor $LIGHT
	FontColor $LIGHT
}
!endsub

!startsub cloud

skinparam cloud {
	BackgroundColor $BGCOLOR
	BorderColor #F2FCFE
	FontColor $PRIMARY_TEXT
}
!endsub

!startsub database

skinparam database {
	$primary_scheme()
}
!endsub

!startsub class

skinparam class {
	$primary_scheme()
	HeaderBackgroundColor $BGCOLOR
	StereotypeFontColor $DARK
	BorderThickness 1
	AttributeFontColor $DARK
	AttributeFontSize 11
}
!endsub

!startsub object

skinparam object {
	$primary_scheme()
	StereotypeFontColor $PRIMARY_TEXT
	BorderThickness 1
	AttributeFontColor $PRIMARY_TEXT
	AttributeFontSize 11
}
!endsub

!startsub usecase

skinparam usecase {
	$primary_scheme()
	BorderThickness 2
	StereotypeFontColor $PRIMARY
}
!endsub

!startsub rectangle

skinparam rectangle {
	$primary_scheme()
	BorderThickness 2
	StereotypeFontColor $PRIMARY
}
!endsub

!startsub package

skinparam package {
	BackgroundColor $BGCOLOR
  	BorderColor $PRIMARY
	FontColor $PRIMARY
	BorderThickness 2
}
!endsub

!startsub folder

skinparam folder {
	BackgroundColor $BGCOLOR
  	BorderColor $WARNING
	FontColor $WARNING
	BorderThickness 2
}
!endsub

!startsub frame

skinparam frame {
	BackgroundColor $BGCOLOR
  	BorderColor $INFO
	FontColor $INFO
	BorderThickness 2
}
!endsub

!startsub state

skinparam state {
	$primary_scheme()
	StartColor $INFO
	EndColor $INFO
	AttributeFontColor $SECONDARY_TEXT
	AttributeFontSize 11
}
!endsub

!startsub queue

skinparam queue {
	$primary_scheme()
}
!endsub

!startsub card

skinparam card {
	BackgroundColor $BGCOLOR
	BorderColor $INFO_DARK
	FontColor $INFO_DARK
}
!endsub

!startsub file

skinparam file {
	BackgroundColor $BGCOLOR
	BorderColor $LIGHT
	FontColor $LIGHT
}
!endsub

!startsub stack

skinparam stack {
	$primary_scheme()
}
!endsub

!if %variable_exists("$THEME")
title State Diagram - $THEME theme
!else
title State Diagram
!endif

'skinparam BackgroundColor transparent

state fork_state <<fork>>
[*] - -> fork_state
fork_state - -> State2
fork_state - -> State3

state join_state <<join>>
State2 - -> join_state: some message
State3 - -> join_state
join_state - -> State4
State4 - -> Active

state Active {
  [*] -> NumLockOff
  NumLockOff - -> NumLockOn : EvNumLockPressed
  NumLockOn - -> NumLockOff : EvNumLockPressed
  - -
  [*] -> CapsLockOff
  CapsLockOff - -> CapsLockOn : EvCapsLockPressed
  CapsLockOn - -> CapsLockOff : EvCapsLockPressed
  - -
  [*] -> ScrollLockOff
  ScrollLockOff - -> ScrollLockOn : EvCapsLockPressed
  ScrollLockOn - -> ScrollLockOff : EvCapsLockPressed
}

@enduml

@startuml



skinparam backgroundColor transparent
skinparam useBetaStyle false
skinparam handwritten true
skinparam shadowing false







skinparam defaultFontName       "Segoe Print"
skinparam defaultFontSize       12
skinparam dpi                   100
skinparam shadowing             false
skinparam roundcorner           8
skinparam ParticipantPadding    40
skinparam BoxPadding            40
skinparam Padding               5
skinparam ArrowColor            #555555
skinparam stereotype {
    CBackgroundColor transparent
    CBorderColor #4d4d4d
    ABackgroundColor transparent
    ABorderColor #24963e
    IBackgroundColor transparent
    IBorderColor #c6303e
    EBackgroundColor transparent
    EBorderColor #e6ae06
    NBackgroundColor transparent
    NBorderColor #1592a6
}
skinparam title {
	FontColor	                 #2e2e2e
	BorderColor	                 #4d4d4d
	FontSize	    	         20
	BorderRoundCorner            8
	BorderThickness 	         1
	BackgroundColor              transparent
}

skinparam legend {
	BackgroundColor transparent
	BorderColor #4d4d4d
	FontColor #2e2e2e
}

skinparam swimlane {
	BorderColor #17a2b8
	BorderThickness 2
	TitleBackgroundColor  transparent
	TitleFontColor #2e2e2e
}


skinparam activity {
		FontColor #2e2e2e
	BorderColor #333333
	BackgroundColor transparent
	BarColor #28a745
	StartColor #17a2b8
	EndColor #17a2b8
	DiamondBackgroundColor transparent
  	DiamondBorderColor #4d4d4d
  	DiamondFontColor #2e2e2e
}


skinparam participant {
		FontColor #2e2e2e
	BorderColor #333333
	BackgroundColor transparent
	ParticipantBorderThickness 2
}


skinparam actor {
		FontColor #2e2e2e
	BorderColor #333333
	BackgroundColor transparent
}


skinparam arrow {
	Thickness 3
	Color #333333
	FontColor #2e2e2e
}


skinparam sequence {
	BorderColor #333333
	TitleFontColor #2e2e2e
	BackgroundColor transparent
	StartColor #333333
	EndColor #333333
	BoxBackgroundColor transparent
	BoxBorderColor #555555
	BoxFontColor #555555
	LifeLineBorderColor #555555
	LifeLineBorderThickness 2
	LifeLineBackgroundColor #4d4d4d
	GroupBorderColor #555555
	GroupFontColor #555555
	GroupHeaderFontColor #17a2b8
	GroupBackgroundColor #555555
	GroupHeaderBackgroundColor transparent
	DividerBackgroundColor #555555
    DividerBorderColor #555555
    DividerBorderThickness 2
    DividerFontColor #ffffff
	ReferenceBackgroundColor transparent
	ReferenceBorderColor #555555
	ReferenceFontColor #555555
	ReferenceHeaderFontColor #17a2b8
	ReferenceHeaderBackgroundColor #555555
}


skinparam partition {
	BorderColor #333333
	FontColor #333333
	BackgroundColor transparent
}


skinparam collections {
		FontColor #2e2e2e
	BorderColor #333333
	BackgroundColor transparent
}


skinparam control {
		FontColor #2e2e2e
	BorderColor #333333
	BackgroundColor transparent
}


skinparam entity {
		FontColor #2e2e2e
	BorderColor #333333
	BackgroundColor transparent
}


skinparam boundary {
		FontColor #2e2e2e
	BorderColor #333333
	BackgroundColor transparent
}


skinparam agent {
	BackgroundColor #ffc107
	BorderColor #ffc720
	FontColor #555555
}


skinparam note {
	BorderThickness 1
	BackgroundColor #17a2b8
	BorderColor #1592a6
	FontColor #ffffff
}


skinparam artifact {
	BackgroundColor transparent
	BorderColor #4d4d4d
	FontColor #4d4d4d
}


skinparam component {
		FontColor #2e2e2e
	BorderColor #333333
	BackgroundColor transparent
}


skinparam interface {
	BackgroundColor  transparent
	BorderColor  #dc3545
	FontColor #555555
}


skinparam storage {
	BackgroundColor transparent
  	BorderColor #e6ae06
	FontColor #e6ae06
}


skinparam node {
	BackgroundColor  transparent
	BorderColor #ffffff
	FontColor #ffffff
}


skinparam cloud {
	BackgroundColor transparent
	BorderColor #F2FCFE
	FontColor #2e2e2e
}


skinparam database {
		FontColor #2e2e2e
	BorderColor #333333
	BackgroundColor transparent
}


skinparam class {
		FontColor #2e2e2e
	BorderColor #333333
	BackgroundColor transparent
	HeaderBackgroundColor transparent
	StereotypeFontColor #555555
	BorderThickness 1
	AttributeFontColor #555555
	AttributeFontSize 11
}


skinparam object {
		FontColor #2e2e2e
	BorderColor #333333
	BackgroundColor transparent
	StereotypeFontColor #2e2e2e
	BorderThickness 1
	AttributeFontColor #2e2e2e
	AttributeFontSize 11
}


skinparam usecase {
		FontColor #2e2e2e
	BorderColor #333333
	BackgroundColor transparent
	BorderThickness 2
	StereotypeFontColor #333333
}


skinparam rectangle {
		FontColor #2e2e2e
	BorderColor #333333
	BackgroundColor transparent
	BorderThickness 2
	StereotypeFontColor #333333
}


skinparam package {
	BackgroundColor transparent
  	BorderColor #333333
	FontColor #333333
	BorderThickness 2
}


skinparam folder {
	BackgroundColor transparent
  	BorderColor #ffc107
	FontColor #ffc107
	BorderThickness 2
}


skinparam frame {
	BackgroundColor transparent
  	BorderColor #17a2b8
	FontColor #17a2b8
	BorderThickness 2
}


skinparam state {
		FontColor #2e2e2e
	BorderColor #333333
	BackgroundColor transparent
	StartColor #17a2b8
	EndColor #17a2b8
	AttributeFontColor #ffffff
	AttributeFontSize 11
}


skinparam queue {
		FontColor #2e2e2e
	BorderColor #333333
	BackgroundColor transparent
}


skinparam card {
	BackgroundColor transparent
	BorderColor #1592a6
	FontColor #1592a6
}


skinparam file {
	BackgroundColor transparent
	BorderColor #ffffff
	FontColor #ffffff
}


skinparam stack {
		FontColor #2e2e2e
	BorderColor #333333
	BackgroundColor transparent
}

title State Diagram - sketchy-outline theme


state fork_state <<fork>>
[*] - -> fork_state
fork_state - -> State2
fork_state - -> State3

state join_state <<join>>
State2 - -> join_state: some message
State3 - -> join_state
join_state - -> State4
State4 - -> Active

state Active {
  [*] -> NumLockOff
  NumLockOff - -> NumLockOn : EvNumLockPressed
  NumLockOn - -> NumLockOff : EvNumLockPressed
  - -
  [*] -> CapsLockOff
  CapsLockOff - -> CapsLockOn : EvCapsLockPressed
  CapsLockOn - -> CapsLockOff : EvCapsLockPressed
  - -
  [*] -> ScrollLockOff
  ScrollLockOff - -> ScrollLockOn : EvCapsLockPressed
  ScrollLockOn - -> ScrollLockOff : EvCapsLockPressed
}

@enduml

PlantUML version 1.2021.01(Mon Feb 01 23:55:08 PST 2021)
(GPL source distribution)
Java Runtime: OpenJDK Runtime Environment
JVM: OpenJDK 64-Bit Server VM
Default Encoding: UTF-8
Language: en
Country: US
--></g></svg>