<?xml version="1.0" encoding="UTF-8" standalone="no"?><svg xmlns="http://www.w3.org/2000/svg" xmlns:xlink="http://www.w3.org/1999/xlink" contentScriptType="application/ecmascript" contentStyleType="text/css" height="493.75px" preserveAspectRatio="none" style="width:582px;height:493px;background:#00000000;" version="1.1" viewBox="0 0 582 493" width="582.2917px" zoomAndPan="magnify"><defs><linearGradient id="gy9llvuz90zph0" x1="50%" x2="50%" y1="0%" y2="100%"><stop offset="0%" stop-color="#6D6D6D"/><stop offset="100%" stop-color="#484848"/></linearGradient><linearGradient id="gy9llvuz90zph1" x1="50%" x2="50%" y1="0%" y2="100%"><stop offset="0%" stop-color="#6D6D6D"/><stop offset="100%" stop-color="#3A3A3A"/></linearGradient><linearGradient id="gy9llvuz90zph2" x1="50%" x2="50%" y1="0%" y2="100%"><stop offset="0%" stop-color="#595959"/><stop offset="100%" stop-color="#262626"/></linearGradient></defs><g><polygon fill="url(#gy9llvuz90zph0)" points="15.625,11.4583,15.625,11.6773,25.9778,11.0267,36.3306,11.6597,46.6834,11.8747,57.0362,10.7152,67.389,11.3774,77.7417,11.0141,88.0945,11.0589,98.4473,11.3873,108.8001,10.7382,119.1529,12.035,129.5057,10.8018,139.8585,11.2523,150.2113,11.9083,160.5641,11.369,170.9169,11.5294,181.2697,11.4251,191.6224,11.6443,201.9752,11.7074,212.328,12.0684,222.6808,12.1573,233.0336,12.1659,243.3864,11.7236,253.7392,11.9412,264.092,12.1898,274.4448,10.7071,284.7976,12.1651,295.1504,11.1495,305.5031,12.0144,315.8559,10.9427,326.2087,11.387,336.5615,12.2308,346.9143,11.4076,357.2671,11.568,367.6199,11.8111,377.9727,11.8919,388.3255,11.4543,398.6783,11.7575,409.0311,10.8621,419.3838,11.7546,429.7366,12.0294,440.0894,11.9214,450.4422,12.0969,460.795,10.9551,471.1478,10.779,481.5006,10.811,491.8534,11.397,502.2062,11.2536,512.559,12.1681,522.9118,11.2764,533.2645,11.101,543.6173,11.6961,553.9701,10.7637,564.3229,11.4583,564.1427,11.4583,564.5482,16.58,564.4742,21.7017,564.5779,26.8233,564.2112,31.945,564.3229,37.0667,564.3229,37.3991,553.9701,37.6817,543.6173,36.5746,533.2645,36.9668,522.9118,37.1979,512.559,37.7456,502.2062,37.0623,491.8534,37.5485,481.5006,36.4898,471.1478,36.3612,460.795,37.5912,450.4422,36.3198,440.0894,37.5968,429.7366,37.2819,419.3838,36.7876,409.0311,36.6981,398.6783,37.5445,388.3255,36.7548,377.9727,37.6832,367.6199,36.4909,357.2671,37.7098,346.9143,37.5711,336.5615,37.3218,326.2087,37.1158,315.8559,37.8235,305.5031,37.7058,295.1504,37.243,284.7976,37.346,274.4448,36.931,264.092,37.813,253.7392,37.228,243.3864,37.2464,233.0336,36.433,222.6808,36.6445,212.328,37.6195,201.9752,37.5143,191.6224,37.0219,181.2697,36.7311,170.9169,36.8386,160.5641,36.3519,150.2113,37.4987,139.8585,37.837,129.5057,37.615,119.1529,37.7905,108.8001,36.9242,98.4473,37.1575,88.0945,36.6629,77.7417,37.3625,67.389,37.3237,57.0362,37.6421,46.6834,36.8274,36.3306,36.9266,25.9778,37.5286,15.625,37.0667,15.822,37.0667,15.447,31.945,15.5577,26.8233,15.6768,21.7017,15.4129,16.58,15.625,11.4583" style="stroke:#6D6D6D;stroke-width:1.0416666666666667;"/><polygon fill="#0060A8" points="149.2763,55.2254,147.7494,57.3117,145.9434,60.3675,143.3604,62.4269,140.6462,63.553,138.482,63.6508,135.7005,62.2424,133.0759,61.3223,131.0838,59.4541,130.0389,57.3155,129.4192,55.6126,128.8121,53.3883,127.8267,51.4743,128.5839,49.6055,129.2473,47.5583,131.737,45.9393,133.4886,43.8385,135.6566,43.1409,138.234,42.5402,141.5392,42.8971,143.3495,43.7509,145.4543,44.1379,148.0134,46.7598,148.9056,49.5278,149.2932,51.4164,148.8541,54.5287" style="stroke:none;stroke-width:1.0416666666666667;"/><polygon fill="url(#gy9llvuz90zph1)" points="114.3229,83.9417,114.3229,84.1606,124.1146,83.5101,133.9063,84.143,143.6979,84.358,153.4896,83.1985,163.2813,83.9417,163.2619,83.9228,165.6753,86.399,168.186,88.9703,170.7643,91.6076,173.1095,94.0173,175.7813,96.7458,175.9188,96.8801,173.1247,99.1538,170.7321,101.8195,168.3886,104.5331,165.7599,106.9683,163.2813,109.55,163.2813,109.621,153.4896,109.5167,143.6979,109.7359,133.9063,109.7991,124.1146,110.1601,114.3229,109.55,114.4896,109.7127,111.9917,107.1539,109.3862,104.4901,106.9381,101.9799,104.4974,99.477,101.8229,96.7458,101.6437,96.5709,104.4915,94.3496,106.7492,91.5522,109.4555,89.1928,111.6999,86.3824,114.3229,83.9417" style="stroke:#3A3A3A;stroke-width:1.5625;"/><text fill="#FEFEFE" font-family="Verdana" font-size="12.5" lengthAdjust="spacing" textLength="38.5417" x="119.5313" y="101.7171">color?</text><text fill="#FFFFFF" font-family="Verdana" font-size="12.5" lengthAdjust="spacing" textLength="21.875" x="74.7396" y="88.913">red</text><text fill="#FFFFFF" font-family="Verdana" font-size="12.5" lengthAdjust="spacing" textLength="47.9167" x="180.9896" y="88.913">not red</text><polygon fill="#FF0000" points="34.8958,130.3833,34.8958,130.6022,45.4613,129.9517,56.0268,130.5846,66.5923,130.7996,77.1577,129.6402,87.7232,130.3023,98.2887,129.939,108.8542,130.3833,108.8032,130.2603,110.6865,131.1242,112.4451,131.687,114.452,132.8491,116.1361,133.2321,118.0613,134.197,117.9978,134.1707,118.9626,136.0958,119.5593,137.8685,120.3714,139.7304,121.102,141.5585,121.875,143.4041,121.937,143.4041,121.958,147.4841,122.0784,151.5641,122.108,155.6441,122.1109,159.7241,121.875,163.8041,121.9567,163.838,121.261,165.7071,120.5748,167.5803,119.3554,169.2326,119.0417,171.26,118.0613,173.0112,118.0219,172.9161,116.2908,173.9452,114.3127,174.3779,112.5279,175.2775,110.7941,176.3001,108.8542,176.825,108.8542,176.7742,98.2887,176.9346,87.7232,177.1777,77.1577,177.2585,66.5923,176.8209,56.0268,177.1241,45.4613,176.2287,34.8958,176.825,34.9336,176.9162,33.1273,176.2381,31.2721,175.4421,29.453,174.7334,27.4659,173.619,25.6887,173.0112,25.4795,172.9246,24.7266,171.0872,24.1443,169.3206,23.3374,167.4609,22.8563,165.7361,21.875,163.8041,21.8143,163.8041,21.7559,159.7241,21.9543,155.6441,21.6435,151.5641,21.6947,147.4841,21.875,143.4041,22.0832,143.4904,22.7775,141.6206,23.6361,139.8189,24.06,137.8371,25.0284,136.0809,25.6887,134.197,25.7672,134.3864,27.4674,133.2827,29.3588,132.6408,31.2297,131.9492,33.141,131.3551,34.8958,130.3833" style="stroke:#262626;stroke-width:1.5625;"/><text fill="#FFF200" font-family="Verdana" font-size="12.5" font-weight="bold" lengthAdjust="spacing" textLength="68.75" x="37.5" y="158.5754">action red</text><polygon fill="url(#gy9llvuz90zph2)" points="54.6875,197.6583,54.6875,197.7313,61.5625,197.5144,68.4375,197.7254,75.3125,197.7971,82.1875,197.4106,89.0625,197.6583,89.0522,197.6334,90.8473,198.2842,92.6944,199.0607,94.5777,199.9246,96.3363,200.4875,98.2696,201.472,98.4472,201.5456,98.8302,203.2297,99.7317,205.1286,100.6964,207.0537,101.2931,208.8263,102.0833,210.6791,102.107,210.6791,102.0722,214.7591,102.1453,218.8391,102.1664,222.9191,102.2867,226.9991,102.0833,231.0791,102.2986,231.1683,101.5385,233.0108,100.6395,234.7958,99.9438,236.665,99.2576,238.5381,98.2696,240.2862,98.1738,240.0549,96.5184,241.2666,94.5474,241.7166,92.8163,242.7457,90.8381,243.1784,89.0625,244.0999,89.0625,244.0762,82.1875,244.3574,75.3125,244.083,68.4375,244.1365,61.5625,244.2175,54.6875,244.0999,54.7428,244.2335,52.8456,243.3359,51.0428,242.6666,49.0872,241.6281,47.3596,241.1402,45.4804,240.2862,45.6562,240.3591,44.8602,238.5039,44.1515,236.6848,43.0372,234.6978,42.2202,232.8339,41.6667,231.0791,41.4509,231.0791,41.6462,226.9991,41.5984,222.9191,41.9033,218.8391,41.606,214.7591,41.6667,210.6791,41.5566,210.6335,42.5026,208.868,42.9782,206.9077,43.7884,205.0859,44.9258,203.3997,45.4804,201.472,45.5383,201.6118,47.4194,200.9449,49.1205,199.8433,51.0471,199.2862,52.9245,198.6104,54.6875,197.6583" style="stroke:#262626;stroke-width:1.5625;"/><text fill="#FFF200" font-family="Verdana" font-size="12.5" lengthAdjust="spacing" textLength="29.1667" x="57.2917" y="225.8504">foo1</text><polygon fill="url(#gy9llvuz90zph1)" points="138.8021,254.5166,138.8537,254.5682,141.2004,256.9149,143.8495,259.5641,146.4002,262.1147,148.6269,264.3414,151.3021,267.0166,151.283,266.9975,148.6974,269.4119,146.2079,271.9224,143.7853,274.4999,141.1323,276.8469,138.8021,279.5166,138.938,279.6525,136.1473,276.8619,133.7535,274.468,131.4081,272.1227,128.781,269.4955,126.3021,267.0166,126.3188,267.0334,128.7942,264.5088,131.3459,262.0604,133.8608,259.5753,136.4459,257.1604,138.8021,254.5166" style="stroke:#3A3A3A;stroke-width:1.5625;"/><path d="M15.625,11.4583 L15.9169,11.4583 L15.0496,21.9002 L15.8935,32.342 L16.1801,42.7839 L14.6342,53.2257 L15.5171,63.6676 L15.0326,74.1094 L15.0924,84.5513 L15.5303,94.9931 L14.6648,105.435 L16.3939,115.8768 L14.7496,126.3187 L15.3503,136.7605 L16.2249,147.2024 L15.5059,157.6442 L15.7198,168.0861 L15.5806,178.5279 L15.873,188.9698 L15.9571,199.4116 L16.4385,209.8535 L16.557,220.2953 L16.5684,230.7372 L15.9786,241.179 L16.2689,251.6209 L16.6003,262.0627 L14.6234,272.5046 L16.5674,282.9464 L15.2132,293.3883 L16.3664,303.8301 L14.9375,314.272 L15.5299,324.7138 L16.655,335.1557 L15.5573,345.5975 L15.7713,356.0394 L16.0953,366.4812 L16.2031,376.9231 L15.6196,387.3649 L16.0239,397.8068 L14.83,408.2486 L16.02,418.6905 L16.3864,429.1323 L16.2424,439.5742 L16.4764,450.016 L14.9541,460.4579 L14.7192,470.8997 L15.625,481.3416 " fill="none" style="stroke:#0060A8;stroke-width:2.0833333333333335;"/><polygon fill="#00FF00" points="254.4271,130.3833,254.4271,130.6022,264.4271,129.9517,274.4271,130.5846,284.4271,130.7996,294.4271,129.6402,304.4271,130.3023,314.4271,129.939,324.4271,129.9838,334.4271,130.3123,344.4271,129.6631,354.4271,130.3833,354.5006,130.5609,356.1848,130.9439,358.0837,131.8453,360.0088,132.8101,361.7814,133.4068,363.6342,134.197,363.6561,134.2061,364.3867,136.0342,365.217,137.9036,365.9991,139.7531,366.8731,141.6405,367.4479,143.4041,367.6809,143.4041,367.6838,147.4841,367.5363,151.5641,367.6089,155.6441,367.6917,159.7241,367.4479,163.8041,367.2166,163.7083,366.9028,165.7357,365.8273,167.4476,365.3309,169.3993,364.2381,171.104,363.6342,173.0112,363.6251,172.9893,361.8913,174.0119,359.9449,174.5211,358.1239,175.3332,356.3135,176.1708,354.4271,176.825,354.4271,177.2585,344.4271,176.8209,334.4271,177.1241,324.4271,176.2287,314.4271,177.1212,304.4271,177.396,294.4271,177.288,284.4271,177.4635,274.4271,176.3217,264.4271,176.1456,254.4271,176.825,254.3445,176.6256,252.5778,176.0433,250.7181,175.2364,248.9934,174.7553,247.0382,173.7179,245.22,173.0112,245.1099,172.9657,244.5304,171.2001,243.4806,169.2398,242.7652,167.418,242.3772,165.7318,241.4063,163.8041,241.5575,163.8041,241.6613,159.7241,241.2945,155.6441,241.5171,151.5641,241.6113,147.4841,241.4063,143.4041,241.2547,143.3414,242.1382,141.55,242.9721,139.738,243.9036,137.9665,244.4559,136.0379,245.22,134.197,245.2814,134.3454,246.9878,133.2566,248.8128,132.4543,250.8112,132.0703,252.4904,130.9161,254.4271,130.3833" style="stroke:#262626;stroke-width:1.5625;"/><text fill="#FFF200" font-family="Verdana" font-size="12.5" font-weight="bold" lengthAdjust="spacing" textLength="94.7917" x="257.0313" y="158.5754">action not red</text><polygon fill="url(#gy9llvuz90zph2)" points="287.2396,197.6583,287.2396,197.7313,294.1146,197.5144,300.9896,197.7254,307.8646,197.7971,314.7396,197.4106,321.6146,197.6583,321.6043,197.6334,323.3993,198.2842,325.2465,199.0607,327.1298,199.9246,328.8884,200.4875,330.8217,201.472,330.9993,201.5456,331.3823,203.2297,332.2837,205.1286,333.2485,207.0537,333.8452,208.8263,334.6354,210.6791,334.6591,210.6791,334.6243,214.7591,334.6974,218.8391,334.7184,222.9191,334.8388,226.9991,334.6354,231.0791,334.8507,231.1683,334.0906,233.0108,333.1916,234.7958,332.4959,236.665,331.8097,238.5381,330.8217,240.2862,330.7259,240.0549,329.0704,241.2666,327.0995,241.7166,325.3684,242.7457,323.3902,243.1784,321.6146,244.0999,321.6146,244.0762,314.7396,244.3574,307.8646,244.083,300.9896,244.1365,294.1146,244.2175,287.2396,244.0999,287.2949,244.2335,285.3976,243.3359,283.5949,242.6666,281.6393,241.6281,279.9117,241.1402,278.0325,240.2862,278.2083,240.3591,277.4123,238.5039,276.7036,236.6848,275.5893,234.6978,274.7723,232.8339,274.2188,231.0791,274.003,231.0791,274.1983,226.9991,274.1505,222.9191,274.4554,218.8391,274.1581,214.7591,274.2188,210.6791,274.1087,210.6335,275.0547,208.868,275.5303,206.9077,276.3404,205.0859,277.4779,203.3997,278.0325,201.472,278.0904,201.6118,279.9715,200.9449,281.6726,199.8433,283.5991,199.2862,285.4766,198.6104,287.2396,197.6583" style="stroke:#262626;stroke-width:1.5625;"/><text fill="#FFF200" font-family="Verdana" font-size="12.5" lengthAdjust="spacing" textLength="29.1667" x="289.8438" y="225.8504">foo2</text><path d="M234.1146,11.4583 L234.4065,11.4583 L233.5391,21.9002 L234.383,32.342 L234.6697,42.7839 L233.1238,53.2257 L234.0066,63.6676 L233.5222,74.1094 L233.5819,84.5513 L234.0199,94.9931 L233.1543,105.435 L234.8835,115.8768 L233.2392,126.3187 L233.8399,136.7605 L234.7145,147.2024 L233.9954,157.6442 L234.2094,168.0861 L234.0702,178.5279 L234.3625,188.9698 L234.4467,199.4116 L234.928,209.8535 L235.0466,220.2953 L235.058,230.7372 L234.4682,241.179 L234.7585,251.6209 L235.0899,262.0627 L233.1129,272.5046 L235.057,282.9464 L233.7028,293.3883 L234.856,303.8301 L233.4271,314.272 L234.0194,324.7138 L235.1446,335.1557 L234.0469,345.5975 L234.2608,356.0394 L234.5849,366.4812 L234.6927,376.9231 L234.1092,387.3649 L234.5135,397.8068 L233.3196,408.2486 L234.5096,418.6905 L234.876,429.1323 L234.732,439.5742 L234.966,450.016 L233.4436,460.4579 L233.2088,470.8997 L234.1146,481.3416 " fill="none" style="stroke:#0060A8;stroke-width:2.0833333333333335;"/><polygon fill="#0060A8" points="402.8646,300.3499,402.8646,300.4229,409.7396,300.2061,416.6146,300.417,423.4896,300.4887,430.3646,300.1022,437.2396,300.3499,437.2293,300.325,439.0243,300.9759,440.8715,301.7524,442.7548,302.6163,444.5134,303.1791,446.4467,304.1636,446.6243,304.2372,447.0073,305.9213,447.9087,307.8202,448.8735,309.7453,449.4702,311.5179,450.2604,313.3708,450.2841,313.3708,450.2493,317.4508,450.3224,321.5308,450.3434,325.6108,450.4638,329.6908,450.2604,333.7708,450.4757,333.8599,449.7156,335.7024,448.8166,337.4874,448.1209,339.3566,447.4347,341.2298,446.4467,342.9779,446.3509,342.7465,444.6954,343.9583,442.7245,344.4082,440.9934,345.4373,439.0152,345.87,437.2396,346.7916,437.2396,346.7678,430.3646,347.0491,423.4896,346.7747,416.6146,346.8281,409.7396,346.9092,402.8646,346.7916,402.9199,346.9251,401.0226,346.0276,399.2199,345.3582,397.2643,344.3197,395.5367,343.8318,393.6575,342.9779,393.8333,343.0507,393.0373,341.1955,392.3286,339.3765,391.2143,337.3894,390.3973,335.5255,389.8438,333.7708,389.628,333.7708,389.8233,329.6908,389.7755,325.6108,390.0804,321.5308,389.7831,317.4508,389.8438,313.3708,389.7337,313.3252,390.6797,311.5597,391.1553,309.5993,391.9654,307.7775,393.1029,306.0913,393.6575,304.1636,393.7154,304.3034,395.5965,303.6365,397.2976,302.5349,399.2241,301.9778,401.1016,301.3021,402.8646,300.3499" style="stroke:#262626;stroke-width:1.5625;"/><text fill="#FFF200" font-family="Verdana" font-size="12.5" lengthAdjust="spacing" textLength="29.1667" x="405.4688" y="328.5421">foo3</text><polygon fill="url(#gy9llvuz90zph2)" points="402.8646,367.6249,402.8646,367.6979,409.7396,367.4811,416.6146,367.692,423.4896,367.7637,430.3646,367.3772,437.2396,367.6249,437.2293,367.6,439.0243,368.2508,440.8715,369.0274,442.7548,369.8913,444.5134,370.4541,446.4467,371.4386,446.6243,371.5122,447.0073,373.1963,447.9087,375.0952,448.8735,377.0203,449.4702,378.7929,450.2604,380.6458,450.2841,380.6458,450.2493,384.7257,450.3224,388.8057,450.3434,392.8857,450.4638,396.9657,450.2604,401.0457,450.4757,401.1349,449.7156,402.9774,448.8166,404.7624,448.1209,406.6316,447.4347,408.5047,446.4467,410.2529,446.3509,410.0215,444.6954,411.2333,442.7245,411.6832,440.9934,412.7123,439.0152,413.145,437.2396,414.0666,437.2396,414.0428,430.3646,414.3241,423.4896,414.0496,416.6146,414.1031,409.7396,414.1841,402.8646,414.0666,402.9199,414.2001,401.0226,413.3026,399.2199,412.6332,397.2643,411.5947,395.5367,411.1068,393.6575,410.2529,393.8333,410.3257,393.0373,408.4705,392.3286,406.6515,391.2143,404.6644,390.3973,402.8005,389.8438,401.0457,389.628,401.0457,389.8233,396.9657,389.7755,392.8857,390.0804,388.8057,389.7831,384.7257,389.8438,380.6458,389.7337,380.6002,390.6797,378.8347,391.1553,376.8743,391.9654,375.0525,393.1029,373.3663,393.6575,371.4386,393.7154,371.5784,395.5965,370.9115,397.2976,369.8099,399.2241,369.2528,401.1016,368.5771,402.8646,367.6249" style="stroke:#262626;stroke-width:1.5625;"/><text fill="#FFF200" font-family="Verdana" font-size="12.5" lengthAdjust="spacing" textLength="29.1667" x="405.4688" y="395.8171">foo4</text><path d="M372.6563,11.4583 L372.9482,11.4583 L372.0808,21.9002 L372.9247,32.342 L373.2114,42.7839 L371.6654,53.2257 L372.5483,63.6676 L372.0639,74.1094 L372.1236,84.5513 L372.5616,94.9931 L371.696,105.435 L373.4252,115.8768 L371.7809,126.3187 L372.3816,136.7605 L373.2562,147.2024 L372.5371,157.6442 L372.751,168.0861 L372.6119,178.5279 L372.9042,188.9698 L372.9884,199.4116 L373.4697,209.8535 L373.5883,220.2953 L373.5997,230.7372 L373.0099,241.179 L373.3001,251.6209 L373.6316,262.0627 L371.6546,272.5046 L373.5986,282.9464 L372.2444,293.3883 L373.3977,303.8301 L371.9687,314.272 L372.5611,324.7138 L373.6863,335.1557 L372.5886,345.5975 L372.8025,356.0394 L373.1266,366.4812 L373.2343,376.9231 L372.6508,387.3649 L373.0552,397.8068 L371.8612,408.2486 L373.0512,418.6905 L373.4176,429.1323 L373.2737,439.5742 L373.5077,450.016 L371.9853,460.4579 L371.7504,470.8997 L372.6563,481.3416 " fill="none" style="stroke:#0060A8;stroke-width:2.0833333333333335;"/><polygon fill="#FF8000" points="495.5729,434.8999,495.5729,434.9729,502.4479,434.756,509.3229,434.967,516.1979,435.0387,523.0729,434.6522,529.9479,434.8999,529.9376,434.875,531.7327,435.5258,533.5798,436.3024,535.4631,437.1663,537.2217,437.7291,539.155,438.7136,539.3326,438.7872,539.7156,440.4713,540.6171,442.3702,541.5818,444.2953,542.1785,446.0679,542.9688,447.9207,542.9924,447.9207,542.9577,452.0007,543.0307,456.0807,543.0518,460.1607,543.1721,464.2407,542.9688,468.3207,543.184,468.4099,542.4239,470.2524,541.5249,472.0374,540.8292,473.9066,540.143,475.7797,539.155,477.5278,539.0592,477.2965,537.4038,478.5082,535.4328,478.9582,533.7017,479.9873,531.7236,480.42,529.9479,481.3416,529.9479,481.3178,523.0729,481.5991,516.1979,481.3246,509.3229,481.3781,502.4479,481.4591,495.5729,481.3416,495.6282,481.4751,493.731,480.5776,491.9282,479.9082,489.9726,478.8697,488.245,478.3818,486.3658,477.5278,486.5417,477.6007,485.7457,475.7455,485.037,473.9264,483.9226,471.9394,483.1056,470.0755,482.5521,468.3207,482.3363,468.3207,482.5316,464.2407,482.4838,460.1607,482.7887,456.0807,482.4914,452.0007,482.5521,447.9207,482.442,447.8752,483.3881,446.1096,483.8637,444.1493,484.6738,442.3275,485.8112,440.6413,486.3658,438.7136,486.4237,438.8534,488.3048,438.1865,490.0059,437.0849,491.9325,436.5278,493.8099,435.852,495.5729,434.8999" style="stroke:#262626;stroke-width:1.5625;"/><text fill="#FFF200" font-family="Verdana" font-size="12.5" lengthAdjust="spacing" textLength="29.1667" x="498.1771" y="463.092">stop</text><path d="M465.3646,11.4583 L465.6565,11.4583 L464.7891,21.9002 L465.633,32.342 L465.9197,42.7839 L464.3738,53.2257 L465.2566,63.6676 L464.7722,74.1094 L464.8319,84.5513 L465.2699,94.9931 L464.4043,105.435 L466.1335,115.8768 L464.4892,126.3187 L465.0899,136.7605 L465.9645,147.2024 L465.2454,157.6442 L465.4594,168.0861 L465.3202,178.5279 L465.6125,188.9698 L465.6967,199.4116 L466.178,209.8535 L466.2966,220.2953 L466.308,230.7372 L465.7182,241.179 L466.0085,251.6209 L466.3399,262.0627 L464.3629,272.5046 L466.307,282.9464 L464.9528,293.3883 L466.106,303.8301 L464.6771,314.272 L465.2694,324.7138 L466.3946,335.1557 L465.2969,345.5975 L465.5108,356.0394 L465.8349,366.4812 L465.9427,376.9231 L465.3592,387.3649 L465.7635,397.8068 L464.5696,408.2486 L465.7596,418.6905 L466.126,429.1323 L465.982,439.5742 L466.216,450.016 L464.6936,460.4579 L464.4588,470.8997 L465.3646,481.3416 " fill="none" style="stroke:#0060A8;stroke-width:2.0833333333333335;"/><path d="M558.0729,11.4583 L558.3648,11.4583 L557.4975,21.9002 L558.3414,32.342 L558.628,42.7839 L557.0821,53.2257 L557.965,63.6676 L557.4806,74.1094 L557.5403,84.5513 L557.9783,94.9931 L557.1127,105.435 L558.8419,115.8768 L557.1975,126.3187 L557.7982,136.7605 L558.6728,147.2024 L557.9538,157.6442 L558.1677,168.0861 L558.0285,178.5279 L558.3209,188.9698 L558.405,199.4116 L558.8864,209.8535 L559.0049,220.2953 L559.0163,230.7372 L558.4266,241.179 L558.7168,251.6209 L559.0482,262.0627 L557.0713,272.5046 L559.0153,282.9464 L557.6611,293.3883 L558.8143,303.8301 L557.3854,314.272 L557.9778,324.7138 L559.1029,335.1557 L558.0052,345.5975 L558.2192,356.0394 L558.5432,366.4812 L558.651,376.9231 L558.0675,387.3649 L558.4718,397.8068 L557.2779,408.2486 L558.4679,418.6905 L558.8343,429.1323 L558.6903,439.5742 L558.9243,450.016 L557.402,460.4579 L557.1671,470.8997 L558.0729,481.3416 " fill="none" style="stroke:#0060A8;stroke-width:2.0833333333333335;"/><path d="M71.875,176.825 L71.9723,176.825 L71.6832,180.9916 L71.9645,185.1583 L72.06,189.325 L71.5447,193.4916 L71.875,197.6583 " fill="#303030" style="stroke:#303030;stroke-width:1.5625;"/><polygon fill="#303030" points="67.7083,187.2416,67.7761,187.2687,68.4081,189.2715,69.4373,191.4332,70.3372,193.5432,70.8117,195.483,71.875,197.6583,71.8499,197.6483,72.5708,195.52,73.418,193.4422,74.353,191.3995,74.9854,189.2358,76.0417,187.2416,76.1776,187.3775,75.0536,187.9202,74.3264,188.8597,73.6477,189.8477,72.6873,190.5539,71.875,191.4083,71.8918,191.425,71.0338,190.5671,70.2522,189.7855,69.4337,188.967,68.6855,188.2188,67.7083,187.2416" style="stroke:#303030;stroke-width:1.0416666666666667;"/><path d="M101.8229,96.7458 L101.8229,96.8431 L95.8333,96.554 L89.8438,96.8353 L83.8542,96.9308 L77.8646,96.4155 L71.875,96.7458 " fill="#303030" style="stroke:#303030;stroke-width:1.5625;"/><path d="M71.875,96.7458 L71.9723,96.7458 L71.6832,103.4733 L71.9645,110.2008 L72.06,116.9283 L71.5447,123.6558 L71.875,130.3833 " fill="#303030" style="stroke:#303030;stroke-width:1.5625;"/><polygon fill="#303030" points="67.7083,119.9666,67.7761,119.9937,68.4081,121.9965,69.4373,124.1582,70.3372,126.2682,70.8117,128.208,71.875,130.3833,71.8499,130.3733,72.5708,128.245,73.418,126.1672,74.353,124.1245,74.9854,121.9608,76.0417,119.9666,76.1776,120.1026,75.0536,120.6452,74.3264,121.5847,73.6477,122.5727,72.6873,123.2789,71.875,124.1333,71.8918,124.1501,71.0338,123.2921,70.2522,122.5105,69.4337,121.692,68.6855,120.9438,67.7083,119.9666" style="stroke:#303030;stroke-width:1.0416666666666667;"/><path d="M71.875,244.0999 L71.9723,244.0999 L71.6832,248.6833 L71.9645,253.2666 L72.06,257.8499 L71.5447,262.4333 L71.875,267.0166 " fill="#303030" style="stroke:#303030;stroke-width:1.5625;"/><path d="M71.875,267.0166 L71.875,267.3085 L82.7604,266.4412 L93.6458,267.2851 L104.5313,267.5717 L115.4167,266.0258 L126.3021,267.0166 " fill="#303030" style="stroke:#303030;stroke-width:1.5625;"/><polygon fill="#303030" points="115.8854,262.8499,115.9125,262.9177,117.9153,263.5497,120.077,264.5789,122.187,265.4788,124.1268,265.9533,126.3021,267.0166,126.2921,266.9915,124.1638,267.7124,122.086,268.5596,120.0433,269.4946,117.8796,270.127,115.8854,271.1833,116.0213,271.3192,116.564,270.1952,117.5035,269.468,118.4915,268.7893,119.1977,267.8289,120.0521,267.0166,120.0688,267.0334,119.2109,266.1754,118.4292,265.3938,117.6108,264.5753,116.8626,263.8271,115.8854,262.8499" style="stroke:#303030;stroke-width:1.0416666666666667;"/><path d="M138.8021,63.1083 L138.8994,63.1083 L138.6103,67.275 L138.8916,71.4417 L138.9871,75.6083 L138.4718,79.775 L138.8021,83.9417 " fill="#303030" style="stroke:#303030;stroke-width:1.5625;"/><polygon fill="#303030" points="134.6354,73.525,134.7032,73.5521,135.3352,75.5549,136.3644,77.7166,137.2643,79.8265,137.7388,81.7663,138.8021,83.9417,138.777,83.9316,139.4979,81.8033,140.3451,79.7255,141.2801,77.6829,141.9125,75.5192,142.9688,73.525,143.1047,73.6609,141.9807,74.2036,141.2535,75.1431,140.5748,76.131,139.6144,76.8373,138.8021,77.6917,138.8188,77.7084,137.9609,76.8505,137.1792,76.0688,136.3608,75.2504,135.6126,74.5021,134.6354,73.525" style="stroke:#303030;stroke-width:1.0416666666666667;"/><path d="M304.4271,176.825 L304.5244,176.825 L304.2353,180.9916 L304.5166,185.1583 L304.6121,189.325 L304.0968,193.4916 L304.4271,197.6583 " fill="#303030" style="stroke:#303030;stroke-width:1.5625;"/><polygon fill="#303030" points="300.2604,187.2416,300.3282,187.2687,300.9602,189.2715,301.9894,191.4332,302.8893,193.5432,303.3638,195.483,304.4271,197.6583,304.402,197.6483,305.1229,195.52,305.9701,193.4422,306.9051,191.3995,307.5375,189.2358,308.5938,187.2416,308.7297,187.3775,307.6057,187.9202,306.8785,188.8597,306.1998,189.8477,305.2394,190.5539,304.4271,191.4083,304.4438,191.425,303.5859,190.5671,302.8042,189.7855,301.9858,188.967,301.2376,188.2188,300.2604,187.2416" style="stroke:#303030;stroke-width:1.0416666666666667;"/><path d="M420.0521,346.7916 L420.1494,346.7916 L419.8603,350.9583 L420.1416,355.1249 L420.2371,359.2916 L419.7218,363.4583 L420.0521,367.6249 " fill="#303030" style="stroke:#303030;stroke-width:1.5625;"/><polygon fill="#303030" points="415.8854,357.2083,415.9532,357.2354,416.5852,359.2382,417.6144,361.3998,418.5143,363.5098,418.9888,365.4496,420.0521,367.6249,420.027,367.6149,420.7479,365.4866,421.5951,363.4088,422.5301,361.3661,423.1625,359.2024,424.2188,357.2083,424.3547,357.3442,423.2307,357.8868,422.5035,358.8264,421.8248,359.8143,420.8644,360.5205,420.0521,361.3749,420.0688,361.3917,419.2109,360.5337,418.4292,359.7521,417.6108,358.9336,416.8626,358.1854,415.8854,357.2083" style="stroke:#303030;stroke-width:1.0416666666666667;"/><path d="M175.7813,96.7458 L175.7813,97.0377 L186.5017,96.1704 L197.2222,97.0143 L207.9427,97.3009 L218.6632,95.755 L229.3837,96.6379 L240.1042,96.1535 L250.8247,96.2132 L261.5451,96.6511 L272.2656,95.7856 L282.9861,97.5148 L293.7066,95.8704 L304.4271,96.7458 " fill="#303030" style="stroke:#303030;stroke-width:1.5625;"/><path d="M304.4271,96.7458 L304.5244,96.7458 L304.2353,103.4733 L304.5166,110.2008 L304.6121,116.9283 L304.0968,123.6558 L304.4271,130.3833 " fill="#303030" style="stroke:#303030;stroke-width:1.5625;"/><polygon fill="#303030" points="300.2604,119.9666,300.3282,119.9937,300.9602,121.9965,301.9894,124.1582,302.8893,126.2682,303.3638,128.208,304.4271,130.3833,304.402,130.3733,305.1229,128.245,305.9701,126.1672,306.9051,124.1245,307.5375,121.9608,308.5938,119.9666,308.7297,120.1026,307.6057,120.6452,306.8785,121.5847,306.1998,122.5727,305.2394,123.2789,304.4271,124.1333,304.4438,124.1501,303.5859,123.2921,302.8042,122.5105,301.9858,121.692,301.2376,120.9438,300.2604,119.9666" style="stroke:#303030;stroke-width:1.0416666666666667;"/><path d="M304.4271,244.0999 L304.5244,244.0999 L304.2353,248.6833 L304.5166,253.2666 L304.6121,257.8499 L304.0968,262.4333 L304.4271,267.0166 " fill="#303030" style="stroke:#303030;stroke-width:1.5625;"/><path d="M304.4271,267.0166 L304.4271,267.3085 L294.2188,266.4412 L284.0104,267.2851 L273.8021,267.5717 L263.5938,266.0258 L253.3854,266.9087 L243.1771,266.4242 L232.9688,266.484 L222.7604,266.9219 L212.5521,266.0564 L202.3438,267.7855 L192.1354,266.1412 L181.9271,266.7419 L171.7188,267.6165 L161.5104,266.8975 L151.3021,267.0166 " fill="#303030" style="stroke:#303030;stroke-width:1.5625;"/><polygon fill="#303030" points="161.7188,262.8499,161.7459,262.9177,159.582,263.5497,157.577,264.5789,155.5203,265.4788,153.2934,265.9533,151.3021,267.0166,151.2921,266.9915,153.3304,267.7124,155.4193,268.5596,157.5433,269.4946,159.5463,270.127,161.7188,271.1833,161.8547,271.3192,160.7307,270.1952,160.0035,269.468,159.3248,268.7893,158.3644,267.8289,157.5521,267.0166,157.5688,267.0334,158.3776,266.1754,159.2626,265.3938,160.1108,264.5753,161.0292,263.8271,161.7188,262.8499" style="stroke:#303030;stroke-width:1.0416666666666667;"/><path d="M138.8021,279.5166 L138.8994,279.5166 L138.6103,280.5583 L138.8916,281.5999 L138.9871,282.6416 L138.4718,283.6833 L138.8021,284.7249 " fill="#303030" style="stroke:#303030;stroke-width:1.5625;"/><path d="M138.8021,284.7249 L138.8021,285.0169 L149.2188,284.1495 L159.6354,284.9934 L170.0521,285.28 L180.4688,283.7341 L190.8854,284.617 L201.3021,284.1326 L211.7188,284.1923 L222.1354,284.6303 L232.5521,283.7647 L242.9688,285.4939 L253.3854,283.8495 L263.8021,284.4503 L274.2188,285.3249 L284.6354,284.6058 L295.0521,284.8197 L305.4688,284.6806 L315.8854,284.9729 L326.3021,285.0571 L336.7188,285.5384 L347.1354,285.657 L357.5521,285.6683 L367.9688,285.0786 L378.3854,285.3688 L388.8021,285.7003 L399.2188,283.7233 L409.6354,285.6673 L420.0521,284.7249 " fill="#303030" style="stroke:#303030;stroke-width:1.5625;"/><path d="M420.0521,284.7249 L420.1494,284.7249 L419.8603,287.8499 L420.1416,290.9749 L420.2371,294.0999 L419.7218,297.2249 L420.0521,300.3499 " fill="#303030" style="stroke:#303030;stroke-width:1.5625;"/><polygon fill="#303030" points="415.8854,289.9333,415.9532,289.9604,416.5852,291.9632,417.6144,294.1249,418.5143,296.2348,418.9888,298.1746,420.0521,300.3499,420.027,300.3399,420.7479,298.2116,421.5951,296.1338,422.5301,294.0911,423.1625,291.9274,424.2188,289.9333,424.3547,290.0692,423.2307,290.6119,422.5035,291.5514,421.8248,292.5393,420.8644,293.2455,420.0521,294.0999,420.0688,294.1167,419.2109,293.2588,418.4292,292.4771,417.6108,291.6586,416.8626,290.9104,415.8854,289.9333" style="stroke:#303030;stroke-width:1.0416666666666667;"/><path d="M420.0521,414.0666 L420.1494,414.0666 L419.8603,415.1082 L420.1416,416.1499 L420.2371,417.1916 L419.7218,418.2332 L420.0521,419.2749 " fill="#303030" style="stroke:#303030;stroke-width:1.5625;"/><path d="M420.0521,419.2749 L420.0521,419.5668 L430.353,418.6995 L440.6539,419.5434 L450.9549,419.83 L461.2558,418.2841 L471.5567,419.167 L481.8576,418.6825 L492.1586,418.7423 L502.4595,419.1802 L512.7604,419.2749 " fill="#303030" style="stroke:#303030;stroke-width:1.5625;"/><path d="M512.7604,419.2749 L512.8577,419.2749 L512.5686,422.3999 L512.8499,425.5249 L512.9455,428.6499 L512.4301,431.7749 L512.7604,434.8999 " fill="#303030" style="stroke:#303030;stroke-width:1.5625;"/><polygon fill="#303030" points="508.5938,424.4832,508.6615,424.5103,509.2935,426.5131,510.3227,428.6748,511.2226,430.7848,511.6971,432.7246,512.7604,434.8999,512.7354,434.8899,513.4563,432.7616,514.3034,430.6838,515.2384,428.6411,515.8709,426.4774,516.9271,424.4832,517.063,424.6192,515.939,425.1618,515.2119,426.1013,514.5331,427.0893,513.5727,427.7955,512.7604,428.6499,512.7772,428.6667,511.9192,427.8087,511.1376,427.0271,510.3191,426.2086,509.5709,425.4604,508.5938,424.4832" style="stroke:#303030;stroke-width:1.0416666666666667;"/><text fill="#303030" font-family="Verdana" font-size="12.5" lengthAdjust="spacing" textLength="92.7083" x="78.5156" y="29.2338">Actor_For_red</text><text fill="#303030" font-family="Verdana" font-size="12.5" lengthAdjust="spacing" textLength="117.7083" x="244.5313" y="29.2338">Actor_For_no_red</text><text fill="#303030" font-family="Verdana" font-size="12.5" lengthAdjust="spacing" textLength="71.875" x="383.0729" y="29.2338">Next_Actor</text><text fill="#303030" font-family="Verdana" font-size="12.5" lengthAdjust="spacing" textLength="71.875" x="475.7813" y="29.2338">Final_Actor</text><!--MD5=[9c8b8e9c6a079803b5fda4c30d5e9a76]
@startuml

!$THEME = "sketchy-outline"

!if %not(%variable_exists("$BGCOLOR"))
!$BGCOLOR = "transparent"
!endif

skinparam backgroundColor $BGCOLOR
skinparam useBetaStyle false
skinparam handwritten true
skinparam shadowing false

!$BLUE = "#007bff"
!$INDIGO = "#6610f2"
!$PURPLE = "#6f42c1"
!$PINK = "#e83e8c"
!$RED = "#dc3545"
!$ORANGE = "#fd7e14"
!$YELLOW = "#ffc107"
!$GREEN = "#28a745"
!$TEAL = "#20c997"
!$CYAN = "#17a2b8"
!$WHITE = "#ffffff"
!$GRAY = "#868e96"
!$GRAYDARK = "#333333"
!$PRIMARY = "#333333"
!$SECONDARY = "#555555"
!$SUCCESS = "#28a745"
!$INFO = "#17a2b8"
!$WARNING = "#ffc107"
!$DANGER = "#dc3545"
!$LIGHT = "#ffffff"
!$DARK = "#555555"

!$FGCOLOR = $WHITE
!$PRIMARY_DARK = "#2e2e2e"
!$PRIMARY_LIGHT = "#474747"
!$PRIMARY_TEXT = "#2e2e2e"
!$SECONDARY_DARK = "#4d4d4d"
!$SECONDARY_LIGHT = "#666666"
!$SECONDARY_TEXT = $WHITE
!$INFO_DARK = "#1592a6"
!$INFO_LIGHT = "#2eabbf"
!$INFO_TEXT = $WHITE
!$SUCCESS_DARK = "#24963e"
!$SUCCESS_LIGHT = "#3eb058"
!$SUCCESS_TEXT = $WHITE
!$WARNING_DARK = "#e6ae06"
!$WARNING_LIGHT = "#ffc720"
!$WARNING_TEXT = $WHITE
!$DANGER_DARK = "#c6303e"
!$DANGER_LIGHT = "#e04958"
!$DANGER_TEXT = $WHITE
!$DARK_DARK = "#4d4d4d"
!$DARK_LIGHT = "#666666"
!$LIGHT_DARK = "#e6e6e6"
!$LIGHT_LIGHT = "#ffffff"

!procedure $success($msg)
  <font color=$SUCCESS><b>$msg
!endprocedure

!procedure $failure($msg)
  <font color=$DANGER><b>$msg
!endprocedure

!procedure $warning($msg)
  <font color=$WARNING><b>$msg
!endprocedure

!procedure $primary_scheme()
	FontColor $PRIMARY_TEXT
	BorderColor $PRIMARY
	BackgroundColor $BGCOLOR
!endprocedure

skinparam defaultFontName       "Segoe Print"
skinparam defaultFontSize       12
skinparam dpi                   100
skinparam shadowing             false
skinparam roundcorner           8
skinparam ParticipantPadding    40
skinparam BoxPadding            40
skinparam Padding               5
skinparam ArrowColor            $DARK
skinparam stereotype {
    CBackgroundColor $BGCOLOR
    CBorderColor $SECONDARY_DARK
    ABackgroundColor $BGCOLOR
    ABorderColor $SUCCESS_DARK
    IBackgroundColor $BGCOLOR
    IBorderColor $DANGER_DARK
    EBackgroundColor $BGCOLOR
    EBorderColor $WARNING_DARK
    NBackgroundColor $BGCOLOR
    NBorderColor $INFO_DARK
}
skinparam title {
	FontColor	                 $PRIMARY_TEXT
	BorderColor	                 $SECONDARY_DARK
	FontSize	    	         20
	BorderRoundCorner            8
	BorderThickness 	         1
	BackgroundColor              $BGCOLOR
}

skinparam legend {
	BackgroundColor $BGCOLOR
	BorderColor $SECONDARY_DARK
	FontColor $PRIMARY_TEXT
}

!startsub swimlane
skinparam swimlane {
	BorderColor $INFO
	BorderThickness 2
	TitleBackgroundColor  $BGCOLOR
	TitleFontColor $PRIMARY_TEXT
}
!endsub

!startsub activity

skinparam activity {
	$primary_scheme()
	BarColor $SUCCESS
	StartColor $INFO
	EndColor $INFO
	DiamondBackgroundColor $BGCOLOR
  	DiamondBorderColor $SECONDARY_DARK
  	DiamondFontColor $PRIMARY_TEXT
}
!endsub

!startsub participant

skinparam participant {
	$primary_scheme()
	ParticipantBorderThickness 2
}
!endsub

!startsub actor

skinparam actor {
	$primary_scheme()
}
!endsub

!startsub arrow

skinparam arrow {
	Thickness 3
	Color $PRIMARY
	FontColor $PRIMARY_TEXT
}
!endsub

!startsub sequence

skinparam sequence {
	BorderColor $PRIMARY
	TitleFontColor $PRIMARY_TEXT
	BackgroundColor $BGCOLOR
	StartColor $PRIMARY
	EndColor $PRIMARY
	BoxBackgroundColor $BGCOLOR
	BoxBorderColor $DARK
	BoxFontColor $DARK
	LifeLineBorderColor $SECONDARY
	LifeLineBorderThickness 2
	LifeLineBackgroundColor $SECONDARY_DARK
	GroupBorderColor $DARK
	GroupFontColor $DARK
	GroupHeaderFontColor $INFO
	GroupBackgroundColor $SECONDARY
	GroupHeaderBackgroundColor $BGCOLOR
	DividerBackgroundColor $DARK
    DividerBorderColor $DARK
    DividerBorderThickness 2
    DividerFontColor $LIGHT
	ReferenceBackgroundColor $BGCOLOR
	ReferenceBorderColor $DARK
	ReferenceFontColor $DARK
	ReferenceHeaderFontColor $INFO
	ReferenceHeaderBackgroundColor $SECONDARY
}
!endsub

!startsub partition

skinparam partition {
	BorderColor $PRIMARY
	FontColor $PRIMARY
	BackgroundColor $BGCOLOR
}
!endsub

!startsub collections

skinparam collections {
	$primary_scheme()
}
!endsub

!startsub control

skinparam control {
	$primary_scheme()
}
!endsub

!startsub entity

skinparam entity {
	$primary_scheme()
}
!endsub

!startsub boundary

skinparam boundary {
	$primary_scheme()
}
!endsub

!startsub agent

skinparam agent {
	BackgroundColor $WARNING
	BorderColor $WARNING_LIGHT
	FontColor $DARK
}
!endsub

!startsub note

skinparam note {
	BorderThickness 1
	BackgroundColor $INFO
	BorderColor $INFO_DARK
	FontColor $WHITE
}
!endsub

!startsub artifact

skinparam artifact {
	BackgroundColor $BGCOLOR
	BorderColor $DARK_DARK
	FontColor $DARK_DARK
}
!endsub

!startsub component

skinparam component {
	$primary_scheme()
}
!endsub

!startsub interface

skinparam interface {
	BackgroundColor  $BGCOLOR
	BorderColor  $DANGER
	FontColor $DARK
}
!endsub

!startsub storage

skinparam storage {
	BackgroundColor $BGCOLOR
  	BorderColor $WARNING_DARK
	FontColor $WARNING_DARK
}
!endsub

!startsub node

skinparam node {
	BackgroundColor  $BGCOLOR
	BorderColor $LIGHT
	FontColor $LIGHT
}
!endsub

!startsub cloud

skinparam cloud {
	BackgroundColor $BGCOLOR
	BorderColor #F2FCFE
	FontColor $PRIMARY_TEXT
}
!endsub

!startsub database

skinparam database {
	$primary_scheme()
}
!endsub

!startsub class

skinparam class {
	$primary_scheme()
	HeaderBackgroundColor $BGCOLOR
	StereotypeFontColor $DARK
	BorderThickness 1
	AttributeFontColor $DARK
	AttributeFontSize 11
}
!endsub

!startsub object

skinparam object {
	$primary_scheme()
	StereotypeFontColor $PRIMARY_TEXT
	BorderThickness 1
	AttributeFontColor $PRIMARY_TEXT
	AttributeFontSize 11
}
!endsub

!startsub usecase

skinparam usecase {
	$primary_scheme()
	BorderThickness 2
	StereotypeFontColor $PRIMARY
}
!endsub

!startsub rectangle

skinparam rectangle {
	$primary_scheme()
	BorderThickness 2
	StereotypeFontColor $PRIMARY
}
!endsub

!startsub package

skinparam package {
	BackgroundColor $BGCOLOR
  	BorderColor $PRIMARY
	FontColor $PRIMARY
	BorderThickness 2
}
!endsub

!startsub folder

skinparam folder {
	BackgroundColor $BGCOLOR
  	BorderColor $WARNING
	FontColor $WARNING
	BorderThickness 2
}
!endsub

!startsub frame

skinparam frame {
	BackgroundColor $BGCOLOR
  	BorderColor $INFO
	FontColor $INFO
	BorderThickness 2
}
!endsub

!startsub state

skinparam state {
	$primary_scheme()
	StartColor $INFO
	EndColor $INFO
	AttributeFontColor $SECONDARY_TEXT
	AttributeFontSize 11
}
!endsub

!startsub queue

skinparam queue {
	$primary_scheme()
}
!endsub

!startsub card

skinparam card {
	BackgroundColor $BGCOLOR
	BorderColor $INFO_DARK
	FontColor $INFO_DARK
}
!endsub

!startsub file

skinparam file {
	BackgroundColor $BGCOLOR
	BorderColor $LIGHT
	FontColor $LIGHT
}
!endsub

!startsub stack

skinparam stack {
	$primary_scheme()
}
!endsub
!include https://raw.githubusercontent.com/bschwarz/puml-themes/master/themes/black-knight/puml-theme-black-knight.puml

|Actor_For_red|
start
if (color?) is (red) then
$DANGER:**action red**;
:foo1;
else (not red)
|Actor_For_no_red|
$SUCCESS:**action not red**;
:foo2;
endif
|Next_Actor|
$INFO:foo3;
:foo4;
|Final_Actor|
$WARNING:stop;
@enduml

@startuml



skinparam backgroundColor transparent
skinparam useBetaStyle false
skinparam handwritten true
skinparam shadowing false







skinparam defaultFontName       "Segoe Print"
skinparam defaultFontSize       12
skinparam dpi                   100
skinparam shadowing             false
skinparam roundcorner           8
skinparam ParticipantPadding    40
skinparam BoxPadding            40
skinparam Padding               5
skinparam ArrowColor            #555555
skinparam stereotype {
    CBackgroundColor transparent
    CBorderColor #4d4d4d
    ABackgroundColor transparent
    ABorderColor #24963e
    IBackgroundColor transparent
    IBorderColor #c6303e
    EBackgroundColor transparent
    EBorderColor #e6ae06
    NBackgroundColor transparent
    NBorderColor #1592a6
}
skinparam title {
	FontColor	                 #2e2e2e
	BorderColor	                 #4d4d4d
	FontSize	    	         20
	BorderRoundCorner            8
	BorderThickness 	         1
	BackgroundColor              transparent
}

skinparam legend {
	BackgroundColor transparent
	BorderColor #4d4d4d
	FontColor #2e2e2e
}

skinparam swimlane {
	BorderColor #17a2b8
	BorderThickness 2
	TitleBackgroundColor  transparent
	TitleFontColor #2e2e2e
}


skinparam activity {
		FontColor #2e2e2e
	BorderColor #333333
	BackgroundColor transparent
	BarColor #28a745
	StartColor #17a2b8
	EndColor #17a2b8
	DiamondBackgroundColor transparent
  	DiamondBorderColor #4d4d4d
  	DiamondFontColor #2e2e2e
}


skinparam participant {
		FontColor #2e2e2e
	BorderColor #333333
	BackgroundColor transparent
	ParticipantBorderThickness 2
}


skinparam actor {
		FontColor #2e2e2e
	BorderColor #333333
	BackgroundColor transparent
}


skinparam arrow {
	Thickness 3
	Color #333333
	FontColor #2e2e2e
}


skinparam sequence {
	BorderColor #333333
	TitleFontColor #2e2e2e
	BackgroundColor transparent
	StartColor #333333
	EndColor #333333
	BoxBackgroundColor transparent
	BoxBorderColor #555555
	BoxFontColor #555555
	LifeLineBorderColor #555555
	LifeLineBorderThickness 2
	LifeLineBackgroundColor #4d4d4d
	GroupBorderColor #555555
	GroupFontColor #555555
	GroupHeaderFontColor #17a2b8
	GroupBackgroundColor #555555
	GroupHeaderBackgroundColor transparent
	DividerBackgroundColor #555555
    DividerBorderColor #555555
    DividerBorderThickness 2
    DividerFontColor #ffffff
	ReferenceBackgroundColor transparent
	ReferenceBorderColor #555555
	ReferenceFontColor #555555
	ReferenceHeaderFontColor #17a2b8
	ReferenceHeaderBackgroundColor #555555
}


skinparam partition {
	BorderColor #333333
	FontColor #333333
	BackgroundColor transparent
}


skinparam collections {
		FontColor #2e2e2e
	BorderColor #333333
	BackgroundColor transparent
}


skinparam control {
		FontColor #2e2e2e
	BorderColor #333333
	BackgroundColor transparent
}


skinparam entity {
		FontColor #2e2e2e
	BorderColor #333333
	BackgroundColor transparent
}


skinparam boundary {
		FontColor #2e2e2e
	BorderColor #333333
	BackgroundColor transparent
}


skinparam agent {
	BackgroundColor #ffc107
	BorderColor #ffc720
	FontColor #555555
}


skinparam note {
	BorderThickness 1
	BackgroundColor #17a2b8
	BorderColor #1592a6
	FontColor #ffffff
}


skinparam artifact {
	BackgroundColor transparent
	BorderColor #4d4d4d
	FontColor #4d4d4d
}


skinparam component {
		FontColor #2e2e2e
	BorderColor #333333
	BackgroundColor transparent
}


skinparam interface {
	BackgroundColor  transparent
	BorderColor  #dc3545
	FontColor #555555
}


skinparam storage {
	BackgroundColor transparent
  	BorderColor #e6ae06
	FontColor #e6ae06
}


skinparam node {
	BackgroundColor  transparent
	BorderColor #ffffff
	FontColor #ffffff
}


skinparam cloud {
	BackgroundColor transparent
	BorderColor #F2FCFE
	FontColor #2e2e2e
}


skinparam database {
		FontColor #2e2e2e
	BorderColor #333333
	BackgroundColor transparent
}


skinparam class {
		FontColor #2e2e2e
	BorderColor #333333
	BackgroundColor transparent
	HeaderBackgroundColor transparent
	StereotypeFontColor #555555
	BorderThickness 1
	AttributeFontColor #555555
	AttributeFontSize 11
}


skinparam object {
		FontColor #2e2e2e
	BorderColor #333333
	BackgroundColor transparent
	StereotypeFontColor #2e2e2e
	BorderThickness 1
	AttributeFontColor #2e2e2e
	AttributeFontSize 11
}


skinparam usecase {
		FontColor #2e2e2e
	BorderColor #333333
	BackgroundColor transparent
	BorderThickness 2
	StereotypeFontColor #333333
}


skinparam rectangle {
		FontColor #2e2e2e
	BorderColor #333333
	BackgroundColor transparent
	BorderThickness 2
	StereotypeFontColor #333333
}


skinparam package {
	BackgroundColor transparent
  	BorderColor #333333
	FontColor #333333
	BorderThickness 2
}


skinparam folder {
	BackgroundColor transparent
  	BorderColor #ffc107
	FontColor #ffc107
	BorderThickness 2
}


skinparam frame {
	BackgroundColor transparent
  	BorderColor #17a2b8
	FontColor #17a2b8
	BorderThickness 2
}


skinparam state {
		FontColor #2e2e2e
	BorderColor #333333
	BackgroundColor transparent
	StartColor #17a2b8
	EndColor #17a2b8
	AttributeFontColor #ffffff
	AttributeFontSize 11
}


skinparam queue {
		FontColor #2e2e2e
	BorderColor #333333
	BackgroundColor transparent
}


skinparam card {
	BackgroundColor transparent
	BorderColor #1592a6
	FontColor #1592a6
}


skinparam file {
	BackgroundColor transparent
	BorderColor #ffffff
	FontColor #ffffff
}


skinparam stack {
		FontColor #2e2e2e
	BorderColor #333333
	BackgroundColor transparent
}



skinparam backgroundColor transparent
skinparam useBetaStyle false






skinparam  {
    defaultFontName   "Verdana"
    defaultFontSize   12
    defaultTextAlignment center
    shadowing false
    RoundCorner 10
    TitleFontSize 18
}

skinparam defaultFontName       "Verdana"
skinparam defaultFontSize       12
skinparam dpi                   100
skinparam shadowing             false
skinparam roundcorner           8
skinparam ParticipantPadding    40
skinparam BoxPadding            40
skinparam Padding               5
skinparam ArrowColor            #484848
skinparam stereotype {
    CBackgroundColor #3a3a3a
    CBorderColor #6d6d6d
    ABackgroundColor #33ff33
    ABorderColor #00cc00
    IBackgroundColor #ff3333
    IBorderColor #cc0000
    EBackgroundColor #ff9933
    EBorderColor #cc6600
    NBackgroundColor #3380b9
    NBorderColor #004d86
}
skinparam title {
	FontColor	                 #fefefe
	BorderColor	                 #3a3a3a
	FontSize	    	         20
	BorderRoundCorner            8
	BorderThickness 	         1
	BackgroundColor              #6d6d6d-#484848
}


skinparam legend {
	BackgroundColor #303030
	BorderColor #262626
	FontColor #fff200
}

	skinparam swimlane {
	BorderColor #0060a8
	BorderThickness 2
	TitleBackgroundColor  #6d6d6d-#484848
	TitleFontColor #303030
}

skinparam activity {
		FontColor #fff200
	BorderColor #262626
	BackgroundColor #595959-#262626
	BarColor #00FF00
	StartColor #0060a8
	EndColor #0060a8
	DiamondBackgroundColor #6d6d6d-#3a3a3a
  	DiamondBorderColor #3a3a3a
  	DiamondFontColor #fefefe
}


skinparam participant {
		FontColor #fff200
	BorderColor #262626
	BackgroundColor #595959-#262626
	ParticipantBorderThickness 2
}


skinparam actor {
		FontColor #fff200
	BorderColor #262626
	BackgroundColor #595959-#262626
}


skinparam arrow {
	Thickness 3
	Color #303030
	FontColor #ffffff
}



skinparam sequence {
	BorderColor #303030
	TitleFontColor #303030
	BackgroundColor transparent
	StartColor #303030
	EndColor #303030
	BoxBackgroundColor transparent
	BoxBorderColor #484848
	BoxFontColor #484848
	LifeLineBorderColor #484848
	LifeLineBorderThickness 2
	LifeLineBackgroundColor #3a3a3a
	GroupBorderColor #484848
	GroupFontColor #484848
	GroupHeaderFontColor #0060a8
	GroupBackgroundColor #484848
	GroupHeaderBackgroundColor transparent
	DividerBackgroundColor #484848
    DividerBorderColor #484848
    DividerBorderThickness 2
    DividerFontColor #fff200
	ReferenceBackgroundColor transparent
	ReferenceBorderColor #484848
	ReferenceFontColor #fefefe
	ReferenceHeaderBackgroundColor #484848
}


skinparam partition {
	BorderColor #303030
	FontColor #595959
	BackgroundColor transparent
}


skinparam collections {
		FontColor #fff200
	BorderColor #262626
	BackgroundColor #595959-#262626
}


skinparam control {
		FontColor #fff200
	BorderColor #262626
	BackgroundColor #595959-#262626
}


skinparam entity {
		FontColor #fff200
	BorderColor #262626
	BackgroundColor #595959-#262626
}


skinparam boundary {
		FontColor #fff200
	BorderColor #262626
	BackgroundColor #595959-#262626
}


skinparam agent {
	BackgroundColor #ff8000
	BorderColor #ff9933
	FontColor #484848
}


skinparam note {
	BorderThickness 1
	BackgroundColor #0060a8
	BorderColor #004d86
	FontColor #ffffff
}


skinparam artifact {
	BackgroundColor #484848
	BorderColor #4d4d4d
	FontColor #fff200
}


skinparam component {
		FontColor #fff200
	BorderColor #262626
	BackgroundColor #595959-#262626
}


skinparam interface {
	BackgroundColor  #cc0000
	BorderColor  #ff0000
	FontColor #484848
}


skinparam storage {
	BackgroundColor #ff8000
  	BorderColor #cc6600
	FontColor #222222
}


skinparam node {
	BackgroundColor transparent
	BorderColor #595959
	FontColor #fff200
}


skinparam cloud {
	BackgroundColor #484848-black
	BorderColor #484848
	FontColor #fff200
}


skinparam database {
		FontColor #fff200
	BorderColor #262626
	BackgroundColor #595959-#262626
	BackgroundColor  transparent
}


skinparam class {
		FontColor #fff200
	BorderColor #262626
	BackgroundColor #595959-#262626
	HeaderBackgroundColor #595959
	StereotypeFontColor #484848
	BorderThickness 1
	AttributeFontColor #fff200
	AttributeFontSize 11
}


skinparam object {
		FontColor #fff200
	BorderColor #262626
	BackgroundColor #595959-#262626
	StereotypeFontColor #484848
	BorderThickness 1
	AttributeFontColor #fefefe
	AttributeFontSize 11
}


skinparam usecase {
		FontColor #fff200
	BorderColor #262626
	BackgroundColor #595959-#262626
	BorderThickness 2
	StereotypeFontColor #303030
}


skinparam rectangle {
		FontColor #fff200
	BorderColor #262626
	BackgroundColor #595959-#262626
	BackgroundColor transparent
	BorderThickness 2
	StereotypeFontColor #303030
}


skinparam package {
		FontColor #fff200
	BorderColor #262626
	BackgroundColor #595959-#262626
	BackgroundColor transparent
	BorderThickness 2
}


skinparam folder {
	BackgroundColor #6d6d6d
  	BorderColor #ff8000
	FontColor #ff8000
	BorderThickness 2
}


skinparam frame {
	BackgroundColor #6d6d6d
  	BorderColor #0060a8
	FontColor #0060a8
	BorderThickness 2
}


skinparam state {
		FontColor #fff200
	BorderColor #262626
	BackgroundColor #595959-#262626
	StartColor #0060a8
	EndColor #0060a8
	AttributeFontColor #fefefe
	AttributeFontSize 11
}


skinparam queue {
		FontColor #fff200
	BorderColor #262626
	BackgroundColor #595959-#262626
}


skinparam card {
	BackgroundColor #0060a8
	BorderColor #004d86
	FontColor #ffffff
}


skinparam file {
	BackgroundColor #6d6d6d-#484848
	BorderColor #0060a8
	FontColor #fefefe
}


skinparam stack {
		FontColor #fff200
	BorderColor #262626
	BackgroundColor #595959-#262626
}


|Actor_For_red|
start
if (color?) is (red) then
#ff0000:**action red**;
:foo1;
else (not red)
|Actor_For_no_red|
#00FF00:**action not red**;
:foo2;
endif
|Next_Actor|
#0060a8:foo3;
:foo4;
|Final_Actor|
#ff8000:stop;
@enduml

PlantUML version 1.2021.01(Mon Feb 01 23:55:08 PST 2021)
(GPL source distribution)
Java Runtime: OpenJDK Runtime Environment
JVM: OpenJDK 64-Bit Server VM
Default Encoding: UTF-8
Language: en
Country: US
--></g></svg>