<?xml version="1.0" encoding="UTF-8" standalone="no"?><svg xmlns="http://www.w3.org/2000/svg" xmlns:xlink="http://www.w3.org/1999/xlink" contentScriptType="application/ecmascript" contentStyleType="text/css" height="512.5px" preserveAspectRatio="none" style="width:793px;height:512px;background:#00000000;" version="1.1" viewBox="0 0 793 512" width="793.75px" zoomAndPan="magnify"><defs/><g><polygon points="111.9792,12.5,111.9792,12.7189,122.2976,12.0684,132.616,12.7013,142.9344,12.9163,153.2528,11.7569,163.5711,12.419,173.8895,12.0557,184.2079,12.1005,194.5263,12.429,204.8447,11.7798,215.1631,13.0767,225.4815,11.8435,235.7999,12.294,246.1183,12.9499,256.4367,12.4106,266.7551,12.5711,277.0735,12.4667,287.3919,12.686,297.7103,12.7491,308.0287,13.1101,318.3471,13.199,328.6655,13.2076,338.9839,12.7652,349.3023,12.9829,359.6207,13.2315,369.9391,11.7488,380.2575,13.2068,390.5759,12.1911,400.8943,13.0561,411.2127,11.9844,421.5311,12.4286,431.8494,13.2725,442.1678,12.4492,452.4862,12.6097,462.8046,12.8527,473.123,12.9336,483.4414,12.4959,493.7598,12.7992,504.0782,11.9037,514.3966,12.7962,524.715,13.071,535.0334,12.9631,545.3518,13.1386,555.6702,11.9968,565.9886,11.8206,576.307,11.8527,586.6254,12.4387,596.9438,12.2953,607.2622,13.2098,617.5806,12.318,627.899,12.1427,638.2174,12.7378,648.5358,11.8054,658.8542,12.5,658.7852,12.3335,659.5297,12.9523,660.0906,13.1279,660.7195,13.4679,661.1684,13.3731,661.8004,13.7204,661.9028,13.7628,662.2339,14.3881,662.1371,14.8361,662.5019,15.4754,662.8172,16.0942,663.0208,16.6667,663.2471,16.6667,663.0194,24.0169,663.1814,31.3672,662.8285,38.7174,662.7857,46.0677,663.0208,53.418,663.1824,53.4849,662.5468,53.912,662.6959,54.6641,662.3549,55.2132,661.9586,55.7394,661.8004,56.3642,661.7534,56.2508,661.2721,56.7555,660.5822,56.7564,660.1113,57.2863,659.37,57.1632,658.8542,57.5846,658.8542,58.2278,648.5358,58.0891,638.2174,57.8398,627.899,57.6338,617.5806,58.3415,607.2622,58.2238,596.9438,57.7609,586.6254,57.864,576.307,57.4489,565.9886,58.3309,555.6702,57.746,545.3518,57.7644,535.0334,56.9509,524.715,57.1625,514.3966,58.1375,504.0782,58.0323,493.7598,57.5399,483.4414,57.249,473.123,57.3566,462.8046,56.8699,452.4862,58.0167,442.1678,58.355,431.8494,58.133,421.5311,58.3085,411.2127,57.4422,400.8943,57.6755,390.5759,57.1809,380.2575,57.8805,369.9391,57.8417,359.6207,58.16,349.3023,57.3454,338.9839,57.4446,328.6655,58.0466,318.3471,58.1756,308.0287,57.0507,297.7103,57.3827,287.3919,57.7401,277.0735,56.9483,266.7551,57.9528,256.4367,57.8534,246.1183,57.4797,235.7999,57.7328,225.4815,58.3437,215.1631,57.2587,204.8447,57.9127,194.5263,57.8822,184.2079,57.7052,173.8895,57.7314,163.5711,57.7028,153.2528,56.9345,142.9344,57.1671,132.616,57.1039,122.2976,57.6511,111.9792,57.5846,111.9909,57.6129,111.4114,57.3924,110.762,57.0031,110.2024,56.8307,109.6062,56.5698,109.0329,56.3642,109.2179,56.4409,108.9256,55.8317,108.389,55.1212,108.2773,54.5868,107.8714,53.9305,107.8125,53.418,107.9126,53.418,108.0238,46.0677,108.0016,38.7174,107.6613,31.3672,107.9736,24.0169,107.8125,16.6667,107.5742,16.568,108.1208,16.104,108.2046,15.4484,108.5758,14.9118,108.8659,14.3416,109.0329,13.7204,109.0956,13.8718,109.5265,13.2454,110.2746,13.3848,110.8243,13.0453,111.4371,12.8581,111.9792,12.5" style="stroke:#4D4D4D;stroke-width:1.0416666666666667;fill:none;"/><text fill="#2E2E2E" font-family="Segoe Print" font-size="20.8333" lengthAdjust="spacing" textLength="528.125" x="121.3542" y="42.2546">Work Breakdown Diagram - sketchy-outline theme</text><polygon points="357.8125,60.7096,357.8125,60.9286,369.0625,60.2781,380.3125,60.911,391.5625,61.126,402.8125,59.9665,414.0625,60.7096,414.0522,60.6847,415.8473,61.3356,417.6944,62.1121,419.5777,62.976,421.3363,63.5388,423.2696,64.5233,423.4472,64.5969,423.8302,66.281,424.7317,68.1799,425.6964,70.105,426.2931,71.8776,427.0833,73.7305,427.107,73.7305,427.0722,77.6823,427.1453,81.6341,427.1664,85.5859,427.2867,89.5378,427.0833,93.4896,427.2986,93.5788,426.5385,95.4213,425.6395,97.2063,424.9438,99.0755,424.2576,100.9486,423.2696,102.6967,423.1738,102.4654,421.5184,103.6771,419.5474,104.1271,417.8163,105.1562,415.8381,105.5889,414.0625,106.5104,414.0625,106.4391,402.8125,107.2829,391.5625,106.4597,380.3125,106.6201,369.0625,106.8632,357.8125,106.5104,357.8678,106.6439,355.9706,105.7464,354.1678,105.0771,352.2122,104.0386,350.4846,103.5507,348.6054,102.6967,348.7812,102.7695,347.9852,100.9143,347.2765,99.0953,346.1622,97.1082,345.3452,95.2443,344.7917,93.4896,344.5759,93.4896,344.7712,89.5378,344.7234,85.5859,345.0283,81.6341,344.731,77.6823,344.7917,73.7305,344.6816,73.6849,345.6276,71.9194,346.1032,69.959,346.9134,68.1372,348.0508,66.451,348.6054,64.5233,348.6633,64.6631,350.5444,63.9962,352.2455,62.8946,354.1721,62.3375,356.0495,61.6618,357.8125,60.7096" style="stroke:#333333;stroke-width:1.5625;fill:none;"/><text fill="#2E2E2E" font-family="Segoe Print" font-size="12.5" lengthAdjust="spacing" textLength="51.0417" x="360.4167" y="87.9374">New Job</text><path d="M385.9375,106.5104 L386.0348,106.5104 L385.7457,110.6771 L386.027,114.8438 L386.1225,119.0104 L385.6072,123.1771 L385.9375,127.3438 " fill="none" style="stroke:#A80036;stroke-width:1.0416666666666667;"/><path d="M208.3333,127.3438 L208.4306,127.3438 L208.1415,131.5104 L208.4228,135.6771 L208.5184,139.8438 L208.0031,144.0104 L208.3333,148.1771 " fill="none" style="stroke:#A80036;stroke-width:1.0416666666666667;"/><polygon points="113.5417,148.1771,113.5417,148.396,124.0741,147.7455,134.6065,148.3784,145.1389,148.5934,155.6713,147.434,166.2037,148.0961,176.7361,147.7328,187.2685,147.7776,197.8009,148.1061,208.3333,147.4569,218.8657,148.7538,229.3981,147.5205,239.9306,147.9711,250.463,148.627,260.9954,148.0877,271.5278,148.2482,282.0602,148.1438,292.5926,148.363,303.125,148.1771,303.1568,148.2538,305.0442,149.1277,306.897,149.9178,308.7395,150.6832,310.5245,151.3097,312.3321,151.9908,312.4808,152.0524,313.3201,153.9255,313.6263,155.5778,314.838,157.6052,315.288,159.3171,316.1458,161.1979,316.3312,161.1979,315.974,165.1497,316.122,169.1016,316.4033,173.0534,316.1289,177.0052,316.1458,180.957,316.1796,180.971,315.4917,182.8435,314.7539,184.6952,313.8564,186.4808,313.187,188.3609,312.3321,190.1642,312.2561,189.9805,310.5285,191.0181,308.7221,191.8655,306.8669,192.595,305.0479,193.4118,303.125,193.9779,303.125,193.4747,292.5926,193.2985,282.0602,193.3306,271.5278,193.9165,260.9954,193.7731,250.463,194.6877,239.9306,193.7959,229.3981,193.6205,218.8657,194.2156,208.3333,193.2832,197.8009,193.4371,187.2685,194.6539,176.7361,194.4317,166.2037,194.743,155.6713,193.6427,145.1389,194.3104,134.6065,194.5929,124.0741,193.4858,113.5417,193.9779,113.5289,193.9471,111.717,193.2555,109.9454,192.6615,108.0168,191.6883,106.2374,191.0753,104.3345,190.1642,104.1569,190.0906,103.3545,188.2327,102.9706,186.5482,101.8163,184.5446,101.4468,182.8661,100.5208,180.957,100.5926,180.957,100.4278,177.0052,100.398,173.0534,100.6801,169.1016,100.4169,165.1497,100.5208,161.1979,100.7107,161.2766,101.1063,159.283,102.2444,157.5971,102.9644,155.738,103.6504,153.8648,104.3345,151.9908,104.3408,152.0059,106.2725,151.4611,108.0989,150.6621,109.8813,149.7569,111.7359,149.0259,113.5417,148.1771" style="stroke:#333333;stroke-width:1.5625;fill:none;"/><text fill="#2E2E2E" font-family="Segoe Print" font-size="12.5" lengthAdjust="spacing" textLength="184.375" x="116.1458" y="175.4049">Decide on Job Requirements</text><path d="M197.9167,232.5033 L197.9167,232.6006 L200,232.3114 L202.0833,232.5927 L204.1667,232.6883 L206.25,232.173 L208.3333,232.5033 " fill="none" style="stroke:#A80036;stroke-width:1.0416666666666667;"/><polygon points="121.3542,209.6029,121.3542,209.8218,131.9444,209.1713,142.5347,209.8042,153.125,210.0192,163.7153,208.8597,174.3056,209.5219,184.8958,209.6029,184.8392,209.466,186.6863,210.2426,188.5696,211.1065,190.3282,211.6693,192.3351,212.8314,194.103,213.4166,193.9008,213.3328,194.8023,215.2317,195.767,217.1568,196.3637,218.9295,197.1758,220.7913,197.9167,222.6237,197.9056,222.6237,197.9787,226.5755,197.9997,230.5273,198.12,234.4792,198.1497,238.431,197.9167,242.3828,198.1346,242.4731,197.2356,244.2581,196.5399,246.1273,195.8537,248.0004,194.6343,249.6527,194.103,251.5899,194.1931,251.8076,192.2221,252.2576,190.491,253.2867,188.5129,253.7194,186.7282,254.6189,184.8958,255.4036,184.8958,256.1762,174.3056,255.3529,163.7153,255.5133,153.125,255.7564,142.5347,255.8372,131.9444,255.3996,121.3542,255.4036,121.3923,255.4958,119.4367,254.4573,117.7091,253.9694,115.9027,253.2913,114.0475,252.4953,112.147,251.5899,112.3437,251.6714,111.2293,249.6843,110.4123,247.8204,109.6595,245.9831,109.0772,244.2164,108.3333,242.3828,108.2651,242.3828,108.5699,238.431,108.2727,234.4792,108.2142,230.5273,108.4126,226.5755,108.3333,222.6237,108.1194,222.5351,108.9295,220.7133,110.067,219.0271,110.7613,217.1573,111.6199,215.3556,112.147,213.4166,112.1043,213.3133,114.0309,212.7562,115.9083,212.0805,117.6085,210.9768,119.5,210.3349,121.3542,209.6029" style="stroke:#333333;stroke-width:1.5625;fill:none;"/><text fill="#2E2E2E" font-family="Segoe Print" font-size="12.5" lengthAdjust="spacing" textLength="58.3333" x="123.9583" y="236.8306">Checklist</text><path d="M142.7083,293.929 L142.7083,294.0263 L144.7917,293.7372 L146.875,294.0185 L148.9583,294.1141 L151.0417,293.5988 L153.125,293.929 " fill="none" style="stroke:#A80036;stroke-width:1.0416666666666667;"/><polygon points="23.4375,271.0286,23.4375,271.2476,34.0625,270.5971,44.6875,271.23,55.3125,271.445,65.9375,270.2855,76.5625,270.9477,87.1875,270.5844,97.8125,270.6292,108.4375,270.9576,119.0625,270.3085,129.6875,271.0286,129.7611,271.2062,131.4452,271.5892,133.3441,272.4907,135.2692,273.4554,137.0418,274.0521,138.8946,274.8424,138.9165,274.8514,139.6471,276.6795,140.4774,278.5489,141.2596,280.3984,142.1335,282.2859,142.7083,284.0495,142.9413,284.0495,142.9442,288.0013,142.7967,291.9531,142.8693,295.9049,142.9522,299.8568,142.7083,303.8086,142.477,303.7128,142.1633,305.7402,141.0877,307.452,140.5913,309.4038,139.4986,311.1085,138.8946,313.0157,138.8855,312.9937,137.1517,314.0164,135.2053,314.5256,133.3843,315.3377,131.5739,316.1753,129.6875,316.8294,129.6875,317.263,119.0625,316.8254,108.4375,317.1286,97.8125,316.2332,87.1875,317.1257,76.5625,317.4005,65.9375,317.2925,55.3125,317.468,44.6875,316.3262,34.0625,316.1501,23.4375,316.8294,23.3549,316.6301,21.5883,316.0478,19.7285,315.2409,18.0038,314.7598,16.0486,313.7224,14.2304,313.0157,14.1203,312.9701,13.5409,311.2046,12.491,309.2443,11.7756,307.4225,11.3876,305.7362,10.4167,303.8086,10.5679,303.8086,10.6717,299.8568,10.3049,295.9049,10.5275,291.9531,10.6217,288.0013,10.4167,284.0495,10.2651,283.9867,11.1487,282.1953,11.9826,280.3834,12.914,278.6118,13.4663,276.6832,14.2304,274.8424,14.2918,274.9907,15.9982,273.902,17.8232,273.0996,19.8216,272.7157,21.5008,271.5614,23.4375,271.0286" style="stroke:#333333;stroke-width:1.5625;fill:none;"/><text fill="#2E2E2E" font-family="Segoe Print" font-size="12.5" lengthAdjust="spacing" textLength="101.0417" x="26.0417" y="298.2564">Responsibilities</text><path d="M142.7083,355.3548 L142.7083,355.4521 L144.7917,355.163 L146.875,355.4443 L148.9583,355.5399 L151.0417,355.0245 L153.125,355.3548 " fill="none" style="stroke:#A80036;stroke-width:1.0416666666666667;"/><polygon points="69.2708,332.4544,69.2708,332.6734,79.3403,332.0228,89.4097,332.6558,99.4792,332.8708,109.5486,331.7113,119.6181,332.3735,129.6875,332.4544,129.6308,332.3176,131.478,333.0941,133.3613,333.958,135.1199,334.5209,137.1268,335.683,138.8946,336.2681,138.6924,336.1844,139.5939,338.0833,140.5587,340.0084,141.1553,341.781,141.9675,343.6429,142.7083,345.4753,142.6972,345.4753,142.7703,349.4271,142.7914,353.3789,142.9117,357.3307,142.9413,361.2826,142.7083,365.2344,142.9262,365.3246,142.0273,367.1096,141.3316,368.9788,140.6454,370.852,139.426,372.5042,138.8946,374.4415,138.9848,374.6592,137.0138,375.1091,135.2827,376.1382,133.3046,376.5709,131.5198,377.4705,129.6875,378.2552,129.6875,379.0277,119.6181,378.2044,109.5486,378.3649,99.4792,378.6079,89.4097,378.6888,79.3403,378.2511,69.2708,378.2552,69.309,378.3473,67.3533,377.3088,65.6258,376.821,63.8194,376.1428,61.9642,375.3468,60.0637,374.4415,60.2604,374.523,59.146,372.5359,58.329,370.672,57.5761,368.8347,56.9939,367.068,56.25,365.2344,56.1818,365.2344,56.4866,361.2826,56.1893,357.3307,56.1309,353.3789,56.3293,349.4271,56.25,345.4753,56.0361,345.3867,56.8462,343.5649,57.9837,341.8786,58.678,340.0089,59.5366,338.2072,60.0637,336.2681,60.021,336.1649,61.9476,335.6078,63.825,334.9321,65.5252,333.8284,67.4167,333.1864,69.2708,332.4544" style="stroke:#333333;stroke-width:1.5625;fill:none;"/><text fill="#2E2E2E" font-family="Segoe Print" font-size="12.5" lengthAdjust="spacing" textLength="55.2083" x="71.875" y="359.6822">Location</text><path d="M153.125,255.4036 L153.4169,255.4036 L152.5496,265.3988 L153.3935,275.3939 L153.6801,285.389 L152.1342,295.3841 L153.0171,305.3792 L152.5326,315.3743 L152.5924,325.3695 L153.0303,335.3646 L152.1648,345.3597 L153.125,355.3548 " fill="none" style="stroke:#A80036;stroke-width:1.0416666666666667;"/><path d="M208.3333,232.5033 L208.3333,232.6006 L210.4167,232.3114 L212.5,232.5927 L214.5833,232.6883 L216.6667,232.173 L218.75,232.5033 " fill="none" style="stroke:#A80036;stroke-width:1.0416666666666667;"/><polygon points="231.7708,209.6029,231.7708,209.8218,241.7245,209.1713,251.6782,209.8042,261.6319,210.0192,271.5856,208.8597,281.5394,209.5219,291.4931,209.1586,301.4468,209.2034,311.4005,209.5319,321.3542,209.6029,321.2623,209.3811,323.2692,210.5432,324.9533,210.9262,326.8522,211.8277,328.7773,212.7924,330.5613,213.4166,330.5338,213.4052,331.3459,215.2671,332.0765,217.0952,332.9068,218.9646,333.689,220.814,334.375,222.6237,334.5784,222.6237,334.608,226.5755,334.6109,230.5273,334.4634,234.4792,334.536,238.431,334.375,242.3828,334.6003,242.4761,333.3809,244.1284,333.0672,246.1558,331.9917,247.8677,331.4953,249.8194,330.5613,251.5899,330.4955,251.4311,328.7108,252.3307,326.977,253.3533,325.0305,253.8625,323.2096,254.6747,321.3542,255.4036,321.3542,255.7564,311.4005,255.8372,301.4468,255.3996,291.4931,255.7028,281.5394,254.8074,271.5856,255.6999,261.6319,255.9747,251.6782,255.8667,241.7245,256.0422,231.7708,255.4036,231.7066,255.2487,229.8427,254.4317,228.0054,253.6788,226.2387,253.0965,224.379,252.2896,222.5637,251.5899,222.7823,251.6805,221.7449,249.7253,220.9282,247.8615,220.3487,246.096,219.2988,244.1356,218.75,242.3828,218.5697,242.3828,218.9753,238.431,218.9013,234.4792,219.005,230.5273,218.6383,226.5755,218.75,222.6237,218.8524,222.6661,219.7021,220.8607,220.1239,218.8781,221.0075,217.0867,221.8414,215.2747,222.5637,213.4166,222.6503,213.6257,224.4046,212.6525,226.308,212.0395,228.0144,210.9507,229.8394,210.1483,231.7708,209.6029" style="stroke:#333333;stroke-width:1.5625;fill:none;"/><text fill="#2E2E2E" font-family="Segoe Print" font-size="12.5" lengthAdjust="spacing" textLength="84.375" x="234.375" y="236.8306">Identity gaps</text><path d="M208.3333,293.929 L208.3333,294.0263 L210.4167,293.7372 L212.5,294.0185 L214.5833,294.1141 L216.6667,293.5988 L218.75,293.929 " fill="none" style="stroke:#A80036;stroke-width:1.0416666666666667;"/><polygon points="231.7708,271.0286,231.7708,271.2476,242.1875,270.5971,252.6042,271.23,263.0208,271.445,273.4375,270.2855,283.8542,270.9477,294.2708,270.5844,304.6875,271.0286,304.6365,270.9056,306.5199,271.7695,308.2785,272.3323,310.2853,273.4945,311.9694,273.8774,313.8946,274.8424,313.8312,274.8161,314.7959,276.7412,315.3926,278.5138,316.2047,280.3757,316.9353,282.2038,317.7083,284.0495,317.7703,284.0495,317.7914,288.0013,317.9117,291.9531,317.9413,295.9049,317.9442,299.8568,317.7083,303.8086,317.79,303.8424,317.0943,305.7116,316.4081,307.5848,315.1888,309.237,314.875,311.2644,313.8946,313.0157,313.8552,312.9206,312.1241,313.9497,310.146,314.3824,308.3612,315.282,306.6275,316.3046,304.6875,316.8294,304.6875,316.7787,294.2708,316.9391,283.8542,317.1822,273.4375,317.263,263.0208,316.8254,252.6042,317.1286,242.1875,316.2332,231.7708,316.8294,231.8086,316.9207,230.0023,316.2425,228.1471,315.4465,226.328,314.7379,224.3409,313.6235,222.5637,313.0157,222.3545,312.9291,221.6016,311.0917,221.0193,309.325,220.2124,307.4653,219.7313,305.7406,218.75,303.8086,218.6893,303.8086,218.6309,299.8568,218.8293,295.9049,218.5185,291.9531,218.5697,288.0013,218.75,284.0495,218.9582,284.1357,219.6525,282.2659,220.5111,280.4642,220.935,278.4824,221.9034,276.7262,222.5637,274.8424,222.6422,275.0318,224.3424,273.9281,226.2338,273.2861,228.1047,272.5945,230.016,272.0005,231.7708,271.0286" style="stroke:#333333;stroke-width:1.5625;fill:none;"/><text fill="#2E2E2E" font-family="Segoe Print" font-size="12.5" lengthAdjust="spacing" textLength="67.7083" x="234.375" y="298.2564">Review JDs</text><path d="M268.2292,355.3548 L268.2292,355.4521 L270.3125,355.163 L272.3958,355.4443 L274.4792,355.5399 L276.5625,355.0245 L278.6458,355.3548 " fill="none" style="stroke:#A80036;stroke-width:1.0416666666666667;"/><polygon points="291.6667,332.4544,291.6667,332.6734,301.9231,332.0228,312.1795,332.6558,322.4359,332.8708,332.6923,331.7113,342.9487,332.3735,353.2051,332.0102,363.4615,332.0549,373.7179,332.3834,383.9744,331.7343,394.2308,333.0311,404.4872,331.7979,414.7436,332.2484,425,332.4544,425.0574,332.593,426.83,333.1897,428.6919,334.0018,430.52,334.7324,432.3894,335.5627,434.2071,336.2681,434.2838,336.2999,435.1577,338.1874,435.9479,340.0402,436.7132,341.8827,437.3398,343.6677,438.0208,345.4753,438.1818,345.4753,438.2647,349.4271,437.7704,353.3789,438.2564,357.3307,437.9179,361.2826,438.0208,365.2344,438.1921,365.3053,437.0993,367.01,436.4734,368.9081,435.9705,370.8572,434.9542,372.5936,434.2071,374.4415,434.2211,374.4753,432.4107,375.3129,430.5796,376.1005,428.6823,376.7285,426.8796,377.5846,425,378.2552,425,377.6589,414.7436,378.5514,404.4872,378.8262,394.2308,378.7183,383.9744,378.8938,373.7179,377.752,363.4615,377.5759,353.2051,377.6079,342.9487,378.1939,332.6923,378.0505,322.4359,378.965,312.1795,378.0733,301.9231,377.8979,291.6667,378.2552,291.697,378.3284,289.7366,377.2785,287.9148,376.5632,286.2286,376.1752,284.3589,375.344,282.4595,374.4415,282.6952,374.5391,281.5936,372.5573,281.0365,370.8011,280.3607,368.9957,279.257,367.013,278.6458,365.2344,278.6125,365.2344,278.6896,361.2826,278.8721,357.3307,278.6444,353.3789,278.8064,349.4271,278.6458,345.4753,278.4682,345.4017,279.1913,343.5438,280.3329,341.8593,280.7041,339.8557,281.8601,338.1772,282.4595,336.2681,282.487,336.3344,284.2654,335.4195,286.0954,334.6292,288.0448,334.1271,289.7855,333.1211,291.6667,332.4544" style="stroke:#333333;stroke-width:1.5625;fill:none;"/><text fill="#2E2E2E" font-family="Segoe Print" font-size="12.5" lengthAdjust="spacing" textLength="128.125" x="294.2708" y="359.6822">Sign-Up for courses</text><path d="M268.2292,416.7806 L268.2292,416.8779 L270.3125,416.5888 L272.3958,416.8701 L274.4792,416.9656 L276.5625,416.4503 L278.6458,416.7806 " fill="none" style="stroke:#A80036;stroke-width:1.0416666666666667;"/><polygon points="291.6667,393.8802,291.6667,394.0991,301.4881,393.4486,311.3095,394.0815,321.131,394.2965,330.9524,393.1371,340.7738,393.7993,350.5952,393.4359,360.4167,393.8802,360.3657,393.7572,362.249,394.6211,364.0076,395.1839,366.0145,396.346,367.6986,396.729,369.6238,397.6939,369.5603,397.6676,370.5251,399.5927,371.1218,401.3654,371.9339,403.2273,372.6645,405.0554,373.4375,406.901,373.4995,406.901,373.5205,410.8529,373.6409,414.8047,373.6705,418.7565,373.6734,422.7083,373.4375,426.6602,373.5192,426.694,372.8235,428.5632,372.1373,430.4363,370.9179,432.0886,370.6042,434.116,369.6238,435.8673,369.5844,435.7722,367.8533,436.8013,365.8752,437.234,364.0904,438.1335,362.3566,439.1561,360.4167,439.681,360.4167,439.6302,350.5952,439.7907,340.7738,440.0337,330.9524,440.1146,321.131,439.6769,311.3095,439.9802,301.4881,439.0847,291.6667,439.681,291.7045,439.7722,289.8981,439.0941,288.0429,438.2981,286.2239,437.5894,284.2368,436.4751,282.4595,435.8673,282.2503,435.7806,281.4975,433.9433,280.9152,432.1766,280.1083,430.3169,279.6272,428.5921,278.6458,426.6602,278.5852,426.6602,278.5267,422.7083,278.7251,418.7565,278.4143,414.8047,278.4656,410.8529,278.6458,406.901,278.854,406.9873,279.5483,405.1175,280.4069,403.3158,280.8308,401.334,281.7992,399.5778,282.4595,397.6939,282.538,397.8833,284.2382,396.7796,286.1297,396.1377,288.0006,395.4461,289.9118,394.852,291.6667,393.8802" style="stroke:#333333;stroke-width:1.5625;fill:none;"/><text fill="#2E2E2E" font-family="Segoe Print" font-size="12.5" lengthAdjust="spacing" textLength="63.5417" x="294.2708" y="421.108">Volunteer</text><path d="M268.2292,478.2064 L268.2292,478.3037 L270.3125,478.0146 L272.3958,478.2959 L274.4792,478.3914 L276.5625,477.8761 L278.6458,478.2064 " fill="none" style="stroke:#A80036;stroke-width:1.0416666666666667;"/><polygon points="291.6667,455.306,291.6667,455.5249,301.3889,454.8744,311.1111,455.5073,320.8333,455.7223,330.5556,454.5629,340.2778,455.225,350,455.306,349.9433,455.1692,351.7905,455.9457,353.6738,456.8096,355.4324,457.3724,357.4393,458.5346,359.2071,459.1197,359.0049,459.036,359.9064,460.9348,360.8712,462.8599,361.4678,464.6326,362.28,466.4945,363.0208,468.3268,363.0097,468.3268,363.0828,472.2786,363.1039,476.2305,363.2242,480.1823,363.2538,484.1341,363.0208,488.0859,363.2387,488.1762,362.3398,489.9612,361.6441,491.8304,360.9579,493.7035,359.7385,495.3558,359.2071,497.2931,359.2973,497.5107,357.3263,497.9607,355.5952,498.9898,353.6171,499.4225,351.8323,500.3221,350,501.1068,350,501.8793,340.2778,501.056,330.5556,501.2165,320.8333,501.4595,311.1111,501.5403,301.3889,501.1027,291.6667,501.1068,291.7048,501.1989,289.7492,500.1604,288.0216,499.6725,286.2152,498.9944,284.36,498.1984,282.4595,497.2931,282.6562,497.3745,281.5418,495.3874,280.7248,493.5235,279.972,491.6862,279.3897,489.9195,278.6458,488.0859,278.5776,488.0859,278.8824,484.1341,278.5852,480.1823,278.5267,476.2305,278.7251,472.2786,278.6458,468.3268,278.4319,468.2382,279.242,466.4164,280.3795,464.7302,281.0738,462.8604,281.9324,461.0587,282.4595,459.1197,282.4168,459.0165,284.3434,458.4594,286.2208,457.7836,287.921,456.6799,289.8125,456.038,291.6667,455.306" style="stroke:#333333;stroke-width:1.5625;fill:none;"/><text fill="#2E2E2E" font-family="Segoe Print" font-size="12.5" lengthAdjust="spacing" textLength="53.125" x="294.2708" y="482.5338">Reading</text><path d="M268.2292,316.8294 L268.5211,316.8294 L267.6537,327.5879 L268.4976,338.3464 L268.7843,349.1048 L267.2383,359.8633 L268.1212,370.6217 L267.6368,381.3802 L267.6965,392.1387 L268.1345,402.8971 L267.2689,413.6556 L268.9981,424.4141 L267.3538,435.1725 L267.9545,445.931 L268.8291,456.6895 L268.11,467.4479 L268.2292,478.2064 " fill="none" style="stroke:#A80036;stroke-width:1.0416666666666667;"/><path d="M208.3333,193.9779 L208.6253,193.9779 L207.7579,203.973 L208.6018,213.9681 L208.8884,223.9632 L207.3425,233.9583 L208.2254,243.9535 L207.741,253.9486 L207.8007,263.9437 L208.2387,273.9388 L207.3731,283.9339 L208.3333,293.929 " fill="none" style="stroke:#A80036;stroke-width:1.0416666666666667;"/><path d="M527.0833,127.3438 L527.1806,127.3438 L526.8915,131.5104 L527.1728,135.6771 L527.2684,139.8438 L526.7531,144.0104 L527.0833,148.1771 " fill="none" style="stroke:#A80036;stroke-width:1.0416666666666667;"/><polygon points="471.875,148.1771,471.875,148.396,481.9129,147.7455,491.9508,148.3784,501.9886,148.5934,512.0265,147.434,522.0644,148.0961,532.1023,147.7328,542.1402,147.7776,552.178,148.1061,562.2159,147.4569,572.2538,148.7538,582.2917,148.1771,582.2079,147.9749,584.1068,148.8764,586.0319,149.8411,587.8045,150.4378,589.6664,151.2499,591.4988,151.9908,591.4885,151.9866,592.3188,153.8559,593.101,155.7054,593.9749,157.5929,594.765,159.4457,595.3125,161.1979,595.5484,161.1979,595.4009,165.1497,595.4735,169.1016,595.5563,173.0534,595.0621,177.0052,595.3125,180.957,595.5302,181.0472,594.4546,182.7591,593.9583,184.7108,592.8655,186.4155,592.2396,188.3136,591.4988,190.1642,591.5973,190.4021,589.6509,190.9113,587.8299,191.7234,586.0195,192.561,584.1884,193.3486,582.2917,193.9779,582.2917,193.9738,572.2538,194.277,562.2159,193.3816,552.178,194.2741,542.1402,194.5489,532.1023,194.4409,522.0644,194.6164,512.0265,193.4747,501.9886,193.2985,491.9508,193.3306,481.9129,193.9165,471.875,193.9779,471.8489,193.9148,470.1241,193.4337,468.1689,192.3963,466.3051,191.5796,464.5396,191.0001,462.6679,190.1642,462.454,190.0755,461.7386,188.2537,461.3506,186.5675,460.5194,184.6978,459.8525,182.8961,458.8542,180.957,458.7424,180.957,458.965,177.0052,459.0592,173.0534,458.6901,169.1016,458.8209,165.1497,458.8542,161.1979,458.8946,161.2147,459.826,159.4431,460.3783,157.5145,461.2908,155.7351,461.7275,153.7586,462.6679,151.9908,462.5779,151.7735,464.5762,151.3896,466.2555,150.2353,468.2598,149.8658,470.061,149.0061,471.875,148.1771" style="stroke:#333333;stroke-width:1.5625;fill:none;"/><text fill="#2E2E2E" font-family="Segoe Print" font-size="12.5" lengthAdjust="spacing" textLength="105.2083" x="474.4792" y="175.4049">CV Upload Done</text><path d="M527.0833,232.5033 L527.0833,232.6006 L533.125,232.3114 L539.1667,232.5927 L545.2083,232.6883 L551.25,232.173 L557.2917,232.5033 " fill="none" style="stroke:#A80036;stroke-width:1.0416666666666667;"/><polygon points="570.3125,209.6029,570.3125,209.8218,580.599,209.1713,590.8854,209.8042,601.1719,210.0192,611.4583,208.8597,621.7448,209.5219,632.0313,209.1586,642.3177,209.2034,652.6042,209.6029,652.5951,209.581,654.3537,210.1438,656.3606,211.306,658.0447,211.6889,659.9436,212.5904,661.8113,213.4166,661.9499,213.474,662.5465,215.2466,663.3587,217.1085,664.0893,218.9366,664.9195,220.806,665.625,222.6237,665.708,222.6237,665.8284,226.5755,665.858,230.5273,665.8609,234.4792,665.7134,238.431,665.625,242.3828,665.7737,242.4444,665.0875,244.3175,663.8682,245.9698,663.5544,247.9972,662.4789,249.7091,661.8113,251.5899,661.8822,251.7612,659.9041,252.1939,658.1193,253.0934,656.3856,254.1161,654.4391,254.6253,652.6042,255.4036,652.6042,255.5133,642.3177,255.7564,632.0313,255.8372,621.7448,255.3996,611.4583,255.7028,601.1719,254.8074,590.8854,255.6999,580.599,255.9747,570.3125,255.4036,570.3716,255.5462,568.5525,254.8376,566.5655,253.7232,564.7016,252.9062,562.8642,252.1533,561.1054,251.5899,561.0865,251.5821,560.2796,249.7224,559.7985,247.9976,558.7611,246.0424,557.9444,244.1787,557.2917,242.3828,557.3709,242.3828,557.0601,238.431,557.1114,234.4792,557.517,230.5273,557.4429,226.5755,557.2917,222.6237,557.5273,222.7213,557.9512,220.7395,558.9195,218.9833,559.7693,217.1779,560.1911,215.1952,561.1054,213.4166,561.0926,213.3858,562.9635,212.6943,564.8748,212.1002,566.6291,211.127,568.5325,210.514,570.3125,209.6029" style="stroke:#333333;stroke-width:1.5625;fill:none;"/><text fill="#2E2E2E" font-family="Segoe Print" font-size="12.5" lengthAdjust="spacing" textLength="77.0833" x="572.9167" y="236.8306">CV Updated</text><path d="M601.0417,293.929 L601.0417,294.0263 L603.125,293.7372 L605.2083,294.0185 L607.2917,294.1141 L609.375,293.5988 L611.4583,293.929 " fill="none" style="stroke:#A80036;stroke-width:1.0416666666666667;"/><polygon points="550.5208,271.0286,550.5208,271.1016,558.0208,270.8848,565.5208,271.0958,573.0208,271.1674,580.5208,270.7809,588.0208,271.0286,588.0105,271.0037,589.8056,271.6546,591.6527,272.4311,593.536,273.295,595.2947,273.8578,597.228,274.8424,597.4056,274.9159,597.7885,276.6,598.69,278.4989,599.6547,280.424,600.2514,282.1967,601.0417,284.0495,601.0654,284.0495,601.0306,288.0013,601.1037,291.9531,601.1247,295.9049,601.245,299.8568,601.0417,303.8086,601.2569,303.8978,600.4968,305.7403,599.5979,307.5253,598.9022,309.3945,598.216,311.2676,597.228,313.0157,597.1321,312.7844,595.4767,313.9961,593.5057,314.4461,591.7746,315.4752,589.7965,315.9079,588.0208,316.8294,588.0208,316.8056,580.5208,317.0869,573.0208,316.8125,565.5208,316.866,558.0208,316.947,550.5208,316.8294,550.5761,316.963,548.6789,316.0654,546.8761,315.3961,544.9205,314.3576,543.1929,313.8697,541.3137,313.0157,541.4896,313.0886,540.6936,311.2334,539.9849,309.4143,538.8705,307.4273,538.0535,305.5634,537.5,303.8086,537.2842,303.8086,537.4796,299.8568,537.4318,295.9049,537.7366,291.9531,537.4393,288.0013,537.5,284.0495,537.39,284.0039,538.336,282.2384,538.8116,280.278,539.6217,278.4562,540.7591,276.77,541.3137,274.8424,541.3716,274.9821,543.2527,274.3152,544.9538,273.2136,546.8804,272.6565,548.7579,271.9808,550.5208,271.0286" style="stroke:#333333;stroke-width:1.5625;fill:none;"/><text fill="#2E2E2E" font-family="Segoe Print" font-size="12.5" lengthAdjust="spacing" textLength="32.2917" x="553.125" y="298.2564">Skills</text><path d="M611.4583,293.929 L611.4583,294.0263 L613.5417,293.7372 L615.625,294.0185 L617.7083,294.1141 L619.7917,293.5988 L621.875,293.929 " fill="none" style="stroke:#A80036;stroke-width:1.0416666666666667;"/><polygon points="634.8958,271.0286,634.8958,271.2476,645.2324,270.5971,655.5689,271.23,665.9054,271.445,676.242,270.2855,686.5785,270.9477,696.9151,270.5844,707.2516,270.6292,717.5881,270.9576,727.9247,270.3085,738.2612,271.6054,748.5978,270.3721,758.9343,270.8226,769.2708,271.0286,769.3282,271.1672,771.1009,271.7639,772.9627,272.576,774.7909,273.3066,776.6603,274.1369,778.478,274.8424,778.5547,274.8741,779.4286,276.7616,780.2187,278.6144,780.9841,280.4569,781.6106,282.2419,782.2917,284.0495,782.4526,284.0495,782.5355,288.0013,782.0413,291.9531,782.5273,295.9049,782.1887,299.8568,782.2917,303.8086,782.4629,303.8795,781.3701,305.5842,780.7442,307.4823,780.2413,309.4314,779.2251,311.1678,778.478,313.0157,778.4919,313.0495,776.6815,313.8871,774.8504,314.6747,772.9532,315.3027,771.1504,316.1588,769.2708,316.8294,769.2708,316.2332,758.9343,317.1257,748.5978,317.4005,738.2612,317.2925,727.9247,317.468,717.5881,316.3262,707.2516,316.1501,696.9151,316.1821,686.5785,316.7681,676.242,316.6247,665.9054,317.5392,655.5689,316.6475,645.2324,316.4721,634.8958,316.8294,634.9262,316.9027,632.9658,315.8528,631.144,315.1374,629.4578,314.7494,627.588,313.9182,625.6887,313.0157,625.9243,313.1133,624.8227,311.1315,624.2656,309.3753,623.5899,307.5699,622.4862,305.5872,621.875,303.8086,621.8417,303.8086,621.9187,299.8568,622.1013,295.9049,621.8735,291.9531,622.0356,288.0013,621.875,284.0495,621.6974,283.9759,622.4205,282.1181,623.562,280.4335,623.9332,278.4299,625.0892,276.7514,625.6887,274.8424,625.7162,274.9086,627.4945,273.9937,629.3246,273.2034,631.2739,272.7013,633.0146,271.6954,634.8958,271.0286" style="stroke:#333333;stroke-width:1.5625;fill:none;"/><text fill="#2E2E2E" font-family="Segoe Print" font-size="12.5" lengthAdjust="spacing" textLength="129.1667" x="637.5" y="298.2564">Spelling &amp; Grammar</text><path d="M611.4583,355.3548 L611.4583,355.4521 L613.5417,355.163 L615.625,355.4443 L617.7083,355.5399 L619.7917,355.0245 L621.875,355.3548 " fill="none" style="stroke:#A80036;stroke-width:1.0416666666666667;"/><polygon points="634.8958,332.4544,634.8958,332.6734,645.7031,332.0228,656.5104,332.6558,667.3177,332.8708,678.125,331.7113,688.9323,332.3735,699.7396,332.0102,710.5469,332.0549,721.3542,332.4544,721.3451,332.4326,723.1037,332.9954,725.1106,334.1575,726.7947,334.5405,728.6936,335.442,730.5613,336.2681,730.6999,336.3255,731.2965,338.0982,732.1087,339.9601,732.8393,341.7882,733.6695,343.6576,734.375,345.4753,734.458,345.4753,734.5784,349.4271,734.608,353.3789,734.6109,357.3307,734.4634,361.2826,734.375,365.2344,734.5237,365.296,733.8375,367.1691,732.6182,368.8214,732.3044,370.8488,731.2289,372.5607,730.5613,374.4415,730.6322,374.6127,728.6541,375.0454,726.8693,375.945,725.1356,376.9676,723.1891,377.4768,721.3542,378.2552,721.3542,378.3649,710.5469,378.6079,699.7396,378.6888,688.9323,378.2511,678.125,378.5544,667.3177,377.6589,656.5104,378.5514,645.7031,378.8262,634.8958,378.2552,634.9549,378.3978,633.1359,377.6891,631.1488,376.5748,629.2849,375.7578,627.4476,375.0049,625.6887,374.4415,625.6698,374.4337,624.8629,372.574,624.3818,370.8492,623.3445,368.894,622.5277,367.0302,621.875,365.2344,621.9543,365.2344,621.6435,361.2826,621.6947,357.3307,622.1003,353.3789,622.0263,349.4271,621.875,345.4753,622.1106,345.5729,622.5345,343.5911,623.5029,341.8348,624.3526,340.0294,624.7744,338.0468,625.6887,336.2681,625.676,336.2374,627.5469,335.5458,629.4582,334.9517,631.2124,333.9786,633.1159,333.3656,634.8958,332.4544" style="stroke:#333333;stroke-width:1.5625;fill:none;"/><text fill="#2E2E2E" font-family="Segoe Print" font-size="12.5" lengthAdjust="spacing" textLength="81.25" x="637.5" y="359.6822">Check dates</text><path d="M611.4583,255.4036 L611.7503,255.4036 L610.8829,265.3988 L611.7268,275.3939 L612.0134,285.389 L610.4675,295.3841 L611.3504,305.3792 L610.866,315.3743 L610.9257,325.3695 L611.3637,335.3646 L610.4981,345.3597 L611.4583,355.3548 " fill="none" style="stroke:#A80036;stroke-width:1.0416666666666667;"/><path d="M527.0833,416.7806 L527.0833,416.8779 L529.1667,416.5888 L531.25,416.8701 L533.3333,416.9656 L535.4167,416.4503 L537.5,416.7806 " fill="none" style="stroke:#A80036;stroke-width:1.0416666666666667;"/><polygon points="550.5208,393.8802,550.5208,394.0991,560.6311,393.4486,570.7414,394.0815,580.8517,394.2965,590.962,393.1371,601.0723,393.7993,611.1826,393.4359,621.2929,393.4807,631.4032,393.8092,641.5135,393.16,651.6238,394.4569,661.7341,393.2237,671.8444,393.6742,681.9547,394.3302,692.065,393.7909,702.1752,393.9513,712.2855,393.8469,722.3958,393.8802,722.4196,393.9375,724.269,394.7197,726.1565,395.5936,728.0093,396.3837,729.8518,397.1491,731.603,397.6939,731.6846,397.7278,732.5144,399.5969,733.3537,401.4701,733.6598,403.1224,734.8716,405.1498,735.4167,406.901,735.3137,406.901,735.602,410.8529,735.2448,414.8047,735.3929,418.7565,735.6742,422.7083,735.4167,426.6602,735.401,426.6537,734.6877,428.5156,733.9998,430.388,733.262,432.2397,732.3644,434.0253,731.603,435.8673,731.6411,435.9594,729.6855,436.4464,727.9579,437.484,726.1515,438.3314,724.2963,439.0608,722.3958,439.681,722.3958,440.3196,712.2855,439.1778,702.1752,439.0016,692.065,439.0337,681.9547,439.6197,671.8444,439.4763,661.7341,440.3908,651.6238,439.499,641.5135,439.3236,631.4032,439.9188,621.2929,438.9864,611.1826,439.1402,601.0723,440.357,590.962,440.1348,580.8517,440.4461,570.7414,439.3458,560.6311,440.0135,550.5208,439.681,550.5993,439.8704,548.6166,438.7667,546.8252,438.1248,545.0133,437.4332,543.2417,436.8391,541.3137,435.8673,541.3124,435.8667,540.6994,434.0873,539.6106,432.1108,538.8082,430.253,538.4243,428.5685,537.5,426.6602,537.2511,426.6602,537.6767,422.7083,537.5717,418.7565,537.407,414.8047,537.3772,410.8529,537.5,406.901,537.6472,406.962,538.1667,405.0198,539.2153,403.2968,539.6109,401.3033,540.749,399.6174,541.3137,397.6939,541.3781,397.8493,543.1877,397.0098,545.0028,396.1836,546.9345,395.6388,548.7609,394.8398,550.5208,393.8802" style="stroke:#333333;stroke-width:1.5625;fill:none;"/><text fill="#2E2E2E" font-family="Segoe Print" font-size="12.5" lengthAdjust="spacing" textLength="166.6667" x="553.125" y="421.108">Recruitment sites chosen</text><path d="M527.0833,193.9779 L527.3753,193.9779 L526.5079,204.5875 L527.3518,215.1972 L527.6384,225.8068 L526.0925,236.4165 L526.9754,247.0261 L526.491,257.6358 L526.5507,268.2454 L526.9887,278.8551 L526.1231,289.4648 L527.8523,300.0744 L526.2079,310.6841 L526.8087,321.2937 L527.6833,331.9034 L526.9642,342.513 L527.1781,353.1227 L527.039,363.7323 L527.3313,374.342 L527.4155,384.9516 L527.8968,395.5613 L528.0154,406.1709 L527.0833,416.7806 " fill="none" style="stroke:#A80036;stroke-width:1.0416666666666667;"/><path d="M208.3333,127.3438 L208.3333,127.6357 L218.6156,126.7683 L228.8978,127.6122 L239.1801,127.8989 L249.4624,126.3529 L259.7446,127.2358 L270.0269,126.7514 L280.3091,126.8111 L290.5914,127.2491 L300.8737,126.3835 L311.1559,128.1127 L321.4382,126.4684 L331.7204,127.0691 L342.0027,127.9437 L352.2849,127.2246 L362.5672,127.4385 L372.8495,127.2994 L383.1317,127.5917 L393.414,127.6759 L403.6962,128.1572 L413.9785,128.2758 L424.2608,128.2872 L434.543,127.6974 L444.8253,127.9876 L455.1075,128.3191 L465.3898,126.3421 L475.672,128.2861 L485.9543,126.9319 L496.2366,128.0852 L506.5188,126.6562 L516.8011,127.2486 L527.0833,127.3438 " fill="none" style="stroke:#A80036;stroke-width:1.0416666666666667;"/><!--MD5=[59fc1429360bc362b318aac41c06c139]
@startwbs

!$THEME = "sketchy-outline"

!if %not(%variable_exists("$BGCOLOR"))
!$BGCOLOR = "transparent"
!endif

skinparam backgroundColor $BGCOLOR
skinparam useBetaStyle false
skinparam handwritten true
skinparam shadowing false

!$BLUE = "#007bff"
!$INDIGO = "#6610f2"
!$PURPLE = "#6f42c1"
!$PINK = "#e83e8c"
!$RED = "#dc3545"
!$ORANGE = "#fd7e14"
!$YELLOW = "#ffc107"
!$GREEN = "#28a745"
!$TEAL = "#20c997"
!$CYAN = "#17a2b8"
!$WHITE = "#ffffff"
!$GRAY = "#868e96"
!$GRAYDARK = "#333333"
!$PRIMARY = "#333333"
!$SECONDARY = "#555555"
!$SUCCESS = "#28a745"
!$INFO = "#17a2b8"
!$WARNING = "#ffc107"
!$DANGER = "#dc3545"
!$LIGHT = "#ffffff"
!$DARK = "#555555"

!$FGCOLOR = $WHITE
!$PRIMARY_DARK = "#2e2e2e"
!$PRIMARY_LIGHT = "#474747"
!$PRIMARY_TEXT = "#2e2e2e"
!$SECONDARY_DARK = "#4d4d4d"
!$SECONDARY_LIGHT = "#666666"
!$SECONDARY_TEXT = $WHITE
!$INFO_DARK = "#1592a6"
!$INFO_LIGHT = "#2eabbf"
!$INFO_TEXT = $WHITE
!$SUCCESS_DARK = "#24963e"
!$SUCCESS_LIGHT = "#3eb058"
!$SUCCESS_TEXT = $WHITE
!$WARNING_DARK = "#e6ae06"
!$WARNING_LIGHT = "#ffc720"
!$WARNING_TEXT = $WHITE
!$DANGER_DARK = "#c6303e"
!$DANGER_LIGHT = "#e04958"
!$DANGER_TEXT = $WHITE
!$DARK_DARK = "#4d4d4d"
!$DARK_LIGHT = "#666666"
!$LIGHT_DARK = "#e6e6e6"
!$LIGHT_LIGHT = "#ffffff"

!procedure $success($msg)
  <font color=$SUCCESS><b>$msg
!endprocedure

!procedure $failure($msg)
  <font color=$DANGER><b>$msg
!endprocedure

!procedure $warning($msg)
  <font color=$WARNING><b>$msg
!endprocedure

!procedure $primary_scheme()
	FontColor $PRIMARY_TEXT
	BorderColor $PRIMARY
	BackgroundColor $BGCOLOR
!endprocedure

skinparam defaultFontName       "Segoe Print"
skinparam defaultFontSize       12
skinparam dpi                   100
skinparam shadowing             false
skinparam roundcorner           8
skinparam ParticipantPadding    40
skinparam BoxPadding            40
skinparam Padding               5
skinparam ArrowColor            $DARK
skinparam stereotype {
    CBackgroundColor $BGCOLOR
    CBorderColor $SECONDARY_DARK
    ABackgroundColor $BGCOLOR
    ABorderColor $SUCCESS_DARK
    IBackgroundColor $BGCOLOR
    IBorderColor $DANGER_DARK
    EBackgroundColor $BGCOLOR
    EBorderColor $WARNING_DARK
    NBackgroundColor $BGCOLOR
    NBorderColor $INFO_DARK
}
skinparam title {
	FontColor	                 $PRIMARY_TEXT
	BorderColor	                 $SECONDARY_DARK
	FontSize	    	         20
	BorderRoundCorner            8
	BorderThickness 	         1
	BackgroundColor              $BGCOLOR
}

skinparam legend {
	BackgroundColor $BGCOLOR
	BorderColor $SECONDARY_DARK
	FontColor $PRIMARY_TEXT
}

!startsub swimlane
skinparam swimlane {
	BorderColor $INFO
	BorderThickness 2
	TitleBackgroundColor  $BGCOLOR
	TitleFontColor $PRIMARY_TEXT
}
!endsub

!startsub activity

skinparam activity {
	$primary_scheme()
	BarColor $SUCCESS
	StartColor $INFO
	EndColor $INFO
	DiamondBackgroundColor $BGCOLOR
  	DiamondBorderColor $SECONDARY_DARK
  	DiamondFontColor $PRIMARY_TEXT
}
!endsub

!startsub participant

skinparam participant {
	$primary_scheme()
	ParticipantBorderThickness 2
}
!endsub

!startsub actor

skinparam actor {
	$primary_scheme()
}
!endsub

!startsub arrow

skinparam arrow {
	Thickness 3
	Color $PRIMARY
	FontColor $PRIMARY_TEXT
}
!endsub

!startsub sequence

skinparam sequence {
	BorderColor $PRIMARY
	TitleFontColor $PRIMARY_TEXT
	BackgroundColor $BGCOLOR
	StartColor $PRIMARY
	EndColor $PRIMARY
	BoxBackgroundColor $BGCOLOR
	BoxBorderColor $DARK
	BoxFontColor $DARK
	LifeLineBorderColor $SECONDARY
	LifeLineBorderThickness 2
	LifeLineBackgroundColor $SECONDARY_DARK
	GroupBorderColor $DARK
	GroupFontColor $DARK
	GroupHeaderFontColor $INFO
	GroupBackgroundColor $SECONDARY
	GroupHeaderBackgroundColor $BGCOLOR
	DividerBackgroundColor $DARK
    DividerBorderColor $DARK
    DividerBorderThickness 2
    DividerFontColor $LIGHT
	ReferenceBackgroundColor $BGCOLOR
	ReferenceBorderColor $DARK
	ReferenceFontColor $DARK
	ReferenceHeaderFontColor $INFO
	ReferenceHeaderBackgroundColor $SECONDARY
}
!endsub

!startsub partition

skinparam partition {
	BorderColor $PRIMARY
	FontColor $PRIMARY
	BackgroundColor $BGCOLOR
}
!endsub

!startsub collections

skinparam collections {
	$primary_scheme()
}
!endsub

!startsub control

skinparam control {
	$primary_scheme()
}
!endsub

!startsub entity

skinparam entity {
	$primary_scheme()
}
!endsub

!startsub boundary

skinparam boundary {
	$primary_scheme()
}
!endsub

!startsub agent

skinparam agent {
	BackgroundColor $WARNING
	BorderColor $WARNING_LIGHT
	FontColor $DARK
}
!endsub

!startsub note

skinparam note {
	BorderThickness 1
	BackgroundColor $INFO
	BorderColor $INFO_DARK
	FontColor $WHITE
}
!endsub

!startsub artifact

skinparam artifact {
	BackgroundColor $BGCOLOR
	BorderColor $DARK_DARK
	FontColor $DARK_DARK
}
!endsub

!startsub component

skinparam component {
	$primary_scheme()
}
!endsub

!startsub interface

skinparam interface {
	BackgroundColor  $BGCOLOR
	BorderColor  $DANGER
	FontColor $DARK
}
!endsub

!startsub storage

skinparam storage {
	BackgroundColor $BGCOLOR
  	BorderColor $WARNING_DARK
	FontColor $WARNING_DARK
}
!endsub

!startsub node

skinparam node {
	BackgroundColor  $BGCOLOR
	BorderColor $LIGHT
	FontColor $LIGHT
}
!endsub

!startsub cloud

skinparam cloud {
	BackgroundColor transparent
	BorderColor #F2FCFE
	FontColor $PRIMARY_TEXT
}
!endsub

!startsub database

skinparam database {
	$primary_scheme()
}
!endsub

!startsub class

skinparam class {
	$primary_scheme()
	HeaderBackgroundColor $BGCOLOR
	StereotypeFontColor $DARK
	BorderThickness 1
	AttributeFontColor $DARK
	AttributeFontSize 11
}
!endsub

!startsub object

skinparam object {
	$primary_scheme()
	StereotypeFontColor $PRIMARY_TEXT
	BorderThickness 1
	AttributeFontColor $PRIMARY_TEXT
	AttributeFontSize 11
}
!endsub

!startsub usecase

skinparam usecase {
	$primary_scheme()
	BorderThickness 2
	StereotypeFontColor $PRIMARY
}
!endsub

!startsub rectangle

skinparam rectangle {
	$primary_scheme()
	BorderThickness 2
	StereotypeFontColor $PRIMARY
}
!endsub

!startsub package

skinparam package {
	BackgroundColor $BGCOLOR
  	BorderColor $PRIMARY
	FontColor $PRIMARY
	BorderThickness 2
}
!endsub

!startsub folder

skinparam folder {
	BackgroundColor $BGCOLOR
  	BorderColor $WARNING
	FontColor $WARNING
	BorderThickness 2
}
!endsub

!startsub frame

skinparam frame {
	BackgroundColor $BGCOLOR
  	BorderColor $INFO
	FontColor $INFO
	BorderThickness 2
}
!endsub

!startsub state

skinparam state {
	$primary_scheme()
	StartColor $INFO
	EndColor $INFO
	AttributeFontColor $SECONDARY_TEXT
	AttributeFontSize 11
}
!endsub

!startsub queue

skinparam queue {
	$primary_scheme()
}
!endsub

!startsub card

skinparam card {
	BackgroundColor $BGCOLOR
	BorderColor $INFO_DARK
	FontColor $INFO_DARK
}
!endsub

!startsub file

skinparam file {
	BackgroundColor $BGCOLOR
	BorderColor $LIGHT
	FontColor $LIGHT
}
!endsub

!startsub stack

skinparam stack {
	$primary_scheme()
}
!endsub

!if %variable_exists("$THEME")
title Work Breakdown Diagram - $THEME theme
!else
title Work Breakdown Diagram
!endif

!$DIAGRAM = "wbs"

+ New Job
++ Decide on Job Requirements
+++ Identity gaps
+++ Review JDs
++++ Sign-Up for courses
++++ Volunteer
++++ Reading
++- Checklist
+++- Responsibilities
+++- Location
++ CV Upload Done
+++ CV Updated
++++ Spelling & Grammar
++++ Check dates
- - - - Skills
+++ Recruitment sites chosen
@endwbs

@startwbs



skinparam backgroundColor transparent
skinparam useBetaStyle false
skinparam handwritten true
skinparam shadowing false







skinparam defaultFontName       "Segoe Print"
skinparam defaultFontSize       12
skinparam dpi                   100
skinparam shadowing             false
skinparam roundcorner           8
skinparam ParticipantPadding    40
skinparam BoxPadding            40
skinparam Padding               5
skinparam ArrowColor            #555555
skinparam stereotype {
    CBackgroundColor transparent
    CBorderColor #4d4d4d
    ABackgroundColor transparent
    ABorderColor #24963e
    IBackgroundColor transparent
    IBorderColor #c6303e
    EBackgroundColor transparent
    EBorderColor #e6ae06
    NBackgroundColor transparent
    NBorderColor #1592a6
}
skinparam title {
	FontColor	                 #2e2e2e
	BorderColor	                 #4d4d4d
	FontSize	    	         20
	BorderRoundCorner            8
	BorderThickness 	         1
	BackgroundColor              transparent
}

skinparam legend {
	BackgroundColor transparent
	BorderColor #4d4d4d
	FontColor #2e2e2e
}

skinparam swimlane {
	BorderColor #17a2b8
	BorderThickness 2
	TitleBackgroundColor  transparent
	TitleFontColor #2e2e2e
}


skinparam activity {
		FontColor #2e2e2e
	BorderColor #333333
	BackgroundColor transparent
	BarColor #28a745
	StartColor #17a2b8
	EndColor #17a2b8
	DiamondBackgroundColor transparent
  	DiamondBorderColor #4d4d4d
  	DiamondFontColor #2e2e2e
}


skinparam participant {
		FontColor #2e2e2e
	BorderColor #333333
	BackgroundColor transparent
	ParticipantBorderThickness 2
}


skinparam actor {
		FontColor #2e2e2e
	BorderColor #333333
	BackgroundColor transparent
}


skinparam arrow {
	Thickness 3
	Color #333333
	FontColor #2e2e2e
}


skinparam sequence {
	BorderColor #333333
	TitleFontColor #2e2e2e
	BackgroundColor transparent
	StartColor #333333
	EndColor #333333
	BoxBackgroundColor transparent
	BoxBorderColor #555555
	BoxFontColor #555555
	LifeLineBorderColor #555555
	LifeLineBorderThickness 2
	LifeLineBackgroundColor #4d4d4d
	GroupBorderColor #555555
	GroupFontColor #555555
	GroupHeaderFontColor #17a2b8
	GroupBackgroundColor #555555
	GroupHeaderBackgroundColor transparent
	DividerBackgroundColor #555555
    DividerBorderColor #555555
    DividerBorderThickness 2
    DividerFontColor #ffffff
	ReferenceBackgroundColor transparent
	ReferenceBorderColor #555555
	ReferenceFontColor #555555
	ReferenceHeaderFontColor #17a2b8
	ReferenceHeaderBackgroundColor #555555
}


skinparam partition {
	BorderColor #333333
	FontColor #333333
	BackgroundColor transparent
}


skinparam collections {
		FontColor #2e2e2e
	BorderColor #333333
	BackgroundColor transparent
}


skinparam control {
		FontColor #2e2e2e
	BorderColor #333333
	BackgroundColor transparent
}


skinparam entity {
		FontColor #2e2e2e
	BorderColor #333333
	BackgroundColor transparent
}


skinparam boundary {
		FontColor #2e2e2e
	BorderColor #333333
	BackgroundColor transparent
}


skinparam agent {
	BackgroundColor #ffc107
	BorderColor #ffc720
	FontColor #555555
}


skinparam note {
	BorderThickness 1
	BackgroundColor #17a2b8
	BorderColor #1592a6
	FontColor #ffffff
}


skinparam artifact {
	BackgroundColor transparent
	BorderColor #4d4d4d
	FontColor #4d4d4d
}


skinparam component {
		FontColor #2e2e2e
	BorderColor #333333
	BackgroundColor transparent
}


skinparam interface {
	BackgroundColor  transparent
	BorderColor  #dc3545
	FontColor #555555
}


skinparam storage {
	BackgroundColor transparent
  	BorderColor #e6ae06
	FontColor #e6ae06
}


skinparam node {
	BackgroundColor  transparent
	BorderColor #ffffff
	FontColor #ffffff
}


skinparam cloud {
	BackgroundColor transparent
	BorderColor #F2FCFE
	FontColor #2e2e2e
}


skinparam database {
		FontColor #2e2e2e
	BorderColor #333333
	BackgroundColor transparent
}


skinparam class {
		FontColor #2e2e2e
	BorderColor #333333
	BackgroundColor transparent
	HeaderBackgroundColor transparent
	StereotypeFontColor #555555
	BorderThickness 1
	AttributeFontColor #555555
	AttributeFontSize 11
}


skinparam object {
		FontColor #2e2e2e
	BorderColor #333333
	BackgroundColor transparent
	StereotypeFontColor #2e2e2e
	BorderThickness 1
	AttributeFontColor #2e2e2e
	AttributeFontSize 11
}


skinparam usecase {
		FontColor #2e2e2e
	BorderColor #333333
	BackgroundColor transparent
	BorderThickness 2
	StereotypeFontColor #333333
}


skinparam rectangle {
		FontColor #2e2e2e
	BorderColor #333333
	BackgroundColor transparent
	BorderThickness 2
	StereotypeFontColor #333333
}


skinparam package {
	BackgroundColor transparent
  	BorderColor #333333
	FontColor #333333
	BorderThickness 2
}


skinparam folder {
	BackgroundColor transparent
  	BorderColor #ffc107
	FontColor #ffc107
	BorderThickness 2
}


skinparam frame {
	BackgroundColor transparent
  	BorderColor #17a2b8
	FontColor #17a2b8
	BorderThickness 2
}


skinparam state {
		FontColor #2e2e2e
	BorderColor #333333
	BackgroundColor transparent
	StartColor #17a2b8
	EndColor #17a2b8
	AttributeFontColor #ffffff
	AttributeFontSize 11
}


skinparam queue {
		FontColor #2e2e2e
	BorderColor #333333
	BackgroundColor transparent
}


skinparam card {
	BackgroundColor transparent
	BorderColor #1592a6
	FontColor #1592a6
}


skinparam file {
	BackgroundColor transparent
	BorderColor #ffffff
	FontColor #ffffff
}


skinparam stack {
		FontColor #2e2e2e
	BorderColor #333333
	BackgroundColor transparent
}

title Work Breakdown Diagram - sketchy-outline theme


+ New Job
++ Decide on Job Requirements
+++ Identity gaps
+++ Review JDs
++++ Sign-Up for courses
++++ Volunteer
++++ Reading
++- Checklist
+++- Responsibilities
+++- Location
++ CV Upload Done
+++ CV Updated
++++ Spelling & Grammar
++++ Check dates
- - - - Skills
+++ Recruitment sites chosen
@endwbs

PlantUML version 1.2021.01(Mon Feb 01 23:55:08 PST 2021)
(GPL source distribution)
Java Runtime: OpenJDK Runtime Environment
JVM: OpenJDK 64-Bit Server VM
Default Encoding: UTF-8
Language: en
Country: US
--></g></svg>