<?xml version="1.0" encoding="UTF-8" standalone="no"?><svg xmlns="http://www.w3.org/2000/svg" xmlns:xlink="http://www.w3.org/1999/xlink" contentScriptType="application/ecmascript" contentStyleType="text/css" height="518.75px" preserveAspectRatio="none" style="width:793px;height:518px;background:#00000000;" version="1.1" viewBox="0 0 793 518" width="793.75px" zoomAndPan="magnify"><defs/><g><polygon points="80.2083,15.625,80.2083,15.8439,90.5544,15.1934,100.9004,15.8263,111.2465,16.0413,121.5925,14.8819,131.9386,15.544,142.2846,15.1807,152.6306,15.2255,162.9767,15.554,173.3227,14.9048,183.6688,16.2017,194.0148,14.9685,204.3609,15.419,214.7069,16.0749,225.053,15.5356,235.399,15.6961,245.7451,15.5917,256.0911,15.811,266.4371,15.8741,276.7832,16.2351,287.1292,16.324,297.4753,16.3326,307.8213,15.8902,318.1674,16.1079,328.5134,16.3565,338.8595,14.8738,349.2055,16.3318,359.5516,15.3161,369.8976,16.1811,380.2436,15.1094,390.5897,15.5536,400.9357,16.3975,411.2818,15.5742,421.6278,15.7347,431.9739,15.9777,442.3199,16.0586,452.666,15.6209,463.012,15.9242,473.3581,15.0287,483.7041,15.9212,494.0501,16.196,504.3962,16.0881,514.7422,16.2636,525.0883,15.1218,535.4343,14.9456,545.7804,14.9777,556.1264,15.5637,566.4725,15.4203,576.8185,16.3348,587.1645,15.443,597.5106,15.2677,607.8566,15.8628,618.2027,14.9304,628.5487,15.0842,638.8948,16.301,649.2408,16.0788,659.5869,16.3901,669.9329,15.2898,680.279,15.9575,690.625,15.625,690.7035,15.8144,691.1515,15.7175,691.7908,16.0824,692.4095,16.3976,693.0686,16.8104,693.5713,16.8454,693.5699,16.8448,693.9637,17.4961,693.8818,17.9503,694.0863,18.5232,694.7091,19.2693,694.7917,19.7917,694.5427,19.7917,694.9684,27.1419,694.8634,34.4922,694.6986,41.8424,694.6688,49.1927,694.7917,56.543,694.9388,56.6039,694.4516,57.0925,694.4934,57.8001,693.8821,58.2373,694.0134,58.982,693.5713,59.4892,693.6356,59.6446,693.0146,59.8119,692.399,59.9925,691.9001,60.4546,691.2958,60.6624,690.625,60.7096,690.625,60.8859,680.279,60.989,669.9329,60.5739,659.5869,61.4559,649.2408,60.871,638.8948,60.8894,628.5487,60.0759,618.2027,60.2875,607.8566,61.2625,597.5106,61.1573,587.1645,60.6649,576.8185,60.374,566.4725,60.4816,556.1264,59.9949,545.7804,61.1417,535.4343,61.48,525.0883,61.258,514.7422,61.4335,504.3962,60.5672,494.0501,60.8005,483.7041,60.3059,473.3581,61.0055,463.012,60.9667,452.666,61.285,442.3199,60.4704,431.9739,60.5696,421.6278,61.1716,411.2818,61.3006,400.9357,60.1757,390.5897,60.5077,380.2436,60.8651,369.8976,60.0733,359.5516,61.0778,349.2055,60.9784,338.8595,60.6047,328.5134,60.8578,318.1674,61.4687,307.8213,60.3837,297.4753,61.0377,287.1292,61.0072,276.7832,60.8302,266.4371,60.8564,256.0911,60.8278,245.7451,60.0595,235.399,60.2921,225.053,60.2289,214.7069,60.7761,204.3609,60.8014,194.0148,60.8781,183.6688,60.4065,173.3227,60.6393,162.9767,60.5844,152.6306,61.3105,142.2846,61.154,131.9386,60.2039,121.5925,60.6337,111.2465,60.1084,100.9004,61.01,90.5544,61.3435,80.2083,60.7096,80.2807,60.8843,79.5612,60.3258,79.0915,60.3703,78.3419,59.7391,77.8779,59.7975,77.2621,59.4892,77.166,59.4495,77.049,58.9128,76.851,58.3427,76.6813,57.7842,76.0548,57.0366,76.0417,56.543,76.2068,56.543,76.1035,49.1927,76.165,41.8424,76.3013,34.4922,76.0436,27.1419,76.0417,19.7917,76.0979,19.815,76.3542,19.2308,76.5931,18.6394,76.7736,18.0238,77.246,17.5291,77.2621,16.8454,77.181,16.6498,77.9264,16.7826,78.3577,16.1571,78.958,15.9398,79.6244,15.8819,80.2083,15.625" style="stroke:#4D4D4D;stroke-width:1.0416666666666667;fill:none;"/><text fill="#2E2E2E" font-family="&quot;Segoe Print&quot;" font-size="20.8333" font-weight="bold" lengthAdjust="spacing" textLength="597.9167" x="86.4583" y="45.3796">Work Breakdown Diagram - sketchy-outline theme</text><polygon fill="#FEFECE" points="348.9583,66.9596,348.9583,67.1786,359.5238,66.5281,370.0893,67.161,380.6548,67.376,391.2202,66.2165,401.7857,66.8787,412.3512,66.5154,422.9167,66.9596,422.8657,66.8366,423.4969,67.1818,424.0033,67.226,424.758,67.8695,425.1899,67.7338,425.8629,68.18,425.7995,68.1537,426.2456,68.8267,426.3236,69.3471,426.6171,69.9569,426.829,70.5328,427.0833,71.1263,427.1453,71.1263,427.1664,78.6198,427.2867,86.1133,427.3163,93.6068,427.3192,101.1003,427.0833,108.5938,427.165,108.6276,426.988,109.2446,426.8204,109.8656,426.1198,110.2657,426.3247,111.0409,425.8629,111.54,425.8235,111.4449,425.3446,111.9553,424.6187,111.8694,424.0861,112.2503,423.6045,112.7542,422.9167,112.7604,422.9167,112.7097,412.3512,112.8701,401.7857,113.1132,391.2202,113.194,380.6548,112.7563,370.0893,113.0596,359.5238,112.1641,348.9583,112.7604,348.9961,112.8516,348.4419,112.6922,347.8389,112.4149,347.272,112.2248,346.5371,111.6291,346.0121,111.54,345.8028,111.4534,345.5686,110.8682,345.505,110.3537,345.2168,109.7461,345.2543,109.2735,344.7917,108.5938,344.731,108.5938,344.6726,101.1003,344.8709,93.6068,344.5601,86.1133,344.6114,78.6198,344.7917,71.1263,344.9998,71.2125,345.1755,70.5949,345.5154,70.0454,345.4207,69.3158,345.8704,68.8117,346.0121,68.18,346.0905,68.3694,346.5385,67.7844,347.1778,67.6611,347.7966,67.4882,348.4557,67.4128,348.9583,66.9596" style="stroke:#A80036;stroke-width:1.5625;"/><text fill="#000000" font-family="&quot;Segoe Print&quot;" font-size="12.5" lengthAdjust="spacing" textLength="51.0417" x="360.4167" y="94.1874">New Job</text><path d="M385.9375,112.7604 L386.0348,112.7604 L385.7457,116.9271 L386.027,121.0938 L386.1225,125.2604 L385.6072,129.4271 L385.9375,133.5938 " fill="none" style="stroke:#333333;stroke-width:3.125;"/><path d="M208.3333,133.5938 L208.4306,133.5938 L208.1415,137.7604 L208.4228,141.9271 L208.5184,146.0938 L208.0031,150.2604 L208.3333,154.4271 " fill="none" style="stroke:#333333;stroke-width:3.125;"/><polygon fill="#FEFECE" points="104.6875,154.4271,104.6875,154.646,115.0521,153.9955,125.4167,154.6284,135.7813,154.8434,146.1458,153.684,156.5104,154.3461,166.875,153.9828,177.2396,154.0276,187.6042,154.3561,197.9688,153.7069,208.3333,155.0038,218.6979,153.7705,229.0625,154.2211,239.4271,154.877,249.7917,154.3377,260.1563,154.4982,270.5208,154.3938,280.8854,154.613,291.25,154.6762,301.6146,155.0372,311.9792,154.4271,312.0683,154.6424,312.6587,154.8891,313.1915,154.9969,313.8085,155.308,314.4295,155.6287,314.9254,155.6475,314.6941,155.5516,315.3872,156.3269,315.3185,156.7866,315.8289,157.4862,315.743,157.9387,316.1458,158.5938,316.122,158.5938,316.4033,166.0872,316.1289,173.5807,316.1824,181.0742,316.2634,188.5677,316.1458,196.0612,316.2794,196.1165,315.9005,196.6499,315.7498,197.2779,315.23,197.7529,315.2608,198.456,314.9254,199.0075,314.9983,199.1833,314.3953,199.3942,313.8284,199.6923,313.0935,199.5847,312.4818,199.7746,311.9792,200.2279,311.9792,199.5806,301.6146,200.1665,291.25,200.0231,280.8854,200.9377,270.5208,200.0459,260.1563,199.8705,249.7917,200.4656,239.4271,199.5332,229.0625,199.6871,218.6979,200.9039,208.3333,200.6817,197.9688,200.993,187.6042,199.8927,177.2396,200.5604,166.875,200.8429,156.5104,199.7358,146.1458,200.128,135.7813,200.3591,125.4167,200.9068,115.0521,200.2235,104.6875,200.2279,104.749,200.3763,104.0247,199.8061,103.419,199.5225,102.9867,199.6572,102.2352,199.0216,101.7412,199.0075,101.9045,199.0751,101.5634,198.4457,101.1671,197.7934,100.8955,197.1927,100.9121,196.7114,100.5208,196.0612,100.4169,196.0612,100.7263,188.5677,100.3289,181.0742,100.7352,173.5807,100.689,166.0872,100.5208,158.5938,100.5994,158.6263,100.7801,158.0108,101.2421,157.5118,101.4499,156.9075,101.5514,156.2592,101.7412,155.6475,101.7769,155.7335,102.3132,155.3616,103.0149,155.3891,103.5296,154.9649,104.1212,154.7265,104.6875,154.4271" style="stroke:#A80036;stroke-width:1.5625;"/><text fill="#000000" font-family="&quot;Segoe Print&quot;" font-size="12.5" lengthAdjust="spacing" textLength="184.375" x="116.1458" y="181.6549">Decide on Job Requirements</text><path d="M197.9167,238.7533 L197.9167,238.8506 L200,238.5614 L202.0833,238.8427 L204.1667,238.9383 L206.25,238.423 L208.3333,238.7533 " fill="none" style="stroke:#333333;stroke-width:3.125;"/><polygon fill="#FEFECE" points="112.5,215.8529,112.5,216.0718,122.6563,215.4213,132.8125,216.0542,142.9688,216.2692,153.125,215.1097,163.2813,215.7719,173.4375,215.4086,183.5938,215.4534,193.75,215.8529,193.7409,215.831,194.2474,215.8752,195.0021,216.5186,195.434,216.3829,196.0807,216.7657,196.6963,217.0733,196.8348,217.1306,196.9128,217.6511,197.2063,218.2608,197.4183,218.8368,197.7299,219.454,197.9167,220.0195,197.9997,220.0195,198.12,227.513,198.1497,235.0065,198.1525,242.5,198.0051,249.9935,197.9167,257.487,198.0654,257.5486,197.8979,258.1695,197.1972,258.5697,197.4021,259.3449,196.8452,259.8046,196.6963,260.4333,196.7672,260.6045,196.0412,260.5185,195.5087,260.8994,195.0271,261.4034,194.3328,261.3939,193.75,261.6536,193.75,261.7633,183.5938,262.0064,173.4375,262.0872,163.2813,261.6496,153.125,261.9528,142.9688,261.0574,132.8125,261.9499,122.6563,262.2247,112.5,261.6536,112.5591,261.7962,111.9922,261.6062,111.2573,261.0105,110.6456,260.7122,110.0604,260.478,109.5537,260.4333,109.5348,260.4254,109.2466,259.8179,109.2842,259.3453,108.7655,258.6423,108.4674,258.0307,108.3333,257.487,108.4126,257.487,108.1018,249.9935,108.1531,242.5,108.5587,235.0065,108.4846,227.513,108.3333,220.0195,108.569,220.1171,108.4742,219.3875,108.9239,218.8834,109.255,218.3302,109.1581,217.5997,109.5537,217.0733,109.541,217.0425,110.1597,216.8696,110.8188,216.7942,111.3209,216.3397,111.9722,216.2453,112.5,215.8529" style="stroke:#A80036;stroke-width:1.5625;"/><text fill="#000000" font-family="&quot;Segoe Print&quot;" font-size="12.5" lengthAdjust="spacing" textLength="58.3333" x="123.9583" y="243.0806">Checklist</text><path d="M142.7083,300.179 L142.7083,300.2763 L144.7917,299.9872 L146.875,300.2685 L148.9583,300.3641 L151.0417,299.8488 L153.125,300.179 " fill="none" style="stroke:#333333;stroke-width:3.125;"/><polygon fill="#FEFECE" points="14.5833,277.2786,14.5833,277.4976,24.9132,276.8471,35.2431,277.48,45.5729,277.695,55.9028,276.5355,66.2326,277.1977,76.5625,276.8344,86.8924,276.8792,97.2222,277.2076,107.5521,276.5585,117.8819,277.8554,128.2118,276.6221,138.5417,277.2786,138.5154,277.2152,139.1883,277.6613,139.7088,277.7393,140.3185,278.0328,140.8944,278.2447,141.4879,278.499,141.5452,278.5228,141.8087,279.1201,142.164,279.7554,142.4354,280.356,142.6822,280.9463,142.7083,281.4453,142.7967,281.4453,142.8693,288.9388,142.9522,296.4323,142.4579,303.9258,142.9439,311.4193,142.7083,318.9128,142.6132,318.8734,142.6355,319.5729,142.0614,320.0255,141.9541,320.6714,141.9699,321.3683,141.4879,321.859,141.4815,321.8434,140.9127,322.1369,140.3544,322.4558,139.7755,322.7248,139.1304,322.8341,138.5417,323.0794,138.5417,323.3786,128.2118,322.4832,117.8819,323.3757,107.5521,323.6505,97.2222,323.5425,86.8924,323.718,76.5625,322.5762,66.2326,322.4001,55.9028,322.4321,45.5729,323.0181,35.2431,322.8747,24.9132,323.7892,14.5833,323.0794,14.5601,323.0234,13.9485,322.7253,13.4352,322.6645,12.727,322.1333,12.1573,321.9366,11.6371,321.859,11.8452,321.9453,11.5327,321.3277,11.3845,320.7781,10.8016,320.0485,10.7631,319.5444,10.4167,318.9128,10.6217,318.9128,10.2526,311.4193,10.3834,303.9258,10.4604,296.4323,10.643,288.9388,10.4167,281.4453,10.4153,281.4448,10.8091,280.9175,10.7272,280.1932,10.9316,279.5876,11.5545,279.1552,11.6371,278.499,11.5418,278.269,12.2939,278.4182,12.843,278.0772,13.3692,277.6809,13.9471,277.4092,14.5833,277.2786" style="stroke:#A80036;stroke-width:1.5625;"/><text fill="#000000" font-family="&quot;Segoe Print&quot;" font-size="12.5" lengthAdjust="spacing" textLength="101.0417" x="26.0417" y="304.5064">Responsibilities</text><path d="M142.7083,361.6048 L142.7083,361.7021 L144.7917,361.413 L146.875,361.6943 L148.9583,361.7899 L151.0417,361.2745 L153.125,361.6048 " fill="none" style="stroke:#333333;stroke-width:3.125;"/><polygon fill="#FEFECE" points="60.4167,338.7044,60.4167,338.9234,70.1823,338.2728,79.9479,338.9058,89.7135,339.1208,99.4792,337.9613,109.2448,338.6235,119.0104,338.2602,128.776,338.3049,138.5417,338.7044,138.5326,338.6826,139.0391,338.7267,139.7937,339.3702,140.2257,339.2345,140.8724,339.6173,141.4879,339.9248,141.6265,339.9822,141.7045,340.5027,141.998,341.1124,142.2099,341.6883,142.5215,342.3056,142.7083,342.8711,142.7914,342.8711,142.9117,350.3646,142.9413,357.8581,142.9442,365.3516,142.7967,372.8451,142.7083,380.3385,142.857,380.4001,142.6895,381.0211,141.9888,381.4212,142.1938,382.1965,141.6369,382.6562,141.4879,383.2848,141.5589,383.4561,140.8329,383.3701,140.3003,383.751,139.8187,384.255,139.1244,384.2455,138.5417,384.5052,138.5417,384.6149,128.776,384.8579,119.0104,384.9388,109.2448,384.5011,99.4792,384.8044,89.7135,383.9089,79.9479,384.8014,70.1823,385.0762,60.4167,384.5052,60.4757,384.6478,59.9089,384.4578,59.174,383.8621,58.5622,383.5638,57.9771,383.3296,57.4704,383.2848,57.4515,383.277,57.1633,382.6695,57.2008,382.1969,56.6821,381.4938,56.384,380.8822,56.25,380.3385,56.3293,380.3385,56.0185,372.8451,56.0697,365.3516,56.4753,357.8581,56.4013,350.3646,56.25,342.8711,56.4856,342.9687,56.3908,342.2391,56.8406,341.735,57.1716,341.1818,57.0748,340.4513,57.4704,339.9248,57.4577,339.8941,58.0764,339.7212,58.7355,339.6457,59.2376,339.1912,59.8889,339.0969,60.4167,338.7044" style="stroke:#A80036;stroke-width:1.5625;"/><text fill="#000000" font-family="&quot;Segoe Print&quot;" font-size="12.5" lengthAdjust="spacing" textLength="55.2083" x="71.875" y="365.9322">Location</text><path d="M153.125,261.6536 L153.4169,261.6536 L152.5496,271.6488 L153.3935,281.6439 L153.6801,291.639 L152.1342,301.6341 L153.0171,311.6292 L152.5326,321.6243 L152.5924,331.6195 L153.0303,341.6146 L152.1648,351.6097 L153.125,361.6048 " fill="none" style="stroke:#333333;stroke-width:3.125;"/><path d="M208.3333,238.7533 L208.3333,238.8506 L210.4167,238.5614 L212.5,238.8427 L214.5833,238.9383 L216.6667,238.423 L218.75,238.7533 " fill="none" style="stroke:#333333;stroke-width:3.125;"/><polygon fill="#FEFECE" points="222.9167,215.8529,222.9167,216.0718,233.6458,215.4213,244.375,216.0542,255.1042,216.2692,265.8333,215.1097,276.5625,215.7719,287.2917,215.4086,298.0208,215.4534,308.75,215.7819,319.4792,215.1327,330.2083,215.8529,330.2819,216.0305,330.7138,215.8948,331.3606,216.2776,332.0335,216.7237,332.554,216.8017,333.1546,217.0733,333.1765,217.0823,333.3884,217.6583,333.7,218.2755,333.9636,218.8728,334.3188,219.5081,334.375,220.0195,334.608,220.0195,334.6109,227.513,334.4634,235.0065,334.536,242.5,334.6188,249.9935,334.375,257.487,334.1436,257.3912,334.3486,258.1664,333.7917,258.6261,333.814,259.3257,333.2399,259.7782,333.1546,260.4333,333.1455,260.4113,332.6639,260.9152,331.9696,260.9058,331.4008,261.1993,330.8426,261.5182,330.2083,261.6536,330.2083,262.0872,319.4792,261.6496,308.75,261.9528,298.0208,261.0574,287.2917,261.9499,276.5625,262.2247,265.8333,262.1167,255.1042,262.2922,244.375,261.1504,233.6458,260.9743,222.9167,261.6536,222.8341,261.4543,222.3196,261.3907,221.712,261.1024,221.2394,261.14,220.5364,260.6213,219.9704,260.4333,219.8603,260.3877,219.7995,259.8743,219.2683,259.1661,219.0716,258.5965,219.2023,258.1625,218.75,257.487,218.9013,257.487,219.005,249.9935,218.6383,242.5,218.8608,235.0065,218.955,227.513,218.75,220.0195,218.5985,219.9568,218.9633,219.4175,219.2786,218.8578,219.6913,218.3384,219.725,217.662,219.9704,217.0733,220.0319,217.2216,220.4861,216.6515,221.0589,216.3678,221.8051,216.5026,222.2321,215.867,222.9167,215.8529" style="stroke:#A80036;stroke-width:1.5625;"/><text fill="#000000" font-family="&quot;Segoe Print&quot;" font-size="12.5" lengthAdjust="spacing" textLength="84.375" x="234.375" y="243.0806">Identity gaps</text><path d="M208.3333,300.179 L208.3333,300.2763 L210.4167,299.9872 L212.5,300.2685 L214.5833,300.3641 L216.6667,299.8488 L218.75,300.179 " fill="none" style="stroke:#333333;stroke-width:3.125;"/><polygon fill="#FEFECE" points="222.9167,277.2786,222.9167,277.4976,232.9861,276.8471,243.0556,277.48,253.125,277.695,263.1944,276.5355,273.2639,277.1977,283.3333,276.8344,293.4028,276.8792,303.4722,277.2076,313.5417,277.2786,313.4498,277.0569,314.2045,277.7003,314.6364,277.5646,315.2832,277.9474,315.9561,278.3935,316.4879,278.499,316.4604,278.4876,316.7539,279.0974,316.9659,279.6733,317.2774,280.2905,317.541,280.8878,317.7083,281.4453,317.9117,281.4453,317.9413,288.9388,317.9442,296.4323,317.7967,303.9258,317.8693,311.4193,317.7083,318.9128,317.9336,319.0061,317.2329,319.4062,317.4378,320.1814,316.881,320.6411,316.9033,321.3407,316.4879,321.859,316.4222,321.7002,315.8896,322.0811,315.408,322.5851,314.7137,322.5756,314.1449,322.8691,313.5417,323.0794,313.5417,323.4322,303.4722,323.513,293.4028,323.0754,283.3333,323.3786,273.2639,322.4832,263.1944,323.3757,253.125,323.6505,243.0556,323.5425,232.9861,323.718,222.9167,323.0794,222.8525,322.9245,222.2408,322.6261,221.6556,322.3919,221.1411,322.3283,220.5335,322.0401,219.9704,321.859,220.189,321.9496,219.6703,321.2466,219.3722,320.6349,219.3114,320.1216,218.7802,319.4134,218.75,318.9128,218.5697,318.9128,218.9753,311.4193,218.9013,303.9258,219.005,296.4323,218.6383,288.9388,218.75,281.4453,218.8524,281.4877,219.1835,280.9345,219.0866,280.204,219.4515,279.6648,219.7667,279.105,219.9704,278.499,220.057,278.7081,220.5591,278.2536,221.2104,278.1593,221.6646,277.5892,222.2374,277.3055,222.9167,277.2786" style="stroke:#A80036;stroke-width:1.5625;"/><text fill="#000000" font-family="&quot;Segoe Print&quot;" font-size="12.5" lengthAdjust="spacing" textLength="67.7083" x="234.375" y="304.5064">Review JDs</text><path d="M268.2292,361.6048 L268.2292,361.7021 L270.3125,361.413 L272.3958,361.6943 L274.4792,361.7899 L276.5625,361.2745 L278.6458,361.6048 " fill="none" style="stroke:#333333;stroke-width:3.125;"/><polygon fill="#FEFECE" points="282.8125,338.7044,282.8125,338.9234,292.8819,338.2728,302.9514,338.9058,313.0208,339.1208,323.0903,337.9613,333.1597,338.6235,343.2292,338.2602,353.2986,338.3049,363.3681,338.6334,373.4375,337.9843,383.5069,339.2811,393.5764,338.0479,403.6458,338.4984,413.7153,339.1544,423.7847,338.6151,433.8542,338.7044,433.8632,338.7263,434.4392,338.9383,435.0564,339.2499,435.6537,339.5134,436.289,339.8686,436.8004,339.9248,437.0157,340.014,437.2624,340.6043,437.3703,341.1372,437.6814,341.7542,438.002,342.3751,438.0208,342.8711,437.7704,342.8711,438.2564,350.3646,437.9179,357.8581,438.2062,365.3516,437.849,372.8451,438.0208,380.3385,437.9989,380.3294,438.0147,381.0263,437.517,381.5106,437.3224,382.1203,437.1532,382.7406,436.8004,383.2848,436.8558,383.4183,436.2107,383.5276,435.6601,383.8651,434.9566,383.8334,434.4812,384.3524,433.8542,384.5052,433.8542,385.0762,423.7847,384.9683,413.7153,385.1438,403.6458,384.002,393.5764,383.8259,383.5069,383.8579,373.4375,384.4439,363.3681,384.3005,353.2986,385.215,343.2292,384.3233,333.1597,384.1479,323.0903,384.743,313.0208,383.8106,302.9514,383.9645,292.8819,385.1812,282.8125,384.5052,282.8704,384.645,282.3208,384.4967,281.5912,383.9138,281.0871,383.8754,280.5339,383.7183,279.8662,383.2848,279.7147,383.222,279.5914,382.6828,279.4185,382.123,279.3431,381.6037,278.8886,380.9272,278.6458,380.3385,278.8064,380.3385,278.4535,372.8451,278.4107,365.3516,278.8207,357.8581,278.3969,350.3646,278.6458,342.8711,278.8091,342.9387,278.9562,342.3093,279.048,341.657,279.2646,341.0563,279.7693,340.575,279.8662,339.9248,279.8264,339.8288,280.5341,339.8706,280.9713,339.2593,281.716,339.3906,282.2876,339.1039,282.8125,338.7044" style="stroke:#A80036;stroke-width:1.5625;"/><text fill="#000000" font-family="&quot;Segoe Print&quot;" font-size="12.5" lengthAdjust="spacing" textLength="128.125" x="294.2708" y="365.9322">Sign-Up for courses</text><path d="M268.2292,423.0306 L268.2292,423.1279 L270.3125,422.8388 L272.3958,423.1201 L274.4792,423.2156 L276.5625,422.7003 L278.6458,423.0306 " fill="none" style="stroke:#333333;stroke-width:3.125;"/><polygon fill="#FEFECE" points="282.8125,400.1302,282.8125,400.3491,293.6198,399.6986,304.4271,400.3315,315.2344,400.5465,326.0417,399.3871,336.849,400.0493,347.6563,399.6859,358.4635,399.7307,369.2708,400.1302,369.2618,400.1083,369.7682,400.1525,370.5229,400.796,370.9549,400.6603,371.6016,401.0431,372.2171,401.3506,372.3557,401.408,372.4337,401.9285,372.7272,402.5382,372.9391,403.1141,373.2507,403.7313,373.4375,404.2969,373.5205,404.2969,373.6409,411.7904,373.6705,419.2839,373.6734,426.7773,373.5259,434.2708,373.4375,441.7643,373.5862,441.8259,373.4187,442.4469,372.718,442.847,372.9229,443.6222,372.3661,444.0819,372.2171,444.7106,372.288,444.8818,371.5621,444.7959,371.0295,445.1768,370.5479,445.6807,369.8536,445.6713,369.2708,445.931,369.2708,446.0407,358.4635,446.2837,347.6563,446.3646,336.849,445.9269,326.0417,446.2302,315.2344,445.3347,304.4271,446.2272,293.6198,446.502,282.8125,445.931,282.8716,446.0736,282.3047,445.8836,281.5698,445.2879,280.9581,444.9895,280.3729,444.7553,279.8662,444.7106,279.8473,444.7028,279.5591,444.0952,279.5967,443.6226,279.078,442.9196,278.7799,442.308,278.6458,441.7643,278.7251,441.7643,278.4143,434.2708,278.4656,426.7773,278.8712,419.2839,278.7971,411.7904,278.6458,404.2969,278.8815,404.3945,278.7867,403.6649,279.2364,403.1608,279.5675,402.6076,279.4706,401.8771,279.8662,401.3506,279.8535,401.3198,280.4722,401.1469,281.1313,401.0715,281.6334,400.617,282.2847,400.5227,282.8125,400.1302" style="stroke:#A80036;stroke-width:1.5625;"/><text fill="#000000" font-family="&quot;Segoe Print&quot;" font-size="12.5" lengthAdjust="spacing" textLength="63.5417" x="294.2708" y="427.358">Volunteer</text><path d="M268.2292,484.4564 L268.2292,484.5537 L270.3125,484.2646 L272.3958,484.5459 L274.4792,484.6414 L276.5625,484.1261 L278.6458,484.4564 " fill="none" style="stroke:#333333;stroke-width:3.125;"/><polygon fill="#FEFECE" points="282.8125,461.556,282.8125,461.7749,293.6756,461.1244,304.5387,461.7573,315.4018,461.9723,326.2649,460.8129,337.128,461.475,347.9911,461.1117,358.8542,461.556,358.8032,461.433,359.4344,461.7782,359.9408,461.8224,360.6955,462.4658,361.1274,462.3301,361.8004,462.7764,361.737,462.7501,362.1831,463.423,362.2611,463.9435,362.5546,464.5532,362.7665,465.1292,363.0208,465.7227,363.0828,465.7227,363.1039,473.2161,363.2242,480.7096,363.2538,488.2031,363.2567,495.6966,363.0208,503.1901,363.1025,503.2239,362.9255,503.841,362.7579,504.4619,362.0573,504.862,362.2622,505.6373,361.8004,506.1364,361.761,506.0413,361.2821,506.5517,360.5562,506.4657,360.0236,506.8466,359.542,507.3506,358.8542,507.3568,358.8542,507.306,347.9911,507.4665,337.128,507.7095,326.2649,507.7903,315.4018,507.3527,304.5387,507.656,293.6756,506.7605,282.8125,507.3568,282.8503,507.448,282.2961,507.2885,281.6931,507.0112,281.1262,506.8212,280.3913,506.2255,279.8662,506.1364,279.657,506.0497,279.4228,505.4646,279.3592,504.95,279.0709,504.3425,279.1085,503.8699,278.6458,503.1901,278.5852,503.1901,278.5267,495.6966,278.7251,488.2031,278.4143,480.7096,278.4656,473.2161,278.6458,465.7227,278.854,465.8089,279.0297,465.1913,279.3696,464.6417,279.2748,463.9121,279.7245,463.408,279.8662,462.7764,279.9447,462.9658,280.3927,462.3808,281.032,462.2575,281.6507,462.0846,282.3098,462.0091,282.8125,461.556" style="stroke:#A80036;stroke-width:1.5625;"/><text fill="#000000" font-family="&quot;Segoe Print&quot;" font-size="12.5" lengthAdjust="spacing" textLength="53.125" x="294.2708" y="488.7838">Reading</text><path d="M268.2292,323.0794 L268.5211,323.0794 L267.6537,333.8379 L268.4976,344.5964 L268.7843,355.3548 L267.2383,366.1133 L268.1212,376.8717 L267.6368,387.6302 L267.6965,398.3887 L268.1345,409.1471 L267.2689,419.9056 L268.9981,430.6641 L267.3538,441.4225 L267.9545,452.181 L268.8291,462.9395 L268.11,473.6979 L268.2292,484.4564 " fill="none" style="stroke:#333333;stroke-width:3.125;"/><path d="M208.3333,200.2279 L208.6253,200.2279 L207.7579,210.223 L208.6018,220.2181 L208.8884,230.2132 L207.3425,240.2083 L208.2254,250.2035 L207.741,260.1986 L207.8007,270.1937 L208.2387,280.1888 L207.3731,290.1839 L208.3333,300.179 " fill="none" style="stroke:#333333;stroke-width:3.125;"/><path d="M527.0833,133.5938 L527.1806,133.5938 L526.8915,137.7604 L527.1728,141.9271 L527.2684,146.0938 L526.7531,150.2604 L527.0833,154.4271 " fill="none" style="stroke:#333333;stroke-width:3.125;"/><polygon fill="#FEFECE" points="463.0208,154.4271,463.0208,154.646,473.6979,153.9955,484.375,154.6284,495.0521,154.8434,505.7292,153.684,516.4063,154.3461,527.0833,153.9828,537.7604,154.0276,548.4375,154.3561,559.1146,153.7069,569.7917,155.0038,580.4688,153.7705,591.1458,154.4271,591.1196,154.3636,591.7925,154.8097,592.3129,154.8877,592.9227,155.1812,593.4986,155.3931,594.0921,155.6475,594.1494,155.6712,594.4129,156.2685,594.7682,156.9038,595.0396,157.5044,595.2863,158.0948,595.3125,158.5938,595.4009,158.5938,595.4735,166.0872,595.5563,173.5807,595.0621,181.0742,595.5481,188.5677,595.3125,196.0612,595.2174,196.0218,595.2397,196.7214,594.6655,197.1739,594.5583,197.8199,594.5741,198.5168,594.0921,199.0075,594.0856,198.9918,593.5168,199.2853,592.9586,199.6043,592.3797,199.8732,591.7346,199.9825,591.1458,200.2279,591.1458,200.527,580.4688,199.6316,569.7917,200.5241,559.1146,200.7989,548.4375,200.6909,537.7604,200.8664,527.0833,199.7247,516.4063,199.5485,505.7292,199.5806,495.0521,200.1665,484.375,200.0231,473.6979,200.9377,463.0208,200.2279,462.9976,200.1718,462.386,199.8737,461.8727,199.8129,461.1645,199.2817,460.5948,199.085,460.0746,199.0075,460.2827,199.0937,459.9702,198.4761,459.822,197.9266,459.2391,197.197,459.2006,196.6929,458.8542,196.0612,459.0592,196.0612,458.6901,188.5677,458.8209,181.0742,458.8979,173.5807,459.0805,166.0872,458.8542,158.5938,458.8528,158.5932,459.2466,158.066,459.1647,157.3417,459.3691,156.736,459.992,156.3036,460.0746,155.6475,459.9793,155.4175,460.7314,155.5667,461.2805,155.2256,461.8067,154.8293,462.3846,154.5577,463.0208,154.4271" style="stroke:#A80036;stroke-width:1.5625;"/><text fill="#000000" font-family="&quot;Segoe Print&quot;" font-size="12.5" lengthAdjust="spacing" textLength="105.2083" x="474.4792" y="181.6549">CV Upload Done</text><path d="M527.0833,238.7533 L527.0833,238.8506 L533.125,238.5614 L539.1667,238.8427 L545.2083,238.9383 L551.25,238.423 L557.2917,238.7533 " fill="none" style="stroke:#333333;stroke-width:3.125;"/><polygon fill="#FEFECE" points="561.4583,215.8529,561.4583,216.0718,571.4583,215.4213,581.4583,216.0542,591.4583,216.2692,601.4583,215.1097,611.4583,215.7719,621.4583,215.4086,631.4583,215.4534,641.4583,215.7819,651.4583,215.1327,661.4583,215.8529,661.5319,216.0305,661.9638,215.8948,662.6106,216.2776,663.2835,216.7237,663.804,216.8017,664.4046,217.0733,664.4265,217.0823,664.6384,217.6583,664.95,218.2755,665.2136,218.8728,665.5688,219.5081,665.625,220.0195,665.858,220.0195,665.8609,227.513,665.7134,235.0065,665.786,242.5,665.8688,249.9935,665.625,257.487,665.3936,257.3912,665.5986,258.1664,665.0417,258.6261,665.064,259.3257,664.4899,259.7782,664.4046,260.4333,664.3955,260.4113,663.9139,260.9152,663.2196,260.9058,662.6508,261.1993,662.0926,261.5182,661.4583,261.6536,661.4583,262.0872,651.4583,261.6496,641.4583,261.9528,631.4583,261.0574,621.4583,261.9499,611.4583,262.2247,601.4583,262.1167,591.4583,262.2922,581.4583,261.1504,571.4583,260.9743,561.4583,261.6536,561.3758,261.4543,560.8613,261.3907,560.2537,261.1024,559.7811,261.14,559.0781,260.6213,558.5121,260.4333,558.402,260.3877,558.3412,259.8743,557.81,259.1661,557.6133,258.5965,557.7439,258.1625,557.2917,257.487,557.4429,257.487,557.5467,249.9935,557.1799,242.5,557.4025,235.0065,557.4967,227.513,557.2917,220.0195,557.1401,219.9568,557.505,219.4175,557.8202,218.8578,558.233,218.3384,558.2666,217.662,558.5121,217.0733,558.5735,217.2216,559.0277,216.6515,559.6006,216.3678,560.3467,216.5026,560.7738,215.867,561.4583,215.8529" style="stroke:#A80036;stroke-width:1.5625;"/><text fill="#000000" font-family="&quot;Segoe Print&quot;" font-size="12.5" lengthAdjust="spacing" textLength="77.0833" x="572.9167" y="243.0806">CV Updated</text><path d="M601.0417,300.179 L601.0417,300.2763 L603.125,299.9872 L605.2083,300.2685 L607.2917,300.3641 L609.375,299.8488 L611.4583,300.179 " fill="none" style="stroke:#333333;stroke-width:3.125;"/><polygon fill="#FEFECE" points="541.6667,277.2786,541.6667,277.4976,552.7083,276.8471,563.75,277.48,574.7917,277.695,585.8333,276.5355,596.875,277.2786,596.8647,277.2537,597.4076,277.3859,598.0026,277.6438,598.6337,277.989,599.1402,278.0332,599.8213,278.499,599.9989,278.5726,599.8632,279.0045,600.246,279.6513,600.6921,280.3242,600.7701,280.8447,601.0417,281.4453,601.0654,281.4453,601.0306,288.9388,601.1037,296.4323,601.1247,303.9258,601.245,311.4193,601.0417,318.9128,601.2569,319.0019,601.0155,319.5923,600.6352,320.1251,600.4581,320.7421,600.2906,321.3631,599.8213,321.859,599.7254,321.6277,599.3222,322.3208,598.6034,322.2521,598.1244,322.7625,597.3985,322.6766,596.875,323.0794,596.875,323.0081,585.8333,323.8519,574.7917,323.0287,563.75,323.1891,552.7083,323.4322,541.6667,323.0794,541.722,323.213,541.0769,322.8341,540.5263,322.6834,539.8228,322.1636,539.3474,322.1943,538.7204,321.859,538.8962,321.9319,538.6189,321.3289,538.4289,320.762,537.8332,320.0271,537.5349,319.4154,537.5,318.9128,537.2842,318.9128,537.4796,311.4193,537.4318,303.9258,537.7366,296.4323,537.4393,288.9388,537.5,281.4453,537.39,281.3997,537.8173,280.8864,537.7742,280.1782,538.0657,279.6086,538.6845,279.1745,538.7204,278.499,538.7783,278.6388,539.4072,278.4906,539.8561,277.9076,540.5306,277.8692,541.1559,277.7121,541.6667,277.2786" style="stroke:#A80036;stroke-width:1.5625;"/><text fill="#000000" font-family="&quot;Segoe Print&quot;" font-size="12.5" lengthAdjust="spacing" textLength="32.2917" x="553.125" y="304.5064">Skills</text><path d="M611.4583,300.179 L611.4583,300.2763 L613.5417,299.9872 L615.625,300.2685 L617.7083,300.3641 L619.7917,299.8488 L621.875,300.179 " fill="none" style="stroke:#333333;stroke-width:3.125;"/><polygon fill="#FEFECE" points="626.0417,277.2786,626.0417,277.4976,636.1806,276.8471,646.3194,277.48,656.4583,277.695,666.5972,276.5355,676.7361,277.1977,686.875,276.8344,697.0139,276.8792,707.1528,277.2076,717.2917,276.5585,727.4306,277.8554,737.5694,276.6221,747.7083,277.0726,757.8472,277.7286,767.9861,277.1893,778.125,277.2786,778.1341,277.3005,778.71,277.5125,779.3272,277.8241,779.9245,278.0876,780.5598,278.4428,781.0713,278.499,781.2865,278.5882,781.5333,279.1785,781.6411,279.7114,781.9522,280.3284,782.2729,280.9494,782.2917,281.4453,782.0413,281.4453,782.5273,288.9388,782.1887,296.4323,782.477,303.9258,782.1198,311.4193,782.2917,318.9128,782.2697,318.9037,782.2855,319.6006,781.7879,320.0848,781.5932,320.6945,781.424,321.3148,781.0713,321.859,781.1266,321.9926,780.4815,322.1019,779.9309,322.4393,779.2275,322.4076,778.752,322.9266,778.125,323.0794,778.125,323.6505,767.9861,323.5425,757.8472,323.718,747.7083,322.5762,737.5694,322.4001,727.4306,322.4321,717.2917,323.0181,707.1528,322.8747,697.0139,323.7892,686.875,322.8975,676.7361,322.7221,666.5972,323.3172,656.4583,322.3848,646.3194,322.5387,636.1806,323.7554,626.0417,323.0794,626.0996,323.2192,625.55,323.071,624.8204,322.488,624.3163,322.4496,623.7631,322.2925,623.0954,321.859,622.9438,321.7963,622.8206,321.257,622.6476,320.6973,622.5722,320.1779,622.1177,319.5015,621.875,318.9128,622.0356,318.9128,621.6827,311.4193,621.6398,303.9258,622.0499,296.4323,621.6261,288.9388,621.875,281.4453,622.0383,281.5129,622.1854,280.8835,622.2772,280.2312,622.4937,279.6305,622.9985,279.1492,623.0954,278.499,623.0556,278.403,623.7633,278.4448,624.2005,277.8336,624.9452,277.9649,625.5168,277.6781,626.0417,277.2786" style="stroke:#A80036;stroke-width:1.5625;"/><text fill="#000000" font-family="&quot;Segoe Print&quot;" font-size="12.5" lengthAdjust="spacing" textLength="129.1667" x="637.5" y="304.5064">Spelling &amp; Grammar</text><path d="M611.4583,361.6048 L611.4583,361.7021 L613.5417,361.413 L615.625,361.6943 L617.7083,361.7899 L619.7917,361.2745 L621.875,361.6048 " fill="none" style="stroke:#333333;stroke-width:3.125;"/><polygon fill="#FEFECE" points="626.0417,338.7044,626.0417,338.9234,636.4583,338.2728,646.875,338.9058,657.2917,339.1208,667.7083,337.9613,678.125,338.6235,688.5417,338.2602,698.9583,338.3049,709.375,338.6334,719.7917,337.9843,730.2083,338.7044,730.2819,338.882,730.7138,338.7463,731.3606,339.1291,732.0335,339.5752,732.554,339.6532,733.1546,339.9248,733.1765,339.9339,733.3884,340.5098,733.7,341.127,733.9636,341.7244,734.3188,342.3597,734.375,342.8711,734.608,342.8711,734.6109,350.3646,734.4634,357.8581,734.536,365.3516,734.6188,372.8451,734.375,380.3385,734.1436,380.2427,734.3486,381.018,733.7917,381.4777,733.814,382.1772,733.2399,382.6298,733.1546,383.2848,733.1455,383.2628,732.6639,383.7668,731.9696,383.7573,731.4008,384.0508,730.8426,384.3698,730.2083,384.5052,730.2083,384.9388,719.7917,384.5011,709.375,384.8044,698.9583,383.9089,688.5417,384.8014,678.125,385.0762,667.7083,384.9683,657.2917,385.1438,646.875,384.002,636.4583,383.8259,626.0417,384.5052,625.9591,384.3059,625.4446,384.2422,624.837,383.954,624.3644,383.9916,623.6614,383.4729,623.0954,383.2848,622.9853,383.2392,622.9245,382.7259,622.3933,382.0177,622.1966,381.4481,622.3273,381.014,621.875,380.3385,622.0263,380.3385,622.13,372.8451,621.7633,365.3516,621.9858,357.8581,622.08,350.3646,621.875,342.8711,621.7235,342.8083,622.0883,342.2691,622.4036,341.7093,622.8163,341.1899,622.85,340.5135,623.0954,339.9248,623.1569,340.0732,623.6111,339.5031,624.1839,339.2194,624.9301,339.3541,625.3571,338.7185,626.0417,338.7044" style="stroke:#A80036;stroke-width:1.5625;"/><text fill="#000000" font-family="&quot;Segoe Print&quot;" font-size="12.5" lengthAdjust="spacing" textLength="81.25" x="637.5" y="365.9322">Check dates</text><path d="M611.4583,261.6536 L611.7503,261.6536 L610.8829,271.6488 L611.7268,281.6439 L612.0134,291.639 L610.4675,301.6341 L611.3504,311.6292 L610.866,321.6243 L610.9257,331.6195 L611.3637,341.6146 L610.4981,351.6097 L611.4583,361.6048 " fill="none" style="stroke:#333333;stroke-width:3.125;"/><path d="M527.0833,423.0306 L527.0833,423.1279 L529.1667,422.8388 L531.25,423.1201 L533.3333,423.2156 L535.4167,422.7003 L537.5,423.0306 " fill="none" style="stroke:#333333;stroke-width:3.125;"/><polygon fill="#FEFECE" points="541.6667,400.1302,541.6667,400.3491,552.1991,399.6986,562.7315,400.3315,573.2639,400.5465,583.7963,399.3871,594.3287,400.0493,604.8611,399.6859,615.3935,399.7307,625.9259,400.0592,636.4583,399.41,646.9907,400.7069,657.5231,399.4737,668.0556,399.9242,678.588,400.5802,689.1204,400.0409,699.6528,400.2013,710.1852,400.0969,720.7176,400.3162,731.25,400.1302,731.2818,400.2069,731.9171,400.5622,732.5177,400.8336,733.108,401.0803,733.6409,401.1882,734.1963,401.3506,734.345,401.4122,734.6656,402.0332,734.4531,402.4333,735.1462,403.2085,735.0775,403.6682,735.4167,404.2969,735.602,404.2969,735.2448,411.7904,735.3929,419.2839,735.6742,426.7773,735.3997,434.2708,735.4167,441.7643,735.4504,441.7783,735.2812,442.3986,735.062,442.9981,734.6832,443.5316,734.5325,444.1595,734.1963,444.7106,734.1202,444.527,733.6448,445.0459,733.0906,445.3746,732.4876,445.5854,731.9207,445.8836,731.25,445.931,731.25,445.4278,720.7176,445.2516,710.1852,445.2837,699.6528,445.8697,689.1204,445.7263,678.588,446.6408,668.0556,445.749,657.5231,445.5736,646.9907,446.1688,636.4583,445.2364,625.9259,445.3902,615.3935,446.607,604.8611,446.3848,594.3287,446.6961,583.7963,445.5958,573.2639,446.2635,562.7315,446.546,552.1991,445.4389,541.6667,445.931,541.6539,445.9002,541.0942,445.7273,540.5748,445.6519,539.8983,445.1974,539.3711,445.1031,538.7204,444.7106,538.5427,444.637,538.2591,444.0314,538.3938,443.599,537.7582,442.8476,537.9073,442.4212,537.5,441.7643,537.5717,441.7643,537.407,434.2708,537.3772,426.7773,537.6593,419.2839,537.3961,411.7904,537.5,404.2969,537.6899,404.3755,537.5668,403.6342,538.1862,403.2004,538.3876,402.5935,538.5549,401.9724,538.7204,401.3506,538.7267,401.3657,539.4062,401.3396,539.9804,401.0593,540.5106,400.6727,541.113,400.4603,541.6667,400.1302" style="stroke:#A80036;stroke-width:1.5625;"/><text fill="#000000" font-family="&quot;Segoe Print&quot;" font-size="12.5" lengthAdjust="spacing" textLength="166.6667" x="553.125" y="427.358">Recruitment sites chosen</text><path d="M527.0833,200.2279 L527.3753,200.2279 L526.5079,210.8375 L527.3518,221.4472 L527.6384,232.0568 L526.0925,242.6665 L526.9754,253.2761 L526.491,263.8858 L526.5507,274.4954 L526.9887,285.1051 L526.1231,295.7148 L527.8523,306.3244 L526.2079,316.9341 L526.8087,327.5437 L527.6833,338.1534 L526.9642,348.763 L527.1781,359.3727 L527.039,369.9823 L527.3313,380.592 L527.4155,391.2016 L527.8968,401.8113 L528.0154,412.4209 L527.0833,423.0306 " fill="none" style="stroke:#333333;stroke-width:3.125;"/><path d="M208.3333,133.5938 L208.3333,133.8857 L218.6156,133.0183 L228.8978,133.8622 L239.1801,134.1489 L249.4624,132.6029 L259.7446,133.4858 L270.0269,133.0014 L280.3091,133.0611 L290.5914,133.4991 L300.8737,132.6335 L311.1559,134.3627 L321.4382,132.7184 L331.7204,133.3191 L342.0027,134.1937 L352.2849,133.4746 L362.5672,133.6885 L372.8495,133.5494 L383.1317,133.8417 L393.414,133.9259 L403.6962,134.4072 L413.9785,134.5258 L424.2608,134.5372 L434.543,133.9474 L444.8253,134.2376 L455.1075,134.5691 L465.3898,132.5921 L475.672,134.5361 L485.9543,133.1819 L496.2366,134.3352 L506.5188,132.9062 L516.8011,133.4986 L527.0833,133.5938 " fill="none" style="stroke:#333333;stroke-width:3.125;"/><!--MD5=[0abca2f9b63495ca79914c326a8a23f9]
@startwbs

!$THEME = "sketchy-outline"

!if %not(%variable_exists("$BGCOLOR"))
!$BGCOLOR = "transparent"
!endif

skinparam backgroundColor $BGCOLOR
skinparam handwritten true
skinparam shadowing false

!$BLUE = "#007bff"
!$INDIGO = "#6610f2"
!$PURPLE = "#6f42c1"
!$PINK = "#e83e8c"
!$RED = "#dc3545"
!$ORANGE = "#fd7e14"
!$YELLOW = "#ffc107"
!$GREEN = "#28a745"
!$TEAL = "#20c997"
!$CYAN = "#17a2b8"
!$WHITE = "#ffffff"
!$GRAY = "#868e96"
!$GRAYDARK = "#333333"
!$PRIMARY = "#333333"
!$SECONDARY = "#555555"
!$SUCCESS = "#28a745"
!$INFO = "#17a2b8"
!$WARNING = "#ffc107"
!$DANGER = "#dc3545"
!$LIGHT = "#ffffff"
!$DARK = "#555555"

!$FGCOLOR = $WHITE
!$PRIMARY_DARK = "#2e2e2e"
!$PRIMARY_LIGHT = "#474747"
!$PRIMARY_TEXT = "#2e2e2e"
!$SECONDARY_DARK = "#4d4d4d"
!$SECONDARY_LIGHT = "#666666"
!$SECONDARY_TEXT = $WHITE
!$INFO_DARK = "#1592a6"
!$INFO_LIGHT = "#2eabbf"
!$INFO_TEXT = $WHITE
!$SUCCESS_DARK = "#24963e"
!$SUCCESS_LIGHT = "#3eb058"
!$SUCCESS_TEXT = $WHITE
!$WARNING_DARK = "#e6ae06"
!$WARNING_LIGHT = "#ffc720"
!$WARNING_TEXT = $WHITE
!$DANGER_DARK = "#c6303e"
!$DANGER_LIGHT = "#e04958"
!$DANGER_TEXT = $WHITE
!$DARK_DARK = "#4d4d4d"
!$DARK_LIGHT = "#666666"
!$LIGHT_DARK = "#e6e6e6"
!$LIGHT_LIGHT = "#ffffff"

!procedure $success($msg)
  <font color=$SUCCESS><b>$msg
!endprocedure

!procedure $failure($msg)
  <font color=$DANGER><b>$msg
!endprocedure

!procedure $warning($msg)
  <font color=$WARNING><b>$msg
!endprocedure

!procedure $primary_scheme()
	FontColor $PRIMARY_TEXT
	BorderColor $PRIMARY
	BackgroundColor $BGCOLOR
!endprocedure

skinparam defaultFontName       "Segoe Print"
skinparam defaultFontSize       12
skinparam dpi                   100
skinparam shadowing             false
skinparam roundcorner           8
skinparam ParticipantPadding    40
skinparam BoxPadding            40
skinparam Padding               5
skinparam ArrowColor            $DARK
skinparam stereotype {
    CBackgroundColor $BGCOLOR
    CBorderColor $SECONDARY_DARK
    ABackgroundColor $BGCOLOR
    ABorderColor $SUCCESS_DARK
    IBackgroundColor $BGCOLOR
    IBorderColor $DANGER_DARK
    EBackgroundColor $BGCOLOR
    EBorderColor $WARNING_DARK
    NBackgroundColor $BGCOLOR
    NBorderColor $INFO_DARK
}
skinparam title {
	FontColor	                 $PRIMARY_TEXT
	BorderColor	                 $SECONDARY_DARK
	FontSize	    	         20
	BorderRoundCorner            8
	BorderThickness 	         1
	BackgroundColor              $BGCOLOR
}

skinparam legend {
	BackgroundColor $BGCOLOR
	BorderColor $SECONDARY_DARK
	FontColor $PRIMARY_TEXT
}

!startsub swimlane
skinparam swimlane {
	BorderColor $INFO
	BorderThickness 2
	TitleBackgroundColor  $BGCOLOR
	TitleFontColor $PRIMARY_TEXT
}
!endsub

!startsub activity

skinparam activity {
	$primary_scheme()
	BarColor $SUCCESS
	StartColor $INFO
	EndColor $INFO
	DiamondBackgroundColor $BGCOLOR
  	DiamondBorderColor $SECONDARY_DARK
  	DiamondFontColor $PRIMARY_TEXT
}
!endsub

!startsub participant

skinparam participant {
	$primary_scheme()
	ParticipantBorderThickness 2
}
!endsub

!startsub actor

skinparam actor {
	$primary_scheme()
}
!endsub

!startsub arrow

skinparam arrow {
	Thickness 3
	Color $PRIMARY
	FontColor $PRIMARY_TEXT
}
!endsub

!startsub sequence

skinparam sequence {
	BorderColor $PRIMARY
	TitleFontColor $PRIMARY_TEXT
	BackgroundColor $BGCOLOR
	StartColor $PRIMARY
	EndColor $PRIMARY
	BoxBackgroundColor $BGCOLOR
	BoxBorderColor $DARK
	BoxFontColor $DARK
	LifeLineBorderColor $SECONDARY
	LifeLineBorderThickness 2
	LifeLineBackgroundColor $SECONDARY_DARK
	GroupBorderColor $DARK
	GroupFontColor $DARK
	GroupHeaderFontColor $INFO
	GroupBackgroundColor $SECONDARY
	GroupHeaderBackgroundColor $BGCOLOR
	DividerBackgroundColor $DARK
    DividerBorderColor $DARK
    DividerBorderThickness 2
    DividerFontColor $LIGHT
	ReferenceBackgroundColor $BGCOLOR
	ReferenceBorderColor $DARK
	ReferenceFontColor $DARK
	ReferenceHeaderFontColor $INFO
	ReferenceHeaderBackgroundColor $SECONDARY
}
!endsub

!startsub partition

skinparam partition {
	BorderColor $PRIMARY
	FontColor $PRIMARY
	BackgroundColor $BGCOLOR
}
!endsub

!startsub collections

skinparam collections {
	$primary_scheme()
}
!endsub

!startsub control

skinparam control {
	$primary_scheme()
}
!endsub

!startsub entity

skinparam entity {
	$primary_scheme()
}
!endsub

!startsub boundary

skinparam boundary {
	$primary_scheme()
}
!endsub

!startsub agent

skinparam agent {
	BackgroundColor $WARNING
	BorderColor $WARNING_LIGHT
	FontColor $DARK
}
!endsub

!startsub note

skinparam note {
	BorderThickness 1
	BackgroundColor $INFO
	BorderColor $INFO_DARK
	FontColor $WHITE
}
!endsub

!startsub artifact

skinparam artifact {
	BackgroundColor $BGCOLOR
	BorderColor $DARK_DARK
	FontColor $DARK_DARK
}
!endsub

!startsub component

skinparam component {
	$primary_scheme()
}
!endsub

!startsub interface

skinparam interface {
	BackgroundColor  $BGCOLOR
	BorderColor  $DANGER
	FontColor $DARK
}
!endsub

!startsub storage

skinparam storage {
	BackgroundColor $BGCOLOR
  	BorderColor $WARNING_DARK
	FontColor $WARNING_DARK
}
!endsub

!startsub node

skinparam node {
	BackgroundColor  $BGCOLOR
	BorderColor $LIGHT
	FontColor $LIGHT
}
!endsub

!startsub cloud

skinparam cloud {
	BackgroundColor $BGCOLOR
	BorderColor #F2FCFE
	FontColor $PRIMARY_TEXT
}
!endsub

!startsub database

skinparam database {
	$primary_scheme()
}
!endsub

!startsub class

skinparam class {
	$primary_scheme()
	HeaderBackgroundColor $BGCOLOR
	StereotypeFontColor $DARK
	BorderThickness 1
	AttributeFontColor $DARK
	AttributeFontSize 11
}
!endsub

!startsub object

skinparam object {
	$primary_scheme()
	StereotypeFontColor $PRIMARY_TEXT
	BorderThickness 1
	AttributeFontColor $PRIMARY_TEXT
	AttributeFontSize 11
}
!endsub

!startsub usecase

skinparam usecase {
	$primary_scheme()
	BorderThickness 2
	StereotypeFontColor $PRIMARY
}
!endsub

!startsub rectangle

skinparam rectangle {
	$primary_scheme()
	BorderThickness 2
	StereotypeFontColor $PRIMARY
}
!endsub

!startsub package

skinparam package {
	BackgroundColor $BGCOLOR
  	BorderColor $PRIMARY
	FontColor $PRIMARY
	BorderThickness 2
}
!endsub

!startsub folder

skinparam folder {
	BackgroundColor $BGCOLOR
  	BorderColor $WARNING
	FontColor $WARNING
	BorderThickness 2
}
!endsub

!startsub frame

skinparam frame {
	BackgroundColor $BGCOLOR
  	BorderColor $INFO
	FontColor $INFO
	BorderThickness 2
}
!endsub

!startsub state

skinparam state {
	$primary_scheme()
	StartColor $INFO
	EndColor $INFO
	AttributeFontColor $SECONDARY_TEXT
	AttributeFontSize 11
}
!endsub

!startsub queue

skinparam queue {
	$primary_scheme()
}
!endsub

!startsub card

skinparam card {
	BackgroundColor $BGCOLOR
	BorderColor $INFO_DARK
	FontColor $INFO_DARK
}
!endsub

!startsub file

skinparam file {
	BackgroundColor $BGCOLOR
	BorderColor $LIGHT
	FontColor $LIGHT
}
!endsub

!startsub stack

skinparam stack {
	$primary_scheme()
}
!endsub

!if %variable_exists("$THEME")
title Work Breakdown Diagram - $THEME theme
!else
title Work Breakdown Diagram
!endif

!$DIAGRAM = "wbs"

+ New Job
++ Decide on Job Requirements
+++ Identity gaps
+++ Review JDs
++++ Sign-Up for courses
++++ Volunteer
++++ Reading
++- Checklist
+++- Responsibilities
+++- Location
++ CV Upload Done
+++ CV Updated
++++ Spelling & Grammar
++++ Check dates
- - - - Skills
+++ Recruitment sites chosen
@endwbs

@startwbs



skinparam backgroundColor transparent
skinparam handwritten true
skinparam shadowing false







skinparam defaultFontName       "Segoe Print"
skinparam defaultFontSize       12
skinparam dpi                   100
skinparam shadowing             false
skinparam roundcorner           8
skinparam ParticipantPadding    40
skinparam BoxPadding            40
skinparam Padding               5
skinparam ArrowColor            #555555
skinparam stereotype {
    CBackgroundColor transparent
    CBorderColor #4d4d4d
    ABackgroundColor transparent
    ABorderColor #24963e
    IBackgroundColor transparent
    IBorderColor #c6303e
    EBackgroundColor transparent
    EBorderColor #e6ae06
    NBackgroundColor transparent
    NBorderColor #1592a6
}
skinparam title {
	FontColor	                 #2e2e2e
	BorderColor	                 #4d4d4d
	FontSize	    	         20
	BorderRoundCorner            8
	BorderThickness 	         1
	BackgroundColor              transparent
}

skinparam legend {
	BackgroundColor transparent
	BorderColor #4d4d4d
	FontColor #2e2e2e
}

skinparam swimlane {
	BorderColor #17a2b8
	BorderThickness 2
	TitleBackgroundColor  transparent
	TitleFontColor #2e2e2e
}


skinparam activity {
		FontColor #2e2e2e
	BorderColor #333333
	BackgroundColor transparent
	BarColor #28a745
	StartColor #17a2b8
	EndColor #17a2b8
	DiamondBackgroundColor transparent
  	DiamondBorderColor #4d4d4d
  	DiamondFontColor #2e2e2e
}


skinparam participant {
		FontColor #2e2e2e
	BorderColor #333333
	BackgroundColor transparent
	ParticipantBorderThickness 2
}


skinparam actor {
		FontColor #2e2e2e
	BorderColor #333333
	BackgroundColor transparent
}


skinparam arrow {
	Thickness 3
	Color #333333
	FontColor #2e2e2e
}


skinparam sequence {
	BorderColor #333333
	TitleFontColor #2e2e2e
	BackgroundColor transparent
	StartColor #333333
	EndColor #333333
	BoxBackgroundColor transparent
	BoxBorderColor #555555
	BoxFontColor #555555
	LifeLineBorderColor #555555
	LifeLineBorderThickness 2
	LifeLineBackgroundColor #4d4d4d
	GroupBorderColor #555555
	GroupFontColor #555555
	GroupHeaderFontColor #17a2b8
	GroupBackgroundColor #555555
	GroupHeaderBackgroundColor transparent
	DividerBackgroundColor #555555
    DividerBorderColor #555555
    DividerBorderThickness 2
    DividerFontColor #ffffff
	ReferenceBackgroundColor transparent
	ReferenceBorderColor #555555
	ReferenceFontColor #555555
	ReferenceHeaderFontColor #17a2b8
	ReferenceHeaderBackgroundColor #555555
}


skinparam partition {
	BorderColor #333333
	FontColor #333333
	BackgroundColor transparent
}


skinparam collections {
		FontColor #2e2e2e
	BorderColor #333333
	BackgroundColor transparent
}


skinparam control {
		FontColor #2e2e2e
	BorderColor #333333
	BackgroundColor transparent
}


skinparam entity {
		FontColor #2e2e2e
	BorderColor #333333
	BackgroundColor transparent
}


skinparam boundary {
		FontColor #2e2e2e
	BorderColor #333333
	BackgroundColor transparent
}


skinparam agent {
	BackgroundColor #ffc107
	BorderColor #ffc720
	FontColor #555555
}


skinparam note {
	BorderThickness 1
	BackgroundColor #17a2b8
	BorderColor #1592a6
	FontColor #ffffff
}


skinparam artifact {
	BackgroundColor transparent
	BorderColor #4d4d4d
	FontColor #4d4d4d
}


skinparam component {
		FontColor #2e2e2e
	BorderColor #333333
	BackgroundColor transparent
}


skinparam interface {
	BackgroundColor  transparent
	BorderColor  #dc3545
	FontColor #555555
}


skinparam storage {
	BackgroundColor transparent
  	BorderColor #e6ae06
	FontColor #e6ae06
}


skinparam node {
	BackgroundColor  transparent
	BorderColor #ffffff
	FontColor #ffffff
}


skinparam cloud {
	BackgroundColor transparent
	BorderColor #F2FCFE
	FontColor #2e2e2e
}


skinparam database {
		FontColor #2e2e2e
	BorderColor #333333
	BackgroundColor transparent
}


skinparam class {
		FontColor #2e2e2e
	BorderColor #333333
	BackgroundColor transparent
	HeaderBackgroundColor transparent
	StereotypeFontColor #555555
	BorderThickness 1
	AttributeFontColor #555555
	AttributeFontSize 11
}


skinparam object {
		FontColor #2e2e2e
	BorderColor #333333
	BackgroundColor transparent
	StereotypeFontColor #2e2e2e
	BorderThickness 1
	AttributeFontColor #2e2e2e
	AttributeFontSize 11
}


skinparam usecase {
		FontColor #2e2e2e
	BorderColor #333333
	BackgroundColor transparent
	BorderThickness 2
	StereotypeFontColor #333333
}


skinparam rectangle {
		FontColor #2e2e2e
	BorderColor #333333
	BackgroundColor transparent
	BorderThickness 2
	StereotypeFontColor #333333
}


skinparam package {
	BackgroundColor transparent
  	BorderColor #333333
	FontColor #333333
	BorderThickness 2
}


skinparam folder {
	BackgroundColor transparent
  	BorderColor #ffc107
	FontColor #ffc107
	BorderThickness 2
}


skinparam frame {
	BackgroundColor transparent
  	BorderColor #17a2b8
	FontColor #17a2b8
	BorderThickness 2
}


skinparam state {
		FontColor #2e2e2e
	BorderColor #333333
	BackgroundColor transparent
	StartColor #17a2b8
	EndColor #17a2b8
	AttributeFontColor #ffffff
	AttributeFontSize 11
}


skinparam queue {
		FontColor #2e2e2e
	BorderColor #333333
	BackgroundColor transparent
}


skinparam card {
	BackgroundColor transparent
	BorderColor #1592a6
	FontColor #1592a6
}


skinparam file {
	BackgroundColor transparent
	BorderColor #ffffff
	FontColor #ffffff
}


skinparam stack {
		FontColor #2e2e2e
	BorderColor #333333
	BackgroundColor transparent
}

title Work Breakdown Diagram - sketchy-outline theme


+ New Job
++ Decide on Job Requirements
+++ Identity gaps
+++ Review JDs
++++ Sign-Up for courses
++++ Volunteer
++++ Reading
++- Checklist
+++- Responsibilities
+++- Location
++ CV Upload Done
+++ CV Updated
++++ Spelling & Grammar
++++ Check dates
- - - - Skills
+++ Recruitment sites chosen
@endwbs

PlantUML version 1.2021.01(Mon Feb 01 23:55:08 PST 2021)
(GPL source distribution)
Java Runtime: OpenJDK Runtime Environment
JVM: OpenJDK 64-Bit Server VM
Default Encoding: UTF-8
Language: en
Country: US
--></g></svg>