<?xml version="1.0" encoding="UTF-8" standalone="no"?><svg xmlns="http://www.w3.org/2000/svg" xmlns:xlink="http://www.w3.org/1999/xlink" contentScriptType="application/ecmascript" contentStyleType="text/css" height="482.2917px" preserveAspectRatio="none" style="width:621px;height:482px;" version="1.1" viewBox="0 0 621 482" width="621.875px" zoomAndPan="magnify"><defs><linearGradient id="gb4n6o02y5w0b0" x1="50%" x2="50%" y1="0%" y2="100%"><stop offset="0%" stop-color="#59B6EC"/><stop offset="100%" stop-color="#2FA4E7"/></linearGradient></defs><g><rect fill="none" height="46.1528" rx="4.1667" ry="4.1667" style="stroke: #FFFFFF; stroke-width: 1.5625;" width="200" x="214.0625" y="2.0833"/><text fill="#343A40" font-family="Verdana" font-size="20.8333" lengthAdjust="spacingAndGlyphs" textLength="172.9167" x="227.6042" y="33.4452">Cerulean Theme</text><!--class AbstractList--><rect fill="url(#gb4n6o02y5w0b0)" height="52.6917" id="AbstractList" rx="4.1667" ry="4.1667" style="stroke: #2683B9; stroke-width: 1.0416666666666667;" width="116.6667" x="196.3542" y="251.3611"/><ellipse cx="210.9375" cy="269.3736" fill="#A9DCDF" rx="10.4167" ry="10.4167" style="stroke: #2683B9; stroke-width: 1.0416666666666667;"/><path d="M210.5306,266.33 L209.6842,270.0572 L211.3932,270.0572 L210.5306,266.33 Z M209.4401,264.6861 L211.6374,264.6861 L214.0951,273.8007 L212.2884,273.8007 L211.735,271.5546 L209.3262,271.5546 L208.7728,273.8007 L206.9661,273.8007 L209.4401,264.6861 Z "/><text fill="#FFFFFF" font-family="Verdana" font-size="12.5" font-style="italic" lengthAdjust="spacingAndGlyphs" textLength="75" x="229.6875" y="274.3449">AbstractList</text><line style="stroke: #2683B9; stroke-width: 1.0416666666666667;" x1="197.3958" x2="311.9792" y1="287.3861" y2="287.3861"/><line style="stroke: #2683B9; stroke-width: 1.0416666666666667;" x1="197.3958" x2="311.9792" y1="295.7194" y2="295.7194"/><!--class AbstractCollection--><rect fill="url(#gb4n6o02y5w0b0)" height="52.6917" id="AbstractCollection" rx="4.1667" ry="4.1667" style="stroke: #2683B9; stroke-width: 1.0416666666666667;" width="153.125" x="6.25" y="251.3611"/><ellipse cx="20.8333" cy="269.3736" fill="#A9DCDF" rx="10.4167" ry="10.4167" style="stroke: #2683B9; stroke-width: 1.0416666666666667;"/><path d="M20.4264,266.33 L19.5801,270.0572 L21.2891,270.0572 L20.4264,266.33 Z M19.3359,264.6861 L21.5332,264.6861 L23.9909,273.8007 L22.1842,273.8007 L21.6309,271.5546 L19.222,271.5546 L18.6686,273.8007 L16.862,273.8007 L19.3359,264.6861 Z "/><text fill="#FFFFFF" font-family="Verdana" font-size="12.5" font-style="italic" lengthAdjust="spacingAndGlyphs" textLength="111.4583" x="39.5833" y="274.3449">AbstractCollection</text><line style="stroke: #2683B9; stroke-width: 1.0416666666666667;" x1="7.2917" x2="158.3333" y1="287.3861" y2="287.3861"/><line style="stroke: #2683B9; stroke-width: 1.0416666666666667;" x1="7.2917" x2="158.3333" y1="295.7194" y2="295.7194"/><!--class List--><rect fill="url(#gb4n6o02y5w0b0)" height="52.6917" id="List" rx="4.1667" ry="4.1667" style="stroke: #2683B9; stroke-width: 1.0416666666666667;" width="64.5833" x="208.8542" y="97.7153"/><ellipse cx="223.4375" cy="115.7277" fill="#B4A7E5" rx="10.4167" ry="10.4167" style="stroke: #2683B9; stroke-width: 1.0416666666666667;"/><path d="M220.3288,112.8957 L220.3288,111.3007 L225.7487,111.3007 L225.7487,112.8957 L223.9421,112.8957 L223.9421,118.8202 L225.7487,118.8202 L225.7487,120.4152 L220.3288,120.4152 L220.3288,118.8202 L222.1354,118.8202 L222.1354,112.8957 L220.3288,112.8957 Z "/><text fill="#FFFFFF" font-family="Verdana" font-size="12.5" font-style="italic" lengthAdjust="spacingAndGlyphs" textLength="22.9167" x="242.1875" y="120.6991">List</text><line style="stroke: #2683B9; stroke-width: 1.0416666666666667;" x1="209.8958" x2="272.3958" y1="133.7402" y2="133.7402"/><line style="stroke: #2683B9; stroke-width: 1.0416666666666667;" x1="209.8958" x2="272.3958" y1="142.0736" y2="142.0736"/><!--class Collection--><rect fill="url(#gb4n6o02y5w0b0)" height="52.6917" id="Collection" rx="4.1667" ry="4.1667" style="stroke: #2683B9; stroke-width: 1.0416666666666667;" width="101.0417" x="58.3333" y="97.7153"/><ellipse cx="72.9167" cy="115.7277" fill="#B4A7E5" rx="10.4167" ry="10.4167" style="stroke: #2683B9; stroke-width: 1.0416666666666667;"/><path d="M69.8079,112.8957 L69.8079,111.3007 L75.2279,111.3007 L75.2279,112.8957 L73.4212,112.8957 L73.4212,118.8202 L75.2279,118.8202 L75.2279,120.4152 L69.8079,120.4152 L69.8079,118.8202 L71.6146,118.8202 L71.6146,112.8957 L69.8079,112.8957 Z "/><text fill="#FFFFFF" font-family="Verdana" font-size="12.5" font-style="italic" lengthAdjust="spacingAndGlyphs" textLength="59.375" x="91.6667" y="120.6991">Collection</text><line style="stroke: #2683B9; stroke-width: 1.0416666666666667;" x1="59.375" x2="158.3333" y1="133.7402" y2="133.7402"/><line style="stroke: #2683B9; stroke-width: 1.0416666666666667;" x1="59.375" x2="158.3333" y1="142.0736" y2="142.0736"/><!--class ArrayList--><rect fill="url(#gb4n6o02y5w0b0)" height="103.9083" id="ArrayList" rx="4.1667" ry="4.1667" style="stroke: #2683B9; stroke-width: 1.0416666666666667;" width="164.5833" x="172.3958" y="366.9861"/><ellipse cx="216.6667" cy="384.9986" fill="#ADD1B2" rx="10.4167" ry="10.4167" style="stroke: #2683B9; stroke-width: 1.0416666666666667;"/><path d="M218.571,389.4257 Q218.1478,389.6372 217.6758,389.7512 Q217.2038,389.8651 216.6992,389.8651 Q214.8438,389.8651 213.8672,388.6607 Q212.9069,387.44 212.9069,385.1451 Q212.9069,382.8339 213.8672,381.6294 Q214.8438,380.4087 216.6992,380.4087 Q217.2038,380.4087 217.6758,380.5227 Q218.1641,380.6203 218.571,380.8482 L218.571,382.8501 Q218.1152,382.427 217.6758,382.2316 Q217.2363,382.0201 216.7806,382.0201 Q215.7878,382.0201 215.2832,382.8176 Q214.7786,383.5988 214.7786,385.1451 Q214.7786,386.675 215.2832,387.4563 Q215.7878,388.2375 216.7806,388.2375 Q217.2363,388.2375 217.6758,388.0422 Q218.1152,387.8469 218.571,387.4237 L218.571,389.4257 Z "/><text fill="#FFFFFF" font-family="Verdana" font-size="12.5" lengthAdjust="spacingAndGlyphs" textLength="57.2917" x="241.6667" y="389.9699">ArrayList</text><line style="stroke: #2683B9; stroke-width: 1.0416666666666667;" x1="173.4375" x2="335.9375" y1="403.0111" y2="403.0111"/><text fill="#343A40" font-family="Verdana" font-size="12.5" lengthAdjust="spacingAndGlyphs" textLength="141.6667" x="183.8542" y="424.9532">Object[] elementData</text><line style="stroke: #2683B9; stroke-width: 1.0416666666666667;" x1="173.4375" x2="335.9375" y1="436.9527" y2="436.9527"/><text fill="#343A40" font-family="Verdana" font-size="12.5" lengthAdjust="spacingAndGlyphs" textLength="36.4583" x="183.8542" y="458.8949">size()</text><!--class TimeUnit--><rect fill="url(#gb4n6o02y5w0b0)" height="129.5166" id="TimeUnit" rx="4.1667" ry="4.1667" style="stroke: #2683B9; stroke-width: 1.0416666666666667;" width="97.9167" x="309.8958" y="59.6944"/><ellipse cx="324.4792" cy="77.7069" fill="#EB937F" rx="10.4167" ry="10.4167" style="stroke: #2683B9; stroke-width: 1.0416666666666667;"/><path d="M327.0182,82.3944 L321.3379,82.3944 L321.3379,73.2798 L327.0182,73.2798 L327.0182,74.8749 L323.1445,74.8749 L323.1445,76.828 L326.6439,76.828 L326.6439,78.4231 L323.1445,78.4231 L323.1445,80.7994 L327.0182,80.7994 L327.0182,82.3944 Z "/><text fill="#FFFFFF" font-family="Verdana" font-size="12.5" lengthAdjust="spacingAndGlyphs" textLength="56.25" x="343.2292" y="82.6782">TimeUnit</text><line style="stroke: #2683B9; stroke-width: 1.0416666666666667;" x1="310.9375" x2="406.7708" y1="95.7194" y2="95.7194"/><text fill="#343A40" font-family="Verdana" font-size="12.5" lengthAdjust="spacingAndGlyphs" textLength="33.3333" x="321.3542" y="117.6615">DAYS</text><text fill="#343A40" font-family="Verdana" font-size="12.5" lengthAdjust="spacingAndGlyphs" textLength="45.8333" x="321.3542" y="143.2699">HOURS</text><text fill="#343A40" font-family="Verdana" font-size="12.5" lengthAdjust="spacingAndGlyphs" textLength="58.3333" x="321.3542" y="168.8782">MINUTES</text><line style="stroke: #2683B9; stroke-width: 1.0416666666666667;" x1="310.9375" x2="406.7708" y1="180.8777" y2="180.8777"/><!--class SuppressWarnings--><rect fill="url(#gb4n6o02y5w0b0)" height="52.6917" id="SuppressWarnings" rx="4.1667" ry="4.1667" style="stroke: #2683B9; stroke-width: 1.0416666666666667;" width="165.625" x="444.7917" y="97.7153"/><ellipse cx="459.375" cy="115.7277" fill="#E3664A" rx="10.4167" ry="10.4167" style="stroke: #2683B9; stroke-width: 1.0416666666666667;"/><path d="M460.6283,115.5324 Q460.6283,114.8326 460.319,114.4419 Q460.0098,114.0513 459.4564,114.0513 Q458.9193,114.0513 458.61,114.4419 Q458.3008,114.8326 458.3008,115.5324 Q458.3008,116.216 458.61,116.6066 Q458.9193,116.9973 459.4564,116.9973 Q460.0098,116.9973 460.319,116.6066 Q460.6283,116.216 460.6283,115.5324 Z M461.7676,118.0227 L460.5632,118.0227 L460.5632,117.5344 Q460.3353,117.8436 460.0098,118.0064 Q459.7005,118.1529 459.2611,118.1529 Q458.2682,118.1529 457.6497,117.4367 Q457.0313,116.7043 457.0313,115.5324 Q457.0313,114.3443 457.6335,113.6281 Q458.252,112.912 459.2611,112.912 Q459.7005,112.912 460.026,113.0585 Q460.3516,113.205 460.5632,113.4979 L460.5632,113.2538 Q460.5632,112.4237 460.1074,111.968 Q459.6517,111.5122 458.8216,111.5122 Q457.5521,111.5122 456.7383,112.6353 Q455.9408,113.7421 455.9408,115.5324 Q455.9408,117.4042 456.8685,118.5272 Q457.7962,119.634 459.3424,119.634 Q459.8307,119.634 460.2865,119.4875 Q460.7422,119.341 461.1654,119.0481 L461.7188,120.1223 Q461.2305,120.4641 460.6445,120.6268 Q460.0586,120.8059 459.4076,120.8059 Q457.2591,120.8059 455.9896,119.3736 Q454.7201,117.9576 454.7201,115.5324 Q454.7201,113.1724 455.8594,111.7564 Q457.015,110.3404 458.8867,110.3404 Q460.2214,110.3404 460.9863,111.1379 Q461.7676,111.9354 461.7676,113.3352 L461.7676,118.0227 Z "/><text fill="#FFFFFF" font-family="Verdana" font-size="12.5" lengthAdjust="spacingAndGlyphs" textLength="123.9583" x="478.125" y="120.6991">SuppressWarnings</text><line style="stroke: #2683B9; stroke-width: 1.0416666666666667;" x1="445.8333" x2="609.375" y1="133.7402" y2="133.7402"/><line style="stroke: #2683B9; stroke-width: 1.0416666666666667;" x1="445.8333" x2="609.375" y1="142.0736" y2="142.0736"/><!--link List to AbstractList--><path d="M245.3652,172.1511 C247.6523,198.101 250.3944,229.213 252.3103,250.9517 " fill="none" id="List-AbstractList" style="stroke: #868E96; stroke-width: 2.0833333333333335;"/><polygon fill="none" points="238.0703,172.4339,243.5046,151.0408,252.5973,171.1535,238.0703,172.4339" style="stroke: #868E96; stroke-width: 2.0833333333333335;"/><!--link Collection to AbstractCollection--><path d="M100.8066,171.7583 C96.3951,197.7865 91.0872,229.1032 87.384,250.9517 " fill="none" id="Collection-AbstractCollection" style="stroke: #868E96; stroke-width: 2.0833333333333335;"/><polygon fill="none" points="93.6474,170.3626,104.318,151.0408,108.0257,172.7997,93.6474,170.3626" style="stroke: #868E96; stroke-width: 2.0833333333333335;"/><!--link Collection to List--><path d="M180.602,124.2778 C189.9393,124.2778 199.2766,124.2778 208.6139,124.2778 " fill="none" id="Collection-List" style="stroke: #868E96; stroke-width: 2.0833333333333335;"/><polygon fill="none" points="180.3304,131.5693,159.4971,124.2778,180.3304,116.986,180.3304,131.5693" style="stroke: #868E96; stroke-width: 2.0833333333333335;"/><!--link AbstractCollection to AbstractList--><path d="M180.7114,277.9236 C185.8255,277.9236 190.9397,277.9236 196.054,277.9236 " fill="none" id="AbstractCollection-AbstractList" style="stroke: #868E96; stroke-width: 2.0833333333333335;"/><polygon fill="none" points="180.5197,285.2151,159.6863,277.9236,180.5196,270.6318,180.5197,285.2151" style="stroke: #868E96; stroke-width: 2.0833333333333335;"/><!--link AbstractList to ArrayList--><path d="M254.6875,326.0854 C254.6875,339.216 254.6875,353.5015 254.6875,366.8464 " fill="none" id="AbstractList-ArrayList" style="stroke: #868E96; stroke-width: 2.0833333333333335;"/><polygon fill="none" points="247.3959,325.6376,254.6875,304.8043,261.9793,325.6375,247.3959,325.6376" style="stroke: #868E96; stroke-width: 2.0833333333333335;"/><!--
@startuml







skinparam defaultFontName       "Verdana"
skinparam defaultFontSize       12
skinparam dpi                   100
skinparam shadowing             false
skinparam roundcorner           8
skinparam ParticipantPadding    10
skinparam BoxPadding            5
skinparam Padding               5
skinparam TitleFontColor	    #343A40
skinparam TitleFontSize	    	20
skinparam TitleBorderColor	 	transparent
skinparam ArrowColor            #868E96

skinparam activity {
	TitleFontSize 20
	TitleFontColor #343A40
	FontColor #FFF
	BorderColor #2FA4E7
	BackgroundColor #59B6EC-#2FA4E7
	BarColor #868E96
	StartColor #033C73
	EndColor #033C73
	DiamondBackgroundColor #FFF-#EDF0F2
  	DiamondBorderColor #E9ECEF
}
	
skinparam sequence {
	BorderColor #2FA4E7
	TitleFontSize 14
	TitleFontColor #343A40
	BackgroundColor transparent
	StartColor #2FA4E7
	EndColor #2FA4E7
    ParticipantBackgroundColor #59B6EC-#2FA4E7
    ParticipantBorderColor #2FA4E7
	ParticipantBorderThickness 0
	ParticipantFontColor #FFF
	ActorBackgroundColor transparent
    ActorBorderColor #2FA4E7
	ActorFontColor #2FA4E7
	ArrowThickness 2
	BoxBackgroundColor #F8F9FA
	BoxBorderColor #868E96
	BoxFontColor $DARk
	LifeLineBorderColor #2FA4E7
	LifeLineBorderThickness 4
	LifeLineBackgroundColor #E9ECEF
	GroupBorderColor #868E96
	GroupFontColor #343A40
	GroupHeaderFontColor #033C73
	DividerBackgroundColor #FFF-#F8F9FA
    DividerBorderColor #868E96
    DividerBorderThickness 2
    DividerFontColor #343A40
	ReferenceBorderColor #868E96
	ReferenceFontColor #343A40
	ReferenceHeaderFontColor #033C73
}

skinparam partition {
  BorderColor #959595
  FontColor #959595
	BackgroundColor white
	ArrowColor #959595
	GroupTitleBackgroundColor #959595
	LifeLineBorderColor #bbbbbb
	GroupBorderColor #959595
	GroupFontColor #666666
	GroupTitleFontColor #666666
}

skinparam collections {
	BackgroundColor #59B6EC-#2FA4E7
	BorderColor #2FA4E7
}

skinparam control {
	BackgroundColor  #59B6EC-#2FA4E7
	BorderColor #2683B9
	FontColor #343A40
}

skinparam entity {
	BackgroundColor  #59B6EC-#2FA4E7
	BorderColor #2683B9
	FontColor #343A40
}

skinparam boundary {
	BackgroundColor  #59B6EC-#2FA4E7
	BorderColor #2683B9
	FontColor #343A40
}

skinparam agent {
	BackgroundColor #orange
	BorderColor #999999
	FontColor #333333
}

skinparam note {
	BorderThickness 1
	BackgroundColor #35638F-#033C73
	BorderColor #033C73
	FontColor #FFF
}

skinparam artifact {
	BackgroundColor #FFF-#F8F9FA
	BorderColor #868E96
	FontColor #343A40
}

skinparam component {
	BackgroundColor  #8FB961-#73A839
	BorderColor  #73A839
	FontColor #FFF
}

skinparam interface {
	BackgroundColor  #D2494E
	BorderColor  #C71C22
	FontColor #343A40
}

skinparam storage {
	BackgroundColor #E47833-#DD5600
  	BorderColor #DD5600
	FontColor #FFF
}

skinparam node {
	BackgroundColor  #FFF-#F8F9FA
	BorderColor #35638F
	FontColor #35638F
}

skinparam cloud {
	BackgroundColor white-#59B6EC
	BorderColor transparent
	FontColor #343A40
}

skinparam database {
	BackgroundColor  #59B6EC-#2FA4E7
	BorderColor #2683B9
	FontColor #343A40
}

skinparam actor {
	FontColor #343A40
}

skinparam class {
	HeaderBackgroundColor #2683B9
	FontColor #FFF
	BackgroundColor #59B6EC-#2FA4E7
	BorderColor #2683B9
	StereotypeFontColor #343A40
	LineThickness 4
	BorderThickness 1
	AttributeFontColor #343A40
}

skinparam usecase {
	BackgroundColor #EDF0F2-#E9ECEF
	BorderColor #E9ECEF
	BorderThickness 2
	FontColor #343A40
	StereotypeFontColor #2FA4E7
}


skinparam rectangle {
	BackgroundColor #F8F9FA
	BorderColor #2683B9
	BorderThickness 2
}

skinparam package {
	BackgroundColor #FFF-#EDF0F2
  	BorderColor #2FA4E7
	FontColor #2FA4E7
	BorderThickness 2
}

skinparam folder {
	BackgroundColor #FFF-#EDF0F2
  	BorderColor #BABDBF
	FontColor #343A40
	BorderThickness 2
}

skinparam frame {
	BackgroundColor #FFF-#E9ECEF
  	BorderColor #BABDBF
	FontColor #343A40
	BorderThickness 2
}

title Cerulean Theme

abstract class AbstractList
abstract AbstractCollection
interface List
interface Collection

List <|- - AbstractList
Collection <|- - AbstractCollection

Collection <|- List
AbstractCollection <|- AbstractList
AbstractList <|- - ArrayList

class ArrayList {
  Object[] elementData
  size()
}

enum TimeUnit {
  DAYS
  HOURS
  MINUTES
}

annotation SuppressWarnings

@enduml

PlantUML version 1.2019.08(Sat Jul 13 12:25:14 PDT 2019)
(MIT source distribution)
Java Runtime: OpenJDK Runtime Environment
JVM: OpenJDK 64-Bit Server VM
Java Version: 11.0.4+11-post-Ubuntu-1ubuntu218.04.3
Operating System: Linux
OS Version: 4.15.0-64-lowlatency
Default Encoding: UTF-8
Language: en
Country: US
--></g></svg>