<?xml version="1.0" encoding="UTF-8" standalone="no"?><svg xmlns="http://www.w3.org/2000/svg" xmlns:xlink="http://www.w3.org/1999/xlink" contentScriptType="application/ecmascript" contentStyleType="text/css" height="414.5833px" preserveAspectRatio="none" style="width:596px;height:414px;" version="1.1" viewBox="0 0 596 414" width="596.875px" zoomAndPan="magnify"><defs><linearGradient id="gw4qu41pdlozh0" x1="50%" x2="50%" y1="0%" y2="100%"><stop offset="0%" stop-color="#59B6EC"/><stop offset="100%" stop-color="#2FA4E7"/></linearGradient></defs><g><text fill="#343A40" font-family="Verdana" font-size="20.8333" lengthAdjust="spacingAndGlyphs" textLength="172.9167" x="215.625" y="23.0286">Cerulean Theme</text><!--class AbstractList--><rect fill="url(#gw4qu41pdlozh0)" height="47.9167" id="AbstractList" rx="4.1667" ry="4.1667" style="stroke: #2683B9; stroke-width: 1.0416666666666667;" width="110.4167" x="190.1042" y="206.5694"/><ellipse cx="204.6875" cy="222.1944" fill="#A9DCDF" rx="10.4167" ry="10.4167" style="stroke: #2683B9; stroke-width: 1.0416666666666667;"/><path d="M206.3151,224.3429 L203.2878,224.3429 L202.9785,225.1078 L203.2878,225.1078 Q203.7272,225.1078 203.9225,225.2787 Q204.1178,225.4496 204.1178,225.7426 Q204.1178,226.0193 203.9225,226.1902 Q203.7272,226.3611 203.2878,226.3611 L201.5951,226.3611 Q201.1393,226.3611 200.9521,226.1902 Q200.765,226.0193 200.765,225.7263 Q200.765,225.4496 200.9684,225.2706 Q201.1719,225.0916 201.6276,225.1078 L203.597,220.2087 L202.7832,220.2087 Q202.3275,220.2087 202.1322,220.0378 Q201.9368,219.8669 201.9368,219.5903 Q201.9368,219.2973 202.1322,219.1264 Q202.3275,218.9555 202.7832,218.9555 L205.485,218.9555 L207.9753,225.1078 Q208.4147,225.1078 208.5449,225.2055 Q208.8379,225.4008 208.8379,225.7426 Q208.8379,226.0193 208.6426,226.1902 Q208.4473,226.3611 208.0078,226.3611 L206.3151,226.3611 Q205.8594,226.3611 205.6722,226.1902 Q205.485,226.0193 205.485,225.7263 Q205.485,225.4496 205.6722,225.2787 Q205.8594,225.1078 206.3151,225.1078 L206.6243,225.1078 L206.3151,224.3429 Z M205.8105,223.0896 L204.8014,220.6156 L203.776,223.0896 L205.8105,223.0896 Z "/><text fill="#FFFFFF" font-family="Verdana" font-size="12.5" font-style="italic" lengthAdjust="spacingAndGlyphs" textLength="75" x="220.3125" y="227.1657">AbstractList</text><line style="stroke: #2683B9; stroke-width: 1.0416666666666667;" x1="191.1458" x2="299.4792" y1="237.8194" y2="237.8194"/><line style="stroke: #2683B9; stroke-width: 1.0416666666666667;" x1="191.1458" x2="299.4792" y1="246.1528" y2="246.1528"/><!--class AbstractCollection--><rect fill="url(#gw4qu41pdlozh0)" height="47.9167" id="AbstractCollection" rx="4.1667" ry="4.1667" style="stroke: #2683B9; stroke-width: 1.0416666666666667;" width="146.875" x="6.25" y="206.5694"/><ellipse cx="20.8333" cy="222.1944" fill="#A9DCDF" rx="10.4167" ry="10.4167" style="stroke: #2683B9; stroke-width: 1.0416666666666667;"/><path d="M22.4609,224.3429 L19.4336,224.3429 L19.1243,225.1078 L19.4336,225.1078 Q19.873,225.1078 20.0684,225.2787 Q20.2637,225.4496 20.2637,225.7426 Q20.2637,226.0193 20.0684,226.1902 Q19.873,226.3611 19.4336,226.3611 L17.7409,226.3611 Q17.2852,226.3611 17.098,226.1902 Q16.9108,226.0193 16.9108,225.7263 Q16.9108,225.4496 17.1143,225.2706 Q17.3177,225.0916 17.7734,225.1078 L19.7428,220.2087 L18.929,220.2087 Q18.4733,220.2087 18.278,220.0378 Q18.0827,219.8669 18.0827,219.5903 Q18.0827,219.2973 18.278,219.1264 Q18.4733,218.9555 18.929,218.9555 L21.6309,218.9555 L24.1211,225.1078 Q24.5605,225.1078 24.6908,225.2055 Q24.9837,225.4008 24.9837,225.7426 Q24.9837,226.0193 24.7884,226.1902 Q24.5931,226.3611 24.1536,226.3611 L22.4609,226.3611 Q22.0052,226.3611 21.818,226.1902 Q21.6309,226.0193 21.6309,225.7263 Q21.6309,225.4496 21.818,225.2787 Q22.0052,225.1078 22.4609,225.1078 L22.7702,225.1078 L22.4609,224.3429 Z M21.9564,223.0896 L20.9473,220.6156 L19.9219,223.0896 L21.9564,223.0896 Z "/><text fill="#FFFFFF" font-family="Verdana" font-size="12.5" font-style="italic" lengthAdjust="spacingAndGlyphs" textLength="111.4583" x="36.4583" y="227.1657">AbstractCollection</text><line style="stroke: #2683B9; stroke-width: 1.0416666666666667;" x1="7.2917" x2="152.0833" y1="237.8194" y2="237.8194"/><line style="stroke: #2683B9; stroke-width: 1.0416666666666667;" x1="7.2917" x2="152.0833" y1="246.1528" y2="246.1528"/><!--class List--><rect fill="url(#gw4qu41pdlozh0)" height="47.9167" id="List" rx="4.1667" ry="4.1667" style="stroke: #2683B9; stroke-width: 1.0416666666666667;" width="58.3333" x="202.6042" y="66.9861"/><ellipse cx="217.1875" cy="82.6111" fill="#B4A7E5" rx="10.4167" ry="10.4167" style="stroke: #2683B9; stroke-width: 1.0416666666666667;"/><path d="M218.4408,80.6254 L218.4408,85.5245 L219.7103,85.5245 Q220.1497,85.5245 220.3451,85.6954 Q220.5404,85.8663 220.5404,86.1593 Q220.5404,86.436 220.3451,86.6069 Q220.1497,86.7778 219.7103,86.7778 L215.918,86.7778 Q215.4785,86.7778 215.2832,86.6069 Q215.0879,86.436 215.0879,86.143 Q215.0879,85.8663 215.2832,85.6954 Q215.4785,85.5245 215.918,85.5245 L217.1875,85.5245 L217.1875,80.6254 L215.918,80.6254 Q215.4785,80.6254 215.2832,80.4545 Q215.0879,80.2836 215.0879,80.0069 Q215.0879,79.7139 215.2832,79.5431 Q215.4785,79.3722 215.918,79.3722 L219.7103,79.3722 Q220.1497,79.3722 220.3451,79.5431 Q220.5404,79.7139 220.5404,80.0069 Q220.5404,80.2836 220.3451,80.4545 Q220.1497,80.6254 219.7103,80.6254 L218.4408,80.6254 Z "/><text fill="#FFFFFF" font-family="Verdana" font-size="12.5" font-style="italic" lengthAdjust="spacingAndGlyphs" textLength="22.9167" x="232.8125" y="87.5824">List</text><line style="stroke: #2683B9; stroke-width: 1.0416666666666667;" x1="203.6458" x2="259.8958" y1="98.2361" y2="98.2361"/><line style="stroke: #2683B9; stroke-width: 1.0416666666666667;" x1="203.6458" x2="259.8958" y1="106.5694" y2="106.5694"/><!--class Collection--><rect fill="url(#gw4qu41pdlozh0)" height="47.9167" id="Collection" rx="4.1667" ry="4.1667" style="stroke: #2683B9; stroke-width: 1.0416666666666667;" width="94.7917" x="44.7917" y="66.9861"/><ellipse cx="59.375" cy="82.6111" fill="#B4A7E5" rx="10.4167" ry="10.4167" style="stroke: #2683B9; stroke-width: 1.0416666666666667;"/><path d="M60.6283,80.6254 L60.6283,85.5245 L61.8978,85.5245 Q62.3372,85.5245 62.5326,85.6954 Q62.7279,85.8663 62.7279,86.1593 Q62.7279,86.436 62.5326,86.6069 Q62.3372,86.7778 61.8978,86.7778 L58.1055,86.7778 Q57.666,86.7778 57.4707,86.6069 Q57.2754,86.436 57.2754,86.143 Q57.2754,85.8663 57.4707,85.6954 Q57.666,85.5245 58.1055,85.5245 L59.375,85.5245 L59.375,80.6254 L58.1055,80.6254 Q57.666,80.6254 57.4707,80.4545 Q57.2754,80.2836 57.2754,80.0069 Q57.2754,79.7139 57.4707,79.5431 Q57.666,79.3722 58.1055,79.3722 L61.8978,79.3722 Q62.3372,79.3722 62.5326,79.5431 Q62.7279,79.7139 62.7279,80.0069 Q62.7279,80.2836 62.5326,80.4545 Q62.3372,80.6254 61.8978,80.6254 L60.6283,80.6254 Z "/><text fill="#FFFFFF" font-family="Verdana" font-size="12.5" font-style="italic" lengthAdjust="spacingAndGlyphs" textLength="59.375" x="75" y="87.5824">Collection</text><line style="stroke: #2683B9; stroke-width: 1.0416666666666667;" x1="45.8333" x2="138.5417" y1="98.2361" y2="98.2361"/><line style="stroke: #2683B9; stroke-width: 1.0416666666666667;" x1="45.8333" x2="138.5417" y1="106.5694" y2="106.5694"/><!--class ArrayList--><rect fill="url(#gw4qu41pdlozh0)" height="86.6333" id="ArrayList" rx="4.1667" ry="4.1667" style="stroke: #2683B9; stroke-width: 1.0416666666666667;" width="158.3333" x="166.1458" y="316.9861"/><ellipse cx="210.4167" cy="332.6111" fill="#ADD1B2" rx="10.4167" ry="10.4167" style="stroke: #2683B9; stroke-width: 1.0416666666666667;"/><path d="M211.9629,329.6977 Q212.0768,329.5349 212.2152,329.4535 Q212.3535,329.3722 212.5163,329.3722 Q212.793,329.3722 212.9639,329.5675 Q213.1348,329.7628 213.1348,330.2022 L213.1348,331.2764 Q213.1348,331.7159 212.9639,331.9112 Q212.793,332.1065 212.5163,332.1065 Q212.2559,332.1065 212.1094,331.96 Q211.9629,331.8298 211.8815,331.4392 Q211.849,331.1788 211.7188,331.0486 Q211.4583,330.7719 211.0107,330.6091 Q210.5632,330.4464 210.1074,330.4464 Q209.554,330.4464 209.082,330.6905 Q208.61,330.9347 208.252,331.4799 Q207.8939,332.0251 207.8939,332.7901 L207.8939,333.6039 Q207.8939,334.4991 208.5531,335.1013 Q209.2122,335.7035 210.3678,335.7035 Q211.0677,335.7035 211.556,335.5245 Q211.8327,335.4106 212.1419,335.085 Q212.3372,334.8897 212.4512,334.8328 Q212.5651,334.7758 212.6953,334.7758 Q212.9557,334.7758 213.1429,334.963 Q213.3301,335.1501 213.3301,335.4106 Q213.3301,335.671 213.0697,335.9639 Q212.6953,336.3871 212.1094,336.6313 Q211.3281,336.9568 210.3841,336.9568 Q209.2611,336.9568 208.3822,336.5011 Q207.6497,336.143 207.1452,335.3455 Q206.6406,334.5479 206.6406,333.6202 L206.6406,332.7738 Q206.6406,331.7973 207.0964,330.9509 Q207.5521,330.1046 208.3577,329.6488 Q209.1634,329.1931 210.0586,329.1931 Q210.612,329.1931 211.084,329.3152 Q211.556,329.4373 211.9629,329.6977 Z "/><text fill="#FFFFFF" font-family="Verdana" font-size="12.5" lengthAdjust="spacingAndGlyphs" textLength="57.2917" x="232.2917" y="337.5824">ArrayList</text><line style="stroke: #2683B9; stroke-width: 1.0416666666666667;" x1="167.1875" x2="323.4375" y1="348.2361" y2="348.2361"/><text fill="#343A40" font-family="Verdana" font-size="12.5" lengthAdjust="spacingAndGlyphs" textLength="141.6667" x="174.4792" y="367.0532">Object[] elementData</text><line style="stroke: #2683B9; stroke-width: 1.0416666666666667;" x1="167.1875" x2="323.4375" y1="375.9277" y2="375.9277"/><text fill="#343A40" font-family="Verdana" font-size="12.5" lengthAdjust="spacingAndGlyphs" textLength="36.4583" x="174.4792" y="394.7449">size()</text><!--class TimeUnit--><rect fill="url(#gw4qu41pdlozh0)" height="105.9916" id="TimeUnit" rx="4.1667" ry="4.1667" style="stroke: #2683B9; stroke-width: 1.0416666666666667;" width="91.6667" x="297.3958" y="37.8194"/><ellipse cx="311.9792" cy="53.4444" fill="#EB937F" rx="10.4167" ry="10.4167" style="stroke: #2683B9; stroke-width: 1.0416666666666667;"/><path d="M311.849,54.5186 L311.849,56.3578 L315.0391,56.3578 L315.0391,55.6742 Q315.0391,55.2348 315.21,55.0395 Q315.3809,54.8442 315.6576,54.8442 Q315.9342,54.8442 316.1133,55.0395 Q316.2923,55.2348 316.2923,55.6742 L316.2923,57.6111 L310.4004,57.6111 Q309.9447,57.6111 309.7493,57.4402 Q309.554,57.2693 309.554,56.9763 Q309.554,56.6996 309.7493,56.5287 Q309.9447,56.3578 310.4004,56.3578 L310.5957,56.3578 L310.5957,51.4587 L310.4004,51.4587 Q309.9447,51.4587 309.7493,51.2878 Q309.554,51.1169 309.554,50.8403 Q309.554,50.5473 309.7493,50.3764 Q309.9447,50.2055 310.4004,50.2055 L316.0156,50.2055 L316.0156,52.1098 Q316.0156,52.5655 315.8447,52.7527 Q315.6738,52.9399 315.3809,52.9399 Q315.1042,52.9399 314.9333,52.7527 Q314.7624,52.5655 314.7624,52.1098 L314.7624,51.4587 L311.849,51.4587 L311.849,53.2654 L312.9395,53.2654 Q312.9395,52.7771 313.0371,52.6469 Q313.2161,52.3376 313.5742,52.3376 Q313.8509,52.3376 314.0218,52.533 Q314.1927,52.7283 314.1927,53.184 L314.1927,54.6163 Q314.1927,55.0232 314.0951,55.1697 Q313.8997,55.4626 313.5742,55.4626 Q313.2161,55.4626 313.0371,55.1534 Q312.9395,55.0232 312.9395,54.5186 L311.849,54.5186 Z "/><text fill="#FFFFFF" font-family="Verdana" font-size="12.5" lengthAdjust="spacingAndGlyphs" textLength="56.25" x="327.6042" y="58.4157">TimeUnit</text><line style="stroke: #2683B9; stroke-width: 1.0416666666666667;" x1="298.4375" x2="388.0208" y1="69.0694" y2="69.0694"/><text fill="#343A40" font-family="Verdana" font-size="12.5" lengthAdjust="spacingAndGlyphs" textLength="33.3333" x="305.7292" y="87.8866">DAYS</text><text fill="#343A40" font-family="Verdana" font-size="12.5" lengthAdjust="spacingAndGlyphs" textLength="45.8333" x="305.7292" y="107.2449">HOURS</text><text fill="#343A40" font-family="Verdana" font-size="12.5" lengthAdjust="spacingAndGlyphs" textLength="58.3333" x="305.7292" y="126.6032">MINUTES</text><line style="stroke: #2683B9; stroke-width: 1.0416666666666667;" x1="298.4375" x2="388.0208" y1="135.4777" y2="135.4777"/><!--class SuppressWarnings--><rect fill="url(#gw4qu41pdlozh0)" height="47.9167" id="SuppressWarnings" rx="4.1667" ry="4.1667" style="stroke: #2683B9; stroke-width: 1.0416666666666667;" width="159.375" x="426.0417" y="66.9861"/><ellipse cx="440.625" cy="82.6111" fill="#E3664A" rx="10.4167" ry="10.4167" style="stroke: #2683B9; stroke-width: 1.0416666666666667;"/><path d="M442.0085,80.8044 L442.0085,80.4138 Q442.0085,79.8116 441.6585,79.4454 Q441.3086,79.0792 440.7552,79.0792 Q440.3158,79.0792 439.9333,79.3722 Q439.5508,79.6651 439.3555,80.1208 Q438.9974,80.9347 438.9974,81.7322 L438.9974,83.5876 Q438.9974,85.0037 439.6322,85.8337 Q440.0553,86.3871 440.7878,86.3871 Q441.1947,86.3871 441.5283,86.2813 Q441.862,86.1755 442.041,85.9884 Q442.2201,85.8012 442.3828,85.8012 Q442.5781,85.8012 442.7083,85.9395 Q442.8385,86.0779 442.8385,86.2895 Q442.8385,86.5824 442.4316,86.8754 Q441.8132,87.2986 440.7552,87.2986 Q439.9577,87.2986 439.4206,86.9242 Q438.7533,86.4522 438.4196,85.5245 Q438.0859,84.5968 438.0859,83.6853 L438.0859,81.6671 Q438.0859,80.2022 438.8102,79.1768 Q439.5345,78.1514 440.7389,78.1514 Q441.276,78.1514 441.7643,78.3793 Q442.2526,78.6072 442.5944,79.1687 Q442.9362,79.7302 442.9362,80.4138 L442.9362,83.7504 Q443.1966,83.8806 443.1966,84.1573 Q443.1966,84.3689 443.0501,84.5072 Q442.9036,84.6456 442.5618,84.6456 L442.0085,84.6456 L442.0085,84.5968 Q441.7155,84.6456 441.5853,84.6456 Q440.8529,84.6456 440.3076,84.1003 Q439.7624,83.5551 439.7624,82.8227 Q439.7624,82.0414 440.3646,81.4555 Q440.9668,80.8695 442.0085,80.8044 Z M442.0085,81.7485 Q441.3574,81.8136 441.0156,82.1228 Q440.6738,82.432 440.6738,82.8389 Q440.6738,83.1807 440.9587,83.4412 Q441.2435,83.7016 441.7155,83.7016 Q441.7969,83.7016 442.0085,83.6853 L442.0085,81.7485 Z "/><text fill="#FFFFFF" font-family="Verdana" font-size="12.5" lengthAdjust="spacingAndGlyphs" textLength="123.9583" x="456.25" y="87.5824">SuppressWarnings</text><line style="stroke: #2683B9; stroke-width: 1.0416666666666667;" x1="427.0833" x2="584.375" y1="98.2361" y2="98.2361"/><line style="stroke: #2683B9; stroke-width: 1.0416666666666667;" x1="427.0833" x2="584.375" y1="106.5694" y2="106.5694"/><!--link List to AbstractList--><path d="M236.1104,136.0517 C238.4146,159.4465 241.1521,187.2382 243.0385,206.3965 " fill="none" id="List-AbstractList" style="stroke: #2FA4E7; stroke-width: 3.125;"/><polygon fill="none" points="228.8229,136.4486,234.0375,115.0007,243.3365,135.0184,228.8229,136.4486" style="stroke: #2FA4E7; stroke-width: 3.125;"/><!--link Collection to AbstractCollection--><path d="M88.1816,136.0517 C86.0548,159.4465 83.5282,187.2382 81.7866,206.3965 " fill="none" id="Collection-AbstractCollection" style="stroke: #2FA4E7; stroke-width: 3.125;"/><polygon fill="none" points="80.9473,135.0882,90.0953,115.0007,95.4707,136.408,80.9473,135.0882" style="stroke: #2FA4E7; stroke-width: 3.125;"/><!--link Collection to List--><path d="M160.6646,90.9444 C174.5281,90.9444 188.3917,90.9444 202.2552,90.9444 " fill="none" id="Collection-List" style="stroke: #2FA4E7; stroke-width: 3.125;"/><polygon fill="none" points="160.4573,98.2361,139.624,90.9444,160.4573,83.6528,160.4573,98.2361" style="stroke: #2FA4E7; stroke-width: 3.125;"/><!--link AbstractCollection to AbstractList--><path d="M174.3188,230.5278 C179.5615,230.5278 184.8042,230.5278 190.0469,230.5278 " fill="none" id="AbstractCollection-AbstractList" style="stroke: #2FA4E7; stroke-width: 3.125;"/><polygon fill="none" points="174.276,237.8194,153.4427,230.5278,174.276,223.2361,174.276,237.8194" style="stroke: #2FA4E7; stroke-width: 3.125;"/><!--link AbstractList to ArrayList--><path d="M245.3125,275.9132 C245.3125,289.1142 245.3125,303.5441 245.3125,316.6279 " fill="none" id="AbstractList-ArrayList" style="stroke: #2FA4E7; stroke-width: 3.125;"/><polygon fill="none" points="238.0208,275.5111,245.3125,254.6778,252.6042,275.5111,238.0208,275.5111" style="stroke: #2FA4E7; stroke-width: 3.125;"/><!--
@startuml







skinparam defaultFontName       "Verdana"
skinparam defaultFontSize       12
skinparam dpi                   100
skinparam shadowing             false
skinparam roundcorner           8
skinparam ParticipantPadding    10
skinparam BoxPadding            2
skinparam Padding               2
skinparam TitleFontColor	    #343A40
skinparam TitleFontSize	    	20
skinparam ArrowColor            #868E96

skinparam activity {
	TitleFontSize 20
	TitleFontColor #343A40
	FontColor #FFF
	BorderColor #2FA4E7
	BackgroundColor #59B6EC-#2FA4E7
	BarColor #73A839
	StartColor #033C73
	EndColor #033C73
	DiamondBackgroundColor #FFF-#EDF0F2
  	DiamondBorderColor #BABDBF
	DiamondFontColor #343A40
}
	
skinparam sequence {
	BorderColor #2FA4E7
	TitleFontSize 14
	TitleFontColor #343A40
	BackgroundColor transparent
	StartColor #2FA4E7
	EndColor #2FA4E7
    ParticipantBackgroundColor #59B6EC-#2FA4E7
    ParticipantBorderColor #2FA4E7
	ParticipantBorderThickness 0
	ParticipantFontColor #FFF
	ActorBackgroundColor transparent
    ActorBorderColor #2FA4E7
	ActorFontColor #2FA4E7
	ArrowThickness 3
	ArrowColor #2FA4E7
	BoxBackgroundColor #F8F9FA
	BoxBorderColor #868E96
	BoxFontColor $DARk
	LifeLineBorderColor #E9ECEF
	LifeLineBorderThickness 0
	LifeLineBackgroundColor #EDF0F2
	GroupBorderColor #868E96
	GroupFontColor #343A40
	GroupHeaderFontColor #033C73
	DividerBackgroundColor #FFF-#F8F9FA
    DividerBorderColor #868E96
    DividerBorderThickness 2
    DividerFontColor #343A40
	ReferenceBorderColor #868E96
	ReferenceFontColor #343A40
	ReferenceHeaderFontColor #033C73
}

skinparam partition {
	BorderColor #2FA4E7
	FontColor #2FA4E7
}

skinparam collections {
	BackgroundColor #59B6EC-#2FA4E7
	BorderColor #2FA4E7
}

skinparam control {
	BackgroundColor  #59B6EC-#2FA4E7
	BorderColor #2683B9
	FontColor #343A40
}

skinparam entity {
	BackgroundColor  #59B6EC-#2FA4E7
	BorderColor #2683B9
	FontColor #343A40
}

skinparam boundary {
	BackgroundColor  #59B6EC-#2FA4E7
	BorderColor #2683B9
	FontColor #343A40
}

skinparam agent {
	BackgroundColor #orange
	BorderColor #999999
	FontColor #333333
}

skinparam note {
	BorderThickness 1
	BackgroundColor #35638F-#033C73
	BorderColor #033C73
	FontColor #FFF
}

skinparam artifact {
	BackgroundColor #FFF-#F8F9FA
	BorderColor #868E96
	FontColor #343A40
}

skinparam component {
	BackgroundColor  #8FB961-#73A839
	BorderColor  #73A839
	FontColor #FFF
}

skinparam interface {
	BackgroundColor  #D2494E
	BorderColor  #C71C22
	FontColor #343A40
}

skinparam storage {
	BackgroundColor #E47833-#DD5600
  	BorderColor #DD5600
	FontColor #FFF
}

skinparam node {
	BackgroundColor  #FFF-#F8F9FA
	BorderColor #35638F
	FontColor #35638F
}

skinparam cloud {
	BackgroundColor white-#59B6EC
	BorderColor transparent
	FontColor #343A40
}

skinparam database {
	BackgroundColor  #59B6EC-#2FA4E7
	BorderColor #2683B9
	FontColor #343A40
}

skinparam actor {
	FontColor #343A40
}

skinparam class {
	HeaderBackgroundColor #2683B9
	FontColor #FFF
	BackgroundColor #59B6EC-#2FA4E7
	BorderColor #2683B9
	StereotypeFontColor #343A40
	LineThickness 4
	BorderThickness 1
	AttributeFontColor #343A40
}

skinparam usecase {
	BackgroundColor #EDF0F2-#E9ECEF
	BorderColor #E9ECEF
	BorderThickness 2
	FontColor #343A40
	StereotypeFontColor #2FA4E7
}


skinparam rectangle {
	BackgroundColor #BABDBF
	BorderColor #2683B9
	BorderThickness 2
	FontColor #2FA4E7
	StereotypeFontColor #2FA4E7
}

skinparam package {
	BackgroundColor #FFF-#EDF0F2
  	BorderColor #2FA4E7
	FontColor #2FA4E7
	BorderThickness 2
}

skinparam folder {
	BackgroundColor #FFF-#EDF0F2
  	BorderColor #BABDBF
	FontColor #343A40
	BorderThickness 2
}

skinparam frame {
	BackgroundColor #FFF-#E9ECEF
  	BorderColor #BABDBF
	FontColor #343A40
	BorderThickness 2
}

title Cerulean Theme

abstract class AbstractList
abstract AbstractCollection
interface List
interface Collection

List <|- - AbstractList
Collection <|- - AbstractCollection

Collection <|- List
AbstractCollection <|- AbstractList
AbstractList <|- - ArrayList

class ArrayList {
  Object[] elementData
  size()
}

enum TimeUnit {
  DAYS
  HOURS
  MINUTES
}

annotation SuppressWarnings

@enduml

PlantUML version 1.2019.08(Sat Jul 13 12:25:14 PDT 2019)
(MIT source distribution)
Java Runtime: Java(TM) SE Runtime Environment
JVM: Java HotSpot(TM) 64-Bit Server VM
Java Version: 1.8.0_212-b32
Operating System: Windows 10
OS Version: 10.0
Default Encoding: Cp1252
Language: en
Country: US
--></g></svg>