<?xml version="1.0" encoding="UTF-8" standalone="no"?><svg xmlns="http://www.w3.org/2000/svg" xmlns:xlink="http://www.w3.org/1999/xlink" contentScriptType="application/ecmascript" contentStyleType="text/css" height="423.9583px" preserveAspectRatio="none" style="width:596px;height:423px;" version="1.1" viewBox="0 0 596 423" width="596.875px" zoomAndPan="magnify"><defs><linearGradient id="g1xaesus9p1uus0" x1="50%" x2="50%" y1="0%" y2="100%"><stop offset="0%" stop-color="#59B6EC"/><stop offset="100%" stop-color="#2FA4E7"/></linearGradient></defs><g><rect fill="none" height="39.9028" rx="4.1667" ry="4.1667" style="stroke: none; stroke-width: 1.0416666666666667;" width="359.375" x="121.875" y="2.0833"/><text fill="#343A40" font-family="Verdana" font-size="20.8333" lengthAdjust="spacingAndGlyphs" textLength="338.5417" x="132.2917" y="30.3202">Class Diagram - cerulean theme</text><!--MD5=[b4fa10df80476353258f72a232547d63]
class AbstractList--><rect fill="url(#g1xaesus9p1uus0)" height="47.9167" id="AbstractList" rx="4.1667" ry="4.1667" style="stroke: #2683B9; stroke-width: 1.0416666666666667;" width="110.4167" x="190.1042" y="218.0278"/><ellipse cx="204.6875" cy="233.6528" fill="#A9DCDF" rx="10.4167" ry="10.4167" style="stroke: #2683B9; stroke-width: 1.0416666666666667;"/><path d="M204.2806,230.6091 L203.4342,234.3363 L205.1432,234.3363 L204.2806,230.6091 Z M203.1901,228.9653 L205.3874,228.9653 L207.8451,238.0798 L206.0384,238.0798 L205.485,235.8337 L203.0762,235.8337 L202.5228,238.0798 L200.7161,238.0798 L203.1901,228.9653 Z "/><text fill="#FFFFFF" font-family="Verdana" font-size="12.5" font-style="italic" lengthAdjust="spacingAndGlyphs" textLength="75" x="220.3125" y="238.6241">AbstractList</text><line style="stroke: #2683B9; stroke-width: 1.0416666666666667;" x1="191.1458" x2="299.4792" y1="249.2778" y2="249.2778"/><line style="stroke: #2683B9; stroke-width: 1.0416666666666667;" x1="191.1458" x2="299.4792" y1="257.6111" y2="257.6111"/><!--MD5=[8e34b16d8d8f96f4a11290cd523ed859]
class AbstractCollection--><rect fill="url(#g1xaesus9p1uus0)" height="47.9167" id="AbstractCollection" rx="4.1667" ry="4.1667" style="stroke: #2683B9; stroke-width: 1.0416666666666667;" width="146.875" x="6.25" y="218.0278"/><ellipse cx="20.8333" cy="233.6528" fill="#A9DCDF" rx="10.4167" ry="10.4167" style="stroke: #2683B9; stroke-width: 1.0416666666666667;"/><path d="M20.4264,230.6091 L19.5801,234.3363 L21.2891,234.3363 L20.4264,230.6091 Z M19.3359,228.9653 L21.5332,228.9653 L23.9909,238.0798 L22.1842,238.0798 L21.6309,235.8337 L19.222,235.8337 L18.6686,238.0798 L16.862,238.0798 L19.3359,228.9653 Z "/><text fill="#FFFFFF" font-family="Verdana" font-size="12.5" font-style="italic" lengthAdjust="spacingAndGlyphs" textLength="111.4583" x="36.4583" y="238.6241">AbstractCollection</text><line style="stroke: #2683B9; stroke-width: 1.0416666666666667;" x1="7.2917" x2="152.0833" y1="249.2778" y2="249.2778"/><line style="stroke: #2683B9; stroke-width: 1.0416666666666667;" x1="7.2917" x2="152.0833" y1="257.6111" y2="257.6111"/><!--MD5=[3d4177ac58b4411586d067f34e84928f]
class List--><rect fill="url(#g1xaesus9p1uus0)" height="47.9167" id="List" rx="4.1667" ry="4.1667" style="stroke: #2683B9; stroke-width: 1.0416666666666667;" width="58.3333" x="202.6042" y="80.5278"/><ellipse cx="217.1875" cy="96.1528" fill="#B4A7E5" rx="10.4167" ry="10.4167" style="stroke: #2683B9; stroke-width: 1.0416666666666667;"/><path d="M214.0788,93.3207 L214.0788,91.7257 L219.4987,91.7257 L219.4987,93.3207 L217.6921,93.3207 L217.6921,99.2452 L219.4987,99.2452 L219.4987,100.8403 L214.0788,100.8403 L214.0788,99.2452 L215.8854,99.2452 L215.8854,93.3207 L214.0788,93.3207 Z "/><text fill="#FFFFFF" font-family="Verdana" font-size="12.5" font-style="italic" lengthAdjust="spacingAndGlyphs" textLength="22.9167" x="232.8125" y="101.1241">List</text><line style="stroke: #2683B9; stroke-width: 1.0416666666666667;" x1="203.6458" x2="259.8958" y1="111.7778" y2="111.7778"/><line style="stroke: #2683B9; stroke-width: 1.0416666666666667;" x1="203.6458" x2="259.8958" y1="120.1111" y2="120.1111"/><!--MD5=[c160724f8e3bb89ca8141a12554ac2e3]
class Collection--><rect fill="url(#g1xaesus9p1uus0)" height="47.9167" id="Collection" rx="4.1667" ry="4.1667" style="stroke: #2683B9; stroke-width: 1.0416666666666667;" width="94.7917" x="58.3333" y="80.5278"/><ellipse cx="72.9167" cy="96.1528" fill="#B4A7E5" rx="10.4167" ry="10.4167" style="stroke: #2683B9; stroke-width: 1.0416666666666667;"/><path d="M69.8079,93.3207 L69.8079,91.7257 L75.2279,91.7257 L75.2279,93.3207 L73.4212,93.3207 L73.4212,99.2452 L75.2279,99.2452 L75.2279,100.8403 L69.8079,100.8403 L69.8079,99.2452 L71.6146,99.2452 L71.6146,93.3207 L69.8079,93.3207 Z "/><text fill="#FFFFFF" font-family="Verdana" font-size="12.5" font-style="italic" lengthAdjust="spacingAndGlyphs" textLength="59.375" x="88.5417" y="101.1241">Collection</text><line style="stroke: #2683B9; stroke-width: 1.0416666666666667;" x1="59.375" x2="152.0833" y1="111.7778" y2="111.7778"/><line style="stroke: #2683B9; stroke-width: 1.0416666666666667;" x1="59.375" x2="152.0833" y1="120.1111" y2="120.1111"/><!--MD5=[ab8871ed637f40707b866ba6597734bc]
class ArrayList--><rect fill="url(#g1xaesus9p1uus0)" height="84.1014" id="ArrayList" rx="4.1667" ry="4.1667" style="stroke: #2683B9; stroke-width: 1.0416666666666667;" width="145.8333" x="172.3958" y="328.4444"/><ellipse cx="210.8854" cy="344.0694" fill="#ADD1B2" rx="10.4167" ry="10.4167" style="stroke: #2683B9; stroke-width: 1.0416666666666667;"/><path d="M212.7897,348.4965 Q212.3665,348.7081 211.8945,348.822 Q211.4225,348.936 210.918,348.936 Q209.0625,348.936 208.0859,347.7315 Q207.1257,346.5108 207.1257,344.2159 Q207.1257,341.9047 208.0859,340.7003 Q209.0625,339.4796 210.918,339.4796 Q211.4225,339.4796 211.8945,339.5935 Q212.3828,339.6912 212.7897,339.919 L212.7897,341.921 Q212.334,341.4978 211.8945,341.3025 Q211.4551,341.0909 210.9993,341.0909 Q210.0065,341.0909 209.502,341.8884 Q208.9974,342.6697 208.9974,344.2159 Q208.9974,345.7458 209.502,346.5271 Q210.0065,347.3083 210.9993,347.3083 Q211.4551,347.3083 211.8945,347.113 Q212.334,346.9177 212.7897,346.4945 L212.7897,348.4965 Z "/><text fill="#FFFFFF" font-family="Verdana" font-size="12.5" lengthAdjust="spacingAndGlyphs" textLength="57.2917" x="231.8229" y="349.0407">ArrayList</text><line style="stroke: #2683B9; stroke-width: 1.0416666666666667;" x1="173.4375" x2="317.1875" y1="359.6944" y2="359.6944"/><text fill="#343A40" font-family="Verdana" font-size="11.4583" lengthAdjust="spacingAndGlyphs" textLength="129.1667" x="180.7292" y="377.4643">Object[] elementData</text><line style="stroke: #2683B9; stroke-width: 1.0416666666666667;" x1="173.4375" x2="317.1875" y1="386.1201" y2="386.1201"/><text fill="#343A40" font-family="Verdana" font-size="11.4583" lengthAdjust="spacingAndGlyphs" textLength="33.3333" x="180.7292" y="403.89">size()</text><!--MD5=[15b68e006199004da79ea2a4d117d8e9]
class TimeUnit--><rect fill="url(#g1xaesus9p1uus0)" height="102.1937" id="TimeUnit" rx="4.1667" ry="4.1667" style="stroke: #2683B9; stroke-width: 1.0416666666666667;" width="91.6667" x="297.3958" y="53.4444"/><ellipse cx="311.9792" cy="69.0694" fill="#EB937F" rx="10.4167" ry="10.4167" style="stroke: #2683B9; stroke-width: 1.0416666666666667;"/><path d="M314.5182,73.7569 L308.8379,73.7569 L308.8379,64.6423 L314.5182,64.6423 L314.5182,66.2374 L310.6445,66.2374 L310.6445,68.1905 L314.1439,68.1905 L314.1439,69.7856 L310.6445,69.7856 L310.6445,72.1619 L314.5182,72.1619 L314.5182,73.7569 Z "/><text fill="#FFFFFF" font-family="Verdana" font-size="12.5" lengthAdjust="spacingAndGlyphs" textLength="56.25" x="327.6042" y="74.0407">TimeUnit</text><line style="stroke: #2683B9; stroke-width: 1.0416666666666667;" x1="298.4375" x2="388.0208" y1="84.6944" y2="84.6944"/><text fill="#343A40" font-family="Verdana" font-size="11.4583" lengthAdjust="spacingAndGlyphs" textLength="33.3333" x="305.7292" y="102.4643">DAYS</text><text fill="#343A40" font-family="Verdana" font-size="11.4583" lengthAdjust="spacingAndGlyphs" textLength="42.7083" x="305.7292" y="120.5566">HOURS</text><text fill="#343A40" font-family="Verdana" font-size="11.4583" lengthAdjust="spacingAndGlyphs" textLength="54.1667" x="305.7292" y="138.649">MINUTES</text><line style="stroke: #2683B9; stroke-width: 1.0416666666666667;" x1="298.4375" x2="388.0208" y1="147.3048" y2="147.3048"/><!--MD5=[0c8287f799745f7b534bf75518604c1e]
class SuppressWarnings--><rect fill="url(#g1xaesus9p1uus0)" height="47.9167" id="SuppressWarnings" rx="4.1667" ry="4.1667" style="stroke: #2683B9; stroke-width: 1.0416666666666667;" width="159.375" x="426.0417" y="80.5278"/><ellipse cx="440.625" cy="96.1528" fill="#E3664A" rx="10.4167" ry="10.4167" style="stroke: #2683B9; stroke-width: 1.0416666666666667;"/><path d="M441.8783,95.9574 Q441.8783,95.2576 441.569,94.8669 Q441.2598,94.4763 440.7064,94.4763 Q440.1693,94.4763 439.86,94.8669 Q439.5508,95.2576 439.5508,95.9574 Q439.5508,96.641 439.86,97.0317 Q440.1693,97.4223 440.7064,97.4223 Q441.2598,97.4223 441.569,97.0317 Q441.8783,96.641 441.8783,95.9574 Z M443.0176,98.4477 L441.8132,98.4477 L441.8132,97.9594 Q441.5853,98.2686 441.2598,98.4314 Q440.9505,98.5779 440.5111,98.5779 Q439.5182,98.5779 438.8997,97.8617 Q438.2813,97.1293 438.2813,95.9574 Q438.2813,94.7693 438.8835,94.0531 Q439.502,93.337 440.5111,93.337 Q440.9505,93.337 441.276,93.4835 Q441.6016,93.63 441.8132,93.9229 L441.8132,93.6788 Q441.8132,92.8487 441.3574,92.393 Q440.9017,91.9373 440.0716,91.9373 Q438.8021,91.9373 437.9883,93.0603 Q437.1908,94.1671 437.1908,95.9574 Q437.1908,97.8292 438.1185,98.9522 Q439.0462,100.059 440.5924,100.059 Q441.0807,100.059 441.5365,99.9125 Q441.9922,99.766 442.4154,99.4731 L442.9688,100.5473 Q442.4805,100.8891 441.8945,101.0518 Q441.3086,101.2309 440.6576,101.2309 Q438.5091,101.2309 437.2396,99.7986 Q435.9701,98.3826 435.9701,95.9574 Q435.9701,93.5974 437.1094,92.1814 Q438.265,90.7654 440.1367,90.7654 Q441.4714,90.7654 442.2363,91.5629 Q443.0176,92.3604 443.0176,93.7602 L443.0176,98.4477 Z "/><text fill="#FFFFFF" font-family="Verdana" font-size="12.5" lengthAdjust="spacingAndGlyphs" textLength="123.9583" x="456.25" y="101.1241">SuppressWarnings</text><line style="stroke: #2683B9; stroke-width: 1.0416666666666667;" x1="427.0833" x2="584.375" y1="111.7778" y2="111.7778"/><line style="stroke: #2683B9; stroke-width: 1.0416666666666667;" x1="427.0833" x2="584.375" y1="120.1111" y2="120.1111"/><!--MD5=[00308d07b6a5721fb0cf5861877e6652]
reverse link List to AbstractList--><path d="M236.2308,149.7725 C238.4719,172.528 241.0968,199.1801 242.9466,217.963 " fill="none" id="List&lt;-AbstractList" style="stroke: #2FA4E7; stroke-width: 3.125;"/><polygon fill="none" points="228.946,150.1995,234.1606,128.7518,243.4592,148.7701,228.946,150.1995" style="stroke: #2FA4E7; stroke-width: 3.125;"/><!--MD5=[1822909749df1453bdd84de7a60a3406]
reverse link Collection to AbstractCollection--><path d="M97.2195,149.4172 C92.8951,172.25 87.8132,199.0823 84.2373,217.963 " fill="none" id="Collection&lt;-AbstractCollection" style="stroke: #2FA4E7; stroke-width: 3.125;"/><polygon fill="none" points="90.0922,147.8643,101.1333,128.7518,104.4208,150.5782,90.0922,147.8643" style="stroke: #2FA4E7; stroke-width: 3.125;"/><!--MD5=[0159284274f96a472eb2618ad803aaca]
reverse link Collection to List--><path d="M174.5106,104.4861 C183.8119,104.4861 193.1131,104.4861 202.4145,104.4861 " fill="none" id="Collection&lt;-List" style="stroke: #2FA4E7; stroke-width: 3.125;"/><polygon fill="none" points="174.3205,111.7776,153.4872,104.4861,174.3204,97.1943,174.3205,111.7776" style="stroke: #2FA4E7; stroke-width: 3.125;"/><!--MD5=[7a3a52e8f65ef1a8d8d29530ea5cd870]
reverse link AbstractCollection to AbstractList--><path d="M174.3184,241.9861 C179.5613,241.9861 184.8041,241.9861 190.0469,241.9861 " fill="none" id="AbstractCollection&lt;-AbstractList" style="stroke: #2FA4E7; stroke-width: 3.125;"/><polygon fill="none" points="174.2757,249.2776,153.4424,241.9861,174.2757,234.6943,174.2757,249.2776" style="stroke: #2FA4E7; stroke-width: 3.125;"/><!--MD5=[40e4bb1af59cca28d4643aaff05088cc]
reverse link AbstractList to ArrayList--><path d="M245.3125,287.0991 C245.3125,300.4891 245.3125,315.1018 245.3125,328.308 " fill="none" id="AbstractList&lt;-ArrayList" style="stroke: #2FA4E7; stroke-width: 3.125;"/><polygon fill="none" points="238.0209,287.0167,245.3125,266.1834,252.6043,287.0167,238.0209,287.0167" style="stroke: #2FA4E7; stroke-width: 3.125;"/><!--MD5=[2e3800634e011febab18a688c568aaa5]
@startuml



skinparam backgroundColor white






skinparam defaultFontName       "Verdana"
skinparam defaultFontSize       12
skinparam dpi                   100
skinparam shadowing             false
skinparam roundcorner           8
skinparam ParticipantPadding    10
skinparam BoxPadding            2
skinparam Padding               2
skinparam TitleFontColor	    #343A40
skinparam TitleFontSize	    	20
skinparam TitleBorderThickness 	0
skinparam ArrowColor            #868E96

skinparam legend {
	BackgroundColor #E9ECEF
	BorderColor #BABDBF
	FontColor #343A40
}

skinparam activity {
	TitleFontSize 20
	TitleFontColor #343A40
	FontColor #FFF
	BorderColor #2FA4E7
	BackgroundColor #59B6EC-#2FA4E7
	BarColor #73A839
	StartColor #033C73
	EndColor #033C73
	DiamondBackgroundColor #FFF-#EDF0F2
  	DiamondBorderColor #BABDBF
	DiamondFontColor #343A40
}

skinparam sequence {
	BorderColor #2FA4E7
	TitleFontSize 20
	TitleFontColor #343A40
	BackgroundColor white
	StartColor #2FA4E7
	EndColor #2FA4E7
    ParticipantBackgroundColor #59B6EC-#2FA4E7
    ParticipantBorderColor #2FA4E7
	ParticipantBorderThickness 0
	ParticipantFontColor #FFF
	ActorBackgroundColor white
    ActorBorderColor #2FA4E7
	ActorFontColor #2FA4E7
	ArrowThickness 3
	ArrowColor #2FA4E7
	ArrowFontColor #FFF
	BoxBackgroundColor #F8F9FA
	BoxBorderColor #868E96
	BoxFontColor #343A40
	LifeLineBorderColor #BABDBF
	LifeLineBorderThickness 2
	LifeLineBackgroundColor #EDF0F2
	GroupBorderColor #868E96
	GroupFontColor #343A40
	GroupHeaderFontColor #033C73
	DividerBackgroundColor #FFF-#F8F9FA
    DividerBorderColor #868E96
    DividerBorderThickness 2
    DividerFontColor #343A40
	ReferenceBackgroundColor white
	ReferenceBorderColor #868E96
	ReferenceFontColor #343A40
	ReferenceHeaderFontColor #033C73
}

skinparam partition {
	BorderColor #2FA4E7
	FontColor #2FA4E7
	BackgroundColor white
}

skinparam collections {
	BackgroundColor #59B6EC-#2FA4E7
	BorderColor #2FA4E7
}

skinparam control {
	BackgroundColor  #59B6EC-#2FA4E7
	BorderColor #2683B9
	FontColor #343A40
}

skinparam entity {
	BackgroundColor  #59B6EC-#2FA4E7
	BorderColor #2683B9
	FontColor #343A40
}

skinparam boundary {
	BackgroundColor  #59B6EC-#2FA4E7
	BorderColor #2683B9
	FontColor #343A40
}

skinparam agent {
	BackgroundColor #orange
	BorderColor #999999
	FontColor #333333
}

skinparam note {
	BorderThickness 1
	BackgroundColor #35638F-#033C73
	BorderColor #033C73
	FontColor #FFF
}

skinparam artifact {
	BackgroundColor #FFF-#F8F9FA
	BorderColor #868E96
	FontColor #868E96
}

skinparam component {
	BackgroundColor  #8FB961-#73A839
	BorderColor  #73A839
	FontColor #FFF
}

skinparam interface {
	BackgroundColor  #D2494E
	BorderColor  #C71C22
	FontColor #343A40
}

skinparam storage {
	BackgroundColor #E47833-#DD5600
  	BorderColor #DD5600
	FontColor #FFF
}

skinparam node {
	BackgroundColor #EDF0F2-#E9ECEF
	BorderColor #343A40
	FontColor #343A40
}

skinparam cloud {
	BackgroundColor white-lightskyblue
	BorderColor white
	FontColor #343A40
}

skinparam database {
	BackgroundColor  #59B6EC-#2FA4E7
	BorderColor #2683B9
	FontColor #343A40
}

skinparam actor {
	FontColor #343A40
}

skinparam class {
	HeaderBackgroundColor #2FA4E7-#2683B9
	FontColor #FFF
	BackgroundColor #59B6EC-#2FA4E7
	BorderColor #2683B9
	StereotypeFontColor #343A40
	BorderThickness 1
	AttributeFontColor #343A40
	AttributeFontSize 11
}

skinparam object {
	FontColor #73A839
	BackgroundColor #E9ECEF-#BABDBF
	BorderColor #BABDBF
	StereotypeFontColor #343A40
	BorderThickness 1
	AttributeFontColor #343A40
	AttributeFontSize 11
}

skinparam usecase {
	BackgroundColor #EDF0F2-#E9ECEF
	BorderColor #E9ECEF
	BorderThickness 2
	FontColor #343A40
	StereotypeFontColor #2FA4E7
}

skinparam rectangle {
	BackgroundColor #E9ECEF-#BABDBF
	BorderColor #2683B9
	BorderThickness 2
	FontColor #2FA4E7
	StereotypeFontColor #2FA4E7
}

skinparam package {
	BackgroundColor #EDF0F2-#E9ECEF
  	BorderColor #2FA4E7
	FontColor #2FA4E7
	BorderThickness 2
}

skinparam folder {
	BackgroundColor #FFF-#EDF0F2
  	BorderColor #DD5600
	FontColor #DD5600
	BorderThickness 2
}

skinparam frame {
	BackgroundColor #FFF-#EDF0F2
  	BorderColor #033C73
	FontColor #033C73
	BorderThickness 2
}

skinparam state {
	StartColor #033C73
	EndColor #033C73
	BackgroundColor #E9ECEF-#BABDBF
	BorderColor #BABDBF
	FontColor #033C73
	AttributeFontColor #343A40
	AttributeFontSize 11
}

skinparam queue {
	BackgroundColor #DD5600-#B14500
  	BorderColor #B14500
	FontColor #FFF
}

skinparam card {
	BackgroundColor #35638F-#033C73
	BorderColor #033C73
	FontColor #FFF
}

skinparam file {
	BackgroundColor #EDF0F2-#E9ECEF
	BorderColor #868E96
	FontColor #868E96

}

skinparam stack {
	BackgroundColor #59B6EC-#2683B9
	BorderColor #2FA4E7
	FontColor #FFF
}


title Class Diagram - cerulean theme


abstract class AbstractList
abstract AbstractCollection
interface List
interface Collection

List <|- - AbstractList
Collection <|- - AbstractCollection

Collection <|- List
AbstractCollection <|- AbstractList
AbstractList <|- - ArrayList

class ArrayList {
  Object[] elementData
  size()
}

enum TimeUnit {
  DAYS
  HOURS
  MINUTES
}

annotation SuppressWarnings

@enduml

PlantUML version 1.2019.11(Sun Sep 22 03:02:15 PDT 2019)
(GPL source distribution)
Java Runtime: OpenJDK Runtime Environment
JVM: OpenJDK 64-Bit Server VM
Java Version: 11.0.4+11-post-Ubuntu-1ubuntu218.04.3
Operating System: Linux
Default Encoding: UTF-8
Language: en
Country: US
--></g></svg>