<?xml version="1.0" encoding="UTF-8" standalone="no"?><svg xmlns="http://www.w3.org/2000/svg" xmlns:xlink="http://www.w3.org/1999/xlink" contentScriptType="application/ecmascript" contentStyleType="text/css" height="633.3333px" preserveAspectRatio="none" style="width:837px;height:633px;" version="1.1" viewBox="0 0 837 633" width="837.5px" zoomAndPan="magnify"><defs><linearGradient id="grhidi6x6xbe20" x1="50%" x2="50%" y1="0%" y2="100%"><stop offset="0%" stop-color="#EDF0F2"/><stop offset="100%" stop-color="#E9ECEF"/></linearGradient><linearGradient id="grhidi6x6xbe21" x1="50%" x2="50%" y1="0%" y2="100%"><stop offset="0%" stop-color="#FFFFFF"/><stop offset="100%" stop-color="#87CEFA"/></linearGradient><linearGradient id="grhidi6x6xbe22" x1="50%" x2="50%" y1="0%" y2="100%"><stop offset="0%" stop-color="#59B6EC"/><stop offset="100%" stop-color="#2FA4E7"/></linearGradient><linearGradient id="grhidi6x6xbe23" x1="50%" x2="50%" y1="0%" y2="100%"><stop offset="0%" stop-color="#FFFFFF"/><stop offset="100%" stop-color="#EDF0F2"/></linearGradient><linearGradient id="grhidi6x6xbe24" x1="50%" x2="50%" y1="0%" y2="100%"><stop offset="0%" stop-color="#8FB961"/><stop offset="100%" stop-color="#73A839"/></linearGradient><linearGradient id="grhidi6x6xbe25" x1="50%" x2="50%" y1="0%" y2="100%"><stop offset="0%" stop-color="#FFFFFF"/><stop offset="100%" stop-color="#F8F9FA"/></linearGradient><linearGradient id="grhidi6x6xbe26" x1="50%" x2="50%" y1="0%" y2="100%"><stop offset="0%" stop-color="#E47833"/><stop offset="100%" stop-color="#DD5600"/></linearGradient><linearGradient id="grhidi6x6xbe27" x1="50%" x2="50%" y1="0%" y2="100%"><stop offset="0%" stop-color="#DD5600"/><stop offset="100%" stop-color="#B14500"/></linearGradient><linearGradient id="grhidi6x6xbe28" x1="50%" x2="50%" y1="0%" y2="100%"><stop offset="0%" stop-color="#35638F"/><stop offset="100%" stop-color="#033C73"/></linearGradient><linearGradient id="grhidi6x6xbe29" x1="50%" x2="50%" y1="0%" y2="100%"><stop offset="0%" stop-color="#59B6EC"/><stop offset="100%" stop-color="#2683B9"/></linearGradient></defs><g><rect fill="none" height="39.9028" rx="4.1667" ry="4.1667" style="stroke: none; stroke-width: 1.0416666666666667;" width="425" x="209.375" y="2.0833"/><text fill="#343A40" font-family="Verdana" font-size="20.8333" lengthAdjust="spacingAndGlyphs" textLength="404.1667" x="219.7917" y="30.3202">Component Diagram - cerulean theme</text><!--MD5=[98956307d0c47524864de5bf9cdc747b]
cluster My Package--><path d="M27.0833,70.1111 L111.4583,70.1111 A6.25,6.25 0 0 1 115.625,74.2778 L122.9167,95.7194 L435.4167,95.7194 A4.1667,4.1667 0 0 1 439.5833,99.8861 L439.5833,161.7778 A4.1667,4.1667 0 0 1 435.4167,165.9444 L27.0833,165.9444 A4.1667,4.1667 0 0 1 22.9167,161.7778 L22.9167,74.2778 A4.1667,4.1667 0 0 1 27.0833,70.1111 " fill="url(#grhidi6x6xbe20)" style="stroke: #2FA4E7; stroke-width: 1.5625;"/><line style="stroke: #2FA4E7; stroke-width: 1.5625;" x1="22.9167" x2="122.9167" y1="95.7194" y2="95.7194"/><text fill="#2FA4E7" font-family="Verdana" font-size="12.5" font-weight="bold" lengthAdjust="spacingAndGlyphs" textLength="82.2917" x="29.1667" y="86.8449">My Package</text><!--MD5=[994b84a7865cf3a30290d65f6358d5f5]
cluster My Node--><polygon fill="url(#grhidi6x6xbe20)" points="23.9583,201.3611,34.375,190.9444,266.6667,190.9444,266.6667,281.5694,256.25,291.9861,23.9583,291.9861,23.9583,201.3611" style="stroke: #343A40; stroke-width: 1.5625;"/><line style="stroke: #343A40; stroke-width: 1.5625;" x1="256.25" x2="265.625" y1="201.3611" y2="191.9861"/><line style="stroke: #343A40; stroke-width: 1.5625;" x1="23.9583" x2="256.25" y1="201.3611" y2="201.3611"/><line style="stroke: #343A40; stroke-width: 1.5625;" x1="256.25" x2="256.25" y1="201.3611" y2="291.9861"/><text fill="#343A40" font-family="Verdana" font-size="12.5" font-weight="bold" lengthAdjust="spacingAndGlyphs" textLength="59.375" x="111.4583" y="219.1366">My Node</text><!--MD5=[8f762177cf9f076b8ea6eac76c5df33e]
cluster My Cloud--><path d="M300.278,206.4185 C304.047,198.8953 309.5087,197.4333 315.4046,204.1608 C317.5048,197.0014 322.1748,194.9236 327.8744,200.6878 C332.5846,194.0192 338.0036,193.1275 343.3393,199.9718 C346.5333,193.4185 350.1971,191.1217 356.2315,197.0345 C360.8535,191.1974 366.7863,192.2359 369.2329,199.2374 C375.6756,193.0481 380.1408,194.5479 383.132,202.6047 C387.8565,194.7212 393.4354,195.0775 397.9596,202.7951 C403.2063,196.641 408.7877,197.9122 411.0087,205.6394 C417.7053,207.586 418.1523,213.8754 413.5412,218.117 C420.9198,220.8156 423.7764,227.4059 416.6386,233.1046 C423.0814,236.1127 423.3766,241.6923 418.5917,246.3553 C423.8142,252.0873 421.7898,256.2238 415.4044,259.0387 C420.4383,263.2532 421.7085,269.3328 414.1822,272.3981 C419.6619,276.7536 418.6406,281.5152 412.4162,284.1052 C410.0459,292.9236 403.18,294.7067 397.2275,287.5007 C394.4031,293.8194 387.7377,295.8228 382.9917,289.6993 C378.9114,295.661 373.7598,295.9255 369.0255,290.5015 C366.2205,296.9009 361.8896,297.3276 356.9319,292.9078 C351.2088,300.2008 345.2909,299.9548 341.4745,291.0845 C335.6836,297.0552 331.2987,296.0415 328.4249,288.307 C324.699,295.0914 318.3445,293.7369 315.3252,287.591 C309.2819,293.0314 303.7572,292.6477 301.4671,283.92 C293.8728,281.407 293.6942,277.2411 297.5464,271.1999 C291.2182,268.3284 290.0707,261.5419 296.1459,257.4106 C288.2337,255.1651 288.6017,249.6421 292.8368,244.3248 C287.5378,239.1738 287.8166,233.9541 295.5254,231.5382 C290.2742,225.8543 290.8069,221.8314 298.2116,218.8208 C292.2378,213.7965 293.3053,209.2857 300.278,206.4185 " fill="url(#grhidi6x6xbe21)" style="stroke: #FFFFFF; stroke-width: 1.5625;"/><text fill="#343A40" font-family="Verdana" font-size="12.5" font-weight="bold" lengthAdjust="spacingAndGlyphs" textLength="62.5" x="323.9583" y="224.3449">My Cloud</text><!--MD5=[5435dd1da01795d79a1d1bdb7811705f]
cluster My Database--><path d="M273.9583,327.4028 C273.9583,316.9861 355.2083,316.9861 355.2083,316.9861 C355.2083,316.9861 436.4583,316.9861 436.4583,327.4028 L436.4583,610.7361 C436.4583,621.1528 355.2083,621.1528 355.2083,621.1528 C355.2083,621.1528 273.9583,621.1528 273.9583,610.7361 L273.9583,327.4028 " fill="url(#grhidi6x6xbe22)" style="stroke: #2683B9; stroke-width: 1.5625;"/><path d="M273.9583,327.4028 C273.9583,337.8194 355.2083,337.8194 355.2083,337.8194 C355.2083,337.8194 436.4583,337.8194 436.4583,327.4028 " fill="none" style="stroke: #2683B9; stroke-width: 1.5625;"/><text fill="#343A40" font-family="Verdana" font-size="12.5" font-weight="bold" lengthAdjust="spacingAndGlyphs" textLength="88.5417" x="310.9375" y="354.5532">My Database</text><!--MD5=[db3eb734e65e00defc1adec42c70b029]
cluster My folder--><path d="M303.125,379.4861 L369.7917,379.4861 A6.25,6.25 0 0 1 373.9583,383.6528 L381.25,405.0944 L407.2917,405.0944 A4.1667,4.1667 0 0 1 411.4583,409.2611 L411.4583,471.1528 A4.1667,4.1667 0 0 1 407.2917,475.3194 L303.125,475.3194 A4.1667,4.1667 0 0 1 298.9583,471.1528 L298.9583,383.6528 A4.1667,4.1667 0 0 1 303.125,379.4861 " fill="url(#grhidi6x6xbe23)" style="stroke: #DD5600; stroke-width: 1.5625;"/><line style="stroke: #DD5600; stroke-width: 1.5625;" x1="298.9583" x2="381.25" y1="405.0944" y2="405.0944"/><text fill="#DD5600" font-family="Verdana" font-size="12.5" font-weight="bold" lengthAdjust="spacingAndGlyphs" textLength="64.5833" x="305.2083" y="396.2199">My folder</text><!--MD5=[2f95c9c104e26437854e71862f3d840e]
cluster My Frame--><rect fill="url(#grhidi6x6xbe23)" height="95.8333" rx="4.1667" ry="4.1667" style="stroke: #033C73; stroke-width: 1.5625;" width="112.5" x="298.9583" y="500.3194"/><path d="M381.25,501.3611 L381.25,512.3861 L370.8333,522.8027 L298.9583,522.8027 " fill="none" style="stroke: #033C73; stroke-width: 1.5625;"/><text fill="#033C73" font-family="Verdana" font-size="12.5" font-weight="bold" lengthAdjust="spacingAndGlyphs" textLength="67.7083" x="304.1667" y="516.0116">My Frame</text><!--MD5=[96f7e1299d4a43069e6ed32352fcac20]
entity HTTP--><ellipse cx="218.75" cy="128.9653" fill="#D2494E" rx="8.3333" ry="8.3333" style="stroke: #C71C22; stroke-width: 2.0833333333333335;"/><text fill="#343A40" font-family="Verdana" font-size="12.5" lengthAdjust="spacingAndGlyphs" textLength="32.2917" x="202.6042" y="161.3241">HTTP</text><!--MD5=[cbd7cda55f2530e2efe43ec72c097853]
entity First Component--><rect fill="url(#grhidi6x6xbe24)" height="40.1917" rx="4.1667" ry="4.1667" style="stroke: #73A839; stroke-width: 1.5625;" width="133.3333" x="39.5833" y="108.6528"/><rect fill="url(#grhidi6x6xbe24)" height="5.2083" style="stroke: #73A839; stroke-width: 1.5625;" width="10.4167" x="34.375" y="113.8611"/><rect fill="url(#grhidi6x6xbe24)" height="5.2083" style="stroke: #73A839; stroke-width: 1.5625;" width="10.4167" x="34.375" y="138.4277"/><text fill="#FFFFFF" font-family="Verdana" font-size="12.5" lengthAdjust="spacingAndGlyphs" textLength="108.3333" x="52.0833" y="133.7199">First Component</text><!--MD5=[b9d11f23832c1491231c5b33e55ab8c6]
entity Another Component--><rect fill="url(#grhidi6x6xbe24)" height="40.1917" rx="4.1667" ry="4.1667" style="stroke: #73A839; stroke-width: 1.5625;" width="157.2917" x="265.1042" y="108.6528"/><rect fill="url(#grhidi6x6xbe24)" height="5.2083" style="stroke: #73A839; stroke-width: 1.5625;" width="10.4167" x="259.8958" y="113.8611"/><rect fill="url(#grhidi6x6xbe24)" height="5.2083" style="stroke: #73A839; stroke-width: 1.5625;" width="10.4167" x="259.8958" y="138.4277"/><text fill="#FFFFFF" font-family="Verdana" font-size="12.5" lengthAdjust="spacingAndGlyphs" textLength="132.2917" x="277.6042" y="133.7199">Another Component</text><!--MD5=[76af18d92d7d7c0f7ebd8f4f605ac5aa]
entity FTP--><ellipse cx="50" cy="255.0069" fill="#D2494E" rx="8.3333" ry="8.3333" style="stroke: #C71C22; stroke-width: 2.0833333333333335;"/><text fill="#343A40" font-family="Verdana" font-size="12.5" lengthAdjust="spacingAndGlyphs" textLength="22.9167" x="38.5417" y="287.3657">FTP</text><!--MD5=[0e2cc1aee2c7f52697e111b4fb84546c]
entity Second Component--><rect fill="url(#grhidi6x6xbe24)" height="40.1917" rx="4.1667" ry="4.1667" style="stroke: #73A839; stroke-width: 1.5625;" width="153.125" x="96.3542" y="234.6944"/><rect fill="url(#grhidi6x6xbe24)" height="5.2083" style="stroke: #73A839; stroke-width: 1.5625;" width="10.4167" x="91.1458" y="239.9028"/><rect fill="url(#grhidi6x6xbe24)" height="5.2083" style="stroke: #73A839; stroke-width: 1.5625;" width="10.4167" x="91.1458" y="264.4694"/><text fill="#FFFFFF" font-family="Verdana" font-size="12.5" lengthAdjust="spacingAndGlyphs" textLength="128.125" x="108.8542" y="259.7616">Second Component</text><!--MD5=[243c1e580c31013c48b02624e18b25a7]
entity Example 1--><rect fill="url(#grhidi6x6xbe24)" height="40.1917" rx="4.1667" ry="4.1667" style="stroke: #73A839; stroke-width: 1.5625;" width="92.7083" x="308.8542" y="234.6944"/><rect fill="url(#grhidi6x6xbe24)" height="5.2083" style="stroke: #73A839; stroke-width: 1.5625;" width="10.4167" x="303.6458" y="239.9028"/><rect fill="url(#grhidi6x6xbe24)" height="5.2083" style="stroke: #73A839; stroke-width: 1.5625;" width="10.4167" x="303.6458" y="264.4694"/><text fill="#FFFFFF" font-family="Verdana" font-size="12.5" lengthAdjust="spacingAndGlyphs" textLength="67.7083" x="321.3542" y="259.7616">Example 1</text><!--MD5=[3e0e08c92570480402984701ab5a6d2d]
entity Folder 3--><rect fill="url(#grhidi6x6xbe24)" height="40.1917" rx="4.1667" ry="4.1667" style="stroke: #73A839; stroke-width: 1.5625;" width="78.125" x="316.1458" y="418.0278"/><rect fill="url(#grhidi6x6xbe24)" height="5.2083" style="stroke: #73A839; stroke-width: 1.5625;" width="10.4167" x="310.9375" y="423.2361"/><rect fill="url(#grhidi6x6xbe24)" height="5.2083" style="stroke: #73A839; stroke-width: 1.5625;" width="10.4167" x="310.9375" y="447.8027"/><text fill="#FFFFFF" font-family="Verdana" font-size="12.5" lengthAdjust="spacingAndGlyphs" textLength="53.125" x="328.6458" y="443.0949">Folder 3</text><!--MD5=[63877ed85df621d134a6c80fb52dad56]
entity Frame 4--><rect fill="url(#grhidi6x6xbe24)" height="40.1917" rx="4.1667" ry="4.1667" style="stroke: #73A839; stroke-width: 1.5625;" width="78.125" x="316.1458" y="538.8611"/><rect fill="url(#grhidi6x6xbe24)" height="5.2083" style="stroke: #73A839; stroke-width: 1.5625;" width="10.4167" x="310.9375" y="544.0694"/><rect fill="url(#grhidi6x6xbe24)" height="5.2083" style="stroke: #73A839; stroke-width: 1.5625;" width="10.4167" x="310.9375" y="568.6361"/><text fill="#FFFFFF" font-family="Verdana" font-size="12.5" lengthAdjust="spacingAndGlyphs" textLength="53.125" x="328.6458" y="563.9282">Frame 4</text><!--MD5=[4d6c9a8b502f46c0f85d26a51e5d57ce]
entity My Artifact--><rect fill="url(#grhidi6x6xbe25)" height="43.3167" rx="4.1667" ry="4.1667" style="stroke: #868E96; stroke-width: 1.5625;" width="103.125" x="459.8958" y="107.0903"/><polygon fill="url(#grhidi6x6xbe25)" points="545.3125,112.2986,545.3125,126.8819,557.8125,126.8819,557.8125,118.5486,551.5625,112.2986,545.3125,112.2986" style="stroke: #868E96; stroke-width: 1.5625;"/><line style="stroke: #868E96; stroke-width: 1.5625;" x1="551.5625" x2="551.5625" y1="112.2986" y2="118.5486"/><line style="stroke: #868E96; stroke-width: 1.5625;" x1="557.8125" x2="551.5625" y1="118.5486" y2="118.5486"/><text fill="#868E96" font-family="Verdana" font-size="12.5" lengthAdjust="spacingAndGlyphs" textLength="67.7083" x="472.3958" y="135.2824">My Artifact</text><!--MD5=[6013850653c05993d855a7b82b2ebd6f]
entity My Storage--><rect fill="url(#grhidi6x6xbe26)" height="40.1917" rx="36.4583" ry="36.4583" style="stroke: #DD5600; stroke-width: 1.5625;" width="98.9583" x="599.4792" y="108.6528"/><text fill="#FFFFFF" font-family="Verdana" font-size="12.5" lengthAdjust="spacingAndGlyphs" textLength="73.9583" x="611.9792" y="133.7199">My Storage</text><!--MD5=[decf897d207c1b699121f5d4005ef96e]
entity My Queue--><path d="M740.1042,113.8611 L820.3125,113.8611 C825.5208,113.8611 825.5208,128.7486 825.5208,128.7486 C825.5208,128.7486 825.5208,143.6361 820.3125,143.6361 L740.1042,143.6361 C734.8958,143.6361 734.8958,128.7486 734.8958,128.7486 C734.8958,128.7486 734.8958,113.8611 740.1042,113.8611 " fill="url(#grhidi6x6xbe27)" style="stroke: #B14500; stroke-width: 1.5625;"/><path d="M820.3125,113.8611 C815.1042,113.8611 815.1042,128.7486 815.1042,128.7486 C815.1042,143.6361 820.3125,143.6361 820.3125,143.6361 " fill="none" style="stroke: #B14500; stroke-width: 1.5625;"/><text fill="#FFFFFF" font-family="Verdana" font-size="12.5" lengthAdjust="spacingAndGlyphs" textLength="65.625" x="742.1875" y="133.7199">My Queue</text><!--MD5=[db0b4290d55c456da6f1e605315daa68]
entity My Interface--><ellipse cx="511.4583" cy="255.0069" fill="#D2494E" rx="8.3333" ry="8.3333" style="stroke: #C71C22; stroke-width: 2.0833333333333335;"/><text fill="#343A40" font-family="Verdana" font-size="12.5" lengthAdjust="spacingAndGlyphs" textLength="81.25" x="470.8333" y="287.3657">My Interface</text><!--MD5=[c42dbb279bb2c76edeffd08640135261]
entity My Card--><rect fill="url(#grhidi6x6xbe28)" height="25.6083" rx="4.1667" ry="4.1667" style="stroke: #033C73; stroke-width: 1.5625;" width="78.125" x="599.4792" y="241.9861"/><text fill="#FFFFFF" font-family="Verdana" font-size="12.5" lengthAdjust="spacingAndGlyphs" textLength="53.125" x="611.9792" y="259.7616">My Card</text><!--MD5=[4552e0ab931d4db86ba1ccdf7169c968]
entity My File--><path d="M714.5833,238.8611 L714.5833,270.7194 A4.1667,4.1667 0 0 0 718.75,274.8861 L779.1667,274.8861 A4.1667,4.1667 0 0 0 783.3333,270.7194 L783.3333,245.1111 L772.9167,234.6944 L718.75,234.6944 A4.1667,4.1667 0 0 0 714.5833,238.8611 " fill="url(#grhidi6x6xbe20)" style="stroke: #868E96; stroke-width: 1.5625;"/><path d="M772.9167,234.6944 L772.9167,240.9444 A4.1667,4.1667 0 0 0 777.0833,245.1111 L783.3333,245.1111 " fill="url(#grhidi6x6xbe20)" style="stroke: #868E96; stroke-width: 1.5625;"/><text fill="#868E96" font-family="Verdana" font-size="12.5" lengthAdjust="spacingAndGlyphs" textLength="43.75" x="727.0833" y="259.7616">My File</text><!--MD5=[5a51615613d2b2569e36ac803df4b251]
entity My Stack--><rect fill="url(#grhidi6x6xbe29)" height="40.1917" rx="4.1667" ry="4.1667" style="stroke: none; stroke-width: 1.5625;" width="82.2917" x="470.3125" y="418.0278"/><path d="M454.6875,418.0278 L466.1458,418.0278 A4.1667,4.1667 0 0 1 470.3125,422.1944 L470.3125,454.0527 A4.1667,4.1667 0 0 0 474.4792,458.2194 L548.4375,458.2194 A4.1667,4.1667 0 0 0 552.6042,454.0527 L552.6042,422.1944 A4.1667,4.1667 0 0 1 556.7708,418.0278 L568.2292,418.0278 " fill="none" style="stroke: #2FA4E7; stroke-width: 1.5625;"/><text fill="#FFFFFF" font-family="Verdana" font-size="12.5" lengthAdjust="spacingAndGlyphs" textLength="57.2917" x="482.8125" y="443.0949">My Stack</text><!--MD5=[46d996859f59e5baf77956ce93023cee]
link HTTP to First Component--><path d="M209.1094,128.9653 C197.0885,128.9653 185.0677,128.9653 173.0469,128.9653 " fill="none" id="HTTP-First Component" style="stroke: #2FA4E7; stroke-width: 3.125;"/><!--MD5=[1966a42bb49d59057147dbda06282f4b]
link FTP to Second Component--><path d="M59.6029,255.0069 C71.8491,255.0069 84.0952,255.0069 96.3414,255.0069 " fill="none" id="FTP-Second Component" style="stroke: #2FA4E7; stroke-width: 3.125;"/><!--MD5=[d3aefbd8005e27b21e7ce98ddd948193]
link First Component to FTP--><path d="M95.015,149.7163 C89.6314,159.4767 83.255,171.5194 78.125,182.6111 C69.0451,202.2423 60.1644,225.6892 54.8857,240.2059 " fill="none" id="First Component-&gt;FTP" style="stroke: #2FA4E7; stroke-width: 3.125;"/><polygon fill="#2FA4E7" points="52.9821,245.484,60.0834,238.0797,54.7499,240.5848,52.2447,235.2513,52.9821,245.484" style="stroke: #2FA4E7; stroke-width: 3.125;"/><!--MD5=[efc1ffe8b578a0fb156c7bce303319bb]
link Another Component to Example 1--><path d="M345.5406,149.3757 C347.5219,170.809 350.7208,205.4184 352.8917,228.9028 " fill="none" id="Another Component-&gt;Example 1" style="stroke: #2FA4E7; stroke-width: 3.125;"/><polygon fill="#2FA4E7" points="353.3927,234.3236,356.6792,224.605,352.9135,229.1373,348.3812,225.3717,353.3927,234.3236" style="stroke: #2FA4E7; stroke-width: 3.125;"/><!--MD5=[7ec8393a78a133520e8846dd05a7857a]
link Example 1 to Folder 3--><path d="M355.2083,275.4455 C355.2083,308.4725 355.2083,375.5965 355.2083,412.1694 " fill="none" id="Example 1-&gt;Folder 3" style="stroke: #2FA4E7; stroke-width: 3.125;"/><polygon fill="#2FA4E7" points="355.2083,417.7673,359.375,408.3923,355.2083,412.559,351.0417,408.3923,355.2083,417.7673" style="stroke: #2FA4E7; stroke-width: 3.125;"/><!--MD5=[b96c7096199393c1414a8b4e9ed2c30f]
link Folder 3 to Frame 4--><path d="M355.2083,458.7257 C355.2083,479.083 355.2083,511.1913 355.2083,533.3819 " fill="none" id="Folder 3-&gt;Frame 4" style="stroke: #2FA4E7; stroke-width: 3.125;"/><polygon fill="#2FA4E7" points="355.2083,538.7967,359.375,529.4217,355.2083,533.5884,351.0417,529.4217,355.2083,538.7967" style="stroke: #2FA4E7; stroke-width: 3.125;"/><!--MD5=[b21a3c93c2a22c7ef4934ace81b9a2fe]
link My Artifact to My Storage--><!--MD5=[e181977624df3f2540e75050355d9c90]
link My Storage to My Queue--><!--MD5=[756be6e13c059af04edf2b7b91188131]
link My Artifact to My Interface--><!--MD5=[9bfee3aea78949ae207e8bd3b67fed50]
link My Interface to My Card--><!--MD5=[7d5148706a659d88e9a451ba2a45522c]
link My Card to My File--><!--MD5=[25b27bb9c6f1602048cde482562a8061]
link My Interface to My Stack--><!--MD5=[9a4e5256825932b1705d430bceeb388b]
@startuml



skinparam backgroundColor white






skinparam defaultFontName       "Verdana"
skinparam defaultFontSize       12
skinparam dpi                   100
skinparam shadowing             false
skinparam roundcorner           8
skinparam ParticipantPadding    10
skinparam BoxPadding            2
skinparam Padding               2
skinparam TitleFontColor	    #343A40
skinparam TitleFontSize	    	20
skinparam TitleBorderThickness 	0
skinparam ArrowColor            #868E96

skinparam legend {
	BackgroundColor #E9ECEF
	BorderColor #BABDBF
	FontColor #343A40
}

skinparam activity {
	TitleFontSize 20
	TitleFontColor #343A40
	FontColor #FFF
	BorderColor #2FA4E7
	BackgroundColor #59B6EC-#2FA4E7
	BarColor #73A839
	StartColor #033C73
	EndColor #033C73
	DiamondBackgroundColor #FFF-#EDF0F2
  	DiamondBorderColor #BABDBF
	DiamondFontColor #343A40
}

skinparam sequence {
	BorderColor #2FA4E7
	TitleFontSize 20
	TitleFontColor #343A40
	BackgroundColor white
	StartColor #2FA4E7
	EndColor #2FA4E7
    ParticipantBackgroundColor #59B6EC-#2FA4E7
    ParticipantBorderColor #2FA4E7
	ParticipantBorderThickness 0
	ParticipantFontColor #FFF
	ActorBackgroundColor white
    ActorBorderColor #2FA4E7
	ActorFontColor #2FA4E7
	ArrowThickness 3
	ArrowColor #2FA4E7
	BoxBackgroundColor #F8F9FA
	BoxBorderColor #868E96
	BoxFontColor #343A40
	LifeLineBorderColor #BABDBF
	LifeLineBorderThickness 0
	LifeLineBackgroundColor #EDF0F2
	GroupBorderColor #868E96
	GroupFontColor #343A40
	GroupHeaderFontColor #033C73
	DividerBackgroundColor #FFF-#F8F9FA
    DividerBorderColor #868E96
    DividerBorderThickness 2
    DividerFontColor #343A40
	ReferenceBackgroundColor white
	ReferenceBorderColor #868E96
	ReferenceFontColor #343A40
	ReferenceHeaderFontColor #033C73
}

skinparam partition {
	BorderColor #2FA4E7
	FontColor #2FA4E7
	BackgroundColor white
}

skinparam collections {
	BackgroundColor #59B6EC-#2FA4E7
	BorderColor #2FA4E7
}

skinparam control {
	BackgroundColor  #59B6EC-#2FA4E7
	BorderColor #2683B9
	FontColor #343A40
}

skinparam entity {
	BackgroundColor  #59B6EC-#2FA4E7
	BorderColor #2683B9
	FontColor #343A40
}

skinparam boundary {
	BackgroundColor  #59B6EC-#2FA4E7
	BorderColor #2683B9
	FontColor #343A40
}

skinparam agent {
	BackgroundColor #orange
	BorderColor #999999
	FontColor #333333
}

skinparam note {
	BorderThickness 1
	BackgroundColor #35638F-#033C73
	BorderColor #033C73
	FontColor #FFF
}

skinparam artifact {
	BackgroundColor #FFF-#F8F9FA
	BorderColor #868E96
	FontColor #868E96
}

skinparam component {
	BackgroundColor  #8FB961-#73A839
	BorderColor  #73A839
	FontColor #FFF
}

skinparam interface {
	BackgroundColor  #D2494E
	BorderColor  #C71C22
	FontColor #343A40
}

skinparam storage {
	BackgroundColor #E47833-#DD5600
  	BorderColor #DD5600
	FontColor #FFF
}

skinparam node {
	BackgroundColor #EDF0F2-#E9ECEF
	BorderColor #343A40
	FontColor #343A40
}

skinparam cloud {
	BackgroundColor white-lightskyblue
	BorderColor white
	FontColor #343A40
}

skinparam database {
	BackgroundColor  #59B6EC-#2FA4E7
	BorderColor #2683B9
	FontColor #343A40
}

skinparam actor {
	FontColor #343A40
}

skinparam class {
	HeaderBackgroundColor #2FA4E7-#2683B9
	FontColor #FFF
	BackgroundColor #59B6EC-#2FA4E7
	BorderColor #2683B9
	StereotypeFontColor #343A40
	BorderThickness 1
	AttributeFontColor #343A40
	AttributeFontSize 11
}

skinparam object {
	FontColor #73A839
	BackgroundColor #E9ECEF-#BABDBF
	BorderColor #BABDBF
	StereotypeFontColor #343A40
	BorderThickness 1
	AttributeFontColor #343A40
	AttributeFontSize 11
}

skinparam usecase {
	BackgroundColor #EDF0F2-#E9ECEF
	BorderColor #E9ECEF
	BorderThickness 2
	FontColor #343A40
	StereotypeFontColor #2FA4E7
}

skinparam rectangle {
	BackgroundColor #E9ECEF-#BABDBF
	BorderColor #2683B9
	BorderThickness 2
	FontColor #2FA4E7
	StereotypeFontColor #2FA4E7
}

skinparam package {
	BackgroundColor #EDF0F2-#E9ECEF
  	BorderColor #2FA4E7
	FontColor #2FA4E7
	BorderThickness 2
}

skinparam folder {
	BackgroundColor #FFF-#EDF0F2
  	BorderColor #DD5600
	FontColor #DD5600
	BorderThickness 2
}

skinparam frame {
	BackgroundColor #FFF-#EDF0F2
  	BorderColor #033C73
	FontColor #033C73
	BorderThickness 2
}

skinparam state {
	StartColor #033C73
	EndColor #033C73
	BackgroundColor #E9ECEF-#BABDBF
	BorderColor #BABDBF
	FontColor #033C73
	AttributeFontColor #343A40
	AttributeFontSize 11
}

skinparam queue {
	BackgroundColor #DD5600-#B14500
  	BorderColor #B14500
	FontColor #FFF
}

skinparam card {
	BackgroundColor #35638F-#033C73
	BorderColor #033C73
	FontColor #FFF
}

skinparam file {
	BackgroundColor #EDF0F2-#E9ECEF
	BorderColor #868E96
	FontColor #868E96

}

skinparam stack {
	BackgroundColor #59B6EC-#2683B9
	BorderColor #2FA4E7
	FontColor #FFF
}


title Component Diagram - cerulean theme


package "My Package" {
  HTTP - [First Component]
  [Another Component]
}
 
node "My Node" {
  FTP - [Second Component]
  [First Component] - -> FTP
} 

cloud "My Cloud" {
  [Example 1]
}


database "My Database" {
  folder "My folder" {
	[Folder 3]
  }
  frame "My Frame" {
	[Frame 4]
  }
}

artifact "My Artifact"
storage "My Storage"
queue "My Queue"
interface "My Interface"
card "My Card"
file "My File"
stack "My Stack"

[Another Component] - -> [Example 1]
[Example 1] - -> [Folder 3]
[Folder 3] - -> [Frame 4]

@enduml

PlantUML version 1.2019.11(Sun Sep 22 03:02:15 PDT 2019)
(GPL source distribution)
Java Runtime: Java(TM) SE Runtime Environment
JVM: Java HotSpot(TM) 64-Bit Server VM
Java Version: 1.8.0_212-b32
Operating System: Windows 10
Default Encoding: Cp1252
Language: en
Country: US
--></g></svg>