<?xml version="1.0" encoding="UTF-8" standalone="no"?><svg xmlns="http://www.w3.org/2000/svg" xmlns:xlink="http://www.w3.org/1999/xlink" contentScriptType="application/ecmascript" contentStyleType="text/css" height="1430.2083px" preserveAspectRatio="none" style="width:1362px;height:1430px;background:#00000000;" version="1.1" viewBox="0 0 1362 1430" width="1362.5px" zoomAndPan="magnify"><defs><linearGradient id="g1ae881khygds10" x1="50%" x2="50%" y1="0%" y2="100%"><stop offset="0%" stop-color="#EDF0F2"/><stop offset="100%" stop-color="#E9ECEF"/></linearGradient><linearGradient id="g1ae881khygds11" x1="50%" x2="50%" y1="0%" y2="100%"><stop offset="0%" stop-color="#59B6EC"/><stop offset="100%" stop-color="#2FA4E7"/></linearGradient><linearGradient id="g1ae881khygds12" x1="50%" x2="50%" y1="0%" y2="100%"><stop offset="0%" stop-color="#FFFFFF"/><stop offset="100%" stop-color="#F8F9FA"/></linearGradient><linearGradient id="g1ae881khygds13" x1="50%" x2="50%" y1="0%" y2="100%"><stop offset="0%" stop-color="#35638F"/><stop offset="100%" stop-color="#033C73"/></linearGradient></defs><g><rect fill="url(#g1ae881khygds10)" height="46.1528" rx="4.1667" ry="4.1667" style="stroke: #BABDBF; stroke-width: 1.0416666666666667;" width="413.5417" x="469.2708" y="30.8167"/><text fill="#2FA4E7" font-family="Verdana" font-size="20.8333" lengthAdjust="spacingAndGlyphs" textLength="386.4583" x="482.8125" y="62.1785">Sequence Diagram - cerulean theme</text><rect fill="#F8F9FA" height="1311.1328" rx="4.1667" ry="4.1667" style="stroke: #868E96; stroke-width: 1.0416666666666667;" width="356.25" x="951.0417" y="88.4277"/><text fill="#343A40" font-family="Verdana" font-size="12.5" font-weight="bold" lengthAdjust="spacingAndGlyphs" textLength="111.4583" x="1073.4375" y="106.2032">Internal Service</text><rect fill="#EDF0F2" height="242.7999" style="stroke: #BABDBF; stroke-width: 1.0416666666666667;" width="10.4167" x="392.1875" y="341.9027"/><rect fill="#FFFFFF" height="475.1831" rx="4.1667" ry="4.1667" style="stroke: #868E96; stroke-width: 2.0833333333333335;" width="1320.8333" x="13.5417" y="735.4858"/><rect fill="#FFFFFF" height="242.7999" style="stroke: none; stroke-width: 1.0416666666666667;" width="1320.8333" x="13.5417" y="899.9858"/><rect fill="#FFFFFF" height="120.1416" rx="4.1667" ry="4.1667" style="stroke: #868E96; stroke-width: 2.0833333333333335;" width="1300" x="23.9583" y="1015.3524"/><rect fill="#FFFFFF" height="77.8666" rx="4.1667" ry="4.1667" style="stroke: #868E96; stroke-width: 2.0833333333333335;" width="1279.1667" x="34.375" y="1050.3357"/><rect fill="#FFFFFF" height="67.8833" style="stroke: none; stroke-width: 1.0416666666666667;" width="1320.8333" x="13.5417" y="1142.7856"/><line style="stroke: #BABDBF; stroke-width: 1.0416666666666667;" x1="68.75" x2="68.75" y1="178.6194" y2="593.0359"/><line style="stroke: #BABDBF; stroke-width: 1.0416666666666667; stroke-dasharray: 1.0,4.0;" x1="68.75" x2="68.75" y1="593.0359" y2="647.8109"/><line style="stroke: #BABDBF; stroke-width: 1.0416666666666667;" x1="68.75" x2="68.75" y1="647.8109" y2="1305.2022"/><line style="stroke: #BABDBF; stroke-width: 1.0416666666666667;" x1="241.6667" x2="241.6667" y1="178.6194" y2="593.0359"/><line style="stroke: #BABDBF; stroke-width: 1.0416666666666667; stroke-dasharray: 1.0,4.0;" x1="241.6667" x2="241.6667" y1="593.0359" y2="647.8109"/><line style="stroke: #BABDBF; stroke-width: 1.0416666666666667;" x1="241.6667" x2="241.6667" y1="647.8109" y2="1305.2022"/><line style="stroke: #BABDBF; stroke-width: 1.0416666666666667;" x1="396.875" x2="396.875" y1="178.6194" y2="593.0359"/><line style="stroke: #BABDBF; stroke-width: 1.0416666666666667; stroke-dasharray: 1.0,4.0;" x1="396.875" x2="396.875" y1="593.0359" y2="647.8109"/><line style="stroke: #BABDBF; stroke-width: 1.0416666666666667;" x1="396.875" x2="396.875" y1="647.8109" y2="1305.2022"/><line style="stroke: #BABDBF; stroke-width: 1.0416666666666667;" x1="550" x2="550" y1="178.6194" y2="593.0359"/><line style="stroke: #BABDBF; stroke-width: 1.0416666666666667; stroke-dasharray: 1.0,4.0;" x1="550" x2="550" y1="593.0359" y2="647.8109"/><line style="stroke: #BABDBF; stroke-width: 1.0416666666666667;" x1="550" x2="550" y1="647.8109" y2="1305.2022"/><line style="stroke: #BABDBF; stroke-width: 1.0416666666666667;" x1="722.9167" x2="722.9167" y1="178.6194" y2="593.0359"/><line style="stroke: #BABDBF; stroke-width: 1.0416666666666667; stroke-dasharray: 1.0,4.0;" x1="722.9167" x2="722.9167" y1="593.0359" y2="647.8109"/><line style="stroke: #BABDBF; stroke-width: 1.0416666666666667;" x1="722.9167" x2="722.9167" y1="647.8109" y2="1305.2022"/><line style="stroke: #BABDBF; stroke-width: 1.0416666666666667;" x1="830.2083" x2="830.2083" y1="178.6194" y2="593.0359"/><line style="stroke: #BABDBF; stroke-width: 1.0416666666666667; stroke-dasharray: 1.0,4.0;" x1="830.2083" x2="830.2083" y1="593.0359" y2="647.8109"/><line style="stroke: #BABDBF; stroke-width: 1.0416666666666667;" x1="830.2083" x2="830.2083" y1="647.8109" y2="1305.2022"/><line style="stroke: #BABDBF; stroke-width: 1.0416666666666667;" x1="1021.875" x2="1021.875" y1="178.6194" y2="593.0359"/><line style="stroke: #BABDBF; stroke-width: 1.0416666666666667; stroke-dasharray: 1.0,4.0;" x1="1021.875" x2="1021.875" y1="593.0359" y2="647.8109"/><line style="stroke: #BABDBF; stroke-width: 1.0416666666666667;" x1="1021.875" x2="1021.875" y1="647.8109" y2="1305.2022"/><line style="stroke: #BABDBF; stroke-width: 1.0416666666666667;" x1="1201.0417" x2="1201.0417" y1="178.6194" y2="593.0359"/><line style="stroke: #BABDBF; stroke-width: 1.0416666666666667; stroke-dasharray: 1.0,4.0;" x1="1201.0417" x2="1201.0417" y1="593.0359" y2="647.8109"/><line style="stroke: #BABDBF; stroke-width: 1.0416666666666667;" x1="1201.0417" x2="1201.0417" y1="647.8109" y2="1305.2022"/><text fill="#343A40" font-family="Verdana" font-size="12.5" lengthAdjust="spacingAndGlyphs" textLength="32.2917" x="50" y="170.7865">Foo1</text><ellipse cx="69.2708" cy="97.8027" fill="url(#g1ae881khygds11)" rx="8.3333" ry="8.3333" style="stroke: #2FA4E7; stroke-width: 2.0833333333333335;"/><path d="M69.2708,106.1361 L69.2708,134.2611 M55.7292,114.4694 L82.8125,114.4694 M69.2708,134.2611 L55.7292,149.8861 M69.2708,134.2611 L82.8125,149.8861 " fill="none" style="stroke: #2FA4E7; stroke-width: 2.0833333333333335;"/><text fill="#343A40" font-family="Verdana" font-size="12.5" lengthAdjust="spacingAndGlyphs" textLength="32.2917" x="50" y="1321.936">Foo1</text><ellipse cx="69.2708" cy="1340.1855" fill="url(#g1ae881khygds11)" rx="8.3333" ry="8.3333" style="stroke: #2FA4E7; stroke-width: 2.0833333333333335;"/><path d="M69.2708,1348.5189 L69.2708,1376.6439 M55.7292,1356.8522 L82.8125,1356.8522 M69.2708,1376.6439 L55.7292,1392.2689 M69.2708,1376.6439 L82.8125,1392.2689 " fill="none" style="stroke: #2FA4E7; stroke-width: 2.0833333333333335;"/><text fill="#343A40" font-family="Verdana" font-size="12.5" lengthAdjust="spacingAndGlyphs" textLength="32.2917" x="222.9167" y="170.7865">Foo2</text><path d="M220.8333,123.8444 L220.8333,148.8444 M220.8333,136.3444 L238.5417,136.3444 " fill="none" style="stroke: #2FA4E7; stroke-width: 2.0833333333333335;"/><ellipse cx="251.0417" cy="136.3444" fill="url(#g1ae881khygds11)" rx="12.5" ry="12.5" style="stroke: #2FA4E7; stroke-width: 2.0833333333333335;"/><text fill="#343A40" font-family="Verdana" font-size="12.5" lengthAdjust="spacingAndGlyphs" textLength="32.2917" x="222.9167" y="1321.936">Foo2</text><path d="M220.8333,1333.9355 L220.8333,1358.9355 M220.8333,1346.4355 L238.5417,1346.4355 " fill="none" style="stroke: #2FA4E7; stroke-width: 2.0833333333333335;"/><ellipse cx="251.0417" cy="1346.4355" fill="url(#g1ae881khygds11)" rx="12.5" ry="12.5" style="stroke: #2FA4E7; stroke-width: 2.0833333333333335;"/><text fill="#343A40" font-family="Verdana" font-size="12.5" lengthAdjust="spacingAndGlyphs" textLength="32.2917" x="378.125" y="170.7865">Foo3</text><ellipse cx="397.3958" cy="136.3444" fill="url(#g1ae881khygds11)" rx="12.5" ry="12.5" style="stroke: #2FA4E7; stroke-width: 2.0833333333333335;"/><polygon fill="#2FA4E7" points="393.2292,123.8444,399.4792,118.6361,397.3958,123.8444,399.4792,129.0527,393.2292,123.8444" style="stroke: #2FA4E7; stroke-width: 1.0416666666666667;"/><text fill="#343A40" font-family="Verdana" font-size="12.5" lengthAdjust="spacingAndGlyphs" textLength="32.2917" x="378.125" y="1321.936">Foo3</text><ellipse cx="397.3958" cy="1346.4355" fill="url(#g1ae881khygds11)" rx="12.5" ry="12.5" style="stroke: #2FA4E7; stroke-width: 2.0833333333333335;"/><polygon fill="#2FA4E7" points="393.2292,1333.9355,399.4792,1328.7272,397.3958,1333.9355,399.4792,1339.1439,393.2292,1333.9355" style="stroke: #2FA4E7; stroke-width: 1.0416666666666667;"/><text fill="#343A40" font-family="Verdana" font-size="12.5" lengthAdjust="spacingAndGlyphs" textLength="32.2917" x="531.25" y="170.7865">Foo4</text><ellipse cx="550.5208" cy="136.3444" fill="url(#g1ae881khygds11)" rx="12.5" ry="12.5" style="stroke: #2FA4E7; stroke-width: 2.0833333333333335;"/><line style="stroke: #2FA4E7; stroke-width: 2.0833333333333335;" x1="538.0208" x2="563.0208" y1="150.9277" y2="150.9277"/><text fill="#343A40" font-family="Verdana" font-size="12.5" lengthAdjust="spacingAndGlyphs" textLength="32.2917" x="531.25" y="1321.936">Foo4</text><ellipse cx="550.5208" cy="1346.4355" fill="url(#g1ae881khygds11)" rx="12.5" ry="12.5" style="stroke: #2FA4E7; stroke-width: 2.0833333333333335;"/><line style="stroke: #2FA4E7; stroke-width: 2.0833333333333335;" x1="538.0208" x2="563.0208" y1="1361.0189" y2="1361.0189"/><text fill="#343A40" font-family="Verdana" font-size="12.5" lengthAdjust="spacingAndGlyphs" textLength="32.2917" x="704.1667" y="170.7865">Foo5</text><path d="M704.6875,115.5111 C704.6875,105.0944 723.4375,105.0944 723.4375,105.0944 C723.4375,105.0944 742.1875,105.0944 742.1875,115.5111 L742.1875,142.5944 C742.1875,153.0111 723.4375,153.0111 723.4375,153.0111 C723.4375,153.0111 704.6875,153.0111 704.6875,142.5944 L704.6875,115.5111 " fill="url(#g1ae881khygds11)" style="stroke: #2FA4E7; stroke-width: 1.5625;"/><path d="M704.6875,115.5111 C704.6875,125.9277 723.4375,125.9277 723.4375,125.9277 C723.4375,125.9277 742.1875,125.9277 742.1875,115.5111 " fill="none" style="stroke: #2FA4E7; stroke-width: 1.5625;"/><text fill="#343A40" font-family="Verdana" font-size="12.5" lengthAdjust="spacingAndGlyphs" textLength="32.2917" x="704.1667" y="1321.936">Foo5</text><path d="M704.6875,1340.1855 C704.6875,1329.7689 723.4375,1329.7689 723.4375,1329.7689 C723.4375,1329.7689 742.1875,1329.7689 742.1875,1340.1855 L742.1875,1367.2689 C742.1875,1377.6855 723.4375,1377.6855 723.4375,1377.6855 C723.4375,1377.6855 704.6875,1377.6855 704.6875,1367.2689 L704.6875,1340.1855 " fill="url(#g1ae881khygds11)" style="stroke: #2FA4E7; stroke-width: 1.5625;"/><path d="M704.6875,1340.1855 C704.6875,1350.6022 723.4375,1350.6022 723.4375,1350.6022 C723.4375,1350.6022 742.1875,1350.6022 742.1875,1340.1855 " fill="none" style="stroke: #2FA4E7; stroke-width: 1.5625;"/><rect fill="url(#g1ae881khygds11)" height="40.1917" rx="4.1667" ry="4.1667" style="stroke: #2FA4E7; stroke-width: 1.5625;" width="57.2917" x="804.1667" y="133.2194"/><rect fill="url(#g1ae881khygds11)" height="40.1917" rx="4.1667" ry="4.1667" style="stroke: #2FA4E7; stroke-width: 1.5625;" width="57.2917" x="800" y="137.3861"/><text fill="#FFFFFF" font-family="Verdana" font-size="12.5" lengthAdjust="spacingAndGlyphs" textLength="32.2917" x="812.5" y="162.4532">Foo6</text><rect fill="url(#g1ae881khygds11)" height="40.1917" rx="4.1667" ry="4.1667" style="stroke: #2FA4E7; stroke-width: 1.5625;" width="57.2917" x="804.1667" y="1304.1606"/><rect fill="url(#g1ae881khygds11)" height="40.1917" rx="4.1667" ry="4.1667" style="stroke: #2FA4E7; stroke-width: 1.5625;" width="57.2917" x="800" y="1308.3272"/><text fill="#FFFFFF" font-family="Verdana" font-size="12.5" lengthAdjust="spacingAndGlyphs" textLength="32.2917" x="812.5" y="1333.3944">Foo6</text><rect fill="url(#g1ae881khygds11)" height="40.1917" rx="4.1667" ry="4.1667" style="stroke: #2FA4E7; stroke-width: 1.5625;" width="50" x="996.875" y="137.3861"/><text fill="#FFFFFF" font-family="Verdana" font-size="12.5" lengthAdjust="spacingAndGlyphs" textLength="25" x="1009.375" y="162.4532">Bob</text><rect fill="url(#g1ae881khygds11)" height="40.1917" rx="4.1667" ry="4.1667" style="stroke: #2FA4E7; stroke-width: 1.5625;" width="50" x="996.875" y="1304.1606"/><text fill="#FFFFFF" font-family="Verdana" font-size="12.5" lengthAdjust="spacingAndGlyphs" textLength="25" x="1009.375" y="1329.2277">Bob</text><rect fill="url(#g1ae881khygds11)" height="55.3833" rx="4.1667" ry="4.1667" style="stroke: #2FA4E7; stroke-width: 1.5625;" width="120.8333" x="1140.625" y="122.1944"/><ellipse cx="1158.3333" cy="139.9028" fill="#ADD1B2" rx="10.4167" ry="10.4167" style="stroke: #2FA4E7; stroke-width: 1.0416666666666667;"/><path d="M1159.8796,136.9893 Q1159.9935,136.8266 1160.1318,136.7452 Q1160.2702,136.6638 1160.4329,136.6638 Q1160.7096,136.6638 1160.8805,136.8591 Q1161.0514,137.0544 1161.0514,137.4939 L1161.0514,138.5681 Q1161.0514,139.0076 1160.8805,139.2029 Q1160.7096,139.3982 1160.4329,139.3982 Q1160.1725,139.3982 1160.026,139.2517 Q1159.8796,139.1215 1159.7982,138.7309 Q1159.7656,138.4705 1159.6354,138.3403 Q1159.375,138.0636 1158.9274,137.9008 Q1158.4798,137.738 1158.0241,137.738 Q1157.4707,137.738 1156.9987,137.9822 Q1156.5267,138.2263 1156.1686,138.7716 Q1155.8105,139.3168 1155.8105,140.0818 L1155.8105,140.8956 Q1155.8105,141.7908 1156.4697,142.393 Q1157.1289,142.9952 1158.2845,142.9952 Q1158.9844,142.9952 1159.4727,142.8162 Q1159.7493,142.7022 1160.0586,142.3767 Q1160.2539,142.1814 1160.3678,142.1244 Q1160.4818,142.0675 1160.612,142.0675 Q1160.8724,142.0675 1161.0596,142.2546 Q1161.2467,142.4418 1161.2467,142.7022 Q1161.2467,142.9626 1160.9863,143.2556 Q1160.612,143.6788 1160.026,143.9229 Q1159.2448,144.2485 1158.3008,144.2485 Q1157.1777,144.2485 1156.2988,143.7927 Q1155.5664,143.4347 1155.0618,142.6371 Q1154.5573,141.8396 1154.5573,140.9119 L1154.5573,140.0655 Q1154.5573,139.0889 1155.013,138.2426 Q1155.4688,137.3962 1156.2744,136.9405 Q1157.0801,136.4848 1157.9753,136.4848 Q1158.5286,136.4848 1159.0007,136.6069 Q1159.4727,136.7289 1159.8796,136.9893 Z "/><text fill="#000000" font-family="Verdana" font-size="12.5" font-style="italic" lengthAdjust="spacingAndGlyphs" textLength="68.75" x="1180.2083" y="147.2616">«Testable»</text><text fill="#FFFFFF" font-family="Verdana" font-size="12.5" lengthAdjust="spacingAndGlyphs" textLength="29.1667" x="1200" y="162.4532">Alice</text><rect fill="url(#g1ae881khygds11)" height="55.3833" rx="4.1667" ry="4.1667" style="stroke: #2FA4E7; stroke-width: 1.5625;" width="120.8333" x="1140.625" y="1304.1606"/><ellipse cx="1158.3333" cy="1321.8689" fill="#ADD1B2" rx="10.4167" ry="10.4167" style="stroke: #2FA4E7; stroke-width: 1.0416666666666667;"/><path d="M1159.8796,1318.9555 Q1159.9935,1318.7927 1160.1318,1318.7113 Q1160.2702,1318.63 1160.4329,1318.63 Q1160.7096,1318.63 1160.8805,1318.8253 Q1161.0514,1319.0206 1161.0514,1319.46 L1161.0514,1320.5343 Q1161.0514,1320.9737 1160.8805,1321.169 Q1160.7096,1321.3643 1160.4329,1321.3643 Q1160.1725,1321.3643 1160.026,1321.2179 Q1159.8796,1321.0876 1159.7982,1320.697 Q1159.7656,1320.4366 1159.6354,1320.3064 Q1159.375,1320.0297 1158.9274,1319.8669 Q1158.4798,1319.7042 1158.0241,1319.7042 Q1157.4707,1319.7042 1156.9987,1319.9483 Q1156.5267,1320.1925 1156.1686,1320.7377 Q1155.8105,1321.283 1155.8105,1322.0479 L1155.8105,1322.8617 Q1155.8105,1323.7569 1156.4697,1324.3591 Q1157.1289,1324.9613 1158.2845,1324.9613 Q1158.9844,1324.9613 1159.4727,1324.7823 Q1159.7493,1324.6684 1160.0586,1324.3429 Q1160.2539,1324.1475 1160.3678,1324.0906 Q1160.4818,1324.0336 1160.612,1324.0336 Q1160.8724,1324.0336 1161.0596,1324.2208 Q1161.2467,1324.408 1161.2467,1324.6684 Q1161.2467,1324.9288 1160.9863,1325.2218 Q1160.612,1325.6449 1160.026,1325.8891 Q1159.2448,1326.2146 1158.3008,1326.2146 Q1157.1777,1326.2146 1156.2988,1325.7589 Q1155.5664,1325.4008 1155.0618,1324.6033 Q1154.5573,1323.8057 1154.5573,1322.878 L1154.5573,1322.0317 Q1154.5573,1321.0551 1155.013,1320.2087 Q1155.4688,1319.3624 1156.2744,1318.9067 Q1157.0801,1318.4509 1157.9753,1318.4509 Q1158.5286,1318.4509 1159.0007,1318.573 Q1159.4727,1318.6951 1159.8796,1318.9555 Z "/><text fill="#000000" font-family="Verdana" font-size="12.5" font-style="italic" lengthAdjust="spacingAndGlyphs" textLength="68.75" x="1180.2083" y="1329.2277">«Testable»</text><text fill="#FFFFFF" font-family="Verdana" font-size="12.5" lengthAdjust="spacingAndGlyphs" textLength="29.1667" x="1200" y="1344.4194">Alice</text><rect fill="#EDF0F2" height="242.7999" style="stroke: #BABDBF; stroke-width: 1.0416666666666667;" width="10.4167" x="392.1875" y="341.9027"/><rect fill="url(#g1ae881khygds12)" height="3.125" style="stroke: url(#g1ae881khygds12); stroke-width: 1.0416666666666667;" width="1346.875" x="3.125" y="215.3819"/><line style="stroke: #868E96; stroke-width: 1.0416666666666667;" x1="3.125" x2="1350" y1="215.3819" y2="215.3819"/><line style="stroke: #868E96; stroke-width: 1.0416666666666667;" x1="3.125" x2="1350" y1="218.5069" y2="218.5069"/><rect fill="url(#g1ae881khygds12)" height="33.9417" style="stroke: #868E96; stroke-width: 2.0833333333333335;" width="115.625" x="618.75" y="199.4527"/><text fill="#343A40" font-family="Verdana" font-size="12.5" font-weight="bold" lengthAdjust="spacingAndGlyphs" textLength="86.4583" x="630.2083" y="221.3949">Initialization</text><polygon fill="#2FA4E7" points="229.6875,271.5027,240.1042,275.6694,229.6875,279.836,233.8542,275.6694" style="stroke: #2FA4E7; stroke-width: 1.0416666666666667;"/><line style="stroke: #2FA4E7; stroke-width: 3.125;" x1="69.2708" x2="235.9375" y1="275.6694" y2="275.6694"/><text fill="#343A40" font-family="Verdana" font-size="12.5" font-weight="bold" lengthAdjust="spacingAndGlyphs" textLength="40.625" x="81.7708" y="265.7532">[001]</text><text fill="#343A40" font-family="Verdana" font-size="12.5" lengthAdjust="spacingAndGlyphs" textLength="82.2917" x="136.9792" y="265.7532">To boundary</text><polygon fill="#2FA4E7" points="379.6875,337.736,390.1042,341.9027,379.6875,346.0693,383.8542,341.9027" style="stroke: #2FA4E7; stroke-width: 1.0416666666666667;"/><line style="stroke: #2FA4E7; stroke-width: 3.125;" x1="242.1875" x2="385.9375" y1="341.9027" y2="341.9027"/><text fill="#343A40" font-family="Verdana" font-size="12.5" font-weight="bold" lengthAdjust="spacingAndGlyphs" textLength="40.625" x="254.6875" y="331.9865">[002]</text><text fill="#343A40" font-family="Verdana" font-size="12.5" lengthAdjust="spacingAndGlyphs" textLength="64.5833" x="309.8958" y="331.9865">To control</text><rect fill="#00000000" height="76.825" style="stroke: #868E96; stroke-width: 2.0833333333333335;" width="228.125" x="522.9167" y="350.236"/><polygon fill="#EEEEEE" points="522.9167,350.236,600,350.236,600,366.9027,589.5833,377.3193,522.9167,377.3193,522.9167,350.236" style="stroke: #868E96; stroke-width: 2.0833333333333335;"/><text fill="#033C73" font-family="Verdana" font-size="12.5" font-weight="bold" lengthAdjust="spacingAndGlyphs" textLength="19.7917" x="541.6667" y="370.0948">ref</text><text fill="#343A40" font-family="Verdana" font-size="12.5" lengthAdjust="spacingAndGlyphs" textLength="94.7917" x="589.5833" y="399.2615">This can be on</text><text fill="#343A40" font-family="Verdana" font-size="12.5" lengthAdjust="spacingAndGlyphs" textLength="82.2917" x="589.5833" y="414.4531">several lines</text><polygon fill="#2FA4E7" points="538.0208,459.9609,548.4375,464.1276,538.0208,468.2943,542.1875,464.1276" style="stroke: #2FA4E7; stroke-width: 1.0416666666666667;"/><line style="stroke: #2FA4E7; stroke-width: 3.125;" x1="402.6042" x2="544.2708" y1="464.1276" y2="464.1276"/><text fill="#343A40" font-family="Verdana" font-size="12.5" font-weight="bold" lengthAdjust="spacingAndGlyphs" textLength="40.625" x="415.1042" y="454.2114">[003]</text><text fill="#343A40" font-family="Verdana" font-size="12.5" lengthAdjust="spacingAndGlyphs" textLength="57.2917" x="470.3125" y="454.2114">To entity</text><polygon fill="#2FA4E7" points="710.9375,500.1526,721.3542,504.3193,710.9375,508.4859,715.1042,504.3193" style="stroke: #2FA4E7; stroke-width: 1.0416666666666667;"/><line style="stroke: #2FA4E7; stroke-width: 3.125;" x1="550.5208" x2="717.1875" y1="504.3193" y2="504.3193"/><text fill="#343A40" font-family="Verdana" font-size="12.5" font-weight="bold" lengthAdjust="spacingAndGlyphs" textLength="40.625" x="563.0208" y="494.4031">[004]</text><text fill="#343A40" font-family="Verdana" font-size="12.5" lengthAdjust="spacingAndGlyphs" textLength="82.2917" x="618.2292" y="494.4031">To database</text><polygon fill="#2FA4E7" points="414.0625,540.3442,403.6458,544.5109,414.0625,548.6776,409.8958,544.5109" style="stroke: #2FA4E7; stroke-width: 1.0416666666666667;"/><line style="stroke: #2FA4E7; stroke-width: 3.125; stroke-dasharray: 2.0,2.0;" x1="407.8125" x2="722.3958" y1="544.5109" y2="544.5109"/><text fill="#343A40" font-family="Verdana" font-size="12.5" font-weight="bold" lengthAdjust="spacingAndGlyphs" textLength="40.625" x="425.5208" y="534.5947">[005]</text><text fill="#343A40" font-family="Verdana" font-size="12.5" lengthAdjust="spacingAndGlyphs" textLength="40.625" x="480.7292" y="534.5947">return</text><polygon fill="#2FA4E7" points="253.6458,580.5359,243.2292,584.7026,253.6458,588.8692,249.4792,584.7026" style="stroke: #2FA4E7; stroke-width: 1.0416666666666667;"/><line style="stroke: #2FA4E7; stroke-width: 3.125; stroke-dasharray: 2.0,2.0;" x1="247.3958" x2="396.3542" y1="584.7026" y2="584.7026"/><text fill="#343A40" font-family="Verdana" font-size="12.5" font-weight="bold" lengthAdjust="spacingAndGlyphs" textLength="40.625" x="265.1042" y="574.7864">[006]</text><text fill="#343A40" font-family="Verdana" font-size="12.5" lengthAdjust="spacingAndGlyphs" textLength="40.625" x="320.3125" y="574.7864">return</text><text fill="#000000" font-family="Verdana" font-size="12.5" lengthAdjust="spacingAndGlyphs" textLength="36.4583" x="580.9896" y="625.3947">Some</text><text fill="#000000" font-family="Verdana" font-size="12.5" lengthAdjust="spacingAndGlyphs" textLength="67.7083" x="621.6146" y="625.3947">long delay</text><text fill="#000000" font-family="Verdana" font-size="12.5" lengthAdjust="spacingAndGlyphs" textLength="0" x="693.4896" y="625.3947"/><polygon fill="#2FA4E7" points="818.2292,675.5025,828.6458,679.6692,818.2292,683.8359,822.3958,679.6692" style="stroke: #2FA4E7; stroke-width: 1.0416666666666667;"/><line style="stroke: #2FA4E7; stroke-width: 3.125;" x1="69.2708" x2="824.4792" y1="679.6692" y2="679.6692"/><text fill="#343A40" font-family="Verdana" font-size="12.5" font-weight="bold" lengthAdjust="spacingAndGlyphs" textLength="40.625" x="81.7708" y="669.753">[007]</text><text fill="#343A40" font-family="Verdana" font-size="12.5" lengthAdjust="spacingAndGlyphs" textLength="87.5" x="136.9792" y="669.753">To collections</text><polygon fill="#2FA4E7" points="561.9792,715.6942,551.5625,719.8608,561.9792,724.0275,557.8125,719.8608" style="stroke: #2FA4E7; stroke-width: 1.0416666666666667;"/><line style="stroke: #2FA4E7; stroke-width: 3.125; stroke-dasharray: 2.0,2.0;" x1="555.7292" x2="829.6875" y1="719.8608" y2="719.8608"/><text fill="#343A40" font-family="Verdana" font-size="12.5" font-weight="bold" lengthAdjust="spacingAndGlyphs" textLength="40.625" x="573.4375" y="709.9447">[008]</text><text fill="#73A839" font-family="Verdana" font-size="12.5" font-weight="bold" lengthAdjust="spacingAndGlyphs" textLength="53.125" x="628.6458" y="709.9447">success</text><path d="M17.7083,735.4858 L88.5417,735.4858 L88.5417,752.1525 L78.125,762.5692 L13.5417,762.5692 L13.5417,739.6525 " fill="#EEEEEE" style="stroke: #868E96; stroke-width: 1.0416666666666667;"/><rect fill="none" height="475.1831" rx="4.1667" ry="4.1667" style="stroke: #868E96; stroke-width: 2.0833333333333335;" width="1320.8333" x="13.5417" y="735.4858"/><text fill="#033C73" font-family="Verdana" font-size="12.5" font-weight="bold" lengthAdjust="spacingAndGlyphs" textLength="17.7083" x="34.375" y="754.303">alt</text><text fill="#343A40" font-family="Verdana" font-size="12.5" font-weight="bold" lengthAdjust="spacingAndGlyphs" textLength="118.75" x="109.375" y="755.3446">[successful case]</text><polygon fill="#2FA4E7" points="1188.5417,800.8525,1198.9583,805.0191,1188.5417,809.1858,1192.7083,805.0191" style="stroke: #2FA4E7; stroke-width: 1.0416666666666667;"/><line style="stroke: #2FA4E7; stroke-width: 3.125;" x1="69.2708" x2="1194.7917" y1="805.0191" y2="805.0191"/><text fill="#343A40" font-family="Verdana" font-size="12.5" font-weight="bold" lengthAdjust="spacingAndGlyphs" textLength="40.625" x="81.7708" y="795.1029">[009]</text><text fill="#343A40" font-family="Verdana" font-size="12.5" lengthAdjust="spacingAndGlyphs" textLength="158.3333" x="136.9792" y="795.1029">Authentication Accepted</text><polygon fill="#2FA4E7" points="80.7292,841.0441,70.3125,845.2108,80.7292,849.3774,76.5625,845.2108" style="stroke: #2FA4E7; stroke-width: 1.0416666666666667;"/><line style="stroke: #2FA4E7; stroke-width: 3.125; stroke-dasharray: 2.0,2.0;" x1="74.4792" x2="1200" y1="845.2108" y2="845.2108"/><text fill="#343A40" font-family="Verdana" font-size="12.5" font-weight="bold" lengthAdjust="spacingAndGlyphs" textLength="40.625" x="92.1875" y="835.2946">[010]</text><text fill="#343A40" font-family="Verdana" font-size="12.5" lengthAdjust="spacingAndGlyphs" textLength="51.0417" x="147.3958" y="835.2946">success</text><path d="M1048.9583,862.9191 L1048.9583,890.0024 A4.1667,4.1667 0 0 0 1053.125,894.1691 L1191.6667,894.1691 A4.1667,4.1667 0 0 0 1195.8333,890.0024 L1195.8333,869.1691 L1185.4167,858.7524 L1053.125,858.7524 A4.1667,4.1667 0 0 0 1048.9583,862.9191 " fill="url(#g1ae881khygds13)" style="stroke: #033C73; stroke-width: 1.0416666666666667;"/><path d="M1185.4167,858.7524 L1185.4167,867.0858 A2.0833,2.0833 0 0 0 1187.5,869.1691 L1195.8333,869.1691 L1185.4167,858.7524 " fill="url(#g1ae881khygds13)" style="stroke: #033C73; stroke-width: 1.0416666666666667;"/><text fill="#FFFFFF" font-family="Verdana" font-size="12.5" lengthAdjust="spacingAndGlyphs" textLength="114.5833" x="1060.4167" y="881.7362">this is a first note</text><line style="stroke: #868E96; stroke-width: 1.0416666666666667; stroke-dasharray: 2.0,2.0;" x1="13.5417" x2="1334.375" y1="901.0274" y2="901.0274"/><text fill="#343A40" font-family="Verdana" font-size="12.5" font-weight="bold" lengthAdjust="spacingAndGlyphs" textLength="148.9583" x="23.9583" y="918.8029">[some kind of failure]</text><polygon fill="#2FA4E7" points="1188.5417,955.3691,1198.9583,959.5357,1188.5417,963.7024,1192.7083,959.5357" style="stroke: #2FA4E7; stroke-width: 1.0416666666666667;"/><line style="stroke: #2FA4E7; stroke-width: 3.125;" x1="69.2708" x2="1194.7917" y1="959.5357" y2="959.5357"/><text fill="#343A40" font-family="Verdana" font-size="12.5" font-weight="bold" lengthAdjust="spacingAndGlyphs" textLength="40.625" x="81.7708" y="949.6195">[011]</text><text fill="#343A40" font-family="Verdana" font-size="12.5" lengthAdjust="spacingAndGlyphs" textLength="142.7083" x="136.9792" y="949.6195">Authentication Failure</text><polygon fill="#2FA4E7" points="80.7292,995.5607,70.3125,999.7274,80.7292,1003.894,76.5625,999.7274" style="stroke: #2FA4E7; stroke-width: 1.0416666666666667;"/><line style="stroke: #2FA4E7; stroke-width: 3.125; stroke-dasharray: 2.0,2.0;" x1="74.4792" x2="1200" y1="999.7274" y2="999.7274"/><text fill="#343A40" font-family="Verdana" font-size="12.5" font-weight="bold" lengthAdjust="spacingAndGlyphs" textLength="40.625" x="92.1875" y="989.8112">[012]</text><text fill="#C71C22" font-family="Verdana" font-size="12.5" font-weight="bold" lengthAdjust="spacingAndGlyphs" textLength="82.2917" x="147.3958" y="989.8112">Bad request</text><path d="M28.125,1015.3524 L171.875,1015.3524 L171.875,1032.019 L161.4583,1042.4357 L23.9583,1042.4357 L23.9583,1019.519 " fill="#EEEEEE" style="stroke: #868E96; stroke-width: 1.0416666666666667;"/><rect fill="none" height="120.1416" rx="4.1667" ry="4.1667" style="stroke: #868E96; stroke-width: 2.0833333333333335;" width="1300" x="23.9583" y="1015.3524"/><text fill="#033C73" font-family="Verdana" font-size="12.5" font-weight="bold" lengthAdjust="spacingAndGlyphs" textLength="90.625" x="44.7917" y="1034.1695">My own label</text><path d="M38.5417,1050.3357 L120.8333,1050.3357 L120.8333,1067.0024 L110.4167,1077.419 L34.375,1077.419 L34.375,1054.5024 " fill="#EEEEEE" style="stroke: #868E96; stroke-width: 1.0416666666666667;"/><rect fill="none" height="77.8666" rx="4.1667" ry="4.1667" style="stroke: #868E96; stroke-width: 2.0833333333333335;" width="1279.1667" x="34.375" y="1050.3357"/><text fill="#033C73" font-family="Verdana" font-size="12.5" font-weight="bold" lengthAdjust="spacingAndGlyphs" textLength="29.1667" x="55.2083" y="1069.1528">loop</text><text fill="#343A40" font-family="Verdana" font-size="12.5" font-weight="bold" lengthAdjust="spacingAndGlyphs" textLength="91.6667" x="141.6667" y="1070.1945">[1000 times]</text><polygon fill="#2FA4E7" points="80.7292,1115.7023,70.3125,1119.869,80.7292,1124.0356,76.5625,1119.869" style="stroke: #2FA4E7; stroke-width: 1.0416666666666667;"/><line style="stroke: #2FA4E7; stroke-width: 3.125;" x1="74.4792" x2="1200" y1="1119.869" y2="1119.869"/><text fill="#343A40" font-family="Verdana" font-size="12.5" font-weight="bold" lengthAdjust="spacingAndGlyphs" textLength="40.625" x="92.1875" y="1109.9528">[013]</text><text fill="#343A40" font-family="Verdana" font-size="12.5" lengthAdjust="spacingAndGlyphs" textLength="71.875" x="147.3958" y="1109.9528">DNS Attack</text><line style="stroke: #868E96; stroke-width: 1.0416666666666667; stroke-dasharray: 2.0,2.0;" x1="13.5417" x2="1334.375" y1="1143.8273" y2="1143.8273"/><text fill="#343A40" font-family="Verdana" font-size="12.5" font-weight="bold" lengthAdjust="spacingAndGlyphs" textLength="115.625" x="23.9583" y="1161.6028">[Just a Warning]</text><polygon fill="#2FA4E7" points="1188.5417,1198.1689,1198.9583,1202.3356,1188.5417,1206.5023,1192.7083,1202.3356" style="stroke: #2FA4E7; stroke-width: 1.0416666666666667;"/><line style="stroke: #2FA4E7; stroke-width: 3.125;" x1="69.2708" x2="1194.7917" y1="1202.3356" y2="1202.3356"/><text fill="#343A40" font-family="Verdana" font-size="12.5" font-weight="bold" lengthAdjust="spacingAndGlyphs" textLength="40.625" x="81.7708" y="1192.4194">[014]</text><text fill="#DD5600" font-family="Verdana" font-size="12.5" font-weight="bold" lengthAdjust="spacingAndGlyphs" textLength="94.7917" x="136.9792" y="1192.4194">Please repeat</text><path d="M46.875,1227.3356 L46.875,1284.6273 A4.1667,4.1667 0 0 0 51.0417,1288.7939 L260.4167,1288.7939 A4.1667,4.1667 0 0 0 264.5833,1284.6273 L264.5833,1233.5856 L254.1667,1223.1689 L51.0417,1223.1689 A4.1667,4.1667 0 0 0 46.875,1227.3356 " fill="url(#g1ae881khygds13)" style="stroke: #033C73; stroke-width: 1.0416666666666667;"/><path d="M254.1667,1223.1689 L254.1667,1231.5023 A2.0833,2.0833 0 0 0 256.25,1233.5856 L264.5833,1233.5856 L254.1667,1223.1689 " fill="url(#g1ae881khygds13)" style="stroke: #033C73; stroke-width: 1.0416666666666667;"/><text fill="#FFFFFF" font-family="Verdana" font-size="12.5" lengthAdjust="spacingAndGlyphs" textLength="136.4583" x="82.8125" y="1246.1528">this is a second note</text><text fill="#FFFFFF" font-family="Verdana" font-size="12.5" lengthAdjust="spacingAndGlyphs" textLength="81.25" x="82.8125" y="1261.3444">that is really</text><text fill="#FFFFFF" font-family="Verdana" font-size="12.5" lengthAdjust="spacingAndGlyphs" textLength="28.125" x="82.8125" y="1276.5361">long</text><text fill="#888888" font-family="Verdana" font-size="12.5" lengthAdjust="spacingAndGlyphs" textLength="85.4167" x="1264.5833" y="15.6921">Page Header</text><text fill="#888888" font-family="Verdana" font-size="12.5" lengthAdjust="spacingAndGlyphs" textLength="75" x="639.0625" y="1416.2944">Page 1 of 1</text><!--MD5=[19b943758750df9bdca224ab5ab96afe]
@startuml



skinparam backgroundColor transparent







skinparam defaultFontName        "Verdana"
skinparam defaultFontSize        12
skinparam dpi                    100
skinparam shadowing              false
skinparam roundcorner            8
skinparam ParticipantPadding     40
skinparam BoxPadding             40
skinparam Padding                5
skinparam ArrowColor             #868E96
skinparam stereotype {
    CBackgroundColor #EDF0F2
    CBorderColor #BABDBF
    ABackgroundColor #8FB961
    ABorderColor #5C862E
    IBackgroundColor #D2494E
    IBorderColor #9F161B
    EBackgroundColor #E47833
    EBorderColor #B14500
    NBackgroundColor #35638F
    NBorderColor #02305C
}
skinparam title {
	FontColor	                 #2FA4E7
	BorderColor	                 #BABDBF
	FontSize	    	         20
	BorderRoundCorner            8
	BorderThickness 	         1
	BackgroundColor              #EDF0F2-#E9ECEF
}


skinparam legend {
	BackgroundColor #E9ECEF
	BorderColor #BABDBF
	FontColor #343A40
}

skinparam swimlane {
	BorderColor #033C73
	BorderThickness 2
	TitleBackgroundColor  #EDF0F2-#E9ECEF
	TitleFontColor #2FA4E7
}


skinparam activity {
		FontColor #FFF
	BorderColor #2FA4E7
	BackgroundColor #59B6EC-#2FA4E7
	BarColor #73A839
	StartColor #033C73
	EndColor #033C73
	DiamondBackgroundColor #FFF-#EDF0F2
  	DiamondBorderColor #BABDBF
	DiamondFontColor #343A40
}


skinparam participant {
		FontColor #FFF
	BorderColor #2FA4E7
	BackgroundColor #59B6EC-#2FA4E7
	ParticipantBorderThickness 2
}


skinparam actor {
		FontColor #FFF
	BorderColor #2FA4E7
	BackgroundColor #59B6EC-#2FA4E7
	FontColor #343A40
}


skinparam arrow {
	Thickness 3
	Color #2FA4E7
	FontColor #343A40
}


skinparam sequence {
	BorderColor #2FA4E7
	TitleFontColor #2FA4E7
	BackgroundColor transparent
	StartColor #2FA4E7
	EndColor #2FA4E7
	BoxBackgroundColor #F8F9FA
	BoxBorderColor #868E96
	BoxFontColor #343A40
	LifeLineBorderColor #BABDBF
	LifeLineBorderThickness 2
	LifeLineBackgroundColor #EDF0F2
	GroupBorderColor #868E96
	GroupFontColor #343A40
	GroupHeaderFontColor #033C73
	DividerBackgroundColor #FFF-#F8F9FA
    DividerBorderColor #868E96
    DividerBorderThickness 2
    DividerFontColor #343A40
	ReferenceBackgroundColor transparent
	ReferenceBorderColor #868E96
	ReferenceFontColor #343A40
	ReferenceHeaderFontColor #033C73
}


skinparam partition {
	BorderColor #2FA4E7
	FontColor #2FA4E7
	BackgroundColor transparent
}


skinparam collections {
		FontColor #FFF
	BorderColor #2FA4E7
	BackgroundColor #59B6EC-#2FA4E7
}


skinparam control {
		FontColor #FFF
	BorderColor #2FA4E7
	BackgroundColor #59B6EC-#2FA4E7
	FontColor #343A40
}


skinparam entity {
		FontColor #FFF
	BorderColor #2FA4E7
	BackgroundColor #59B6EC-#2FA4E7
	FontColor #343A40
}


skinparam boundary {
		FontColor #FFF
	BorderColor #2FA4E7
	BackgroundColor #59B6EC-#2FA4E7
	FontColor #343A40
}


skinparam agent {
	BackgroundColor #orange
	BorderColor #999999
	FontColor #333333
}


skinparam note {
	BorderThickness 1
	BackgroundColor #35638F-#033C73
	BorderColor #033C73
	FontColor #FFF
}


skinparam artifact {
	BackgroundColor #FFF-#F8F9FA
	BorderColor #BABDBF
	FontColor #343A40
}


skinparam component {
		FontColor #FFF
	BorderColor #2FA4E7
	BackgroundColor #59B6EC-#2FA4E7
}


skinparam interface {
	BackgroundColor  #D2494E
	BorderColor  #C71C22
	FontColor #343A40
}


skinparam storage {
	BackgroundColor #E47833-#DD5600
  	BorderColor #DD5600
	FontColor #FFF
}


skinparam node {
	BackgroundColor #EDF0F2-#E9ECEF
	BorderColor #E9ECEF
	FontColor #343A40
}


skinparam cloud {
	BackgroundColor #F2FCFE-#eeeeee
	BorderColor #F2FCFE
	FontColor #2FA4E7
}


skinparam database {
		FontColor #FFF
	BorderColor #2FA4E7
	BackgroundColor #59B6EC-#2FA4E7
	FontColor #343A40
}


skinparam class {
		FontColor #FFF
	BorderColor #2FA4E7
	BackgroundColor #59B6EC-#2FA4E7
	HeaderBackgroundColor #2FA4E7-#2683B9
	StereotypeFontColor #343A40
	BorderThickness 1
	AttributeFontColor #F8F9FA
	AttributeFontSize 11
}


skinparam object {
		FontColor #FFF
	BorderColor #2FA4E7
	BackgroundColor #59B6EC-#2FA4E7
	StereotypeFontColor #343A40
	BorderThickness 1
	AttributeFontColor #343A40
	AttributeFontSize 11
}


skinparam usecase {
		FontColor #FFF
	BorderColor #2FA4E7
	BackgroundColor #59B6EC-#2FA4E7
	BorderThickness 2
	StereotypeFontColor #2FA4E7
}


skinparam rectangle {
	FontColor #2FA4E7
	BorderColor #59B6EC
	BackgroundColor transparent
	BorderThickness 2
	StereotypeFontColor #2FA4E7
}


skinparam package {
	FontColor #2FA4E7
	BorderColor #59B6EC
	BackgroundColor transparent
	BorderThickness 2
}


skinparam folder {
	BackgroundColor #FFF-#EDF0F2
  	BorderColor #DD5600
	FontColor #DD5600
	BorderThickness 2
}


skinparam frame {
	BackgroundColor #FFF-#EDF0F2
  	BorderColor #033C73
	FontColor #033C73
	BorderThickness 2
}


skinparam state {
		FontColor #FFF
	BorderColor #2FA4E7
	BackgroundColor #59B6EC-#2FA4E7
	StartColor #033C73
	EndColor #033C73
	AttributeFontColor #343A40
	AttributeFontSize 11
}


skinparam queue {
		FontColor #FFF
	BorderColor #2FA4E7
	BackgroundColor #59B6EC-#2FA4E7
}


skinparam card {
	BackgroundColor #35638F-#033C73
	BorderColor #033C73
	FontColor #FFF
}


skinparam file {
	BackgroundColor #EDF0F2-#E9ECEF
	BorderColor #033C73
	FontColor #868E96

}


skinparam stack {
		FontColor #FFF
	BorderColor #2FA4E7
	BackgroundColor #59B6EC-#2FA4E7
}

title Sequence Diagram - cerulean theme


autonumber "<b>[000]"

header Page Header
footer Page %page% of %lastpage%

actor Foo1
boundary Foo2
control Foo3
entity Foo4
database Foo5
collections Foo6
participant Bob
participant Alice << (C,#ADD1B2) Testable >>

box "Internal Service"
	participant Bob
	participant Alice
end box

== Initialization ==
Foo1 -> Foo2 : To boundary
|||
Foo2 -> Foo3 ++: To control
ref over Foo4, Foo5
  This can be on
  several lines
end ref
Foo3 -> Foo4 : To entity

Foo4 -> Foo5 : To database
Foo5 - -> Foo3 - - : return
Foo3 - -> Foo2 - -: return
... Some ~~long delay~~ ...
Foo1 -> Foo6 : To collections
Foo6 - -> Foo4:   <font color=#73A839><b>success


alt successful case

Foo1 -> Alice: Authentication Accepted
Alice - -> Foo1: success

note left of Alice: this is a first note

else some kind of failure

	Foo1 -> Alice: Authentication Failure
    Alice - -> Foo1:   <font color=#C71C22><b>Bad request
	group My own label
	    loop 1000 times
	        Alice -> Foo1: DNS Attack
	    end
	end
	
else Just a Warning

   Foo1 -> Alice:   <font color=#DD5600><b>Please repeat
   
end

note over Foo1, Foo2
this is a second note
that is really
long
end note

@enduml

PlantUML version 1.2020.08(Sun Apr 26 07:08:22 PDT 2020)
(GPL source distribution)
Java Runtime: Java(TM) SE Runtime Environment
JVM: Java HotSpot(TM) 64-Bit Server VM
Java Version: 1.8.0_251-b32
Operating System: Windows 10
Default Encoding: Cp1252
Language: en
Country: US
--></g></svg>