<?xml version="1.0" encoding="UTF-8" standalone="no"?><svg xmlns="http://www.w3.org/2000/svg" xmlns:xlink="http://www.w3.org/1999/xlink" contentScriptType="application/ecmascript" contentStyleType="text/css" height="1218.75px" preserveAspectRatio="none" style="width:1051px;height:1218px;" version="1.1" viewBox="0 0 1051 1218" width="1051.0417px" zoomAndPan="magnify"><defs><linearGradient id="g1n4wtb3wv3bcr0" x1="50%" x2="50%" y1="0%" y2="100%"><stop offset="0%" stop-color="#59B6EC"/><stop offset="100%" stop-color="#2FA4E7"/></linearGradient><linearGradient id="g1n4wtb3wv3bcr1" x1="50%" x2="50%" y1="0%" y2="100%"><stop offset="0%" stop-color="#FFFFFF"/><stop offset="100%" stop-color="#F8F9FA"/></linearGradient><linearGradient id="g1n4wtb3wv3bcr2" x1="50%" x2="50%" y1="0%" y2="100%"><stop offset="0%" stop-color="#35638F"/><stop offset="100%" stop-color="#033C73"/></linearGradient></defs><g><text fill="#343A40" font-family="Verdana" font-size="14.5833" font-weight="bold" lengthAdjust="spacingAndGlyphs" textLength="131.25" x="455.2083" y="45.4783">Cerulean Theme</text><rect fill="#F8F9FA" height="1129.8828" rx="4.1667" ry="4.1667" style="stroke: #868E96; stroke-width: 1.0416666666666667;" width="214.5833" x="786.4583" y="58.9569"/><text fill="#FFFFFF" font-family="Verdana" font-size="12.5" font-weight="bold" lengthAdjust="spacingAndGlyphs" textLength="111.4583" x="838.0208" y="73.6074">Internal Service</text><rect fill="#EDF0F2" height="205.2999" style="stroke: #E9ECEF; stroke-width: 1.0416666666666667;" width="10.4167" x="364.0625" y="287.4318"/><rect fill="#FFFFFF" height="387.6831" rx="4.1667" ry="4.1667" style="stroke: #868E96; stroke-width: 2.0833333333333335;" width="1014.5833" x="13.5417" y="624.765"/><rect fill="#FFFFFF" height="199.0499" style="stroke: none; stroke-width: 1.0416666666666667;" width="1014.5833" x="13.5417" y="758.0149"/><rect fill="#FFFFFF" height="95.1416" rx="4.1667" ry="4.1667" style="stroke: #868E96; stroke-width: 2.0833333333333335;" width="993.75" x="23.9583" y="854.6316"/><rect fill="#FFFFFF" height="59.1166" rx="4.1667" ry="4.1667" style="stroke: #868E96; stroke-width: 2.0833333333333335;" width="972.9167" x="34.375" y="883.3649"/><rect fill="#FFFFFF" height="55.3833" style="stroke: none; stroke-width: 1.0416666666666667;" width="1014.5833" x="13.5417" y="957.0648"/><line style="stroke: #E9ECEF; stroke-width: 1.0416666666666667;" x1="65.625" x2="65.625" y1="142.8986" y2="501.0651"/><line style="stroke: #E9ECEF; stroke-width: 1.0416666666666667; stroke-dasharray: 1.0,4.0;" x1="65.625" x2="65.625" y1="501.0651" y2="549.59"/><line style="stroke: #E9ECEF; stroke-width: 1.0416666666666667;" x1="65.625" x2="65.625" y1="549.59" y2="1100.7314"/><line style="stroke: #E9ECEF; stroke-width: 1.0416666666666667;" x1="226.0417" x2="226.0417" y1="142.8986" y2="501.0651"/><line style="stroke: #E9ECEF; stroke-width: 1.0416666666666667; stroke-dasharray: 1.0,4.0;" x1="226.0417" x2="226.0417" y1="501.0651" y2="549.59"/><line style="stroke: #E9ECEF; stroke-width: 1.0416666666666667;" x1="226.0417" x2="226.0417" y1="549.59" y2="1100.7314"/><line style="stroke: #E9ECEF; stroke-width: 1.0416666666666667;" x1="368.75" x2="368.75" y1="142.8986" y2="501.0651"/><line style="stroke: #E9ECEF; stroke-width: 1.0416666666666667; stroke-dasharray: 1.0,4.0;" x1="368.75" x2="368.75" y1="501.0651" y2="549.59"/><line style="stroke: #E9ECEF; stroke-width: 1.0416666666666667;" x1="368.75" x2="368.75" y1="549.59" y2="1100.7314"/><line style="stroke: #E9ECEF; stroke-width: 1.0416666666666667;" x1="509.375" x2="509.375" y1="142.8986" y2="501.0651"/><line style="stroke: #E9ECEF; stroke-width: 1.0416666666666667; stroke-dasharray: 1.0,4.0;" x1="509.375" x2="509.375" y1="501.0651" y2="549.59"/><line style="stroke: #E9ECEF; stroke-width: 1.0416666666666667;" x1="509.375" x2="509.375" y1="549.59" y2="1100.7314"/><line style="stroke: #E9ECEF; stroke-width: 1.0416666666666667;" x1="669.7917" x2="669.7917" y1="142.8986" y2="501.0651"/><line style="stroke: #E9ECEF; stroke-width: 1.0416666666666667; stroke-dasharray: 1.0,4.0;" x1="669.7917" x2="669.7917" y1="501.0651" y2="549.59"/><line style="stroke: #E9ECEF; stroke-width: 1.0416666666666667;" x1="669.7917" x2="669.7917" y1="549.59" y2="1100.7314"/><line style="stroke: #E9ECEF; stroke-width: 1.0416666666666667;" x1="739.5833" x2="739.5833" y1="142.8986" y2="501.0651"/><line style="stroke: #E9ECEF; stroke-width: 1.0416666666666667; stroke-dasharray: 1.0,4.0;" x1="739.5833" x2="739.5833" y1="501.0651" y2="549.59"/><line style="stroke: #E9ECEF; stroke-width: 1.0416666666666667;" x1="739.5833" x2="739.5833" y1="549.59" y2="1100.7314"/><line style="stroke: #E9ECEF; stroke-width: 1.0416666666666667;" x1="822.9167" x2="822.9167" y1="142.8986" y2="501.0651"/><line style="stroke: #E9ECEF; stroke-width: 1.0416666666666667; stroke-dasharray: 1.0,4.0;" x1="822.9167" x2="822.9167" y1="501.0651" y2="549.59"/><line style="stroke: #E9ECEF; stroke-width: 1.0416666666666667;" x1="822.9167" x2="822.9167" y1="549.59" y2="1100.7314"/><line style="stroke: #E9ECEF; stroke-width: 1.0416666666666667;" x1="931.25" x2="931.25" y1="142.8986" y2="501.0651"/><line style="stroke: #E9ECEF; stroke-width: 1.0416666666666667; stroke-dasharray: 1.0,4.0;" x1="931.25" x2="931.25" y1="501.0651" y2="549.59"/><line style="stroke: #E9ECEF; stroke-width: 1.0416666666666667;" x1="931.25" x2="931.25" y1="549.59" y2="1100.7314"/><text fill="#343A40" font-family="Verdana" font-size="12.5" lengthAdjust="spacingAndGlyphs" textLength="32.2917" x="46.875" y="138.1907">Foo1</text><ellipse cx="66.1458" cy="68.3319" fill="#FFFFFF" rx="8.3333" ry="8.3333" style="stroke: #2FA4E7; stroke-width: 2.0833333333333335;"/><path d="M66.1458,76.6652 L66.1458,104.7902 M52.6042,84.9986 L79.6875,84.9986 M66.1458,104.7902 L52.6042,120.4152 M66.1458,104.7902 L79.6875,120.4152 " fill="none" style="stroke: #2FA4E7; stroke-width: 2.0833333333333335;"/><text fill="#343A40" font-family="Verdana" font-size="12.5" lengthAdjust="spacingAndGlyphs" textLength="32.2917" x="46.875" y="1114.3402">Foo1</text><ellipse cx="66.1458" cy="1129.4647" fill="#FFFFFF" rx="8.3333" ry="8.3333" style="stroke: #2FA4E7; stroke-width: 2.0833333333333335;"/><path d="M66.1458,1137.7981 L66.1458,1165.9231 M52.6042,1146.1314 L79.6875,1146.1314 M66.1458,1165.9231 L52.6042,1181.5481 M66.1458,1165.9231 L79.6875,1181.5481 " fill="none" style="stroke: #2FA4E7; stroke-width: 2.0833333333333335;"/><text fill="#343A40" font-family="Verdana" font-size="12.5" lengthAdjust="spacingAndGlyphs" textLength="32.2917" x="207.2917" y="138.1907">Foo2</text><path d="M205.2083,94.3736 L205.2083,119.3736 M205.2083,106.8736 L222.9167,106.8736 " fill="none" style="stroke: #2683B9; stroke-width: 2.0833333333333335;"/><ellipse cx="235.4167" cy="106.8736" fill="url(#g1n4wtb3wv3bcr0)" rx="12.5" ry="12.5" style="stroke: #2683B9; stroke-width: 2.0833333333333335;"/><text fill="#343A40" font-family="Verdana" font-size="12.5" lengthAdjust="spacingAndGlyphs" textLength="32.2917" x="207.2917" y="1114.3402">Foo2</text><path d="M205.2083,1123.2147 L205.2083,1148.2147 M205.2083,1135.7147 L222.9167,1135.7147 " fill="none" style="stroke: #2683B9; stroke-width: 2.0833333333333335;"/><ellipse cx="235.4167" cy="1135.7147" fill="url(#g1n4wtb3wv3bcr0)" rx="12.5" ry="12.5" style="stroke: #2683B9; stroke-width: 2.0833333333333335;"/><text fill="#343A40" font-family="Verdana" font-size="12.5" lengthAdjust="spacingAndGlyphs" textLength="32.2917" x="350" y="138.1907">Foo3</text><ellipse cx="369.2708" cy="106.8736" fill="url(#g1n4wtb3wv3bcr0)" rx="12.5" ry="12.5" style="stroke: #2683B9; stroke-width: 2.0833333333333335;"/><polygon fill="#2683B9" points="365.1042,94.3736,371.3542,89.1652,369.2708,94.3736,371.3542,99.5819,365.1042,94.3736" style="stroke: #2683B9; stroke-width: 1.0416666666666667;"/><text fill="#343A40" font-family="Verdana" font-size="12.5" lengthAdjust="spacingAndGlyphs" textLength="32.2917" x="350" y="1114.3402">Foo3</text><ellipse cx="369.2708" cy="1135.7147" fill="url(#g1n4wtb3wv3bcr0)" rx="12.5" ry="12.5" style="stroke: #2683B9; stroke-width: 2.0833333333333335;"/><polygon fill="#2683B9" points="365.1042,1123.2147,371.3542,1118.0064,369.2708,1123.2147,371.3542,1128.4231,365.1042,1123.2147" style="stroke: #2683B9; stroke-width: 1.0416666666666667;"/><text fill="#343A40" font-family="Verdana" font-size="12.5" lengthAdjust="spacingAndGlyphs" textLength="32.2917" x="490.625" y="138.1907">Foo4</text><ellipse cx="509.8958" cy="106.8736" fill="url(#g1n4wtb3wv3bcr0)" rx="12.5" ry="12.5" style="stroke: #2683B9; stroke-width: 2.0833333333333335;"/><line style="stroke: #2683B9; stroke-width: 2.0833333333333335;" x1="497.3958" x2="522.3958" y1="121.4569" y2="121.4569"/><text fill="#343A40" font-family="Verdana" font-size="12.5" lengthAdjust="spacingAndGlyphs" textLength="32.2917" x="490.625" y="1114.3402">Foo4</text><ellipse cx="509.8958" cy="1135.7147" fill="url(#g1n4wtb3wv3bcr0)" rx="12.5" ry="12.5" style="stroke: #2683B9; stroke-width: 2.0833333333333335;"/><line style="stroke: #2683B9; stroke-width: 2.0833333333333335;" x1="497.3958" x2="522.3958" y1="1150.2981" y2="1150.2981"/><text fill="#343A40" font-family="Verdana" font-size="12.5" lengthAdjust="spacingAndGlyphs" textLength="32.2917" x="651.0417" y="138.1907">Foo5</text><path d="M651.5625,86.0402 C651.5625,75.6236 670.3125,75.6236 670.3125,75.6236 C670.3125,75.6236 689.0625,75.6236 689.0625,86.0402 L689.0625,113.1236 C689.0625,123.5402 670.3125,123.5402 670.3125,123.5402 C670.3125,123.5402 651.5625,123.5402 651.5625,113.1236 L651.5625,86.0402 " fill="url(#g1n4wtb3wv3bcr0)" style="stroke: #2683B9; stroke-width: 1.5625;"/><path d="M651.5625,86.0402 C651.5625,96.4569 670.3125,96.4569 670.3125,96.4569 C670.3125,96.4569 689.0625,96.4569 689.0625,86.0402 " fill="none" style="stroke: #2683B9; stroke-width: 1.5625;"/><text fill="#343A40" font-family="Verdana" font-size="12.5" lengthAdjust="spacingAndGlyphs" textLength="32.2917" x="651.0417" y="1114.3402">Foo5</text><path d="M651.5625,1129.4647 C651.5625,1119.0481 670.3125,1119.0481 670.3125,1119.0481 C670.3125,1119.0481 689.0625,1119.0481 689.0625,1129.4647 L689.0625,1156.5481 C689.0625,1166.9647 670.3125,1166.9647 670.3125,1166.9647 C670.3125,1166.9647 651.5625,1166.9647 651.5625,1156.5481 L651.5625,1129.4647 " fill="url(#g1n4wtb3wv3bcr0)" style="stroke: #2683B9; stroke-width: 1.5625;"/><path d="M651.5625,1129.4647 C651.5625,1139.8814 670.3125,1139.8814 670.3125,1139.8814 C670.3125,1139.8814 689.0625,1139.8814 689.0625,1129.4647 " fill="none" style="stroke: #2683B9; stroke-width: 1.5625;"/><rect fill="url(#g1n4wtb3wv3bcr0)" height="33.9417" rx="4.1667" ry="4.1667" style="stroke: #2FA4E7; stroke-width: 1.5625;" width="51.0417" x="716.6667" y="103.7486"/><rect fill="url(#g1n4wtb3wv3bcr0)" height="33.9417" rx="4.1667" ry="4.1667" style="stroke: #2FA4E7; stroke-width: 1.5625;" width="51.0417" x="712.5" y="107.9152"/><text fill="#FFFFFF" font-family="Verdana" font-size="12.5" lengthAdjust="spacingAndGlyphs" textLength="32.2917" x="721.875" y="129.8574">Foo6</text><rect fill="url(#g1n4wtb3wv3bcr0)" height="33.9417" rx="4.1667" ry="4.1667" style="stroke: #2FA4E7; stroke-width: 1.5625;" width="51.0417" x="716.6667" y="1099.6897"/><rect fill="url(#g1n4wtb3wv3bcr0)" height="33.9417" rx="4.1667" ry="4.1667" style="stroke: #2FA4E7; stroke-width: 1.5625;" width="51.0417" x="712.5" y="1103.8564"/><text fill="#FFFFFF" font-family="Verdana" font-size="12.5" lengthAdjust="spacingAndGlyphs" textLength="32.2917" x="721.875" y="1125.7985">Foo6</text><rect fill="url(#g1n4wtb3wv3bcr0)" height="33.9417" rx="4.1667" ry="4.1667" style="stroke: #2FA4E7; stroke-width: 0.0;" width="43.75" x="801.0417" y="107.9152"/><text fill="#FFFFFF" font-family="Verdana" font-size="12.5" lengthAdjust="spacingAndGlyphs" textLength="25" x="810.4167" y="129.8574">Bob</text><rect fill="url(#g1n4wtb3wv3bcr0)" height="33.9417" rx="4.1667" ry="4.1667" style="stroke: #2FA4E7; stroke-width: 0.0;" width="43.75" x="801.0417" y="1099.6897"/><text fill="#FFFFFF" font-family="Verdana" font-size="12.5" lengthAdjust="spacingAndGlyphs" textLength="25" x="810.4167" y="1121.6319">Bob</text><rect fill="url(#g1n4wtb3wv3bcr0)" height="44.9666" rx="4.1667" ry="4.1667" style="stroke: #2FA4E7; stroke-width: 0.0;" width="110.4167" x="876.0417" y="96.8903"/><ellipse cx="893.75" cy="114.5986" fill="#ADD1B2" rx="10.4167" ry="10.4167" style="stroke: #2FA4E7; stroke-width: 1.0416666666666667;"/><path d="M895.2962,111.6852 Q895.4102,111.5224 895.5485,111.441 Q895.6868,111.3597 895.8496,111.3597 Q896.1263,111.3597 896.2972,111.555 Q896.4681,111.7503 896.4681,112.1897 L896.4681,113.264 Q896.4681,113.7034 896.2972,113.8987 Q896.1263,114.094 895.8496,114.094 Q895.5892,114.094 895.4427,113.9476 Q895.2962,113.8173 895.2148,113.4267 Q895.1823,113.1663 895.0521,113.0361 Q894.7917,112.7594 894.3441,112.5966 Q893.8965,112.4339 893.4408,112.4339 Q892.8874,112.4339 892.4154,112.678 Q891.9434,112.9222 891.5853,113.4674 Q891.2272,114.0127 891.2272,114.7776 L891.2272,115.5914 Q891.2272,116.4866 891.8864,117.0888 Q892.5456,117.691 893.7012,117.691 Q894.401,117.691 894.8893,117.512 Q895.166,117.3981 895.4753,117.0726 Q895.6706,116.8772 895.7845,116.8203 Q895.8984,116.7633 896.0286,116.7633 Q896.2891,116.7633 896.4762,116.9505 Q896.6634,117.1377 896.6634,117.3981 Q896.6634,117.6585 896.403,117.9515 Q896.0286,118.3746 895.4427,118.6188 Q894.6615,118.9443 893.7174,118.9443 Q892.5944,118.9443 891.7155,118.4886 Q890.9831,118.1305 890.4785,117.333 Q889.974,116.5354 889.974,115.6077 L889.974,114.7614 Q889.974,113.7848 890.4297,112.9384 Q890.8854,112.0921 891.6911,111.6364 Q892.4967,111.1806 893.3919,111.1806 Q893.9453,111.1806 894.4173,111.3027 Q894.8893,111.4248 895.2962,111.6852 Z "/><text fill="#FFFFFF" font-family="Verdana" font-size="12.5" font-style="italic" lengthAdjust="spacingAndGlyphs" textLength="68.75" x="910.4167" y="116.6819">«Testable»</text><text fill="#FFFFFF" font-family="Verdana" font-size="12.5" lengthAdjust="spacingAndGlyphs" textLength="29.1667" x="930.2083" y="131.8736">Alice</text><rect fill="url(#g1n4wtb3wv3bcr0)" height="44.9666" rx="4.1667" ry="4.1667" style="stroke: #2FA4E7; stroke-width: 0.0;" width="110.4167" x="876.0417" y="1099.6897"/><ellipse cx="893.75" cy="1117.3981" fill="#ADD1B2" rx="10.4167" ry="10.4167" style="stroke: #2FA4E7; stroke-width: 1.0416666666666667;"/><path d="M895.2962,1114.4847 Q895.4102,1114.3219 895.5485,1114.2405 Q895.6868,1114.1591 895.8496,1114.1591 Q896.1263,1114.1591 896.2972,1114.3545 Q896.4681,1114.5498 896.4681,1114.9892 L896.4681,1116.0634 Q896.4681,1116.5029 896.2972,1116.6982 Q896.1263,1116.8935 895.8496,1116.8935 Q895.5892,1116.8935 895.4427,1116.747 Q895.2962,1116.6168 895.2148,1116.2262 Q895.1823,1115.9658 895.0521,1115.8356 Q894.7917,1115.5589 894.3441,1115.3961 Q893.8965,1115.2334 893.4408,1115.2334 Q892.8874,1115.2334 892.4154,1115.4775 Q891.9434,1115.7216 891.5853,1116.2669 Q891.2272,1116.8121 891.2272,1117.5771 L891.2272,1118.3909 Q891.2272,1119.2861 891.8864,1119.8883 Q892.5456,1120.4905 893.7012,1120.4905 Q894.401,1120.4905 894.8893,1120.3115 Q895.166,1120.1976 895.4753,1119.872 Q895.6706,1119.6767 895.7845,1119.6198 Q895.8984,1119.5628 896.0286,1119.5628 Q896.2891,1119.5628 896.4762,1119.75 Q896.6634,1119.9371 896.6634,1120.1976 Q896.6634,1120.458 896.403,1120.7509 Q896.0286,1121.1741 895.4427,1121.4183 Q894.6615,1121.7438 893.7174,1121.7438 Q892.5944,1121.7438 891.7155,1121.288 Q890.9831,1120.93 890.4785,1120.1324 Q889.974,1119.3349 889.974,1118.4072 L889.974,1117.5608 Q889.974,1116.5843 890.4297,1115.7379 Q890.8854,1114.8916 891.6911,1114.4358 Q892.4967,1113.9801 893.3919,1113.9801 Q893.9453,1113.9801 894.4173,1114.1022 Q894.8893,1114.2242 895.2962,1114.4847 Z "/><text fill="#FFFFFF" font-family="Verdana" font-size="12.5" font-style="italic" lengthAdjust="spacingAndGlyphs" textLength="68.75" x="910.4167" y="1119.4814">«Testable»</text><text fill="#FFFFFF" font-family="Verdana" font-size="12.5" lengthAdjust="spacingAndGlyphs" textLength="29.1667" x="930.2083" y="1134.6731">Alice</text><rect fill="#EDF0F2" height="205.2999" style="stroke: #E9ECEF; stroke-width: 1.0416666666666667;" width="10.4167" x="364.0625" y="287.4318"/><rect fill="url(#g1n4wtb3wv3bcr1)" height="3.125" style="stroke: url(#g1n4wtb3wv3bcr1); stroke-width: 1.0416666666666667;" width="1035.4167" x="3.125" y="176.5361"/><line style="stroke: #868E96; stroke-width: 1.0416666666666667;" x1="3.125" x2="1038.5417" y1="176.5361" y2="176.5361"/><line style="stroke: #868E96; stroke-width: 1.0416666666666667;" x1="3.125" x2="1038.5417" y1="179.6611" y2="179.6611"/><rect fill="url(#g1n4wtb3wv3bcr1)" height="27.6917" style="stroke: #868E96; stroke-width: 2.0833333333333335;" width="109.375" x="466.1458" y="163.7319"/><text fill="#343A40" font-family="Verdana" font-size="12.5" font-weight="bold" lengthAdjust="spacingAndGlyphs" textLength="86.4583" x="474.4792" y="182.549">Initialization</text><polygon fill="#2FA4E7" points="214.0625,223.2819,224.4792,227.4485,214.0625,231.6152,218.2292,227.4485" style="stroke: #2FA4E7; stroke-width: 1.0416666666666667;"/><line style="stroke: #2FA4E7; stroke-width: 3.125;" x1="66.1458" x2="220.3125" y1="227.4485" y2="227.4485"/><text fill="#000000" font-family="Verdana" font-size="12.5" font-weight="bold" lengthAdjust="spacingAndGlyphs" textLength="40.625" x="75.5208" y="220.6573">[001]</text><text fill="#000000" font-family="Verdana" font-size="12.5" lengthAdjust="spacingAndGlyphs" textLength="82.2917" x="124.4792" y="220.6573">To boundary</text><polygon fill="#2FA4E7" points="351.5625,283.2652,361.9792,287.4318,351.5625,291.5985,355.7292,287.4318" style="stroke: #2FA4E7; stroke-width: 1.0416666666666667;"/><line style="stroke: #2FA4E7; stroke-width: 3.125;" x1="226.5625" x2="357.8125" y1="287.4318" y2="287.4318"/><text fill="#000000" font-family="Verdana" font-size="12.5" font-weight="bold" lengthAdjust="spacingAndGlyphs" textLength="40.625" x="235.9375" y="280.6407">[002]</text><text fill="#000000" font-family="Verdana" font-size="12.5" lengthAdjust="spacingAndGlyphs" textLength="64.5833" x="284.8958" y="280.6407">To control</text><rect fill="#FFFFFF" height="64.325" style="stroke: #868E96; stroke-width: 2.0833333333333335;" width="209.375" x="485.4167" y="295.7652"/><polygon fill="#EEEEEE" points="485.4167,295.7652,556.25,295.7652,556.25,306.1818,545.8333,316.5985,485.4167,316.5985,485.4167,295.7652" style="stroke: #868E96; stroke-width: 2.0833333333333335;"/><text fill="#033C73" font-family="Verdana" font-size="12.5" font-weight="bold" lengthAdjust="spacingAndGlyphs" textLength="19.7917" x="501.0417" y="312.499">ref</text><text fill="#343A40" font-family="Verdana" font-size="12.5" lengthAdjust="spacingAndGlyphs" textLength="94.7917" x="542.7083" y="335.4156">This can be on</text><text fill="#343A40" font-family="Verdana" font-size="12.5" lengthAdjust="spacingAndGlyphs" textLength="82.2917" x="542.7083" y="350.6073">several lines</text><polygon fill="#2FA4E7" points="497.3958,386.7401,507.8125,390.9068,497.3958,395.0734,501.5625,390.9068" style="stroke: #2FA4E7; stroke-width: 1.0416666666666667;"/><line style="stroke: #2FA4E7; stroke-width: 3.125;" x1="374.4792" x2="503.6458" y1="390.9068" y2="390.9068"/><text fill="#000000" font-family="Verdana" font-size="12.5" font-weight="bold" lengthAdjust="spacingAndGlyphs" textLength="40.625" x="383.8542" y="384.1156">[003]</text><text fill="#000000" font-family="Verdana" font-size="12.5" lengthAdjust="spacingAndGlyphs" textLength="57.2917" x="432.8125" y="384.1156">To entity</text><polygon fill="#2FA4E7" points="657.8125,420.6818,668.2292,424.8484,657.8125,429.0151,661.9792,424.8484" style="stroke: #2FA4E7; stroke-width: 1.0416666666666667;"/><line style="stroke: #2FA4E7; stroke-width: 3.125;" x1="509.8958" x2="664.0625" y1="424.8484" y2="424.8484"/><text fill="#000000" font-family="Verdana" font-size="12.5" font-weight="bold" lengthAdjust="spacingAndGlyphs" textLength="40.625" x="519.2708" y="418.0573">[004]</text><text fill="#000000" font-family="Verdana" font-size="12.5" lengthAdjust="spacingAndGlyphs" textLength="82.2917" x="568.2292" y="418.0573">To database</text><polygon fill="#2FA4E7" points="385.9375,454.6234,375.5208,458.7901,385.9375,462.9567,381.7708,458.7901" style="stroke: #2FA4E7; stroke-width: 1.0416666666666667;"/><line style="stroke: #2FA4E7; stroke-width: 3.125; stroke-dasharray: 2.0,2.0;" x1="379.6875" x2="669.2708" y1="458.7901" y2="458.7901"/><text fill="#000000" font-family="Verdana" font-size="12.5" font-weight="bold" lengthAdjust="spacingAndGlyphs" textLength="40.625" x="394.2708" y="451.9989">[005]</text><text fill="#000000" font-family="Verdana" font-size="12.5" lengthAdjust="spacingAndGlyphs" textLength="40.625" x="443.2292" y="451.9989">return</text><polygon fill="#2FA4E7" points="238.0208,488.5651,227.6042,492.7317,238.0208,496.8984,233.8542,492.7317" style="stroke: #2FA4E7; stroke-width: 1.0416666666666667;"/><line style="stroke: #2FA4E7; stroke-width: 3.125; stroke-dasharray: 2.0,2.0;" x1="231.7708" x2="368.2292" y1="492.7317" y2="492.7317"/><text fill="#000000" font-family="Verdana" font-size="12.5" font-weight="bold" lengthAdjust="spacingAndGlyphs" textLength="40.625" x="246.3542" y="485.9406">[006]</text><text fill="#000000" font-family="Verdana" font-size="12.5" lengthAdjust="spacingAndGlyphs" textLength="40.625" x="295.3125" y="485.9406">return</text><text fill="#000000" font-family="Verdana" font-size="12.5" lengthAdjust="spacingAndGlyphs" textLength="36.4583" x="444.5313" y="530.2989">Some</text><text fill="#000000" font-family="Verdana" font-size="12.5" lengthAdjust="spacingAndGlyphs" textLength="67.7083" x="485.1563" y="530.2989">long delay</text><text fill="#000000" font-family="Verdana" font-size="12.5" lengthAdjust="spacingAndGlyphs" textLength="0" x="557.0313" y="530.2989"/><polygon fill="#2FA4E7" points="727.6042,571.0317,738.0208,575.1984,727.6042,579.365,731.7708,575.1984" style="stroke: #2FA4E7; stroke-width: 1.0416666666666667;"/><line style="stroke: #2FA4E7; stroke-width: 3.125;" x1="66.1458" x2="733.8542" y1="575.1984" y2="575.1984"/><text fill="#000000" font-family="Verdana" font-size="12.5" font-weight="bold" lengthAdjust="spacingAndGlyphs" textLength="40.625" x="75.5208" y="568.4072">[007]</text><text fill="#000000" font-family="Verdana" font-size="12.5" lengthAdjust="spacingAndGlyphs" textLength="87.5" x="124.4792" y="568.4072">To collections</text><polygon fill="#2FA4E7" points="521.3542,604.9733,510.9375,609.14,521.3542,613.3067,517.1875,609.14" style="stroke: #2FA4E7; stroke-width: 1.0416666666666667;"/><line style="stroke: #2FA4E7; stroke-width: 3.125; stroke-dasharray: 2.0,2.0;" x1="515.1042" x2="739.0625" y1="609.14" y2="609.14"/><text fill="#000000" font-family="Verdana" font-size="12.5" font-weight="bold" lengthAdjust="spacingAndGlyphs" textLength="40.625" x="529.6875" y="602.3488">[008]</text><text fill="#73A839" font-family="Verdana" font-size="12.5" font-weight="bold" lengthAdjust="spacingAndGlyphs" textLength="53.125" x="578.6458" y="602.3488">success</text><path d="M17.7083,624.765 L82.2917,624.765 L82.2917,635.1817 L71.875,645.5983 L13.5417,645.5983 L13.5417,628.9317 " fill="#EEEEEE" style="stroke: #868E96; stroke-width: 1.0416666666666667;"/><rect fill="none" height="387.6831" rx="4.1667" ry="4.1667" style="stroke: #868E96; stroke-width: 2.0833333333333335;" width="1014.5833" x="13.5417" y="624.765"/><text fill="#033C73" font-family="Verdana" font-size="12.5" font-weight="bold" lengthAdjust="spacingAndGlyphs" textLength="17.7083" x="31.25" y="640.4572">alt</text><text fill="#343A40" font-family="Verdana" font-size="12.5" font-weight="bold" lengthAdjust="spacingAndGlyphs" textLength="118.75" x="100" y="641.4988">[successful case]</text><polygon fill="#2FA4E7" points="918.75,671.3816,929.1667,675.5483,918.75,679.715,922.9167,675.5483" style="stroke: #2FA4E7; stroke-width: 1.0416666666666667;"/><line style="stroke: #2FA4E7; stroke-width: 3.125;" x1="66.1458" x2="925" y1="675.5483" y2="675.5483"/><text fill="#000000" font-family="Verdana" font-size="12.5" font-weight="bold" lengthAdjust="spacingAndGlyphs" textLength="40.625" x="75.5208" y="668.7571">[009]</text><text fill="#000000" font-family="Verdana" font-size="12.5" lengthAdjust="spacingAndGlyphs" textLength="158.3333" x="124.4792" y="668.7571">Authentication Accepted</text><polygon fill="#2FA4E7" points="77.6042,705.3233,67.1875,709.4899,77.6042,713.6566,73.4375,709.4899" style="stroke: #2FA4E7; stroke-width: 1.0416666666666667;"/><line style="stroke: #2FA4E7; stroke-width: 3.125; stroke-dasharray: 2.0,2.0;" x1="71.3542" x2="930.2083" y1="709.4899" y2="709.4899"/><text fill="#000000" font-family="Verdana" font-size="12.5" font-weight="bold" lengthAdjust="spacingAndGlyphs" textLength="40.625" x="85.9375" y="702.6988">[010]</text><text fill="#000000" font-family="Verdana" font-size="12.5" lengthAdjust="spacingAndGlyphs" textLength="51.0417" x="134.8958" y="702.6988">success</text><path d="M785.4167,727.1983 L785.4167,748.0316 A4.1667,4.1667 0 0 0 789.5833,752.1983 L921.875,752.1983 A4.1667,4.1667 0 0 0 926.0417,748.0316 L926.0417,733.4483 L915.625,723.0316 L789.5833,723.0316 A4.1667,4.1667 0 0 0 785.4167,727.1983 " fill="url(#g1n4wtb3wv3bcr2)" style="stroke: #033C73; stroke-width: 1.0416666666666667;"/><path d="M915.625,723.0316 L915.625,731.3649 A2.0833,2.0833 0 0 0 917.7083,733.4483 L926.0417,733.4483 L915.625,723.0316 " fill="url(#g1n4wtb3wv3bcr2)" style="stroke: #033C73; stroke-width: 1.0416666666666667;"/><text fill="#FFFFFF" font-family="Verdana" font-size="12.5" lengthAdjust="spacingAndGlyphs" textLength="114.5833" x="793.75" y="742.8904">this is a first note</text><line style="stroke: #868E96; stroke-width: 1.0416666666666667; stroke-dasharray: 2.0,2.0;" x1="13.5417" x2="1028.125" y1="759.0566" y2="759.0566"/><text fill="#343A40" font-family="Verdana" font-size="12.5" font-weight="bold" lengthAdjust="spacingAndGlyphs" textLength="148.9583" x="20.8333" y="773.7071">[some kind of failure]</text><polygon fill="#2FA4E7" points="918.75,800.8982,929.1667,805.0649,918.75,809.2316,922.9167,805.0649" style="stroke: #2FA4E7; stroke-width: 1.0416666666666667;"/><line style="stroke: #2FA4E7; stroke-width: 3.125;" x1="66.1458" x2="925" y1="805.0649" y2="805.0649"/><text fill="#000000" font-family="Verdana" font-size="12.5" font-weight="bold" lengthAdjust="spacingAndGlyphs" textLength="40.625" x="75.5208" y="798.2737">[011]</text><text fill="#000000" font-family="Verdana" font-size="12.5" lengthAdjust="spacingAndGlyphs" textLength="142.7083" x="124.4792" y="798.2737">Authentication Failure</text><polygon fill="#2FA4E7" points="77.6042,834.8399,67.1875,839.0066,77.6042,843.1732,73.4375,839.0066" style="stroke: #2FA4E7; stroke-width: 1.0416666666666667;"/><line style="stroke: #2FA4E7; stroke-width: 3.125; stroke-dasharray: 2.0,2.0;" x1="71.3542" x2="930.2083" y1="839.0066" y2="839.0066"/><text fill="#000000" font-family="Verdana" font-size="12.5" font-weight="bold" lengthAdjust="spacingAndGlyphs" textLength="40.625" x="85.9375" y="832.2154">[012]</text><text fill="#C71C22" font-family="Verdana" font-size="12.5" font-weight="bold" lengthAdjust="spacingAndGlyphs" textLength="82.2917" x="134.8958" y="832.2154">Bad request</text><path d="M28.125,854.6316 L165.625,854.6316 L165.625,865.0482 L155.2083,875.4649 L23.9583,875.4649 L23.9583,858.7982 " fill="#EEEEEE" style="stroke: #868E96; stroke-width: 1.0416666666666667;"/><rect fill="none" height="95.1416" rx="4.1667" ry="4.1667" style="stroke: #868E96; stroke-width: 2.0833333333333335;" width="993.75" x="23.9583" y="854.6316"/><text fill="#033C73" font-family="Verdana" font-size="12.5" font-weight="bold" lengthAdjust="spacingAndGlyphs" textLength="90.625" x="41.6667" y="870.3237">My own label</text><path d="M38.5417,883.3649 L114.5833,883.3649 L114.5833,893.7815 L104.1667,904.1982 L34.375,904.1982 L34.375,887.5315 " fill="#EEEEEE" style="stroke: #868E96; stroke-width: 1.0416666666666667;"/><rect fill="none" height="59.1166" rx="4.1667" ry="4.1667" style="stroke: #868E96; stroke-width: 2.0833333333333335;" width="972.9167" x="34.375" y="883.3649"/><text fill="#033C73" font-family="Verdana" font-size="12.5" font-weight="bold" lengthAdjust="spacingAndGlyphs" textLength="29.1667" x="52.0833" y="899.057">loop</text><text fill="#343A40" font-family="Verdana" font-size="12.5" font-weight="bold" lengthAdjust="spacingAndGlyphs" textLength="91.6667" x="132.2917" y="900.0987">[1000 times]</text><polygon fill="#2FA4E7" points="77.6042,929.9815,67.1875,934.1482,77.6042,938.3148,73.4375,934.1482" style="stroke: #2FA4E7; stroke-width: 1.0416666666666667;"/><line style="stroke: #2FA4E7; stroke-width: 3.125;" x1="71.3542" x2="930.2083" y1="934.1482" y2="934.1482"/><text fill="#000000" font-family="Verdana" font-size="12.5" font-weight="bold" lengthAdjust="spacingAndGlyphs" textLength="40.625" x="85.9375" y="927.357">[013]</text><text fill="#000000" font-family="Verdana" font-size="12.5" lengthAdjust="spacingAndGlyphs" textLength="71.875" x="134.8958" y="927.357">DNS Attack</text><line style="stroke: #868E96; stroke-width: 1.0416666666666667; stroke-dasharray: 2.0,2.0;" x1="13.5417" x2="1028.125" y1="958.1065" y2="958.1065"/><text fill="#343A40" font-family="Verdana" font-size="12.5" font-weight="bold" lengthAdjust="spacingAndGlyphs" textLength="115.625" x="20.8333" y="972.757">[Just a Warning]</text><polygon fill="#2FA4E7" points="918.75,999.9481,929.1667,1004.1148,918.75,1008.2815,922.9167,1004.1148" style="stroke: #2FA4E7; stroke-width: 1.0416666666666667;"/><line style="stroke: #2FA4E7; stroke-width: 3.125;" x1="66.1458" x2="925" y1="1004.1148" y2="1004.1148"/><text fill="#000000" font-family="Verdana" font-size="12.5" font-weight="bold" lengthAdjust="spacingAndGlyphs" textLength="40.625" x="75.5208" y="997.3236">[014]</text><text fill="#DD5600" font-family="Verdana" font-size="12.5" font-weight="bold" lengthAdjust="spacingAndGlyphs" textLength="94.7917" x="124.4792" y="997.3236">Please repeat</text><path d="M44.7917,1029.1148 L44.7917,1080.1565 A4.1667,4.1667 0 0 0 48.9583,1084.3231 L242.7083,1084.3231 A4.1667,4.1667 0 0 0 246.875,1080.1565 L246.875,1035.3648 L236.4583,1024.9481 L48.9583,1024.9481 A4.1667,4.1667 0 0 0 44.7917,1029.1148 " fill="url(#g1n4wtb3wv3bcr2)" style="stroke: #033C73; stroke-width: 1.0416666666666667;"/><path d="M236.4583,1024.9481 L236.4583,1033.2815 A2.0833,2.0833 0 0 0 238.5417,1035.3648 L246.875,1035.3648 L236.4583,1024.9481 " fill="url(#g1n4wtb3wv3bcr2)" style="stroke: #033C73; stroke-width: 1.0416666666666667;"/><text fill="#FFFFFF" font-family="Verdana" font-size="12.5" lengthAdjust="spacingAndGlyphs" textLength="136.4583" x="72.9167" y="1044.8069">this is a second note</text><text fill="#FFFFFF" font-family="Verdana" font-size="12.5" lengthAdjust="spacingAndGlyphs" textLength="81.25" x="72.9167" y="1059.9986">that is really</text><text fill="#FFFFFF" font-family="Verdana" font-size="12.5" lengthAdjust="spacingAndGlyphs" textLength="28.125" x="72.9167" y="1075.1902">long</text><text fill="#888888" font-family="Verdana" font-size="12.5" lengthAdjust="spacingAndGlyphs" textLength="85.4167" x="953.125" y="15.6921">Page Header</text><text fill="#888888" font-family="Verdana" font-size="12.5" lengthAdjust="spacingAndGlyphs" textLength="75" x="483.3333" y="1205.5735">Page 1 of 1</text><!--
@startuml







skinparam defaultFontName       "Verdana"
skinparam defaultFontSize       12
skinparam dpi                   100
skinparam shadowing             false
skinparam roundcorner           8
skinparam ParticipantPadding    10
skinparam BoxPadding            2
skinparam Padding               2
skinparam TitleFontColor	    #343A40
skinparam TitleFontSize	    	20
skinparam ArrowColor            #868E96

skinparam activity {
	TitleFontSize 20
	TitleFontColor #343A40
	FontColor #FFF
	BorderColor #2FA4E7
	BackgroundColor #59B6EC-#2FA4E7
	BarColor #73A839
	StartColor #033C73
	EndColor #033C73
	DiamondBackgroundColor #FFF-#EDF0F2
  	DiamondBorderColor #BABDBF
	DiamondFontColor #343A40
}
	
skinparam sequence {
	BorderColor #2FA4E7
	TitleFontSize 14
	TitleFontColor #343A40
	BackgroundColor transparent
	StartColor #2FA4E7
	EndColor #2FA4E7
    ParticipantBackgroundColor #59B6EC-#2FA4E7
    ParticipantBorderColor #2FA4E7
	ParticipantBorderThickness 0
	ParticipantFontColor #FFF
	ActorBackgroundColor transparent
    ActorBorderColor #2FA4E7
	ActorFontColor #2FA4E7
	ArrowThickness 3
	ArrowColor #2FA4E7
	BoxBackgroundColor #F8F9FA
	BoxBorderColor #868E96
	BoxFontColor $DARk
	LifeLineBorderColor #E9ECEF
	LifeLineBorderThickness 0
	LifeLineBackgroundColor #EDF0F2
	GroupBorderColor #868E96
	GroupFontColor #343A40
	GroupHeaderFontColor #033C73
	DividerBackgroundColor #FFF-#F8F9FA
    DividerBorderColor #868E96
    DividerBorderThickness 2
    DividerFontColor #343A40
	ReferenceBorderColor #868E96
	ReferenceFontColor #343A40
	ReferenceHeaderFontColor #033C73
}

skinparam partition {
	BorderColor #2FA4E7
	FontColor #2FA4E7
}

skinparam collections {
	BackgroundColor #59B6EC-#2FA4E7
	BorderColor #2FA4E7
}

skinparam control {
	BackgroundColor  #59B6EC-#2FA4E7
	BorderColor #2683B9
	FontColor #343A40
}

skinparam entity {
	BackgroundColor  #59B6EC-#2FA4E7
	BorderColor #2683B9
	FontColor #343A40
}

skinparam boundary {
	BackgroundColor  #59B6EC-#2FA4E7
	BorderColor #2683B9
	FontColor #343A40
}

skinparam agent {
	BackgroundColor #orange
	BorderColor #999999
	FontColor #333333
}

skinparam note {
	BorderThickness 1
	BackgroundColor #35638F-#033C73
	BorderColor #033C73
	FontColor #FFF
}

skinparam artifact {
	BackgroundColor #FFF-#F8F9FA
	BorderColor #868E96
	FontColor #343A40
}

skinparam component {
	BackgroundColor  #8FB961-#73A839
	BorderColor  #73A839
	FontColor #FFF
}

skinparam interface {
	BackgroundColor  #D2494E
	BorderColor  #C71C22
	FontColor #343A40
}

skinparam storage {
	BackgroundColor #E47833-#DD5600
  	BorderColor #DD5600
	FontColor #FFF
}

skinparam node {
	BackgroundColor  #FFF-#F8F9FA
	BorderColor #35638F
	FontColor #35638F
}

skinparam cloud {
	BackgroundColor white-#59B6EC
	BorderColor transparent
	FontColor #343A40
}

skinparam database {
	BackgroundColor  #59B6EC-#2FA4E7
	BorderColor #2683B9
	FontColor #343A40
}

skinparam actor {
	FontColor #343A40
}

skinparam class {
	HeaderBackgroundColor #2683B9
	FontColor #FFF
	BackgroundColor #59B6EC-#2FA4E7
	BorderColor #2683B9
	StereotypeFontColor #343A40
	LineThickness 4
	BorderThickness 1
	AttributeFontColor #343A40
}

skinparam usecase {
	BackgroundColor #EDF0F2-#E9ECEF
	BorderColor #E9ECEF
	BorderThickness 2
	FontColor #343A40
	StereotypeFontColor #2FA4E7
}


skinparam rectangle {
	BackgroundColor #BABDBF
	BorderColor #2683B9
	BorderThickness 2
	FontColor #2FA4E7
	StereotypeFontColor #2FA4E7
}

skinparam package {
	BackgroundColor #FFF-#EDF0F2
  	BorderColor #2FA4E7
	FontColor #2FA4E7
	BorderThickness 2
}

skinparam folder {
	BackgroundColor #FFF-#EDF0F2
  	BorderColor #BABDBF
	FontColor #343A40
	BorderThickness 2
}

skinparam frame {
	BackgroundColor #FFF-#E9ECEF
  	BorderColor #BABDBF
	FontColor #343A40
	BorderThickness 2
}

title Cerulean Theme

autonumber "<b>[000]"

header Page Header
footer Page %page% of %lastpage%

actor Foo1
boundary Foo2
control Foo3
entity Foo4
database Foo5
collections Foo6
participant Bob
participant Alice << (C,#ADD1B2) Testable >>

box "Internal Service"
	participant Bob
	participant Alice
end box

== Initialization ==
Foo1 -> Foo2 : To boundary
|||
Foo2 -> Foo3 ++: To control
ref over Foo4, Foo5
  This can be on
  several lines
end ref
Foo3 -> Foo4 : To entity

Foo4 -> Foo5 : To database
Foo5 - -> Foo3 - - : return
Foo3 - -> Foo2 - -: return
... Some ~~long delay~~ ...
Foo1 -> Foo6 : To collections
Foo6 - -> Foo4:   <font color=#73A839><b>success


alt successful case

Foo1 -> Alice: Authentication Accepted
Alice - -> Foo1: success

note left of Alice: this is a first note

else some kind of failure

	Foo1 -> Alice: Authentication Failure
    Alice - -> Foo1:   <font color=#C71C22><b>Bad request
	group My own label
	    loop 1000 times
	        Alice -> Foo1: DNS Attack
	    end
	end
	
else Just a Warning

   Foo1 -> Alice:   <font color=#DD5600><b>Please repeat
   
end

note over Foo1, Foo2
this is a second note
that is really
long
end note

@enduml

PlantUML version 1.2019.08(Sat Jul 13 12:25:14 PDT 2019)
(MIT source distribution)
Java Runtime: Java(TM) SE Runtime Environment
JVM: Java HotSpot(TM) 64-Bit Server VM
Java Version: 1.8.0_212-b32
Operating System: Windows 10
OS Version: 10.0
Default Encoding: Cp1252
Language: en
Country: US
--></g></svg>