<?xml version="1.0" encoding="UTF-8" standalone="no"?><svg xmlns="http://www.w3.org/2000/svg" xmlns:xlink="http://www.w3.org/1999/xlink" contentScriptType="application/ecmascript" contentStyleType="text/css" height="1242.7083px" preserveAspectRatio="none" style="width:1051px;height:1242px;" version="1.1" viewBox="0 0 1051 1242" width="1051.0417px" zoomAndPan="magnify"><defs><linearGradient id="g185yrz7ogy64k0" x1="50%" x2="50%" y1="0%" y2="100%"><stop offset="0%" stop-color="#59B6EC"/><stop offset="100%" stop-color="#2FA4E7"/></linearGradient><linearGradient id="g185yrz7ogy64k1" x1="50%" x2="50%" y1="0%" y2="100%"><stop offset="0%" stop-color="#FFFFFF"/><stop offset="100%" stop-color="#F8F9FA"/></linearGradient><linearGradient id="g185yrz7ogy64k2" x1="50%" x2="50%" y1="0%" y2="100%"><stop offset="0%" stop-color="#35638F"/><stop offset="100%" stop-color="#033C73"/></linearGradient></defs><g><rect fill="none" height="39.9028" rx="4.1667" ry="4.1667" style="stroke: none; stroke-width: 1.0416666666666667;" width="443.75" x="298.4375" y="30.8167"/><text fill="#343A40" font-family="Verdana" font-size="20.8333" font-weight="bold" lengthAdjust="spacingAndGlyphs" textLength="422.9167" x="308.8542" y="59.0535">Sequence Diagram - cerulean theme</text><rect fill="#F8F9FA" height="1129.8828" rx="4.1667" ry="4.1667" style="stroke: #868E96; stroke-width: 1.0416666666666667;" width="214.5833" x="786.4583" y="82.1777"/><text fill="#343A40" font-family="Verdana" font-size="12.5" font-weight="bold" lengthAdjust="spacingAndGlyphs" textLength="111.4583" x="838.0208" y="96.8282">Internal Service</text><rect fill="#EDF0F2" height="205.2999" style="stroke: #BABDBF; stroke-width: 1.0416666666666667;" width="10.4167" x="364.0625" y="310.6527"/><rect fill="#FFFFFF" height="387.6831" rx="4.1667" ry="4.1667" style="stroke: #868E96; stroke-width: 2.0833333333333335;" width="1014.5833" x="13.5417" y="647.9858"/><rect fill="#FFFFFF" height="199.0499" style="stroke: none; stroke-width: 1.0416666666666667;" width="1014.5833" x="13.5417" y="781.2358"/><rect fill="#FFFFFF" height="95.1416" rx="4.1667" ry="4.1667" style="stroke: #868E96; stroke-width: 2.0833333333333335;" width="993.75" x="23.9583" y="877.8524"/><rect fill="#FFFFFF" height="59.1166" rx="4.1667" ry="4.1667" style="stroke: #868E96; stroke-width: 2.0833333333333335;" width="972.9167" x="34.375" y="906.5857"/><rect fill="#FFFFFF" height="55.3833" style="stroke: none; stroke-width: 1.0416666666666667;" width="1014.5833" x="13.5417" y="980.2856"/><line style="stroke: #BABDBF; stroke-width: 1.0416666666666667;" x1="65.625" x2="65.625" y1="166.1194" y2="524.2859"/><line style="stroke: #BABDBF; stroke-width: 1.0416666666666667; stroke-dasharray: 1.0,4.0;" x1="65.625" x2="65.625" y1="524.2859" y2="572.8109"/><line style="stroke: #BABDBF; stroke-width: 1.0416666666666667;" x1="65.625" x2="65.625" y1="572.8109" y2="1123.9522"/><line style="stroke: #BABDBF; stroke-width: 1.0416666666666667;" x1="226.0417" x2="226.0417" y1="166.1194" y2="524.2859"/><line style="stroke: #BABDBF; stroke-width: 1.0416666666666667; stroke-dasharray: 1.0,4.0;" x1="226.0417" x2="226.0417" y1="524.2859" y2="572.8109"/><line style="stroke: #BABDBF; stroke-width: 1.0416666666666667;" x1="226.0417" x2="226.0417" y1="572.8109" y2="1123.9522"/><line style="stroke: #BABDBF; stroke-width: 1.0416666666666667;" x1="368.75" x2="368.75" y1="166.1194" y2="524.2859"/><line style="stroke: #BABDBF; stroke-width: 1.0416666666666667; stroke-dasharray: 1.0,4.0;" x1="368.75" x2="368.75" y1="524.2859" y2="572.8109"/><line style="stroke: #BABDBF; stroke-width: 1.0416666666666667;" x1="368.75" x2="368.75" y1="572.8109" y2="1123.9522"/><line style="stroke: #BABDBF; stroke-width: 1.0416666666666667;" x1="509.375" x2="509.375" y1="166.1194" y2="524.2859"/><line style="stroke: #BABDBF; stroke-width: 1.0416666666666667; stroke-dasharray: 1.0,4.0;" x1="509.375" x2="509.375" y1="524.2859" y2="572.8109"/><line style="stroke: #BABDBF; stroke-width: 1.0416666666666667;" x1="509.375" x2="509.375" y1="572.8109" y2="1123.9522"/><line style="stroke: #BABDBF; stroke-width: 1.0416666666666667;" x1="669.7917" x2="669.7917" y1="166.1194" y2="524.2859"/><line style="stroke: #BABDBF; stroke-width: 1.0416666666666667; stroke-dasharray: 1.0,4.0;" x1="669.7917" x2="669.7917" y1="524.2859" y2="572.8109"/><line style="stroke: #BABDBF; stroke-width: 1.0416666666666667;" x1="669.7917" x2="669.7917" y1="572.8109" y2="1123.9522"/><line style="stroke: #BABDBF; stroke-width: 1.0416666666666667;" x1="739.5833" x2="739.5833" y1="166.1194" y2="524.2859"/><line style="stroke: #BABDBF; stroke-width: 1.0416666666666667; stroke-dasharray: 1.0,4.0;" x1="739.5833" x2="739.5833" y1="524.2859" y2="572.8109"/><line style="stroke: #BABDBF; stroke-width: 1.0416666666666667;" x1="739.5833" x2="739.5833" y1="572.8109" y2="1123.9522"/><line style="stroke: #BABDBF; stroke-width: 1.0416666666666667;" x1="822.9167" x2="822.9167" y1="166.1194" y2="524.2859"/><line style="stroke: #BABDBF; stroke-width: 1.0416666666666667; stroke-dasharray: 1.0,4.0;" x1="822.9167" x2="822.9167" y1="524.2859" y2="572.8109"/><line style="stroke: #BABDBF; stroke-width: 1.0416666666666667;" x1="822.9167" x2="822.9167" y1="572.8109" y2="1123.9522"/><line style="stroke: #BABDBF; stroke-width: 1.0416666666666667;" x1="931.25" x2="931.25" y1="166.1194" y2="524.2859"/><line style="stroke: #BABDBF; stroke-width: 1.0416666666666667; stroke-dasharray: 1.0,4.0;" x1="931.25" x2="931.25" y1="524.2859" y2="572.8109"/><line style="stroke: #BABDBF; stroke-width: 1.0416666666666667;" x1="931.25" x2="931.25" y1="572.8109" y2="1123.9522"/><text fill="#343A40" font-family="Verdana" font-size="12.5" lengthAdjust="spacingAndGlyphs" textLength="32.2917" x="46.875" y="161.4115">Foo1</text><ellipse cx="66.1458" cy="91.5527" fill="#FFFFFF" rx="8.3333" ry="8.3333" style="stroke: #2FA4E7; stroke-width: 2.0833333333333335;"/><path d="M66.1458,99.8861 L66.1458,128.0111 M52.6042,108.2194 L79.6875,108.2194 M66.1458,128.0111 L52.6042,143.6361 M66.1458,128.0111 L79.6875,143.6361 " fill="none" style="stroke: #2FA4E7; stroke-width: 2.0833333333333335;"/><text fill="#343A40" font-family="Verdana" font-size="12.5" lengthAdjust="spacingAndGlyphs" textLength="32.2917" x="46.875" y="1137.561">Foo1</text><ellipse cx="66.1458" cy="1152.6855" fill="#FFFFFF" rx="8.3333" ry="8.3333" style="stroke: #2FA4E7; stroke-width: 2.0833333333333335;"/><path d="M66.1458,1161.0189 L66.1458,1189.1439 M52.6042,1169.3522 L79.6875,1169.3522 M66.1458,1189.1439 L52.6042,1204.7689 M66.1458,1189.1439 L79.6875,1204.7689 " fill="none" style="stroke: #2FA4E7; stroke-width: 2.0833333333333335;"/><text fill="#343A40" font-family="Verdana" font-size="12.5" lengthAdjust="spacingAndGlyphs" textLength="32.2917" x="207.2917" y="161.4115">Foo2</text><path d="M205.2083,117.5944 L205.2083,142.5944 M205.2083,130.0944 L222.9167,130.0944 " fill="none" style="stroke: #2683B9; stroke-width: 2.0833333333333335;"/><ellipse cx="235.4167" cy="130.0944" fill="url(#g185yrz7ogy64k0)" rx="12.5" ry="12.5" style="stroke: #2683B9; stroke-width: 2.0833333333333335;"/><text fill="#343A40" font-family="Verdana" font-size="12.5" lengthAdjust="spacingAndGlyphs" textLength="32.2917" x="207.2917" y="1137.561">Foo2</text><path d="M205.2083,1146.4355 L205.2083,1171.4355 M205.2083,1158.9355 L222.9167,1158.9355 " fill="none" style="stroke: #2683B9; stroke-width: 2.0833333333333335;"/><ellipse cx="235.4167" cy="1158.9355" fill="url(#g185yrz7ogy64k0)" rx="12.5" ry="12.5" style="stroke: #2683B9; stroke-width: 2.0833333333333335;"/><text fill="#343A40" font-family="Verdana" font-size="12.5" lengthAdjust="spacingAndGlyphs" textLength="32.2917" x="350" y="161.4115">Foo3</text><ellipse cx="369.2708" cy="130.0944" fill="url(#g185yrz7ogy64k0)" rx="12.5" ry="12.5" style="stroke: #2683B9; stroke-width: 2.0833333333333335;"/><polygon fill="#2683B9" points="365.1042,117.5944,371.3542,112.3861,369.2708,117.5944,371.3542,122.8027,365.1042,117.5944" style="stroke: #2683B9; stroke-width: 1.0416666666666667;"/><text fill="#343A40" font-family="Verdana" font-size="12.5" lengthAdjust="spacingAndGlyphs" textLength="32.2917" x="350" y="1137.561">Foo3</text><ellipse cx="369.2708" cy="1158.9355" fill="url(#g185yrz7ogy64k0)" rx="12.5" ry="12.5" style="stroke: #2683B9; stroke-width: 2.0833333333333335;"/><polygon fill="#2683B9" points="365.1042,1146.4355,371.3542,1141.2272,369.2708,1146.4355,371.3542,1151.6439,365.1042,1146.4355" style="stroke: #2683B9; stroke-width: 1.0416666666666667;"/><text fill="#343A40" font-family="Verdana" font-size="12.5" lengthAdjust="spacingAndGlyphs" textLength="32.2917" x="490.625" y="161.4115">Foo4</text><ellipse cx="509.8958" cy="130.0944" fill="url(#g185yrz7ogy64k0)" rx="12.5" ry="12.5" style="stroke: #2683B9; stroke-width: 2.0833333333333335;"/><line style="stroke: #2683B9; stroke-width: 2.0833333333333335;" x1="497.3958" x2="522.3958" y1="144.6777" y2="144.6777"/><text fill="#343A40" font-family="Verdana" font-size="12.5" lengthAdjust="spacingAndGlyphs" textLength="32.2917" x="490.625" y="1137.561">Foo4</text><ellipse cx="509.8958" cy="1158.9355" fill="url(#g185yrz7ogy64k0)" rx="12.5" ry="12.5" style="stroke: #2683B9; stroke-width: 2.0833333333333335;"/><line style="stroke: #2683B9; stroke-width: 2.0833333333333335;" x1="497.3958" x2="522.3958" y1="1173.5189" y2="1173.5189"/><text fill="#343A40" font-family="Verdana" font-size="12.5" lengthAdjust="spacingAndGlyphs" textLength="32.2917" x="651.0417" y="161.4115">Foo5</text><path d="M651.5625,109.2611 C651.5625,98.8444 670.3125,98.8444 670.3125,98.8444 C670.3125,98.8444 689.0625,98.8444 689.0625,109.2611 L689.0625,136.3444 C689.0625,146.7611 670.3125,146.7611 670.3125,146.7611 C670.3125,146.7611 651.5625,146.7611 651.5625,136.3444 L651.5625,109.2611 " fill="url(#g185yrz7ogy64k0)" style="stroke: #2683B9; stroke-width: 1.5625;"/><path d="M651.5625,109.2611 C651.5625,119.6777 670.3125,119.6777 670.3125,119.6777 C670.3125,119.6777 689.0625,119.6777 689.0625,109.2611 " fill="none" style="stroke: #2683B9; stroke-width: 1.5625;"/><text fill="#343A40" font-family="Verdana" font-size="12.5" lengthAdjust="spacingAndGlyphs" textLength="32.2917" x="651.0417" y="1137.561">Foo5</text><path d="M651.5625,1152.6855 C651.5625,1142.2689 670.3125,1142.2689 670.3125,1142.2689 C670.3125,1142.2689 689.0625,1142.2689 689.0625,1152.6855 L689.0625,1179.7689 C689.0625,1190.1855 670.3125,1190.1855 670.3125,1190.1855 C670.3125,1190.1855 651.5625,1190.1855 651.5625,1179.7689 L651.5625,1152.6855 " fill="url(#g185yrz7ogy64k0)" style="stroke: #2683B9; stroke-width: 1.5625;"/><path d="M651.5625,1152.6855 C651.5625,1163.1022 670.3125,1163.1022 670.3125,1163.1022 C670.3125,1163.1022 689.0625,1163.1022 689.0625,1152.6855 " fill="none" style="stroke: #2683B9; stroke-width: 1.5625;"/><rect fill="url(#g185yrz7ogy64k0)" height="33.9417" rx="4.1667" ry="4.1667" style="stroke: #2FA4E7; stroke-width: 1.5625;" width="51.0417" x="716.6667" y="126.9694"/><rect fill="url(#g185yrz7ogy64k0)" height="33.9417" rx="4.1667" ry="4.1667" style="stroke: #2FA4E7; stroke-width: 1.5625;" width="51.0417" x="712.5" y="131.1361"/><text fill="#FFFFFF" font-family="Verdana" font-size="12.5" lengthAdjust="spacingAndGlyphs" textLength="32.2917" x="721.875" y="153.0782">Foo6</text><rect fill="url(#g185yrz7ogy64k0)" height="33.9417" rx="4.1667" ry="4.1667" style="stroke: #2FA4E7; stroke-width: 1.5625;" width="51.0417" x="716.6667" y="1122.9106"/><rect fill="url(#g185yrz7ogy64k0)" height="33.9417" rx="4.1667" ry="4.1667" style="stroke: #2FA4E7; stroke-width: 1.5625;" width="51.0417" x="712.5" y="1127.0772"/><text fill="#FFFFFF" font-family="Verdana" font-size="12.5" lengthAdjust="spacingAndGlyphs" textLength="32.2917" x="721.875" y="1149.0194">Foo6</text><rect fill="url(#g185yrz7ogy64k0)" height="33.9417" rx="4.1667" ry="4.1667" style="stroke: #2FA4E7; stroke-width: 0.0;" width="43.75" x="801.0417" y="131.1361"/><text fill="#FFFFFF" font-family="Verdana" font-size="12.5" lengthAdjust="spacingAndGlyphs" textLength="25" x="810.4167" y="153.0782">Bob</text><rect fill="url(#g185yrz7ogy64k0)" height="33.9417" rx="4.1667" ry="4.1667" style="stroke: #2FA4E7; stroke-width: 0.0;" width="43.75" x="801.0417" y="1122.9106"/><text fill="#FFFFFF" font-family="Verdana" font-size="12.5" lengthAdjust="spacingAndGlyphs" textLength="25" x="810.4167" y="1144.8527">Bob</text><rect fill="url(#g185yrz7ogy64k0)" height="44.9666" rx="4.1667" ry="4.1667" style="stroke: #2FA4E7; stroke-width: 0.0;" width="110.4167" x="876.0417" y="120.1111"/><ellipse cx="893.75" cy="137.8194" fill="#ADD1B2" rx="10.4167" ry="10.4167" style="stroke: #2FA4E7; stroke-width: 1.0416666666666667;"/><path d="M895.2962,134.906 Q895.4102,134.7432 895.5485,134.6619 Q895.6868,134.5805 895.8496,134.5805 Q896.1263,134.5805 896.2972,134.7758 Q896.4681,134.9711 896.4681,135.4106 L896.4681,136.4848 Q896.4681,136.9242 896.2972,137.1195 Q896.1263,137.3149 895.8496,137.3149 Q895.5892,137.3149 895.4427,137.1684 Q895.2962,137.0382 895.2148,136.6475 Q895.1823,136.3871 895.0521,136.2569 Q894.7917,135.9802 894.3441,135.8175 Q893.8965,135.6547 893.4408,135.6547 Q892.8874,135.6547 892.4154,135.8988 Q891.9434,136.143 891.5853,136.6882 Q891.2272,137.2335 891.2272,137.9985 L891.2272,138.8123 Q891.2272,139.7074 891.8864,140.3097 Q892.5456,140.9119 893.7012,140.9119 Q894.401,140.9119 894.8893,140.7328 Q895.166,140.6189 895.4753,140.2934 Q895.6706,140.0981 895.7845,140.0411 Q895.8984,139.9841 896.0286,139.9841 Q896.2891,139.9841 896.4762,140.1713 Q896.6634,140.3585 896.6634,140.6189 Q896.6634,140.8793 896.403,141.1723 Q896.0286,141.5955 895.4427,141.8396 Q894.6615,142.1651 893.7174,142.1651 Q892.5944,142.1651 891.7155,141.7094 Q890.9831,141.3513 890.4785,140.5538 Q889.974,139.7563 889.974,138.8285 L889.974,137.9822 Q889.974,137.0056 890.4297,136.1593 Q890.8854,135.3129 891.6911,134.8572 Q892.4967,134.4014 893.3919,134.4014 Q893.9453,134.4014 894.4173,134.5235 Q894.8893,134.6456 895.2962,134.906 Z "/><text fill="#FFFFFF" font-family="Verdana" font-size="12.5" font-style="italic" lengthAdjust="spacingAndGlyphs" textLength="68.75" x="910.4167" y="139.9028">«Testable»</text><text fill="#FFFFFF" font-family="Verdana" font-size="12.5" lengthAdjust="spacingAndGlyphs" textLength="29.1667" x="930.2083" y="155.0944">Alice</text><rect fill="url(#g185yrz7ogy64k0)" height="44.9666" rx="4.1667" ry="4.1667" style="stroke: #2FA4E7; stroke-width: 0.0;" width="110.4167" x="876.0417" y="1122.9106"/><ellipse cx="893.75" cy="1140.6189" fill="#ADD1B2" rx="10.4167" ry="10.4167" style="stroke: #2FA4E7; stroke-width: 1.0416666666666667;"/><path d="M895.2962,1137.7055 Q895.4102,1137.5427 895.5485,1137.4613 Q895.6868,1137.38 895.8496,1137.38 Q896.1263,1137.38 896.2972,1137.5753 Q896.4681,1137.7706 896.4681,1138.21 L896.4681,1139.2843 Q896.4681,1139.7237 896.2972,1139.919 Q896.1263,1140.1143 895.8496,1140.1143 Q895.5892,1140.1143 895.4427,1139.9679 Q895.2962,1139.8376 895.2148,1139.447 Q895.1823,1139.1866 895.0521,1139.0564 Q894.7917,1138.7797 894.3441,1138.6169 Q893.8965,1138.4542 893.4408,1138.4542 Q892.8874,1138.4542 892.4154,1138.6983 Q891.9434,1138.9425 891.5853,1139.4877 Q891.2272,1140.033 891.2272,1140.7979 L891.2272,1141.6117 Q891.2272,1142.5069 891.8864,1143.1091 Q892.5456,1143.7113 893.7012,1143.7113 Q894.401,1143.7113 894.8893,1143.5323 Q895.166,1143.4184 895.4753,1143.0929 Q895.6706,1142.8975 895.7845,1142.8406 Q895.8984,1142.7836 896.0286,1142.7836 Q896.2891,1142.7836 896.4762,1142.9708 Q896.6634,1143.158 896.6634,1143.4184 Q896.6634,1143.6788 896.403,1143.9718 Q896.0286,1144.3949 895.4427,1144.6391 Q894.6615,1144.9646 893.7174,1144.9646 Q892.5944,1144.9646 891.7155,1144.5089 Q890.9831,1144.1508 890.4785,1143.3533 Q889.974,1142.5557 889.974,1141.628 L889.974,1140.7817 Q889.974,1139.8051 890.4297,1138.9587 Q890.8854,1138.1124 891.6911,1137.6567 Q892.4967,1137.2009 893.3919,1137.2009 Q893.9453,1137.2009 894.4173,1137.323 Q894.8893,1137.4451 895.2962,1137.7055 Z "/><text fill="#FFFFFF" font-family="Verdana" font-size="12.5" font-style="italic" lengthAdjust="spacingAndGlyphs" textLength="68.75" x="910.4167" y="1142.7022">«Testable»</text><text fill="#FFFFFF" font-family="Verdana" font-size="12.5" lengthAdjust="spacingAndGlyphs" textLength="29.1667" x="930.2083" y="1157.8939">Alice</text><rect fill="#EDF0F2" height="205.2999" style="stroke: #BABDBF; stroke-width: 1.0416666666666667;" width="10.4167" x="364.0625" y="310.6527"/><rect fill="url(#g185yrz7ogy64k1)" height="3.125" style="stroke: url(#g185yrz7ogy64k1); stroke-width: 1.0416666666666667;" width="1035.4167" x="3.125" y="199.7569"/><line style="stroke: #868E96; stroke-width: 1.0416666666666667;" x1="3.125" x2="1038.5417" y1="199.7569" y2="199.7569"/><line style="stroke: #868E96; stroke-width: 1.0416666666666667;" x1="3.125" x2="1038.5417" y1="202.8819" y2="202.8819"/><rect fill="url(#g185yrz7ogy64k1)" height="27.6917" style="stroke: #868E96; stroke-width: 2.0833333333333335;" width="109.375" x="466.1458" y="186.9527"/><text fill="#343A40" font-family="Verdana" font-size="12.5" font-weight="bold" lengthAdjust="spacingAndGlyphs" textLength="86.4583" x="474.4792" y="205.7699">Initialization</text><polygon fill="#2FA4E7" points="214.0625,246.5027,224.4792,250.6694,214.0625,254.836,218.2292,250.6694" style="stroke: #2FA4E7; stroke-width: 1.0416666666666667;"/><line style="stroke: #2FA4E7; stroke-width: 3.125;" x1="66.1458" x2="220.3125" y1="250.6694" y2="250.6694"/><text fill="#000000" font-family="Verdana" font-size="12.5" font-weight="bold" lengthAdjust="spacingAndGlyphs" textLength="40.625" x="75.5208" y="243.8782">[001]</text><text fill="#000000" font-family="Verdana" font-size="12.5" lengthAdjust="spacingAndGlyphs" textLength="82.2917" x="124.4792" y="243.8782">To boundary</text><polygon fill="#2FA4E7" points="351.5625,306.486,361.9792,310.6527,351.5625,314.8193,355.7292,310.6527" style="stroke: #2FA4E7; stroke-width: 1.0416666666666667;"/><line style="stroke: #2FA4E7; stroke-width: 3.125;" x1="226.5625" x2="357.8125" y1="310.6527" y2="310.6527"/><text fill="#000000" font-family="Verdana" font-size="12.5" font-weight="bold" lengthAdjust="spacingAndGlyphs" textLength="40.625" x="235.9375" y="303.8615">[002]</text><text fill="#000000" font-family="Verdana" font-size="12.5" lengthAdjust="spacingAndGlyphs" textLength="64.5833" x="284.8958" y="303.8615">To control</text><rect fill="#FFFFFF" height="64.325" style="stroke: #868E96; stroke-width: 2.0833333333333335;" width="209.375" x="485.4167" y="318.986"/><polygon fill="#EEEEEE" points="485.4167,318.986,556.25,318.986,556.25,329.4027,545.8333,339.8193,485.4167,339.8193,485.4167,318.986" style="stroke: #868E96; stroke-width: 2.0833333333333335;"/><text fill="#033C73" font-family="Verdana" font-size="12.5" font-weight="bold" lengthAdjust="spacingAndGlyphs" textLength="19.7917" x="501.0417" y="335.7198">ref</text><text fill="#343A40" font-family="Verdana" font-size="12.5" lengthAdjust="spacingAndGlyphs" textLength="94.7917" x="542.7083" y="358.6365">This can be on</text><text fill="#343A40" font-family="Verdana" font-size="12.5" lengthAdjust="spacingAndGlyphs" textLength="82.2917" x="542.7083" y="373.8281">several lines</text><polygon fill="#2FA4E7" points="497.3958,409.9609,507.8125,414.1276,497.3958,418.2943,501.5625,414.1276" style="stroke: #2FA4E7; stroke-width: 1.0416666666666667;"/><line style="stroke: #2FA4E7; stroke-width: 3.125;" x1="374.4792" x2="503.6458" y1="414.1276" y2="414.1276"/><text fill="#000000" font-family="Verdana" font-size="12.5" font-weight="bold" lengthAdjust="spacingAndGlyphs" textLength="40.625" x="383.8542" y="407.3364">[003]</text><text fill="#000000" font-family="Verdana" font-size="12.5" lengthAdjust="spacingAndGlyphs" textLength="57.2917" x="432.8125" y="407.3364">To entity</text><polygon fill="#2FA4E7" points="657.8125,443.9026,668.2292,448.0693,657.8125,452.2359,661.9792,448.0693" style="stroke: #2FA4E7; stroke-width: 1.0416666666666667;"/><line style="stroke: #2FA4E7; stroke-width: 3.125;" x1="509.8958" x2="664.0625" y1="448.0693" y2="448.0693"/><text fill="#000000" font-family="Verdana" font-size="12.5" font-weight="bold" lengthAdjust="spacingAndGlyphs" textLength="40.625" x="519.2708" y="441.2781">[004]</text><text fill="#000000" font-family="Verdana" font-size="12.5" lengthAdjust="spacingAndGlyphs" textLength="82.2917" x="568.2292" y="441.2781">To database</text><polygon fill="#2FA4E7" points="385.9375,477.8442,375.5208,482.0109,385.9375,486.1776,381.7708,482.0109" style="stroke: #2FA4E7; stroke-width: 1.0416666666666667;"/><line style="stroke: #2FA4E7; stroke-width: 3.125; stroke-dasharray: 2.0,2.0;" x1="379.6875" x2="669.2708" y1="482.0109" y2="482.0109"/><text fill="#000000" font-family="Verdana" font-size="12.5" font-weight="bold" lengthAdjust="spacingAndGlyphs" textLength="40.625" x="394.2708" y="475.2197">[005]</text><text fill="#000000" font-family="Verdana" font-size="12.5" lengthAdjust="spacingAndGlyphs" textLength="40.625" x="443.2292" y="475.2197">return</text><polygon fill="#2FA4E7" points="238.0208,511.7859,227.6042,515.9526,238.0208,520.1192,233.8542,515.9526" style="stroke: #2FA4E7; stroke-width: 1.0416666666666667;"/><line style="stroke: #2FA4E7; stroke-width: 3.125; stroke-dasharray: 2.0,2.0;" x1="231.7708" x2="368.2292" y1="515.9526" y2="515.9526"/><text fill="#000000" font-family="Verdana" font-size="12.5" font-weight="bold" lengthAdjust="spacingAndGlyphs" textLength="40.625" x="246.3542" y="509.1614">[006]</text><text fill="#000000" font-family="Verdana" font-size="12.5" lengthAdjust="spacingAndGlyphs" textLength="40.625" x="295.3125" y="509.1614">return</text><text fill="#000000" font-family="Verdana" font-size="12.5" lengthAdjust="spacingAndGlyphs" textLength="36.4583" x="444.5313" y="553.5197">Some</text><text fill="#000000" font-family="Verdana" font-size="12.5" lengthAdjust="spacingAndGlyphs" textLength="67.7083" x="485.1563" y="553.5197">long delay</text><text fill="#000000" font-family="Verdana" font-size="12.5" lengthAdjust="spacingAndGlyphs" textLength="0" x="557.0313" y="553.5197"/><polygon fill="#2FA4E7" points="727.6042,594.2525,738.0208,598.4192,727.6042,602.5859,731.7708,598.4192" style="stroke: #2FA4E7; stroke-width: 1.0416666666666667;"/><line style="stroke: #2FA4E7; stroke-width: 3.125;" x1="66.1458" x2="733.8542" y1="598.4192" y2="598.4192"/><text fill="#000000" font-family="Verdana" font-size="12.5" font-weight="bold" lengthAdjust="spacingAndGlyphs" textLength="40.625" x="75.5208" y="591.628">[007]</text><text fill="#000000" font-family="Verdana" font-size="12.5" lengthAdjust="spacingAndGlyphs" textLength="87.5" x="124.4792" y="591.628">To collections</text><polygon fill="#2FA4E7" points="521.3542,628.1942,510.9375,632.3608,521.3542,636.5275,517.1875,632.3608" style="stroke: #2FA4E7; stroke-width: 1.0416666666666667;"/><line style="stroke: #2FA4E7; stroke-width: 3.125; stroke-dasharray: 2.0,2.0;" x1="515.1042" x2="739.0625" y1="632.3608" y2="632.3608"/><text fill="#000000" font-family="Verdana" font-size="12.5" font-weight="bold" lengthAdjust="spacingAndGlyphs" textLength="40.625" x="529.6875" y="625.5697">[008]</text><text fill="#73A839" font-family="Verdana" font-size="12.5" font-weight="bold" lengthAdjust="spacingAndGlyphs" textLength="53.125" x="578.6458" y="625.5697">success</text><path d="M17.7083,647.9858 L82.2917,647.9858 L82.2917,658.4025 L71.875,668.8192 L13.5417,668.8192 L13.5417,652.1525 " fill="#EEEEEE" style="stroke: #868E96; stroke-width: 1.0416666666666667;"/><rect fill="none" height="387.6831" rx="4.1667" ry="4.1667" style="stroke: #868E96; stroke-width: 2.0833333333333335;" width="1014.5833" x="13.5417" y="647.9858"/><text fill="#033C73" font-family="Verdana" font-size="12.5" font-weight="bold" lengthAdjust="spacingAndGlyphs" textLength="17.7083" x="31.25" y="663.678">alt</text><text fill="#343A40" font-family="Verdana" font-size="12.5" font-weight="bold" lengthAdjust="spacingAndGlyphs" textLength="118.75" x="100" y="664.7196">[successful case]</text><polygon fill="#2FA4E7" points="918.75,694.6025,929.1667,698.7691,918.75,702.9358,922.9167,698.7691" style="stroke: #2FA4E7; stroke-width: 1.0416666666666667;"/><line style="stroke: #2FA4E7; stroke-width: 3.125;" x1="66.1458" x2="925" y1="698.7691" y2="698.7691"/><text fill="#000000" font-family="Verdana" font-size="12.5" font-weight="bold" lengthAdjust="spacingAndGlyphs" textLength="40.625" x="75.5208" y="691.9779">[009]</text><text fill="#000000" font-family="Verdana" font-size="12.5" lengthAdjust="spacingAndGlyphs" textLength="158.3333" x="124.4792" y="691.9779">Authentication Accepted</text><polygon fill="#2FA4E7" points="77.6042,728.5441,67.1875,732.7108,77.6042,736.8774,73.4375,732.7108" style="stroke: #2FA4E7; stroke-width: 1.0416666666666667;"/><line style="stroke: #2FA4E7; stroke-width: 3.125; stroke-dasharray: 2.0,2.0;" x1="71.3542" x2="930.2083" y1="732.7108" y2="732.7108"/><text fill="#000000" font-family="Verdana" font-size="12.5" font-weight="bold" lengthAdjust="spacingAndGlyphs" textLength="40.625" x="85.9375" y="725.9196">[010]</text><text fill="#000000" font-family="Verdana" font-size="12.5" lengthAdjust="spacingAndGlyphs" textLength="51.0417" x="134.8958" y="725.9196">success</text><path d="M785.4167,750.4191 L785.4167,771.2524 A4.1667,4.1667 0 0 0 789.5833,775.4191 L921.875,775.4191 A4.1667,4.1667 0 0 0 926.0417,771.2524 L926.0417,756.6691 L915.625,746.2524 L789.5833,746.2524 A4.1667,4.1667 0 0 0 785.4167,750.4191 " fill="url(#g185yrz7ogy64k2)" style="stroke: #033C73; stroke-width: 1.0416666666666667;"/><path d="M915.625,746.2524 L915.625,754.5858 A2.0833,2.0833 0 0 0 917.7083,756.6691 L926.0417,756.6691 L915.625,746.2524 " fill="url(#g185yrz7ogy64k2)" style="stroke: #033C73; stroke-width: 1.0416666666666667;"/><text fill="#FFFFFF" font-family="Verdana" font-size="12.5" lengthAdjust="spacingAndGlyphs" textLength="114.5833" x="793.75" y="766.1112">this is a first note</text><line style="stroke: #868E96; stroke-width: 1.0416666666666667; stroke-dasharray: 2.0,2.0;" x1="13.5417" x2="1028.125" y1="782.2774" y2="782.2774"/><text fill="#343A40" font-family="Verdana" font-size="12.5" font-weight="bold" lengthAdjust="spacingAndGlyphs" textLength="148.9583" x="20.8333" y="796.9279">[some kind of failure]</text><polygon fill="#2FA4E7" points="918.75,824.1191,929.1667,828.2857,918.75,832.4524,922.9167,828.2857" style="stroke: #2FA4E7; stroke-width: 1.0416666666666667;"/><line style="stroke: #2FA4E7; stroke-width: 3.125;" x1="66.1458" x2="925" y1="828.2857" y2="828.2857"/><text fill="#000000" font-family="Verdana" font-size="12.5" font-weight="bold" lengthAdjust="spacingAndGlyphs" textLength="40.625" x="75.5208" y="821.4945">[011]</text><text fill="#000000" font-family="Verdana" font-size="12.5" lengthAdjust="spacingAndGlyphs" textLength="142.7083" x="124.4792" y="821.4945">Authentication Failure</text><polygon fill="#2FA4E7" points="77.6042,858.0607,67.1875,862.2274,77.6042,866.394,73.4375,862.2274" style="stroke: #2FA4E7; stroke-width: 1.0416666666666667;"/><line style="stroke: #2FA4E7; stroke-width: 3.125; stroke-dasharray: 2.0,2.0;" x1="71.3542" x2="930.2083" y1="862.2274" y2="862.2274"/><text fill="#000000" font-family="Verdana" font-size="12.5" font-weight="bold" lengthAdjust="spacingAndGlyphs" textLength="40.625" x="85.9375" y="855.4362">[012]</text><text fill="#C71C22" font-family="Verdana" font-size="12.5" font-weight="bold" lengthAdjust="spacingAndGlyphs" textLength="82.2917" x="134.8958" y="855.4362">Bad request</text><path d="M28.125,877.8524 L165.625,877.8524 L165.625,888.269 L155.2083,898.6857 L23.9583,898.6857 L23.9583,882.019 " fill="#EEEEEE" style="stroke: #868E96; stroke-width: 1.0416666666666667;"/><rect fill="none" height="95.1416" rx="4.1667" ry="4.1667" style="stroke: #868E96; stroke-width: 2.0833333333333335;" width="993.75" x="23.9583" y="877.8524"/><text fill="#033C73" font-family="Verdana" font-size="12.5" font-weight="bold" lengthAdjust="spacingAndGlyphs" textLength="90.625" x="41.6667" y="893.5445">My own label</text><path d="M38.5417,906.5857 L114.5833,906.5857 L114.5833,917.0024 L104.1667,927.419 L34.375,927.419 L34.375,910.7524 " fill="#EEEEEE" style="stroke: #868E96; stroke-width: 1.0416666666666667;"/><rect fill="none" height="59.1166" rx="4.1667" ry="4.1667" style="stroke: #868E96; stroke-width: 2.0833333333333335;" width="972.9167" x="34.375" y="906.5857"/><text fill="#033C73" font-family="Verdana" font-size="12.5" font-weight="bold" lengthAdjust="spacingAndGlyphs" textLength="29.1667" x="52.0833" y="922.2778">loop</text><text fill="#343A40" font-family="Verdana" font-size="12.5" font-weight="bold" lengthAdjust="spacingAndGlyphs" textLength="91.6667" x="132.2917" y="923.3195">[1000 times]</text><polygon fill="#2FA4E7" points="77.6042,953.2023,67.1875,957.369,77.6042,961.5356,73.4375,957.369" style="stroke: #2FA4E7; stroke-width: 1.0416666666666667;"/><line style="stroke: #2FA4E7; stroke-width: 3.125;" x1="71.3542" x2="930.2083" y1="957.369" y2="957.369"/><text fill="#000000" font-family="Verdana" font-size="12.5" font-weight="bold" lengthAdjust="spacingAndGlyphs" textLength="40.625" x="85.9375" y="950.5778">[013]</text><text fill="#000000" font-family="Verdana" font-size="12.5" lengthAdjust="spacingAndGlyphs" textLength="71.875" x="134.8958" y="950.5778">DNS Attack</text><line style="stroke: #868E96; stroke-width: 1.0416666666666667; stroke-dasharray: 2.0,2.0;" x1="13.5417" x2="1028.125" y1="981.3273" y2="981.3273"/><text fill="#343A40" font-family="Verdana" font-size="12.5" font-weight="bold" lengthAdjust="spacingAndGlyphs" textLength="115.625" x="20.8333" y="995.9778">[Just a Warning]</text><polygon fill="#2FA4E7" points="918.75,1023.1689,929.1667,1027.3356,918.75,1031.5023,922.9167,1027.3356" style="stroke: #2FA4E7; stroke-width: 1.0416666666666667;"/><line style="stroke: #2FA4E7; stroke-width: 3.125;" x1="66.1458" x2="925" y1="1027.3356" y2="1027.3356"/><text fill="#000000" font-family="Verdana" font-size="12.5" font-weight="bold" lengthAdjust="spacingAndGlyphs" textLength="40.625" x="75.5208" y="1020.5444">[014]</text><text fill="#DD5600" font-family="Verdana" font-size="12.5" font-weight="bold" lengthAdjust="spacingAndGlyphs" textLength="94.7917" x="124.4792" y="1020.5444">Please repeat</text><path d="M44.7917,1052.3356 L44.7917,1103.3773 A4.1667,4.1667 0 0 0 48.9583,1107.5439 L242.7083,1107.5439 A4.1667,4.1667 0 0 0 246.875,1103.3773 L246.875,1058.5856 L236.4583,1048.1689 L48.9583,1048.1689 A4.1667,4.1667 0 0 0 44.7917,1052.3356 " fill="url(#g185yrz7ogy64k2)" style="stroke: #033C73; stroke-width: 1.0416666666666667;"/><path d="M236.4583,1048.1689 L236.4583,1056.5023 A2.0833,2.0833 0 0 0 238.5417,1058.5856 L246.875,1058.5856 L236.4583,1048.1689 " fill="url(#g185yrz7ogy64k2)" style="stroke: #033C73; stroke-width: 1.0416666666666667;"/><text fill="#FFFFFF" font-family="Verdana" font-size="12.5" lengthAdjust="spacingAndGlyphs" textLength="136.4583" x="72.9167" y="1068.0278">this is a second note</text><text fill="#FFFFFF" font-family="Verdana" font-size="12.5" lengthAdjust="spacingAndGlyphs" textLength="81.25" x="72.9167" y="1083.2194">that is really</text><text fill="#FFFFFF" font-family="Verdana" font-size="12.5" lengthAdjust="spacingAndGlyphs" textLength="28.125" x="72.9167" y="1098.4111">long</text><text fill="#888888" font-family="Verdana" font-size="12.5" lengthAdjust="spacingAndGlyphs" textLength="85.4167" x="953.125" y="15.6921">Page Header</text><text fill="#888888" font-family="Verdana" font-size="12.5" lengthAdjust="spacingAndGlyphs" textLength="75" x="483.3333" y="1228.7944">Page 1 of 1</text><!--
@startuml







skinparam defaultFontName       "Verdana"
skinparam defaultFontSize       12
skinparam dpi                   100
skinparam shadowing             false
skinparam roundcorner           8
skinparam ParticipantPadding    10
skinparam BoxPadding            2
skinparam Padding               2
skinparam TitleFontColor	    #343A40
skinparam TitleFontSize	    	20
skinparam TitleBorderThickness 	0
skinparam ArrowColor            #868E96

skinparam legend {
	BackgroundColor #E9ECEF
	BorderColor #BABDBF
	FontColor #343A40
}

skinparam activity {
	TitleFontSize 20
	TitleFontColor #343A40
	FontColor #FFF
	BorderColor #2FA4E7
	BackgroundColor #59B6EC-#2FA4E7
	BarColor #73A839
	StartColor #033C73
	EndColor #033C73
	DiamondBackgroundColor #FFF-#EDF0F2
  	DiamondBorderColor #BABDBF
	DiamondFontColor #343A40
}

skinparam sequence {
	BorderColor #2FA4E7
	TitleFontSize 20
	TitleFontColor #343A40
	BackgroundColor transparent
	StartColor #2FA4E7
	EndColor #2FA4E7
    ParticipantBackgroundColor #59B6EC-#2FA4E7
    ParticipantBorderColor #2FA4E7
	ParticipantBorderThickness 0
	ParticipantFontColor #FFF
	ActorBackgroundColor transparent
    ActorBorderColor #2FA4E7
	ActorFontColor #2FA4E7
	ArrowThickness 3
	ArrowColor #2FA4E7
	BoxBackgroundColor #F8F9FA
	BoxBorderColor #868E96
	BoxFontColor #343A40
	LifeLineBorderColor #BABDBF
	LifeLineBorderThickness 0
	LifeLineBackgroundColor #EDF0F2
	GroupBorderColor #868E96
	GroupFontColor #343A40
	GroupHeaderFontColor #033C73
	DividerBackgroundColor #FFF-#F8F9FA
    DividerBorderColor #868E96
    DividerBorderThickness 2
    DividerFontColor #343A40
	ReferenceBorderColor #868E96
	ReferenceFontColor #343A40
	ReferenceHeaderFontColor #033C73
}

skinparam partition {
	BorderColor #2FA4E7
	FontColor #2FA4E7
	BackgroundColor transparent
}

skinparam collections {
	BackgroundColor #59B6EC-#2FA4E7
	BorderColor #2FA4E7
}

skinparam control {
	BackgroundColor  #59B6EC-#2FA4E7
	BorderColor #2683B9
	FontColor #343A40
}

skinparam entity {
	BackgroundColor  #59B6EC-#2FA4E7
	BorderColor #2683B9
	FontColor #343A40
}

skinparam boundary {
	BackgroundColor  #59B6EC-#2FA4E7
	BorderColor #2683B9
	FontColor #343A40
}

skinparam agent {
	BackgroundColor #orange
	BorderColor #999999
	FontColor #333333
}

skinparam note {
	BorderThickness 1
	BackgroundColor #35638F-#033C73
	BorderColor #033C73
	FontColor #FFF
}

skinparam artifact {
	BackgroundColor #FFF-#F8F9FA
	BorderColor #868E96
	FontColor #868E96
}

skinparam component {
	BackgroundColor  #8FB961-#73A839
	BorderColor  #73A839
	FontColor #FFF
}

skinparam interface {
	BackgroundColor  #D2494E
	BorderColor  #C71C22
	FontColor #343A40
}

skinparam storage {
	BackgroundColor #E47833-#DD5600
  	BorderColor #DD5600
	FontColor #FFF
}

skinparam node {
	BackgroundColor #EDF0F2-#E9ECEF
	BorderColor #343A40
	FontColor #343A40
}

skinparam cloud {
	BackgroundColor white-lightskyblue
	BorderColor transparent
	FontColor #343A40
}

skinparam database {
	BackgroundColor  #59B6EC-#2FA4E7
	BorderColor #2683B9
	FontColor #343A40
}

skinparam actor {
	FontColor #343A40
}

skinparam class {
	HeaderBackgroundColor #2FA4E7-#2683B9
	FontColor #FFF
	BackgroundColor #59B6EC-#2FA4E7
	BorderColor #2683B9
	StereotypeFontColor #343A40
	BorderThickness 1
	AttributeFontColor #343A40
	AttributeFontSize 11
}

skinparam object {
	FontColor #73A839
	BackgroundColor #E9ECEF-#BABDBF
	BorderColor #BABDBF
	StereotypeFontColor #343A40
	BorderThickness 1
	AttributeFontColor #343A40
	AttributeFontSize 11
}

skinparam usecase {
	BackgroundColor #EDF0F2-#E9ECEF
	BorderColor #E9ECEF
	BorderThickness 2
	FontColor #343A40
	StereotypeFontColor #2FA4E7
}

skinparam rectangle {
	BackgroundColor #E9ECEF-#BABDBF
	BorderColor #2683B9
	BorderThickness 2
	FontColor #2FA4E7
	StereotypeFontColor #2FA4E7
}

skinparam package {
	BackgroundColor #EDF0F2-#E9ECEF
  	BorderColor #2FA4E7
	FontColor #2FA4E7
	BorderThickness 2
}

skinparam folder {
	BackgroundColor #FFF-#EDF0F2
  	BorderColor #DD5600
	FontColor #DD5600
	BorderThickness 2
}

skinparam frame {
	BackgroundColor #FFF-#EDF0F2
  	BorderColor #033C73
	FontColor #033C73
	BorderThickness 2
}

skinparam state {
	StartColor #033C73
	EndColor #033C73
	BackgroundColor #E9ECEF-#BABDBF
	BorderColor #BABDBF
	FontColor #033C73
	AttributeFontColor #343A40
	AttributeFontSize 11
}

skinparam queue {
	BackgroundColor #DD5600-#B14500
  	BorderColor #B14500
	FontColor #FFF
}

skinparam card {
	BackgroundColor #35638F-#033C73
	BorderColor #033C73
	FontColor #FFF
}

skinparam file {
	BackgroundColor #EDF0F2-#E9ECEF
	BorderColor #868E96
	FontColor #868E96

}

skinparam stack {
	BackgroundColor #59B6EC-#2683B9
	BorderColor #2FA4E7
	FontColor #FFF
}

title Sequence Diagram - cerulean theme


autonumber "<b>[000]"

header Page Header
footer Page %page% of %lastpage%

actor Foo1
boundary Foo2
control Foo3
entity Foo4
database Foo5
collections Foo6
participant Bob
participant Alice << (C,#ADD1B2) Testable >>

box "Internal Service"
	participant Bob
	participant Alice
end box

== Initialization ==
Foo1 -> Foo2 : To boundary
|||
Foo2 -> Foo3 ++: To control
ref over Foo4, Foo5
  This can be on
  several lines
end ref
Foo3 -> Foo4 : To entity

Foo4 -> Foo5 : To database
Foo5 - -> Foo3 - - : return
Foo3 - -> Foo2 - -: return
... Some ~~long delay~~ ...
Foo1 -> Foo6 : To collections
Foo6 - -> Foo4:   <font color=#73A839><b>success


alt successful case

Foo1 -> Alice: Authentication Accepted
Alice - -> Foo1: success

note left of Alice: this is a first note

else some kind of failure

	Foo1 -> Alice: Authentication Failure
    Alice - -> Foo1:   <font color=#C71C22><b>Bad request
	group My own label
	    loop 1000 times
	        Alice -> Foo1: DNS Attack
	    end
	end
	
else Just a Warning

   Foo1 -> Alice:   <font color=#DD5600><b>Please repeat
   
end

note over Foo1, Foo2
this is a second note
that is really
long
end note

@enduml

PlantUML version 1.2019.08(Sat Jul 13 12:25:14 PDT 2019)
(MIT source distribution)
Java Runtime: Java(TM) SE Runtime Environment
JVM: Java HotSpot(TM) 64-Bit Server VM
Java Version: 1.8.0_212-b32
Operating System: Windows 10
OS Version: 10.0
Default Encoding: Cp1252
Language: en
Country: US
--></g></svg>