<?xml version="1.0" encoding="UTF-8" standalone="no"?><svg xmlns="http://www.w3.org/2000/svg" xmlns:xlink="http://www.w3.org/1999/xlink" contentScriptType="application/ecmascript" contentStyleType="text/css" height="1102.0833px" preserveAspectRatio="none" style="width:375px;height:1102px;" version="1.1" viewBox="0 0 375 1102" width="375px" zoomAndPan="magnify"><defs><linearGradient id="g10144662nxokj0" x1="50%" x2="50%" y1="0%" y2="100%"><stop offset="0%" stop-color="#E9ECEF"/><stop offset="100%" stop-color="#BABDBF"/></linearGradient></defs><g><rect fill="none" height="39.9028" rx="4.1667" ry="4.1667" style="stroke: none; stroke-width: 1.0416666666666667;" width="361.4583" x="2.0833" y="2.0833"/><text fill="#343A40" font-family="Verdana" font-size="20.8333" lengthAdjust="spacingAndGlyphs" textLength="340.625" x="12.5" y="30.3202">State Diagram - cerulean theme</text><rect fill="#73A839" height="8.3333" style="stroke: none; stroke-width: 1.0416666666666667;" width="83.3333" x="135.4167" y="136.7778"/><ellipse cx="177.0833" cy="63.8611" fill="#033C73" rx="10.4167" ry="10.4167" style="stroke: none; stroke-width: 1.0416666666666667;"/><rect fill="url(#g10144662nxokj0)" height="52.0833" rx="13.0208" ry="13.0208" style="stroke: #BABDBF; stroke-width: 1.5625;" width="68.75" x="90.625" y="207.6111"/><line style="stroke: #BABDBF; stroke-width: 1.5625;" x1="90.625" x2="159.375" y1="237.3861" y2="237.3861"/><text fill="#033C73" font-family="Verdana" font-size="12.5" lengthAdjust="spacingAndGlyphs" textLength="43.75" x="103.125" y="227.4699">State2</text><rect fill="url(#g10144662nxokj0)" height="52.0833" rx="13.0208" ry="13.0208" style="stroke: #BABDBF; stroke-width: 1.5625;" width="68.75" x="195.8333" y="207.6111"/><line style="stroke: #BABDBF; stroke-width: 1.5625;" x1="195.8333" x2="264.5833" y1="237.3861" y2="237.3861"/><text fill="#033C73" font-family="Verdana" font-size="12.5" lengthAdjust="spacingAndGlyphs" textLength="43.75" x="208.3333" y="227.4699">State3</text><rect fill="#73A839" height="8.3333" style="stroke: none; stroke-width: 1.0416666666666667;" width="83.3333" x="135.4167" y="322.1944"/><rect fill="url(#g10144662nxokj0)" height="52.0833" rx="13.0208" ry="13.0208" style="stroke: #BABDBF; stroke-width: 1.5625;" width="68.75" x="142.7083" y="393.0278"/><line style="stroke: #BABDBF; stroke-width: 1.5625;" x1="142.7083" x2="211.4583" y1="422.8027" y2="422.8027"/><text fill="#033C73" font-family="Verdana" font-size="12.5" lengthAdjust="spacingAndGlyphs" textLength="43.75" x="155.2083" y="412.8866">State4</text><rect fill="url(#g10144662nxokj0)" height="583.9417" rx="13.0208" ry="13.0208" style="stroke: #BABDBF; stroke-width: 1.5625;" width="337.5" x="8.3333" y="507.6111"/><rect fill="#FFFFFF" height="547.9167" rx="13.0208" ry="13.0208" style="stroke: #FFFFFF; stroke-width: 1.0416666666666667;" width="331.25" x="11.4583" y="540.5111"/><line style="stroke: #BABDBF; stroke-width: 1.5625;" x1="8.3333" x2="345.8333" y1="537.3861" y2="537.3861"/><text fill="#033C73" font-family="Verdana" font-size="12.5" lengthAdjust="spacingAndGlyphs" textLength="38.5417" x="157.8125" y="527.4699">Active</text><ellipse cx="30.2083" cy="576.9694" fill="#033C73" rx="10.4167" ry="10.4167" style="stroke: none; stroke-width: 1.0416666666666667;"/><rect fill="url(#g10144662nxokj0)" height="52.0833" rx="13.0208" ry="13.0208" style="stroke: #BABDBF; stroke-width: 1.5625;" width="102.0833" x="59.375" y="550.9277"/><line style="stroke: #BABDBF; stroke-width: 1.5625;" x1="59.375" x2="161.4583" y1="580.7027" y2="580.7027"/><text fill="#033C73" font-family="Verdana" font-size="12.5" lengthAdjust="spacingAndGlyphs" textLength="77.0833" x="71.875" y="570.7865">NumLockOff</text><rect fill="url(#g10144662nxokj0)" height="52.0833" rx="13.0208" ry="13.0208" style="stroke: #BABDBF; stroke-width: 1.5625;" width="102.0833" x="58.3333" y="661.3444"/><line style="stroke: #BABDBF; stroke-width: 1.5625;" x1="58.3333" x2="160.4167" y1="691.1194" y2="691.1194"/><text fill="#033C73" font-family="Verdana" font-size="12.5" lengthAdjust="spacingAndGlyphs" textLength="77.0833" x="70.8333" y="681.2032">NumLockOn</text><!--link *start*Active to NumLockOff--><path d="M40.861,576.9694 C45.1913,576.9694 49.5215,576.9694 53.8518,576.9694 " fill="none" id="*start*Active-NumLockOff" style="stroke: #2FA4E7; stroke-width: 3.125;"/><polygon fill="#2FA4E7" points="59.3368,576.9694,49.9618,572.8027,54.1284,576.9694,49.9618,581.1361,59.3368,576.9694" style="stroke: #2FA4E7; stroke-width: 3.125;"/><!--link NumLockOff to NumLockOn--><path d="M59.346,601.5017 C46.7739,608.3673 35.8683,615.6589 32.2917,621.7611 C22.5253,638.4237 35.5939,652.7454 53.5856,663.638 " fill="none" id="NumLockOff-NumLockOn" style="stroke: #2FA4E7; stroke-width: 3.125;"/><polygon fill="#2FA4E7" points="58.255,666.3327,52.218,658.0378,53.744,663.7293,48.0525,665.2554,58.255,666.3327" style="stroke: #2FA4E7; stroke-width: 3.125;"/><text fill="#000000" font-family="Verdana" font-size="12.5" lengthAdjust="spacingAndGlyphs" textLength="127.0833" x="35.4167" y="637.4532">EvNumLockPressed</text><!--link NumLockOn to NumLockOff--><path d="M151.2427,661.1777 C157.0552,655.8012 162.201,649.5961 165.625,642.5944 C171.9167,629.7308 165.4969,617.336 155.1031,606.9048 " fill="none" id="NumLockOn-NumLockOff" style="stroke: #2FA4E7; stroke-width: 3.125;"/><polygon fill="#2FA4E7" points="151.1094,603.1527,155.0883,612.6089,154.905,606.7192,160.7947,606.5359,151.1094,603.1527" style="stroke: #2FA4E7; stroke-width: 3.125;"/><text fill="#000000" font-family="Verdana" font-size="12.5" lengthAdjust="spacingAndGlyphs" textLength="127.0833" x="171.875" y="637.4532">EvNumLockPressed</text><line style="stroke: #BABDBF; stroke-width: 1.5625; stroke-dasharray: 8.0,10.0;" x1="13.5417" x2="338.5417" y1="723.8444" y2="723.8444"/><ellipse cx="30.2083" cy="758.2194" fill="#033C73" rx="10.4167" ry="10.4167" style="stroke: none; stroke-width: 1.0416666666666667;"/><rect fill="url(#g10144662nxokj0)" height="52.0833" rx="13.0208" ry="13.0208" style="stroke: #BABDBF; stroke-width: 1.5625;" width="106.25" x="59.375" y="732.1777"/><line style="stroke: #BABDBF; stroke-width: 1.5625;" x1="59.375" x2="165.625" y1="761.9527" y2="761.9527"/><text fill="#033C73" font-family="Verdana" font-size="12.5" lengthAdjust="spacingAndGlyphs" textLength="81.25" x="71.875" y="752.0365">CapsLockOff</text><rect fill="url(#g10144662nxokj0)" height="52.0833" rx="13.0208" ry="13.0208" style="stroke: #BABDBF; stroke-width: 1.5625;" width="106.25" x="58.3333" y="842.5944"/><line style="stroke: #BABDBF; stroke-width: 1.5625;" x1="58.3333" x2="164.5833" y1="872.3694" y2="872.3694"/><text fill="#033C73" font-family="Verdana" font-size="12.5" lengthAdjust="spacingAndGlyphs" textLength="81.25" x="70.8333" y="862.4532">CapsLockOn</text><!--link *start*CONC82 to CapsLockOff--><path d="M40.8163,758.2194 C45.1477,758.2194 49.4792,758.2194 53.8106,758.2194 " fill="none" id="*start*CONC82-CapsLockOff" style="stroke: #2FA4E7; stroke-width: 3.125;"/><polygon fill="#2FA4E7" points="59.2972,758.2194,49.9222,754.0527,54.0889,758.2194,49.9222,762.3861,59.2972,758.2194" style="stroke: #2FA4E7; stroke-width: 3.125;"/><!--link CapsLockOff to CapsLockOn--><path d="M59.2342,783.0757 C46.687,789.8038 35.8948,796.9415 32.2917,803.0111 C22.4422,819.6029 35.2579,833.7554 53.2551,844.546 " fill="none" id="CapsLockOff-CapsLockOn" style="stroke: #2FA4E7; stroke-width: 3.125;"/><polygon fill="#2FA4E7" points="57.9317,847.2163,51.8565,838.9493,53.4087,844.6337,47.7243,846.1859,57.9317,847.2163" style="stroke: #2FA4E7; stroke-width: 3.125;"/><text fill="#000000" font-family="Verdana" font-size="12.5" lengthAdjust="spacingAndGlyphs" textLength="131.25" x="35.4167" y="818.7032">EvCapsLockPressed</text><!--link CapsLockOn to CapsLockOff--><path d="M155.1375,842.3943 C161.05,837.0503 166.2813,830.8645 169.7917,823.8444 C176.2396,810.9495 169.7531,798.6272 159.1427,788.2673 " fill="none" id="CapsLockOn-CapsLockOff" style="stroke: #2FA4E7; stroke-width: 3.125;"/><polygon fill="#2FA4E7" points="155.0635,784.5423,159.1778,793.9404,158.91,788.054,164.7964,787.7861,155.0635,784.5423" style="stroke: #2FA4E7; stroke-width: 3.125;"/><text fill="#000000" font-family="Verdana" font-size="12.5" lengthAdjust="spacingAndGlyphs" textLength="131.25" x="176.0417" y="818.7032">EvCapsLockPressed</text><line style="stroke: #BABDBF; stroke-width: 1.5625; stroke-dasharray: 8.0,10.0;" x1="13.5417" x2="338.5417" y1="905.0944" y2="905.0944"/><ellipse cx="30.2083" cy="939.4694" fill="#033C73" rx="10.4167" ry="10.4167" style="stroke: none; stroke-width: 1.0416666666666667;"/><rect fill="url(#g10144662nxokj0)" height="52.0833" rx="13.0208" ry="13.0208" style="stroke: #BABDBF; stroke-width: 1.5625;" width="107.2917" x="59.8958" y="913.4277"/><line style="stroke: #BABDBF; stroke-width: 1.5625;" x1="59.8958" x2="167.1875" y1="943.2027" y2="943.2027"/><text fill="#033C73" font-family="Verdana" font-size="12.5" lengthAdjust="spacingAndGlyphs" textLength="82.2917" x="72.3958" y="933.2865">ScrollLockOff</text><rect fill="url(#g10144662nxokj0)" height="52.0833" rx="13.0208" ry="13.0208" style="stroke: #BABDBF; stroke-width: 1.5625;" width="107.2917" x="59.8958" y="1023.8444"/><line style="stroke: #BABDBF; stroke-width: 1.5625;" x1="59.8958" x2="167.1875" y1="1053.6194" y2="1053.6194"/><text fill="#033C73" font-family="Verdana" font-size="12.5" lengthAdjust="spacingAndGlyphs" textLength="82.2917" x="72.3958" y="1043.7032">ScrollLockOn</text><!--link *start*CONC90 to ScrollLockOff--><path d="M40.625,939.4694 C45.1971,939.4694 49.7693,939.4694 54.3414,939.4694 " fill="none" id="*start*CONC90-ScrollLockOff" style="stroke: #2FA4E7; stroke-width: 3.125;"/><polygon fill="#2FA4E7" points="59.7086,939.4694,50.3336,935.3027,54.5003,939.4694,50.3336,943.6361,59.7086,939.4694" style="stroke: #2FA4E7; stroke-width: 3.125;"/><!--link ScrollLockOff to ScrollLockOn--><path d="M59.7525,959.9829 C49.6318,966.1621 40.3591,974.1171 34.375,984.2611 C24.6544,1000.7392 37.1781,1014.7965 54.9276,1025.5478 " fill="none" id="ScrollLockOff-ScrollLockOn" style="stroke: #2FA4E7; stroke-width: 3.125;"/><polygon fill="#2FA4E7" points="59.5424,1028.2095,53.5031,1019.9162,55.0307,1025.6073,49.3396,1027.1349,59.5424,1028.2095" style="stroke: #2FA4E7; stroke-width: 3.125;"/><text fill="#000000" font-family="Verdana" font-size="12.5" lengthAdjust="spacingAndGlyphs" textLength="131.25" x="37.5" y="999.9532">EvCapsLockPressed</text><!--link ScrollLockOn to ScrollLockOff--><path d="M156.8052,1023.6801 C169.9302,1012.631 179.1729,998.8561 171.875,984.2611 C169.1323,978.7767 165.3396,973.8014 160.9927,969.3392 " fill="none" id="ScrollLockOn-ScrollLockOff" style="stroke: #2FA4E7; stroke-width: 3.125;"/><polygon fill="#2FA4E7" points="157.2208,965.7111,161.0887,975.2132,160.9744,969.3218,166.8659,969.2075,157.2208,965.7111" style="stroke: #2FA4E7; stroke-width: 3.125;"/><text fill="#000000" font-family="Verdana" font-size="12.5" lengthAdjust="spacingAndGlyphs" textLength="131.25" x="177.0833" y="999.9532">EvCapsLockPressed</text><!--link *start to fork_state--><path d="M177.0833,74.4017 C177.0833,89.0309 177.0833,116.8715 177.0833,131.0809 " fill="none" id="*start-fork_state" style="stroke: #2FA4E7; stroke-width: 3.125;"/><polygon fill="#2FA4E7" points="177.0833,136.5548,181.25,127.1798,177.0833,131.3465,172.9167,127.1798,177.0833,136.5548" style="stroke: #2FA4E7; stroke-width: 3.125;"/><!--link fork_state to State2--><path d="M175.1052,145.4278 C169.75,154.7465 154.5479,181.1986 142.2813,202.5423 " fill="none" id="fork_state-State2" style="stroke: #2FA4E7; stroke-width: 3.125;"/><polygon fill="#2FA4E7" points="139.5531,207.2882,147.8376,201.2368,142.1487,202.7727,140.6128,197.0838,139.5531,207.2882" style="stroke: #2FA4E7; stroke-width: 3.125;"/><!--link fork_state to State3--><path d="M179.101,145.4278 C184.5635,154.7465 200.0698,181.1986 212.5823,202.5423 " fill="none" id="fork_state-State3" style="stroke: #2FA4E7; stroke-width: 3.125;"/><polygon fill="#2FA4E7" points="215.3635,207.2882,214.2164,197.0933,212.7293,202.7951,207.0275,201.308,215.3635,207.2882" style="stroke: #2FA4E7; stroke-width: 3.125;"/><!--link State2 to join_state--><path d="M139.5083,259.9382 C150.675,279.3694 165.3875,304.9694 172.6448,317.5955 " fill="none" id="State2-join_state" style="stroke: #2FA4E7; stroke-width: 3.125;"/><polygon fill="#2FA4E7" points="175.2656,322.1569,174.206,311.9526,172.67,317.6414,166.9812,316.1055,175.2656,322.1569" style="stroke: #2FA4E7; stroke-width: 3.125;"/><!--link State3 to join_state--><path d="M215.4104,259.9382 C204.0198,279.3694 189.0125,304.9694 181.6115,317.5955 " fill="none" id="State3-join_state" style="stroke: #2FA4E7; stroke-width: 3.125;"/><polygon fill="#2FA4E7" points="178.9375,322.1569,187.2736,316.1768,181.5717,317.6639,180.0847,311.962,178.9375,322.1569" style="stroke: #2FA4E7; stroke-width: 3.125;"/><!--link join_state to State4--><path d="M177.0833,330.8444 C177.0833,340.084 177.0833,366.1715 177.0833,387.4194 " fill="none" id="join_state-State4" style="stroke: #2FA4E7; stroke-width: 3.125;"/><polygon fill="#2FA4E7" points="177.0833,392.7048,181.25,383.3298,177.0833,387.4965,172.9167,383.3298,177.0833,392.7048" style="stroke: #2FA4E7; stroke-width: 3.125;"/><!--link State4 to Active--><path d="M177.0833,445.2486 C177.0833,459.6059 177.0833,479.2788 177.0833,502.0465 " fill="none" id="State4-Active" style="stroke: #2FA4E7; stroke-width: 3.125;"/><polygon fill="#2FA4E7" points="177.0833,507.2642,181.25,497.8892,177.0833,502.0559,172.9167,497.8892,177.0833,507.2642" style="stroke: #2FA4E7; stroke-width: 3.125;"/><!--
@startuml







skinparam defaultFontName       "Verdana"
skinparam defaultFontSize       12
skinparam dpi                   100
skinparam shadowing             false
skinparam roundcorner           8
skinparam ParticipantPadding    10
skinparam BoxPadding            2
skinparam Padding               2
skinparam TitleFontColor	    #343A40
skinparam TitleFontSize	    	20
skinparam TitleBorderThickness 	0
skinparam ArrowColor            #868E96

skinparam legend {
	BackgroundColor #E9ECEF
	BorderColor #BABDBF
	FontColor #343A40
}

skinparam activity {
	TitleFontSize 20
	TitleFontColor #343A40
	FontColor #FFF
	BorderColor #2FA4E7
	BackgroundColor #59B6EC-#2FA4E7
	BarColor #73A839
	StartColor #033C73
	EndColor #033C73
	DiamondBackgroundColor #FFF-#EDF0F2
  	DiamondBorderColor #BABDBF
	DiamondFontColor #343A40
}

skinparam sequence {
	BorderColor #2FA4E7
	TitleFontSize 20
	TitleFontColor #343A40
	BackgroundColor transparent
	StartColor #2FA4E7
	EndColor #2FA4E7
    ParticipantBackgroundColor #59B6EC-#2FA4E7
    ParticipantBorderColor #2FA4E7
	ParticipantBorderThickness 0
	ParticipantFontColor #FFF
	ActorBackgroundColor transparent
    ActorBorderColor #2FA4E7
	ActorFontColor #2FA4E7
	ArrowThickness 3
	ArrowColor #2FA4E7
	BoxBackgroundColor #F8F9FA
	BoxBorderColor #868E96
	BoxFontColor #343A40
	LifeLineBorderColor #BABDBF
	LifeLineBorderThickness 0
	LifeLineBackgroundColor #EDF0F2
	GroupBorderColor #868E96
	GroupFontColor #343A40
	GroupHeaderFontColor #033C73
	DividerBackgroundColor #FFF-#F8F9FA
    DividerBorderColor #868E96
    DividerBorderThickness 2
    DividerFontColor #343A40
	ReferenceBorderColor #868E96
	ReferenceFontColor #343A40
	ReferenceHeaderFontColor #033C73
}

skinparam partition {
	BorderColor #2FA4E7
	FontColor #2FA4E7
	BackgroundColor transparent
}

skinparam collections {
	BackgroundColor #59B6EC-#2FA4E7
	BorderColor #2FA4E7
}

skinparam control {
	BackgroundColor  #59B6EC-#2FA4E7
	BorderColor #2683B9
	FontColor #343A40
}

skinparam entity {
	BackgroundColor  #59B6EC-#2FA4E7
	BorderColor #2683B9
	FontColor #343A40
}

skinparam boundary {
	BackgroundColor  #59B6EC-#2FA4E7
	BorderColor #2683B9
	FontColor #343A40
}

skinparam agent {
	BackgroundColor #orange
	BorderColor #999999
	FontColor #333333
}

skinparam note {
	BorderThickness 1
	BackgroundColor #35638F-#033C73
	BorderColor #033C73
	FontColor #FFF
}

skinparam artifact {
	BackgroundColor #FFF-#F8F9FA
	BorderColor #868E96
	FontColor #868E96
}

skinparam component {
	BackgroundColor  #8FB961-#73A839
	BorderColor  #73A839
	FontColor #FFF
}

skinparam interface {
	BackgroundColor  #D2494E
	BorderColor  #C71C22
	FontColor #343A40
}

skinparam storage {
	BackgroundColor #E47833-#DD5600
  	BorderColor #DD5600
	FontColor #FFF
}

skinparam node {
	BackgroundColor #EDF0F2-#E9ECEF
	BorderColor #343A40
	FontColor #343A40
}

skinparam cloud {
	BackgroundColor white-lightskyblue
	BorderColor transparent
	FontColor #343A40
}

skinparam database {
	BackgroundColor  #59B6EC-#2FA4E7
	BorderColor #2683B9
	FontColor #343A40
}

skinparam actor {
	FontColor #343A40
}

skinparam class {
	HeaderBackgroundColor #2FA4E7-#2683B9
	FontColor #FFF
	BackgroundColor #59B6EC-#2FA4E7
	BorderColor #2683B9
	StereotypeFontColor #343A40
	BorderThickness 1
	AttributeFontColor #343A40
	AttributeFontSize 11
}

skinparam object {
	FontColor #73A839
	BackgroundColor #E9ECEF-#BABDBF
	BorderColor #BABDBF
	StereotypeFontColor #343A40
	BorderThickness 1
	AttributeFontColor #343A40
	AttributeFontSize 11
}

skinparam usecase {
	BackgroundColor #EDF0F2-#E9ECEF
	BorderColor #E9ECEF
	BorderThickness 2
	FontColor #343A40
	StereotypeFontColor #2FA4E7
}

skinparam rectangle {
	BackgroundColor #E9ECEF-#BABDBF
	BorderColor #2683B9
	BorderThickness 2
	FontColor #2FA4E7
	StereotypeFontColor #2FA4E7
}

skinparam package {
	BackgroundColor #EDF0F2-#E9ECEF
  	BorderColor #2FA4E7
	FontColor #2FA4E7
	BorderThickness 2
}

skinparam folder {
	BackgroundColor #FFF-#EDF0F2
  	BorderColor #DD5600
	FontColor #DD5600
	BorderThickness 2
}

skinparam frame {
	BackgroundColor #FFF-#EDF0F2
  	BorderColor #033C73
	FontColor #033C73
	BorderThickness 2
}

skinparam state {
	StartColor #033C73
	EndColor #033C73
	BackgroundColor #E9ECEF-#BABDBF
	BorderColor #BABDBF
	FontColor #033C73
	AttributeFontColor #343A40
	AttributeFontSize 11
}

skinparam queue {
	BackgroundColor #DD5600-#B14500
  	BorderColor #B14500
	FontColor #FFF
}

skinparam card {
	BackgroundColor #35638F-#033C73
	BorderColor #033C73
	FontColor #FFF
}

skinparam file {
	BackgroundColor #EDF0F2-#E9ECEF
	BorderColor #868E96
	FontColor #868E96

}

skinparam stack {
	BackgroundColor #59B6EC-#2683B9
	BorderColor #2FA4E7
	FontColor #FFF
}

title State Diagram - cerulean theme


state fork_state <<fork>>
[*] - -> fork_state
fork_state - -> State2
fork_state - -> State3

state join_state <<join>>
State2 - -> join_state
State3 - -> join_state
join_state - -> State4
State4 - -> Active

state Active {
  [*] -> NumLockOff
  NumLockOff - -> NumLockOn : EvNumLockPressed
  NumLockOn - -> NumLockOff : EvNumLockPressed
  - -
  [*] -> CapsLockOff
  CapsLockOff - -> CapsLockOn : EvCapsLockPressed
  CapsLockOn - -> CapsLockOff : EvCapsLockPressed
  - -
  [*] -> ScrollLockOff
  ScrollLockOff - -> ScrollLockOn : EvCapsLockPressed
  ScrollLockOn - -> ScrollLockOff : EvCapsLockPressed
}

@enduml

PlantUML version 1.2019.08(Sat Jul 13 12:25:14 PDT 2019)
(MIT source distribution)
Java Runtime: Java(TM) SE Runtime Environment
JVM: Java HotSpot(TM) 64-Bit Server VM
Java Version: 1.8.0_212-b32
Operating System: Windows 10
OS Version: 10.0
Default Encoding: Cp1252
Language: en
Country: US
--></g></svg>