<?xml version="1.0" encoding="UTF-8" standalone="no"?><svg xmlns="http://www.w3.org/2000/svg" xmlns:xlink="http://www.w3.org/1999/xlink" contentScriptType="application/ecmascript" contentStyleType="text/css" height="1102.0833px" preserveAspectRatio="none" style="width:375px;height:1102px;" version="1.1" viewBox="0 0 375 1102" width="375px" zoomAndPan="magnify"><defs><linearGradient id="gjyuzsys9us0v0" x1="50%" x2="50%" y1="0%" y2="100%"><stop offset="0%" stop-color="#E9ECEF"/><stop offset="100%" stop-color="#BABDBF"/></linearGradient></defs><g><rect fill="none" height="39.9028" rx="4.1667" ry="4.1667" style="stroke: none; stroke-width: 1.0416666666666667;" width="361.4583" x="2.0833" y="2.0833"/><text fill="#343A40" font-family="Verdana" font-size="20.8333" lengthAdjust="spacingAndGlyphs" textLength="340.625" x="12.5" y="30.3202">State Diagram - cerulean theme</text><rect fill="#73A839" height="8.3333" style="stroke: none; stroke-width: 1.0416666666666667;" width="83.3333" x="135.4167" y="136.7778"/><ellipse cx="177.0833" cy="63.8611" fill="#033C73" rx="10.4167" ry="10.4167" style="stroke: none; stroke-width: 1.0416666666666667;"/><rect fill="url(#gjyuzsys9us0v0)" height="52.0833" rx="13.0208" ry="13.0208" style="stroke: #BABDBF; stroke-width: 1.5625;" width="68.75" x="90.625" y="207.6111"/><line style="stroke: #BABDBF; stroke-width: 1.5625;" x1="90.625" x2="159.375" y1="237.3861" y2="237.3861"/><text fill="#033C73" font-family="Verdana" font-size="12.5" lengthAdjust="spacingAndGlyphs" textLength="43.75" x="103.125" y="227.4699">State2</text><rect fill="url(#gjyuzsys9us0v0)" height="52.0833" rx="13.0208" ry="13.0208" style="stroke: #BABDBF; stroke-width: 1.5625;" width="68.75" x="195.8333" y="207.6111"/><line style="stroke: #BABDBF; stroke-width: 1.5625;" x1="195.8333" x2="264.5833" y1="237.3861" y2="237.3861"/><text fill="#033C73" font-family="Verdana" font-size="12.5" lengthAdjust="spacingAndGlyphs" textLength="43.75" x="208.3333" y="227.4699">State3</text><rect fill="#73A839" height="8.3333" style="stroke: none; stroke-width: 1.0416666666666667;" width="83.3333" x="135.4167" y="322.1944"/><rect fill="url(#gjyuzsys9us0v0)" height="52.0833" rx="13.0208" ry="13.0208" style="stroke: #BABDBF; stroke-width: 1.5625;" width="68.75" x="142.7083" y="393.0278"/><line style="stroke: #BABDBF; stroke-width: 1.5625;" x1="142.7083" x2="211.4583" y1="422.8027" y2="422.8027"/><text fill="#033C73" font-family="Verdana" font-size="12.5" lengthAdjust="spacingAndGlyphs" textLength="43.75" x="155.2083" y="412.8866">State4</text><rect fill="url(#gjyuzsys9us0v0)" height="583.9417" rx="13.0208" ry="13.0208" style="stroke: #BABDBF; stroke-width: 1.5625;" width="337.5" x="8.3333" y="507.6111"/><rect fill="#FFFFFF" height="547.9167" rx="13.0208" ry="13.0208" style="stroke: #FFFFFF; stroke-width: 1.0416666666666667;" width="331.25" x="11.4583" y="540.5111"/><line style="stroke: #BABDBF; stroke-width: 1.5625;" x1="8.3333" x2="345.8333" y1="537.3861" y2="537.3861"/><text fill="#033C73" font-family="Verdana" font-size="12.5" lengthAdjust="spacingAndGlyphs" textLength="38.5417" x="157.8125" y="527.4699">Active</text><ellipse cx="30.2083" cy="576.9694" fill="#033C73" rx="10.4167" ry="10.4167" style="stroke: none; stroke-width: 1.0416666666666667;"/><rect fill="url(#gjyuzsys9us0v0)" height="52.0833" rx="13.0208" ry="13.0208" style="stroke: #BABDBF; stroke-width: 1.5625;" width="102.0833" x="59.375" y="550.9277"/><line style="stroke: #BABDBF; stroke-width: 1.5625;" x1="59.375" x2="161.4583" y1="580.7027" y2="580.7027"/><text fill="#033C73" font-family="Verdana" font-size="12.5" lengthAdjust="spacingAndGlyphs" textLength="77.0833" x="71.875" y="570.7865">NumLockOff</text><rect fill="url(#gjyuzsys9us0v0)" height="52.0833" rx="13.0208" ry="13.0208" style="stroke: #BABDBF; stroke-width: 1.5625;" width="102.0833" x="58.3333" y="661.3444"/><line style="stroke: #BABDBF; stroke-width: 1.5625;" x1="58.3333" x2="160.4167" y1="691.1194" y2="691.1194"/><text fill="#033C73" font-family="Verdana" font-size="12.5" lengthAdjust="spacingAndGlyphs" textLength="77.0833" x="70.8333" y="681.2032">NumLockOn</text><!--MD5=[f1e44e9cdf7ed6fd162579f896fb76ea]
link *start*Active to NumLockOff--><path d="M40.861,576.9694 C45.1913,576.9694 49.5215,576.9694 53.8518,576.9694 " fill="none" id="*start*Active-&gt;NumLockOff" style="stroke: #2FA4E7; stroke-width: 3.125;"/><polygon fill="#2FA4E7" points="59.3368,576.9694,49.9618,572.8027,54.1284,576.9694,49.9618,581.1361,59.3368,576.9694" style="stroke: #2FA4E7; stroke-width: 3.125;"/><!--MD5=[b6ef3c088f5474ecc81df30475e7d61b]
link NumLockOff to NumLockOn--><path d="M59.333,601.1344 C46.7603,608.1668 35.8578,615.6059 32.2917,621.7611 C22.5448,638.5844 35.6159,653.1225 53.6045,664.209 " fill="none" id="NumLockOff-&gt;NumLockOn" style="stroke: #2FA4E7; stroke-width: 3.125;"/><polygon fill="#2FA4E7" points="58.2729,666.9525,52.3016,658.6102,53.7826,664.3136,48.0792,665.7946,58.2729,666.9525" style="stroke: #2FA4E7; stroke-width: 3.125;"/><text fill="#343A40" font-family="Verdana" font-size="12.5" lengthAdjust="spacingAndGlyphs" textLength="127.0833" x="35.4167" y="637.4532">EvNumLockPressed</text><!--MD5=[3bfddee0d82dc74c927fbeb3d3f2e6a3]
link NumLockOn to NumLockOff--><path d="M151.5352,661.2153 C157.2322,655.7888 162.2643,649.5665 165.625,642.5944 C171.7857,629.8133 165.7094,617.4539 155.6529,606.9735 " fill="none" id="NumLockOn-&gt;NumLockOff" style="stroke: #2FA4E7; stroke-width: 3.125;"/><polygon fill="#2FA4E7" points="151.783,603.2,155.5863,612.7282,155.512,606.8362,161.4041,606.7619,151.783,603.2" style="stroke: #2FA4E7; stroke-width: 3.125;"/><text fill="#343A40" font-family="Verdana" font-size="12.5" lengthAdjust="spacingAndGlyphs" textLength="127.0833" x="171.875" y="637.4532">EvNumLockPressed</text><line style="stroke: #BABDBF; stroke-width: 1.5625; stroke-dasharray: 8.0,10.0;" x1="13.5417" x2="338.5417" y1="723.8444" y2="723.8444"/><ellipse cx="30.2083" cy="758.2194" fill="#033C73" rx="10.4167" ry="10.4167" style="stroke: none; stroke-width: 1.0416666666666667;"/><rect fill="url(#gjyuzsys9us0v0)" height="52.0833" rx="13.0208" ry="13.0208" style="stroke: #BABDBF; stroke-width: 1.5625;" width="106.25" x="59.375" y="732.1777"/><line style="stroke: #BABDBF; stroke-width: 1.5625;" x1="59.375" x2="165.625" y1="761.9527" y2="761.9527"/><text fill="#033C73" font-family="Verdana" font-size="12.5" lengthAdjust="spacingAndGlyphs" textLength="81.25" x="71.875" y="752.0365">CapsLockOff</text><rect fill="url(#gjyuzsys9us0v0)" height="52.0833" rx="13.0208" ry="13.0208" style="stroke: #BABDBF; stroke-width: 1.5625;" width="106.25" x="58.3333" y="842.5944"/><line style="stroke: #BABDBF; stroke-width: 1.5625;" x1="58.3333" x2="164.5833" y1="872.3694" y2="872.3694"/><text fill="#033C73" font-family="Verdana" font-size="12.5" lengthAdjust="spacingAndGlyphs" textLength="81.25" x="70.8333" y="862.4532">CapsLockOn</text><!--MD5=[ad44b9de6595643ec3df1279e2e825ac]
link *start*CONC82 to CapsLockOff--><path d="M40.8163,758.2194 C45.1477,758.2194 49.4792,758.2194 53.8106,758.2194 " fill="none" id="*start*CONC82-&gt;CapsLockOff" style="stroke: #2FA4E7; stroke-width: 3.125;"/><polygon fill="#2FA4E7" points="59.2972,758.2194,49.9222,754.0527,54.0889,758.2194,49.9222,762.3861,59.2972,758.2194" style="stroke: #2FA4E7; stroke-width: 3.125;"/><!--MD5=[dc4675bd3056f3ef68701d9e8e02a3f3]
link CapsLockOff to CapsLockOn--><path d="M59.2206,782.7196 C46.6732,789.6113 35.8843,796.89 32.2917,803.0111 C22.4617,819.7595 35.2802,834.1237 53.2744,845.1057 " fill="none" id="CapsLockOff-&gt;CapsLockOn" style="stroke: #2FA4E7; stroke-width: 3.125;"/><polygon fill="#2FA4E7" points="57.9501,847.8242,51.9398,839.5098,53.4475,845.2063,47.7511,846.714,57.9501,847.8242" style="stroke: #2FA4E7; stroke-width: 3.125;"/><text fill="#343A40" font-family="Verdana" font-size="12.5" lengthAdjust="spacingAndGlyphs" textLength="131.25" x="35.4167" y="818.7032">EvCapsLockPressed</text><!--MD5=[79e17b083e07746bd1a647600952cab6]
link CapsLockOn to CapsLockOff--><path d="M155.4396,842.4223 C161.2333,837.0304 166.3479,830.8305 169.7917,823.8444 C176.1642,810.9169 169.8532,798.5202 159.4186,788.0504 " fill="none" id="CapsLockOn-&gt;CapsLockOff" style="stroke: #2FA4E7; stroke-width: 3.125;"/><polygon fill="#2FA4E7" points="155.4036,784.283,159.3889,793.7366,159.2017,787.847,165.0913,787.6597,155.4036,784.283" style="stroke: #2FA4E7; stroke-width: 3.125;"/><text fill="#343A40" font-family="Verdana" font-size="12.5" lengthAdjust="spacingAndGlyphs" textLength="131.25" x="176.0417" y="818.7032">EvCapsLockPressed</text><line style="stroke: #BABDBF; stroke-width: 1.5625; stroke-dasharray: 8.0,10.0;" x1="13.5417" x2="338.5417" y1="905.0944" y2="905.0944"/><ellipse cx="30.2083" cy="939.4694" fill="#033C73" rx="10.4167" ry="10.4167" style="stroke: none; stroke-width: 1.0416666666666667;"/><rect fill="url(#gjyuzsys9us0v0)" height="52.0833" rx="13.0208" ry="13.0208" style="stroke: #BABDBF; stroke-width: 1.5625;" width="107.2917" x="59.8958" y="913.4277"/><line style="stroke: #BABDBF; stroke-width: 1.5625;" x1="59.8958" x2="167.1875" y1="943.2027" y2="943.2027"/><text fill="#033C73" font-family="Verdana" font-size="12.5" lengthAdjust="spacingAndGlyphs" textLength="82.2917" x="72.3958" y="933.2865">ScrollLockOff</text><rect fill="url(#gjyuzsys9us0v0)" height="52.0833" rx="13.0208" ry="13.0208" style="stroke: #BABDBF; stroke-width: 1.5625;" width="107.2917" x="59.8958" y="1023.8444"/><line style="stroke: #BABDBF; stroke-width: 1.5625;" x1="59.8958" x2="167.1875" y1="1053.6194" y2="1053.6194"/><text fill="#033C73" font-family="Verdana" font-size="12.5" lengthAdjust="spacingAndGlyphs" textLength="82.2917" x="72.3958" y="1043.7032">ScrollLockOn</text><!--MD5=[9a8b2c0f7fde6bd227d6334344b3ad45]
link *start*CONC90 to ScrollLockOff--><path d="M40.625,939.4694 C45.1971,939.4694 49.7693,939.4694 54.3414,939.4694 " fill="none" id="*start*CONC90-&gt;ScrollLockOff" style="stroke: #2FA4E7; stroke-width: 3.125;"/><polygon fill="#2FA4E7" points="59.7086,939.4694,50.3336,935.3027,54.5003,939.4694,50.3336,943.6361,59.7086,939.4694" style="stroke: #2FA4E7; stroke-width: 3.125;"/><!--MD5=[da4e1e55b4a6de250eca2c82023085fa]
link ScrollLockOff to ScrollLockOn--><path d="M59.7263,959.6369 C49.6069,965.9492 40.3415,974.03 34.375,984.2611 C24.6747,1000.8947 37.2017,1015.1615 54.948,1026.103 " fill="none" id="ScrollLockOff-&gt;ScrollLockOn" style="stroke: #2FA4E7; stroke-width: 3.125;"/><polygon fill="#2FA4E7" points="59.5619,1028.8125,53.5879,1020.4721,55.0708,1026.175,49.3678,1027.6579,59.5619,1028.8125" style="stroke: #2FA4E7; stroke-width: 3.125;"/><text fill="#343A40" font-family="Verdana" font-size="12.5" lengthAdjust="spacingAndGlyphs" textLength="131.25" x="37.5" y="999.9532">EvCapsLockPressed</text><!--MD5=[6ad2c621f2407b82317910f4deb17639]
link ScrollLockOn to ScrollLockOff--><path d="M157.5121,1023.6248 C170.2459,1012.4964 179.0192,998.7542 171.875,984.2611 C169.2384,978.9123 165.6224,974.0244 161.472,969.6072 " fill="none" id="ScrollLockOn-&gt;ScrollLockOff" style="stroke: #2FA4E7; stroke-width: 3.125;"/><polygon fill="#2FA4E7" points="157.5229,965.6832,161.2361,975.2468,161.2174,969.3543,167.11,969.3356,157.5229,965.6832" style="stroke: #2FA4E7; stroke-width: 3.125;"/><text fill="#343A40" font-family="Verdana" font-size="12.5" lengthAdjust="spacingAndGlyphs" textLength="131.25" x="177.0833" y="999.9532">EvCapsLockPressed</text><!--MD5=[242ad121cef04112e9b0ee8f25f52375]
link *start to fork_state--><path d="M177.0833,74.5792 C177.0833,89.6371 177.0833,116.8276 177.0833,131.289 " fill="none" id="*start-&gt;fork_state" style="stroke: #2FA4E7; stroke-width: 3.125;"/><polygon fill="#2FA4E7" points="177.0833,136.6349,181.25,127.2599,177.0833,131.4266,172.9167,127.2599,177.0833,136.6349" style="stroke: #2FA4E7; stroke-width: 3.125;"/><!--MD5=[44dd36eb382d4fffd186e8c447a61da0]
link fork_state to State2--><path d="M174.5713,145.416 C168.8283,155.6384 154.3209,181.4615 142.475,202.5472 " fill="none" id="fork_state-&gt;State2" style="stroke: #2FA4E7; stroke-width: 3.125;"/><polygon fill="#2FA4E7" points="139.8379,207.2413,148.0625,201.1087,142.389,202.7005,140.7972,197.027,139.8379,207.2413" style="stroke: #2FA4E7; stroke-width: 3.125;"/><!--MD5=[43d4d70f9cd19f132a5eb1ce9d85c890]
link fork_state to State3--><path d="M179.6456,145.416 C185.5034,155.6384 200.3009,181.4615 212.3839,202.5472 " fill="none" id="fork_state-&gt;State3" style="stroke: #2FA4E7; stroke-width: 3.125;"/><polygon fill="#2FA4E7" points="215.0736,207.2413,214.0275,197.0355,212.484,202.7224,206.7972,201.1789,215.0736,207.2413" style="stroke: #2FA4E7; stroke-width: 3.125;"/><!--MD5=[8cf5ef3a64654818495211b4c165bd62]
link State2 to join_state--><path d="M139.7857,259.9713 C150.6181,279.253 164.6681,304.262 172.0476,317.3975 " fill="none" id="State2-&gt;join_state" style="stroke: #2FA4E7; stroke-width: 3.125;"/><polygon fill="#2FA4E7" points="174.6106,321.9597,173.6514,311.7454,172.0596,317.4189,166.3861,315.8271,174.6106,321.9597" style="stroke: #2FA4E7; stroke-width: 3.125;"/><!--MD5=[183fde86cac17ac230b97143534e47db]
link State3 to join_state--><path d="M215.127,259.9713 C204.0778,279.253 189.7469,304.262 182.2197,317.3975 " fill="none" id="State3-&gt;join_state" style="stroke: #2FA4E7; stroke-width: 3.125;"/><polygon fill="#2FA4E7" points="179.6055,321.9597,187.8818,315.8971,182.195,317.4407,180.6514,311.754,179.6055,321.9597" style="stroke: #2FA4E7; stroke-width: 3.125;"/><!--MD5=[1e473d623208eebf6d5ebd6e9bc5a11d]
link join_state to State4--><path d="M177.0833,330.8326 C177.0833,340.9691 177.0833,366.4453 177.0833,387.4314 " fill="none" id="join_state-&gt;State4" style="stroke: #2FA4E7; stroke-width: 3.125;"/><polygon fill="#2FA4E7" points="177.0833,392.658,181.25,383.283,177.0833,387.4496,172.9167,383.283,177.0833,392.658" style="stroke: #2FA4E7; stroke-width: 3.125;"/><!--MD5=[0a70b1a7cf318979336334b4227eefe4]
link State4 to Active--><path d="M177.0833,445.2385 C177.0833,459.7642 177.0833,479.4949 177.0833,502.2585 " fill="none" id="State4-&gt;Active" style="stroke: #2FA4E7; stroke-width: 3.125;"/><polygon fill="#2FA4E7" points="177.0833,507.4744,181.25,498.0994,177.0833,502.2661,172.9167,498.0994,177.0833,507.4744" style="stroke: #2FA4E7; stroke-width: 3.125;"/><!--MD5=[1f50c9f5f1b4d8a718c5a60f1ce463b2]
@startuml



skinparam backgroundColor white






skinparam defaultFontName       "Verdana"
skinparam defaultFontSize       12
skinparam dpi                   100
skinparam shadowing             false
skinparam roundcorner           8
skinparam ParticipantPadding    10
skinparam BoxPadding            2
skinparam Padding               2
skinparam TitleFontColor	    #343A40
skinparam TitleFontSize	    	20
skinparam TitleBorderThickness 	0
skinparam ArrowColor            #868E96

skinparam legend {
	BackgroundColor #E9ECEF
	BorderColor #BABDBF
	FontColor #343A40
}

skinparam activity {
	TitleFontSize 20
	TitleFontColor #343A40
	FontColor #FFF
	BorderColor #2FA4E7
	BackgroundColor #59B6EC-#2FA4E7
	BarColor #73A839
	StartColor #033C73
	EndColor #033C73
	DiamondBackgroundColor #FFF-#EDF0F2
  	DiamondBorderColor #BABDBF
	DiamondFontColor #343A40
}

skinparam sequence {
	BorderColor #2FA4E7
	TitleFontSize 20
	TitleFontColor #343A40
	BackgroundColor white
	StartColor #2FA4E7
	EndColor #2FA4E7
    ParticipantBackgroundColor #59B6EC-#2FA4E7
    ParticipantBorderColor #2FA4E7
	ParticipantBorderThickness 0
	ParticipantFontColor #FFF
	ActorBackgroundColor white
    ActorBorderColor #2FA4E7
	ActorFontColor #2FA4E7
	ArrowThickness 3
	ArrowColor #2FA4E7
	ArrowFontColor #343A40
	BoxBackgroundColor #F8F9FA
	BoxBorderColor #868E96
	BoxFontColor #343A40
	LifeLineBorderColor #BABDBF
	LifeLineBorderThickness 2
	LifeLineBackgroundColor #EDF0F2
	GroupBorderColor #868E96
	GroupFontColor #343A40
	GroupHeaderFontColor #033C73
	DividerBackgroundColor #FFF-#F8F9FA
    DividerBorderColor #868E96
    DividerBorderThickness 2
    DividerFontColor #343A40
	ReferenceBackgroundColor white
	ReferenceBorderColor #868E96
	ReferenceFontColor #343A40
	ReferenceHeaderFontColor #033C73
}

skinparam partition {
	BorderColor #2FA4E7
	FontColor #2FA4E7
	BackgroundColor white
}

skinparam collections {
	BackgroundColor #59B6EC-#2FA4E7
	BorderColor #2FA4E7
}

skinparam control {
	BackgroundColor  #59B6EC-#2FA4E7
	BorderColor #2683B9
	FontColor #343A40
}

skinparam entity {
	BackgroundColor  #59B6EC-#2FA4E7
	BorderColor #2683B9
	FontColor #343A40
}

skinparam boundary {
	BackgroundColor  #59B6EC-#2FA4E7
	BorderColor #2683B9
	FontColor #343A40
}

skinparam agent {
	BackgroundColor #orange
	BorderColor #999999
	FontColor #333333
}

skinparam note {
	BorderThickness 1
	BackgroundColor #35638F-#033C73
	BorderColor #033C73
	FontColor #FFF
}

skinparam artifact {
	BackgroundColor #FFF-#F8F9FA
	BorderColor #868E96
	FontColor #868E96
}

skinparam component {
	BackgroundColor  #8FB961-#73A839
	BorderColor  #73A839
	FontColor #FFF
}

skinparam interface {
	BackgroundColor  #D2494E
	BorderColor  #C71C22
	FontColor #343A40
}

skinparam storage {
	BackgroundColor #E47833-#DD5600
  	BorderColor #DD5600
	FontColor #FFF
}

skinparam node {
	BackgroundColor #EDF0F2-#E9ECEF
	BorderColor #343A40
	FontColor #343A40
}

skinparam cloud {
	BackgroundColor white-lightskyblue
	BorderColor white
	FontColor #343A40
}

skinparam database {
	BackgroundColor  #59B6EC-#2FA4E7
	BorderColor #2683B9
	FontColor #343A40
}

skinparam actor {
	FontColor #343A40
}

skinparam class {
	HeaderBackgroundColor #2FA4E7-#2683B9
	FontColor #FFF
	BackgroundColor #59B6EC-#2FA4E7
	BorderColor #2683B9
	StereotypeFontColor #343A40
	BorderThickness 1
	AttributeFontColor #343A40
	AttributeFontSize 11
}

skinparam object {
	FontColor #73A839
	BackgroundColor #E9ECEF-#BABDBF
	BorderColor #BABDBF
	StereotypeFontColor #343A40
	BorderThickness 1
	AttributeFontColor #343A40
	AttributeFontSize 11
}

skinparam usecase {
	BackgroundColor #EDF0F2-#E9ECEF
	BorderColor #E9ECEF
	BorderThickness 2
	FontColor #343A40
	StereotypeFontColor #2FA4E7
}

skinparam rectangle {
	BackgroundColor #E9ECEF-#BABDBF
	BorderColor #2683B9
	BorderThickness 2
	FontColor #2FA4E7
	StereotypeFontColor #2FA4E7
}

skinparam package {
	BackgroundColor #EDF0F2-#E9ECEF
  	BorderColor #2FA4E7
	FontColor #2FA4E7
	BorderThickness 2
}

skinparam folder {
	BackgroundColor #FFF-#EDF0F2
  	BorderColor #DD5600
	FontColor #DD5600
	BorderThickness 2
}

skinparam frame {
	BackgroundColor #FFF-#EDF0F2
  	BorderColor #033C73
	FontColor #033C73
	BorderThickness 2
}

skinparam state {
	StartColor #033C73
	EndColor #033C73
	BackgroundColor #E9ECEF-#BABDBF
	BorderColor #BABDBF
	FontColor #033C73
	AttributeFontColor #343A40
	AttributeFontSize 11
}

skinparam queue {
	BackgroundColor #DD5600-#B14500
  	BorderColor #B14500
	FontColor #FFF
}

skinparam card {
	BackgroundColor #35638F-#033C73
	BorderColor #033C73
	FontColor #FFF
}

skinparam file {
	BackgroundColor #EDF0F2-#E9ECEF
	BorderColor #868E96
	FontColor #868E96

}

skinparam stack {
	BackgroundColor #59B6EC-#2683B9
	BorderColor #2FA4E7
	FontColor #FFF
}


title State Diagram - cerulean theme


state fork_state <<fork>>
[*] - -> fork_state
fork_state - -> State2
fork_state - -> State3

state join_state <<join>>
State2 - -> join_state
State3 - -> join_state
join_state - -> State4
State4 - -> Active

state Active {
  [*] -> NumLockOff
  NumLockOff - -> NumLockOn : EvNumLockPressed
  NumLockOn - -> NumLockOff : EvNumLockPressed
  - -
  [*] -> CapsLockOff
  CapsLockOff - -> CapsLockOn : EvCapsLockPressed
  CapsLockOn - -> CapsLockOff : EvCapsLockPressed
  - -
  [*] -> ScrollLockOff
  ScrollLockOff - -> ScrollLockOn : EvCapsLockPressed
  ScrollLockOn - -> ScrollLockOff : EvCapsLockPressed
}

@enduml

PlantUML version 1.2019.11(Sun Sep 22 03:02:15 PDT 2019)
(GPL source distribution)
Java Runtime: OpenJDK Runtime Environment
JVM: OpenJDK 64-Bit Server VM
Java Version: 11.0.4+11-post-Ubuntu-1ubuntu218.04.3
Operating System: Linux
Default Encoding: UTF-8
Language: en
Country: US
--></g></svg>