<?xml version="1.0" encoding="UTF-8" standalone="no"?><svg xmlns="http://www.w3.org/2000/svg" xmlns:xlink="http://www.w3.org/1999/xlink" contentScriptType="application/ecmascript" contentStyleType="text/css" height="575px" preserveAspectRatio="none" style="width:851px;height:575px;background:#000000;" version="1.1" viewBox="0 0 851 575" width="851.0417px" zoomAndPan="magnify"><defs><linearGradient id="g7hx1jyb07xyp0" x1="50%" x2="50%" y1="0%" y2="100%"><stop offset="0%" stop-color="#6D6D6D"/><stop offset="100%" stop-color="#484848"/></linearGradient><linearGradient id="g7hx1jyb07xyp1" x1="50%" x2="50%" y1="0%" y2="100%"><stop offset="0%" stop-color="#484848"/><stop offset="100%" stop-color="#000000"/></linearGradient><linearGradient id="g7hx1jyb07xyp2" x1="50%" x2="50%" y1="0%" y2="100%"><stop offset="0%" stop-color="#595959"/><stop offset="100%" stop-color="#262626"/></linearGradient></defs><g><rect fill="url(#g7hx1jyb07xyp0)" height="46.1528" rx="4.1667" ry="4.1667" style="stroke: #3A3A3A; stroke-width: 1.0416666666666667;" width="470.8333" x="193.2292" y="2.0833"/><text fill="#FEFEFE" font-family="Verdana" font-size="20.8333" lengthAdjust="spacingAndGlyphs" textLength="443.75" x="206.7708" y="33.4452">Component Diagram - black-knight theme</text><!--MD5=[98956307d0c47524864de5bf9cdc747b]
cluster My Package--><path d="M18.75,68.5486 L109.375,68.5486 A6.25,6.25 0 0 1 113.5417,72.7153 L120.8333,100.4069 L422.9167,100.4069 A4.1667,4.1667 0 0 1 427.0833,104.5736 L427.0833,156.0486 A4.1667,4.1667 0 0 1 422.9167,160.2153 L18.75,160.2153 A4.1667,4.1667 0 0 1 14.5833,156.0486 L14.5833,72.7153 A4.1667,4.1667 0 0 1 18.75,68.5486 " fill="#000000" style="stroke: #262626; stroke-width: 1.5625;"/><line style="stroke: #262626; stroke-width: 1.5625;" x1="14.5833" x2="120.8333" y1="100.4069" y2="100.4069"/><text fill="#FFF200" font-family="Verdana" font-size="12.5" font-weight="bold" lengthAdjust="spacingAndGlyphs" textLength="82.2917" x="23.9583" y="88.4074">My Package</text><!--MD5=[994b84a7865cf3a30290d65f6358d5f5]
cluster My Node--><polygon fill="#000000" points="42.7083,199.7986,53.125,189.3819,275,189.3819,275,275.8403,264.5833,286.2569,42.7083,286.2569,42.7083,199.7986" style="stroke: #595959; stroke-width: 1.5625;"/><line style="stroke: #595959; stroke-width: 1.5625;" x1="264.5833" x2="273.9583" y1="199.7986" y2="190.4236"/><line style="stroke: #595959; stroke-width: 1.5625;" x1="42.7083" x2="264.5833" y1="199.7986" y2="199.7986"/><line style="stroke: #595959; stroke-width: 1.5625;" x1="264.5833" x2="264.5833" y1="199.7986" y2="286.2569"/><text fill="#FFF200" font-family="Verdana" font-size="12.5" font-weight="bold" lengthAdjust="spacingAndGlyphs" textLength="59.375" x="125" y="220.6991">My Node</text><!--MD5=[8f762177cf9f076b8ea6eac76c5df33e]
cluster My Cloud--><path d="M302.3057,204.121 C304.8274,197.1971 311.717,194.4813 316.659,201.6573 C319.4766,196.1286 324.7515,195.2804 329.0231,199.8828 C331.822,194.6653 336.6476,192.895 340.7558,198.4579 C342.5759,192.75 347.9169,190.9064 352.4198,195.3865 C356.7443,189.9352 362.439,190.3786 365.211,197.0277 C370.2174,192.3737 375.2718,192.689 377.8139,199.6919 C381.7596,195.2285 387.454,194.3472 389.9998,201.1995 C396.2172,195.3479 400.7331,197.8665 403.3468,204.9252 C410.0089,207.3221 410.7572,212.7614 405.5978,217.3075 C411.4887,219.3764 413.6417,224.0381 408.7308,229.001 C415.9635,232.2123 417.1817,236.2198 411.0215,241.8237 C415.8943,247.325 414.4665,251.8396 407.5473,253.9673 C413.1651,258.5849 413.0809,264.6687 405.4131,267.1326 C411.2561,271.8483 410.4101,275.7953 403.9909,279.0473 C400.0778,285.1036 394.816,287.5236 389.891,280.1062 C387.4927,287.4531 383.0855,287.0479 378.0141,282.8581 C374.5362,288.9895 368.5153,289.3042 365.149,282.7449 C362.2493,290.3228 358.362,291.179 352.5201,285.5607 C348.3198,291.499 343.9833,290.1245 340.9049,284.4396 C335.3151,290.1849 330.8774,287.9533 328.4977,281.2421 C324.6283,286.2709 319.8868,287.4287 316.3008,280.942 C311.3155,285.3048 305.9954,286.0499 303.5096,278.3021 C296.8862,276.4532 296.5879,272.2572 300.7232,267.6057 C294.888,264.059 292.8937,258.3145 299.828,253.9318 C293.121,250.9578 293.69,245.8451 298.3456,241.5146 C292.3215,237.5909 293.7464,231.936 299.0974,228.6785 C293.6737,223.4758 294.9302,219.1134 302.0674,217.1455 C296.1347,212.7758 295.478,208.2572 302.3057,204.121 " fill="url(#g7hx1jyb07xyp1)" style="stroke: #484848; stroke-width: 1.5625;"/><text fill="#FFF200" font-family="Verdana" font-size="12.5" font-weight="bold" lengthAdjust="spacingAndGlyphs" textLength="62.5" x="320.8333" y="225.9074">My Cloud</text><!--MD5=[5435dd1da01795d79a1d1bdb7811705f]
cluster My Database--><path d="M292.7083,311.7778 C292.7083,301.3611 352.0833,301.3611 352.0833,301.3611 C352.0833,301.3611 411.4583,301.3611 411.4583,311.7778 L411.4583,552.4028 C411.4583,562.8194 352.0833,562.8194 352.0833,562.8194 C352.0833,562.8194 292.7083,562.8194 292.7083,552.4028 L292.7083,311.7778 " fill="#000000" style="stroke: #262626; stroke-width: 1.5625;"/><path d="M292.7083,311.7778 C292.7083,322.1944 352.0833,322.1944 352.0833,322.1944 C352.0833,322.1944 411.4583,322.1944 411.4583,311.7778 " fill="none" style="stroke: #262626; stroke-width: 1.5625;"/><text fill="#FFF200" font-family="Verdana" font-size="12.5" font-weight="bold" lengthAdjust="spacingAndGlyphs" textLength="88.5417" x="307.8125" y="342.0532">My Database</text><!--MD5=[db3eb734e65e00defc1adec42c70b029]
cluster My folder--><path d="M305.2083,353.4444 L378.125,353.4444 A6.25,6.25 0 0 1 382.2917,357.6111 L389.5833,385.3027 L398.9583,385.3027 A4.1667,4.1667 0 0 1 403.125,389.4694 L403.125,440.9444 A4.1667,4.1667 0 0 1 398.9583,445.1111 L305.2083,445.1111 A4.1667,4.1667 0 0 1 301.0417,440.9444 L301.0417,357.6111 A4.1667,4.1667 0 0 1 305.2083,353.4444 " fill="#6D6D6D" style="stroke: #FF8000; stroke-width: 1.5625;"/><line style="stroke: #FF8000; stroke-width: 1.5625;" x1="301.0417" x2="389.5833" y1="385.3027" y2="385.3027"/><text fill="#FF8000" font-family="Verdana" font-size="12.5" font-weight="bold" lengthAdjust="spacingAndGlyphs" textLength="64.5833" x="310.4167" y="373.3032">My folder</text><!--MD5=[2f95c9c104e26437854e71862f3d840e]
cluster My Frame--><rect fill="#6D6D6D" height="91.6667" rx="4.1667" ry="4.1667" style="stroke: #0060A8; stroke-width: 1.5625;" width="102.0833" x="301.0417" y="462.8194"/><path d="M389.5833,463.8611 L389.5833,481.1361 L379.1667,491.5527 L301.0417,491.5527 " fill="none" style="stroke: #0060A8; stroke-width: 1.5625;"/><text fill="#0060A8" font-family="Verdana" font-size="12.5" font-weight="bold" lengthAdjust="spacingAndGlyphs" textLength="67.7083" x="309.375" y="481.6366">My Frame</text><!--MD5=[96f7e1299d4a43069e6ed32352fcac20]
entity HTTP--><ellipse cx="208.3333" cy="128.4444" fill="#CC0000" rx="8.3333" ry="8.3333" style="stroke: #FF0000; stroke-width: 2.0833333333333335;"/><text fill="#484848" font-family="Verdana" font-size="12.5" lengthAdjust="spacingAndGlyphs" textLength="32.2917" x="192.1875" y="163.9282">HTTP</text><!--MD5=[cbd7cda55f2530e2efe43ec72c097853]
entity First Component--><rect fill="url(#g7hx1jyb07xyp2)" height="46.4417" rx="4.1667" ry="4.1667" style="stroke: #262626; stroke-width: 1.5625;" width="139.5833" x="22.9167" y="105.0069"/><rect fill="url(#g7hx1jyb07xyp2)" height="5.2083" style="stroke: #262626; stroke-width: 1.5625;" width="10.4167" x="17.7083" y="110.2153"/><rect fill="url(#g7hx1jyb07xyp2)" height="5.2083" style="stroke: #262626; stroke-width: 1.5625;" width="10.4167" x="17.7083" y="141.0319"/><text fill="#FFF200" font-family="Verdana" font-size="12.5" lengthAdjust="spacingAndGlyphs" textLength="108.3333" x="38.5417" y="133.1991">First Component</text><!--MD5=[b9d11f23832c1491231c5b33e55ab8c6]
entity Another Component--><rect fill="url(#g7hx1jyb07xyp2)" height="46.4417" rx="4.1667" ry="4.1667" style="stroke: #262626; stroke-width: 1.5625;" width="163.5417" x="254.6875" y="105.0069"/><rect fill="url(#g7hx1jyb07xyp2)" height="5.2083" style="stroke: #262626; stroke-width: 1.5625;" width="10.4167" x="249.4792" y="110.2153"/><rect fill="url(#g7hx1jyb07xyp2)" height="5.2083" style="stroke: #262626; stroke-width: 1.5625;" width="10.4167" x="249.4792" y="141.0319"/><text fill="#FFF200" font-family="Verdana" font-size="12.5" lengthAdjust="spacingAndGlyphs" textLength="132.2917" x="270.3125" y="133.1991">Another Component</text><!--MD5=[76af18d92d7d7c0f7ebd8f4f605ac5aa]
entity FTP--><ellipse cx="60.4167" cy="254.4861" fill="#CC0000" rx="8.3333" ry="8.3333" style="stroke: #FF0000; stroke-width: 2.0833333333333335;"/><text fill="#484848" font-family="Verdana" font-size="12.5" lengthAdjust="spacingAndGlyphs" textLength="22.9167" x="48.9583" y="289.9699">FTP</text><!--MD5=[0e2cc1aee2c7f52697e111b4fb84546c]
entity Second Component--><rect fill="url(#g7hx1jyb07xyp2)" height="46.4417" rx="4.1667" ry="4.1667" style="stroke: #262626; stroke-width: 1.5625;" width="159.375" x="106.7708" y="231.0486"/><rect fill="url(#g7hx1jyb07xyp2)" height="5.2083" style="stroke: #262626; stroke-width: 1.5625;" width="10.4167" x="101.5625" y="236.2569"/><rect fill="url(#g7hx1jyb07xyp2)" height="5.2083" style="stroke: #262626; stroke-width: 1.5625;" width="10.4167" x="101.5625" y="267.0736"/><text fill="#FFF200" font-family="Verdana" font-size="12.5" lengthAdjust="spacingAndGlyphs" textLength="128.125" x="122.3958" y="259.2407">Second Component</text><!--MD5=[243c1e580c31013c48b02624e18b25a7]
entity Example 1--><rect fill="url(#g7hx1jyb07xyp2)" height="46.4417" rx="4.1667" ry="4.1667" style="stroke: #262626; stroke-width: 1.5625;" width="98.9583" x="302.6042" y="231.0486"/><rect fill="url(#g7hx1jyb07xyp2)" height="5.2083" style="stroke: #262626; stroke-width: 1.5625;" width="10.4167" x="297.3958" y="236.2569"/><rect fill="url(#g7hx1jyb07xyp2)" height="5.2083" style="stroke: #262626; stroke-width: 1.5625;" width="10.4167" x="297.3958" y="267.0736"/><text fill="#FFF200" font-family="Verdana" font-size="12.5" lengthAdjust="spacingAndGlyphs" textLength="67.7083" x="318.2292" y="259.2407">Example 1</text><!--MD5=[3e0e08c92570480402984701ab5a6d2d]
entity Folder 3--><rect fill="url(#g7hx1jyb07xyp2)" height="46.4417" rx="4.1667" ry="4.1667" style="stroke: #262626; stroke-width: 1.5625;" width="84.375" x="309.8958" y="389.9028"/><rect fill="url(#g7hx1jyb07xyp2)" height="5.2083" style="stroke: #262626; stroke-width: 1.5625;" width="10.4167" x="304.6875" y="395.1111"/><rect fill="url(#g7hx1jyb07xyp2)" height="5.2083" style="stroke: #262626; stroke-width: 1.5625;" width="10.4167" x="304.6875" y="425.9277"/><text fill="#FFF200" font-family="Verdana" font-size="12.5" lengthAdjust="spacingAndGlyphs" textLength="53.125" x="325.5208" y="418.0949">Folder 3</text><!--MD5=[63877ed85df621d134a6c80fb52dad56]
entity Frame 4--><rect fill="url(#g7hx1jyb07xyp2)" height="46.4417" rx="4.1667" ry="4.1667" style="stroke: #262626; stroke-width: 1.5625;" width="84.375" x="309.8958" y="499.2778"/><rect fill="url(#g7hx1jyb07xyp2)" height="5.2083" style="stroke: #262626; stroke-width: 1.5625;" width="10.4167" x="304.6875" y="504.4861"/><rect fill="url(#g7hx1jyb07xyp2)" height="5.2083" style="stroke: #262626; stroke-width: 1.5625;" width="10.4167" x="304.6875" y="535.3027"/><text fill="#FFF200" font-family="Verdana" font-size="12.5" lengthAdjust="spacingAndGlyphs" textLength="53.125" x="325.5208" y="527.4699">Frame 4</text><!--MD5=[4d6c9a8b502f46c0f85d26a51e5d57ce]
entity My Artifact--><rect fill="#484848" height="49.5667" rx="4.1667" ry="4.1667" style="stroke: #FFFFFF; stroke-width: 1.5625;" width="109.375" x="454.6875" y="103.4444"/><polygon fill="#484848" points="546.3542,108.6528,546.3542,123.2361,558.8542,123.2361,558.8542,114.9028,552.6042,108.6528,546.3542,108.6528" style="stroke: #FFFFFF; stroke-width: 1.5625;"/><line style="stroke: #FFFFFF; stroke-width: 1.5625;" x1="552.6042" x2="552.6042" y1="108.6528" y2="114.9028"/><line style="stroke: #FFFFFF; stroke-width: 1.5625;" x1="558.8542" x2="552.6042" y1="114.9028" y2="114.9028"/><text fill="#FFF200" font-family="Verdana" font-size="12.5" lengthAdjust="spacingAndGlyphs" textLength="67.7083" x="470.3125" y="134.7616">My Artifact</text><!--MD5=[6013850653c05993d855a7b82b2ebd6f]
entity My Storage--><rect fill="#FF8000" height="46.4417" rx="36.4583" ry="36.4583" style="stroke: #CC6600; stroke-width: 1.5625;" width="105.2083" x="600.5208" y="105.0069"/><text fill="#222222" font-family="Verdana" font-size="12.5" lengthAdjust="spacingAndGlyphs" textLength="73.9583" x="616.1458" y="133.1991">My Storage</text><!--MD5=[decf897d207c1b699121f5d4005ef96e]
entity My Queue--><path d="M747.3958,110.2153 L833.8542,110.2153 C839.0625,110.2153 839.0625,128.2277 839.0625,128.2277 C839.0625,128.2277 839.0625,146.2402 833.8542,146.2402 L747.3958,146.2402 C742.1875,146.2402 742.1875,128.2277 742.1875,128.2277 C742.1875,128.2277 742.1875,110.2153 747.3958,110.2153 " fill="url(#g7hx1jyb07xyp2)" style="stroke: #262626; stroke-width: 1.5625;"/><path d="M833.8542,110.2153 C828.6458,110.2153 828.6458,128.2277 828.6458,128.2277 C828.6458,146.2402 833.8542,146.2402 833.8542,146.2402 " fill="none" style="stroke: #262626; stroke-width: 1.5625;"/><text fill="#FFF200" font-family="Verdana" font-size="12.5" lengthAdjust="spacingAndGlyphs" textLength="65.625" x="752.6042" y="133.1991">My Queue</text><!--MD5=[db0b4290d55c456da6f1e605315daa68]
entity My Interface--><ellipse cx="509.375" cy="254.4861" fill="#CC0000" rx="8.3333" ry="8.3333" style="stroke: #FF0000; stroke-width: 2.0833333333333335;"/><text fill="#484848" font-family="Verdana" font-size="12.5" lengthAdjust="spacingAndGlyphs" textLength="81.25" x="468.75" y="289.9699">My Interface</text><!--MD5=[c42dbb279bb2c76edeffd08640135261]
entity My Card--><rect fill="#0060A8" height="31.8583" rx="4.1667" ry="4.1667" style="stroke: #004D86; stroke-width: 1.5625;" width="84.375" x="600.5208" y="238.3403"/><text fill="#FFFFFF" font-family="Verdana" font-size="12.5" lengthAdjust="spacingAndGlyphs" textLength="53.125" x="616.1458" y="259.2407">My Card</text><!--MD5=[4552e0ab931d4db86ba1ccdf7169c968]
entity My File--><path d="M721.875,235.2153 L721.875,273.3236 A4.1667,4.1667 0 0 0 726.0417,277.4902 L792.7083,277.4902 A4.1667,4.1667 0 0 0 796.875,273.3236 L796.875,241.4653 L786.4583,231.0486 L726.0417,231.0486 A4.1667,4.1667 0 0 0 721.875,235.2153 " fill="url(#g7hx1jyb07xyp0)" style="stroke: #0060A8; stroke-width: 1.5625;"/><path d="M786.4583,231.0486 L786.4583,237.2986 A4.1667,4.1667 0 0 0 790.625,241.4653 L796.875,241.4653 " fill="url(#g7hx1jyb07xyp0)" style="stroke: #0060A8; stroke-width: 1.5625;"/><text fill="#FEFEFE" font-family="Verdana" font-size="12.5" lengthAdjust="spacingAndGlyphs" textLength="43.75" x="737.5" y="259.2407">My File</text><!--MD5=[5a51615613d2b2569e36ac803df4b251]
entity My Stack--><rect fill="url(#g7hx1jyb07xyp2)" height="46.4417" rx="4.1667" ry="4.1667" style="stroke: none; stroke-width: 1.5625;" width="88.5417" x="465.1042" y="389.9028"/><path d="M449.4792,389.9028 L460.9375,389.9028 A4.1667,4.1667 0 0 1 465.1042,394.0694 L465.1042,432.1777 A4.1667,4.1667 0 0 0 469.2708,436.3444 L549.4792,436.3444 A4.1667,4.1667 0 0 0 553.6458,432.1777 L553.6458,394.0694 A4.1667,4.1667 0 0 1 557.8125,389.9028 L569.2708,389.9028 " fill="none" style="stroke: #262626; stroke-width: 1.5625;"/><text fill="#FFF200" font-family="Verdana" font-size="12.5" lengthAdjust="spacingAndGlyphs" textLength="57.2917" x="480.7292" y="418.0949">My Stack</text><!--MD5=[46d996859f59e5baf77956ce93023cee]
link HTTP to First Component--><path d="M198.7108,128.4444 C186.7125,128.4444 174.7141,128.4444 162.7156,128.4444 " fill="none" id="HTTP-First Component" style="stroke: #303030; stroke-width: 3.125;"/><!--MD5=[1966a42bb49d59057147dbda06282f4b]
link FTP to Second Component--><path d="M70.2636,254.4861 C82.3673,254.4861 94.4709,254.4861 106.5745,254.4861 " fill="none" id="FTP-Second Component" style="stroke: #303030; stroke-width: 3.125;"/><!--MD5=[d3aefbd8005e27b21e7ce98ddd948193]
link First Component to FTP--><path d="M86.6345,152.1519 C80.0323,177.9219 69.689,218.2941 64.1746,239.818 " fill="none" id="First Component-&gt;FTP" style="stroke: #303030; stroke-width: 3.125;"/><polygon fill="#303030" points="62.882,244.8636,69.2451,236.8161,64.1747,239.8182,61.1726,234.7478,62.882,244.8636" style="stroke: #303030; stroke-width: 3.125;"/><!--MD5=[efc1ffe8b578a0fb156c7bce303319bb]
link Another Component to Example 1--><path d="M339.3973,152.1519 C341.9834,173.0137 345.7559,203.445 348.5147,225.6994 " fill="none" id="Another Component-&gt;Example 1" style="stroke: #303030; stroke-width: 3.125;"/><polygon fill="#303030" points="349.1576,230.8849,352.139,221.0685,348.5167,225.7162,343.869,222.0939,349.1576,230.8849" style="stroke: #303030; stroke-width: 3.125;"/><!--MD5=[7ec8393a78a133520e8846dd05a7857a]
link Example 1 to Folder 3--><path d="M352.0833,277.9256 C352.0833,306.1997 352.0833,353.7328 352.0833,384.3024 " fill="none" id="Example 1-&gt;Folder 3" style="stroke: #303030; stroke-width: 3.125;"/><polygon fill="#303030" points="352.0833,389.8046,356.25,380.4296,352.0833,384.5963,347.9167,380.4296,352.0833,389.8046" style="stroke: #303030; stroke-width: 3.125;"/><!--MD5=[b96c7096199393c1414a8b4e9ed2c30f]
link Folder 3 to Frame 4--><path d="M352.0833,436.8039 C352.0833,453.4143 352.0833,475.8041 352.0833,493.5621 " fill="none" id="Folder 3-&gt;Frame 4" style="stroke: #303030; stroke-width: 3.125;"/><polygon fill="#303030" points="352.0833,498.913,356.25,489.538,352.0833,493.7046,347.9167,489.538,352.0833,498.913" style="stroke: #303030; stroke-width: 3.125;"/><!--MD5=[b21a3c93c2a22c7ef4934ace81b9a2fe]
link My Artifact to My Storage--><!--MD5=[e181977624df3f2540e75050355d9c90]
link My Storage to My Queue--><!--MD5=[756be6e13c059af04edf2b7b91188131]
link My Artifact to My Interface--><!--MD5=[9bfee3aea78949ae207e8bd3b67fed50]
link My Interface to My Card--><!--MD5=[7d5148706a659d88e9a451ba2a45522c]
link My Card to My File--><!--MD5=[25b27bb9c6f1602048cde482562a8061]
link My Interface to My Stack--><!--MD5=[5431efa98702b6e55eed15581ea49465]
@startuml



skinparam backgroundColor black






skinparam  {
    defaultFontName   "Verdana"
    defaultFontSize   12
    defaultTextAlignment center
    shadowing false
    RoundCorner 10
    TitleFontSize 18
}

skinparam defaultFontName       "Verdana"
skinparam defaultFontSize       12
skinparam dpi                   100
skinparam shadowing             false
skinparam roundcorner           8
skinparam ParticipantPadding    40
skinparam BoxPadding            40
skinparam Padding               5
skinparam ArrowColor            #484848
skinparam stereotype {
    CBackgroundColor #3a3a3a
    CBorderColor #6d6d6d
    ABackgroundColor #33ff33
    ABorderColor #00cc00
    IBackgroundColor #ff3333
    IBorderColor #cc0000
    EBackgroundColor #ff9933
    EBorderColor #cc6600
    NBackgroundColor #3380b9
    NBorderColor #004d86
}
skinparam title {
	FontColor	                 #fefefe
	BorderColor	                 #3a3a3a
	FontSize	    	         20
	BorderRoundCorner            8
	BorderThickness 	         1
	BackgroundColor              #6d6d6d-#484848
}


skinparam legend {
	BackgroundColor #303030
	BorderColor #262626
	FontColor #fff200
}

skinparam activity {
		FontColor #fff200
	BorderColor #262626
	BackgroundColor #595959-#262626
	BarColor #00FF00
	StartColor #0060a8
	EndColor #0060a8
	DiamondBackgroundColor #6d6d6d-#3a3a3a
  	DiamondBorderColor #3a3a3a
  	DiamondFontColor #fefefe
}

skinparam participant {
		FontColor #fff200
	BorderColor #262626
	BackgroundColor #595959-#262626
	ParticipantBorderThickness 2
}

skinparam actor {
		FontColor #fff200
	BorderColor #262626
	BackgroundColor #595959-#262626
}

skinparam arrow {
	Thickness 3
	Color #303030
	FontColor $FGCOLOR
}


skinparam sequence {
	BorderColor #303030
	TitleFontColor #303030
	BackgroundColor black
	StartColor #303030
	EndColor #303030
	BoxBackgroundColor black
	BoxBorderColor #484848
	BoxFontColor #484848
	LifeLineBorderColor #484848
	LifeLineBorderThickness 2
	LifeLineBackgroundColor #3a3a3a
	GroupBorderColor #484848
	GroupFontColor #484848
	GroupHeaderFontColor #0060a8
	GroupBackgroundColor #484848
	GroupHeaderBackgroundColor black
	DividerBackgroundColor #484848
    DividerBorderColor #484848
    DividerBorderThickness 2
    DividerFontColor #fff200
	ReferenceBackgroundColor black
	ReferenceBorderColor #484848
	ReferenceFontColor #fefefe
	ReferenceHeaderBackgroundColor #484848
}

skinparam partition {
	BorderColor #303030
	FontColor #595959
	BackgroundColor black
}

skinparam collections {
		FontColor #fff200
	BorderColor #262626
	BackgroundColor #595959-#262626
}

skinparam control {
		FontColor #fff200
	BorderColor #262626
	BackgroundColor #595959-#262626
}

skinparam entity {
		FontColor #fff200
	BorderColor #262626
	BackgroundColor #595959-#262626
}

skinparam boundary {
		FontColor #fff200
	BorderColor #262626
	BackgroundColor #595959-#262626
}

skinparam agent {
	BackgroundColor #ff8000
	BorderColor #ff9933
	FontColor #484848
}

skinparam note {
	BorderThickness 1
	BackgroundColor #0060a8
	BorderColor #004d86
	FontColor $WHITE
}

skinparam artifact {
	BackgroundColor #484848
	BorderColor $DARK_DARK
	FontColor #fff200
}

skinparam component {
		FontColor #fff200
	BorderColor #262626
	BackgroundColor #595959-#262626
}

skinparam interface {
	BackgroundColor  #cc0000
	BorderColor  #ff0000
	FontColor #484848
}

skinparam storage {
	BackgroundColor #ff8000
  	BorderColor #cc6600
	FontColor #222222
}

skinparam node {
	BackgroundColor black
	BorderColor #595959
	FontColor #fff200
}

skinparam cloud {
	BackgroundColor #484848-black
	BorderColor #484848
	FontColor #fff200
}

skinparam database {
		FontColor #fff200
	BorderColor #262626
	BackgroundColor #595959-#262626
	BackgroundColor  black
}

skinparam class {
		FontColor #fff200
	BorderColor #262626
	BackgroundColor #595959-#262626
	HeaderBackgroundColor #595959
	StereotypeFontColor #484848
	BorderThickness 1
	AttributeFontColor #fff200
	AttributeFontSize 11
}

skinparam object {
		FontColor #fff200
	BorderColor #262626
	BackgroundColor #595959-#262626
	StereotypeFontColor #484848
	BorderThickness 1
	AttributeFontColor #fefefe
	AttributeFontSize 11
}

skinparam usecase {
		FontColor #fff200
	BorderColor #262626
	BackgroundColor #595959-#262626
	BorderThickness 2
	StereotypeFontColor #303030
}

skinparam rectangle {
		FontColor #fff200
	BorderColor #262626
	BackgroundColor #595959-#262626
	BackgroundColor black
	BorderThickness 2
	StereotypeFontColor #303030
}

skinparam package {
		FontColor #fff200
	BorderColor #262626
	BackgroundColor #595959-#262626
	BackgroundColor black
	BorderThickness 2
}

skinparam folder {
	BackgroundColor #6d6d6d
  	BorderColor #ff8000
	FontColor #ff8000
	BorderThickness 2
}

skinparam frame {
	BackgroundColor #6d6d6d
  	BorderColor #0060a8
	FontColor #0060a8
	BorderThickness 2
}

skinparam state {
		FontColor #fff200
	BorderColor #262626
	BackgroundColor #595959-#262626
	StartColor #0060a8
	EndColor #0060a8
	AttributeFontColor #fefefe
	AttributeFontSize 11
}

skinparam queue {
		FontColor #fff200
	BorderColor #262626
	BackgroundColor #595959-#262626
}

skinparam card {
	BackgroundColor #0060a8
	BorderColor #004d86
	FontColor $INFO_TEXT
}

skinparam file {
	BackgroundColor #6d6d6d-#484848
	BorderColor #0060a8
	FontColor #fefefe
}

skinparam stack {
		FontColor #fff200
	BorderColor #262626
	BackgroundColor #595959-#262626
}


title Component Diagram - black-knight theme


package "My Package" {
  HTTP - [First Component]
  [Another Component]
}
 
node "My Node" {
  FTP - [Second Component]
  [First Component] - -> FTP
} 

cloud "My Cloud" {
  [Example 1]
}


database "My Database" {
  folder "My folder" {
	[Folder 3]
  }
  frame "My Frame" {
	[Frame 4]
  }
}

artifact "My Artifact"
storage "My Storage"
queue "My Queue"
interface "My Interface"
card "My Card"
file "My File"
stack "My Stack"

[Another Component] - -> [Example 1]
[Example 1] - -> [Folder 3]
[Folder 3] - -> [Frame 4]

@enduml

PlantUML version 1.2020.00(Sat Jan 11 04:30:53 PST 2020)
(GPL source distribution)
Java Runtime: OpenJDK Runtime Environment
JVM: OpenJDK 64-Bit Server VM
Java Version: 11.0.5+10-post-Ubuntu-0ubuntu1.118.04
Operating System: Linux
Default Encoding: UTF-8
Language: en
Country: US
--></g></svg>