<?xml version="1.0" encoding="UTF-8" standalone="no"?><svg xmlns="http://www.w3.org/2000/svg" xmlns:xlink="http://www.w3.org/1999/xlink" contentScriptType="application/ecmascript" contentStyleType="text/css" height="1419.7917px" preserveAspectRatio="none" style="width:1352px;height:1419px;background:#000000;" version="1.1" viewBox="0 0 1352 1419" width="1352.0833px" zoomAndPan="magnify"><defs><linearGradient id="g1k2njws1ookre0" x1="50%" x2="50%" y1="0%" y2="100%"><stop offset="0%" stop-color="#6D6D6D"/><stop offset="100%" stop-color="#484848"/></linearGradient><linearGradient id="g1k2njws1ookre1" x1="50%" x2="50%" y1="0%" y2="100%"><stop offset="0%" stop-color="#595959"/><stop offset="100%" stop-color="#262626"/></linearGradient></defs><g><rect fill="url(#g1k2njws1ookre0)" height="36.025" rx="4.1667" ry="4.1667" style="stroke: #3A3A3A; stroke-width: 1.0416666666666667;" width="303.125" x="519.2708" y="30.8167"/><text fill="#303030" font-family="Verdana" font-size="12.5" font-weight="bold" lengthAdjust="spacingAndGlyphs" textLength="276.0417" x="532.8125" y="53.8005">Sequence Diagram - black-knight theme</text><rect fill="#000000" height="1311.1328" rx="4.1667" ry="4.1667" style="stroke: #484848; stroke-width: 1.0416666666666667;" width="345.8333" x="951.0417" y="78.3"/><text fill="#484848" font-family="Verdana" font-size="12.5" font-weight="bold" lengthAdjust="spacingAndGlyphs" textLength="111.4583" x="1068.2292" y="96.0754">Internal Service</text><rect fill="#3A3A3A" height="242.7999" style="stroke: #484848; stroke-width: 1.0416666666666667;" width="10.4167" x="392.1875" y="331.7749"/><rect fill="#000000" height="475.1831" rx="4.1667" ry="4.1667" style="stroke: #484848; stroke-width: 2.0833333333333335;" width="1310.4167" x="13.5417" y="725.3581"/><rect fill="#000000" height="242.7999" style="stroke: none; stroke-width: 1.0416666666666667;" width="1310.4167" x="13.5417" y="889.858"/><rect fill="#000000" height="120.1416" rx="4.1667" ry="4.1667" style="stroke: #484848; stroke-width: 2.0833333333333335;" width="1289.5833" x="23.9583" y="1005.2246"/><rect fill="#000000" height="77.8666" rx="4.1667" ry="4.1667" style="stroke: #484848; stroke-width: 2.0833333333333335;" width="1268.75" x="34.375" y="1040.2079"/><rect fill="#000000" height="67.8833" style="stroke: none; stroke-width: 1.0416666666666667;" width="1310.4167" x="13.5417" y="1132.6579"/><line style="stroke: #484848; stroke-width: 1.0416666666666667;" x1="68.75" x2="68.75" y1="168.4916" y2="582.9081"/><line style="stroke: #484848; stroke-width: 1.0416666666666667; stroke-dasharray: 1.0,4.0;" x1="68.75" x2="68.75" y1="582.9081" y2="637.6831"/><line style="stroke: #484848; stroke-width: 1.0416666666666667;" x1="68.75" x2="68.75" y1="637.6831" y2="1295.0745"/><line style="stroke: #484848; stroke-width: 1.0416666666666667;" x1="241.6667" x2="241.6667" y1="168.4916" y2="582.9081"/><line style="stroke: #484848; stroke-width: 1.0416666666666667; stroke-dasharray: 1.0,4.0;" x1="241.6667" x2="241.6667" y1="582.9081" y2="637.6831"/><line style="stroke: #484848; stroke-width: 1.0416666666666667;" x1="241.6667" x2="241.6667" y1="637.6831" y2="1295.0745"/><line style="stroke: #484848; stroke-width: 1.0416666666666667;" x1="396.875" x2="396.875" y1="168.4916" y2="582.9081"/><line style="stroke: #484848; stroke-width: 1.0416666666666667; stroke-dasharray: 1.0,4.0;" x1="396.875" x2="396.875" y1="582.9081" y2="637.6831"/><line style="stroke: #484848; stroke-width: 1.0416666666666667;" x1="396.875" x2="396.875" y1="637.6831" y2="1295.0745"/><line style="stroke: #484848; stroke-width: 1.0416666666666667;" x1="550" x2="550" y1="168.4916" y2="582.9081"/><line style="stroke: #484848; stroke-width: 1.0416666666666667; stroke-dasharray: 1.0,4.0;" x1="550" x2="550" y1="582.9081" y2="637.6831"/><line style="stroke: #484848; stroke-width: 1.0416666666666667;" x1="550" x2="550" y1="637.6831" y2="1295.0745"/><line style="stroke: #484848; stroke-width: 1.0416666666666667;" x1="722.9167" x2="722.9167" y1="168.4916" y2="582.9081"/><line style="stroke: #484848; stroke-width: 1.0416666666666667; stroke-dasharray: 1.0,4.0;" x1="722.9167" x2="722.9167" y1="582.9081" y2="637.6831"/><line style="stroke: #484848; stroke-width: 1.0416666666666667;" x1="722.9167" x2="722.9167" y1="637.6831" y2="1295.0745"/><line style="stroke: #484848; stroke-width: 1.0416666666666667;" x1="830.2083" x2="830.2083" y1="168.4916" y2="582.9081"/><line style="stroke: #484848; stroke-width: 1.0416666666666667; stroke-dasharray: 1.0,4.0;" x1="830.2083" x2="830.2083" y1="582.9081" y2="637.6831"/><line style="stroke: #484848; stroke-width: 1.0416666666666667;" x1="830.2083" x2="830.2083" y1="637.6831" y2="1295.0745"/><line style="stroke: #484848; stroke-width: 1.0416666666666667;" x1="1021.875" x2="1021.875" y1="168.4916" y2="582.9081"/><line style="stroke: #484848; stroke-width: 1.0416666666666667; stroke-dasharray: 1.0,4.0;" x1="1021.875" x2="1021.875" y1="582.9081" y2="637.6831"/><line style="stroke: #484848; stroke-width: 1.0416666666666667;" x1="1021.875" x2="1021.875" y1="637.6831" y2="1295.0745"/><line style="stroke: #484848; stroke-width: 1.0416666666666667;" x1="1195.8333" x2="1195.8333" y1="168.4916" y2="582.9081"/><line style="stroke: #484848; stroke-width: 1.0416666666666667; stroke-dasharray: 1.0,4.0;" x1="1195.8333" x2="1195.8333" y1="582.9081" y2="637.6831"/><line style="stroke: #484848; stroke-width: 1.0416666666666667;" x1="1195.8333" x2="1195.8333" y1="637.6831" y2="1295.0745"/><text fill="#FFF200" font-family="Verdana" font-size="12.5" lengthAdjust="spacingAndGlyphs" textLength="32.2917" x="50" y="160.6588">Foo1</text><ellipse cx="69.2708" cy="87.675" fill="url(#g1k2njws1ookre1)" rx="8.3333" ry="8.3333" style="stroke: #262626; stroke-width: 2.0833333333333335;"/><path d="M69.2708,96.0083 L69.2708,124.1333 M55.7292,104.3416 L82.8125,104.3416 M69.2708,124.1333 L55.7292,139.7583 M69.2708,124.1333 L82.8125,139.7583 " fill="none" style="stroke: #262626; stroke-width: 2.0833333333333335;"/><text fill="#FFF200" font-family="Verdana" font-size="12.5" lengthAdjust="spacingAndGlyphs" textLength="32.2917" x="50" y="1311.8083">Foo1</text><ellipse cx="69.2708" cy="1330.0578" fill="url(#g1k2njws1ookre1)" rx="8.3333" ry="8.3333" style="stroke: #262626; stroke-width: 2.0833333333333335;"/><path d="M69.2708,1338.3911 L69.2708,1366.5161 M55.7292,1346.7244 L82.8125,1346.7244 M69.2708,1366.5161 L55.7292,1382.1411 M69.2708,1366.5161 L82.8125,1382.1411 " fill="none" style="stroke: #262626; stroke-width: 2.0833333333333335;"/><text fill="#FFF200" font-family="Verdana" font-size="12.5" lengthAdjust="spacingAndGlyphs" textLength="32.2917" x="222.9167" y="160.6588">Foo2</text><path d="M220.8333,113.7166 L220.8333,138.7166 M220.8333,126.2166 L238.5417,126.2166 " fill="none" style="stroke: #262626; stroke-width: 2.0833333333333335;"/><ellipse cx="251.0417" cy="126.2166" fill="url(#g1k2njws1ookre1)" rx="12.5" ry="12.5" style="stroke: #262626; stroke-width: 2.0833333333333335;"/><text fill="#FFF200" font-family="Verdana" font-size="12.5" lengthAdjust="spacingAndGlyphs" textLength="32.2917" x="222.9167" y="1311.8083">Foo2</text><path d="M220.8333,1323.8078 L220.8333,1348.8078 M220.8333,1336.3078 L238.5417,1336.3078 " fill="none" style="stroke: #262626; stroke-width: 2.0833333333333335;"/><ellipse cx="251.0417" cy="1336.3078" fill="url(#g1k2njws1ookre1)" rx="12.5" ry="12.5" style="stroke: #262626; stroke-width: 2.0833333333333335;"/><text fill="#FFF200" font-family="Verdana" font-size="12.5" lengthAdjust="spacingAndGlyphs" textLength="32.2917" x="378.125" y="160.6588">Foo3</text><ellipse cx="397.3958" cy="126.2166" fill="url(#g1k2njws1ookre1)" rx="12.5" ry="12.5" style="stroke: #262626; stroke-width: 2.0833333333333335;"/><polygon fill="#262626" points="393.2292,113.7166,399.4792,108.5083,397.3958,113.7166,399.4792,118.925,393.2292,113.7166" style="stroke: #262626; stroke-width: 1.0416666666666667;"/><text fill="#FFF200" font-family="Verdana" font-size="12.5" lengthAdjust="spacingAndGlyphs" textLength="32.2917" x="378.125" y="1311.8083">Foo3</text><ellipse cx="397.3958" cy="1336.3078" fill="url(#g1k2njws1ookre1)" rx="12.5" ry="12.5" style="stroke: #262626; stroke-width: 2.0833333333333335;"/><polygon fill="#262626" points="393.2292,1323.8078,399.4792,1318.5994,397.3958,1323.8078,399.4792,1329.0161,393.2292,1323.8078" style="stroke: #262626; stroke-width: 1.0416666666666667;"/><text fill="#FFF200" font-family="Verdana" font-size="12.5" lengthAdjust="spacingAndGlyphs" textLength="32.2917" x="531.25" y="160.6588">Foo4</text><ellipse cx="550.5208" cy="126.2166" fill="url(#g1k2njws1ookre1)" rx="12.5" ry="12.5" style="stroke: #262626; stroke-width: 2.0833333333333335;"/><line style="stroke: #262626; stroke-width: 2.0833333333333335;" x1="538.0208" x2="563.0208" y1="140.8" y2="140.8"/><text fill="#FFF200" font-family="Verdana" font-size="12.5" lengthAdjust="spacingAndGlyphs" textLength="32.2917" x="531.25" y="1311.8083">Foo4</text><ellipse cx="550.5208" cy="1336.3078" fill="url(#g1k2njws1ookre1)" rx="12.5" ry="12.5" style="stroke: #262626; stroke-width: 2.0833333333333335;"/><line style="stroke: #262626; stroke-width: 2.0833333333333335;" x1="538.0208" x2="563.0208" y1="1350.8911" y2="1350.8911"/><text fill="#FFF200" font-family="Verdana" font-size="12.5" lengthAdjust="spacingAndGlyphs" textLength="32.2917" x="704.1667" y="160.6588">Foo5</text><path d="M704.6875,105.3833 C704.6875,94.9666 723.4375,94.9666 723.4375,94.9666 C723.4375,94.9666 742.1875,94.9666 742.1875,105.3833 L742.1875,132.4666 C742.1875,142.8833 723.4375,142.8833 723.4375,142.8833 C723.4375,142.8833 704.6875,142.8833 704.6875,132.4666 L704.6875,105.3833 " fill="#000000" style="stroke: #262626; stroke-width: 1.5625;"/><path d="M704.6875,105.3833 C704.6875,115.8 723.4375,115.8 723.4375,115.8 C723.4375,115.8 742.1875,115.8 742.1875,105.3833 " fill="none" style="stroke: #262626; stroke-width: 1.5625;"/><text fill="#FFF200" font-family="Verdana" font-size="12.5" lengthAdjust="spacingAndGlyphs" textLength="32.2917" x="704.1667" y="1311.8083">Foo5</text><path d="M704.6875,1330.0578 C704.6875,1319.6411 723.4375,1319.6411 723.4375,1319.6411 C723.4375,1319.6411 742.1875,1319.6411 742.1875,1330.0578 L742.1875,1357.1411 C742.1875,1367.5578 723.4375,1367.5578 723.4375,1367.5578 C723.4375,1367.5578 704.6875,1367.5578 704.6875,1357.1411 L704.6875,1330.0578 " fill="#000000" style="stroke: #262626; stroke-width: 1.5625;"/><path d="M704.6875,1330.0578 C704.6875,1340.4744 723.4375,1340.4744 723.4375,1340.4744 C723.4375,1340.4744 742.1875,1340.4744 742.1875,1330.0578 " fill="none" style="stroke: #262626; stroke-width: 1.5625;"/><rect fill="url(#g1k2njws1ookre1)" height="40.1917" rx="4.1667" ry="4.1667" style="stroke: #262626; stroke-width: 1.5625;" width="57.2917" x="804.1667" y="123.0916"/><rect fill="url(#g1k2njws1ookre1)" height="40.1917" rx="4.1667" ry="4.1667" style="stroke: #262626; stroke-width: 1.5625;" width="57.2917" x="800" y="127.2583"/><text fill="#FFF200" font-family="Verdana" font-size="12.5" lengthAdjust="spacingAndGlyphs" textLength="32.2917" x="812.5" y="152.3254">Foo6</text><rect fill="url(#g1k2njws1ookre1)" height="40.1917" rx="4.1667" ry="4.1667" style="stroke: #262626; stroke-width: 1.5625;" width="57.2917" x="804.1667" y="1294.0328"/><rect fill="url(#g1k2njws1ookre1)" height="40.1917" rx="4.1667" ry="4.1667" style="stroke: #262626; stroke-width: 1.5625;" width="57.2917" x="800" y="1298.1995"/><text fill="#FFF200" font-family="Verdana" font-size="12.5" lengthAdjust="spacingAndGlyphs" textLength="32.2917" x="812.5" y="1323.2666">Foo6</text><rect fill="url(#g1k2njws1ookre1)" height="40.1917" rx="4.1667" ry="4.1667" style="stroke: #262626; stroke-width: 1.5625;" width="50" x="996.875" y="127.2583"/><text fill="#FFF200" font-family="Verdana" font-size="12.5" lengthAdjust="spacingAndGlyphs" textLength="25" x="1009.375" y="152.3254">Bob</text><rect fill="url(#g1k2njws1ookre1)" height="40.1917" rx="4.1667" ry="4.1667" style="stroke: #262626; stroke-width: 1.5625;" width="50" x="996.875" y="1294.0328"/><text fill="#FFF200" font-family="Verdana" font-size="12.5" lengthAdjust="spacingAndGlyphs" textLength="25" x="1009.375" y="1319.0999">Bob</text><rect fill="url(#g1k2njws1ookre1)" height="44.9666" rx="4.1667" ry="4.1667" style="stroke: #262626; stroke-width: 1.5625;" width="110.4167" x="1140.625" y="122.4833"/><ellipse cx="1158.3333" cy="140.1917" fill="#ADD1B2" rx="10.4167" ry="10.4167" style="stroke: #262626; stroke-width: 1.0416666666666667;"/><path d="M1159.8796,137.2782 Q1159.9935,137.1155 1160.1318,137.0341 Q1160.2702,136.9527 1160.4329,136.9527 Q1160.7096,136.9527 1160.8805,137.148 Q1161.0514,137.3433 1161.0514,137.7828 L1161.0514,138.857 Q1161.0514,139.2965 1160.8805,139.4918 Q1160.7096,139.6871 1160.4329,139.6871 Q1160.1725,139.6871 1160.026,139.5406 Q1159.8796,139.4104 1159.7982,139.0198 Q1159.7656,138.7594 1159.6354,138.6292 Q1159.375,138.3525 1158.9274,138.1897 Q1158.4798,138.0269 1158.0241,138.0269 Q1157.4707,138.0269 1156.9987,138.2711 Q1156.5267,138.5152 1156.1686,139.0605 Q1155.8105,139.6057 1155.8105,140.3707 L1155.8105,141.1845 Q1155.8105,142.0797 1156.4697,142.6819 Q1157.1289,143.2841 1158.2845,143.2841 Q1158.9844,143.2841 1159.4727,143.1051 Q1159.7493,142.9911 1160.0586,142.6656 Q1160.2539,142.4703 1160.3678,142.4133 Q1160.4818,142.3564 1160.612,142.3564 Q1160.8724,142.3564 1161.0596,142.5435 Q1161.2467,142.7307 1161.2467,142.9911 Q1161.2467,143.2515 1160.9863,143.5445 Q1160.612,143.9677 1160.026,144.2118 Q1159.2448,144.5374 1158.3008,144.5374 Q1157.1777,144.5374 1156.2988,144.0816 Q1155.5664,143.7236 1155.0618,142.926 Q1154.5573,142.1285 1154.5573,141.2008 L1154.5573,140.3544 Q1154.5573,139.3778 1155.013,138.5315 Q1155.4688,137.6851 1156.2744,137.2294 Q1157.0801,136.7737 1157.9753,136.7737 Q1158.5286,136.7737 1159.0007,136.8958 Q1159.4727,137.0178 1159.8796,137.2782 Z "/><text fill="#FFF200" font-family="Verdana" font-size="12.5" font-style="italic" lengthAdjust="spacingAndGlyphs" textLength="68.75" x="1175" y="142.275">«Testable»</text><text fill="#FFF200" font-family="Verdana" font-size="12.5" lengthAdjust="spacingAndGlyphs" textLength="29.1667" x="1194.7917" y="157.4666">Alice</text><rect fill="url(#g1k2njws1ookre1)" height="44.9666" rx="4.1667" ry="4.1667" style="stroke: #262626; stroke-width: 1.5625;" width="110.4167" x="1140.625" y="1294.0328"/><ellipse cx="1158.3333" cy="1311.7411" fill="#ADD1B2" rx="10.4167" ry="10.4167" style="stroke: #262626; stroke-width: 1.0416666666666667;"/><path d="M1159.8796,1308.8277 Q1159.9935,1308.665 1160.1318,1308.5836 Q1160.2702,1308.5022 1160.4329,1308.5022 Q1160.7096,1308.5022 1160.8805,1308.6975 Q1161.0514,1308.8928 1161.0514,1309.3323 L1161.0514,1310.4065 Q1161.0514,1310.8459 1160.8805,1311.0413 Q1160.7096,1311.2366 1160.4329,1311.2366 Q1160.1725,1311.2366 1160.026,1311.0901 Q1159.8796,1310.9599 1159.7982,1310.5693 Q1159.7656,1310.3088 1159.6354,1310.1786 Q1159.375,1309.9019 1158.9274,1309.7392 Q1158.4798,1309.5764 1158.0241,1309.5764 Q1157.4707,1309.5764 1156.9987,1309.8206 Q1156.5267,1310.0647 1156.1686,1310.6099 Q1155.8105,1311.1552 1155.8105,1311.9202 L1155.8105,1312.734 Q1155.8105,1313.6292 1156.4697,1314.2314 Q1157.1289,1314.8336 1158.2845,1314.8336 Q1158.9844,1314.8336 1159.4727,1314.6545 Q1159.7493,1314.5406 1160.0586,1314.2151 Q1160.2539,1314.0198 1160.3678,1313.9628 Q1160.4818,1313.9058 1160.612,1313.9058 Q1160.8724,1313.9058 1161.0596,1314.093 Q1161.2467,1314.2802 1161.2467,1314.5406 Q1161.2467,1314.801 1160.9863,1315.094 Q1160.612,1315.5172 1160.026,1315.7613 Q1159.2448,1316.0868 1158.3008,1316.0868 Q1157.1777,1316.0868 1156.2988,1315.6311 Q1155.5664,1315.273 1155.0618,1314.4755 Q1154.5573,1313.678 1154.5573,1312.7502 L1154.5573,1311.9039 Q1154.5573,1310.9273 1155.013,1310.081 Q1155.4688,1309.2346 1156.2744,1308.7789 Q1157.0801,1308.3232 1157.9753,1308.3232 Q1158.5286,1308.3232 1159.0007,1308.4452 Q1159.4727,1308.5673 1159.8796,1308.8277 Z "/><text fill="#FFF200" font-family="Verdana" font-size="12.5" font-style="italic" lengthAdjust="spacingAndGlyphs" textLength="68.75" x="1175" y="1313.8245">«Testable»</text><text fill="#FFF200" font-family="Verdana" font-size="12.5" lengthAdjust="spacingAndGlyphs" textLength="29.1667" x="1194.7917" y="1329.0161">Alice</text><rect fill="#3A3A3A" height="242.7999" style="stroke: #484848; stroke-width: 1.0416666666666667;" width="10.4167" x="392.1875" y="331.7749"/><rect fill="#484848" height="3.125" style="stroke: #484848; stroke-width: 1.0416666666666667;" width="1336.4583" x="3.125" y="205.2541"/><line style="stroke: #484848; stroke-width: 1.0416666666666667;" x1="3.125" x2="1339.5833" y1="205.2541" y2="205.2541"/><line style="stroke: #484848; stroke-width: 1.0416666666666667;" x1="3.125" x2="1339.5833" y1="208.3791" y2="208.3791"/><rect fill="#484848" height="33.9417" style="stroke: #484848; stroke-width: 2.0833333333333335;" width="115.625" x="613.5417" y="189.325"/><text fill="#FFF200" font-family="Verdana" font-size="12.5" font-weight="bold" lengthAdjust="spacingAndGlyphs" textLength="86.4583" x="625" y="211.2671">Initialization</text><polygon fill="#303030" points="229.6875,261.3749,240.1042,265.5416,229.6875,269.7083,233.8542,265.5416" style="stroke: #303030; stroke-width: 1.0416666666666667;"/><line style="stroke: #303030; stroke-width: 3.125;" x1="69.2708" x2="235.9375" y1="265.5416" y2="265.5416"/><text fill="#FFFFFF" font-family="Verdana" font-size="12.5" font-weight="bold" lengthAdjust="spacingAndGlyphs" textLength="40.625" x="81.7708" y="255.6254">[001]</text><text fill="#FFFFFF" font-family="Verdana" font-size="12.5" lengthAdjust="spacingAndGlyphs" textLength="82.2917" x="136.9792" y="255.6254">To boundary</text><polygon fill="#303030" points="379.6875,327.6082,390.1042,331.7749,379.6875,335.9416,383.8542,331.7749" style="stroke: #303030; stroke-width: 1.0416666666666667;"/><line style="stroke: #303030; stroke-width: 3.125;" x1="242.1875" x2="385.9375" y1="331.7749" y2="331.7749"/><text fill="#FFFFFF" font-family="Verdana" font-size="12.5" font-weight="bold" lengthAdjust="spacingAndGlyphs" textLength="40.625" x="254.6875" y="321.8587">[002]</text><text fill="#FFFFFF" font-family="Verdana" font-size="12.5" lengthAdjust="spacingAndGlyphs" textLength="64.5833" x="309.8958" y="321.8587">To control</text><rect fill="#000000" height="76.825" style="stroke: #484848; stroke-width: 2.0833333333333335;" width="228.125" x="522.9167" y="340.1082"/><polygon fill="#484848" points="522.9167,340.1082,600,340.1082,600,356.7749,589.5833,367.1916,522.9167,367.1916,522.9167,340.1082" style="stroke: #484848; stroke-width: 2.0833333333333335;"/><text fill="#0060A8" font-family="Verdana" font-size="12.5" font-weight="bold" lengthAdjust="spacingAndGlyphs" textLength="19.7917" x="541.6667" y="359.967">ref</text><text fill="#FEFEFE" font-family="Verdana" font-size="12.5" lengthAdjust="spacingAndGlyphs" textLength="94.7917" x="589.5833" y="389.1337">This can be on</text><text fill="#FEFEFE" font-family="Verdana" font-size="12.5" lengthAdjust="spacingAndGlyphs" textLength="82.2917" x="589.5833" y="404.3254">several lines</text><polygon fill="#303030" points="538.0208,449.8332,548.4375,453.9998,538.0208,458.1665,542.1875,453.9998" style="stroke: #303030; stroke-width: 1.0416666666666667;"/><line style="stroke: #303030; stroke-width: 3.125;" x1="402.6042" x2="544.2708" y1="453.9998" y2="453.9998"/><text fill="#FFFFFF" font-family="Verdana" font-size="12.5" font-weight="bold" lengthAdjust="spacingAndGlyphs" textLength="40.625" x="415.1042" y="444.0837">[003]</text><text fill="#FFFFFF" font-family="Verdana" font-size="12.5" lengthAdjust="spacingAndGlyphs" textLength="57.2917" x="470.3125" y="444.0837">To entity</text><polygon fill="#303030" points="710.9375,490.0248,721.3542,494.1915,710.9375,498.3582,715.1042,494.1915" style="stroke: #303030; stroke-width: 1.0416666666666667;"/><line style="stroke: #303030; stroke-width: 3.125;" x1="550.5208" x2="717.1875" y1="494.1915" y2="494.1915"/><text fill="#FFFFFF" font-family="Verdana" font-size="12.5" font-weight="bold" lengthAdjust="spacingAndGlyphs" textLength="40.625" x="563.0208" y="484.2753">[004]</text><text fill="#FFFFFF" font-family="Verdana" font-size="12.5" lengthAdjust="spacingAndGlyphs" textLength="82.2917" x="618.2292" y="484.2753">To database</text><polygon fill="#303030" points="414.0625,530.2165,403.6458,534.3831,414.0625,538.5498,409.8958,534.3831" style="stroke: #303030; stroke-width: 1.0416666666666667;"/><line style="stroke: #303030; stroke-width: 3.125; stroke-dasharray: 2.0,2.0;" x1="407.8125" x2="722.3958" y1="534.3831" y2="534.3831"/><text fill="#FFFFFF" font-family="Verdana" font-size="12.5" font-weight="bold" lengthAdjust="spacingAndGlyphs" textLength="40.625" x="425.5208" y="524.467">[005]</text><text fill="#FFFFFF" font-family="Verdana" font-size="12.5" lengthAdjust="spacingAndGlyphs" textLength="40.625" x="480.7292" y="524.467">return</text><polygon fill="#303030" points="253.6458,570.4081,243.2292,574.5748,253.6458,578.7415,249.4792,574.5748" style="stroke: #303030; stroke-width: 1.0416666666666667;"/><line style="stroke: #303030; stroke-width: 3.125; stroke-dasharray: 2.0,2.0;" x1="247.3958" x2="396.3542" y1="574.5748" y2="574.5748"/><text fill="#FFFFFF" font-family="Verdana" font-size="12.5" font-weight="bold" lengthAdjust="spacingAndGlyphs" textLength="40.625" x="265.1042" y="564.6586">[006]</text><text fill="#FFFFFF" font-family="Verdana" font-size="12.5" lengthAdjust="spacingAndGlyphs" textLength="40.625" x="320.3125" y="564.6586">return</text><text fill="#000000" font-family="Verdana" font-size="12.5" lengthAdjust="spacingAndGlyphs" textLength="36.4583" x="578.3854" y="615.2669">Some</text><text fill="#000000" font-family="Verdana" font-size="12.5" lengthAdjust="spacingAndGlyphs" textLength="67.7083" x="619.0104" y="615.2669">long delay</text><text fill="#000000" font-family="Verdana" font-size="12.5" lengthAdjust="spacingAndGlyphs" textLength="0" x="690.8854" y="615.2669"/><polygon fill="#303030" points="818.2292,665.3748,828.6458,669.5414,818.2292,673.7081,822.3958,669.5414" style="stroke: #303030; stroke-width: 1.0416666666666667;"/><line style="stroke: #303030; stroke-width: 3.125;" x1="69.2708" x2="824.4792" y1="669.5414" y2="669.5414"/><text fill="#FFFFFF" font-family="Verdana" font-size="12.5" font-weight="bold" lengthAdjust="spacingAndGlyphs" textLength="40.625" x="81.7708" y="659.6252">[007]</text><text fill="#FFFFFF" font-family="Verdana" font-size="12.5" lengthAdjust="spacingAndGlyphs" textLength="87.5" x="136.9792" y="659.6252">To collections</text><polygon fill="#303030" points="561.9792,705.5664,551.5625,709.7331,561.9792,713.8997,557.8125,709.7331" style="stroke: #303030; stroke-width: 1.0416666666666667;"/><line style="stroke: #303030; stroke-width: 3.125; stroke-dasharray: 2.0,2.0;" x1="555.7292" x2="829.6875" y1="709.7331" y2="709.7331"/><text fill="#FFFFFF" font-family="Verdana" font-size="12.5" font-weight="bold" lengthAdjust="spacingAndGlyphs" textLength="40.625" x="573.4375" y="699.8169">[008]</text><text fill="#00FF00" font-family="Verdana" font-size="12.5" font-weight="bold" lengthAdjust="spacingAndGlyphs" textLength="53.125" x="628.6458" y="699.8169">success</text><path d="M17.7083,725.3581 L88.5417,725.3581 L88.5417,742.0247 L78.125,752.4414 L13.5417,752.4414 L13.5417,729.5247 " fill="#484848" style="stroke: #484848; stroke-width: 1.0416666666666667;"/><rect fill="none" height="475.1831" rx="4.1667" ry="4.1667" style="stroke: #484848; stroke-width: 2.0833333333333335;" width="1310.4167" x="13.5417" y="725.3581"/><text fill="#0060A8" font-family="Verdana" font-size="12.5" font-weight="bold" lengthAdjust="spacingAndGlyphs" textLength="17.7083" x="34.375" y="744.1752">alt</text><text fill="#484848" font-family="Verdana" font-size="12.5" font-weight="bold" lengthAdjust="spacingAndGlyphs" textLength="118.75" x="109.375" y="745.2169">[successful case]</text><polygon fill="#303030" points="1183.3333,790.7247,1193.75,794.8914,1183.3333,799.058,1187.5,794.8914" style="stroke: #303030; stroke-width: 1.0416666666666667;"/><line style="stroke: #303030; stroke-width: 3.125;" x1="69.2708" x2="1189.5833" y1="794.8914" y2="794.8914"/><text fill="#FFFFFF" font-family="Verdana" font-size="12.5" font-weight="bold" lengthAdjust="spacingAndGlyphs" textLength="40.625" x="81.7708" y="784.9752">[009]</text><text fill="#FFFFFF" font-family="Verdana" font-size="12.5" lengthAdjust="spacingAndGlyphs" textLength="158.3333" x="136.9792" y="784.9752">Authentication Accepted</text><polygon fill="#303030" points="80.7292,830.9163,70.3125,835.083,80.7292,839.2497,76.5625,835.083" style="stroke: #303030; stroke-width: 1.0416666666666667;"/><line style="stroke: #303030; stroke-width: 3.125; stroke-dasharray: 2.0,2.0;" x1="74.4792" x2="1194.7917" y1="835.083" y2="835.083"/><text fill="#FFFFFF" font-family="Verdana" font-size="12.5" font-weight="bold" lengthAdjust="spacingAndGlyphs" textLength="40.625" x="92.1875" y="825.1668">[010]</text><text fill="#FFFFFF" font-family="Verdana" font-size="12.5" lengthAdjust="spacingAndGlyphs" textLength="51.0417" x="147.3958" y="825.1668">success</text><path d="M1034.375,852.7913 L1034.375,879.8747 A4.1667,4.1667 0 0 0 1038.5417,884.0413 L1186.4583,884.0413 A4.1667,4.1667 0 0 0 1190.625,879.8747 L1190.625,859.0413 L1180.2083,848.6247 L1038.5417,848.6247 A4.1667,4.1667 0 0 0 1034.375,852.7913 " fill="#0060A8" style="stroke: #004D86; stroke-width: 1.0416666666666667;"/><path d="M1180.2083,848.6247 L1180.2083,856.958 A2.0833,2.0833 0 0 0 1182.2917,859.0413 L1190.625,859.0413 L1180.2083,848.6247 " fill="#0060A8" style="stroke: #004D86; stroke-width: 1.0416666666666667;"/><text fill="#FFFFFF" font-family="Verdana" font-size="12.5" lengthAdjust="spacingAndGlyphs" textLength="114.5833" x="1055.2083" y="871.6085">this is a first note</text><line style="stroke: #484848; stroke-width: 1.0416666666666667; stroke-dasharray: 2.0,2.0;" x1="13.5417" x2="1323.9583" y1="890.8997" y2="890.8997"/><text fill="#484848" font-family="Verdana" font-size="12.5" font-weight="bold" lengthAdjust="spacingAndGlyphs" textLength="148.9583" x="23.9583" y="908.6751">[some kind of failure]</text><polygon fill="#303030" points="1183.3333,945.2413,1193.75,949.408,1183.3333,953.5746,1187.5,949.408" style="stroke: #303030; stroke-width: 1.0416666666666667;"/><line style="stroke: #303030; stroke-width: 3.125;" x1="69.2708" x2="1189.5833" y1="949.408" y2="949.408"/><text fill="#FFFFFF" font-family="Verdana" font-size="12.5" font-weight="bold" lengthAdjust="spacingAndGlyphs" textLength="40.625" x="81.7708" y="939.4918">[011]</text><text fill="#FFFFFF" font-family="Verdana" font-size="12.5" lengthAdjust="spacingAndGlyphs" textLength="142.7083" x="136.9792" y="939.4918">Authentication Failure</text><polygon fill="#303030" points="80.7292,985.4329,70.3125,989.5996,80.7292,993.7663,76.5625,989.5996" style="stroke: #303030; stroke-width: 1.0416666666666667;"/><line style="stroke: #303030; stroke-width: 3.125; stroke-dasharray: 2.0,2.0;" x1="74.4792" x2="1194.7917" y1="989.5996" y2="989.5996"/><text fill="#FFFFFF" font-family="Verdana" font-size="12.5" font-weight="bold" lengthAdjust="spacingAndGlyphs" textLength="40.625" x="92.1875" y="979.6834">[012]</text><text fill="#FF0000" font-family="Verdana" font-size="12.5" font-weight="bold" lengthAdjust="spacingAndGlyphs" textLength="82.2917" x="147.3958" y="979.6834">Bad request</text><path d="M28.125,1005.2246 L171.875,1005.2246 L171.875,1021.8913 L161.4583,1032.3079 L23.9583,1032.3079 L23.9583,1009.3913 " fill="#484848" style="stroke: #484848; stroke-width: 1.0416666666666667;"/><rect fill="none" height="120.1416" rx="4.1667" ry="4.1667" style="stroke: #484848; stroke-width: 2.0833333333333335;" width="1289.5833" x="23.9583" y="1005.2246"/><text fill="#0060A8" font-family="Verdana" font-size="12.5" font-weight="bold" lengthAdjust="spacingAndGlyphs" textLength="90.625" x="44.7917" y="1024.0417">My own label</text><path d="M38.5417,1040.2079 L120.8333,1040.2079 L120.8333,1056.8746 L110.4167,1067.2913 L34.375,1067.2913 L34.375,1044.3746 " fill="#484848" style="stroke: #484848; stroke-width: 1.0416666666666667;"/><rect fill="none" height="77.8666" rx="4.1667" ry="4.1667" style="stroke: #484848; stroke-width: 2.0833333333333335;" width="1268.75" x="34.375" y="1040.2079"/><text fill="#0060A8" font-family="Verdana" font-size="12.5" font-weight="bold" lengthAdjust="spacingAndGlyphs" textLength="29.1667" x="55.2083" y="1059.0251">loop</text><text fill="#484848" font-family="Verdana" font-size="12.5" font-weight="bold" lengthAdjust="spacingAndGlyphs" textLength="91.6667" x="141.6667" y="1060.0667">[1000 times]</text><polygon fill="#303030" points="80.7292,1105.5745,70.3125,1109.7412,80.7292,1113.9079,76.5625,1109.7412" style="stroke: #303030; stroke-width: 1.0416666666666667;"/><line style="stroke: #303030; stroke-width: 3.125;" x1="74.4792" x2="1194.7917" y1="1109.7412" y2="1109.7412"/><text fill="#FFFFFF" font-family="Verdana" font-size="12.5" font-weight="bold" lengthAdjust="spacingAndGlyphs" textLength="40.625" x="92.1875" y="1099.825">[013]</text><text fill="#FFFFFF" font-family="Verdana" font-size="12.5" lengthAdjust="spacingAndGlyphs" textLength="71.875" x="147.3958" y="1099.825">DNS Attack</text><line style="stroke: #484848; stroke-width: 1.0416666666666667; stroke-dasharray: 2.0,2.0;" x1="13.5417" x2="1323.9583" y1="1133.6995" y2="1133.6995"/><text fill="#484848" font-family="Verdana" font-size="12.5" font-weight="bold" lengthAdjust="spacingAndGlyphs" textLength="115.625" x="23.9583" y="1151.475">[Just a Warning]</text><polygon fill="#303030" points="1183.3333,1188.0412,1193.75,1192.2078,1183.3333,1196.3745,1187.5,1192.2078" style="stroke: #303030; stroke-width: 1.0416666666666667;"/><line style="stroke: #303030; stroke-width: 3.125;" x1="69.2708" x2="1189.5833" y1="1192.2078" y2="1192.2078"/><text fill="#FFFFFF" font-family="Verdana" font-size="12.5" font-weight="bold" lengthAdjust="spacingAndGlyphs" textLength="40.625" x="81.7708" y="1182.2917">[014]</text><text fill="#FF8000" font-family="Verdana" font-size="12.5" font-weight="bold" lengthAdjust="spacingAndGlyphs" textLength="94.7917" x="136.9792" y="1182.2917">Please repeat</text><path d="M46.875,1217.2078 L46.875,1274.4995 A4.1667,4.1667 0 0 0 51.0417,1278.6662 L260.4167,1278.6662 A4.1667,4.1667 0 0 0 264.5833,1274.4995 L264.5833,1223.4578 L254.1667,1213.0412 L51.0417,1213.0412 A4.1667,4.1667 0 0 0 46.875,1217.2078 " fill="#0060A8" style="stroke: #004D86; stroke-width: 1.0416666666666667;"/><path d="M254.1667,1213.0412 L254.1667,1221.3745 A2.0833,2.0833 0 0 0 256.25,1223.4578 L264.5833,1223.4578 L254.1667,1213.0412 " fill="#0060A8" style="stroke: #004D86; stroke-width: 1.0416666666666667;"/><text fill="#FFFFFF" font-family="Verdana" font-size="12.5" lengthAdjust="spacingAndGlyphs" textLength="136.4583" x="87.5" y="1236.025">this is a second note</text><text fill="#FFFFFF" font-family="Verdana" font-size="12.5" lengthAdjust="spacingAndGlyphs" textLength="81.25" x="115.1042" y="1251.2166">that is really</text><text fill="#FFFFFF" font-family="Verdana" font-size="12.5" lengthAdjust="spacingAndGlyphs" textLength="28.125" x="141.6667" y="1266.4083">long</text><text fill="#888888" font-family="Verdana" font-size="12.5" lengthAdjust="spacingAndGlyphs" textLength="85.4167" x="1254.1667" y="15.6921">Page Header</text><text fill="#888888" font-family="Verdana" font-size="12.5" lengthAdjust="spacingAndGlyphs" textLength="75" x="633.8542" y="1406.1666">Page 1 of 1</text><!--MD5=[e8aecdd2358b56ee1837eac4794018c6]
@startuml



skinparam backgroundColor black






skinparam  {
    defaultFontName   "Verdana"
    defaultFontSize   12
    defaultTextAlignment center
    shadowing false
    RoundCorner 10
    TitleFontSize 18
}

skinparam defaultFontName       "Verdana"
skinparam defaultFontSize       12
skinparam dpi                   100
skinparam shadowing             false
skinparam roundcorner           8
skinparam ParticipantPadding    40
skinparam BoxPadding            40
skinparam Padding               5
skinparam ArrowColor            #484848
skinparam stereotype {
    CBackgroundColor #3a3a3a
    CBorderColor #6d6d6d
    ABackgroundColor #33ff33
    ABorderColor #00cc00
    IBackgroundColor #ff3333
    IBorderColor #cc0000
    EBackgroundColor #ff9933
    EBorderColor #cc6600
    NBackgroundColor #3380b9
    NBorderColor #004d86
}
skinparam title {
	FontColor	                 #fefefe
	BorderColor	                 #3a3a3a
	FontSize	    	         20
	BorderRoundCorner            8
	BorderThickness 	         1
	BackgroundColor              #6d6d6d-#484848
}


skinparam legend {
	BackgroundColor #303030
	BorderColor #262626
	FontColor #fff200
}

skinparam activity {
		FontColor #fff200
	BorderColor #262626
	BackgroundColor #595959-#262626
	BarColor #00FF00
	StartColor #0060a8
	EndColor #0060a8
	DiamondBackgroundColor #6d6d6d-#3a3a3a
  	DiamondBorderColor #3a3a3a
  	DiamondFontColor #fefefe
}

skinparam participant {
		FontColor #fff200
	BorderColor #262626
	BackgroundColor #595959-#262626
	ParticipantBorderThickness 2
}

skinparam actor {
		FontColor #fff200
	BorderColor #262626
	BackgroundColor #595959-#262626
}

skinparam arrow {
	Thickness 3
	Color #303030
	FontColor $FGCOLOR
}


skinparam sequence {
	BorderColor #303030
	TitleFontColor #303030
	BackgroundColor black
	StartColor #303030
	EndColor #303030
	BoxBackgroundColor black
	BoxBorderColor #484848
	BoxFontColor #484848
	LifeLineBorderColor #484848
	LifeLineBorderThickness 2
	LifeLineBackgroundColor #3a3a3a
	GroupBorderColor #484848
	GroupFontColor #484848
	GroupHeaderFontColor #0060a8
	GroupBackgroundColor #484848
	GroupHeaderBackgroundColor black
	DividerBackgroundColor #484848
    DividerBorderColor #484848
    DividerBorderThickness 2
    DividerFontColor #fff200
	ReferenceBackgroundColor black
	ReferenceBorderColor #484848
	ReferenceFontColor #fefefe
	ReferenceHeaderBackgroundColor #484848
}

skinparam partition {
	BorderColor #303030
	FontColor #595959
	BackgroundColor black
}

skinparam collections {
		FontColor #fff200
	BorderColor #262626
	BackgroundColor #595959-#262626
}

skinparam control {
		FontColor #fff200
	BorderColor #262626
	BackgroundColor #595959-#262626
}

skinparam entity {
		FontColor #fff200
	BorderColor #262626
	BackgroundColor #595959-#262626
}

skinparam boundary {
		FontColor #fff200
	BorderColor #262626
	BackgroundColor #595959-#262626
}

skinparam agent {
	BackgroundColor #ff8000
	BorderColor #ff9933
	FontColor #484848
}

skinparam note {
	BorderThickness 1
	BackgroundColor #0060a8
	BorderColor #004d86
	FontColor $WHITE
}

skinparam artifact {
	BackgroundColor #484848
	BorderColor $DARK_DARK
	FontColor #fff200
}

skinparam component {
		FontColor #fff200
	BorderColor #262626
	BackgroundColor #595959-#262626
}

skinparam interface {
	BackgroundColor  #cc0000
	BorderColor  #ff0000
	FontColor #484848
}

skinparam storage {
	BackgroundColor #ff8000
  	BorderColor #cc6600
	FontColor #222222
}

skinparam node {
	BackgroundColor black
	BorderColor #595959
	FontColor #fff200
}

skinparam cloud {
	BackgroundColor #484848-black
	BorderColor #484848
	FontColor #fff200
}

skinparam database {
		FontColor #fff200
	BorderColor #262626
	BackgroundColor #595959-#262626
	BackgroundColor  black
}

skinparam class {
		FontColor #fff200
	BorderColor #262626
	BackgroundColor #595959-#262626
	HeaderBackgroundColor #595959
	StereotypeFontColor #484848
	BorderThickness 1
	AttributeFontColor #fff200
	AttributeFontSize 11
}

skinparam object {
		FontColor #fff200
	BorderColor #262626
	BackgroundColor #595959-#262626
	StereotypeFontColor #484848
	BorderThickness 1
	AttributeFontColor #fefefe
	AttributeFontSize 11
}

skinparam usecase {
		FontColor #fff200
	BorderColor #262626
	BackgroundColor #595959-#262626
	BorderThickness 2
	StereotypeFontColor #303030
}

skinparam rectangle {
		FontColor #fff200
	BorderColor #262626
	BackgroundColor #595959-#262626
	BackgroundColor black
	BorderThickness 2
	StereotypeFontColor #303030
}

skinparam package {
		FontColor #fff200
	BorderColor #262626
	BackgroundColor #595959-#262626
	BackgroundColor black
	BorderThickness 2
}

skinparam folder {
	BackgroundColor #6d6d6d
  	BorderColor #ff8000
	FontColor #ff8000
	BorderThickness 2
}

skinparam frame {
	BackgroundColor #6d6d6d
  	BorderColor #0060a8
	FontColor #0060a8
	BorderThickness 2
}

skinparam state {
		FontColor #fff200
	BorderColor #262626
	BackgroundColor #595959-#262626
	StartColor #0060a8
	EndColor #0060a8
	AttributeFontColor #fefefe
	AttributeFontSize 11
}

skinparam queue {
		FontColor #fff200
	BorderColor #262626
	BackgroundColor #595959-#262626
}

skinparam card {
	BackgroundColor #0060a8
	BorderColor #004d86
	FontColor $INFO_TEXT
}

skinparam file {
	BackgroundColor #6d6d6d-#484848
	BorderColor #0060a8
	FontColor #fefefe
}

skinparam stack {
		FontColor #fff200
	BorderColor #262626
	BackgroundColor #595959-#262626
}


title Sequence Diagram - black-knight theme


autonumber "<b>[000]"

header Page Header
footer Page %page% of %lastpage%

actor Foo1
boundary Foo2
control Foo3
entity Foo4
database Foo5
collections Foo6
participant Bob
participant Alice << (C,#ADD1B2) Testable >>

box "Internal Service"
	participant Bob
	participant Alice
end box

== Initialization ==
Foo1 -> Foo2 : To boundary
|||
Foo2 -> Foo3 ++: To control
ref over Foo4, Foo5
  This can be on
  several lines
end ref
Foo3 -> Foo4 : To entity

Foo4 -> Foo5 : To database
Foo5 - -> Foo3 - - : return
Foo3 - -> Foo2 - -: return
... Some ~~long delay~~ ...
Foo1 -> Foo6 : To collections
Foo6 - -> Foo4:   <font color=#00FF00><b>success


alt successful case

Foo1 -> Alice: Authentication Accepted
Alice - -> Foo1: success

note left of Alice: this is a first note

else some kind of failure

	Foo1 -> Alice: Authentication Failure
    Alice - -> Foo1:   <font color=#ff0000><b>Bad request
	group My own label
	    loop 1000 times
	        Alice -> Foo1: DNS Attack
	    end
	end
	
else Just a Warning

   Foo1 -> Alice:   <font color=#ff8000><b>Please repeat
   
end

note over Foo1, Foo2
this is a second note
that is really
long
end note

@enduml

PlantUML version 1.2019.12(Sun Nov 03 02:24:54 PST 2019)
(GPL source distribution)
Java Runtime: Java(TM) SE Runtime Environment
JVM: Java HotSpot(TM) 64-Bit Server VM
Java Version: 1.8.0_212-b32
Operating System: Windows 10
Default Encoding: Cp1252
Language: en
Country: US
--></g></svg>