<?xml version="1.0" encoding="UTF-8" standalone="no"?><svg xmlns="http://www.w3.org/2000/svg" xmlns:xlink="http://www.w3.org/1999/xlink" contentScriptType="application/ecmascript" contentStyleType="text/css" height="483.3333px" preserveAspectRatio="none" style="width:621px;height:483px;background:#000000;" version="1.1" viewBox="0 0 621 483" width="621.875px" zoomAndPan="magnify"><defs><linearGradient id="g175suvahzj3340" x1="50%" x2="50%" y1="0%" y2="100%"><stop offset="0%" stop-color="#151515"/><stop offset="100%" stop-color="#000000"/></linearGradient><linearGradient id="g175suvahzj3341" x1="50%" x2="50%" y1="0%" y2="100%"><stop offset="0%" stop-color="#D3F198"/><stop offset="100%" stop-color="#B5E853"/></linearGradient></defs><g><rect fill="url(#g175suvahzj3340)" height="47.0378" rx="4.1667" ry="4.1667" style="stroke: #B5E853; stroke-width: 1.0416666666666667;" width="315.625" x="156.25" y="5.2083"/><text fill="#B5E853" font-family="&quot;Verdana&quot;" font-size="20.8333" font-weight="bold" lengthAdjust="spacingAndGlyphs" textLength="294.7917" x="166.6667" y="37.2518">Class Diagram - hacker theme</text><!--MD5=[b4fa10df80476353258f72a232547d63]
class AbstractList--><rect fill="url(#g175suvahzj3341)" height="52.6917" id="AbstractList" rx="20.8333" ry="20.8333" style="stroke: #D3F198; stroke-width: 1.0416666666666667;" width="116.6667" x="196.3542" y="255.3711"/><ellipse cx="210.9375" cy="273.3836" fill="#A6BA7A" rx="10.4167" ry="10.4167" style="stroke: #FFFFFF; stroke-width: 1.0416666666666667;"/><path d="M212.5651,275.532 L209.5378,275.532 L209.2285,276.297 L209.5378,276.297 Q209.9772,276.297 210.1725,276.4679 Q210.3678,276.6388 210.3678,276.9318 Q210.3678,277.2085 210.1725,277.3794 Q209.9772,277.5503 209.5378,277.5503 L207.8451,277.5503 Q207.3893,277.5503 207.2021,277.3794 Q207.015,277.2085 207.015,276.9155 Q207.015,276.6388 207.2184,276.4598 Q207.4219,276.2807 207.8776,276.297 L209.847,271.3979 L209.0332,271.3979 Q208.5775,271.3979 208.3822,271.227 Q208.1868,271.0561 208.1868,270.7794 Q208.1868,270.4865 208.3822,270.3156 Q208.5775,270.1447 209.0332,270.1447 L211.735,270.1447 L214.2253,276.297 Q214.6647,276.297 214.7949,276.3947 Q215.0879,276.59 215.0879,276.9318 Q215.0879,277.2085 214.8926,277.3794 Q214.6973,277.5503 214.2578,277.5503 L212.5651,277.5503 Q212.1094,277.5503 211.9222,277.3794 Q211.735,277.2085 211.735,276.9155 Q211.735,276.6388 211.9222,276.4679 Q212.1094,276.297 212.5651,276.297 L212.8743,276.297 L212.5651,275.532 Z M212.0605,274.2788 L211.0514,271.8048 L210.026,274.2788 L212.0605,274.2788 Z "/><text fill="#151515" font-family="Verdana" font-size="12.5" font-style="italic" lengthAdjust="spacingAndGlyphs" textLength="75" x="229.6875" y="278.3549">AbstractList</text><line style="stroke: #D3F198; stroke-width: 1.0416666666666667;" x1="197.3958" x2="311.9792" y1="291.3961" y2="291.3961"/><line style="stroke: #D3F198; stroke-width: 1.0416666666666667;" x1="197.3958" x2="311.9792" y1="299.7294" y2="299.7294"/><!--MD5=[8e34b16d8d8f96f4a11290cd523ed859]
class AbstractCollection--><rect fill="url(#g175suvahzj3341)" height="52.6917" id="AbstractCollection" rx="20.8333" ry="20.8333" style="stroke: #D3F198; stroke-width: 1.0416666666666667;" width="153.125" x="6.25" y="255.3711"/><ellipse cx="20.8333" cy="273.3836" fill="#A6BA7A" rx="10.4167" ry="10.4167" style="stroke: #FFFFFF; stroke-width: 1.0416666666666667;"/><path d="M22.4609,275.532 L19.4336,275.532 L19.1243,276.297 L19.4336,276.297 Q19.873,276.297 20.0684,276.4679 Q20.2637,276.6388 20.2637,276.9318 Q20.2637,277.2085 20.0684,277.3794 Q19.873,277.5503 19.4336,277.5503 L17.7409,277.5503 Q17.2852,277.5503 17.098,277.3794 Q16.9108,277.2085 16.9108,276.9155 Q16.9108,276.6388 17.1143,276.4598 Q17.3177,276.2807 17.7734,276.297 L19.7428,271.3979 L18.929,271.3979 Q18.4733,271.3979 18.278,271.227 Q18.0827,271.0561 18.0827,270.7794 Q18.0827,270.4865 18.278,270.3156 Q18.4733,270.1447 18.929,270.1447 L21.6309,270.1447 L24.1211,276.297 Q24.5605,276.297 24.6908,276.3947 Q24.9837,276.59 24.9837,276.9318 Q24.9837,277.2085 24.7884,277.3794 Q24.5931,277.5503 24.1536,277.5503 L22.4609,277.5503 Q22.0052,277.5503 21.818,277.3794 Q21.6309,277.2085 21.6309,276.9155 Q21.6309,276.6388 21.818,276.4679 Q22.0052,276.297 22.4609,276.297 L22.7702,276.297 L22.4609,275.532 Z M21.9564,274.2788 L20.9473,271.8048 L19.9219,274.2788 L21.9564,274.2788 Z "/><text fill="#151515" font-family="Verdana" font-size="12.5" font-style="italic" lengthAdjust="spacingAndGlyphs" textLength="111.4583" x="39.5833" y="278.3549">AbstractCollection</text><line style="stroke: #D3F198; stroke-width: 1.0416666666666667;" x1="7.2917" x2="158.3333" y1="291.3961" y2="291.3961"/><line style="stroke: #D3F198; stroke-width: 1.0416666666666667;" x1="7.2917" x2="158.3333" y1="299.7294" y2="299.7294"/><!--MD5=[3d4177ac58b4411586d067f34e84928f]
class List--><rect fill="url(#g175suvahzj3341)" height="52.6917" id="List" rx="20.8333" ry="20.8333" style="stroke: #D3F198; stroke-width: 1.0416666666666667;" width="64.5833" x="208.8542" y="103.2878"/><ellipse cx="223.4375" cy="121.3003" fill="#BD6768" rx="10.4167" ry="10.4167" style="stroke: #FFFFFF; stroke-width: 1.0416666666666667;"/><path d="M224.6908,119.3146 L224.6908,124.2137 L225.9603,124.2137 Q226.3997,124.2137 226.5951,124.3846 Q226.7904,124.5555 226.7904,124.8484 Q226.7904,125.1251 226.5951,125.296 Q226.3997,125.4669 225.9603,125.4669 L222.168,125.4669 Q221.7285,125.4669 221.5332,125.296 Q221.3379,125.1251 221.3379,124.8322 Q221.3379,124.5555 221.5332,124.3846 Q221.7285,124.2137 222.168,124.2137 L223.4375,124.2137 L223.4375,119.3146 L222.168,119.3146 Q221.7285,119.3146 221.5332,119.1437 Q221.3379,118.9728 221.3379,118.6961 Q221.3379,118.4031 221.5332,118.2322 Q221.7285,118.0613 222.168,118.0613 L225.9603,118.0613 Q226.3997,118.0613 226.5951,118.2322 Q226.7904,118.4031 226.7904,118.6961 Q226.7904,118.9728 226.5951,119.1437 Q226.3997,119.3146 225.9603,119.3146 L224.6908,119.3146 Z "/><text fill="#151515" font-family="Verdana" font-size="12.5" font-style="italic" lengthAdjust="spacingAndGlyphs" textLength="22.9167" x="242.1875" y="126.2716">List</text><line style="stroke: #D3F198; stroke-width: 1.0416666666666667;" x1="209.8958" x2="272.3958" y1="139.3127" y2="139.3127"/><line style="stroke: #D3F198; stroke-width: 1.0416666666666667;" x1="209.8958" x2="272.3958" y1="147.6461" y2="147.6461"/><!--MD5=[c160724f8e3bb89ca8141a12554ac2e3]
class Collection--><rect fill="url(#g175suvahzj3341)" height="52.6917" id="Collection" rx="20.8333" ry="20.8333" style="stroke: #D3F198; stroke-width: 1.0416666666666667;" width="101.0417" x="44.7917" y="103.2878"/><ellipse cx="59.375" cy="121.3003" fill="#BD6768" rx="10.4167" ry="10.4167" style="stroke: #FFFFFF; stroke-width: 1.0416666666666667;"/><path d="M60.6283,119.3146 L60.6283,124.2137 L61.8978,124.2137 Q62.3372,124.2137 62.5326,124.3846 Q62.7279,124.5555 62.7279,124.8484 Q62.7279,125.1251 62.5326,125.296 Q62.3372,125.4669 61.8978,125.4669 L58.1055,125.4669 Q57.666,125.4669 57.4707,125.296 Q57.2754,125.1251 57.2754,124.8322 Q57.2754,124.5555 57.4707,124.3846 Q57.666,124.2137 58.1055,124.2137 L59.375,124.2137 L59.375,119.3146 L58.1055,119.3146 Q57.666,119.3146 57.4707,119.1437 Q57.2754,118.9728 57.2754,118.6961 Q57.2754,118.4031 57.4707,118.2322 Q57.666,118.0613 58.1055,118.0613 L61.8978,118.0613 Q62.3372,118.0613 62.5326,118.2322 Q62.7279,118.4031 62.7279,118.6961 Q62.7279,118.9728 62.5326,119.1437 Q62.3372,119.3146 61.8978,119.3146 L60.6283,119.3146 Z "/><text fill="#151515" font-family="Verdana" font-size="12.5" font-style="italic" lengthAdjust="spacingAndGlyphs" textLength="59.375" x="78.125" y="126.2716">Collection</text><line style="stroke: #D3F198; stroke-width: 1.0416666666666667;" x1="45.8333" x2="144.7917" y1="139.3127" y2="139.3127"/><line style="stroke: #D3F198; stroke-width: 1.0416666666666667;" x1="45.8333" x2="144.7917" y1="147.6461" y2="147.6461"/><!--MD5=[ab8871ed637f40707b866ba6597734bc]
class ArrayList--><rect fill="url(#g175suvahzj3341)" height="101.3763" id="ArrayList" rx="20.8333" ry="20.8333" style="stroke: #D3F198; stroke-width: 1.0416666666666667;" width="152.0833" x="178.6458" y="370.9961"/><ellipse cx="217.1354" cy="389.0086" fill="#557F91" rx="10.4167" ry="10.4167" style="stroke: #88B2C4; stroke-width: 1.0416666666666667;"/><path d="M218.6816,386.0952 Q218.7956,385.9324 218.9339,385.851 Q219.0723,385.7697 219.235,385.7697 Q219.5117,385.7697 219.6826,385.965 Q219.8535,386.1603 219.8535,386.5997 L219.8535,387.674 Q219.8535,388.1134 219.6826,388.3087 Q219.5117,388.504 219.235,388.504 Q218.9746,388.504 218.8281,388.3575 Q218.6816,388.2273 218.6003,387.8367 Q218.5677,387.5763 218.4375,387.4461 Q218.1771,387.1694 217.7295,387.0066 Q217.2819,386.8439 216.8262,386.8439 Q216.2728,386.8439 215.8008,387.088 Q215.3288,387.3322 214.9707,387.8774 Q214.6126,388.4226 214.6126,389.1876 L214.6126,390.0014 Q214.6126,390.8966 215.2718,391.4988 Q215.931,392.101 217.0866,392.101 Q217.7865,392.101 218.2747,391.922 Q218.5514,391.8081 218.8607,391.4825 Q219.056,391.2872 219.1699,391.2303 Q219.2839,391.1733 219.4141,391.1733 Q219.6745,391.1733 219.8617,391.3605 Q220.0488,391.5476 220.0488,391.8081 Q220.0488,392.0685 219.7884,392.3615 Q219.4141,392.7846 218.8281,393.0288 Q218.0469,393.3543 217.1029,393.3543 Q215.9798,393.3543 215.1009,392.8986 Q214.3685,392.5405 213.8639,391.743 Q213.3594,390.9454 213.3594,390.0177 L213.3594,389.1713 Q213.3594,388.1948 213.8151,387.3484 Q214.2708,386.5021 215.0765,386.0463 Q215.8822,385.5906 216.7773,385.5906 Q217.3307,385.5906 217.8027,385.7127 Q218.2747,385.8348 218.6816,386.0952 Z "/><text fill="#151515" font-family="Verdana" font-size="12.5" lengthAdjust="spacingAndGlyphs" textLength="57.2917" x="241.1979" y="393.9799">ArrayList</text><line style="stroke: #D3F198; stroke-width: 1.0416666666666667;" x1="179.6875" x2="329.6875" y1="407.0211" y2="407.0211"/><text fill="#151515" font-family="Verdana" font-size="11.4583" lengthAdjust="spacingAndGlyphs" textLength="129.1667" x="190.1042" y="427.916">Object[] elementData</text><line style="stroke: #D3F198; stroke-width: 1.0416666666666667;" x1="179.6875" x2="329.6875" y1="439.6968" y2="439.6968"/><text fill="#151515" font-family="Verdana" font-size="11.4583" lengthAdjust="spacingAndGlyphs" textLength="33.3333" x="190.1042" y="460.5916">size()</text><!--MD5=[15b68e006199004da79ea2a4d117d8e9]
class TimeUnit--><rect fill="url(#g175suvahzj3341)" height="125.7187" id="TimeUnit" rx="20.8333" ry="20.8333" style="stroke: #D3F198; stroke-width: 1.0416666666666667;" width="97.9167" x="309.8958" y="66.8294"/><ellipse cx="324.4792" cy="84.8419" fill="#F6CC91" rx="10.4167" ry="10.4167" style="stroke: #FFFFFF; stroke-width: 1.0416666666666667;"/><path d="M324.349,85.9161 L324.349,87.7553 L327.5391,87.7553 L327.5391,87.0717 Q327.5391,86.6323 327.71,86.437 Q327.8809,86.2417 328.1576,86.2417 Q328.4342,86.2417 328.6133,86.437 Q328.7923,86.6323 328.7923,87.0717 L328.7923,89.0086 L322.9004,89.0086 Q322.4447,89.0086 322.2493,88.8377 Q322.054,88.6668 322.054,88.3738 Q322.054,88.0971 322.2493,87.9262 Q322.4447,87.7553 322.9004,87.7553 L323.0957,87.7553 L323.0957,82.8562 L322.9004,82.8562 Q322.4447,82.8562 322.2493,82.6853 Q322.054,82.5144 322.054,82.2378 Q322.054,81.9448 322.2493,81.7739 Q322.4447,81.603 322.9004,81.603 L328.5156,81.603 L328.5156,83.5073 Q328.5156,83.963 328.3447,84.1502 Q328.1738,84.3374 327.8809,84.3374 Q327.6042,84.3374 327.4333,84.1502 Q327.2624,83.963 327.2624,83.5073 L327.2624,82.8562 L324.349,82.8562 L324.349,84.6629 L325.4395,84.6629 Q325.4395,84.1746 325.5371,84.0444 Q325.7161,83.7351 326.0742,83.7351 Q326.3509,83.7351 326.5218,83.9305 Q326.6927,84.1258 326.6927,84.5815 L326.6927,86.0138 Q326.6927,86.4207 326.5951,86.5672 Q326.3997,86.8601 326.0742,86.8601 Q325.7161,86.8601 325.5371,86.5509 Q325.4395,86.4207 325.4395,85.9161 L324.349,85.9161 Z "/><text fill="#151515" font-family="Verdana" font-size="12.5" lengthAdjust="spacingAndGlyphs" textLength="56.25" x="343.2292" y="89.8132">TimeUnit</text><line style="stroke: #D3F198; stroke-width: 1.0416666666666667;" x1="310.9375" x2="406.7708" y1="102.8544" y2="102.8544"/><text fill="#151515" font-family="Verdana" font-size="11.4583" lengthAdjust="spacingAndGlyphs" textLength="33.3333" x="321.3542" y="123.7493">DAYS</text><text fill="#151515" font-family="Verdana" font-size="11.4583" lengthAdjust="spacingAndGlyphs" textLength="42.7083" x="321.3542" y="148.0916">HOURS</text><text fill="#151515" font-family="Verdana" font-size="11.4583" lengthAdjust="spacingAndGlyphs" textLength="54.1667" x="321.3542" y="172.434">MINUTES</text><line style="stroke: #D3F198; stroke-width: 1.0416666666666667;" x1="310.9375" x2="406.7708" y1="184.2148" y2="184.2148"/><!--MD5=[0c8287f799745f7b534bf75518604c1e]
class SuppressWarnings--><rect fill="url(#g175suvahzj3341)" height="52.6917" id="SuppressWarnings" rx="20.8333" ry="20.8333" style="stroke: #D3F198; stroke-width: 1.0416666666666667;" width="165.625" x="444.7917" y="103.2878"/><ellipse cx="459.375" cy="121.3003" fill="#BB91B2" rx="10.4167" ry="10.4167" style="stroke: #FFFFFF; stroke-width: 1.0416666666666667;"/><path d="M460.7585,119.4936 L460.7585,119.103 Q460.7585,118.5008 460.4085,118.1346 Q460.0586,117.7684 459.5052,117.7684 Q459.0658,117.7684 458.6833,118.0613 Q458.3008,118.3543 458.1055,118.81 Q457.7474,119.6238 457.7474,120.4213 L457.7474,122.2768 Q457.7474,123.6928 458.3822,124.5229 Q458.8053,125.0763 459.5378,125.0763 Q459.9447,125.0763 460.2783,124.9705 Q460.612,124.8647 460.791,124.6775 Q460.9701,124.4904 461.1328,124.4904 Q461.3281,124.4904 461.4583,124.6287 Q461.5885,124.767 461.5885,124.9786 Q461.5885,125.2716 461.1816,125.5646 Q460.5632,125.9878 459.5052,125.9878 Q458.7077,125.9878 458.1706,125.6134 Q457.5033,125.1414 457.1696,124.2137 Q456.8359,123.2859 456.8359,122.3745 L456.8359,120.3562 Q456.8359,118.8914 457.5602,117.866 Q458.2845,116.8406 459.4889,116.8406 Q460.026,116.8406 460.5143,117.0685 Q461.0026,117.2963 461.3444,117.8579 Q461.6862,118.4194 461.6862,119.103 L461.6862,122.4396 Q461.9466,122.5698 461.9466,122.8465 Q461.9466,123.0581 461.8001,123.1964 Q461.6536,123.3348 461.3118,123.3348 L460.7585,123.3348 L460.7585,123.2859 Q460.4655,123.3348 460.3353,123.3348 Q459.6029,123.3348 459.0576,122.7895 Q458.5124,122.2443 458.5124,121.5118 Q458.5124,120.7306 459.1146,120.1447 Q459.7168,119.5587 460.7585,119.4936 Z M460.7585,120.4376 Q460.1074,120.5027 459.7656,120.812 Q459.4238,121.1212 459.4238,121.5281 Q459.4238,121.8699 459.7087,122.1303 Q459.9935,122.3907 460.4655,122.3907 Q460.5469,122.3907 460.7585,122.3745 L460.7585,120.4376 Z "/><text fill="#151515" font-family="Verdana" font-size="12.5" lengthAdjust="spacingAndGlyphs" textLength="123.9583" x="478.125" y="126.2716">SuppressWarnings</text><line style="stroke: #D3F198; stroke-width: 1.0416666666666667;" x1="445.8333" x2="609.375" y1="139.3127" y2="139.3127"/><line style="stroke: #D3F198; stroke-width: 1.0416666666666667;" x1="445.8333" x2="609.375" y1="147.6461" y2="147.6461"/><!--MD5=[00308d07b6a5721fb0cf5861877e6652]
reverse link List to AbstractList--><path d="M245.3813,177.8023 C247.6781,203.2534 250.4313,233.7492 252.3448,254.9409 " fill="none" id="List&lt;-AbstractList" style="stroke: #B5E853; stroke-width: 3.125;"/><polygon fill="none" points="238.0844,178.0826,243.474,156.6773,252.6094,176.7711,238.0844,178.0826" style="stroke: #B5E853; stroke-width: 3.125;"/><!--MD5=[1822909749df1453bdd84de7a60a3406]
reverse link Collection to AbstractCollection--><path d="M91.4033,177.8023 C89.2824,203.2534 86.741,233.7492 84.9751,254.9409 " fill="none" id="Collection&lt;-AbstractCollection" style="stroke: #B5E853; stroke-width: 3.125;"/><polygon fill="none" points="84.167,176.8336,93.1636,156.6773,98.6999,178.0451,84.167,176.8336" style="stroke: #B5E853; stroke-width: 3.125;"/><!--MD5=[0159284274f96a472eb2618ad803aaca]
reverse link Collection to List--><path d="M167.1104,129.8503 C181.0115,129.8503 194.9135,129.8503 208.8156,129.8503 " fill="none" id="Collection&lt;-List" style="stroke: #B5E853; stroke-width: 3.125;"/><polygon fill="none" points="166.8458,137.1419,146.0125,129.8503,166.8458,122.5586,166.8458,137.1419" style="stroke: #B5E853; stroke-width: 3.125;"/><!--MD5=[7a3a52e8f65ef1a8d8d29530ea5cd870]
reverse link AbstractCollection to AbstractList--><path d="M180.7115,281.9336 C185.826,281.9336 190.9396,281.9336 196.0542,281.9336 " fill="none" id="AbstractCollection&lt;-AbstractList" style="stroke: #B5E853; stroke-width: 3.125;"/><polygon fill="none" points="180.5198,289.2253,159.6865,281.9336,180.5198,274.6419,180.5198,289.2253" style="stroke: #B5E853; stroke-width: 3.125;"/><!--MD5=[40e4bb1af59cca28d4643aaff05088cc]
reverse link AbstractList to ArrayList--><path d="M254.6875,329.3701 C254.6875,342.7138 254.6875,357.318 254.6875,370.849 " fill="none" id="AbstractList&lt;-ArrayList" style="stroke: #B5E853; stroke-width: 3.125;"/><polygon fill="none" points="247.3958,329.3492,254.6875,308.5159,261.9792,329.3492,247.3958,329.3492" style="stroke: #B5E853; stroke-width: 3.125;"/><!--MD5=[da9a7682eb0199063594b2e7da205346]
@startuml



skinparam backgroundColor black
skinparam useBetaStyle true







skinparam defaultFontName       "Verdana"
skinparam defaultFontSize       12
skinparam dpi                   100
skinparam shadowing             false
skinparam roundcorner           40
skinparam ParticipantPadding    40
skinparam BoxPadding            40
skinparam Padding               5
skinparam ArrowColor            #eaeaea
skinparam stereotype {
    CBackgroundColor #557f91
    CBorderColor #88b2c4
    ABackgroundColor #a6ba7a
    ABorderColor $SUCCESS_DARK
    IBackgroundColor #bd6768
    IBorderColor $DANGER_DARK
    EBackgroundColor #f6cc91
    EBorderColor $WARNING_DARK
    NBackgroundColor #bb91b2
    NBorderColor $INFO_DARK
}
skinparam title {
	FontColor	                 #b5e853
	BorderColor	                 #b5e853
	FontSize	    	         20
	BorderRoundCorner            8
	BorderThickness 	         1
	BackgroundColor              #151515-black
}


skinparam legend {
	BackgroundColor #6a9fb5
	BorderColor #557f91
	FontColor #eaeaea
}

skinparam activity {
		FontColor #151515
	BorderColor #d3f198
	BackgroundColor #d3f198-#b5e853
	BarColor #90a959
	StartColor #aa759f
	EndColor #aa759f
	DiamondBackgroundColor #88b2c4-#6a9fb5
  	DiamondBorderColor #88b2c4
  	DiamondFontColor #fefefe
}

skinparam participant {
		FontColor #151515
	BorderColor #d3f198
	BackgroundColor #d3f198-#b5e853
	ParticipantBorderThickness 2
}

skinparam actor {
		FontColor #151515
	BorderColor #d3f198
	BackgroundColor #d3f198-#b5e853
}

skinparam arrow {
	Thickness 3
	Color #b5e853
	FontColor $FGCOLOR
}

skinparam sequence {
	BorderColor #b5e853
	TitleFontColor #b5e853
	BackgroundColor black
	StartColor #b5e853
	EndColor #b5e853
	BoxBackgroundColor black
	BoxBorderColor #eaeaea
	BoxFontColor $DARk
	LifeLineBorderColor #6a9fb5
	LifeLineBorderThickness 2
	LifeLineBackgroundColor #557f91
	GroupBackgroundColor #151515
	GroupBorderColor #eaeaea
	GroupFontColor #eaeaea
	GroupHeaderFontColor #aa759f
	DividerBackgroundColor #eaeaea
    DividerBorderColor #eaeaea
    DividerBorderThickness 2
    DividerFontColor #151515
	ReferenceBackgroundColor #151515
	ReferenceBorderColor #eaeaea
	ReferenceFontColor #eaeaea
	ReferenceHeaderBackgroundColor #151515
}

skinparam partition {
	BorderColor #b5e853
	FontColor #b5e853
	BackgroundColor #151515-black
}

skinparam collections {
		FontColor #151515
	BorderColor #d3f198
	BackgroundColor #d3f198-#b5e853
}

skinparam control {
		FontColor #151515
	BorderColor #d3f198
	BackgroundColor #d3f198-#b5e853
	FontColor #eaeaea
}

skinparam entity {
		FontColor #151515
	BorderColor #d3f198
	BackgroundColor #d3f198-#b5e853
	FontColor #eaeaea
}

skinparam boundary {
		FontColor #151515
	BorderColor #d3f198
	BackgroundColor #d3f198-#b5e853
	FontColor #eaeaea
}

skinparam agent {
	BackgroundColor #f6cc91-#f4bf75
	BorderColor #f6cc91
	FontColor #eaeaea
}

skinparam note {
	BorderThickness 1
	BackgroundColor #bb91b2-#aa759f
	BorderColor #bb91b2
	FontColor $WHITE
}

skinparam artifact {
	BackgroundColor #eaeaea
	BorderColor white
	FontColor #151515
}

skinparam component {
		FontColor #151515
	BorderColor #d3f198
	BackgroundColor #d3f198-#b5e853
}

skinparam interface {
	BackgroundColor  #bd6768-#ac4142
	BorderColor  #bd6768
	FontColor #eaeaea
}

skinparam storage {
	BackgroundColor #f6cc91-#f4bf75
  	BorderColor #f6cc91
	FontColor #151515
}

skinparam node {
	BackgroundColor  #151515-black
	BorderColor #d3f198
	FontColor #eaeaea
}

skinparam cloud {
	BackgroundColor #151515-black
	BorderColor #151515
	FontColor #eaeaea
}

skinparam database {
	BackgroundColor  #151515-black
	BorderColor #d3f198
	FontColor #eaeaea
}

skinparam class {
		FontColor #151515
	BorderColor #d3f198
	BackgroundColor #d3f198-#b5e853
	HeaderBackgroundColor #d3f198-#b5e853
	StereotypeFontColor #eaeaea
	BorderThickness 1
	AttributeFontColor #151515
	AttributeFontSize 11
}

skinparam object {
		FontColor #151515
	BorderColor #d3f198
	BackgroundColor #d3f198-#b5e853
	StereotypeFontColor #eaeaea
	BorderThickness 1
	AttributeFontColor #151515
	AttributeFontSize 11
}

skinparam usecase {
		FontColor #151515
	BorderColor #d3f198
	BackgroundColor #d3f198-#b5e853
	BorderThickness 2
	StereotypeFontColor #b5e853
}

skinparam rectangle {
	BackgroundColor black
	BorderColor #b5e853
	BorderThickness 2
	FontColor #6d8b32
	StereotypeFontColor #b5e853
}

skinparam package {
	BackgroundColor #151515
  	BorderColor #b5e853
	FontColor #b5e853
	BorderThickness 2
}

skinparam folder {
	BackgroundColor #151515-black
  	BorderColor #f4bf75
	FontColor #f4bf75
	BorderThickness 2
}

skinparam frame {
	BackgroundColor #151515-black
  	BorderColor #aa759f
	FontColor #aa759f
	BorderThickness 2
}

skinparam state {
		FontColor #151515
	BorderColor #d3f198
	BackgroundColor #d3f198-#b5e853
	StartColor #aa759f
	EndColor #aa759f
	AttributeFontColor #fefefe
	AttributeFontSize 11
}

skinparam queue {
		FontColor #151515
	BorderColor #d3f198
	BackgroundColor #d3f198-#b5e853
}

skinparam card {
	BackgroundColor #bb91b2-#aa759f
	BorderColor #bb91b2
	FontColor $INFO_TEXT
}

skinparam file {
	BackgroundColor #88b2c4-#6a9fb5
	BorderColor #88b2c4
	FontColor #eaeaea
}

skinparam stack {
		FontColor #151515
	BorderColor #d3f198
	BackgroundColor #d3f198-#b5e853
}



title Class Diagram - hacker theme


abstract class AbstractList
abstract AbstractCollection
interface List
interface Collection

List <|- - AbstractList
Collection <|- - AbstractCollection

Collection <|- List
AbstractCollection <|- AbstractList
AbstractList <|- - ArrayList

class ArrayList {
  Object[] elementData
  size()
}

enum TimeUnit {
  DAYS
  HOURS
  MINUTES
}

annotation SuppressWarnings

@enduml

PlantUML version 1.2019.12(Sun Nov 03 02:24:54 PST 2019)
(GPL source distribution)
Java Runtime: Java(TM) SE Runtime Environment
JVM: Java HotSpot(TM) 64-Bit Server VM
Java Version: 1.8.0_212-b32
Operating System: Windows 10
Default Encoding: Cp1252
Language: en
Country: US
--></g></svg>