<?xml version="1.0" encoding="UTF-8" standalone="no"?><svg xmlns="http://www.w3.org/2000/svg" xmlns:xlink="http://www.w3.org/1999/xlink" contentScriptType="application/ecmascript" contentStyleType="text/css" height="703.125px" preserveAspectRatio="none" style="width:868px;height:703px;background:#000000;" version="1.1" viewBox="0 0 868 703" width="868.75px" zoomAndPan="magnify"><defs><linearGradient id="gkob2mn70lad00" x1="50%" x2="50%" y1="0%" y2="100%"><stop offset="0%" stop-color="#151515"/><stop offset="100%" stop-color="#000000"/></linearGradient><linearGradient id="gkob2mn70lad01" x1="50%" x2="50%" y1="0%" y2="100%"><stop offset="0%" stop-color="#BD6768"/><stop offset="100%" stop-color="#AC4142"/></linearGradient><linearGradient id="gkob2mn70lad02" x1="50%" x2="50%" y1="0%" y2="100%"><stop offset="0%" stop-color="#D3F198"/><stop offset="100%" stop-color="#B5E853"/></linearGradient><linearGradient id="gkob2mn70lad03" x1="50%" x2="50%" y1="0%" y2="100%"><stop offset="0%" stop-color="#F6CC91"/><stop offset="100%" stop-color="#F4BF75"/></linearGradient><linearGradient id="gkob2mn70lad04" x1="50%" x2="50%" y1="0%" y2="100%"><stop offset="0%" stop-color="#BB91B2"/><stop offset="100%" stop-color="#AA759F"/></linearGradient><linearGradient id="gkob2mn70lad05" x1="50%" x2="50%" y1="0%" y2="100%"><stop offset="0%" stop-color="#88B2C4"/><stop offset="100%" stop-color="#6A9FB5"/></linearGradient></defs><g><rect fill="url(#gkob2mn70lad00)" height="47.0378" rx="4.1667" ry="4.1667" style="stroke: #B5E853; stroke-width: 1.0416666666666667;" width="375" x="250" y="5.2083"/><text fill="#B5E853" font-family="&quot;Verdana&quot;" font-size="20.8333" font-weight="bold" lengthAdjust="spacingAndGlyphs" textLength="354.1667" x="260.4167" y="37.2518">Component Diagram - hacker theme</text><!--MD5=[98956307d0c47524864de5bf9cdc747b]
cluster My Package--><path d="M43.75,83.4961 L101.0417,83.4961 A31.25,31.25 0 0 1 121.875,104.3294 L129.1667,115.3544 L431.25,115.3544 A20.8333,20.8333 0 0 1 452.0833,136.1877 L452.0833,170.9961 A20.8333,20.8333 0 0 1 431.25,191.8294 L43.75,191.8294 A20.8333,20.8333 0 0 1 22.9167,170.9961 L22.9167,104.3294 A20.8333,20.8333 0 0 1 43.75,83.4961 " fill="#151515" style="stroke: #B5E853; stroke-width: 1.5625;"/><line style="stroke: #B5E853; stroke-width: 1.5625;" x1="22.9167" x2="129.1667" y1="115.3544" y2="115.3544"/><text fill="#B5E853" font-family="Verdana" font-size="12.5" font-weight="bold" lengthAdjust="spacingAndGlyphs" textLength="82.2917" x="32.2917" y="103.3549">My Package</text><!--MD5=[994b84a7865cf3a30290d65f6358d5f5]
cluster My Node--><polygon fill="url(#gkob2mn70lad00)" points="23.9583,227.2461,34.375,216.8294,272.9167,216.8294,272.9167,319.9544,262.5,330.3711,23.9583,330.3711,23.9583,227.2461" style="stroke: #D3F198; stroke-width: 1.5625;"/><line style="stroke: #D3F198; stroke-width: 1.5625;" x1="262.5" x2="271.875" y1="227.2461" y2="217.8711"/><line style="stroke: #D3F198; stroke-width: 1.5625;" x1="23.9583" x2="262.5" y1="227.2461" y2="227.2461"/><line style="stroke: #D3F198; stroke-width: 1.5625;" x1="262.5" x2="262.5" y1="227.2461" y2="330.3711"/><text fill="#EAEAEA" font-family="Verdana" font-size="12.5" font-weight="bold" lengthAdjust="spacingAndGlyphs" textLength="59.375" x="114.5833" y="248.1466">My Node</text><!--MD5=[8f762177cf9f076b8ea6eac76c5df33e]
cluster My Cloud--><path d="M313.7587,232.1821 C316.598,224.2526 322.3105,224.5156 327.414,229.8514 C329.5825,222.2159 333.3082,221.335 339.1746,226.4372 C342.4351,219.9326 348.3806,218.7283 352.6955,225.3512 C355.2737,219.0108 360.8067,219.5754 364.5968,224.013 C369.311,218.2074 375.117,220.3986 377.7825,226.3172 C383.0042,220.9668 388.8461,221.3557 392.225,228.455 C396.752,223.0387 401.8488,223.5396 404.6526,230.2247 C413.4632,224.3652 421.0418,226.4917 422.9167,237.6628 C423.4775,237.2229 424.0177,237.2744 424.1854,238.0673 C432.1618,240.3657 433.3901,246.559 427.7769,252.2892 C434.2976,253.6169 436.6886,259.3493 431.65,264.3799 C437.9392,268.0639 437.9386,272.2909 432.9694,277.1392 C436.8011,282.8358 437.1077,287.1565 429.4109,289.5467 C434.9413,295.4188 434.4666,300.1741 426.7027,303.4583 C430.6111,314.3421 428.9135,321.4073 415.625,322.0378 C416.3618,321.1376 416.9366,321.1756 417.4632,322.2349 C414.8784,328.3656 409.5485,329.8588 404.4696,325.2536 C402.1737,332.9775 396.0466,333.7791 391.2754,327.6033 C388.1258,334.7829 382.2774,335.9283 377.7483,328.9186 C374.9768,334.6647 370.2704,335.7602 366.4819,329.9064 C362.2229,337.0495 355.8741,337.2916 352.1159,329.427 C347.7057,333.6608 343.2225,332.5791 341.1109,326.8803 C336.6532,332.0891 330.0892,331.2143 327.9233,324.3724 C318.3726,331.0621 307.0685,327.7166 306.25,314.7461 C306.8206,314.4387 307.1829,314.733 307.2636,315.3085 C300.7348,312.3744 299.5428,308.5798 304.7326,303.1969 C299.0912,300.716 297.0703,296.1096 302.2119,291.3369 C295.5242,289.4669 293.4747,283.8248 297.9801,278.3167 C292.2709,271.919 295.5558,266.7654 302.4924,264.4965 C296.8344,259.1279 298.1867,255.2172 304.9586,252.3781 C298.2621,242.2986 299.0054,232.1695 313.5417,230.3711 C314.4693,230.838 314.5054,231.5146 313.7587,232.1821 " fill="url(#gkob2mn70lad00)" style="stroke: #151515; stroke-width: 1.5625;"/><text fill="#EAEAEA" font-family="Verdana" font-size="12.5" font-weight="bold" lengthAdjust="spacingAndGlyphs" textLength="62.5" x="333.3333" y="253.3549">My Cloud</text><!--MD5=[5435dd1da01795d79a1d1bdb7811705f]
cluster My Database--><path d="M280.2083,365.7878 C280.2083,355.3711 364.5833,355.3711 364.5833,355.3711 C364.5833,355.3711 448.9583,355.3711 448.9583,365.7878 L448.9583,680.3711 C448.9583,690.7878 364.5833,690.7878 364.5833,690.7878 C364.5833,690.7878 280.2083,690.7878 280.2083,680.3711 L280.2083,365.7878 " fill="url(#gkob2mn70lad00)" style="stroke: #D3F198; stroke-width: 1.5625;"/><path d="M280.2083,365.7878 C280.2083,376.2044 364.5833,376.2044 364.5833,376.2044 C364.5833,376.2044 448.9583,376.2044 448.9583,365.7878 " fill="none" style="stroke: #D3F198; stroke-width: 1.5625;"/><text fill="#EAEAEA" font-family="Verdana" font-size="12.5" font-weight="bold" lengthAdjust="spacingAndGlyphs" textLength="88.5417" x="320.3125" y="396.0632">My Database</text><!--MD5=[db3eb734e65e00defc1adec42c70b029]
cluster My folder--><path d="M326.0417,424.1211 L365.625,424.1211 A31.25,31.25 0 0 1 386.4583,444.9544 L393.75,455.9794 L403.125,455.9794 A20.8333,20.8333 0 0 1 423.9583,476.8127 L423.9583,511.6211 A20.8333,20.8333 0 0 1 403.125,532.4544 L326.0417,532.4544 A20.8333,20.8333 0 0 1 305.2083,511.6211 L305.2083,444.9544 A20.8333,20.8333 0 0 1 326.0417,424.1211 " fill="url(#gkob2mn70lad00)" style="stroke: #F4BF75; stroke-width: 1.5625;"/><line style="stroke: #F4BF75; stroke-width: 1.5625;" x1="305.2083" x2="393.75" y1="455.9794" y2="455.9794"/><text fill="#F4BF75" font-family="Verdana" font-size="12.5" font-weight="bold" lengthAdjust="spacingAndGlyphs" textLength="64.5833" x="314.5833" y="443.9799">My folder</text><!--MD5=[2f95c9c104e26437854e71862f3d840e]
cluster My Frame--><rect fill="url(#gkob2mn70lad00)" height="108.3333" rx="20.8333" ry="20.8333" style="stroke: #AA759F; stroke-width: 1.5625;" width="118.75" x="305.2083" y="557.4544"/><path d="M393.75,558.4961 L393.75,575.7711 L383.3333,586.1877 L305.2083,586.1877 " fill="none" style="stroke: #AA759F; stroke-width: 1.5625;"/><text fill="#AA759F" font-family="Verdana" font-size="12.5" font-weight="bold" lengthAdjust="spacingAndGlyphs" textLength="67.7083" x="313.5417" y="576.2716">My Frame</text><!--MD5=[96f7e1299d4a43069e6ed32352fcac20]
entity HTTP--><ellipse cx="225" cy="151.7253" fill="url(#gkob2mn70lad01)" rx="8.3333" ry="8.3333" style="stroke: #BD6768; stroke-width: 2.0833333333333335;"/><text fill="#EAEAEA" font-family="Verdana" font-size="12.5" lengthAdjust="spacingAndGlyphs" textLength="32.2917" x="208.8542" y="187.2091">HTTP</text><!--MD5=[cbd7cda55f2530e2efe43ec72c097853]
entity First Component--><rect fill="url(#gkob2mn70lad02)" height="46.4417" rx="20.8333" ry="20.8333" style="stroke: #D3F198; stroke-width: 1.5625;" width="139.5833" x="39.5833" y="128.2878"/><rect fill="url(#gkob2mn70lad02)" height="5.2083" style="stroke: #D3F198; stroke-width: 1.5625;" width="10.4167" x="34.375" y="133.4961"/><rect fill="url(#gkob2mn70lad02)" height="5.2083" style="stroke: #D3F198; stroke-width: 1.5625;" width="10.4167" x="34.375" y="164.3127"/><text fill="#151515" font-family="Verdana" font-size="12.5" lengthAdjust="spacingAndGlyphs" textLength="108.3333" x="55.2083" y="156.4799">First Component</text><!--MD5=[b9d11f23832c1491231c5b33e55ab8c6]
entity Another Component--><rect fill="url(#gkob2mn70lad02)" height="46.4417" rx="20.8333" ry="20.8333" style="stroke: #D3F198; stroke-width: 1.5625;" width="163.5417" x="271.3542" y="128.2878"/><rect fill="url(#gkob2mn70lad02)" height="5.2083" style="stroke: #D3F198; stroke-width: 1.5625;" width="10.4167" x="266.1458" y="133.4961"/><rect fill="url(#gkob2mn70lad02)" height="5.2083" style="stroke: #D3F198; stroke-width: 1.5625;" width="10.4167" x="266.1458" y="164.3127"/><text fill="#151515" font-family="Verdana" font-size="12.5" lengthAdjust="spacingAndGlyphs" textLength="132.2917" x="286.9792" y="156.4799">Another Component</text><!--MD5=[76af18d92d7d7c0f7ebd8f4f605ac5aa]
entity FTP--><ellipse cx="50" cy="290.2669" fill="url(#gkob2mn70lad01)" rx="8.3333" ry="8.3333" style="stroke: #BD6768; stroke-width: 2.0833333333333335;"/><text fill="#EAEAEA" font-family="Verdana" font-size="12.5" lengthAdjust="spacingAndGlyphs" textLength="22.9167" x="38.5417" y="325.7507">FTP</text><!--MD5=[0e2cc1aee2c7f52697e111b4fb84546c]
entity Second Component--><rect fill="url(#gkob2mn70lad02)" height="46.4417" rx="20.8333" ry="20.8333" style="stroke: #D3F198; stroke-width: 1.5625;" width="159.375" x="96.3542" y="266.8294"/><rect fill="url(#gkob2mn70lad02)" height="5.2083" style="stroke: #D3F198; stroke-width: 1.5625;" width="10.4167" x="91.1458" y="272.0378"/><rect fill="url(#gkob2mn70lad02)" height="5.2083" style="stroke: #D3F198; stroke-width: 1.5625;" width="10.4167" x="91.1458" y="302.8544"/><text fill="#151515" font-family="Verdana" font-size="12.5" lengthAdjust="spacingAndGlyphs" textLength="128.125" x="111.9792" y="295.0216">Second Component</text><!--MD5=[243c1e580c31013c48b02624e18b25a7]
entity Example 1--><rect fill="url(#gkob2mn70lad02)" height="46.4417" rx="20.8333" ry="20.8333" style="stroke: #D3F198; stroke-width: 1.5625;" width="98.9583" x="315.1042" y="266.8294"/><rect fill="url(#gkob2mn70lad02)" height="5.2083" style="stroke: #D3F198; stroke-width: 1.5625;" width="10.4167" x="309.8958" y="272.0378"/><rect fill="url(#gkob2mn70lad02)" height="5.2083" style="stroke: #D3F198; stroke-width: 1.5625;" width="10.4167" x="309.8958" y="302.8544"/><text fill="#151515" font-family="Verdana" font-size="12.5" lengthAdjust="spacingAndGlyphs" textLength="67.7083" x="330.7292" y="295.0216">Example 1</text><!--MD5=[3e0e08c92570480402984701ab5a6d2d]
entity Folder 3--><rect fill="url(#gkob2mn70lad02)" height="46.4417" rx="20.8333" ry="20.8333" style="stroke: #D3F198; stroke-width: 1.5625;" width="84.375" x="322.3958" y="468.9128"/><rect fill="url(#gkob2mn70lad02)" height="5.2083" style="stroke: #D3F198; stroke-width: 1.5625;" width="10.4167" x="317.1875" y="474.1211"/><rect fill="url(#gkob2mn70lad02)" height="5.2083" style="stroke: #D3F198; stroke-width: 1.5625;" width="10.4167" x="317.1875" y="504.9377"/><text fill="#151515" font-family="Verdana" font-size="12.5" lengthAdjust="spacingAndGlyphs" textLength="53.125" x="338.0208" y="497.1049">Folder 3</text><!--MD5=[63877ed85df621d134a6c80fb52dad56]
entity Frame 4--><rect fill="url(#gkob2mn70lad02)" height="46.4417" rx="20.8333" ry="20.8333" style="stroke: #D3F198; stroke-width: 1.5625;" width="84.375" x="322.3958" y="602.2461"/><rect fill="url(#gkob2mn70lad02)" height="5.2083" style="stroke: #D3F198; stroke-width: 1.5625;" width="10.4167" x="317.1875" y="607.4544"/><rect fill="url(#gkob2mn70lad02)" height="5.2083" style="stroke: #D3F198; stroke-width: 1.5625;" width="10.4167" x="317.1875" y="638.2711"/><text fill="#151515" font-family="Verdana" font-size="12.5" lengthAdjust="spacingAndGlyphs" textLength="53.125" x="338.0208" y="630.4382">Frame 4</text><!--MD5=[4d6c9a8b502f46c0f85d26a51e5d57ce]
entity My Artifact--><rect fill="#EAEAEA" height="49.5667" rx="20.8333" ry="20.8333" style="stroke: #FFFFFF; stroke-width: 1.5625;" width="109.375" x="472.3958" y="126.7253"/><polygon fill="#EAEAEA" points="564.0625,131.9336,564.0625,146.5169,576.5625,146.5169,576.5625,138.1836,570.3125,131.9336,564.0625,131.9336" style="stroke: #FFFFFF; stroke-width: 1.5625;"/><line style="stroke: #FFFFFF; stroke-width: 1.5625;" x1="570.3125" x2="570.3125" y1="131.9336" y2="138.1836"/><line style="stroke: #FFFFFF; stroke-width: 1.5625;" x1="576.5625" x2="570.3125" y1="138.1836" y2="138.1836"/><text fill="#151515" font-family="Verdana" font-size="12.5" lengthAdjust="spacingAndGlyphs" textLength="67.7083" x="488.0208" y="158.0424">My Artifact</text><!--MD5=[6013850653c05993d855a7b82b2ebd6f]
entity My Storage--><rect fill="url(#gkob2mn70lad03)" height="46.4417" rx="36.4583" ry="36.4583" style="stroke: #F6CC91; stroke-width: 1.5625;" width="105.2083" x="618.2292" y="128.2878"/><text fill="#151515" font-family="Verdana" font-size="12.5" lengthAdjust="spacingAndGlyphs" textLength="73.9583" x="633.8542" y="156.4799">My Storage</text><!--MD5=[decf897d207c1b699121f5d4005ef96e]
entity My Queue--><path d="M765.1042,133.4961 L851.5625,133.4961 C856.7708,133.4961 856.7708,151.5086 856.7708,151.5086 C856.7708,151.5086 856.7708,169.5211 851.5625,169.5211 L765.1042,169.5211 C759.8958,169.5211 759.8958,151.5086 759.8958,151.5086 C759.8958,151.5086 759.8958,133.4961 765.1042,133.4961 " fill="url(#gkob2mn70lad02)" style="stroke: #D3F198; stroke-width: 1.5625;"/><path d="M851.5625,133.4961 C846.3542,133.4961 846.3542,151.5086 846.3542,151.5086 C846.3542,169.5211 851.5625,169.5211 851.5625,169.5211 " fill="none" style="stroke: #D3F198; stroke-width: 1.5625;"/><text fill="#151515" font-family="Verdana" font-size="12.5" lengthAdjust="spacingAndGlyphs" textLength="65.625" x="770.3125" y="156.4799">My Queue</text><!--MD5=[db0b4290d55c456da6f1e605315daa68]
entity My Interface--><ellipse cx="527.0833" cy="290.2669" fill="url(#gkob2mn70lad01)" rx="8.3333" ry="8.3333" style="stroke: #BD6768; stroke-width: 2.0833333333333335;"/><text fill="#EAEAEA" font-family="Verdana" font-size="12.5" lengthAdjust="spacingAndGlyphs" textLength="81.25" x="486.4583" y="325.7507">My Interface</text><!--MD5=[c42dbb279bb2c76edeffd08640135261]
entity My Card--><rect fill="url(#gkob2mn70lad04)" height="31.8583" rx="20.8333" ry="20.8333" style="stroke: #BB91B2; stroke-width: 1.5625;" width="84.375" x="618.2292" y="274.1211"/><text fill="#FFFFFF" font-family="Verdana" font-size="12.5" lengthAdjust="spacingAndGlyphs" textLength="53.125" x="633.8542" y="295.0216">My Card</text><!--MD5=[4552e0ab931d4db86ba1ccdf7169c968]
entity My File--><path d="M739.5833,287.6628 L739.5833,292.4377 A20.8333,20.8333 0 0 0 760.4167,313.2711 L793.75,313.2711 A20.8333,20.8333 0 0 0 814.5833,292.4377 L814.5833,277.2461 L804.1667,266.8294 L760.4167,266.8294 A20.8333,20.8333 0 0 0 739.5833,287.6628 " fill="url(#gkob2mn70lad05)" style="stroke: #88B2C4; stroke-width: 1.5625;"/><path d="M804.1667,266.8294 L804.1667,256.4128 A20.8333,20.8333 0 0 0 825,277.2461 L814.5833,277.2461 " fill="url(#gkob2mn70lad05)" style="stroke: #88B2C4; stroke-width: 1.5625;"/><text fill="#EAEAEA" font-family="Verdana" font-size="12.5" lengthAdjust="spacingAndGlyphs" textLength="43.75" x="755.2083" y="295.0216">My File</text><!--MD5=[5a51615613d2b2569e36ac803df4b251]
entity My Stack--><rect fill="url(#gkob2mn70lad02)" height="46.4417" rx="20.8333" ry="20.8333" style="stroke: none; stroke-width: 1.5625;" width="88.5417" x="482.8125" y="468.9128"/><path d="M467.1875,468.9128 L461.9792,468.9128 A20.8333,20.8333 0 0 1 482.8125,489.7461 L482.8125,494.5211 A20.8333,20.8333 0 0 0 503.6458,515.3544 L550.5208,515.3544 A20.8333,20.8333 0 0 0 571.3542,494.5211 L571.3542,489.7461 A20.8333,20.8333 0 0 1 592.1875,468.9128 L586.9792,468.9128 " fill="none" style="stroke: #D3F198; stroke-width: 1.5625;"/><text fill="#151515" font-family="Verdana" font-size="12.5" lengthAdjust="spacingAndGlyphs" textLength="57.2917" x="498.4375" y="497.1049">My Stack</text><!--MD5=[46d996859f59e5baf77956ce93023cee]
link HTTP to First Component--><path d="M215.3771,151.7253 C203.3792,151.7253 191.3802,151.7253 179.3823,151.7253 " fill="none" id="HTTP-First Component" style="stroke: #B5E853; stroke-width: 3.125;"/><!--MD5=[1966a42bb49d59057147dbda06282f4b]
link FTP to Second Component--><path d="M59.847,290.2669 C71.9506,290.2669 84.0543,290.2669 96.1578,290.2669 " fill="none" id="FTP-Second Component" style="stroke: #B5E853; stroke-width: 3.125;"/><!--MD5=[d3aefbd8005e27b21e7ce98ddd948193]
link First Component to FTP--><path d="M95.5217,175.3451 C89.7276,185.3013 83.1809,197.269 78.125,208.4961 C67.831,231.3534 58.8773,259.1919 53.9765,275.4888 " fill="none" id="First Component-&gt;FTP" style="stroke: #B5E853; stroke-width: 3.125;"/><polygon fill="#B5E853" points="52.4738,280.5482,59.1361,272.7466,53.9559,275.5552,51.1473,270.3751,52.4738,280.5482" style="stroke: #B5E853; stroke-width: 3.125;"/><!--MD5=[efc1ffe8b578a0fb156c7bce303319bb]
link Another Component to Example 1--><path d="M355.0167,175.3003 C356.999,198.9044 360.1156,236.0138 362.249,261.4232 " fill="none" id="Another Component-&gt;Example 1" style="stroke: #B5E853; stroke-width: 3.125;"/><polygon fill="#B5E853" points="362.6885,266.6586,366.0556,256.9676,362.2524,261.4686,357.7515,257.6654,362.6885,266.6586" style="stroke: #B5E853; stroke-width: 3.125;"/><!--MD5=[7ec8393a78a133520e8846dd05a7857a]
link Example 1 to Folder 3--><path d="M364.5833,313.8628 C364.5833,350.5711 364.5833,423.1534 364.5833,463.1763 " fill="none" id="Example 1-&gt;Folder 3" style="stroke: #B5E853; stroke-width: 3.125;"/><polygon fill="#B5E853" points="364.5833,468.8378,368.75,459.4628,364.5833,463.6294,360.4167,459.4628,364.5833,468.8378" style="stroke: #B5E853; stroke-width: 3.125;"/><!--MD5=[b96c7096199393c1414a8b4e9ed2c30f]
link Folder 3 to Frame 4--><path d="M364.5833,515.9544 C364.5833,538.3044 364.5833,572.5857 364.5833,596.6576 " fill="none" id="Folder 3-&gt;Frame 4" style="stroke: #B5E853; stroke-width: 3.125;"/><polygon fill="#B5E853" points="364.5833,601.9346,368.75,592.5596,364.5833,596.7263,360.4167,592.5596,364.5833,601.9346" style="stroke: #B5E853; stroke-width: 3.125;"/><!--MD5=[b21a3c93c2a22c7ef4934ace81b9a2fe]
link My Artifact to My Storage--><!--MD5=[e181977624df3f2540e75050355d9c90]
link My Storage to My Queue--><!--MD5=[756be6e13c059af04edf2b7b91188131]
link My Artifact to My Interface--><!--MD5=[9bfee3aea78949ae207e8bd3b67fed50]
link My Interface to My Card--><!--MD5=[7d5148706a659d88e9a451ba2a45522c]
link My Card to My File--><!--MD5=[25b27bb9c6f1602048cde482562a8061]
link My Interface to My Stack--><!--MD5=[fff67d421d3252cd203ef05565da5fd6]
@startuml



skinparam backgroundColor black
skinparam useBetaStyle true







skinparam defaultFontName       "Verdana"
skinparam defaultFontSize       12
skinparam dpi                   100
skinparam shadowing             false
skinparam roundcorner           40
skinparam ParticipantPadding    40
skinparam BoxPadding            40
skinparam Padding               5
skinparam ArrowColor            #eaeaea
skinparam stereotype {
    CBackgroundColor #557f91
    CBorderColor #88b2c4
    ABackgroundColor #a6ba7a
    ABorderColor $SUCCESS_DARK
    IBackgroundColor #bd6768
    IBorderColor $DANGER_DARK
    EBackgroundColor #f6cc91
    EBorderColor $WARNING_DARK
    NBackgroundColor #bb91b2
    NBorderColor $INFO_DARK
}
skinparam title {
	FontColor	                 #b5e853
	BorderColor	                 #b5e853
	FontSize	    	         20
	BorderRoundCorner            8
	BorderThickness 	         1
	BackgroundColor              #151515-black
}


skinparam legend {
	BackgroundColor #6a9fb5
	BorderColor #557f91
	FontColor #eaeaea
}

skinparam activity {
		FontColor #151515
	BorderColor #d3f198
	BackgroundColor #d3f198-#b5e853
	BarColor #90a959
	StartColor #aa759f
	EndColor #aa759f
	DiamondBackgroundColor #88b2c4-#6a9fb5
  	DiamondBorderColor #88b2c4
  	DiamondFontColor #fefefe
}

skinparam participant {
		FontColor #151515
	BorderColor #d3f198
	BackgroundColor #d3f198-#b5e853
	ParticipantBorderThickness 2
}

skinparam actor {
		FontColor #151515
	BorderColor #d3f198
	BackgroundColor #d3f198-#b5e853
}

skinparam arrow {
	Thickness 3
	Color #b5e853
	FontColor $FGCOLOR
}

skinparam sequence {
	BorderColor #b5e853
	TitleFontColor #b5e853
	BackgroundColor black
	StartColor #b5e853
	EndColor #b5e853
	BoxBackgroundColor black
	BoxBorderColor #eaeaea
	BoxFontColor $DARk
	LifeLineBorderColor #6a9fb5
	LifeLineBorderThickness 2
	LifeLineBackgroundColor #557f91
	GroupBackgroundColor #151515
	GroupBorderColor #eaeaea
	GroupFontColor #eaeaea
	GroupHeaderFontColor #aa759f
	DividerBackgroundColor #eaeaea
    DividerBorderColor #eaeaea
    DividerBorderThickness 2
    DividerFontColor #151515
	ReferenceBackgroundColor #151515
	ReferenceBorderColor #eaeaea
	ReferenceFontColor #eaeaea
	ReferenceHeaderBackgroundColor #151515
}

skinparam partition {
	BorderColor #b5e853
	FontColor #b5e853
	BackgroundColor #151515-black
}

skinparam collections {
		FontColor #151515
	BorderColor #d3f198
	BackgroundColor #d3f198-#b5e853
}

skinparam control {
		FontColor #151515
	BorderColor #d3f198
	BackgroundColor #d3f198-#b5e853
	FontColor #eaeaea
}

skinparam entity {
		FontColor #151515
	BorderColor #d3f198
	BackgroundColor #d3f198-#b5e853
	FontColor #eaeaea
}

skinparam boundary {
		FontColor #151515
	BorderColor #d3f198
	BackgroundColor #d3f198-#b5e853
	FontColor #eaeaea
}

skinparam agent {
	BackgroundColor #f6cc91-#f4bf75
	BorderColor #f6cc91
	FontColor #eaeaea
}

skinparam note {
	BorderThickness 1
	BackgroundColor #bb91b2-#aa759f
	BorderColor #bb91b2
	FontColor $WHITE
}

skinparam artifact {
	BackgroundColor #eaeaea
	BorderColor white
	FontColor #151515
}

skinparam component {
		FontColor #151515
	BorderColor #d3f198
	BackgroundColor #d3f198-#b5e853
}

skinparam interface {
	BackgroundColor  #bd6768-#ac4142
	BorderColor  #bd6768
	FontColor #eaeaea
}

skinparam storage {
	BackgroundColor #f6cc91-#f4bf75
  	BorderColor #f6cc91
	FontColor #151515
}

skinparam node {
	BackgroundColor  #151515-black
	BorderColor #d3f198
	FontColor #eaeaea
}

skinparam cloud {
	BackgroundColor #151515-black
	BorderColor #151515
	FontColor #eaeaea
}

skinparam database {
	BackgroundColor  #151515-black
	BorderColor #d3f198
	FontColor #eaeaea
}

skinparam class {
		FontColor #151515
	BorderColor #d3f198
	BackgroundColor #d3f198-#b5e853
	HeaderBackgroundColor #d3f198-#b5e853
	StereotypeFontColor #eaeaea
	BorderThickness 1
	AttributeFontColor #151515
	AttributeFontSize 11
}

skinparam object {
		FontColor #151515
	BorderColor #d3f198
	BackgroundColor #d3f198-#b5e853
	StereotypeFontColor #eaeaea
	BorderThickness 1
	AttributeFontColor #151515
	AttributeFontSize 11
}

skinparam usecase {
		FontColor #151515
	BorderColor #d3f198
	BackgroundColor #d3f198-#b5e853
	BorderThickness 2
	StereotypeFontColor #b5e853
}

skinparam rectangle {
	BackgroundColor black
	BorderColor #b5e853
	BorderThickness 2
	FontColor #6d8b32
	StereotypeFontColor #b5e853
}

skinparam package {
	BackgroundColor #151515
  	BorderColor #b5e853
	FontColor #b5e853
	BorderThickness 2
}

skinparam folder {
	BackgroundColor #151515-black
  	BorderColor #f4bf75
	FontColor #f4bf75
	BorderThickness 2
}

skinparam frame {
	BackgroundColor #151515-black
  	BorderColor #aa759f
	FontColor #aa759f
	BorderThickness 2
}

skinparam state {
		FontColor #151515
	BorderColor #d3f198
	BackgroundColor #d3f198-#b5e853
	StartColor #aa759f
	EndColor #aa759f
	AttributeFontColor #fefefe
	AttributeFontSize 11
}

skinparam queue {
		FontColor #151515
	BorderColor #d3f198
	BackgroundColor #d3f198-#b5e853
}

skinparam card {
	BackgroundColor #bb91b2-#aa759f
	BorderColor #bb91b2
	FontColor $INFO_TEXT
}

skinparam file {
	BackgroundColor #88b2c4-#6a9fb5
	BorderColor #88b2c4
	FontColor #eaeaea
}

skinparam stack {
		FontColor #151515
	BorderColor #d3f198
	BackgroundColor #d3f198-#b5e853
}



title Component Diagram - hacker theme


package "My Package" {
  HTTP - [First Component]
  [Another Component]
}
 
node "My Node" {
  FTP - [Second Component]
  [First Component] - -> FTP
} 

cloud "My Cloud" {
  [Example 1]
}


database "My Database" {
  folder "My folder" {
	[Folder 3]
  }
  frame "My Frame" {
	[Frame 4]
  }
}

artifact "My Artifact"
storage "My Storage"
queue "My Queue"
interface "My Interface"
card "My Card"
file "My File"
stack "My Stack"

[Another Component] - -> [Example 1]
[Example 1] - -> [Folder 3]
[Folder 3] - -> [Frame 4]

@enduml

PlantUML version 1.2019.12(Sun Nov 03 02:24:54 PST 2019)
(GPL source distribution)
Java Runtime: Java(TM) SE Runtime Environment
JVM: Java HotSpot(TM) 64-Bit Server VM
Java Version: 1.8.0_212-b32
Operating System: Windows 10
Default Encoding: Cp1252
Language: en
Country: US
--></g></svg>