<?xml version="1.0" encoding="UTF-8" standalone="no"?><svg xmlns="http://www.w3.org/2000/svg" xmlns:xlink="http://www.w3.org/1999/xlink" contentScriptType="application/ecmascript" contentStyleType="text/css" height="1436.4583px" preserveAspectRatio="none" style="width:1377px;height:1436px;background:#000000;" version="1.1" viewBox="0 0 1377 1436" width="1377.0833px" zoomAndPan="magnify"><defs><linearGradient id="g3f99w65f97850" x1="50%" x2="50%" y1="0%" y2="100%"><stop offset="0%" stop-color="#151515"/><stop offset="100%" stop-color="#000000"/></linearGradient><linearGradient id="g3f99w65f97851" x1="50%" x2="50%" y1="0%" y2="100%"><stop offset="0%" stop-color="#D3F198"/><stop offset="100%" stop-color="#B5E853"/></linearGradient><linearGradient id="g3f99w65f97852" x1="50%" x2="50%" y1="0%" y2="100%"><stop offset="0%" stop-color="#BB91B2"/><stop offset="100%" stop-color="#AA759F"/></linearGradient></defs><g><rect fill="url(#g3f99w65f97850)" height="45.0846" rx="4.1667" ry="4.1667" style="stroke: #B5E853; stroke-width: 1.0416666666666667;" width="430.2083" x="468.2292" y="31.9173"/><text fill="#B5E853" font-family="&quot;Verdana&quot;" font-size="20.8333" font-weight="bold" lengthAdjust="spacingAndGlyphs" textLength="409.375" x="478.6458" y="61.672">Sequence Diagram - hacker theme</text><rect fill="#000000" height="1317.3014" rx="4.1667" ry="4.1667" style="stroke: #EAEAEA; stroke-width: 1.0416666666666667;" width="361.4583" x="960.4167" y="84.2936"/><text fill="#000000" font-family="&quot;Verdana&quot;" font-size="13.5417" font-weight="bold" lengthAdjust="spacingAndGlyphs" textLength="118.75" x="1081.7708" y="102.0716">Internal Service</text><rect fill="#557F91" height="244.3766" style="stroke: #6A9FB5; stroke-width: 1.0416666666666667;" width="10.4167" x="395.3125" y="341.2679"/><rect fill="#151515" height="473.4863" rx="4.1667" ry="4.1667" style="stroke: #B5E853; stroke-width: 2.0833333333333335;" width="1335.4167" x="13.5417" y="735.7178"/><rect fill="#000000" height="241.9515" style="stroke: none; stroke-width: 1.0416666666666667;" width="1335.4167" x="13.5417" y="900.651"/><rect fill="#151515" height="120.0033" rx="4.1667" ry="4.1667" style="stroke: #B5E853; stroke-width: 2.0833333333333335;" width="1314.5833" x="23.9583" y="1015.3076"/><rect fill="#151515" height="77.1566" rx="4.1667" ry="4.1667" style="stroke: #B5E853; stroke-width: 2.0833333333333335;" width="1293.75" x="34.375" y="1050.8626"/><rect fill="#000000" height="66.6016" style="stroke: none; stroke-width: 1.0416666666666667;" width="1335.4167" x="13.5417" y="1142.6025"/><line style="stroke: #6A9FB5; stroke-width: 1.0416666666666667;" x1="70.8333" x2="70.8333" y1="176.2695" y2="593.9779"/><line style="stroke: #6A9FB5; stroke-width: 1.0416666666666667; stroke-dasharray: 1.0,4.0;" x1="70.8333" x2="70.8333" y1="593.9779" y2="646.8994"/><line style="stroke: #6A9FB5; stroke-width: 1.0416666666666667;" x1="70.8333" x2="70.8333" y1="646.8994" y2="1305.4525"/><line style="stroke: #6A9FB5; stroke-width: 1.0416666666666667;" x1="243.75" x2="243.75" y1="176.2695" y2="593.9779"/><line style="stroke: #6A9FB5; stroke-width: 1.0416666666666667; stroke-dasharray: 1.0,4.0;" x1="243.75" x2="243.75" y1="593.9779" y2="646.8994"/><line style="stroke: #6A9FB5; stroke-width: 1.0416666666666667;" x1="243.75" x2="243.75" y1="646.8994" y2="1305.4525"/><line style="stroke: #6A9FB5; stroke-width: 1.0416666666666667;" x1="400" x2="400" y1="176.2695" y2="593.9779"/><line style="stroke: #6A9FB5; stroke-width: 1.0416666666666667; stroke-dasharray: 1.0,4.0;" x1="400" x2="400" y1="593.9779" y2="646.8994"/><line style="stroke: #6A9FB5; stroke-width: 1.0416666666666667;" x1="400" x2="400" y1="646.8994" y2="1305.4525"/><line style="stroke: #6A9FB5; stroke-width: 1.0416666666666667;" x1="553.125" x2="553.125" y1="176.2695" y2="593.9779"/><line style="stroke: #6A9FB5; stroke-width: 1.0416666666666667; stroke-dasharray: 1.0,4.0;" x1="553.125" x2="553.125" y1="593.9779" y2="646.8994"/><line style="stroke: #6A9FB5; stroke-width: 1.0416666666666667;" x1="553.125" x2="553.125" y1="646.8994" y2="1305.4525"/><line style="stroke: #6A9FB5; stroke-width: 1.0416666666666667;" x1="726.0417" x2="726.0417" y1="176.2695" y2="593.9779"/><line style="stroke: #6A9FB5; stroke-width: 1.0416666666666667; stroke-dasharray: 1.0,4.0;" x1="726.0417" x2="726.0417" y1="593.9779" y2="646.8994"/><line style="stroke: #6A9FB5; stroke-width: 1.0416666666666667;" x1="726.0417" x2="726.0417" y1="646.8994" y2="1305.4525"/><line style="stroke: #6A9FB5; stroke-width: 1.0416666666666667;" x1="837.5" x2="837.5" y1="176.2695" y2="593.9779"/><line style="stroke: #6A9FB5; stroke-width: 1.0416666666666667; stroke-dasharray: 1.0,4.0;" x1="837.5" x2="837.5" y1="593.9779" y2="646.8994"/><line style="stroke: #6A9FB5; stroke-width: 1.0416666666666667;" x1="837.5" x2="837.5" y1="646.8994" y2="1305.4525"/><line style="stroke: #6A9FB5; stroke-width: 1.0416666666666667;" x1="1033.3333" x2="1033.3333" y1="176.2695" y2="593.9779"/><line style="stroke: #6A9FB5; stroke-width: 1.0416666666666667; stroke-dasharray: 1.0,4.0;" x1="1033.3333" x2="1033.3333" y1="593.9779" y2="646.8994"/><line style="stroke: #6A9FB5; stroke-width: 1.0416666666666667;" x1="1033.3333" x2="1033.3333" y1="646.8994" y2="1305.4525"/><line style="stroke: #6A9FB5; stroke-width: 1.0416666666666667;" x1="1214.5833" x2="1214.5833" y1="176.2695" y2="593.9779"/><line style="stroke: #6A9FB5; stroke-width: 1.0416666666666667; stroke-dasharray: 1.0,4.0;" x1="1214.5833" x2="1214.5833" y1="593.9779" y2="646.8994"/><line style="stroke: #6A9FB5; stroke-width: 1.0416666666666667;" x1="1214.5833" x2="1214.5833" y1="646.8994" y2="1305.4525"/><text fill="#EAEAEA" font-family="&quot;Verdana&quot;" font-size="14.5833" lengthAdjust="spacingAndGlyphs" textLength="36.4583" x="50" y="167.6219">Foo1</text><ellipse cx="71.3542" cy="93.6686" fill="#000000" rx="8.3333" ry="8.3333" style="stroke: #B5E853; stroke-width: 2.0833333333333335;"/><path d="M71.3542,102.002 L71.3542,130.127 M57.8125,110.3353 L84.8958,110.3353 M71.3542,130.127 L57.8125,145.752 M71.3542,130.127 L84.8958,145.752 " fill="none" style="stroke: #B5E853; stroke-width: 2.0833333333333335;"/><text fill="#EAEAEA" font-family="&quot;Verdana&quot;" font-size="14.5833" lengthAdjust="spacingAndGlyphs" textLength="36.4583" x="50" y="1323.1557">Foo1</text><ellipse cx="71.3542" cy="1342.2201" fill="#000000" rx="8.3333" ry="8.3333" style="stroke: #B5E853; stroke-width: 2.0833333333333335;"/><path d="M71.3542,1350.5534 L71.3542,1378.6784 M57.8125,1358.8867 L84.8958,1358.8867 M71.3542,1378.6784 L57.8125,1394.3034 M71.3542,1378.6784 L84.8958,1394.3034 " fill="none" style="stroke: #B5E853; stroke-width: 2.0833333333333335;"/><text fill="#EAEAEA" font-family="&quot;Verdana&quot;" font-size="14.5833" lengthAdjust="spacingAndGlyphs" textLength="36.4583" x="222.9167" y="167.6219">Foo2</text><path d="M222.9167,119.7103 L222.9167,144.7103 M222.9167,132.2103 L240.625,132.2103 " fill="none" style="stroke: #D3F198; stroke-width: 2.0833333333333335;"/><ellipse cx="253.125" cy="132.2103" fill="url(#g3f99w65f97851)" rx="12.5" ry="12.5" style="stroke: #D3F198; stroke-width: 2.0833333333333335;"/><text fill="#EAEAEA" font-family="&quot;Verdana&quot;" font-size="14.5833" lengthAdjust="spacingAndGlyphs" textLength="36.4583" x="222.9167" y="1323.1557">Foo2</text><path d="M222.9167,1335.9701 L222.9167,1360.9701 M222.9167,1348.4701 L240.625,1348.4701 " fill="none" style="stroke: #D3F198; stroke-width: 2.0833333333333335;"/><ellipse cx="253.125" cy="1348.4701" fill="url(#g3f99w65f97851)" rx="12.5" ry="12.5" style="stroke: #D3F198; stroke-width: 2.0833333333333335;"/><text fill="#EAEAEA" font-family="&quot;Verdana&quot;" font-size="14.5833" lengthAdjust="spacingAndGlyphs" textLength="36.4583" x="379.1667" y="167.6219">Foo3</text><ellipse cx="400.5208" cy="132.2103" fill="url(#g3f99w65f97851)" rx="12.5" ry="12.5" style="stroke: #D3F198; stroke-width: 2.0833333333333335;"/><polygon fill="#D3F198" points="396.3542,119.7103,402.6042,114.502,400.5208,119.7103,402.6042,124.9186,396.3542,119.7103" style="stroke: #D3F198; stroke-width: 1.0416666666666667;"/><text fill="#EAEAEA" font-family="&quot;Verdana&quot;" font-size="14.5833" lengthAdjust="spacingAndGlyphs" textLength="36.4583" x="379.1667" y="1323.1557">Foo3</text><ellipse cx="400.5208" cy="1348.4701" fill="url(#g3f99w65f97851)" rx="12.5" ry="12.5" style="stroke: #D3F198; stroke-width: 2.0833333333333335;"/><polygon fill="#D3F198" points="396.3542,1335.9701,402.6042,1330.7617,400.5208,1335.9701,402.6042,1341.1784,396.3542,1335.9701" style="stroke: #D3F198; stroke-width: 1.0416666666666667;"/><text fill="#EAEAEA" font-family="&quot;Verdana&quot;" font-size="14.5833" lengthAdjust="spacingAndGlyphs" textLength="36.4583" x="532.2917" y="167.6219">Foo4</text><ellipse cx="553.6458" cy="132.2103" fill="url(#g3f99w65f97851)" rx="12.5" ry="12.5" style="stroke: #D3F198; stroke-width: 2.0833333333333335;"/><line style="stroke: #D3F198; stroke-width: 2.0833333333333335;" x1="541.1458" x2="566.1458" y1="146.7936" y2="146.7936"/><text fill="#EAEAEA" font-family="&quot;Verdana&quot;" font-size="14.5833" lengthAdjust="spacingAndGlyphs" textLength="36.4583" x="532.2917" y="1323.1557">Foo4</text><ellipse cx="553.6458" cy="1348.4701" fill="url(#g3f99w65f97851)" rx="12.5" ry="12.5" style="stroke: #D3F198; stroke-width: 2.0833333333333335;"/><line style="stroke: #D3F198; stroke-width: 2.0833333333333335;" x1="541.1458" x2="566.1458" y1="1363.0534" y2="1363.0534"/><text fill="#EAEAEA" font-family="&quot;Verdana&quot;" font-size="14.5833" lengthAdjust="spacingAndGlyphs" textLength="36.4583" x="705.2083" y="167.6219">Foo5</text><path d="M707.8125,111.377 C707.8125,100.9603 726.5625,100.9603 726.5625,100.9603 C726.5625,100.9603 745.3125,100.9603 745.3125,111.377 L745.3125,138.4603 C745.3125,148.877 726.5625,148.877 726.5625,148.877 C726.5625,148.877 707.8125,148.877 707.8125,138.4603 L707.8125,111.377 " fill="url(#g3f99w65f97850)" style="stroke: #D3F198; stroke-width: 1.5625;"/><path d="M707.8125,111.377 C707.8125,121.7936 726.5625,121.7936 726.5625,121.7936 C726.5625,121.7936 745.3125,121.7936 745.3125,111.377 " fill="none" style="stroke: #D3F198; stroke-width: 1.5625;"/><text fill="#EAEAEA" font-family="&quot;Verdana&quot;" font-size="14.5833" lengthAdjust="spacingAndGlyphs" textLength="36.4583" x="705.2083" y="1323.1557">Foo5</text><path d="M707.8125,1342.2201 C707.8125,1331.8034 726.5625,1331.8034 726.5625,1331.8034 C726.5625,1331.8034 745.3125,1331.8034 745.3125,1342.2201 L745.3125,1369.3034 C745.3125,1379.7201 726.5625,1379.7201 726.5625,1379.7201 C726.5625,1379.7201 707.8125,1379.7201 707.8125,1369.3034 L707.8125,1342.2201 " fill="url(#g3f99w65f97850)" style="stroke: #D3F198; stroke-width: 1.5625;"/><path d="M707.8125,1342.2201 C707.8125,1352.6367 726.5625,1352.6367 726.5625,1352.6367 C726.5625,1352.6367 745.3125,1352.6367 745.3125,1342.2201 " fill="none" style="stroke: #D3F198; stroke-width: 1.5625;"/><rect fill="url(#g3f99w65f97851)" height="41.9759" rx="4.1667" ry="4.1667" style="stroke: #D3F198; stroke-width: 1.5625;" width="61.4583" x="809.375" y="129.0853"/><rect fill="url(#g3f99w65f97851)" height="41.9759" rx="4.1667" ry="4.1667" style="stroke: #D3F198; stroke-width: 1.5625;" width="61.4583" x="805.2083" y="133.252"/><text fill="#000000" font-family="&quot;Verdana&quot;" font-size="14.5833" lengthAdjust="spacingAndGlyphs" textLength="36.4583" x="817.7083" y="159.2885">Foo6</text><rect fill="url(#g3f99w65f97851)" height="41.9759" rx="4.1667" ry="4.1667" style="stroke: #D3F198; stroke-width: 1.5625;" width="61.4583" x="809.375" y="1304.4108"/><rect fill="url(#g3f99w65f97851)" height="41.9759" rx="4.1667" ry="4.1667" style="stroke: #D3F198; stroke-width: 1.5625;" width="61.4583" x="805.2083" y="1308.5775"/><text fill="#000000" font-family="&quot;Verdana&quot;" font-size="14.5833" lengthAdjust="spacingAndGlyphs" textLength="36.4583" x="817.7083" y="1334.6141">Foo6</text><rect fill="url(#g3f99w65f97851)" height="41.9759" rx="4.1667" ry="4.1667" style="stroke: #D3F198; stroke-width: 2.0833333333333335;" width="54.1667" x="1006.25" y="133.252"/><text fill="#151515" font-family="&quot;Verdana&quot;" font-size="14.5833" lengthAdjust="spacingAndGlyphs" textLength="29.1667" x="1018.75" y="159.2885">Bob</text><rect fill="url(#g3f99w65f97851)" height="41.9759" rx="4.1667" ry="4.1667" style="stroke: #D3F198; stroke-width: 2.0833333333333335;" width="54.1667" x="1006.25" y="1304.4108"/><text fill="#151515" font-family="&quot;Verdana&quot;" font-size="14.5833" lengthAdjust="spacingAndGlyphs" textLength="29.1667" x="1018.75" y="1330.4474">Bob</text><rect fill="url(#g3f99w65f97851)" height="48.5352" rx="4.1667" ry="4.1667" style="stroke: #D3F198; stroke-width: 2.0833333333333335;" width="121.875" x="1154.1667" y="126.6927"/><ellipse cx="1171.875" cy="144.401" fill="#ADD1B2" rx="10.4167" ry="10.4167" style="stroke: #D3F198; stroke-width: 1.0416666666666667;"/><path d="M1173.7793,148.8281 Q1173.3561,149.0397 1172.8841,149.1536 Q1172.4121,149.2676 1171.9076,149.2676 Q1170.0521,149.2676 1169.0755,148.0632 Q1168.1152,146.8424 1168.1152,144.5475 Q1168.1152,142.2363 1169.0755,141.0319 Q1170.0521,139.8112 1171.9076,139.8112 Q1172.4121,139.8112 1172.8841,139.9251 Q1173.3724,140.0228 1173.7793,140.2507 L1173.7793,142.2526 Q1173.3236,141.8294 1172.8841,141.6341 Q1172.4447,141.4225 1171.9889,141.4225 Q1170.9961,141.4225 1170.4915,142.2201 Q1169.987,143.0013 1169.987,144.5475 Q1169.987,146.0775 1170.4915,146.8587 Q1170.9961,147.64 1171.9889,147.64 Q1172.4447,147.64 1172.8841,147.4447 Q1173.3236,147.2493 1173.7793,146.8262 L1173.7793,148.8281 Z "/><text fill="#151515" font-family="&quot;Verdana&quot;" font-size="14.5833" font-style="italic" lengthAdjust="spacingAndGlyphs" textLength="80.2083" x="1188.5417" y="148.5677">«Testable»</text><text fill="#151515" font-family="&quot;Verdana&quot;" font-size="14.5833" lengthAdjust="spacingAndGlyphs" textLength="33.3333" x="1211.9792" y="165.5436">Alice</text><rect fill="url(#g3f99w65f97851)" height="48.5352" rx="4.1667" ry="4.1667" style="stroke: #D3F198; stroke-width: 2.0833333333333335;" width="121.875" x="1154.1667" y="1304.4108"/><ellipse cx="1171.875" cy="1322.1191" fill="#ADD1B2" rx="10.4167" ry="10.4167" style="stroke: #D3F198; stroke-width: 1.0416666666666667;"/><path d="M1173.7793,1326.5462 Q1173.3561,1326.7578 1172.8841,1326.8717 Q1172.4121,1326.9857 1171.9076,1326.9857 Q1170.0521,1326.9857 1169.0755,1325.7813 Q1168.1152,1324.5605 1168.1152,1322.2656 Q1168.1152,1319.9544 1169.0755,1318.75 Q1170.0521,1317.5293 1171.9076,1317.5293 Q1172.4121,1317.5293 1172.8841,1317.6432 Q1173.3724,1317.7409 1173.7793,1317.9688 L1173.7793,1319.9707 Q1173.3236,1319.5475 1172.8841,1319.3522 Q1172.4447,1319.1406 1171.9889,1319.1406 Q1170.9961,1319.1406 1170.4915,1319.9382 Q1169.987,1320.7194 1169.987,1322.2656 Q1169.987,1323.7956 1170.4915,1324.5768 Q1170.9961,1325.3581 1171.9889,1325.3581 Q1172.4447,1325.3581 1172.8841,1325.1628 Q1173.3236,1324.9674 1173.7793,1324.5443 L1173.7793,1326.5462 Z "/><text fill="#151515" font-family="&quot;Verdana&quot;" font-size="14.5833" font-style="italic" lengthAdjust="spacingAndGlyphs" textLength="80.2083" x="1188.5417" y="1326.2858">«Testable»</text><text fill="#151515" font-family="&quot;Verdana&quot;" font-size="14.5833" lengthAdjust="spacingAndGlyphs" textLength="33.3333" x="1211.9792" y="1343.2617">Alice</text><rect fill="#557F91" height="244.3766" style="stroke: #6A9FB5; stroke-width: 1.0416666666666667;" width="10.4167" x="395.3125" y="341.2679"/><rect fill="#EAEAEA" height="3.125" rx="4.1667" ry="4.1667" style="stroke: #EAEAEA; stroke-width: 1.0416666666666667;" width="1361.4583" x="3.125" y="213.3179"/><line style="stroke: #EAEAEA; stroke-width: 1.0416666666666667;" x1="3.125" x2="1364.5833" y1="213.3179" y2="213.3179"/><line style="stroke: #EAEAEA; stroke-width: 1.0416666666666667;" x1="3.125" x2="1364.5833" y1="216.4429" y2="216.4429"/><rect fill="#EAEAEA" height="34.5133" rx="4.1667" ry="4.1667" style="stroke: #EAEAEA; stroke-width: 2.0833333333333335;" width="122.9167" x="622.3958" y="197.1029"/><text fill="#151515" font-family="&quot;Verdana&quot;" font-size="13.5417" font-weight="bold" lengthAdjust="spacingAndGlyphs" textLength="92.7083" x="633.8542" y="219.0475">Initialization</text><polygon fill="#B5E853" points="231.7708,270.2962,242.1875,274.4629,231.7708,278.6296,235.9375,274.4629" style="stroke: #B5E853; stroke-width: 1.0416666666666667;"/><line style="stroke: #B5E853; stroke-width: 3.125;" x1="71.3542" x2="238.0208" y1="274.4629" y2="274.4629"/><text fill="#FFFFFF" font-family="&quot;Verdana&quot;" font-size="13.5417" font-weight="bold" lengthAdjust="spacingAndGlyphs" textLength="40.625" x="83.8542" y="263.9776">[001]</text><text fill="#FFFFFF" font-family="&quot;Verdana&quot;" font-size="13.5417" lengthAdjust="spacingAndGlyphs" textLength="82.2917" x="139.0625" y="263.9776">To boundary</text><polygon fill="#B5E853" points="382.8125,337.1012,393.2292,341.2679,382.8125,345.4346,386.9792,341.2679" style="stroke: #B5E853; stroke-width: 1.0416666666666667;"/><line style="stroke: #B5E853; stroke-width: 3.125;" x1="244.2708" x2="389.0625" y1="341.2679" y2="341.2679"/><text fill="#FFFFFF" font-family="&quot;Verdana&quot;" font-size="13.5417" font-weight="bold" lengthAdjust="spacingAndGlyphs" textLength="40.625" x="256.7708" y="330.7826">[002]</text><text fill="#FFFFFF" font-family="&quot;Verdana&quot;" font-size="13.5417" lengthAdjust="spacingAndGlyphs" textLength="65.625" x="311.9792" y="330.7826">To control</text><rect fill="#151515" height="76.1149" style="stroke: #EAEAEA; stroke-width: 2.0833333333333335;" width="232.2917" x="523.9583" y="349.6012"/><polygon fill="#151515" points="523.9583,349.6012,603.125,349.6012,603.125,367.3096,592.7083,377.7262,523.9583,377.7262,523.9583,349.6012" style="stroke: #EAEAEA; stroke-width: 2.0833333333333335;"/><text fill="#EAEAEA" font-family="&quot;Verdana&quot;" font-size="13.5417" font-weight="bold" lengthAdjust="spacingAndGlyphs" textLength="21.875" x="542.7083" y="369.4626">ref</text><text fill="#EAEAEA" font-family="&quot;Verdana&quot;" font-size="12.5" lengthAdjust="spacingAndGlyphs" textLength="95.8333" x="592.1875" y="398.704">This can be on</text><text fill="#EAEAEA" font-family="&quot;Verdana&quot;" font-size="12.5" lengthAdjust="spacingAndGlyphs" textLength="81.25" x="599.4792" y="413.2548">several lines</text><polygon fill="#B5E853" points="541.1458,459.1878,551.5625,463.3545,541.1458,467.5212,545.3125,463.3545" style="stroke: #B5E853; stroke-width: 1.0416666666666667;"/><line style="stroke: #B5E853; stroke-width: 3.125;" x1="405.7292" x2="547.3958" y1="463.3545" y2="463.3545"/><text fill="#FFFFFF" font-family="&quot;Verdana&quot;" font-size="13.5417" font-weight="bold" lengthAdjust="spacingAndGlyphs" textLength="40.625" x="418.2292" y="452.8692">[003]</text><text fill="#FFFFFF" font-family="&quot;Verdana&quot;" font-size="13.5417" lengthAdjust="spacingAndGlyphs" textLength="57.2917" x="473.4375" y="452.8692">To entity</text><polygon fill="#B5E853" points="714.0625,499.9512,724.4792,504.1178,714.0625,508.2845,718.2292,504.1178" style="stroke: #B5E853; stroke-width: 1.0416666666666667;"/><line style="stroke: #B5E853; stroke-width: 3.125;" x1="553.6458" x2="720.3125" y1="504.1178" y2="504.1178"/><text fill="#FFFFFF" font-family="&quot;Verdana&quot;" font-size="13.5417" font-weight="bold" lengthAdjust="spacingAndGlyphs" textLength="40.625" x="566.1458" y="493.6325">[004]</text><text fill="#FFFFFF" font-family="&quot;Verdana&quot;" font-size="13.5417" lengthAdjust="spacingAndGlyphs" textLength="82.2917" x="621.3542" y="493.6325">To database</text><polygon fill="#B5E853" points="417.1875,540.7145,406.7708,544.8812,417.1875,549.0479,413.0208,544.8812" style="stroke: #B5E853; stroke-width: 1.0416666666666667;"/><line style="stroke: #B5E853; stroke-width: 3.125; stroke-dasharray: 2.0,2.0;" x1="410.9375" x2="725.5208" y1="544.8812" y2="544.8812"/><text fill="#FFFFFF" font-family="&quot;Verdana&quot;" font-size="13.5417" font-weight="bold" lengthAdjust="spacingAndGlyphs" textLength="40.625" x="428.6458" y="534.3959">[005]</text><text fill="#FFFFFF" font-family="&quot;Verdana&quot;" font-size="13.5417" lengthAdjust="spacingAndGlyphs" textLength="40.625" x="483.8542" y="534.3959">return</text><polygon fill="#B5E853" points="255.7292,581.4779,245.3125,585.6445,255.7292,589.8112,251.5625,585.6445" style="stroke: #B5E853; stroke-width: 1.0416666666666667;"/><line style="stroke: #B5E853; stroke-width: 3.125; stroke-dasharray: 2.0,2.0;" x1="249.4792" x2="399.4792" y1="585.6445" y2="585.6445"/><text fill="#FFFFFF" font-family="&quot;Verdana&quot;" font-size="13.5417" font-weight="bold" lengthAdjust="spacingAndGlyphs" textLength="40.625" x="267.1875" y="575.1592">[006]</text><text fill="#FFFFFF" font-family="&quot;Verdana&quot;" font-size="13.5417" lengthAdjust="spacingAndGlyphs" textLength="40.625" x="322.3958" y="575.1592">return</text><text fill="#000000" font-family="&quot;Verdana&quot;" font-size="11.4583" lengthAdjust="spacingAndGlyphs" textLength="34.375" x="593.75" y="624.4054">Some</text><text fill="#000000" font-family="&quot;Verdana&quot;" font-size="11.4583" lengthAdjust="spacingAndGlyphs" textLength="60.4167" x="632.2917" y="624.4054">long delay</text><text fill="#000000" font-family="&quot;Verdana&quot;" font-size="11.4583" lengthAdjust="spacingAndGlyphs" textLength="0" x="696.875" y="624.4054"/><polygon fill="#B5E853" points="825.5208,675.1628,835.9375,679.3294,825.5208,683.4961,829.6875,679.3294" style="stroke: #B5E853; stroke-width: 1.0416666666666667;"/><line style="stroke: #B5E853; stroke-width: 3.125;" x1="71.3542" x2="831.7708" y1="679.3294" y2="679.3294"/><text fill="#FFFFFF" font-family="&quot;Verdana&quot;" font-size="13.5417" font-weight="bold" lengthAdjust="spacingAndGlyphs" textLength="40.625" x="83.8542" y="668.8441">[007]</text><text fill="#FFFFFF" font-family="&quot;Verdana&quot;" font-size="13.5417" lengthAdjust="spacingAndGlyphs" textLength="89.5833" x="139.0625" y="668.8441">To collections</text><polygon fill="#B5E853" points="565.1042,715.9261,554.6875,720.0928,565.1042,724.2594,560.9375,720.0928" style="stroke: #B5E853; stroke-width: 1.0416666666666667;"/><line style="stroke: #B5E853; stroke-width: 3.125; stroke-dasharray: 2.0,2.0;" x1="558.8542" x2="836.9792" y1="720.0928" y2="720.0928"/><text fill="#FFFFFF" font-family="&quot;Verdana&quot;" font-size="13.5417" font-weight="bold" lengthAdjust="spacingAndGlyphs" textLength="40.625" x="576.5625" y="709.6074">[008]</text><text fill="#90A959" font-family="&quot;Verdana&quot;" font-size="13.5417" font-weight="bold" lengthAdjust="spacingAndGlyphs" textLength="60.4167" x="631.7708" y="709.6074">success</text><path d="M17.7083,735.7178 L90.625,735.7178 L90.625,753.4261 L80.2083,763.8428 L13.5417,763.8428 L13.5417,739.8844 " fill="#151515" style="stroke: #EAEAEA; stroke-width: 1.0416666666666667;"/><rect fill="none" height="473.4863" rx="4.1667" ry="4.1667" style="stroke: #B5E853; stroke-width: 2.0833333333333335;" width="1335.4167" x="13.5417" y="735.7178"/><text fill="#AA759F" font-family="&quot;Verdana&quot;" font-size="13.5417" font-weight="bold" lengthAdjust="spacingAndGlyphs" textLength="19.7917" x="34.375" y="754.5375">alt</text><text fill="#EAEAEA" font-family="&quot;Verdana&quot;" font-size="11.4583" font-weight="bold" lengthAdjust="spacingAndGlyphs" textLength="116.6667" x="111.4583" y="753.6453">[successful case]</text><polygon fill="#B5E853" points="1202.6042,800.3743,1213.0208,804.541,1202.6042,808.7077,1206.7708,804.541" style="stroke: #B5E853; stroke-width: 1.0416666666666667;"/><line style="stroke: #B5E853; stroke-width: 3.125;" x1="71.3542" x2="1208.8542" y1="804.541" y2="804.541"/><text fill="#FFFFFF" font-family="&quot;Verdana&quot;" font-size="13.5417" font-weight="bold" lengthAdjust="spacingAndGlyphs" textLength="40.625" x="83.8542" y="794.0557">[009]</text><text fill="#FFFFFF" font-family="&quot;Verdana&quot;" font-size="13.5417" lengthAdjust="spacingAndGlyphs" textLength="163.5417" x="139.0625" y="794.0557">Authentication Accepted</text><polygon fill="#B5E853" points="82.8125,841.1377,72.3958,845.3044,82.8125,849.471,78.6458,845.3044" style="stroke: #B5E853; stroke-width: 1.0416666666666667;"/><line style="stroke: #B5E853; stroke-width: 3.125; stroke-dasharray: 2.0,2.0;" x1="76.5625" x2="1214.0625" y1="845.3044" y2="845.3044"/><text fill="#FFFFFF" font-family="&quot;Verdana&quot;" font-size="13.5417" font-weight="bold" lengthAdjust="spacingAndGlyphs" textLength="40.625" x="94.2708" y="834.819">[010]</text><text fill="#FFFFFF" font-family="&quot;Verdana&quot;" font-size="13.5417" lengthAdjust="spacingAndGlyphs" textLength="53.125" x="149.4792" y="834.819">success</text><path d="M1062.5,863.0127 L1062.5,891.1377 A4.1667,4.1667 0 0 0 1066.6667,895.3044 L1205.2083,895.3044 A4.1667,4.1667 0 0 0 1209.375,891.1377 L1209.375,869.2627 L1198.9583,858.846 L1066.6667,858.846 A4.1667,4.1667 0 0 0 1062.5,863.0127 " fill="url(#g3f99w65f97852)" style="stroke: #A80036; stroke-width: 1.0416666666666667;"/><path d="M1198.9583,858.846 L1198.9583,867.1794 A2.0833,2.0833 0 0 0 1201.0417,869.2627 L1209.375,869.2627 L1198.9583,858.846 " fill="url(#g3f99w65f97852)" style="stroke: #A80036; stroke-width: 1.0416666666666667;"/><text fill="#FFFFFF" font-family="&quot;Verdana&quot;" font-size="13.5417" lengthAdjust="spacingAndGlyphs" textLength="114.5833" x="1073.9583" y="881.8324">this is a first note</text><line style="stroke: #B5E853; stroke-width: 1.0416666666666667; stroke-dasharray: 2.0,2.0;" x1="13.5417" x2="1348.9583" y1="901.6927" y2="901.6927"/><text fill="#EAEAEA" font-family="&quot;Verdana&quot;" font-size="11.4583" font-weight="bold" lengthAdjust="spacingAndGlyphs" textLength="143.75" x="23.9583" y="917.5369">[some kind of failure]</text><polygon fill="#B5E853" points="1202.6042,954.7526,1213.0208,958.9193,1202.6042,963.0859,1206.7708,958.9193" style="stroke: #B5E853; stroke-width: 1.0416666666666667;"/><line style="stroke: #B5E853; stroke-width: 3.125;" x1="71.3542" x2="1208.8542" y1="958.9193" y2="958.9193"/><text fill="#FFFFFF" font-family="&quot;Verdana&quot;" font-size="13.5417" font-weight="bold" lengthAdjust="spacingAndGlyphs" textLength="40.625" x="83.8542" y="948.4339">[011]</text><text fill="#FFFFFF" font-family="&quot;Verdana&quot;" font-size="13.5417" lengthAdjust="spacingAndGlyphs" textLength="144.7917" x="139.0625" y="948.4339">Authentication Failure</text><polygon fill="#B5E853" points="82.8125,995.516,72.3958,999.6826,82.8125,1003.8493,78.6458,999.6826" style="stroke: #B5E853; stroke-width: 1.0416666666666667;"/><line style="stroke: #B5E853; stroke-width: 3.125; stroke-dasharray: 2.0,2.0;" x1="76.5625" x2="1214.0625" y1="999.6826" y2="999.6826"/><text fill="#FFFFFF" font-family="&quot;Verdana&quot;" font-size="13.5417" font-weight="bold" lengthAdjust="spacingAndGlyphs" textLength="40.625" x="94.2708" y="989.1973">[012]</text><text fill="#AC4142" font-family="&quot;Verdana&quot;" font-size="13.5417" font-weight="bold" lengthAdjust="spacingAndGlyphs" textLength="94.7917" x="149.4792" y="989.1973">Bad request</text><path d="M28.125,1015.3076 L182.2917,1015.3076 L182.2917,1033.016 L171.875,1043.4326 L23.9583,1043.4326 L23.9583,1019.4743 " fill="#151515" style="stroke: #EAEAEA; stroke-width: 1.0416666666666667;"/><rect fill="none" height="120.0033" rx="4.1667" ry="4.1667" style="stroke: #B5E853; stroke-width: 2.0833333333333335;" width="1314.5833" x="23.9583" y="1015.3076"/><text fill="#AA759F" font-family="&quot;Verdana&quot;" font-size="13.5417" font-weight="bold" lengthAdjust="spacingAndGlyphs" textLength="101.0417" x="44.7917" y="1034.1273">My own label</text><path d="M38.5417,1050.8626 L125,1050.8626 L125,1068.571 L114.5833,1078.9876 L34.375,1078.9876 L34.375,1055.0293 " fill="#151515" style="stroke: #EAEAEA; stroke-width: 1.0416666666666667;"/><rect fill="none" height="77.1566" rx="4.1667" ry="4.1667" style="stroke: #B5E853; stroke-width: 2.0833333333333335;" width="1293.75" x="34.375" y="1050.8626"/><text fill="#AA759F" font-family="&quot;Verdana&quot;" font-size="13.5417" font-weight="bold" lengthAdjust="spacingAndGlyphs" textLength="33.3333" x="55.2083" y="1069.6823">loop</text><text fill="#EAEAEA" font-family="&quot;Verdana&quot;" font-size="11.4583" font-weight="bold" lengthAdjust="spacingAndGlyphs" textLength="84.375" x="145.8333" y="1068.7902">[1000 times]</text><polygon fill="#B5E853" points="82.8125,1115.5192,72.3958,1119.6859,82.8125,1123.8525,78.6458,1119.6859" style="stroke: #B5E853; stroke-width: 1.0416666666666667;"/><line style="stroke: #B5E853; stroke-width: 3.125;" x1="76.5625" x2="1214.0625" y1="1119.6859" y2="1119.6859"/><text fill="#FFFFFF" font-family="&quot;Verdana&quot;" font-size="13.5417" font-weight="bold" lengthAdjust="spacingAndGlyphs" textLength="40.625" x="94.2708" y="1109.2005">[013]</text><text fill="#FFFFFF" font-family="&quot;Verdana&quot;" font-size="13.5417" lengthAdjust="spacingAndGlyphs" textLength="77.0833" x="149.4792" y="1109.2005">DNS Attack</text><line style="stroke: #B5E853; stroke-width: 1.0416666666666667; stroke-dasharray: 2.0,2.0;" x1="13.5417" x2="1348.9583" y1="1143.6442" y2="1143.6442"/><text fill="#EAEAEA" font-family="&quot;Verdana&quot;" font-size="11.4583" font-weight="bold" lengthAdjust="spacingAndGlyphs" textLength="108.3333" x="23.9583" y="1159.4884">[Just a Warning]</text><polygon fill="#B5E853" points="1202.6042,1196.7041,1213.0208,1200.8708,1202.6042,1205.0374,1206.7708,1200.8708" style="stroke: #B5E853; stroke-width: 1.0416666666666667;"/><line style="stroke: #B5E853; stroke-width: 3.125;" x1="71.3542" x2="1208.8542" y1="1200.8708" y2="1200.8708"/><text fill="#FFFFFF" font-family="&quot;Verdana&quot;" font-size="13.5417" font-weight="bold" lengthAdjust="spacingAndGlyphs" textLength="40.625" x="83.8542" y="1190.3854">[014]</text><text fill="#F4BF75" font-family="&quot;Verdana&quot;" font-size="13.5417" font-weight="bold" lengthAdjust="spacingAndGlyphs" textLength="107.2917" x="139.0625" y="1190.3854">Please repeat</text><path d="M46.875,1225.8708 L46.875,1285.2458 A4.1667,4.1667 0 0 0 51.0417,1289.4124 L263.5417,1289.4124 A4.1667,4.1667 0 0 0 267.7083,1285.2458 L267.7083,1232.1208 L257.2917,1221.7041 L51.0417,1221.7041 A4.1667,4.1667 0 0 0 46.875,1225.8708 " fill="url(#g3f99w65f97852)" style="stroke: #A80036; stroke-width: 1.0416666666666667;"/><path d="M257.2917,1221.7041 L257.2917,1230.0374 A2.0833,2.0833 0 0 0 259.375,1232.1208 L267.7083,1232.1208 L257.2917,1221.7041 " fill="url(#g3f99w65f97852)" style="stroke: #A80036; stroke-width: 1.0416666666666667;"/><text fill="#FFFFFF" font-family="&quot;Verdana&quot;" font-size="13.5417" lengthAdjust="spacingAndGlyphs" textLength="137.5" x="83.8542" y="1244.6905">this is a second note</text><text fill="#FFFFFF" font-family="&quot;Verdana&quot;" font-size="13.5417" lengthAdjust="spacingAndGlyphs" textLength="81.25" x="83.8542" y="1260.4538">that is really</text><text fill="#FFFFFF" font-family="&quot;Verdana&quot;" font-size="13.5417" lengthAdjust="spacingAndGlyphs" textLength="28.125" x="83.8542" y="1276.2171">long</text><rect fill="none" height="22.5423" rx="4.1667" ry="4.1667" style="stroke: none; stroke-width: 1.0416666666666667;" width="77.0833" x="1286.4583" y="3.125"/><text fill="#888888" font-family="&quot;Verdana&quot;" font-size="10.4167" lengthAdjust="spacingAndGlyphs" textLength="66.6667" x="1291.6667" y="18.0023">Page Header</text><rect fill="none" height="22.5423" rx="4.1667" ry="4.1667" style="stroke: none; stroke-width: 1.0416666666666667;" width="68.75" x="648.9583" y="1402.6367"/><text fill="#888888" font-family="&quot;Verdana&quot;" font-size="10.4167" lengthAdjust="spacingAndGlyphs" textLength="58.3333" x="654.1667" y="1417.514">Page 1 of 1</text><!--MD5=[3b160fe38efd9203b7ee5ae5f4edff98]
@startuml



skinparam backgroundColor black
skinparam useBetaStyle true






skinparam defaultFontName       "Verdana"
skinparam defaultFontSize       12
skinparam dpi                   100
skinparam shadowing             false
skinparam roundcorner           8
skinparam ParticipantPadding    40
skinparam BoxPadding            40
skinparam Padding               5
skinparam ArrowColor            #eaeaea
skinparam stereotype {
    CBackgroundColor #557f91
    CBorderColor #88b2c4
    ABackgroundColor #a6ba7a
    ABorderColor $SUCCESS_DARK
    IBackgroundColor #bd6768
    IBorderColor $DANGER_DARK
    EBackgroundColor #f6cc91
    EBorderColor $WARNING_DARK
    NBackgroundColor #bb91b2
    NBorderColor $INFO_DARK
}
skinparam title {
	FontColor	                 #b5e853
	BorderColor	                 #b5e853
	FontSize	    	         20
	BorderRoundCorner            8
	BorderThickness 	         1
	BackgroundColor              #151515-black
}


skinparam legend {
	BackgroundColor #6a9fb5
	BorderColor #557f91
	FontColor #eaeaea
}

skinparam activity {
	FontColor #151515
	BorderColor #d3f198
	BackgroundColor #d3f198-#b5e853
	BarColor #90a959
	StartColor #aa759f
	EndColor #aa759f
	DiamondBackgroundColor #88b2c4-#6a9fb5
  	DiamondBorderColor #88b2c4
  	DiamondFontColor #fefefe
}

skinparam sequence {
	BorderColor #b5e853
	TitleFontColor #b5e853
	BackgroundColor black
	StartColor #b5e853
	EndColor #b5e853
    ParticipantBackgroundColor #d3f198-#b5e853
    ParticipantBorderColor #d3f198
	ParticipantBorderThickness 2
	ParticipantFontColor #151515
	ActorBackgroundColor black
    ActorBorderColor #b5e853
	ActorFontColor #b5e853
	ArrowThickness 3
	ArrowColor #b5e853
	ArrowFontColor $FGCOLOR
	BoxBackgroundColor black
	BoxBorderColor #eaeaea
	BoxFontColor $DARk
	LifeLineBorderColor #6a9fb5
	LifeLineBorderThickness 2
	LifeLineBackgroundColor #557f91
	GroupBackgroundColor #151515
	GroupBorderColor #eaeaea
	GroupFontColor #eaeaea
	GroupHeaderFontColor #aa759f
	DividerBackgroundColor #eaeaea
    DividerBorderColor #eaeaea
    DividerBorderThickness 2
    DividerFontColor #151515
	ReferenceBackgroundColor #151515
	ReferenceBorderColor #eaeaea
	ReferenceFontColor #eaeaea
	ReferenceHeaderBackgroundColor #151515
}

skinparam partition {
	BorderColor #b5e853
	FontColor #b5e853
	BackgroundColor #151515-black
}

skinparam collections {
	BackgroundColor #d3f198-#b5e853
	BorderColor #d3f198
}

skinparam control {
	BackgroundColor  #d3f198-#b5e853
	BorderColor #d3f198
	FontColor #eaeaea
}

skinparam entity {
	BackgroundColor  #d3f198-#b5e853
	BorderColor #d3f198
	FontColor #eaeaea
}

skinparam boundary {
	BackgroundColor  #d3f198-#b5e853
	BorderColor #d3f198
	FontColor #eaeaea
}

skinparam agent {
	BackgroundColor #f6cc91-#f4bf75
	BorderColor #f6cc91
	FontColor #eaeaea
}

skinparam note {
	BorderThickness 1
	BackgroundColor #bb91b2-#aa759f
	BorderColor #bb91b2
	FontColor $WHITE
}

skinparam artifact {
	BackgroundColor #eaeaea
	BorderColor white
	FontColor #151515
}

skinparam component {
	BackgroundColor #d3f198-#b5e853
	BorderColor #d3f198
	FontColor #151515
}

skinparam interface {
	BackgroundColor  #bd6768-#ac4142
	BorderColor  #bd6768
	FontColor #eaeaea
}

skinparam storage {
	BackgroundColor #f6cc91-#f4bf75
  	BorderColor #f6cc91
	FontColor #151515
}

skinparam node {
	BackgroundColor  #151515-black
	BorderColor #d3f198
	FontColor #eaeaea
}

skinparam cloud {
	BackgroundColor #F2FCFE-#eeeeee
	BorderColor #F2FCFE
	FontColor #151515
}

skinparam database {
	BackgroundColor  #151515-black
	BorderColor #d3f198
	FontColor #eaeaea
}

skinparam actor {
	FontColor #eaeaea
}

skinparam class {
	HeaderBackgroundColor #d3f198-#b5e853
	FontColor #151515
	BackgroundColor #b5e853
	BorderColor #d3f198
	StereotypeFontColor #eaeaea
	BorderThickness 1
	AttributeFontColor #151515
	AttributeFontSize 11
}

skinparam object {
	BackgroundColor #d3f198-#b5e853
	BorderColor #d3f198
	FontColor #151515
	StereotypeFontColor #eaeaea
	BorderThickness 1
	AttributeFontColor #151515
	AttributeFontSize 11
}

skinparam usecase {
	BackgroundColor #d3f198-#b5e853
	BorderColor #d3f198
	FontColor #151515
	BorderThickness 2
	StereotypeFontColor #b5e853
}

skinparam rectangle {
	BackgroundColor #151515-DARK
	BorderColor #d3f198
	BorderThickness 2
	FontColor #b5e853
	StereotypeFontColor #b5e853
}

skinparam package {
	BackgroundColor #151515
  	BorderColor #b5e853
	FontColor #b5e853
	BorderThickness 2
}

skinparam folder {
	BackgroundColor #151515-black
  	BorderColor #f4bf75
	FontColor #f4bf75
	BorderThickness 2
}

skinparam frame {
	BackgroundColor #151515-black
  	BorderColor #aa759f
	FontColor #aa759f
	BorderThickness 2
}

skinparam state {
	StartColor #aa759f
	EndColor #aa759f
	BackgroundColor #d3f198-#b5e853
	BorderColor #d3f198
	FontColor #151515
	AttributeFontColor #fefefe
	AttributeFontSize 11
}

skinparam queue {
	BackgroundColor #d3f198-#b5e853
	BorderColor #d3f198
	FontColor #151515
}

skinparam card {
	BackgroundColor #bb91b2-#aa759f
	BorderColor #bb91b2
	FontColor $INFO_TEXT
}

skinparam file {
	BackgroundColor #88b2c4-#6a9fb5
	BorderColor #88b2c4
	FontColor #eaeaea
}

skinparam stack {
	BackgroundColor #d3f198-#b5e853
	BorderColor #d3f198
	FontColor #151515
}



title Sequence Diagram - hacker theme


autonumber "<b>[000]"

header Page Header
footer Page %page% of %lastpage%

actor Foo1
boundary Foo2
control Foo3
entity Foo4
database Foo5
collections Foo6
participant Bob
participant Alice << (C,#ADD1B2) Testable >>

box "Internal Service"
	participant Bob
	participant Alice
end box

== Initialization ==
Foo1 -> Foo2 : To boundary
|||
Foo2 -> Foo3 ++: To control
ref over Foo4, Foo5
  This can be on
  several lines
end ref
Foo3 -> Foo4 : To entity

Foo4 -> Foo5 : To database
Foo5 - -> Foo3 - - : return
Foo3 - -> Foo2 - -: return
... Some ~~long delay~~ ...
Foo1 -> Foo6 : To collections
Foo6 - -> Foo4:   <font color=#90a959><b>success


alt successful case

Foo1 -> Alice: Authentication Accepted
Alice - -> Foo1: success

note left of Alice: this is a first note

else some kind of failure

	Foo1 -> Alice: Authentication Failure
    Alice - -> Foo1:   <font color=#ac4142><b>Bad request
	group My own label
	    loop 1000 times
	        Alice -> Foo1: DNS Attack
	    end
	end
	
else Just a Warning

   Foo1 -> Alice:   <font color=#f4bf75><b>Please repeat
   
end

note over Foo1, Foo2
this is a second note
that is really
long
end note

@enduml

PlantUML version 1.2019.12(Sun Nov 03 02:24:54 PST 2019)
(GPL source distribution)
Java Runtime: OpenJDK Runtime Environment
JVM: OpenJDK 64-Bit Server VM
Java Version: 11.0.4+11-post-Ubuntu-1ubuntu218.04.3
Operating System: Linux
Default Encoding: UTF-8
Language: en
Country: US
--></g></svg>