<?xml version="1.0" encoding="UTF-8" standalone="no"?><svg xmlns="http://www.w3.org/2000/svg" xmlns:xlink="http://www.w3.org/1999/xlink" contentScriptType="application/ecmascript" contentStyleType="text/css" height="1479.1667px" preserveAspectRatio="none" style="width:1293px;height:1479px;background:#000000;" version="1.1" viewBox="0 0 1293 1479" width="1293.75px" zoomAndPan="magnify"><defs><linearGradient id="g1yln9c5dm3n90" x1="50%" x2="50%" y1="0%" y2="100%"><stop offset="0%" stop-color="#151515"/><stop offset="100%" stop-color="#000000"/></linearGradient><linearGradient id="g1yln9c5dm3n91" x1="50%" x2="50%" y1="0%" y2="100%"><stop offset="0%" stop-color="#D3F198"/><stop offset="100%" stop-color="#B5E853"/></linearGradient><linearGradient id="g1yln9c5dm3n92" x1="50%" x2="50%" y1="0%" y2="100%"><stop offset="0%" stop-color="#BB91B2"/><stop offset="100%" stop-color="#AA759F"/></linearGradient></defs><g><rect fill="url(#g1yln9c5dm3n90)" height="47.0378" rx="4.1667" ry="4.1667" style="stroke: #B5E853; stroke-width: 1.0416666666666667;" width="358.3333" x="462.5" y="32.8939"/><text fill="#B5E853" font-family="&quot;Verdana&quot;" font-size="20.8333" font-weight="bold" lengthAdjust="spacingAndGlyphs" textLength="337.5" x="472.9167" y="64.9373">Sequence Diagram - hacker theme</text><rect fill="#000000" height="1356.9499" rx="20.8333" ry="20.8333" style="stroke: #EAEAEA; stroke-width: 1.0416666666666667;" width="352.0833" x="886.4583" y="87.2233"/><text fill="#000000" font-family="&quot;Verdana&quot;" font-size="13.5417" font-weight="bold" lengthAdjust="spacingAndGlyphs" textLength="105.2083" x="1009.8958" y="106.4891">Internal Service</text><rect fill="#557F91" height="253.068" style="stroke: #6A9FB5; stroke-width: 1.0416666666666667;" width="10.4167" x="358.8542" y="349.3734"/><rect fill="#151515" height="490.4785" rx="20.8333" ry="20.8333" style="stroke: #B5E853; stroke-width: 2.0833333333333335;" width="1252.0833" x="13.5417" y="756.1279"/><rect fill="#000000" height="250.4476" style="stroke: none; stroke-width: 1.0416666666666667;" width="1252.0833" x="13.5417" y="927.2135"/><rect fill="#151515" height="124.8861" rx="20.8333" ry="20.8333" style="stroke: #B5E853; stroke-width: 2.0833333333333335;" width="1231.25" x="23.9583" y="1045.4834"/><rect fill="#151515" height="80.7699" rx="20.8333" ry="20.8333" style="stroke: #B5E853; stroke-width: 2.0833333333333335;" width="1210.4167" x="34.375" y="1082.3079"/><rect fill="#000000" height="68.9453" style="stroke: none; stroke-width: 1.0416666666666667;" width="1252.0833" x="13.5417" y="1177.6611"/><line style="stroke: #6A9FB5; stroke-width: 1.0416666666666667;" x1="69.7917" x2="69.7917" y1="180.5664" y2="610.7747"/><line style="stroke: #6A9FB5; stroke-width: 1.0416666666666667; stroke-dasharray: 1.0,4.0;" x1="69.7917" x2="69.7917" y1="610.7747" y2="664.7705"/><line style="stroke: #6A9FB5; stroke-width: 1.0416666666666667;" x1="69.7917" x2="69.7917" y1="664.7705" y2="1346.6634"/><line style="stroke: #6A9FB5; stroke-width: 1.0416666666666667;" x1="223.9583" x2="223.9583" y1="180.5664" y2="610.7747"/><line style="stroke: #6A9FB5; stroke-width: 1.0416666666666667; stroke-dasharray: 1.0,4.0;" x1="223.9583" x2="223.9583" y1="610.7747" y2="664.7705"/><line style="stroke: #6A9FB5; stroke-width: 1.0416666666666667;" x1="223.9583" x2="223.9583" y1="664.7705" y2="1346.6634"/><line style="stroke: #6A9FB5; stroke-width: 1.0416666666666667;" x1="363.5417" x2="363.5417" y1="180.5664" y2="610.7747"/><line style="stroke: #6A9FB5; stroke-width: 1.0416666666666667; stroke-dasharray: 1.0,4.0;" x1="363.5417" x2="363.5417" y1="610.7747" y2="664.7705"/><line style="stroke: #6A9FB5; stroke-width: 1.0416666666666667;" x1="363.5417" x2="363.5417" y1="664.7705" y2="1346.6634"/><line style="stroke: #6A9FB5; stroke-width: 1.0416666666666667;" x1="501.0417" x2="501.0417" y1="180.5664" y2="610.7747"/><line style="stroke: #6A9FB5; stroke-width: 1.0416666666666667; stroke-dasharray: 1.0,4.0;" x1="501.0417" x2="501.0417" y1="610.7747" y2="664.7705"/><line style="stroke: #6A9FB5; stroke-width: 1.0416666666666667;" x1="501.0417" x2="501.0417" y1="664.7705" y2="1346.6634"/><line style="stroke: #6A9FB5; stroke-width: 1.0416666666666667;" x1="655.2083" x2="655.2083" y1="180.5664" y2="610.7747"/><line style="stroke: #6A9FB5; stroke-width: 1.0416666666666667; stroke-dasharray: 1.0,4.0;" x1="655.2083" x2="655.2083" y1="610.7747" y2="664.7705"/><line style="stroke: #6A9FB5; stroke-width: 1.0416666666666667;" x1="655.2083" x2="655.2083" y1="664.7705" y2="1346.6634"/><line style="stroke: #6A9FB5; stroke-width: 1.0416666666666667;" x1="764.5833" x2="764.5833" y1="180.5664" y2="610.7747"/><line style="stroke: #6A9FB5; stroke-width: 1.0416666666666667; stroke-dasharray: 1.0,4.0;" x1="764.5833" x2="764.5833" y1="610.7747" y2="664.7705"/><line style="stroke: #6A9FB5; stroke-width: 1.0416666666666667;" x1="764.5833" x2="764.5833" y1="664.7705" y2="1346.6634"/><line style="stroke: #6A9FB5; stroke-width: 1.0416666666666667;" x1="957.2917" x2="957.2917" y1="180.5664" y2="610.7747"/><line style="stroke: #6A9FB5; stroke-width: 1.0416666666666667; stroke-dasharray: 1.0,4.0;" x1="957.2917" x2="957.2917" y1="610.7747" y2="664.7705"/><line style="stroke: #6A9FB5; stroke-width: 1.0416666666666667;" x1="957.2917" x2="957.2917" y1="664.7705" y2="1346.6634"/><line style="stroke: #6A9FB5; stroke-width: 1.0416666666666667;" x1="1134.375" x2="1134.375" y1="180.5664" y2="610.7747"/><line style="stroke: #6A9FB5; stroke-width: 1.0416666666666667; stroke-dasharray: 1.0,4.0;" x1="1134.375" x2="1134.375" y1="610.7747" y2="664.7705"/><line style="stroke: #6A9FB5; stroke-width: 1.0416666666666667;" x1="1134.375" x2="1134.375" y1="664.7705" y2="1346.6634"/><text fill="#151515" font-family="&quot;Verdana&quot;" font-size="14.5833" lengthAdjust="spacingAndGlyphs" textLength="34.375" x="50" y="172.1537">Foo1</text><ellipse cx="70.3125" cy="96.5983" fill="url(#g1yln9c5dm3n91)" rx="8.3333" ry="8.3333" style="stroke: #D3F198; stroke-width: 2.0833333333333335;"/><path d="M70.3125,104.9316 L70.3125,133.0566 M56.7708,113.265 L83.8542,113.265 M70.3125,133.0566 L56.7708,148.6816 M70.3125,133.0566 L83.8542,148.6816 " fill="none" style="stroke: #D3F198; stroke-width: 2.0833333333333335;"/><text fill="#151515" font-family="&quot;Verdana&quot;" font-size="14.5833" lengthAdjust="spacingAndGlyphs" textLength="34.375" x="50" y="1365.9688">Foo1</text><ellipse cx="70.3125" cy="1384.7982" fill="url(#g1yln9c5dm3n91)" rx="8.3333" ry="8.3333" style="stroke: #D3F198; stroke-width: 2.0833333333333335;"/><path d="M70.3125,1393.1315 L70.3125,1421.2565 M56.7708,1401.4648 L83.8542,1401.4648 M70.3125,1421.2565 L56.7708,1436.8815 M70.3125,1421.2565 L83.8542,1436.8815 " fill="none" style="stroke: #D3F198; stroke-width: 2.0833333333333335;"/><text fill="#EAEAEA" font-family="&quot;Verdana&quot;" font-size="14.5833" lengthAdjust="spacingAndGlyphs" textLength="34.375" x="204.1667" y="172.1537">Foo2</text><path d="M203.125,122.64 L203.125,147.64 M203.125,135.14 L220.8333,135.14 " fill="none" style="stroke: #D3F198; stroke-width: 2.0833333333333335;"/><ellipse cx="233.3333" cy="135.14" fill="url(#g1yln9c5dm3n91)" rx="12.5" ry="12.5" style="stroke: #D3F198; stroke-width: 2.0833333333333335;"/><text fill="#EAEAEA" font-family="&quot;Verdana&quot;" font-size="14.5833" lengthAdjust="spacingAndGlyphs" textLength="34.375" x="204.1667" y="1365.9688">Foo2</text><path d="M203.125,1378.5482 L203.125,1403.5482 M203.125,1391.0482 L220.8333,1391.0482 " fill="none" style="stroke: #D3F198; stroke-width: 2.0833333333333335;"/><ellipse cx="233.3333" cy="1391.0482" fill="url(#g1yln9c5dm3n91)" rx="12.5" ry="12.5" style="stroke: #D3F198; stroke-width: 2.0833333333333335;"/><text fill="#EAEAEA" font-family="&quot;Verdana&quot;" font-size="14.5833" lengthAdjust="spacingAndGlyphs" textLength="34.375" x="343.75" y="172.1537">Foo3</text><ellipse cx="364.0625" cy="135.14" fill="url(#g1yln9c5dm3n91)" rx="12.5" ry="12.5" style="stroke: #D3F198; stroke-width: 2.0833333333333335;"/><polygon fill="#D3F198" points="359.8958,122.64,366.1458,117.4316,364.0625,122.64,366.1458,127.8483,359.8958,122.64" style="stroke: #D3F198; stroke-width: 1.0416666666666667;"/><text fill="#EAEAEA" font-family="&quot;Verdana&quot;" font-size="14.5833" lengthAdjust="spacingAndGlyphs" textLength="34.375" x="343.75" y="1365.9688">Foo3</text><ellipse cx="364.0625" cy="1391.0482" fill="url(#g1yln9c5dm3n91)" rx="12.5" ry="12.5" style="stroke: #D3F198; stroke-width: 2.0833333333333335;"/><polygon fill="#D3F198" points="359.8958,1378.5482,366.1458,1373.3398,364.0625,1378.5482,366.1458,1383.7565,359.8958,1378.5482" style="stroke: #D3F198; stroke-width: 1.0416666666666667;"/><text fill="#EAEAEA" font-family="&quot;Verdana&quot;" font-size="14.5833" lengthAdjust="spacingAndGlyphs" textLength="34.375" x="481.25" y="172.1537">Foo4</text><ellipse cx="501.5625" cy="135.14" fill="url(#g1yln9c5dm3n91)" rx="12.5" ry="12.5" style="stroke: #D3F198; stroke-width: 2.0833333333333335;"/><line style="stroke: #D3F198; stroke-width: 2.0833333333333335;" x1="489.0625" x2="514.0625" y1="149.7233" y2="149.7233"/><text fill="#EAEAEA" font-family="&quot;Verdana&quot;" font-size="14.5833" lengthAdjust="spacingAndGlyphs" textLength="34.375" x="481.25" y="1365.9688">Foo4</text><ellipse cx="501.5625" cy="1391.0482" fill="url(#g1yln9c5dm3n91)" rx="12.5" ry="12.5" style="stroke: #D3F198; stroke-width: 2.0833333333333335;"/><line style="stroke: #D3F198; stroke-width: 2.0833333333333335;" x1="489.0625" x2="514.0625" y1="1405.6315" y2="1405.6315"/><text fill="#EAEAEA" font-family="&quot;Verdana&quot;" font-size="14.5833" lengthAdjust="spacingAndGlyphs" textLength="34.375" x="635.4167" y="172.1537">Foo5</text><path d="M636.9792,114.3066 C636.9792,103.89 655.7292,103.89 655.7292,103.89 C655.7292,103.89 674.4792,103.89 674.4792,114.3066 L674.4792,141.39 C674.4792,151.8066 655.7292,151.8066 655.7292,151.8066 C655.7292,151.8066 636.9792,151.8066 636.9792,141.39 L636.9792,114.3066 " fill="url(#g1yln9c5dm3n90)" style="stroke: #D3F198; stroke-width: 1.5625;"/><path d="M636.9792,114.3066 C636.9792,124.7233 655.7292,124.7233 655.7292,124.7233 C655.7292,124.7233 674.4792,124.7233 674.4792,114.3066 " fill="none" style="stroke: #D3F198; stroke-width: 1.5625;"/><text fill="#EAEAEA" font-family="&quot;Verdana&quot;" font-size="14.5833" lengthAdjust="spacingAndGlyphs" textLength="34.375" x="635.4167" y="1365.9688">Foo5</text><path d="M636.9792,1384.7982 C636.9792,1374.3815 655.7292,1374.3815 655.7292,1374.3815 C655.7292,1374.3815 674.4792,1374.3815 674.4792,1384.7982 L674.4792,1411.8815 C674.4792,1422.2982 655.7292,1422.2982 655.7292,1422.2982 C655.7292,1422.2982 636.9792,1422.2982 636.9792,1411.8815 L636.9792,1384.7982 " fill="url(#g1yln9c5dm3n90)" style="stroke: #D3F198; stroke-width: 1.5625;"/><path d="M636.9792,1384.7982 C636.9792,1395.2148 655.7292,1395.2148 655.7292,1395.2148 C655.7292,1395.2148 674.4792,1395.2148 674.4792,1384.7982 " fill="none" style="stroke: #D3F198; stroke-width: 1.5625;"/><rect fill="url(#g1yln9c5dm3n91)" height="43.3431" rx="20.8333" ry="20.8333" style="stroke: #D3F198; stroke-width: 1.5625;" width="59.375" x="737.5" y="132.015"/><rect fill="url(#g1yln9c5dm3n91)" height="43.3431" rx="20.8333" ry="20.8333" style="stroke: #D3F198; stroke-width: 1.5625;" width="59.375" x="733.3333" y="136.1816"/><text fill="#151515" font-family="&quot;Verdana&quot;" font-size="14.5833" lengthAdjust="spacingAndGlyphs" textLength="34.375" x="745.8333" y="163.8204">Foo6</text><rect fill="url(#g1yln9c5dm3n91)" height="43.3431" rx="20.8333" ry="20.8333" style="stroke: #D3F198; stroke-width: 1.5625;" width="59.375" x="737.5" y="1345.6217"/><rect fill="url(#g1yln9c5dm3n91)" height="43.3431" rx="20.8333" ry="20.8333" style="stroke: #D3F198; stroke-width: 1.5625;" width="59.375" x="733.3333" y="1349.7884"/><text fill="#151515" font-family="&quot;Verdana&quot;" font-size="14.5833" lengthAdjust="spacingAndGlyphs" textLength="34.375" x="745.8333" y="1377.4272">Foo6</text><rect fill="url(#g1yln9c5dm3n91)" height="43.3431" rx="20.8333" ry="20.8333" style="stroke: #D3F198; stroke-width: 1.5625;" width="51.0417" x="932.2917" y="136.1816"/><text fill="#151515" font-family="&quot;Verdana&quot;" font-size="14.5833" lengthAdjust="spacingAndGlyphs" textLength="26.0417" x="944.7917" y="163.8204">Bob</text><rect fill="url(#g1yln9c5dm3n91)" height="43.3431" rx="20.8333" ry="20.8333" style="stroke: #D3F198; stroke-width: 1.5625;" width="51.0417" x="932.2917" y="1345.6217"/><text fill="#151515" font-family="&quot;Verdana&quot;" font-size="14.5833" lengthAdjust="spacingAndGlyphs" textLength="26.0417" x="944.7917" y="1373.2605">Bob</text><rect fill="url(#g1yln9c5dm3n91)" height="51.2695" rx="20.8333" ry="20.8333" style="stroke: #D3F198; stroke-width: 1.5625;" width="115.625" x="1077.0833" y="128.2552"/><ellipse cx="1094.7917" cy="145.9635" fill="#ADD1B2" rx="10.4167" ry="10.4167" style="stroke: #D3F198; stroke-width: 1.0416666666666667;"/><path d="M1096.3379,143.0501 Q1096.4518,142.8874 1096.5902,142.806 Q1096.7285,142.7246 1096.8913,142.7246 Q1097.168,142.7246 1097.3389,142.9199 Q1097.5098,143.1152 1097.5098,143.5547 L1097.5098,144.6289 Q1097.5098,145.0684 1097.3389,145.2637 Q1097.168,145.459 1096.8913,145.459 Q1096.6309,145.459 1096.4844,145.3125 Q1096.3379,145.1823 1096.2565,144.7917 Q1096.224,144.5313 1096.0938,144.401 Q1095.8333,144.1243 1095.3857,143.9616 Q1094.9382,143.7988 1094.4824,143.7988 Q1093.929,143.7988 1093.457,144.043 Q1092.985,144.2871 1092.627,144.8324 Q1092.2689,145.3776 1092.2689,146.1426 L1092.2689,146.9564 Q1092.2689,147.8516 1092.9281,148.4538 Q1093.5872,149.056 1094.7428,149.056 Q1095.4427,149.056 1095.931,148.877 Q1096.2077,148.763 1096.5169,148.4375 Q1096.7122,148.2422 1096.8262,148.1852 Q1096.9401,148.1283 1097.0703,148.1283 Q1097.3307,148.1283 1097.5179,148.3154 Q1097.7051,148.5026 1097.7051,148.763 Q1097.7051,149.0234 1097.4447,149.3164 Q1097.0703,149.7396 1096.4844,149.9837 Q1095.7031,150.3092 1094.7591,150.3092 Q1093.6361,150.3092 1092.7572,149.8535 Q1092.0247,149.4954 1091.5202,148.6979 Q1091.0156,147.9004 1091.0156,146.9727 L1091.0156,146.1263 Q1091.0156,145.1497 1091.4714,144.3034 Q1091.9271,143.457 1092.7327,143.0013 Q1093.5384,142.5456 1094.4336,142.5456 Q1094.987,142.5456 1095.459,142.6676 Q1095.931,142.7897 1096.3379,143.0501 Z "/><text fill="#151515" font-family="&quot;Verdana&quot;" font-size="14.5833" font-style="italic" lengthAdjust="spacingAndGlyphs" textLength="73.9583" x="1111.4583" y="150.1302">«Testable»</text><text fill="#151515" font-family="&quot;Verdana&quot;" font-size="14.5833" lengthAdjust="spacingAndGlyphs" textLength="31.25" x="1132.8125" y="168.4733">Alice</text><rect fill="url(#g1yln9c5dm3n91)" height="51.2695" rx="20.8333" ry="20.8333" style="stroke: #D3F198; stroke-width: 1.5625;" width="115.625" x="1077.0833" y="1345.6217"/><ellipse cx="1094.7917" cy="1363.3301" fill="#ADD1B2" rx="10.4167" ry="10.4167" style="stroke: #D3F198; stroke-width: 1.0416666666666667;"/><path d="M1096.3379,1360.4167 Q1096.4518,1360.2539 1096.5902,1360.1725 Q1096.7285,1360.0911 1096.8913,1360.0911 Q1097.168,1360.0911 1097.3389,1360.2865 Q1097.5098,1360.4818 1097.5098,1360.9212 L1097.5098,1361.9954 Q1097.5098,1362.4349 1097.3389,1362.6302 Q1097.168,1362.8255 1096.8913,1362.8255 Q1096.6309,1362.8255 1096.4844,1362.679 Q1096.3379,1362.5488 1096.2565,1362.1582 Q1096.224,1361.8978 1096.0938,1361.7676 Q1095.8333,1361.4909 1095.3857,1361.3281 Q1094.9382,1361.1654 1094.4824,1361.1654 Q1093.929,1361.1654 1093.457,1361.4095 Q1092.985,1361.6536 1092.627,1362.1989 Q1092.2689,1362.7441 1092.2689,1363.5091 L1092.2689,1364.3229 Q1092.2689,1365.2181 1092.9281,1365.8203 Q1093.5872,1366.4225 1094.7428,1366.4225 Q1095.4427,1366.4225 1095.931,1366.2435 Q1096.2077,1366.1296 1096.5169,1365.804 Q1096.7122,1365.6087 1096.8262,1365.5518 Q1096.9401,1365.4948 1097.0703,1365.4948 Q1097.3307,1365.4948 1097.5179,1365.682 Q1097.7051,1365.8691 1097.7051,1366.1296 Q1097.7051,1366.39 1097.4447,1366.6829 Q1097.0703,1367.1061 1096.4844,1367.3503 Q1095.7031,1367.6758 1094.7591,1367.6758 Q1093.6361,1367.6758 1092.7572,1367.2201 Q1092.0247,1366.862 1091.5202,1366.0645 Q1091.0156,1365.2669 1091.0156,1364.3392 L1091.0156,1363.4928 Q1091.0156,1362.5163 1091.4714,1361.6699 Q1091.9271,1360.8236 1092.7327,1360.3678 Q1093.5384,1359.9121 1094.4336,1359.9121 Q1094.987,1359.9121 1095.459,1360.0342 Q1095.931,1360.1563 1096.3379,1360.4167 Z "/><text fill="#151515" font-family="&quot;Verdana&quot;" font-size="14.5833" font-style="italic" lengthAdjust="spacingAndGlyphs" textLength="73.9583" x="1111.4583" y="1367.4967">«Testable»</text><text fill="#151515" font-family="&quot;Verdana&quot;" font-size="14.5833" lengthAdjust="spacingAndGlyphs" textLength="31.25" x="1132.8125" y="1385.8398">Alice</text><rect fill="#557F91" height="253.068" style="stroke: #6A9FB5; stroke-width: 1.0416666666666667;" width="10.4167" x="358.8542" y="349.3734"/><rect fill="#EAEAEA" height="3.125" rx="20.8333" ry="20.8333" style="stroke: #EAEAEA; stroke-width: 1.0416666666666667;" width="1278.125" x="3.125" y="218.2495"/><line style="stroke: #EAEAEA; stroke-width: 1.0416666666666667;" x1="3.125" x2="1281.25" y1="218.2495" y2="218.2495"/><line style="stroke: #EAEAEA; stroke-width: 1.0416666666666667;" x1="3.125" x2="1281.25" y1="221.3745" y2="221.3745"/><rect fill="#EAEAEA" height="35.7829" rx="20.8333" ry="20.8333" style="stroke: #EAEAEA; stroke-width: 2.0833333333333335;" width="111.4583" x="586.4583" y="201.3997"/><text fill="#151515" font-family="&quot;Verdana&quot;" font-size="13.5417" font-weight="bold" lengthAdjust="spacingAndGlyphs" textLength="82.2917" x="597.9167" y="224.8322">Initialization</text><polygon fill="#B5E853" points="211.9792,277.1322,222.3958,281.2988,211.9792,285.4655,216.1458,281.2988" style="stroke: #B5E853; stroke-width: 1.0416666666666667;"/><line style="stroke: #B5E853; stroke-width: 3.125;" x1="70.3125" x2="218.2292" y1="281.2988" y2="281.2988"/><text fill="#FFFFFF" font-family="&quot;Verdana&quot;" font-size="13.5417" font-weight="bold" lengthAdjust="spacingAndGlyphs" textLength="30.2083" x="82.8125" y="271.0317">[001]</text><text fill="#FFFFFF" font-family="&quot;Verdana&quot;" font-size="13.5417" lengthAdjust="spacingAndGlyphs" textLength="73.9583" x="127.6042" y="271.0317">To boundary</text><polygon fill="#B5E853" points="346.3542,345.2067,356.7708,349.3734,346.3542,353.54,350.5208,349.3734" style="stroke: #B5E853; stroke-width: 1.0416666666666667;"/><line style="stroke: #B5E853; stroke-width: 3.125;" x1="224.4792" x2="352.6042" y1="349.3734" y2="349.3734"/><text fill="#FFFFFF" font-family="&quot;Verdana&quot;" font-size="13.5417" font-weight="bold" lengthAdjust="spacingAndGlyphs" textLength="30.2083" x="236.9792" y="339.1062">[002]</text><text fill="#FFFFFF" font-family="&quot;Verdana&quot;" font-size="13.5417" lengthAdjust="spacingAndGlyphs" textLength="59.375" x="281.7708" y="339.1062">To control</text><rect fill="#151515" height="79.7282" style="stroke: #EAEAEA; stroke-width: 2.0833333333333335;" width="211.4583" x="472.9167" y="357.7067"/><polygon fill="#151515" points="472.9167,357.7067,547.9167,357.7067,547.9167,376.4567,537.5,386.8734,472.9167,386.8734,472.9167,357.7067" style="stroke: #EAEAEA; stroke-width: 2.0833333333333335;"/><text fill="#EAEAEA" font-family="&quot;Verdana&quot;" font-size="13.5417" font-weight="bold" lengthAdjust="spacingAndGlyphs" textLength="17.7083" x="491.6667" y="379.0558">ref</text><text fill="#EAEAEA" font-family="&quot;Verdana&quot;" font-size="12.5" lengthAdjust="spacingAndGlyphs" textLength="84.375" x="536.4583" y="409.2244">This can be on</text><text fill="#EAEAEA" font-family="&quot;Verdana&quot;" font-size="12.5" lengthAdjust="spacingAndGlyphs" textLength="72.9167" x="542.1875" y="424.9471">several lines</text><polygon fill="#B5E853" points="489.0625,472.1761,499.4792,476.3428,489.0625,480.5094,493.2292,476.3428" style="stroke: #B5E853; stroke-width: 1.0416666666666667;"/><line style="stroke: #B5E853; stroke-width: 3.125;" x1="369.2708" x2="495.3125" y1="476.3428" y2="476.3428"/><text fill="#FFFFFF" font-family="&quot;Verdana&quot;" font-size="13.5417" font-weight="bold" lengthAdjust="spacingAndGlyphs" textLength="30.2083" x="381.7708" y="466.0756">[003]</text><text fill="#FFFFFF" font-family="&quot;Verdana&quot;" font-size="13.5417" lengthAdjust="spacingAndGlyphs" textLength="52.0833" x="426.5625" y="466.0756">To entity</text><polygon fill="#B5E853" points="643.2292,514.209,653.6458,518.3757,643.2292,522.5423,647.3958,518.3757" style="stroke: #B5E853; stroke-width: 1.0416666666666667;"/><line style="stroke: #B5E853; stroke-width: 3.125;" x1="501.5625" x2="649.4792" y1="518.3757" y2="518.3757"/><text fill="#FFFFFF" font-family="&quot;Verdana&quot;" font-size="13.5417" font-weight="bold" lengthAdjust="spacingAndGlyphs" textLength="30.2083" x="514.0625" y="508.1085">[004]</text><text fill="#FFFFFF" font-family="&quot;Verdana&quot;" font-size="13.5417" lengthAdjust="spacingAndGlyphs" textLength="73.9583" x="558.8542" y="508.1085">To database</text><polygon fill="#B5E853" points="380.7292,556.2419,370.3125,560.4085,380.7292,564.5752,376.5625,560.4085" style="stroke: #B5E853; stroke-width: 1.0416666666666667;"/><line style="stroke: #B5E853; stroke-width: 3.125; stroke-dasharray: 2.0,2.0;" x1="374.4792" x2="654.6875" y1="560.4085" y2="560.4085"/><text fill="#FFFFFF" font-family="&quot;Verdana&quot;" font-size="13.5417" font-weight="bold" lengthAdjust="spacingAndGlyphs" textLength="30.2083" x="392.1875" y="550.1414">[005]</text><text fill="#FFFFFF" font-family="&quot;Verdana&quot;" font-size="13.5417" lengthAdjust="spacingAndGlyphs" textLength="34.375" x="436.9792" y="550.1414">return</text><polygon fill="#B5E853" points="235.9375,598.2747,225.5208,602.4414,235.9375,606.6081,231.7708,602.4414" style="stroke: #B5E853; stroke-width: 1.0416666666666667;"/><line style="stroke: #B5E853; stroke-width: 3.125; stroke-dasharray: 2.0,2.0;" x1="229.6875" x2="363.0208" y1="602.4414" y2="602.4414"/><text fill="#FFFFFF" font-family="&quot;Verdana&quot;" font-size="13.5417" font-weight="bold" lengthAdjust="spacingAndGlyphs" textLength="30.2083" x="247.3958" y="592.1743">[006]</text><text fill="#FFFFFF" font-family="&quot;Verdana&quot;" font-size="13.5417" lengthAdjust="spacingAndGlyphs" textLength="34.375" x="292.1875" y="592.1743">return</text><text fill="#000000" font-family="&quot;Verdana&quot;" font-size="11.4583" lengthAdjust="spacingAndGlyphs" textLength="28.125" x="561.4583" y="642.4611">Some</text><text fill="#000000" font-family="&quot;Verdana&quot;" font-size="11.4583" lengthAdjust="spacingAndGlyphs" textLength="51.0417" x="592.7083" y="642.4611">long delay</text><text fill="#000000" font-family="&quot;Verdana&quot;" font-size="11.4583" lengthAdjust="spacingAndGlyphs" textLength="0" x="646.875" y="642.4611"/><polygon fill="#B5E853" points="752.6042,694.3034,763.0208,698.4701,752.6042,702.6367,756.7708,698.4701" style="stroke: #B5E853; stroke-width: 1.0416666666666667;"/><line style="stroke: #B5E853; stroke-width: 3.125;" x1="70.3125" x2="758.8542" y1="698.4701" y2="698.4701"/><text fill="#FFFFFF" font-family="&quot;Verdana&quot;" font-size="13.5417" font-weight="bold" lengthAdjust="spacingAndGlyphs" textLength="30.2083" x="82.8125" y="688.2029">[007]</text><text fill="#FFFFFF" font-family="&quot;Verdana&quot;" font-size="13.5417" lengthAdjust="spacingAndGlyphs" textLength="83.3333" x="127.6042" y="688.2029">To collections</text><polygon fill="#B5E853" points="513.0208,736.3363,502.6042,740.5029,513.0208,744.6696,508.8542,740.5029" style="stroke: #B5E853; stroke-width: 1.0416666666666667;"/><line style="stroke: #B5E853; stroke-width: 3.125; stroke-dasharray: 2.0,2.0;" x1="506.7708" x2="764.0625" y1="740.5029" y2="740.5029"/><text fill="#FFFFFF" font-family="&quot;Verdana&quot;" font-size="13.5417" font-weight="bold" lengthAdjust="spacingAndGlyphs" textLength="30.2083" x="524.4792" y="730.2358">[008]</text><text fill="#90A959" font-family="&quot;Verdana&quot;" font-size="13.5417" font-weight="bold" lengthAdjust="spacingAndGlyphs" textLength="50" x="569.2708" y="730.2358">success</text><path d="M34.375,756.1279 L87.5,756.1279 L87.5,774.8779 L77.0833,785.2946 L13.5417,785.2946 L13.5417,776.9613 " fill="#151515" style="stroke: #EAEAEA; stroke-width: 1.0416666666666667;"/><rect fill="none" height="490.4785" rx="20.8333" ry="20.8333" style="stroke: #B5E853; stroke-width: 2.0833333333333335;" width="1252.0833" x="13.5417" y="756.1279"/><text fill="#AA759F" font-family="&quot;Verdana&quot;" font-size="13.5417" font-weight="bold" lengthAdjust="spacingAndGlyphs" textLength="16.6667" x="34.375" y="776.4353">alt</text><text fill="#EAEAEA" font-family="&quot;Verdana&quot;" font-size="11.4583" font-weight="bold" lengthAdjust="spacingAndGlyphs" textLength="102.0833" x="108.3333" y="775.3143">[successful case]</text><polygon fill="#B5E853" points="1122.3958,824.3978,1132.8125,828.5645,1122.3958,832.7311,1126.5625,828.5645" style="stroke: #B5E853; stroke-width: 1.0416666666666667;"/><line style="stroke: #B5E853; stroke-width: 3.125;" x1="70.3125" x2="1128.6458" y1="828.5645" y2="828.5645"/><text fill="#FFFFFF" font-family="&quot;Verdana&quot;" font-size="13.5417" font-weight="bold" lengthAdjust="spacingAndGlyphs" textLength="30.2083" x="82.8125" y="818.2973">[009]</text><text fill="#FFFFFF" font-family="&quot;Verdana&quot;" font-size="13.5417" lengthAdjust="spacingAndGlyphs" textLength="147.9167" x="127.6042" y="818.2973">Authentication Accepted</text><polygon fill="#B5E853" points="81.7708,866.4307,71.3542,870.5973,81.7708,874.764,77.6042,870.5973" style="stroke: #B5E853; stroke-width: 1.0416666666666667;"/><line style="stroke: #B5E853; stroke-width: 3.125; stroke-dasharray: 2.0,2.0;" x1="75.5208" x2="1133.8542" y1="870.5973" y2="870.5973"/><text fill="#FFFFFF" font-family="&quot;Verdana&quot;" font-size="13.5417" font-weight="bold" lengthAdjust="spacingAndGlyphs" textLength="30.2083" x="93.2292" y="860.3302">[010]</text><text fill="#FFFFFF" font-family="&quot;Verdana&quot;" font-size="13.5417" lengthAdjust="spacingAndGlyphs" textLength="51.0417" x="138.0208" y="860.3302">success</text><path d="M992.7083,904.9723 L992.7083,900.8057 A20.8333,20.8333 0 0 0 1013.5417,921.639 L1108.3333,921.639 A20.8333,20.8333 0 0 0 1129.1667,900.8057 L1129.1667,894.5557 L1118.75,884.139 L1013.5417,884.139 A20.8333,20.8333 0 0 0 992.7083,904.9723 " fill="url(#g1yln9c5dm3n92)" style="stroke: #A80036; stroke-width: 1.0416666666666667;"/><path d="M1118.75,884.139 L1118.75,884.139 A10.4167,10.4167 0 0 0 1129.1667,894.5557 L1129.1667,894.5557 L1118.75,884.139 " fill="url(#g1yln9c5dm3n92)" style="stroke: #A80036; stroke-width: 1.0416666666666667;"/><text fill="#FFFFFF" font-family="&quot;Verdana&quot;" font-size="13.5417" lengthAdjust="spacingAndGlyphs" textLength="104.1667" x="1004.1667" y="908.6131">this is a first note</text><line style="stroke: #B5E853; stroke-width: 1.0416666666666667; stroke-dasharray: 2.0,2.0;" x1="13.5417" x2="1265.625" y1="928.2552" y2="928.2552"/><text fill="#EAEAEA" font-family="&quot;Verdana&quot;" font-size="11.4583" font-weight="bold" lengthAdjust="spacingAndGlyphs" textLength="123.9583" x="23.9583" y="945.3583">[some kind of failure]</text><polygon fill="#B5E853" points="1122.3958,983.6589,1132.8125,987.8255,1122.3958,991.9922,1126.5625,987.8255" style="stroke: #B5E853; stroke-width: 1.0416666666666667;"/><line style="stroke: #B5E853; stroke-width: 3.125;" x1="70.3125" x2="1128.6458" y1="987.8255" y2="987.8255"/><text fill="#FFFFFF" font-family="&quot;Verdana&quot;" font-size="13.5417" font-weight="bold" lengthAdjust="spacingAndGlyphs" textLength="30.2083" x="82.8125" y="977.5584">[011]</text><text fill="#FFFFFF" font-family="&quot;Verdana&quot;" font-size="13.5417" lengthAdjust="spacingAndGlyphs" textLength="131.25" x="127.6042" y="977.5584">Authentication Failure</text><polygon fill="#B5E853" points="81.7708,1025.6917,71.3542,1029.8584,81.7708,1034.0251,77.6042,1029.8584" style="stroke: #B5E853; stroke-width: 1.0416666666666667;"/><line style="stroke: #B5E853; stroke-width: 3.125; stroke-dasharray: 2.0,2.0;" x1="75.5208" x2="1133.8542" y1="1029.8584" y2="1029.8584"/><text fill="#FFFFFF" font-family="&quot;Verdana&quot;" font-size="13.5417" font-weight="bold" lengthAdjust="spacingAndGlyphs" textLength="30.2083" x="93.2292" y="1019.5913">[012]</text><text fill="#AC4142" font-family="&quot;Verdana&quot;" font-size="13.5417" font-weight="bold" lengthAdjust="spacingAndGlyphs" textLength="79.1667" x="138.0208" y="1019.5913">Bad request</text><path d="M44.7917,1045.4834 L169.7917,1045.4834 L169.7917,1064.2334 L159.375,1074.6501 L23.9583,1074.6501 L23.9583,1066.3167 " fill="#151515" style="stroke: #EAEAEA; stroke-width: 1.0416666666666667;"/><rect fill="none" height="124.8861" rx="20.8333" ry="20.8333" style="stroke: #B5E853; stroke-width: 2.0833333333333335;" width="1231.25" x="23.9583" y="1045.4834"/><text fill="#AA759F" font-family="&quot;Verdana&quot;" font-size="13.5417" font-weight="bold" lengthAdjust="spacingAndGlyphs" textLength="88.5417" x="44.7917" y="1065.7908">My own label</text><path d="M55.2083,1082.3079 L120.8333,1082.3079 L120.8333,1101.0579 L110.4167,1111.4746 L34.375,1111.4746 L34.375,1103.1413 " fill="#151515" style="stroke: #EAEAEA; stroke-width: 1.0416666666666667;"/><rect fill="none" height="80.7699" rx="20.8333" ry="20.8333" style="stroke: #B5E853; stroke-width: 2.0833333333333335;" width="1210.4167" x="34.375" y="1082.3079"/><text fill="#AA759F" font-family="&quot;Verdana&quot;" font-size="13.5417" font-weight="bold" lengthAdjust="spacingAndGlyphs" textLength="29.1667" x="55.2083" y="1102.6154">loop</text><text fill="#EAEAEA" font-family="&quot;Verdana&quot;" font-size="11.4583" font-weight="bold" lengthAdjust="spacingAndGlyphs" textLength="69.7917" x="141.6667" y="1101.4943">[1000 times]</text><polygon fill="#B5E853" points="81.7708,1150.5778,71.3542,1154.7445,81.7708,1158.9111,77.6042,1154.7445" style="stroke: #B5E853; stroke-width: 1.0416666666666667;"/><line style="stroke: #B5E853; stroke-width: 3.125;" x1="75.5208" x2="1133.8542" y1="1154.7445" y2="1154.7445"/><text fill="#FFFFFF" font-family="&quot;Verdana&quot;" font-size="13.5417" font-weight="bold" lengthAdjust="spacingAndGlyphs" textLength="30.2083" x="93.2292" y="1144.4773">[013]</text><text fill="#FFFFFF" font-family="&quot;Verdana&quot;" font-size="13.5417" lengthAdjust="spacingAndGlyphs" textLength="71.875" x="138.0208" y="1144.4773">DNS Attack</text><line style="stroke: #B5E853; stroke-width: 1.0416666666666667; stroke-dasharray: 2.0,2.0;" x1="13.5417" x2="1265.625" y1="1178.7028" y2="1178.7028"/><text fill="#EAEAEA" font-family="&quot;Verdana&quot;" font-size="11.4583" font-weight="bold" lengthAdjust="spacingAndGlyphs" textLength="92.7083" x="23.9583" y="1195.8059">[Just a Warning]</text><polygon fill="#B5E853" points="1122.3958,1234.1064,1132.8125,1238.2731,1122.3958,1242.4398,1126.5625,1238.2731" style="stroke: #B5E853; stroke-width: 1.0416666666666667;"/><line style="stroke: #B5E853; stroke-width: 3.125;" x1="70.3125" x2="1128.6458" y1="1238.2731" y2="1238.2731"/><text fill="#FFFFFF" font-family="&quot;Verdana&quot;" font-size="13.5417" font-weight="bold" lengthAdjust="spacingAndGlyphs" textLength="30.2083" x="82.8125" y="1228.006">[014]</text><text fill="#F4BF75" font-family="&quot;Verdana&quot;" font-size="13.5417" font-weight="bold" lengthAdjust="spacingAndGlyphs" textLength="91.6667" x="127.6042" y="1228.006">Please repeat</text><path d="M46.875,1279.9398 L46.875,1310.1481 A20.8333,20.8333 0 0 0 67.7083,1330.9814 L226.0417,1330.9814 A20.8333,20.8333 0 0 0 246.875,1310.1481 L246.875,1269.5231 L236.4583,1259.1064 L67.7083,1259.1064 A20.8333,20.8333 0 0 0 46.875,1279.9398 " fill="url(#g1yln9c5dm3n92)" style="stroke: #A80036; stroke-width: 1.0416666666666667;"/><path d="M236.4583,1259.1064 L236.4583,1259.1064 A10.4167,10.4167 0 0 0 246.875,1269.5231 L246.875,1269.5231 L236.4583,1259.1064 " fill="url(#g1yln9c5dm3n92)" style="stroke: #A80036; stroke-width: 1.0416666666666667;"/><text fill="#FFFFFF" font-family="&quot;Verdana&quot;" font-size="13.5417" lengthAdjust="spacingAndGlyphs" textLength="126.0417" x="79.1667" y="1283.5805">this is a second note</text><text fill="#FFFFFF" font-family="&quot;Verdana&quot;" font-size="13.5417" lengthAdjust="spacingAndGlyphs" textLength="73.9583" x="79.1667" y="1300.6134">that is really</text><text fill="#FFFFFF" font-family="&quot;Verdana&quot;" font-size="13.5417" lengthAdjust="spacingAndGlyphs" textLength="25" x="79.1667" y="1317.6463">long</text><rect fill="none" height="23.5189" rx="20.8333" ry="20.8333" style="stroke: none; stroke-width: 1.0416666666666667;" width="75" x="1205.2083" y="3.125"/><text fill="#888888" font-family="&quot;Verdana&quot;" font-size="10.4167" lengthAdjust="spacingAndGlyphs" textLength="64.5833" x="1210.4167" y="19.1467">Page Header</text><rect fill="none" height="23.5189" rx="20.8333" ry="20.8333" style="stroke: none; stroke-width: 1.0416666666666667;" width="67.7083" x="607.8125" y="1445.2148"/><text fill="#888888" font-family="&quot;Verdana&quot;" font-size="10.4167" lengthAdjust="spacingAndGlyphs" textLength="57.2917" x="613.0208" y="1461.2366">Page 1 of 1</text><!--MD5=[1c43e4a5517a7ab60cb6b5ea56921b96]
@startuml



skinparam backgroundColor black
skinparam useBetaStyle true







skinparam defaultFontName       "Verdana"
skinparam defaultFontSize       12
skinparam dpi                   100
skinparam shadowing             false
skinparam roundcorner           40
skinparam ParticipantPadding    40
skinparam BoxPadding            40
skinparam Padding               5
skinparam ArrowColor            #eaeaea
skinparam stereotype {
    CBackgroundColor #557f91
    CBorderColor #88b2c4
    ABackgroundColor #a6ba7a
    ABorderColor $SUCCESS_DARK
    IBackgroundColor #bd6768
    IBorderColor $DANGER_DARK
    EBackgroundColor #f6cc91
    EBorderColor $WARNING_DARK
    NBackgroundColor #bb91b2
    NBorderColor $INFO_DARK
}
skinparam title {
	FontColor	                 #b5e853
	BorderColor	                 #b5e853
	FontSize	    	         20
	BorderRoundCorner            8
	BorderThickness 	         1
	BackgroundColor              #151515-black
}


skinparam legend {
	BackgroundColor #6a9fb5
	BorderColor #557f91
	FontColor #eaeaea
}

skinparam activity {
		FontColor #151515
	BorderColor #d3f198
	BackgroundColor #d3f198-#b5e853
	BarColor #90a959
	StartColor #aa759f
	EndColor #aa759f
	DiamondBackgroundColor #88b2c4-#6a9fb5
  	DiamondBorderColor #88b2c4
  	DiamondFontColor #fefefe
}

skinparam participant {
		FontColor #151515
	BorderColor #d3f198
	BackgroundColor #d3f198-#b5e853
	ParticipantBorderThickness 2
}

skinparam actor {
		FontColor #151515
	BorderColor #d3f198
	BackgroundColor #d3f198-#b5e853
}

skinparam arrow {
	Thickness 3
	Color #b5e853
	FontColor $FGCOLOR
}

skinparam sequence {
	BorderColor #b5e853
	TitleFontColor #b5e853
	BackgroundColor black
	StartColor #b5e853
	EndColor #b5e853
	BoxBackgroundColor black
	BoxBorderColor #eaeaea
	BoxFontColor $DARk
	LifeLineBorderColor #6a9fb5
	LifeLineBorderThickness 2
	LifeLineBackgroundColor #557f91
	GroupBackgroundColor #151515
	GroupBorderColor #eaeaea
	GroupFontColor #eaeaea
	GroupHeaderFontColor #aa759f
	DividerBackgroundColor #eaeaea
    DividerBorderColor #eaeaea
    DividerBorderThickness 2
    DividerFontColor #151515
	ReferenceBackgroundColor #151515
	ReferenceBorderColor #eaeaea
	ReferenceFontColor #eaeaea
	ReferenceHeaderBackgroundColor #151515
}

skinparam partition {
	BorderColor #b5e853
	FontColor #b5e853
	BackgroundColor #151515-black
}

skinparam collections {
		FontColor #151515
	BorderColor #d3f198
	BackgroundColor #d3f198-#b5e853
}

skinparam control {
		FontColor #151515
	BorderColor #d3f198
	BackgroundColor #d3f198-#b5e853
	FontColor #eaeaea
}

skinparam entity {
		FontColor #151515
	BorderColor #d3f198
	BackgroundColor #d3f198-#b5e853
	FontColor #eaeaea
}

skinparam boundary {
		FontColor #151515
	BorderColor #d3f198
	BackgroundColor #d3f198-#b5e853
	FontColor #eaeaea
}

skinparam agent {
	BackgroundColor #f6cc91-#f4bf75
	BorderColor #f6cc91
	FontColor #eaeaea
}

skinparam note {
	BorderThickness 1
	BackgroundColor #bb91b2-#aa759f
	BorderColor #bb91b2
	FontColor $WHITE
}

skinparam artifact {
	BackgroundColor #eaeaea
	BorderColor white
	FontColor #151515
}

skinparam component {
		FontColor #151515
	BorderColor #d3f198
	BackgroundColor #d3f198-#b5e853
}

skinparam interface {
	BackgroundColor  #bd6768-#ac4142
	BorderColor  #bd6768
	FontColor #eaeaea
}

skinparam storage {
	BackgroundColor #f6cc91-#f4bf75
  	BorderColor #f6cc91
	FontColor #151515
}

skinparam node {
	BackgroundColor  #151515-black
	BorderColor #d3f198
	FontColor #eaeaea
}

skinparam cloud {
	BackgroundColor #151515-black
	BorderColor #151515
	FontColor #eaeaea
}

skinparam database {
	BackgroundColor  #151515-black
	BorderColor #d3f198
	FontColor #eaeaea
}

skinparam class {
		FontColor #151515
	BorderColor #d3f198
	BackgroundColor #d3f198-#b5e853
	HeaderBackgroundColor #d3f198-#b5e853
	StereotypeFontColor #eaeaea
	BorderThickness 1
	AttributeFontColor #151515
	AttributeFontSize 11
}

skinparam object {
		FontColor #151515
	BorderColor #d3f198
	BackgroundColor #d3f198-#b5e853
	StereotypeFontColor #eaeaea
	BorderThickness 1
	AttributeFontColor #151515
	AttributeFontSize 11
}

skinparam usecase {
		FontColor #151515
	BorderColor #d3f198
	BackgroundColor #d3f198-#b5e853
	BorderThickness 2
	StereotypeFontColor #b5e853
}

skinparam rectangle {
	BackgroundColor black
	BorderColor #b5e853
	BorderThickness 2
	FontColor #6d8b32
	StereotypeFontColor #b5e853
}

skinparam package {
	BackgroundColor #151515
  	BorderColor #b5e853
	FontColor #b5e853
	BorderThickness 2
}

skinparam folder {
	BackgroundColor #151515-black
  	BorderColor #f4bf75
	FontColor #f4bf75
	BorderThickness 2
}

skinparam frame {
	BackgroundColor #151515-black
  	BorderColor #aa759f
	FontColor #aa759f
	BorderThickness 2
}

skinparam state {
		FontColor #151515
	BorderColor #d3f198
	BackgroundColor #d3f198-#b5e853
	StartColor #aa759f
	EndColor #aa759f
	AttributeFontColor #fefefe
	AttributeFontSize 11
}

skinparam queue {
		FontColor #151515
	BorderColor #d3f198
	BackgroundColor #d3f198-#b5e853
}

skinparam card {
	BackgroundColor #bb91b2-#aa759f
	BorderColor #bb91b2
	FontColor $INFO_TEXT
}

skinparam file {
	BackgroundColor #88b2c4-#6a9fb5
	BorderColor #88b2c4
	FontColor #eaeaea
}

skinparam stack {
		FontColor #151515
	BorderColor #d3f198
	BackgroundColor #d3f198-#b5e853
}



title Sequence Diagram - hacker theme


autonumber "<b>[000]"

header Page Header
footer Page %page% of %lastpage%

actor Foo1
boundary Foo2
control Foo3
entity Foo4
database Foo5
collections Foo6
participant Bob
participant Alice << (C,#ADD1B2) Testable >>

box "Internal Service"
	participant Bob
	participant Alice
end box

== Initialization ==
Foo1 -> Foo2 : To boundary
|||
Foo2 -> Foo3 ++: To control
ref over Foo4, Foo5
  This can be on
  several lines
end ref
Foo3 -> Foo4 : To entity

Foo4 -> Foo5 : To database
Foo5 - -> Foo3 - - : return
Foo3 - -> Foo2 - -: return
... Some ~~long delay~~ ...
Foo1 -> Foo6 : To collections
Foo6 - -> Foo4:   <font color=#90a959><b>success


alt successful case

Foo1 -> Alice: Authentication Accepted
Alice - -> Foo1: success

note left of Alice: this is a first note

else some kind of failure

	Foo1 -> Alice: Authentication Failure
    Alice - -> Foo1:   <font color=#ac4142><b>Bad request
	group My own label
	    loop 1000 times
	        Alice -> Foo1: DNS Attack
	    end
	end
	
else Just a Warning

   Foo1 -> Alice:   <font color=#f4bf75><b>Please repeat
   
end

note over Foo1, Foo2
this is a second note
that is really
long
end note

@enduml

PlantUML version 1.2019.12(Sun Nov 03 02:24:54 PST 2019)
(GPL source distribution)
Java Runtime: Java(TM) SE Runtime Environment
JVM: Java HotSpot(TM) 64-Bit Server VM
Java Version: 1.8.0_212-b32
Operating System: Windows 10
Default Encoding: Cp1252
Language: en
Country: US
--></g></svg>