<?xml version="1.0" encoding="UTF-8" standalone="no"?><svg xmlns="http://www.w3.org/2000/svg" xmlns:xlink="http://www.w3.org/1999/xlink" contentScriptType="application/ecmascript" contentStyleType="text/css" height="1173.9583px" preserveAspectRatio="none" style="width:396px;height:1173px;" version="1.1" viewBox="0 0 396 1173" width="396.875px" zoomAndPan="magnify"><defs><linearGradient id="g263p82hulgj40" x1="50%" x2="50%" y1="0%" y2="100%"><stop offset="0%" stop-color="#151515"/><stop offset="100%" stop-color="#000000"/></linearGradient><linearGradient id="g263p82hulgj41" x1="50%" x2="50%" y1="0%" y2="100%"><stop offset="0%" stop-color="#6A9FB5"/><stop offset="100%" stop-color="#557F91"/></linearGradient></defs><g><rect fill="url(#g263p82hulgj40)" height="45.0846" rx="4.1667" ry="4.1667" style="stroke: #B5E853; stroke-width: 1.0416666666666667;" width="380.2083" x="5.2083" y="5.2083"/><text fill="#B5E853" font-family="&quot;Verdana&quot;" font-size="20.8333" font-weight="bold" lengthAdjust="spacingAndGlyphs" textLength="359.375" x="15.625" y="34.963">State Diagram - hacker theme</text><rect fill="#90A959" height="8.3333" style="stroke: none; stroke-width: 1.0416666666666667;" width="83.3333" x="147.9167" y="148.2096"/><ellipse cx="189.5833" cy="75.293" fill="#AA759F" rx="10.4167" ry="10.4167" style="stroke: none; stroke-width: 1.0416666666666667;"/><rect fill="url(#g263p82hulgj41)" height="56.8583" rx="13.0208" ry="13.0208" style="stroke: #88B2C4; stroke-width: 1.5625;" width="75" x="96.875" y="219.043"/><line style="stroke: #88B2C4; stroke-width: 1.5625;" x1="96.875" x2="171.875" y1="255.068" y2="255.068"/><text fill="#FEFEFE" font-family="Verdana" font-size="12.5" lengthAdjust="spacingAndGlyphs" textLength="43.75" x="112.5" y="242.0268">State2</text><rect fill="url(#g263p82hulgj41)" height="56.8583" rx="13.0208" ry="13.0208" style="stroke: #88B2C4; stroke-width: 1.5625;" width="75" x="208.3333" y="219.043"/><line style="stroke: #88B2C4; stroke-width: 1.5625;" x1="208.3333" x2="283.3333" y1="255.068" y2="255.068"/><text fill="#FEFEFE" font-family="Verdana" font-size="12.5" lengthAdjust="spacingAndGlyphs" textLength="43.75" x="223.9583" y="242.0268">State3</text><rect fill="#90A959" height="8.3333" style="stroke: none; stroke-width: 1.0416666666666667;" width="83.3333" x="147.9167" y="338.8346"/><rect fill="url(#g263p82hulgj41)" height="56.8583" rx="13.0208" ry="13.0208" style="stroke: #88B2C4; stroke-width: 1.5625;" width="75" x="152.0833" y="409.668"/><line style="stroke: #88B2C4; stroke-width: 1.5625;" x1="152.0833" x2="227.0833" y1="445.693" y2="445.693"/><text fill="#FEFEFE" font-family="Verdana" font-size="12.5" lengthAdjust="spacingAndGlyphs" textLength="43.75" x="167.7083" y="432.6518">State4</text><rect fill="url(#g263p82hulgj41)" height="633.9417" rx="13.0208" ry="13.0208" style="stroke: #88B2C4; stroke-width: 1.5625;" width="332.2917" x="23.4375" y="529.4596"/><rect fill="#FFFFFF" height="591.6667" rx="13.0208" ry="13.0208" style="stroke: #FFFFFF; stroke-width: 1.0416666666666667;" width="326.0417" x="26.5625" y="568.6096"/><line style="stroke: #88B2C4; stroke-width: 1.5625;" x1="23.4375" x2="355.7292" y1="565.4846" y2="565.4846"/><text fill="#FEFEFE" font-family="Verdana" font-size="12.5" lengthAdjust="spacingAndGlyphs" textLength="38.5417" x="170.3125" y="552.4434">Active</text><ellipse cx="45.3125" cy="607.6721" fill="#AA759F" rx="10.4167" ry="10.4167" style="stroke: none; stroke-width: 1.0416666666666667;"/><rect fill="url(#g263p82hulgj41)" height="56.8583" rx="13.0208" ry="13.0208" style="stroke: #88B2C4; stroke-width: 1.5625;" width="108.3333" x="74.4792" y="579.0263"/><line style="stroke: #88B2C4; stroke-width: 1.5625;" x1="74.4792" x2="182.8125" y1="615.0513" y2="615.0513"/><text fill="#FEFEFE" font-family="Verdana" font-size="12.5" lengthAdjust="spacingAndGlyphs" textLength="77.0833" x="90.1042" y="602.0101">NumLockOff</text><rect fill="url(#g263p82hulgj41)" height="56.8583" rx="13.0208" ry="13.0208" style="stroke: #88B2C4; stroke-width: 1.5625;" width="108.3333" x="74.4792" y="698.818"/><line style="stroke: #88B2C4; stroke-width: 1.5625;" x1="74.4792" x2="182.8125" y1="734.8429" y2="734.8429"/><text fill="#FEFEFE" font-family="Verdana" font-size="12.5" lengthAdjust="spacingAndGlyphs" textLength="77.0833" x="90.1042" y="721.8018">NumLockOn</text><!--MD5=[f1e44e9cdf7ed6fd162579f896fb76ea]
link *start*Active to NumLockOff--><path d="M55.7292,607.6721 C60.0683,607.6721 64.4076,607.6721 68.7468,607.6721 " fill="none" id="*start*Active-&gt;NumLockOff" style="stroke: #B5E853; stroke-width: 3.125;"/><polygon fill="#B5E853" points="74.2431,607.6721,64.8681,603.5055,69.0348,607.6721,64.8681,611.8388,74.2431,607.6721" style="stroke: #B5E853; stroke-width: 3.125;"/><!--MD5=[b6ef3c088f5474ecc81df30475e7d61b]
link NumLockOff to NumLockOn--><path d="M74.1378,632.5277 C65.9131,638.7012 58.5518,646.1642 53.6458,655.068 C48.2838,664.7996 48.2838,670.3363 53.6458,680.068 C57.7085,687.4414 63.4552,693.8268 69.9816,699.3099 " fill="none" id="NumLockOff-&gt;NumLockOn" style="stroke: #B5E853; stroke-width: 3.125;"/><polygon fill="#B5E853" points="74.1378,702.6082,69.3844,693.5166,70.0581,699.3705,64.2041,700.0442,74.1378,702.6082" style="stroke: #B5E853; stroke-width: 3.125;"/><text fill="#FFFFFF" font-family="&quot;Verdana&quot;" font-size="11.4583" lengthAdjust="spacingAndGlyphs" textLength="115.625" x="59.8958" y="671.9538">EvNumLockPressed</text><!--MD5=[3bfddee0d82dc74c927fbeb3d3f2e6a3]
link NumLockOn to NumLockOff--><path d="M169.0524,698.5599 C174.21,693.035 178.739,686.836 181.7708,680.068 C186.3133,669.9278 186.3133,665.2081 181.7708,655.068 C179.4496,649.8862 176.2507,645.038 172.5641,640.5705 " fill="none" id="NumLockOn-&gt;NumLockOff" style="stroke: #B5E853; stroke-width: 3.125;"/><polygon fill="#B5E853" points="169.0524,636.576,172.113,646.368,172.4913,640.4876,178.3717,640.8658,169.0524,636.576" style="stroke: #B5E853; stroke-width: 3.125;"/><text fill="#FFFFFF" font-family="&quot;Verdana&quot;" font-size="11.4583" lengthAdjust="spacingAndGlyphs" textLength="115.625" x="192.1875" y="671.9538">EvNumLockPressed</text><line style="stroke: #88B2C4; stroke-width: 1.5625; stroke-dasharray: 8.0,10.0;" x1="28.6458" x2="348.4375" y1="766.5263" y2="766.5263"/><ellipse cx="45.3125" cy="803.5055" fill="#AA759F" rx="10.4167" ry="10.4167" style="stroke: none; stroke-width: 1.0416666666666667;"/><rect fill="url(#g263p82hulgj41)" height="56.8583" rx="13.0208" ry="13.0208" style="stroke: #88B2C4; stroke-width: 1.5625;" width="112.5" x="74.4792" y="774.8596"/><line style="stroke: #88B2C4; stroke-width: 1.5625;" x1="74.4792" x2="186.9792" y1="810.8846" y2="810.8846"/><text fill="#FEFEFE" font-family="Verdana" font-size="12.5" lengthAdjust="spacingAndGlyphs" textLength="81.25" x="90.1042" y="797.8434">CapsLockOff</text><rect fill="url(#g263p82hulgj41)" height="56.8583" rx="13.0208" ry="13.0208" style="stroke: #88B2C4; stroke-width: 1.5625;" width="112.5" x="73.4375" y="894.6513"/><line style="stroke: #88B2C4; stroke-width: 1.5625;" x1="73.4375" x2="185.9375" y1="930.6763" y2="930.6763"/><text fill="#FEFEFE" font-family="Verdana" font-size="12.5" lengthAdjust="spacingAndGlyphs" textLength="81.25" x="89.0625" y="917.6351">CapsLockOn</text><!--MD5=[ad44b9de6595643ec3df1279e2e825ac]
link *start*CONC82 to CapsLockOff--><path d="M55.9896,803.5055 C60.3004,803.5055 64.6113,803.5055 68.9221,803.5055 " fill="none" id="*start*CONC82-&gt;CapsLockOff" style="stroke: #B5E853; stroke-width: 3.125;"/><polygon fill="#B5E853" points="74.3825,803.5055,65.0075,799.3388,69.1742,803.5055,65.0075,807.6721,74.3825,803.5055" style="stroke: #B5E853; stroke-width: 3.125;"/><!--MD5=[dc4675bd3056f3ef68701d9e8e02a3f3]
link CapsLockOff to CapsLockOn--><path d="M74.3518,828.4017 C66.0506,834.5457 58.6286,841.9882 53.6458,850.9013 C48.224,860.5997 48.2535,866.1864 53.6458,875.9013 C57.5102,882.8635 62.8694,888.9364 68.9711,894.1973 " fill="none" id="CapsLockOff-&gt;CapsLockOn" style="stroke: #B5E853; stroke-width: 3.125;"/><polygon fill="#B5E853" points="73.3048,897.7107,68.6464,888.57,69.259,894.4307,63.3984,895.0433,73.3048,897.7107" style="stroke: #B5E853; stroke-width: 3.125;"/><text fill="#FFFFFF" font-family="&quot;Verdana&quot;" font-size="11.4583" lengthAdjust="spacingAndGlyphs" textLength="118.75" x="59.8958" y="867.7872">EvCapsLockPressed</text><!--MD5=[79e17b083e07746bd1a647600952cab6]
link CapsLockOn to CapsLockOff--><path d="M171.6546,894.603 C177.0176,889.0509 181.7315,882.7885 184.8958,875.9013 C189.5348,865.8049 189.4871,861.0194 184.8958,850.9013 C182.5239,845.6741 179.2591,840.7967 175.4981,836.3119 " fill="none" id="CapsLockOn-&gt;CapsLockOff" style="stroke: #B5E853; stroke-width: 3.125;"/><polygon fill="#B5E853" points="171.9161,832.3048,175.0578,842.0712,175.3873,836.1879,181.2706,836.5174,171.9161,832.3048" style="stroke: #B5E853; stroke-width: 3.125;"/><text fill="#FFFFFF" font-family="&quot;Verdana&quot;" font-size="11.4583" lengthAdjust="spacingAndGlyphs" textLength="118.75" x="195.3125" y="867.7872">EvCapsLockPressed</text><line style="stroke: #88B2C4; stroke-width: 1.5625; stroke-dasharray: 8.0,10.0;" x1="28.6458" x2="348.4375" y1="962.3596" y2="962.3596"/><ellipse cx="45.3125" cy="999.3388" fill="#AA759F" rx="10.4167" ry="10.4167" style="stroke: none; stroke-width: 1.0416666666666667;"/><rect fill="url(#g263p82hulgj41)" height="56.8583" rx="13.0208" ry="13.0208" style="stroke: #88B2C4; stroke-width: 1.5625;" width="113.5417" x="75" y="970.693"/><line style="stroke: #88B2C4; stroke-width: 1.5625;" x1="75" x2="188.5417" y1="1006.7179" y2="1006.7179"/><text fill="#FEFEFE" font-family="Verdana" font-size="12.5" lengthAdjust="spacingAndGlyphs" textLength="82.2917" x="90.625" y="993.6768">ScrollLockOff</text><rect fill="url(#g263p82hulgj41)" height="56.8583" rx="13.0208" ry="13.0208" style="stroke: #88B2C4; stroke-width: 1.5625;" width="113.5417" x="75" y="1090.4846"/><line style="stroke: #88B2C4; stroke-width: 1.5625;" x1="75" x2="188.5417" y1="1126.5096" y2="1126.5096"/><text fill="#FEFEFE" font-family="Verdana" font-size="12.5" lengthAdjust="spacingAndGlyphs" textLength="82.2917" x="90.625" y="1113.4684">ScrollLockOn</text><!--MD5=[9a8b2c0f7fde6bd227d6334344b3ad45]
link *start*CONC90 to ScrollLockOff--><path d="M55.7821,999.3388 C60.3334,999.3388 64.8849,999.3388 69.4363,999.3388 " fill="none" id="*start*CONC90-&gt;ScrollLockOff" style="stroke: #B5E853; stroke-width: 3.125;"/><polygon fill="#B5E853" points="74.7793,999.3388,65.4043,995.1721,69.5709,999.3388,65.4043,1003.5055,74.7793,999.3388" style="stroke: #B5E853; stroke-width: 3.125;"/><!--MD5=[da4e1e55b4a6de250eca2c82023085fa]
link ScrollLockOff to ScrollLockOn--><path d="M74.6401,1025.5021 C67.0624,1031.4039 60.3344,1038.4377 55.7292,1046.7346 C50.3369,1056.4495 50.3369,1062.0197 55.7292,1071.7346 C59.4708,1078.4758 64.614,1084.3833 70.4756,1089.5271 " fill="none" id="ScrollLockOff-&gt;ScrollLockOn" style="stroke: #B5E853; stroke-width: 3.125;"/><polygon fill="#B5E853" points="74.6401,1092.9671,70.066,1083.784,70.6247,1089.65,64.7587,1090.2087,74.6401,1092.9671" style="stroke: #B5E853; stroke-width: 3.125;"/><text fill="#FFFFFF" font-family="&quot;Verdana&quot;" font-size="11.4583" lengthAdjust="spacingAndGlyphs" textLength="118.75" x="61.9792" y="1063.6205">EvCapsLockPressed</text><!--MD5=[6ad2c621f2407b82317910f4deb17639]
link ScrollLockOn to ScrollLockOff--><path d="M173.7379,1090.4363 C179.1009,1084.8842 183.8148,1078.6218 186.9792,1071.7346 C191.6181,1061.6383 191.6181,1056.831 186.9792,1046.7346 C184.5564,1041.4616 181.2254,1036.5548 177.3902,1032.0527 " fill="none" id="ScrollLockOn-&gt;ScrollLockOff" style="stroke: #B5E853; stroke-width: 3.125;"/><polygon fill="#B5E853" points="173.7379,1028.033,176.9585,1037.7736,177.2404,1031.8878,183.1262,1032.1697,173.7379,1028.033" style="stroke: #B5E853; stroke-width: 3.125;"/><text fill="#FFFFFF" font-family="&quot;Verdana&quot;" font-size="11.4583" lengthAdjust="spacingAndGlyphs" textLength="118.75" x="196.3542" y="1063.6205">EvCapsLockPressed</text><!--MD5=[242ad121cef04112e9b0ee8f25f52375]
link *start to fork_state--><path d="M189.5833,86.0111 C189.5833,101.069 189.5833,128.2595 189.5833,142.7209 " fill="none" id="*start-&gt;fork_state" style="stroke: #B5E853; stroke-width: 3.125;"/><polygon fill="#B5E853" points="189.5833,148.0668,193.75,138.6918,189.5833,142.8585,185.4167,138.6918,189.5833,148.0668" style="stroke: #B5E853; stroke-width: 3.125;"/><!--MD5=[44dd36eb382d4fffd186e8c447a61da0]
link fork_state to State2--><path d="M187.0677,156.7193 C181.199,166.8512 166.15,192.832 153.6303,214.4462 " fill="none" id="fork_state-&gt;State2" style="stroke: #B5E853; stroke-width: 3.125;"/><polygon fill="#B5E853" points="151.0014,218.9848,159.3059,212.961,153.6119,214.478,152.0949,208.7841,151.0014,218.9848" style="stroke: #B5E853; stroke-width: 3.125;"/><!--MD5=[43d4d70f9cd19f132a5eb1ce9d85c890]
link fork_state to State3--><path d="M192.1465,156.7193 C198.1259,166.8512 213.4589,192.832 226.2148,214.4462 " fill="none" id="fork_state-&gt;State3" style="stroke: #B5E853; stroke-width: 3.125;"/><polygon fill="#B5E853" points="228.8933,218.9848,227.7169,208.7933,226.2462,214.4994,220.5401,213.0287,228.8933,218.9848" style="stroke: #B5E853; stroke-width: 3.125;"/><!--MD5=[8cf5ef3a64654818495211b4c165bd62]
link State2 to join_state--><path d="M151.2393,276.8036 C162.5599,296.3478 176.7356,320.8209 184.2811,333.8474 " fill="none" id="State2-&gt;join_state" style="stroke: #B5E853; stroke-width: 3.125;"/><polygon fill="#B5E853" points="187.0813,338.6817,185.9877,328.4809,184.4707,334.1749,178.7768,332.6578,187.0813,338.6817" style="stroke: #B5E853; stroke-width: 3.125;"/><!--MD5=[183fde86cac17ac230b97143534e47db]
link State3 to join_state--><path d="M228.6508,276.8036 C217.0136,296.5222 202.4152,321.2583 194.7813,334.1937 " fill="none" id="State3-&gt;join_state" style="stroke: #B5E853; stroke-width: 3.125;"/><polygon fill="#B5E853" points="192.1326,338.6817,200.4859,332.7257,194.7798,334.1963,193.3092,328.4902,192.1326,338.6817" style="stroke: #B5E853; stroke-width: 3.125;"/><!--MD5=[1e473d623208eebf6d5ebd6e9bc5a11d]
link join_state to State4--><path d="M189.5833,347.3443 C189.5833,357.349 189.5833,382.8072 189.5833,404.2553 " fill="none" id="join_state-&gt;State4" style="stroke: #B5E853; stroke-width: 3.125;"/><polygon fill="#B5E853" points="189.5833,409.6098,193.75,400.2348,189.5833,404.4015,185.4167,400.2348,189.5833,409.6098" style="stroke: #B5E853; stroke-width: 3.125;"/><!--MD5=[0a70b1a7cf318979336334b4227eefe4]
link State4 to Active--><path d="M189.5833,467.027 C189.5833,481.7323 189.5833,501.287 189.5833,523.7886 " fill="none" id="State4-&gt;Active" style="stroke: #B5E853; stroke-width: 3.125;"/><polygon fill="#B5E853" points="189.5833,529.2562,193.75,519.8812,189.5833,524.0479,185.4167,519.8812,189.5833,529.2562" style="stroke: #B5E853; stroke-width: 3.125;"/><!--MD5=[9a575c5ff762769d610b15110a0ceca9]
@startuml



skinparam backgroundColor transparent
skinparam useBetaStyle true






skinparam defaultFontName       "Verdana"
skinparam defaultFontSize       12
skinparam dpi                   100
skinparam shadowing             false
skinparam roundcorner           8
skinparam ParticipantPadding    40
skinparam BoxPadding            40
skinparam Padding               5
skinparam ArrowColor            #eaeaea
skinparam stereotype {
    CBackgroundColor #557f91
    CBorderColor #88b2c4
    ABackgroundColor #a6ba7a
    ABorderColor $SUCCESS_DARK
    IBackgroundColor #bd6768
    IBorderColor $DANGER_DARK
    EBackgroundColor #f6cc91
    EBorderColor $WARNING_DARK
    NBackgroundColor #bb91b2
    NBorderColor $INFO_DARK
}
skinparam title {
	FontColor	                 #b5e853
	BorderColor	                 #b5e853
	FontSize	    	         20
	BorderRoundCorner            8
	BorderThickness 	         1
	BackgroundColor              #151515-black
}


skinparam legend {
	BackgroundColor #6a9fb5
	BorderColor #557f91
	FontColor #eaeaea
}

skinparam activity {
	FontColor #151515
	BorderColor #d3f198
	BackgroundColor #d3f198-#b5e853
	BarColor #90a959
	StartColor #aa759f
	EndColor #aa759f
	DiamondBackgroundColor #88b2c4-#6a9fb5
  	DiamondBorderColor #88b2c4
  	DiamondFontColor #fefefe
}

skinparam sequence {
	BorderColor #b5e853
	TitleFontColor #b5e853
	BackgroundColor transparent
	StartColor #b5e853
	EndColor #b5e853
    ParticipantBackgroundColor #d3f198-#b5e853
    ParticipantBorderColor #d3f198
	ParticipantBorderThickness 2
	ParticipantFontColor #151515
	ActorBackgroundColor transparent
    ActorBorderColor #b5e853
	ActorFontColor #b5e853
	ArrowThickness 3
	ArrowColor #b5e853
	ArrowFontColor $FGCOLOR
	BoxBackgroundColor transparent
	BoxBorderColor #eaeaea
	BoxFontColor $DARk
	LifeLineBorderColor #6a9fb5
	LifeLineBorderThickness 2
	LifeLineBackgroundColor #557f91
	GroupBackgroundColor #151515
	GroupBorderColor #eaeaea
	GroupFontColor #eaeaea
	GroupHeaderFontColor #aa759f
	DividerBackgroundColor #eaeaea
    DividerBorderColor #eaeaea
    DividerBorderThickness 2
    DividerFontColor #151515
	ReferenceBackgroundColor #151515
	ReferenceBorderColor #eaeaea
	ReferenceFontColor #eaeaea
	ReferenceHeaderFontColor #aa759f
}

skinparam partition {
	BorderColor #b5e853
	FontColor #b5e853
	BackgroundColor #151515-black
}

skinparam collections {
	BackgroundColor #d3f198-#b5e853
	BorderColor #d3f198
}

skinparam control {
	BackgroundColor  #d3f198-#b5e853
	BorderColor #d3f198
	FontColor #eaeaea
}

skinparam entity {
	BackgroundColor  #d3f198-#b5e853
	BorderColor #d3f198
	FontColor #eaeaea
}

skinparam boundary {
	BackgroundColor  #d3f198-#b5e853
	BorderColor #d3f198
	FontColor #eaeaea
}

skinparam agent {
	BackgroundColor #f6cc91-#f4bf75
	BorderColor #f6cc91
	FontColor #eaeaea
}

skinparam note {
	BorderThickness 1
	BackgroundColor #bb91b2-#aa759f
	BorderColor #bb91b2
	FontColor $WHITE
}

skinparam artifact {
	BackgroundColor #eaeaea
	BorderColor white
	FontColor #151515
}

skinparam component {
	BackgroundColor  #a6ba7a-#90a959
	BorderColor  #a6ba7a
	FontColor $SUCCESS_TEXT
}

skinparam interface {
	BackgroundColor  #bd6768-#ac4142
	BorderColor  #bd6768
	FontColor #eaeaea
}

skinparam storage {
	BackgroundColor #f6cc91-#f4bf75
  	BorderColor #f6cc91
	FontColor #151515
}

skinparam node {
	BackgroundColor  #88b2c4-#6a9fb5
	BorderColor #88b2c4
	FontColor #eaeaea
}

skinparam cloud {
	BackgroundColor #F2FCFE-#eeeeee
	BorderColor #F2FCFE
	FontColor #151515
}

skinparam database {
	BackgroundColor  #151515-black
	BorderColor #d3f198
	FontColor #eaeaea
}

skinparam actor {
	FontColor #eaeaea
}

skinparam class {
	HeaderBackgroundColor #d3f198-#b5e853
	FontColor #151515
	BackgroundColor #b5e853-#6d8b32
	BorderColor #d3f198
	StereotypeFontColor #eaeaea
	BorderThickness 1
	AttributeFontColor #151515
	AttributeFontSize 11
}

skinparam object {
	FontColor #eaeaea
	BackgroundColor #88b2c4-#6a9fb5
	BorderColor #88b2c4
	StereotypeFontColor #eaeaea
	BorderThickness 1
	AttributeFontColor #fefefe
	AttributeFontSize 11
}

skinparam usecase {
	BackgroundColor #88b2c4-#6a9fb5
	BorderColor #88b2c4
	BorderThickness 2
	FontColor #fefefe
	StereotypeFontColor #b5e853
}

skinparam rectangle {
	BackgroundColor #151515-DARK
	BorderColor #d3f198
	BorderThickness 2
	FontColor #b5e853
	StereotypeFontColor #b5e853
}

skinparam package {
	BackgroundColor #151515
  	BorderColor #b5e853
	FontColor #b5e853
	BorderThickness 2
}

skinparam folder {
	BackgroundColor #eaeaea
  	BorderColor #f4bf75
	FontColor #f4bf75
	BorderThickness 2
}

skinparam frame {
	BackgroundColor #eaeaea
  	BorderColor #aa759f
	FontColor #aa759f
	BorderThickness 2
}

skinparam state {
	StartColor #aa759f
	EndColor #aa759f
	BackgroundColor #6a9fb5-#557f91
	BorderColor #88b2c4
	FontColor #fefefe
	AttributeFontColor #fefefe
	AttributeFontSize 11
}

skinparam queue {
	BackgroundColor #f6cc91-#f4bf75
  	BorderColor #f6cc91
	FontColor #151515
}

skinparam card {
	BackgroundColor #bb91b2-#aa759f
	BorderColor #bb91b2
	FontColor $INFO_TEXT
}

skinparam file {
	BackgroundColor #88b2c4-#6a9fb5
	BorderColor #88b2c4
	FontColor #eaeaea
}

skinparam stack {
	BackgroundColor #d3f198-#b5e853
	BorderColor #d3f198
	FontColor #151515
}



title State Diagram - hacker theme


state fork_state <<fork>>
[*] - -> fork_state
fork_state - -> State2
fork_state - -> State3

state join_state <<join>>
State2 - -> join_state
State3 - -> join_state
join_state - -> State4
State4 - -> Active

state Active {
  [*] -> NumLockOff
  NumLockOff - -> NumLockOn : EvNumLockPressed
  NumLockOn - -> NumLockOff : EvNumLockPressed
  - -
  [*] -> CapsLockOff
  CapsLockOff - -> CapsLockOn : EvCapsLockPressed
  CapsLockOn - -> CapsLockOff : EvCapsLockPressed
  - -
  [*] -> ScrollLockOff
  ScrollLockOff - -> ScrollLockOn : EvCapsLockPressed
  ScrollLockOn - -> ScrollLockOff : EvCapsLockPressed
}

@enduml

PlantUML version 1.2019.12(Sun Nov 03 02:24:54 PST 2019)
(GPL source distribution)
Java Runtime: OpenJDK Runtime Environment
JVM: OpenJDK 64-Bit Server VM
Java Version: 11.0.4+11-post-Ubuntu-1ubuntu218.04.3
Operating System: Linux
Default Encoding: UTF-8
Language: en
Country: US
--></g></svg>