<?xml version="1.0" encoding="UTF-8" standalone="no"?><svg xmlns="http://www.w3.org/2000/svg" xmlns:xlink="http://www.w3.org/1999/xlink" contentScriptType="application/ecmascript" contentStyleType="text/css" height="1175px" preserveAspectRatio="none" style="width:463px;height:1175px;" version="1.1" viewBox="0 0 463 1175" width="463.5417px" zoomAndPan="magnify"><defs/><g><rect fill="#FFFFFF" height="46.1528" rx="4.1667" ry="4.1667" style="stroke: #BABDBF; stroke-width: 1.0416666666666667;" width="450" x="2.0833" y="2.0833"/><text fill="#2FA4E7" font-family="Verdana" font-size="20.8333" lengthAdjust="spacingAndGlyphs" textLength="422.9167" x="15.625" y="33.4452">State Diagram - cerulean-outline theme</text><rect fill="#73A839" height="8.3333" style="stroke: none; stroke-width: 1.0416666666666667;" width="83.3333" x="179.6875" y="143.0278"/><ellipse cx="221.3542" cy="70.1111" fill="#033C73" rx="10.4167" ry="10.4167" style="stroke: none; stroke-width: 1.0416666666666667;"/><rect fill="#FFFFFF" height="56.8583" rx="13.0208" ry="13.0208" style="stroke: #2FA4E7; stroke-width: 1.5625;" width="75" x="128.6458" y="213.8611"/><line style="stroke: #2FA4E7; stroke-width: 1.5625;" x1="128.6458" x2="203.6458" y1="249.8861" y2="249.8861"/><text fill="#2FA4E7" font-family="Verdana" font-size="12.5" lengthAdjust="spacingAndGlyphs" textLength="43.75" x="144.2708" y="236.8449">State2</text><rect fill="#FFFFFF" height="56.8583" rx="13.0208" ry="13.0208" style="stroke: #2FA4E7; stroke-width: 1.5625;" width="75" x="240.1042" y="213.8611"/><line style="stroke: #2FA4E7; stroke-width: 1.5625;" x1="240.1042" x2="315.1042" y1="249.8861" y2="249.8861"/><text fill="#2FA4E7" font-family="Verdana" font-size="12.5" lengthAdjust="spacingAndGlyphs" textLength="43.75" x="255.7292" y="236.8449">State3</text><rect fill="#73A839" height="8.3333" style="stroke: none; stroke-width: 1.0416666666666667;" width="83.3333" x="179.6875" y="333.6528"/><rect fill="#FFFFFF" height="56.8583" rx="13.0208" ry="13.0208" style="stroke: #2FA4E7; stroke-width: 1.5625;" width="75" x="183.8542" y="404.4861"/><line style="stroke: #2FA4E7; stroke-width: 1.5625;" x1="183.8542" x2="258.8542" y1="440.5111" y2="440.5111"/><text fill="#2FA4E7" font-family="Verdana" font-size="12.5" lengthAdjust="spacingAndGlyphs" textLength="43.75" x="199.4792" y="427.4699">State4</text><rect fill="#FFFFFF" height="640.1917" rx="13.0208" ry="13.0208" style="stroke: #2FA4E7; stroke-width: 1.5625;" width="351.0417" x="45.8333" y="524.2778"/><rect fill="#FFFFFF" height="597.9167" rx="13.0208" ry="13.0208" style="stroke: #FFFFFF; stroke-width: 1.0416666666666667;" width="344.7917" x="48.9583" y="563.4277"/><line style="stroke: #2FA4E7; stroke-width: 1.5625;" x1="45.8333" x2="396.875" y1="560.3027" y2="560.3027"/><text fill="#2FA4E7" font-family="Verdana" font-size="12.5" lengthAdjust="spacingAndGlyphs" textLength="38.5417" x="202.0833" y="547.2616">Active</text><ellipse cx="67.7083" cy="602.4902" fill="#033C73" rx="10.4167" ry="10.4167" style="stroke: none; stroke-width: 1.0416666666666667;"/><rect fill="#FFFFFF" height="56.8583" rx="13.0208" ry="13.0208" style="stroke: #2FA4E7; stroke-width: 1.5625;" width="108.3333" x="96.875" y="573.8444"/><line style="stroke: #2FA4E7; stroke-width: 1.5625;" x1="96.875" x2="205.2083" y1="609.8694" y2="609.8694"/><text fill="#2FA4E7" font-family="Verdana" font-size="12.5" lengthAdjust="spacingAndGlyphs" textLength="77.0833" x="112.5" y="596.8282">NumLockOff</text><rect fill="#FFFFFF" height="56.8583" rx="13.0208" ry="13.0208" style="stroke: #2FA4E7; stroke-width: 1.5625;" width="108.3333" x="95.8333" y="695.7194"/><line style="stroke: #2FA4E7; stroke-width: 1.5625;" x1="95.8333" x2="204.1667" y1="731.7444" y2="731.7444"/><text fill="#2FA4E7" font-family="Verdana" font-size="12.5" lengthAdjust="spacingAndGlyphs" textLength="77.0833" x="111.4583" y="718.7032">NumLockOn</text><!--MD5=[f1e44e9cdf7ed6fd162579f896fb76ea]
link *start*Active to NumLockOff--><path d="M78.125,602.4902 C82.4642,602.4902 86.8034,602.4902 91.1426,602.4902 " fill="none" id="*start*Active-&gt;NumLockOff" style="stroke: #2FA4E7; stroke-width: 3.125;"/><polygon fill="#2FA4E7" points="96.639,602.4902,87.264,598.3236,91.4306,602.4902,87.264,606.6569,96.639,602.4902" style="stroke: #2FA4E7; stroke-width: 3.125;"/><!--MD5=[b6ef3c088f5474ecc81df30475e7d61b]
link NumLockOff to NumLockOn--><path d="M96.6173,628.8848 C84.0896,636.1077 73.3704,643.6553 69.7917,649.8861 C63.7965,660.3239 63.8259,666.5147 69.7917,676.9694 C74.8645,685.8593 82.3305,693.2502 90.6965,699.3401 " fill="none" id="NumLockOff-&gt;NumLockOn" style="stroke: #2FA4E7; stroke-width: 3.125;"/><polygon fill="#2FA4E7" points="95.4274,702.5908,90.0602,693.8475,91.1347,699.6412,85.341,700.7157,95.4274,702.5908" style="stroke: #2FA4E7; stroke-width: 3.125;"/><text fill="#343A40" font-family="Verdana" font-size="12.5" lengthAdjust="spacingAndGlyphs" textLength="127.0833" x="76.0417" y="668.7032">EvNumLockPressed</text><!--MD5=[3bfddee0d82dc74c927fbeb3d3f2e6a3]
link NumLockOn to NumLockOff--><path d="M195.659,695.5362 C201.1954,690.0651 206.0574,683.8625 209.375,676.9694 C214.5951,666.1232 214.5482,660.7547 209.375,649.8861 C206.8418,644.5638 203.3863,639.6441 199.4129,635.1507 " fill="none" id="NumLockOn-&gt;NumLockOff" style="stroke: #2FA4E7; stroke-width: 3.125;"/><polygon fill="#2FA4E7" points="195.6299,631.1445,199.0371,640.8214,199.2058,634.9313,205.0959,635.1,195.6299,631.1445" style="stroke: #2FA4E7; stroke-width: 3.125;"/><text fill="#343A40" font-family="Verdana" font-size="12.5" lengthAdjust="spacingAndGlyphs" textLength="127.0833" x="219.7917" y="668.7032">EvNumLockPressed</text><line style="stroke: #2FA4E7; stroke-width: 1.5625; stroke-dasharray: 8.0,10.0;" x1="51.0417" x2="389.5833" y1="763.4277" y2="763.4277"/><ellipse cx="67.7083" cy="800.4069" fill="#033C73" rx="10.4167" ry="10.4167" style="stroke: none; stroke-width: 1.0416666666666667;"/><rect fill="#FFFFFF" height="56.8583" rx="13.0208" ry="13.0208" style="stroke: #2FA4E7; stroke-width: 1.5625;" width="112.5" x="96.875" y="771.7611"/><line style="stroke: #2FA4E7; stroke-width: 1.5625;" x1="96.875" x2="209.375" y1="807.7861" y2="807.7861"/><text fill="#2FA4E7" font-family="Verdana" font-size="12.5" lengthAdjust="spacingAndGlyphs" textLength="81.25" x="112.5" y="794.7449">CapsLockOff</text><rect fill="#FFFFFF" height="56.8583" rx="13.0208" ry="13.0208" style="stroke: #2FA4E7; stroke-width: 1.5625;" width="112.5" x="95.8333" y="893.6361"/><line style="stroke: #2FA4E7; stroke-width: 1.5625;" x1="95.8333" x2="208.3333" y1="929.6611" y2="929.6611"/><text fill="#2FA4E7" font-family="Verdana" font-size="12.5" lengthAdjust="spacingAndGlyphs" textLength="81.25" x="111.4583" y="916.6199">CapsLockOn</text><!--MD5=[ad44b9de6595643ec3df1279e2e825ac]
link *start*CONC82 to CapsLockOff--><path d="M78.3854,800.4069 C82.6963,800.4069 87.0071,800.4069 91.3179,800.4069 " fill="none" id="*start*CONC82-&gt;CapsLockOff" style="stroke: #2FA4E7; stroke-width: 3.125;"/><polygon fill="#2FA4E7" points="96.7783,800.4069,87.4033,796.2402,91.57,800.4069,87.4033,804.5736,96.7783,800.4069" style="stroke: #2FA4E7; stroke-width: 3.125;"/><!--MD5=[dc4675bd3056f3ef68701d9e8e02a3f3]
link CapsLockOff to CapsLockOn--><path d="M96.4471,827.1658 C83.9754,834.2376 73.3901,841.6163 69.7917,847.8027 C63.7395,858.2075 63.7677,864.4648 69.7917,874.8861 C74.9433,883.7983 82.4773,891.1825 90.9249,897.254 " fill="none" id="CapsLockOff-&gt;CapsLockOn" style="stroke: #2FA4E7; stroke-width: 3.125;"/><polygon fill="#2FA4E7" points="95.7027,900.4934,90.2815,891.7835,91.3919,897.5705,85.6049,898.6808,95.7027,900.4934" style="stroke: #2FA4E7; stroke-width: 3.125;"/><text fill="#343A40" font-family="Verdana" font-size="12.5" lengthAdjust="spacingAndGlyphs" textLength="131.25" x="76.0417" y="866.6199">EvCapsLockPressed</text><!--MD5=[79e17b083e07746bd1a647600952cab6]
link CapsLockOn to CapsLockOff--><path d="M199.6152,893.3832 C205.2267,887.9512 210.1531,881.7784 213.5417,874.8861 C218.8524,864.0839 218.8076,858.6268 213.5417,847.8027 C210.9518,842.4793 207.4425,837.5766 203.4107,833.1089 " fill="none" id="CapsLockOn-&gt;CapsLockOff" style="stroke: #2FA4E7; stroke-width: 3.125;"/><polygon fill="#2FA4E7" points="199.5726,829.1286,203.0807,838.7694,203.1879,832.8778,209.0795,832.9849,199.5726,829.1286" style="stroke: #2FA4E7; stroke-width: 3.125;"/><text fill="#343A40" font-family="Verdana" font-size="12.5" lengthAdjust="spacingAndGlyphs" textLength="131.25" x="223.9583" y="866.6199">EvCapsLockPressed</text><line style="stroke: #2FA4E7; stroke-width: 1.5625; stroke-dasharray: 8.0,10.0;" x1="51.0417" x2="389.5833" y1="961.3444" y2="961.3444"/><ellipse cx="67.7083" cy="998.3236" fill="#033C73" rx="10.4167" ry="10.4167" style="stroke: none; stroke-width: 1.0416666666666667;"/><rect fill="#FFFFFF" height="56.8583" rx="13.0208" ry="13.0208" style="stroke: #2FA4E7; stroke-width: 1.5625;" width="113.5417" x="97.3958" y="969.6777"/><line style="stroke: #2FA4E7; stroke-width: 1.5625;" x1="97.3958" x2="210.9375" y1="1005.7027" y2="1005.7027"/><text fill="#2FA4E7" font-family="Verdana" font-size="12.5" lengthAdjust="spacingAndGlyphs" textLength="82.2917" x="113.0208" y="992.6615">ScrollLockOff</text><rect fill="#FFFFFF" height="56.8583" rx="13.0208" ry="13.0208" style="stroke: #2FA4E7; stroke-width: 1.5625;" width="113.5417" x="97.3958" y="1091.5527"/><line style="stroke: #2FA4E7; stroke-width: 1.5625;" x1="97.3958" x2="210.9375" y1="1127.5777" y2="1127.5777"/><text fill="#2FA4E7" font-family="Verdana" font-size="12.5" lengthAdjust="spacingAndGlyphs" textLength="82.2917" x="113.0208" y="1114.5365">ScrollLockOn</text><!--MD5=[9a8b2c0f7fde6bd227d6334344b3ad45]
link *start*CONC90 to ScrollLockOff--><path d="M78.1779,998.3236 C82.7293,998.3236 87.2807,998.3236 91.8321,998.3236 " fill="none" id="*start*CONC90-&gt;ScrollLockOff" style="stroke: #2FA4E7; stroke-width: 3.125;"/><polygon fill="#2FA4E7" points="97.1751,998.3236,87.8001,994.1569,91.9668,998.3236,87.8001,1002.4902,97.1751,998.3236" style="stroke: #2FA4E7; stroke-width: 3.125;"/><!--MD5=[da4e1e55b4a6de250eca2c82023085fa]
link ScrollLockOff to ScrollLockOn--><path d="M97.3668,1020.3818 C87.1778,1026.9684 77.8982,1035.2996 71.875,1045.7194 C65.851,1056.1407 65.851,1062.3815 71.875,1072.8027 C76.9571,1081.5945 84.3574,1088.8993 92.6663,1094.9238 " fill="none" id="ScrollLockOff-&gt;ScrollLockOn" style="stroke: #2FA4E7; stroke-width: 3.125;"/><polygon fill="#2FA4E7" points="97.3668,1098.1403,91.9829,1089.4073,93.0685,1095.199,87.2768,1096.2846,97.3668,1098.1403" style="stroke: #2FA4E7; stroke-width: 3.125;"/><text fill="#343A40" font-family="Verdana" font-size="12.5" lengthAdjust="spacingAndGlyphs" textLength="131.25" x="78.125" y="1064.5365">EvCapsLockPressed</text><!--MD5=[6ad2c621f2407b82317910f4deb17639]
link ScrollLockOn to ScrollLockOff--><path d="M201.6985,1091.2998 C207.31,1085.8678 212.2365,1079.695 215.625,1072.8027 C220.9357,1062.0005 220.9357,1056.5216 215.625,1045.7194 C213.0306,1040.4424 209.5348,1035.5873 205.5202,1031.1635 " fill="none" id="ScrollLockOn-&gt;ScrollLockOff" style="stroke: #2FA4E7; stroke-width: 3.125;"/><polygon fill="#2FA4E7" points="201.6985,1027.2223,205.2335,1036.8533,205.3243,1030.9614,211.2161,1031.0521,201.6985,1027.2223" style="stroke: #2FA4E7; stroke-width: 3.125;"/><text fill="#343A40" font-family="Verdana" font-size="12.5" lengthAdjust="spacingAndGlyphs" textLength="131.25" x="225" y="1064.5365">EvCapsLockPressed</text><!--MD5=[242ad121cef04112e9b0ee8f25f52375]
link *start to fork_state--><path d="M221.3542,80.8292 C221.3542,95.8871 221.3542,123.0776 221.3542,137.539 " fill="none" id="*start-&gt;fork_state" style="stroke: #2FA4E7; stroke-width: 3.125;"/><polygon fill="#2FA4E7" points="221.3542,142.8849,225.5208,133.5099,221.3542,137.6766,217.1875,133.5099,221.3542,142.8849" style="stroke: #2FA4E7; stroke-width: 3.125;"/><!--MD5=[44dd36eb382d4fffd186e8c447a61da0]
link fork_state to State2--><path d="M218.8385,151.5374 C212.9698,161.6693 197.9208,187.6501 185.4011,209.2643 " fill="none" id="fork_state-&gt;State2" style="stroke: #2FA4E7; stroke-width: 3.125;"/><polygon fill="#2FA4E7" points="182.7722,213.803,191.0767,207.7791,185.3828,209.2961,183.8657,203.6022,182.7722,213.803" style="stroke: #2FA4E7; stroke-width: 3.125;"/><!--MD5=[43d4d70f9cd19f132a5eb1ce9d85c890]
link fork_state to State3--><path d="M223.9173,151.5374 C229.8968,161.6693 245.2297,187.6501 257.9856,209.2643 " fill="none" id="fork_state-&gt;State3" style="stroke: #2FA4E7; stroke-width: 3.125;"/><polygon fill="#2FA4E7" points="260.6642,213.803,259.4877,203.6114,258.017,209.3175,252.311,207.8468,260.6642,213.803" style="stroke: #2FA4E7; stroke-width: 3.125;"/><!--MD5=[8cf5ef3a64654818495211b4c165bd62]
link State2 to join_state--><path d="M183.0101,271.6217 C194.3307,291.1659 208.5065,315.639 216.052,328.6656 " fill="none" id="State2-&gt;join_state" style="stroke: #2FA4E7; stroke-width: 3.125;"/><polygon fill="#2FA4E7" points="218.8521,333.4998,217.7585,323.2991,216.2415,328.993,210.5476,327.476,218.8521,333.4998" style="stroke: #2FA4E7; stroke-width: 3.125;"/><!--MD5=[183fde86cac17ac230b97143534e47db]
link State3 to join_state--><path d="M260.4217,271.6217 C248.7845,291.3404 234.186,316.0764 226.5521,329.0118 " fill="none" id="State3-&gt;join_state" style="stroke: #2FA4E7; stroke-width: 3.125;"/><polygon fill="#2FA4E7" points="223.9034,333.4998,232.2567,327.5438,226.5506,329.0144,225.08,323.3083,223.9034,333.4998" style="stroke: #2FA4E7; stroke-width: 3.125;"/><!--MD5=[1e473d623208eebf6d5ebd6e9bc5a11d]
link join_state to State4--><path d="M221.3542,342.1624 C221.3542,352.1671 221.3542,377.6254 221.3542,399.0734 " fill="none" id="join_state-&gt;State4" style="stroke: #2FA4E7; stroke-width: 3.125;"/><polygon fill="#2FA4E7" points="221.3542,404.428,225.5208,395.053,221.3542,399.2196,217.1875,395.053,221.3542,404.428" style="stroke: #2FA4E7; stroke-width: 3.125;"/><!--MD5=[0a70b1a7cf318979336334b4227eefe4]
link State4 to Active--><path d="M221.3542,462.0648 C221.3542,476.7134 221.3542,496.1373 221.3542,518.4846 " fill="none" id="State4-&gt;Active" style="stroke: #2FA4E7; stroke-width: 3.125;"/><polygon fill="#2FA4E7" points="221.3542,523.9146,225.5208,514.5396,221.3542,518.7063,217.1875,514.5396,221.3542,523.9146" style="stroke: #2FA4E7; stroke-width: 3.125;"/><!--MD5=[09245d2524452d0dcd83b9374953f0e8]
@startuml



skinparam backgroundColor transparent







skinparam defaultFontName       "Verdana"
skinparam defaultFontSize       12
skinparam dpi                   100
skinparam shadowing             false
skinparam roundcorner           8
skinparam ParticipantPadding    40
skinparam BoxPadding            40
skinparam Padding               5
skinparam ArrowColor            #868E96
skinparam stereotype {
    CBackgroundColor #EDF0F2
    CBorderColor #BABDBF
    ABackgroundColor #8FB961
    ABorderColor $SUCCESS_DARK
    IBackgroundColor #D2494E
    IBorderColor $DANGER_DARK
    EBackgroundColor #E47833
    EBorderColor $WARNING_DARK
    NBackgroundColor #35638F
    NBorderColor $INFO_DARK
}
skinparam title {
	FontColor	                 #2FA4E7
	BorderColor	                 #BABDBF
	FontSize	    	         20
	BorderRoundCorner            8
	BorderThickness 	         1
	BackgroundColor              transparent
}

skinparam legend {
	BackgroundColor transparent
	BorderColor #BABDBF
	FontColor #343A40
}

skinparam activity {
		FontColor #2FA4E7
	BorderColor #2FA4E7
	BackgroundColor transparent
	BarColor #73A839
	StartColor #033C73
	EndColor #033C73
	DiamondBackgroundColor transparent
  	DiamondBorderColor #BABDBF
	DiamondFontColor #BABDBF
}

skinparam participant {
		FontColor #2FA4E7
	BorderColor #2FA4E7
	BackgroundColor transparent
	ParticipantBorderThickness 2
}

skinparam actor {
		FontColor #2FA4E7
	BorderColor #2FA4E7
	BackgroundColor transparent
}

skinparam arrow {
	Thickness 3
	Color #2FA4E7
	FontColor #343A40
}

skinparam sequence {
	BorderColor #2FA4E7
	TitleFontColor #2FA4E7
	BackgroundColor transparent
	StartColor #2FA4E7
	EndColor #2FA4E7
	BoxBackgroundColor transparent
	BoxBorderColor #868E96
	BoxFontColor #343A40
	LifeLineBorderColor #BABDBF
	LifeLineBorderThickness 2
	LifeLineBackgroundColor transparent
	GroupBorderColor #868E96
	GroupFontColor #343A40
	GroupHeaderFontColor #033C73
	DividerBackgroundColor transparent
    DividerBorderColor #868E96
    DividerBorderThickness 2
    DividerFontColor #343A40
	ReferenceBackgroundColor transparent
	ReferenceBorderColor #868E96
	ReferenceFontColor #343A40
	ReferenceHeaderFontColor #033C73
}

skinparam partition {
	BorderColor #2FA4E7
	FontColor #2FA4E7
	BackgroundColor transparent
}

skinparam collections {
		FontColor #2FA4E7
	BorderColor #2FA4E7
	BackgroundColor transparent
}

skinparam control {
		FontColor #2FA4E7
	BorderColor #2FA4E7
	BackgroundColor transparent
}

skinparam entity {
		FontColor #2FA4E7
	BorderColor #2FA4E7
	BackgroundColor transparent
}

skinparam boundary {
		FontColor #2FA4E7
	BorderColor #2FA4E7
	BackgroundColor transparent
}

skinparam agent {
	BackgroundColor transparent
	BorderColor #999999
	FontColor #333333
}

skinparam note {
	BorderThickness 1
	BackgroundColor transparent
	BorderColor #033C73
	FontColor #033C73
}

skinparam artifact {
	BackgroundColor transparent
	BorderColor #868E96
	FontColor #868E96
}

skinparam component {
		FontColor #2FA4E7
	BorderColor #2FA4E7
	BackgroundColor transparent
}

skinparam interface {
	BackgroundColor  transparent
	BorderColor  #C71C22
	FontColor #343A40
}

skinparam storage {
	BackgroundColor transparent
  	BorderColor #DD5600
	FontColor #DD5600
}

skinparam node {
	BackgroundColor transparent
	BorderColor #343A40
	FontColor #343A40
}

skinparam cloud {
	BackgroundColor #F2FCFE-#eeeeee
	BorderColor #F2FCFE
	FontColor #343A40
}

skinparam database {
		FontColor #2FA4E7
	BorderColor #2FA4E7
	BackgroundColor transparent
}

skinparam class {
		FontColor #2FA4E7
	BorderColor #2FA4E7
	BackgroundColor transparent
	HeaderBackgroundColor #2FA4E7-#2683B9
	StereotypeFontColor #343A40
	BorderThickness 1
	AttributeFontColor #343A40
	AttributeFontSize 11
}

skinparam object {
		FontColor #2FA4E7
	BorderColor #2FA4E7
	BackgroundColor transparent
	StereotypeFontColor #343A40
	BorderThickness 1
	AttributeFontColor #BABDBF
	AttributeFontSize 11
}

skinparam usecase {
		FontColor #2FA4E7
	BorderColor #2FA4E7
	BackgroundColor transparent
	BorderThickness 2
	StereotypeFontColor #2FA4E7
}

skinparam rectangle {
		FontColor #2FA4E7
	BorderColor #2FA4E7
	BackgroundColor transparent
	BorderThickness 2
	StereotypeFontColor #2FA4E7
}

skinparam package {
	BackgroundColor transparent
  	BorderColor #2FA4E7
	FontColor #2FA4E7
	BorderThickness 2
}

skinparam folder {
	BackgroundColor transparent
  	BorderColor #DD5600
	FontColor #DD5600
	BorderThickness 2
}

skinparam frame {
	BackgroundColor transparent
  	BorderColor #033C73
	FontColor #033C73
	BorderThickness 2
}

skinparam state {
		FontColor #2FA4E7
	BorderColor #2FA4E7
	BackgroundColor transparent
	StartColor #033C73
	EndColor #033C73
	AttributeFontColor #BABDBF
	AttributeFontSize 11
}

skinparam queue {
		FontColor #2FA4E7
	BorderColor #2FA4E7
	BackgroundColor transparent
}

skinparam card {
	BackgroundColor transparent
	BorderColor #033C73
	FontColor #033C73
}

skinparam file {
	BackgroundColor transparent
	BorderColor #868E96
	FontColor #868E96
}

skinparam stack {
		FontColor #2FA4E7
	BorderColor #2FA4E7
	BackgroundColor transparent
}




title State Diagram - cerulean-outline theme


state fork_state <<fork>>
[*] - -> fork_state
fork_state - -> State2
fork_state - -> State3

state join_state <<join>>
State2 - -> join_state
State3 - -> join_state
join_state - -> State4
State4 - -> Active

state Active {
  [*] -> NumLockOff
  NumLockOff - -> NumLockOn : EvNumLockPressed
  NumLockOn - -> NumLockOff : EvNumLockPressed
  - -
  [*] -> CapsLockOff
  CapsLockOff - -> CapsLockOn : EvCapsLockPressed
  CapsLockOn - -> CapsLockOff : EvCapsLockPressed
  - -
  [*] -> ScrollLockOff
  ScrollLockOff - -> ScrollLockOn : EvCapsLockPressed
  ScrollLockOn - -> ScrollLockOff : EvCapsLockPressed
}

@enduml

PlantUML version 1.2020.00(Sat Jan 11 04:30:53 PST 2020)
(GPL source distribution)
Java Runtime: OpenJDK Runtime Environment
JVM: OpenJDK 64-Bit Server VM
Java Version: 11.0.5+10-post-Ubuntu-0ubuntu1.118.04
Operating System: Linux
Default Encoding: UTF-8
Language: en
Country: US
--></g></svg>