<?xml version="1.0" encoding="UTF-8" standalone="no"?><svg xmlns="http://www.w3.org/2000/svg" xmlns:xlink="http://www.w3.org/1999/xlink" contentScriptType="application/ecmascript" contentStyleType="text/css" height="712.5px" preserveAspectRatio="none" style="width:398px;height:712px;background:#00000000;" version="1.1" viewBox="0 0 398 712" width="398.9583px" zoomAndPan="magnify"><defs><linearGradient id="g1e3y7mlmiosud0" x1="50%" x2="50%" y1="0%" y2="100%"><stop offset="0%" stop-color="#666666"/><stop offset="100%" stop-color="#555555"/></linearGradient></defs><g><polygon fill="url(#g1e3y7mlmiosud0)" points="16.6667,12.5,16.6667,12.7189,27.1429,12.0684,37.619,12.7013,48.0952,12.9163,58.5714,11.7569,69.0476,12.419,79.5238,12.0557,90,12.1005,100.4762,12.429,110.9524,11.7798,121.4286,13.0767,131.9048,11.8435,142.381,12.294,152.8571,12.9499,163.3333,12.4106,173.8095,12.5711,184.2857,12.4667,194.7619,12.686,205.2381,12.7491,215.7143,13.1101,226.1905,13.199,236.6667,13.2076,247.1429,12.7652,257.619,12.9829,268.0952,13.2315,278.5714,11.7488,289.0476,13.2068,299.5238,12.1911,310,13.0561,320.4762,11.9844,330.9524,12.4286,341.4286,13.2725,351.9048,12.4492,362.381,12.6097,372.8571,12.8527,383.3333,12.5,383.3886,12.6335,383.9221,12.7428,384.55,13.0803,385.025,13.0486,385.7281,13.5675,386.2796,13.7204,386.4555,13.7932,386.6663,14.3687,386.9644,14.9804,386.8569,15.424,387.0467,15.9908,387.5,16.6667,387.2842,16.6667,387.4796,24.0169,387.4318,31.3672,387.7366,38.7174,387.4393,46.0677,387.5,53.418,387.39,53.3724,387.3291,54.0376,386.7979,54.5079,386.6012,55.1168,386.7319,55.8612,386.2796,56.3642,386.3375,56.504,385.788,56.8439,385.0583,56.7492,384.5543,57.1989,384.001,57.53,383.3333,57.5846,383.3333,57.0925,372.8571,57.4848,362.381,57.7159,351.9048,58.2636,341.4286,57.5803,330.9524,58.0665,320.4762,57.0078,310,56.8792,299.5238,58.1092,289.0476,56.8378,278.5714,58.1148,268.0952,57.7999,257.619,57.3056,247.1429,57.2161,236.6667,58.0625,226.1905,57.2728,215.7143,58.2012,205.2381,57.0089,194.7619,58.2278,184.2857,58.0891,173.8095,57.8398,163.3333,57.6338,152.8571,58.3415,142.381,58.2238,131.9048,57.7609,121.4286,57.864,110.9524,57.4489,100.4762,58.3309,90,57.746,79.5238,57.7644,69.0476,56.9509,58.5714,57.1625,48.0952,58.1375,37.619,58.0323,27.1429,57.5399,16.6667,57.5846,16.6239,57.4813,16.0483,57.2703,15.397,56.8764,14.954,56.9854,14.4079,56.8456,13.7204,56.3642,13.8893,56.4342,13.6992,55.8673,13.1884,55.1676,13.0161,54.6081,12.6197,53.9557,12.5,53.418,12.5986,53.418,12.5857,46.0677,12.6918,38.7174,12.4203,31.3672,12.4533,24.0169,12.5,16.6667,12.6423,16.7256,12.9261,16.1528,12.8237,15.4201,13.17,14.8731,13.5242,14.3295,13.7204,13.7204,13.6392,13.5244,14.3566,13.5897,14.9332,13.315,15.4748,12.9558,16.0963,12.7897,16.6667,12.5" style="stroke: #4D4D4D; stroke-width: 1.0416666666666667;"/><text fill="#FFFFFF" font-family="Segoe Script" font-size="20.8333" lengthAdjust="spacingAndGlyphs" textLength="347.9167" x="26.0417" y="42.2546">Activity Diagram - sketchy theme</text><polygon fill="#17A2B8" points="212.0367,73.66,210.5098,75.7464,208.7038,78.8022,206.1209,80.8615,203.4066,81.9877,201.2424,82.0854,198.4609,80.677,195.8363,79.7569,193.8443,77.8888,192.7993,75.7501,192.1796,74.0473,191.5725,71.823,190.5871,69.9089,191.3443,68.0401,192.0078,65.993,194.4974,64.3739,196.249,62.2732,198.417,61.5756,200.9944,60.9748,204.2996,61.3318,206.1099,62.1855,208.2147,62.5725,210.7738,65.1945,211.666,67.9624,212.0536,69.8511,211.6145,72.9633" style="stroke: none; stroke-width: 1.0416666666666667;"/><polygon fill="#474747" points="183.3333,102.3763,183.3333,102.4493,190.625,102.2324,197.9167,102.4434,205.2083,102.5151,212.5,102.1286,219.7917,102.3763,219.7813,102.3514,221.5764,103.0022,223.4236,103.7788,225.3069,104.6427,227.0655,105.2055,228.9988,106.19,229.1764,106.2636,229.5593,107.9477,230.4608,109.8466,231.4256,111.7717,232.0222,113.5443,232.8125,115.3971,232.8362,115.3971,232.8014,119.349,232.8745,123.3008,232.8955,127.2526,233.0159,131.2044,232.8125,135.1563,233.0278,135.2454,232.2677,137.0879,231.3687,138.8729,230.673,140.7421,229.9868,142.6153,228.9988,144.3634,228.903,144.132,227.2475,145.3438,225.2765,145.7937,223.5454,146.8228,221.5673,147.2555,219.7917,148.1771,219.7917,148.1533,212.5,148.4346,205.2083,148.1602,197.9167,148.2136,190.625,148.2947,183.3333,148.1771,183.3886,148.3106,181.4914,147.4131,179.6886,146.7437,177.733,145.7052,176.0054,145.2173,174.1262,144.3634,174.3021,144.4362,173.5061,142.581,172.7974,140.762,171.683,138.7749,170.866,136.911,170.3125,135.1563,170.0967,135.1563,170.2921,131.2044,170.2443,127.2526,170.5491,123.3008,170.2518,119.349,170.3125,115.3971,170.2025,115.3516,171.1485,113.586,171.6241,111.6257,172.4342,109.8039,173.5716,108.1177,174.1262,106.19,174.1841,106.3298,176.0652,105.6629,177.7663,104.5613,179.6929,104.0042,181.5704,103.3284,183.3333,102.3763" style="stroke: #333333; stroke-width: 1.5625;"/><text fill="#FFFFFF" font-family="Segoe Script" font-size="12.5" lengthAdjust="spacingAndGlyphs" textLength="31.25" x="185.9375" y="129.6041">start</text><polygon fill="#28A745" points="93.2292,169.0104,93.2292,169.2294,103.5466,168.5788,113.8641,169.2118,124.1815,169.4267,134.499,168.2673,144.8165,168.9295,155.1339,168.5662,165.4514,168.6109,175.7688,168.9394,186.0863,168.2902,196.4038,169.5871,206.7212,168.3539,217.0387,168.8044,227.3562,169.4604,237.6736,168.9211,247.9911,169.0815,258.3085,168.9771,268.626,169.1964,278.9435,169.2595,289.2609,169.6205,299.5784,169.7094,309.8958,169.0104,309.9861,169.2283,310.298,169.2446,310.694,169.4642,311.094,169.6933,311.2731,169.3893,311.7373,169.7732,311.9549,169.8633,311.7947,170.102,312.2136,170.5807,312.0361,170.8122,312.3255,171.2372,312.5,171.6146,312.7575,171.6146,312.4831,171.8229,312.5366,172.0313,312.6176,172.2396,312.6445,172.4479,312.5,172.6563,312.4987,172.6557,312.4396,173.0627,312.0113,173.3168,312.1336,173.7989,312.0657,174.2022,311.7373,174.4977,311.7963,174.6403,311.4504,174.8469,310.9365,174.6478,310.5457,174.7461,310.1815,174.9085,309.8958,175.2604,309.8958,175.1991,299.5784,175.0557,289.2609,175.9702,278.9435,175.0785,268.626,174.9031,258.3085,175.4982,247.9911,174.5658,237.6736,174.7197,227.3562,175.9364,217.0387,175.7142,206.7212,176.0255,196.4038,174.9252,186.0863,175.5929,175.7688,175.8754,165.4514,174.7683,155.1339,175.1606,144.8165,175.3916,134.499,175.9393,124.1815,175.2561,113.8641,175.7423,103.5466,174.6836,93.2292,175.2604,93.1392,175.0432,92.9278,175.2694,92.3973,174.7253,92.1919,174.966,91.7835,174.7165,91.3877,174.4977,91.3018,174.4621,91.1217,174.0824,91.2298,173.8221,90.8341,173.353,90.9674,173.1032,90.625,172.6563,90.4331,172.6563,90.8394,172.4479,90.7932,172.2396,90.7101,172.0313,90.6414,171.8229,90.625,171.6146,90.8581,171.7111,90.9744,171.3278,90.9844,170.9005,91.1687,170.5454,91.1934,170.1241,91.3877,169.7732,91.4829,170.003,91.7766,169.6703,92.1472,169.5234,92.4118,169.1204,92.807,169.033,93.2292,169.0104" style="stroke: #28A745; stroke-width: 1.0416666666666667;"/><polygon fill="#00000000" points="107.2917,185.6771,107.2917,185.896,117.1875,185.2455,127.0833,185.8784,136.9792,186.0934,146.875,184.934,156.7708,185.5961,166.6667,185.2328,176.5625,185.2776,186.4583,185.6061,196.3542,184.9569,206.25,185.6771,206.3236,185.8547,206.7555,185.719,207.4022,186.1018,208.0752,186.5479,208.5956,186.6259,209.1963,186.8975,209.2182,186.9065,209.4301,187.4825,209.7417,188.0997,210.0052,188.697,210.3605,189.3323,210.4167,189.8438,211.1157,189.8438,211.1242,200.3159,210.6819,210.7881,210.8996,221.2603,211.1482,231.7325,209.6654,242.2047,211.1234,252.6769,210.1078,263.1491,210.9727,273.6213,209.901,284.0935,210.3453,294.5657,211.1892,305.0379,210.3659,315.5101,210.5264,325.9823,210.7694,336.4545,210.8502,346.9267,210.4126,357.3989,210.4167,367.8711,210.5088,367.9093,209.989,368.3843,210.0197,369.0874,209.8603,369.7117,209.583,370.2872,209.1963,370.8174,209.2777,371.014,208.5428,370.9065,207.9311,371.0963,207.3459,371.3503,206.8314,371.7748,206.25,372.0378,206.25,371.833,196.3542,372.7476,186.4583,371.8558,176.5625,371.6804,166.6667,372.2755,156.7708,371.3431,146.875,371.497,136.9792,372.7138,127.0833,372.4916,117.1875,372.8029,107.2917,372.0378,107.2489,371.9345,106.7448,371.8961,106.1916,371.739,105.4611,371.154,104.9219,371.0307,104.3454,370.8174,104.3858,370.8341,104.3104,370.3147,103.8559,369.6383,103.7615,369.1111,103.1914,368.3868,103.125,367.8711,102.4195,367.8711,103.6496,357.3989,102.3782,346.9267,103.6552,336.4545,103.3402,325.9823,102.8459,315.5101,102.7565,305.0379,103.6029,294.5657,102.8132,284.0935,103.7415,273.6213,102.5492,263.1491,103.7682,252.6769,103.6295,242.2047,103.3802,231.7325,103.1742,221.2603,103.8819,210.7881,103.7641,200.3159,103.125,189.8438,103.1793,189.8662,103.4551,189.2901,103.5714,188.6479,104.0871,188.1712,104.151,187.5073,104.3454,186.8975,104.3683,186.9528,104.8538,186.4582,105.4701,186.2793,106.1837,186.3355,106.7595,186.059,107.2917,185.6771" style="stroke: #333333; stroke-width: 2.0833333333333335;"/><path d="M200,185.6771 L200.1946,185.6771 L199.6164,189.2122 L200.179,192.7474 L200.3701,196.2826 L199.3394,199.8177 L200,203.3529 L199.9491,203.302 L197.6374,205.157 L195.5822,207.2684 L193.7054,209.5582 L191.214,211.2335 L189.5833,213.7695 L189.5833,215.3074 L178.776,212.0188 L167.9688,213.2202 L157.1615,214.9694 L146.3542,213.5313 L135.5469,213.9591 L124.7396,213.6808 L113.9323,214.2654 L103.125,213.7695 " fill="none" style="stroke: #333333; stroke-width: 2.0833333333333335;"/><text fill="#333333" font-family="Segoe Script" font-size="12.5" lengthAdjust="spacingAndGlyphs" textLength="76.0417" x="111.4583" y="203.5299">My Partition</text><polygon fill="#474747" points="139.5833,231.4779,139.5833,231.5508,146.4583,231.334,153.3333,231.545,160.2083,231.6166,167.0833,231.2302,173.9583,231.4779,173.948,231.4529,175.7431,232.1038,177.5902,232.8803,179.4735,233.7442,181.2322,234.3071,183.1655,235.2916,183.3431,235.3651,183.726,237.0493,184.6275,238.9481,185.5922,240.8732,186.1889,242.6459,186.9792,244.4987,187.0029,244.4987,186.9681,248.4505,187.0412,252.4023,187.0622,256.3542,187.1825,260.306,186.9792,264.2578,187.1944,264.347,186.4343,266.1895,185.5354,267.9745,184.8397,269.8437,184.1535,271.7168,183.1655,273.4649,183.0696,273.2336,181.4142,274.4453,179.4432,274.8953,177.7121,275.9244,175.734,276.3571,173.9583,277.2786,173.9583,277.2549,167.0833,277.5361,160.2083,277.2617,153.3333,277.3152,146.4583,277.3962,139.5833,277.2786,139.6386,277.4122,137.7414,276.5147,135.9386,275.8453,133.983,274.8068,132.2554,274.3189,130.3762,273.4649,130.5521,273.5378,129.7561,271.6826,129.0474,269.8635,127.933,267.8765,127.116,266.0126,126.5625,264.2578,126.3467,264.2578,126.5421,260.306,126.4943,256.3542,126.7991,252.4023,126.5018,248.4505,126.5625,244.4987,126.4525,244.4531,127.3985,242.6876,127.8741,240.7272,128.6842,238.9054,129.8216,237.2192,130.3762,235.2916,130.4341,235.4313,132.3152,234.7645,134.0163,233.6629,135.9429,233.1057,137.8204,232.43,139.5833,231.4779" style="stroke: #333333; stroke-width: 1.5625;"/><text fill="#FFFFFF" font-family="Segoe Script" font-size="12.5" lengthAdjust="spacingAndGlyphs" textLength="29.1667" x="142.1875" y="258.7056">foo1</text><polygon fill="#474747" points="139.5833,313.737,139.5833,313.81,146.4583,313.5931,153.3333,313.8041,160.2083,313.8758,167.0833,313.4893,173.9583,313.737,173.948,313.712,175.7431,314.3629,177.5902,315.1394,179.4735,316.0033,181.2322,316.5662,183.1655,317.5507,183.3431,317.6243,183.726,319.3084,184.6275,321.2073,185.5922,323.1324,186.1889,324.905,186.9792,326.7578,187.0029,326.7578,186.9681,330.7096,187.0412,334.6615,187.0622,338.6133,187.1825,342.5651,186.9792,346.5169,187.1944,346.6061,186.4343,348.4486,185.5354,350.2336,184.8397,352.1028,184.1535,353.9759,183.1655,355.724,183.0696,355.4927,181.4142,356.7044,179.4432,357.1544,177.7121,358.1835,175.734,358.6162,173.9583,359.5378,173.9583,359.514,167.0833,359.7953,160.2083,359.5208,153.3333,359.5743,146.4583,359.6553,139.5833,359.5378,139.6386,359.6713,137.7414,358.7738,135.9386,358.1044,133.983,357.0659,132.2554,356.578,130.3762,355.724,130.5521,355.7969,129.7561,353.9417,129.0474,352.1227,127.933,350.1356,127.116,348.2717,126.5625,346.5169,126.3467,346.5169,126.5421,342.5651,126.4943,338.6133,126.7991,334.6615,126.5018,330.7096,126.5625,326.7578,126.4525,326.7122,127.3985,324.9467,127.8741,322.9864,128.6842,321.1646,129.8216,319.4783,130.3762,317.5507,130.4341,317.6905,132.3152,317.0236,134.0163,315.922,135.9429,315.3649,137.8204,314.6891,139.5833,313.737" style="stroke: #333333; stroke-width: 1.5625;"/><text fill="#FFFFFF" font-family="Segoe Script" font-size="12.5" lengthAdjust="spacingAndGlyphs" textLength="29.1667" x="142.1875" y="340.9648">foo2</text><polygon fill="#474747" points="252.6042,260.1237,252.6042,260.1967,259.4792,259.9798,266.3542,260.1908,273.2292,260.2625,280.1042,259.876,286.9792,260.1237,286.9688,260.0988,288.7639,260.7496,290.6111,261.5262,292.4944,262.3901,294.253,262.9529,296.1863,263.9374,296.3639,264.011,296.7468,265.6951,297.6483,267.594,298.6131,269.5191,299.2097,271.2917,300,273.1445,300.0237,273.1445,299.9889,277.0964,300.062,281.0482,300.083,285,300.2034,288.9518,300,292.9036,300.2153,292.9928,299.4552,294.8353,298.5562,296.6203,297.8605,298.4895,297.1743,300.3627,296.1863,302.1108,296.0905,301.8794,294.435,303.0912,292.464,303.5411,290.7329,304.5702,288.7548,305.0029,286.9792,305.9245,286.9792,305.9007,280.1042,306.182,273.2292,305.9076,266.3542,305.961,259.4792,306.0421,252.6042,305.9245,252.6595,306.058,250.7622,305.1605,248.9595,304.4911,247.0038,303.4526,245.2763,302.9647,243.397,302.1108,243.5729,302.1836,242.7769,300.3284,242.0682,298.5094,240.9539,296.5223,240.1369,294.6584,239.5833,292.9036,239.3676,292.9036,239.5629,288.9518,239.5151,285,239.8199,281.0482,239.5227,277.0964,239.5833,273.1445,239.4733,273.0989,240.4193,271.3334,240.8949,269.3731,241.705,267.5513,242.8425,265.8651,243.397,263.9374,243.4549,264.0772,245.3361,263.4103,247.0371,262.3087,248.9637,261.7516,250.8412,261.0758,252.6042,260.1237" style="stroke: #333333; stroke-width: 1.5625;"/><text fill="#FFFFFF" font-family="Segoe Script" font-size="12.5" lengthAdjust="spacingAndGlyphs" textLength="29.1667" x="255.2083" y="287.3515">foo3</text><polygon fill="#28A745" points="93.2292,392.8711,93.2292,393.09,103.5466,392.4395,113.8641,393.0724,124.1815,393.2874,134.499,392.128,144.8165,392.7901,155.1339,392.4268,165.4514,392.4716,175.7688,392.8001,186.0863,392.1509,196.4038,393.4478,206.7212,392.2146,217.0387,392.6651,227.3562,393.321,237.6736,392.7817,247.9911,392.9422,258.3085,392.8378,268.626,393.0571,278.9435,393.1202,289.2609,393.4812,299.5784,393.5701,309.8958,392.8711,309.9861,393.089,310.298,393.1053,310.694,393.3249,311.094,393.554,311.2731,393.2499,311.7373,393.6338,311.9549,393.724,311.7947,393.9627,312.2136,394.4413,312.0361,394.6729,312.3255,395.0979,312.5,395.4753,312.7575,395.4753,312.4831,395.6836,312.5366,395.8919,312.6176,396.1003,312.6445,396.3086,312.5,396.5169,312.4987,396.5164,312.4396,396.9234,312.0113,397.1774,312.1336,397.6596,312.0657,398.0629,311.7373,398.3584,311.7963,398.501,311.4504,398.7076,310.9365,398.5085,310.5457,398.6068,310.1815,398.7692,309.8958,399.1211,309.8958,399.0598,299.5784,398.9164,289.2609,399.8309,278.9435,398.9391,268.626,398.7637,258.3085,399.3589,247.9911,398.4265,237.6736,398.5803,227.3562,399.7971,217.0387,399.5749,206.7212,399.8862,196.4038,398.7859,186.0863,399.4536,175.7688,399.7361,165.4514,398.629,155.1339,399.0212,144.8165,399.2523,134.499,399.8,124.1815,399.1167,113.8641,399.6029,103.5466,398.5442,93.2292,399.1211,93.1392,398.9038,92.9278,399.1301,92.3973,398.586,92.1919,398.8267,91.7835,398.5772,91.3877,398.3584,91.3018,398.3228,91.1217,397.9431,91.2298,397.6827,90.8341,397.2137,90.9674,396.9639,90.625,396.5169,90.4331,396.5169,90.8394,396.3086,90.7932,396.1003,90.7101,395.8919,90.6414,395.6836,90.625,395.4753,90.8581,395.5718,90.9744,395.1885,90.9844,394.7612,91.1687,394.406,91.1934,393.9848,91.3877,393.6338,91.4829,393.8637,91.7766,393.531,92.1472,393.3841,92.4118,392.981,92.807,392.8937,93.2292,392.8711" style="stroke: #28A745; stroke-width: 1.0416666666666667;"/><polygon fill="#474747" points="184.375,465.7878,184.375,465.8607,191.25,465.6439,198.125,465.8549,205,465.9265,211.875,465.5401,218.75,465.7878,218.7397,465.7628,220.5348,466.4137,222.3819,467.1902,224.2652,468.0541,226.0238,468.6169,227.9571,469.6015,228.1347,469.675,228.5177,471.3591,229.4192,473.258,230.3839,475.1831,230.9806,476.9558,231.7708,478.8086,231.7945,478.8086,231.7597,482.7604,231.8328,486.7122,231.8539,490.6641,231.9742,494.6159,231.7708,498.5677,231.9861,498.6569,231.226,500.4994,230.327,502.2844,229.6313,504.1536,228.9451,506.0267,227.9571,507.7748,227.8613,507.5435,226.2059,508.7552,224.2349,509.2052,222.5038,510.2343,220.5256,510.667,218.75,511.5885,218.75,511.5648,211.875,511.846,205,511.5716,198.125,511.6251,191.25,511.7061,184.375,511.5885,184.4303,511.7221,182.5331,510.8245,180.7303,510.1552,178.7747,509.1167,177.0471,508.6288,175.1679,507.7748,175.3437,507.8477,174.5477,505.9925,173.839,504.1734,172.7247,502.1864,171.9077,500.3225,171.3542,498.5677,171.1384,498.5677,171.3337,494.6159,171.2859,490.6641,171.5908,486.7122,171.2935,482.7604,171.3542,478.8086,171.2441,478.763,172.1901,476.9975,172.6657,475.0371,173.4759,473.2153,174.6133,471.5291,175.1679,469.6015,175.2258,469.7412,177.1069,469.0743,178.808,467.9728,180.7346,467.4156,182.612,466.7399,184.375,465.7878" style="stroke: #333333; stroke-width: 1.5625;"/><text fill="#FFFFFF" font-family="Segoe Script" font-size="12.5" lengthAdjust="spacingAndGlyphs" textLength="29.1667" x="186.9792" y="493.0155">foo5</text><polygon fill="#666666" points="181.7708,419.9544,181.7708,420.0274,189.6875,419.8106,197.6042,420.0215,205.5208,420.0932,213.4375,419.7067,221.3542,419.9544,221.3351,419.9353,223.7495,422.3497,226.26,424.8603,228.8374,427.4377,231.1844,429.7847,233.8542,432.4544,233.9901,432.5904,231.1994,434.7997,228.8056,437.4059,226.4602,440.0605,223.8331,442.4334,221.3542,444.9544,221.3542,444.9781,213.4375,444.9433,205.5208,445.0164,197.6042,445.0375,189.6875,445.1578,181.7708,444.9544,181.9356,445.1192,179.4376,442.6212,176.8334,440.0169,174.3847,437.5682,171.9432,435.1268,169.2708,432.4544,169.0938,432.2774,171.9374,430.121,174.198,427.3816,176.9019,425.0855,179.1493,422.3329,181.7708,419.9544" style="stroke: #4D4D4D; stroke-width: 1.5625;"/><text fill="#FFFFFF" font-family="Segoe Script" font-size="12.5" lengthAdjust="spacingAndGlyphs" textLength="29.1667" x="186.9792" y="436.7818">foo4</text><polygon fill="#474747" points="184.375,555.3385,184.375,555.4115,191.25,555.1947,198.125,555.4057,205,555.4773,211.875,555.0908,218.75,555.3385,218.7397,555.3136,220.5348,555.9645,222.3819,556.741,224.2652,557.6049,226.0238,558.1677,227.9571,559.1523,228.1347,559.2258,228.5177,560.9099,229.4192,562.8088,230.3839,564.7339,230.9806,566.5066,231.7708,568.3594,231.7945,568.3594,231.7597,572.3112,231.8328,576.263,231.8539,580.2148,231.9742,584.1667,231.7708,588.1185,231.9861,588.2077,231.226,590.0502,230.327,591.8352,229.6313,593.7044,228.9451,595.5775,227.9571,597.3256,227.8613,597.0943,226.2059,598.306,224.2349,598.756,222.5038,599.7851,220.5256,600.2178,218.75,601.1393,218.75,601.1155,211.875,601.3968,205,601.1224,198.125,601.1759,191.25,601.2569,184.375,601.1393,184.4303,601.2728,182.5331,600.3753,180.7303,599.706,178.7747,598.6675,177.0471,598.1796,175.1679,597.3256,175.3437,597.3985,174.5477,595.5433,173.839,593.7242,172.7247,591.7371,171.9077,589.8733,171.3542,588.1185,171.1384,588.1185,171.3337,584.1667,171.2859,580.2148,171.5908,576.263,171.2935,572.3112,171.3542,568.3594,171.2441,568.3138,172.1901,566.5483,172.6657,564.5879,173.4759,562.7661,174.6133,561.0799,175.1679,559.1523,175.2258,559.292,177.1069,558.6251,178.808,557.5235,180.7346,556.9664,182.612,556.2907,184.375,555.3385" style="stroke: #333333; stroke-width: 1.5625;"/><text fill="#FFFFFF" font-family="Segoe Script" font-size="12.5" lengthAdjust="spacingAndGlyphs" textLength="29.1667" x="186.9792" y="582.5663">foo6</text><polygon fill="#474747" points="184.375,611.556,184.375,611.629,191.25,611.4121,198.125,611.6231,205,611.6948,211.875,611.3083,218.75,611.556,218.7397,611.5311,220.5348,612.1819,222.3819,612.9585,224.2652,613.8224,226.0238,614.3852,227.9571,615.3697,228.1347,615.4433,228.5177,617.1274,229.4192,619.0263,230.3839,620.9514,230.9806,622.724,231.7708,624.5768,231.7945,624.5768,231.7597,628.5286,231.8328,632.4805,231.8539,636.4323,231.9742,640.3841,231.7708,644.3359,231.9861,644.4251,231.226,646.2676,230.327,648.0526,229.6313,649.9218,228.9451,651.7949,227.9571,653.5431,227.8613,653.3117,226.2059,654.5235,224.2349,654.9734,222.5038,656.0025,220.5256,656.4352,218.75,657.3568,218.75,657.333,211.875,657.6143,205,657.3398,198.125,657.3933,191.25,657.4743,184.375,657.3568,184.4303,657.4903,182.5331,656.5928,180.7303,655.9234,178.7747,654.8849,177.0471,654.397,175.1679,653.5431,175.3437,653.6159,174.5477,651.7607,173.839,649.9417,172.7247,647.9546,171.9077,646.0907,171.3542,644.3359,171.1384,644.3359,171.3337,640.3841,171.2859,636.4323,171.5908,632.4805,171.2935,628.5286,171.3542,624.5768,171.2441,624.5312,172.1901,622.7657,172.6657,620.8054,173.4759,618.9836,174.6133,617.2974,175.1679,615.3697,175.2258,615.5095,177.1069,614.8426,178.808,613.741,180.7346,613.1839,182.612,612.5081,184.375,611.556" style="stroke: #333333; stroke-width: 1.5625;"/><text fill="#FFFFFF" font-family="Segoe Script" font-size="12.5" lengthAdjust="spacingAndGlyphs" textLength="29.1667" x="186.9792" y="638.7838">foo7</text><polygon fill="#FFFFFF" points="213.0841,692.4356,211.4045,694.7305,209.4179,698.0919,206.5767,700.3572,203.591,701.5959,201.2104,701.7035,198.1507,700.1542,195.2637,699.1421,193.0724,697.0872,191.923,694.7347,191.2413,692.8615,190.5735,690.4148,189.4896,688.3093,190.3225,686.2536,191.0523,684.0018,193.7909,682.2208,195.7177,679.91,198.1025,679.1426,200.9376,678.4818,204.5733,678.8744,206.5647,679.8136,208.8799,680.2393,211.695,683.1234,212.6763,686.1682,213.1027,688.2457,212.6197,691.6691" style="stroke: #17A2B8; stroke-width: 1.0416666666666667;"/><polygon fill="#17A2B8" points="207.847,691.1687,206.9309,692.4205,205.8473,694.254,204.2975,695.4896,202.669,696.1653,201.3705,696.2239,199.7015,695.3789,198.1268,694.8268,196.9316,693.7059,196.3046,692.4227,195.9328,691.401,195.5685,690.0664,194.9773,688.918,195.4316,687.7967,195.8297,686.5685,197.3235,685.597,198.3744,684.3366,199.6752,683.918,201.2217,683.5576,203.2048,683.7717,204.291,684.284,205.5538,684.5162,207.0893,686.0893,207.6246,687.7501,207.8571,688.8833,207.5937,690.7506" style="stroke: #8BD0DB; stroke-width: 1.0416666666666667;"/><path d="M201.5625,81.543 L201.6598,81.543 L201.3707,85.7096 L201.652,89.8763 L201.7475,94.043 L201.2322,98.2096 L201.5625,102.3763 " fill="#333333" style="stroke: #333333; stroke-width: 1.5625;"/><polygon fill="#333333" points="197.3958,91.9596,197.4636,91.9867,198.0956,93.9895,199.1248,96.1512,200.0247,98.2612,200.4992,100.201,201.5625,102.3763,201.5374,102.3663,202.2583,100.238,203.1055,98.1602,204.0405,96.1175,204.6729,93.9538,205.7292,91.9596,205.8651,92.0956,204.7411,92.6382,204.0139,93.5777,203.3352,94.5657,202.3748,95.2719,201.5625,96.1263,201.5793,96.1431,200.7213,95.2851,199.9397,94.5035,199.1212,93.685,198.373,92.9368,197.3958,91.9596" style="stroke: #333333; stroke-width: 1.0416666666666667;"/><path d="M156.7708,277.2786 L156.8681,277.2786 L156.579,284.5703 L156.8603,291.862 L156.9559,299.1536 L156.4406,306.4453 L156.7708,313.737 " fill="#333333" style="stroke: #333333; stroke-width: 1.5625;"/><polygon fill="#333333" points="152.6042,303.3203,152.6719,303.3474,153.3039,305.3502,154.3331,307.5119,155.233,309.6219,155.7075,311.5616,156.7708,313.737,156.7458,313.727,157.4667,311.5986,158.3139,309.5209,159.2489,307.4782,159.8813,305.3145,160.9375,303.3203,161.0734,303.4562,159.9494,303.9989,159.2223,304.9384,158.5436,305.9264,157.5831,306.6326,156.7708,307.487,156.7876,307.5037,155.9297,306.6458,155.148,305.8641,154.3295,305.0457,153.5813,304.2974,152.6042,303.3203" style="stroke: #333333; stroke-width: 1.0416666666666667;"/><path d="M156.7708,175.2604 L157.0628,175.2604 L156.1954,186.5039 L157.0393,197.7474 L157.3259,208.9909 L155.78,220.2344 L156.7708,231.4779 " fill="#333333" style="stroke: #333333; stroke-width: 1.5625;"/><polygon fill="#333333" points="152.6042,221.0612,152.6719,221.0883,153.3039,223.0911,154.3331,225.2528,155.233,227.3627,155.7075,229.3025,156.7708,231.4779,156.7458,231.4678,157.4667,229.3395,158.3139,227.2617,159.2489,225.2191,159.8813,223.0554,160.9375,221.0612,161.0734,221.1971,159.9494,221.7398,159.2223,222.6793,158.5436,223.6673,157.5831,224.3735,156.7708,225.2279,156.7876,225.2446,155.9297,224.3867,155.148,223.605,154.3295,222.7866,153.5813,222.0383,152.6042,221.0612" style="stroke: #333333; stroke-width: 1.0416666666666667;"/><path d="M269.7917,175.2604 L270.0836,175.2604 L269.2162,185.8683 L270.0601,196.4762 L270.3468,207.0841 L268.8008,217.6921 L269.6837,228.3 L269.1993,238.9079 L269.259,249.5158 L269.7917,260.1237 " fill="#333333" style="stroke: #333333; stroke-width: 1.5625;"/><polygon fill="#333333" points="265.625,249.707,265.6928,249.7341,266.3248,251.7369,267.354,253.8986,268.2539,256.0086,268.7283,257.9484,269.7917,260.1237,269.7666,260.1137,270.4875,257.9854,271.3347,255.9076,272.2697,253.8649,272.9021,251.7012,273.9583,249.707,274.0943,249.843,272.9703,250.3856,272.2431,251.3251,271.5644,252.3131,270.6039,253.0193,269.7917,253.8737,269.8084,253.8905,268.9505,253.0325,268.1688,252.2509,267.3504,251.4324,266.6021,250.6842,265.625,249.707" style="stroke: #333333; stroke-width: 1.0416666666666667;"/><path d="M156.7708,359.5378 L156.8681,359.5378 L156.579,366.2044 L156.8603,372.8711 L156.9559,379.5378 L156.4406,386.2044 L156.7708,392.8711 " fill="#333333" style="stroke: #333333; stroke-width: 1.5625;"/><polygon fill="#333333" points="152.6042,382.4544,152.6719,382.4815,153.3039,384.4843,154.3331,386.646,155.233,388.756,155.7075,390.6958,156.7708,392.8711,156.7458,392.8611,157.4667,390.7328,158.3139,388.655,159.2489,386.6123,159.8813,384.4486,160.9375,382.4544,161.0734,382.5904,159.9494,383.133,159.2223,384.0725,158.5436,385.0605,157.5831,385.7667,156.7708,386.6211,156.7876,386.6378,155.9297,385.7799,155.148,384.9983,154.3295,384.1798,153.5813,383.4316,152.6042,382.4544" style="stroke: #333333; stroke-width: 1.0416666666666667;"/><path d="M201.5625,148.1771 L201.6598,148.1771 L201.3707,152.3438 L201.652,156.5104 L201.7475,160.6771 L201.2322,164.8438 L201.5625,169.0104 " fill="#333333" style="stroke: #333333; stroke-width: 1.5625;"/><polygon fill="#333333" points="197.3958,158.5938,197.4636,158.6209,198.0956,160.6237,199.1248,162.7853,200.0247,164.8953,200.4992,166.8351,201.5625,169.0104,201.5374,169.0004,202.2583,166.8721,203.1055,164.7943,204.0405,162.7516,204.6729,160.5879,205.7292,158.5938,205.8651,158.7297,204.7411,159.2723,204.0139,160.2119,203.3352,161.1998,202.3748,161.906,201.5625,162.7604,201.5793,162.7772,200.7213,161.9192,199.9397,161.1376,199.1212,160.3191,198.373,159.5709,197.3958,158.5938" style="stroke: #333333; stroke-width: 1.0416666666666667;"/><path d="M201.5625,444.9544 L201.6598,444.9544 L201.3707,449.1211 L201.652,453.2878 L201.7475,457.4544 L201.2322,461.6211 L201.5625,465.7878 " fill="#333333" style="stroke: #333333; stroke-width: 1.5625;"/><polygon fill="#333333" points="197.3958,455.3711,197.4636,455.3982,198.0956,457.401,199.1248,459.5627,200.0247,461.6726,200.4992,463.6124,201.5625,465.7878,201.5374,465.7777,202.2583,463.6494,203.1055,461.5716,204.0405,459.529,204.6729,457.3653,205.7292,455.3711,205.8651,455.507,204.7411,456.0497,204.0139,456.9892,203.3352,457.9771,202.3748,458.6834,201.5625,459.5378,201.5793,459.5545,200.7213,458.6966,199.9397,457.9149,199.1212,457.0965,198.373,456.3482,197.3958,455.3711" style="stroke: #333333; stroke-width: 1.0416666666666667;"/><path d="M233.8542,432.4544 L233.8542,432.5517 L236.3542,432.2626 L238.8542,432.5439 L241.3542,432.6395 L243.8542,432.1242 L246.3542,432.4544 " fill="#333333" style="stroke: #333333; stroke-width: 1.5625;"/><polygon fill="#333333" points="242.1875,475.1465,242.2553,475.1736,242.8873,477.1764,243.9165,479.3381,244.8164,481.448,245.2908,483.3878,246.3542,485.5632,246.3291,485.5531,247.05,483.4248,247.8972,481.347,248.8322,479.3044,249.4646,477.1407,250.5208,475.1465,250.6568,475.2824,249.5328,475.8251,248.8056,476.7646,248.1269,477.7525,247.1664,478.4588,246.3542,479.3132,246.3709,479.3299,245.513,478.472,244.7313,477.6903,243.9129,476.8719,243.1646,476.1236,242.1875,475.1465" style="stroke: #333333; stroke-width: 1.5625;"/><path d="M246.3542,432.4544 L246.6461,432.4544 L245.7787,442.6595 L246.6226,452.8646 L246.9093,463.0697 L245.3633,473.2747 L246.2462,483.4798 L245.7618,493.6849 L245.8215,503.89 L246.2595,514.0951 L245.3939,524.3001 L246.3542,534.5052 " fill="#333333" style="stroke: #333333; stroke-width: 1.5625;"/><path d="M246.3542,534.5052 L246.3542,534.6025 L237.3958,534.3134 L228.4375,534.5947 L219.4792,534.6902 L210.5208,534.1749 L201.5625,534.5052 " fill="#333333" style="stroke: #333333; stroke-width: 1.5625;"/><path d="M201.5625,534.5052 L201.6598,534.5052 L201.3707,538.6719 L201.652,542.8385 L201.7475,547.0052 L201.2322,551.1719 L201.5625,555.3385 " fill="#333333" style="stroke: #333333; stroke-width: 1.5625;"/><polygon fill="#333333" points="197.3958,544.9219,197.4636,544.949,198.0956,546.9518,199.1248,549.1135,200.0247,551.2234,200.4992,553.1632,201.5625,555.3385,201.5374,555.3285,202.2583,553.2002,203.1055,551.1224,204.0405,549.0798,204.6729,546.9161,205.7292,544.9219,205.8651,545.0578,204.7411,545.6005,204.0139,546.54,203.3352,547.5279,202.3748,548.2341,201.5625,549.0885,201.5793,549.1053,200.7213,548.2474,199.9397,547.4657,199.1212,546.6473,198.373,545.899,197.3958,544.9219" style="stroke: #333333; stroke-width: 1.0416666666666667;"/><path d="M201.5625,399.1211 L201.6598,399.1211 L201.3707,403.2878 L201.652,407.4544 L201.7475,411.6211 L201.2322,415.7878 L201.5625,419.9544 " fill="#333333" style="stroke: #333333; stroke-width: 1.5625;"/><polygon fill="#333333" points="197.3958,409.5378,197.4636,409.5649,198.0956,411.5677,199.1248,413.7294,200.0247,415.8393,200.4992,417.7791,201.5625,419.9544,201.5374,419.9444,202.2583,417.8161,203.1055,415.7383,204.0405,413.6956,204.6729,411.5319,205.7292,409.5378,205.8651,409.6737,204.7411,410.2163,204.0139,411.1559,203.3352,412.1438,202.3748,412.85,201.5625,413.7044,201.5793,413.7212,200.7213,412.8632,199.9397,412.0816,199.1212,411.2631,198.373,410.5149,197.3958,409.5378" style="stroke: #333333; stroke-width: 1.0416666666666667;"/><path d="M201.5625,657.3568 L201.6598,657.3568 L201.3707,661.5234 L201.652,665.6901 L201.7475,669.8568 L201.2322,674.0234 L201.5625,678.1901 " fill="#333333" style="stroke: #333333; stroke-width: 1.5625;"/><polygon fill="#333333" points="197.3958,667.7734,197.4636,667.8005,198.0956,669.8033,199.1248,671.965,200.0247,674.075,200.4992,676.0148,201.5625,678.1901,201.5374,678.1801,202.2583,676.0518,203.1055,673.974,204.0405,671.9313,204.6729,669.7676,205.7292,667.7734,205.8651,667.9094,204.7411,668.452,204.0139,669.3915,203.3352,670.3795,202.3748,671.0857,201.5625,671.9401,201.5793,671.9569,200.7213,671.0989,199.9397,670.3173,199.1212,669.4988,198.373,668.7506,197.3958,667.7734" style="stroke: #333333; stroke-width: 1.0416666666666667;"/><!--MD5=[210170474953286efbb6cca31fa2443b]
@startuml

!$THEME = "sketchy"

!if %not(%variable_exists("$BGCOLOR"))
!$BGCOLOR = "transparent"
!endif

skinparam backgroundColor $BGCOLOR
skinparam handwritten true
skinparam shadowing false

!$BLUE = "#007bff"
!$INDIGO = "#6610f2"
!$PURPLE = "#6f42c1"
!$PINK = "#e83e8c"
!$RED = "#dc3545"
!$ORANGE = "#fd7e14"
!$YELLOW = "#ffc107"
!$GREEN = "#28a745"
!$TEAL = "#20c997"
!$CYAN = "#17a2b8"
!$WHITE = "#ffffff"
!$GRAY = "#868e96"
!$GRAYDARK = "#333333"
!$PRIMARY = "#333333"
!$SECONDARY = "#555555"
!$SUCCESS = "#28a745"
!$INFO = "#17a2b8"
!$WARNING = "#ffc107"
!$DANGER = "#dc3545"
!$LIGHT = "#ffffff"
!$DARK = "#555555"

!$FGCOLOR = $WHITE
!$PRIMARY_DARK = "#2e2e2e"
!$PRIMARY_LIGHT = "#474747"
!$PRIMARY_TEXT = $WHITE
!$SECONDARY_DARK = "#4d4d4d"
!$SECONDARY_LIGHT = "#666666"
!$SECONDARY_TEXT = $WHITE
!$INFO_DARK = "#1592a6"
!$INFO_LIGHT = "#2eabbf"
!$INFO_TEXT = $WHITE
!$SUCCESS_DARK = "#24963e"
!$SUCCESS_LIGHT = "#3eb058"
!$SUCCESS_TEXT = $WHITE
!$WARNING_DARK = "#e6ae06"
!$WARNING_LIGHT = "#ffc720"
!$WARNING_TEXT = $WHITE
!$DANGER_DARK = "#c6303e"
!$DANGER_LIGHT = "#e04958"
!$DANGER_TEXT = $WHITE
!$DARK_DARK = "#4d4d4d"
!$DARK_LIGHT = "#666666"
!$LIGHT_DARK = "#e6e6e6"
!$LIGHT_LIGHT = "#ffffff"

!procedure $success($msg)
  <font color=$SUCCESS><b>$msg
!endprocedure

!procedure $failure($msg)
  <font color=$DANGER><b>$msg
!endprocedure

!procedure $warning($msg)
  <font color=$WARNING><b>$msg
!endprocedure

!procedure $primary_scheme()
	FontColor $PRIMARY_TEXT
	BorderColor $PRIMARY
	BackgroundColor $PRIMARY_LIGHT
!endprocedure

skinparam defaultFontName       "Segoe Script"
skinparam defaultFontSize       12
skinparam dpi                   100
skinparam shadowing             false
skinparam roundcorner           8
skinparam ParticipantPadding    40
skinparam BoxPadding            40
skinparam Padding               5
skinparam ArrowColor            $DARK
skinparam stereotype {
    CBackgroundColor $SECONDARY_LIGHT
    CBorderColor $SECONDARY_DARK
    ABackgroundColor $SUCCESS_LIGHT
    ABorderColor $SUCCESS_DARK
    IBackgroundColor $DANGER_LIGHT
    IBorderColor $DANGER_DARK
    EBackgroundColor $WARNING_LIGHT
    EBorderColor $WARNING_DARK
    NBackgroundColor $INFO_LIGHT
    NBorderColor $INFO_DARK
}
skinparam title {
	FontColor	                 $FGCOLOR
	BorderColor	                 $SECONDARY_DARK
	FontSize	    	         20
	BorderRoundCorner            8
	BorderThickness 	         1
	BackgroundColor              $SECONDARY_LIGHT-$SECONDARY
}

skinparam legend {
	BackgroundColor $SECONDARY
	BorderColor $SECONDARY_DARK
	FontColor $LIGHT
}

!startsub swimlane
skinparam swimlane {
	BorderColor $INFO
	BorderThickness 2
	TitleBackgroundColor  $SECONDARY_LIGHT-$SECONDARY
	TitleFontColor $PRIMARY
}
!endsub

!startsub activity

skinparam activity {
	$primary_scheme()
	BarColor $SUCCESS
	StartColor $INFO
	EndColor $INFO
	DiamondBackgroundColor $SECONDARY_LIGHT
  	DiamondBorderColor $SECONDARY_DARK
  	DiamondFontColor $SECONDARY_TEXT
}
!endsub

!startsub participant

skinparam participant {
	$primary_scheme()
	ParticipantBorderThickness 2
}
!endsub

!startsub actor

skinparam actor {
	$primary_scheme()
}
!endsub

!startsub arrow

skinparam arrow {
	Thickness 3
	Color $PRIMARY
	FontColor $FGCOLOR
}
!endsub

!startsub sequence

skinparam sequence {
	BorderColor $PRIMARY
	TitleFontColor $PRIMARY
	BackgroundColor $BGCOLOR
	StartColor $PRIMARY
	EndColor $PRIMARY
	BoxBackgroundColor $BGCOLOR
	BoxBorderColor $DARK
	BoxFontColor $DARk
	LifeLineBorderColor $SECONDARY
	LifeLineBorderThickness 2
	LifeLineBackgroundColor $SECONDARY_DARK
	GroupBorderColor $DARK
	GroupFontColor $DARK
	GroupHeaderFontColor $INFO
	GroupBackgroundColor $SECONDARY
	GroupHeaderBackgroundColor $BGCOLOR
	DividerBackgroundColor $DARK
    DividerBorderColor $DARK
    DividerBorderThickness 2
    DividerFontColor $LIGHT
	ReferenceBackgroundColor $BGCOLOR
	ReferenceBorderColor $DARK
	ReferenceFontColor $DARK
	ReferenceHeaderFontColor $INFO
	ReferenceHeaderBackgroundColor $SECONDARY
}
!endsub

!startsub partition

skinparam partition {
	BorderColor $PRIMARY
	FontColor $PRIMARY
	BackgroundColor $BGCOLOR
}
!endsub

!startsub collections

skinparam collections {
	$primary_scheme()
}
!endsub

!startsub control

skinparam control {
	$primary_scheme()
}
!endsub

!startsub entity

skinparam entity {
	$primary_scheme()
}
!endsub

!startsub boundary

skinparam boundary {
	$primary_scheme()
}
!endsub

!startsub agent

skinparam agent {
	BackgroundColor $WARNING
	BorderColor $WARNING_LIGHT
	FontColor $DARK
}
!endsub

!startsub note

skinparam note {
	BorderThickness 1
	BackgroundColor $INFO
	BorderColor $INFO_DARK
	FontColor $WHITE
}
!endsub

!startsub artifact

skinparam artifact {
	BackgroundColor $DARK
	BorderColor $DARK_DARK
	FontColor $LIGHT
}
!endsub

!startsub component

skinparam component {
	$primary_scheme()
}
!endsub

!startsub interface

skinparam interface {
	BackgroundColor  $DANGER_DARK
	BorderColor  $DANGER
	FontColor $DARK
}
!endsub

!startsub storage

skinparam storage {
	BackgroundColor $WARNING
  	BorderColor $WARNING_DARK
	FontColor $WARNING_TEXT
}
!endsub

!startsub node

skinparam node {
	BackgroundColor  $SECONDARY
	BorderColor $LIGHT
	FontColor $LIGHT
}
!endsub

!startsub cloud

skinparam cloud {
	BackgroundColor #F2FCFE-#eeeeee
	BorderColor #F2FCFE
	FontColor $DARK
}
!endsub

!startsub database

skinparam database {
	$primary_scheme()
}
!endsub

!startsub class

skinparam class {
	$primary_scheme()
	FontColor $FGCOLOR
	HeaderBackgroundColor $PRIMARY_LIGHT
	StereotypeFontColor $DARK
	BorderThickness 1
	AttributeFontColor $LIGHT
	AttributeFontSize 11
}
!endsub

!startsub object

skinparam object {
	$primary_scheme()
	StereotypeFontColor $DARK
	BorderThickness 1
	AttributeFontColor $SECONDARY_TEXT
	AttributeFontSize 11
}
!endsub

!startsub usecase

skinparam usecase {
	$primary_scheme()
	BorderThickness 2
	StereotypeFontColor $PRIMARY
}
!endsub

!startsub rectangle

skinparam rectangle {
	$primary_scheme()
	BackgroundColor $SECONDARY_LIGHT
	BorderThickness 2
	StereotypeFontColor $PRIMARY
}
!endsub

!startsub package

skinparam package {
	BackgroundColor $SECONDARY
  	BorderColor $PRIMARY
	FontColor $PRIMARY
	BorderThickness 2
}
!endsub

!startsub folder

skinparam folder {
	BackgroundColor $SECONDARY_LIGHT
  	BorderColor $WARNING
	FontColor $WARNING
	BorderThickness 2
}
!endsub

!startsub frame

skinparam frame {
	BackgroundColor $SECONDARY_LIGHT
  	BorderColor $INFO
	FontColor $INFO
	BorderThickness 2
}
!endsub

!startsub state

skinparam state {
	$primary_scheme()
	StartColor $INFO
	EndColor $INFO
	AttributeFontColor $SECONDARY_TEXT
	AttributeFontSize 11
}
!endsub

!startsub queue

skinparam queue {
	$primary_scheme()
}
!endsub

!startsub card

skinparam card {
	BackgroundColor $INFO
	BorderColor $INFO_DARK
	FontColor $INFO_TEXT
}
!endsub

!startsub file

skinparam file {
	BackgroundColor $SECONDARY_DARK
	BorderColor $LIGHT
	FontColor $LIGHT
}
!endsub

!startsub stack

skinparam stack {
	$primary_scheme()
}
!endsub

!if %variable_exists("$THEME")
title Activity Diagram - $THEME theme
!else
title Activity Diagram
!endif

'skinparam BackgroundColor transparent

start
 :start;
 fork
  partition "My Partition" {
   :foo1;
   :foo2;
  }
 fork again
   :foo3;
   detach
 endfork
 if (foo4) then
   :foo5;
   detach
 endif
 :foo6;
 detach
 :foo7;
 stop
@enduml

@startuml



skinparam backgroundColor transparent
skinparam handwritten true
skinparam shadowing false







skinparam defaultFontName       "Segoe Script"
skinparam defaultFontSize       12
skinparam dpi                   100
skinparam shadowing             false
skinparam roundcorner           8
skinparam ParticipantPadding    40
skinparam BoxPadding            40
skinparam Padding               5
skinparam ArrowColor            #555555
skinparam stereotype {
    CBackgroundColor #666666
    CBorderColor #4d4d4d
    ABackgroundColor #3eb058
    ABorderColor #24963e
    IBackgroundColor #e04958
    IBorderColor #c6303e
    EBackgroundColor #ffc720
    EBorderColor #e6ae06
    NBackgroundColor #2eabbf
    NBorderColor #1592a6
}
skinparam title {
	FontColor	                 #ffffff
	BorderColor	                 #4d4d4d
	FontSize	    	         20
	BorderRoundCorner            8
	BorderThickness 	         1
	BackgroundColor              #666666-#555555
}

skinparam legend {
	BackgroundColor #555555
	BorderColor #4d4d4d
	FontColor #ffffff
}

skinparam swimlane {
	BorderColor #17a2b8
	BorderThickness 2
	TitleBackgroundColor  #666666-#555555
	TitleFontColor #333333
}


skinparam activity {
		FontColor #ffffff
	BorderColor #333333
	BackgroundColor #474747
	BarColor #28a745
	StartColor #17a2b8
	EndColor #17a2b8
	DiamondBackgroundColor #666666
  	DiamondBorderColor #4d4d4d
  	DiamondFontColor #ffffff
}


skinparam participant {
		FontColor #ffffff
	BorderColor #333333
	BackgroundColor #474747
	ParticipantBorderThickness 2
}


skinparam actor {
		FontColor #ffffff
	BorderColor #333333
	BackgroundColor #474747
}


skinparam arrow {
	Thickness 3
	Color #333333
	FontColor #ffffff
}


skinparam sequence {
	BorderColor #333333
	TitleFontColor #333333
	BackgroundColor transparent
	StartColor #333333
	EndColor #333333
	BoxBackgroundColor transparent
	BoxBorderColor #555555
	BoxFontColor $DARk
	LifeLineBorderColor #555555
	LifeLineBorderThickness 2
	LifeLineBackgroundColor #4d4d4d
	GroupBorderColor #555555
	GroupFontColor #555555
	GroupHeaderFontColor #17a2b8
	GroupBackgroundColor #555555
	GroupHeaderBackgroundColor transparent
	DividerBackgroundColor #555555
    DividerBorderColor #555555
    DividerBorderThickness 2
    DividerFontColor #ffffff
	ReferenceBackgroundColor transparent
	ReferenceBorderColor #555555
	ReferenceFontColor #555555
	ReferenceHeaderFontColor #17a2b8
	ReferenceHeaderBackgroundColor #555555
}


skinparam partition {
	BorderColor #333333
	FontColor #333333
	BackgroundColor transparent
}


skinparam collections {
		FontColor #ffffff
	BorderColor #333333
	BackgroundColor #474747
}


skinparam control {
		FontColor #ffffff
	BorderColor #333333
	BackgroundColor #474747
}


skinparam entity {
		FontColor #ffffff
	BorderColor #333333
	BackgroundColor #474747
}


skinparam boundary {
		FontColor #ffffff
	BorderColor #333333
	BackgroundColor #474747
}


skinparam agent {
	BackgroundColor #ffc107
	BorderColor #ffc720
	FontColor #555555
}


skinparam note {
	BorderThickness 1
	BackgroundColor #17a2b8
	BorderColor #1592a6
	FontColor #ffffff
}


skinparam artifact {
	BackgroundColor #555555
	BorderColor #4d4d4d
	FontColor #ffffff
}


skinparam component {
		FontColor #ffffff
	BorderColor #333333
	BackgroundColor #474747
}


skinparam interface {
	BackgroundColor  #c6303e
	BorderColor  #dc3545
	FontColor #555555
}


skinparam storage {
	BackgroundColor #ffc107
  	BorderColor #e6ae06
	FontColor #ffffff
}


skinparam node {
	BackgroundColor  #555555
	BorderColor #ffffff
	FontColor #ffffff
}


skinparam cloud {
	BackgroundColor #F2FCFE-#eeeeee
	BorderColor #F2FCFE
	FontColor #555555
}


skinparam database {
		FontColor #ffffff
	BorderColor #333333
	BackgroundColor #474747
}


skinparam class {
		FontColor #ffffff
	BorderColor #333333
	BackgroundColor #474747
	FontColor #ffffff
	HeaderBackgroundColor #474747
	StereotypeFontColor #555555
	BorderThickness 1
	AttributeFontColor #ffffff
	AttributeFontSize 11
}


skinparam object {
		FontColor #ffffff
	BorderColor #333333
	BackgroundColor #474747
	StereotypeFontColor #555555
	BorderThickness 1
	AttributeFontColor #ffffff
	AttributeFontSize 11
}


skinparam usecase {
		FontColor #ffffff
	BorderColor #333333
	BackgroundColor #474747
	BorderThickness 2
	StereotypeFontColor #333333
}


skinparam rectangle {
		FontColor #ffffff
	BorderColor #333333
	BackgroundColor #474747
	BackgroundColor #666666
	BorderThickness 2
	StereotypeFontColor #333333
}


skinparam package {
	BackgroundColor #555555
  	BorderColor #333333
	FontColor #333333
	BorderThickness 2
}


skinparam folder {
	BackgroundColor #666666
  	BorderColor #ffc107
	FontColor #ffc107
	BorderThickness 2
}


skinparam frame {
	BackgroundColor #666666
  	BorderColor #17a2b8
	FontColor #17a2b8
	BorderThickness 2
}


skinparam state {
		FontColor #ffffff
	BorderColor #333333
	BackgroundColor #474747
	StartColor #17a2b8
	EndColor #17a2b8
	AttributeFontColor #ffffff
	AttributeFontSize 11
}


skinparam queue {
		FontColor #ffffff
	BorderColor #333333
	BackgroundColor #474747
}


skinparam card {
	BackgroundColor #17a2b8
	BorderColor #1592a6
	FontColor #ffffff
}


skinparam file {
	BackgroundColor #4d4d4d
	BorderColor #ffffff
	FontColor #ffffff
}


skinparam stack {
		FontColor #ffffff
	BorderColor #333333
	BackgroundColor #474747
}

title Activity Diagram - sketchy theme


start
 :start;
 fork
  partition "My Partition" {
   :foo1;
   :foo2;
  }
 fork again
   :foo3;
   detach
 endfork
 if (foo4) then
   :foo5;
   detach
 endif
 :foo6;
 detach
 :foo7;
 stop
@enduml

PlantUML version 1.2020.16beta7(Unknown compile time)
(GPL source distribution)
Java Runtime: OpenJDK Runtime Environment
JVM: OpenJDK 64-Bit Server VM
Default Encoding: UTF-8
Language: en
Country: US
--></g></svg>