<?xml version="1.0" encoding="UTF-8" standalone="no"?><svg xmlns="http://www.w3.org/2000/svg" xmlns:xlink="http://www.w3.org/1999/xlink" contentScriptType="application/ecmascript" contentStyleType="text/css" height="695.8333px" preserveAspectRatio="none" style="width:458px;height:695px;background:#00000000;" version="1.1" viewBox="0 0 458 695" width="458.3333px" zoomAndPan="magnify"><defs><linearGradient id="gztqqnpx7ch3p0" x1="50%" x2="50%" y1="0%" y2="100%"><stop offset="0%" stop-color="#6D6D6D"/><stop offset="100%" stop-color="#484848"/></linearGradient><linearGradient id="gztqqnpx7ch3p1" x1="50%" x2="50%" y1="0%" y2="100%"><stop offset="0%" stop-color="#595959"/><stop offset="100%" stop-color="#262626"/></linearGradient><linearGradient id="gztqqnpx7ch3p2" x1="50%" x2="50%" y1="0%" y2="100%"><stop offset="0%" stop-color="#6D6D6D"/><stop offset="100%" stop-color="#3A3A3A"/></linearGradient></defs><g><polygon fill="url(#gztqqnpx7ch3p0)" points="16.6667,12.5,16.6667,12.7189,26.9563,12.0684,37.2459,12.7013,47.5356,12.9163,57.8252,11.7569,68.1148,12.419,78.4045,12.0557,88.6941,12.1005,98.9837,12.429,109.2734,11.7798,119.563,13.0767,129.8526,11.8435,140.1423,12.294,150.4319,12.9499,160.7215,12.4106,171.0112,12.5711,181.3008,12.4667,191.5904,12.686,201.8801,12.7491,212.1697,13.1101,222.4593,13.199,232.749,13.2076,243.0386,12.7652,253.3283,12.9829,263.6179,13.2315,273.9075,11.7488,284.1972,13.2068,294.4868,12.1911,304.7764,13.0561,315.0661,11.9844,325.3557,12.4286,335.6453,13.2725,345.935,12.4492,356.2246,12.6097,366.5142,12.8527,376.8039,12.9336,387.0935,12.4959,397.3831,12.7992,407.6728,11.9037,417.9624,12.7962,428.252,13.071,438.5417,12.5,438.6007,12.6426,439.2124,12.9407,439.656,12.8332,440.2228,13.023,440.8161,13.277,441.4879,13.7204,441.4691,13.7126,441.669,14.2835,442.1947,14.9894,442.1641,15.4649,442.3542,16.0318,442.7083,16.6667,442.7876,16.6667,442.4768,24.2306,442.5281,31.7944,442.9337,39.3583,442.8596,46.9222,442.7083,54.4861,442.944,54.5837,442.361,55.0326,442.3226,55.707,442.1655,56.3323,441.5805,56.7803,441.4879,57.4324,441.4752,57.4016,440.9154,57.7169,440.396,58.1296,439.7196,58.1633,439.1924,58.5571,438.5417,58.6528,438.5417,58.0759,428.252,57.9473,417.9624,59.1773,407.6728,57.9059,397.3831,59.1829,387.0935,58.868,376.8039,58.3737,366.5142,58.2842,356.2246,59.1306,345.935,58.3409,335.6453,59.2693,325.3557,58.077,315.0661,59.2959,304.7764,59.1572,294.4868,58.9079,284.1972,58.7019,273.9075,59.4096,263.6179,59.2919,253.3283,58.8291,243.0386,58.9321,232.749,58.5171,222.4593,59.3991,212.1697,58.8141,201.8801,58.8325,191.5904,58.0191,181.3008,58.2306,171.0112,59.2056,160.7215,59.1004,150.4319,58.608,140.1423,58.3172,129.8526,58.4247,119.563,57.938,109.2734,59.0848,98.9837,59.4231,88.6941,59.2011,78.4045,59.3766,68.1148,58.5103,57.8252,58.7436,47.5356,58.249,37.2459,58.9486,26.9563,58.9098,16.6667,58.6528,16.7401,58.83,16.0469,58.335,15.4703,58.1215,14.9578,58.0628,14.385,57.8584,13.7204,57.4324,13.556,57.3643,13.4141,56.8173,13.2801,56.2737,12.7922,55.5834,12.8574,55.1223,12.5,54.4861,12.5896,54.4861,12.465,46.9222,12.5494,39.3583,12.753,31.7944,12.3914,24.2306,12.5,16.6667,12.601,16.7085,12.8357,16.1154,13.0253,15.5035,13.2774,14.9176,13.5127,14.3247,13.7204,13.7204,13.6375,13.5202,14.2564,13.3477,14.8376,13.0842,15.4966,13.0086,16.0891,12.7723,16.6667,12.5" style="stroke:#3A3A3A;stroke-width:1.0416666666666667;"/><text fill="#FEFEFE" font-family="Verdana" font-size="20.8333" lengthAdjust="spacing" textLength="403.125" x="26.0417" y="43.8619">Activity Diagram - black-knight theme</text><polygon fill="#0060A8" points="234.4325,74.7282,232.9056,76.8145,231.0996,79.8703,228.5167,81.9296,225.8024,83.0558,223.6383,83.1535,220.8567,81.7451,218.2322,80.825,216.2401,78.9569,215.1951,76.8183,214.5754,75.1154,213.9683,72.8911,212.9829,70.9771,213.7402,69.1082,214.4036,67.0611,216.8933,65.442,218.6449,63.3413,220.8129,62.6437,223.3903,62.0429,226.6955,62.3999,228.5058,63.2536,230.6105,63.6406,233.1697,66.2626,234.0618,69.0305,234.4494,70.9192,234.0104,74.0314" style="stroke:none;stroke-width:1.0416666666666667;"/><polygon fill="url(#gztqqnpx7ch3p1)" points="205.7292,103.4444,205.7292,103.5174,213.0208,103.3006,220.3125,103.5115,227.6042,103.5832,234.8958,103.1967,242.1875,103.4444,242.1772,103.4195,243.9723,104.0703,245.8194,104.8469,247.7027,105.7108,249.4613,106.2736,251.3946,107.2581,251.5722,107.3317,251.9552,109.0158,252.8567,110.9147,253.8214,112.8398,254.4181,114.6124,255.2083,116.4653,255.232,116.4653,255.1972,120.5452,255.2703,124.6252,255.2914,128.7052,255.4117,132.7852,255.2083,136.8652,255.4236,136.9544,254.6635,138.7969,253.7645,140.5819,253.0688,142.4511,252.3826,144.3242,251.3946,146.0724,251.2988,145.841,249.6434,147.0528,247.6724,147.5027,245.9413,148.5318,243.9631,148.9645,242.1875,149.8861,242.1875,149.8623,234.8958,150.1436,227.6042,149.8691,220.3125,149.9226,213.0208,150.0036,205.7292,149.8861,205.7845,150.0196,203.8872,149.1221,202.0845,148.4527,200.1288,147.4142,198.4013,146.9263,196.522,146.0724,196.6979,146.1452,195.9019,144.29,195.1932,142.471,194.0789,140.4839,193.2619,138.62,192.7083,136.8652,192.4926,136.8652,192.6879,132.7852,192.6401,128.7052,192.9449,124.6252,192.6477,120.5452,192.7083,116.4653,192.5983,116.4197,193.5443,114.6542,194.0199,112.6938,194.83,110.872,195.9675,109.1858,196.522,107.2581,196.5799,107.3979,198.4611,106.731,200.1621,105.6294,202.0887,105.0723,203.9662,104.3966,205.7292,103.4444" style="stroke:#262626;stroke-width:1.5625;"/><text fill="#FFF200" font-family="Verdana" font-size="12.5" lengthAdjust="spacing" textLength="31.25" x="208.3333" y="131.6366">start</text><polygon fill="#00FF00" points="83.3333,170.7194,83.3333,170.9383,93.75,170.2878,104.1667,170.9207,114.5833,171.1357,125,169.9763,135.4167,170.6384,145.8333,170.2751,156.25,170.3199,166.6667,170.6484,177.0833,169.9992,187.5,171.2961,197.9167,170.0629,208.3333,170.5134,218.75,171.1693,229.1667,170.6301,239.5833,170.7905,250,170.6861,260.4167,170.9054,270.8333,170.9685,281.25,171.3295,291.6667,171.4184,302.0833,171.427,312.5,170.9846,322.9167,171.2023,333.3333,171.4509,343.75,169.9682,354.1667,171.4262,364.5833,170.4105,375,170.7194,375.0709,170.8906,375.3025,170.7132,375.7275,171.0025,376.2034,171.4149,376.4667,171.314,376.8414,171.4821,376.8752,171.4961,377.1026,171.8954,377.28,172.274,377.2978,172.5865,377.5438,172.9934,377.6042,173.3236,377.4054,173.3236,377.7029,173.5319,377.7945,173.7402,377.7585,173.9486,377.817,174.1569,377.6042,174.3652,377.4492,174.301,377.2424,174.6469,377.0997,175.0192,377.1276,175.4623,376.9309,175.8123,376.8414,176.2067,376.932,176.4252,376.4499,176.3032,376.0593,176.4017,375.7669,176.7375,375.2797,176.6029,375,176.9694,375,176.4286,364.5833,177.6454,354.1667,177.4232,343.75,177.7345,333.3333,176.6342,322.9167,177.3019,312.5,177.5844,302.0833,176.4773,291.6667,176.8695,281.25,177.1006,270.8333,177.6483,260.4167,176.965,250,177.4512,239.5833,176.3925,229.1667,176.2639,218.75,177.494,208.3333,176.2226,197.9167,177.4996,187.5,177.1846,177.0833,176.6903,166.6667,176.6009,156.25,177.4473,145.8333,176.6576,135.4167,177.5859,125,176.3936,114.5833,177.6126,104.1667,177.4739,93.75,177.2246,83.3333,176.9694,83.3396,176.9845,83.0616,177.0499,82.6783,176.8611,82.251,176.5661,81.8958,176.4452,81.4919,176.2067,81.4501,176.1893,81.5692,175.9336,81.2365,175.4907,81.0896,175.1247,80.6866,174.6527,80.7292,174.3652,80.5885,174.3652,80.9135,174.1569,80.8784,173.9486,80.7143,173.7402,80.6173,173.5319,80.7292,173.3236,80.6589,173.2945,80.6616,172.8641,81.1673,172.6421,81.4241,172.317,81.5082,171.9204,81.4919,171.4821,81.5842,171.7051,81.842,171.2857,82.2401,171.205,82.5453,170.9002,83.0028,170.9631,83.3333,170.7194" style="stroke:#00FF00;stroke-width:1.0416666666666667;"/><polygon points="97.3958,187.3861,97.3958,187.605,107.3495,186.9545,117.3032,187.5874,127.2569,187.8024,137.2106,186.6429,147.1644,187.3051,157.1181,186.9418,167.0718,186.9866,177.0255,187.3151,186.9792,187.3861,186.8873,187.1643,187.642,187.8077,188.0739,187.672,188.7207,188.0549,189.3936,188.5009,189.9254,188.6065,189.8979,188.5951,190.1914,189.2048,190.4034,189.7807,190.7149,190.3979,190.9785,190.9953,191.1458,191.5527,191.7559,191.5527,191.8448,202.138,191.8534,212.7233,191.4111,223.3086,191.6287,233.8939,191.8773,244.4792,190.3946,255.0645,191.8526,265.6498,190.837,276.2351,191.7019,286.8204,190.6302,297.4056,191.0745,307.9909,191.9183,318.5762,191.0951,329.1615,191.2555,339.7468,191.4986,350.3321,191.5794,360.9174,191.1458,371.5027,191.1446,371.5022,190.9939,372.1301,190.4741,372.6051,190.5048,373.3082,190.3454,373.9326,189.9254,374.449,189.9845,374.5916,189.4176,374.8897,188.6827,374.7822,188.071,374.972,187.4859,375.2259,186.9792,375.6694,186.9792,375.608,177.0255,375.4646,167.0718,376.3792,157.1181,375.4874,147.1644,375.312,137.2106,375.9071,127.2569,374.9747,117.3032,375.1286,107.3495,376.3453,97.3958,375.6694,97.4537,375.8091,96.9042,375.6609,96.1746,375.078,95.6705,375.0395,95.1173,374.8824,94.4496,374.449,94.298,374.3862,94.1747,373.847,94.0018,373.2872,93.9264,372.7678,93.4719,372.0914,93.2292,371.5027,93.711,371.5027,92.6523,360.9174,92.5237,350.3321,93.7538,339.7468,92.4824,329.1615,93.7593,318.5762,93.4444,307.9909,92.9501,297.4056,92.8607,286.8204,93.707,276.2351,92.9174,265.6498,93.8457,255.0645,92.6534,244.4792,93.8723,233.8939,93.7336,223.3086,93.4843,212.7233,93.2784,202.138,93.2292,191.5527,93.4623,191.6493,93.6701,191.045,93.7716,190.3967,94.0474,189.8206,94.1637,189.1784,94.4496,188.6065,94.5448,188.8363,95.0594,188.4121,95.651,188.1737,96.1365,187.6791,96.7527,187.5002,97.3958,187.3861" style="stroke:#303030;stroke-width:2.0833333333333335;fill:none;"/><path d="M191.1458,187.3861 L191.3404,187.3861 L190.7622,191.0494 L191.3248,194.7127 L191.5159,198.3761 L190.4853,202.0394 L191.1458,205.7027 L191.095,205.6518 L188.7833,207.5068 L186.7281,209.6183 L184.8512,211.9081 L182.3598,213.5834 L180.7292,216.1194 L180.7292,217.6573 L169.7917,214.3686 L158.8542,215.57 L147.9167,217.3192 L136.9792,215.8811 L126.0417,216.3089 L115.1042,216.0306 L104.1667,216.6153 L93.2292,216.1194 " fill="none" style="stroke:#303030;stroke-width:2.0833333333333335;"/><text fill="#595959" font-family="Verdana" font-size="12.5" lengthAdjust="spacing" textLength="77.0833" x="101.5625" y="206.2032">My Partition</text><polygon fill="url(#gztqqnpx7ch3p1)" points="130.2083,233.8277,130.2083,233.9007,137.0833,233.6839,143.9583,233.8948,150.8333,233.9665,157.7083,233.58,164.5833,233.8277,164.573,233.8028,166.3681,234.4536,168.2152,235.2302,170.0985,236.0941,171.8572,236.6569,173.7905,237.6414,173.9681,237.715,174.351,239.3991,175.2525,241.298,176.2172,243.2231,176.8139,244.9957,177.6042,246.8486,177.6279,246.8486,177.5931,250.9285,177.6662,255.0085,177.6872,259.0885,177.8075,263.1685,177.6042,267.2485,177.8194,267.3377,177.0593,269.1802,176.1604,270.9652,175.4647,272.8344,174.7785,274.7075,173.7905,276.4557,173.6946,276.2243,172.0392,277.4361,170.0682,277.886,168.3371,278.9151,166.359,279.3478,164.5833,280.2694,164.5833,280.2456,157.7083,280.5269,150.8333,280.2524,143.9583,280.3059,137.0833,280.3869,130.2083,280.2694,130.2636,280.4029,128.3664,279.5054,126.5636,278.836,124.608,277.7975,122.8804,277.3096,121.0012,276.4557,121.1771,276.5285,120.3811,274.6733,119.6724,272.8543,118.558,270.8672,117.741,269.0033,117.1875,267.2485,116.9717,267.2485,117.1671,263.1685,117.1193,259.0885,117.4241,255.0085,117.1268,250.9285,117.1875,246.8486,117.0775,246.803,118.0235,245.0375,118.4991,243.0771,119.3092,241.2553,120.4466,239.5691,121.0012,237.6414,121.0591,237.7812,122.9402,237.1143,124.6413,236.0127,126.5679,235.4556,128.4454,234.7799,130.2083,233.8277" style="stroke:#262626;stroke-width:1.5625;"/><text fill="#FFF200" font-family="Verdana" font-size="12.5" lengthAdjust="spacing" textLength="29.1667" x="132.8125" y="262.0199">foo1</text><polygon fill="url(#gztqqnpx7ch3p1)" points="130.2083,316.7277,130.2083,316.8007,137.0833,316.5838,143.9583,316.7948,150.8333,316.8665,157.7083,316.48,164.5833,316.7277,164.573,316.7028,166.3681,317.3536,168.2152,318.1302,170.0985,318.9941,171.8572,319.5569,173.7905,320.5414,173.9681,320.615,174.351,322.2991,175.2525,324.198,176.2172,326.1231,176.8139,327.8957,177.6042,329.7485,177.6279,329.7485,177.5931,333.8285,177.6662,337.9085,177.6872,341.9885,177.8075,346.0685,177.6042,350.1485,177.8194,350.2377,177.0593,352.0802,176.1604,353.8652,175.4647,355.7344,174.7785,357.6075,173.7905,359.3556,173.6946,359.1243,172.0392,360.336,170.0682,360.786,168.3371,361.8151,166.359,362.2478,164.5833,363.1694,164.5833,363.1456,157.7083,363.4269,150.8333,363.1524,143.9583,363.2059,137.0833,363.2869,130.2083,363.1694,130.2636,363.3029,128.3664,362.4054,126.5636,361.736,124.608,360.6975,122.8804,360.2096,121.0012,359.3556,121.1771,359.4285,120.3811,357.5733,119.6724,355.7542,118.558,353.7672,117.741,351.9033,117.1875,350.1485,116.9717,350.1485,117.1671,346.0685,117.1193,341.9885,117.4241,337.9085,117.1268,333.8285,117.1875,329.7485,117.0775,329.703,118.0235,327.9374,118.4991,325.9771,119.3092,324.1553,120.4466,322.4691,121.0012,320.5414,121.0591,320.6812,122.9402,320.0143,124.6413,318.9127,126.5679,318.3556,128.4454,317.6798,130.2083,316.7277" style="stroke:#262626;stroke-width:1.5625;"/><text fill="#FFF200" font-family="Verdana" font-size="12.5" lengthAdjust="spacing" textLength="29.1667" x="132.8125" y="344.9198">foo2</text><path d="M301.5625,267.6819 L301.5625,281.5277 L280.7292,285.6944 L301.5625,289.861 L301.5625,303.7069 A0,0 0 0 0 301.5625,303.7069 L365.1042,303.7069 A0,0 0 0 0 365.1042,303.7069 L365.1042,278.0986 L354.6875,267.6819 L301.5625,267.6819 A0,0 0 0 0 301.5625,267.6819 " fill="#0060A8" style="stroke:#004D86;stroke-width:1.0416666666666667;"/><path d="M354.6875,267.6819 L354.8821,267.6819 L354.3039,269.7652 L354.8665,271.8486 L355.0576,273.9319 L354.0269,276.0152 L354.6875,278.0986 L354.6875,278.0266 L356.7708,277.7036 L358.8542,277.7435 L360.9375,278.0354 L363.0208,277.4584 L365.1042,278.0986 L365.4667,278.461 L362.6082,275.6026 L360.808,273.8024 L359.137,272.1314 L356.7147,269.7091 L354.6875,267.6819 " fill="#0060A8" style="stroke:#004D86;stroke-width:1.0416666666666667;"/><text fill="#FFFFFF" font-family="Verdana" font-size="12.5" lengthAdjust="spacing" textLength="31.25" x="313.0208" y="290.6657">Note</text><polygon fill="url(#gztqqnpx7ch3p1)" points="233.3333,262.4736,233.3333,262.5465,240.2083,262.3297,247.0833,262.5407,253.9583,262.6123,260.8333,262.2258,267.7083,262.4736,267.698,262.4486,269.4931,263.0995,271.3402,263.876,273.2235,264.7399,274.9822,265.3027,276.9155,266.2873,277.0931,266.3608,277.476,268.0449,278.3775,269.9438,279.3422,271.8689,279.9389,273.6416,280.7292,275.4944,280.7529,275.4944,280.7181,279.5744,280.7912,283.6544,280.8122,287.7344,280.9325,291.8144,280.7292,295.8944,280.9444,295.9835,280.1843,297.826,279.2854,299.6111,278.5897,301.4802,277.9035,303.3534,276.9155,305.1015,276.8196,304.8701,275.1642,306.0819,273.1932,306.5319,271.4621,307.561,269.484,307.9937,267.7083,308.9152,267.7083,308.8914,260.8333,309.1727,253.9583,308.8983,247.0833,308.9518,240.2083,309.0328,233.3333,308.9152,233.3886,309.0487,231.4914,308.1512,229.6886,307.4819,227.733,306.4433,226.0054,305.9555,224.1262,305.1015,224.3021,305.1743,223.5061,303.3191,222.7974,301.5001,221.683,299.513,220.866,297.6491,220.3125,295.8944,220.0967,295.8944,220.2921,291.8144,220.2443,287.7344,220.5491,283.6544,220.2518,279.5744,220.3125,275.4944,220.2025,275.4488,221.1485,273.6833,221.6241,271.7229,222.4342,269.9011,223.5716,268.2149,224.1262,266.2873,224.1841,266.427,226.0652,265.7601,227.7663,264.6586,229.6929,264.1014,231.5704,263.4257,233.3333,262.4736" style="stroke:#262626;stroke-width:1.5625;"/><text fill="#FFF200" font-family="Verdana" font-size="12.5" lengthAdjust="spacing" textLength="29.1667" x="235.9375" y="290.6657">foo3</text><polygon fill="#00FF00" points="83.3333,396.5027,83.3333,396.7216,93.75,396.0711,104.1667,396.704,114.5833,396.919,125,395.7596,135.4167,396.4217,145.8333,396.0584,156.25,396.1032,166.6667,396.4317,177.0833,395.7825,187.5,397.0794,197.9167,395.8461,208.3333,396.2967,218.75,396.9526,229.1667,396.4133,239.5833,396.5738,250,396.4694,260.4167,396.6887,270.8333,396.7518,281.25,397.1128,291.6667,397.2017,302.0833,397.2102,312.5,396.7679,322.9167,396.9856,333.3333,397.2342,343.75,395.7515,354.1667,397.2095,364.5833,396.1938,375,396.5027,375.0709,396.6739,375.3025,396.4964,375.7275,396.7858,376.2034,397.1982,376.4667,397.0972,376.8414,397.2654,376.8752,397.2794,377.1026,397.6787,377.28,398.0573,377.2978,398.3698,377.5438,398.7767,377.6042,399.1069,377.4054,399.1069,377.7029,399.3152,377.7945,399.5235,377.7585,399.7319,377.817,399.9402,377.6042,400.1485,377.4492,400.0843,377.2424,400.4301,377.0997,400.8025,377.1276,401.2455,376.9309,401.5955,376.8414,401.9899,376.932,402.2085,376.4499,402.0865,376.0593,402.185,375.7669,402.5208,375.2797,402.3862,375,402.7527,375,402.2119,364.5833,403.4287,354.1667,403.2065,343.75,403.5178,333.3333,402.4175,322.9167,403.0852,312.5,403.3677,302.0833,402.2606,291.6667,402.6528,281.25,402.8839,270.8333,403.4316,260.4167,402.7483,250,403.2345,239.5833,402.1758,229.1667,402.0472,218.75,403.2773,208.3333,402.0059,197.9167,403.2829,187.5,402.9679,177.0833,402.4736,166.6667,402.3842,156.25,403.2306,145.8333,402.4409,135.4167,403.3692,125,402.1769,114.5833,403.3958,104.1667,403.2572,93.75,403.0079,83.3333,402.7527,83.3396,402.7678,83.0616,402.8332,82.6783,402.6444,82.251,402.3493,81.8958,402.2285,81.4919,401.9899,81.4501,401.9726,81.5692,401.7169,81.2365,401.274,81.0896,400.908,80.6866,400.436,80.7292,400.1485,80.5885,400.1485,80.9135,399.9402,80.8784,399.7319,80.7143,399.5235,80.6173,399.3152,80.7292,399.1069,80.6589,399.0778,80.6616,398.6474,81.1673,398.4254,81.4241,398.1003,81.5082,397.7037,81.4919,397.2654,81.5842,397.4884,81.842,397.069,82.2401,396.9883,82.5453,396.6834,83.0028,396.7464,83.3333,396.5027" style="stroke:#00FF00;stroke-width:1.0416666666666667;"/><polygon fill="url(#gztqqnpx7ch3p1)" points="206.7708,480.7485,206.7708,480.8215,213.6458,480.6046,220.5208,480.8156,227.3958,480.8873,234.2708,480.5008,241.1458,480.7485,241.1355,480.7236,242.9306,481.3744,244.7777,482.151,246.661,483.0149,248.4197,483.5777,250.353,484.5622,250.5306,484.6358,250.9135,486.3199,251.815,488.2188,252.7797,490.1439,253.3764,491.9165,254.1667,493.7693,254.1904,493.7693,254.1556,497.8493,254.2287,501.9293,254.2497,506.0093,254.37,510.0893,254.1667,514.1693,254.3819,514.2585,253.6218,516.101,252.7229,517.886,252.0272,519.7552,251.341,521.6283,250.353,523.3764,250.2571,523.1451,248.6017,524.3568,246.6307,524.8068,244.8996,525.8359,242.9215,526.2686,241.1458,527.1901,241.1458,527.1664,234.2708,527.4476,227.3958,527.1732,220.5208,527.2267,213.6458,527.3077,206.7708,527.1901,206.8261,527.3237,204.9289,526.4261,203.1261,525.7568,201.1705,524.7183,199.4429,524.2304,197.5637,523.3764,197.7396,523.4493,196.9436,521.5941,196.2349,519.775,195.1205,517.788,194.3035,515.9241,193.75,514.1693,193.5342,514.1693,193.7296,510.0893,193.6818,506.0093,193.9866,501.9293,193.6893,497.8493,193.75,493.7693,193.64,493.7237,194.586,491.9582,195.0616,489.9979,195.8717,488.1761,197.0091,486.4899,197.5637,484.5622,197.6216,484.702,199.5027,484.0351,201.2038,482.9335,203.1304,482.3764,205.0079,481.7006,206.7708,480.7485" style="stroke:#262626;stroke-width:1.5625;"/><text fill="#FFF200" font-family="Verdana" font-size="12.5" lengthAdjust="spacing" textLength="29.1667" x="209.375" y="508.9406">foo5</text><polygon fill="url(#gztqqnpx7ch3p2)" points="204.1667,423.586,204.1667,423.659,212.0833,423.4422,220,423.6531,227.9167,423.7248,235.8333,423.3383,243.75,423.586,243.7307,423.5672,246.144,426.0434,248.6547,428.6147,251.2331,431.252,253.5782,433.6617,256.25,436.3902,256.3876,436.5245,253.5934,438.7981,251.2009,441.4639,248.8573,444.1774,246.2287,446.6127,243.75,449.1943,243.75,449.218,235.8333,449.1832,227.9167,449.2563,220,449.2774,212.0833,449.3977,204.1667,449.1943,204.3334,449.3571,201.8354,446.7983,199.2299,444.1344,196.7818,441.6243,194.3411,439.1213,191.6667,436.3902,191.4875,436.2153,194.3352,433.9939,196.593,431.1966,199.2993,428.8372,201.5437,426.0268,204.1667,423.586" style="stroke:#3A3A3A;stroke-width:1.5625;"/><text fill="#FFFFFF" font-family="Verdana" font-size="12.5" lengthAdjust="spacing" textLength="22.9167" x="233.3333" y="466.9698">yes</text><text fill="#FEFEFE" font-family="Verdana" font-size="12.5" lengthAdjust="spacing" textLength="29.1667" x="209.375" y="441.3615">foo4</text><text fill="#FFFFFF" font-family="Verdana" font-size="12.5" lengthAdjust="spacing" textLength="16.6667" x="261.4583" y="428.5573">no</text><polygon points="317.7716,439.1773,316.092,441.4723,314.1054,444.8336,311.2642,447.0989,308.2785,448.3377,305.8979,448.4452,302.8382,446.896,299.9512,445.8838,297.7599,443.8289,296.6105,441.4764,295.9288,439.6032,295.261,437.1565,294.1771,435.0511,295.01,432.9954,295.7398,430.7435,298.4784,428.9625,300.4052,426.6517,302.79,425.8844,305.6251,425.2236,309.2608,425.6162,311.2522,426.5553,313.5674,426.981,316.3825,429.8652,317.3638,432.9099,317.7902,434.9874,317.3072,438.4109" style="stroke:#0060A8;stroke-width:1.0416666666666667;fill:none;"/><polygon fill="#0060A8" points="312.5345,437.9104,311.6184,439.1622,310.5348,440.9957,308.985,442.2313,307.3565,442.907,306.058,442.9656,304.389,442.1206,302.8143,441.5685,301.6191,440.4477,300.9921,439.1645,300.6203,438.1428,300.256,436.8082,299.6648,435.6598,300.1191,434.5385,300.5172,433.3102,302.011,432.3387,303.0619,431.0783,304.3627,430.6597,305.9092,430.2993,307.8923,430.5135,308.9785,431.0257,310.2413,431.2579,311.7768,432.8311,312.3121,434.4919,312.5446,435.625,312.2812,437.4924" style="stroke:#003054;stroke-width:1.0416666666666667;"/><polygon fill="url(#gztqqnpx7ch3p1)" points="206.7708,537.6068,206.7708,537.6798,213.6458,537.463,220.5208,537.6739,227.3958,537.7456,234.2708,537.3591,241.1458,537.6068,241.1355,537.5819,242.9306,538.2327,244.7777,539.0093,246.661,539.8732,248.4197,540.436,250.353,541.4205,250.5306,541.4941,250.9135,543.1782,251.815,545.0771,252.7797,547.0022,253.3764,548.7748,254.1667,550.6276,254.1904,550.6276,254.1556,554.7076,254.2287,558.7876,254.2497,562.8676,254.37,566.9476,254.1667,571.0276,254.3819,571.1168,253.6218,572.9593,252.7229,574.7443,252.0272,576.6135,251.341,578.4866,250.353,580.2347,250.2571,580.0034,248.6017,581.2152,246.6307,581.6651,244.8996,582.6942,242.9215,583.1269,241.1458,584.0485,241.1458,584.0247,234.2708,584.306,227.3958,584.0315,220.5208,584.085,213.6458,584.166,206.7708,584.0485,206.8261,584.182,204.9289,583.2845,203.1261,582.6151,201.1705,581.5766,199.4429,581.0887,197.5637,580.2347,197.7396,580.3076,196.9436,578.4524,196.2349,576.6334,195.1205,574.6463,194.3035,572.7824,193.75,571.0276,193.5342,571.0276,193.7296,566.9476,193.6818,562.8676,193.9866,558.7876,193.6893,554.7076,193.75,550.6276,193.64,550.5821,194.586,548.8166,195.0616,546.8562,195.8717,545.0344,197.0091,543.3482,197.5637,541.4205,197.6216,541.5603,199.5027,540.8934,201.2038,539.7918,203.1304,539.2347,205.0079,538.559,206.7708,537.6068" style="stroke:#262626;stroke-width:1.5625;"/><text fill="#FFF200" font-family="Verdana" font-size="12.5" lengthAdjust="spacing" textLength="29.1667" x="209.375" y="565.799">foo6</text><polygon fill="url(#gztqqnpx7ch3p1)" points="206.7708,594.4651,206.7708,594.5381,213.6458,594.3213,220.5208,594.5322,227.3958,594.6039,234.2708,594.2174,241.1458,594.4651,241.1355,594.4402,242.9306,595.0911,244.7777,595.8676,246.661,596.7315,248.4197,597.2943,250.353,598.2788,250.5306,598.3524,250.9135,600.0365,251.815,601.9354,252.7797,603.8605,253.3764,605.6331,254.1667,607.486,254.1904,607.486,254.1556,611.566,254.2287,615.646,254.2497,619.726,254.37,623.8059,254.1667,627.8859,254.3819,627.9751,253.6218,629.8176,252.7229,631.6026,252.0272,633.4718,251.341,635.345,250.353,637.0931,250.2571,636.8617,248.6017,638.0735,246.6307,638.5234,244.8996,639.5525,242.9215,639.9852,241.1458,640.9068,241.1458,640.883,234.2708,641.1643,227.3958,640.8899,220.5208,640.9433,213.6458,641.0244,206.7708,640.9068,206.8261,641.0403,204.9289,640.1428,203.1261,639.4734,201.1705,638.4349,199.4429,637.947,197.5637,637.0931,197.7396,637.1659,196.9436,635.3107,196.2349,633.4917,195.1205,631.5046,194.3035,629.6407,193.75,627.8859,193.5342,627.8859,193.7296,623.8059,193.6818,619.726,193.9866,615.646,193.6893,611.566,193.75,607.486,193.64,607.4404,194.586,605.6749,195.0616,603.7145,195.8717,601.8927,197.0091,600.2065,197.5637,598.2788,197.6216,598.4186,199.5027,597.7517,201.2038,596.6501,203.1304,596.093,205.0079,595.4173,206.7708,594.4651" style="stroke:#262626;stroke-width:1.5625;"/><text fill="#FFF200" font-family="Verdana" font-size="12.5" lengthAdjust="spacing" textLength="29.1667" x="209.375" y="622.6573">foo7</text><polygon points="235.48,675.9856,233.8004,678.2805,231.8138,681.6419,228.9725,683.9072,225.9869,685.146,223.6063,685.2535,220.5466,683.7042,217.6595,682.6921,215.4683,680.6372,214.3188,678.2847,213.6372,676.4115,212.9693,673.9648,211.8854,671.8594,212.7184,669.8037,213.4481,667.5518,216.1868,665.7708,218.1135,663.46,220.4983,662.6927,223.3335,662.0318,226.9692,662.4245,228.9605,663.3636,231.2757,663.7893,234.0908,666.6734,235.0721,669.7182,235.4985,671.7957,235.0156,675.2191" style="stroke:#0060A8;stroke-width:1.0416666666666667;fill:none;"/><polygon fill="#0060A8" points="230.2429,674.7187,229.3267,675.9705,228.2431,677.804,226.6933,679.0396,225.0648,679.7153,223.7663,679.7739,222.0974,678.9289,220.5226,678.3768,219.3274,677.2559,218.7004,675.9727,218.3286,674.951,217.9643,673.6165,217.3731,672.468,217.8274,671.3467,218.2255,670.1185,219.7193,669.147,220.7702,667.8866,222.0711,667.468,223.6175,667.1076,225.6006,667.3217,226.6868,667.834,227.9496,668.0662,229.4851,669.6393,230.0204,671.3001,230.253,672.4333,229.9896,674.3006" style="stroke:#003054;stroke-width:1.0416666666666667;"/><path d="M223.9583,82.6111 L224.0556,82.6111 L223.7665,86.7778 L224.0478,90.9444 L224.1434,95.1111 L223.6281,99.2778 L223.9583,103.4444 " fill="#303030" style="stroke:#303030;stroke-width:1.5625;"/><polygon fill="#303030" points="219.7917,93.0278,219.8594,93.0549,220.4914,95.0577,221.5206,97.2193,222.4205,99.3293,222.895,101.2691,223.9583,103.4444,223.9333,103.4344,224.6542,101.3061,225.5014,99.2283,226.4364,97.1856,227.0688,95.0219,228.125,93.0278,228.2609,93.1637,227.1369,93.7063,226.4098,94.6459,225.7311,95.6338,224.7706,96.34,223.9583,97.1944,223.9751,97.2112,223.1172,96.3532,222.3355,95.5716,221.517,94.7531,220.7688,94.0049,219.7917,93.0278" style="stroke:#303030;stroke-width:1.0416666666666667;"/><path d="M147.3958,280.2694 L147.4931,280.2694 L147.204,287.561 L147.4853,294.8527 L147.5809,302.1444 L147.0656,309.436 L147.3958,316.7277 " fill="#303030" style="stroke:#303030;stroke-width:1.5625;"/><polygon fill="#303030" points="143.2292,306.311,143.2969,306.3381,143.9289,308.3409,144.9581,310.5026,145.858,312.6126,146.3325,314.5524,147.3958,316.7277,147.3708,316.7177,148.0917,314.5894,148.9389,312.5116,149.8739,310.4689,150.5063,308.3052,151.5625,306.311,151.6984,306.447,150.5744,306.9896,149.8473,307.9291,149.1686,308.9171,148.2081,309.6233,147.3958,310.4777,147.4126,310.4945,146.5547,309.6365,145.773,308.8549,144.9545,308.0364,144.2063,307.2882,143.2292,306.311" style="stroke:#303030;stroke-width:1.0416666666666667;"/><path d="M147.3958,176.9694 L147.6878,176.9694 L146.8204,188.3411 L147.6643,199.7127 L147.9509,211.0844 L146.405,222.4561 L147.3958,233.8277 " fill="#303030" style="stroke:#303030;stroke-width:1.5625;"/><polygon fill="#303030" points="143.2292,223.4111,143.2969,223.4382,143.9289,225.441,144.9581,227.6026,145.858,229.7126,146.3325,231.6524,147.3958,233.8277,147.3708,233.8177,148.0917,231.6894,148.9389,229.6116,149.8739,227.5689,150.5063,225.4052,151.5625,223.4111,151.6984,223.547,150.5744,224.0896,149.8473,225.0292,149.1686,226.0171,148.2081,226.7233,147.3958,227.5777,147.4126,227.5945,146.5547,226.7365,145.773,225.9549,144.9545,225.1364,144.2063,224.3882,143.2292,223.4111" style="stroke:#303030;stroke-width:1.0416666666666667;"/><path d="M250.5208,176.9694 L250.8128,176.9694 L249.9454,187.6574 L250.7893,198.3454 L251.0759,209.0335 L249.53,219.7215 L250.4129,230.4095 L249.9285,241.0975 L249.9882,251.7855 L250.5208,262.4736 " fill="#303030" style="stroke:#303030;stroke-width:1.5625;"/><polygon fill="#303030" points="246.3542,252.0569,246.4219,252.084,247.0539,254.0868,248.0831,256.2485,248.983,258.3584,249.4575,260.2982,250.5208,262.4736,250.4958,262.4635,251.2167,260.3352,252.0639,258.2574,252.9989,256.2148,253.6313,254.0511,254.6875,252.0569,254.8234,252.1928,253.6994,252.7355,252.9723,253.675,252.2936,254.6629,251.3331,255.3692,250.5208,256.2236,250.5376,256.2403,249.6797,255.3824,248.898,254.6007,248.0795,253.7823,247.3313,253.034,246.3542,252.0569" style="stroke:#303030;stroke-width:1.0416666666666667;"/><path d="M147.3958,363.1694 L147.4931,363.1694 L147.204,369.836 L147.4853,376.5027 L147.5809,383.1694 L147.0656,389.836 L147.3958,396.5027 " fill="#303030" style="stroke:#303030;stroke-width:1.5625;"/><polygon fill="#303030" points="143.2292,386.086,143.2969,386.1131,143.9289,388.1159,144.9581,390.2776,145.858,392.3876,146.3325,394.3274,147.3958,396.5027,147.3708,396.4927,148.0917,394.3644,148.9389,392.2866,149.8739,390.2439,150.5063,388.0802,151.5625,386.086,151.6984,386.222,150.5744,386.7646,149.8473,387.7041,149.1686,388.6921,148.2081,389.3983,147.3958,390.2527,147.4126,390.2694,146.5547,389.4115,145.773,388.6299,144.9545,387.8114,144.2063,387.0632,143.2292,386.086" style="stroke:#303030;stroke-width:1.0416666666666667;"/><path d="M223.9583,149.8861 L224.0556,149.8861 L223.7665,154.0527 L224.0478,158.2194 L224.1434,162.3861 L223.6281,166.5527 L223.9583,170.7194 " fill="#303030" style="stroke:#303030;stroke-width:1.5625;"/><polygon fill="#303030" points="219.7917,160.3027,219.8594,160.3298,220.4914,162.3326,221.5206,164.4943,222.4205,166.6043,222.895,168.5441,223.9583,170.7194,223.9333,170.7094,224.6542,168.5811,225.5014,166.5033,226.4364,164.4606,227.0688,162.2969,228.125,160.3027,228.2609,160.4387,227.1369,160.9813,226.4098,161.9208,225.7311,162.9088,224.7706,163.615,223.9583,164.4694,223.9751,164.4862,223.1172,163.6282,222.3355,162.8466,221.517,162.0281,220.7688,161.2799,219.7917,160.3027" style="stroke:#303030;stroke-width:1.0416666666666667;"/><path d="M223.9583,449.1943 L224.0556,449.1943 L223.7665,455.5052 L224.0478,461.816 L224.1434,468.1268 L223.6281,474.4377 L223.9583,480.7485 " fill="#303030" style="stroke:#303030;stroke-width:1.5625;"/><polygon fill="#303030" points="219.7917,470.3318,219.8594,470.3589,220.4914,472.3617,221.5206,474.5234,222.4205,476.6334,222.895,478.5732,223.9583,480.7485,223.9333,480.7385,224.6542,478.6102,225.5014,476.5324,226.4364,474.4897,227.0688,472.326,228.125,470.3318,228.2609,470.4678,227.1369,471.0104,226.4098,471.9499,225.7311,472.9379,224.7706,473.6441,223.9583,474.4985,223.9751,474.5152,223.1172,473.6573,222.3355,472.8757,221.517,472.0572,220.7688,471.309,219.7917,470.3318" style="stroke:#303030;stroke-width:1.0416666666666667;"/><path d="M256.25,436.3902 L256.25,436.4875 L263.9583,436.1984 L271.6667,436.4797 L279.375,436.5752 L287.0833,436.0599 L294.7917,436.3902 " fill="#303030" style="stroke:#303030;stroke-width:1.5625;"/><polygon fill="#303030" points="284.375,432.2235,284.4021,432.2913,286.4049,432.9233,288.5666,433.9525,290.6765,434.8524,292.6163,435.3269,294.7917,436.3902,294.7816,436.3651,292.6533,437.086,290.5755,437.9332,288.5329,438.8682,286.3692,439.5006,284.375,440.5568,284.5109,440.6928,285.0536,439.5688,285.9931,438.8416,286.9811,438.1629,287.6873,437.2025,288.5417,436.3902,288.5584,436.4069,287.7005,435.549,286.9188,434.7673,286.1004,433.9489,285.3521,433.2006,284.375,432.2235" style="stroke:#303030;stroke-width:1.0416666666666667;"/><path d="M223.9583,402.7527 L224.0556,402.7527 L223.7665,406.9194 L224.0478,411.086 L224.1434,415.2527 L223.6281,419.4194 L223.9583,423.586 " fill="#303030" style="stroke:#303030;stroke-width:1.5625;"/><polygon fill="#303030" points="219.7917,413.1694,219.8594,413.1965,220.4914,415.1993,221.5206,417.3609,222.4205,419.4709,222.895,421.4107,223.9583,423.586,223.9333,423.576,224.6542,421.4477,225.5014,419.3699,226.4364,417.3272,227.0688,415.1635,228.125,413.1694,228.2609,413.3053,227.1369,413.8479,226.4098,414.7875,225.7311,415.7754,224.7706,416.4816,223.9583,417.336,223.9751,417.3528,223.1172,416.4948,222.3355,415.7132,221.517,414.8947,220.7688,414.1465,219.7917,413.1694" style="stroke:#303030;stroke-width:1.0416666666666667;"/><path d="M223.9583,640.9068 L224.0556,640.9068 L223.7665,645.0734 L224.0478,649.2401 L224.1434,653.4068 L223.6281,657.5734 L223.9583,661.7401 " fill="#303030" style="stroke:#303030;stroke-width:1.5625;"/><polygon fill="#303030" points="219.7917,651.3234,219.8594,651.3505,220.4914,653.3534,221.5206,655.515,222.4205,657.625,222.895,659.5648,223.9583,661.7401,223.9333,661.7301,224.6542,659.6018,225.5014,657.524,226.4364,655.4813,227.0688,653.3176,228.125,651.3234,228.2609,651.4594,227.1369,652.002,226.4098,652.9416,225.7311,653.9295,224.7706,654.6357,223.9583,655.4901,223.9751,655.5069,223.1172,654.6489,222.3355,653.8673,221.517,653.0488,220.7688,652.3006,219.7917,651.3234" style="stroke:#303030;stroke-width:1.0416666666666667;"/><!--MD5=[566f70be1e779a86ccd8eb16bfb01424]
@startuml

!$THEME = "sketchy"

!if %not(%variable_exists("$BGCOLOR"))
!$BGCOLOR = "transparent"
!endif

skinparam backgroundColor $BGCOLOR
skinparam useBetaStyle false
skinparam handwritten true
skinparam shadowing false

!$BLUE = "#007bff"
!$INDIGO = "#6610f2"
!$PURPLE = "#6f42c1"
!$PINK = "#e83e8c"
!$RED = "#dc3545"
!$ORANGE = "#fd7e14"
!$YELLOW = "#ffc107"
!$GREEN = "#28a745"
!$TEAL = "#20c997"
!$CYAN = "#17a2b8"
!$WHITE = "#ffffff"
!$GRAY = "#868e96"
!$GRAYDARK = "#333333"
!$PRIMARY = "#333333"
!$SECONDARY = "#555555"
!$SUCCESS = "#28a745"
!$INFO = "#17a2b8"
!$WARNING = "#ffc107"
!$DANGER = "#dc3545"
!$LIGHT = "#ffffff"
!$DARK = "#555555"

!$FGCOLOR = $WHITE
!$PRIMARY_DARK = "#2e2e2e"
!$PRIMARY_LIGHT = "#474747"
!$PRIMARY_TEXT = $WHITE
!$SECONDARY_DARK = "#4d4d4d"
!$SECONDARY_LIGHT = "#666666"
!$SECONDARY_TEXT = $WHITE
!$INFO_DARK = "#1592a6"
!$INFO_LIGHT = "#2eabbf"
!$INFO_TEXT = $WHITE
!$SUCCESS_DARK = "#24963e"
!$SUCCESS_LIGHT = "#3eb058"
!$SUCCESS_TEXT = $WHITE
!$WARNING_DARK = "#e6ae06"
!$WARNING_LIGHT = "#ffc720"
!$WARNING_TEXT = $WHITE
!$DANGER_DARK = "#c6303e"
!$DANGER_LIGHT = "#e04958"
!$DANGER_TEXT = $WHITE
!$DARK_DARK = "#4d4d4d"
!$DARK_LIGHT = "#666666"
!$LIGHT_DARK = "#e6e6e6"
!$LIGHT_LIGHT = "#ffffff"

!procedure $success($msg)
  <font color=$SUCCESS><b>$msg
!endprocedure

!procedure $failure($msg)
  <font color=$DANGER><b>$msg
!endprocedure

!procedure $warning($msg)
  <font color=$WARNING><b>$msg
!endprocedure

!procedure $primary_scheme()
	FontColor $PRIMARY_TEXT
	BorderColor $PRIMARY
	BackgroundColor $PRIMARY_LIGHT
!endprocedure

skinparam defaultFontName       "Segoe Print"
skinparam defaultFontSize       12
skinparam dpi                   100
skinparam shadowing             false
skinparam roundcorner           8
skinparam ParticipantPadding    40
skinparam BoxPadding            40
skinparam Padding               5
skinparam ArrowColor            $DARK
skinparam stereotype {
    CBackgroundColor $SECONDARY_LIGHT
    CBorderColor $SECONDARY_DARK
    ABackgroundColor $SUCCESS_LIGHT
    ABorderColor $SUCCESS_DARK
    IBackgroundColor $DANGER_LIGHT
    IBorderColor $DANGER_DARK
    EBackgroundColor $WARNING_LIGHT
    EBorderColor $WARNING_DARK
    NBackgroundColor $INFO_LIGHT
    NBorderColor $INFO_DARK
}
skinparam title {
	FontColor	                 $FGCOLOR
	BorderColor	                 $SECONDARY_DARK
	FontSize	    	         20
	BorderRoundCorner            8
	BorderThickness 	         1
	BackgroundColor              $SECONDARY_LIGHT-$SECONDARY
}

skinparam legend {
	BackgroundColor $SECONDARY
	BorderColor $SECONDARY_DARK
	FontColor $LIGHT
}

!startsub swimlane
skinparam swimlane {
	BorderColor $INFO
	BorderThickness 2
	TitleBackgroundColor  $SECONDARY_LIGHT-$SECONDARY
	TitleFontColor $FGCOLOR
}
!endsub

!startsub activity

skinparam activity {
	$primary_scheme()
	BarColor $SUCCESS
	StartColor $INFO
	EndColor $INFO
	DiamondBackgroundColor $SECONDARY_LIGHT
  	DiamondBorderColor $SECONDARY_DARK
  	DiamondFontColor $SECONDARY_TEXT
}
!endsub

!startsub participant

skinparam participant {
	$primary_scheme()
	ParticipantBorderThickness 2
}
!endsub

!startsub actor

skinparam actor {
	$primary_scheme()
}
!endsub

!startsub arrow

skinparam arrow {
	Thickness 3
	Color $PRIMARY
	FontColor $FGCOLOR
}
!endsub

!startsub sequence

skinparam sequence {
	BorderColor $PRIMARY
	TitleFontColor $PRIMARY
	BackgroundColor $BGCOLOR
	StartColor $PRIMARY
	EndColor $PRIMARY
	BoxBackgroundColor $BGCOLOR
	BoxBorderColor $DARK
	BoxFontColor $DARk
	LifeLineBorderColor $SECONDARY
	LifeLineBorderThickness 2
	LifeLineBackgroundColor $SECONDARY_DARK
	GroupBorderColor $DARK
	GroupFontColor $DARK
	GroupHeaderFontColor $INFO
	GroupBackgroundColor $SECONDARY
	GroupHeaderBackgroundColor $BGCOLOR
	DividerBackgroundColor $DARK
    DividerBorderColor $DARK
    DividerBorderThickness 2
    DividerFontColor $LIGHT
	ReferenceBackgroundColor $BGCOLOR
	ReferenceBorderColor $DARK
	ReferenceFontColor $DARK
	ReferenceHeaderFontColor $INFO
	ReferenceHeaderBackgroundColor $SECONDARY
}
!endsub

!startsub partition

skinparam partition {
	BorderColor $PRIMARY
	FontColor $PRIMARY
	BackgroundColor $BGCOLOR
}
!endsub

!startsub collections

skinparam collections {
	$primary_scheme()
}
!endsub

!startsub control

skinparam control {
	$primary_scheme()
}
!endsub

!startsub entity

skinparam entity {
	$primary_scheme()
}
!endsub

!startsub boundary

skinparam boundary {
	$primary_scheme()
}
!endsub

!startsub agent

skinparam agent {
	BackgroundColor $WARNING
	BorderColor $WARNING_LIGHT
	FontColor $DARK
}
!endsub

!startsub note

skinparam note {
	BorderThickness 1
	BackgroundColor $INFO
	BorderColor $INFO_DARK
	FontColor $WHITE
}
!endsub

!startsub artifact

skinparam artifact {
	BackgroundColor $DARK
	BorderColor $DARK_DARK
	FontColor $LIGHT
}
!endsub

!startsub component

skinparam component {
	$primary_scheme()
}
!endsub

!startsub interface

skinparam interface {
	BackgroundColor  $DANGER_DARK
	BorderColor  $DANGER
	FontColor $DARK
}
!endsub

!startsub storage

skinparam storage {
	BackgroundColor $WARNING
  	BorderColor $WARNING_DARK
	FontColor $WARNING_TEXT
}
!endsub

!startsub node

skinparam node {
	BackgroundColor  $SECONDARY
	BorderColor $LIGHT
	FontColor $LIGHT
}
!endsub

!startsub cloud

skinparam cloud {
	BackgroundColor #F2FCFE-#eeeeee
	BorderColor #F2FCFE
	FontColor $DARK
}
!endsub

!startsub database

skinparam database {
	$primary_scheme()
}
!endsub

!startsub class

skinparam class {
	$primary_scheme()
	FontColor $FGCOLOR
	HeaderBackgroundColor $PRIMARY_LIGHT
	StereotypeFontColor $DARK
	BorderThickness 1
	AttributeFontColor $LIGHT
	AttributeFontSize 11
}
!endsub

!startsub object

skinparam object {
	$primary_scheme()
	StereotypeFontColor $DARK
	BorderThickness 1
	AttributeFontColor $SECONDARY_TEXT
	AttributeFontSize 11
}
!endsub

!startsub usecase

skinparam usecase {
	$primary_scheme()
	BorderThickness 2
	StereotypeFontColor $PRIMARY
}
!endsub

!startsub rectangle

skinparam rectangle {
	$primary_scheme()
	BackgroundColor $SECONDARY_LIGHT
	BorderThickness 2
	StereotypeFontColor $PRIMARY
}
!endsub

!startsub package

skinparam package {
	BackgroundColor $SECONDARY
  	BorderColor $PRIMARY
	FontColor $PRIMARY
	BorderThickness 2
}
!endsub

!startsub folder

skinparam folder {
	BackgroundColor $SECONDARY_LIGHT
  	BorderColor $WARNING
	FontColor $WARNING
	BorderThickness 2
}
!endsub

!startsub frame

skinparam frame {
	BackgroundColor $SECONDARY_LIGHT
  	BorderColor $INFO
	FontColor $INFO
	BorderThickness 2
}
!endsub

!startsub state

skinparam state {
	$primary_scheme()
	StartColor $INFO
	EndColor $INFO
	AttributeFontColor $SECONDARY_TEXT
	AttributeFontSize 11
}
!endsub

!startsub queue

skinparam queue {
	$primary_scheme()
}
!endsub

!startsub card

skinparam card {
	BackgroundColor $INFO
	BorderColor $INFO_DARK
	FontColor $INFO_TEXT
}
!endsub

!startsub file

skinparam file {
	BackgroundColor $SECONDARY_DARK
	BorderColor $LIGHT
	FontColor $LIGHT
}
!endsub

!startsub stack

skinparam stack {
	$primary_scheme()
}
!endsub
!include https://raw.githubusercontent.com/bschwarz/puml-themes/master/themes/black-knight/puml-theme-black-knight.puml

!if %variable_exists("$THEME")
title Activity Diagram - $THEME theme
!else
title Activity Diagram
!endif

'skinparam BackgroundColor black

start
 :start;
 fork
  partition "My Partition" {
   :foo1;
   :foo2;
  }
 fork again
   :foo3;
   note right: Note
   detach
 endfork
 if (foo4) then (yes)
   :foo5;
   detach
 else (no)
  stop
 endif
 :foo6;
 detach
 :foo7;
 stop
@enduml

@startuml



skinparam backgroundColor transparent
skinparam useBetaStyle false
skinparam handwritten true
skinparam shadowing false







skinparam defaultFontName       "Segoe Print"
skinparam defaultFontSize       12
skinparam dpi                   100
skinparam shadowing             false
skinparam roundcorner           8
skinparam ParticipantPadding    40
skinparam BoxPadding            40
skinparam Padding               5
skinparam ArrowColor            #555555
skinparam stereotype {
    CBackgroundColor #666666
    CBorderColor #4d4d4d
    ABackgroundColor #3eb058
    ABorderColor #24963e
    IBackgroundColor #e04958
    IBorderColor #c6303e
    EBackgroundColor #ffc720
    EBorderColor #e6ae06
    NBackgroundColor #2eabbf
    NBorderColor #1592a6
}
skinparam title {
	FontColor	                 #ffffff
	BorderColor	                 #4d4d4d
	FontSize	    	         20
	BorderRoundCorner            8
	BorderThickness 	         1
	BackgroundColor              #666666-#555555
}

skinparam legend {
	BackgroundColor #555555
	BorderColor #4d4d4d
	FontColor #ffffff
}

skinparam swimlane {
	BorderColor #17a2b8
	BorderThickness 2
	TitleBackgroundColor  #666666-#555555
	TitleFontColor #ffffff
}


skinparam activity {
		FontColor #ffffff
	BorderColor #333333
	BackgroundColor #474747
	BarColor #28a745
	StartColor #17a2b8
	EndColor #17a2b8
	DiamondBackgroundColor #666666
  	DiamondBorderColor #4d4d4d
  	DiamondFontColor #ffffff
}


skinparam participant {
		FontColor #ffffff
	BorderColor #333333
	BackgroundColor #474747
	ParticipantBorderThickness 2
}


skinparam actor {
		FontColor #ffffff
	BorderColor #333333
	BackgroundColor #474747
}


skinparam arrow {
	Thickness 3
	Color #333333
	FontColor #ffffff
}


skinparam sequence {
	BorderColor #333333
	TitleFontColor #333333
	BackgroundColor transparent
	StartColor #333333
	EndColor #333333
	BoxBackgroundColor transparent
	BoxBorderColor #555555
	BoxFontColor $DARk
	LifeLineBorderColor #555555
	LifeLineBorderThickness 2
	LifeLineBackgroundColor #4d4d4d
	GroupBorderColor #555555
	GroupFontColor #555555
	GroupHeaderFontColor #17a2b8
	GroupBackgroundColor #555555
	GroupHeaderBackgroundColor transparent
	DividerBackgroundColor #555555
    DividerBorderColor #555555
    DividerBorderThickness 2
    DividerFontColor #ffffff
	ReferenceBackgroundColor transparent
	ReferenceBorderColor #555555
	ReferenceFontColor #555555
	ReferenceHeaderFontColor #17a2b8
	ReferenceHeaderBackgroundColor #555555
}


skinparam partition {
	BorderColor #333333
	FontColor #333333
	BackgroundColor transparent
}


skinparam collections {
		FontColor #ffffff
	BorderColor #333333
	BackgroundColor #474747
}


skinparam control {
		FontColor #ffffff
	BorderColor #333333
	BackgroundColor #474747
}


skinparam entity {
		FontColor #ffffff
	BorderColor #333333
	BackgroundColor #474747
}


skinparam boundary {
		FontColor #ffffff
	BorderColor #333333
	BackgroundColor #474747
}


skinparam agent {
	BackgroundColor #ffc107
	BorderColor #ffc720
	FontColor #555555
}


skinparam note {
	BorderThickness 1
	BackgroundColor #17a2b8
	BorderColor #1592a6
	FontColor #ffffff
}


skinparam artifact {
	BackgroundColor #555555
	BorderColor #4d4d4d
	FontColor #ffffff
}


skinparam component {
		FontColor #ffffff
	BorderColor #333333
	BackgroundColor #474747
}


skinparam interface {
	BackgroundColor  #c6303e
	BorderColor  #dc3545
	FontColor #555555
}


skinparam storage {
	BackgroundColor #ffc107
  	BorderColor #e6ae06
	FontColor #ffffff
}


skinparam node {
	BackgroundColor  #555555
	BorderColor #ffffff
	FontColor #ffffff
}


skinparam cloud {
	BackgroundColor #F2FCFE-#eeeeee
	BorderColor #F2FCFE
	FontColor #555555
}


skinparam database {
		FontColor #ffffff
	BorderColor #333333
	BackgroundColor #474747
}


skinparam class {
		FontColor #ffffff
	BorderColor #333333
	BackgroundColor #474747
	FontColor #ffffff
	HeaderBackgroundColor #474747
	StereotypeFontColor #555555
	BorderThickness 1
	AttributeFontColor #ffffff
	AttributeFontSize 11
}


skinparam object {
		FontColor #ffffff
	BorderColor #333333
	BackgroundColor #474747
	StereotypeFontColor #555555
	BorderThickness 1
	AttributeFontColor #ffffff
	AttributeFontSize 11
}


skinparam usecase {
		FontColor #ffffff
	BorderColor #333333
	BackgroundColor #474747
	BorderThickness 2
	StereotypeFontColor #333333
}


skinparam rectangle {
		FontColor #ffffff
	BorderColor #333333
	BackgroundColor #474747
	BackgroundColor #666666
	BorderThickness 2
	StereotypeFontColor #333333
}


skinparam package {
	BackgroundColor #555555
  	BorderColor #333333
	FontColor #333333
	BorderThickness 2
}


skinparam folder {
	BackgroundColor #666666
  	BorderColor #ffc107
	FontColor #ffc107
	BorderThickness 2
}


skinparam frame {
	BackgroundColor #666666
  	BorderColor #17a2b8
	FontColor #17a2b8
	BorderThickness 2
}


skinparam state {
		FontColor #ffffff
	BorderColor #333333
	BackgroundColor #474747
	StartColor #17a2b8
	EndColor #17a2b8
	AttributeFontColor #ffffff
	AttributeFontSize 11
}


skinparam queue {
		FontColor #ffffff
	BorderColor #333333
	BackgroundColor #474747
}


skinparam card {
	BackgroundColor #17a2b8
	BorderColor #1592a6
	FontColor #ffffff
}


skinparam file {
	BackgroundColor #4d4d4d
	BorderColor #ffffff
	FontColor #ffffff
}


skinparam stack {
		FontColor #ffffff
	BorderColor #333333
	BackgroundColor #474747
}



skinparam backgroundColor transparent
skinparam useBetaStyle false






skinparam  {
    defaultFontName   "Verdana"
    defaultFontSize   12
    defaultTextAlignment center
    shadowing false
    RoundCorner 10
    TitleFontSize 18
}

skinparam defaultFontName       "Verdana"
skinparam defaultFontSize       12
skinparam dpi                   100
skinparam shadowing             false
skinparam roundcorner           8
skinparam ParticipantPadding    40
skinparam BoxPadding            40
skinparam Padding               5
skinparam ArrowColor            #484848
skinparam stereotype {
    CBackgroundColor #3a3a3a
    CBorderColor #6d6d6d
    ABackgroundColor #33ff33
    ABorderColor #00cc00
    IBackgroundColor #ff3333
    IBorderColor #cc0000
    EBackgroundColor #ff9933
    EBorderColor #cc6600
    NBackgroundColor #3380b9
    NBorderColor #004d86
}
skinparam title {
	FontColor	                 #fefefe
	BorderColor	                 #3a3a3a
	FontSize	    	         20
	BorderRoundCorner            8
	BorderThickness 	         1
	BackgroundColor              #6d6d6d-#484848
}


skinparam legend {
	BackgroundColor #303030
	BorderColor #262626
	FontColor #fff200
}

	skinparam swimlane {
	BorderColor #0060a8
	BorderThickness 2
	TitleBackgroundColor  #6d6d6d-#484848
	TitleFontColor #303030
}

skinparam activity {
		FontColor #fff200
	BorderColor #262626
	BackgroundColor #595959-#262626
	BarColor #00FF00
	StartColor #0060a8
	EndColor #0060a8
	DiamondBackgroundColor #6d6d6d-#3a3a3a
  	DiamondBorderColor #3a3a3a
  	DiamondFontColor #fefefe
}


skinparam participant {
		FontColor #fff200
	BorderColor #262626
	BackgroundColor #595959-#262626
	ParticipantBorderThickness 2
}


skinparam actor {
		FontColor #fff200
	BorderColor #262626
	BackgroundColor #595959-#262626
}


skinparam arrow {
	Thickness 3
	Color #303030
	FontColor #ffffff
}



skinparam sequence {
	BorderColor #303030
	TitleFontColor #303030
	BackgroundColor transparent
	StartColor #303030
	EndColor #303030
	BoxBackgroundColor transparent
	BoxBorderColor #484848
	BoxFontColor #484848
	LifeLineBorderColor #484848
	LifeLineBorderThickness 2
	LifeLineBackgroundColor #3a3a3a
	GroupBorderColor #484848
	GroupFontColor #484848
	GroupHeaderFontColor #0060a8
	GroupBackgroundColor #484848
	GroupHeaderBackgroundColor transparent
	DividerBackgroundColor #484848
    DividerBorderColor #484848
    DividerBorderThickness 2
    DividerFontColor #fff200
	ReferenceBackgroundColor transparent
	ReferenceBorderColor #484848
	ReferenceFontColor #fefefe
	ReferenceHeaderBackgroundColor #484848
}


skinparam partition {
	BorderColor #303030
	FontColor #595959
	BackgroundColor transparent
}


skinparam collections {
		FontColor #fff200
	BorderColor #262626
	BackgroundColor #595959-#262626
}


skinparam control {
		FontColor #fff200
	BorderColor #262626
	BackgroundColor #595959-#262626
}


skinparam entity {
		FontColor #fff200
	BorderColor #262626
	BackgroundColor #595959-#262626
}


skinparam boundary {
		FontColor #fff200
	BorderColor #262626
	BackgroundColor #595959-#262626
}


skinparam agent {
	BackgroundColor #ff8000
	BorderColor #ff9933
	FontColor #484848
}


skinparam note {
	BorderThickness 1
	BackgroundColor #0060a8
	BorderColor #004d86
	FontColor #ffffff
}


skinparam artifact {
	BackgroundColor #484848
	BorderColor #4d4d4d
	FontColor #fff200
}


skinparam component {
		FontColor #fff200
	BorderColor #262626
	BackgroundColor #595959-#262626
}


skinparam interface {
	BackgroundColor  #cc0000
	BorderColor  #ff0000
	FontColor #484848
}


skinparam storage {
	BackgroundColor #ff8000
  	BorderColor #cc6600
	FontColor #222222
}


skinparam node {
	BackgroundColor transparent
	BorderColor #595959
	FontColor #fff200
}


skinparam cloud {
	BackgroundColor #484848-black
	BorderColor #484848
	FontColor #fff200
}


skinparam database {
		FontColor #fff200
	BorderColor #262626
	BackgroundColor #595959-#262626
	BackgroundColor  transparent
}


skinparam class {
		FontColor #fff200
	BorderColor #262626
	BackgroundColor #595959-#262626
	HeaderBackgroundColor #595959
	StereotypeFontColor #484848
	BorderThickness 1
	AttributeFontColor #fff200
	AttributeFontSize 11
}


skinparam object {
		FontColor #fff200
	BorderColor #262626
	BackgroundColor #595959-#262626
	StereotypeFontColor #484848
	BorderThickness 1
	AttributeFontColor #fefefe
	AttributeFontSize 11
}


skinparam usecase {
		FontColor #fff200
	BorderColor #262626
	BackgroundColor #595959-#262626
	BorderThickness 2
	StereotypeFontColor #303030
}


skinparam rectangle {
		FontColor #fff200
	BorderColor #262626
	BackgroundColor #595959-#262626
	BackgroundColor transparent
	BorderThickness 2
	StereotypeFontColor #303030
}


skinparam package {
		FontColor #fff200
	BorderColor #262626
	BackgroundColor #595959-#262626
	BackgroundColor transparent
	BorderThickness 2
}


skinparam folder {
	BackgroundColor #6d6d6d
  	BorderColor #ff8000
	FontColor #ff8000
	BorderThickness 2
}


skinparam frame {
	BackgroundColor #6d6d6d
  	BorderColor #0060a8
	FontColor #0060a8
	BorderThickness 2
}


skinparam state {
		FontColor #fff200
	BorderColor #262626
	BackgroundColor #595959-#262626
	StartColor #0060a8
	EndColor #0060a8
	AttributeFontColor #fefefe
	AttributeFontSize 11
}


skinparam queue {
		FontColor #fff200
	BorderColor #262626
	BackgroundColor #595959-#262626
}


skinparam card {
	BackgroundColor #0060a8
	BorderColor #004d86
	FontColor #ffffff
}


skinparam file {
	BackgroundColor #6d6d6d-#484848
	BorderColor #0060a8
	FontColor #fefefe
}


skinparam stack {
		FontColor #fff200
	BorderColor #262626
	BackgroundColor #595959-#262626
}


title Activity Diagram - black-knight theme


start
 :start;
 fork
  partition "My Partition" {
   :foo1;
   :foo2;
  }
 fork again
   :foo3;
   note right: Note
   detach
 endfork
 if (foo4) then (yes)
   :foo5;
   detach
 else (no)
  stop
 endif
 :foo6;
 detach
 :foo7;
 stop
@enduml

PlantUML version 1.2021.01(Mon Feb 01 23:55:08 PST 2021)
(GPL source distribution)
Java Runtime: OpenJDK Runtime Environment
JVM: OpenJDK 64-Bit Server VM
Default Encoding: UTF-8
Language: en
Country: US
--></g></svg>