<?xml version="1.0" encoding="UTF-8" standalone="no"?><svg xmlns="http://www.w3.org/2000/svg" xmlns:xlink="http://www.w3.org/1999/xlink" contentScriptType="application/ecmascript" contentStyleType="text/css" height="527.0833px" preserveAspectRatio="none" style="width:682px;height:527px;background:#00000000;" version="1.1" viewBox="0 0 682 527" width="682.2917px" zoomAndPan="magnify"><defs><linearGradient id="g1w8t0ld426s50" x1="50%" x2="50%" y1="0%" y2="100%"><stop offset="0%" stop-color="#666666"/><stop offset="100%" stop-color="#555555"/></linearGradient></defs><g><polygon fill="url(#g1w8t0ld426s50)" points="111.4583,15.625,111.4583,15.8439,121.8444,15.1934,132.2304,15.8263,142.6164,16.0413,153.0025,14.8819,163.3885,15.544,173.7745,15.1807,184.1605,15.2255,194.5466,15.554,204.9326,14.9048,215.3186,16.2017,225.7047,14.9685,236.0907,15.419,246.4767,16.0749,256.8627,15.5356,267.2488,15.6961,277.6348,15.5917,288.0208,15.811,298.4069,15.8741,308.7929,16.2351,319.1789,16.324,329.565,16.3326,339.951,15.8902,350.337,16.1079,360.723,16.3565,371.1091,14.8738,381.4951,16.3318,391.8811,15.3161,402.2672,16.1811,412.6532,15.1094,423.0392,15.5536,433.4252,16.3975,443.8113,15.5742,454.1973,15.7347,464.5833,15.625,464.6283,15.7336,465.2279,16.0026,465.7613,16.1119,466.3893,16.4494,466.8643,16.4177,467.5296,16.8454,467.6208,16.8832,467.9495,17.5075,468.1604,18.083,468.4585,18.6946,468.351,19.1382,468.75,19.7917,468.5235,19.7917,468.5342,27.5326,468.7296,35.2734,468.6818,43.0143,468.9866,50.7552,468.75,58.4961,468.694,58.4729,468.3959,59.0398,468.3351,59.7049,467.8039,60.1753,467.6072,60.7841,467.5296,61.4424,467.6158,61.6505,466.9982,61.8262,466.4487,62.1661,465.7191,62.0714,465.215,62.5211,464.5833,62.6628,464.5833,63.2778,454.1973,62.1707,443.8113,62.5629,433.4252,62.794,423.0392,63.3417,412.6532,62.6584,402.2672,63.1446,391.8811,62.0859,381.4951,61.9573,371.1091,63.1874,360.723,61.9159,350.337,63.1929,339.951,62.878,329.565,62.3837,319.1789,62.2942,308.7929,63.1406,298.4069,62.351,288.0208,63.2793,277.6348,62.087,267.2488,63.3059,256.8627,63.1672,246.4767,62.9179,236.0907,62.7119,225.7047,63.4196,215.3186,63.3019,204.9326,62.8391,194.5466,62.9421,184.1605,62.5271,173.7745,63.4091,163.3885,62.8241,153.0025,62.8425,142.6164,62.0291,132.2304,62.2407,121.8444,63.2156,111.4583,62.6628,111.5154,62.8006,110.8634,62.4049,110.237,62.0713,109.6615,61.8603,109.0101,61.4663,108.5121,61.4424,108.6451,61.4975,108.5052,60.9514,108.1928,60.3338,108.0028,59.7669,107.4919,59.0672,107.2917,58.4961,107.322,58.4961,107.1571,50.7552,107.3903,43.0143,107.3773,35.2734,107.4835,27.5326,107.2917,19.7917,107.218,19.7612,107.4926,19.1846,107.9221,18.6721,108.2059,18.0993,108.1036,17.3665,108.5121,16.8454,108.4863,16.7832,109.1211,16.6492,109.6094,16.1613,110.3268,16.2265,110.9034,15.9518,111.4583,15.625" style="stroke: #4D4D4D; stroke-width: 1.0416666666666667;"/><text fill="#FFFFFF" font-family="&quot;Segoe Print&quot;" font-size="20.8333" font-weight="bold" lengthAdjust="spacingAndGlyphs" textLength="340.625" x="117.7083" y="47.6685">Mindmap Diagram - sketchy theme</text><polygon fill="#FEFECE" points="341.6667,273.0021,341.6667,273.0751,350.4167,272.8583,359.1667,273.0692,367.9167,273.1409,376.6667,272.7544,385.4167,273.0021,385.4063,272.9772,385.9493,273.1094,386.5442,273.3672,387.1754,273.7125,387.6818,273.7566,388.3629,274.2225,388.5405,274.2961,388.4048,274.728,388.7877,275.3747,389.2337,276.0477,389.3117,276.5681,389.5833,277.1688,389.607,277.1688,389.5722,285.4207,389.6453,293.6727,389.6664,301.9246,389.7867,310.1766,389.5833,318.4285,389.7986,318.5177,389.5572,319.1081,389.1769,319.6409,388.9998,320.2579,388.8323,320.8789,388.3629,321.3748,388.2671,321.1435,387.8638,321.8366,387.145,321.7679,386.6661,322.2783,385.9401,322.1923,385.4167,322.5952,385.4167,322.5714,376.6667,322.8527,367.9167,322.5783,359.1667,322.6318,350.4167,322.7128,341.6667,322.5952,341.722,322.7287,341.0769,322.3499,340.5263,322.1992,339.8228,321.6794,339.3474,321.7101,338.7204,321.3748,338.8962,321.4477,338.6189,320.8446,338.4289,320.2778,337.8332,319.5429,337.5349,318.9311,337.5,318.4285,337.2842,318.4285,337.4796,310.1766,337.4318,301.9246,337.7366,293.6727,337.4393,285.4207,337.5,277.1688,337.39,277.1232,337.8173,276.6099,337.7742,275.9017,338.0657,275.332,338.6845,274.898,338.7204,274.2225,338.7783,274.3623,339.4072,274.214,339.8561,273.6311,340.5306,273.5927,341.1559,273.4356,341.6667,273.0021" style="stroke: #A80036; stroke-width: 1.5625;"/><text fill="#000000" font-family="&quot;Segoe Print&quot;" font-size="14.5833" lengthAdjust="spacingAndGlyphs" textLength="20.8333" x="353.125" y="303.7659">OS</text><polygon fill="#FEFECE" points="445.8333,184.9691,445.8333,185.188,455.8036,184.5375,465.7738,185.1704,475.744,185.3854,485.7143,184.226,495.6845,184.8881,505.6548,184.5248,515.625,184.9691,515.574,184.8461,516.2052,185.1913,516.7116,185.2354,517.4663,185.8789,517.8983,185.7432,518.5713,186.1895,518.5078,186.1632,518.9539,186.8361,519.0319,187.3566,519.3254,187.9663,519.5373,188.5422,519.7917,189.1357,519.8537,189.1357,519.8747,197.3877,519.995,205.6396,520.0247,213.8916,520.0275,222.1436,519.7917,230.3955,519.8733,230.4293,519.6963,231.0464,519.5288,231.6673,518.8281,232.0674,519.033,232.8427,518.5713,233.3418,518.5319,233.2467,518.053,233.7571,517.327,233.6711,516.7944,234.052,516.3128,234.556,515.625,234.5622,515.625,234.5114,505.6548,234.6719,495.6845,234.9149,485.7143,234.9957,475.744,234.5581,465.7738,234.8614,455.8036,233.9659,445.8333,234.5622,445.8711,234.6534,445.3169,234.494,444.7139,234.2166,444.147,234.0266,443.4121,233.4309,442.8871,233.3418,442.6778,233.2551,442.4436,232.67,442.38,232.1555,442.0918,231.5479,442.1293,231.0753,441.6667,230.3955,441.606,230.3955,441.5476,222.1436,441.7459,213.8916,441.4351,205.6396,441.4864,197.3877,441.6667,189.1357,441.8748,189.222,442.0505,188.6044,442.3904,188.0548,442.2957,187.3252,442.7454,186.8211,442.8871,186.1895,442.9655,186.3789,443.4135,185.7938,444.0528,185.6706,444.6716,185.4976,445.3307,185.4222,445.8333,184.9691" style="stroke: #A80036; stroke-width: 1.5625;"/><text fill="#000000" font-family="&quot;Segoe Print&quot;" font-size="14.5833" lengthAdjust="spacingAndGlyphs" textLength="46.875" x="457.2917" y="215.7328">Ubuntu</text><polygon fill="#FEFECE" points="576.0417,79.3294,576.0417,79.5484,585.8796,78.8978,595.7176,79.5308,605.5556,79.7458,615.3935,78.5863,625.2315,79.2485,635.0694,78.8852,644.9074,78.9299,654.7454,79.2584,664.5833,79.3294,664.4915,79.1076,665.2462,79.7511,665.6781,79.6154,666.3248,79.9982,666.9978,80.4443,667.5296,80.5498,667.5021,80.5384,667.7956,81.1481,668.0075,81.7241,668.3191,82.3413,668.5826,82.9386,668.75,83.4961,668.9534,83.4961,668.983,91.748,668.9859,100,668.8384,108.252,668.911,116.5039,668.75,124.7559,668.9753,124.8492,668.2746,125.2493,668.4795,126.0245,667.9227,126.4842,667.9449,127.1838,667.5296,127.7021,667.4638,127.5433,666.9313,127.9242,666.4496,128.4282,665.7554,128.4187,665.1866,128.7122,664.5833,128.9225,664.5833,129.2753,654.7454,129.3561,644.9074,128.9185,635.0694,129.2217,625.2315,128.3263,615.3935,129.2188,605.5556,129.4936,595.7176,129.3856,585.8796,129.5611,576.0417,128.9225,575.9775,128.7676,575.3658,128.4692,574.7806,128.235,574.2661,128.1714,573.6585,127.8832,573.0954,127.7021,573.314,127.7927,572.7953,127.0897,572.4972,126.478,572.4364,125.9647,571.9052,125.2565,571.875,124.7559,571.6947,124.7559,572.1003,116.5039,572.0263,108.252,572.13,100,571.7633,91.748,571.875,83.4961,571.9774,83.5385,572.3085,82.9853,572.2116,82.2548,572.5765,81.7156,572.8917,81.1558,573.0954,80.5498,573.182,80.7589,573.6841,80.3044,574.3354,80.21,574.7896,79.6399,575.3624,79.3562,576.0417,79.3294" style="stroke: #A80036; stroke-width: 1.5625;"/><text fill="#000000" font-family="&quot;Segoe Print&quot;" font-size="14.5833" lengthAdjust="spacingAndGlyphs" textLength="65.625" x="587.5" y="110.0932">Linux Mint</text><path d="M519.7917,209.7656 L519.7917,209.9602 L521.875,209.382 L523.9583,209.9446 L526.0417,210.1357 L528.125,209.1051 L530.2083,209.7656 L530.2083,209.7656 L530.177,209.748 L531.8917,206.3676 L533.7645,203.0762 L535.7472,199.8464 L537.3512,196.4038 L539.4857,193.2594 L539.7371,193.3093 L539.8708,189.8189 L540.7386,186.4741 L541.696,183.147 L542.1323,179.7166 L542.8426,176.3406 L542.8738,176.3454 L543.4261,172.4594 L544.1206,168.5953 L544.7465,164.7206 L545.5032,160.8661 L545.8333,156.9458 L546.1404,156.9931 L546.7423,153.1148 L547.1461,149.2059 L547.8399,145.3416 L548.5472,141.4795 L548.8241,137.551 L548.4966,137.486 L549.8036,134.2284 L550.0322,130.7568 L551.0806,127.4478 L551.2848,123.9713 L552.181,120.6322 L552.1533,120.6166 L554.3358,117.4992 L555.8723,114.0186 L557.7899,110.7523 L559.7395,107.504 L561.4583,104.126 L561.4583,104.5114 L563.5417,104.1224 L565.625,104.3919 L567.7083,103.596 L569.7917,104.3893 L571.875,104.126 " fill="none" style="stroke: #333333; stroke-width: 3.125;"/><polygon fill="#FEFECE" points="576.0417,149.7559,576.0417,149.9748,585.8073,149.3243,595.5729,149.9572,605.3385,150.1722,615.1042,149.0127,624.8698,149.6749,634.6354,149.3116,644.401,149.3564,654.1667,149.7559,654.1576,149.734,654.6641,149.7782,655.4187,150.4216,655.8507,150.2859,656.4974,150.6687,657.1129,150.9762,657.2515,151.0336,657.3295,151.5541,657.623,152.1638,657.8349,152.7398,658.1465,153.357,658.3333,153.9225,658.4164,153.9225,658.5367,162.1745,658.5663,170.4264,658.5692,178.6784,658.4217,186.9303,658.3333,195.1823,658.482,195.2439,658.3145,195.8649,657.6138,196.265,657.8188,197.0402,657.2619,197.4999,657.1129,198.1286,657.1839,198.2998,656.4579,198.2138,655.9253,198.5948,655.4437,199.0987,654.7494,199.0892,654.1667,199.349,654.1667,199.4586,644.401,199.7017,634.6354,199.7825,624.8698,199.3449,615.1042,199.6481,605.3385,198.7527,595.5729,199.6452,585.8073,199.92,576.0417,199.349,576.1007,199.4916,575.5339,199.3015,574.799,198.7058,574.1872,198.4075,573.6021,198.1733,573.0954,198.1286,573.0765,198.1207,572.7883,197.5132,572.8258,197.0406,572.3071,196.3376,572.009,195.726,571.875,195.1823,571.9543,195.1823,571.6435,186.9303,571.6947,178.6784,572.1003,170.4264,572.0263,162.1745,571.875,153.9225,572.1106,154.0201,572.0158,153.2905,572.4656,152.7864,572.7966,152.2332,572.6998,151.5027,573.0954,150.9762,573.0827,150.9455,573.7014,150.7726,574.3605,150.6972,574.8626,150.2427,575.5139,150.1483,576.0417,149.7559" style="stroke: #A80036; stroke-width: 1.5625;"/><text fill="#000000" font-family="&quot;Segoe Print&quot;" font-size="14.5833" lengthAdjust="spacingAndGlyphs" textLength="55.2083" x="587.5" y="180.5196">Kubuntu</text><path d="M519.7917,209.7656 L519.7917,209.9602 L521.875,209.382 L523.9583,209.9446 L526.0417,210.1357 L528.125,209.1051 L530.2083,209.7656 L530.2083,209.7656 L530.19,209.7347 L531.9631,208.4954 L533.8287,207.4121 L535.7586,206.4372 L537.4669,205.0887 L539.4857,204.2636 L539.7127,204.3826 L540.4968,201.7071 L541.9437,199.3792 L543.4714,197.0937 L544.5286,194.5615 L545.8333,192.159 L545.8613,192.1737 L547.0898,189.7312 L548.4456,187.3556 L549.74,184.9477 L551.1516,182.6013 L552.181,180.0545 L552.3395,180.3217 L554.1969,179.2245 L555.9521,177.955 L557.8569,176.9378 L559.7687,175.9325 L561.4583,174.5524 L561.4583,173.8846 L563.5417,175.1807 L565.625,174.2779 L567.7083,175.0467 L569.7917,174.0941 L571.875,174.5524 " fill="none" style="stroke: #333333; stroke-width: 3.125;"/><polygon fill="#FEFECE" points="576.0417,220.1823,576.0417,220.4012,587.0536,219.7507,598.0655,220.3836,609.0774,220.5986,620.0893,219.4392,631.1012,220.1013,642.1131,219.738,653.125,220.1823,653.074,220.0593,653.7052,220.4045,654.2116,220.4487,654.9663,221.0921,655.3983,220.9564,656.0713,221.4027,656.0078,221.3764,656.4539,222.0493,656.5319,222.5698,656.8254,223.1795,657.0373,223.7555,657.2917,224.349,657.3537,224.349,657.3747,232.6009,657.495,240.8529,657.5247,249.1048,657.5275,257.3568,657.2917,265.6087,657.3733,265.6426,657.1963,266.2596,657.0288,266.8805,656.3281,267.2807,656.533,268.0559,656.0713,268.555,656.0319,268.4599,655.553,268.9703,654.827,268.8844,654.2944,269.2653,653.8128,269.7692,653.125,269.7754,653.125,269.7246,642.1131,269.8851,631.1012,270.1281,620.0893,270.209,609.0774,269.7713,598.0655,270.0746,587.0536,269.1791,576.0417,269.7754,576.0795,269.8666,575.5253,269.7072,574.9222,269.4298,574.3554,269.2398,573.6205,268.6441,573.0954,268.555,572.8862,268.4683,572.652,267.8832,572.5883,267.3687,572.3001,266.7611,572.3377,266.2885,571.875,265.6087,571.8143,265.6087,571.7559,257.3568,571.9543,249.1048,571.6435,240.8529,571.6947,232.6009,571.875,224.349,572.0832,224.4352,572.2588,223.8176,572.5988,223.268,572.504,222.5384,572.9537,222.0343,573.0954,221.4027,573.1738,221.5921,573.6219,221.0071,574.2612,220.8838,574.8799,220.7109,575.539,220.6354,576.0417,220.1823" style="stroke: #A80036; stroke-width: 1.5625;"/><text fill="#000000" font-family="&quot;Segoe Print&quot;" font-size="14.5833" lengthAdjust="spacingAndGlyphs" textLength="54.1667" x="587.5" y="250.946">Lubuntu</text><path d="M519.7917,209.7656 L519.7917,209.9602 L521.875,209.382 L523.9583,209.9446 L526.0417,210.1357 L528.125,209.1051 L530.2083,209.7656 L530.2083,209.7656 L530.19,209.7347 L531.9631,210.6962 L533.8287,211.8137 L535.7586,213.0397 L537.4669,213.892 L539.4857,215.2677 L539.7127,215.3867 L540.4968,217.5531 L541.9437,220.067 L543.4714,222.6233 L544.5286,224.9329 L545.8333,227.3722 L545.8613,227.3869 L547.0898,229.7863 L548.4456,232.2524 L549.74,234.6864 L551.1516,237.1818 L552.181,239.4768 L552.3395,239.744 L554.1969,240.8477 L555.9521,241.779 L557.8569,242.9626 L559.7687,244.1581 L561.4583,244.9788 L561.4583,244.3111 L563.5417,245.6071 L565.625,244.7043 L567.7083,245.4731 L569.7917,244.5205 L571.875,244.9788 " fill="none" style="stroke: #333333; stroke-width: 3.125;"/><polygon fill="#FEFECE" points="576.0417,290.6087,576.0417,290.8277,586.1111,290.1771,596.1806,290.8101,606.25,291.0251,616.3194,289.8656,626.3889,290.5278,636.4583,290.1645,646.5278,290.2092,656.5972,290.5377,666.6667,290.6087,666.5748,290.3869,667.3295,291.0304,667.7614,290.8947,668.4082,291.2775,669.0811,291.7236,669.6129,291.8291,669.5854,291.8177,669.8789,292.4274,670.0909,293.0034,670.4024,293.6206,670.666,294.2179,670.8333,294.7754,671.0367,294.7754,671.0663,303.0273,671.0692,311.2793,670.9217,319.5313,670.9943,327.7832,670.8333,336.0352,671.0586,336.1285,670.3579,336.5286,670.5628,337.3038,670.006,337.7635,670.0283,338.4631,669.6129,338.9814,669.5472,338.8226,669.0146,339.2035,668.533,339.7075,667.8387,339.698,667.2699,339.9915,666.6667,340.2018,666.6667,340.5546,656.5972,340.6354,646.5278,340.1978,636.4583,340.501,626.3889,339.6056,616.3194,340.4981,606.25,340.7729,596.1806,340.6649,586.1111,340.8404,576.0417,340.2018,575.9775,340.0469,575.3658,339.7485,574.7806,339.5143,574.2661,339.4507,573.6585,339.1625,573.0954,338.9814,573.314,339.072,572.7953,338.369,572.4972,337.7573,572.4364,337.244,571.9052,336.5358,571.875,336.0352,571.6947,336.0352,572.1003,327.7832,572.0263,319.5313,572.13,311.2793,571.7633,303.0273,571.875,294.7754,571.9774,294.8178,572.3085,294.2646,572.2116,293.5341,572.5765,292.9949,572.8917,292.4351,573.0954,291.8291,573.182,292.0382,573.6841,291.5837,574.3354,291.4893,574.7896,290.9192,575.3624,290.6355,576.0417,290.6087" style="stroke: #A80036; stroke-width: 1.5625;"/><text fill="#000000" font-family="&quot;Segoe Print&quot;" font-size="14.5833" lengthAdjust="spacingAndGlyphs" textLength="67.7083" x="587.5" y="321.3725">KDE Neon</text><path d="M519.7917,209.7656 L519.7917,209.9602 L521.875,209.382 L523.9583,209.9446 L526.0417,210.1357 L528.125,209.1051 L530.2083,209.7656 L530.2083,209.7656 L530.177,209.748 L531.8917,212.9701 L533.7645,216.2811 L535.7472,219.6539 L537.3512,222.8138 L539.4857,226.2718 L539.7371,226.3217 L539.8708,229.5988 L540.7386,233.0215 L541.696,236.462 L542.1323,239.7992 L542.8426,243.1907 L542.8738,243.1955 L543.4261,247.0674 L544.1206,250.9612 L544.7465,254.8444 L545.5032,258.7478 L545.8333,262.5854 L546.1404,262.6328 L546.7423,266.5123 L547.1461,270.3613 L547.8399,274.255 L548.5472,278.1508 L548.8241,281.9802 L548.4966,281.9152 L549.8036,285.4251 L550.0322,288.7211 L551.0806,292.1796 L551.2848,295.4707 L552.181,298.8991 L552.1533,298.8835 L554.3358,302.3685 L555.8723,305.4905 L557.7899,308.8267 L559.7395,312.1808 L561.4583,315.4053 L561.4583,315.7907 L563.5417,315.4017 L565.625,315.6712 L567.7083,314.8753 L569.7917,315.6686 L571.875,315.4053 " fill="none" style="stroke: #333333; stroke-width: 3.125;"/><path d="M389.5833,297.7987 L389.5833,297.9933 L391.6667,297.415 L393.75,297.9776 L395.8333,298.1687 L397.9167,297.1381 L400,297.7987 L400,297.7987 L399.9702,297.7785 L401.6918,294.9372 L403.5637,292.1973 L405.5402,289.5279 L407.1565,286.6156 L409.2773,284.0435 L409.5267,284.1029 L409.6649,281.1561 L410.531,278.3827 L411.486,275.6304 L411.9243,272.7551 L412.6343,269.9445 L412.6653,269.9502 L413.2179,266.7093 L413.9118,263.4946 L414.5376,260.2672 L415.2935,257.0639 L415.625,253.7821 L415.9305,253.8387 L416.5324,250.6069 L416.9372,247.3387 L417.6305,244.1238 L418.3373,240.9114 L418.6157,237.6198 L418.2909,237.5425 L419.5927,234.8728 L419.825,231.9484 L420.8703,229.2176 L421.0783,226.2875 L421.9727,223.5208 L421.9464,223.5031 L424.1128,220.9617 L425.6649,218.0061 L427.5795,215.2949 L429.5245,212.6043 L431.25,209.7656 L431.25,210.151 L433.3333,209.762 L435.4167,210.0316 L437.5,209.2356 L439.5833,210.0289 L441.6667,209.7656 " fill="none" style="stroke: #333333; stroke-width: 3.125;"/><polygon fill="#FEFECE" points="445.8333,255.3955,445.8333,255.6144,456.25,254.9639,466.6667,255.5968,477.0833,255.8118,487.5,254.6524,497.9167,255.3146,508.3333,255.3955,508.2767,255.2587,508.8716,255.5166,509.5028,255.8618,510.0092,255.906,510.7639,256.5494,511.2796,256.6159,511.0774,256.5321,511.4602,257.1789,511.9063,257.8518,511.9843,258.3723,512.2778,258.982,512.5,259.5622,512.4889,259.5622,512.562,267.8141,512.583,276.0661,512.7034,284.318,512.733,292.57,512.5,300.8219,512.7179,300.9122,512.3376,301.445,512.1606,302.0621,511.993,302.683,511.2923,303.0831,511.2796,303.7682,511.3698,303.9859,510.651,303.9172,510.172,304.4276,509.4461,304.3417,508.9135,304.7226,508.3333,304.9886,508.3333,305.7611,497.9167,304.9378,487.5,305.0983,477.0833,305.3413,466.6667,305.4222,456.25,304.9845,445.8333,304.9886,445.8715,305.0807,445.168,304.5609,444.6926,304.5917,444.1384,304.4322,443.5354,304.1549,442.8871,303.7682,443.0837,303.8497,442.488,303.1148,442.1897,302.503,441.9555,301.9179,441.8919,301.4034,441.6667,300.8219,441.5984,300.8219,441.9033,292.57,441.606,284.318,441.5476,276.0661,441.7459,267.8141,441.6667,259.5622,441.4528,259.4736,441.7442,258.9039,442.363,258.4699,442.5387,257.8523,442.8786,257.3027,442.8871,256.6159,442.8443,256.5127,443.5187,256.4742,444.144,256.3171,444.5921,255.7321,445.2313,255.6088,445.8333,255.3955" style="stroke: #A80036; stroke-width: 1.5625;"/><text fill="#000000" font-family="&quot;Segoe Print&quot;" font-size="14.5833" lengthAdjust="spacingAndGlyphs" textLength="39.5833" x="457.2917" y="286.1593">LMDE</text><path d="M389.5833,297.7987 L389.5833,297.9933 L391.6667,297.415 L393.75,297.9776 L395.8333,298.1687 L397.9167,297.1381 L400,297.7987 L400,297.7987 L399.9823,297.7673 L403.0281,295.866 L406.1628,294.1227 L409.3595,292.4892 L412.3429,290.4772 L415.625,288.9954 L415.7508,289.2187 L418.6068,286.9805 L421.8301,285.3943 L425.0982,283.8876 L428.1055,281.9181 L431.25,280.1921 L431.25,280.2552 L433.3333,280.1625 L435.4167,280.3574 L437.5,280.4135 L439.5833,280.7344 L441.6667,280.1921 " fill="none" style="stroke: #333333; stroke-width: 3.125;"/><polygon fill="#FEFECE" points="445.8333,325.8219,445.8333,326.0409,456.8452,325.3904,467.8571,326.0233,478.869,326.2383,489.881,325.0788,500.8929,325.741,511.9048,325.3777,522.9167,325.8219,522.8657,325.6989,523.4969,326.0442,524.0033,326.0883,524.758,326.7318,525.1899,326.5961,525.8629,327.0423,525.7995,327.0161,526.2456,327.689,526.3236,328.2094,526.6171,328.8192,526.829,329.3951,527.0833,329.9886,527.1453,329.9886,527.1664,338.2406,527.2867,346.4925,527.3163,354.7445,527.3192,362.9964,527.0833,371.2484,527.165,371.2822,526.988,371.8992,526.8204,372.5202,526.1198,372.9203,526.3247,373.6956,525.8629,374.1947,525.8235,374.0995,525.3446,374.61,524.6187,374.524,524.0861,374.9049,523.6045,375.4089,522.9167,375.415,522.9167,375.3643,511.9048,375.5247,500.8929,375.7678,489.881,375.8486,478.869,375.411,467.8571,375.7142,456.8452,374.8188,445.8333,375.415,445.8711,375.5063,445.3169,375.3468,444.7139,375.0695,444.147,374.8795,443.4121,374.2838,442.8871,374.1947,442.6778,374.108,442.4436,373.5228,442.38,373.0083,442.0918,372.4008,442.1293,371.9282,441.6667,371.2484,441.606,371.2484,441.5476,362.9964,441.7459,354.7445,441.4351,346.4925,441.4864,338.2406,441.6667,329.9886,441.8748,330.0748,442.0505,329.4572,442.3904,328.9077,442.2957,328.1781,442.7454,327.674,442.8871,327.0423,442.9655,327.2317,443.4135,326.6467,444.0528,326.5234,444.6716,326.3505,445.3307,326.2751,445.8333,325.8219" style="stroke: #A80036; stroke-width: 1.5625;"/><text fill="#000000" font-family="&quot;Segoe Print&quot;" font-size="14.5833" lengthAdjust="spacingAndGlyphs" textLength="54.1667" x="457.2917" y="356.5857">SolydXK</text><path d="M389.5833,297.7987 L389.5833,297.9933 L391.6667,297.415 L393.75,297.9776 L395.8333,298.1687 L397.9167,297.1381 L400,297.7987 L400,297.7987 L399.9761,297.7718 L401.7242,299.3018 L403.5929,300.9673 L405.5454,302.7269 L407.2091,304.162 L409.2773,306.0518 L409.5193,306.1364 L410.2714,309.5868 L411.73,313.2843 L413.2747,317.0118 L414.318,320.5641 L415.625,324.2086 L415.6548,324.219 L416.8806,327.8351 L418.2421,331.4986 L419.5381,335.1392 L420.9591,338.8235 L421.9727,342.3654 L422.1791,342.5975 L424.0371,344.251 L425.7619,345.7547 L427.6817,347.4776 L429.6106,349.2108 L431.25,350.6185 L431.25,349.9507 L433.3333,351.2467 L435.4167,350.3439 L437.5,351.1128 L439.5833,350.1601 L441.6667,350.6185 " fill="none" style="stroke: #333333; stroke-width: 3.125;"/><polygon fill="#FEFECE" points="445.8333,396.2484,445.8333,396.4673,456.5104,395.8168,467.1875,396.4497,477.8646,396.6647,488.5417,395.5053,499.2188,396.1674,509.8958,395.8041,520.5729,395.8489,531.25,396.2484,531.2409,396.2265,531.7474,396.2707,532.5021,396.9141,532.934,396.7784,533.5807,397.1612,534.1963,397.4688,534.3348,397.5262,534.4128,398.0466,534.7063,398.6563,534.9183,399.2323,535.2299,399.8495,535.4167,400.415,535.4997,400.415,535.62,408.667,535.6497,416.9189,535.6525,425.1709,535.5051,433.4229,535.4167,441.6748,535.5654,441.7364,535.3979,442.3574,534.6972,442.7575,534.9021,443.5327,534.3452,443.9924,534.1963,444.6211,534.2672,444.7923,533.5412,444.7064,533.0087,445.0873,532.5271,445.5912,531.8328,445.5818,531.25,445.8415,531.25,445.9512,520.5729,446.1942,509.8958,446.275,499.2188,445.8374,488.5417,446.1407,477.8646,445.2452,467.1875,446.1377,456.5104,446.4125,445.8333,445.8415,445.8924,445.9841,445.3255,445.794,444.5906,445.1983,443.9789,444.9,443.3937,444.6658,442.8871,444.6211,442.8682,444.6133,442.5799,444.0057,442.6175,443.5331,442.0988,442.8301,441.8007,442.2185,441.6667,441.6748,441.7459,441.6748,441.4351,433.4229,441.4864,425.1709,441.892,416.9189,441.8179,408.667,441.6667,400.415,441.9023,400.5126,441.8075,399.783,442.2572,399.2789,442.5883,398.7257,442.4914,397.9952,442.8871,397.4688,442.8743,397.438,443.4931,397.2651,444.1522,397.1897,444.6543,396.7352,445.3055,396.6408,445.8333,396.2484" style="stroke: #A80036; stroke-width: 1.5625;"/><text fill="#000000" font-family="&quot;Segoe Print&quot;" font-size="14.5833" lengthAdjust="spacingAndGlyphs" textLength="62.5" x="457.2917" y="427.0121">SteamOS</text><path d="M389.5833,297.7987 L389.5833,297.9933 L391.6667,297.415 L393.75,297.9776 L395.8333,298.1687 L397.9167,297.1381 L400,297.7987 L400,297.7987 L399.9743,297.7735 L400.8966,298.7196 L401.9484,299.7927 L403.0903,300.954 L403.9217,301.8113 L405.188,303.0944 L405.434,303.1665 L405.7258,305.8047 L406.7359,308.6533 L407.8335,311.5275 L408.4214,314.2524 L409.2773,317.0559 L409.3085,317.0612 L409.9341,321.0011 L410.7016,324.9652 L411.4006,328.9176 L412.2302,332.8923 L412.6343,336.7946 L412.9423,336.8353 L413.5442,341.3612 L413.9474,345.8609 L414.6415,350.399 L415.3492,354.9389 L415.625,359.4218 L415.294,359.378 L416.5346,363.9884 L416.6852,368.4547 L417.6644,373.0305 L417.7904,377.4936 L418.6157,382.049 L418.5845,382.0437 L419.6256,386.0543 L419.9363,389.9407 L420.6779,393.9004 L421.4558,397.8662 L421.9727,401.7877 L422.1576,401.8419 L422.7888,404.5795 L423.736,407.4097 L424.1719,410.0901 L425.3705,412.9939 L426.062,415.7492 L426.2433,415.9268 L427.2466,416.9524 L428.3399,418.0661 L429.015,418.7701 L429.9967,419.7745 L431.25,421.0449 L431.25,420.4696 L433.3333,420.9904 L435.4167,420.863 L437.5,421.6759 L439.5833,420.8832 L441.6667,421.0449 " fill="none" style="stroke: #333333; stroke-width: 3.125;"/><polygon fill="#FEFECE" points="445.8333,466.6748,445.8333,466.8937,456.5104,466.2432,467.1875,466.8761,477.8646,467.0911,488.5417,465.9317,499.2188,466.5939,509.8958,466.2305,520.5729,466.2753,531.25,466.6748,531.2409,466.6529,531.7474,466.6971,532.5021,467.3406,532.934,467.2048,533.5807,467.5877,534.1963,467.8952,534.3348,467.9526,534.4128,468.4731,534.7063,469.0828,534.9183,469.6587,535.2299,470.2759,535.4167,470.8415,535.4997,470.8415,535.62,479.0934,535.6497,487.3454,535.6525,495.5973,535.5051,503.8493,535.4167,512.1012,535.5654,512.1628,535.3979,512.7838,534.6972,513.1839,534.9021,513.9592,534.3452,514.4189,534.1963,515.0475,534.2672,515.2188,533.5412,515.1328,533.0087,515.5137,532.5271,516.0176,531.8328,516.0082,531.25,516.2679,531.25,516.3776,520.5729,516.6206,509.8958,516.7015,499.2188,516.2638,488.5417,516.5671,477.8646,515.6716,467.1875,516.5641,456.5104,516.8389,445.8333,516.2679,445.8924,516.4105,445.3255,516.2205,444.5906,515.6248,443.9789,515.3265,443.3937,515.0923,442.8871,515.0475,442.8682,515.0397,442.5799,514.4321,442.6175,513.9595,442.0988,513.2565,441.8007,512.6449,441.6667,512.1012,441.7459,512.1012,441.4351,503.8493,441.4864,495.5973,441.892,487.3454,441.8179,479.0934,441.6667,470.8415,441.9023,470.9391,441.8075,470.2095,442.2572,469.7054,442.5883,469.1522,442.4914,468.4217,442.8871,467.8952,442.8743,467.8644,443.4931,467.6915,444.1522,467.6161,444.6543,467.1616,445.3055,467.0673,445.8333,466.6748" style="stroke: #A80036; stroke-width: 1.5625;"/><text fill="#000000" font-family="&quot;Segoe Print&quot;" font-size="14.5833" lengthAdjust="spacingAndGlyphs" textLength="62.5" x="457.2917" y="497.4386">Raspbian</text><path d="M389.5833,297.7987 L389.5833,297.9933 L391.6667,297.415 L393.75,297.9776 L395.8333,298.1687 L397.9167,297.1381 L400,297.7987 L400,297.7987 L399.9695,297.7796 L400.87,299.3586 L401.9245,301.0335 L403.086,302.7751 L403.8788,304.2868 L405.188,306.1205 L405.438,306.1771 L405.3352,307.9664 L405.9623,309.9208 L406.6785,311.8954 L406.8765,313.7528 L407.3471,315.6718 L407.3783,315.6766 L407.7185,318.1472 L408.2009,320.6398 L408.6146,323.1218 L409.1592,325.6241 L409.2773,328.06 L409.5858,328.0968 L409.939,331.0288 L410.0933,333.9371 L410.5387,336.8801 L410.9979,339.8248 L411.0245,342.7179 L410.6922,342.6852 L411.6591,346.0206 L411.5318,349.2484 L412.2363,352.5581 L412.0842,355.7835 L412.6343,359.0779 L412.6027,359.0753 L413.5745,366.2181 L413.8081,373.2989 L414.4773,380.4163 L415.1831,387.5367 L415.625,394.635 L415.817,394.6512 L416.2213,401.7463 L416.9538,408.869 L417.1554,415.9471 L418.1488,423.0917 L418.6157,430.1921 L418.8683,430.217 L419.1425,433.4843 L419.5421,436.7639 L419.359,439.9862 L419.6031,443.2506 L420.2255,446.5522 L419.9399,446.5181 L420.5479,449.4805 L420.834,452.4045 L421.5871,455.3842 L421.5429,458.2689 L421.9727,461.21 L421.8157,461.1855 L422.4631,463.7039 L422.4397,466.1178 L422.8933,468.6059 L423.8137,471.1668 L423.9029,473.5982 L424.0996,473.6427 L424.6664,475.5835 L424.6212,477.3859 L425.3425,479.3616 L425.8968,481.2995 L426.062,483.1495 L425.8764,483.0338 L427.0619,484.7904 L428.1867,486.5091 L429.4309,488.3022 L430.2108,489.806 L431.25,491.4714 L431.25,491.8997 L433.3333,490.9586 L435.4167,490.8443 L437.5,491.9377 L439.5833,490.8075 L441.6667,491.4714 " fill="none" style="stroke: #333333; stroke-width: 3.125;"/><polygon fill="#FEFECE" points="179.1667,184.9691,179.1667,185.188,189.375,184.5375,199.5833,185.1704,209.7917,185.3854,220,184.226,230.2083,184.8881,240.4167,184.5248,250.625,184.5696,260.8333,184.8981,271.0417,184.2489,281.25,184.9691,281.3236,185.1467,281.7555,185.011,282.4022,185.3938,283.0752,185.8399,283.5956,185.9179,284.1963,186.1895,284.2182,186.1985,284.4301,186.7745,284.7417,187.3917,285.0052,187.989,285.3605,188.6243,285.4167,189.1357,285.6497,189.1357,285.6525,197.3877,285.5051,205.6396,285.5776,213.8916,285.6605,222.1436,285.4167,230.3955,285.1853,230.2997,285.3902,231.0749,284.8334,231.5346,284.8557,232.2342,284.2816,232.6868,284.1963,233.3418,284.1872,233.3198,283.7056,233.8238,283.0113,233.8143,282.4425,234.1078,281.8843,234.4267,281.25,234.5622,281.25,234.9957,271.0417,234.5581,260.8333,234.8614,250.625,233.9659,240.4167,234.8584,230.2083,235.1332,220,235.0252,209.7917,235.2007,199.5833,234.059,189.375,233.8828,179.1667,234.5622,179.0841,234.3628,178.5696,234.2992,177.962,234.011,177.4894,234.0485,176.7864,233.5298,176.2204,233.3418,176.1103,233.2962,176.0495,232.7829,175.5183,232.0747,175.3216,231.505,175.4523,231.071,175,230.3955,175.1513,230.3955,175.255,222.1436,174.8883,213.8916,175.1108,205.6396,175.205,197.3877,175,189.1357,174.8485,189.073,175.2133,188.5337,175.5286,187.974,175.9413,187.4546,175.975,186.7782,176.2204,186.1895,176.2819,186.3379,176.7361,185.7677,177.3089,185.4841,178.0551,185.6188,178.4821,184.9832,179.1667,184.9691" style="stroke: #A80036; stroke-width: 1.5625;"/><text fill="#000000" font-family="&quot;Segoe Print&quot;" font-size="14.5833" lengthAdjust="spacingAndGlyphs" textLength="79.1667" x="190.625" y="215.7328">Windows 95</text><path d="M337.5,297.7987 L337.5,297.9933 L335.4167,297.415 L333.3333,297.9776 L331.25,298.1687 L329.1667,297.1381 L327.0833,297.7987 L327.0833,297.7987 L327.0535,297.7785 L325.0642,294.9372 L323.2252,292.1973 L321.4908,289.5279 L319.3961,286.6156 L317.806,284.0435 L318.0553,284.1029 L316.8507,281.1561 L316.3741,278.3827 L315.9864,275.6304 L315.0818,272.7551 L314.4491,269.9445 L314.4801,269.9502 L313.8364,266.7093 L313.334,263.4946 L312.7635,260.2672 L312.3231,257.0639 L311.4583,253.7821 L311.7638,253.8387 L311.1694,250.6069 L310.378,247.3387 L309.8749,244.1238 L309.3854,240.9114 L308.4676,237.6198 L308.1428,237.5425 L308.1018,234.8728 L306.9913,231.9484 L306.6939,229.2176 L305.5591,226.2875 L305.1107,223.5208 L305.0844,223.5031 L303.5399,220.9617 L301.381,218.0061 L299.5847,215.2949 L297.8188,212.6043 L295.8333,209.7656 L295.8333,210.151 L293.75,209.762 L291.6667,210.0316 L289.5833,209.2356 L287.5,210.0289 L285.4167,209.7656 " fill="none" style="stroke: #333333; stroke-width: 3.125;"/><polygon fill="#FEFECE" points="179.1667,255.3955,179.1667,255.6144,189.375,254.9639,199.5833,255.5968,209.7917,255.8118,220,254.6524,230.2083,255.3146,240.4167,254.9512,250.625,254.996,260.8333,255.3245,271.0417,254.6753,281.25,255.3955,281.3236,255.5731,281.7555,255.4374,282.4022,255.8202,283.0752,256.2663,283.5956,256.3443,284.1963,256.6159,284.2182,256.625,284.4301,257.2009,284.7417,257.8181,285.0052,258.4154,285.3605,259.0507,285.4167,259.5622,285.6497,259.5622,285.6525,267.8141,285.5051,276.0661,285.5776,284.318,285.6605,292.57,285.4167,300.8219,285.1853,300.7261,285.3902,301.5014,284.8334,301.9611,284.8557,302.6606,284.2816,303.1132,284.1963,303.7682,284.1872,303.7462,283.7056,304.2502,283.0113,304.2407,282.4425,304.5342,281.8843,304.8532,281.25,304.9886,281.25,305.4222,271.0417,304.9845,260.8333,305.2878,250.625,304.3923,240.4167,305.2848,230.2083,305.5596,220,305.4517,209.7917,305.6272,199.5833,304.4854,189.375,304.3092,179.1667,304.9886,179.0841,304.7893,178.5696,304.7256,177.962,304.4374,177.4894,304.475,176.7864,303.9563,176.2204,303.7682,176.1103,303.7226,176.0495,303.2093,175.5183,302.5011,175.3216,301.9315,175.4523,301.4974,175,300.8219,175.1513,300.8219,175.255,292.57,174.8883,284.318,175.1108,276.0661,175.205,267.8141,175,259.5622,174.8485,259.4994,175.2133,258.9602,175.5286,258.4004,175.9413,257.881,175.975,257.2046,176.2204,256.6159,176.2819,256.7643,176.7361,256.1942,177.3089,255.9105,178.0551,256.0452,178.4821,255.4096,179.1667,255.3955" style="stroke: #A80036; stroke-width: 1.5625;"/><text fill="#000000" font-family="&quot;Segoe Print&quot;" font-size="14.5833" lengthAdjust="spacingAndGlyphs" textLength="79.1667" x="190.625" y="286.1593">Windows 98</text><path d="M337.5,297.7987 L337.5,297.9933 L335.4167,297.415 L333.3333,297.9776 L331.25,298.1687 L329.1667,297.1381 L327.0833,297.7987 L327.0833,297.7987 L327.0657,297.7673 L323.8614,295.866 L320.7462,294.1227 L317.6928,292.4892 L314.4262,290.4772 L311.4583,288.9954 L311.5841,289.2187 L308.1901,286.9805 L305.1634,285.3943 L302.1815,283.8876 L298.9388,281.9181 L295.8333,280.1921 L295.8333,280.2552 L293.75,280.1625 L291.6667,280.3574 L289.5833,280.4135 L287.5,280.7344 L285.4167,280.1921 " fill="none" style="stroke: #333333; stroke-width: 3.125;"/><polygon fill="#FEFECE" points="177.0833,325.8219,177.0833,326.0409,187.5,325.3904,197.9167,326.0233,208.3333,326.2383,218.75,325.0788,229.1667,325.741,239.5833,325.3777,250,325.4225,260.4167,325.7509,270.8333,325.1018,281.25,325.8219,281.3236,325.9995,281.7555,325.8638,282.4022,326.2467,283.0752,326.6927,283.5956,326.7707,284.1963,327.0423,284.2182,327.0514,284.4301,327.6273,284.7417,328.2446,285.0052,328.8419,285.3605,329.4772,285.4167,329.9886,285.6497,329.9886,285.6525,338.2406,285.5051,346.4925,285.5776,354.7445,285.6605,362.9964,285.4167,371.2484,285.1853,371.1525,285.3902,371.9278,284.8334,372.3875,284.8557,373.0871,284.2816,373.5396,284.1963,374.1947,284.1872,374.1727,283.7056,374.6766,283.0113,374.6672,282.4425,374.9607,281.8843,375.2796,281.25,375.415,281.25,375.8486,270.8333,375.411,260.4167,375.7142,250,374.8188,239.5833,375.7113,229.1667,375.9861,218.75,375.8781,208.3333,376.0536,197.9167,374.9118,187.5,374.7357,177.0833,375.415,177.0008,375.2157,176.4863,375.1521,175.8787,374.8638,175.4061,374.9014,174.7031,374.3827,174.1371,374.1947,174.027,374.1491,173.9662,373.6357,173.435,372.9275,173.2383,372.3579,173.3689,371.9239,172.9167,371.2484,173.0679,371.2484,173.1717,362.9964,172.8049,354.7445,173.0275,346.4925,173.1217,338.2406,172.9167,329.9886,172.7651,329.9258,173.13,329.3866,173.4452,328.8268,173.858,328.3074,173.8916,327.631,174.1371,327.0423,174.1985,327.1907,174.6527,326.6206,175.2256,326.3369,175.9717,326.4717,176.3988,325.836,177.0833,325.8219" style="stroke: #A80036; stroke-width: 1.5625;"/><text fill="#000000" font-family="&quot;Segoe Print&quot;" font-size="14.5833" lengthAdjust="spacingAndGlyphs" textLength="81.25" x="188.5417" y="356.5857">Windows NT</text><polygon fill="#FEFECE" points="22.9167,290.6087,22.9167,290.8277,33.3333,290.1771,43.75,290.8101,54.1667,291.0251,64.5833,289.8656,75,290.5278,85.4167,290.1645,95.8333,290.2092,106.25,290.5377,116.6667,290.6087,116.5748,290.3869,117.3295,291.0304,117.7614,290.8947,118.4082,291.2775,119.0811,291.7236,119.6129,291.8291,119.5854,291.8177,119.8789,292.4274,120.0909,293.0034,120.4024,293.6206,120.666,294.2179,120.8333,294.7754,121.0367,294.7754,121.0663,303.0273,121.0692,311.2793,120.9217,319.5313,120.9943,327.7832,120.8333,336.0352,121.0586,336.1285,120.3579,336.5286,120.5628,337.3038,120.006,337.7635,120.0283,338.4631,119.6129,338.9814,119.5472,338.8226,119.0146,339.2035,118.533,339.7075,117.8387,339.698,117.2699,339.9915,116.6667,340.2018,116.6667,340.5546,106.25,340.6354,95.8333,340.1978,85.4167,340.501,75,339.6056,64.5833,340.4981,54.1667,340.7729,43.75,340.6649,33.3333,340.8404,22.9167,340.2018,22.8525,340.0469,22.2408,339.7485,21.6556,339.5143,21.1411,339.4507,20.5335,339.1625,19.9704,338.9814,20.189,339.072,19.6703,338.369,19.3722,337.7573,19.3114,337.244,18.7802,336.5358,18.75,336.0352,18.5697,336.0352,18.9753,327.7832,18.9013,319.5313,19.005,311.2793,18.6383,303.0273,18.75,294.7754,18.8524,294.8178,19.1835,294.2646,19.0866,293.5341,19.4515,292.9949,19.7667,292.4351,19.9704,291.8291,20.057,292.0382,20.5591,291.5837,21.2104,291.4893,21.6646,290.9192,22.2374,290.6355,22.9167,290.6087" style="stroke: #A80036; stroke-width: 1.5625;"/><text fill="#000000" font-family="&quot;Segoe Print&quot;" font-size="14.5833" lengthAdjust="spacingAndGlyphs" textLength="70.8333" x="34.375" y="321.3725">Windows 8</text><path d="M172.9167,350.6185 L172.9167,350.8131 L170.8333,350.2349 L168.75,350.7975 L166.6667,350.9886 L164.5833,349.9579 L162.5,350.6185 L162.5,350.6185 L162.4816,350.5875 L160.5438,349.3482 L158.6985,348.265 L156.9175,347.2901 L154.9149,345.9415 L153.2227,345.1164 L153.4497,345.2355 L151.6947,342.56 L150.6025,340.2321 L149.5912,337.9466 L148.1094,335.4143 L146.875,333.0119 L146.903,333.0266 L145.5924,330.5841 L144.4091,328.2084 L143.1645,325.8006 L142.037,323.4542 L140.5273,320.9073 L140.6858,321.1746 L138.8323,320.0774 L136.8765,318.8079 L135.0704,317.7907 L133.2713,316.7853 L131.25,315.4053 L131.25,314.7375 L129.1667,316.0335 L127.0833,315.1307 L125,315.8995 L122.9167,314.9469 L120.8333,315.4053 " fill="none" style="stroke: #333333; stroke-width: 3.125;"/><polygon fill="#FEFECE" points="14.5833,361.0352,14.5833,361.2541,24.7917,360.6036,35,361.2365,45.2083,361.4515,55.4167,360.292,65.625,360.9542,75.8333,360.5909,86.0417,360.6357,96.25,360.9642,106.4583,360.315,116.6667,361.0352,116.7402,361.2128,117.1722,361.077,117.8189,361.4599,118.4918,361.906,119.0123,361.984,119.6129,362.2555,119.6348,362.2646,119.8468,362.8406,120.1584,363.4578,120.4219,364.0551,120.7771,364.6904,120.8333,365.2018,121.0663,365.2018,121.0692,373.4538,120.9217,381.7057,120.9943,389.9577,121.0772,398.2096,120.8333,406.4616,120.602,406.3658,120.8069,407.141,120.2501,407.6007,120.2723,408.3003,119.6982,408.7528,119.6129,409.4079,119.6038,409.3859,119.1222,409.8898,118.428,409.8804,117.8592,410.1739,117.3009,410.4928,116.6667,410.6283,116.6667,411.0618,106.4583,410.6242,96.25,410.9274,86.0417,410.032,75.8333,410.9245,65.625,411.1993,55.4167,411.0913,45.2083,411.2668,35,410.125,24.7917,409.9489,14.5833,410.6283,14.5008,410.4289,13.9863,410.3653,13.3787,410.0771,12.9061,410.1146,12.2031,409.5959,11.6371,409.4079,11.527,409.3623,11.4662,408.8489,10.935,408.1407,10.7383,407.5711,10.8689,407.1371,10.4167,406.4616,10.5679,406.4616,10.6717,398.2096,10.3049,389.9577,10.5275,381.7057,10.6217,373.4538,10.4167,365.2018,10.2651,365.1391,10.63,364.5998,10.9452,364.0401,11.358,363.5207,11.3916,362.8442,11.6371,362.2555,11.6985,362.4039,12.1527,361.8338,12.7256,361.5501,13.4717,361.6849,13.8988,361.0492,14.5833,361.0352" style="stroke: #A80036; stroke-width: 1.5625;"/><text fill="#000000" font-family="&quot;Segoe Print&quot;" font-size="14.5833" lengthAdjust="spacingAndGlyphs" textLength="79.1667" x="26.0417" y="391.7989">Windows 10</text><path d="M172.9167,350.6185 L172.9167,350.8131 L170.8333,350.2349 L168.75,350.7975 L166.6667,350.9886 L164.5833,349.9579 L162.5,350.6185 L162.5,350.6185 L162.4816,350.5875 L160.5438,351.5491 L158.6985,352.6666 L156.9175,353.8926 L154.9149,354.7448 L153.2227,356.1206 L153.4497,356.2396 L151.6947,358.4059 L150.6025,360.9199 L149.5912,363.4762 L148.1094,365.7857 L146.875,368.2251 L146.903,368.2398 L145.5924,370.6391 L144.4091,373.1053 L143.1645,375.5392 L142.037,378.0347 L140.5273,380.3296 L140.6858,380.5969 L138.8323,381.7005 L136.8765,382.6319 L135.0704,383.8155 L133.2713,385.0109 L131.25,385.8317 L131.25,385.1639 L129.1667,386.46 L127.0833,385.5572 L125,386.326 L122.9167,385.3734 L120.8333,385.8317 " fill="none" style="stroke: #333333; stroke-width: 3.125;"/><path d="M337.5,297.7987 L337.5,297.9933 L335.4167,297.415 L333.3333,297.9776 L331.25,298.1687 L329.1667,297.1381 L327.0833,297.7987 L327.0833,297.7987 L327.0594,297.7718 L325.0966,299.3018 L323.2544,300.9673 L321.496,302.7269 L319.4487,304.162 L317.806,306.0518 L318.0479,306.1364 L316.261,309.5868 L315.1805,313.2843 L314.1862,317.0118 L312.6904,320.5641 L311.4583,324.2086 L311.4882,324.219 L310.1748,327.8351 L308.9973,331.4986 L307.7542,335.1392 L306.6362,338.8235 L305.1107,342.3654 L305.3172,342.5975 L303.4642,344.251 L301.4781,345.7547 L299.6869,347.4776 L297.9049,349.2108 L295.8333,350.6185 L295.8333,349.9507 L293.75,351.2467 L291.6667,350.3439 L289.5833,351.1128 L287.5,350.1601 L285.4167,350.6185 " fill="none" style="stroke: #333333; stroke-width: 3.125;"/><!--MD5=[8ee653559eea710b88c8c0c541df8e79]
@startmindmap



skinparam backgroundColor transparent
skinparam handwritten true
skinparam shadowing false







skinparam defaultFontName       "Segoe Print"
skinparam defaultFontSize       12
skinparam dpi                   100
skinparam shadowing             false
skinparam roundcorner           8
skinparam ParticipantPadding    40
skinparam BoxPadding            40
skinparam Padding               5
skinparam ArrowColor            #555555
skinparam stereotype {
    CBackgroundColor #666666
    CBorderColor #4d4d4d
    ABackgroundColor #3eb058
    ABorderColor #24963e
    IBackgroundColor #e04958
    IBorderColor #c6303e
    EBackgroundColor #ffc720
    EBorderColor #e6ae06
    NBackgroundColor #2eabbf
    NBorderColor #1592a6
}
skinparam title {
	FontColor	                 #ffffff
	BorderColor	                 #4d4d4d
	FontSize	    	         20
	BorderRoundCorner            8
	BorderThickness 	         1
	BackgroundColor              #666666-#555555
}

skinparam legend {
	BackgroundColor #555555
	BorderColor #4d4d4d
	FontColor #ffffff
}

skinparam swimlane {
	BorderColor #17a2b8
	BorderThickness 2
	TitleBackgroundColor  #666666-#555555
	TitleFontColor #333333
}


skinparam activity {
		FontColor #ffffff
	BorderColor #333333
	BackgroundColor #474747
	BarColor #28a745
	StartColor #17a2b8
	EndColor #17a2b8
	DiamondBackgroundColor #666666
  	DiamondBorderColor #4d4d4d
  	DiamondFontColor #ffffff
}


skinparam participant {
		FontColor #ffffff
	BorderColor #333333
	BackgroundColor #474747
	ParticipantBorderThickness 2
}


skinparam actor {
		FontColor #ffffff
	BorderColor #333333
	BackgroundColor #474747
}


skinparam arrow {
	Thickness 3
	Color #333333
	FontColor #ffffff
}


skinparam sequence {
	BorderColor #333333
	TitleFontColor #333333
	BackgroundColor transparent
	StartColor #333333
	EndColor #333333
	BoxBackgroundColor transparent
	BoxBorderColor #555555
	BoxFontColor $DARk
	LifeLineBorderColor #555555
	LifeLineBorderThickness 2
	LifeLineBackgroundColor #4d4d4d
	GroupBorderColor #555555
	GroupFontColor #555555
	GroupHeaderFontColor #17a2b8
	GroupBackgroundColor #555555
	GroupHeaderBackgroundColor transparent
	DividerBackgroundColor #555555
    DividerBorderColor #555555
    DividerBorderThickness 2
    DividerFontColor #ffffff
	ReferenceBackgroundColor transparent
	ReferenceBorderColor #555555
	ReferenceFontColor #555555
	ReferenceHeaderFontColor #17a2b8
	ReferenceHeaderBackgroundColor #555555
}


skinparam partition {
	BorderColor #333333
	FontColor #333333
	BackgroundColor transparent
}


skinparam collections {
		FontColor #ffffff
	BorderColor #333333
	BackgroundColor #474747
}


skinparam control {
		FontColor #ffffff
	BorderColor #333333
	BackgroundColor #474747
}


skinparam entity {
		FontColor #ffffff
	BorderColor #333333
	BackgroundColor #474747
}


skinparam boundary {
		FontColor #ffffff
	BorderColor #333333
	BackgroundColor #474747
}


skinparam agent {
	BackgroundColor #ffc107
	BorderColor #ffc720
	FontColor #555555
}


skinparam note {
	BorderThickness 1
	BackgroundColor #17a2b8
	BorderColor #1592a6
	FontColor #ffffff
}


skinparam artifact {
	BackgroundColor #555555
	BorderColor #4d4d4d
	FontColor #ffffff
}


skinparam component {
		FontColor #ffffff
	BorderColor #333333
	BackgroundColor #474747
}


skinparam interface {
	BackgroundColor  #c6303e
	BorderColor  #dc3545
	FontColor #555555
}


skinparam storage {
	BackgroundColor #ffc107
  	BorderColor #e6ae06
	FontColor #ffffff
}


skinparam node {
	BackgroundColor  #555555
	BorderColor #ffffff
	FontColor #ffffff
}


skinparam cloud {
	BackgroundColor #F2FCFE-#eeeeee
	BorderColor #F2FCFE
	FontColor #555555
}


skinparam database {
		FontColor #ffffff
	BorderColor #333333
	BackgroundColor #474747
}


skinparam class {
		FontColor #ffffff
	BorderColor #333333
	BackgroundColor #474747
	FontColor #ffffff
	HeaderBackgroundColor #474747
	StereotypeFontColor #555555
	BorderThickness 1
	AttributeFontColor #ffffff
	AttributeFontSize 11
}


skinparam object {
		FontColor #ffffff
	BorderColor #333333
	BackgroundColor #474747
	StereotypeFontColor #555555
	BorderThickness 1
	AttributeFontColor #ffffff
	AttributeFontSize 11
}


skinparam usecase {
		FontColor #ffffff
	BorderColor #333333
	BackgroundColor #474747
	BorderThickness 2
	StereotypeFontColor #333333
}


skinparam rectangle {
		FontColor #ffffff
	BorderColor #333333
	BackgroundColor #474747
	BackgroundColor #666666
	BorderThickness 2
	StereotypeFontColor #333333
}


skinparam package {
	BackgroundColor #555555
  	BorderColor #333333
	FontColor #333333
	BorderThickness 2
}


skinparam folder {
	BackgroundColor #666666
  	BorderColor #ffc107
	FontColor #ffc107
	BorderThickness 2
}


skinparam frame {
	BackgroundColor #666666
  	BorderColor #17a2b8
	FontColor #17a2b8
	BorderThickness 2
}


skinparam state {
		FontColor #ffffff
	BorderColor #333333
	BackgroundColor #474747
	StartColor #17a2b8
	EndColor #17a2b8
	AttributeFontColor #ffffff
	AttributeFontSize 11
}


skinparam queue {
		FontColor #ffffff
	BorderColor #333333
	BackgroundColor #474747
}


skinparam card {
	BackgroundColor #17a2b8
	BorderColor #1592a6
	FontColor #ffffff
}


skinparam file {
	BackgroundColor #4d4d4d
	BorderColor #ffffff
	FontColor #ffffff
}


skinparam stack {
		FontColor #ffffff
	BorderColor #333333
	BackgroundColor #474747
}

title Mindmap Diagram - sketchy theme


+ OS
++ Ubuntu
+++ Linux Mint
+++ Kubuntu
+++ Lubuntu
+++ KDE Neon
++ LMDE
++ SolydXK
++ SteamOS
++ Raspbian
- - Windows 95
- - Windows 98
- - Windows NT
- - - Windows 8
- - - Windows 10

@endmindmap

PlantUML version 1.2020.08(Sun Apr 26 07:08:22 PDT 2020)
(GPL source distribution)
Java Runtime: Java(TM) SE Runtime Environment
JVM: Java HotSpot(TM) 64-Bit Server VM
Java Version: 1.8.0_251-b32
Operating System: Windows 10
Default Encoding: Cp1252
Language: en
Country: US
--></g></svg>