<?xml version="1.0" encoding="UTF-8" standalone="no"?><svg xmlns="http://www.w3.org/2000/svg" xmlns:xlink="http://www.w3.org/1999/xlink" contentScriptType="application/ecmascript" contentStyleType="text/css" height="1166.6667px" preserveAspectRatio="none" style="width:364px;height:1166px;background:#00000000;" version="1.1" viewBox="0 0 364 1166" width="364.5833px" zoomAndPan="magnify"><defs><linearGradient id="g127din1l10bkc0" x1="50%" x2="50%" y1="0%" y2="100%"><stop offset="0%" stop-color="#666666"/><stop offset="100%" stop-color="#555555"/></linearGradient></defs><g><polygon fill="url(#g127din1l10bkc0)" points="6.25,2.0833,6.25,2.3023,16.6667,1.6517,27.0833,2.2847,37.5,2.4997,47.9167,1.3402,58.3333,2.0024,68.75,1.6391,79.1667,1.6839,89.5833,2.0123,100,1.3632,110.4167,2.66,120.8333,1.4268,131.25,1.8773,141.6667,2.5333,152.0833,1.994,162.5,2.1544,172.9167,2.0501,183.3333,2.2693,193.75,2.3324,204.1667,2.6934,214.5833,2.7823,225,2.7909,235.4167,2.3486,245.8333,2.5662,256.25,2.8148,266.6667,1.3321,277.0833,2.7901,287.5,1.7745,297.9167,2.6394,308.3333,1.5677,318.75,2.012,329.1667,2.8558,339.5833,2.0326,350,2.0833,350.014,2.1171,350.6343,2.436,351.2338,2.705,351.7672,2.8143,352.3952,3.1518,352.9463,3.3037,352.7627,3.2277,353.2816,3.9308,353.6103,4.5551,353.8211,5.1306,354.1192,5.7422,354.1667,6.25,353.9989,6.25,353.9402,13.6003,353.9509,20.9505,354.1462,28.3008,354.0984,35.651,354.1667,43.0013,354.3853,43.0918,353.8666,43.5673,353.5685,44.1342,353.5077,44.7994,352.9764,45.2697,352.9463,45.9476,352.8773,45.781,352.4433,46.3998,351.8257,46.5755,351.2761,46.9154,350.5465,46.8207,350,47.168,350,47.5005,339.5833,47.783,329.1667,46.6759,318.75,47.0681,308.3333,47.2992,297.9167,47.8469,287.5,47.1636,277.0833,47.6498,266.6667,46.5911,256.25,46.4625,245.8333,47.6926,235.4167,46.4212,225,47.6981,214.5833,47.3832,204.1667,46.8889,193.75,46.7995,183.3333,47.6458,172.9167,46.8562,162.5,47.7845,152.0833,46.5922,141.6667,47.8111,131.25,47.6725,120.8333,47.4231,110.4167,47.2172,100,47.9249,89.5833,47.8071,79.1667,47.3443,68.75,47.4473,58.3333,47.0323,47.9167,47.9143,37.5,47.3293,27.0833,47.3477,16.6667,46.5343,6.25,47.168,6.1962,47.038,5.7313,47.0942,5.1286,46.8177,4.4765,46.422,3.8502,46.0883,3.3037,45.9476,3.2335,45.9185,2.8395,45.2671,2.9486,44.8242,2.8087,44.2781,2.4963,43.6605,2.0833,43.0013,2.3246,43.0013,2.0359,35.651,2.1136,28.3008,1.9488,20.9505,2.182,13.6003,2.0833,6.25,2.1625,6.2828,2.5046,5.7341,2.4978,5.041,2.7725,4.4644,3.2019,3.9519,3.3037,3.3037,3.3791,3.4857,3.8249,2.8952,4.4565,2.7534,5.0913,2.6194,5.5796,2.1315,6.25,2.0833" style="stroke:#4D4D4D;stroke-width:1.0416666666666667;"/><text fill="#FFFFFF" font-family="Segoe Print" font-size="20.8333" lengthAdjust="spacing" textLength="325" x="15.625" y="31.838">State Diagram - sketchy theme</text><polygon fill="#28A745" points="142.7083,140.918,142.7083,141.1369,153.125,140.4864,163.5417,141.1193,173.9583,141.3343,184.375,140.1748,194.7917,140.837,205.2083,140.4737,215.625,140.5185,226.0417,140.918,226.018,140.918,225.8016,142.5846,226.2339,144.2513,225.8228,145.918,225.973,147.5846,226.0417,149.2513,226.0417,149.7012,215.625,149.162,205.2083,149.3224,194.7917,149.218,184.375,149.4373,173.9583,149.5004,163.5417,149.8614,153.125,149.9503,142.7083,149.2513,142.9442,149.2513,142.7967,147.5846,142.8693,145.918,142.9522,144.2513,142.4579,142.5846,142.7083,140.918" style="stroke:none;stroke-width:1.0416666666666667;"/><polygon fill="#17A2B8" points="194.8492,69.4934,193.3223,71.5797,191.5163,74.6355,188.9334,76.6949,186.2191,77.821,184.0549,77.9187,181.2734,76.5103,178.6488,75.5902,176.6568,73.7221,175.6118,71.5835,174.9921,69.8806,174.385,67.6563,173.3996,65.7423,174.1568,63.8735,174.8203,61.8263,177.3099,60.2072,179.0615,58.1065,181.2295,57.4089,183.8069,56.8082,187.1121,57.1651,188.9224,58.0189,191.0272,58.4058,193.5863,61.0278,194.4785,63.7958,194.8661,65.6844,194.427,68.7966" style="stroke:none;stroke-width:1.0416666666666667;"/><g id="State2"><polygon fill="#474747" points="104.6875,212.793,104.6875,213.0119,114.4792,212.3614,124.2708,212.9943,134.0625,213.2093,143.8542,212.0498,153.6458,212.793,153.6355,212.768,155.4306,213.4189,157.2777,214.1954,159.161,215.0593,160.9197,215.6222,162.853,216.6067,163.0306,216.6802,163.4135,218.3644,164.315,220.2633,165.2797,222.1883,165.8764,223.961,166.6667,225.8138,166.6904,225.8138,166.6556,231.849,166.7287,237.8841,166.7497,243.9193,166.87,249.9544,166.6667,255.9896,166.8819,256.0788,166.1218,257.9213,165.2229,259.7063,164.5272,261.5755,163.841,263.4486,162.853,265.1967,162.7571,264.9654,161.1017,266.1771,159.1307,266.6271,157.3996,267.6562,155.4215,268.0889,153.6458,269.0104,153.6458,268.9391,143.8542,269.7829,134.0625,268.9597,124.2708,269.1201,114.4792,269.3632,104.6875,269.0104,104.7428,269.1439,102.8456,268.2464,101.0428,267.5771,99.0872,266.5386,97.3596,266.0507,95.4804,265.1967,95.6562,265.2695,94.8602,263.4143,94.1515,261.5953,93.0372,259.6082,92.2202,257.7443,91.6667,255.9896,91.4509,255.9896,91.6462,249.9544,91.5984,243.9193,91.9033,237.8841,91.606,231.849,91.6667,225.8138,91.5566,225.7682,92.5026,224.0027,92.9782,222.0423,93.7884,220.2206,94.9258,218.5343,95.4804,216.6067,95.5383,216.7464,97.4194,216.0796,99.1205,214.978,101.0471,214.4209,102.9245,213.7451,104.6875,212.793" style="stroke:#333333;stroke-width:1.5625;"/><path d="M91.6667,248.1771 L91.6667,248.469 L102.381,247.6016 L113.0952,248.4455 L123.8095,248.7322 L134.5238,247.1863 L145.2381,248.0691 L155.9524,247.5847 L166.6667,248.1771 " fill="#474747" style="stroke:#333333;stroke-width:1.5625;"/><text fill="#FFFFFF" font-family="Segoe Print" font-size="12.5" lengthAdjust="spacing" textLength="43.75" x="107.2917" y="234.8124">State2</text></g><g id="State3"><polygon fill="#474747" points="222.3958,212.793,222.3958,213.0119,232.1875,212.3614,241.9792,212.9943,251.7708,213.2093,261.5625,212.0498,271.3542,212.793,271.3438,212.768,273.1389,213.4189,274.9861,214.1954,276.8694,215.0593,278.628,215.6222,280.5613,216.6067,280.7389,216.6802,281.1218,218.3644,282.0233,220.2633,282.9881,222.1883,283.5847,223.961,284.375,225.8138,284.3987,225.8138,284.3639,231.849,284.437,237.8841,284.458,243.9193,284.5784,249.9544,284.375,255.9896,284.5903,256.0788,283.8302,257.9213,282.9312,259.7063,282.2355,261.5755,281.5493,263.4486,280.5613,265.1967,280.4655,264.9654,278.81,266.1771,276.839,266.6271,275.1079,267.6562,273.1298,268.0889,271.3542,269.0104,271.3542,268.9391,261.5625,269.7829,251.7708,268.9597,241.9792,269.1201,232.1875,269.3632,222.3958,269.0104,222.4511,269.1439,220.5539,268.2464,218.7511,267.5771,216.7955,266.5386,215.0679,266.0507,213.1887,265.1967,213.3646,265.2695,212.5686,263.4143,211.8599,261.5953,210.7455,259.6082,209.9285,257.7443,209.375,255.9896,209.1592,255.9896,209.3546,249.9544,209.3068,243.9193,209.6116,237.8841,209.3143,231.849,209.375,225.8138,209.265,225.7682,210.211,224.0027,210.6866,222.0423,211.4967,220.2206,212.6341,218.5343,213.1887,216.6067,213.2466,216.7464,215.1277,216.0796,216.8288,214.978,218.7554,214.4209,220.6329,213.7451,222.3958,212.793" style="stroke:#333333;stroke-width:1.5625;"/><path d="M209.375,248.1771 L209.375,248.469 L220.0893,247.6016 L230.8036,248.4455 L241.5179,248.7322 L252.2321,247.1863 L262.9464,248.0691 L273.6607,247.5847 L284.375,248.1771 " fill="#474747" style="stroke:#333333;stroke-width:1.5625;"/><text fill="#FFFFFF" font-family="Segoe Print" font-size="12.5" lengthAdjust="spacing" textLength="43.75" x="225" y="234.8124">State3</text></g><polygon fill="#28A745" points="143.75,357.5846,143.75,357.8036,154.1667,357.1531,164.5833,357.786,175,358.001,185.4167,356.8415,195.8333,357.5037,206.25,357.1404,216.6667,357.1852,227.0833,357.5846,227.0597,357.5846,226.8433,359.2513,227.2756,360.918,226.8645,362.5846,227.0147,364.2513,227.0833,365.918,227.0833,366.3679,216.6667,365.8286,206.25,365.9891,195.8333,365.8847,185.4167,366.1039,175,366.1671,164.5833,366.5281,154.1667,366.617,143.75,365.918,143.9859,365.918,143.8384,364.2513,143.911,362.5846,143.9938,360.918,143.4996,359.2513,143.75,357.5846" style="stroke:none;stroke-width:1.0416666666666667;"/><g id="State4"><polygon fill="#474747" points="160.9375,429.4596,160.9375,429.6786,170.7292,429.0281,180.5208,429.661,190.3125,429.876,200.1042,428.7165,209.8958,429.4596,209.8855,429.4347,211.6806,430.0856,213.5277,430.8621,215.411,431.726,217.1697,432.2888,219.103,433.2733,219.2806,433.3469,219.6635,435.031,220.565,436.9299,221.5297,438.855,222.1264,440.6276,222.9167,442.4805,222.9404,442.4805,222.9056,448.5156,222.9787,454.5508,222.9997,460.5859,223.12,466.6211,222.9167,472.6563,223.1319,472.7454,222.3718,474.5879,221.4729,476.3729,220.7772,478.2421,220.091,480.1153,219.103,481.8634,219.0071,481.632,217.3517,482.8438,215.3807,483.2937,213.6496,484.3228,211.6715,484.7555,209.8958,485.6771,209.8958,485.6057,200.1042,486.4496,190.3125,485.6263,180.5208,485.7868,170.7292,486.0298,160.9375,485.6771,160.9928,485.8106,159.0956,484.9131,157.2928,484.2437,155.3372,483.2052,153.6096,482.7173,151.7304,481.8634,151.9062,481.9362,151.1102,480.081,150.4015,478.262,149.2872,476.2749,148.4702,474.411,147.9167,472.6563,147.7009,472.6563,147.8962,466.6211,147.8484,460.5859,148.1533,454.5508,147.856,448.5156,147.9167,442.4805,147.8066,442.4349,148.7526,440.6694,149.2282,438.709,150.0384,436.8872,151.1758,435.201,151.7304,433.2733,151.7883,433.4131,153.6694,432.7462,155.3705,431.6446,157.2971,431.0875,159.1745,430.4118,160.9375,429.4596" style="stroke:#333333;stroke-width:1.5625;"/><path d="M147.9167,464.8438 L147.9167,465.1357 L158.631,464.2683 L169.3452,465.1122 L180.0595,465.3989 L190.7738,463.8529 L201.4881,464.7358 L212.2024,464.2514 L222.9167,464.8438 " fill="#474747" style="stroke:#333333;stroke-width:1.5625;"/><text fill="#FFFFFF" font-family="Segoe Print" font-size="12.5" lengthAdjust="spacing" textLength="43.75" x="163.5417" y="451.4791">State4</text></g><polygon fill="#474747" points="36.9792,549.2513,36.9792,549.4702,47.2162,548.8197,57.4533,549.4526,67.6904,549.6676,77.9274,548.5082,88.1645,549.1704,98.4016,548.807,108.6386,548.8518,118.8757,549.1803,129.1128,548.5311,139.3499,549.828,149.5869,548.5948,159.824,549.0453,170.0611,549.7012,180.2981,549.162,190.5352,549.3224,200.7723,549.218,211.0093,549.4373,221.2464,549.5004,231.4835,549.8614,241.7205,549.9503,251.9576,549.9589,262.1947,549.5165,272.4318,549.7342,282.6688,549.9828,292.9059,548.5001,303.143,549.9581,313.38,548.9424,323.6171,549.8074,333.8542,549.2513,333.7884,549.0925,335.6865,549.9921,337.6356,551.0147,339.372,551.5239,341.2339,552.3361,343.0613,553.065,343.1699,553.11,343.9576,554.9617,344.5855,556.7473,345.4417,558.6275,345.9286,560.3547,346.875,562.2721,347.1712,562.2721,347.446,572.7237,347.3381,583.1752,347.5136,593.6268,346.3718,604.0783,346.1956,614.5299,346.2277,624.9814,346.8137,635.4329,346.6703,645.8845,347.5848,656.336,346.693,666.7876,346.5177,677.2391,347.1128,687.6907,346.1804,698.1422,346.3342,708.5938,347.551,719.0453,347.3288,729.4968,347.6401,739.9484,346.5398,750.3999,347.2075,760.8515,347.49,771.303,346.3829,781.7546,346.7751,792.2061,347.0062,802.6576,347.5539,813.1092,346.8706,823.5607,347.3568,834.0123,346.2981,844.4638,346.1695,854.9154,347.3996,865.3669,346.1282,875.8185,347.4052,886.27,347.0902,896.7215,346.5959,907.1731,346.5065,917.6246,347.3529,928.0762,346.5632,938.5277,347.4915,948.9793,346.2992,959.4308,347.5182,969.8823,347.3795,980.3339,347.1302,990.7854,346.9242,1001.237,347.6319,1011.6885,347.5141,1022.1401,347.0513,1032.5916,347.1544,1043.0432,346.7393,1053.4947,347.6213,1063.9462,347.0363,1074.3978,347.0548,1084.8493,346.2413,1095.3009,346.4529,1105.7524,347.4279,1116.204,347.3227,1126.6555,346.8303,1137.107,346.875,1147.5586,346.7717,1147.5158,346.042,1149.3709,345.1294,1151.1503,344.7198,1153.138,344.0613,1155.0226,343.0613,1156.7657,343.1312,1156.9346,341.3122,1157.7514,339.3603,1158.2473,337.5486,1159.0819,335.6441,1159.6923,333.8542,1160.5794,333.8542,1160.8753,323.6171,1160.8365,313.38,1161.1548,303.143,1160.3402,292.9059,1160.4394,282.6688,1161.0414,272.4318,1161.1704,262.1947,1160.0455,251.9576,1160.3775,241.7205,1160.7349,231.4835,1159.9431,221.2464,1160.9475,211.0093,1160.8482,200.7723,1160.4745,190.5352,1160.7276,180.2981,1161.3385,170.0611,1160.2535,159.824,1160.9075,149.5869,1160.877,139.3499,1160.7,129.1128,1160.7262,118.8757,1160.6976,108.6386,1159.9293,98.4016,1160.1619,88.1645,1160.0987,77.9274,1160.6459,67.6904,1160.6712,57.4533,1160.7479,47.2162,1160.2763,36.9792,1160.5794,36.9702,1160.5578,35.1218,1159.7781,33.373,1159.239,31.5116,1158.428,29.549,1157.3727,27.772,1156.7657,27.7487,1156.756,26.8241,1154.8476,26.3391,1153.1212,25.679,1151.3223,24.8958,1149.4724,23.9583,1147.5586,23.5046,1147.5586,24.4416,1137.107,23.1846,1126.6555,24.1668,1116.204,23.6465,1105.7524,24.0591,1095.3009,24.2087,1084.8493,24.4501,1074.3978,23.2084,1063.9462,24.4536,1053.4947,24.1439,1043.0432,24.3285,1032.5916,24.7373,1022.1401,23.964,1011.6885,24.1409,1001.237,24.1807,990.7854,24.1638,980.3339,23.9575,969.8823,24.6987,959.4308,23.3232,948.9793,24.5472,938.5277,23.3083,928.0762,23.3955,917.6246,24,907.1731,23.9878,896.7215,23.445,886.27,24.3893,875.8185,24.0717,865.3669,24.7153,854.9154,24.6532,844.4638,23.4914,834.0123,23.5438,823.5607,23.8238,813.1092,24.3287,802.6576,24.3781,792.2061,24.272,781.7546,23.6021,771.303,24.6212,760.8515,24.6185,750.3999,23.9091,739.9484,23.7093,729.4968,23.5402,719.0453,23.7348,708.5938,24.1015,698.1422,23.8871,687.6907,23.5231,677.2391,24.466,666.7876,23.4803,656.336,24.4816,645.8845,24.4034,635.4329,24.3457,624.9814,24.6797,614.5299,23.7022,604.0783,23.6452,593.6268,24.4988,583.1752,23.3366,572.7237,23.9583,562.2721,23.8833,562.241,24.7581,560.4461,25.5059,558.5984,26.1316,556.7002,26.9955,554.9007,27.772,553.065,27.871,553.3039,29.6996,552.5103,31.3757,551.3482,33.3068,550.802,35.0695,549.8492,36.9792,549.2513" style="stroke:#333333;stroke-width:1.5625;"/><polygon points="40.1042,587.7604,40.1042,587.9794,50.4836,587.3288,60.8631,587.9618,71.2426,588.1767,81.622,587.0173,92.0015,587.6795,102.381,587.3162,112.7604,587.3609,123.1399,587.6894,133.5193,587.0402,143.8988,588.3371,154.2783,587.1039,164.6577,587.5544,175.0372,588.2104,185.4167,587.6711,195.7961,587.8315,206.1756,587.7271,216.5551,587.9464,226.9345,588.0095,237.314,588.3705,247.6935,588.4594,258.0729,588.468,268.4524,588.0257,278.8318,588.2433,289.2113,588.4919,299.5908,587.0092,309.9702,588.4672,320.3497,587.4516,330.7292,587.7604,330.8001,587.9317,332.5048,588.3644,334.4029,589.2639,336.352,590.2865,338.0884,590.7958,339.9363,591.5741,339.9701,591.5881,340.8077,593.4605,341.5953,595.3123,342.2233,597.0979,343.0794,598.978,343.75,600.7813,343.1537,600.7813,344.0462,611.2361,344.321,621.691,344.2131,632.1458,344.3886,642.6007,343.2468,653.0555,343.0706,663.5104,343.1027,673.9652,343.6887,684.4201,343.5453,694.8749,344.4598,705.3298,343.568,715.7846,343.3927,726.2395,343.9878,736.6943,343.0554,747.1492,343.2092,757.604,344.426,768.0589,344.2038,778.5137,344.5151,788.9686,343.4148,799.4235,344.0825,809.8783,344.365,820.3332,343.2579,830.788,343.6501,841.2429,343.8812,851.6977,344.4289,862.1526,343.7456,872.6074,344.2318,883.0623,343.1731,893.5171,343.0445,903.972,344.2746,914.4268,343.0032,924.8817,344.2802,935.3365,343.9652,945.7914,343.4709,956.2462,343.3815,966.7011,344.2279,977.1559,343.4382,987.6108,344.3665,998.0657,343.1742,1008.5205,344.3932,1018.9754,344.2545,1029.4302,344.0052,1039.8851,343.7992,1050.3399,344.5069,1060.7948,344.3891,1071.2496,343.9263,1081.7045,344.0294,1092.1593,343.6143,1102.6142,344.4963,1113.069,343.9113,1123.5239,343.9298,1133.9787,343.75,1144.4336,343.5548,1144.3528,342.8573,1146.2212,342.3948,1148.187,341.5996,1150.015,340.6853,1151.7936,339.9363,1153.6407,339.8935,1153.5374,338.0658,1154.3332,336.1623,1154.9461,334.4671,1156.062,332.6689,1156.9289,330.7292,1157.4544,330.7292,1158.0028,320.3497,1158.1783,309.9702,1157.312,299.5908,1157.5453,289.2113,1157.0507,278.8318,1157.7503,268.4524,1157.7115,258.0729,1158.0298,247.6935,1157.2152,237.314,1157.3144,226.9345,1157.9164,216.5551,1158.0454,206.1756,1156.9205,195.7961,1157.2525,185.4167,1157.6099,175.0372,1156.8181,164.6577,1157.8225,154.2783,1157.7232,143.8988,1157.3495,133.5193,1157.6026,123.1399,1158.2135,112.7604,1157.1285,102.381,1157.7825,92.0015,1157.752,81.622,1157.575,71.2426,1157.6012,60.8631,1157.5726,50.4836,1156.8043,40.1042,1157.4544,40.0509,1157.3258,38.2014,1156.5436,36.4298,1155.9494,34.5916,1155.1945,32.76,1154.4553,30.897,1153.6407,30.8037,1153.602,30.1126,1151.7903,29.333,1149.9419,28.7939,1148.1931,27.9829,1146.3317,27.0833,1144.4336,26.5776,1144.4336,27.0074,1133.9787,26.4821,1123.5239,27.3837,1113.069,27.7172,1102.6142,27.6506,1092.1593,26.6296,1081.7045,27.5666,1071.2496,26.3096,1060.7948,27.2918,1050.3399,26.7715,1039.8851,27.1841,1029.4302,27.3337,1018.9754,27.5751,1008.5205,26.3334,998.0657,27.5786,987.6108,27.2689,977.1559,27.4535,966.7011,27.8623,956.2462,27.089,945.7914,27.2659,935.3365,27.3057,924.8817,27.2888,914.4268,27.0825,903.972,27.8237,893.5171,26.4482,883.0623,27.6722,872.6074,26.4333,862.1526,26.5205,851.6977,27.125,841.2429,27.1128,830.788,26.57,820.3332,27.5143,809.8783,27.1967,799.4235,27.8403,788.9686,27.7782,778.5137,26.6164,768.0589,26.6688,757.604,26.9488,747.1492,27.4537,736.6943,27.5031,726.2395,27.397,715.7846,26.7271,705.3298,27.7462,694.8749,27.7435,684.4201,27.0341,673.9652,26.8343,663.5104,26.6652,653.0555,26.8598,642.6007,27.2265,632.1458,27.0121,621.691,26.6481,611.2361,27.0833,600.7813,27.2397,600.846,27.6989,598.8788,28.77,597.1652,29.5086,595.3137,30.2536,593.465,30.897,591.5741,30.9891,591.7963,32.7058,590.7325,34.5399,589.9522,36.4903,589.4524,38.1834,588.3317,40.1042,587.7604" style="stroke:#00000000;stroke-width:1.0416666666666667;fill:none;"/><path d="M23.9583,584.6354 L23.9583,584.9273 L34.375,584.06 L44.7917,584.9039 L55.2083,585.1905 L65.625,583.6446 L76.0417,584.5275 L86.4583,584.0431 L96.875,584.1028 L107.2917,584.5408 L117.7083,583.6752 L128.125,585.4044 L138.5417,583.76 L148.9583,584.3607 L159.375,585.2353 L169.7917,584.5163 L180.2083,584.7302 L190.625,584.591 L201.0417,584.8834 L211.4583,584.9675 L221.875,585.4489 L232.2917,585.5674 L242.7083,585.5788 L253.125,584.9891 L263.5417,585.2793 L273.9583,585.6107 L284.375,583.6338 L294.7917,585.5778 L305.2083,584.2236 L315.625,585.3768 L326.0417,583.9479 L336.4583,584.5403 L346.875,584.6354 " style="stroke:#333333;stroke-width:1.5625;fill:none;"/><text fill="#FFFFFF" font-family="Segoe Print" font-size="12.5" lengthAdjust="spacing" textLength="38.5417" x="166.1458" y="571.2708">Active</text><polygon fill="#17A2B8" points="56.3075,627.7942,54.7806,629.8805,52.9746,632.9363,50.3917,634.9956,47.6774,636.1218,45.5133,636.2195,42.7317,634.8111,40.1072,633.891,38.1151,632.0229,37.0701,629.8843,36.4504,628.1814,35.8433,625.9571,34.8579,624.0431,35.6152,622.1742,36.2786,620.1271,38.7683,618.508,40.5199,616.4073,42.6879,615.7097,45.2653,615.1089,48.5705,615.4659,50.3808,616.3196,52.4855,616.7066,55.0447,619.3286,55.9368,622.0965,56.3244,623.9852,55.8854,627.0974" style="stroke:none;stroke-width:1.0416666666666667;"/><g id="Active.NumLockOff"><polygon fill="#474747" points="88.5417,597.1354,88.5417,597.3544,98.6979,596.7038,108.8542,597.3368,119.0104,597.5517,129.1667,596.3923,139.3229,597.0545,149.4792,596.6912,159.6354,596.7359,169.7917,597.1354,169.7826,597.1136,171.5412,597.6764,173.5481,598.8385,175.2322,599.2215,177.1311,600.1229,178.9988,600.9491,179.1374,601.0065,179.734,602.7792,180.5462,604.641,181.2768,606.4692,182.107,608.3385,182.8125,610.1563,182.8955,610.1563,183.0159,616.1914,183.0455,622.2266,183.0484,628.2617,182.9009,634.2969,182.8125,640.332,182.9612,640.3936,182.275,642.2668,181.0557,643.9191,180.7419,645.9465,179.6664,647.6583,178.9988,649.5392,179.0697,649.7104,177.0916,650.1431,175.3068,651.0427,173.5731,652.0653,171.6266,652.5745,169.7917,653.3529,169.7917,653.4626,159.6354,653.7056,149.4792,653.7864,139.3229,653.3488,129.1667,653.652,119.0104,652.7566,108.8542,653.6491,98.6979,653.9239,88.5417,653.3529,88.6007,653.4955,86.7817,652.7868,84.7946,651.6724,82.9307,650.8554,81.0934,650.1026,79.3345,649.5392,79.3157,649.5313,78.5088,647.6716,78.0277,645.9468,76.9903,643.9917,76.1735,642.1279,75.5208,640.332,75.6001,640.332,75.2893,634.2969,75.3406,628.2617,75.7462,622.2266,75.6721,616.1914,75.5208,610.1563,75.7565,610.2538,76.1803,608.2721,77.1487,606.5158,77.9985,604.7104,78.4203,602.7278,79.3345,600.9491,79.3218,600.9184,81.1927,600.2268,83.104,599.6327,84.8583,598.6596,86.7617,598.0465,88.5417,597.1354" style="stroke:#333333;stroke-width:1.5625;"/><path d="M75.5208,632.5195 L75.5208,632.8115 L86.25,631.9441 L96.9792,632.788 L107.7083,633.0746 L118.4375,631.5287 L129.1667,632.4116 L139.8958,631.9272 L150.625,631.9869 L161.3542,632.4249 L172.0833,631.5593 L182.8125,632.5195 " fill="#474747" style="stroke:#333333;stroke-width:1.5625;"/><text fill="#FFFFFF" font-family="Segoe Print" font-size="12.5" lengthAdjust="spacing" textLength="76.0417" x="91.1458" y="619.1549">NumLockOff</text></g><g id="Active.NumLockOn"><polygon fill="#474747" points="88.5417,716.9271,88.5417,717.146,98.6979,716.4955,108.8542,717.1284,119.0104,717.3434,129.1667,716.184,139.3229,716.8461,149.4792,716.4828,159.6354,716.5276,169.7917,716.9271,169.7826,716.9052,171.5412,717.468,173.5481,718.6302,175.2322,719.0131,177.1311,719.9146,178.9988,720.7408,179.1374,720.7982,179.734,722.5708,180.5462,724.4327,181.2768,726.2608,182.107,728.1302,182.8125,729.9479,182.8955,729.9479,183.0159,735.9831,183.0455,742.0182,183.0484,748.0534,182.9009,754.0885,182.8125,760.1237,182.9612,760.1853,182.275,762.0584,181.0557,763.7107,180.7419,765.7381,179.6664,767.45,178.9988,769.3308,179.0697,769.5021,177.0916,769.9348,175.3068,770.8343,173.5731,771.8569,171.6266,772.3662,169.7917,773.1445,169.7917,773.2542,159.6354,773.4973,149.4792,773.5781,139.3229,773.1405,129.1667,773.4437,119.0104,772.5483,108.8542,773.4408,98.6979,773.7156,88.5417,773.1445,88.6007,773.2871,86.7817,772.5784,84.7946,771.4641,82.9307,770.6471,81.0934,769.8942,79.3345,769.3308,79.3157,769.323,78.5088,767.4633,78.0277,765.7385,76.9903,763.7833,76.1735,761.9195,75.5208,760.1237,75.6001,760.1237,75.2893,754.0885,75.3406,748.0534,75.7462,742.0182,75.6721,735.9831,75.5208,729.9479,75.7565,730.0455,76.1803,728.0637,77.1487,726.3075,77.9985,724.5021,78.4203,722.5194,79.3345,720.7408,79.3218,720.71,81.1927,720.0185,83.104,719.4244,84.8583,718.4512,86.7617,717.8382,88.5417,716.9271" style="stroke:#333333;stroke-width:1.5625;"/><path d="M75.5208,752.3112 L75.5208,752.6031 L86.25,751.7358 L96.9792,752.5797 L107.7083,752.8663 L118.4375,751.3204 L129.1667,752.2033 L139.8958,751.7188 L150.625,751.7786 L161.3542,752.2165 L172.0833,751.351 L182.8125,752.3112 " fill="#474747" style="stroke:#333333;stroke-width:1.5625;"/><text fill="#FFFFFF" font-family="Segoe Print" font-size="12.5" lengthAdjust="spacing" textLength="76.0417" x="91.1458" y="738.9465">NumLockOn</text></g><!--MD5=[f1e44e9cdf7ed6fd162579f896fb76ea]
link *start*Active to NumLockOff--><path d="M56.25,625.2604 L56.25,625.3577 L58.9938,625.0686 L61.7375,625.3499 L64.4813,625.4455 L67.225,624.9301 L69.9688,625.2604 " fill="none" style="stroke:#333333;stroke-width:3.125;"/><polygon fill="#333333" points="75.3333,625.2604,75.363,625.3271,73.3999,624.2956,71.6106,623.6551,69.7647,622.8872,67.7327,621.7007,65.9583,621.0938,65.9393,621.0747,66.687,621.8224,67.5308,622.6663,68.4416,623.577,69.1219,624.2573,70.125,625.2604,70.2609,625.3963,69.1369,625.939,68.4098,626.8785,67.7311,627.8665,66.7706,628.5727,65.9583,629.4271,65.968,629.4487,67.8288,628.5836,69.7335,627.8171,71.6171,627.003,73.5409,626.2796,75.3333,625.2604" style="stroke:#333333;stroke-width:3.125;"/><!--MD5=[b6ef3c088f5474ecc81df30475e7d61b]
link NumLockOff to NumLockOn--><path d="M75.4583,646.5208 L75.517,646.5985 L72.3646,648.6183 L69.556,651.0933 L66.6355,653.42 L63.3467,655.2594 L60.5677,657.7734 L60.5397,657.7508 L58.0923,660.5217 L55.7859,663.4066 L53.5775,666.3708 L51.0313,669.0618 L48.9583,672.1354 L49.2014,672.2168 L47.8098,674.6469 L47.1278,677.3147 L46.5323,680.0114 L45.4332,682.5395 L44.599,685.1563 L44.6289,685.1663 L45.4568,687.7557 L46.4211,690.3908 L47.3196,693.0039 L48.3436,695.659 L48.9583,698.1771 L49.2038,698.3675 L51.1529,700.8777 L52.9437,703.265 L54.9662,705.8321 L56.9996,708.4076 L58.6888,710.7161 L58.4762,710.4587 L61.3615,713.0005 L63.5467,714.6947 L66.2641,717.0333 L68.4335,718.7082 L71.0521,720.9271 " fill="none" style="stroke:#333333;stroke-width:3.125;"/><polygon fill="#333333" points="75.4583,723.7917,75.5195,723.8314,74.2194,721.993,73.2779,720.3877,72.2197,718.7064,70.7773,716.7755,69.8667,715.1902,69.8403,715.1846,69.9666,716.3123,70.226,717.4682,70.578,718.6437,70.6111,719.7516,71.0908,720.9542,71.1307,721.1423,69.8925,720.985,68.7709,721.3767,67.6635,721.8354,66.4734,721.9044,65.3268,722.1783,65.3305,722.2017,67.3513,722.49,69.3891,722.8849,71.4188,723.2283,73.464,723.6698,75.4583,723.7917" style="stroke:#333333;stroke-width:3.125;"/><text fill="#FFFFFF" font-family="Segoe Print" font-size="12.5" lengthAdjust="spacing" textLength="126.0417" x="55.2083" y="689.9882">EvNumLockPressed</text><!--MD5=[3bfddee0d82dc74c927fbeb3d3f2e6a3]
link NumLockOn to NumLockOff--><path d="M173.4479,716.7708 L173.5201,716.8361 L174.8835,714.8961 L176.67,713.3386 L178.3188,711.6566 L179.5143,709.565 L181.3372,708.0404 L181.3067,708.0213 L182.4023,705.9631 L183.6518,704.001 L185.0081,702.1057 L185.996,699.9801 L187.5,698.1771 L187.7461,698.2488 L187.9792,695.4912 L188.9309,692.9431 L189.9701,690.4206 L190.4994,687.7493 L191.2969,685.1563 L191.3272,685.1651 L190.5233,682.5479 L189.8575,679.9711 L189.125,677.3747 L188.5197,674.8155 L187.5,672.1354 L187.755,672.3128 L185.7207,669.3858 L183.5218,666.3444 L181.5637,663.4705 L179.6169,660.6044 L177.3125,657.4896 " fill="none" style="stroke:#333333;stroke-width:3.125;"/><polygon fill="#333333" points="173.4479,653.5417,173.5163,653.5672,174.0303,655.4138,174.9452,657.41,175.7295,659.3574,176.0846,661.1448,177.0339,663.1538,177.0069,663.1535,176.8977,661.9738,176.9245,660.7955,177.0459,659.6182,176.8414,658.4376,177.0934,657.2615,177.0953,657.4538,178.2696,657.0546,179.4496,657.2167,180.6302,657.4472,181.8069,657.2794,182.9856,657.321,182.9944,657.3431,181.074,656.5549,179.1934,655.8669,177.2936,655.1306,175.4304,654.4866,173.4479,653.5417" style="stroke:#333333;stroke-width:3.125;"/><text fill="#FFFFFF" font-family="Segoe Print" font-size="12.5" lengthAdjust="spacing" textLength="126.0417" x="196.875" y="689.9882">EvNumLockPressed</text><path d="M29.1667,778.3529 L29.1667,778.6448 L39.5139,777.7774 L49.8611,778.6213 L60.2083,778.908 L70.5556,777.362 L80.9028,778.2449 L91.25,777.7605 L101.5972,777.8202 L111.9444,778.2582 L122.2917,777.3926 L132.6389,779.1218 L142.9861,777.4775 L153.3333,778.0782 L163.6806,778.9528 L174.0278,778.2337 L184.375,778.4476 L194.7222,778.3085 L205.0694,778.6008 L215.4167,778.685 L225.7639,779.1663 L236.1111,779.2849 L246.4583,779.2963 L256.8056,778.7065 L267.1528,778.9967 L277.5,779.3282 L287.8472,777.3512 L298.1944,779.2952 L308.5417,777.9411 L318.8889,779.0943 L329.2361,777.6653 L339.5833,778.3529 " fill="none" style="stroke:#333333;stroke-width:1.5625;stroke-dasharray:8.0,10.0;"/><polygon fill="#17A2B8" points="56.3075,816.3033,54.7806,818.3896,52.9746,821.4454,50.3917,823.5048,47.6774,824.6309,45.5133,824.7286,42.7317,823.3202,40.1072,822.4001,38.1151,820.532,37.0701,818.3934,36.4504,816.6905,35.8433,814.4662,34.8579,812.5522,35.6152,810.6834,36.2786,808.6362,38.7683,807.0171,40.5199,804.9164,42.6879,804.2188,45.2653,803.6181,48.5705,803.975,50.3808,804.8287,52.4855,805.2157,55.0447,807.8377,55.9368,810.6057,56.3244,812.4943,55.8854,815.6065" style="stroke:none;stroke-width:1.0416666666666667;"/><g id="Active.CONC87.CapsLockOff"><polygon fill="#474747" points="88.0208,785.6445,88.0208,785.8635,98.5677,785.2129,109.1146,785.8459,119.6615,786.0609,130.2083,784.9014,140.7552,785.5636,151.3021,785.2003,161.849,785.2451,172.3958,785.6445,172.3868,785.6227,174.1454,786.1855,176.1522,787.3476,177.8364,787.7306,179.7353,788.6321,181.603,789.4582,181.7415,789.5156,182.3382,791.2883,183.1503,793.1502,183.8809,794.9783,184.7112,796.8477,185.4167,798.6654,185.4997,798.6654,185.62,804.7005,185.6497,810.7357,185.6525,816.7708,185.5051,822.806,185.4167,828.8411,185.5654,828.9027,184.8792,830.7759,183.6598,832.4282,183.3461,834.4556,182.2706,836.1674,181.603,838.0483,181.6739,838.2195,179.6958,838.6522,177.911,839.5518,176.1772,840.5744,174.2308,841.0836,172.3958,841.862,172.3958,841.9717,161.849,842.2147,151.3021,842.2956,140.7552,841.8579,130.2083,842.1612,119.6615,841.2657,109.1146,842.1582,98.5677,842.433,88.0208,841.862,88.0799,842.0046,86.2609,841.2959,84.2738,840.1815,82.4099,839.3645,80.5726,838.6117,78.8137,838.0483,78.7948,838.0404,77.9879,836.1807,77.5068,834.456,76.4695,832.5008,75.6527,830.637,75,828.8411,75.0793,828.8411,74.7685,822.806,74.8197,816.7708,75.2253,810.7357,75.1513,804.7005,75,798.6654,75.2356,798.763,75.6595,796.7812,76.6279,795.0249,77.4776,793.2195,77.8994,791.2369,78.8137,789.4582,78.801,789.4275,80.6719,788.7359,82.5832,788.1418,84.3374,787.1687,86.2409,786.5557,88.0208,785.6445" style="stroke:#333333;stroke-width:1.5625;"/><path d="M75,821.0286 L75,821.3206 L85.0379,820.4532 L95.0758,821.2971 L105.1136,821.5838 L115.1515,820.0378 L125.1894,820.9207 L135.2273,820.4363 L145.2652,820.496 L155.303,820.934 L165.3409,820.0684 L175.3788,821.7976 L185.4167,821.0286 " fill="#474747" style="stroke:#333333;stroke-width:1.5625;"/><text fill="#FFFFFF" font-family="Segoe Print" font-size="12.5" lengthAdjust="spacing" textLength="79.1667" x="90.625" y="807.664">CapsLockOff</text></g><g id="Active.CONC87.CapsLockOn"><polygon fill="#474747" points="86.9792,905.4362,86.9792,905.6551,97.526,905.0046,108.0729,905.6375,118.6198,905.8525,129.1667,904.6931,139.7135,905.3552,150.2604,904.9919,160.8073,905.0367,171.3542,905.4362,171.3451,905.4143,173.1037,905.9772,175.1106,907.1393,176.7947,907.5222,178.6936,908.4237,180.5613,909.2499,180.6999,909.3073,181.2965,911.0799,182.1087,912.9418,182.8393,914.7699,183.6695,916.6393,184.375,918.457,184.458,918.457,184.5784,924.4922,184.608,930.5273,184.6109,936.5625,184.4634,942.5977,184.375,948.6328,184.5237,948.6944,183.8375,950.5675,182.6182,952.2198,182.3044,954.2472,181.2289,955.9591,180.5613,957.8399,180.6322,958.0112,178.6541,958.4439,176.8693,959.3434,175.1356,960.3661,173.1891,960.8753,171.3542,961.6536,171.3542,961.7633,160.8073,962.0064,150.2604,962.0872,139.7135,961.6496,129.1667,961.9528,118.6198,961.0574,108.0729,961.9499,97.526,962.2247,86.9792,961.6536,87.0382,961.7962,85.2192,961.0876,83.2321,959.9732,81.3682,959.1562,79.5309,958.4033,77.772,957.8399,77.7532,957.8321,76.9463,955.9724,76.4652,954.2476,75.4278,952.2924,74.611,950.4287,73.9583,948.6328,74.0376,948.6328,73.7268,942.5977,73.7781,936.5625,74.1837,930.5273,74.1096,924.4922,73.9583,918.457,74.194,918.5546,74.6178,916.5728,75.5862,914.8166,76.436,913.0112,76.8578,911.0286,77.772,909.2499,77.7593,909.2192,79.6302,908.5276,81.5415,907.9335,83.2958,906.9603,85.1992,906.3473,86.9792,905.4362" style="stroke:#333333;stroke-width:1.5625;"/><path d="M73.9583,940.8203 L73.9583,941.1122 L83.9962,940.2449 L94.0341,941.0888 L104.072,941.3754 L114.1098,939.8295 L124.1477,940.7124 L134.1856,940.228 L144.2235,940.2877 L154.2614,940.7257 L164.2992,939.8601 L174.3371,941.5893 L184.375,940.8203 " fill="#474747" style="stroke:#333333;stroke-width:1.5625;"/><text fill="#FFFFFF" font-family="Segoe Print" font-size="12.5" lengthAdjust="spacing" textLength="79.1667" x="89.5833" y="927.4556">CapsLockOn</text></g><!--MD5=[70bdb58272bc1a7d9e9d21dfe0316432]
link *start*CONC87 to CapsLockOff--><path d="M56.375,813.7695 L56.375,813.8668 L58.9708,813.5777 L61.5667,813.859 L64.1625,813.9546 L66.7583,813.4393 L69.3542,813.7695 " fill="none" style="stroke:#333333;stroke-width:3.125;"/><polygon fill="#333333" points="74.8333,813.7695,74.863,813.8362,72.8999,812.8047,71.1106,812.1642,69.2647,811.3963,67.2327,810.2098,65.4583,809.6029,65.4393,809.5838,66.187,810.3315,67.0308,811.1754,67.9416,812.0861,68.6219,812.7665,69.625,813.7695,69.7609,813.9055,68.6369,814.4481,67.9098,815.3876,67.2311,816.3756,66.2706,817.0818,65.4583,817.9362,65.468,817.9578,67.3288,817.0927,69.2335,816.3262,71.1171,815.5121,73.0409,814.7887,74.8333,813.7695" style="stroke:#333333;stroke-width:3.125;"/><!--MD5=[dc4675bd3056f3ef68701d9e8e02a3f3]
link CapsLockOff to CapsLockOn--><path d="M74.6771,840.3424 L74.7286,840.425 L71.2322,842.2678 L68.038,844.5944 L64.7454,846.7635 L61.1292,848.4144 L57.9609,850.7826 L57.9357,850.7569 L55.8137,852.6141 L53.8188,854.6007 L51.9123,856.6772 L49.7013,858.4437 L47.9167,860.6445 L48.1596,860.7264 L46.7628,863.1547 L46.0752,865.8221 L45.4741,868.5186 L44.3697,871.0454 L43.5299,873.6615 L43.5599,873.6715 L44.3933,876.2617 L45.363,878.8977 L46.2669,881.5116 L47.2963,884.1678 L47.9167,886.6862 L48.1625,886.8762 L50.04,889.3035 L51.7589,891.6083 L53.7099,894.0925 L55.6718,896.585 L57.2891,898.8112 L57.0746,898.5553 L59.8622,901.0394 L61.9436,902.681 L64.5619,904.9631 L66.6273,906.5856 L69.1458,908.7487 " fill="none" style="stroke:#333333;stroke-width:3.125;"/><polygon fill="#333333" points="73.9375,911.9154,73.999,911.9547,72.7116,910.1088,71.7846,908.4933,70.7403,906.8029,69.3099,904.8657,68.414,903.27,68.3875,903.2646,68.5046,904.3951,68.7549,905.5528,69.0979,906.7294,69.1216,907.8408,69.5925,909.0435,69.6309,909.2318,68.394,909.0648,67.2694,909.4476,66.1584,909.8975,64.9677,909.9571,63.819,910.222,63.8229,910.2454,65.8409,910.5497,67.8766,910.9605,69.9038,911.3199,71.9474,911.7773,73.9375,911.9154" style="stroke:#333333;stroke-width:3.125;"/><text fill="#FFFFFF" font-family="Segoe Print" font-size="12.5" lengthAdjust="spacing" textLength="129.1667" x="54.1667" y="878.4973">EvCapsLockPressed</text><!--MD5=[79e17b083e07746bd1a647600952cab6]
link CapsLockOn to CapsLockOff--><path d="M175.3021,905.2279 L175.3737,905.2938 L176.761,903.3609 L178.5679,901.8145 L180.2382,900.1423 L181.4592,898.0562 L183.3021,896.543 L183.2717,896.5236 L184.3918,894.4655 L185.6649,892.5048 L187.0442,890.6119 L188.0572,888.4855 L189.5833,886.6862 L189.8291,886.7588 L190.0722,884.0009 L191.033,881.4551 L192.0814,878.935 L192.6202,876.2645 L193.4271,873.6732 L193.4574,873.6821 L192.6441,871.0633 L191.9689,868.4851 L191.227,865.8873 L190.6122,863.327 L189.5833,860.6445 L189.8368,860.8241 L187.7128,857.8243 L185.4254,854.7085 L183.3772,851.7624 L181.3403,848.8242 L178.9479,845.6341 " fill="none" style="stroke:#333333;stroke-width:3.125;"/><polygon fill="#333333" points="175.2708,841.9362,175.339,841.9623,175.8692,843.8014,176.7989,845.7933,177.5986,847.7354,177.9703,849.514,178.9343,851.519,178.9073,851.519,178.7886,850.3402,178.8059,849.1617,178.9178,847.9834,178.7038,846.8045,178.9462,845.6265,178.9466,845.8187,180.1243,845.41,181.3031,845.5626,182.4821,845.7836,183.6602,845.6062,184.8388,845.6384,184.8473,845.6605,182.9212,844.8876,181.034,844.2153,179.128,843.4945,177.2578,842.8663,175.2708,841.9362" style="stroke:#333333;stroke-width:3.125;"/><text fill="#FFFFFF" font-family="Segoe Print" font-size="12.5" lengthAdjust="spacing" textLength="129.1667" x="200" y="878.4973">EvCapsLockPressed</text><path d="M29.1667,966.862 L29.1667,967.1539 L39.5139,966.2865 L49.8611,967.1304 L60.2083,967.4171 L70.5556,965.8712 L80.9028,966.754 L91.25,966.2696 L101.5972,966.3293 L111.9444,966.7673 L122.2917,965.9017 L132.6389,967.6309 L142.9861,965.9866 L153.3333,966.5873 L163.6806,967.4619 L174.0278,966.7428 L184.375,966.9568 L194.7222,966.8176 L205.0694,967.1099 L215.4167,967.1941 L225.7639,967.6754 L236.1111,967.794 L246.4583,967.8054 L256.8056,967.2156 L267.1528,967.5058 L277.5,967.8373 L287.8472,965.8603 L298.1944,967.8044 L308.5417,966.4502 L318.8889,967.6034 L329.2361,966.1744 L339.5833,966.862 " fill="none" style="stroke:#333333;stroke-width:1.5625;stroke-dasharray:8.0,10.0;"/><polygon fill="#17A2B8" points="56.3075,1004.8124,54.7806,1006.8987,52.9746,1009.9545,50.3917,1012.0139,47.6774,1013.14,45.5133,1013.2378,42.7317,1011.8294,40.1072,1010.9093,38.1151,1009.0411,37.0701,1006.9025,36.4504,1005.1996,35.8433,1002.9753,34.8579,1001.0613,35.6152,999.1925,36.2786,997.1453,38.7683,995.5263,40.5199,993.4255,42.6879,992.7279,45.2653,992.1272,48.5705,992.4841,50.3808,993.3379,52.4855,993.7248,55.0447,996.3468,55.9368,999.1148,56.3244,1001.0034,55.8854,1004.1156" style="stroke:none;stroke-width:1.0416666666666667;"/><g id="Active.CONC95.ScrollLockOff"><polygon fill="#474747" points="88.5417,974.1536,88.5417,974.3726,99.4792,973.7221,110.4167,974.355,121.3542,974.57,132.2917,973.4105,143.2292,974.0727,154.1667,973.7094,165.1042,973.7542,176.0417,974.1536,176.0326,974.1318,177.7912,974.6946,179.7981,975.8567,181.4822,976.2397,183.3811,977.1412,185.2488,977.9674,185.3874,978.0248,185.984,979.7974,186.7962,981.6593,187.5268,983.4874,188.357,985.3568,189.0625,987.1745,189.1455,987.1745,189.2659,993.2096,189.2955,999.2448,189.2984,1005.2799,189.1509,1011.3151,189.0625,1017.3503,189.2112,1017.4119,188.525,1019.285,187.3057,1020.9373,186.9919,1022.9647,185.9164,1024.6766,185.2488,1026.5574,185.3197,1026.7286,183.3416,1027.1613,181.5568,1028.0609,179.8231,1029.0835,177.8766,1029.5927,176.0417,1030.3711,176.0417,1030.4808,165.1042,1030.7238,154.1667,1030.8047,143.2292,1030.367,132.2917,1030.6703,121.3542,1029.7748,110.4167,1030.6673,99.4792,1030.9421,88.5417,1030.3711,88.6007,1030.5137,86.7817,1029.805,84.7946,1028.6906,82.9307,1027.8737,81.0934,1027.1208,79.3345,1026.5574,79.3157,1026.5496,78.5088,1024.6898,78.0277,1022.9651,76.9903,1021.0099,76.1735,1019.1461,75.5208,1017.3503,75.6001,1017.3503,75.2893,1011.3151,75.3406,1005.2799,75.7462,999.2448,75.6721,993.2096,75.5208,987.1745,75.7565,987.2721,76.1803,985.2903,77.1487,983.534,77.9985,981.7287,78.4203,979.746,79.3345,977.9674,79.3218,977.9366,81.1927,977.245,83.104,976.651,84.8583,975.6778,86.7617,975.0648,88.5417,974.1536" style="stroke:#333333;stroke-width:1.5625;"/><path d="M75.5208,1009.5378 L75.5208,1009.8297 L85.8428,1008.9623 L96.1648,1009.8062 L106.4867,1010.0929 L116.8087,1008.5469 L127.1307,1009.4298 L137.4527,1008.9454 L147.7746,1009.0051 L158.0966,1009.4431 L168.4186,1008.5775 L178.7405,1010.3067 L189.0625,1009.5378 " fill="#474747" style="stroke:#333333;stroke-width:1.5625;"/><text fill="#FFFFFF" font-family="Segoe Print" font-size="12.5" lengthAdjust="spacing" textLength="82.2917" x="91.1458" y="996.1731">ScrollLockOff</text></g><g id="Active.CONC95.ScrollLockOn"><polygon fill="#474747" points="88.5417,1093.9453,88.5417,1094.1643,99.4792,1093.5137,110.4167,1094.1467,121.3542,1094.3616,132.2917,1093.2022,143.2292,1093.8644,154.1667,1093.501,165.1042,1093.5458,176.0417,1093.9453,176.0326,1093.9234,177.7912,1094.4863,179.7981,1095.6484,181.4822,1096.0314,183.3811,1096.9328,185.2488,1097.759,185.3874,1097.8164,185.984,1099.5891,186.7962,1101.4509,187.5268,1103.2791,188.357,1105.1484,189.0625,1106.9661,189.1455,1106.9661,189.2659,1113.0013,189.2955,1119.0365,189.2984,1125.0716,189.1509,1131.1068,189.0625,1137.1419,189.2112,1137.2035,188.525,1139.0767,187.3057,1140.7289,186.9919,1142.7564,185.9164,1144.4682,185.2488,1146.349,185.3197,1146.5203,183.3416,1146.953,181.5568,1147.8526,179.8231,1148.8752,177.8766,1149.3844,176.0417,1150.1628,176.0417,1150.2725,165.1042,1150.5155,154.1667,1150.5963,143.2292,1150.1587,132.2917,1150.4619,121.3542,1149.5665,110.4167,1150.459,99.4792,1150.7338,88.5417,1150.1628,88.6007,1150.3054,86.7817,1149.5967,84.7946,1148.4823,82.9307,1147.6653,81.0934,1146.9124,79.3345,1146.349,79.3157,1146.3412,78.5088,1144.4815,78.0277,1142.7567,76.9903,1140.8016,76.1735,1138.9378,75.5208,1137.1419,75.6001,1137.1419,75.2893,1131.1068,75.3406,1125.0716,75.7462,1119.0365,75.6721,1113.0013,75.5208,1106.9661,75.7565,1107.0637,76.1803,1105.082,77.1487,1103.3257,77.9985,1101.5203,78.4203,1099.5377,79.3345,1097.759,79.3218,1097.7283,81.1927,1097.0367,83.104,1096.4426,84.8583,1095.4695,86.7617,1094.8564,88.5417,1093.9453" style="stroke:#333333;stroke-width:1.5625;"/><path d="M75.5208,1129.3294 L75.5208,1129.6213 L85.8428,1128.754 L96.1648,1129.5979 L106.4867,1129.8845 L116.8087,1128.3386 L127.1307,1129.2215 L137.4527,1128.7371 L147.7746,1128.7968 L158.0966,1129.2348 L168.4186,1128.3692 L178.7405,1130.0984 L189.0625,1129.3294 " fill="#474747" style="stroke:#333333;stroke-width:1.5625;"/><text fill="#FFFFFF" font-family="Segoe Print" font-size="12.5" lengthAdjust="spacing" textLength="82.2917" x="91.1458" y="1115.9648">ScrollLockOn</text></g><!--MD5=[8676698f49c1acec7e35e8e65e103748]
link *start*CONC95 to ScrollLockOff--><path d="M56.3021,1002.2786 L56.3021,1002.376 L59.0333,1002.0868 L61.7646,1002.3681 L64.4958,1002.4637 L67.2271,1001.9484 L69.9583,1002.2786 " fill="none" style="stroke:#333333;stroke-width:3.125;"/><polygon fill="#333333" points="75.3021,1002.2786,75.3317,1002.3453,73.3687,1001.3139,71.5793,1000.6733,69.7334,999.9055,67.7015,998.719,65.9271,998.112,65.908,998.0929,66.6557,998.8406,67.4996,999.6845,68.4103,1000.5952,69.0907,1001.2756,70.0938,1002.2786,70.2297,1002.4146,69.1057,1002.9572,68.3785,1003.8968,67.6998,1004.8847,66.7394,1005.5909,65.9271,1006.4453,65.9367,1006.467,67.7976,1005.6018,69.7023,1004.8353,71.5858,1004.0212,73.5097,1003.2978,75.3021,1002.2786" style="stroke:#333333;stroke-width:3.125;"/><!--MD5=[da4e1e55b4a6de250eca2c82023085fa]
link ScrollLockOff to ScrollLockOn--><path d="M75.4063,1024.9766 L75.4664,1025.0531 L72.5568,1026.9716 L69.9996,1029.3386 L67.3276,1031.5596 L64.2782,1033.3002 L61.7513,1035.7057 L61.7232,1035.6833 L59.4549,1038.2723 L57.3286,1040.9743 L55.3008,1043.7548 L52.9332,1046.2647 L51.0417,1049.1536 L51.2846,1049.2353 L49.8901,1051.6649 L49.2049,1054.3328 L48.6062,1057.0298 L47.504,1059.5577 L46.6667,1062.1745 L46.6966,1062.1845 L47.5276,1064.7739 L48.495,1067.4091 L49.3966,1070.0222 L50.4237,1072.6775 L51.0417,1075.1953 L51.2886,1075.3838 L53.0518,1077.6926 L54.6557,1079.8798 L56.4928,1082.245 L58.3407,1084.6186 L59.8424,1086.7279 L59.6241,1086.4753 L62.2627,1088.8798 L64.1824,1090.4527 L66.6486,1092.6578 L68.552,1094.2118 L70.9167,1096.2995 " fill="none" style="stroke:#333333;stroke-width:3.125;"/><polygon fill="#333333" points="75.4063,1099.3724,75.4684,1099.4107,74.2079,1097.5498,73.3118,1095.9132,72.297,1094.2035,70.8921,1092.2537,70.0273,1090.6364,70.0007,1090.6314,70.0982,1091.7676,70.3293,1092.9288,70.6534,1094.1074,70.6572,1095.2261,71.1096,1096.4287,71.1449,1096.6176,69.9109,1096.43,68.7801,1096.7941,67.6618,1097.2255,66.4703,1097.2653,65.3173,1097.511,65.3216,1097.5343,67.3331,1097.8724,69.3641,1098.3165,71.3857,1098.7095,73.4254,1099.2001,75.4063,1099.3724" style="stroke:#333333;stroke-width:3.125;"/><text fill="#FFFFFF" font-family="Segoe Print" font-size="12.5" lengthAdjust="spacing" textLength="129.1667" x="57.2917" y="1067.0064">EvCapsLockPressed</text><!--MD5=[6ad2c621f2407b82317910f4deb17639]
link ScrollLockOn to ScrollLockOff--><path d="M178.4271,1093.737 L178.4987,1093.8029 L179.886,1091.87 L181.6929,1090.3236 L183.3632,1088.6514 L184.5842,1086.5653 L186.4271,1085.0521 L186.3967,1085.0327 L187.5168,1082.9746 L188.7899,1081.014 L190.1692,1079.1211 L191.1822,1076.9947 L192.7083,1075.1953 L192.9541,1075.2682 L193.2004,1072.5082 L194.1643,1069.961 L195.2157,1067.4396 L195.7578,1064.7674 L196.5677,1062.1745 L196.598,1062.1835 L195.7817,1059.5661 L195.1032,1056.9896 L194.3582,1054.3934 L193.7402,1051.8349 L192.7083,1049.1536 L192.9617,1049.3334 L190.8919,1046.4126 L188.6587,1043.376 L186.6646,1040.5091 L184.6819,1037.65 L182.3438,1034.5391 " fill="none" style="stroke:#333333;stroke-width:3.125;"/><polygon fill="#333333" points="178.4271,1030.612,178.4953,1030.638,179.0254,1032.4772,179.9552,1034.4691,180.7548,1036.4112,181.1265,1038.1898,182.0906,1040.1948,182.0636,1040.1947,181.9449,1039.016,181.9622,1037.8375,182.0741,1036.6592,181.86,1035.4803,182.1025,1034.3023,182.1029,1034.4945,183.2806,1034.0858,184.4594,1034.2384,185.6383,1034.4594,186.8165,1034.282,187.995,1034.3142,188.0036,1034.3363,186.0774,1033.5634,184.1902,1032.8911,182.2842,1032.1703,180.4141,1031.5421,178.4271,1030.612" style="stroke:#333333;stroke-width:3.125;"/><text fill="#FFFFFF" font-family="Segoe Print" font-size="12.5" lengthAdjust="spacing" textLength="129.1667" x="202.0833" y="1067.0064">EvCapsLockPressed</text><!--MD5=[242ad121cef04112e9b0ee8f25f52375]
link *start to fork_state--><path d="M184.375,77.6367 L184.6669,77.6367 L183.7996,87.2131 L184.6435,96.7895 L184.9301,106.3659 L183.3842,115.9423 L184.2671,125.5187 L184.375,135.0951 " fill="none" style="stroke:#333333;stroke-width:3.125;"/><polygon fill="#333333" points="184.375,140.6471,184.4417,140.6768,185.0769,138.7137,186.103,136.9244,187.0018,135.0785,187.482,133.0465,188.5417,131.2721,188.5226,131.2531,187.6036,132.0008,186.7808,132.8446,186.0249,133.7554,185.0386,134.4357,184.375,135.4388,184.5109,135.5747,183.3869,134.4507,182.6598,133.7236,181.9811,133.0449,181.0206,132.0844,180.2083,131.2721,180.23,131.2818,181.0315,133.1426,181.9316,135.0473,182.7842,136.9309,183.7275,138.8547,184.375,140.6471" style="stroke:#333333;stroke-width:3.125;"/><!--MD5=[44dd36eb382d4fffd186e8c447a61da0]
link fork_state to State2--><path d="M182.2813,149.6888 L182.5328,149.8369 L176.0857,159.0756 L171.1133,169.1827 L165.6606,179.0069 L158.6289,187.9013 L153.69,198.0281 L148.0833,207.7617 " fill="none" style="stroke:#333333;stroke-width:3.125;"/><polygon fill="#333333" points="145.375,212.3451,145.4175,212.4043,146.9582,211.0319,148.7482,210.007,150.457,208.869,151.8987,207.3587,153.7102,206.3637,153.7034,206.3376,152.5325,206.518,151.3959,206.83,150.2832,207.2336,149.0883,207.3218,148.0086,207.8516,148.1946,207.9002,147.4992,206.656,147.347,205.5536,147.261,204.4685,146.7894,203.2828,146.5207,202.15,146.5442,202.1526,146.2805,204.1878,146.124,206.2349,145.9158,208.2763,145.8062,210.3288,145.375,212.3451" style="stroke:#333333;stroke-width:3.125;"/><!--MD5=[43d4d70f9cd19f132a5eb1ce9d85c890]
link fork_state to State3--><path d="M186.75,149.6888 L186.9929,149.8507 L191.8009,157.6658 L198.0329,166.43 L203.8012,174.8851 L208.0446,182.3238 L214.309,191.1096 L219.4357,199.1371 L225.4583,207.7617 " fill="none" style="stroke:#333333;stroke-width:3.125;"/><polygon fill="#333333" points="228.5208,212.3451,228.5928,212.3574,228.0308,210.2986,227.8904,208.3123,227.6127,206.3024,226.8836,204.2147,226.7794,202.2347,226.7529,202.2294,226.404,203.3616,226.1884,204.5203,226.0656,205.6975,225.6231,206.811,225.6283,208.0137,225.6659,208.2023,224.4298,207.5689,223.3033,207.486,222.1902,207.4702,220.9993,207.0637,219.8493,206.8627,219.862,206.8827,221.5777,207.9498,223.351,209.108,225.0966,210.2223,226.8952,211.4205,228.5208,212.3451" style="stroke:#333333;stroke-width:3.125;"/><!--MD5=[8cf5ef3a64654818495211b4c165bd62]
link State2 to join_state--><path d="M115.3333,269.293 L115.426,269.3227 L114.2572,272.015 L113.6314,274.8817 L112.8288,277.6917 L111.4447,280.3147 L110.8656,283.1965 L110.8301,283.1906 L110.183,286.1245 L109.715,289.088 L109.3713,292.0719 L108.599,294.9852 L108.4271,297.9974 L108.683,298.0118 L108.3012,300.9228 L108.6665,303.8759 L109.123,306.8341 L109.0492,309.7625 L109.2542,312.7065 L109.2837,312.718 L110.3063,315.4268 L111.4628,318.1879 L112.5548,320.9237 L113.77,323.7078 L114.5833,326.3346 L114.8185,326.5377 L116.7227,328.7425 L118.4753,330.8165 L120.4499,333.0821 L122.4349,335.3567 L124.0902,337.3467 L123.8987,337.0732 L126.6783,339.2896 L128.8275,340.6054 L131.4559,342.606 L133.5908,343.9014 L136.1302,345.7747 L136.1167,345.746 L138.9105,347.3205 L141.3898,348.224 L144.0546,349.5234 L146.735,350.856 L149.3031,351.9489 L149.3633,352.1319 L151.8835,352.7972 L154.5068,353.7753 L156.9633,354.2474 L159.6685,355.4742 L162.2083,356.1992 " fill="none" style="stroke:#333333;stroke-width:3.125;"/><polygon fill="#333333" points="167.5833,357.5742,167.6286,357.6314,165.8851,356.1881,164.407,355.0803,162.8425,353.8632,160.9936,352.2869,159.5384,351.2079,159.5151,351.1941,160.0109,352.1468,160.6238,353.1687,161.3181,354.2388,161.7318,355.143,162.5385,356.2795,162.6364,356.445,161.4127,356.6912,160.4749,357.4205,159.5719,358.2087,158.466,358.654,157.4668,359.2796,157.4708,359.303,159.4883,358.9276,161.5237,358.6586,163.5505,358.3383,165.5938,358.1158,167.5833,357.5742" style="stroke:#333333;stroke-width:3.125;"/><text fill="#FFFFFF" font-family="Segoe Print" font-size="12.5" lengthAdjust="spacing" textLength="98.9583" x="120.8333" y="318.1458">some message</text><!--MD5=[183fde86cac17ac230b97143534e47db]
link State3 to join_state--><path d="M246.3542,269.2096 L246.4508,269.2211 L245.8352,271.9645 L245.7861,274.775 L245.5525,277.5637 L244.7122,280.2806 L244.7118,283.0968 L244.6765,283.0897 L243.9204,286.0186 L243.3421,288.9834 L242.8874,291.9731 L242.0067,294.8769 L241.7227,297.901 L241.9668,297.9791 L240.5027,300.7602 L239.7515,303.7691 L239.0873,306.8058 L237.917,309.6808 L237.0129,312.6408 L237.0411,312.6548 L235.6387,315.373 L234.3651,318.1551 L233.0293,320.9064 L231.8121,323.7165 L230.2083,326.3346 L230.4531,326.5259 L229.0226,328.3627 L227.4341,330.076 L226.0768,331.97 L224.7303,333.8725 L223.0405,335.5067 L222.8154,335.2601 L221.519,337.3217 L219.4812,338.5714 L218.0071,340.4383 L215.9525,341.6696 L214.3737,343.4219 L214.3552,343.3961 L212.7547,345.0112 L210.7211,346.0251 L208.9431,347.3938 L207.1866,348.7922 L205.2752,349.9757 L205.3745,350.1409 L203.5818,350.9918 L201.9587,352.1249 L200.061,352.8015 L198.5729,354.159 L196.8125,355.0638 " fill="none" style="stroke:#333333;stroke-width:3.125;"/><polygon fill="#333333" points="192.125,357.5534,192.1301,357.6262,194.1618,357.2669,196.2234,357.3345,198.2753,357.263,200.2952,356.7346,202.3593,356.8387,202.3514,356.8129,201.1891,356.3517,200.0668,356.0206,198.9721,355.7799,197.7819,355.2276,196.7255,355.1117,196.9093,355.168,196.8617,353.9208,197.3507,352.838,197.9052,351.7754,198.0787,350.5959,198.4526,349.4779,198.4712,349.4925,197.1783,351.0862,195.9703,352.7463,194.7214,354.3744,193.5506,356.0637,192.125,357.5534" style="stroke:#333333;stroke-width:3.125;"/><!--MD5=[1e473d623208eebf6d5ebd6e9bc5a11d]
link join_state to State4--><path d="M185.4167,366.3555 L185.7086,366.3555 L184.8412,377.8034 L185.6851,389.2513 L185.9718,400.6992 L184.4258,412.1471 L185.4167,423.5951 " fill="none" style="stroke:#333333;stroke-width:3.125;"/><polygon fill="#333333" points="185.4167,429.0117,185.4834,429.0414,186.1185,427.0783,187.1447,425.289,188.0435,423.4431,188.5236,421.4111,189.5833,419.6367,189.5643,419.6176,188.6453,420.3653,187.8225,421.2092,187.0666,422.12,186.0803,422.8003,185.4167,423.8034,185.5526,423.9393,184.4286,422.8153,183.7014,422.0882,183.0227,421.4094,182.0623,420.449,181.25,419.6367,181.2717,419.6463,182.0732,421.5072,182.9733,423.4119,183.8259,425.2954,184.7692,427.2193,185.4167,429.0117" style="stroke:#333333;stroke-width:3.125;"/><!--MD5=[0a70b1a7cf318979336334b4227eefe4]
link State4 to Active--><path d="M185.4167,485.793 L185.7086,485.793 L184.8412,495.4701 L185.6851,505.1471 L185.9718,514.8242 L184.4258,524.5013 L185.3087,534.1784 L185.4167,543.8555 " fill="none" style="stroke:#333333;stroke-width:3.125;"/><polygon fill="#333333" points="185.4167,549.168,185.4834,549.1976,186.1185,547.2345,187.1447,545.4452,188.0435,543.5993,188.5236,541.5674,189.5833,539.793,189.5643,539.7739,188.6453,540.5216,187.8225,541.3655,187.0666,542.2762,186.0803,542.9566,185.4167,543.9596,185.5526,544.0956,184.4286,542.9716,183.7014,542.2444,183.0227,541.5657,182.0623,540.6052,181.25,539.793,181.2717,539.8026,182.0732,541.6635,182.9733,543.5681,183.8259,545.4517,184.7692,547.3756,185.4167,549.168" style="stroke:#333333;stroke-width:3.125;"/><!--MD5=[f07b52e08eec8333dd20bc3c5441c323]
@startuml

!$THEME = "sketchy"

!if %not(%variable_exists("$BGCOLOR"))
!$BGCOLOR = "transparent"
!endif

skinparam backgroundColor $BGCOLOR
skinparam useBetaStyle false
skinparam handwritten true
skinparam shadowing false

!$BLUE = "#007bff"
!$INDIGO = "#6610f2"
!$PURPLE = "#6f42c1"
!$PINK = "#e83e8c"
!$RED = "#dc3545"
!$ORANGE = "#fd7e14"
!$YELLOW = "#ffc107"
!$GREEN = "#28a745"
!$TEAL = "#20c997"
!$CYAN = "#17a2b8"
!$WHITE = "#ffffff"
!$GRAY = "#868e96"
!$GRAYDARK = "#333333"
!$PRIMARY = "#333333"
!$SECONDARY = "#555555"
!$SUCCESS = "#28a745"
!$INFO = "#17a2b8"
!$WARNING = "#ffc107"
!$DANGER = "#dc3545"
!$LIGHT = "#ffffff"
!$DARK = "#555555"

!$FGCOLOR = $WHITE
!$PRIMARY_DARK = "#2e2e2e"
!$PRIMARY_LIGHT = "#474747"
!$PRIMARY_TEXT = $WHITE
!$SECONDARY_DARK = "#4d4d4d"
!$SECONDARY_LIGHT = "#666666"
!$SECONDARY_TEXT = $WHITE
!$INFO_DARK = "#1592a6"
!$INFO_LIGHT = "#2eabbf"
!$INFO_TEXT = $WHITE
!$SUCCESS_DARK = "#24963e"
!$SUCCESS_LIGHT = "#3eb058"
!$SUCCESS_TEXT = $WHITE
!$WARNING_DARK = "#e6ae06"
!$WARNING_LIGHT = "#ffc720"
!$WARNING_TEXT = $WHITE
!$DANGER_DARK = "#c6303e"
!$DANGER_LIGHT = "#e04958"
!$DANGER_TEXT = $WHITE
!$DARK_DARK = "#4d4d4d"
!$DARK_LIGHT = "#666666"
!$LIGHT_DARK = "#e6e6e6"
!$LIGHT_LIGHT = "#ffffff"

!procedure $success($msg)
  <font color=$SUCCESS><b>$msg
!endprocedure

!procedure $failure($msg)
  <font color=$DANGER><b>$msg
!endprocedure

!procedure $warning($msg)
  <font color=$WARNING><b>$msg
!endprocedure

!procedure $primary_scheme()
	FontColor $PRIMARY_TEXT
	BorderColor $PRIMARY
	BackgroundColor $PRIMARY_LIGHT
!endprocedure

skinparam defaultFontName       "Segoe Print"
skinparam defaultFontSize       12
skinparam dpi                   100
skinparam shadowing             false
skinparam roundcorner           8
skinparam ParticipantPadding    40
skinparam BoxPadding            40
skinparam Padding               5
skinparam ArrowColor            $DARK
skinparam stereotype {
    CBackgroundColor $SECONDARY_LIGHT
    CBorderColor $SECONDARY_DARK
    ABackgroundColor $SUCCESS_LIGHT
    ABorderColor $SUCCESS_DARK
    IBackgroundColor $DANGER_LIGHT
    IBorderColor $DANGER_DARK
    EBackgroundColor $WARNING_LIGHT
    EBorderColor $WARNING_DARK
    NBackgroundColor $INFO_LIGHT
    NBorderColor $INFO_DARK
}
skinparam title {
	FontColor	                 $FGCOLOR
	BorderColor	                 $SECONDARY_DARK
	FontSize	    	         20
	BorderRoundCorner            8
	BorderThickness 	         1
	BackgroundColor              $SECONDARY_LIGHT-$SECONDARY
}

skinparam legend {
	BackgroundColor $SECONDARY
	BorderColor $SECONDARY_DARK
	FontColor $LIGHT
}

!startsub swimlane
skinparam swimlane {
	BorderColor $INFO
	BorderThickness 2
	TitleBackgroundColor  $SECONDARY_LIGHT-$SECONDARY
	TitleFontColor $FGCOLOR
}
!endsub

!startsub activity

skinparam activity {
	$primary_scheme()
	BarColor $SUCCESS
	StartColor $INFO
	EndColor $INFO
	DiamondBackgroundColor $SECONDARY_LIGHT
  	DiamondBorderColor $SECONDARY_DARK
  	DiamondFontColor $SECONDARY_TEXT
}
!endsub

!startsub participant

skinparam participant {
	$primary_scheme()
	ParticipantBorderThickness 2
}
!endsub

!startsub actor

skinparam actor {
	$primary_scheme()
}
!endsub

!startsub arrow

skinparam arrow {
	Thickness 3
	Color $PRIMARY
	FontColor $FGCOLOR
}
!endsub

!startsub sequence

skinparam sequence {
	BorderColor $PRIMARY
	TitleFontColor $PRIMARY
	BackgroundColor $BGCOLOR
	StartColor $PRIMARY
	EndColor $PRIMARY
	BoxBackgroundColor $BGCOLOR
	BoxBorderColor $DARK
	BoxFontColor $DARk
	LifeLineBorderColor $SECONDARY
	LifeLineBorderThickness 2
	LifeLineBackgroundColor $SECONDARY_DARK
	GroupBorderColor $DARK
	GroupFontColor $DARK
	GroupHeaderFontColor $INFO
	GroupBackgroundColor $SECONDARY
	GroupHeaderBackgroundColor $BGCOLOR
	DividerBackgroundColor $DARK
    DividerBorderColor $DARK
    DividerBorderThickness 2
    DividerFontColor $LIGHT
	ReferenceBackgroundColor $BGCOLOR
	ReferenceBorderColor $DARK
	ReferenceFontColor $DARK
	ReferenceHeaderFontColor $INFO
	ReferenceHeaderBackgroundColor $SECONDARY
}
!endsub

!startsub partition

skinparam partition {
	BorderColor $PRIMARY
	FontColor $PRIMARY
	BackgroundColor $BGCOLOR
}
!endsub

!startsub collections

skinparam collections {
	$primary_scheme()
}
!endsub

!startsub control

skinparam control {
	$primary_scheme()
}
!endsub

!startsub entity

skinparam entity {
	$primary_scheme()
}
!endsub

!startsub boundary

skinparam boundary {
	$primary_scheme()
}
!endsub

!startsub agent

skinparam agent {
	BackgroundColor $WARNING
	BorderColor $WARNING_LIGHT
	FontColor $DARK
}
!endsub

!startsub note

skinparam note {
	BorderThickness 1
	BackgroundColor $INFO
	BorderColor $INFO_DARK
	FontColor $WHITE
}
!endsub

!startsub artifact

skinparam artifact {
	BackgroundColor $DARK
	BorderColor $DARK_DARK
	FontColor $LIGHT
}
!endsub

!startsub component

skinparam component {
	$primary_scheme()
}
!endsub

!startsub interface

skinparam interface {
	BackgroundColor  $DANGER_DARK
	BorderColor  $DANGER
	FontColor $DARK
}
!endsub

!startsub storage

skinparam storage {
	BackgroundColor $WARNING
  	BorderColor $WARNING_DARK
	FontColor $WARNING_TEXT
}
!endsub

!startsub node

skinparam node {
	BackgroundColor  $SECONDARY
	BorderColor $LIGHT
	FontColor $LIGHT
}
!endsub

!startsub cloud

skinparam cloud {
	BackgroundColor #F2FCFE-#eeeeee
	BorderColor #F2FCFE
	FontColor $DARK
}
!endsub

!startsub database

skinparam database {
	$primary_scheme()
}
!endsub

!startsub class

skinparam class {
	$primary_scheme()
	FontColor $FGCOLOR
	HeaderBackgroundColor $PRIMARY_LIGHT
	StereotypeFontColor $DARK
	BorderThickness 1
	AttributeFontColor $LIGHT
	AttributeFontSize 11
}
!endsub

!startsub object

skinparam object {
	$primary_scheme()
	StereotypeFontColor $DARK
	BorderThickness 1
	AttributeFontColor $SECONDARY_TEXT
	AttributeFontSize 11
}
!endsub

!startsub usecase

skinparam usecase {
	$primary_scheme()
	BorderThickness 2
	StereotypeFontColor $PRIMARY
}
!endsub

!startsub rectangle

skinparam rectangle {
	$primary_scheme()
	BackgroundColor $SECONDARY_LIGHT
	BorderThickness 2
	StereotypeFontColor $PRIMARY
}
!endsub

!startsub package

skinparam package {
	BackgroundColor $SECONDARY
  	BorderColor $PRIMARY
	FontColor $PRIMARY
	BorderThickness 2
}
!endsub

!startsub folder

skinparam folder {
	BackgroundColor $SECONDARY_LIGHT
  	BorderColor $WARNING
	FontColor $WARNING
	BorderThickness 2
}
!endsub

!startsub frame

skinparam frame {
	BackgroundColor $SECONDARY_LIGHT
  	BorderColor $INFO
	FontColor $INFO
	BorderThickness 2
}
!endsub

!startsub state

skinparam state {
	$primary_scheme()
	StartColor $INFO
	EndColor $INFO
	AttributeFontColor $SECONDARY_TEXT
	AttributeFontSize 11
}
!endsub

!startsub queue

skinparam queue {
	$primary_scheme()
}
!endsub

!startsub card

skinparam card {
	BackgroundColor $INFO
	BorderColor $INFO_DARK
	FontColor $INFO_TEXT
}
!endsub

!startsub file

skinparam file {
	BackgroundColor $SECONDARY_DARK
	BorderColor $LIGHT
	FontColor $LIGHT
}
!endsub

!startsub stack

skinparam stack {
	$primary_scheme()
}
!endsub

!if %variable_exists("$THEME")
title State Diagram - $THEME theme
!else
title State Diagram
!endif

'skinparam BackgroundColor transparent

state fork_state <<fork>>
[*] - -> fork_state
fork_state - -> State2
fork_state - -> State3

state join_state <<join>>
State2 - -> join_state: some message
State3 - -> join_state
join_state - -> State4
State4 - -> Active

state Active {
  [*] -> NumLockOff
  NumLockOff - -> NumLockOn : EvNumLockPressed
  NumLockOn - -> NumLockOff : EvNumLockPressed
  - -
  [*] -> CapsLockOff
  CapsLockOff - -> CapsLockOn : EvCapsLockPressed
  CapsLockOn - -> CapsLockOff : EvCapsLockPressed
  - -
  [*] -> ScrollLockOff
  ScrollLockOff - -> ScrollLockOn : EvCapsLockPressed
  ScrollLockOn - -> ScrollLockOff : EvCapsLockPressed
}

@enduml

@startuml



skinparam backgroundColor transparent
skinparam useBetaStyle false
skinparam handwritten true
skinparam shadowing false







skinparam defaultFontName       "Segoe Print"
skinparam defaultFontSize       12
skinparam dpi                   100
skinparam shadowing             false
skinparam roundcorner           8
skinparam ParticipantPadding    40
skinparam BoxPadding            40
skinparam Padding               5
skinparam ArrowColor            #555555
skinparam stereotype {
    CBackgroundColor #666666
    CBorderColor #4d4d4d
    ABackgroundColor #3eb058
    ABorderColor #24963e
    IBackgroundColor #e04958
    IBorderColor #c6303e
    EBackgroundColor #ffc720
    EBorderColor #e6ae06
    NBackgroundColor #2eabbf
    NBorderColor #1592a6
}
skinparam title {
	FontColor	                 #ffffff
	BorderColor	                 #4d4d4d
	FontSize	    	         20
	BorderRoundCorner            8
	BorderThickness 	         1
	BackgroundColor              #666666-#555555
}

skinparam legend {
	BackgroundColor #555555
	BorderColor #4d4d4d
	FontColor #ffffff
}

skinparam swimlane {
	BorderColor #17a2b8
	BorderThickness 2
	TitleBackgroundColor  #666666-#555555
	TitleFontColor #ffffff
}


skinparam activity {
		FontColor #ffffff
	BorderColor #333333
	BackgroundColor #474747
	BarColor #28a745
	StartColor #17a2b8
	EndColor #17a2b8
	DiamondBackgroundColor #666666
  	DiamondBorderColor #4d4d4d
  	DiamondFontColor #ffffff
}


skinparam participant {
		FontColor #ffffff
	BorderColor #333333
	BackgroundColor #474747
	ParticipantBorderThickness 2
}


skinparam actor {
		FontColor #ffffff
	BorderColor #333333
	BackgroundColor #474747
}


skinparam arrow {
	Thickness 3
	Color #333333
	FontColor #ffffff
}


skinparam sequence {
	BorderColor #333333
	TitleFontColor #333333
	BackgroundColor transparent
	StartColor #333333
	EndColor #333333
	BoxBackgroundColor transparent
	BoxBorderColor #555555
	BoxFontColor $DARk
	LifeLineBorderColor #555555
	LifeLineBorderThickness 2
	LifeLineBackgroundColor #4d4d4d
	GroupBorderColor #555555
	GroupFontColor #555555
	GroupHeaderFontColor #17a2b8
	GroupBackgroundColor #555555
	GroupHeaderBackgroundColor transparent
	DividerBackgroundColor #555555
    DividerBorderColor #555555
    DividerBorderThickness 2
    DividerFontColor #ffffff
	ReferenceBackgroundColor transparent
	ReferenceBorderColor #555555
	ReferenceFontColor #555555
	ReferenceHeaderFontColor #17a2b8
	ReferenceHeaderBackgroundColor #555555
}


skinparam partition {
	BorderColor #333333
	FontColor #333333
	BackgroundColor transparent
}


skinparam collections {
		FontColor #ffffff
	BorderColor #333333
	BackgroundColor #474747
}


skinparam control {
		FontColor #ffffff
	BorderColor #333333
	BackgroundColor #474747
}


skinparam entity {
		FontColor #ffffff
	BorderColor #333333
	BackgroundColor #474747
}


skinparam boundary {
		FontColor #ffffff
	BorderColor #333333
	BackgroundColor #474747
}


skinparam agent {
	BackgroundColor #ffc107
	BorderColor #ffc720
	FontColor #555555
}


skinparam note {
	BorderThickness 1
	BackgroundColor #17a2b8
	BorderColor #1592a6
	FontColor #ffffff
}


skinparam artifact {
	BackgroundColor #555555
	BorderColor #4d4d4d
	FontColor #ffffff
}


skinparam component {
		FontColor #ffffff
	BorderColor #333333
	BackgroundColor #474747
}


skinparam interface {
	BackgroundColor  #c6303e
	BorderColor  #dc3545
	FontColor #555555
}


skinparam storage {
	BackgroundColor #ffc107
  	BorderColor #e6ae06
	FontColor #ffffff
}


skinparam node {
	BackgroundColor  #555555
	BorderColor #ffffff
	FontColor #ffffff
}


skinparam cloud {
	BackgroundColor #F2FCFE-#eeeeee
	BorderColor #F2FCFE
	FontColor #555555
}


skinparam database {
		FontColor #ffffff
	BorderColor #333333
	BackgroundColor #474747
}


skinparam class {
		FontColor #ffffff
	BorderColor #333333
	BackgroundColor #474747
	FontColor #ffffff
	HeaderBackgroundColor #474747
	StereotypeFontColor #555555
	BorderThickness 1
	AttributeFontColor #ffffff
	AttributeFontSize 11
}


skinparam object {
		FontColor #ffffff
	BorderColor #333333
	BackgroundColor #474747
	StereotypeFontColor #555555
	BorderThickness 1
	AttributeFontColor #ffffff
	AttributeFontSize 11
}


skinparam usecase {
		FontColor #ffffff
	BorderColor #333333
	BackgroundColor #474747
	BorderThickness 2
	StereotypeFontColor #333333
}


skinparam rectangle {
		FontColor #ffffff
	BorderColor #333333
	BackgroundColor #474747
	BackgroundColor #666666
	BorderThickness 2
	StereotypeFontColor #333333
}


skinparam package {
	BackgroundColor #555555
  	BorderColor #333333
	FontColor #333333
	BorderThickness 2
}


skinparam folder {
	BackgroundColor #666666
  	BorderColor #ffc107
	FontColor #ffc107
	BorderThickness 2
}


skinparam frame {
	BackgroundColor #666666
  	BorderColor #17a2b8
	FontColor #17a2b8
	BorderThickness 2
}


skinparam state {
		FontColor #ffffff
	BorderColor #333333
	BackgroundColor #474747
	StartColor #17a2b8
	EndColor #17a2b8
	AttributeFontColor #ffffff
	AttributeFontSize 11
}


skinparam queue {
		FontColor #ffffff
	BorderColor #333333
	BackgroundColor #474747
}


skinparam card {
	BackgroundColor #17a2b8
	BorderColor #1592a6
	FontColor #ffffff
}


skinparam file {
	BackgroundColor #4d4d4d
	BorderColor #ffffff
	FontColor #ffffff
}


skinparam stack {
		FontColor #ffffff
	BorderColor #333333
	BackgroundColor #474747
}

title State Diagram - sketchy theme


state fork_state <<fork>>
[*] - -> fork_state
fork_state - -> State2
fork_state - -> State3

state join_state <<join>>
State2 - -> join_state: some message
State3 - -> join_state
join_state - -> State4
State4 - -> Active

state Active {
  [*] -> NumLockOff
  NumLockOff - -> NumLockOn : EvNumLockPressed
  NumLockOn - -> NumLockOff : EvNumLockPressed
  - -
  [*] -> CapsLockOff
  CapsLockOff - -> CapsLockOn : EvCapsLockPressed
  CapsLockOn - -> CapsLockOff : EvCapsLockPressed
  - -
  [*] -> ScrollLockOff
  ScrollLockOff - -> ScrollLockOn : EvCapsLockPressed
  ScrollLockOn - -> ScrollLockOff : EvCapsLockPressed
}

@enduml

PlantUML version 1.2021.01(Mon Feb 01 23:55:08 PST 2021)
(GPL source distribution)
Java Runtime: OpenJDK Runtime Environment
JVM: OpenJDK 64-Bit Server VM
Default Encoding: UTF-8
Language: en
Country: US
--></g></svg>