<?xml version="1.0" encoding="UTF-8" standalone="no"?><svg xmlns="http://www.w3.org/2000/svg" xmlns:xlink="http://www.w3.org/1999/xlink" contentScriptType="application/ecmascript" contentStyleType="text/css" height="507.2917px" preserveAspectRatio="none" style="width:398px;height:507px;background:#00000000;" version="1.1" viewBox="0 0 398 507" width="398.9583px" zoomAndPan="magnify"><defs><linearGradient id="g1ft90xxjcpgab0" x1="50%" x2="50%" y1="0%" y2="100%"><stop offset="0%" stop-color="#666666"/><stop offset="100%" stop-color="#555555"/></linearGradient></defs><g><polygon fill="url(#g1ft90xxjcpgab0)" points="6.25,2.0833,6.25,2.3023,16.7245,1.6517,27.1991,2.2847,37.6736,2.4997,48.1481,1.3402,58.6227,2.0024,69.0972,1.6391,79.5718,1.6839,90.0463,2.0123,100.5208,1.3632,110.9954,2.66,121.4699,1.4268,131.9444,1.8773,142.419,2.5333,152.8935,1.994,163.3681,2.1544,173.8426,2.0501,184.3171,2.2693,194.7917,2.3324,205.2662,2.6934,215.7407,2.7823,226.2153,2.7909,236.6898,2.3486,247.1644,2.5662,257.6389,2.8148,268.1134,1.3321,278.588,2.7901,289.0625,1.7745,299.537,2.6394,310.0116,1.5677,320.4861,2.012,330.9606,2.8558,341.4352,2.0326,351.9097,2.193,362.3843,2.4361,372.8588,2.5169,383.3333,2.0833,383.3328,2.0821,383.9608,2.4195,384.4358,2.3879,385.1389,2.9068,385.7632,3.2355,386.2796,3.3037,386.4222,3.3628,386.7203,3.9744,386.6128,4.418,386.8026,4.9848,387.0566,5.5782,387.5,6.25,387.4387,6.25,387.2953,16.1047,388.2098,25.9595,387.318,35.8142,387.1427,45.6689,387.5,55.5237,387.5732,55.554,387.042,56.0243,386.8453,56.6332,386.9759,57.3777,386.6634,57.9386,386.2796,58.47,386.3772,58.7056,385.6476,58.6108,385.1435,59.0605,384.5903,59.3916,383.8598,59.2947,383.3333,59.6903,383.3333,59.5905,372.8588,59.8216,362.3843,60.3693,351.9097,59.686,341.4352,60.1722,330.9606,59.1135,320.4861,58.9849,310.0116,60.2149,299.537,58.9435,289.0625,60.2205,278.588,59.9056,268.1134,59.4113,257.6389,59.3218,247.1644,60.1682,236.6898,59.3785,226.2153,60.3069,215.7407,59.1146,205.2662,60.3335,194.7917,60.1948,184.3171,59.9455,173.8426,59.7395,163.3681,60.4472,152.8935,60.3295,142.419,59.8667,131.9444,59.9697,121.4699,59.5547,110.9954,60.4367,100.5208,59.8517,90.0463,59.8701,79.5718,59.0566,69.0972,59.2682,58.6227,60.2432,48.1481,60.138,37.6736,59.6456,27.1991,59.3548,16.7245,59.4623,6.25,59.6903,6.1588,59.4702,5.7159,59.5793,5.1698,59.4394,4.5522,59.127,3.9853,58.937,3.3037,58.47,3.2599,58.4518,3.0876,57.8923,2.6912,57.2399,2.6626,56.7399,2.4066,56.1457,2.0833,55.5237,2.6587,55.5237,1.8441,45.6689,1.9433,35.8142,2.5453,25.9595,2.6743,16.1047,2.0833,6.25,1.9189,6.1819,2.2652,5.635,2.6194,5.0913,2.6196,4.4011,3.173,3.9399,3.3037,3.3037,3.338,3.3865,3.8796,3.0273,4.5011,2.8612,5.1683,2.8052,5.6192,2.227,6.25,2.0833" style="stroke: #4D4D4D; stroke-width: 1.0416666666666667;"/><text fill="#FFFFFF" font-family="Segoe Print" font-size="20.8333" lengthAdjust="spacingAndGlyphs" textLength="358.3333" x="15.625" y="39.1927">Usecase Diagram - sketchy theme</text><!--MD5=[111002b242a260edbcaabc3e471064d0]
cluster checkout--><polygon fill="#666666" points="151.5625,87.8153,151.5625,88.0343,161.875,87.3838,172.1875,88.0167,182.5,88.2317,192.8125,87.0722,203.125,87.7344,213.4375,87.3711,223.75,87.4159,234.0625,87.7444,244.375,87.0952,254.6875,87.8153,254.7611,87.993,255.193,87.8572,255.8397,88.2401,256.5127,88.6861,257.0331,88.7641,257.6338,89.0357,257.6557,89.0448,257.8676,89.6207,258.1792,90.238,258.4427,90.8353,258.798,91.4706,258.8542,91.982,259.5532,91.982,259.5617,102.3651,259.1194,112.7481,259.3371,123.1312,259.5857,133.5143,258.1029,143.8973,259.5609,154.2804,258.5453,164.6635,259.4102,175.0465,258.3385,185.4296,258.7828,195.8127,259.6267,206.1957,258.8034,216.5788,258.9639,226.9619,259.2069,237.3449,259.2877,247.728,258.8501,258.111,259.1533,268.4941,258.2579,278.8772,259.1504,289.2602,259.4252,299.6433,259.3172,310.0264,259.4927,320.4094,258.351,330.7925,258.1748,341.1756,258.2069,351.5586,258.7928,361.9417,258.6494,372.3248,259.564,382.7078,258.6722,393.0909,258.4968,403.474,258.8542,413.857,258.9274,413.8873,258.3962,414.3577,258.1995,414.9665,258.3301,415.711,258.0176,416.2719,257.6338,416.8033,257.7314,417.0389,257.0018,416.9441,256.4977,417.3938,255.9445,417.7249,255.214,417.6281,254.6875,418.0237,254.6875,417.9238,244.375,418.1549,234.0625,418.7026,223.75,418.0193,213.4375,418.5055,203.125,417.4468,192.8125,417.3182,182.5,418.5483,172.1875,417.2769,161.875,418.5539,151.5625,418.0237,151.59,418.09,150.9376,417.6937,150.337,417.422,149.8557,417.4386,149.1657,416.9513,148.6162,416.8033,148.8061,416.8819,148.1948,416.1406,148.3261,415.7068,148.0393,415.0999,147.7185,414.4788,147.3958,413.857,147.445,413.857,148.1527,403.474,148.035,393.0909,147.5721,382.7078,147.6752,372.3248,147.2601,361.9417,148.1421,351.5586,147.5572,341.1756,147.5756,330.7925,146.7621,320.4094,146.9737,310.0264,147.9487,299.6433,147.8435,289.2602,147.3511,278.8772,147.0602,268.4941,147.1678,258.111,146.6811,247.728,147.8279,237.3449,148.1662,226.9619,147.9442,216.5788,148.1197,206.1957,147.2534,195.8127,147.4867,185.4296,146.9921,175.0465,147.6917,164.6635,147.6529,154.2804,147.9712,143.8973,147.1566,133.5143,147.2558,123.1312,147.8578,112.7481,147.9868,102.3651,147.3958,91.982,147.2314,91.9139,147.5777,91.367,147.9319,90.8233,147.9321,90.1331,148.4855,89.6719,148.6162,89.0357,148.6505,89.1185,149.1921,88.7593,149.8136,88.5932,150.4808,88.5373,150.9317,87.9591,151.5625,87.8153" style="stroke: #333333; stroke-width: 2.0833333333333335;"/><text fill="#FFFFFF" font-family="Segoe Print" font-size="12.5" font-weight="bold" lengthAdjust="spacingAndGlyphs" textLength="54.1667" x="176.0417" y="111.1226">checkout</text><polygon fill="#474747" points="241.1011,276.2043,240.3299,279.705,237.3861,282.3687,234.0085,285.0225,231.2201,288.1047,225.9594,289.8621,221.1533,291.7505,215.5124,292.9689,209.2973,293.5527,203.8998,294.1512,196.579,293.2098,191.9074,293.1051,185.8655,291.6243,180.0521,289.581,175.9787,287.7585,171.8859,285.2053,168.8239,282.4929,166.289,279.378,164.8124,276.1883,163.9804,272.7612,164.3678,269.4782,165.7735,266.3174,168.5289,263.5527,171.4789,260.6699,175.1675,258.07,181.2392,256.7471,184.9634,254.279,191.5638,253.5747,196.5994,252.3589,203.6977,252.6717,209.2977,252.6911,214.3541,253.002,220.7644,254.6802,225.7709,256.2912,230.1371,258.2706,233.9914,260.696,237.5891,263.6954,239.6077,266.5336,241.9068,270.1641,241.5,272.9274" style="stroke: #333333; stroke-width: 2.0833333333333335;"/><text fill="#FFFFFF" font-family="Segoe Print" font-size="12.5" lengthAdjust="spacingAndGlyphs" textLength="55.2083" x="175.5839" y="280.4705">checkout</text><polygon fill="#474747" points="241.8241,163.7403,241.0403,167.2464,238.0487,169.9141,234.6162,172.5719,231.7825,175.6588,226.4362,177.4189,221.552,179.3101,215.8194,180.5304,209.5033,181.1151,204.0181,181.7145,196.5783,180.7716,191.8307,180.6668,185.6906,179.1838,179.7827,177.1373,175.6431,175.3121,171.4838,172.755,168.372,170.0385,165.7959,166.9189,164.2953,163.7243,163.4498,160.292,163.8435,157.004,165.272,153.8385,168.0722,151.0697,171.0702,148.1824,174.8187,145.5786,180.9891,144.2537,184.7738,141.7818,191.4815,141.0764,196.599,139.8588,203.8126,140.1722,209.5037,140.1916,214.6423,140.5029,221.1568,142.1836,226.2447,143.7971,230.6819,145.7795,234.5989,148.2086,238.255,151.2125,240.3064,154.0551,242.6429,157.691,242.2295,160.4585" style="stroke: #333333; stroke-width: 2.0833333333333335;"/><text fill="#FFFFFF" font-family="Segoe Print" font-size="12.5" lengthAdjust="spacingAndGlyphs" textLength="56.25" x="175.1698" y="168.0019">payment</text><polygon fill="#474747" points="225.0362,385.4355,224.5949,388.5322,222.9104,390.8884,220.9776,393.2358,219.382,395.9623,216.3716,397.5168,213.6214,399.1872,210.3934,400.265,206.837,400.7815,203.7483,401.3108,199.5591,400.4781,196.8858,400.3855,193.4284,399.0756,190.1018,397.2681,187.7708,395.656,185.4288,393.3976,183.6766,390.9983,182.226,388.2429,181.3811,385.4214,180.905,382.3899,181.1267,379.4858,181.9311,376.6899,183.5078,374.2444,185.1959,371.6943,187.3066,369.3945,190.7811,368.2243,192.9122,366.0411,196.6892,365.4181,199.5708,364.3427,203.6326,364.6194,206.8372,364.6365,209.7306,364.9115,213.3988,366.396,216.2638,367.821,218.7622,369.5719,220.9678,371.7174,223.0266,374.3705,224.1816,376.8812,225.4973,380.0926,225.2645,382.5369" style="stroke: #333333; stroke-width: 2.0833333333333335;"/><text fill="#FFFFFF" font-family="Segoe Print" font-size="12.5" lengthAdjust="spacingAndGlyphs" textLength="26.0417" x="190.3202" y="390.0619">help</text><!--MD5=[92848cbaf65985a669855153c5362c37]
entity customer--><polygon fill="#474747" points="72.9627,236.7173,71.7412,238.3864,70.2964,240.831,68.23,242.4785,66.0586,243.3794,64.3273,243.4576,62.102,242.3309,60.0024,241.5948,58.4087,240.1003,57.5728,238.3894,57.077,237.0271,56.5913,235.2477,55.803,233.7165,56.4088,232.2214,56.9395,230.5837,58.9313,229.2884,60.3325,227.6078,62.067,227.0498,64.1289,226.5692,66.773,226.8547,68.2213,227.5377,69.9051,227.8473,71.9524,229.9449,72.6661,232.1593,72.9762,233.6702,72.625,236.16" style="stroke: #333333; stroke-width: 1.5625;"/><path d="M64.5833,243.0237 L64.7779,243.0237 L64.1997,248.6487 L64.7623,254.2737 L64.9534,259.8987 L63.9228,265.5237 L64.5833,271.1487 M51.0417,251.357 L51.0417,251.2851 L56.4583,250.9621 L61.875,251.0019 L67.2917,251.2939 L72.7083,250.7169 L78.125,251.357 M64.5833,271.1487 L64.9707,271.4844 L61.434,273.8915 L59.0283,277.2788 L56.7606,280.7856 L53.69,283.5967 L51.0417,286.7737 M64.5833,271.1487 L64.6311,271.1901 L67.2693,274.2543 L70.1249,277.5069 L72.8757,280.6687 L75.8265,284.0039 L78.125,286.7737 " fill="none" style="stroke: #333333; stroke-width: 1.5625;"/><text fill="#FFFFFF" font-family="Segoe Print" font-size="12.5" lengthAdjust="spacingAndGlyphs" textLength="57.2917" x="35.9375" y="310.6018">customer</text><!--MD5=[ebeabf449828f4e0b33bbb47961e644b]
entity clerk--><polygon fill="#474747" points="335.9835,236.7173,334.762,238.3864,333.3172,240.831,331.2508,242.4785,329.0795,243.3794,327.3481,243.4576,325.1229,242.3309,323.0232,241.5948,321.4296,240.1003,320.5936,238.3894,320.0979,237.0271,319.6122,235.2477,318.8239,233.7165,319.4296,232.2214,319.9604,230.5837,321.9521,229.2884,323.3534,227.6078,325.0878,227.0498,327.1497,226.5692,329.7939,226.8547,331.2421,227.5377,332.9259,227.8473,334.9732,229.9449,335.6869,232.1593,335.997,233.6702,335.6458,236.16" style="stroke: #333333; stroke-width: 1.5625;"/><path d="M327.6042,243.0237 L327.7988,243.0237 L327.2205,248.6487 L327.7831,254.2737 L327.9742,259.8987 L326.9436,265.5237 L327.6042,271.1487 M314.0625,251.357 L314.0625,251.2851 L319.4792,250.9621 L324.8958,251.0019 L330.3125,251.2939 L335.7292,250.7169 L341.1458,251.357 M327.6042,271.1487 L327.9916,271.4844 L324.4548,273.8915 L322.0491,277.2788 L319.7814,280.7856 L316.7108,283.5967 L314.0625,286.7737 M327.6042,271.1487 L327.6519,271.1901 L330.2901,274.2543 L333.1458,277.5069 L335.8965,280.6687 L338.8473,284.0039 L341.1458,286.7737 " fill="none" style="stroke: #333333; stroke-width: 1.5625;"/><text fill="#FFFFFF" font-family="Segoe Print" font-size="12.5" lengthAdjust="spacingAndGlyphs" textLength="29.1667" x="313.0208" y="310.6018">clerk</text><!--MD5=[852381a7bb976b86080137fb6d718ea9]
link customer to checkout--><path d="M98.6577,273.232 L98.6577,273.5239 L109.6375,272.6566 L120.6173,273.5005 L131.5971,273.7871 L142.5769,272.2412 L153.5567,273.1241 L164.5365,273.232 " fill="none" style="stroke: #333333; stroke-width: 3.125;"/><!--MD5=[3ad5c6d5c608bfd6b87dc9c07c40a15f]
link checkout to payment--><path d="M203.125,252.3351 L203.4169,252.3351 L202.5496,241.4973 L203.3935,230.6594 L203.6801,219.8216 L202.1342,208.9838 L203.0171,198.1459 L203.125,187.3081 " fill="none" style="stroke: #333333; stroke-width: 3.125; stroke-dasharray: 7.0,7.0;"/><polygon fill="#333333" points="203.125,181.8987,203.1917,181.9283,202.1602,183.7153,201.5197,185.6759,200.7518,187.58,199.5653,189.2981,198.9583,191.2737,198.9393,191.2546,199.687,190.3356,200.5308,189.5129,201.4416,188.7569,202.1219,187.7706,203.125,187.107,203.2609,187.2429,203.8036,187.7856,204.7431,188.7251,205.7311,189.7131,206.4373,190.4193,207.2917,191.2737,207.3133,191.2833,206.4482,189.3942,205.6816,187.5489,204.8675,185.6824,204.1442,183.8563,203.125,181.8987" style="stroke: #333333; stroke-width: 3.125;"/><text fill="#FFFFFF" font-family="Segoe Print" font-size="12.5" lengthAdjust="spacingAndGlyphs" textLength="42.7083" x="161.4583" y="222.0601">include</text><!--MD5=[739e7928149c8fe27c2b5850560351c7]
link help to checkout--><path d="M203.125,364.0531 L203.4169,364.0531 L202.5496,353.3013 L203.3935,342.5495 L203.6801,331.7977 L202.1342,321.046 L203.0171,310.2942 L203.125,299.5424 " fill="none" style="stroke: #333333; stroke-width: 3.125; stroke-dasharray: 7.0,7.0;"/><polygon fill="#333333" points="203.125,294.1206,203.1917,294.1502,202.1602,295.9371,201.5197,297.8978,200.7518,299.8019,199.5653,301.52,198.9583,303.4956,198.9393,303.4765,199.687,302.5575,200.5308,301.7347,201.4416,300.9788,202.1219,299.9925,203.125,299.3289,203.2609,299.4648,203.8036,300.0075,204.7431,300.947,205.7311,301.9349,206.4373,302.6412,207.2917,303.4956,207.3133,303.5052,206.4482,301.6161,205.6816,299.7707,204.8675,297.9043,204.1442,296.0782,203.125,294.1206" style="stroke: #333333; stroke-width: 3.125;"/><text fill="#FFFFFF" font-family="Segoe Print" font-size="12.5" lengthAdjust="spacingAndGlyphs" textLength="46.875" x="159.375" y="334.2997">extends</text><!--MD5=[b4c4ee8f2d94c159d2b9e04bd372cbe0]
link checkout to clerk--><path d="M241.8885,273.232 L241.8885,273.5239 L252.8389,272.6566 L263.7892,273.5005 L274.7396,273.7871 L285.6899,272.2412 L296.6403,273.1241 L307.5906,273.232 " fill="none" style="stroke: #333333; stroke-width: 3.125;"/><polygon fill="#555555" points="134.375,453.4403,134.375,453.6593,144.4444,453.0088,154.5139,453.6417,164.5833,453.8567,174.6528,452.6972,184.7222,453.3594,194.7917,452.9961,204.8611,453.0409,214.9306,453.3694,225,452.7202,235.0694,454.0171,245.1389,452.7838,255.2083,453.4403,255.1821,453.3769,256.0023,453.884,256.6701,454.023,257.4271,454.3775,258.1504,454.6505,258.8912,454.9658,258.9485,454.9896,259.273,455.7342,259.6893,456.5168,260.0217,457.2647,260.3295,458.0024,260.4167,458.6487,260.5051,458.6487,260.5776,465.1449,260.6605,471.641,260.1663,478.1372,260.6523,484.6334,260.4167,491.1296,260.3216,491.0902,260.2828,491.9371,259.6477,492.5369,259.4794,493.3302,259.4342,494.1744,258.8912,494.8124,258.8847,494.7968,258.1686,495.1513,257.463,495.5312,256.7368,495.8612,255.9444,496.0315,255.2083,496.3379,255.2083,496.6371,245.1389,495.7416,235.0694,496.6341,225,496.9089,214.9306,496.8009,204.8611,496.9765,194.7917,495.8347,184.7222,495.6585,174.6528,495.6906,164.5833,496.2766,154.5139,496.1332,144.4444,497.0477,134.375,496.3379,134.3518,496.2819,133.5928,495.9227,132.9322,495.8009,132.0767,495.2087,131.3597,494.951,130.6922,494.8124,130.9003,494.8986,130.5268,494.1337,130.3176,493.4369,129.6736,492.5599,129.5742,491.9085,129.1667,491.1296,129.3717,491.1296,129.0026,484.6334,129.1334,478.1372,129.2104,471.641,129.393,465.1449,129.1667,458.6487,129.1653,458.6481,129.6202,457.9736,129.5992,457.102,129.8647,456.349,130.5486,455.7693,130.6922,454.9658,130.5969,454.7358,131.4964,454.824,132.1927,454.4219,132.8663,453.9646,133.5914,453.632,134.375,453.4403" style="stroke: #4D4D4D; stroke-width: 1.0416666666666667;"/><text fill="#FFFFFF" font-family="Segoe Print" font-size="12.5" lengthAdjust="spacingAndGlyphs" textLength="108.3333" x="140.625" y="479.8726">This is my legend</text><!--MD5=[69c385c2f54ccaa7e73f4c476331a449]
@startuml



skinparam backgroundColor transparent
skinparam handwritten true
skinparam shadowing false







skinparam defaultFontName       "Segoe Print"
skinparam defaultFontSize       12
skinparam dpi                   100
skinparam shadowing             false
skinparam roundcorner           8
skinparam ParticipantPadding    40
skinparam BoxPadding            40
skinparam Padding               5
skinparam ArrowColor            #555555
skinparam stereotype {
    CBackgroundColor #666666
    CBorderColor #4d4d4d
    ABackgroundColor #3eb058
    ABorderColor #24963e
    IBackgroundColor #e04958
    IBorderColor #c6303e
    EBackgroundColor #ffc720
    EBorderColor #e6ae06
    NBackgroundColor #2eabbf
    NBorderColor #1592a6
}
skinparam title {
	FontColor	                 #ffffff
	BorderColor	                 #4d4d4d
	FontSize	    	         20
	BorderRoundCorner            8
	BorderThickness 	         1
	BackgroundColor              #666666-#555555
}

skinparam legend {
	BackgroundColor #555555
	BorderColor #4d4d4d
	FontColor #ffffff
}

skinparam swimlane {
	BorderColor #17a2b8
	BorderThickness 2
	TitleBackgroundColor  #666666-#555555
	TitleFontColor #333333
}


skinparam activity {
		FontColor #ffffff
	BorderColor #333333
	BackgroundColor #474747
	BarColor #28a745
	StartColor #17a2b8
	EndColor #17a2b8
	DiamondBackgroundColor #666666
  	DiamondBorderColor #4d4d4d
  	DiamondFontColor #ffffff
}


skinparam participant {
		FontColor #ffffff
	BorderColor #333333
	BackgroundColor #474747
	ParticipantBorderThickness 2
}


skinparam actor {
		FontColor #ffffff
	BorderColor #333333
	BackgroundColor #474747
}


skinparam arrow {
	Thickness 3
	Color #333333
	FontColor #ffffff
}


skinparam sequence {
	BorderColor #333333
	TitleFontColor #333333
	BackgroundColor transparent
	StartColor #333333
	EndColor #333333
	BoxBackgroundColor transparent
	BoxBorderColor #555555
	BoxFontColor $DARk
	LifeLineBorderColor #555555
	LifeLineBorderThickness 2
	LifeLineBackgroundColor #4d4d4d
	GroupBorderColor #555555
	GroupFontColor #555555
	GroupHeaderFontColor #17a2b8
	GroupBackgroundColor #555555
	GroupHeaderBackgroundColor transparent
	DividerBackgroundColor #555555
    DividerBorderColor #555555
    DividerBorderThickness 2
    DividerFontColor #ffffff
	ReferenceBackgroundColor transparent
	ReferenceBorderColor #555555
	ReferenceFontColor #555555
	ReferenceHeaderFontColor #17a2b8
	ReferenceHeaderBackgroundColor #555555
}


skinparam partition {
	BorderColor #333333
	FontColor #333333
	BackgroundColor transparent
}


skinparam collections {
		FontColor #ffffff
	BorderColor #333333
	BackgroundColor #474747
}


skinparam control {
		FontColor #ffffff
	BorderColor #333333
	BackgroundColor #474747
}


skinparam entity {
		FontColor #ffffff
	BorderColor #333333
	BackgroundColor #474747
}


skinparam boundary {
		FontColor #ffffff
	BorderColor #333333
	BackgroundColor #474747
}


skinparam agent {
	BackgroundColor #ffc107
	BorderColor #ffc720
	FontColor #555555
}


skinparam note {
	BorderThickness 1
	BackgroundColor #17a2b8
	BorderColor #1592a6
	FontColor #ffffff
}


skinparam artifact {
	BackgroundColor #555555
	BorderColor #4d4d4d
	FontColor #ffffff
}


skinparam component {
		FontColor #ffffff
	BorderColor #333333
	BackgroundColor #474747
}


skinparam interface {
	BackgroundColor  #c6303e
	BorderColor  #dc3545
	FontColor #555555
}


skinparam storage {
	BackgroundColor #ffc107
  	BorderColor #e6ae06
	FontColor #ffffff
}


skinparam node {
	BackgroundColor  #555555
	BorderColor #ffffff
	FontColor #ffffff
}


skinparam cloud {
	BackgroundColor #F2FCFE-#eeeeee
	BorderColor #F2FCFE
	FontColor #555555
}


skinparam database {
		FontColor #ffffff
	BorderColor #333333
	BackgroundColor #474747
}


skinparam class {
		FontColor #ffffff
	BorderColor #333333
	BackgroundColor #474747
	FontColor #ffffff
	HeaderBackgroundColor #474747
	StereotypeFontColor #555555
	BorderThickness 1
	AttributeFontColor #ffffff
	AttributeFontSize 11
}


skinparam object {
		FontColor #ffffff
	BorderColor #333333
	BackgroundColor #474747
	StereotypeFontColor #555555
	BorderThickness 1
	AttributeFontColor #ffffff
	AttributeFontSize 11
}


skinparam usecase {
		FontColor #ffffff
	BorderColor #333333
	BackgroundColor #474747
	BorderThickness 2
	StereotypeFontColor #333333
}


skinparam rectangle {
		FontColor #ffffff
	BorderColor #333333
	BackgroundColor #474747
	BackgroundColor #666666
	BorderThickness 2
	StereotypeFontColor #333333
}


skinparam package {
	BackgroundColor #555555
  	BorderColor #333333
	FontColor #333333
	BorderThickness 2
}


skinparam folder {
	BackgroundColor #666666
  	BorderColor #ffc107
	FontColor #ffc107
	BorderThickness 2
}


skinparam frame {
	BackgroundColor #666666
  	BorderColor #17a2b8
	FontColor #17a2b8
	BorderThickness 2
}


skinparam state {
		FontColor #ffffff
	BorderColor #333333
	BackgroundColor #474747
	StartColor #17a2b8
	EndColor #17a2b8
	AttributeFontColor #ffffff
	AttributeFontSize 11
}


skinparam queue {
		FontColor #ffffff
	BorderColor #333333
	BackgroundColor #474747
}


skinparam card {
	BackgroundColor #17a2b8
	BorderColor #1592a6
	FontColor #ffffff
}


skinparam file {
	BackgroundColor #4d4d4d
	BorderColor #ffffff
	FontColor #ffffff
}


skinparam stack {
		FontColor #ffffff
	BorderColor #333333
	BackgroundColor #474747
}

title Usecase Diagram - sketchy theme

legend
This is my legend
endlegend


left to right direction
actor customer
actor clerk
rectangle checkout {
  customer - - (checkout)
  (checkout) .> (payment) : include
  (help) .> (checkout) : extends
  (checkout) - - clerk
}
@enduml

PlantUML version 1.2020.08(Sun Apr 26 07:08:22 PDT 2020)
(GPL source distribution)
Java Runtime: Java(TM) SE Runtime Environment
JVM: Java HotSpot(TM) 64-Bit Server VM
Java Version: 1.8.0_251-b32
Operating System: Windows 10
Default Encoding: Cp1252
Language: en
Country: US
--></g></svg>