<?xml version="1.0" encoding="UTF-8" standalone="no"?><svg xmlns="http://www.w3.org/2000/svg" xmlns:xlink="http://www.w3.org/1999/xlink" contentScriptType="application/ecmascript" contentStyleType="text/css" height="518.75px" preserveAspectRatio="none" style="width:646px;height:518px;background:#00000000;" version="1.1" viewBox="0 0 646 518" width="646.875px" zoomAndPan="magnify"><defs><linearGradient id="g1utlwmmfptcv70" x1="50%" x2="50%" y1="0%" y2="100%"><stop offset="0%" stop-color="#DEDEDE"/><stop offset="100%" stop-color="#D6D6D6"/></linearGradient><linearGradient id="g1utlwmmfptcv71" x1="50%" x2="50%" y1="0%" y2="100%"><stop offset="0%" stop-color="#EEEEEE"/><stop offset="100%" stop-color="#BEBEBE"/></linearGradient><linearGradient id="g1utlwmmfptcv72" x1="50%" x2="50%" y1="0%" y2="100%"><stop offset="0%" stop-color="#F1F1F1"/><stop offset="100%" stop-color="#BEBEBE"/></linearGradient></defs><g><rect fill="url(#g1utlwmmfptcv70)" height="52.4028" rx="4.1667" ry="4.1667" style="stroke: #ABABAB; stroke-width: 1.0416666666666667;" width="338.5417" x="157.2917" y="2.0833"/><text fill="#EEEEEE" font-family="Verdana" font-size="20.8333" lengthAdjust="spacingAndGlyphs" textLength="305.2083" x="173.9583" y="36.5702">Class Diagram - silver theme</text><!--MD5=[b4fa10df80476353258f72a232547d63]
class AbstractList--><rect fill="url(#g1utlwmmfptcv71)" height="58.9417" id="AbstractList" rx="7.8125" ry="7.8125" style="stroke: #F1F1F1; stroke-width: 1.0416666666666667;" width="122.9167" x="202.6042" y="271.1528"/><rect fill="url(#g1utlwmmfptcv72)" height="42.275" rx="7.8125" ry="7.8125" style="stroke: url(#g1utlwmmfptcv72); stroke-width: 1.0416666666666667;" width="122.9167" x="202.6042" y="271.1528"/><rect fill="url(#g1utlwmmfptcv72)" height="7.8125" style="stroke: url(#g1utlwmmfptcv72); stroke-width: 1.0416666666666667;" width="122.9167" x="202.6042" y="305.6152"/><rect fill="none" height="58.9417" id="AbstractList" rx="7.8125" ry="7.8125" style="stroke: #F1F1F1; stroke-width: 1.0416666666666667;" width="122.9167" x="202.6042" y="271.1528"/><ellipse cx="217.1875" cy="292.2902" fill="#5CAD5C" rx="10.4167" ry="10.4167" style="stroke: #297A29; stroke-width: 1.0416666666666667;"/><path d="M218.8151,294.4387 L215.7878,294.4387 L215.4785,295.2037 L215.7878,295.2037 Q216.2272,295.2037 216.4225,295.3746 Q216.6178,295.5455 216.6178,295.8384 Q216.6178,296.1151 216.4225,296.286 Q216.2272,296.4569 215.7878,296.4569 L214.0951,296.4569 Q213.6393,296.4569 213.4521,296.286 Q213.265,296.1151 213.265,295.8221 Q213.265,295.5455 213.4684,295.3664 Q213.6719,295.1874 214.1276,295.2037 L216.097,290.3046 L215.2832,290.3046 Q214.8275,290.3046 214.6322,290.1337 Q214.4368,289.9628 214.4368,289.6861 Q214.4368,289.3931 214.6322,289.2222 Q214.8275,289.0513 215.2832,289.0513 L217.985,289.0513 L220.4753,295.2037 Q220.9147,295.2037 221.0449,295.3013 Q221.3379,295.4966 221.3379,295.8384 Q221.3379,296.1151 221.1426,296.286 Q220.9473,296.4569 220.5078,296.4569 L218.8151,296.4569 Q218.3594,296.4569 218.1722,296.286 Q217.985,296.1151 217.985,295.8221 Q217.985,295.5455 218.1722,295.3746 Q218.3594,295.2037 218.8151,295.2037 L219.1243,295.2037 L218.8151,294.4387 Z M218.3105,293.1854 L217.3014,290.7115 L216.276,293.1854 L218.3105,293.1854 Z "/><text fill="#336699" font-family="Verdana" font-size="12.5" font-style="italic" lengthAdjust="spacingAndGlyphs" textLength="75" x="239.0625" y="297.2616">AbstractList</text><line style="stroke: #F1F1F1; stroke-width: 1.0416666666666667;" x1="203.6458" x2="324.4792" y1="313.4277" y2="313.4277"/><line style="stroke: #F1F1F1; stroke-width: 1.0416666666666667;" x1="203.6458" x2="324.4792" y1="321.7611" y2="321.7611"/><!--MD5=[8e34b16d8d8f96f4a11290cd523ed859]
class AbstractCollection--><rect fill="url(#g1utlwmmfptcv71)" height="58.9417" id="AbstractCollection" rx="7.8125" ry="7.8125" style="stroke: #F1F1F1; stroke-width: 1.0416666666666667;" width="159.375" x="6.25" y="271.1528"/><rect fill="url(#g1utlwmmfptcv72)" height="42.275" rx="7.8125" ry="7.8125" style="stroke: url(#g1utlwmmfptcv72); stroke-width: 1.0416666666666667;" width="159.375" x="6.25" y="271.1528"/><rect fill="url(#g1utlwmmfptcv72)" height="7.8125" style="stroke: url(#g1utlwmmfptcv72); stroke-width: 1.0416666666666667;" width="159.375" x="6.25" y="305.6152"/><rect fill="none" height="58.9417" id="AbstractCollection" rx="7.8125" ry="7.8125" style="stroke: #F1F1F1; stroke-width: 1.0416666666666667;" width="159.375" x="6.25" y="271.1528"/><ellipse cx="20.8333" cy="292.2902" fill="#5CAD5C" rx="10.4167" ry="10.4167" style="stroke: #297A29; stroke-width: 1.0416666666666667;"/><path d="M22.4609,294.4387 L19.4336,294.4387 L19.1243,295.2037 L19.4336,295.2037 Q19.873,295.2037 20.0684,295.3746 Q20.2637,295.5455 20.2637,295.8384 Q20.2637,296.1151 20.0684,296.286 Q19.873,296.4569 19.4336,296.4569 L17.7409,296.4569 Q17.2852,296.4569 17.098,296.286 Q16.9108,296.1151 16.9108,295.8221 Q16.9108,295.5455 17.1143,295.3664 Q17.3177,295.1874 17.7734,295.2037 L19.7428,290.3046 L18.929,290.3046 Q18.4733,290.3046 18.278,290.1337 Q18.0827,289.9628 18.0827,289.6861 Q18.0827,289.3931 18.278,289.2222 Q18.4733,289.0513 18.929,289.0513 L21.6309,289.0513 L24.1211,295.2037 Q24.5605,295.2037 24.6908,295.3013 Q24.9837,295.4966 24.9837,295.8384 Q24.9837,296.1151 24.7884,296.286 Q24.5931,296.4569 24.1536,296.4569 L22.4609,296.4569 Q22.0052,296.4569 21.818,296.286 Q21.6309,296.1151 21.6309,295.8221 Q21.6309,295.5455 21.818,295.3746 Q22.0052,295.2037 22.4609,295.2037 L22.7702,295.2037 L22.4609,294.4387 Z M21.9564,293.1854 L20.9473,290.7115 L19.9219,293.1854 L21.9564,293.1854 Z "/><text fill="#336699" font-family="Verdana" font-size="12.5" font-style="italic" lengthAdjust="spacingAndGlyphs" textLength="111.4583" x="42.7083" y="297.2616">AbstractCollection</text><line style="stroke: #F1F1F1; stroke-width: 1.0416666666666667;" x1="7.2917" x2="164.5833" y1="313.4277" y2="313.4277"/><line style="stroke: #F1F1F1; stroke-width: 1.0416666666666667;" x1="7.2917" x2="164.5833" y1="321.7611" y2="321.7611"/><!--MD5=[3d4177ac58b4411586d067f34e84928f]
class List--><rect fill="url(#g1utlwmmfptcv71)" height="58.9417" id="List" rx="7.8125" ry="7.8125" style="stroke: #F1F1F1; stroke-width: 1.0416666666666667;" width="70.8333" x="215.1042" y="107.6111"/><rect fill="url(#g1utlwmmfptcv72)" height="42.275" rx="7.8125" ry="7.8125" style="stroke: url(#g1utlwmmfptcv72); stroke-width: 1.0416666666666667;" width="70.8333" x="215.1042" y="107.6111"/><rect fill="url(#g1utlwmmfptcv72)" height="7.8125" style="stroke: url(#g1utlwmmfptcv72); stroke-width: 1.0416666666666667;" width="70.8333" x="215.1042" y="142.0736"/><rect fill="none" height="58.9417" id="List" rx="7.8125" ry="7.8125" style="stroke: #F1F1F1; stroke-width: 1.0416666666666667;" width="70.8333" x="215.1042" y="107.6111"/><ellipse cx="229.6875" cy="128.7486" fill="#FF5C5C" rx="10.4167" ry="10.4167" style="stroke: #CC2929; stroke-width: 1.0416666666666667;"/><path d="M230.9408,126.7629 L230.9408,131.662 L232.2103,131.662 Q232.6497,131.662 232.8451,131.8329 Q233.0404,132.0038 233.0404,132.2968 Q233.0404,132.5734 232.8451,132.7443 Q232.6497,132.9152 232.2103,132.9152 L228.418,132.9152 Q227.9785,132.9152 227.7832,132.7443 Q227.5879,132.5734 227.5879,132.2805 Q227.5879,132.0038 227.7832,131.8329 Q227.9785,131.662 228.418,131.662 L229.6875,131.662 L229.6875,126.7629 L228.418,126.7629 Q227.9785,126.7629 227.7832,126.592 Q227.5879,126.4211 227.5879,126.1444 Q227.5879,125.8514 227.7832,125.6805 Q227.9785,125.5096 228.418,125.5096 L232.2103,125.5096 Q232.6497,125.5096 232.8451,125.6805 Q233.0404,125.8514 233.0404,126.1444 Q233.0404,126.4211 232.8451,126.592 Q232.6497,126.7629 232.2103,126.7629 L230.9408,126.7629 Z "/><text fill="#336699" font-family="Verdana" font-size="12.5" font-style="italic" lengthAdjust="spacingAndGlyphs" textLength="22.9167" x="251.5625" y="133.7199">List</text><line style="stroke: #F1F1F1; stroke-width: 1.0416666666666667;" x1="216.1458" x2="284.8958" y1="149.8861" y2="149.8861"/><line style="stroke: #F1F1F1; stroke-width: 1.0416666666666667;" x1="216.1458" x2="284.8958" y1="158.2194" y2="158.2194"/><!--MD5=[c160724f8e3bb89ca8141a12554ac2e3]
class Collection--><rect fill="url(#g1utlwmmfptcv71)" height="58.9417" id="Collection" rx="7.8125" ry="7.8125" style="stroke: #F1F1F1; stroke-width: 1.0416666666666667;" width="107.2917" x="44.7917" y="107.6111"/><rect fill="url(#g1utlwmmfptcv72)" height="42.275" rx="7.8125" ry="7.8125" style="stroke: url(#g1utlwmmfptcv72); stroke-width: 1.0416666666666667;" width="107.2917" x="44.7917" y="107.6111"/><rect fill="url(#g1utlwmmfptcv72)" height="7.8125" style="stroke: url(#g1utlwmmfptcv72); stroke-width: 1.0416666666666667;" width="107.2917" x="44.7917" y="142.0736"/><rect fill="none" height="58.9417" id="Collection" rx="7.8125" ry="7.8125" style="stroke: #F1F1F1; stroke-width: 1.0416666666666667;" width="107.2917" x="44.7917" y="107.6111"/><ellipse cx="59.375" cy="128.7486" fill="#FF5C5C" rx="10.4167" ry="10.4167" style="stroke: #CC2929; stroke-width: 1.0416666666666667;"/><path d="M60.6283,126.7629 L60.6283,131.662 L61.8978,131.662 Q62.3372,131.662 62.5326,131.8329 Q62.7279,132.0038 62.7279,132.2968 Q62.7279,132.5734 62.5326,132.7443 Q62.3372,132.9152 61.8978,132.9152 L58.1055,132.9152 Q57.666,132.9152 57.4707,132.7443 Q57.2754,132.5734 57.2754,132.2805 Q57.2754,132.0038 57.4707,131.8329 Q57.666,131.662 58.1055,131.662 L59.375,131.662 L59.375,126.7629 L58.1055,126.7629 Q57.666,126.7629 57.4707,126.592 Q57.2754,126.4211 57.2754,126.1444 Q57.2754,125.8514 57.4707,125.6805 Q57.666,125.5096 58.1055,125.5096 L61.8978,125.5096 Q62.3372,125.5096 62.5326,125.6805 Q62.7279,125.8514 62.7279,126.1444 Q62.7279,126.4211 62.5326,126.592 Q62.3372,126.7629 61.8978,126.7629 L60.6283,126.7629 Z "/><text fill="#336699" font-family="Verdana" font-size="12.5" font-style="italic" lengthAdjust="spacingAndGlyphs" textLength="59.375" x="81.25" y="133.7199">Collection</text><line style="stroke: #F1F1F1; stroke-width: 1.0416666666666667;" x1="45.8333" x2="151.0417" y1="149.8861" y2="149.8861"/><line style="stroke: #F1F1F1; stroke-width: 1.0416666666666667;" x1="45.8333" x2="151.0417" y1="158.2194" y2="158.2194"/><!--MD5=[ab8871ed637f40707b866ba6597734bc]
class ArrayList--><rect fill="url(#g1utlwmmfptcv71)" height="115.0625" id="ArrayList" rx="7.8125" ry="7.8125" style="stroke: #F1F1F1; stroke-width: 1.0416666666666667;" width="142.7083" x="192.7083" y="393.0278"/><rect fill="url(#g1utlwmmfptcv72)" height="42.275" rx="7.8125" ry="7.8125" style="stroke: url(#g1utlwmmfptcv72); stroke-width: 1.0416666666666667;" width="142.7083" x="192.7083" y="393.0278"/><rect fill="url(#g1utlwmmfptcv72)" height="7.8125" style="stroke: url(#g1utlwmmfptcv72); stroke-width: 1.0416666666666667;" width="142.7083" x="192.7083" y="427.4902"/><rect fill="none" height="115.0625" id="ArrayList" rx="7.8125" ry="7.8125" style="stroke: #F1F1F1; stroke-width: 1.0416666666666667;" width="142.7083" x="192.7083" y="393.0278"/><ellipse cx="224.1667" cy="414.1652" fill="#DEDEDE" rx="10.4167" ry="10.4167" style="stroke: #ABABAB; stroke-width: 1.0416666666666667;"/><path d="M225.7129,411.2518 Q225.8268,411.0891 225.9652,411.0077 Q226.1035,410.9263 226.2663,410.9263 Q226.543,410.9263 226.7139,411.1216 Q226.8848,411.3169 226.8848,411.7564 L226.8848,412.8306 Q226.8848,413.2701 226.7139,413.4654 Q226.543,413.6607 226.2663,413.6607 Q226.0059,413.6607 225.8594,413.5142 Q225.7129,413.384 225.6315,412.9934 Q225.599,412.733 225.4688,412.6027 Q225.2083,412.326 224.7607,412.1633 Q224.3132,412.0005 223.8574,412.0005 Q223.304,412.0005 222.832,412.2447 Q222.36,412.4888 222.002,413.0341 Q221.6439,413.5793 221.6439,414.3443 L221.6439,415.1581 Q221.6439,416.0533 222.3031,416.6555 Q222.9622,417.2577 224.1178,417.2577 Q224.8177,417.2577 225.306,417.0787 Q225.5827,416.9647 225.8919,416.6392 Q226.0872,416.4439 226.2012,416.3869 Q226.3151,416.33 226.4453,416.33 Q226.7057,416.33 226.8929,416.5171 Q227.0801,416.7043 227.0801,416.9647 Q227.0801,417.2251 226.8197,417.5181 Q226.4453,417.9413 225.8594,418.1854 Q225.0781,418.5109 224.1341,418.5109 Q223.0111,418.5109 222.1322,418.0552 Q221.3997,417.6971 220.8952,416.8996 Q220.3906,416.1021 220.3906,415.1744 L220.3906,414.328 Q220.3906,413.3514 220.8464,412.5051 Q221.3021,411.6587 222.1077,411.203 Q222.9134,410.7473 223.8086,410.7473 Q224.362,410.7473 224.834,410.8693 Q225.306,410.9914 225.7129,411.2518 Z "/><text fill="#336699" font-family="Verdana" font-size="12.5" lengthAdjust="spacingAndGlyphs" textLength="57.2917" x="249.7917" y="419.1366">ArrayList</text><line style="stroke: #F1F1F1; stroke-width: 1.0416666666666667;" x1="193.75" x2="334.375" y1="435.3027" y2="435.3027"/><text fill="#303030" font-family="Verdana" font-size="9.375" lengthAdjust="spacingAndGlyphs" textLength="113.5417" x="207.2917" y="457.2281">Object[] elementData</text><line style="stroke: #F1F1F1; stroke-width: 1.0416666666666667;" x1="193.75" x2="334.375" y1="471.6965" y2="471.6965"/><text fill="#303030" font-family="Verdana" font-size="9.375" lengthAdjust="spacingAndGlyphs" textLength="29.1667" x="207.2917" y="493.6218">size()</text><!--MD5=[15b68e006199004da79ea2a4d117d8e9]
class TimeUnit--><rect fill="url(#g1utlwmmfptcv71)" height="143.1229" id="TimeUnit" rx="7.8125" ry="7.8125" style="stroke: #F1F1F1; stroke-width: 1.0416666666666667;" width="104.1667" x="322.3958" y="65.9444"/><rect fill="url(#g1utlwmmfptcv72)" height="42.275" rx="7.8125" ry="7.8125" style="stroke: url(#g1utlwmmfptcv72); stroke-width: 1.0416666666666667;" width="104.1667" x="322.3958" y="65.9444"/><rect fill="url(#g1utlwmmfptcv72)" height="7.8125" style="stroke: url(#g1utlwmmfptcv72); stroke-width: 1.0416666666666667;" width="104.1667" x="322.3958" y="100.4069"/><rect fill="none" height="143.1229" id="TimeUnit" rx="7.8125" ry="7.8125" style="stroke: #F1F1F1; stroke-width: 1.0416666666666667;" width="104.1667" x="322.3958" y="65.9444"/><ellipse cx="336.9792" cy="87.0819" fill="#FFBE68" rx="10.4167" ry="10.4167" style="stroke: #CC8B35; stroke-width: 1.0416666666666667;"/><path d="M336.849,88.1561 L336.849,89.9953 L340.0391,89.9953 L340.0391,89.3117 Q340.0391,88.8723 340.21,88.677 Q340.3809,88.4816 340.6576,88.4816 Q340.9342,88.4816 341.1133,88.677 Q341.2923,88.8723 341.2923,89.3117 L341.2923,91.2486 L335.4004,91.2486 Q334.9447,91.2486 334.7493,91.0777 Q334.554,90.9068 334.554,90.6138 Q334.554,90.3371 334.7493,90.1662 Q334.9447,89.9953 335.4004,89.9953 L335.5957,89.9953 L335.5957,85.0962 L335.4004,85.0962 Q334.9447,85.0962 334.7493,84.9253 Q334.554,84.7544 334.554,84.4777 Q334.554,84.1848 334.7493,84.0139 Q334.9447,83.843 335.4004,83.843 L341.0156,83.843 L341.0156,85.7473 Q341.0156,86.203 340.8447,86.3902 Q340.6738,86.5774 340.3809,86.5774 Q340.1042,86.5774 339.9333,86.3902 Q339.7624,86.203 339.7624,85.7473 L339.7624,85.0962 L336.849,85.0962 L336.849,86.9029 L337.9395,86.9029 Q337.9395,86.4146 338.0371,86.2844 Q338.2161,85.9751 338.5742,85.9751 Q338.8509,85.9751 339.0218,86.1705 Q339.1927,86.3658 339.1927,86.8215 L339.1927,88.2538 Q339.1927,88.6607 339.0951,88.8072 Q338.8997,89.1001 338.5742,89.1001 Q338.2161,89.1001 338.0371,88.7909 Q337.9395,88.6607 337.9395,88.1561 L336.849,88.1561 Z "/><text fill="#336699" font-family="Verdana" font-size="12.5" lengthAdjust="spacingAndGlyphs" textLength="56.25" x="358.8542" y="92.0532">TimeUnit</text><line style="stroke: #F1F1F1; stroke-width: 1.0416666666666667;" x1="323.4375" x2="425.5208" y1="108.2194" y2="108.2194"/><text fill="#303030" font-family="Verdana" font-size="9.375" lengthAdjust="spacingAndGlyphs" textLength="31.25" x="336.9792" y="130.1448">DAYS</text><text fill="#303030" font-family="Verdana" font-size="9.375" lengthAdjust="spacingAndGlyphs" textLength="40.625" x="336.9792" y="158.2052">HOURS</text><text fill="#303030" font-family="Verdana" font-size="9.375" lengthAdjust="spacingAndGlyphs" textLength="53.125" x="336.9792" y="186.2656">MINUTES</text><line style="stroke: #F1F1F1; stroke-width: 1.0416666666666667;" x1="323.4375" x2="425.5208" y1="200.7339" y2="200.7339"/><!--MD5=[0c8287f799745f7b534bf75518604c1e]
class SuppressWarnings--><rect fill="url(#g1utlwmmfptcv71)" height="58.9417" id="SuppressWarnings" rx="7.8125" ry="7.8125" style="stroke: #F1F1F1; stroke-width: 1.0416666666666667;" width="171.875" x="463.5417" y="107.6111"/><rect fill="url(#g1utlwmmfptcv72)" height="42.275" rx="7.8125" ry="7.8125" style="stroke: url(#g1utlwmmfptcv72); stroke-width: 1.0416666666666667;" width="171.875" x="463.5417" y="107.6111"/><rect fill="url(#g1utlwmmfptcv72)" height="7.8125" style="stroke: url(#g1utlwmmfptcv72); stroke-width: 1.0416666666666667;" width="171.875" x="463.5417" y="142.0736"/><rect fill="none" height="58.9417" id="SuppressWarnings" rx="7.8125" ry="7.8125" style="stroke: #F1F1F1; stroke-width: 1.0416666666666667;" width="171.875" x="463.5417" y="107.6111"/><ellipse cx="478.125" cy="128.7486" fill="#5C85AD" rx="10.4167" ry="10.4167" style="stroke: #29527A; stroke-width: 1.0416666666666667;"/><path d="M479.5085,126.9419 L479.5085,126.5513 Q479.5085,125.9491 479.1585,125.5829 Q478.8086,125.2167 478.2552,125.2167 Q477.8158,125.2167 477.4333,125.5096 Q477.0508,125.8026 476.8555,126.2583 Q476.4974,127.0721 476.4974,127.8697 L476.4974,129.7251 Q476.4974,131.1412 477.1322,131.9712 Q477.5553,132.5246 478.2878,132.5246 Q478.6947,132.5246 479.0283,132.4188 Q479.362,132.313 479.541,132.1259 Q479.7201,131.9387 479.8828,131.9387 Q480.0781,131.9387 480.2083,132.077 Q480.3385,132.2154 480.3385,132.427 Q480.3385,132.7199 479.9316,133.0129 Q479.3132,133.4361 478.2552,133.4361 Q477.4577,133.4361 476.9206,133.0617 Q476.2533,132.5897 475.9196,131.662 Q475.5859,130.7343 475.5859,129.8228 L475.5859,127.8046 Q475.5859,126.3397 476.3102,125.3143 Q477.0345,124.2889 478.2389,124.2889 Q478.776,124.2889 479.2643,124.5168 Q479.7526,124.7447 480.0944,125.3062 Q480.4362,125.8677 480.4362,126.5513 L480.4362,129.8879 Q480.6966,130.0181 480.6966,130.2948 Q480.6966,130.5064 480.5501,130.6447 Q480.4036,130.7831 480.0618,130.7831 L479.5085,130.7831 L479.5085,130.7343 Q479.2155,130.7831 479.0853,130.7831 Q478.3529,130.7831 477.8076,130.2378 Q477.2624,129.6926 477.2624,128.9602 Q477.2624,128.1789 477.8646,127.593 Q478.4668,127.007 479.5085,126.9419 Z M479.5085,127.8859 Q478.8574,127.951 478.5156,128.2603 Q478.1738,128.5695 478.1738,128.9764 Q478.1738,129.3182 478.4587,129.5787 Q478.7435,129.8391 479.2155,129.8391 Q479.2969,129.8391 479.5085,129.8228 L479.5085,127.8859 Z "/><text fill="#336699" font-family="Verdana" font-size="12.5" lengthAdjust="spacingAndGlyphs" textLength="123.9583" x="500" y="133.7199">SuppressWarnings</text><line style="stroke: #F1F1F1; stroke-width: 1.0416666666666667;" x1="464.5833" x2="634.375" y1="149.8861" y2="149.8861"/><line style="stroke: #F1F1F1; stroke-width: 1.0416666666666667;" x1="464.5833" x2="634.375" y1="158.2194" y2="158.2194"/><!--MD5=[00308d07b6a5721fb0cf5861877e6652]
reverse link List to AbstractList--><path d="M254.7167,188.3705 C256.9906,215.4798 259.7198,248.0163 261.6396,270.9111 " fill="none" id="List&lt;-AbstractList" style="stroke: #EEEEEE; stroke-width: 3.125;"/><polygon fill="none" points="247.4167,188.5757,252.9417,167.2059,261.949,187.3569,247.4167,188.5757" style="stroke: #EEEEEE; stroke-width: 3.125;"/><!--MD5=[1822909749df1453bdd84de7a60a3406]
reverse link Collection to AbstractCollection--><path d="M94.5642,188.3705 C92.4654,215.4798 89.9465,248.0163 88.174,270.9111 " fill="none" id="Collection&lt;-AbstractCollection" style="stroke: #EEEEEE; stroke-width: 3.125;"/><polygon fill="none" points="87.3247,187.4142,96.2027,167.2059,101.8645,188.5403,87.3247,187.4142" style="stroke: #EEEEEE; stroke-width: 3.125;"/><!--MD5=[0159284274f96a472eb2618ad803aaca]
reverse link Collection to List--><path d="M173.2313,137.2986 C187.0885,137.2986 200.9458,137.2986 214.8031,137.2986 " fill="none" id="Collection&lt;-List" style="stroke: #EEEEEE; stroke-width: 3.125;"/><polygon fill="none" points="173.0344,144.5903,152.201,137.2986,173.0344,130.0069,173.0344,144.5903" style="stroke: #EEEEEE; stroke-width: 3.125;"/><!--MD5=[7a3a52e8f65ef1a8d8d29530ea5cd870]
reverse link AbstractCollection to AbstractList--><path d="M187.0021,300.8403 C192.1219,300.8403 197.2417,300.8403 202.3615,300.8403 " fill="none" id="AbstractCollection&lt;-AbstractList" style="stroke: #EEEEEE; stroke-width: 3.125;"/><polygon fill="none" points="186.7875,308.1319,165.9542,300.8403,186.7875,293.5486,186.7875,308.1319" style="stroke: #EEEEEE; stroke-width: 3.125;"/><!--MD5=[40e4bb1af59cca28d4643aaff05088cc]
reverse link AbstractList to ArrayList--><path d="M264.0625,351.5173 C264.0625,364.7819 264.0625,379.2132 264.0625,392.8153 " fill="none" id="AbstractList&lt;-ArrayList" style="stroke: #EEEEEE; stroke-width: 3.125;"/><polygon fill="none" points="256.7708,351.485,264.0625,330.6517,271.3542,351.484,256.7708,351.485" style="stroke: #EEEEEE; stroke-width: 3.125;"/><!--MD5=[2cd19fab4fc4964a781092abb887dfba]
@startuml



skinparam backgroundColor transparent







skinparam defaultFontName        "Verdana"
skinparam defaultFontSize        12
skinparam dpi                    100
skinparam shadowing              false
skinparam roundcorner            15
skinparam ParticipantPadding     30
skinparam BoxPadding             30
skinparam Padding                8
skinparam ArrowColor             #737373
skinparam stereotype {
    CBackgroundColor #dedede
    CBorderColor #ababab
    ABackgroundColor #5cad5c
    ABorderColor #297a29
    IBackgroundColor #ff5c5c
    IBorderColor #cc2929
    EBackgroundColor #ffbe68
    EBorderColor #cc8b35
    NBackgroundColor #5c85ad
    NBorderColor #29527a
}
skinparam title {
	FontColor	                 #eeeeee
	BorderColor	                 #ababab
	FontSize	    	         20
	BorderRoundCorner            8
	BorderThickness 	         1
	BackgroundColor              #dedede-#d6d6d6
}


skinparam legend {
	BackgroundColor #d6d6d6
	BorderColor #ababab
	FontColor #ffffff
}

skinparam swimlane {
	BorderColor #336699
	BorderThickness 2
	TitleBackgroundColor  #dedede-#d6d6d6
	TitleFontColor #eeeeee
}


skinparam activity {
		FontColor #336699
	BorderColor #f1f1f1
	BackgroundColor #eeeeee-#bebebe
	BarColor #339933
	StartColor #336699
	EndColor #336699
	DiamondBackgroundColor #d6d6d6-#ababab
  	DiamondBorderColor #ababab
	DiamondFontColor #ffffff
}



skinparam participant {
		FontColor #336699
	BorderColor #f1f1f1
	BackgroundColor #eeeeee-#bebebe
	ParticipantBorderThickness 2
}



skinparam actor {
		FontColor #336699
	BorderColor #f1f1f1
	BackgroundColor #eeeeee-#bebebe
	FontColor #303030
}



skinparam arrow {
	Thickness 3
	Color #eeeeee
	FontColor #303030
}



skinparam sequence {
	BorderColor #eeeeee
	TitleFontColor #eeeeee
	BackgroundColor transparent
	StartColor #eeeeee
	EndColor #eeeeee
	BoxBackgroundColor #ffffff
	BoxBorderColor #737373
	BoxFontColor #303030
	LifeLineBorderColor #ababab
	LifeLineBorderThickness 2
	LifeLineBackgroundColor #dedede
	GroupBorderColor #737373
	GroupFontColor #303030
	GroupHeaderFontColor #336699
	DividerBackgroundColor #FFF-#ffffff
    DividerBorderColor #737373
    DividerBorderThickness 2
    DividerFontColor #303030
	ReferenceBackgroundColor transparent
	ReferenceBorderColor #737373
	ReferenceFontColor #303030
	ReferenceHeaderFontColor #336699
}



skinparam partition {
	BorderColor #eeeeee
	FontColor #bebebe
	BackgroundColor transparent
}



skinparam collections {
		FontColor #336699
	BorderColor #f1f1f1
	BackgroundColor #eeeeee-#bebebe
}



skinparam control {
		FontColor #336699
	BorderColor #f1f1f1
	BackgroundColor #eeeeee-#bebebe
}



skinparam entity {
		FontColor #336699
	BorderColor #f1f1f1
	BackgroundColor #eeeeee-#bebebe
}



skinparam boundary {
		FontColor #336699
	BorderColor #f1f1f1
	BackgroundColor #eeeeee-#bebebe
}



skinparam agent {
	BackgroundColor #orange
	BorderColor #999999
	FontColor #333333
}



skinparam note {
	BorderThickness 1
	BackgroundColor #5c85ad-#336699
	BorderColor #336699
	FontColor #FFF
}



skinparam artifact {
	BackgroundColor #dedede-#ababab
	BorderColor #ababab
	FontColor #ffffff
}



skinparam component {
		FontColor #336699
	BorderColor #f1f1f1
	BackgroundColor #eeeeee-#bebebe
}



skinparam interface {
	BackgroundColor  #ff5c5c
	BorderColor  #ff3333
	FontColor #303030
}



skinparam storage {
	BackgroundColor #ffbe68-#ffae42
  	BorderColor #ffae42
	FontColor #FFF
}



skinparam node {
	BackgroundColor #f1f1f1-#bebebe
	BorderColor #f1f1f1
	FontColor #336699
}



skinparam cloud {
	BackgroundColor #F2FCFE-#eeeeee
	BorderColor #F2FCFE
	FontColor #303030
}



skinparam database {
		FontColor #336699
	BorderColor #f1f1f1
	BackgroundColor #eeeeee-#bebebe
	FontColor #303030
}



skinparam class {
		FontColor #336699
	BorderColor #f1f1f1
	BackgroundColor #eeeeee-#bebebe
	HeaderBackgroundColor #f1f1f1-#bebebe
	StereotypeFontColor #303030
	BorderThickness 1
	AttributeFontColor #303030
	AttributeFontSize 9
}



skinparam object {
		FontColor #336699
	BorderColor #f1f1f1
	BackgroundColor #eeeeee-#bebebe
	StereotypeFontColor #ffffff
	BorderThickness 1
	AttributeFontColor #ffffff
	AttributeFontSize 11
}



skinparam usecase {
		FontColor #336699
	BorderColor #f1f1f1
	BackgroundColor #eeeeee-#bebebe
	BorderThickness 2
	StereotypeFontColor #eeeeee
}



skinparam rectangle {
		FontColor #336699
	BorderColor #f1f1f1
	BackgroundColor #eeeeee-#bebebe
	BackgroundColor #f1f1f1
	BorderThickness 2
	StereotypeFontColor #eeeeee
}



skinparam package {
		FontColor #336699
	BorderColor #f1f1f1
	BackgroundColor #eeeeee-#bebebe
	BorderThickness 2
}



skinparam folder {
	BackgroundColor #eeeeee-#bebebe
  	BorderColor #ffae42
	FontColor #ffae42
	BorderThickness 2
}



skinparam frame {
	BackgroundColor #eeeeee-#bebebe
  	BorderColor #336699
	FontColor #336699
	BorderThickness 2
}



skinparam state {
		FontColor #336699
	BorderColor #f1f1f1
	BackgroundColor #eeeeee-#bebebe
	StartColor #336699
	EndColor #336699
	AttributeFontColor #ffffff
	AttributeFontSize 11
}



skinparam queue {
		FontColor #336699
	BorderColor #f1f1f1
	BackgroundColor #eeeeee-#bebebe
}



skinparam card {
	BackgroundColor #5c85ad-#336699
	BorderColor #336699
	FontColor #FFF
}



skinparam file {
	BackgroundColor #dedede-#d6d6d6
	BorderColor #ffffff
	FontColor #ffffff

}



skinparam stack {
		FontColor #336699
	BorderColor #f1f1f1
	BackgroundColor #eeeeee-#bebebe
}


title Class Diagram - silver theme


abstract class AbstractList
abstract AbstractCollection
interface List
interface Collection

List <|- - AbstractList
Collection <|- - AbstractCollection

Collection <|- List
AbstractCollection <|- AbstractList
AbstractList <|- - ArrayList

class ArrayList {
  Object[] elementData
  size()
}

enum TimeUnit {
  DAYS
  HOURS
  MINUTES
}

annotation SuppressWarnings

@enduml

PlantUML version 1.2020.08(Sun Apr 26 07:08:22 PDT 2020)
(GPL source distribution)
Java Runtime: Java(TM) SE Runtime Environment
JVM: Java HotSpot(TM) 64-Bit Server VM
Java Version: 1.8.0_251-b32
Operating System: Windows 10
Default Encoding: Cp1252
Language: en
Country: US
--></g></svg>