<?xml version="1.0" encoding="UTF-8" standalone="no"?><svg xmlns="http://www.w3.org/2000/svg" xmlns:xlink="http://www.w3.org/1999/xlink" contentScriptType="application/ecmascript" contentStyleType="text/css" height="758.3333px" preserveAspectRatio="none" style="width:1268px;height:758px;background:#00000000;" version="1.1" viewBox="0 0 1268 758" width="1268.75px" zoomAndPan="magnify"><defs><linearGradient id="ge4in55xe5ohv0" x1="50%" x2="50%" y1="0%" y2="100%"><stop offset="0%" stop-color="#DEDEDE"/><stop offset="100%" stop-color="#D6D6D6"/></linearGradient><linearGradient id="ge4in55xe5ohv1" x1="50%" x2="50%" y1="0%" y2="100%"><stop offset="0%" stop-color="#EEEEEE"/><stop offset="100%" stop-color="#BEBEBE"/></linearGradient><linearGradient id="ge4in55xe5ohv2" x1="50%" x2="50%" y1="0%" y2="100%"><stop offset="0%" stop-color="#F1F1F1"/><stop offset="100%" stop-color="#BEBEBE"/></linearGradient><linearGradient id="ge4in55xe5ohv3" x1="50%" x2="50%" y1="0%" y2="100%"><stop offset="0%" stop-color="#F2FCFE"/><stop offset="100%" stop-color="#EEEEEE"/></linearGradient><linearGradient id="ge4in55xe5ohv4" x1="50%" x2="50%" y1="0%" y2="100%"><stop offset="0%" stop-color="#DEDEDE"/><stop offset="100%" stop-color="#ABABAB"/></linearGradient><linearGradient id="ge4in55xe5ohv5" x1="50%" x2="50%" y1="0%" y2="100%"><stop offset="0%" stop-color="#FFBE68"/><stop offset="100%" stop-color="#FFAE42"/></linearGradient><linearGradient id="ge4in55xe5ohv6" x1="50%" x2="50%" y1="0%" y2="100%"><stop offset="0%" stop-color="#5C85AD"/><stop offset="100%" stop-color="#336699"/></linearGradient></defs><g><rect fill="url(#ge4in55xe5ohv0)" height="52.4028" rx="4.1667" ry="4.1667" style="stroke: #ABABAB; stroke-width: 1.0416666666666667;" width="404.1667" x="435.9375" y="2.0833"/><text fill="#EEEEEE" font-family="Verdana" font-size="20.8333" lengthAdjust="spacingAndGlyphs" textLength="370.8333" x="452.6042" y="36.5702">Component Diagram - silver theme</text><!--MD5=[98956307d0c47524864de5bf9cdc747b]
cluster My Package--><path d="M30.7292,82.6111 L120.3125,82.6111 A11.7188,11.7188 0 0 1 128.125,90.4236 L135.4167,120.7194 L785.9375,120.7194 A7.8125,7.8125 0 0 1 793.75,128.5319 L793.75,195.6319 A7.8125,7.8125 0 0 1 785.9375,203.4444 L30.7292,203.4444 A7.8125,7.8125 0 0 1 22.9167,195.6319 L22.9167,90.4236 A7.8125,7.8125 0 0 1 30.7292,82.6111 " fill="url(#ge4in55xe5ohv1)" style="stroke: #F1F1F1; stroke-width: 1.5625;"/><line style="stroke: #F1F1F1; stroke-width: 1.5625;" x1="22.9167" x2="135.4167" y1="120.7194" y2="120.7194"/><text fill="#336699" font-family="Verdana" font-size="12.5" font-weight="bold" lengthAdjust="spacingAndGlyphs" textLength="82.2917" x="35.4167" y="105.5949">My Package</text><!--MD5=[994b84a7865cf3a30290d65f6358d5f5]
cluster My Node--><polygon fill="url(#ge4in55xe5ohv2)" points="212.5,238.8611,222.9167,228.4444,633.3333,228.4444,633.3333,344.0694,622.9167,354.4861,212.5,354.4861,212.5,238.8611" style="stroke: #F1F1F1; stroke-width: 1.5625;"/><line style="stroke: #F1F1F1; stroke-width: 1.5625;" x1="622.9167" x2="632.2917" y1="238.8611" y2="229.4861"/><line style="stroke: #F1F1F1; stroke-width: 1.5625;" x1="212.5" x2="622.9167" y1="238.8611" y2="238.8611"/><line style="stroke: #F1F1F1; stroke-width: 1.5625;" x1="622.9167" x2="622.9167" y1="238.8611" y2="354.4861"/><text fill="#336699" font-family="Verdana" font-size="12.5" font-weight="bold" lengthAdjust="spacingAndGlyphs" textLength="59.375" x="389.0625" y="262.8866">My Node</text><!--MD5=[8f762177cf9f076b8ea6eac76c5df33e]
cluster My Cloud--><path d="M675.2575,244.2221 C677.2089,237.0984 683.3537,234.5686 688.6556,240.8811 C690.5279,233.747 696.4699,231.8121 701.3906,237.9577 C704.0015,231.5219 710.2933,230.1378 714.7018,236.0143 C717.9643,228.7623 723.3353,229.0009 728.3685,234.0464 C734.1182,227.2012 738.5685,228.5118 742.7123,235.689 C748.2892,229.8646 752.3586,232.2776 755.2241,238.5042 C760.8482,232.6105 766.6263,232.7771 770.0188,240.8655 C780.1928,235.2206 786.5207,238.3837 789.5833,249.2778 C791.0851,249.1976 792.0983,249.9008 791.4059,251.5673 C796.9812,256.1998 797.2894,260.2463 791.1653,264.6639 C798.1612,269.3808 797.6791,275.038 791.05,279.65 C798.6507,283.0208 800.2726,289.2455 792.9897,294.5534 C801.7767,300.2322 800.5216,305.5152 792.9653,311.17 C797.7814,315.6884 796.7106,321.7879 790.7154,324.4786 C797.1356,334.9105 796.3974,343.6983 782.2917,346.1528 C783.5872,345.4559 784.4952,346.2953 784.4487,347.5995 C780.6679,353.7632 773.6633,353.9652 769.597,347.9476 C767.075,354.9119 762.7452,356.6331 756.9842,351.2587 C753.5549,358.0637 747.777,358.6197 742.5889,353.3567 C738.6171,360.7793 733.365,360.1301 728.4616,354.3538 C723.4247,359.4439 718.7848,358.4462 716.2428,351.7643 C710.6574,357.6689 704.4237,358.3114 701.0841,349.4577 C697.9936,354.9275 693.148,355.4422 689.7185,349.8046 C678.4666,355.9084 667.8819,353.8988 666.6667,338.8611 C667.8009,338.7255 668.4768,339.562 667.936,340.629 C660.4916,336.425 659.2269,329.576 666.3007,323.9487 C660.6344,320.102 660.0483,314.2073 666.9996,311.044 C659.3437,305.856 659.7315,300.6842 666.3383,294.9116 C658.192,289.9157 659.8546,284.7341 666.1465,279.5578 C659.5967,274.1244 660.8991,269.9557 667.8831,266.2945 C657.2905,256.0072 661.9209,246.6176 673.9583,241.9861 C675.312,241.9688 675.9898,243.0275 675.2575,244.2221 " fill="url(#ge4in55xe5ohv3)" style="stroke: #F2FCFE; stroke-width: 1.5625;"/><text fill="#303030" font-family="Verdana" font-size="12.5" font-weight="bold" lengthAdjust="spacingAndGlyphs" textLength="62.5" x="696.875" y="268.0949">My Cloud</text><!--MD5=[5435dd1da01795d79a1d1bdb7811705f]
cluster My Database--><path d="M640.625,389.9028 C640.625,379.4861 728.125,379.4861 728.125,379.4861 C728.125,379.4861 815.625,379.4861 815.625,389.9028 L815.625,735.7361 C815.625,746.1528 728.125,746.1528 728.125,746.1528 C728.125,746.1528 640.625,746.1528 640.625,735.7361 L640.625,389.9028 " fill="url(#ge4in55xe5ohv1)" style="stroke: #F1F1F1; stroke-width: 1.5625;"/><path d="M640.625,389.9028 C640.625,400.3194 728.125,400.3194 728.125,400.3194 C728.125,400.3194 815.625,400.3194 815.625,389.9028 " fill="none" style="stroke: #F1F1F1; stroke-width: 1.5625;"/><text fill="#303030" font-family="Verdana" font-size="12.5" font-weight="bold" lengthAdjust="spacingAndGlyphs" textLength="88.5417" x="683.8542" y="423.3032">My Database</text><!--MD5=[db3eb734e65e00defc1adec42c70b029]
cluster My folder--><path d="M673.4375,454.4861 L745.3125,454.4861 A11.7188,11.7188 0 0 1 753.125,462.2986 L760.4167,492.5944 L782.8125,492.5944 A7.8125,7.8125 0 0 1 790.625,500.4069 L790.625,567.5069 A7.8125,7.8125 0 0 1 782.8125,575.3194 L673.4375,575.3194 A7.8125,7.8125 0 0 1 665.625,567.5069 L665.625,462.2986 A7.8125,7.8125 0 0 1 673.4375,454.4861 " fill="url(#ge4in55xe5ohv1)" style="stroke: #FFAE42; stroke-width: 1.5625;"/><line style="stroke: #FFAE42; stroke-width: 1.5625;" x1="665.625" x2="760.4167" y1="492.5944" y2="492.5944"/><text fill="#FFAE42" font-family="Verdana" font-size="12.5" font-weight="bold" lengthAdjust="spacingAndGlyphs" textLength="64.5833" x="678.125" y="477.4699">My folder</text><!--MD5=[2f95c9c104e26437854e71862f3d840e]
cluster My Frame--><rect fill="url(#ge4in55xe5ohv1)" height="120.8333" rx="7.8125" ry="7.8125" style="stroke: #336699; stroke-width: 1.5625;" width="125" x="665.625" y="600.3194"/><path d="M760.4167,601.3611 L760.4167,624.8861 L750,635.3027 L665.625,635.3027 " fill="none" style="stroke: #336699; stroke-width: 1.5625;"/><text fill="#336699" font-family="Verdana" font-size="12.5" font-weight="bold" lengthAdjust="spacingAndGlyphs" textLength="67.7083" x="677.0833" y="622.2616">My Frame</text><!--MD5=[96f7e1299d4a43069e6ed32352fcac20]
entity HTTP--><ellipse cx="560.4167" cy="160.2153" fill="#FF5C5C" rx="8.3333" ry="8.3333" style="stroke: #FF3333; stroke-width: 2.0833333333333335;"/><text fill="#303030" font-family="Verdana" font-size="12.5" lengthAdjust="spacingAndGlyphs" textLength="32.2917" x="544.2708" y="198.8241">HTTP</text><!--MD5=[cbd7cda55f2530e2efe43ec72c097853]
entity First Component--><rect fill="url(#ge4in55xe5ohv1)" height="52.6917" rx="7.8125" ry="7.8125" style="stroke: #F1F1F1; stroke-width: 1.5625;" width="145.8333" x="368.75" y="133.6528"/><rect fill="url(#ge4in55xe5ohv1)" height="5.2083" style="stroke: #F1F1F1; stroke-width: 1.5625;" width="10.4167" x="363.5417" y="138.8611"/><rect fill="url(#ge4in55xe5ohv1)" height="5.2083" style="stroke: #F1F1F1; stroke-width: 1.5625;" width="10.4167" x="363.5417" y="175.9277"/><text fill="#336699" font-family="Verdana" font-size="12.5" lengthAdjust="spacingAndGlyphs" textLength="108.3333" x="387.5" y="164.9699">First Component</text><!--MD5=[b9d11f23832c1491231c5b33e55ab8c6]
entity Another Component--><rect fill="url(#ge4in55xe5ohv1)" height="52.6917" rx="7.8125" ry="7.8125" style="stroke: #F1F1F1; stroke-width: 1.5625;" width="169.7917" x="606.7708" y="133.6528"/><rect fill="url(#ge4in55xe5ohv1)" height="5.2083" style="stroke: #F1F1F1; stroke-width: 1.5625;" width="10.4167" x="601.5625" y="138.8611"/><rect fill="url(#ge4in55xe5ohv1)" height="5.2083" style="stroke: #F1F1F1; stroke-width: 1.5625;" width="10.4167" x="601.5625" y="175.9277"/><text fill="#336699" font-family="Verdana" font-size="12.5" lengthAdjust="spacingAndGlyphs" textLength="132.2917" x="625.5208" y="164.9699">Another Component</text><!--MD5=[aa625683a8c1a6d60f4cb888c4297339]
entity MyRectangle1--><rect fill="#F1F1F1" height="52.6917" rx="7.8125" ry="7.8125" style="stroke: #F1F1F1; stroke-width: 2.0833333333333335;" width="128.125" x="203.6458" y="133.6528"/><text fill="#336699" font-family="Verdana" font-size="12.5" lengthAdjust="spacingAndGlyphs" textLength="90.625" x="222.3958" y="164.9699">MyRectangle1</text><!--MD5=[deed3d4321eb4f26fdbc8b688b847966]
entity MyCollection1--><rect fill="#F1F1F1" height="48.525" rx="7.8125" ry="7.8125" style="stroke: #F1F1F1; stroke-width: 2.0833333333333335;" width="122.9167" x="43.75" y="137.8194"/><rect fill="#F1F1F1" height="48.525" rx="7.8125" ry="7.8125" style="stroke: #F1F1F1; stroke-width: 2.0833333333333335;" width="122.9167" x="39.5833" y="133.6528"/><text fill="#336699" font-family="Verdana" font-size="12.5" lengthAdjust="spacingAndGlyphs" textLength="89.5833" x="56.25" y="162.8866">MyCollection1</text><!--MD5=[76af18d92d7d7c0f7ebd8f4f605ac5aa]
entity FTP--><ellipse cx="404.1667" cy="311.2569" fill="#FF5C5C" rx="8.3333" ry="8.3333" style="stroke: #FF3333; stroke-width: 2.0833333333333335;"/><text fill="#303030" font-family="Verdana" font-size="12.5" lengthAdjust="spacingAndGlyphs" textLength="22.9167" x="392.7083" y="349.8657">FTP</text><!--MD5=[0e2cc1aee2c7f52697e111b4fb84546c]
entity Second Component--><rect fill="url(#ge4in55xe5ohv1)" height="52.6917" rx="7.8125" ry="7.8125" style="stroke: #F1F1F1; stroke-width: 1.5625;" width="165.625" x="450.5208" y="284.6944"/><rect fill="url(#ge4in55xe5ohv1)" height="5.2083" style="stroke: #F1F1F1; stroke-width: 1.5625;" width="10.4167" x="445.3125" y="289.9028"/><rect fill="url(#ge4in55xe5ohv1)" height="5.2083" style="stroke: #F1F1F1; stroke-width: 1.5625;" width="10.4167" x="445.3125" y="326.9694"/><text fill="#336699" font-family="Verdana" font-size="12.5" lengthAdjust="spacingAndGlyphs" textLength="128.125" x="469.2708" y="316.0116">Second Component</text><!--MD5=[b8d85f5d3810694767e38854f60c8b6e]
entity MyRectangle2--><rect fill="#F1F1F1" height="52.6917" rx="7.8125" ry="7.8125" style="stroke: #F1F1F1; stroke-width: 2.0833333333333335;" width="128.125" x="229.6875" y="284.6944"/><text fill="#336699" font-family="Verdana" font-size="12.5" lengthAdjust="spacingAndGlyphs" textLength="90.625" x="248.4375" y="316.0116">MyRectangle2</text><!--MD5=[243c1e580c31013c48b02624e18b25a7]
entity Example 1--><rect fill="url(#ge4in55xe5ohv1)" height="52.6917" rx="7.8125" ry="7.8125" style="stroke: #F1F1F1; stroke-width: 1.5625;" width="105.2083" x="675.5208" y="284.6944"/><rect fill="url(#ge4in55xe5ohv1)" height="5.2083" style="stroke: #F1F1F1; stroke-width: 1.5625;" width="10.4167" x="670.3125" y="289.9028"/><rect fill="url(#ge4in55xe5ohv1)" height="5.2083" style="stroke: #F1F1F1; stroke-width: 1.5625;" width="10.4167" x="670.3125" y="326.9694"/><text fill="#336699" font-family="Verdana" font-size="12.5" lengthAdjust="spacingAndGlyphs" textLength="67.7083" x="694.2708" y="316.0116">Example 1</text><!--MD5=[3e0e08c92570480402984701ab5a6d2d]
entity Folder 3--><rect fill="url(#ge4in55xe5ohv1)" height="52.6917" rx="7.8125" ry="7.8125" style="stroke: #F1F1F1; stroke-width: 1.5625;" width="90.625" x="682.8125" y="505.5278"/><rect fill="url(#ge4in55xe5ohv1)" height="5.2083" style="stroke: #F1F1F1; stroke-width: 1.5625;" width="10.4167" x="677.6042" y="510.7361"/><rect fill="url(#ge4in55xe5ohv1)" height="5.2083" style="stroke: #F1F1F1; stroke-width: 1.5625;" width="10.4167" x="677.6042" y="547.8027"/><text fill="#336699" font-family="Verdana" font-size="12.5" lengthAdjust="spacingAndGlyphs" textLength="53.125" x="701.5625" y="536.8449">Folder 3</text><!--MD5=[63877ed85df621d134a6c80fb52dad56]
entity Frame 4--><rect fill="url(#ge4in55xe5ohv1)" height="52.6917" rx="7.8125" ry="7.8125" style="stroke: #F1F1F1; stroke-width: 1.5625;" width="90.625" x="682.8125" y="651.3611"/><rect fill="url(#ge4in55xe5ohv1)" height="5.2083" style="stroke: #F1F1F1; stroke-width: 1.5625;" width="10.4167" x="677.6042" y="656.5694"/><rect fill="url(#ge4in55xe5ohv1)" height="5.2083" style="stroke: #F1F1F1; stroke-width: 1.5625;" width="10.4167" x="677.6042" y="693.6361"/><text fill="#336699" font-family="Verdana" font-size="12.5" lengthAdjust="spacingAndGlyphs" textLength="53.125" x="701.5625" y="682.6782">Frame 4</text><!--MD5=[bb0325ec99f4f4d58c3e33c6fae3b543]
entity MyCollection2--><rect fill="#F1F1F1" height="48.525" rx="7.8125" ry="7.8125" style="stroke: #F1F1F1; stroke-width: 2.0833333333333335;" width="122.9167" x="834.375" y="137.8194"/><rect fill="#F1F1F1" height="48.525" rx="7.8125" ry="7.8125" style="stroke: #F1F1F1; stroke-width: 2.0833333333333335;" width="122.9167" x="830.2083" y="133.6528"/><text fill="#336699" font-family="Verdana" font-size="12.5" lengthAdjust="spacingAndGlyphs" textLength="89.5833" x="846.875" y="162.8866">MyCollection2</text><!--MD5=[4d6c9a8b502f46c0f85d26a51e5d57ce]
entity My Artifact--><rect fill="url(#ge4in55xe5ohv4)" height="55.8167" rx="7.8125" ry="7.8125" style="stroke: #ABABAB; stroke-width: 1.5625;" width="115.625" x="994.2708" y="132.0903"/><polygon fill="url(#ge4in55xe5ohv4)" points="1092.1875,137.2986,1092.1875,151.8819,1104.6875,151.8819,1104.6875,143.5486,1098.4375,137.2986,1092.1875,137.2986" style="stroke: #ABABAB; stroke-width: 1.5625;"/><line style="stroke: #ABABAB; stroke-width: 1.5625;" x1="1098.4375" x2="1098.4375" y1="137.2986" y2="143.5486"/><line style="stroke: #ABABAB; stroke-width: 1.5625;" x1="1104.6875" x2="1098.4375" y1="143.5486" y2="143.5486"/><text fill="#FFFFFF" font-family="Verdana" font-size="12.5" lengthAdjust="spacingAndGlyphs" textLength="67.7083" x="1013.0208" y="166.5324">My Artifact</text><!--MD5=[6013850653c05993d855a7b82b2ebd6f]
entity My Storage--><rect fill="url(#ge4in55xe5ohv5)" height="52.6917" rx="36.4583" ry="36.4583" style="stroke: #FFAE42; stroke-width: 1.5625;" width="111.4583" x="1146.3542" y="133.6528"/><text fill="#FFFFFF" font-family="Verdana" font-size="12.5" lengthAdjust="spacingAndGlyphs" textLength="73.9583" x="1165.1042" y="164.9699">My Storage</text><!--MD5=[decf897d207c1b699121f5d4005ef96e]
entity My Queue--><path d="M847.3958,289.9028 L940.1042,289.9028 C945.3125,289.9028 945.3125,311.0402 945.3125,311.0402 C945.3125,311.0402 945.3125,332.1777 940.1042,332.1777 L847.3958,332.1777 C842.1875,332.1777 842.1875,311.0402 842.1875,311.0402 C842.1875,311.0402 842.1875,289.9028 847.3958,289.9028 " fill="url(#ge4in55xe5ohv1)" style="stroke: #F1F1F1; stroke-width: 1.5625;"/><path d="M940.1042,289.9028 C934.8958,289.9028 934.8958,311.0402 934.8958,311.0402 C934.8958,332.1777 940.1042,332.1777 940.1042,332.1777 " fill="none" style="stroke: #F1F1F1; stroke-width: 1.5625;"/><text fill="#336699" font-family="Verdana" font-size="12.5" lengthAdjust="spacingAndGlyphs" textLength="65.625" x="855.7292" y="316.0116">My Queue</text><!--MD5=[db0b4290d55c456da6f1e605315daa68]
entity My Interface--><ellipse cx="1039.5833" cy="311.2569" fill="#FF5C5C" rx="8.3333" ry="8.3333" style="stroke: #FF3333; stroke-width: 2.0833333333333335;"/><text fill="#303030" font-family="Verdana" font-size="12.5" lengthAdjust="spacingAndGlyphs" textLength="81.25" x="998.9583" y="349.8657">My Interface</text><!--MD5=[c42dbb279bb2c76edeffd08640135261]
entity My Card--><rect fill="url(#ge4in55xe5ohv6)" height="38.1083" rx="7.8125" ry="7.8125" style="stroke: #336699; stroke-width: 1.5625;" width="90.625" x="1133.8542" y="291.9861"/><text fill="#FFFFFF" font-family="Verdana" font-size="12.5" lengthAdjust="spacingAndGlyphs" textLength="53.125" x="1152.6042" y="316.0116">My Card</text><!--MD5=[4552e0ab931d4db86ba1ccdf7169c968]
entity My File--><path d="M853.125,513.3403 L853.125,550.4069 A7.8125,7.8125 0 0 0 860.9375,558.2194 L926.5625,558.2194 A7.8125,7.8125 0 0 0 934.375,550.4069 L934.375,515.9444 L923.9583,505.5278 L860.9375,505.5278 A7.8125,7.8125 0 0 0 853.125,513.3403 " fill="url(#ge4in55xe5ohv0)" style="stroke: #FFFFFF; stroke-width: 1.5625;"/><path d="M923.9583,505.5278 L923.9583,508.1319 A7.8125,7.8125 0 0 0 931.7708,515.9444 L934.375,515.9444 " fill="url(#ge4in55xe5ohv0)" style="stroke: #FFFFFF; stroke-width: 1.5625;"/><text fill="#FFFFFF" font-family="Verdana" font-size="12.5" lengthAdjust="spacingAndGlyphs" textLength="43.75" x="871.875" y="536.8449">My File</text><!--MD5=[5a51615613d2b2569e36ac803df4b251]
entity My Stack--><rect fill="url(#ge4in55xe5ohv1)" height="52.6917" rx="7.8125" ry="7.8125" style="stroke: none; stroke-width: 1.5625;" width="94.7917" x="986.9792" y="505.5278"/><path d="M971.3542,505.5278 L979.1667,505.5278 A7.8125,7.8125 0 0 1 986.9792,513.3403 L986.9792,550.4069 A7.8125,7.8125 0 0 0 994.7917,558.2194 L1073.9583,558.2194 A7.8125,7.8125 0 0 0 1081.7708,550.4069 L1081.7708,513.3403 A7.8125,7.8125 0 0 1 1089.5833,505.5278 L1097.3958,505.5278 " fill="none" style="stroke: #F1F1F1; stroke-width: 1.5625;"/><text fill="#336699" font-family="Verdana" font-size="12.5" lengthAdjust="spacingAndGlyphs" textLength="57.2917" x="1005.7292" y="536.8449">My Stack</text><!--MD5=[46d996859f59e5baf77956ce93023cee]
link HTTP to First Component--><path d="M550.8281,160.2153 C538.8708,160.2153 526.9146,160.2153 514.9573,160.2153 " fill="none" id="HTTP-First Component" style="stroke: #EEEEEE; stroke-width: 3.125;"/><!--MD5=[1966a42bb49d59057147dbda06282f4b]
link FTP to Second Component--><path d="M413.7531,311.2569 C425.8979,311.2569 438.0427,311.2569 450.1875,311.2569 " fill="none" id="FTP-Second Component" style="stroke: #EEEEEE; stroke-width: 3.125;"/><!--MD5=[d3aefbd8005e27b21e7ce98ddd948193]
link First Component to FTP--><path d="M435.2198,186.8642 C427.199,218.7257 413.8,271.9507 407.5583,296.7434 " fill="none" id="First Component-&gt;FTP" style="stroke: #EEEEEE; stroke-width: 3.125;"/><polygon fill="#EEEEEE" points="406.2708,301.859,412.5992,293.7841,407.5417,296.8081,404.5178,291.7507,406.2708,301.859" style="stroke: #EEEEEE; stroke-width: 3.125;"/><!--MD5=[efc1ffe8b578a0fb156c7bce303319bb]
link Another Component to Example 1--><path d="M697.9344,186.8642 C704.1948,212.4423 713.825,251.7903 720.5198,279.1413 " fill="none" id="Another Component-&gt;Example 1" style="stroke: #EEEEEE; stroke-width: 3.125;"/><polygon fill="#EEEEEE" points="721.8177,284.4444,723.6366,274.3477,720.5797,279.3854,715.5421,276.3285,721.8177,284.4444" style="stroke: #EEEEEE; stroke-width: 3.125;"/><!--MD5=[7ec8393a78a133520e8846dd05a7857a]
link Example 1 to Folder 3--><path d="M728.125,337.8205 C728.125,378.134 728.125,456.4319 728.125,499.9621 " fill="none" id="Example 1-&gt;Folder 3" style="stroke: #EEEEEE; stroke-width: 3.125;"/><polygon fill="#EEEEEE" points="728.125,505.3517,732.2917,495.9767,728.125,500.1434,723.9583,495.9767,728.125,505.3517" style="stroke: #EEEEEE; stroke-width: 3.125;"/><!--MD5=[b96c7096199393c1414a8b4e9ed2c30f]
link Folder 3 to Frame 4--><path d="M728.125,558.8319 C728.125,583.109 728.125,619.5736 728.125,645.5455 " fill="none" id="Folder 3-&gt;Frame 4" style="stroke: #EEEEEE; stroke-width: 3.125;"/><polygon fill="#EEEEEE" points="728.125,650.9205,732.2917,641.5455,728.125,645.7121,723.9583,641.5455,728.125,650.9205" style="stroke: #EEEEEE; stroke-width: 3.125;"/><!--MD5=[83be288af14fde8a86007c2b011fac4a]
link MyCollection2 to My Artifact--><!--MD5=[b21a3c93c2a22c7ef4934ace81b9a2fe]
link My Artifact to My Storage--><!--MD5=[6ba35b42f782a962813221ea03178716]
link MyCollection2 to My Queue--><!--MD5=[0babb46f3d0f67f91c828a5eda35ab7d]
link My Queue to My Interface--><!--MD5=[9bfee3aea78949ae207e8bd3b67fed50]
link My Interface to My Card--><!--MD5=[afe9315598834b0b9f57a7a5b2c7ee2a]
link My Queue to My File--><!--MD5=[f6296be58d13482500ae3b999db2843f]
link My File to My Stack--><!--MD5=[7b8d12857556a5869680ba46a8f67a8c]
@startuml



skinparam backgroundColor transparent







skinparam defaultFontName        "Verdana"
skinparam defaultFontSize        12
skinparam dpi                    100
skinparam shadowing              false
skinparam roundcorner            15
skinparam ParticipantPadding     30
skinparam BoxPadding             30
skinparam Padding                8
skinparam ArrowColor             #737373
skinparam stereotype {
    CBackgroundColor #dedede
    CBorderColor #ababab
    ABackgroundColor #5cad5c
    ABorderColor #297a29
    IBackgroundColor #ff5c5c
    IBorderColor #cc2929
    EBackgroundColor #ffbe68
    EBorderColor #cc8b35
    NBackgroundColor #5c85ad
    NBorderColor #29527a
}
skinparam title {
	FontColor	                 #eeeeee
	BorderColor	                 #ababab
	FontSize	    	         20
	BorderRoundCorner            8
	BorderThickness 	         1
	BackgroundColor              #dedede-#d6d6d6
}


skinparam legend {
	BackgroundColor #d6d6d6
	BorderColor #ababab
	FontColor #ffffff
}

skinparam swimlane {
	BorderColor #336699
	BorderThickness 2
	TitleBackgroundColor  #dedede-#d6d6d6
	TitleFontColor #eeeeee
}


skinparam activity {
		FontColor #336699
	BorderColor #f1f1f1
	BackgroundColor #eeeeee-#bebebe
	BarColor #339933
	StartColor #336699
	EndColor #336699
	DiamondBackgroundColor #d6d6d6-#ababab
  	DiamondBorderColor #ababab
	DiamondFontColor #ffffff
}



skinparam participant {
		FontColor #336699
	BorderColor #f1f1f1
	BackgroundColor #eeeeee-#bebebe
	ParticipantBorderThickness 2
}



skinparam actor {
		FontColor #336699
	BorderColor #f1f1f1
	BackgroundColor #eeeeee-#bebebe
	FontColor #303030
}



skinparam arrow {
	Thickness 3
	Color #eeeeee
	FontColor #303030
}



skinparam sequence {
	BorderColor #eeeeee
	TitleFontColor #eeeeee
	BackgroundColor transparent
	StartColor #eeeeee
	EndColor #eeeeee
	BoxBackgroundColor #ffffff
	BoxBorderColor #737373
	BoxFontColor #303030
	LifeLineBorderColor #ababab
	LifeLineBorderThickness 2
	LifeLineBackgroundColor #dedede
	GroupBorderColor #737373
	GroupFontColor #303030
	GroupHeaderFontColor #336699
	DividerBackgroundColor #FFF-#ffffff
    DividerBorderColor #737373
    DividerBorderThickness 2
    DividerFontColor #303030
	ReferenceBackgroundColor transparent
	ReferenceBorderColor #737373
	ReferenceFontColor #303030
	ReferenceHeaderFontColor #336699
}



skinparam partition {
	BorderColor #eeeeee
	FontColor #bebebe
	BackgroundColor transparent
}



skinparam collections {
		FontColor #336699
	BorderColor #f1f1f1
	BackgroundColor #eeeeee-#bebebe
}



skinparam control {
		FontColor #336699
	BorderColor #f1f1f1
	BackgroundColor #eeeeee-#bebebe
}



skinparam entity {
		FontColor #336699
	BorderColor #f1f1f1
	BackgroundColor #eeeeee-#bebebe
}



skinparam boundary {
		FontColor #336699
	BorderColor #f1f1f1
	BackgroundColor #eeeeee-#bebebe
}



skinparam agent {
	BackgroundColor #orange
	BorderColor #999999
	FontColor #333333
}



skinparam note {
	BorderThickness 1
	BackgroundColor #5c85ad-#336699
	BorderColor #336699
	FontColor #FFF
}



skinparam artifact {
	BackgroundColor #dedede-#ababab
	BorderColor #ababab
	FontColor #ffffff
}



skinparam component {
		FontColor #336699
	BorderColor #f1f1f1
	BackgroundColor #eeeeee-#bebebe
}



skinparam interface {
	BackgroundColor  #ff5c5c
	BorderColor  #ff3333
	FontColor #303030
}



skinparam storage {
	BackgroundColor #ffbe68-#ffae42
  	BorderColor #ffae42
	FontColor #FFF
}



skinparam node {
	BackgroundColor #f1f1f1-#bebebe
	BorderColor #f1f1f1
	FontColor #336699
}



skinparam cloud {
	BackgroundColor #F2FCFE-#eeeeee
	BorderColor #F2FCFE
	FontColor #303030
}



skinparam database {
		FontColor #336699
	BorderColor #f1f1f1
	BackgroundColor #eeeeee-#bebebe
	FontColor #303030
}



skinparam class {
		FontColor #336699
	BorderColor #f1f1f1
	BackgroundColor #eeeeee-#bebebe
	HeaderBackgroundColor #f1f1f1-#bebebe
	StereotypeFontColor #303030
	BorderThickness 1
	AttributeFontColor #303030
	AttributeFontSize 9
}



skinparam object {
		FontColor #336699
	BorderColor #f1f1f1
	BackgroundColor #eeeeee-#bebebe
	StereotypeFontColor #ffffff
	BorderThickness 1
	AttributeFontColor #ffffff
	AttributeFontSize 11
}



skinparam usecase {
		FontColor #336699
	BorderColor #f1f1f1
	BackgroundColor #eeeeee-#bebebe
	BorderThickness 2
	StereotypeFontColor #eeeeee
}



skinparam rectangle {
		FontColor #336699
	BorderColor #f1f1f1
	BackgroundColor #eeeeee-#bebebe
	BackgroundColor #f1f1f1
	BorderThickness 2
	StereotypeFontColor #eeeeee
}



skinparam package {
		FontColor #336699
	BorderColor #f1f1f1
	BackgroundColor #eeeeee-#bebebe
	BorderThickness 2
}



skinparam folder {
	BackgroundColor #eeeeee-#bebebe
  	BorderColor #ffae42
	FontColor #ffae42
	BorderThickness 2
}



skinparam frame {
	BackgroundColor #eeeeee-#bebebe
  	BorderColor #336699
	FontColor #336699
	BorderThickness 2
}



skinparam state {
		FontColor #336699
	BorderColor #f1f1f1
	BackgroundColor #eeeeee-#bebebe
	StartColor #336699
	EndColor #336699
	AttributeFontColor #ffffff
	AttributeFontSize 11
}



skinparam queue {
		FontColor #336699
	BorderColor #f1f1f1
	BackgroundColor #eeeeee-#bebebe
}



skinparam card {
	BackgroundColor #5c85ad-#336699
	BorderColor #336699
	FontColor #FFF
}



skinparam file {
	BackgroundColor #dedede-#d6d6d6
	BorderColor #ffffff
	FontColor #ffffff

}



skinparam stack {
		FontColor #336699
	BorderColor #f1f1f1
	BackgroundColor #eeeeee-#bebebe
}


title Component Diagram - silver theme


package "My Package" {
  HTTP - [First Component]
  [Another Component]
  rectangle MyRectangle1
  collections MyCollection1
}
 
node "My Node" {
  FTP - [Second Component]
  [First Component] - -> FTP
  rectangle MyRectangle2
} 

cloud "My Cloud" {
  [Example 1]
}

collections MyCollection2

database "My Database" {
  folder "My folder" {
	[Folder 3]
  }
  frame "My Frame" {
	[Frame 4]
  }
}

artifact "My Artifact"
storage "My Storage"
queue "My Queue"
interface "My Interface"
card "My Card"
file "My File"
stack "My Stack"

[Another Component] - -> [Example 1]
[Example 1] - -> [Folder 3]
[Folder 3] - -> [Frame 4]

@enduml

PlantUML version 1.2020.08(Sun Apr 26 07:08:22 PDT 2020)
(GPL source distribution)
Java Runtime: Java(TM) SE Runtime Environment
JVM: Java HotSpot(TM) 64-Bit Server VM
Java Version: 1.8.0_251-b32
Operating System: Windows 10
Default Encoding: Cp1252
Language: en
Country: US
--></g></svg>