<?xml version="1.0" encoding="UTF-8" standalone="no"?><svg xmlns="http://www.w3.org/2000/svg" xmlns:xlink="http://www.w3.org/1999/xlink" contentScriptType="application/ecmascript" contentStyleType="text/css" height="1619.7917px" preserveAspectRatio="none" style="width:1359px;height:1619px;background:#00000000;" version="1.1" viewBox="0 0 1359 1619" width="1359.375px" zoomAndPan="magnify"><defs><linearGradient id="g1fced0dxtzsjd0" x1="50%" x2="50%" y1="0%" y2="100%"><stop offset="0%" stop-color="#DEDEDE"/><stop offset="100%" stop-color="#D6D6D6"/></linearGradient><linearGradient id="g1fced0dxtzsjd1" x1="50%" x2="50%" y1="0%" y2="100%"><stop offset="0%" stop-color="#EEEEEE"/><stop offset="100%" stop-color="#BEBEBE"/></linearGradient><linearGradient id="g1fced0dxtzsjd2" x1="50%" x2="50%" y1="0%" y2="100%"><stop offset="0%" stop-color="#FFFFFF"/><stop offset="100%" stop-color="#FFFFFF"/></linearGradient><linearGradient id="g1fced0dxtzsjd3" x1="50%" x2="50%" y1="0%" y2="100%"><stop offset="0%" stop-color="#5C85AD"/><stop offset="100%" stop-color="#336699"/></linearGradient></defs><g><rect fill="url(#g1fced0dxtzsjd0)" height="52.4028" rx="4.1667" ry="4.1667" style="stroke: #ABABAB; stroke-width: 1.0416666666666667;" width="386.4583" x="481.25" y="30.8167"/><text fill="#EEEEEE" font-family="Verdana" font-size="20.8333" lengthAdjust="spacingAndGlyphs" textLength="353.125" x="497.9167" y="65.3035">Sequence Diagram - silver theme</text><rect fill="#FFFFFF" height="1494.6411" rx="7.8125" ry="7.8125" style="stroke: #737373; stroke-width: 1.0416666666666667;" width="327.0833" x="982.2917" y="94.6777"/><text fill="#303030" font-family="Verdana" font-size="12.5" font-weight="bold" lengthAdjust="spacingAndGlyphs" textLength="111.4583" x="1090.1042" y="115.5782">Internal Service</text><rect fill="#DEDEDE" height="280.2999" style="stroke: #ABABAB; stroke-width: 1.0416666666666667;" width="10.4167" x="420.3125" y="375.411"/><rect fill="#FFFFFF" height="562.6831" rx="7.8125" ry="7.8125" style="stroke: #737373; stroke-width: 2.0833333333333335;" width="1322.9167" x="13.5417" y="825.2441"/><rect fill="#FFFFFF" height="286.5499" style="stroke: none; stroke-width: 1.0416666666666667;" width="1322.9167" x="13.5417" y="1020.9941"/><rect fill="#FFFFFF" height="145.1416" rx="7.8125" ry="7.8125" style="stroke: #737373; stroke-width: 2.0833333333333335;" width="1302.0833" x="23.9583" y="1155.1107"/><rect fill="#FFFFFF" height="96.6166" rx="7.8125" ry="7.8125" style="stroke: #737373; stroke-width: 2.0833333333333335;" width="1281.25" x="34.375" y="1196.344"/><rect fill="#FFFFFF" height="80.3833" style="stroke: none; stroke-width: 1.0416666666666667;" width="1322.9167" x="13.5417" y="1307.5439"/><line style="stroke: #ABABAB; stroke-width: 1.0416666666666667;" x1="71.875" x2="71.875" y1="193.3777" y2="664.0442"/><line style="stroke: #ABABAB; stroke-width: 1.0416666666666667; stroke-dasharray: 1.0,4.0;" x1="71.875" x2="71.875" y1="664.0442" y2="725.0692"/><line style="stroke: #ABABAB; stroke-width: 1.0416666666666667;" x1="71.875" x2="71.875" y1="725.0692" y2="1488.7105"/><line style="stroke: #ABABAB; stroke-width: 1.0416666666666667;" x1="257.2917" x2="257.2917" y1="193.3777" y2="664.0442"/><line style="stroke: #ABABAB; stroke-width: 1.0416666666666667; stroke-dasharray: 1.0,4.0;" x1="257.2917" x2="257.2917" y1="664.0442" y2="725.0692"/><line style="stroke: #ABABAB; stroke-width: 1.0416666666666667;" x1="257.2917" x2="257.2917" y1="725.0692" y2="1488.7105"/><line style="stroke: #ABABAB; stroke-width: 1.0416666666666667;" x1="425" x2="425" y1="193.3777" y2="664.0442"/><line style="stroke: #ABABAB; stroke-width: 1.0416666666666667; stroke-dasharray: 1.0,4.0;" x1="425" x2="425" y1="664.0442" y2="725.0692"/><line style="stroke: #ABABAB; stroke-width: 1.0416666666666667;" x1="425" x2="425" y1="725.0692" y2="1488.7105"/><line style="stroke: #ABABAB; stroke-width: 1.0416666666666667;" x1="590.625" x2="590.625" y1="193.3777" y2="664.0442"/><line style="stroke: #ABABAB; stroke-width: 1.0416666666666667; stroke-dasharray: 1.0,4.0;" x1="590.625" x2="590.625" y1="664.0442" y2="725.0692"/><line style="stroke: #ABABAB; stroke-width: 1.0416666666666667;" x1="590.625" x2="590.625" y1="725.0692" y2="1488.7105"/><line style="stroke: #ABABAB; stroke-width: 1.0416666666666667;" x1="776.0417" x2="776.0417" y1="193.3777" y2="664.0442"/><line style="stroke: #ABABAB; stroke-width: 1.0416666666666667; stroke-dasharray: 1.0,4.0;" x1="776.0417" x2="776.0417" y1="664.0442" y2="725.0692"/><line style="stroke: #ABABAB; stroke-width: 1.0416666666666667;" x1="776.0417" x2="776.0417" y1="725.0692" y2="1488.7105"/><line style="stroke: #ABABAB; stroke-width: 1.0416666666666667;" x1="879.1667" x2="879.1667" y1="193.3777" y2="664.0442"/><line style="stroke: #ABABAB; stroke-width: 1.0416666666666667; stroke-dasharray: 1.0,4.0;" x1="879.1667" x2="879.1667" y1="664.0442" y2="725.0692"/><line style="stroke: #ABABAB; stroke-width: 1.0416666666666667;" x1="879.1667" x2="879.1667" y1="725.0692" y2="1488.7105"/><line style="stroke: #ABABAB; stroke-width: 1.0416666666666667;" x1="1045.8333" x2="1045.8333" y1="193.3777" y2="664.0442"/><line style="stroke: #ABABAB; stroke-width: 1.0416666666666667; stroke-dasharray: 1.0,4.0;" x1="1045.8333" x2="1045.8333" y1="664.0442" y2="725.0692"/><line style="stroke: #ABABAB; stroke-width: 1.0416666666666667;" x1="1045.8333" x2="1045.8333" y1="725.0692" y2="1488.7105"/><line style="stroke: #ABABAB; stroke-width: 1.0416666666666667;" x1="1210.4167" x2="1210.4167" y1="193.3777" y2="664.0442"/><line style="stroke: #ABABAB; stroke-width: 1.0416666666666667; stroke-dasharray: 1.0,4.0;" x1="1210.4167" x2="1210.4167" y1="664.0442" y2="725.0692"/><line style="stroke: #ABABAB; stroke-width: 1.0416666666666667;" x1="1210.4167" x2="1210.4167" y1="725.0692" y2="1488.7105"/><text fill="#303030" font-family="Verdana" font-size="12.5" lengthAdjust="spacingAndGlyphs" textLength="32.2917" x="53.125" y="182.4198">Foo1</text><ellipse cx="72.3958" cy="106.311" fill="url(#g1fced0dxtzsjd1)" rx="8.3333" ry="8.3333" style="stroke: #F1F1F1; stroke-width: 2.0833333333333335;"/><path d="M72.3958,114.6444 L72.3958,142.7694 M58.8542,122.9777 L85.9375,122.9777 M72.3958,142.7694 L58.8542,158.3944 M72.3958,142.7694 L85.9375,158.3944 " fill="none" style="stroke: #F1F1F1; stroke-width: 2.0833333333333335;"/><text fill="#303030" font-family="Verdana" font-size="12.5" lengthAdjust="spacingAndGlyphs" textLength="32.2917" x="53.125" y="1508.5693">Foo1</text><ellipse cx="72.3958" cy="1529.9438" fill="url(#g1fced0dxtzsjd1)" rx="8.3333" ry="8.3333" style="stroke: #F1F1F1; stroke-width: 2.0833333333333335;"/><path d="M72.3958,1538.2772 L72.3958,1566.4022 M58.8542,1546.6105 L85.9375,1546.6105 M72.3958,1566.4022 L58.8542,1582.0272 M72.3958,1566.4022 L85.9375,1582.0272 " fill="none" style="stroke: #F1F1F1; stroke-width: 2.0833333333333335;"/><text fill="#336699" font-family="Verdana" font-size="12.5" lengthAdjust="spacingAndGlyphs" textLength="32.2917" x="238.5417" y="182.4198">Foo2</text><path d="M236.4583,132.3527 L236.4583,157.3527 M236.4583,144.8527 L254.1667,144.8527 " fill="none" style="stroke: #F1F1F1; stroke-width: 2.0833333333333335;"/><ellipse cx="266.6667" cy="144.8527" fill="url(#g1fced0dxtzsjd1)" rx="12.5" ry="12.5" style="stroke: #F1F1F1; stroke-width: 2.0833333333333335;"/><text fill="#336699" font-family="Verdana" font-size="12.5" lengthAdjust="spacingAndGlyphs" textLength="32.2917" x="238.5417" y="1508.5693">Foo2</text><path d="M236.4583,1523.6938 L236.4583,1548.6938 M236.4583,1536.1938 L254.1667,1536.1938 " fill="none" style="stroke: #F1F1F1; stroke-width: 2.0833333333333335;"/><ellipse cx="266.6667" cy="1536.1938" fill="url(#g1fced0dxtzsjd1)" rx="12.5" ry="12.5" style="stroke: #F1F1F1; stroke-width: 2.0833333333333335;"/><text fill="#336699" font-family="Verdana" font-size="12.5" lengthAdjust="spacingAndGlyphs" textLength="32.2917" x="406.25" y="182.4198">Foo3</text><ellipse cx="425.5208" cy="144.8527" fill="url(#g1fced0dxtzsjd1)" rx="12.5" ry="12.5" style="stroke: #F1F1F1; stroke-width: 2.0833333333333335;"/><polygon fill="#F1F1F1" points="421.3542,132.3527,427.6042,127.1444,425.5208,132.3527,427.6042,137.561,421.3542,132.3527" style="stroke: #F1F1F1; stroke-width: 1.0416666666666667;"/><text fill="#336699" font-family="Verdana" font-size="12.5" lengthAdjust="spacingAndGlyphs" textLength="32.2917" x="406.25" y="1508.5693">Foo3</text><ellipse cx="425.5208" cy="1536.1938" fill="url(#g1fced0dxtzsjd1)" rx="12.5" ry="12.5" style="stroke: #F1F1F1; stroke-width: 2.0833333333333335;"/><polygon fill="#F1F1F1" points="421.3542,1523.6938,427.6042,1518.4855,425.5208,1523.6938,427.6042,1528.9022,421.3542,1523.6938" style="stroke: #F1F1F1; stroke-width: 1.0416666666666667;"/><text fill="#336699" font-family="Verdana" font-size="12.5" lengthAdjust="spacingAndGlyphs" textLength="32.2917" x="571.875" y="182.4198">Foo4</text><ellipse cx="591.1458" cy="144.8527" fill="url(#g1fced0dxtzsjd1)" rx="12.5" ry="12.5" style="stroke: #F1F1F1; stroke-width: 2.0833333333333335;"/><line style="stroke: #F1F1F1; stroke-width: 2.0833333333333335;" x1="578.6458" x2="603.6458" y1="159.436" y2="159.436"/><text fill="#336699" font-family="Verdana" font-size="12.5" lengthAdjust="spacingAndGlyphs" textLength="32.2917" x="571.875" y="1508.5693">Foo4</text><ellipse cx="591.1458" cy="1536.1938" fill="url(#g1fced0dxtzsjd1)" rx="12.5" ry="12.5" style="stroke: #F1F1F1; stroke-width: 2.0833333333333335;"/><line style="stroke: #F1F1F1; stroke-width: 2.0833333333333335;" x1="578.6458" x2="603.6458" y1="1550.7772" y2="1550.7772"/><text fill="#303030" font-family="Verdana" font-size="12.5" lengthAdjust="spacingAndGlyphs" textLength="32.2917" x="757.2917" y="182.4198">Foo5</text><path d="M757.8125,124.0194 C757.8125,113.6027 776.5625,113.6027 776.5625,113.6027 C776.5625,113.6027 795.3125,113.6027 795.3125,124.0194 L795.3125,151.1027 C795.3125,161.5194 776.5625,161.5194 776.5625,161.5194 C776.5625,161.5194 757.8125,161.5194 757.8125,151.1027 L757.8125,124.0194 " fill="url(#g1fced0dxtzsjd1)" style="stroke: #F1F1F1; stroke-width: 1.5625;"/><path d="M757.8125,124.0194 C757.8125,134.436 776.5625,134.436 776.5625,134.436 C776.5625,134.436 795.3125,134.436 795.3125,124.0194 " fill="none" style="stroke: #F1F1F1; stroke-width: 1.5625;"/><text fill="#303030" font-family="Verdana" font-size="12.5" lengthAdjust="spacingAndGlyphs" textLength="32.2917" x="757.2917" y="1508.5693">Foo5</text><path d="M757.8125,1529.9438 C757.8125,1519.5272 776.5625,1519.5272 776.5625,1519.5272 C776.5625,1519.5272 795.3125,1519.5272 795.3125,1529.9438 L795.3125,1557.0272 C795.3125,1567.4438 776.5625,1567.4438 776.5625,1567.4438 C776.5625,1567.4438 757.8125,1567.4438 757.8125,1557.0272 L757.8125,1529.9438 " fill="url(#g1fced0dxtzsjd1)" style="stroke: #F1F1F1; stroke-width: 1.5625;"/><path d="M757.8125,1529.9438 C757.8125,1540.3605 776.5625,1540.3605 776.5625,1540.3605 C776.5625,1540.3605 795.3125,1540.3605 795.3125,1529.9438 " fill="none" style="stroke: #F1F1F1; stroke-width: 1.5625;"/><rect fill="url(#g1fced0dxtzsjd1)" height="46.4417" rx="7.8125" ry="7.8125" style="stroke: #F1F1F1; stroke-width: 1.5625;" width="63.5417" x="850" y="141.7277"/><rect fill="url(#g1fced0dxtzsjd1)" height="46.4417" rx="7.8125" ry="7.8125" style="stroke: #F1F1F1; stroke-width: 1.5625;" width="63.5417" x="845.8333" y="145.8944"/><text fill="#336699" font-family="Verdana" font-size="12.5" lengthAdjust="spacingAndGlyphs" textLength="32.2917" x="861.4583" y="174.0865">Foo6</text><rect fill="url(#g1fced0dxtzsjd1)" height="46.4417" rx="7.8125" ry="7.8125" style="stroke: #F1F1F1; stroke-width: 1.5625;" width="63.5417" x="850" y="1487.6689"/><rect fill="url(#g1fced0dxtzsjd1)" height="46.4417" rx="7.8125" ry="7.8125" style="stroke: #F1F1F1; stroke-width: 1.5625;" width="63.5417" x="845.8333" y="1491.8355"/><text fill="#336699" font-family="Verdana" font-size="12.5" lengthAdjust="spacingAndGlyphs" textLength="32.2917" x="861.4583" y="1520.0277">Foo6</text><rect fill="url(#g1fced0dxtzsjd1)" height="46.4417" rx="7.8125" ry="7.8125" style="stroke: #F1F1F1; stroke-width: 1.5625;" width="56.25" x="1017.7083" y="145.8944"/><text fill="#336699" font-family="Verdana" font-size="12.5" lengthAdjust="spacingAndGlyphs" textLength="25" x="1033.3333" y="174.0865">Bob</text><rect fill="url(#g1fced0dxtzsjd1)" height="46.4417" rx="7.8125" ry="7.8125" style="stroke: #F1F1F1; stroke-width: 1.5625;" width="56.25" x="1017.7083" y="1487.6689"/><text fill="#336699" font-family="Verdana" font-size="12.5" lengthAdjust="spacingAndGlyphs" textLength="25" x="1033.3333" y="1515.861">Bob</text><rect fill="url(#g1fced0dxtzsjd1)" height="61.6333" rx="7.8125" ry="7.8125" style="stroke: #F1F1F1; stroke-width: 1.5625;" width="127.0833" x="1146.875" y="130.7027"/><ellipse cx="1164.5833" cy="148.4111" fill="#ADD1B2" rx="10.4167" ry="10.4167" style="stroke: #F1F1F1; stroke-width: 1.0416666666666667;"/><path d="M1166.4876,152.8381 Q1166.0645,153.0497 1165.5924,153.1637 Q1165.1204,153.2776 1164.6159,153.2776 Q1162.7604,153.2776 1161.7839,152.0732 Q1160.8236,150.8525 1160.8236,148.5575 Q1160.8236,146.2463 1161.7839,145.0419 Q1162.7604,143.8212 1164.6159,143.8212 Q1165.1204,143.8212 1165.5924,143.9351 Q1166.0807,144.0328 1166.4876,144.2607 L1166.4876,146.2626 Q1166.0319,145.8394 1165.5924,145.6441 Q1165.153,145.4325 1164.6973,145.4325 Q1163.7044,145.4325 1163.1999,146.2301 Q1162.6953,147.0113 1162.6953,148.5575 Q1162.6953,150.0875 1163.1999,150.8687 Q1163.7044,151.65 1164.6973,151.65 Q1165.153,151.65 1165.5924,151.4547 Q1166.0319,151.2594 1166.4876,150.8362 L1166.4876,152.8381 Z "/><text fill="#000000" font-family="Verdana" font-size="12.5" font-style="italic" lengthAdjust="spacingAndGlyphs" textLength="68.75" x="1189.5833" y="158.8949">«Testable»</text><text fill="#336699" font-family="Verdana" font-size="12.5" lengthAdjust="spacingAndGlyphs" textLength="29.1667" x="1209.375" y="174.0865">Alice</text><rect fill="url(#g1fced0dxtzsjd1)" height="61.6333" rx="7.8125" ry="7.8125" style="stroke: #F1F1F1; stroke-width: 1.5625;" width="127.0833" x="1146.875" y="1487.6689"/><ellipse cx="1164.5833" cy="1505.3772" fill="#ADD1B2" rx="10.4167" ry="10.4167" style="stroke: #F1F1F1; stroke-width: 1.0416666666666667;"/><path d="M1166.4876,1509.8043 Q1166.0645,1510.0159 1165.5924,1510.1298 Q1165.1204,1510.2437 1164.6159,1510.2437 Q1162.7604,1510.2437 1161.7839,1509.0393 Q1160.8236,1507.8186 1160.8236,1505.5237 Q1160.8236,1503.2125 1161.7839,1502.0081 Q1162.7604,1500.7874 1164.6159,1500.7874 Q1165.1204,1500.7874 1165.5924,1500.9013 Q1166.0807,1500.9989 1166.4876,1501.2268 L1166.4876,1503.2288 Q1166.0319,1502.8056 1165.5924,1502.6103 Q1165.153,1502.3987 1164.6973,1502.3987 Q1163.7044,1502.3987 1163.1999,1503.1962 Q1162.6953,1503.9775 1162.6953,1505.5237 Q1162.6953,1507.0536 1163.1999,1507.8349 Q1163.7044,1508.6161 1164.6973,1508.6161 Q1165.153,1508.6161 1165.5924,1508.4208 Q1166.0319,1508.2255 1166.4876,1507.8023 L1166.4876,1509.8043 Z "/><text fill="#000000" font-family="Verdana" font-size="12.5" font-style="italic" lengthAdjust="spacingAndGlyphs" textLength="68.75" x="1189.5833" y="1515.861">«Testable»</text><text fill="#336699" font-family="Verdana" font-size="12.5" lengthAdjust="spacingAndGlyphs" textLength="29.1667" x="1209.375" y="1531.0527">Alice</text><rect fill="#DEDEDE" height="280.2999" style="stroke: #ABABAB; stroke-width: 1.0416666666666667;" width="10.4167" x="420.3125" y="375.411"/><rect fill="url(#g1fced0dxtzsjd2)" height="3.125" style="stroke: url(#g1fced0dxtzsjd2); stroke-width: 1.0416666666666667;" width="1343.75" x="3.125" y="233.2652"/><line style="stroke: #737373; stroke-width: 1.0416666666666667;" x1="3.125" x2="1346.875" y1="233.2652" y2="233.2652"/><line style="stroke: #737373; stroke-width: 1.0416666666666667;" x1="3.125" x2="1346.875" y1="236.3902" y2="236.3902"/><rect fill="url(#g1fced0dxtzsjd2)" height="40.1917" style="stroke: #737373; stroke-width: 2.0833333333333335;" width="121.875" x="614.0625" y="214.211"/><text fill="#303030" font-family="Verdana" font-size="12.5" font-weight="bold" lengthAdjust="spacingAndGlyphs" textLength="86.4583" x="628.6458" y="239.2782">Initialization</text><polygon fill="#EEEEEE" points="245.3125,298.761,255.7292,302.9277,245.3125,307.0943,249.4792,302.9277" style="stroke: #EEEEEE; stroke-width: 1.0416666666666667;"/><line style="stroke: #EEEEEE; stroke-width: 3.125;" x1="72.3958" x2="251.5625" y1="302.9277" y2="302.9277"/><text fill="#303030" font-family="Verdana" font-size="12.5" font-weight="bold" lengthAdjust="spacingAndGlyphs" textLength="40.625" x="88.0208" y="289.8865">[001]</text><text fill="#303030" font-family="Verdana" font-size="12.5" lengthAdjust="spacingAndGlyphs" textLength="82.2917" x="149.4792" y="289.8865">To boundary</text><polygon fill="#EEEEEE" points="407.8125,371.2443,418.2292,375.411,407.8125,379.5776,411.9792,375.411" style="stroke: #EEEEEE; stroke-width: 1.0416666666666667;"/><line style="stroke: #EEEEEE; stroke-width: 3.125;" x1="257.8125" x2="414.0625" y1="375.411" y2="375.411"/><text fill="#303030" font-family="Verdana" font-size="12.5" font-weight="bold" lengthAdjust="spacingAndGlyphs" textLength="40.625" x="273.4375" y="362.3698">[002]</text><text fill="#303030" font-family="Verdana" font-size="12.5" lengthAdjust="spacingAndGlyphs" textLength="64.5833" x="334.8958" y="362.3698">To control</text><rect fill="#00000000" height="89.325" style="stroke: #737373; stroke-width: 2.0833333333333335;" width="246.875" x="560.4167" y="383.7443"/><polygon fill="#EEEEEE" points="560.4167,383.7443,643.75,383.7443,643.75,406.661,633.3333,417.0776,560.4167,417.0776,560.4167,383.7443" style="stroke: #737373; stroke-width: 2.0833333333333335;"/><text fill="#336699" font-family="Verdana" font-size="12.5" font-weight="bold" lengthAdjust="spacingAndGlyphs" textLength="19.7917" x="582.2917" y="406.7281">ref</text><text fill="#303030" font-family="Verdana" font-size="12.5" lengthAdjust="spacingAndGlyphs" textLength="94.7917" x="636.4583" y="442.1448">This can be on</text><text fill="#303030" font-family="Verdana" font-size="12.5" lengthAdjust="spacingAndGlyphs" textLength="82.2917" x="636.4583" y="457.3364">several lines</text><polygon fill="#EEEEEE" points="578.6458,512.2192,589.0625,516.3859,578.6458,520.5526,582.8125,516.3859" style="stroke: #EEEEEE; stroke-width: 1.0416666666666667;"/><line style="stroke: #EEEEEE; stroke-width: 3.125;" x1="430.7292" x2="584.8958" y1="516.3859" y2="516.3859"/><text fill="#303030" font-family="Verdana" font-size="12.5" font-weight="bold" lengthAdjust="spacingAndGlyphs" textLength="40.625" x="446.3542" y="503.3447">[003]</text><text fill="#303030" font-family="Verdana" font-size="12.5" lengthAdjust="spacingAndGlyphs" textLength="57.2917" x="507.8125" y="503.3447">To entity</text><polygon fill="#EEEEEE" points="764.0625,558.6609,774.4792,562.8276,764.0625,566.9942,768.2292,562.8276" style="stroke: #EEEEEE; stroke-width: 1.0416666666666667;"/><line style="stroke: #EEEEEE; stroke-width: 3.125;" x1="591.1458" x2="770.3125" y1="562.8276" y2="562.8276"/><text fill="#303030" font-family="Verdana" font-size="12.5" font-weight="bold" lengthAdjust="spacingAndGlyphs" textLength="40.625" x="606.7708" y="549.7864">[004]</text><text fill="#303030" font-family="Verdana" font-size="12.5" lengthAdjust="spacingAndGlyphs" textLength="82.2917" x="668.2292" y="549.7864">To database</text><polygon fill="#EEEEEE" points="442.1875,605.1025,431.7708,609.2692,442.1875,613.4359,438.0208,609.2692" style="stroke: #EEEEEE; stroke-width: 1.0416666666666667;"/><line style="stroke: #EEEEEE; stroke-width: 3.125; stroke-dasharray: 2.0,2.0;" x1="435.9375" x2="775.5208" y1="609.2692" y2="609.2692"/><text fill="#303030" font-family="Verdana" font-size="12.5" font-weight="bold" lengthAdjust="spacingAndGlyphs" textLength="40.625" x="456.7708" y="596.228">[005]</text><text fill="#303030" font-family="Verdana" font-size="12.5" lengthAdjust="spacingAndGlyphs" textLength="40.625" x="518.2292" y="596.228">return</text><polygon fill="#EEEEEE" points="269.2708,651.5442,258.8542,655.7109,269.2708,659.8775,265.1042,655.7109" style="stroke: #EEEEEE; stroke-width: 1.0416666666666667;"/><line style="stroke: #EEEEEE; stroke-width: 3.125; stroke-dasharray: 2.0,2.0;" x1="263.0208" x2="424.4792" y1="655.7109" y2="655.7109"/><text fill="#303030" font-family="Verdana" font-size="12.5" font-weight="bold" lengthAdjust="spacingAndGlyphs" textLength="40.625" x="283.8542" y="642.6697">[006]</text><text fill="#303030" font-family="Verdana" font-size="12.5" lengthAdjust="spacingAndGlyphs" textLength="40.625" x="345.3125" y="642.6697">return</text><text fill="#000000" font-family="Verdana" font-size="12.5" lengthAdjust="spacingAndGlyphs" textLength="36.4583" x="587.2396" y="699.528">Some</text><text fill="#000000" font-family="Verdana" font-size="12.5" lengthAdjust="spacingAndGlyphs" textLength="67.7083" x="627.8646" y="699.528">long delay</text><text fill="#000000" font-family="Verdana" font-size="12.5" lengthAdjust="spacingAndGlyphs" textLength="0" x="699.7396" y="699.528"/><polygon fill="#EEEEEE" points="867.1875,759.0108,877.6042,763.1775,867.1875,767.3442,871.3542,763.1775" style="stroke: #EEEEEE; stroke-width: 1.0416666666666667;"/><line style="stroke: #EEEEEE; stroke-width: 3.125;" x1="72.3958" x2="873.4375" y1="763.1775" y2="763.1775"/><text fill="#303030" font-family="Verdana" font-size="12.5" font-weight="bold" lengthAdjust="spacingAndGlyphs" textLength="40.625" x="88.0208" y="750.1363">[007]</text><text fill="#303030" font-family="Verdana" font-size="12.5" lengthAdjust="spacingAndGlyphs" textLength="87.5" x="149.4792" y="750.1363">To collections</text><polygon fill="#EEEEEE" points="602.6042,805.4525,592.1875,809.6191,602.6042,813.7858,598.4375,809.6191" style="stroke: #EEEEEE; stroke-width: 1.0416666666666667;"/><line style="stroke: #EEEEEE; stroke-width: 3.125; stroke-dasharray: 2.0,2.0;" x1="596.3542" x2="878.6458" y1="809.6191" y2="809.6191"/><text fill="#303030" font-family="Verdana" font-size="12.5" font-weight="bold" lengthAdjust="spacingAndGlyphs" textLength="40.625" x="617.1875" y="796.578">[008]</text><text fill="#339933" font-family="Verdana" font-size="12.5" font-weight="bold" lengthAdjust="spacingAndGlyphs" textLength="53.125" x="678.6458" y="796.578">success</text><path d="M21.3542,825.2441 L94.7917,825.2441 L94.7917,848.1608 L84.375,858.5775 L13.5417,858.5775 L13.5417,833.0566 " fill="#EEEEEE" style="stroke: #737373; stroke-width: 1.0416666666666667;"/><rect fill="none" height="562.6831" rx="7.8125" ry="7.8125" style="stroke: #737373; stroke-width: 2.0833333333333335;" width="1322.9167" x="13.5417" y="825.2441"/><text fill="#336699" font-family="Verdana" font-size="12.5" font-weight="bold" lengthAdjust="spacingAndGlyphs" textLength="17.7083" x="37.5" y="847.1863">alt</text><text fill="#303030" font-family="Verdana" font-size="12.5" font-weight="bold" lengthAdjust="spacingAndGlyphs" textLength="118.75" x="118.75" y="848.2279">[successful case]</text><polygon fill="#EEEEEE" points="1197.9167,909.3608,1208.3333,913.5274,1197.9167,917.6941,1202.0833,913.5274" style="stroke: #EEEEEE; stroke-width: 1.0416666666666667;"/><line style="stroke: #EEEEEE; stroke-width: 3.125;" x1="72.3958" x2="1204.1667" y1="913.5274" y2="913.5274"/><text fill="#303030" font-family="Verdana" font-size="12.5" font-weight="bold" lengthAdjust="spacingAndGlyphs" textLength="40.625" x="88.0208" y="900.4862">[009]</text><text fill="#303030" font-family="Verdana" font-size="12.5" lengthAdjust="spacingAndGlyphs" textLength="158.3333" x="149.4792" y="900.4862">Authentication Accepted</text><polygon fill="#EEEEEE" points="83.8542,955.8024,73.4375,959.9691,83.8542,964.1357,79.6875,959.9691" style="stroke: #EEEEEE; stroke-width: 1.0416666666666667;"/><line style="stroke: #EEEEEE; stroke-width: 3.125; stroke-dasharray: 2.0,2.0;" x1="77.6042" x2="1209.375" y1="959.9691" y2="959.9691"/><text fill="#303030" font-family="Verdana" font-size="12.5" font-weight="bold" lengthAdjust="spacingAndGlyphs" textLength="40.625" x="98.4375" y="946.9279">[010]</text><text fill="#303030" font-family="Verdana" font-size="12.5" lengthAdjust="spacingAndGlyphs" textLength="51.0417" x="159.8958" y="946.9279">success</text><path d="M1052.0833,981.3232 L1052.0833,1007.3649 A7.8125,7.8125 0 0 0 1059.8958,1015.1774 L1197.3958,1015.1774 A7.8125,7.8125 0 0 0 1205.2083,1007.3649 L1205.2083,983.9274 L1194.7917,973.5107 L1059.8958,973.5107 A7.8125,7.8125 0 0 0 1052.0833,981.3232 " fill="url(#g1fced0dxtzsjd3)" style="stroke: #336699; stroke-width: 1.0416666666666667;"/><path d="M1194.7917,973.5107 L1194.7917,980.0212 A3.9063,3.9063 0 0 0 1198.6979,983.9274 L1205.2083,983.9274 L1194.7917,973.5107 " fill="url(#g1fced0dxtzsjd3)" style="stroke: #336699; stroke-width: 1.0416666666666667;"/><text fill="#FFFFFF" font-family="Verdana" font-size="12.5" lengthAdjust="spacingAndGlyphs" textLength="114.5833" x="1066.6667" y="999.6195">this is a first note</text><line style="stroke: #737373; stroke-width: 1.0416666666666667; stroke-dasharray: 2.0,2.0;" x1="13.5417" x2="1336.4583" y1="1022.0357" y2="1022.0357"/><text fill="#303030" font-family="Verdana" font-size="12.5" font-weight="bold" lengthAdjust="spacingAndGlyphs" textLength="148.9583" x="27.0833" y="1042.9362">[some kind of failure]</text><polygon fill="#EEEEEE" points="1197.9167,1088.8774,1208.3333,1093.044,1197.9167,1097.2107,1202.0833,1093.044" style="stroke: #EEEEEE; stroke-width: 1.0416666666666667;"/><line style="stroke: #EEEEEE; stroke-width: 3.125;" x1="72.3958" x2="1204.1667" y1="1093.044" y2="1093.044"/><text fill="#303030" font-family="Verdana" font-size="12.5" font-weight="bold" lengthAdjust="spacingAndGlyphs" textLength="40.625" x="88.0208" y="1080.0028">[011]</text><text fill="#303030" font-family="Verdana" font-size="12.5" lengthAdjust="spacingAndGlyphs" textLength="142.7083" x="149.4792" y="1080.0028">Authentication Failure</text><polygon fill="#EEEEEE" points="83.8542,1135.319,73.4375,1139.4857,83.8542,1143.6523,79.6875,1139.4857" style="stroke: #EEEEEE; stroke-width: 1.0416666666666667;"/><line style="stroke: #EEEEEE; stroke-width: 3.125; stroke-dasharray: 2.0,2.0;" x1="77.6042" x2="1209.375" y1="1139.4857" y2="1139.4857"/><text fill="#303030" font-family="Verdana" font-size="12.5" font-weight="bold" lengthAdjust="spacingAndGlyphs" textLength="40.625" x="98.4375" y="1126.4445">[012]</text><text fill="#FF3333" font-family="Verdana" font-size="12.5" font-weight="bold" lengthAdjust="spacingAndGlyphs" textLength="82.2917" x="159.8958" y="1126.4445">Bad request</text><path d="M31.7708,1155.1107 L178.125,1155.1107 L178.125,1178.0273 L167.7083,1188.444 L23.9583,1188.444 L23.9583,1162.9232 " fill="#EEEEEE" style="stroke: #737373; stroke-width: 1.0416666666666667;"/><rect fill="none" height="145.1416" rx="7.8125" ry="7.8125" style="stroke: #737373; stroke-width: 2.0833333333333335;" width="1302.0833" x="23.9583" y="1155.1107"/><text fill="#336699" font-family="Verdana" font-size="12.5" font-weight="bold" lengthAdjust="spacingAndGlyphs" textLength="90.625" x="47.9167" y="1177.0528">My own label</text><path d="M42.1875,1196.344 L127.0833,1196.344 L127.0833,1219.2607 L116.6667,1229.6773 L34.375,1229.6773 L34.375,1204.1565 " fill="#EEEEEE" style="stroke: #737373; stroke-width: 1.0416666666666667;"/><rect fill="none" height="96.6166" rx="7.8125" ry="7.8125" style="stroke: #737373; stroke-width: 2.0833333333333335;" width="1281.25" x="34.375" y="1196.344"/><text fill="#336699" font-family="Verdana" font-size="12.5" font-weight="bold" lengthAdjust="spacingAndGlyphs" textLength="29.1667" x="58.3333" y="1218.2861">loop</text><text fill="#303030" font-family="Verdana" font-size="12.5" font-weight="bold" lengthAdjust="spacingAndGlyphs" textLength="91.6667" x="151.0417" y="1219.3278">[1000 times]</text><polygon fill="#EEEEEE" points="83.8542,1280.4606,73.4375,1284.6273,83.8542,1288.7939,79.6875,1284.6273" style="stroke: #EEEEEE; stroke-width: 1.0416666666666667;"/><line style="stroke: #EEEEEE; stroke-width: 3.125;" x1="77.6042" x2="1209.375" y1="1284.6273" y2="1284.6273"/><text fill="#303030" font-family="Verdana" font-size="12.5" font-weight="bold" lengthAdjust="spacingAndGlyphs" textLength="40.625" x="98.4375" y="1271.5861">[013]</text><text fill="#303030" font-family="Verdana" font-size="12.5" lengthAdjust="spacingAndGlyphs" textLength="71.875" x="159.8958" y="1271.5861">DNS Attack</text><line style="stroke: #737373; stroke-width: 1.0416666666666667; stroke-dasharray: 2.0,2.0;" x1="13.5417" x2="1336.4583" y1="1308.5856" y2="1308.5856"/><text fill="#303030" font-family="Verdana" font-size="12.5" font-weight="bold" lengthAdjust="spacingAndGlyphs" textLength="115.625" x="27.0833" y="1329.4861">[Just a Warning]</text><polygon fill="#EEEEEE" points="1197.9167,1375.4272,1208.3333,1379.5939,1197.9167,1383.7606,1202.0833,1379.5939" style="stroke: #EEEEEE; stroke-width: 1.0416666666666667;"/><line style="stroke: #EEEEEE; stroke-width: 3.125;" x1="72.3958" x2="1204.1667" y1="1379.5939" y2="1379.5939"/><text fill="#303030" font-family="Verdana" font-size="12.5" font-weight="bold" lengthAdjust="spacingAndGlyphs" textLength="40.625" x="88.0208" y="1366.5527">[014]</text><text fill="#FFAE42" font-family="Verdana" font-size="12.5" font-weight="bold" lengthAdjust="spacingAndGlyphs" textLength="94.7917" x="149.4792" y="1366.5527">Please repeat</text><path d="M46.875,1408.2397 L46.875,1464.4897 A7.8125,7.8125 0 0 0 54.6875,1472.3022 L274.4792,1472.3022 A7.8125,7.8125 0 0 0 282.2917,1464.4897 L282.2917,1410.8439 L271.875,1400.4272 L54.6875,1400.4272 A7.8125,7.8125 0 0 0 46.875,1408.2397 " fill="url(#g1fced0dxtzsjd3)" style="stroke: #336699; stroke-width: 1.0416666666666667;"/><path d="M271.875,1400.4272 L271.875,1406.9377 A3.9063,3.9063 0 0 0 275.7813,1410.8439 L282.2917,1410.8439 L271.875,1400.4272 " fill="url(#g1fced0dxtzsjd3)" style="stroke: #336699; stroke-width: 1.0416666666666667;"/><text fill="#FFFFFF" font-family="Verdana" font-size="12.5" lengthAdjust="spacingAndGlyphs" textLength="136.4583" x="91.6667" y="1426.5361">this is a second note</text><text fill="#FFFFFF" font-family="Verdana" font-size="12.5" lengthAdjust="spacingAndGlyphs" textLength="81.25" x="91.6667" y="1441.7277">that is really</text><text fill="#FFFFFF" font-family="Verdana" font-size="12.5" lengthAdjust="spacingAndGlyphs" textLength="28.125" x="91.6667" y="1456.9194">long</text><text fill="#888888" font-family="Verdana" font-size="12.5" lengthAdjust="spacingAndGlyphs" textLength="85.4167" x="1261.4583" y="15.6921">Page Header</text><text fill="#888888" font-family="Verdana" font-size="12.5" lengthAdjust="spacingAndGlyphs" textLength="75" x="637.5" y="1606.0527">Page 1 of 1</text><!--MD5=[00c2970557dc94de019c08917116ed11]
@startuml



skinparam backgroundColor transparent







skinparam defaultFontName        "Verdana"
skinparam defaultFontSize        12
skinparam dpi                    100
skinparam shadowing              false
skinparam roundcorner            15
skinparam ParticipantPadding     30
skinparam BoxPadding             30
skinparam Padding                8
skinparam ArrowColor             #737373
skinparam stereotype {
    CBackgroundColor #dedede
    CBorderColor #ababab
    ABackgroundColor #5cad5c
    ABorderColor #297a29
    IBackgroundColor #ff5c5c
    IBorderColor #cc2929
    EBackgroundColor #ffbe68
    EBorderColor #cc8b35
    NBackgroundColor #5c85ad
    NBorderColor #29527a
}
skinparam title {
	FontColor	                 #eeeeee
	BorderColor	                 #ababab
	FontSize	    	         20
	BorderRoundCorner            8
	BorderThickness 	         1
	BackgroundColor              #dedede-#d6d6d6
}


skinparam legend {
	BackgroundColor #d6d6d6
	BorderColor #ababab
	FontColor #ffffff
}


skinparam activity {
		FontColor #336699
	BorderColor #f1f1f1
	BackgroundColor #eeeeee-#bebebe
	BarColor #339933
	StartColor #336699
	EndColor #336699
	DiamondBackgroundColor #d6d6d6-#ababab
  	DiamondBorderColor #ababab
	DiamondFontColor #ffffff
}



skinparam participant {
		FontColor #336699
	BorderColor #f1f1f1
	BackgroundColor #eeeeee-#bebebe
	ParticipantBorderThickness 2
}



skinparam actor {
		FontColor #336699
	BorderColor #f1f1f1
	BackgroundColor #eeeeee-#bebebe
	FontColor #303030
}



skinparam arrow {
	Thickness 3
	Color #eeeeee
	FontColor #303030
}



skinparam sequence {
	BorderColor #eeeeee
	TitleFontColor #eeeeee
	BackgroundColor transparent
	StartColor #eeeeee
	EndColor #eeeeee
	BoxBackgroundColor #ffffff
	BoxBorderColor #737373
	BoxFontColor #303030
	LifeLineBorderColor #ababab
	LifeLineBorderThickness 2
	LifeLineBackgroundColor #dedede
	GroupBorderColor #737373
	GroupFontColor #303030
	GroupHeaderFontColor #336699
	DividerBackgroundColor #FFF-#ffffff
    DividerBorderColor #737373
    DividerBorderThickness 2
    DividerFontColor #303030
	ReferenceBackgroundColor transparent
	ReferenceBorderColor #737373
	ReferenceFontColor #303030
	ReferenceHeaderFontColor #336699
}



skinparam partition {
	BorderColor #eeeeee
	FontColor #bebebe
	BackgroundColor transparent
}



skinparam collections {
		FontColor #336699
	BorderColor #f1f1f1
	BackgroundColor #eeeeee-#bebebe
}



skinparam control {
		FontColor #336699
	BorderColor #f1f1f1
	BackgroundColor #eeeeee-#bebebe
}



skinparam entity {
		FontColor #336699
	BorderColor #f1f1f1
	BackgroundColor #eeeeee-#bebebe
}



skinparam boundary {
		FontColor #336699
	BorderColor #f1f1f1
	BackgroundColor #eeeeee-#bebebe
}



skinparam agent {
	BackgroundColor #orange
	BorderColor #999999
	FontColor #333333
}



skinparam note {
	BorderThickness 1
	BackgroundColor #5c85ad-#336699
	BorderColor #336699
	FontColor #FFF
}



skinparam artifact {
	BackgroundColor #dedede-#ababab
	BorderColor #ababab
	FontColor #ffffff
}



skinparam component {
		FontColor #336699
	BorderColor #f1f1f1
	BackgroundColor #eeeeee-#bebebe
}



skinparam interface {
	BackgroundColor  #ff5c5c
	BorderColor  #ff3333
	FontColor #303030
}



skinparam storage {
	BackgroundColor #ffbe68-#ffae42
  	BorderColor #ffae42
	FontColor #FFF
}



skinparam node {
	BackgroundColor #f1f1f1-#bebebe
	BorderColor #f1f1f1
	FontColor #336699
}



skinparam cloud {
	BackgroundColor #F2FCFE-#eeeeee
	BorderColor #F2FCFE
	FontColor #303030
}



skinparam database {
		FontColor #336699
	BorderColor #f1f1f1
	BackgroundColor #eeeeee-#bebebe
	FontColor #303030
}



skinparam class {
		FontColor #336699
	BorderColor #f1f1f1
	BackgroundColor #eeeeee-#bebebe
	HeaderBackgroundColor #f1f1f1-#bebebe
	StereotypeFontColor #303030
	BorderThickness 1
	AttributeFontColor #303030
	AttributeFontSize 9
}



skinparam object {
		FontColor #336699
	BorderColor #f1f1f1
	BackgroundColor #eeeeee-#bebebe
	StereotypeFontColor #ffffff
	BorderThickness 1
	AttributeFontColor #ffffff
	AttributeFontSize 11
}



skinparam usecase {
		FontColor #336699
	BorderColor #f1f1f1
	BackgroundColor #eeeeee-#bebebe
	BorderThickness 2
	StereotypeFontColor #eeeeee
}



skinparam rectangle {
		FontColor #336699
	BorderColor #f1f1f1
	BackgroundColor #eeeeee-#bebebe
	BackgroundColor #f1f1f1
	BorderThickness 2
	StereotypeFontColor #eeeeee
}



skinparam package {
		FontColor #336699
	BorderColor #f1f1f1
	BackgroundColor #eeeeee-#bebebe
	BorderThickness 2
}



skinparam folder {
	BackgroundColor #eeeeee-#bebebe
  	BorderColor #ffae42
	FontColor #ffae42
	BorderThickness 2
}



skinparam frame {
	BackgroundColor #eeeeee-#bebebe
  	BorderColor #336699
	FontColor #336699
	BorderThickness 2
}



skinparam state {
		FontColor #336699
	BorderColor #f1f1f1
	BackgroundColor #eeeeee-#bebebe
	StartColor #336699
	EndColor #336699
	AttributeFontColor #ffffff
	AttributeFontSize 11
}



skinparam queue {
		FontColor #336699
	BorderColor #f1f1f1
	BackgroundColor #eeeeee-#bebebe
}



skinparam card {
	BackgroundColor #5c85ad-#336699
	BorderColor #336699
	FontColor #FFF
}



skinparam file {
	BackgroundColor #dedede-#d6d6d6
	BorderColor #ffffff
	FontColor #ffffff

}



skinparam stack {
		FontColor #336699
	BorderColor #f1f1f1
	BackgroundColor #eeeeee-#bebebe
}


title Sequence Diagram - silver theme


autonumber "<b>[000]"

header Page Header
footer Page %page% of %lastpage%

actor Foo1
boundary Foo2
control Foo3
entity Foo4
database Foo5
collections Foo6
participant Bob
participant Alice << (C,#ADD1B2) Testable >>

box "Internal Service"
	participant Bob
	participant Alice
end box

== Initialization ==
Foo1 -> Foo2 : To boundary
|||
Foo2 -> Foo3 ++: To control
ref over Foo4, Foo5
  This can be on
  several lines
end ref
Foo3 -> Foo4 : To entity

Foo4 -> Foo5 : To database
Foo5 - -> Foo3 - - : return
Foo3 - -> Foo2 - -: return
... Some ~~long delay~~ ...
Foo1 -> Foo6 : To collections
Foo6 - -> Foo4:   <font color=#339933><b>success


alt successful case

Foo1 -> Alice: Authentication Accepted
Alice - -> Foo1: success

note left of Alice: this is a first note

else some kind of failure

	Foo1 -> Alice: Authentication Failure
    Alice - -> Foo1:   <font color=#ff3333><b>Bad request
	group My own label
	    loop 1000 times
	        Alice -> Foo1: DNS Attack
	    end
	end
	
else Just a Warning

   Foo1 -> Alice:   <font color=#ffae42><b>Please repeat
   
end

note over Foo1, Foo2
this is a second note
that is really
long
end note

@enduml

PlantUML version 1.2020.08(Sun Apr 26 07:08:22 PDT 2020)
(GPL source distribution)
Java Runtime: OpenJDK Runtime Environment
JVM: OpenJDK 64-Bit Server VM
Java Version: 11.0.8+10-post-Ubuntu-0ubuntu118.04.1
Operating System: Linux
Default Encoding: UTF-8
Language: en
Country: US
--></g></svg>