<?xml version="1.0" encoding="UTF-8" standalone="no"?><svg xmlns="http://www.w3.org/2000/svg" xmlns:xlink="http://www.w3.org/1999/xlink" contentScriptType="application/ecmascript" contentStyleType="text/css" height="1609.375px" preserveAspectRatio="none" style="width:1359px;height:1609px;" version="1.1" viewBox="0 0 1359 1609" width="1359.375px" zoomAndPan="magnify"><defs><linearGradient id="g3gsfpry58pht0" x1="50%" x2="50%" y1="0%" y2="100%"><stop offset="0%" stop-color="#DEDEDE"/><stop offset="100%" stop-color="#D6D6D6"/></linearGradient><linearGradient id="g3gsfpry58pht1" x1="50%" x2="50%" y1="0%" y2="100%"><stop offset="0%" stop-color="#EEEEEE"/><stop offset="100%" stop-color="#BEBEBE"/></linearGradient><linearGradient id="g3gsfpry58pht2" x1="50%" x2="50%" y1="0%" y2="100%"><stop offset="0%" stop-color="#FFFFFF"/><stop offset="100%" stop-color="#FFFFFF"/></linearGradient><linearGradient id="g3gsfpry58pht3" x1="50%" x2="50%" y1="0%" y2="100%"><stop offset="0%" stop-color="#5C85AD"/><stop offset="100%" stop-color="#336699"/></linearGradient></defs><g><rect fill="url(#g3gsfpry58pht0)" height="42.275" rx="4.1667" ry="4.1667" style="stroke: #ABABAB; stroke-width: 1.0416666666666667;" width="262.5" x="543.2292" y="30.8167"/><text fill="#EEEEEE" font-family="Verdana" font-size="12.5" font-weight="bold" lengthAdjust="spacingAndGlyphs" textLength="229.1667" x="559.8958" y="56.9255">Sequence Diagram - silver theme</text><rect fill="#FFFFFF" height="1494.6411" rx="7.8125" ry="7.8125" style="stroke: #737373; stroke-width: 1.0416666666666667;" width="327.0833" x="982.2917" y="84.55"/><text fill="#303030" font-family="Verdana" font-size="12.5" font-weight="bold" lengthAdjust="spacingAndGlyphs" textLength="111.4583" x="1090.1042" y="105.4504">Internal Service</text><rect fill="#DEDEDE" height="280.2999" style="stroke: #ABABAB; stroke-width: 1.0416666666666667;" width="10.4167" x="420.3125" y="365.2832"/><line style="stroke: #ABABAB; stroke-width: 1.0416666666666667;" x1="71.875" x2="71.875" y1="183.2499" y2="653.9164"/><line style="stroke: #ABABAB; stroke-width: 1.0416666666666667; stroke-dasharray: 1.0,4.0;" x1="71.875" x2="71.875" y1="653.9164" y2="714.9414"/><line style="stroke: #ABABAB; stroke-width: 1.0416666666666667;" x1="71.875" x2="71.875" y1="714.9414" y2="1478.5828"/><line style="stroke: #ABABAB; stroke-width: 1.0416666666666667;" x1="257.2917" x2="257.2917" y1="183.2499" y2="653.9164"/><line style="stroke: #ABABAB; stroke-width: 1.0416666666666667; stroke-dasharray: 1.0,4.0;" x1="257.2917" x2="257.2917" y1="653.9164" y2="714.9414"/><line style="stroke: #ABABAB; stroke-width: 1.0416666666666667;" x1="257.2917" x2="257.2917" y1="714.9414" y2="1478.5828"/><line style="stroke: #ABABAB; stroke-width: 1.0416666666666667;" x1="425" x2="425" y1="183.2499" y2="653.9164"/><line style="stroke: #ABABAB; stroke-width: 1.0416666666666667; stroke-dasharray: 1.0,4.0;" x1="425" x2="425" y1="653.9164" y2="714.9414"/><line style="stroke: #ABABAB; stroke-width: 1.0416666666666667;" x1="425" x2="425" y1="714.9414" y2="1478.5828"/><line style="stroke: #ABABAB; stroke-width: 1.0416666666666667;" x1="590.625" x2="590.625" y1="183.2499" y2="653.9164"/><line style="stroke: #ABABAB; stroke-width: 1.0416666666666667; stroke-dasharray: 1.0,4.0;" x1="590.625" x2="590.625" y1="653.9164" y2="714.9414"/><line style="stroke: #ABABAB; stroke-width: 1.0416666666666667;" x1="590.625" x2="590.625" y1="714.9414" y2="1478.5828"/><line style="stroke: #ABABAB; stroke-width: 1.0416666666666667;" x1="776.0417" x2="776.0417" y1="183.2499" y2="653.9164"/><line style="stroke: #ABABAB; stroke-width: 1.0416666666666667; stroke-dasharray: 1.0,4.0;" x1="776.0417" x2="776.0417" y1="653.9164" y2="714.9414"/><line style="stroke: #ABABAB; stroke-width: 1.0416666666666667;" x1="776.0417" x2="776.0417" y1="714.9414" y2="1478.5828"/><line style="stroke: #ABABAB; stroke-width: 1.0416666666666667;" x1="879.1667" x2="879.1667" y1="183.2499" y2="653.9164"/><line style="stroke: #ABABAB; stroke-width: 1.0416666666666667; stroke-dasharray: 1.0,4.0;" x1="879.1667" x2="879.1667" y1="653.9164" y2="714.9414"/><line style="stroke: #ABABAB; stroke-width: 1.0416666666666667;" x1="879.1667" x2="879.1667" y1="714.9414" y2="1478.5828"/><line style="stroke: #ABABAB; stroke-width: 1.0416666666666667;" x1="1045.8333" x2="1045.8333" y1="183.2499" y2="653.9164"/><line style="stroke: #ABABAB; stroke-width: 1.0416666666666667; stroke-dasharray: 1.0,4.0;" x1="1045.8333" x2="1045.8333" y1="653.9164" y2="714.9414"/><line style="stroke: #ABABAB; stroke-width: 1.0416666666666667;" x1="1045.8333" x2="1045.8333" y1="714.9414" y2="1478.5828"/><line style="stroke: #ABABAB; stroke-width: 1.0416666666666667;" x1="1210.4167" x2="1210.4167" y1="183.2499" y2="653.9164"/><line style="stroke: #ABABAB; stroke-width: 1.0416666666666667; stroke-dasharray: 1.0,4.0;" x1="1210.4167" x2="1210.4167" y1="653.9164" y2="714.9414"/><line style="stroke: #ABABAB; stroke-width: 1.0416666666666667;" x1="1210.4167" x2="1210.4167" y1="714.9414" y2="1478.5828"/><text fill="#303030" font-family="Verdana" font-size="12.5" lengthAdjust="spacingAndGlyphs" textLength="32.2917" x="53.125" y="172.2921">Foo1</text><ellipse cx="72.3958" cy="96.1833" fill="url(#g3gsfpry58pht1)" rx="8.3333" ry="8.3333" style="stroke: #F1F1F1; stroke-width: 2.0833333333333335;"/><path d="M72.3958,104.5166 L72.3958,132.6416 M58.8542,112.8499 L85.9375,112.8499 M72.3958,132.6416 L58.8542,148.2666 M72.3958,132.6416 L85.9375,148.2666 " fill="none" style="stroke: #F1F1F1; stroke-width: 2.0833333333333335;"/><text fill="#303030" font-family="Verdana" font-size="12.5" lengthAdjust="spacingAndGlyphs" textLength="32.2917" x="53.125" y="1498.4416">Foo1</text><ellipse cx="72.3958" cy="1519.8161" fill="url(#g3gsfpry58pht1)" rx="8.3333" ry="8.3333" style="stroke: #F1F1F1; stroke-width: 2.0833333333333335;"/><path d="M72.3958,1528.1494 L72.3958,1556.2744 M58.8542,1536.4827 L85.9375,1536.4827 M72.3958,1556.2744 L58.8542,1571.8994 M72.3958,1556.2744 L85.9375,1571.8994 " fill="none" style="stroke: #F1F1F1; stroke-width: 2.0833333333333335;"/><text fill="#336699" font-family="Verdana" font-size="12.5" lengthAdjust="spacingAndGlyphs" textLength="32.2917" x="238.5417" y="172.2921">Foo2</text><path d="M236.4583,122.2249 L236.4583,147.2249 M236.4583,134.7249 L254.1667,134.7249 " fill="none" style="stroke: #F1F1F1; stroke-width: 2.0833333333333335;"/><ellipse cx="266.6667" cy="134.7249" fill="url(#g3gsfpry58pht1)" rx="12.5" ry="12.5" style="stroke: #F1F1F1; stroke-width: 2.0833333333333335;"/><text fill="#336699" font-family="Verdana" font-size="12.5" lengthAdjust="spacingAndGlyphs" textLength="32.2917" x="238.5417" y="1498.4416">Foo2</text><path d="M236.4583,1513.5661 L236.4583,1538.5661 M236.4583,1526.0661 L254.1667,1526.0661 " fill="none" style="stroke: #F1F1F1; stroke-width: 2.0833333333333335;"/><ellipse cx="266.6667" cy="1526.0661" fill="url(#g3gsfpry58pht1)" rx="12.5" ry="12.5" style="stroke: #F1F1F1; stroke-width: 2.0833333333333335;"/><text fill="#336699" font-family="Verdana" font-size="12.5" lengthAdjust="spacingAndGlyphs" textLength="32.2917" x="406.25" y="172.2921">Foo3</text><ellipse cx="425.5208" cy="134.7249" fill="url(#g3gsfpry58pht1)" rx="12.5" ry="12.5" style="stroke: #F1F1F1; stroke-width: 2.0833333333333335;"/><polygon fill="#F1F1F1" points="421.3542,122.2249,427.6042,117.0166,425.5208,122.2249,427.6042,127.4333,421.3542,122.2249" style="stroke: #F1F1F1; stroke-width: 1.0416666666666667;"/><text fill="#336699" font-family="Verdana" font-size="12.5" lengthAdjust="spacingAndGlyphs" textLength="32.2917" x="406.25" y="1498.4416">Foo3</text><ellipse cx="425.5208" cy="1526.0661" fill="url(#g3gsfpry58pht1)" rx="12.5" ry="12.5" style="stroke: #F1F1F1; stroke-width: 2.0833333333333335;"/><polygon fill="#F1F1F1" points="421.3542,1513.5661,427.6042,1508.3577,425.5208,1513.5661,427.6042,1518.7744,421.3542,1513.5661" style="stroke: #F1F1F1; stroke-width: 1.0416666666666667;"/><text fill="#336699" font-family="Verdana" font-size="12.5" lengthAdjust="spacingAndGlyphs" textLength="32.2917" x="571.875" y="172.2921">Foo4</text><ellipse cx="591.1458" cy="134.7249" fill="url(#g3gsfpry58pht1)" rx="12.5" ry="12.5" style="stroke: #F1F1F1; stroke-width: 2.0833333333333335;"/><line style="stroke: #F1F1F1; stroke-width: 2.0833333333333335;" x1="578.6458" x2="603.6458" y1="149.3083" y2="149.3083"/><text fill="#336699" font-family="Verdana" font-size="12.5" lengthAdjust="spacingAndGlyphs" textLength="32.2917" x="571.875" y="1498.4416">Foo4</text><ellipse cx="591.1458" cy="1526.0661" fill="url(#g3gsfpry58pht1)" rx="12.5" ry="12.5" style="stroke: #F1F1F1; stroke-width: 2.0833333333333335;"/><line style="stroke: #F1F1F1; stroke-width: 2.0833333333333335;" x1="578.6458" x2="603.6458" y1="1540.6494" y2="1540.6494"/><text fill="#303030" font-family="Verdana" font-size="12.5" lengthAdjust="spacingAndGlyphs" textLength="32.2917" x="757.2917" y="172.2921">Foo5</text><path d="M757.8125,113.8916 C757.8125,103.4749 776.5625,103.4749 776.5625,103.4749 C776.5625,103.4749 795.3125,103.4749 795.3125,113.8916 L795.3125,140.9749 C795.3125,151.3916 776.5625,151.3916 776.5625,151.3916 C776.5625,151.3916 757.8125,151.3916 757.8125,140.9749 L757.8125,113.8916 " fill="url(#g3gsfpry58pht1)" style="stroke: #F1F1F1; stroke-width: 1.5625;"/><path d="M757.8125,113.8916 C757.8125,124.3083 776.5625,124.3083 776.5625,124.3083 C776.5625,124.3083 795.3125,124.3083 795.3125,113.8916 " fill="none" style="stroke: #F1F1F1; stroke-width: 1.5625;"/><text fill="#303030" font-family="Verdana" font-size="12.5" lengthAdjust="spacingAndGlyphs" textLength="32.2917" x="757.2917" y="1498.4416">Foo5</text><path d="M757.8125,1519.8161 C757.8125,1509.3994 776.5625,1509.3994 776.5625,1509.3994 C776.5625,1509.3994 795.3125,1509.3994 795.3125,1519.8161 L795.3125,1546.8994 C795.3125,1557.3161 776.5625,1557.3161 776.5625,1557.3161 C776.5625,1557.3161 757.8125,1557.3161 757.8125,1546.8994 L757.8125,1519.8161 " fill="url(#g3gsfpry58pht1)" style="stroke: #F1F1F1; stroke-width: 1.5625;"/><path d="M757.8125,1519.8161 C757.8125,1530.2327 776.5625,1530.2327 776.5625,1530.2327 C776.5625,1530.2327 795.3125,1530.2327 795.3125,1519.8161 " fill="none" style="stroke: #F1F1F1; stroke-width: 1.5625;"/><rect fill="url(#g3gsfpry58pht1)" height="46.4417" rx="7.8125" ry="7.8125" style="stroke: #F1F1F1; stroke-width: 1.5625;" width="63.5417" x="850" y="131.5999"/><rect fill="url(#g3gsfpry58pht1)" height="46.4417" rx="7.8125" ry="7.8125" style="stroke: #F1F1F1; stroke-width: 1.5625;" width="63.5417" x="845.8333" y="135.7666"/><text fill="#336699" font-family="Verdana" font-size="12.5" lengthAdjust="spacingAndGlyphs" textLength="32.2917" x="861.4583" y="163.9587">Foo6</text><rect fill="url(#g3gsfpry58pht1)" height="46.4417" rx="7.8125" ry="7.8125" style="stroke: #F1F1F1; stroke-width: 1.5625;" width="63.5417" x="850" y="1477.5411"/><rect fill="url(#g3gsfpry58pht1)" height="46.4417" rx="7.8125" ry="7.8125" style="stroke: #F1F1F1; stroke-width: 1.5625;" width="63.5417" x="845.8333" y="1481.7078"/><text fill="#336699" font-family="Verdana" font-size="12.5" lengthAdjust="spacingAndGlyphs" textLength="32.2917" x="861.4583" y="1509.8999">Foo6</text><rect fill="url(#g3gsfpry58pht1)" height="46.4417" rx="7.8125" ry="7.8125" style="stroke: #F1F1F1; stroke-width: 1.5625;" width="56.25" x="1017.7083" y="135.7666"/><text fill="#336699" font-family="Verdana" font-size="12.5" lengthAdjust="spacingAndGlyphs" textLength="25" x="1033.3333" y="163.9587">Bob</text><rect fill="url(#g3gsfpry58pht1)" height="46.4417" rx="7.8125" ry="7.8125" style="stroke: #F1F1F1; stroke-width: 1.5625;" width="56.25" x="1017.7083" y="1477.5411"/><text fill="#336699" font-family="Verdana" font-size="12.5" lengthAdjust="spacingAndGlyphs" textLength="25" x="1033.3333" y="1505.7332">Bob</text><rect fill="url(#g3gsfpry58pht1)" height="61.6333" rx="7.8125" ry="7.8125" style="stroke: #F1F1F1; stroke-width: 1.5625;" width="127.0833" x="1146.875" y="120.575"/><ellipse cx="1164.5833" cy="138.2833" fill="#ADD1B2" rx="10.4167" ry="10.4167" style="stroke: #F1F1F1; stroke-width: 1.0416666666666667;"/><path d="M1166.4876,142.7104 Q1166.0645,142.922 1165.5924,143.0359 Q1165.1204,143.1498 1164.6159,143.1498 Q1162.7604,143.1498 1161.7839,141.9454 Q1160.8236,140.7247 1160.8236,138.4298 Q1160.8236,136.1186 1161.7839,134.9141 Q1162.7604,133.6934 1164.6159,133.6934 Q1165.1204,133.6934 1165.5924,133.8074 Q1166.0807,133.905 1166.4876,134.1329 L1166.4876,136.1348 Q1166.0319,135.7117 1165.5924,135.5164 Q1165.153,135.3048 1164.6973,135.3048 Q1163.7044,135.3048 1163.1999,136.1023 Q1162.6953,136.8835 1162.6953,138.4298 Q1162.6953,139.9597 1163.1999,140.741 Q1163.7044,141.5222 1164.6973,141.5222 Q1165.153,141.5222 1165.5924,141.3269 Q1166.0319,141.1316 1166.4876,140.7084 L1166.4876,142.7104 Z "/><text fill="#000000" font-family="Verdana" font-size="12.5" font-style="italic" lengthAdjust="spacingAndGlyphs" textLength="68.75" x="1189.5833" y="148.7671">«Testable»</text><text fill="#336699" font-family="Verdana" font-size="12.5" lengthAdjust="spacingAndGlyphs" textLength="29.1667" x="1209.375" y="163.9587">Alice</text><rect fill="url(#g3gsfpry58pht1)" height="61.6333" rx="7.8125" ry="7.8125" style="stroke: #F1F1F1; stroke-width: 1.5625;" width="127.0833" x="1146.875" y="1477.5411"/><ellipse cx="1164.5833" cy="1495.2494" fill="#ADD1B2" rx="10.4167" ry="10.4167" style="stroke: #F1F1F1; stroke-width: 1.0416666666666667;"/><path d="M1166.4876,1499.6765 Q1166.0645,1499.8881 1165.5924,1500.002 Q1165.1204,1500.116 1164.6159,1500.116 Q1162.7604,1500.116 1161.7839,1498.9115 Q1160.8236,1497.6908 1160.8236,1495.3959 Q1160.8236,1493.0847 1161.7839,1491.8803 Q1162.7604,1490.6596 1164.6159,1490.6596 Q1165.1204,1490.6596 1165.5924,1490.7735 Q1166.0807,1490.8712 1166.4876,1491.099 L1166.4876,1493.101 Q1166.0319,1492.6778 1165.5924,1492.4825 Q1165.153,1492.2709 1164.6973,1492.2709 Q1163.7044,1492.2709 1163.1999,1493.0684 Q1162.6953,1493.8497 1162.6953,1495.3959 Q1162.6953,1496.9259 1163.1999,1497.7071 Q1163.7044,1498.4884 1164.6973,1498.4884 Q1165.153,1498.4884 1165.5924,1498.2931 Q1166.0319,1498.0977 1166.4876,1497.6746 L1166.4876,1499.6765 Z "/><text fill="#000000" font-family="Verdana" font-size="12.5" font-style="italic" lengthAdjust="spacingAndGlyphs" textLength="68.75" x="1189.5833" y="1505.7332">«Testable»</text><text fill="#336699" font-family="Verdana" font-size="12.5" lengthAdjust="spacingAndGlyphs" textLength="29.1667" x="1209.375" y="1520.9249">Alice</text><rect fill="#DEDEDE" height="280.2999" style="stroke: #ABABAB; stroke-width: 1.0416666666666667;" width="10.4167" x="420.3125" y="365.2832"/><rect fill="url(#g3gsfpry58pht2)" height="3.125" style="stroke: url(#g3gsfpry58pht2); stroke-width: 1.0416666666666667;" width="1343.75" x="3.125" y="223.1374"/><line style="stroke: #737373; stroke-width: 1.0416666666666667;" x1="3.125" x2="1346.875" y1="223.1374" y2="223.1374"/><line style="stroke: #737373; stroke-width: 1.0416666666666667;" x1="3.125" x2="1346.875" y1="226.2624" y2="226.2624"/><rect fill="url(#g3gsfpry58pht2)" height="40.1917" style="stroke: #737373; stroke-width: 2.0833333333333335;" width="121.875" x="614.0625" y="204.0833"/><text fill="#303030" font-family="Verdana" font-size="12.5" font-weight="bold" lengthAdjust="spacingAndGlyphs" textLength="86.4583" x="628.6458" y="229.1504">Initialization</text><polygon fill="#EEEEEE" points="245.3125,288.6332,255.7292,292.7999,245.3125,296.9666,249.4792,292.7999" style="stroke: #EEEEEE; stroke-width: 1.0416666666666667;"/><line style="stroke: #EEEEEE; stroke-width: 3.125;" x1="72.3958" x2="251.5625" y1="292.7999" y2="292.7999"/><text fill="#303030" font-family="Verdana" font-size="12.5" font-weight="bold" lengthAdjust="spacingAndGlyphs" textLength="40.625" x="88.0208" y="279.7587">[001]</text><text fill="#303030" font-family="Verdana" font-size="12.5" lengthAdjust="spacingAndGlyphs" textLength="82.2917" x="149.4792" y="279.7587">To boundary</text><polygon fill="#EEEEEE" points="407.8125,361.1165,418.2292,365.2832,407.8125,369.4499,411.9792,365.2832" style="stroke: #EEEEEE; stroke-width: 1.0416666666666667;"/><line style="stroke: #EEEEEE; stroke-width: 3.125;" x1="257.8125" x2="414.0625" y1="365.2832" y2="365.2832"/><text fill="#303030" font-family="Verdana" font-size="12.5" font-weight="bold" lengthAdjust="spacingAndGlyphs" textLength="40.625" x="273.4375" y="352.242">[002]</text><text fill="#303030" font-family="Verdana" font-size="12.5" lengthAdjust="spacingAndGlyphs" textLength="64.5833" x="334.8958" y="352.242">To control</text><rect fill="#FFFFFF" height="89.325" style="stroke: #737373; stroke-width: 2.0833333333333335;" width="246.875" x="560.4167" y="373.6165"/><polygon fill="#EEEEEE" points="560.4167,373.6165,643.75,373.6165,643.75,396.5332,633.3333,406.9499,560.4167,406.9499,560.4167,373.6165" style="stroke: #737373; stroke-width: 2.0833333333333335;"/><text fill="#336699" font-family="Verdana" font-size="12.5" font-weight="bold" lengthAdjust="spacingAndGlyphs" textLength="19.7917" x="582.2917" y="396.6003">ref</text><text fill="#303030" font-family="Verdana" font-size="12.5" lengthAdjust="spacingAndGlyphs" textLength="94.7917" x="636.4583" y="432.017">This can be on</text><text fill="#303030" font-family="Verdana" font-size="12.5" lengthAdjust="spacingAndGlyphs" textLength="82.2917" x="636.4583" y="447.2087">several lines</text><polygon fill="#EEEEEE" points="578.6458,502.0915,589.0625,506.2581,578.6458,510.4248,582.8125,506.2581" style="stroke: #EEEEEE; stroke-width: 1.0416666666666667;"/><line style="stroke: #EEEEEE; stroke-width: 3.125;" x1="430.7292" x2="584.8958" y1="506.2581" y2="506.2581"/><text fill="#303030" font-family="Verdana" font-size="12.5" font-weight="bold" lengthAdjust="spacingAndGlyphs" textLength="40.625" x="446.3542" y="493.217">[003]</text><text fill="#303030" font-family="Verdana" font-size="12.5" lengthAdjust="spacingAndGlyphs" textLength="57.2917" x="507.8125" y="493.217">To entity</text><polygon fill="#EEEEEE" points="764.0625,548.5331,774.4792,552.6998,764.0625,556.8665,768.2292,552.6998" style="stroke: #EEEEEE; stroke-width: 1.0416666666666667;"/><line style="stroke: #EEEEEE; stroke-width: 3.125;" x1="591.1458" x2="770.3125" y1="552.6998" y2="552.6998"/><text fill="#303030" font-family="Verdana" font-size="12.5" font-weight="bold" lengthAdjust="spacingAndGlyphs" textLength="40.625" x="606.7708" y="539.6586">[004]</text><text fill="#303030" font-family="Verdana" font-size="12.5" lengthAdjust="spacingAndGlyphs" textLength="82.2917" x="668.2292" y="539.6586">To database</text><polygon fill="#EEEEEE" points="442.1875,594.9748,431.7708,599.1414,442.1875,603.3081,438.0208,599.1414" style="stroke: #EEEEEE; stroke-width: 1.0416666666666667;"/><line style="stroke: #EEEEEE; stroke-width: 3.125; stroke-dasharray: 2.0,2.0;" x1="435.9375" x2="775.5208" y1="599.1414" y2="599.1414"/><text fill="#303030" font-family="Verdana" font-size="12.5" font-weight="bold" lengthAdjust="spacingAndGlyphs" textLength="40.625" x="456.7708" y="586.1003">[005]</text><text fill="#303030" font-family="Verdana" font-size="12.5" lengthAdjust="spacingAndGlyphs" textLength="40.625" x="518.2292" y="586.1003">return</text><polygon fill="#EEEEEE" points="269.2708,641.4164,258.8542,645.5831,269.2708,649.7498,265.1042,645.5831" style="stroke: #EEEEEE; stroke-width: 1.0416666666666667;"/><line style="stroke: #EEEEEE; stroke-width: 3.125; stroke-dasharray: 2.0,2.0;" x1="263.0208" x2="424.4792" y1="645.5831" y2="645.5831"/><text fill="#303030" font-family="Verdana" font-size="12.5" font-weight="bold" lengthAdjust="spacingAndGlyphs" textLength="40.625" x="283.8542" y="632.5419">[006]</text><text fill="#303030" font-family="Verdana" font-size="12.5" lengthAdjust="spacingAndGlyphs" textLength="40.625" x="345.3125" y="632.5419">return</text><text fill="#000000" font-family="Verdana" font-size="12.5" lengthAdjust="spacingAndGlyphs" textLength="36.4583" x="587.2396" y="689.4002">Some</text><text fill="#000000" font-family="Verdana" font-size="12.5" lengthAdjust="spacingAndGlyphs" textLength="67.7083" x="627.8646" y="689.4002">long delay</text><text fill="#000000" font-family="Verdana" font-size="12.5" lengthAdjust="spacingAndGlyphs" textLength="0" x="699.7396" y="689.4002"/><polygon fill="#EEEEEE" points="867.1875,748.8831,877.6042,753.0497,867.1875,757.2164,871.3542,753.0497" style="stroke: #EEEEEE; stroke-width: 1.0416666666666667;"/><line style="stroke: #EEEEEE; stroke-width: 3.125;" x1="72.3958" x2="873.4375" y1="753.0497" y2="753.0497"/><text fill="#303030" font-family="Verdana" font-size="12.5" font-weight="bold" lengthAdjust="spacingAndGlyphs" textLength="40.625" x="88.0208" y="740.0085">[007]</text><text fill="#303030" font-family="Verdana" font-size="12.5" lengthAdjust="spacingAndGlyphs" textLength="87.5" x="149.4792" y="740.0085">To collections</text><polygon fill="#EEEEEE" points="602.6042,795.3247,592.1875,799.4914,602.6042,803.658,598.4375,799.4914" style="stroke: #EEEEEE; stroke-width: 1.0416666666666667;"/><line style="stroke: #EEEEEE; stroke-width: 3.125; stroke-dasharray: 2.0,2.0;" x1="596.3542" x2="878.6458" y1="799.4914" y2="799.4914"/><text fill="#303030" font-family="Verdana" font-size="12.5" font-weight="bold" lengthAdjust="spacingAndGlyphs" textLength="40.625" x="617.1875" y="786.4502">[008]</text><text fill="#339933" font-family="Verdana" font-size="12.5" font-weight="bold" lengthAdjust="spacingAndGlyphs" textLength="53.125" x="678.6458" y="786.4502">success</text><path d="M21.3542,815.1164 L94.7917,815.1164 L94.7917,838.033 L84.375,848.4497 L13.5417,848.4497 L13.5417,822.9289 " fill="#EEEEEE" style="stroke: #737373; stroke-width: 1.0416666666666667;"/><rect fill="none" height="562.6831" rx="7.8125" ry="7.8125" style="stroke: #737373; stroke-width: 2.0833333333333335;" width="1322.9167" x="13.5417" y="815.1164"/><text fill="#336699" font-family="Verdana" font-size="12.5" font-weight="bold" lengthAdjust="spacingAndGlyphs" textLength="17.7083" x="37.5" y="837.0585">alt</text><text fill="#303030" font-family="Verdana" font-size="12.5" font-weight="bold" lengthAdjust="spacingAndGlyphs" textLength="118.75" x="118.75" y="838.1002">[successful case]</text><polygon fill="#EEEEEE" points="1197.9167,899.233,1208.3333,903.3997,1197.9167,907.5663,1202.0833,903.3997" style="stroke: #EEEEEE; stroke-width: 1.0416666666666667;"/><line style="stroke: #EEEEEE; stroke-width: 3.125;" x1="72.3958" x2="1204.1667" y1="903.3997" y2="903.3997"/><text fill="#303030" font-family="Verdana" font-size="12.5" font-weight="bold" lengthAdjust="spacingAndGlyphs" textLength="40.625" x="88.0208" y="890.3585">[009]</text><text fill="#303030" font-family="Verdana" font-size="12.5" lengthAdjust="spacingAndGlyphs" textLength="158.3333" x="149.4792" y="890.3585">Authentication Accepted</text><polygon fill="#EEEEEE" points="83.8542,945.6746,73.4375,949.8413,83.8542,954.008,79.6875,949.8413" style="stroke: #EEEEEE; stroke-width: 1.0416666666666667;"/><line style="stroke: #EEEEEE; stroke-width: 3.125; stroke-dasharray: 2.0,2.0;" x1="77.6042" x2="1209.375" y1="949.8413" y2="949.8413"/><text fill="#303030" font-family="Verdana" font-size="12.5" font-weight="bold" lengthAdjust="spacingAndGlyphs" textLength="40.625" x="98.4375" y="936.8001">[010]</text><text fill="#303030" font-family="Verdana" font-size="12.5" lengthAdjust="spacingAndGlyphs" textLength="51.0417" x="159.8958" y="936.8001">success</text><path d="M1052.0833,971.1955 L1052.0833,997.2371 A7.8125,7.8125 0 0 0 1059.8958,1005.0496 L1197.3958,1005.0496 A7.8125,7.8125 0 0 0 1205.2083,997.2371 L1205.2083,973.7996 L1194.7917,963.383 L1059.8958,963.383 A7.8125,7.8125 0 0 0 1052.0833,971.1955 " fill="url(#g3gsfpry58pht3)" style="stroke: #336699; stroke-width: 1.0416666666666667;"/><path d="M1194.7917,963.383 L1194.7917,969.8934 A3.9063,3.9063 0 0 0 1198.6979,973.7996 L1205.2083,973.7996 L1194.7917,963.383 " fill="url(#g3gsfpry58pht3)" style="stroke: #336699; stroke-width: 1.0416666666666667;"/><text fill="#FFFFFF" font-family="Verdana" font-size="12.5" lengthAdjust="spacingAndGlyphs" textLength="114.5833" x="1066.6667" y="989.4918">this is a first note</text><line style="stroke: #737373; stroke-width: 1.0416666666666667; stroke-dasharray: 2.0,2.0;" x1="13.5417" x2="1336.4583" y1="1011.908" y2="1011.908"/><text fill="#303030" font-family="Verdana" font-size="12.5" font-weight="bold" lengthAdjust="spacingAndGlyphs" textLength="148.9583" x="27.0833" y="1032.8084">[some kind of failure]</text><polygon fill="#EEEEEE" points="1197.9167,1078.7496,1208.3333,1082.9163,1197.9167,1087.0829,1202.0833,1082.9163" style="stroke: #EEEEEE; stroke-width: 1.0416666666666667;"/><line style="stroke: #EEEEEE; stroke-width: 3.125;" x1="72.3958" x2="1204.1667" y1="1082.9163" y2="1082.9163"/><text fill="#303030" font-family="Verdana" font-size="12.5" font-weight="bold" lengthAdjust="spacingAndGlyphs" textLength="40.625" x="88.0208" y="1069.8751">[011]</text><text fill="#303030" font-family="Verdana" font-size="12.5" lengthAdjust="spacingAndGlyphs" textLength="142.7083" x="149.4792" y="1069.8751">Authentication Failure</text><polygon fill="#EEEEEE" points="83.8542,1125.1912,73.4375,1129.3579,83.8542,1133.5246,79.6875,1129.3579" style="stroke: #EEEEEE; stroke-width: 1.0416666666666667;"/><line style="stroke: #EEEEEE; stroke-width: 3.125; stroke-dasharray: 2.0,2.0;" x1="77.6042" x2="1209.375" y1="1129.3579" y2="1129.3579"/><text fill="#303030" font-family="Verdana" font-size="12.5" font-weight="bold" lengthAdjust="spacingAndGlyphs" textLength="40.625" x="98.4375" y="1116.3167">[012]</text><text fill="#FF3333" font-family="Verdana" font-size="12.5" font-weight="bold" lengthAdjust="spacingAndGlyphs" textLength="82.2917" x="159.8958" y="1116.3167">Bad request</text><path d="M31.7708,1144.9829 L178.125,1144.9829 L178.125,1167.8996 L167.7083,1178.3162 L23.9583,1178.3162 L23.9583,1152.7954 " fill="#EEEEEE" style="stroke: #737373; stroke-width: 1.0416666666666667;"/><rect fill="none" height="145.1416" rx="7.8125" ry="7.8125" style="stroke: #737373; stroke-width: 2.0833333333333335;" width="1302.0833" x="23.9583" y="1144.9829"/><text fill="#336699" font-family="Verdana" font-size="12.5" font-weight="bold" lengthAdjust="spacingAndGlyphs" textLength="90.625" x="47.9167" y="1166.925">My own label</text><path d="M42.1875,1186.2162 L127.0833,1186.2162 L127.0833,1209.1329 L116.6667,1219.5496 L34.375,1219.5496 L34.375,1194.0287 " fill="#EEEEEE" style="stroke: #737373; stroke-width: 1.0416666666666667;"/><rect fill="none" height="96.6166" rx="7.8125" ry="7.8125" style="stroke: #737373; stroke-width: 2.0833333333333335;" width="1281.25" x="34.375" y="1186.2162"/><text fill="#336699" font-family="Verdana" font-size="12.5" font-weight="bold" lengthAdjust="spacingAndGlyphs" textLength="29.1667" x="58.3333" y="1208.1584">loop</text><text fill="#303030" font-family="Verdana" font-size="12.5" font-weight="bold" lengthAdjust="spacingAndGlyphs" textLength="91.6667" x="151.0417" y="1209.2">[1000 times]</text><polygon fill="#EEEEEE" points="83.8542,1270.3328,73.4375,1274.4995,83.8542,1278.6662,79.6875,1274.4995" style="stroke: #EEEEEE; stroke-width: 1.0416666666666667;"/><line style="stroke: #EEEEEE; stroke-width: 3.125;" x1="77.6042" x2="1209.375" y1="1274.4995" y2="1274.4995"/><text fill="#303030" font-family="Verdana" font-size="12.5" font-weight="bold" lengthAdjust="spacingAndGlyphs" textLength="40.625" x="98.4375" y="1261.4583">[013]</text><text fill="#303030" font-family="Verdana" font-size="12.5" lengthAdjust="spacingAndGlyphs" textLength="71.875" x="159.8958" y="1261.4583">DNS Attack</text><line style="stroke: #737373; stroke-width: 1.0416666666666667; stroke-dasharray: 2.0,2.0;" x1="13.5417" x2="1336.4583" y1="1298.4578" y2="1298.4578"/><text fill="#303030" font-family="Verdana" font-size="12.5" font-weight="bold" lengthAdjust="spacingAndGlyphs" textLength="115.625" x="27.0833" y="1319.3583">[Just a Warning]</text><polygon fill="#EEEEEE" points="1197.9167,1365.2995,1208.3333,1369.4661,1197.9167,1373.6328,1202.0833,1369.4661" style="stroke: #EEEEEE; stroke-width: 1.0416666666666667;"/><line style="stroke: #EEEEEE; stroke-width: 3.125;" x1="72.3958" x2="1204.1667" y1="1369.4661" y2="1369.4661"/><text fill="#303030" font-family="Verdana" font-size="12.5" font-weight="bold" lengthAdjust="spacingAndGlyphs" textLength="40.625" x="88.0208" y="1356.425">[014]</text><text fill="#FFAE42" font-family="Verdana" font-size="12.5" font-weight="bold" lengthAdjust="spacingAndGlyphs" textLength="94.7917" x="149.4792" y="1356.425">Please repeat</text><path d="M46.875,1398.112 L46.875,1454.362 A7.8125,7.8125 0 0 0 54.6875,1462.1745 L274.4792,1462.1745 A7.8125,7.8125 0 0 0 282.2917,1454.362 L282.2917,1400.7161 L271.875,1390.2995 L54.6875,1390.2995 A7.8125,7.8125 0 0 0 46.875,1398.112 " fill="url(#g3gsfpry58pht3)" style="stroke: #336699; stroke-width: 1.0416666666666667;"/><path d="M271.875,1390.2995 L271.875,1396.8099 A3.9063,3.9063 0 0 0 275.7813,1400.7161 L282.2917,1400.7161 L271.875,1390.2995 " fill="url(#g3gsfpry58pht3)" style="stroke: #336699; stroke-width: 1.0416666666666667;"/><text fill="#FFFFFF" font-family="Verdana" font-size="12.5" lengthAdjust="spacingAndGlyphs" textLength="136.4583" x="91.6667" y="1416.4083">this is a second note</text><text fill="#FFFFFF" font-family="Verdana" font-size="12.5" lengthAdjust="spacingAndGlyphs" textLength="81.25" x="91.6667" y="1431.5999">that is really</text><text fill="#FFFFFF" font-family="Verdana" font-size="12.5" lengthAdjust="spacingAndGlyphs" textLength="28.125" x="91.6667" y="1446.7916">long</text><text fill="#888888" font-family="Verdana" font-size="12.5" lengthAdjust="spacingAndGlyphs" textLength="85.4167" x="1261.4583" y="15.6921">Page Header</text><text fill="#888888" font-family="Verdana" font-size="12.5" lengthAdjust="spacingAndGlyphs" textLength="75" x="637.5" y="1595.9249">Page 1 of 1</text><!--MD5=[9c21816571e3041e2013fe306d67f7ca]
@startuml



skinparam backgroundColor transparent







skinparam defaultFontName        "Verdana"
skinparam defaultFontSize        12
skinparam dpi                    100
skinparam shadowing              false
skinparam roundcorner            15
skinparam ParticipantPadding     30
skinparam BoxPadding             30
skinparam Padding                8
skinparam ArrowColor             #737373
skinparam stereotype {
    CBackgroundColor #dedede
    CBorderColor #ababab
    ABackgroundColor #5cad5c
    ABorderColor #297a29
    IBackgroundColor #ff5c5c
    IBorderColor #cc2929
    EBackgroundColor #ffbe68
    EBorderColor #cc8b35
    NBackgroundColor #5c85ad
    NBorderColor #29527a
}
skinparam title {
	FontColor	                 #eeeeee
	BorderColor	                 #ababab
	FontSize	    	         20
	BorderRoundCorner            8
	BorderThickness 	         1
	BackgroundColor              #dedede-#d6d6d6
}


skinparam legend {
	BackgroundColor #d6d6d6
	BorderColor #ababab
	FontColor #ffffff
}

skinparam activity {
		FontColor #336699
	BorderColor #f1f1f1
	BackgroundColor #eeeeee-#bebebe
	BarColor #339933
	StartColor #336699
	EndColor #336699
	DiamondBackgroundColor #d6d6d6-#ababab
  	DiamondBorderColor #ababab
	DiamondFontColor #ffffff
}

skinparam participant {
		FontColor #336699
	BorderColor #f1f1f1
	BackgroundColor #eeeeee-#bebebe
	ParticipantBorderThickness 2
}

skinparam actor {
		FontColor #336699
	BorderColor #f1f1f1
	BackgroundColor #eeeeee-#bebebe
	FontColor #303030
}

skinparam arrow {
	Thickness 3
	Color #eeeeee
	FontColor #303030
}

skinparam sequence {
	BorderColor #eeeeee
	TitleFontColor #eeeeee
	BackgroundColor transparent
	StartColor #eeeeee
	EndColor #eeeeee
	BoxBackgroundColor #ffffff
	BoxBorderColor #737373
	BoxFontColor #303030
	LifeLineBorderColor #ababab
	LifeLineBorderThickness 2
	LifeLineBackgroundColor #dedede
	GroupBorderColor #737373
	GroupFontColor #303030
	GroupHeaderFontColor #336699
	DividerBackgroundColor #FFF-#ffffff
    DividerBorderColor #737373
    DividerBorderThickness 2
    DividerFontColor #303030
	ReferenceBackgroundColor transparent
	ReferenceBorderColor #737373
	ReferenceFontColor #303030
	ReferenceHeaderFontColor #336699
}

skinparam partition {
	BorderColor #eeeeee
	FontColor #bebebe
	BackgroundColor transparent
}

skinparam collections {
		FontColor #336699
	BorderColor #f1f1f1
	BackgroundColor #eeeeee-#bebebe
}

skinparam control {
		FontColor #336699
	BorderColor #f1f1f1
	BackgroundColor #eeeeee-#bebebe
}

skinparam entity {
		FontColor #336699
	BorderColor #f1f1f1
	BackgroundColor #eeeeee-#bebebe
}

skinparam boundary {
		FontColor #336699
	BorderColor #f1f1f1
	BackgroundColor #eeeeee-#bebebe
}

skinparam agent {
	BackgroundColor #orange
	BorderColor #999999
	FontColor #333333
}

skinparam note {
	BorderThickness 1
	BackgroundColor #5c85ad-#336699
	BorderColor #336699
	FontColor #FFF
}

skinparam artifact {
	BackgroundColor #dedede-#ababab
	BorderColor #ababab
	FontColor #ffffff
}

skinparam component {
		FontColor #336699
	BorderColor #f1f1f1
	BackgroundColor #eeeeee-#bebebe
}

skinparam interface {
	BackgroundColor  #ff5c5c
	BorderColor  #ff3333
	FontColor #303030
}

skinparam storage {
	BackgroundColor #ffbe68-#ffae42
  	BorderColor #ffae42
	FontColor #FFF
}

skinparam node {
	BackgroundColor #f1f1f1-#bebebe
	BorderColor #f1f1f1
	FontColor #336699
}

skinparam cloud {
	BackgroundColor #F2FCFE-#eeeeee
	BorderColor #F2FCFE
	FontColor #303030
}

skinparam database {
		FontColor #336699
	BorderColor #f1f1f1
	BackgroundColor #eeeeee-#bebebe
	FontColor #303030
}

skinparam class {
		FontColor #336699
	BorderColor #f1f1f1
	BackgroundColor #eeeeee-#bebebe
	HeaderBackgroundColor #f1f1f1-#bebebe
	StereotypeFontColor #303030
	BorderThickness 1
	AttributeFontColor #303030
	AttributeFontSize 9
}

skinparam object {
		FontColor #336699
	BorderColor #f1f1f1
	BackgroundColor #eeeeee-#bebebe
	StereotypeFontColor #ffffff
	BorderThickness 1
	AttributeFontColor #ffffff
	AttributeFontSize 11
}

skinparam usecase {
		FontColor #336699
	BorderColor #f1f1f1
	BackgroundColor #eeeeee-#bebebe
	BorderThickness 2
	StereotypeFontColor #eeeeee
}

skinparam rectangle {
		FontColor #336699
	BorderColor #f1f1f1
	BackgroundColor #eeeeee-#bebebe
	BackgroundColor #f1f1f1
	BorderThickness 2
	StereotypeFontColor #eeeeee
}

skinparam package {
		FontColor #336699
	BorderColor #f1f1f1
	BackgroundColor #eeeeee-#bebebe
	BorderThickness 2
}

skinparam folder {
	BackgroundColor #eeeeee-#bebebe
  	BorderColor #ffae42
	FontColor #ffae42
	BorderThickness 2
}

skinparam frame {
	BackgroundColor #eeeeee-#bebebe
  	BorderColor #336699
	FontColor #336699
	BorderThickness 2
}

skinparam state {
		FontColor #336699
	BorderColor #f1f1f1
	BackgroundColor #eeeeee-#bebebe
	StartColor #336699
	EndColor #336699
	AttributeFontColor #ffffff
	AttributeFontSize 11
}

skinparam queue {
		FontColor #336699
	BorderColor #f1f1f1
	BackgroundColor #eeeeee-#bebebe
}

skinparam card {
	BackgroundColor #5c85ad-#336699
	BorderColor #336699
	FontColor #FFF
}

skinparam file {
	BackgroundColor #dedede-#d6d6d6
	BorderColor #ffffff
	FontColor #ffffff

}

skinparam stack {
		FontColor #336699
	BorderColor #f1f1f1
	BackgroundColor #eeeeee-#bebebe
}

title Sequence Diagram - silver theme


autonumber "<b>[000]"

header Page Header
footer Page %page% of %lastpage%

actor Foo1
boundary Foo2
control Foo3
entity Foo4
database Foo5
collections Foo6
participant Bob
participant Alice << (C,#ADD1B2) Testable >>

box "Internal Service"
	participant Bob
	participant Alice
end box

== Initialization ==
Foo1 -> Foo2 : To boundary
|||
Foo2 -> Foo3 ++: To control
ref over Foo4, Foo5
  This can be on
  several lines
end ref
Foo3 -> Foo4 : To entity

Foo4 -> Foo5 : To database
Foo5 - -> Foo3 - - : return
Foo3 - -> Foo2 - -: return
... Some ~~long delay~~ ...
Foo1 -> Foo6 : To collections
Foo6 - -> Foo4:   <font color=#339933><b>success


alt successful case

Foo1 -> Alice: Authentication Accepted
Alice - -> Foo1: success

note left of Alice: this is a first note

else some kind of failure

	Foo1 -> Alice: Authentication Failure
    Alice - -> Foo1:   <font color=#ff3333><b>Bad request
	group My own label
	    loop 1000 times
	        Alice -> Foo1: DNS Attack
	    end
	end
	
else Just a Warning

   Foo1 -> Alice:   <font color=#ffae42><b>Please repeat
   
end

note over Foo1, Foo2
this is a second note
that is really
long
end note

@enduml

PlantUML version 1.2020.00(Sat Jan 11 04:30:53 PST 2020)
(GPL source distribution)
Java Runtime: OpenJDK Runtime Environment
JVM: OpenJDK 64-Bit Server VM
Java Version: 11.0.5+10-post-Ubuntu-0ubuntu1.118.04
Operating System: Linux
Default Encoding: UTF-8
Language: en
Country: US
--></g></svg>