<?xml version="1.0" encoding="UTF-8" standalone="no"?><svg xmlns="http://www.w3.org/2000/svg" xmlns:xlink="http://www.w3.org/1999/xlink" contentScriptType="application/ecmascript" contentStyleType="text/css" height="1306.25px" preserveAspectRatio="none" style="width:383px;height:1306px;" version="1.1" viewBox="0 0 383 1306" width="383.3333px" zoomAndPan="magnify"><defs><linearGradient id="g1p7ql1hb2cn4v0" x1="50%" x2="50%" y1="0%" y2="100%"><stop offset="0%" stop-color="#DEDEDE"/><stop offset="100%" stop-color="#D6D6D6"/></linearGradient></defs><g><rect fill="url(#g1p7ql1hb2cn4v0)" height="52.4028" rx="4.1667" ry="4.1667" style="stroke: #ABABAB; stroke-width: 1.0416666666666667;" width="340.625" x="23.9583" y="2.0833"/><text fill="#EEEEEE" font-family="Verdana" font-size="20.8333" lengthAdjust="spacingAndGlyphs" textLength="307.2917" x="40.625" y="36.5702">State Diagram - silver theme</text><rect fill="#339933" height="8.3333" style="stroke: none; stroke-width: 1.0416666666666667;" width="83.3333" x="146.875" y="149.2778"/><ellipse cx="188.5417" cy="76.3611" fill="#336699" rx="10.4167" ry="10.4167" style="stroke: none; stroke-width: 1.0416666666666667;"/><rect fill="url(#g1p7ql1hb2cn4v0)" height="69.3583" rx="13.0208" ry="13.0208" style="stroke: #D6D6D6; stroke-width: 1.5625;" width="81.25" x="89.5833" y="220.1111"/><line style="stroke: #D6D6D6; stroke-width: 1.5625;" x1="89.5833" x2="170.8333" y1="262.3861" y2="262.3861"/><text fill="#336699" font-family="Verdana" font-size="12.5" lengthAdjust="spacingAndGlyphs" textLength="43.75" x="108.3333" y="246.2199">State2</text><rect fill="url(#g1p7ql1hb2cn4v0)" height="69.3583" rx="13.0208" ry="13.0208" style="stroke: #D6D6D6; stroke-width: 1.5625;" width="81.25" x="207.2917" y="220.1111"/><line style="stroke: #D6D6D6; stroke-width: 1.5625;" x1="207.2917" x2="288.5417" y1="262.3861" y2="262.3861"/><text fill="#336699" font-family="Verdana" font-size="12.5" lengthAdjust="spacingAndGlyphs" textLength="43.75" x="226.0417" y="246.2199">State3</text><rect fill="#339933" height="8.3333" style="stroke: none; stroke-width: 1.0416666666666667;" width="83.3333" x="146.875" y="352.4028"/><rect fill="url(#g1p7ql1hb2cn4v0)" height="69.3583" rx="13.0208" ry="13.0208" style="stroke: #D6D6D6; stroke-width: 1.5625;" width="81.25" x="147.9167" y="423.2361"/><line style="stroke: #D6D6D6; stroke-width: 1.5625;" x1="147.9167" x2="229.1667" y1="465.5111" y2="465.5111"/><text fill="#336699" font-family="Verdana" font-size="12.5" lengthAdjust="spacingAndGlyphs" textLength="43.75" x="166.6667" y="449.3449">State4</text><rect fill="url(#g1p7ql1hb2cn4v0)" height="740.1917" rx="13.0208" ry="13.0208" style="stroke: #D6D6D6; stroke-width: 1.5625;" width="364.5833" x="6.25" y="555.5278"/><rect fill="#FFFFFF" height="691.6667" rx="13.0208" ry="13.0208" style="stroke: #FFFFFF; stroke-width: 1.0416666666666667;" width="358.3333" x="9.375" y="600.9277"/><line style="stroke: #D6D6D6; stroke-width: 1.5625;" x1="6.25" x2="370.8333" y1="597.8027" y2="597.8027"/><text fill="#336699" font-family="Verdana" font-size="12.5" lengthAdjust="spacingAndGlyphs" textLength="38.5417" x="169.2708" y="581.6366">Active</text><ellipse cx="28.125" cy="646.2402" fill="#336699" rx="10.4167" ry="10.4167" style="stroke: none; stroke-width: 1.0416666666666667;"/><rect fill="url(#g1p7ql1hb2cn4v0)" height="69.3583" rx="13.0208" ry="13.0208" style="stroke: #D6D6D6; stroke-width: 1.5625;" width="114.5833" x="57.2917" y="611.3444"/><line style="stroke: #D6D6D6; stroke-width: 1.5625;" x1="57.2917" x2="171.875" y1="653.6194" y2="653.6194"/><text fill="#336699" font-family="Verdana" font-size="12.5" lengthAdjust="spacingAndGlyphs" textLength="77.0833" x="76.0417" y="637.4532">NumLockOff</text><rect fill="url(#g1p7ql1hb2cn4v0)" height="69.3583" rx="13.0208" ry="13.0208" style="stroke: #D6D6D6; stroke-width: 1.5625;" width="114.5833" x="56.25" y="751.9694"/><line style="stroke: #D6D6D6; stroke-width: 1.5625;" x1="56.25" x2="170.8333" y1="794.2444" y2="794.2444"/><text fill="#336699" font-family="Verdana" font-size="12.5" lengthAdjust="spacingAndGlyphs" textLength="77.0833" x="75" y="778.0782">NumLockOn</text><!--MD5=[f1e44e9cdf7ed6fd162579f896fb76ea]
link *start*Active to NumLockOff--><path d="M38.5946,646.2402 C42.9079,646.2402 47.2213,646.2402 51.5346,646.2402 " fill="none" id="*start*Active-&gt;NumLockOff" style="stroke: #EEEEEE; stroke-width: 3.125;"/><polygon fill="#EEEEEE" points="56.9981,646.2402,47.6231,642.0736,51.7898,646.2402,47.6231,650.4069,56.9981,646.2402" style="stroke: #EEEEEE; stroke-width: 3.125;"/><!--MD5=[b6ef3c088f5474ecc81df30475e7d61b]
link NumLockOff to NumLockOn--><path d="M57.1303,677.1361 C44.5025,685.1427 33.8015,693.3437 30.2083,699.8861 C23.0767,712.8714 23.1133,720.214 30.2083,733.2194 C35.3778,742.6952 43.018,750.7484 51.6076,757.5071 " fill="none" id="NumLockOff-&gt;NumLockOn" style="stroke: #EEEEEE; stroke-width: 3.125;"/><polygon fill="#EEEEEE" points="55.8939,760.7217,50.8935,751.7636,51.7271,757.5969,45.8938,758.4304,55.8939,760.7217" style="stroke: #EEEEEE; stroke-width: 3.125;"/><text fill="#303030" font-family="Verdana" font-size="12.5" lengthAdjust="spacingAndGlyphs" textLength="127.0833" x="39.5833" y="721.8282">EvNumLockPressed</text><!--MD5=[3bfddee0d82dc74c927fbeb3d3f2e6a3]
link NumLockOn to NumLockOff--><path d="M163.4383,751.8319 C168.5147,746.2012 172.9369,739.976 176.0417,733.2194 C182.2275,719.7578 182.1715,713.3733 176.0417,699.8861 C173.7086,694.7527 170.6148,689.9187 167.0533,685.4148 " fill="none" id="NumLockOn-&gt;NumLockOff" style="stroke: #EEEEEE; stroke-width: 3.125;"/><polygon fill="#EEEEEE" points="163.6595,681.3723,166.4964,691.2315,167.0084,685.3612,172.8787,685.8733,163.6595,681.3723" style="stroke: #EEEEEE; stroke-width: 3.125;"/><text fill="#303030" font-family="Verdana" font-size="12.5" lengthAdjust="spacingAndGlyphs" textLength="127.0833" x="190.625" y="721.8282">EvNumLockPressed</text><line style="stroke: #D6D6D6; stroke-width: 1.5625; stroke-dasharray: 8.0,10.0;" x1="11.4583" x2="363.5417" y1="832.1777" y2="832.1777"/><ellipse cx="28.125" cy="875.4069" fill="#336699" rx="10.4167" ry="10.4167" style="stroke: none; stroke-width: 1.0416666666666667;"/><rect fill="url(#g1p7ql1hb2cn4v0)" height="69.3583" rx="13.0208" ry="13.0208" style="stroke: #D6D6D6; stroke-width: 1.5625;" width="118.75" x="57.2917" y="840.5111"/><line style="stroke: #D6D6D6; stroke-width: 1.5625;" x1="57.2917" x2="176.0417" y1="882.7861" y2="882.7861"/><text fill="#336699" font-family="Verdana" font-size="12.5" lengthAdjust="spacingAndGlyphs" textLength="81.25" x="76.0417" y="866.6199">CapsLockOff</text><rect fill="url(#g1p7ql1hb2cn4v0)" height="69.3583" rx="13.0208" ry="13.0208" style="stroke: #D6D6D6; stroke-width: 1.5625;" width="118.75" x="56.25" y="981.1361"/><line style="stroke: #D6D6D6; stroke-width: 1.5625;" x1="56.25" x2="175" y1="1023.4111" y2="1023.4111"/><text fill="#336699" font-family="Verdana" font-size="12.5" lengthAdjust="spacingAndGlyphs" textLength="81.25" x="75" y="1007.2449">CapsLockOn</text><!--MD5=[ad44b9de6595643ec3df1279e2e825ac]
link *start*CONC82 to CapsLockOff--><path d="M38.8469,875.4069 C43.1216,875.4069 47.3964,875.4069 51.6711,875.4069 " fill="none" id="*start*CONC82-&gt;CapsLockOff" style="stroke: #EEEEEE; stroke-width: 3.125;"/><polygon fill="#EEEEEE" points="57.0858,875.4069,47.7108,871.2402,51.8775,875.4069,47.7108,879.5736,57.0858,875.4069" style="stroke: #EEEEEE; stroke-width: 3.125;"/><!--MD5=[dc4675bd3056f3ef68701d9e8e02a3f3]
link CapsLockOff to CapsLockOn--><path d="M56.9104,906.7357 C44.3641,914.5649 33.8155,922.5694 30.2083,929.0527 C23.0055,941.9987 23.0407,949.4205 30.2083,962.3861 C35.4505,971.8687 43.1485,979.9014 51.8091,986.6311 " fill="none" id="CapsLockOff-&gt;CapsLockOn" style="stroke: #EEEEEE; stroke-width: 3.125;"/><polygon fill="#EEEEEE" points="56.1314,989.8307,51.0755,980.9037,51.9453,986.7317,46.1172,987.6015,56.1314,989.8307" style="stroke: #EEEEEE; stroke-width: 3.125;"/><text fill="#303030" font-family="Verdana" font-size="12.5" lengthAdjust="spacingAndGlyphs" textLength="131.25" x="39.5833" y="950.9949">EvCapsLockPressed</text><!--MD5=[79e17b083e07746bd1a647600952cab6]
link CapsLockOn to CapsLockOff--><path d="M167.4641,980.8708 C172.5868,975.2927 177.0499,969.1154 180.2083,962.3861 C186.5028,948.9749 186.4491,942.489 180.2083,929.0527 C177.7871,923.8397 174.5821,918.9508 170.8957,914.411 " fill="none" id="CapsLockOn-&gt;CapsLockOff" style="stroke: #EEEEEE; stroke-width: 3.125;"/><polygon fill="#EEEEEE" points="167.3836,910.3408,170.3536,920.1607,170.7862,914.2841,176.6628,914.7167,167.3836,910.3408" style="stroke: #EEEEEE; stroke-width: 3.125;"/><text fill="#303030" font-family="Verdana" font-size="12.5" lengthAdjust="spacingAndGlyphs" textLength="131.25" x="194.7917" y="950.9949">EvCapsLockPressed</text><line style="stroke: #D6D6D6; stroke-width: 1.5625; stroke-dasharray: 8.0,10.0;" x1="11.4583" x2="363.5417" y1="1061.3444" y2="1061.3444"/><ellipse cx="28.125" cy="1104.5736" fill="#336699" rx="10.4167" ry="10.4167" style="stroke: none; stroke-width: 1.0416666666666667;"/><rect fill="url(#g1p7ql1hb2cn4v0)" height="69.3583" rx="13.0208" ry="13.0208" style="stroke: #D6D6D6; stroke-width: 1.5625;" width="119.7917" x="57.8125" y="1069.6777"/><line style="stroke: #D6D6D6; stroke-width: 1.5625;" x1="57.8125" x2="177.6042" y1="1111.9527" y2="1111.9527"/><text fill="#336699" font-family="Verdana" font-size="12.5" lengthAdjust="spacingAndGlyphs" textLength="82.2917" x="76.5625" y="1095.7865">ScrollLockOff</text><rect fill="url(#g1p7ql1hb2cn4v0)" height="69.3583" rx="13.0208" ry="13.0208" style="stroke: #D6D6D6; stroke-width: 1.5625;" width="119.7917" x="57.8125" y="1210.3027"/><line style="stroke: #D6D6D6; stroke-width: 1.5625;" x1="57.8125" x2="177.6042" y1="1252.5777" y2="1252.5777"/><text fill="#336699" font-family="Verdana" font-size="12.5" lengthAdjust="spacingAndGlyphs" textLength="82.2917" x="76.5625" y="1236.4115">ScrollLockOn</text><!--MD5=[9a8b2c0f7fde6bd227d6334344b3ad45]
link *start*CONC90 to ScrollLockOff--><path d="M38.623,1104.5736 C43.2119,1104.5736 47.8007,1104.5736 52.3896,1104.5736 " fill="none" id="*start*CONC90-&gt;ScrollLockOff" style="stroke: #EEEEEE; stroke-width: 3.125;"/><polygon fill="#EEEEEE" points="57.7766,1104.5736,48.4016,1100.4069,52.5682,1104.5736,48.4016,1108.7402,57.7766,1104.5736" style="stroke: #EEEEEE; stroke-width: 3.125;"/><!--MD5=[da4e1e55b4a6de250eca2c82023085fa]
link ScrollLockOff to ScrollLockOn--><path d="M57.7828,1136.5248 C45.7774,1144.1738 35.7653,1151.936 32.2917,1158.2194 C25.1241,1171.1849 25.1241,1178.5872 32.2917,1191.5527 C37.461,1200.9037 45.0185,1208.8446 53.5321,1215.5165 " fill="none" id="ScrollLockOff-&gt;ScrollLockOn" style="stroke: #EEEEEE; stroke-width: 3.125;"/><polygon fill="#EEEEEE" points="57.782,1218.6904,52.7639,1209.7422,53.609,1215.5739,47.7774,1216.419,57.782,1218.6904" style="stroke: #EEEEEE; stroke-width: 3.125;"/><text fill="#303030" font-family="Verdana" font-size="12.5" lengthAdjust="spacingAndGlyphs" textLength="131.25" x="41.6667" y="1180.1615">EvCapsLockPressed</text><!--MD5=[6ad2c621f2407b82317910f4deb17639]
link ScrollLockOn to ScrollLockOff--><path d="M169.5474,1210.0374 C174.6701,1204.4594 179.1332,1198.2821 182.2917,1191.5527 C188.5861,1178.1416 188.5861,1171.6305 182.2917,1158.2194 C179.8735,1153.0672 176.6905,1148.2387 173.0323,1143.7549 " fill="none" id="ScrollLockOn-&gt;ScrollLockOff" style="stroke: #EEEEEE; stroke-width: 3.125;"/><polygon fill="#EEEEEE" points="169.5474,1139.7347,172.5398,1149.5478,172.9589,1143.6702,178.8366,1144.0894,169.5474,1139.7347" style="stroke: #EEEEEE; stroke-width: 3.125;"/><text fill="#303030" font-family="Verdana" font-size="12.5" lengthAdjust="spacingAndGlyphs" textLength="131.25" x="195.8333" y="1180.1615">EvCapsLockPressed</text><!--MD5=[242ad121cef04112e9b0ee8f25f52375]
link *start to fork_state--><path d="M188.5417,87.0792 C188.5417,102.1371 188.5417,129.3276 188.5417,143.789 " fill="none" id="*start-&gt;fork_state" style="stroke: #EEEEEE; stroke-width: 3.125;"/><polygon fill="#EEEEEE" points="188.5417,149.1349,192.7083,139.7599,188.5417,143.9266,184.375,139.7599,188.5417,149.1349" style="stroke: #EEEEEE; stroke-width: 3.125;"/><!--MD5=[44dd36eb382d4fffd186e8c447a61da0]
link fork_state to State2--><path d="M186.0352,157.8085 C180.3346,167.7336 165.9026,192.8608 153.1409,215.0797 " fill="none" id="fork_state-&gt;State2" style="stroke: #EEEEEE; stroke-width: 3.125;"/><polygon fill="#EEEEEE" points="150.4468,219.7704,158.7292,213.7161,153.0408,215.254,151.503,209.5656,150.4468,219.7704" style="stroke: #EEEEEE; stroke-width: 3.125;"/><!--MD5=[43d4d70f9cd19f132a5eb1ce9d85c890]
link fork_state to State3--><path d="M191.0929,157.8085 C196.8953,167.7336 211.585,192.8608 224.5746,215.0797 " fill="none" id="fork_state-&gt;State3" style="stroke: #EEEEEE; stroke-width: 3.125;"/><polygon fill="#EEEEEE" points="227.3168,219.7704,226.1822,209.5741,224.6881,215.274,218.9881,213.7799,227.3168,219.7704" style="stroke: #EEEEEE; stroke-width: 3.125;"/><!--MD5=[8cf5ef3a64654818495211b4c165bd62]
link State2 to join_state--><path d="M150.2833,289.959 C162.0489,310.4435 176.0074,334.7464 183.3805,347.5836 " fill="none" id="State2-&gt;join_state" style="stroke: #EEEEEE; stroke-width: 3.125;"/><polygon fill="#EEEEEE" points="186.1118,352.3387,185.0557,342.134,183.5178,347.8223,177.8295,346.2843,186.1118,352.3387" style="stroke: #EEEEEE; stroke-width: 3.125;"/><!--MD5=[183fde86cac17ac230b97143534e47db]
link State3 to join_state--><path d="M227.4831,289.959 C215.5076,310.4435 201.2998,334.7464 193.7949,347.5836 " fill="none" id="State3-&gt;join_state" style="stroke: #EEEEEE; stroke-width: 3.125;"/><polygon fill="#EEEEEE" points="191.015,352.3387,199.3437,346.3484,193.6437,347.8424,192.1497,342.1424,191.015,352.3387" style="stroke: #EEEEEE; stroke-width: 3.125;"/><!--MD5=[1e473d623208eebf6d5ebd6e9bc5a11d]
link join_state to State4--><path d="M188.5417,360.9335 C188.5417,370.7755 188.5417,395.5663 188.5417,417.6463 " fill="none" id="join_state-&gt;State4" style="stroke: #EEEEEE; stroke-width: 3.125;"/><polygon fill="#EEEEEE" points="188.5417,422.8954,192.7083,413.5204,188.5417,417.687,184.375,413.5204,188.5417,422.8954" style="stroke: #EEEEEE; stroke-width: 3.125;"/><!--MD5=[0a70b1a7cf318979336334b4227eefe4]
link State4 to Active--><path d="M188.5417,493.2861 C188.5417,508.4301 188.5417,527.7421 188.5417,549.7679 " fill="none" id="State4-&gt;Active" style="stroke: #EEEEEE; stroke-width: 3.125;"/><polygon fill="#EEEEEE" points="188.5417,555.1168,192.7083,545.7418,188.5417,549.9085,184.375,545.7418,188.5417,555.1168" style="stroke: #EEEEEE; stroke-width: 3.125;"/><!--MD5=[aefe20702f8f2f2c1903f86ca12b0264]
@startuml



skinparam backgroundColor transparent






skinparam defaultFontName        "Verdana"
skinparam defaultFontSize        12
skinparam dpi                    100
skinparam shadowing              false
skinparam roundcorner            15
skinparam ParticipantPadding     30
skinparam BoxPadding             30
skinparam Padding                8
skinparam ArrowColor             #737373
skinparam stereotype {
    CBackgroundColor #dedede
    CBorderColor #ababab
    ABackgroundColor #5cad5c
    ABorderColor #297a29
    IBackgroundColor #ff5c5c
    IBorderColor #cc2929
    EBackgroundColor #ffbe68
    EBorderColor #cc8b35
    NBackgroundColor #5c85ad
    NBorderColor #29527a
}
skinparam title {
	FontColor	                 #eeeeee
	BorderColor	                 #ababab
	FontSize	    	         20
	BorderRoundCorner            8
	BorderThickness 	         1
	BackgroundColor              #dedede-#d6d6d6
}


skinparam legend {
	BackgroundColor #d6d6d6
	BorderColor #ababab
	FontColor #fcfcfc
}

skinparam activity {
	FontColor #336699
	BorderColor #bebebe
	BackgroundColor #eeeeee-#bebebe
	BarColor #339933
	StartColor #336699
	EndColor #336699
	DiamondBackgroundColor #d6d6d6-#ababab
  	DiamondBorderColor #ababab
	DiamondFontColor #fcfcfc
}

skinparam sequence {
	BorderColor #eeeeee
	TitleFontColor #eeeeee
	BackgroundColor transparent
	StartColor #eeeeee
	EndColor #eeeeee
    ParticipantBackgroundColor #f1f1f1-#bebebe
    ParticipantBorderColor #eeeeee
	ParticipantBorderThickness 0
	ParticipantFontColor #336699
	ActorBackgroundColor transparent
    ActorBorderColor #eeeeee
	ActorFontColor #eeeeee
	ArrowThickness 3
	ArrowColor #eeeeee
	ArrowFontColor #303030
	BoxBackgroundColor #fcfcfc
	BoxBorderColor #737373
	BoxFontColor #303030
	LifeLineBorderColor #ababab
	LifeLineBorderThickness 2
	LifeLineBackgroundColor #dedede
	GroupBorderColor #737373
	GroupFontColor #303030
	GroupHeaderFontColor #336699
	DividerBackgroundColor #FFF-#fcfcfc
    DividerBorderColor #737373
    DividerBorderThickness 2
    DividerFontColor #303030
	ReferenceBackgroundColor transparent
	ReferenceBorderColor #737373
	ReferenceFontColor #303030
	ReferenceHeaderFontColor #336699
}

skinparam partition {
	BorderColor #eeeeee
	FontColor #bebebe
	BackgroundColor transparent
}

skinparam collections {
	BackgroundColor #f1f1f1-#eeeeee
	BorderColor #eeeeee
}

skinparam control {
	BackgroundColor  #f1f1f1-#eeeeee
	BorderColor #bebebe
	FontColor #303030
}

skinparam entity {
	BackgroundColor  #f1f1f1-#eeeeee
	BorderColor #bebebe
	FontColor #303030
}

skinparam boundary {
	BackgroundColor  #f1f1f1-#eeeeee
	BorderColor #bebebe
	FontColor #303030
}

skinparam agent {
	BackgroundColor #orange
	BorderColor #999999
	FontColor #333333
}

skinparam note {
	BorderThickness 1
	BackgroundColor #5c85ad-#336699
	BorderColor #336699
	FontColor #FFF
}

skinparam artifact {
	BackgroundColor #FFF-#fcfcfc
	BorderColor #737373
	FontColor #737373
}

skinparam component {
	BackgroundColor  #5cad5c-#339933
	BorderColor  #339933
	FontColor #FFF
}

skinparam interface {
	BackgroundColor  #ff5c5c
	BorderColor  #ff3333
	FontColor #303030
}

skinparam storage {
	BackgroundColor #ffbe68-#ffae42
  	BorderColor #ffae42
	FontColor #FFF
}

skinparam node {
	BackgroundColor #f1f1f1-#bebebe
	BorderColor #bebebe
	FontColor #336699
}

skinparam cloud {
	BackgroundColor white-lightskyblue
	BorderColor transparent
	FontColor #303030
}

skinparam database {
	BackgroundColor  #f1f1f1-#eeeeee
	BorderColor #bebebe
	FontColor #303030
}

skinparam actor {
	FontColor #303030
}

skinparam class {
	HeaderBackgroundColor #f1f1f1-#bebebe
	FontColor #336699
	BackgroundColor #eeeeee-#bebebe
	BorderColor #bebebe
	StereotypeFontColor #303030
	BorderThickness 1
	AttributeFontColor #303030
	AttributeFontSize 9
}

skinparam object {
	FontColor #339933
	BackgroundColor #dedede-#d6d6d6
	BorderColor #d6d6d6
	StereotypeFontColor #fcfcfc
	BorderThickness 1
	AttributeFontColor #fcfcfc
	AttributeFontSize 11
}

skinparam usecase {
	BackgroundColor #dedede-#d6d6d6
	BorderColor #d6d6d6
	BorderThickness 2
	FontColor #fcfcfc
	StereotypeFontColor #eeeeee
}

skinparam rectangle {
	BackgroundColor #eeeeee
	BorderColor #bebebe
	BorderThickness 2
	FontColor #336699
	StereotypeFontColor #eeeeee
}

skinparam package {
	BackgroundColor #dedede-#d6d6d6
  	BorderColor #eeeeee
	FontColor #eeeeee
	BorderThickness 2
}

skinparam folder {
	BackgroundColor #eeeeee-#bebebe
  	BorderColor #ffae42
	FontColor #ffae42
	BorderThickness 2
}

skinparam frame {
	BackgroundColor #eeeeee-#bebebe
  	BorderColor #336699
	FontColor #336699
	BorderThickness 2
}

skinparam state {
	StartColor #336699
	EndColor #336699
	BackgroundColor #dedede-#d6d6d6
	BorderColor #d6d6d6
	FontColor #336699
	AttributeFontColor #fcfcfc
	AttributeFontSize 11
}

skinparam queue {
	BackgroundColor #ffae42-#cc8b35
  	BorderColor #cc8b35
	FontColor #FFF
}

skinparam card {
	BackgroundColor #5c85ad-#336699
	BorderColor #336699
	FontColor #FFF
}

skinparam file {
	BackgroundColor #dedede-#d6d6d6
	BorderColor #737373
	FontColor #fcfcfc

}

skinparam stack {
	BackgroundColor #f1f1f1-#bebebe
	BorderColor #bebebe
	FontColor #336699
}

title State Diagram - silver theme


state fork_state <<fork>>
[*] - -> fork_state
fork_state - -> State2
fork_state - -> State3

state join_state <<join>>
State2 - -> join_state
State3 - -> join_state
join_state - -> State4
State4 - -> Active

state Active {
  [*] -> NumLockOff
  NumLockOff - -> NumLockOn : EvNumLockPressed
  NumLockOn - -> NumLockOff : EvNumLockPressed
  - -
  [*] -> CapsLockOff
  CapsLockOff - -> CapsLockOn : EvCapsLockPressed
  CapsLockOn - -> CapsLockOff : EvCapsLockPressed
  - -
  [*] -> ScrollLockOff
  ScrollLockOff - -> ScrollLockOn : EvCapsLockPressed
  ScrollLockOn - -> ScrollLockOff : EvCapsLockPressed
}

@enduml

PlantUML version 1.2019.12(Sun Nov 03 02:24:54 PST 2019)
(GPL source distribution)
Java Runtime: OpenJDK Runtime Environment
JVM: OpenJDK 64-Bit Server VM
Java Version: 11.0.4+11-post-Ubuntu-1ubuntu218.04.3
Operating System: Linux
Default Encoding: UTF-8
Language: en
Country: US
--></g></svg>