<?xml version="1.0" encoding="UTF-8" standalone="no"?><svg xmlns="http://www.w3.org/2000/svg" xmlns:xlink="http://www.w3.org/1999/xlink" contentScriptType="application/ecmascript" contentStyleType="text/css" height="575px" preserveAspectRatio="none" style="width:1191px;height:575px;background:#000000;" version="1.1" viewBox="0 0 1191 575" width="1191.6667px" zoomAndPan="magnify"><defs/><g><rect fill="#000000" height="46.1528" rx="4.1667" ry="4.1667" style="stroke: #777777; stroke-width: 1.0416666666666667;" width="492.7083" x="353.125" y="2.0833"/><text fill="#2A9FD6" font-family="Verdana" font-size="20.8333" lengthAdjust="spacingAndGlyphs" textLength="465.625" x="366.6667" y="33.4452">Component Diagram - cyborg-outline theme</text><!--MD5=[98956307d0c47524864de5bf9cdc747b]
cluster My Package--><path d="M18.75,68.5486 L109.375,68.5486 A6.25,6.25 0 0 1 113.5417,72.7153 L120.8333,100.4069 L739.5833,100.4069 A4.1667,4.1667 0 0 1 743.75,104.5736 L743.75,156.0486 A4.1667,4.1667 0 0 1 739.5833,160.2153 L18.75,160.2153 A4.1667,4.1667 0 0 1 14.5833,156.0486 L14.5833,72.7153 A4.1667,4.1667 0 0 1 18.75,68.5486 " fill="#000000" style="stroke: #2A9FD6; stroke-width: 1.5625;"/><line style="stroke: #2A9FD6; stroke-width: 1.5625;" x1="14.5833" x2="120.8333" y1="100.4069" y2="100.4069"/><text fill="#2A9FD6" font-family="Verdana" font-size="12.5" font-weight="bold" lengthAdjust="spacingAndGlyphs" textLength="82.2917" x="23.9583" y="88.4074">My Package</text><!--MD5=[994b84a7865cf3a30290d65f6358d5f5]
cluster My Node--><polygon fill="#000000" points="200,199.7986,210.4167,189.3819,591.6667,189.3819,591.6667,275.8403,581.25,286.2569,200,286.2569,200,199.7986" style="stroke: #ADAFAE; stroke-width: 1.5625;"/><line style="stroke: #ADAFAE; stroke-width: 1.5625;" x1="581.25" x2="590.625" y1="199.7986" y2="190.4236"/><line style="stroke: #ADAFAE; stroke-width: 1.5625;" x1="200" x2="581.25" y1="199.7986" y2="199.7986"/><line style="stroke: #ADAFAE; stroke-width: 1.5625;" x1="581.25" x2="581.25" y1="199.7986" y2="286.2569"/><text fill="#ADAFAE" font-family="Verdana" font-size="12.5" font-weight="bold" lengthAdjust="spacingAndGlyphs" textLength="59.375" x="361.9792" y="220.6991">My Node</text><!--MD5=[8f762177cf9f076b8ea6eac76c5df33e]
cluster My Cloud--><path d="M618.9724,204.121 C621.4941,197.1971 628.3837,194.4813 633.3256,201.6573 C636.1432,196.1286 641.4182,195.2804 645.6898,199.8828 C648.4886,194.6653 653.3143,192.895 657.4224,198.4579 C659.2426,192.75 664.5836,190.9064 669.0864,195.3865 C673.411,189.9352 679.1057,190.3786 681.8777,197.0277 C686.8841,192.3737 691.9384,192.689 694.4805,199.6919 C698.4263,195.2285 704.1206,194.3472 706.6664,201.1995 C712.8839,195.3479 717.3998,197.8665 720.0134,204.9252 C726.6756,207.3221 727.4239,212.7614 722.2645,217.3075 C728.1554,219.3764 730.3084,224.0381 725.3974,229.001 C732.6302,232.2123 733.8483,236.2198 727.6882,241.8237 C732.561,247.325 731.1331,251.8396 724.214,253.9673 C729.8318,258.5849 729.7475,264.6687 722.0798,267.1326 C727.9228,271.8483 727.0768,275.7953 720.6576,279.0473 C716.7445,285.1036 711.4826,287.5236 706.5577,280.1062 C704.1594,287.4531 699.7522,287.0479 694.6808,282.8581 C691.2029,288.9895 685.182,289.3042 681.8157,282.7449 C678.9159,290.3228 675.0287,291.179 669.1867,285.5607 C664.9864,291.499 660.65,290.1245 657.5716,284.4396 C651.9817,290.1849 647.5441,287.9533 645.1643,281.2421 C641.295,286.2709 636.5535,287.4287 632.9675,280.942 C627.9822,285.3048 622.6621,286.0499 620.1762,278.3021 C613.5529,276.4532 613.2546,272.2572 617.3898,267.6057 C611.5547,264.059 609.5604,258.3145 616.4946,253.9318 C609.7877,250.9578 610.3567,245.8451 615.0123,241.5146 C608.9882,237.5909 610.4131,231.936 615.7641,228.6785 C610.3404,223.4758 611.5969,219.1134 618.734,217.1455 C612.8013,212.7758 612.1446,208.2572 618.9724,204.121 " fill="#000000" style="stroke: #F2FCFE; stroke-width: 1.5625;"/><text fill="#ADAFAE" font-family="Verdana" font-size="12.5" font-weight="bold" lengthAdjust="spacingAndGlyphs" textLength="62.5" x="637.5" y="225.9074">My Cloud</text><!--MD5=[5435dd1da01795d79a1d1bdb7811705f]
cluster My Database--><path d="M609.375,311.7778 C609.375,301.3611 668.75,301.3611 668.75,301.3611 C668.75,301.3611 728.125,301.3611 728.125,311.7778 L728.125,552.4028 C728.125,562.8194 668.75,562.8194 668.75,562.8194 C668.75,562.8194 609.375,562.8194 609.375,552.4028 L609.375,311.7778 " fill="#000000" style="stroke: #55B2DE; stroke-width: 1.5625;"/><path d="M609.375,311.7778 C609.375,322.1944 668.75,322.1944 668.75,322.1944 C668.75,322.1944 728.125,322.1944 728.125,311.7778 " fill="none" style="stroke: #55B2DE; stroke-width: 1.5625;"/><text fill="#2A9FD6" font-family="Verdana" font-size="12.5" font-weight="bold" lengthAdjust="spacingAndGlyphs" textLength="88.5417" x="624.4792" y="342.0532">My Database</text><!--MD5=[db3eb734e65e00defc1adec42c70b029]
cluster My folder--><path d="M621.875,353.4444 L694.7917,353.4444 A6.25,6.25 0 0 1 698.9583,357.6111 L706.25,385.3027 L715.625,385.3027 A4.1667,4.1667 0 0 1 719.7917,389.4694 L719.7917,440.9444 A4.1667,4.1667 0 0 1 715.625,445.1111 L621.875,445.1111 A4.1667,4.1667 0 0 1 617.7083,440.9444 L617.7083,357.6111 A4.1667,4.1667 0 0 1 621.875,353.4444 " fill="#000000" style="stroke: #FF8800; stroke-width: 1.5625;"/><line style="stroke: #FF8800; stroke-width: 1.5625;" x1="617.7083" x2="706.25" y1="385.3027" y2="385.3027"/><text fill="#FF8800" font-family="Verdana" font-size="12.5" font-weight="bold" lengthAdjust="spacingAndGlyphs" textLength="64.5833" x="627.0833" y="373.3032">My folder</text><!--MD5=[2f95c9c104e26437854e71862f3d840e]
cluster My Frame--><rect fill="#000000" height="91.6667" rx="4.1667" ry="4.1667" style="stroke: #9933CC; stroke-width: 1.5625;" width="102.0833" x="617.7083" y="462.8194"/><path d="M706.25,463.8611 L706.25,481.1361 L695.8333,491.5527 L617.7083,491.5527 " fill="none" style="stroke: #9933CC; stroke-width: 1.5625;"/><text fill="#9933CC" font-family="Verdana" font-size="12.5" font-weight="bold" lengthAdjust="spacingAndGlyphs" textLength="67.7083" x="626.0417" y="481.6366">My Frame</text><!--MD5=[96f7e1299d4a43069e6ed32352fcac20]
entity HTTP--><ellipse cx="525" cy="128.4444" fill="#000000" rx="8.3333" ry="8.3333" style="stroke: #CC0000; stroke-width: 2.0833333333333335;"/><text fill="#ADAFAE" font-family="Verdana" font-size="12.5" lengthAdjust="spacingAndGlyphs" textLength="32.2917" x="508.8542" y="163.9282">HTTP</text><!--MD5=[cbd7cda55f2530e2efe43ec72c097853]
entity First Component--><rect fill="#000000" height="46.4417" rx="4.1667" ry="4.1667" style="stroke: #55B2DE; stroke-width: 1.5625;" width="139.5833" x="339.5833" y="105.0069"/><rect fill="#000000" height="5.2083" style="stroke: #55B2DE; stroke-width: 1.5625;" width="10.4167" x="334.375" y="110.2153"/><rect fill="#000000" height="5.2083" style="stroke: #55B2DE; stroke-width: 1.5625;" width="10.4167" x="334.375" y="141.0319"/><text fill="#2A9FD6" font-family="Verdana" font-size="12.5" lengthAdjust="spacingAndGlyphs" textLength="108.3333" x="355.2083" y="133.1991">First Component</text><!--MD5=[b9d11f23832c1491231c5b33e55ab8c6]
entity Another Component--><rect fill="#000000" height="46.4417" rx="4.1667" ry="4.1667" style="stroke: #55B2DE; stroke-width: 1.5625;" width="163.5417" x="571.3542" y="105.0069"/><rect fill="#000000" height="5.2083" style="stroke: #55B2DE; stroke-width: 1.5625;" width="10.4167" x="566.1458" y="110.2153"/><rect fill="#000000" height="5.2083" style="stroke: #55B2DE; stroke-width: 1.5625;" width="10.4167" x="566.1458" y="141.0319"/><text fill="#2A9FD6" font-family="Verdana" font-size="12.5" lengthAdjust="spacingAndGlyphs" textLength="132.2917" x="586.9792" y="133.1991">Another Component</text><!--MD5=[aa625683a8c1a6d60f4cb888c4297339]
entity MyRectangle1--><rect fill="#000000" height="46.4417" rx="4.1667" ry="4.1667" style="stroke: #55B2DE; stroke-width: 2.0833333333333335;" width="121.875" x="180.7292" y="105.0069"/><text fill="#2A9FD6" font-family="Verdana" font-size="12.5" lengthAdjust="spacingAndGlyphs" textLength="90.625" x="196.3542" y="133.1991">MyRectangle1</text><!--MD5=[deed3d4321eb4f26fdbc8b688b847966]
entity MyCollection1--><rect fill="#000000" height="42.275" rx="4.1667" ry="4.1667" style="stroke: #55B2DE; stroke-width: 2.0833333333333335;" width="116.6667" x="27.0833" y="109.1736"/><rect fill="#000000" height="42.275" rx="4.1667" ry="4.1667" style="stroke: #55B2DE; stroke-width: 2.0833333333333335;" width="116.6667" x="22.9167" y="105.0069"/><text fill="#2A9FD6" font-family="Verdana" font-size="12.5" lengthAdjust="spacingAndGlyphs" textLength="89.5833" x="36.4583" y="131.1157">MyCollection1</text><!--MD5=[76af18d92d7d7c0f7ebd8f4f605ac5aa]
entity FTP--><ellipse cx="377.0833" cy="254.4861" fill="#000000" rx="8.3333" ry="8.3333" style="stroke: #CC0000; stroke-width: 2.0833333333333335;"/><text fill="#ADAFAE" font-family="Verdana" font-size="12.5" lengthAdjust="spacingAndGlyphs" textLength="22.9167" x="365.625" y="289.9699">FTP</text><!--MD5=[0e2cc1aee2c7f52697e111b4fb84546c]
entity Second Component--><rect fill="#000000" height="46.4417" rx="4.1667" ry="4.1667" style="stroke: #55B2DE; stroke-width: 1.5625;" width="159.375" x="423.4375" y="231.0486"/><rect fill="#000000" height="5.2083" style="stroke: #55B2DE; stroke-width: 1.5625;" width="10.4167" x="418.2292" y="236.2569"/><rect fill="#000000" height="5.2083" style="stroke: #55B2DE; stroke-width: 1.5625;" width="10.4167" x="418.2292" y="267.0736"/><text fill="#2A9FD6" font-family="Verdana" font-size="12.5" lengthAdjust="spacingAndGlyphs" textLength="128.125" x="439.0625" y="259.2407">Second Component</text><!--MD5=[b8d85f5d3810694767e38854f60c8b6e]
entity MyRectangle2--><rect fill="#000000" height="46.4417" rx="4.1667" ry="4.1667" style="stroke: #55B2DE; stroke-width: 2.0833333333333335;" width="121.875" x="208.8542" y="231.0486"/><text fill="#2A9FD6" font-family="Verdana" font-size="12.5" lengthAdjust="spacingAndGlyphs" textLength="90.625" x="224.4792" y="259.2407">MyRectangle2</text><!--MD5=[243c1e580c31013c48b02624e18b25a7]
entity Example 1--><rect fill="#000000" height="46.4417" rx="4.1667" ry="4.1667" style="stroke: #55B2DE; stroke-width: 1.5625;" width="98.9583" x="619.2708" y="231.0486"/><rect fill="#000000" height="5.2083" style="stroke: #55B2DE; stroke-width: 1.5625;" width="10.4167" x="614.0625" y="236.2569"/><rect fill="#000000" height="5.2083" style="stroke: #55B2DE; stroke-width: 1.5625;" width="10.4167" x="614.0625" y="267.0736"/><text fill="#2A9FD6" font-family="Verdana" font-size="12.5" lengthAdjust="spacingAndGlyphs" textLength="67.7083" x="634.8958" y="259.2407">Example 1</text><!--MD5=[3e0e08c92570480402984701ab5a6d2d]
entity Folder 3--><rect fill="#000000" height="46.4417" rx="4.1667" ry="4.1667" style="stroke: #55B2DE; stroke-width: 1.5625;" width="84.375" x="626.5625" y="389.9028"/><rect fill="#000000" height="5.2083" style="stroke: #55B2DE; stroke-width: 1.5625;" width="10.4167" x="621.3542" y="395.1111"/><rect fill="#000000" height="5.2083" style="stroke: #55B2DE; stroke-width: 1.5625;" width="10.4167" x="621.3542" y="425.9277"/><text fill="#2A9FD6" font-family="Verdana" font-size="12.5" lengthAdjust="spacingAndGlyphs" textLength="53.125" x="642.1875" y="418.0949">Folder 3</text><!--MD5=[63877ed85df621d134a6c80fb52dad56]
entity Frame 4--><rect fill="#000000" height="46.4417" rx="4.1667" ry="4.1667" style="stroke: #55B2DE; stroke-width: 1.5625;" width="84.375" x="626.5625" y="499.2778"/><rect fill="#000000" height="5.2083" style="stroke: #55B2DE; stroke-width: 1.5625;" width="10.4167" x="621.3542" y="504.4861"/><rect fill="#000000" height="5.2083" style="stroke: #55B2DE; stroke-width: 1.5625;" width="10.4167" x="621.3542" y="535.3027"/><text fill="#2A9FD6" font-family="Verdana" font-size="12.5" lengthAdjust="spacingAndGlyphs" textLength="53.125" x="642.1875" y="527.4699">Frame 4</text><!--MD5=[bb0325ec99f4f4d58c3e33c6fae3b543]
entity MyCollection2--><rect fill="#000000" height="42.275" rx="4.1667" ry="4.1667" style="stroke: #55B2DE; stroke-width: 2.0833333333333335;" width="116.6667" x="776.0417" y="109.1736"/><rect fill="#000000" height="42.275" rx="4.1667" ry="4.1667" style="stroke: #55B2DE; stroke-width: 2.0833333333333335;" width="116.6667" x="771.875" y="105.0069"/><text fill="#2A9FD6" font-family="Verdana" font-size="12.5" lengthAdjust="spacingAndGlyphs" textLength="89.5833" x="785.4167" y="131.1157">MyCollection2</text><!--MD5=[4d6c9a8b502f46c0f85d26a51e5d57ce]
entity My Artifact--><rect fill="#000000" height="49.5667" rx="4.1667" ry="4.1667" style="stroke: #BDBFBE; stroke-width: 1.5625;" width="109.375" x="929.6875" y="103.4444"/><polygon fill="#000000" points="1021.3542,108.6528,1021.3542,123.2361,1033.8542,123.2361,1033.8542,114.9028,1027.6042,108.6528,1021.3542,108.6528" style="stroke: #BDBFBE; stroke-width: 1.5625;"/><line style="stroke: #BDBFBE; stroke-width: 1.5625;" x1="1027.6042" x2="1027.6042" y1="108.6528" y2="114.9028"/><line style="stroke: #BDBFBE; stroke-width: 1.5625;" x1="1033.8542" x2="1027.6042" y1="114.9028" y2="114.9028"/><text fill="#BDBFBE" font-family="Verdana" font-size="12.5" lengthAdjust="spacingAndGlyphs" textLength="67.7083" x="945.3125" y="134.7616">My Artifact</text><!--MD5=[6013850653c05993d855a7b82b2ebd6f]
entity My Storage--><rect fill="#000000" height="46.4417" rx="36.4583" ry="36.4583" style="stroke: #FFA033; stroke-width: 1.5625;" width="105.2083" x="1075.5208" y="105.0069"/><text fill="#FF8800" font-family="Verdana" font-size="12.5" lengthAdjust="spacingAndGlyphs" textLength="73.9583" x="1091.1458" y="133.1991">My Storage</text><!--MD5=[decf897d207c1b699121f5d4005ef96e]
entity My Queue--><path d="M789.0625,236.2569 L875.5208,236.2569 C880.7292,236.2569 880.7292,254.2694 880.7292,254.2694 C880.7292,254.2694 880.7292,272.2819 875.5208,272.2819 L789.0625,272.2819 C783.8542,272.2819 783.8542,254.2694 783.8542,254.2694 C783.8542,254.2694 783.8542,236.2569 789.0625,236.2569 " fill="#000000" style="stroke: #55B2DE; stroke-width: 1.5625;"/><path d="M875.5208,236.2569 C870.3125,236.2569 870.3125,254.2694 870.3125,254.2694 C870.3125,272.2819 875.5208,272.2819 875.5208,272.2819 " fill="none" style="stroke: #55B2DE; stroke-width: 1.5625;"/><text fill="#2A9FD6" font-family="Verdana" font-size="12.5" lengthAdjust="spacingAndGlyphs" textLength="65.625" x="794.2708" y="259.2407">My Queue</text><!--MD5=[db0b4290d55c456da6f1e605315daa68]
entity My Interface--><ellipse cx="971.875" cy="254.4861" fill="#000000" rx="8.3333" ry="8.3333" style="stroke: #CC0000; stroke-width: 2.0833333333333335;"/><text fill="#ADAFAE" font-family="Verdana" font-size="12.5" lengthAdjust="spacingAndGlyphs" textLength="81.25" x="931.25" y="289.9699">My Interface</text><!--MD5=[c42dbb279bb2c76edeffd08640135261]
entity My Card--><rect fill="#000000" height="31.8583" rx="4.1667" ry="4.1667" style="stroke: #9933CC; stroke-width: 1.5625;" width="84.375" x="1063.0208" y="238.3403"/><text fill="#9933CC" font-family="Verdana" font-size="12.5" lengthAdjust="spacingAndGlyphs" textLength="53.125" x="1078.6458" y="259.2407">My Card</text><!--MD5=[4552e0ab931d4db86ba1ccdf7169c968]
entity My File--><path d="M794.7917,394.0694 L794.7917,432.1777 A4.1667,4.1667 0 0 0 798.9583,436.3444 L865.625,436.3444 A4.1667,4.1667 0 0 0 869.7917,432.1777 L869.7917,400.3194 L859.375,389.9028 L798.9583,389.9028 A4.1667,4.1667 0 0 0 794.7917,394.0694 " fill="#000000" style="stroke: #555555; stroke-width: 1.5625;"/><path d="M859.375,389.9028 L859.375,396.1528 A4.1667,4.1667 0 0 0 863.5417,400.3194 L869.7917,400.3194 " fill="#000000" style="stroke: #555555; stroke-width: 1.5625;"/><text fill="#555555" font-family="Verdana" font-size="12.5" lengthAdjust="spacingAndGlyphs" textLength="43.75" x="810.4167" y="418.0949">My File</text><!--MD5=[5a51615613d2b2569e36ac803df4b251]
entity My Stack--><rect fill="#000000" height="46.4417" rx="4.1667" ry="4.1667" style="stroke: none; stroke-width: 1.5625;" width="88.5417" x="922.3958" y="389.9028"/><path d="M906.7708,389.9028 L918.2292,389.9028 A4.1667,4.1667 0 0 1 922.3958,394.0694 L922.3958,432.1777 A4.1667,4.1667 0 0 0 926.5625,436.3444 L1006.7708,436.3444 A4.1667,4.1667 0 0 0 1010.9375,432.1777 L1010.9375,394.0694 A4.1667,4.1667 0 0 1 1015.1042,389.9028 L1026.5625,389.9028 " fill="none" style="stroke: #55B2DE; stroke-width: 1.5625;"/><text fill="#2A9FD6" font-family="Verdana" font-size="12.5" lengthAdjust="spacingAndGlyphs" textLength="57.2917" x="938.0208" y="418.0949">My Stack</text><!--MD5=[46d996859f59e5baf77956ce93023cee]
link HTTP to First Component--><path d="M515.3775,128.4444 C503.3792,128.4444 491.3807,128.4444 479.3823,128.4444 " fill="none" id="HTTP-First Component" style="stroke: #2A9FD6; stroke-width: 3.125;"/><!--MD5=[1966a42bb49d59057147dbda06282f4b]
link FTP to Second Component--><path d="M386.9303,254.4861 C399.034,254.4861 411.1376,254.4861 423.2411,254.4861 " fill="none" id="FTP-Second Component" style="stroke: #2A9FD6; stroke-width: 3.125;"/><!--MD5=[d3aefbd8005e27b21e7ce98ddd948193]
link First Component to FTP--><path d="M403.3011,152.1519 C396.699,177.9219 386.3556,218.2941 380.8413,239.818 " fill="none" id="First Component-&gt;FTP" style="stroke: #2A9FD6; stroke-width: 3.125;"/><polygon fill="#2A9FD6" points="379.5486,244.8636,385.9118,236.8161,380.8413,239.8182,377.8392,234.7478,379.5486,244.8636" style="stroke: #2A9FD6; stroke-width: 3.125;"/><!--MD5=[efc1ffe8b578a0fb156c7bce303319bb]
link Another Component to Example 1--><path d="M656.064,152.1519 C658.6501,173.0137 662.4226,203.445 665.1814,225.6994 " fill="none" id="Another Component-&gt;Example 1" style="stroke: #2A9FD6; stroke-width: 3.125;"/><polygon fill="#2A9FD6" points="665.8243,230.8849,668.8056,221.0685,665.1834,225.7162,660.5356,222.0939,665.8243,230.8849" style="stroke: #2A9FD6; stroke-width: 3.125;"/><!--MD5=[7ec8393a78a133520e8846dd05a7857a]
link Example 1 to Folder 3--><path d="M668.75,277.9256 C668.75,306.1997 668.75,353.7328 668.75,384.3024 " fill="none" id="Example 1-&gt;Folder 3" style="stroke: #2A9FD6; stroke-width: 3.125;"/><polygon fill="#2A9FD6" points="668.75,389.8046,672.9167,380.4296,668.75,384.5963,664.5833,380.4296,668.75,389.8046" style="stroke: #2A9FD6; stroke-width: 3.125;"/><!--MD5=[b96c7096199393c1414a8b4e9ed2c30f]
link Folder 3 to Frame 4--><path d="M668.75,436.8039 C668.75,453.4143 668.75,475.8041 668.75,493.5621 " fill="none" id="Folder 3-&gt;Frame 4" style="stroke: #2A9FD6; stroke-width: 3.125;"/><polygon fill="#2A9FD6" points="668.75,498.913,672.9167,489.538,668.75,493.7046,664.5833,489.538,668.75,498.913" style="stroke: #2A9FD6; stroke-width: 3.125;"/><!--MD5=[83be288af14fde8a86007c2b011fac4a]
link MyCollection2 to My Artifact--><!--MD5=[b21a3c93c2a22c7ef4934ace81b9a2fe]
link My Artifact to My Storage--><!--MD5=[6ba35b42f782a962813221ea03178716]
link MyCollection2 to My Queue--><!--MD5=[0babb46f3d0f67f91c828a5eda35ab7d]
link My Queue to My Interface--><!--MD5=[9bfee3aea78949ae207e8bd3b67fed50]
link My Interface to My Card--><!--MD5=[afe9315598834b0b9f57a7a5b2c7ee2a]
link My Queue to My File--><!--MD5=[f6296be58d13482500ae3b999db2843f]
link My File to My Stack--><!--MD5=[714a8c0d28d51375b06e6f7c378d47c7]
@startuml



skinparam backgroundColor black







skinparam defaultFontName       "Verdana"
skinparam defaultFontSize       12
skinparam dpi                   100
skinparam shadowing             false
skinparam roundcorner           8
skinparam ParticipantPadding    40
skinparam BoxPadding            40
skinparam Padding               5
skinparam ArrowColor            #ADAFAE
skinparam stereotype {
    CBackgroundColor #777777
    CBorderColor #444444
    ABackgroundColor #5F8F00
    ABorderColor #92C233
    IBackgroundColor #a30000
    IBorderColor #D63333
    EBackgroundColor #cc6d00
    EBorderColor #FFA033
    NBackgroundColor #7a29a3
    NBorderColor #AD5CD6
}
skinparam title {
	FontColor	                 #2A9FD6
	BorderColor	                 #777777
	FontSize	    	         20
	BorderRoundCorner            8
	BorderThickness 	         1
	BackgroundColor              black
}

skinparam legend {
	BackgroundColor black
	BorderColor #777777
	FontColor #ADAFAE
}


skinparam activity {
		FontColor #2A9FD6
	BorderColor #55B2DE
	BackgroundColor black
	BarColor #77B300
	StartColor #9933CC
	EndColor #9933CC
	DiamondBackgroundColor black
  	DiamondBorderColor #777777
  	DiamondFontColor #777777
}


skinparam participant {
		FontColor #2A9FD6
	BorderColor #55B2DE
	BackgroundColor black
	ParticipantBorderThickness 2
}


skinparam actor {
		FontColor #2A9FD6
	BorderColor #55B2DE
	BackgroundColor black
	FontColor #2A9FD6
}


skinparam arrow {
	Thickness 3
	Color #2A9FD6
	FontColor #FFF
}


skinparam sequence {
	BorderColor #2A9FD6
	TitleFontColor #2A9FD6
	BackgroundColor black
	StartColor #2A9FD6
	EndColor #2A9FD6
	BoxBackgroundColor black
	BoxBorderColor #ADAFAE
	BoxFontColor $DARk
	LifeLineBorderColor #555
	LifeLineBorderThickness 2
	LifeLineBackgroundColor black
	GroupBorderColor #ADAFAE
	GroupFontColor #ADAFAE
	GroupHeaderFontColor #9933CC
	GroupBackgroundColor black
	GroupHeaderBackgroundColor black
	DividerBackgroundColor black
    DividerBorderColor #ADAFAE
    DividerBorderThickness 2
    DividerFontColor #ADAFAE
	ReferenceBackgroundColor black
	ReferenceBorderColor #ADAFAE
	ReferenceFontColor #ADAFAE
	ReferenceHeaderFontColor #9933CC
	ReferenceHeaderBackgroundColor black
}


skinparam partition {
	BorderColor #2A9FD6
	FontColor #2A9FD6
	BackgroundColor black
}


skinparam collections {
		FontColor #2A9FD6
	BorderColor #55B2DE
	BackgroundColor black
}


skinparam control {
		FontColor #2A9FD6
	BorderColor #55B2DE
	BackgroundColor black
	FontColor #2A9FD6
}


skinparam entity {
		FontColor #2A9FD6
	BorderColor #55B2DE
	BackgroundColor black
	FontColor #2A9FD6
}


skinparam boundary {
		FontColor #2A9FD6
	BorderColor #55B2DE
	BackgroundColor black
	FontColor #2A9FD6
}


skinparam agent {
	BackgroundColor black
	BorderColor #cc6d00
	FontColor #ADAFAE
}


skinparam note {
	BorderThickness 1
	BackgroundColor black
	BorderColor #AD5CD6
	FontColor #AD5CD6
}


skinparam artifact {
	BackgroundColor black
	BorderColor #BDBFBE
	FontColor #BDBFBE
}


skinparam component {
		FontColor #2A9FD6
	BorderColor #55B2DE
	BackgroundColor black
}


skinparam interface {
	BackgroundColor  black
	BorderColor  #CC0000
	FontColor #ADAFAE
}


skinparam storage {
	BackgroundColor black
  	BorderColor #FFA033
	FontColor #FF8800
}


skinparam node {
	BackgroundColor  black
	BorderColor #ADAFAE
	FontColor #ADAFAE
}


skinparam cloud {
	BackgroundColor black
	BorderColor #F2FCFE
	FontColor #ADAFAE
}


skinparam database {
		FontColor #2A9FD6
	BorderColor #55B2DE
	BackgroundColor black
	FontColor #2A9FD6
}



skinparam class {
		FontColor #2A9FD6
	BorderColor #55B2DE
	BackgroundColor black
	HeaderBackgroundColor #227FAB
	StereotypeFontColor #ADAFAE
	BorderThickness 1
	AttributeFontColor #ADAFAE
	AttributeFontSize 11
}


skinparam object {
		FontColor #2A9FD6
	BorderColor #55B2DE
	BackgroundColor black
	StereotypeFontColor #ADAFAE
	BorderThickness 1
	AttributeFontColor #777777
	AttributeFontSize 11
}


skinparam usecase {
		FontColor #2A9FD6
	BorderColor #55B2DE
	BackgroundColor black
	BorderThickness 2
	StereotypeFontColor #2A9FD6
}


skinparam rectangle {
		FontColor #2A9FD6
	BorderColor #55B2DE
	BackgroundColor black
	BorderThickness 2
	StereotypeFontColor #2A9FD6
}


skinparam package {
	BackgroundColor black
  	BorderColor #2A9FD6
	FontColor #2A9FD6
	BorderThickness 2
}


skinparam folder {
	BackgroundColor black
  	BorderColor #FF8800
	FontColor #FF8800
	BorderThickness 2
}


skinparam frame {
	BackgroundColor black
  	BorderColor #9933CC
	FontColor #9933CC
	BorderThickness 2
}


skinparam state {
		FontColor #2A9FD6
	BorderColor #55B2DE
	BackgroundColor black
	StartColor #9933CC
	EndColor #9933CC
	AttributeFontColor #777777
	AttributeFontSize 11
}


skinparam queue {
		FontColor #2A9FD6
	BorderColor #55B2DE
	BackgroundColor black
}


skinparam card {
	BackgroundColor black
	BorderColor #9933CC
	FontColor #9933CC
}


skinparam file {
	BackgroundColor black
	BorderColor #555
	FontColor #555
}


skinparam stack {
		FontColor #2A9FD6
	BorderColor #55B2DE
	BackgroundColor black
}

title Component Diagram - cyborg-outline theme


package "My Package" {
  HTTP - [First Component]
  [Another Component]
  rectangle MyRectangle1
  collections MyCollection1
}
 
node "My Node" {
  FTP - [Second Component]
  [First Component] - -> FTP
  rectangle MyRectangle2
} 

cloud "My Cloud" {
  [Example 1]
}

collections MyCollection2

database "My Database" {
  folder "My folder" {
	[Folder 3]
  }
  frame "My Frame" {
	[Frame 4]
  }
}

artifact "My Artifact"
storage "My Storage"
queue "My Queue"
interface "My Interface"
card "My Card"
file "My File"
stack "My Stack"

[Another Component] - -> [Example 1]
[Example 1] - -> [Folder 3]
[Folder 3] - -> [Frame 4]

@enduml

PlantUML version 1.2020.08(Sun Apr 26 07:08:22 PDT 2020)
(GPL source distribution)
Java Runtime: OpenJDK Runtime Environment
JVM: OpenJDK 64-Bit Server VM
Java Version: 11.0.8+10-post-Ubuntu-0ubuntu118.04.1
Operating System: Linux
Default Encoding: UTF-8
Language: en
Country: US
--></g></svg>