<?xml version="1.0" encoding="UTF-8" standalone="no"?><svg xmlns="http://www.w3.org/2000/svg" xmlns:xlink="http://www.w3.org/1999/xlink" contentScriptType="application/ecmascript" contentStyleType="text/css" height="1242.7083px" preserveAspectRatio="none" style="width:1051px;height:1242px;background:#000000;" version="1.1" viewBox="0 0 1051 1242" width="1051.0417px" zoomAndPan="magnify"><defs/><g><rect fill="none" height="39.9028" rx="4.1667" ry="4.1667" style="stroke: none; stroke-width: 1.0416666666666667;" width="515.625" x="262.5" y="30.8167"/><text fill="#ADAFAE" font-family="Verdana" font-size="20.8333" font-weight="bold" lengthAdjust="spacingAndGlyphs" textLength="494.7917" x="272.9167" y="59.0535">Sequence Diagram - cyborg-outline theme</text><rect fill="#000000" height="1129.8828" rx="4.1667" ry="4.1667" style="stroke: #ADAFAE; stroke-width: 1.0416666666666667;" width="214.5833" x="786.4583" y="82.1777"/><text fill="#FFFFFF" font-family="Verdana" font-size="12.5" font-weight="bold" lengthAdjust="spacingAndGlyphs" textLength="111.4583" x="838.0208" y="96.8282">Internal Service</text><rect fill="#000000" height="205.2999" style="stroke: #555555; stroke-width: 1.0416666666666667;" width="10.4167" x="364.0625" y="310.6527"/><rect fill="#000000" height="387.6831" rx="4.1667" ry="4.1667" style="stroke: #ADAFAE; stroke-width: 2.0833333333333335;" width="1014.5833" x="13.5417" y="647.9858"/><rect fill="#000000" height="199.0499" style="stroke: none; stroke-width: 1.0416666666666667;" width="1014.5833" x="13.5417" y="781.2358"/><rect fill="#000000" height="95.1416" rx="4.1667" ry="4.1667" style="stroke: #ADAFAE; stroke-width: 2.0833333333333335;" width="993.75" x="23.9583" y="877.8524"/><rect fill="#000000" height="59.1166" rx="4.1667" ry="4.1667" style="stroke: #ADAFAE; stroke-width: 2.0833333333333335;" width="972.9167" x="34.375" y="906.5857"/><rect fill="#000000" height="55.3833" style="stroke: none; stroke-width: 1.0416666666666667;" width="1014.5833" x="13.5417" y="980.2856"/><line style="stroke: #555555; stroke-width: 1.0416666666666667;" x1="65.625" x2="65.625" y1="166.1194" y2="524.2859"/><line style="stroke: #555555; stroke-width: 1.0416666666666667; stroke-dasharray: 1.0,4.0;" x1="65.625" x2="65.625" y1="524.2859" y2="572.8109"/><line style="stroke: #555555; stroke-width: 1.0416666666666667;" x1="65.625" x2="65.625" y1="572.8109" y2="1123.9522"/><line style="stroke: #555555; stroke-width: 1.0416666666666667;" x1="226.0417" x2="226.0417" y1="166.1194" y2="524.2859"/><line style="stroke: #555555; stroke-width: 1.0416666666666667; stroke-dasharray: 1.0,4.0;" x1="226.0417" x2="226.0417" y1="524.2859" y2="572.8109"/><line style="stroke: #555555; stroke-width: 1.0416666666666667;" x1="226.0417" x2="226.0417" y1="572.8109" y2="1123.9522"/><line style="stroke: #555555; stroke-width: 1.0416666666666667;" x1="368.75" x2="368.75" y1="166.1194" y2="524.2859"/><line style="stroke: #555555; stroke-width: 1.0416666666666667; stroke-dasharray: 1.0,4.0;" x1="368.75" x2="368.75" y1="524.2859" y2="572.8109"/><line style="stroke: #555555; stroke-width: 1.0416666666666667;" x1="368.75" x2="368.75" y1="572.8109" y2="1123.9522"/><line style="stroke: #555555; stroke-width: 1.0416666666666667;" x1="509.375" x2="509.375" y1="166.1194" y2="524.2859"/><line style="stroke: #555555; stroke-width: 1.0416666666666667; stroke-dasharray: 1.0,4.0;" x1="509.375" x2="509.375" y1="524.2859" y2="572.8109"/><line style="stroke: #555555; stroke-width: 1.0416666666666667;" x1="509.375" x2="509.375" y1="572.8109" y2="1123.9522"/><line style="stroke: #555555; stroke-width: 1.0416666666666667;" x1="669.7917" x2="669.7917" y1="166.1194" y2="524.2859"/><line style="stroke: #555555; stroke-width: 1.0416666666666667; stroke-dasharray: 1.0,4.0;" x1="669.7917" x2="669.7917" y1="524.2859" y2="572.8109"/><line style="stroke: #555555; stroke-width: 1.0416666666666667;" x1="669.7917" x2="669.7917" y1="572.8109" y2="1123.9522"/><line style="stroke: #555555; stroke-width: 1.0416666666666667;" x1="739.5833" x2="739.5833" y1="166.1194" y2="524.2859"/><line style="stroke: #555555; stroke-width: 1.0416666666666667; stroke-dasharray: 1.0,4.0;" x1="739.5833" x2="739.5833" y1="524.2859" y2="572.8109"/><line style="stroke: #555555; stroke-width: 1.0416666666666667;" x1="739.5833" x2="739.5833" y1="572.8109" y2="1123.9522"/><line style="stroke: #555555; stroke-width: 1.0416666666666667;" x1="822.9167" x2="822.9167" y1="166.1194" y2="524.2859"/><line style="stroke: #555555; stroke-width: 1.0416666666666667; stroke-dasharray: 1.0,4.0;" x1="822.9167" x2="822.9167" y1="524.2859" y2="572.8109"/><line style="stroke: #555555; stroke-width: 1.0416666666666667;" x1="822.9167" x2="822.9167" y1="572.8109" y2="1123.9522"/><line style="stroke: #555555; stroke-width: 1.0416666666666667;" x1="931.25" x2="931.25" y1="166.1194" y2="524.2859"/><line style="stroke: #555555; stroke-width: 1.0416666666666667; stroke-dasharray: 1.0,4.0;" x1="931.25" x2="931.25" y1="524.2859" y2="572.8109"/><line style="stroke: #555555; stroke-width: 1.0416666666666667;" x1="931.25" x2="931.25" y1="572.8109" y2="1123.9522"/><text fill="#ADAFAE" font-family="Verdana" font-size="12.5" lengthAdjust="spacingAndGlyphs" textLength="32.2917" x="46.875" y="161.4115">Foo1</text><ellipse cx="66.1458" cy="91.5527" fill="#000000" rx="8.3333" ry="8.3333" style="stroke: #2A9FD6; stroke-width: 2.0833333333333335;"/><path d="M66.1458,99.8861 L66.1458,128.0111 M52.6042,108.2194 L79.6875,108.2194 M66.1458,128.0111 L52.6042,143.6361 M66.1458,128.0111 L79.6875,143.6361 " fill="none" style="stroke: #2A9FD6; stroke-width: 2.0833333333333335;"/><text fill="#ADAFAE" font-family="Verdana" font-size="12.5" lengthAdjust="spacingAndGlyphs" textLength="32.2917" x="46.875" y="1137.561">Foo1</text><ellipse cx="66.1458" cy="1152.6855" fill="#000000" rx="8.3333" ry="8.3333" style="stroke: #2A9FD6; stroke-width: 2.0833333333333335;"/><path d="M66.1458,1161.0189 L66.1458,1189.1439 M52.6042,1169.3522 L79.6875,1169.3522 M66.1458,1189.1439 L52.6042,1204.7689 M66.1458,1189.1439 L79.6875,1204.7689 " fill="none" style="stroke: #2A9FD6; stroke-width: 2.0833333333333335;"/><text fill="#ADAFAE" font-family="Verdana" font-size="12.5" lengthAdjust="spacingAndGlyphs" textLength="32.2917" x="207.2917" y="161.4115">Foo2</text><path d="M205.2083,117.5944 L205.2083,142.5944 M205.2083,130.0944 L222.9167,130.0944 " fill="none" style="stroke: #55B2DE; stroke-width: 2.0833333333333335;"/><ellipse cx="235.4167" cy="130.0944" fill="#000000" rx="12.5" ry="12.5" style="stroke: #55B2DE; stroke-width: 2.0833333333333335;"/><text fill="#ADAFAE" font-family="Verdana" font-size="12.5" lengthAdjust="spacingAndGlyphs" textLength="32.2917" x="207.2917" y="1137.561">Foo2</text><path d="M205.2083,1146.4355 L205.2083,1171.4355 M205.2083,1158.9355 L222.9167,1158.9355 " fill="none" style="stroke: #55B2DE; stroke-width: 2.0833333333333335;"/><ellipse cx="235.4167" cy="1158.9355" fill="#000000" rx="12.5" ry="12.5" style="stroke: #55B2DE; stroke-width: 2.0833333333333335;"/><text fill="#ADAFAE" font-family="Verdana" font-size="12.5" lengthAdjust="spacingAndGlyphs" textLength="32.2917" x="350" y="161.4115">Foo3</text><ellipse cx="369.2708" cy="130.0944" fill="#000000" rx="12.5" ry="12.5" style="stroke: #55B2DE; stroke-width: 2.0833333333333335;"/><polygon fill="#55B2DE" points="365.1042,117.5944,371.3542,112.3861,369.2708,117.5944,371.3542,122.8027,365.1042,117.5944" style="stroke: #55B2DE; stroke-width: 1.0416666666666667;"/><text fill="#ADAFAE" font-family="Verdana" font-size="12.5" lengthAdjust="spacingAndGlyphs" textLength="32.2917" x="350" y="1137.561">Foo3</text><ellipse cx="369.2708" cy="1158.9355" fill="#000000" rx="12.5" ry="12.5" style="stroke: #55B2DE; stroke-width: 2.0833333333333335;"/><polygon fill="#55B2DE" points="365.1042,1146.4355,371.3542,1141.2272,369.2708,1146.4355,371.3542,1151.6439,365.1042,1146.4355" style="stroke: #55B2DE; stroke-width: 1.0416666666666667;"/><text fill="#ADAFAE" font-family="Verdana" font-size="12.5" lengthAdjust="spacingAndGlyphs" textLength="32.2917" x="490.625" y="161.4115">Foo4</text><ellipse cx="509.8958" cy="130.0944" fill="#000000" rx="12.5" ry="12.5" style="stroke: #55B2DE; stroke-width: 2.0833333333333335;"/><line style="stroke: #55B2DE; stroke-width: 2.0833333333333335;" x1="497.3958" x2="522.3958" y1="144.6777" y2="144.6777"/><text fill="#ADAFAE" font-family="Verdana" font-size="12.5" lengthAdjust="spacingAndGlyphs" textLength="32.2917" x="490.625" y="1137.561">Foo4</text><ellipse cx="509.8958" cy="1158.9355" fill="#000000" rx="12.5" ry="12.5" style="stroke: #55B2DE; stroke-width: 2.0833333333333335;"/><line style="stroke: #55B2DE; stroke-width: 2.0833333333333335;" x1="497.3958" x2="522.3958" y1="1173.5189" y2="1173.5189"/><text fill="#ADAFAE" font-family="Verdana" font-size="12.5" lengthAdjust="spacingAndGlyphs" textLength="32.2917" x="651.0417" y="161.4115">Foo5</text><path d="M651.5625,109.2611 C651.5625,98.8444 670.3125,98.8444 670.3125,98.8444 C670.3125,98.8444 689.0625,98.8444 689.0625,109.2611 L689.0625,136.3444 C689.0625,146.7611 670.3125,146.7611 670.3125,146.7611 C670.3125,146.7611 651.5625,146.7611 651.5625,136.3444 L651.5625,109.2611 " fill="#000000" style="stroke: #55B2DE; stroke-width: 1.5625;"/><path d="M651.5625,109.2611 C651.5625,119.6777 670.3125,119.6777 670.3125,119.6777 C670.3125,119.6777 689.0625,119.6777 689.0625,109.2611 " fill="none" style="stroke: #55B2DE; stroke-width: 1.5625;"/><text fill="#ADAFAE" font-family="Verdana" font-size="12.5" lengthAdjust="spacingAndGlyphs" textLength="32.2917" x="651.0417" y="1137.561">Foo5</text><path d="M651.5625,1152.6855 C651.5625,1142.2689 670.3125,1142.2689 670.3125,1142.2689 C670.3125,1142.2689 689.0625,1142.2689 689.0625,1152.6855 L689.0625,1179.7689 C689.0625,1190.1855 670.3125,1190.1855 670.3125,1190.1855 C670.3125,1190.1855 651.5625,1190.1855 651.5625,1179.7689 L651.5625,1152.6855 " fill="#000000" style="stroke: #55B2DE; stroke-width: 1.5625;"/><path d="M651.5625,1152.6855 C651.5625,1163.1022 670.3125,1163.1022 670.3125,1163.1022 C670.3125,1163.1022 689.0625,1163.1022 689.0625,1152.6855 " fill="none" style="stroke: #55B2DE; stroke-width: 1.5625;"/><rect fill="#000000" height="33.9417" rx="4.1667" ry="4.1667" style="stroke: #55B2DE; stroke-width: 1.5625;" width="51.0417" x="716.6667" y="126.9694"/><rect fill="#000000" height="33.9417" rx="4.1667" ry="4.1667" style="stroke: #55B2DE; stroke-width: 1.5625;" width="51.0417" x="712.5" y="131.1361"/><text fill="#2A9FD6" font-family="Verdana" font-size="12.5" lengthAdjust="spacingAndGlyphs" textLength="32.2917" x="721.875" y="153.0782">Foo6</text><rect fill="#000000" height="33.9417" rx="4.1667" ry="4.1667" style="stroke: #55B2DE; stroke-width: 1.5625;" width="51.0417" x="716.6667" y="1122.9106"/><rect fill="#000000" height="33.9417" rx="4.1667" ry="4.1667" style="stroke: #55B2DE; stroke-width: 1.5625;" width="51.0417" x="712.5" y="1127.0772"/><text fill="#2A9FD6" font-family="Verdana" font-size="12.5" lengthAdjust="spacingAndGlyphs" textLength="32.2917" x="721.875" y="1149.0194">Foo6</text><rect fill="#000000" height="33.9417" rx="4.1667" ry="4.1667" style="stroke: #2A9FD6; stroke-width: 1.0416666666666667;" width="43.75" x="801.0417" y="131.1361"/><text fill="#2A9FD6" font-family="Verdana" font-size="12.5" lengthAdjust="spacingAndGlyphs" textLength="25" x="810.4167" y="153.0782">Bob</text><rect fill="#000000" height="33.9417" rx="4.1667" ry="4.1667" style="stroke: #2A9FD6; stroke-width: 1.0416666666666667;" width="43.75" x="801.0417" y="1122.9106"/><text fill="#2A9FD6" font-family="Verdana" font-size="12.5" lengthAdjust="spacingAndGlyphs" textLength="25" x="810.4167" y="1144.8527">Bob</text><rect fill="#000000" height="44.9666" rx="4.1667" ry="4.1667" style="stroke: #2A9FD6; stroke-width: 1.0416666666666667;" width="110.4167" x="876.0417" y="120.1111"/><ellipse cx="893.75" cy="137.8194" fill="#ADD1B2" rx="10.4167" ry="10.4167" style="stroke: #2A9FD6; stroke-width: 1.0416666666666667;"/><path d="M895.6543,142.2465 Q895.2311,142.4581 894.7591,142.572 Q894.2871,142.686 893.7826,142.686 Q891.9271,142.686 890.9505,141.4815 Q889.9902,140.2608 889.9902,137.9659 Q889.9902,135.6547 890.9505,134.4503 Q891.9271,133.2296 893.7826,133.2296 Q894.2871,133.2296 894.7591,133.3435 Q895.2474,133.4412 895.6543,133.669 L895.6543,135.671 Q895.1986,135.2478 894.7591,135.0525 Q894.3197,134.8409 893.8639,134.8409 Q892.8711,134.8409 892.3665,135.6384 Q891.862,136.4197 891.862,137.9659 Q891.862,139.4958 892.3665,140.2771 Q892.8711,141.0583 893.8639,141.0583 Q894.3197,141.0583 894.7591,140.863 Q895.1986,140.6677 895.6543,140.2445 L895.6543,142.2465 Z "/><text fill="#2A9FD6" font-family="Verdana" font-size="12.5" font-style="italic" lengthAdjust="spacingAndGlyphs" textLength="68.75" x="910.4167" y="139.9028">«Testable»</text><text fill="#2A9FD6" font-family="Verdana" font-size="12.5" lengthAdjust="spacingAndGlyphs" textLength="29.1667" x="930.2083" y="155.0944">Alice</text><rect fill="#000000" height="44.9666" rx="4.1667" ry="4.1667" style="stroke: #2A9FD6; stroke-width: 1.0416666666666667;" width="110.4167" x="876.0417" y="1122.9106"/><ellipse cx="893.75" cy="1140.6189" fill="#ADD1B2" rx="10.4167" ry="10.4167" style="stroke: #2A9FD6; stroke-width: 1.0416666666666667;"/><path d="M895.6543,1145.046 Q895.2311,1145.2576 894.7591,1145.3715 Q894.2871,1145.4854 893.7826,1145.4854 Q891.9271,1145.4854 890.9505,1144.281 Q889.9902,1143.0603 889.9902,1140.7654 Q889.9902,1138.4542 890.9505,1137.2498 Q891.9271,1136.0291 893.7826,1136.0291 Q894.2871,1136.0291 894.7591,1136.143 Q895.2474,1136.2406 895.6543,1136.4685 L895.6543,1138.4705 Q895.1986,1138.0473 894.7591,1137.852 Q894.3197,1137.6404 893.8639,1137.6404 Q892.8711,1137.6404 892.3665,1138.4379 Q891.862,1139.2192 891.862,1140.7654 Q891.862,1142.2953 892.3665,1143.0766 Q892.8711,1143.8578 893.8639,1143.8578 Q894.3197,1143.8578 894.7591,1143.6625 Q895.1986,1143.4672 895.6543,1143.044 L895.6543,1145.046 Z "/><text fill="#2A9FD6" font-family="Verdana" font-size="12.5" font-style="italic" lengthAdjust="spacingAndGlyphs" textLength="68.75" x="910.4167" y="1142.7022">«Testable»</text><text fill="#2A9FD6" font-family="Verdana" font-size="12.5" lengthAdjust="spacingAndGlyphs" textLength="29.1667" x="930.2083" y="1157.8939">Alice</text><rect fill="#000000" height="205.2999" style="stroke: #555555; stroke-width: 1.0416666666666667;" width="10.4167" x="364.0625" y="310.6527"/><rect fill="#000000" height="3.125" style="stroke: #000000; stroke-width: 1.0416666666666667;" width="1035.4167" x="3.125" y="199.7569"/><line style="stroke: #ADAFAE; stroke-width: 1.0416666666666667;" x1="3.125" x2="1038.5417" y1="199.7569" y2="199.7569"/><line style="stroke: #ADAFAE; stroke-width: 1.0416666666666667;" x1="3.125" x2="1038.5417" y1="202.8819" y2="202.8819"/><rect fill="#000000" height="27.6917" style="stroke: #ADAFAE; stroke-width: 2.0833333333333335;" width="109.375" x="466.1458" y="186.9527"/><text fill="#ADAFAE" font-family="Verdana" font-size="12.5" font-weight="bold" lengthAdjust="spacingAndGlyphs" textLength="86.4583" x="474.4792" y="205.7699">Initialization</text><polygon fill="#2A9FD6" points="214.0625,246.5027,224.4792,250.6694,214.0625,254.836,218.2292,250.6694" style="stroke: #2A9FD6; stroke-width: 1.0416666666666667;"/><line style="stroke: #2A9FD6; stroke-width: 3.125;" x1="66.1458" x2="220.3125" y1="250.6694" y2="250.6694"/><text fill="#000000" font-family="Verdana" font-size="12.5" font-weight="bold" lengthAdjust="spacingAndGlyphs" textLength="40.625" x="75.5208" y="243.8782">[001]</text><text fill="#000000" font-family="Verdana" font-size="12.5" lengthAdjust="spacingAndGlyphs" textLength="82.2917" x="124.4792" y="243.8782">To boundary</text><polygon fill="#2A9FD6" points="351.5625,306.486,361.9792,310.6527,351.5625,314.8193,355.7292,310.6527" style="stroke: #2A9FD6; stroke-width: 1.0416666666666667;"/><line style="stroke: #2A9FD6; stroke-width: 3.125;" x1="226.5625" x2="357.8125" y1="310.6527" y2="310.6527"/><text fill="#000000" font-family="Verdana" font-size="12.5" font-weight="bold" lengthAdjust="spacingAndGlyphs" textLength="40.625" x="235.9375" y="303.8615">[002]</text><text fill="#000000" font-family="Verdana" font-size="12.5" lengthAdjust="spacingAndGlyphs" textLength="64.5833" x="284.8958" y="303.8615">To control</text><rect fill="#000000" height="64.325" style="stroke: #ADAFAE; stroke-width: 2.0833333333333335;" width="209.375" x="485.4167" y="318.986"/><polygon fill="#EEEEEE" points="485.4167,318.986,556.25,318.986,556.25,329.4027,545.8333,339.8193,485.4167,339.8193,485.4167,318.986" style="stroke: #ADAFAE; stroke-width: 2.0833333333333335;"/><text fill="#9933CC" font-family="Verdana" font-size="12.5" font-weight="bold" lengthAdjust="spacingAndGlyphs" textLength="19.7917" x="501.0417" y="335.7198">ref</text><text fill="#ADAFAE" font-family="Verdana" font-size="12.5" lengthAdjust="spacingAndGlyphs" textLength="94.7917" x="542.7083" y="358.6365">This can be on</text><text fill="#ADAFAE" font-family="Verdana" font-size="12.5" lengthAdjust="spacingAndGlyphs" textLength="82.2917" x="542.7083" y="373.8281">several lines</text><polygon fill="#2A9FD6" points="497.3958,409.9609,507.8125,414.1276,497.3958,418.2943,501.5625,414.1276" style="stroke: #2A9FD6; stroke-width: 1.0416666666666667;"/><line style="stroke: #2A9FD6; stroke-width: 3.125;" x1="374.4792" x2="503.6458" y1="414.1276" y2="414.1276"/><text fill="#000000" font-family="Verdana" font-size="12.5" font-weight="bold" lengthAdjust="spacingAndGlyphs" textLength="40.625" x="383.8542" y="407.3364">[003]</text><text fill="#000000" font-family="Verdana" font-size="12.5" lengthAdjust="spacingAndGlyphs" textLength="57.2917" x="432.8125" y="407.3364">To entity</text><polygon fill="#2A9FD6" points="657.8125,443.9026,668.2292,448.0693,657.8125,452.2359,661.9792,448.0693" style="stroke: #2A9FD6; stroke-width: 1.0416666666666667;"/><line style="stroke: #2A9FD6; stroke-width: 3.125;" x1="509.8958" x2="664.0625" y1="448.0693" y2="448.0693"/><text fill="#000000" font-family="Verdana" font-size="12.5" font-weight="bold" lengthAdjust="spacingAndGlyphs" textLength="40.625" x="519.2708" y="441.2781">[004]</text><text fill="#000000" font-family="Verdana" font-size="12.5" lengthAdjust="spacingAndGlyphs" textLength="82.2917" x="568.2292" y="441.2781">To database</text><polygon fill="#2A9FD6" points="385.9375,477.8442,375.5208,482.0109,385.9375,486.1776,381.7708,482.0109" style="stroke: #2A9FD6; stroke-width: 1.0416666666666667;"/><line style="stroke: #2A9FD6; stroke-width: 3.125; stroke-dasharray: 2.0,2.0;" x1="379.6875" x2="669.2708" y1="482.0109" y2="482.0109"/><text fill="#000000" font-family="Verdana" font-size="12.5" font-weight="bold" lengthAdjust="spacingAndGlyphs" textLength="40.625" x="394.2708" y="475.2197">[005]</text><text fill="#000000" font-family="Verdana" font-size="12.5" lengthAdjust="spacingAndGlyphs" textLength="40.625" x="443.2292" y="475.2197">return</text><polygon fill="#2A9FD6" points="238.0208,511.7859,227.6042,515.9526,238.0208,520.1192,233.8542,515.9526" style="stroke: #2A9FD6; stroke-width: 1.0416666666666667;"/><line style="stroke: #2A9FD6; stroke-width: 3.125; stroke-dasharray: 2.0,2.0;" x1="231.7708" x2="368.2292" y1="515.9526" y2="515.9526"/><text fill="#000000" font-family="Verdana" font-size="12.5" font-weight="bold" lengthAdjust="spacingAndGlyphs" textLength="40.625" x="246.3542" y="509.1614">[006]</text><text fill="#000000" font-family="Verdana" font-size="12.5" lengthAdjust="spacingAndGlyphs" textLength="40.625" x="295.3125" y="509.1614">return</text><text fill="#000000" font-family="Verdana" font-size="12.5" lengthAdjust="spacingAndGlyphs" textLength="36.4583" x="444.5313" y="553.5197">Some</text><text fill="#000000" font-family="Verdana" font-size="12.5" lengthAdjust="spacingAndGlyphs" textLength="67.7083" x="485.1563" y="553.5197">long delay</text><text fill="#000000" font-family="Verdana" font-size="12.5" lengthAdjust="spacingAndGlyphs" textLength="0" x="557.0313" y="553.5197"/><polygon fill="#2A9FD6" points="727.6042,594.2525,738.0208,598.4192,727.6042,602.5859,731.7708,598.4192" style="stroke: #2A9FD6; stroke-width: 1.0416666666666667;"/><line style="stroke: #2A9FD6; stroke-width: 3.125;" x1="66.1458" x2="733.8542" y1="598.4192" y2="598.4192"/><text fill="#000000" font-family="Verdana" font-size="12.5" font-weight="bold" lengthAdjust="spacingAndGlyphs" textLength="40.625" x="75.5208" y="591.628">[007]</text><text fill="#000000" font-family="Verdana" font-size="12.5" lengthAdjust="spacingAndGlyphs" textLength="87.5" x="124.4792" y="591.628">To collections</text><polygon fill="#2A9FD6" points="521.3542,628.1942,510.9375,632.3608,521.3542,636.5275,517.1875,632.3608" style="stroke: #2A9FD6; stroke-width: 1.0416666666666667;"/><line style="stroke: #2A9FD6; stroke-width: 3.125; stroke-dasharray: 2.0,2.0;" x1="515.1042" x2="739.0625" y1="632.3608" y2="632.3608"/><text fill="#000000" font-family="Verdana" font-size="12.5" font-weight="bold" lengthAdjust="spacingAndGlyphs" textLength="40.625" x="529.6875" y="625.5697">[008]</text><text fill="#77B300" font-family="Verdana" font-size="12.5" font-weight="bold" lengthAdjust="spacingAndGlyphs" textLength="53.125" x="578.6458" y="625.5697">success</text><path d="M17.7083,647.9858 L82.2917,647.9858 L82.2917,658.4025 L71.875,668.8192 L13.5417,668.8192 L13.5417,652.1525 " fill="#EEEEEE" style="stroke: #ADAFAE; stroke-width: 1.0416666666666667;"/><rect fill="none" height="387.6831" rx="4.1667" ry="4.1667" style="stroke: #ADAFAE; stroke-width: 2.0833333333333335;" width="1014.5833" x="13.5417" y="647.9858"/><text fill="#9933CC" font-family="Verdana" font-size="12.5" font-weight="bold" lengthAdjust="spacingAndGlyphs" textLength="17.7083" x="31.25" y="663.678">alt</text><text fill="#ADAFAE" font-family="Verdana" font-size="12.5" font-weight="bold" lengthAdjust="spacingAndGlyphs" textLength="118.75" x="100" y="664.7196">[successful case]</text><polygon fill="#2A9FD6" points="918.75,694.6025,929.1667,698.7691,918.75,702.9358,922.9167,698.7691" style="stroke: #2A9FD6; stroke-width: 1.0416666666666667;"/><line style="stroke: #2A9FD6; stroke-width: 3.125;" x1="66.1458" x2="925" y1="698.7691" y2="698.7691"/><text fill="#000000" font-family="Verdana" font-size="12.5" font-weight="bold" lengthAdjust="spacingAndGlyphs" textLength="40.625" x="75.5208" y="691.9779">[009]</text><text fill="#000000" font-family="Verdana" font-size="12.5" lengthAdjust="spacingAndGlyphs" textLength="158.3333" x="124.4792" y="691.9779">Authentication Accepted</text><polygon fill="#2A9FD6" points="77.6042,728.5441,67.1875,732.7108,77.6042,736.8774,73.4375,732.7108" style="stroke: #2A9FD6; stroke-width: 1.0416666666666667;"/><line style="stroke: #2A9FD6; stroke-width: 3.125; stroke-dasharray: 2.0,2.0;" x1="71.3542" x2="930.2083" y1="732.7108" y2="732.7108"/><text fill="#000000" font-family="Verdana" font-size="12.5" font-weight="bold" lengthAdjust="spacingAndGlyphs" textLength="40.625" x="85.9375" y="725.9196">[010]</text><text fill="#000000" font-family="Verdana" font-size="12.5" lengthAdjust="spacingAndGlyphs" textLength="51.0417" x="134.8958" y="725.9196">success</text><path d="M785.4167,750.4191 L785.4167,771.2524 A4.1667,4.1667 0 0 0 789.5833,775.4191 L921.875,775.4191 A4.1667,4.1667 0 0 0 926.0417,771.2524 L926.0417,756.6691 L915.625,746.2524 L789.5833,746.2524 A4.1667,4.1667 0 0 0 785.4167,750.4191 " fill="#000000" style="stroke: #AD5CD6; stroke-width: 1.0416666666666667;"/><path d="M915.625,746.2524 L915.625,754.5858 A2.0833,2.0833 0 0 0 917.7083,756.6691 L926.0417,756.6691 L915.625,746.2524 " fill="#000000" style="stroke: #AD5CD6; stroke-width: 1.0416666666666667;"/><text fill="#AD5CD6" font-family="Verdana" font-size="12.5" lengthAdjust="spacingAndGlyphs" textLength="114.5833" x="793.75" y="766.1112">this is a first note</text><line style="stroke: #ADAFAE; stroke-width: 1.0416666666666667; stroke-dasharray: 2.0,2.0;" x1="13.5417" x2="1028.125" y1="782.2774" y2="782.2774"/><text fill="#ADAFAE" font-family="Verdana" font-size="12.5" font-weight="bold" lengthAdjust="spacingAndGlyphs" textLength="148.9583" x="20.8333" y="796.9279">[some kind of failure]</text><polygon fill="#2A9FD6" points="918.75,824.1191,929.1667,828.2857,918.75,832.4524,922.9167,828.2857" style="stroke: #2A9FD6; stroke-width: 1.0416666666666667;"/><line style="stroke: #2A9FD6; stroke-width: 3.125;" x1="66.1458" x2="925" y1="828.2857" y2="828.2857"/><text fill="#000000" font-family="Verdana" font-size="12.5" font-weight="bold" lengthAdjust="spacingAndGlyphs" textLength="40.625" x="75.5208" y="821.4945">[011]</text><text fill="#000000" font-family="Verdana" font-size="12.5" lengthAdjust="spacingAndGlyphs" textLength="142.7083" x="124.4792" y="821.4945">Authentication Failure</text><polygon fill="#2A9FD6" points="77.6042,858.0607,67.1875,862.2274,77.6042,866.394,73.4375,862.2274" style="stroke: #2A9FD6; stroke-width: 1.0416666666666667;"/><line style="stroke: #2A9FD6; stroke-width: 3.125; stroke-dasharray: 2.0,2.0;" x1="71.3542" x2="930.2083" y1="862.2274" y2="862.2274"/><text fill="#000000" font-family="Verdana" font-size="12.5" font-weight="bold" lengthAdjust="spacingAndGlyphs" textLength="40.625" x="85.9375" y="855.4362">[012]</text><text fill="#CC0000" font-family="Verdana" font-size="12.5" font-weight="bold" lengthAdjust="spacingAndGlyphs" textLength="82.2917" x="134.8958" y="855.4362">Bad request</text><path d="M28.125,877.8524 L165.625,877.8524 L165.625,888.269 L155.2083,898.6857 L23.9583,898.6857 L23.9583,882.019 " fill="#EEEEEE" style="stroke: #ADAFAE; stroke-width: 1.0416666666666667;"/><rect fill="none" height="95.1416" rx="4.1667" ry="4.1667" style="stroke: #ADAFAE; stroke-width: 2.0833333333333335;" width="993.75" x="23.9583" y="877.8524"/><text fill="#9933CC" font-family="Verdana" font-size="12.5" font-weight="bold" lengthAdjust="spacingAndGlyphs" textLength="90.625" x="41.6667" y="893.5445">My own label</text><path d="M38.5417,906.5857 L114.5833,906.5857 L114.5833,917.0024 L104.1667,927.419 L34.375,927.419 L34.375,910.7524 " fill="#EEEEEE" style="stroke: #ADAFAE; stroke-width: 1.0416666666666667;"/><rect fill="none" height="59.1166" rx="4.1667" ry="4.1667" style="stroke: #ADAFAE; stroke-width: 2.0833333333333335;" width="972.9167" x="34.375" y="906.5857"/><text fill="#9933CC" font-family="Verdana" font-size="12.5" font-weight="bold" lengthAdjust="spacingAndGlyphs" textLength="29.1667" x="52.0833" y="922.2778">loop</text><text fill="#ADAFAE" font-family="Verdana" font-size="12.5" font-weight="bold" lengthAdjust="spacingAndGlyphs" textLength="91.6667" x="132.2917" y="923.3195">[1000 times]</text><polygon fill="#2A9FD6" points="77.6042,953.2023,67.1875,957.369,77.6042,961.5356,73.4375,957.369" style="stroke: #2A9FD6; stroke-width: 1.0416666666666667;"/><line style="stroke: #2A9FD6; stroke-width: 3.125;" x1="71.3542" x2="930.2083" y1="957.369" y2="957.369"/><text fill="#000000" font-family="Verdana" font-size="12.5" font-weight="bold" lengthAdjust="spacingAndGlyphs" textLength="40.625" x="85.9375" y="950.5778">[013]</text><text fill="#000000" font-family="Verdana" font-size="12.5" lengthAdjust="spacingAndGlyphs" textLength="71.875" x="134.8958" y="950.5778">DNS Attack</text><line style="stroke: #ADAFAE; stroke-width: 1.0416666666666667; stroke-dasharray: 2.0,2.0;" x1="13.5417" x2="1028.125" y1="981.3273" y2="981.3273"/><text fill="#ADAFAE" font-family="Verdana" font-size="12.5" font-weight="bold" lengthAdjust="spacingAndGlyphs" textLength="115.625" x="20.8333" y="995.9778">[Just a Warning]</text><polygon fill="#2A9FD6" points="918.75,1023.1689,929.1667,1027.3356,918.75,1031.5023,922.9167,1027.3356" style="stroke: #2A9FD6; stroke-width: 1.0416666666666667;"/><line style="stroke: #2A9FD6; stroke-width: 3.125;" x1="66.1458" x2="925" y1="1027.3356" y2="1027.3356"/><text fill="#000000" font-family="Verdana" font-size="12.5" font-weight="bold" lengthAdjust="spacingAndGlyphs" textLength="40.625" x="75.5208" y="1020.5444">[014]</text><text fill="#FF8800" font-family="Verdana" font-size="12.5" font-weight="bold" lengthAdjust="spacingAndGlyphs" textLength="94.7917" x="124.4792" y="1020.5444">Please repeat</text><path d="M44.7917,1052.3356 L44.7917,1103.3773 A4.1667,4.1667 0 0 0 48.9583,1107.5439 L242.7083,1107.5439 A4.1667,4.1667 0 0 0 246.875,1103.3773 L246.875,1058.5856 L236.4583,1048.1689 L48.9583,1048.1689 A4.1667,4.1667 0 0 0 44.7917,1052.3356 " fill="#000000" style="stroke: #AD5CD6; stroke-width: 1.0416666666666667;"/><path d="M236.4583,1048.1689 L236.4583,1056.5023 A2.0833,2.0833 0 0 0 238.5417,1058.5856 L246.875,1058.5856 L236.4583,1048.1689 " fill="#000000" style="stroke: #AD5CD6; stroke-width: 1.0416666666666667;"/><text fill="#AD5CD6" font-family="Verdana" font-size="12.5" lengthAdjust="spacingAndGlyphs" textLength="136.4583" x="72.9167" y="1068.0278">this is a second note</text><text fill="#AD5CD6" font-family="Verdana" font-size="12.5" lengthAdjust="spacingAndGlyphs" textLength="81.25" x="72.9167" y="1083.2194">that is really</text><text fill="#AD5CD6" font-family="Verdana" font-size="12.5" lengthAdjust="spacingAndGlyphs" textLength="28.125" x="72.9167" y="1098.4111">long</text><text fill="#888888" font-family="Verdana" font-size="12.5" lengthAdjust="spacingAndGlyphs" textLength="85.4167" x="953.125" y="15.6921">Page Header</text><text fill="#888888" font-family="Verdana" font-size="12.5" lengthAdjust="spacingAndGlyphs" textLength="75" x="483.3333" y="1228.7944">Page 1 of 1</text><!--MD5=[38d7432ede015c2ff4373a7c95f9a60d]
@startuml



skinparam backgroundColor black






skinparam defaultFontName       "Verdana"
skinparam defaultFontSize       12
skinparam dpi                   100
skinparam shadowing             false
skinparam roundcorner           8
skinparam ParticipantPadding    10
skinparam BoxPadding            2
skinparam Padding               2
skinparam TitleFontColor	    #ADAFAE
skinparam TitleFontSize	    	20
skinparam TitleBorderThickness 	0
skinparam ArrowColor            #ADAFAE

skinparam legend {
	BackgroundColor black
	BorderColor #777777
	FontColor #ADAFAE
}

skinparam activity {
	TitleFontSize 20
	TitleFontColor #ADAFAE
	FontColor #2A9FD6
	BorderColor #2A9FD6
	BackgroundColor black
	BarColor #77B300
	StartColor #9933CC
	EndColor #9933CC
	DiamondBackgroundColor black
  	DiamondBorderColor #777777
  	DiamondFontColor #777777
}

skinparam sequence {
	BorderColor #2A9FD6
	TitleFontSize 20
	TitleFontColor #ADAFAE
	BackgroundColor black
	StartColor #2A9FD6
	EndColor #2A9FD6
    ParticipantBackgroundColor black
    ParticipantBorderColor #2A9FD6
	ParticipantBorderThickness 1
	ParticipantFontColor #2A9FD6
	ActorBackgroundColor black
    ActorBorderColor #2A9FD6
	ActorFontColor #2A9FD6
	ArrowThickness 3
	ArrowColor #2A9FD6
	BoxBackgroundColor black
	BoxBorderColor #ADAFAE
	BoxFontColor $DARk
	LifeLineBorderColor #555
	LifeLineBorderThickness 2
	LifeLineBackgroundColor black
	GroupBorderColor #ADAFAE
	GroupFontColor #ADAFAE
	GroupHeaderFontColor #9933CC
	DividerBackgroundColor black
    DividerBorderColor #ADAFAE
    DividerBorderThickness 2
    DividerFontColor #ADAFAE
	ReferenceBackgroundColor black
	ReferenceBorderColor #ADAFAE
	ReferenceFontColor #ADAFAE
	ReferenceHeaderFontColor #9933CC
}

skinparam partition {
	BorderColor #2A9FD6
	FontColor #2A9FD6
	BackgroundColor black
}

skinparam collections {
	BackgroundColor black
	BorderColor #55B2DE
}

skinparam control {
	BackgroundColor  black
	BorderColor #55B2DE
	FontColor #ADAFAE
}

skinparam entity {
	BackgroundColor  black
	BorderColor #55B2DE
	FontColor #ADAFAE
}

skinparam boundary {
	BackgroundColor  black
	BorderColor #55B2DE
	FontColor #ADAFAE
}

skinparam agent {
	BackgroundColor black
	BorderColor $WARNING_LIGHT
	FontColor #ADAFAE
}

skinparam note {
	BorderThickness 1
	BackgroundColor black
	BorderColor #AD5CD6
	FontColor #AD5CD6
}

skinparam artifact {
	BackgroundColor black
	BorderColor #BDBFBE
	FontColor #BDBFBE
}

skinparam component {
	BackgroundColor  black
	BorderColor  #92C233
	FontColor #77B300
}

skinparam interface {
	BackgroundColor  black
	BorderColor  #CC0000
	FontColor #ADAFAE
}

skinparam storage {
	BackgroundColor black
  	BorderColor #FFA033
	FontColor #FF8800
}

skinparam node {
	BackgroundColor  black
	BorderColor #ADAFAE
	FontColor #ADAFAE
}

skinparam cloud {
	BackgroundColor black
	BorderColor lightskyblue
	FontColor #ADAFAE
}

skinparam database {
	BackgroundColor  black
	BorderColor #55B2DE
	FontColor #ADAFAE
}

skinparam actor {
	FontColor #ADAFAE
}

skinparam class {
	HeaderBackgroundColor #227FAB
	FontColor #2A9FD6
	BackgroundColor black
	BorderColor #55B2DE
	StereotypeFontColor #ADAFAE
	BorderThickness 1
	AttributeFontColor #ADAFAE
	AttributeFontSize 11
}

skinparam object {
	FontColor #77B300
	BackgroundColor black
	BorderColor #777777
	StereotypeFontColor #ADAFAE
	BorderThickness 1
	AttributeFontColor #777777
	AttributeFontSize 11
}

skinparam usecase {
	BackgroundColor black
	BorderColor #555
	BorderThickness 2
	FontColor #777777
	StereotypeFontColor #2A9FD6
}

skinparam rectangle {
	BackgroundColor black
	BorderColor #227FAB
	BorderThickness 2
	FontColor #2A9FD6
	StereotypeFontColor #2A9FD6
}

skinparam package {
	BackgroundColor black
  	BorderColor #2A9FD6
	FontColor #2A9FD6
	BorderThickness 2
}

skinparam folder {
	BackgroundColor black
  	BorderColor #FF8800
	FontColor #FF8800
	BorderThickness 2
}

skinparam frame {
	BackgroundColor black
  	BorderColor #9933CC
	FontColor #9933CC
	BorderThickness 2
}

skinparam state {
	StartColor #9933CC
	EndColor #9933CC
	BackgroundColor black
	BorderColor #777777
	FontColor #9933CC
	AttributeFontColor #777777
	AttributeFontSize 11
}

skinparam queue {
	BackgroundColor black
  	BorderColor #FF8800
	FontColor #FF8800
}

skinparam card {
	BackgroundColor black
	BorderColor #9933CC
	FontColor #9933CC
}

skinparam file {
	BackgroundColor black
	BorderColor #555
	FontColor #555
}

skinparam stack {
	BackgroundColor black
	BorderColor #2A9FD6
	FontColor #2A9FD6
}

title Sequence Diagram - cyborg-outline theme


autonumber "<b>[000]"

header Page Header
footer Page %page% of %lastpage%

actor Foo1
boundary Foo2
control Foo3
entity Foo4
database Foo5
collections Foo6
participant Bob
participant Alice << (C,#ADD1B2) Testable >>

box "Internal Service"
	participant Bob
	participant Alice
end box

== Initialization ==
Foo1 -> Foo2 : To boundary
|||
Foo2 -> Foo3 ++: To control
ref over Foo4, Foo5
  This can be on
  several lines
end ref
Foo3 -> Foo4 : To entity

Foo4 -> Foo5 : To database
Foo5 - -> Foo3 - - : return
Foo3 - -> Foo2 - -: return
... Some ~~long delay~~ ...
Foo1 -> Foo6 : To collections
Foo6 - -> Foo4:   <font color=#77B300><b>success


alt successful case

Foo1 -> Alice: Authentication Accepted
Alice - -> Foo1: success

note left of Alice: this is a first note

else some kind of failure

	Foo1 -> Alice: Authentication Failure
    Alice - -> Foo1:   <font color=#CC0000><b>Bad request
	group My own label
	    loop 1000 times
	        Alice -> Foo1: DNS Attack
	    end
	end
	
else Just a Warning

   Foo1 -> Alice:   <font color=#FF8800><b>Please repeat
   
end

note over Foo1, Foo2
this is a second note
that is really
long
end note

@enduml

PlantUML version 1.2019.11(Sun Sep 22 03:02:15 PDT 2019)
(GPL source distribution)
Java Runtime: OpenJDK Runtime Environment
JVM: OpenJDK 64-Bit Server VM
Java Version: 11.0.4+11-post-Ubuntu-1ubuntu218.04.3
Operating System: Linux
Default Encoding: UTF-8
Language: en
Country: US
--></g></svg>