<?xml version="1.0" encoding="UTF-8" standalone="no"?><svg xmlns="http://www.w3.org/2000/svg" xmlns:xlink="http://www.w3.org/1999/xlink" contentScriptType="application/ecmascript" contentStyleType="text/css" height="1419.7917px" preserveAspectRatio="none" style="width:1352px;height:1419px;background:#000000;" version="1.1" viewBox="0 0 1352 1419" width="1352.0833px" zoomAndPan="magnify"><defs/><g><rect fill="#000000" height="36.025" rx="4.1667" ry="4.1667" style="stroke: #777777; stroke-width: 1.0416666666666667;" width="317.7083" x="511.9792" y="30.8167"/><text fill="#2A9FD6" font-family="Verdana" font-size="12.5" font-weight="bold" lengthAdjust="spacingAndGlyphs" textLength="290.625" x="525.5208" y="53.8005">Sequence Diagram - cyborg-outline theme</text><rect fill="#000000" height="1311.1328" rx="4.1667" ry="4.1667" style="stroke: #ADAFAE; stroke-width: 1.0416666666666667;" width="345.8333" x="951.0417" y="78.3"/><text fill="#FFFFFF" font-family="Verdana" font-size="12.5" font-weight="bold" lengthAdjust="spacingAndGlyphs" textLength="111.4583" x="1068.2292" y="96.0754">Internal Service</text><rect fill="#000000" height="242.7999" style="stroke: #555555; stroke-width: 1.0416666666666667;" width="10.4167" x="392.1875" y="331.7749"/><rect fill="#000000" height="475.1831" rx="4.1667" ry="4.1667" style="stroke: #ADAFAE; stroke-width: 2.0833333333333335;" width="1310.4167" x="13.5417" y="725.3581"/><rect fill="#000000" height="242.7999" style="stroke: none; stroke-width: 1.0416666666666667;" width="1310.4167" x="13.5417" y="889.858"/><rect fill="#000000" height="120.1416" rx="4.1667" ry="4.1667" style="stroke: #ADAFAE; stroke-width: 2.0833333333333335;" width="1289.5833" x="23.9583" y="1005.2246"/><rect fill="#000000" height="77.8666" rx="4.1667" ry="4.1667" style="stroke: #ADAFAE; stroke-width: 2.0833333333333335;" width="1268.75" x="34.375" y="1040.2079"/><rect fill="#000000" height="67.8833" style="stroke: none; stroke-width: 1.0416666666666667;" width="1310.4167" x="13.5417" y="1132.6579"/><line style="stroke: #555555; stroke-width: 1.0416666666666667;" x1="68.75" x2="68.75" y1="168.4916" y2="582.9081"/><line style="stroke: #555555; stroke-width: 1.0416666666666667; stroke-dasharray: 1.0,4.0;" x1="68.75" x2="68.75" y1="582.9081" y2="637.6831"/><line style="stroke: #555555; stroke-width: 1.0416666666666667;" x1="68.75" x2="68.75" y1="637.6831" y2="1295.0745"/><line style="stroke: #555555; stroke-width: 1.0416666666666667;" x1="241.6667" x2="241.6667" y1="168.4916" y2="582.9081"/><line style="stroke: #555555; stroke-width: 1.0416666666666667; stroke-dasharray: 1.0,4.0;" x1="241.6667" x2="241.6667" y1="582.9081" y2="637.6831"/><line style="stroke: #555555; stroke-width: 1.0416666666666667;" x1="241.6667" x2="241.6667" y1="637.6831" y2="1295.0745"/><line style="stroke: #555555; stroke-width: 1.0416666666666667;" x1="396.875" x2="396.875" y1="168.4916" y2="582.9081"/><line style="stroke: #555555; stroke-width: 1.0416666666666667; stroke-dasharray: 1.0,4.0;" x1="396.875" x2="396.875" y1="582.9081" y2="637.6831"/><line style="stroke: #555555; stroke-width: 1.0416666666666667;" x1="396.875" x2="396.875" y1="637.6831" y2="1295.0745"/><line style="stroke: #555555; stroke-width: 1.0416666666666667;" x1="550" x2="550" y1="168.4916" y2="582.9081"/><line style="stroke: #555555; stroke-width: 1.0416666666666667; stroke-dasharray: 1.0,4.0;" x1="550" x2="550" y1="582.9081" y2="637.6831"/><line style="stroke: #555555; stroke-width: 1.0416666666666667;" x1="550" x2="550" y1="637.6831" y2="1295.0745"/><line style="stroke: #555555; stroke-width: 1.0416666666666667;" x1="722.9167" x2="722.9167" y1="168.4916" y2="582.9081"/><line style="stroke: #555555; stroke-width: 1.0416666666666667; stroke-dasharray: 1.0,4.0;" x1="722.9167" x2="722.9167" y1="582.9081" y2="637.6831"/><line style="stroke: #555555; stroke-width: 1.0416666666666667;" x1="722.9167" x2="722.9167" y1="637.6831" y2="1295.0745"/><line style="stroke: #555555; stroke-width: 1.0416666666666667;" x1="830.2083" x2="830.2083" y1="168.4916" y2="582.9081"/><line style="stroke: #555555; stroke-width: 1.0416666666666667; stroke-dasharray: 1.0,4.0;" x1="830.2083" x2="830.2083" y1="582.9081" y2="637.6831"/><line style="stroke: #555555; stroke-width: 1.0416666666666667;" x1="830.2083" x2="830.2083" y1="637.6831" y2="1295.0745"/><line style="stroke: #555555; stroke-width: 1.0416666666666667;" x1="1021.875" x2="1021.875" y1="168.4916" y2="582.9081"/><line style="stroke: #555555; stroke-width: 1.0416666666666667; stroke-dasharray: 1.0,4.0;" x1="1021.875" x2="1021.875" y1="582.9081" y2="637.6831"/><line style="stroke: #555555; stroke-width: 1.0416666666666667;" x1="1021.875" x2="1021.875" y1="637.6831" y2="1295.0745"/><line style="stroke: #555555; stroke-width: 1.0416666666666667;" x1="1195.8333" x2="1195.8333" y1="168.4916" y2="582.9081"/><line style="stroke: #555555; stroke-width: 1.0416666666666667; stroke-dasharray: 1.0,4.0;" x1="1195.8333" x2="1195.8333" y1="582.9081" y2="637.6831"/><line style="stroke: #555555; stroke-width: 1.0416666666666667;" x1="1195.8333" x2="1195.8333" y1="637.6831" y2="1295.0745"/><text fill="#ADAFAE" font-family="Verdana" font-size="12.5" lengthAdjust="spacingAndGlyphs" textLength="32.2917" x="50" y="160.6588">Foo1</text><ellipse cx="69.2708" cy="87.675" fill="#000000" rx="8.3333" ry="8.3333" style="stroke: #2A9FD6; stroke-width: 2.0833333333333335;"/><path d="M69.2708,96.0083 L69.2708,124.1333 M55.7292,104.3416 L82.8125,104.3416 M69.2708,124.1333 L55.7292,139.7583 M69.2708,124.1333 L82.8125,139.7583 " fill="none" style="stroke: #2A9FD6; stroke-width: 2.0833333333333335;"/><text fill="#ADAFAE" font-family="Verdana" font-size="12.5" lengthAdjust="spacingAndGlyphs" textLength="32.2917" x="50" y="1311.8083">Foo1</text><ellipse cx="69.2708" cy="1330.0578" fill="#000000" rx="8.3333" ry="8.3333" style="stroke: #2A9FD6; stroke-width: 2.0833333333333335;"/><path d="M69.2708,1338.3911 L69.2708,1366.5161 M55.7292,1346.7244 L82.8125,1346.7244 M69.2708,1366.5161 L55.7292,1382.1411 M69.2708,1366.5161 L82.8125,1382.1411 " fill="none" style="stroke: #2A9FD6; stroke-width: 2.0833333333333335;"/><text fill="#ADAFAE" font-family="Verdana" font-size="12.5" lengthAdjust="spacingAndGlyphs" textLength="32.2917" x="222.9167" y="160.6588">Foo2</text><path d="M220.8333,113.7166 L220.8333,138.7166 M220.8333,126.2166 L238.5417,126.2166 " fill="none" style="stroke: #55B2DE; stroke-width: 2.0833333333333335;"/><ellipse cx="251.0417" cy="126.2166" fill="#000000" rx="12.5" ry="12.5" style="stroke: #55B2DE; stroke-width: 2.0833333333333335;"/><text fill="#ADAFAE" font-family="Verdana" font-size="12.5" lengthAdjust="spacingAndGlyphs" textLength="32.2917" x="222.9167" y="1311.8083">Foo2</text><path d="M220.8333,1323.8078 L220.8333,1348.8078 M220.8333,1336.3078 L238.5417,1336.3078 " fill="none" style="stroke: #55B2DE; stroke-width: 2.0833333333333335;"/><ellipse cx="251.0417" cy="1336.3078" fill="#000000" rx="12.5" ry="12.5" style="stroke: #55B2DE; stroke-width: 2.0833333333333335;"/><text fill="#ADAFAE" font-family="Verdana" font-size="12.5" lengthAdjust="spacingAndGlyphs" textLength="32.2917" x="378.125" y="160.6588">Foo3</text><ellipse cx="397.3958" cy="126.2166" fill="#000000" rx="12.5" ry="12.5" style="stroke: #55B2DE; stroke-width: 2.0833333333333335;"/><polygon fill="#55B2DE" points="393.2292,113.7166,399.4792,108.5083,397.3958,113.7166,399.4792,118.925,393.2292,113.7166" style="stroke: #55B2DE; stroke-width: 1.0416666666666667;"/><text fill="#ADAFAE" font-family="Verdana" font-size="12.5" lengthAdjust="spacingAndGlyphs" textLength="32.2917" x="378.125" y="1311.8083">Foo3</text><ellipse cx="397.3958" cy="1336.3078" fill="#000000" rx="12.5" ry="12.5" style="stroke: #55B2DE; stroke-width: 2.0833333333333335;"/><polygon fill="#55B2DE" points="393.2292,1323.8078,399.4792,1318.5994,397.3958,1323.8078,399.4792,1329.0161,393.2292,1323.8078" style="stroke: #55B2DE; stroke-width: 1.0416666666666667;"/><text fill="#ADAFAE" font-family="Verdana" font-size="12.5" lengthAdjust="spacingAndGlyphs" textLength="32.2917" x="531.25" y="160.6588">Foo4</text><ellipse cx="550.5208" cy="126.2166" fill="#000000" rx="12.5" ry="12.5" style="stroke: #55B2DE; stroke-width: 2.0833333333333335;"/><line style="stroke: #55B2DE; stroke-width: 2.0833333333333335;" x1="538.0208" x2="563.0208" y1="140.8" y2="140.8"/><text fill="#ADAFAE" font-family="Verdana" font-size="12.5" lengthAdjust="spacingAndGlyphs" textLength="32.2917" x="531.25" y="1311.8083">Foo4</text><ellipse cx="550.5208" cy="1336.3078" fill="#000000" rx="12.5" ry="12.5" style="stroke: #55B2DE; stroke-width: 2.0833333333333335;"/><line style="stroke: #55B2DE; stroke-width: 2.0833333333333335;" x1="538.0208" x2="563.0208" y1="1350.8911" y2="1350.8911"/><text fill="#ADAFAE" font-family="Verdana" font-size="12.5" lengthAdjust="spacingAndGlyphs" textLength="32.2917" x="704.1667" y="160.6588">Foo5</text><path d="M704.6875,105.3833 C704.6875,94.9666 723.4375,94.9666 723.4375,94.9666 C723.4375,94.9666 742.1875,94.9666 742.1875,105.3833 L742.1875,132.4666 C742.1875,142.8833 723.4375,142.8833 723.4375,142.8833 C723.4375,142.8833 704.6875,142.8833 704.6875,132.4666 L704.6875,105.3833 " fill="#000000" style="stroke: #55B2DE; stroke-width: 1.5625;"/><path d="M704.6875,105.3833 C704.6875,115.8 723.4375,115.8 723.4375,115.8 C723.4375,115.8 742.1875,115.8 742.1875,105.3833 " fill="none" style="stroke: #55B2DE; stroke-width: 1.5625;"/><text fill="#ADAFAE" font-family="Verdana" font-size="12.5" lengthAdjust="spacingAndGlyphs" textLength="32.2917" x="704.1667" y="1311.8083">Foo5</text><path d="M704.6875,1330.0578 C704.6875,1319.6411 723.4375,1319.6411 723.4375,1319.6411 C723.4375,1319.6411 742.1875,1319.6411 742.1875,1330.0578 L742.1875,1357.1411 C742.1875,1367.5578 723.4375,1367.5578 723.4375,1367.5578 C723.4375,1367.5578 704.6875,1367.5578 704.6875,1357.1411 L704.6875,1330.0578 " fill="#000000" style="stroke: #55B2DE; stroke-width: 1.5625;"/><path d="M704.6875,1330.0578 C704.6875,1340.4744 723.4375,1340.4744 723.4375,1340.4744 C723.4375,1340.4744 742.1875,1340.4744 742.1875,1330.0578 " fill="none" style="stroke: #55B2DE; stroke-width: 1.5625;"/><rect fill="#000000" height="40.1917" rx="4.1667" ry="4.1667" style="stroke: #55B2DE; stroke-width: 1.5625;" width="57.2917" x="804.1667" y="123.0916"/><rect fill="#000000" height="40.1917" rx="4.1667" ry="4.1667" style="stroke: #55B2DE; stroke-width: 1.5625;" width="57.2917" x="800" y="127.2583"/><text fill="#2A9FD6" font-family="Verdana" font-size="12.5" lengthAdjust="spacingAndGlyphs" textLength="32.2917" x="812.5" y="152.3254">Foo6</text><rect fill="#000000" height="40.1917" rx="4.1667" ry="4.1667" style="stroke: #55B2DE; stroke-width: 1.5625;" width="57.2917" x="804.1667" y="1294.0328"/><rect fill="#000000" height="40.1917" rx="4.1667" ry="4.1667" style="stroke: #55B2DE; stroke-width: 1.5625;" width="57.2917" x="800" y="1298.1995"/><text fill="#2A9FD6" font-family="Verdana" font-size="12.5" lengthAdjust="spacingAndGlyphs" textLength="32.2917" x="812.5" y="1323.2666">Foo6</text><rect fill="#000000" height="40.1917" rx="4.1667" ry="4.1667" style="stroke: #2A9FD6; stroke-width: 1.0416666666666667;" width="50" x="996.875" y="127.2583"/><text fill="#2A9FD6" font-family="Verdana" font-size="12.5" lengthAdjust="spacingAndGlyphs" textLength="25" x="1009.375" y="152.3254">Bob</text><rect fill="#000000" height="40.1917" rx="4.1667" ry="4.1667" style="stroke: #2A9FD6; stroke-width: 1.0416666666666667;" width="50" x="996.875" y="1294.0328"/><text fill="#2A9FD6" font-family="Verdana" font-size="12.5" lengthAdjust="spacingAndGlyphs" textLength="25" x="1009.375" y="1319.0999">Bob</text><rect fill="#000000" height="44.9666" rx="4.1667" ry="4.1667" style="stroke: #2A9FD6; stroke-width: 1.0416666666666667;" width="110.4167" x="1140.625" y="122.4833"/><ellipse cx="1158.3333" cy="140.1917" fill="#ADD1B2" rx="10.4167" ry="10.4167" style="stroke: #2A9FD6; stroke-width: 1.0416666666666667;"/><path d="M1160.2376,144.6187 Q1159.8145,144.8303 1159.3424,144.9443 Q1158.8704,145.0582 1158.3659,145.0582 Q1156.5104,145.0582 1155.5339,143.8538 Q1154.5736,142.6331 1154.5736,140.3381 Q1154.5736,138.0269 1155.5339,136.8225 Q1156.5104,135.6018 1158.3659,135.6018 Q1158.8704,135.6018 1159.3424,135.7157 Q1159.8307,135.8134 1160.2376,136.0413 L1160.2376,138.0432 Q1159.7819,137.62 1159.3424,137.4247 Q1158.903,137.2131 1158.4473,137.2131 Q1157.4544,137.2131 1156.9499,138.0107 Q1156.4453,138.7919 1156.4453,140.3381 Q1156.4453,141.8681 1156.9499,142.6493 Q1157.4544,143.4306 1158.4473,143.4306 Q1158.903,143.4306 1159.3424,143.2353 Q1159.7819,143.04 1160.2376,142.6168 L1160.2376,144.6187 Z "/><text fill="#2A9FD6" font-family="Verdana" font-size="12.5" font-style="italic" lengthAdjust="spacingAndGlyphs" textLength="68.75" x="1175" y="142.275">«Testable»</text><text fill="#2A9FD6" font-family="Verdana" font-size="12.5" lengthAdjust="spacingAndGlyphs" textLength="29.1667" x="1194.7917" y="157.4666">Alice</text><rect fill="#000000" height="44.9666" rx="4.1667" ry="4.1667" style="stroke: #2A9FD6; stroke-width: 1.0416666666666667;" width="110.4167" x="1140.625" y="1294.0328"/><ellipse cx="1158.3333" cy="1311.7411" fill="#ADD1B2" rx="10.4167" ry="10.4167" style="stroke: #2A9FD6; stroke-width: 1.0416666666666667;"/><path d="M1160.2376,1316.1682 Q1159.8145,1316.3798 1159.3424,1316.4937 Q1158.8704,1316.6077 1158.3659,1316.6077 Q1156.5104,1316.6077 1155.5339,1315.4032 Q1154.5736,1314.1825 1154.5736,1311.8876 Q1154.5736,1309.5764 1155.5339,1308.372 Q1156.5104,1307.1513 1158.3659,1307.1513 Q1158.8704,1307.1513 1159.3424,1307.2652 Q1159.8307,1307.3629 1160.2376,1307.5907 L1160.2376,1309.5927 Q1159.7819,1309.1695 1159.3424,1308.9742 Q1158.903,1308.7626 1158.4473,1308.7626 Q1157.4544,1308.7626 1156.9499,1309.5601 Q1156.4453,1310.3414 1156.4453,1311.8876 Q1156.4453,1313.4176 1156.9499,1314.1988 Q1157.4544,1314.9801 1158.4473,1314.9801 Q1158.903,1314.9801 1159.3424,1314.7847 Q1159.7819,1314.5894 1160.2376,1314.1663 L1160.2376,1316.1682 Z "/><text fill="#2A9FD6" font-family="Verdana" font-size="12.5" font-style="italic" lengthAdjust="spacingAndGlyphs" textLength="68.75" x="1175" y="1313.8245">«Testable»</text><text fill="#2A9FD6" font-family="Verdana" font-size="12.5" lengthAdjust="spacingAndGlyphs" textLength="29.1667" x="1194.7917" y="1329.0161">Alice</text><rect fill="#000000" height="242.7999" style="stroke: #555555; stroke-width: 1.0416666666666667;" width="10.4167" x="392.1875" y="331.7749"/><rect fill="#000000" height="3.125" style="stroke: #000000; stroke-width: 1.0416666666666667;" width="1336.4583" x="3.125" y="205.2541"/><line style="stroke: #ADAFAE; stroke-width: 1.0416666666666667;" x1="3.125" x2="1339.5833" y1="205.2541" y2="205.2541"/><line style="stroke: #ADAFAE; stroke-width: 1.0416666666666667;" x1="3.125" x2="1339.5833" y1="208.3791" y2="208.3791"/><rect fill="#000000" height="33.9417" style="stroke: #ADAFAE; stroke-width: 2.0833333333333335;" width="115.625" x="613.5417" y="189.325"/><text fill="#ADAFAE" font-family="Verdana" font-size="12.5" font-weight="bold" lengthAdjust="spacingAndGlyphs" textLength="86.4583" x="625" y="211.2671">Initialization</text><polygon fill="#2A9FD6" points="229.6875,261.3749,240.1042,265.5416,229.6875,269.7083,233.8542,265.5416" style="stroke: #2A9FD6; stroke-width: 1.0416666666666667;"/><line style="stroke: #2A9FD6; stroke-width: 3.125;" x1="69.2708" x2="235.9375" y1="265.5416" y2="265.5416"/><text fill="#FFFFFF" font-family="Verdana" font-size="12.5" font-weight="bold" lengthAdjust="spacingAndGlyphs" textLength="40.625" x="81.7708" y="255.6254">[001]</text><text fill="#FFFFFF" font-family="Verdana" font-size="12.5" lengthAdjust="spacingAndGlyphs" textLength="82.2917" x="136.9792" y="255.6254">To boundary</text><polygon fill="#2A9FD6" points="379.6875,327.6082,390.1042,331.7749,379.6875,335.9416,383.8542,331.7749" style="stroke: #2A9FD6; stroke-width: 1.0416666666666667;"/><line style="stroke: #2A9FD6; stroke-width: 3.125;" x1="242.1875" x2="385.9375" y1="331.7749" y2="331.7749"/><text fill="#FFFFFF" font-family="Verdana" font-size="12.5" font-weight="bold" lengthAdjust="spacingAndGlyphs" textLength="40.625" x="254.6875" y="321.8587">[002]</text><text fill="#FFFFFF" font-family="Verdana" font-size="12.5" lengthAdjust="spacingAndGlyphs" textLength="64.5833" x="309.8958" y="321.8587">To control</text><rect fill="#000000" height="76.825" style="stroke: #ADAFAE; stroke-width: 2.0833333333333335;" width="228.125" x="522.9167" y="340.1082"/><polygon fill="#EEEEEE" points="522.9167,340.1082,600,340.1082,600,356.7749,589.5833,367.1916,522.9167,367.1916,522.9167,340.1082" style="stroke: #ADAFAE; stroke-width: 2.0833333333333335;"/><text fill="#9933CC" font-family="Verdana" font-size="12.5" font-weight="bold" lengthAdjust="spacingAndGlyphs" textLength="19.7917" x="541.6667" y="359.967">ref</text><text fill="#ADAFAE" font-family="Verdana" font-size="12.5" lengthAdjust="spacingAndGlyphs" textLength="94.7917" x="589.5833" y="389.1337">This can be on</text><text fill="#ADAFAE" font-family="Verdana" font-size="12.5" lengthAdjust="spacingAndGlyphs" textLength="82.2917" x="589.5833" y="404.3254">several lines</text><polygon fill="#2A9FD6" points="538.0208,449.8332,548.4375,453.9998,538.0208,458.1665,542.1875,453.9998" style="stroke: #2A9FD6; stroke-width: 1.0416666666666667;"/><line style="stroke: #2A9FD6; stroke-width: 3.125;" x1="402.6042" x2="544.2708" y1="453.9998" y2="453.9998"/><text fill="#FFFFFF" font-family="Verdana" font-size="12.5" font-weight="bold" lengthAdjust="spacingAndGlyphs" textLength="40.625" x="415.1042" y="444.0837">[003]</text><text fill="#FFFFFF" font-family="Verdana" font-size="12.5" lengthAdjust="spacingAndGlyphs" textLength="57.2917" x="470.3125" y="444.0837">To entity</text><polygon fill="#2A9FD6" points="710.9375,490.0248,721.3542,494.1915,710.9375,498.3582,715.1042,494.1915" style="stroke: #2A9FD6; stroke-width: 1.0416666666666667;"/><line style="stroke: #2A9FD6; stroke-width: 3.125;" x1="550.5208" x2="717.1875" y1="494.1915" y2="494.1915"/><text fill="#FFFFFF" font-family="Verdana" font-size="12.5" font-weight="bold" lengthAdjust="spacingAndGlyphs" textLength="40.625" x="563.0208" y="484.2753">[004]</text><text fill="#FFFFFF" font-family="Verdana" font-size="12.5" lengthAdjust="spacingAndGlyphs" textLength="82.2917" x="618.2292" y="484.2753">To database</text><polygon fill="#2A9FD6" points="414.0625,530.2165,403.6458,534.3831,414.0625,538.5498,409.8958,534.3831" style="stroke: #2A9FD6; stroke-width: 1.0416666666666667;"/><line style="stroke: #2A9FD6; stroke-width: 3.125; stroke-dasharray: 2.0,2.0;" x1="407.8125" x2="722.3958" y1="534.3831" y2="534.3831"/><text fill="#FFFFFF" font-family="Verdana" font-size="12.5" font-weight="bold" lengthAdjust="spacingAndGlyphs" textLength="40.625" x="425.5208" y="524.467">[005]</text><text fill="#FFFFFF" font-family="Verdana" font-size="12.5" lengthAdjust="spacingAndGlyphs" textLength="40.625" x="480.7292" y="524.467">return</text><polygon fill="#2A9FD6" points="253.6458,570.4081,243.2292,574.5748,253.6458,578.7415,249.4792,574.5748" style="stroke: #2A9FD6; stroke-width: 1.0416666666666667;"/><line style="stroke: #2A9FD6; stroke-width: 3.125; stroke-dasharray: 2.0,2.0;" x1="247.3958" x2="396.3542" y1="574.5748" y2="574.5748"/><text fill="#FFFFFF" font-family="Verdana" font-size="12.5" font-weight="bold" lengthAdjust="spacingAndGlyphs" textLength="40.625" x="265.1042" y="564.6586">[006]</text><text fill="#FFFFFF" font-family="Verdana" font-size="12.5" lengthAdjust="spacingAndGlyphs" textLength="40.625" x="320.3125" y="564.6586">return</text><text fill="#000000" font-family="Verdana" font-size="12.5" lengthAdjust="spacingAndGlyphs" textLength="36.4583" x="578.3854" y="615.2669">Some</text><text fill="#000000" font-family="Verdana" font-size="12.5" lengthAdjust="spacingAndGlyphs" textLength="67.7083" x="619.0104" y="615.2669">long delay</text><text fill="#000000" font-family="Verdana" font-size="12.5" lengthAdjust="spacingAndGlyphs" textLength="0" x="690.8854" y="615.2669"/><polygon fill="#2A9FD6" points="818.2292,665.3748,828.6458,669.5414,818.2292,673.7081,822.3958,669.5414" style="stroke: #2A9FD6; stroke-width: 1.0416666666666667;"/><line style="stroke: #2A9FD6; stroke-width: 3.125;" x1="69.2708" x2="824.4792" y1="669.5414" y2="669.5414"/><text fill="#FFFFFF" font-family="Verdana" font-size="12.5" font-weight="bold" lengthAdjust="spacingAndGlyphs" textLength="40.625" x="81.7708" y="659.6252">[007]</text><text fill="#FFFFFF" font-family="Verdana" font-size="12.5" lengthAdjust="spacingAndGlyphs" textLength="87.5" x="136.9792" y="659.6252">To collections</text><polygon fill="#2A9FD6" points="561.9792,705.5664,551.5625,709.7331,561.9792,713.8997,557.8125,709.7331" style="stroke: #2A9FD6; stroke-width: 1.0416666666666667;"/><line style="stroke: #2A9FD6; stroke-width: 3.125; stroke-dasharray: 2.0,2.0;" x1="555.7292" x2="829.6875" y1="709.7331" y2="709.7331"/><text fill="#FFFFFF" font-family="Verdana" font-size="12.5" font-weight="bold" lengthAdjust="spacingAndGlyphs" textLength="40.625" x="573.4375" y="699.8169">[008]</text><text fill="#77B300" font-family="Verdana" font-size="12.5" font-weight="bold" lengthAdjust="spacingAndGlyphs" textLength="53.125" x="628.6458" y="699.8169">success</text><path d="M17.7083,725.3581 L88.5417,725.3581 L88.5417,742.0247 L78.125,752.4414 L13.5417,752.4414 L13.5417,729.5247 " fill="#EEEEEE" style="stroke: #ADAFAE; stroke-width: 1.0416666666666667;"/><rect fill="none" height="475.1831" rx="4.1667" ry="4.1667" style="stroke: #ADAFAE; stroke-width: 2.0833333333333335;" width="1310.4167" x="13.5417" y="725.3581"/><text fill="#9933CC" font-family="Verdana" font-size="12.5" font-weight="bold" lengthAdjust="spacingAndGlyphs" textLength="17.7083" x="34.375" y="744.1752">alt</text><text fill="#ADAFAE" font-family="Verdana" font-size="12.5" font-weight="bold" lengthAdjust="spacingAndGlyphs" textLength="118.75" x="109.375" y="745.2169">[successful case]</text><polygon fill="#2A9FD6" points="1183.3333,790.7247,1193.75,794.8914,1183.3333,799.058,1187.5,794.8914" style="stroke: #2A9FD6; stroke-width: 1.0416666666666667;"/><line style="stroke: #2A9FD6; stroke-width: 3.125;" x1="69.2708" x2="1189.5833" y1="794.8914" y2="794.8914"/><text fill="#FFFFFF" font-family="Verdana" font-size="12.5" font-weight="bold" lengthAdjust="spacingAndGlyphs" textLength="40.625" x="81.7708" y="784.9752">[009]</text><text fill="#FFFFFF" font-family="Verdana" font-size="12.5" lengthAdjust="spacingAndGlyphs" textLength="158.3333" x="136.9792" y="784.9752">Authentication Accepted</text><polygon fill="#2A9FD6" points="80.7292,830.9163,70.3125,835.083,80.7292,839.2497,76.5625,835.083" style="stroke: #2A9FD6; stroke-width: 1.0416666666666667;"/><line style="stroke: #2A9FD6; stroke-width: 3.125; stroke-dasharray: 2.0,2.0;" x1="74.4792" x2="1194.7917" y1="835.083" y2="835.083"/><text fill="#FFFFFF" font-family="Verdana" font-size="12.5" font-weight="bold" lengthAdjust="spacingAndGlyphs" textLength="40.625" x="92.1875" y="825.1668">[010]</text><text fill="#FFFFFF" font-family="Verdana" font-size="12.5" lengthAdjust="spacingAndGlyphs" textLength="51.0417" x="147.3958" y="825.1668">success</text><path d="M1043.75,852.7913 L1043.75,879.8747 A4.1667,4.1667 0 0 0 1047.9167,884.0413 L1186.4583,884.0413 A4.1667,4.1667 0 0 0 1190.625,879.8747 L1190.625,859.0413 L1180.2083,848.6247 L1047.9167,848.6247 A4.1667,4.1667 0 0 0 1043.75,852.7913 " fill="#000000" style="stroke: #AD5CD6; stroke-width: 1.0416666666666667;"/><path d="M1180.2083,848.6247 L1180.2083,856.958 A2.0833,2.0833 0 0 0 1182.2917,859.0413 L1190.625,859.0413 L1180.2083,848.6247 " fill="#000000" style="stroke: #AD5CD6; stroke-width: 1.0416666666666667;"/><text fill="#AD5CD6" font-family="Verdana" font-size="12.5" lengthAdjust="spacingAndGlyphs" textLength="114.5833" x="1055.2083" y="871.6085">this is a first note</text><line style="stroke: #ADAFAE; stroke-width: 1.0416666666666667; stroke-dasharray: 2.0,2.0;" x1="13.5417" x2="1323.9583" y1="890.8997" y2="890.8997"/><text fill="#ADAFAE" font-family="Verdana" font-size="12.5" font-weight="bold" lengthAdjust="spacingAndGlyphs" textLength="148.9583" x="23.9583" y="908.6751">[some kind of failure]</text><polygon fill="#2A9FD6" points="1183.3333,945.2413,1193.75,949.408,1183.3333,953.5746,1187.5,949.408" style="stroke: #2A9FD6; stroke-width: 1.0416666666666667;"/><line style="stroke: #2A9FD6; stroke-width: 3.125;" x1="69.2708" x2="1189.5833" y1="949.408" y2="949.408"/><text fill="#FFFFFF" font-family="Verdana" font-size="12.5" font-weight="bold" lengthAdjust="spacingAndGlyphs" textLength="40.625" x="81.7708" y="939.4918">[011]</text><text fill="#FFFFFF" font-family="Verdana" font-size="12.5" lengthAdjust="spacingAndGlyphs" textLength="142.7083" x="136.9792" y="939.4918">Authentication Failure</text><polygon fill="#2A9FD6" points="80.7292,985.4329,70.3125,989.5996,80.7292,993.7663,76.5625,989.5996" style="stroke: #2A9FD6; stroke-width: 1.0416666666666667;"/><line style="stroke: #2A9FD6; stroke-width: 3.125; stroke-dasharray: 2.0,2.0;" x1="74.4792" x2="1194.7917" y1="989.5996" y2="989.5996"/><text fill="#FFFFFF" font-family="Verdana" font-size="12.5" font-weight="bold" lengthAdjust="spacingAndGlyphs" textLength="40.625" x="92.1875" y="979.6834">[012]</text><text fill="#CC0000" font-family="Verdana" font-size="12.5" font-weight="bold" lengthAdjust="spacingAndGlyphs" textLength="82.2917" x="147.3958" y="979.6834">Bad request</text><path d="M28.125,1005.2246 L171.875,1005.2246 L171.875,1021.8913 L161.4583,1032.3079 L23.9583,1032.3079 L23.9583,1009.3913 " fill="#EEEEEE" style="stroke: #ADAFAE; stroke-width: 1.0416666666666667;"/><rect fill="none" height="120.1416" rx="4.1667" ry="4.1667" style="stroke: #ADAFAE; stroke-width: 2.0833333333333335;" width="1289.5833" x="23.9583" y="1005.2246"/><text fill="#9933CC" font-family="Verdana" font-size="12.5" font-weight="bold" lengthAdjust="spacingAndGlyphs" textLength="90.625" x="44.7917" y="1024.0417">My own label</text><path d="M38.5417,1040.2079 L120.8333,1040.2079 L120.8333,1056.8746 L110.4167,1067.2913 L34.375,1067.2913 L34.375,1044.3746 " fill="#EEEEEE" style="stroke: #ADAFAE; stroke-width: 1.0416666666666667;"/><rect fill="none" height="77.8666" rx="4.1667" ry="4.1667" style="stroke: #ADAFAE; stroke-width: 2.0833333333333335;" width="1268.75" x="34.375" y="1040.2079"/><text fill="#9933CC" font-family="Verdana" font-size="12.5" font-weight="bold" lengthAdjust="spacingAndGlyphs" textLength="29.1667" x="55.2083" y="1059.0251">loop</text><text fill="#ADAFAE" font-family="Verdana" font-size="12.5" font-weight="bold" lengthAdjust="spacingAndGlyphs" textLength="91.6667" x="141.6667" y="1060.0667">[1000 times]</text><polygon fill="#2A9FD6" points="80.7292,1105.5745,70.3125,1109.7412,80.7292,1113.9079,76.5625,1109.7412" style="stroke: #2A9FD6; stroke-width: 1.0416666666666667;"/><line style="stroke: #2A9FD6; stroke-width: 3.125;" x1="74.4792" x2="1194.7917" y1="1109.7412" y2="1109.7412"/><text fill="#FFFFFF" font-family="Verdana" font-size="12.5" font-weight="bold" lengthAdjust="spacingAndGlyphs" textLength="40.625" x="92.1875" y="1099.825">[013]</text><text fill="#FFFFFF" font-family="Verdana" font-size="12.5" lengthAdjust="spacingAndGlyphs" textLength="71.875" x="147.3958" y="1099.825">DNS Attack</text><line style="stroke: #ADAFAE; stroke-width: 1.0416666666666667; stroke-dasharray: 2.0,2.0;" x1="13.5417" x2="1323.9583" y1="1133.6995" y2="1133.6995"/><text fill="#ADAFAE" font-family="Verdana" font-size="12.5" font-weight="bold" lengthAdjust="spacingAndGlyphs" textLength="115.625" x="23.9583" y="1151.475">[Just a Warning]</text><polygon fill="#2A9FD6" points="1183.3333,1188.0412,1193.75,1192.2078,1183.3333,1196.3745,1187.5,1192.2078" style="stroke: #2A9FD6; stroke-width: 1.0416666666666667;"/><line style="stroke: #2A9FD6; stroke-width: 3.125;" x1="69.2708" x2="1189.5833" y1="1192.2078" y2="1192.2078"/><text fill="#FFFFFF" font-family="Verdana" font-size="12.5" font-weight="bold" lengthAdjust="spacingAndGlyphs" textLength="40.625" x="81.7708" y="1182.2917">[014]</text><text fill="#FF8800" font-family="Verdana" font-size="12.5" font-weight="bold" lengthAdjust="spacingAndGlyphs" textLength="94.7917" x="136.9792" y="1182.2917">Please repeat</text><path d="M46.875,1217.2078 L46.875,1274.4995 A4.1667,4.1667 0 0 0 51.0417,1278.6662 L260.4167,1278.6662 A4.1667,4.1667 0 0 0 264.5833,1274.4995 L264.5833,1223.4578 L254.1667,1213.0412 L51.0417,1213.0412 A4.1667,4.1667 0 0 0 46.875,1217.2078 " fill="#000000" style="stroke: #AD5CD6; stroke-width: 1.0416666666666667;"/><path d="M254.1667,1213.0412 L254.1667,1221.3745 A2.0833,2.0833 0 0 0 256.25,1223.4578 L264.5833,1223.4578 L254.1667,1213.0412 " fill="#000000" style="stroke: #AD5CD6; stroke-width: 1.0416666666666667;"/><text fill="#AD5CD6" font-family="Verdana" font-size="12.5" lengthAdjust="spacingAndGlyphs" textLength="136.4583" x="82.8125" y="1236.025">this is a second note</text><text fill="#AD5CD6" font-family="Verdana" font-size="12.5" lengthAdjust="spacingAndGlyphs" textLength="81.25" x="82.8125" y="1251.2166">that is really</text><text fill="#AD5CD6" font-family="Verdana" font-size="12.5" lengthAdjust="spacingAndGlyphs" textLength="28.125" x="82.8125" y="1266.4083">long</text><text fill="#888888" font-family="Verdana" font-size="12.5" lengthAdjust="spacingAndGlyphs" textLength="85.4167" x="1254.1667" y="15.6921">Page Header</text><text fill="#888888" font-family="Verdana" font-size="12.5" lengthAdjust="spacingAndGlyphs" textLength="75" x="633.8542" y="1406.1666">Page 1 of 1</text><!--MD5=[08bf0f2e18131f4bfb7a3bc9b3e44146]
@startuml



skinparam backgroundColor black






skinparam defaultFontName       "Verdana"
skinparam defaultFontSize       12
skinparam dpi                   100
skinparam shadowing             false
skinparam roundcorner           8
skinparam ParticipantPadding    40
skinparam BoxPadding            40
skinparam Padding               5
skinparam ArrowColor            #ADAFAE
skinparam stereotype {
    CBackgroundColor #777777
    CBorderColor #444444
    ABackgroundColor #5F8F00
    ABorderColor #92C233
    IBackgroundColor #a30000
    IBorderColor #D63333
    EBackgroundColor #cc6d00
    EBorderColor #FFA033
    NBackgroundColor #7a29a3
    NBorderColor #AD5CD6
}
skinparam title {
	FontColor	                 #2A9FD6
	BorderColor	                 #777777
	FontSize	    	         20
	BorderRoundCorner            8
	BorderThickness 	         1
	BackgroundColor              black
}

skinparam legend {
	BackgroundColor black
	BorderColor #777777
	FontColor #ADAFAE
}

skinparam activity {
	FontColor #2A9FD6
	BorderColor #2A9FD6
	BackgroundColor black
	BarColor #77B300
	StartColor #9933CC
	EndColor #9933CC
	DiamondBackgroundColor black
  	DiamondBorderColor #777777
  	DiamondFontColor #777777
}

skinparam sequence {
	BorderColor #2A9FD6
	TitleFontColor #2A9FD6
	BackgroundColor black
	StartColor #2A9FD6
	EndColor #2A9FD6
    ParticipantBackgroundColor black
    ParticipantBorderColor #2A9FD6
	ParticipantBorderThickness 1
	ParticipantFontColor #2A9FD6
	ActorBackgroundColor black
    ActorBorderColor #2A9FD6
	ActorFontColor #2A9FD6
	ArrowThickness 3
	ArrowColor #2A9FD6
	ArrowFontColor #FFF
	BoxBackgroundColor black
	BoxBorderColor #ADAFAE
	BoxFontColor $DARk
	LifeLineBorderColor #555
	LifeLineBorderThickness 2
	LifeLineBackgroundColor black
	GroupBorderColor #ADAFAE
	GroupFontColor #ADAFAE
	GroupHeaderFontColor #9933CC
	DividerBackgroundColor black
    DividerBorderColor #ADAFAE
    DividerBorderThickness 2
    DividerFontColor #ADAFAE
	ReferenceBackgroundColor black
	ReferenceBorderColor #ADAFAE
	ReferenceFontColor #ADAFAE
	ReferenceHeaderFontColor #9933CC
}

skinparam partition {
	BorderColor #2A9FD6
	FontColor #2A9FD6
	BackgroundColor black
}

skinparam collections {
	BackgroundColor black
	BorderColor #55B2DE
}

skinparam control {
	BackgroundColor  black
	BorderColor #55B2DE
	FontColor #ADAFAE
}

skinparam entity {
	BackgroundColor  black
	BorderColor #55B2DE
	FontColor #ADAFAE
}

skinparam boundary {
	BackgroundColor  black
	BorderColor #55B2DE
	FontColor #ADAFAE
}

skinparam agent {
	BackgroundColor black
	BorderColor #cc6d00
	FontColor #ADAFAE
}

skinparam note {
	BorderThickness 1
	BackgroundColor black
	BorderColor #AD5CD6
	FontColor #AD5CD6
}

skinparam artifact {
	BackgroundColor black
	BorderColor #BDBFBE
	FontColor #BDBFBE
}

skinparam component {
	BackgroundColor  black
	BorderColor  #92C233
	FontColor #77B300
}

skinparam interface {
	BackgroundColor  black
	BorderColor  #CC0000
	FontColor #ADAFAE
}

skinparam storage {
	BackgroundColor black
  	BorderColor #FFA033
	FontColor #FF8800
}

skinparam node {
	BackgroundColor  black
	BorderColor #ADAFAE
	FontColor #ADAFAE
}

skinparam cloud {
	BackgroundColor black
	BorderColor lightskyblue
	FontColor #ADAFAE
}

skinparam database {
	BackgroundColor  black
	BorderColor #55B2DE
	FontColor #ADAFAE
}

skinparam actor {
	FontColor #ADAFAE
}

skinparam class {
	HeaderBackgroundColor #227FAB
	FontColor #2A9FD6
	BackgroundColor black
	BorderColor #55B2DE
	StereotypeFontColor #ADAFAE
	BorderThickness 1
	AttributeFontColor #ADAFAE
	AttributeFontSize 11
}

skinparam object {
	FontColor #77B300
	BackgroundColor black
	BorderColor #777777
	StereotypeFontColor #ADAFAE
	BorderThickness 1
	AttributeFontColor #777777
	AttributeFontSize 11
}

skinparam usecase {
	BackgroundColor black
	BorderColor #555
	BorderThickness 2
	FontColor #777777
	StereotypeFontColor #2A9FD6
}

skinparam rectangle {
	BackgroundColor black
	BorderColor #227FAB
	BorderThickness 2
	FontColor #2A9FD6
	StereotypeFontColor #2A9FD6
}

skinparam package {
	BackgroundColor black
  	BorderColor #2A9FD6
	FontColor #2A9FD6
	BorderThickness 2
}

skinparam folder {
	BackgroundColor black
  	BorderColor #FF8800
	FontColor #FF8800
	BorderThickness 2
}

skinparam frame {
	BackgroundColor black
  	BorderColor #9933CC
	FontColor #9933CC
	BorderThickness 2
}

skinparam state {
	StartColor #9933CC
	EndColor #9933CC
	BackgroundColor black
	BorderColor #777777
	FontColor #9933CC
	AttributeFontColor #777777
	AttributeFontSize 11
}

skinparam queue {
	BackgroundColor black
  	BorderColor #FF8800
	FontColor #FF8800
}

skinparam card {
	BackgroundColor black
	BorderColor #9933CC
	FontColor #9933CC
}

skinparam file {
	BackgroundColor black
	BorderColor #555
	FontColor #555
}

skinparam stack {
	BackgroundColor black
	BorderColor #2A9FD6
	FontColor #2A9FD6
}

title Sequence Diagram - cyborg-outline theme


autonumber "<b>[000]"

header Page Header
footer Page %page% of %lastpage%

actor Foo1
boundary Foo2
control Foo3
entity Foo4
database Foo5
collections Foo6
participant Bob
participant Alice << (C,#ADD1B2) Testable >>

box "Internal Service"
	participant Bob
	participant Alice
end box

== Initialization ==
Foo1 -> Foo2 : To boundary
|||
Foo2 -> Foo3 ++: To control
ref over Foo4, Foo5
  This can be on
  several lines
end ref
Foo3 -> Foo4 : To entity

Foo4 -> Foo5 : To database
Foo5 - -> Foo3 - - : return
Foo3 - -> Foo2 - -: return
... Some ~~long delay~~ ...
Foo1 -> Foo6 : To collections
Foo6 - -> Foo4:   <font color=#77B300><b>success


alt successful case

Foo1 -> Alice: Authentication Accepted
Alice - -> Foo1: success

note left of Alice: this is a first note

else some kind of failure

	Foo1 -> Alice: Authentication Failure
    Alice - -> Foo1:   <font color=#CC0000><b>Bad request
	group My own label
	    loop 1000 times
	        Alice -> Foo1: DNS Attack
	    end
	end
	
else Just a Warning

   Foo1 -> Alice:   <font color=#FF8800><b>Please repeat
   
end

note over Foo1, Foo2
this is a second note
that is really
long
end note

@enduml

PlantUML version 1.2019.12(Sun Nov 03 02:24:54 PST 2019)
(GPL source distribution)
Java Runtime: OpenJDK Runtime Environment
JVM: OpenJDK 64-Bit Server VM
Java Version: 11.0.4+11-post-Ubuntu-1ubuntu218.04.3
Operating System: Linux
Default Encoding: UTF-8
Language: en
Country: US
--></g></svg>