<?xml version="1.0" encoding="UTF-8" standalone="no"?><svg xmlns="http://www.w3.org/2000/svg" xmlns:xlink="http://www.w3.org/1999/xlink" contentScriptType="application/ecmascript" contentStyleType="text/css" height="1102.0833px" preserveAspectRatio="none" style="width:436px;height:1102px;background:#000000;" version="1.1" viewBox="0 0 436 1102" width="436.4583px" zoomAndPan="magnify"><defs/><g><rect fill="none" height="39.9028" rx="4.1667" ry="4.1667" style="stroke: none; stroke-width: 1.0416666666666667;" width="422.9167" x="2.0833" y="2.0833"/><text fill="#ADAFAE" font-family="Verdana" font-size="20.8333" lengthAdjust="spacingAndGlyphs" textLength="402.0833" x="12.5" y="30.3202">State Diagram - cyborg-outline theme</text><rect fill="#77B300" height="8.3333" style="stroke: none; stroke-width: 1.0416666666666667;" width="83.3333" x="166.1458" y="136.7778"/><ellipse cx="207.8125" cy="63.8611" fill="#9933CC" rx="10.4167" ry="10.4167" style="stroke: none; stroke-width: 1.0416666666666667;"/><rect fill="#000000" height="52.0833" rx="13.0208" ry="13.0208" style="stroke: #777777; stroke-width: 1.5625;" width="68.75" x="121.3542" y="207.6111"/><line style="stroke: #777777; stroke-width: 1.5625;" x1="121.3542" x2="190.1042" y1="237.3861" y2="237.3861"/><text fill="#9933CC" font-family="Verdana" font-size="12.5" lengthAdjust="spacingAndGlyphs" textLength="43.75" x="133.8542" y="227.4699">State2</text><rect fill="#000000" height="52.0833" rx="13.0208" ry="13.0208" style="stroke: #777777; stroke-width: 1.5625;" width="68.75" x="226.5625" y="207.6111"/><line style="stroke: #777777; stroke-width: 1.5625;" x1="226.5625" x2="295.3125" y1="237.3861" y2="237.3861"/><text fill="#9933CC" font-family="Verdana" font-size="12.5" lengthAdjust="spacingAndGlyphs" textLength="43.75" x="239.0625" y="227.4699">State3</text><rect fill="#77B300" height="8.3333" style="stroke: none; stroke-width: 1.0416666666666667;" width="83.3333" x="166.1458" y="322.1944"/><rect fill="#000000" height="52.0833" rx="13.0208" ry="13.0208" style="stroke: #777777; stroke-width: 1.5625;" width="68.75" x="173.4375" y="393.0278"/><line style="stroke: #777777; stroke-width: 1.5625;" x1="173.4375" x2="242.1875" y1="422.8027" y2="422.8027"/><text fill="#9933CC" font-family="Verdana" font-size="12.5" lengthAdjust="spacingAndGlyphs" textLength="43.75" x="185.9375" y="412.8866">State4</text><rect fill="#000000" height="583.9417" rx="13.0208" ry="13.0208" style="stroke: #777777; stroke-width: 1.5625;" width="337.5" x="39.0625" y="507.6111"/><rect fill="#000000" height="547.9167" rx="13.0208" ry="13.0208" style="stroke: #000000; stroke-width: 1.0416666666666667;" width="331.25" x="42.1875" y="540.5111"/><line style="stroke: #777777; stroke-width: 1.5625;" x1="39.0625" x2="376.5625" y1="537.3861" y2="537.3861"/><text fill="#9933CC" font-family="Verdana" font-size="12.5" lengthAdjust="spacingAndGlyphs" textLength="38.5417" x="188.5417" y="527.4699">Active</text><ellipse cx="60.9375" cy="576.9694" fill="#9933CC" rx="10.4167" ry="10.4167" style="stroke: none; stroke-width: 1.0416666666666667;"/><rect fill="#000000" height="52.0833" rx="13.0208" ry="13.0208" style="stroke: #777777; stroke-width: 1.5625;" width="102.0833" x="90.1042" y="550.9277"/><line style="stroke: #777777; stroke-width: 1.5625;" x1="90.1042" x2="192.1875" y1="580.7027" y2="580.7027"/><text fill="#9933CC" font-family="Verdana" font-size="12.5" lengthAdjust="spacingAndGlyphs" textLength="77.0833" x="102.6042" y="570.7865">NumLockOff</text><rect fill="#000000" height="52.0833" rx="13.0208" ry="13.0208" style="stroke: #777777; stroke-width: 1.5625;" width="102.0833" x="89.0625" y="661.3444"/><line style="stroke: #777777; stroke-width: 1.5625;" x1="89.0625" x2="191.1458" y1="691.1194" y2="691.1194"/><text fill="#9933CC" font-family="Verdana" font-size="12.5" lengthAdjust="spacingAndGlyphs" textLength="77.0833" x="101.5625" y="681.2032">NumLockOn</text><!--MD5=[f1e44e9cdf7ed6fd162579f896fb76ea]
link *start*Active to NumLockOff--><path d="M71.5902,576.9694 C75.9204,576.9694 80.2506,576.9694 84.5809,576.9694 " fill="none" id="*start*Active-&gt;NumLockOff" style="stroke: #2A9FD6; stroke-width: 3.125;"/><polygon fill="#2A9FD6" points="90.0659,576.9694,80.6909,572.8027,84.8576,576.9694,80.6909,581.1361,90.0659,576.9694" style="stroke: #2A9FD6; stroke-width: 3.125;"/><!--MD5=[b6ef3c088f5474ecc81df30475e7d61b]
link NumLockOff to NumLockOn--><path d="M90.0622,601.1344 C77.4895,608.1668 66.587,615.6059 63.0208,621.7611 C53.274,638.5844 66.3451,653.1225 84.3336,664.209 " fill="none" id="NumLockOff-&gt;NumLockOn" style="stroke: #2A9FD6; stroke-width: 3.125;"/><polygon fill="#2A9FD6" points="89.0021,666.9525,83.0307,658.6102,84.5118,664.3136,78.8084,665.7946,89.0021,666.9525" style="stroke: #2A9FD6; stroke-width: 3.125;"/><text fill="#000000" font-family="Verdana" font-size="12.5" lengthAdjust="spacingAndGlyphs" textLength="127.0833" x="66.1458" y="637.4532">EvNumLockPressed</text><!--MD5=[3bfddee0d82dc74c927fbeb3d3f2e6a3]
link NumLockOn to NumLockOff--><path d="M182.2644,661.2153 C187.9614,655.7888 192.9934,649.5665 196.3542,642.5944 C202.5149,629.8133 196.4385,617.4539 186.3821,606.9735 " fill="none" id="NumLockOn-&gt;NumLockOff" style="stroke: #2A9FD6; stroke-width: 3.125;"/><polygon fill="#2A9FD6" points="182.5122,603.2,186.3155,612.7282,186.2412,606.8362,192.1333,606.7619,182.5122,603.2" style="stroke: #2A9FD6; stroke-width: 3.125;"/><text fill="#000000" font-family="Verdana" font-size="12.5" lengthAdjust="spacingAndGlyphs" textLength="127.0833" x="202.6042" y="637.4532">EvNumLockPressed</text><line style="stroke: #777777; stroke-width: 1.5625; stroke-dasharray: 8.0,10.0;" x1="44.2708" x2="369.2708" y1="723.8444" y2="723.8444"/><ellipse cx="60.9375" cy="758.2194" fill="#9933CC" rx="10.4167" ry="10.4167" style="stroke: none; stroke-width: 1.0416666666666667;"/><rect fill="#000000" height="52.0833" rx="13.0208" ry="13.0208" style="stroke: #777777; stroke-width: 1.5625;" width="106.25" x="90.1042" y="732.1777"/><line style="stroke: #777777; stroke-width: 1.5625;" x1="90.1042" x2="196.3542" y1="761.9527" y2="761.9527"/><text fill="#9933CC" font-family="Verdana" font-size="12.5" lengthAdjust="spacingAndGlyphs" textLength="81.25" x="102.6042" y="752.0365">CapsLockOff</text><rect fill="#000000" height="52.0833" rx="13.0208" ry="13.0208" style="stroke: #777777; stroke-width: 1.5625;" width="106.25" x="89.0625" y="842.5944"/><line style="stroke: #777777; stroke-width: 1.5625;" x1="89.0625" x2="195.3125" y1="872.3694" y2="872.3694"/><text fill="#9933CC" font-family="Verdana" font-size="12.5" lengthAdjust="spacingAndGlyphs" textLength="81.25" x="101.5625" y="862.4532">CapsLockOn</text><!--MD5=[ad44b9de6595643ec3df1279e2e825ac]
link *start*CONC82 to CapsLockOff--><path d="M71.5454,758.2194 C75.8769,758.2194 80.2083,758.2194 84.5398,758.2194 " fill="none" id="*start*CONC82-&gt;CapsLockOff" style="stroke: #2A9FD6; stroke-width: 3.125;"/><polygon fill="#2A9FD6" points="90.0264,758.2194,80.6514,754.0527,84.818,758.2194,80.6514,762.3861,90.0264,758.2194" style="stroke: #2A9FD6; stroke-width: 3.125;"/><!--MD5=[dc4675bd3056f3ef68701d9e8e02a3f3]
link CapsLockOff to CapsLockOn--><path d="M89.9498,782.7196 C77.4024,789.6113 66.6134,796.89 63.0208,803.0111 C53.1908,819.7595 66.0094,834.1237 84.0035,845.1057 " fill="none" id="CapsLockOff-&gt;CapsLockOn" style="stroke: #2A9FD6; stroke-width: 3.125;"/><polygon fill="#2A9FD6" points="88.6793,847.8242,82.669,839.5098,84.1767,845.2063,78.4803,846.714,88.6793,847.8242" style="stroke: #2A9FD6; stroke-width: 3.125;"/><text fill="#000000" font-family="Verdana" font-size="12.5" lengthAdjust="spacingAndGlyphs" textLength="131.25" x="66.1458" y="818.7032">EvCapsLockPressed</text><!--MD5=[79e17b083e07746bd1a647600952cab6]
link CapsLockOn to CapsLockOff--><path d="M186.1688,842.4223 C191.9625,837.0304 197.0771,830.8305 200.5208,823.8444 C206.8933,810.9169 200.5824,798.5202 190.1478,788.0504 " fill="none" id="CapsLockOn-&gt;CapsLockOff" style="stroke: #2A9FD6; stroke-width: 3.125;"/><polygon fill="#2A9FD6" points="186.1328,784.283,190.1181,793.7366,189.9308,787.847,195.8204,787.6597,186.1328,784.283" style="stroke: #2A9FD6; stroke-width: 3.125;"/><text fill="#000000" font-family="Verdana" font-size="12.5" lengthAdjust="spacingAndGlyphs" textLength="131.25" x="206.7708" y="818.7032">EvCapsLockPressed</text><line style="stroke: #777777; stroke-width: 1.5625; stroke-dasharray: 8.0,10.0;" x1="44.2708" x2="369.2708" y1="905.0944" y2="905.0944"/><ellipse cx="60.9375" cy="939.4694" fill="#9933CC" rx="10.4167" ry="10.4167" style="stroke: none; stroke-width: 1.0416666666666667;"/><rect fill="#000000" height="52.0833" rx="13.0208" ry="13.0208" style="stroke: #777777; stroke-width: 1.5625;" width="107.2917" x="90.625" y="913.4277"/><line style="stroke: #777777; stroke-width: 1.5625;" x1="90.625" x2="197.9167" y1="943.2027" y2="943.2027"/><text fill="#9933CC" font-family="Verdana" font-size="12.5" lengthAdjust="spacingAndGlyphs" textLength="82.2917" x="103.125" y="933.2865">ScrollLockOff</text><rect fill="#000000" height="52.0833" rx="13.0208" ry="13.0208" style="stroke: #777777; stroke-width: 1.5625;" width="107.2917" x="90.625" y="1023.8444"/><line style="stroke: #777777; stroke-width: 1.5625;" x1="90.625" x2="197.9167" y1="1053.6194" y2="1053.6194"/><text fill="#9933CC" font-family="Verdana" font-size="12.5" lengthAdjust="spacingAndGlyphs" textLength="82.2917" x="103.125" y="1043.7032">ScrollLockOn</text><!--MD5=[9a8b2c0f7fde6bd227d6334344b3ad45]
link *start*CONC90 to ScrollLockOff--><path d="M71.3542,939.4694 C75.9263,939.4694 80.4984,939.4694 85.0705,939.4694 " fill="none" id="*start*CONC90-&gt;ScrollLockOff" style="stroke: #2A9FD6; stroke-width: 3.125;"/><polygon fill="#2A9FD6" points="90.4378,939.4694,81.0628,935.3027,85.2295,939.4694,81.0628,943.6361,90.4378,939.4694" style="stroke: #2A9FD6; stroke-width: 3.125;"/><!--MD5=[da4e1e55b4a6de250eca2c82023085fa]
link ScrollLockOff to ScrollLockOn--><path d="M90.4554,959.6369 C80.336,965.9492 71.0706,974.03 65.1042,984.2611 C55.4039,1000.8947 67.9308,1015.1615 85.6772,1026.103 " fill="none" id="ScrollLockOff-&gt;ScrollLockOn" style="stroke: #2A9FD6; stroke-width: 3.125;"/><polygon fill="#2A9FD6" points="90.291,1028.8125,84.317,1020.4721,85.7999,1026.175,80.097,1027.6579,90.291,1028.8125" style="stroke: #2A9FD6; stroke-width: 3.125;"/><text fill="#000000" font-family="Verdana" font-size="12.5" lengthAdjust="spacingAndGlyphs" textLength="131.25" x="68.2292" y="999.9532">EvCapsLockPressed</text><!--MD5=[6ad2c621f2407b82317910f4deb17639]
link ScrollLockOn to ScrollLockOff--><path d="M188.2413,1023.6248 C200.9751,1012.4964 209.7483,998.7542 202.6042,984.2611 C199.9676,978.9123 196.3516,974.0244 192.2011,969.6072 " fill="none" id="ScrollLockOn-&gt;ScrollLockOff" style="stroke: #2A9FD6; stroke-width: 3.125;"/><polygon fill="#2A9FD6" points="188.2521,965.6832,191.9653,975.2468,191.9466,969.3543,197.8391,969.3356,188.2521,965.6832" style="stroke: #2A9FD6; stroke-width: 3.125;"/><text fill="#000000" font-family="Verdana" font-size="12.5" lengthAdjust="spacingAndGlyphs" textLength="131.25" x="207.8125" y="999.9532">EvCapsLockPressed</text><!--MD5=[242ad121cef04112e9b0ee8f25f52375]
link *start to fork_state--><path d="M207.8125,74.5792 C207.8125,89.6371 207.8125,116.8276 207.8125,131.289 " fill="none" id="*start-&gt;fork_state" style="stroke: #2A9FD6; stroke-width: 3.125;"/><polygon fill="#2A9FD6" points="207.8125,136.6349,211.9792,127.2599,207.8125,131.4266,203.6458,127.2599,207.8125,136.6349" style="stroke: #2A9FD6; stroke-width: 3.125;"/><!--MD5=[44dd36eb382d4fffd186e8c447a61da0]
link fork_state to State2--><path d="M205.3004,145.416 C199.5575,155.6384 185.0501,181.4615 173.2042,202.5472 " fill="none" id="fork_state-&gt;State2" style="stroke: #2A9FD6; stroke-width: 3.125;"/><polygon fill="#2A9FD6" points="170.5671,207.2413,178.7916,201.1087,173.1181,202.7005,171.5263,197.027,170.5671,207.2413" style="stroke: #2A9FD6; stroke-width: 3.125;"/><!--MD5=[43d4d70f9cd19f132a5eb1ce9d85c890]
link fork_state to State3--><path d="M210.3748,145.416 C216.2326,155.6384 231.0301,181.4615 243.113,202.5472 " fill="none" id="fork_state-&gt;State3" style="stroke: #2A9FD6; stroke-width: 3.125;"/><polygon fill="#2A9FD6" points="245.8028,207.2413,244.7567,197.0355,243.2132,202.7224,237.5264,201.1789,245.8028,207.2413" style="stroke: #2A9FD6; stroke-width: 3.125;"/><!--MD5=[8cf5ef3a64654818495211b4c165bd62]
link State2 to join_state--><path d="M170.5149,259.9713 C181.3473,279.253 195.3973,304.262 202.7768,317.3975 " fill="none" id="State2-&gt;join_state" style="stroke: #2A9FD6; stroke-width: 3.125;"/><polygon fill="#2A9FD6" points="205.3398,321.9597,204.3805,311.7454,202.7887,317.4189,197.1153,315.8271,205.3398,321.9597" style="stroke: #2A9FD6; stroke-width: 3.125;"/><!--MD5=[183fde86cac17ac230b97143534e47db]
link State3 to join_state--><path d="M245.8561,259.9713 C234.807,279.253 220.476,304.262 212.9489,317.3975 " fill="none" id="State3-&gt;join_state" style="stroke: #2A9FD6; stroke-width: 3.125;"/><polygon fill="#2A9FD6" points="210.3347,321.9597,218.611,315.8971,212.9242,317.4407,211.3806,311.754,210.3347,321.9597" style="stroke: #2A9FD6; stroke-width: 3.125;"/><!--MD5=[1e473d623208eebf6d5ebd6e9bc5a11d]
link join_state to State4--><path d="M207.8125,330.8326 C207.8125,340.9691 207.8125,366.4453 207.8125,387.4314 " fill="none" id="join_state-&gt;State4" style="stroke: #2A9FD6; stroke-width: 3.125;"/><polygon fill="#2A9FD6" points="207.8125,392.658,211.9792,383.283,207.8125,387.4496,203.6458,383.283,207.8125,392.658" style="stroke: #2A9FD6; stroke-width: 3.125;"/><!--MD5=[0a70b1a7cf318979336334b4227eefe4]
link State4 to Active--><path d="M207.8125,445.2385 C207.8125,459.7642 207.8125,479.4949 207.8125,502.2585 " fill="none" id="State4-&gt;Active" style="stroke: #2A9FD6; stroke-width: 3.125;"/><polygon fill="#2A9FD6" points="207.8125,507.4744,211.9792,498.0994,207.8125,502.2661,203.6458,498.0994,207.8125,507.4744" style="stroke: #2A9FD6; stroke-width: 3.125;"/><!--MD5=[c98461ae69ac39c48b5b5a98c1f69e27]
@startuml



skinparam backgroundColor black






skinparam defaultFontName       "Verdana"
skinparam defaultFontSize       12
skinparam dpi                   100
skinparam shadowing             false
skinparam roundcorner           8
skinparam ParticipantPadding    10
skinparam BoxPadding            2
skinparam Padding               2
skinparam TitleFontColor	    #ADAFAE
skinparam TitleFontSize	    	20
skinparam TitleBorderThickness 	0
skinparam ArrowColor            #ADAFAE

skinparam legend {
	BackgroundColor black
	BorderColor #777777
	FontColor #ADAFAE
}

skinparam activity {
	TitleFontSize 20
	TitleFontColor #ADAFAE
	FontColor #2A9FD6
	BorderColor #2A9FD6
	BackgroundColor black
	BarColor #77B300
	StartColor #9933CC
	EndColor #9933CC
	DiamondBackgroundColor black
  	DiamondBorderColor #777777
  	DiamondFontColor #777777
}

skinparam sequence {
	BorderColor #2A9FD6
	TitleFontSize 20
	TitleFontColor #ADAFAE
	BackgroundColor black
	StartColor #2A9FD6
	EndColor #2A9FD6
    ParticipantBackgroundColor black
    ParticipantBorderColor #2A9FD6
	ParticipantBorderThickness 1
	ParticipantFontColor #2A9FD6
	ActorBackgroundColor black
    ActorBorderColor #2A9FD6
	ActorFontColor #2A9FD6
	ArrowThickness 3
	ArrowColor #2A9FD6
	BoxBackgroundColor black
	BoxBorderColor #ADAFAE
	BoxFontColor $DARk
	LifeLineBorderColor #555
	LifeLineBorderThickness 2
	LifeLineBackgroundColor black
	GroupBorderColor #ADAFAE
	GroupFontColor #ADAFAE
	GroupHeaderFontColor #9933CC
	DividerBackgroundColor black
    DividerBorderColor #ADAFAE
    DividerBorderThickness 2
    DividerFontColor #ADAFAE
	ReferenceBackgroundColor black
	ReferenceBorderColor #ADAFAE
	ReferenceFontColor #ADAFAE
	ReferenceHeaderFontColor #9933CC
}

skinparam partition {
	BorderColor #2A9FD6
	FontColor #2A9FD6
	BackgroundColor black
}

skinparam collections {
	BackgroundColor black
	BorderColor #55B2DE
}

skinparam control {
	BackgroundColor  black
	BorderColor #55B2DE
	FontColor #ADAFAE
}

skinparam entity {
	BackgroundColor  black
	BorderColor #55B2DE
	FontColor #ADAFAE
}

skinparam boundary {
	BackgroundColor  black
	BorderColor #55B2DE
	FontColor #ADAFAE
}

skinparam agent {
	BackgroundColor black
	BorderColor $WARNING_LIGHT
	FontColor #ADAFAE
}

skinparam note {
	BorderThickness 1
	BackgroundColor black
	BorderColor #AD5CD6
	FontColor #AD5CD6
}

skinparam artifact {
	BackgroundColor black
	BorderColor #BDBFBE
	FontColor #BDBFBE
}

skinparam component {
	BackgroundColor  black
	BorderColor  #92C233
	FontColor #77B300
}

skinparam interface {
	BackgroundColor  black
	BorderColor  #CC0000
	FontColor #ADAFAE
}

skinparam storage {
	BackgroundColor black
  	BorderColor #FFA033
	FontColor #FF8800
}

skinparam node {
	BackgroundColor  black
	BorderColor #ADAFAE
	FontColor #ADAFAE
}

skinparam cloud {
	BackgroundColor black
	BorderColor lightskyblue
	FontColor #ADAFAE
}

skinparam database {
	BackgroundColor  black
	BorderColor #55B2DE
	FontColor #ADAFAE
}

skinparam actor {
	FontColor #ADAFAE
}

skinparam class {
	HeaderBackgroundColor #227FAB
	FontColor #2A9FD6
	BackgroundColor black
	BorderColor #55B2DE
	StereotypeFontColor #ADAFAE
	BorderThickness 1
	AttributeFontColor #ADAFAE
	AttributeFontSize 11
}

skinparam object {
	FontColor #77B300
	BackgroundColor black
	BorderColor #777777
	StereotypeFontColor #ADAFAE
	BorderThickness 1
	AttributeFontColor #777777
	AttributeFontSize 11
}

skinparam usecase {
	BackgroundColor black
	BorderColor #555
	BorderThickness 2
	FontColor #777777
	StereotypeFontColor #2A9FD6
}

skinparam rectangle {
	BackgroundColor black
	BorderColor #227FAB
	BorderThickness 2
	FontColor #2A9FD6
	StereotypeFontColor #2A9FD6
}

skinparam package {
	BackgroundColor black
  	BorderColor #2A9FD6
	FontColor #2A9FD6
	BorderThickness 2
}

skinparam folder {
	BackgroundColor black
  	BorderColor #FF8800
	FontColor #FF8800
	BorderThickness 2
}

skinparam frame {
	BackgroundColor black
  	BorderColor #9933CC
	FontColor #9933CC
	BorderThickness 2
}

skinparam state {
	StartColor #9933CC
	EndColor #9933CC
	BackgroundColor black
	BorderColor #777777
	FontColor #9933CC
	AttributeFontColor #777777
	AttributeFontSize 11
}

skinparam queue {
	BackgroundColor black
  	BorderColor #FF8800
	FontColor #FF8800
}

skinparam card {
	BackgroundColor black
	BorderColor #9933CC
	FontColor #9933CC
}

skinparam file {
	BackgroundColor black
	BorderColor #555
	FontColor #555
}

skinparam stack {
	BackgroundColor black
	BorderColor #2A9FD6
	FontColor #2A9FD6
}

title State Diagram - cyborg-outline theme


state fork_state <<fork>>
[*] - -> fork_state
fork_state - -> State2
fork_state - -> State3

state join_state <<join>>
State2 - -> join_state
State3 - -> join_state
join_state - -> State4
State4 - -> Active

state Active {
  [*] -> NumLockOff
  NumLockOff - -> NumLockOn : EvNumLockPressed
  NumLockOn - -> NumLockOff : EvNumLockPressed
  - -
  [*] -> CapsLockOff
  CapsLockOff - -> CapsLockOn : EvCapsLockPressed
  CapsLockOn - -> CapsLockOff : EvCapsLockPressed
  - -
  [*] -> ScrollLockOff
  ScrollLockOff - -> ScrollLockOn : EvCapsLockPressed
  ScrollLockOn - -> ScrollLockOff : EvCapsLockPressed
}

@enduml

PlantUML version 1.2019.11(Sun Sep 22 03:02:15 PDT 2019)
(GPL source distribution)
Java Runtime: OpenJDK Runtime Environment
JVM: OpenJDK 64-Bit Server VM
Java Version: 11.0.4+11-post-Ubuntu-1ubuntu218.04.3
Operating System: Linux
Default Encoding: UTF-8
Language: en
Country: US
--></g></svg>