<?xml version="1.0" encoding="UTF-8" standalone="no"?><svg xmlns="http://www.w3.org/2000/svg" xmlns:xlink="http://www.w3.org/1999/xlink" contentScriptType="application/ecmascript" contentStyleType="text/css" height="1175px" preserveAspectRatio="none" style="width:442px;height:1175px;background:#000000;" version="1.1" viewBox="0 0 442 1175" width="442.7083px" zoomAndPan="magnify"><defs/><g><rect fill="#000000" height="46.1528" rx="4.1667" ry="4.1667" style="stroke: #777777; stroke-width: 1.0416666666666667;" width="429.1667" x="2.0833" y="2.0833"/><text fill="#2A9FD6" font-family="Verdana" font-size="20.8333" lengthAdjust="spacingAndGlyphs" textLength="402.0833" x="15.625" y="33.4452">State Diagram - cyborg-outline theme</text><rect fill="#77B300" height="8.3333" style="stroke: none; stroke-width: 1.0416666666666667;" width="83.3333" x="169.2708" y="143.0278"/><ellipse cx="210.9375" cy="70.1111" fill="#9933CC" rx="10.4167" ry="10.4167" style="stroke: none; stroke-width: 1.0416666666666667;"/><rect fill="#000000" height="56.8583" rx="13.0208" ry="13.0208" style="stroke: #55B2DE; stroke-width: 1.5625;" width="75" x="118.2292" y="213.8611"/><line style="stroke: #55B2DE; stroke-width: 1.5625;" x1="118.2292" x2="193.2292" y1="249.8861" y2="249.8861"/><text fill="#2A9FD6" font-family="Verdana" font-size="12.5" lengthAdjust="spacingAndGlyphs" textLength="43.75" x="133.8542" y="236.8449">State2</text><rect fill="#000000" height="56.8583" rx="13.0208" ry="13.0208" style="stroke: #55B2DE; stroke-width: 1.5625;" width="75" x="229.6875" y="213.8611"/><line style="stroke: #55B2DE; stroke-width: 1.5625;" x1="229.6875" x2="304.6875" y1="249.8861" y2="249.8861"/><text fill="#2A9FD6" font-family="Verdana" font-size="12.5" lengthAdjust="spacingAndGlyphs" textLength="43.75" x="245.3125" y="236.8449">State3</text><rect fill="#77B300" height="8.3333" style="stroke: none; stroke-width: 1.0416666666666667;" width="83.3333" x="169.2708" y="333.6528"/><rect fill="#000000" height="56.8583" rx="13.0208" ry="13.0208" style="stroke: #55B2DE; stroke-width: 1.5625;" width="75" x="173.4375" y="404.4861"/><line style="stroke: #55B2DE; stroke-width: 1.5625;" x1="173.4375" x2="248.4375" y1="440.5111" y2="440.5111"/><text fill="#2A9FD6" font-family="Verdana" font-size="12.5" lengthAdjust="spacingAndGlyphs" textLength="43.75" x="189.0625" y="427.4699">State4</text><rect fill="#000000" height="640.1917" rx="13.0208" ry="13.0208" style="stroke: #55B2DE; stroke-width: 1.5625;" width="351.0417" x="35.4167" y="524.2778"/><rect fill="#000000" height="597.9167" rx="13.0208" ry="13.0208" style="stroke: #000000; stroke-width: 1.0416666666666667;" width="344.7917" x="38.5417" y="563.4277"/><line style="stroke: #55B2DE; stroke-width: 1.5625;" x1="35.4167" x2="386.4583" y1="560.3027" y2="560.3027"/><text fill="#2A9FD6" font-family="Verdana" font-size="12.5" lengthAdjust="spacingAndGlyphs" textLength="38.5417" x="191.6667" y="547.2616">Active</text><ellipse cx="57.2917" cy="602.4902" fill="#9933CC" rx="10.4167" ry="10.4167" style="stroke: none; stroke-width: 1.0416666666666667;"/><rect fill="#000000" height="56.8583" rx="13.0208" ry="13.0208" style="stroke: #55B2DE; stroke-width: 1.5625;" width="108.3333" x="86.4583" y="573.8444"/><line style="stroke: #55B2DE; stroke-width: 1.5625;" x1="86.4583" x2="194.7917" y1="609.8694" y2="609.8694"/><text fill="#2A9FD6" font-family="Verdana" font-size="12.5" lengthAdjust="spacingAndGlyphs" textLength="77.0833" x="102.0833" y="596.8282">NumLockOff</text><rect fill="#000000" height="56.8583" rx="13.0208" ry="13.0208" style="stroke: #55B2DE; stroke-width: 1.5625;" width="108.3333" x="85.4167" y="695.7194"/><line style="stroke: #55B2DE; stroke-width: 1.5625;" x1="85.4167" x2="193.75" y1="731.7444" y2="731.7444"/><text fill="#2A9FD6" font-family="Verdana" font-size="12.5" lengthAdjust="spacingAndGlyphs" textLength="77.0833" x="101.0417" y="718.7032">NumLockOn</text><!--MD5=[f1e44e9cdf7ed6fd162579f896fb76ea]
link *start*Active to NumLockOff--><path d="M68.0339,602.4902 C72.2873,602.4902 76.5406,602.4902 80.7941,602.4902 " fill="none" id="*start*Active-&gt;NumLockOff" style="stroke: #2A9FD6; stroke-width: 3.125;"/><polygon fill="#2A9FD6" points="86.1817,602.4902,76.8067,598.3236,80.9733,602.4902,76.8067,606.6569,86.1817,602.4902" style="stroke: #2A9FD6; stroke-width: 3.125;"/><!--MD5=[b6ef3c088f5474ecc81df30475e7d61b]
link NumLockOff to NumLockOn--><path d="M86.2135,629.2361 C73.686,636.2986 62.9638,643.7069 59.375,649.8861 C53.3297,660.2949 53.3587,666.5438 59.375,676.9694 C64.462,685.7846 71.935,693.0742 80.3038,699.0537 " fill="none" id="NumLockOff-&gt;NumLockOn" style="stroke: #2A9FD6; stroke-width: 3.125;"/><polygon fill="#2A9FD6" points="85.0357,702.2422,79.5893,693.5481,80.7164,699.3318,74.9327,700.459,85.0357,702.2422" style="stroke: #2A9FD6; stroke-width: 3.125;"/><text fill="#FFFFFF" font-family="Verdana" font-size="12.5" lengthAdjust="spacingAndGlyphs" textLength="127.0833" x="65.625" y="668.7032">EvNumLockPressed</text><!--MD5=[3bfddee0d82dc74c927fbeb3d3f2e6a3]
link NumLockOn to NumLockOff--><path d="M184.9396,695.5399 C190.5969,690.1038 195.575,683.9037 198.9583,676.9694 C204.2375,666.1516 204.1906,660.7265 198.9583,649.8861 C196.375,644.535 192.8417,639.6111 188.7802,635.134 " fill="none" id="NumLockOn-&gt;NumLockOff" style="stroke: #2A9FD6; stroke-width: 3.125;"/><polygon fill="#2A9FD6" points="184.9146,631.1486,188.45,640.7794,188.5405,634.8875,194.4323,634.978,184.9146,631.1486" style="stroke: #2A9FD6; stroke-width: 3.125;"/><text fill="#FFFFFF" font-family="Verdana" font-size="12.5" lengthAdjust="spacingAndGlyphs" textLength="127.0833" x="209.375" y="668.7032">EvNumLockPressed</text><line style="stroke: #55B2DE; stroke-width: 1.5625; stroke-dasharray: 8.0,10.0;" x1="40.625" x2="379.1667" y1="763.4277" y2="763.4277"/><ellipse cx="57.2917" cy="800.4069" fill="#9933CC" rx="10.4167" ry="10.4167" style="stroke: none; stroke-width: 1.0416666666666667;"/><rect fill="#000000" height="56.8583" rx="13.0208" ry="13.0208" style="stroke: #55B2DE; stroke-width: 1.5625;" width="112.5" x="86.4583" y="771.7611"/><line style="stroke: #55B2DE; stroke-width: 1.5625;" x1="86.4583" x2="198.9583" y1="807.7861" y2="807.7861"/><text fill="#2A9FD6" font-family="Verdana" font-size="12.5" lengthAdjust="spacingAndGlyphs" textLength="81.25" x="102.0833" y="794.7449">CapsLockOff</text><rect fill="#000000" height="56.8583" rx="13.0208" ry="13.0208" style="stroke: #55B2DE; stroke-width: 1.5625;" width="112.5" x="85.4167" y="893.6361"/><line style="stroke: #55B2DE; stroke-width: 1.5625;" x1="85.4167" x2="197.9167" y1="929.6611" y2="929.6611"/><text fill="#2A9FD6" font-family="Verdana" font-size="12.5" lengthAdjust="spacingAndGlyphs" textLength="81.25" x="101.0417" y="916.6199">CapsLockOn</text><!--MD5=[ad44b9de6595643ec3df1279e2e825ac]
link *start*CONC82 to CapsLockOff--><path d="M67.9688,800.4069 C72.2796,800.4069 76.5904,800.4069 80.9013,800.4069 " fill="none" id="*start*CONC82-&gt;CapsLockOff" style="stroke: #2A9FD6; stroke-width: 3.125;"/><polygon fill="#2A9FD6" points="86.3617,800.4069,76.9867,796.2402,81.1533,800.4069,76.9867,804.5736,86.3617,800.4069" style="stroke: #2A9FD6; stroke-width: 3.125;"/><!--MD5=[dc4675bd3056f3ef68701d9e8e02a3f3]
link CapsLockOff to CapsLockOn--><path d="M86.0436,827.5059 C73.572,834.4215 62.9834,841.6663 59.375,847.8027 C53.2734,858.1788 53.3013,864.4938 59.375,874.8861 C64.541,883.7252 72.0823,891.0101 80.5328,896.9732 " fill="none" id="CapsLockOff-&gt;CapsLockOn" style="stroke: #2A9FD6; stroke-width: 3.125;"/><polygon fill="#2A9FD6" points="85.3118,900.1514,79.8129,891.4903,80.975,897.2671,75.1981,898.4292,85.3118,900.1514" style="stroke: #2A9FD6; stroke-width: 3.125;"/><text fill="#FFFFFF" font-family="Verdana" font-size="12.5" lengthAdjust="spacingAndGlyphs" textLength="131.25" x="65.625" y="866.6199">EvCapsLockPressed</text><!--MD5=[79e17b083e07746bd1a647600952cab6]
link CapsLockOn to CapsLockOff--><path d="M188.8865,893.3967 C194.6229,887.9973 199.6677,881.8238 203.125,874.8861 C208.4938,864.1125 208.449,858.5983 203.125,847.8027 C200.4833,842.4465 196.8927,837.5371 192.7708,833.084 " fill="none" id="CapsLockOn-&gt;CapsLockOff" style="stroke: #2A9FD6; stroke-width: 3.125;"/><polygon fill="#2A9FD6" points="188.8479,829.1236,192.4843,838.7167,192.5129,832.8242,198.4054,832.8528,188.8479,829.1236" style="stroke: #2A9FD6; stroke-width: 3.125;"/><text fill="#FFFFFF" font-family="Verdana" font-size="12.5" lengthAdjust="spacingAndGlyphs" textLength="131.25" x="213.5417" y="866.6199">EvCapsLockPressed</text><line style="stroke: #55B2DE; stroke-width: 1.5625; stroke-dasharray: 8.0,10.0;" x1="40.625" x2="379.1667" y1="961.3444" y2="961.3444"/><ellipse cx="57.2917" cy="998.3236" fill="#9933CC" rx="10.4167" ry="10.4167" style="stroke: none; stroke-width: 1.0416666666666667;"/><rect fill="#000000" height="56.8583" rx="13.0208" ry="13.0208" style="stroke: #55B2DE; stroke-width: 1.5625;" width="113.5417" x="86.9792" y="969.6777"/><line style="stroke: #55B2DE; stroke-width: 1.5625;" x1="86.9792" x2="200.5208" y1="1005.7027" y2="1005.7027"/><text fill="#2A9FD6" font-family="Verdana" font-size="12.5" lengthAdjust="spacingAndGlyphs" textLength="82.2917" x="102.6042" y="992.6615">ScrollLockOff</text><rect fill="#000000" height="56.8583" rx="13.0208" ry="13.0208" style="stroke: #55B2DE; stroke-width: 1.5625;" width="113.5417" x="86.9792" y="1091.5527"/><line style="stroke: #55B2DE; stroke-width: 1.5625;" x1="86.9792" x2="200.5208" y1="1127.5777" y2="1127.5777"/><text fill="#2A9FD6" font-family="Verdana" font-size="12.5" lengthAdjust="spacingAndGlyphs" textLength="82.2917" x="102.6042" y="1114.5365">ScrollLockOn</text><!--MD5=[9a8b2c0f7fde6bd227d6334344b3ad45]
link *start*CONC90 to ScrollLockOff--><path d="M67.7613,998.3236 C72.3126,998.3236 76.8641,998.3236 81.4154,998.3236 " fill="none" id="*start*CONC90-&gt;ScrollLockOff" style="stroke: #2A9FD6; stroke-width: 3.125;"/><polygon fill="#2A9FD6" points="86.7584,998.3236,77.3834,994.1569,81.5501,998.3236,77.3834,1002.4902,86.7584,998.3236" style="stroke: #2A9FD6; stroke-width: 3.125;"/><!--MD5=[da4e1e55b4a6de250eca2c82023085fa]
link ScrollLockOff to ScrollLockOn--><path d="M86.9758,1020.7184 C76.7851,1027.1746 67.4983,1035.385 61.4583,1045.7194 C55.3846,1056.1117 55.3846,1062.4104 61.4583,1072.8027 C66.5546,1081.5225 73.9622,1088.7297 82.2741,1094.6473 " fill="none" id="ScrollLockOff-&gt;ScrollLockOn" style="stroke: #2A9FD6; stroke-width: 3.125;"/><polygon fill="#2A9FD6" points="86.9758,1097.8037,81.5145,1089.1189,82.6516,1094.9007,76.8697,1096.0377,86.9758,1097.8037" style="stroke: #2A9FD6; stroke-width: 3.125;"/><text fill="#FFFFFF" font-family="Verdana" font-size="12.5" lengthAdjust="spacingAndGlyphs" textLength="131.25" x="67.7083" y="1064.5365">EvCapsLockPressed</text><!--MD5=[6ad2c621f2407b82317910f4deb17639]
link ScrollLockOn to ScrollLockOff--><path d="M190.9698,1091.3134 C196.7063,1085.914 201.751,1079.7404 205.2083,1072.8027 C210.5771,1062.0292 210.5771,1056.4929 205.2083,1045.7194 C202.5615,1040.4079 198.9833,1035.5444 194.8771,1031.1329 " fill="none" id="ScrollLockOn-&gt;ScrollLockOff" style="stroke: #2A9FD6; stroke-width: 3.125;"/><polygon fill="#2A9FD6" points="190.9698,1027.209,194.6313,1036.7926,194.6444,1030.9,200.537,1030.9131,190.9698,1027.209" style="stroke: #2A9FD6; stroke-width: 3.125;"/><text fill="#FFFFFF" font-family="Verdana" font-size="12.5" lengthAdjust="spacingAndGlyphs" textLength="131.25" x="214.5833" y="1064.5365">EvCapsLockPressed</text><!--MD5=[242ad121cef04112e9b0ee8f25f52375]
link *start to fork_state--><path d="M210.9375,80.6528 C210.9375,95.2778 210.9375,123.1215 210.9375,137.3309 " fill="none" id="*start-&gt;fork_state" style="stroke: #2A9FD6; stroke-width: 3.125;"/><polygon fill="#2A9FD6" points="210.9375,142.8048,215.1042,133.4298,210.9375,137.5965,206.7708,133.4298,210.9375,142.8048" style="stroke: #2A9FD6; stroke-width: 3.125;"/><!--MD5=[44dd36eb382d4fffd186e8c447a61da0]
link fork_state to State2--><path d="M208.8406,151.7767 C203.2875,161.1548 187.7448,187.4017 174.8979,209.0955 " fill="none" id="fork_state-&gt;State2" style="stroke: #2A9FD6; stroke-width: 3.125;"/><polygon fill="#2A9FD6" points="172.2021,213.6475,180.5633,207.7026,174.8552,209.1656,173.3922,203.4576,172.2021,213.6475" style="stroke: #2A9FD6; stroke-width: 3.125;"/><!--MD5=[43d4d70f9cd19f132a5eb1ce9d85c890]
link fork_state to State3--><path d="M213.074,151.7767 C218.7323,161.1548 234.5677,187.4017 247.6573,209.0955 " fill="none" id="fork_state-&gt;State3" style="stroke: #2A9FD6; stroke-width: 3.125;"/><polygon fill="#2A9FD6" points="250.4031,213.6475,249.1282,203.4678,247.7127,209.1879,241.9927,207.7725,250.4031,213.6475" style="stroke: #2A9FD6; stroke-width: 3.125;"/><!--MD5=[8cf5ef3a64654818495211b4c165bd62]
link State2 to join_state--><path d="M172.2938,271.5205 C183.8552,291.0434 198.5094,315.7903 206.0156,328.4663 " fill="none" id="State2-&gt;join_state" style="stroke: #2A9FD6; stroke-width: 3.125;"/><polygon fill="#2A9FD6" points="208.7646,333.109,207.573,322.9192,206.1108,328.6275,200.4025,327.1653,208.7646,333.109" style="stroke: #2A9FD6; stroke-width: 3.125;"/><!--MD5=[183fde86cac17ac230b97143534e47db]
link State3 to join_state--><path d="M250.3104,271.5205 C238.5313,291.0434 223.6,315.7903 215.9521,328.4663 " fill="none" id="State3-&gt;join_state" style="stroke: #2A9FD6; stroke-width: 3.125;"/><polygon fill="#2A9FD6" points="213.151,333.109,221.5615,327.2339,215.8414,328.6493,214.426,322.9293,213.151,333.109" style="stroke: #2A9FD6; stroke-width: 3.125;"/><!--MD5=[1e473d623208eebf6d5ebd6e9bc5a11d]
link join_state to State4--><path d="M210.9375,342.4017 C210.9375,351.6621 210.9375,377.3705 210.9375,398.9007 " fill="none" id="join_state-&gt;State4" style="stroke: #2A9FD6; stroke-width: 3.125;"/><polygon fill="#2A9FD6" points="210.9375,404.2725,215.1042,394.8975,210.9375,399.0642,206.7708,394.8975,210.9375,404.2725" style="stroke: #2A9FD6; stroke-width: 3.125;"/><!--MD5=[0a70b1a7cf318979336334b4227eefe4]
link State4 to Active--><path d="M210.9375,461.9903 C210.9375,476.5673 210.9375,496.084 210.9375,518.61 " fill="none" id="State4-&gt;Active" style="stroke: #2A9FD6; stroke-width: 3.125;"/><polygon fill="#2A9FD6" points="210.9375,524.085,215.1042,514.71,210.9375,518.8767,206.7708,514.71,210.9375,524.085" style="stroke: #2A9FD6; stroke-width: 3.125;"/><!--MD5=[2cbbce44bf62b33f3dc6f3d0e57e8311]
@startuml



skinparam backgroundColor black







skinparam defaultFontName       "Verdana"
skinparam defaultFontSize       12
skinparam dpi                   100
skinparam shadowing             false
skinparam roundcorner           8
skinparam ParticipantPadding    40
skinparam BoxPadding            40
skinparam Padding               5
skinparam ArrowColor            #ADAFAE
skinparam stereotype {
    CBackgroundColor #777777
    CBorderColor #444444
    ABackgroundColor #5F8F00
    ABorderColor #92C233
    IBackgroundColor #a30000
    IBorderColor #D63333
    EBackgroundColor #cc6d00
    EBorderColor #FFA033
    NBackgroundColor #7a29a3
    NBorderColor #AD5CD6
}
skinparam title {
	FontColor	                 #2A9FD6
	BorderColor	                 #777777
	FontSize	    	         20
	BorderRoundCorner            8
	BorderThickness 	         1
	BackgroundColor              black
}

skinparam legend {
	BackgroundColor black
	BorderColor #777777
	FontColor #ADAFAE
}

skinparam activity {
	FontColor #2A9FD6
	BorderColor #2A9FD6
	BackgroundColor black
	BarColor #77B300
	StartColor #9933CC
	EndColor #9933CC
	DiamondBackgroundColor black
  	DiamondBorderColor #777777
  	DiamondFontColor #777777
}

skinparam participant {
		FontColor #2A9FD6
	BorderColor #55B2DE
	BackgroundColor black
	ParticipantBorderThickness 2
}

skinparam actor {
		FontColor #2A9FD6
	BorderColor #55B2DE
	BackgroundColor black
	FontColor #2A9FD6
}

skinparam arrow {
	Thickness 3
	Color #2A9FD6
	FontColor #FFF
}

skinparam sequence {
	BorderColor #2A9FD6
	TitleFontColor #2A9FD6
	BackgroundColor black
	StartColor #2A9FD6
	EndColor #2A9FD6
	BoxBackgroundColor black
	BoxBorderColor #ADAFAE
	BoxFontColor $DARk
	LifeLineBorderColor #555
	LifeLineBorderThickness 2
	LifeLineBackgroundColor black
	GroupBorderColor #ADAFAE
	GroupFontColor #ADAFAE
	GroupHeaderFontColor #9933CC
	DividerBackgroundColor black
    DividerBorderColor #ADAFAE
    DividerBorderThickness 2
    DividerFontColor #ADAFAE
	ReferenceBackgroundColor black
	ReferenceBorderColor #ADAFAE
	ReferenceFontColor #ADAFAE
	ReferenceHeaderFontColor #9933CC
}

skinparam partition {
	BorderColor #2A9FD6
	FontColor #2A9FD6
	BackgroundColor black
}

skinparam collections {
		FontColor #2A9FD6
	BorderColor #55B2DE
	BackgroundColor black
}

skinparam control {
		FontColor #2A9FD6
	BorderColor #55B2DE
	BackgroundColor black
	FontColor #2A9FD6
}

skinparam entity {
		FontColor #2A9FD6
	BorderColor #55B2DE
	BackgroundColor black
	FontColor #2A9FD6
}

skinparam boundary {
		FontColor #2A9FD6
	BorderColor #55B2DE
	BackgroundColor black
	FontColor #2A9FD6
}

skinparam agent {
	BackgroundColor black
	BorderColor #cc6d00
	FontColor #ADAFAE
}

skinparam note {
	BorderThickness 1
	BackgroundColor black
	BorderColor #AD5CD6
	FontColor #AD5CD6
}

skinparam artifact {
	BackgroundColor black
	BorderColor #BDBFBE
	FontColor #BDBFBE
}

skinparam component {
		FontColor #2A9FD6
	BorderColor #55B2DE
	BackgroundColor black
}

skinparam interface {
	BackgroundColor  black
	BorderColor  #CC0000
	FontColor #ADAFAE
}

skinparam storage {
	BackgroundColor black
  	BorderColor #FFA033
	FontColor #FF8800
}

skinparam node {
	BackgroundColor  black
	BorderColor #ADAFAE
	FontColor #ADAFAE
}

skinparam cloud {
	BackgroundColor #F2FCFE-#eeeeee
	BorderColor #F2FCFE
	FontColor #ADAFAE
}

skinparam database {
		FontColor #2A9FD6
	BorderColor #55B2DE
	BackgroundColor black
	FontColor #2A9FD6
}


skinparam class {
		FontColor #2A9FD6
	BorderColor #55B2DE
	BackgroundColor black
	HeaderBackgroundColor #227FAB
	StereotypeFontColor #ADAFAE
	BorderThickness 1
	AttributeFontColor #ADAFAE
	AttributeFontSize 11
}

skinparam object {
		FontColor #2A9FD6
	BorderColor #55B2DE
	BackgroundColor black
	StereotypeFontColor #ADAFAE
	BorderThickness 1
	AttributeFontColor #777777
	AttributeFontSize 11
}

skinparam usecase {
		FontColor #2A9FD6
	BorderColor #55B2DE
	BackgroundColor black
	BorderThickness 2
	StereotypeFontColor #2A9FD6
}

skinparam rectangle {
		FontColor #2A9FD6
	BorderColor #55B2DE
	BackgroundColor black
	BorderThickness 2
	StereotypeFontColor #2A9FD6
}

skinparam package {
	BackgroundColor black
  	BorderColor #2A9FD6
	FontColor #2A9FD6
	BorderThickness 2
}

skinparam folder {
	BackgroundColor black
  	BorderColor #FF8800
	FontColor #FF8800
	BorderThickness 2
}

skinparam frame {
	BackgroundColor black
  	BorderColor #9933CC
	FontColor #9933CC
	BorderThickness 2
}

skinparam state {
		FontColor #2A9FD6
	BorderColor #55B2DE
	BackgroundColor black
	StartColor #9933CC
	EndColor #9933CC
	AttributeFontColor #777777
	AttributeFontSize 11
}

skinparam queue {
		FontColor #2A9FD6
	BorderColor #55B2DE
	BackgroundColor black
}

skinparam card {
	BackgroundColor black
	BorderColor #9933CC
	FontColor #9933CC
}

skinparam file {
	BackgroundColor black
	BorderColor #555
	FontColor #555
}

skinparam stack {
		FontColor #2A9FD6
	BorderColor #55B2DE
	BackgroundColor black
}

title State Diagram - cyborg-outline theme


state fork_state <<fork>>
[*] - -> fork_state
fork_state - -> State2
fork_state - -> State3

state join_state <<join>>
State2 - -> join_state
State3 - -> join_state
join_state - -> State4
State4 - -> Active

state Active {
  [*] -> NumLockOff
  NumLockOff - -> NumLockOn : EvNumLockPressed
  NumLockOn - -> NumLockOff : EvNumLockPressed
  - -
  [*] -> CapsLockOff
  CapsLockOff - -> CapsLockOn : EvCapsLockPressed
  CapsLockOn - -> CapsLockOff : EvCapsLockPressed
  - -
  [*] -> ScrollLockOff
  ScrollLockOff - -> ScrollLockOn : EvCapsLockPressed
  ScrollLockOn - -> ScrollLockOff : EvCapsLockPressed
}

@enduml

PlantUML version 1.2019.12(Sun Nov 03 02:24:54 PST 2019)
(GPL source distribution)
Java Runtime: Java(TM) SE Runtime Environment
JVM: Java HotSpot(TM) 64-Bit Server VM
Java Version: 1.8.0_212-b32
Operating System: Windows 10
Default Encoding: Cp1252
Language: en
Country: US
--></g></svg>