<?xml version="1.0" encoding="UTF-8" standalone="no"?><svg xmlns="http://www.w3.org/2000/svg" xmlns:xlink="http://www.w3.org/1999/xlink" contentScriptType="application/ecmascript" contentStyleType="text/css" height="1102.0833px" preserveAspectRatio="none" style="width:436px;height:1102px;" version="1.1" viewBox="0 0 436 1102" width="436.4583px" zoomAndPan="magnify"><defs/><g><rect fill="none" height="39.9028" rx="4.1667" ry="4.1667" style="stroke: none; stroke-width: 1.0416666666666667;" width="422.9167" x="2.0833" y="2.0833"/><text fill="#ADAFAE" font-family="Verdana" font-size="20.8333" lengthAdjust="spacingAndGlyphs" textLength="402.0833" x="12.5" y="30.3202">State Diagram - cyborg-outline theme</text><rect fill="#77B300" height="8.3333" style="stroke: none; stroke-width: 1.0416666666666667;" width="83.3333" x="166.1458" y="136.7778"/><ellipse cx="207.8125" cy="63.8611" fill="#9933CC" rx="10.4167" ry="10.4167" style="stroke: none; stroke-width: 1.0416666666666667;"/><rect fill="#000000" height="52.0833" rx="13.0208" ry="13.0208" style="stroke: #777777; stroke-width: 1.5625;" width="68.75" x="121.3542" y="207.6111"/><line style="stroke: #777777; stroke-width: 1.5625;" x1="121.3542" x2="190.1042" y1="237.3861" y2="237.3861"/><text fill="#9933CC" font-family="Verdana" font-size="12.5" lengthAdjust="spacingAndGlyphs" textLength="43.75" x="133.8542" y="227.4699">State2</text><rect fill="#000000" height="52.0833" rx="13.0208" ry="13.0208" style="stroke: #777777; stroke-width: 1.5625;" width="68.75" x="226.5625" y="207.6111"/><line style="stroke: #777777; stroke-width: 1.5625;" x1="226.5625" x2="295.3125" y1="237.3861" y2="237.3861"/><text fill="#9933CC" font-family="Verdana" font-size="12.5" lengthAdjust="spacingAndGlyphs" textLength="43.75" x="239.0625" y="227.4699">State3</text><rect fill="#77B300" height="8.3333" style="stroke: none; stroke-width: 1.0416666666666667;" width="83.3333" x="166.1458" y="322.1944"/><rect fill="#000000" height="52.0833" rx="13.0208" ry="13.0208" style="stroke: #777777; stroke-width: 1.5625;" width="68.75" x="173.4375" y="393.0278"/><line style="stroke: #777777; stroke-width: 1.5625;" x1="173.4375" x2="242.1875" y1="422.8027" y2="422.8027"/><text fill="#9933CC" font-family="Verdana" font-size="12.5" lengthAdjust="spacingAndGlyphs" textLength="43.75" x="185.9375" y="412.8866">State4</text><rect fill="#000000" height="583.9417" rx="13.0208" ry="13.0208" style="stroke: #777777; stroke-width: 1.5625;" width="337.5" x="39.0625" y="507.6111"/><rect fill="#FFFFFF" height="547.9167" rx="13.0208" ry="13.0208" style="stroke: #FFFFFF; stroke-width: 1.0416666666666667;" width="331.25" x="42.1875" y="540.5111"/><line style="stroke: #777777; stroke-width: 1.5625;" x1="39.0625" x2="376.5625" y1="537.3861" y2="537.3861"/><text fill="#9933CC" font-family="Verdana" font-size="12.5" lengthAdjust="spacingAndGlyphs" textLength="38.5417" x="188.5417" y="527.4699">Active</text><ellipse cx="60.9375" cy="576.9694" fill="#9933CC" rx="10.4167" ry="10.4167" style="stroke: none; stroke-width: 1.0416666666666667;"/><rect fill="#000000" height="52.0833" rx="13.0208" ry="13.0208" style="stroke: #777777; stroke-width: 1.5625;" width="102.0833" x="90.1042" y="550.9277"/><line style="stroke: #777777; stroke-width: 1.5625;" x1="90.1042" x2="192.1875" y1="580.7027" y2="580.7027"/><text fill="#9933CC" font-family="Verdana" font-size="12.5" lengthAdjust="spacingAndGlyphs" textLength="77.0833" x="102.6042" y="570.7865">NumLockOff</text><rect fill="#000000" height="52.0833" rx="13.0208" ry="13.0208" style="stroke: #777777; stroke-width: 1.5625;" width="102.0833" x="89.0625" y="661.3444"/><line style="stroke: #777777; stroke-width: 1.5625;" x1="89.0625" x2="191.1458" y1="691.1194" y2="691.1194"/><text fill="#9933CC" font-family="Verdana" font-size="12.5" lengthAdjust="spacingAndGlyphs" textLength="77.0833" x="101.5625" y="681.2032">NumLockOn</text><!--link *start*Active to NumLockOff--><path d="M71.5902,576.9694 C75.9204,576.9694 80.2506,576.9694 84.5809,576.9694 " fill="none" id="*start*Active-NumLockOff" style="stroke: #2A9FD6; stroke-width: 3.125;"/><polygon fill="#2A9FD6" points="90.0659,576.9694,80.6909,572.8027,84.8576,576.9694,80.6909,581.1361,90.0659,576.9694" style="stroke: #2A9FD6; stroke-width: 3.125;"/><!--link NumLockOff to NumLockOn--><path d="M90.0752,601.5017 C77.503,608.3673 66.5975,615.6589 63.0208,621.7611 C53.2545,638.4237 66.323,652.7454 84.3148,663.638 " fill="none" id="NumLockOff-NumLockOn" style="stroke: #2A9FD6; stroke-width: 3.125;"/><polygon fill="#2A9FD6" points="88.9842,666.3327,82.9471,658.0378,84.4732,663.7293,78.7817,665.2554,88.9842,666.3327" style="stroke: #2A9FD6; stroke-width: 3.125;"/><text fill="#000000" font-family="Verdana" font-size="12.5" lengthAdjust="spacingAndGlyphs" textLength="127.0833" x="66.1458" y="637.4532">EvNumLockPressed</text><!--link NumLockOn to NumLockOff--><path d="M181.9719,661.1777 C187.7844,655.8012 192.9302,649.5961 196.3542,642.5944 C202.6458,629.7308 196.226,617.336 185.8323,606.9048 " fill="none" id="NumLockOn-NumLockOff" style="stroke: #2A9FD6; stroke-width: 3.125;"/><polygon fill="#2A9FD6" points="181.8385,603.1527,185.8175,612.6089,185.6342,606.7192,191.5239,606.5359,181.8385,603.1527" style="stroke: #2A9FD6; stroke-width: 3.125;"/><text fill="#000000" font-family="Verdana" font-size="12.5" lengthAdjust="spacingAndGlyphs" textLength="127.0833" x="202.6042" y="637.4532">EvNumLockPressed</text><line style="stroke: #777777; stroke-width: 1.5625; stroke-dasharray: 8.0,10.0;" x1="44.2708" x2="369.2708" y1="723.8444" y2="723.8444"/><ellipse cx="60.9375" cy="758.2194" fill="#9933CC" rx="10.4167" ry="10.4167" style="stroke: none; stroke-width: 1.0416666666666667;"/><rect fill="#000000" height="52.0833" rx="13.0208" ry="13.0208" style="stroke: #777777; stroke-width: 1.5625;" width="106.25" x="90.1042" y="732.1777"/><line style="stroke: #777777; stroke-width: 1.5625;" x1="90.1042" x2="196.3542" y1="761.9527" y2="761.9527"/><text fill="#9933CC" font-family="Verdana" font-size="12.5" lengthAdjust="spacingAndGlyphs" textLength="81.25" x="102.6042" y="752.0365">CapsLockOff</text><rect fill="#000000" height="52.0833" rx="13.0208" ry="13.0208" style="stroke: #777777; stroke-width: 1.5625;" width="106.25" x="89.0625" y="842.5944"/><line style="stroke: #777777; stroke-width: 1.5625;" x1="89.0625" x2="195.3125" y1="872.3694" y2="872.3694"/><text fill="#9933CC" font-family="Verdana" font-size="12.5" lengthAdjust="spacingAndGlyphs" textLength="81.25" x="101.5625" y="862.4532">CapsLockOn</text><!--link *start*CONC82 to CapsLockOff--><path d="M71.5454,758.2194 C75.8769,758.2194 80.2083,758.2194 84.5398,758.2194 " fill="none" id="*start*CONC82-CapsLockOff" style="stroke: #2A9FD6; stroke-width: 3.125;"/><polygon fill="#2A9FD6" points="90.0264,758.2194,80.6514,754.0527,84.818,758.2194,80.6514,762.3861,90.0264,758.2194" style="stroke: #2A9FD6; stroke-width: 3.125;"/><!--link CapsLockOff to CapsLockOn--><path d="M89.9633,783.0757 C77.4161,789.8038 66.624,796.9415 63.0208,803.0111 C53.1714,819.6029 65.9871,833.7554 83.9843,844.546 " fill="none" id="CapsLockOff-CapsLockOn" style="stroke: #2A9FD6; stroke-width: 3.125;"/><polygon fill="#2A9FD6" points="88.6608,847.2163,82.5856,838.9493,84.1379,844.6337,78.4535,846.1859,88.6608,847.2163" style="stroke: #2A9FD6; stroke-width: 3.125;"/><text fill="#000000" font-family="Verdana" font-size="12.5" lengthAdjust="spacingAndGlyphs" textLength="131.25" x="66.1458" y="818.7032">EvCapsLockPressed</text><!--link CapsLockOn to CapsLockOff--><path d="M185.8667,842.3943 C191.7792,837.0503 197.0104,830.8645 200.5208,823.8444 C206.9688,810.9495 200.4823,798.6272 189.8719,788.2673 " fill="none" id="CapsLockOn-CapsLockOff" style="stroke: #2A9FD6; stroke-width: 3.125;"/><polygon fill="#2A9FD6" points="185.7927,784.5423,189.907,793.9404,189.6391,788.054,195.5256,787.7861,185.7927,784.5423" style="stroke: #2A9FD6; stroke-width: 3.125;"/><text fill="#000000" font-family="Verdana" font-size="12.5" lengthAdjust="spacingAndGlyphs" textLength="131.25" x="206.7708" y="818.7032">EvCapsLockPressed</text><line style="stroke: #777777; stroke-width: 1.5625; stroke-dasharray: 8.0,10.0;" x1="44.2708" x2="369.2708" y1="905.0944" y2="905.0944"/><ellipse cx="60.9375" cy="939.4694" fill="#9933CC" rx="10.4167" ry="10.4167" style="stroke: none; stroke-width: 1.0416666666666667;"/><rect fill="#000000" height="52.0833" rx="13.0208" ry="13.0208" style="stroke: #777777; stroke-width: 1.5625;" width="107.2917" x="90.625" y="913.4277"/><line style="stroke: #777777; stroke-width: 1.5625;" x1="90.625" x2="197.9167" y1="943.2027" y2="943.2027"/><text fill="#9933CC" font-family="Verdana" font-size="12.5" lengthAdjust="spacingAndGlyphs" textLength="82.2917" x="103.125" y="933.2865">ScrollLockOff</text><rect fill="#000000" height="52.0833" rx="13.0208" ry="13.0208" style="stroke: #777777; stroke-width: 1.5625;" width="107.2917" x="90.625" y="1023.8444"/><line style="stroke: #777777; stroke-width: 1.5625;" x1="90.625" x2="197.9167" y1="1053.6194" y2="1053.6194"/><text fill="#9933CC" font-family="Verdana" font-size="12.5" lengthAdjust="spacingAndGlyphs" textLength="82.2917" x="103.125" y="1043.7032">ScrollLockOn</text><!--link *start*CONC90 to ScrollLockOff--><path d="M71.3542,939.4694 C75.9263,939.4694 80.4984,939.4694 85.0705,939.4694 " fill="none" id="*start*CONC90-ScrollLockOff" style="stroke: #2A9FD6; stroke-width: 3.125;"/><polygon fill="#2A9FD6" points="90.4378,939.4694,81.0628,935.3027,85.2295,939.4694,81.0628,943.6361,90.4378,939.4694" style="stroke: #2A9FD6; stroke-width: 3.125;"/><!--link ScrollLockOff to ScrollLockOn--><path d="M90.4817,959.9829 C80.3609,966.1621 71.0882,974.1171 65.1042,984.2611 C55.3836,1000.7392 67.9073,1014.7965 85.6568,1025.5478 " fill="none" id="ScrollLockOff-ScrollLockOn" style="stroke: #2A9FD6; stroke-width: 3.125;"/><polygon fill="#2A9FD6" points="90.2716,1028.2095,84.2323,1019.9162,85.7599,1025.6073,80.0688,1027.1349,90.2716,1028.2095" style="stroke: #2A9FD6; stroke-width: 3.125;"/><text fill="#000000" font-family="Verdana" font-size="12.5" lengthAdjust="spacingAndGlyphs" textLength="131.25" x="68.2292" y="999.9532">EvCapsLockPressed</text><!--link ScrollLockOn to ScrollLockOff--><path d="M187.5344,1023.6801 C200.6594,1012.631 209.9021,998.8561 202.6042,984.2611 C199.8615,978.7767 196.0688,973.8014 191.7219,969.3392 " fill="none" id="ScrollLockOn-ScrollLockOff" style="stroke: #2A9FD6; stroke-width: 3.125;"/><polygon fill="#2A9FD6" points="187.95,965.7111,191.8179,975.2132,191.7036,969.3218,197.595,969.2075,187.95,965.7111" style="stroke: #2A9FD6; stroke-width: 3.125;"/><text fill="#000000" font-family="Verdana" font-size="12.5" lengthAdjust="spacingAndGlyphs" textLength="131.25" x="207.8125" y="999.9532">EvCapsLockPressed</text><!--link *start to fork_state--><path d="M207.8125,74.4017 C207.8125,89.0309 207.8125,116.8715 207.8125,131.0809 " fill="none" id="*start-fork_state" style="stroke: #2A9FD6; stroke-width: 3.125;"/><polygon fill="#2A9FD6" points="207.8125,136.5548,211.9792,127.1798,207.8125,131.3465,203.6458,127.1798,207.8125,136.5548" style="stroke: #2A9FD6; stroke-width: 3.125;"/><!--link fork_state to State2--><path d="M205.8344,145.4278 C200.4792,154.7465 185.2771,181.1986 173.0104,202.5423 " fill="none" id="fork_state-State2" style="stroke: #2A9FD6; stroke-width: 3.125;"/><polygon fill="#2A9FD6" points="170.2823,207.2882,178.5667,201.2368,172.8779,202.7727,171.342,197.0838,170.2823,207.2882" style="stroke: #2A9FD6; stroke-width: 3.125;"/><!--link fork_state to State3--><path d="M209.8302,145.4278 C215.2927,154.7465 230.799,181.1986 243.3115,202.5423 " fill="none" id="fork_state-State3" style="stroke: #2A9FD6; stroke-width: 3.125;"/><polygon fill="#2A9FD6" points="246.0927,207.2882,244.9456,197.0933,243.4585,202.7951,237.7567,201.308,246.0927,207.2882" style="stroke: #2A9FD6; stroke-width: 3.125;"/><!--link State2 to join_state--><path d="M170.2375,259.9382 C181.4042,279.3694 196.1167,304.9694 203.374,317.5955 " fill="none" id="State2-join_state" style="stroke: #2A9FD6; stroke-width: 3.125;"/><polygon fill="#2A9FD6" points="205.9948,322.1569,204.9351,311.9526,203.3992,317.6414,197.7103,316.1055,205.9948,322.1569" style="stroke: #2A9FD6; stroke-width: 3.125;"/><!--link State3 to join_state--><path d="M246.1396,259.9382 C234.749,279.3694 219.7417,304.9694 212.3406,317.5955 " fill="none" id="State3-join_state" style="stroke: #2A9FD6; stroke-width: 3.125;"/><polygon fill="#2A9FD6" points="209.6667,322.1569,218.0027,316.1768,212.3009,317.6639,210.8138,311.962,209.6667,322.1569" style="stroke: #2A9FD6; stroke-width: 3.125;"/><!--link join_state to State4--><path d="M207.8125,330.8444 C207.8125,340.084 207.8125,366.1715 207.8125,387.4194 " fill="none" id="join_state-State4" style="stroke: #2A9FD6; stroke-width: 3.125;"/><polygon fill="#2A9FD6" points="207.8125,392.7048,211.9792,383.3298,207.8125,387.4965,203.6458,383.3298,207.8125,392.7048" style="stroke: #2A9FD6; stroke-width: 3.125;"/><!--link State4 to Active--><path d="M207.8125,445.2486 C207.8125,459.6059 207.8125,479.2788 207.8125,502.0465 " fill="none" id="State4-Active" style="stroke: #2A9FD6; stroke-width: 3.125;"/><polygon fill="#2A9FD6" points="207.8125,507.2642,211.9792,497.8892,207.8125,502.0559,203.6458,497.8892,207.8125,507.2642" style="stroke: #2A9FD6; stroke-width: 3.125;"/><!--
@startuml








skinparam defaultFontName       "Verdana"
skinparam defaultFontSize       12
skinparam dpi                   100
skinparam shadowing             false
skinparam roundcorner           8
skinparam ParticipantPadding    10
skinparam BoxPadding            2
skinparam Padding               2
skinparam TitleFontColor	    #ADAFAE
skinparam TitleFontSize	    	20
skinparam TitleBorderThickness 	0
skinparam ArrowColor            #ADAFAE

skinparam legend {
	BackgroundColor black
	BorderColor #777777
	FontColor #ADAFAE
}

skinparam activity {
	TitleFontSize 20
	TitleFontColor #ADAFAE
	FontColor #2A9FD6
	BorderColor #2A9FD6
	BackgroundColor black
	BarColor #77B300
	StartColor #9933CC
	EndColor #9933CC
	DiamondBackgroundColor black
  	DiamondBorderColor #777777
  	DiamondFontColor #777777
}

skinparam sequence {
	BorderColor #2A9FD6
	TitleFontSize 20
	TitleFontColor #ADAFAE
	BackgroundColor black
	StartColor #2A9FD6
	EndColor #2A9FD6
    ParticipantBackgroundColor black
    ParticipantBorderColor #2A9FD6
	ParticipantBorderThickness 1
	ParticipantFontColor #2A9FD6
	ActorBackgroundColor black
    ActorBorderColor #2A9FD6
	ActorFontColor #2A9FD6
	ArrowThickness 3
	ArrowColor #2A9FD6
	BoxBackgroundColor black
	BoxBorderColor #ADAFAE
	BoxFontColor $DARk
	LifeLineBorderColor #555
	LifeLineBorderThickness 0
	LifeLineBackgroundColor black
	GroupBorderColor #ADAFAE
	GroupFontColor #ADAFAE
	GroupHeaderFontColor #9933CC
	DividerBackgroundColor black
    DividerBorderColor #ADAFAE
    DividerBorderThickness 2
    DividerFontColor #222
	ReferenceBorderColor #ADAFAE
	ReferenceFontColor #ADAFAE
	ReferenceHeaderFontColor #9933CC
}

skinparam partition {
	BorderColor #2A9FD6
	FontColor #2A9FD6
	BackgroundColor black
}

skinparam collections {
	BackgroundColor black
	BorderColor #55B2DE
}

skinparam control {
	BackgroundColor  black
	BorderColor #55B2DE
	FontColor #ADAFAE
}

skinparam entity {
	BackgroundColor  black
	BorderColor #55B2DE
	FontColor #ADAFAE
}

skinparam boundary {
	BackgroundColor  black
	BorderColor #55B2DE
	FontColor #ADAFAE
}

skinparam agent {
	BackgroundColor black
	BorderColor $WARNING_LIGHT
	FontColor #ADAFAE
}

skinparam note {
	BorderThickness 1
	BackgroundColor black
	BorderColor #AD5CD6
	FontColor #AD5CD6
}

skinparam artifact {
	BackgroundColor black
	BorderColor #BDBFBE
	FontColor #BDBFBE
}

skinparam component {
	BackgroundColor  black
	BorderColor  #92C233
	FontColor #77B300
}

skinparam interface {
	BackgroundColor  black
	BorderColor  #CC0000
	FontColor #ADAFAE
}

skinparam storage {
	BackgroundColor black
  	BorderColor #FFA033
	FontColor #FF8800
}

skinparam node {
	BackgroundColor  black
	BorderColor #ADAFAE
	FontColor #ADAFAE
}

skinparam cloud {
	BackgroundColor black
	BorderColor lightskyblue
	FontColor #ADAFAE
}

skinparam database {
	BackgroundColor  black
	BorderColor #55B2DE
	FontColor #ADAFAE
}

skinparam actor {
	FontColor #ADAFAE
}

skinparam class {
	HeaderBackgroundColor #227FAB
	FontColor #2A9FD6
	BackgroundColor black
	BorderColor #55B2DE
	StereotypeFontColor #ADAFAE
	BorderThickness 1
	AttributeFontColor #ADAFAE
	AttributeFontSize 11
}

skinparam object {
	FontColor #77B300
	BackgroundColor black
	BorderColor #777777
	StereotypeFontColor #ADAFAE
	BorderThickness 1
	AttributeFontColor #777777
	AttributeFontSize 11
}

skinparam usecase {
	BackgroundColor black
	BorderColor #555
	BorderThickness 2
	FontColor #777777
	StereotypeFontColor #2A9FD6
}

skinparam rectangle {
	BackgroundColor black
	BorderColor #227FAB
	BorderThickness 2
	FontColor #2A9FD6
	StereotypeFontColor #2A9FD6
}

skinparam package {
	BackgroundColor black
  	BorderColor #2A9FD6
	FontColor #2A9FD6
	BorderThickness 2
}

skinparam folder {
	BackgroundColor black
  	BorderColor #FF8800
	FontColor #FF8800
	BorderThickness 2
}

skinparam frame {
	BackgroundColor black
  	BorderColor #9933CC
	FontColor #9933CC
	BorderThickness 2
}

skinparam state {
	StartColor #9933CC
	EndColor #9933CC
	BackgroundColor black
	BorderColor #777777
	FontColor #9933CC
	AttributeFontColor #777777
	AttributeFontSize 11
}

skinparam queue {
	BackgroundColor black
  	BorderColor #FF8800
	FontColor #FF8800
}

skinparam card {
	BackgroundColor black
	BorderColor #9933CC
	FontColor #9933CC
}

skinparam file {
	BackgroundColor black
	BorderColor #555
	FontColor #555
}

skinparam stack {
	BackgroundColor black
	BorderColor #2A9FD6
	FontColor #2A9FD6
}

title State Diagram - cyborg-outline theme

skinparam BackgroundColor transparent

state fork_state <<fork>>
[*] - -> fork_state
fork_state - -> State2
fork_state - -> State3

state join_state <<join>>
State2 - -> join_state
State3 - -> join_state
join_state - -> State4
State4 - -> Active

state Active {
  [*] -> NumLockOff
  NumLockOff - -> NumLockOn : EvNumLockPressed
  NumLockOn - -> NumLockOff : EvNumLockPressed
  - -
  [*] -> CapsLockOff
  CapsLockOff - -> CapsLockOn : EvCapsLockPressed
  CapsLockOn - -> CapsLockOff : EvCapsLockPressed
  - -
  [*] -> ScrollLockOff
  ScrollLockOff - -> ScrollLockOn : EvCapsLockPressed
  ScrollLockOn - -> ScrollLockOff : EvCapsLockPressed
}

@enduml

PlantUML version 1.2019.08(Sat Jul 13 12:25:14 PDT 2019)
(MIT source distribution)
Java Runtime: Java(TM) SE Runtime Environment
JVM: Java HotSpot(TM) 64-Bit Server VM
Java Version: 1.8.0_212-b32
Operating System: Windows 10
OS Version: 10.0
Default Encoding: Cp1252
Language: en
Country: US
--></g></svg>