<?xml version="1.0" encoding="UTF-8" standalone="no"?><svg xmlns="http://www.w3.org/2000/svg" xmlns:xlink="http://www.w3.org/1999/xlink" contentScriptType="application/ecmascript" contentStyleType="text/css" height="633.3333px" preserveAspectRatio="none" style="width:709px;height:633px;" version="1.1" viewBox="0 0 709 633" width="709.375px" zoomAndPan="magnify"><defs><linearGradient id="g1tv65ofd2r3r70" x1="50%" x2="50%" y1="0%" y2="100%"><stop offset="0%" stop-color="#FFFFFF"/><stop offset="100%" stop-color="#87CEFA"/></linearGradient></defs><g><rect fill="none" height="39.9028" rx="4.1667" ry="4.1667" style="stroke: none; stroke-width: 1.0416666666666667;" width="164.5833" x="276.0417" y="2.0833"/><text fill="#4E5D6C" font-family="Verdana" font-size="20.8333" lengthAdjust="spacingAndGlyphs" textLength="143.75" x="286.4583" y="30.3202">cyborg theme</text><!--cluster My Package--><path d="M28.125,70.1111 L112.5,70.1111 A6.25,6.25 0 0 1 116.6667,74.2778 L123.9583,95.7194 L436.4583,95.7194 A4.1667,4.1667 0 0 1 440.625,99.8861 L440.625,161.7778 A4.1667,4.1667 0 0 1 436.4583,165.9444 L28.125,165.9444 A4.1667,4.1667 0 0 1 23.9583,161.7778 L23.9583,74.2778 A4.1667,4.1667 0 0 1 28.125,70.1111 " fill="#4E5D6C" style="stroke: #DF691A; stroke-width: 1.5625;"/><line style="stroke: #DF691A; stroke-width: 1.5625;" x1="23.9583" x2="123.9583" y1="95.7194" y2="95.7194"/><text fill="#DF691A" font-family="Verdana" font-size="12.5" font-weight="bold" lengthAdjust="spacingAndGlyphs" textLength="82.2917" x="30.2083" y="86.8449">My Package</text><!--cluster My Node--><polygon fill="#4E5D6C" points="22.9167,201.3611,33.3333,190.9444,265.625,190.9444,265.625,281.5694,255.2083,291.9861,22.9167,291.9861,22.9167,201.3611" style="stroke: #ABB6C2; stroke-width: 1.5625;"/><line style="stroke: #ABB6C2; stroke-width: 1.5625;" x1="255.2083" x2="264.5833" y1="201.3611" y2="191.9861"/><line style="stroke: #ABB6C2; stroke-width: 1.5625;" x1="22.9167" x2="255.2083" y1="201.3611" y2="201.3611"/><line style="stroke: #ABB6C2; stroke-width: 1.5625;" x1="255.2083" x2="255.2083" y1="201.3611" y2="291.9861"/><text fill="#ABB6C2" font-family="Verdana" font-size="12.5" font-weight="bold" lengthAdjust="spacingAndGlyphs" textLength="59.375" x="110.4167" y="219.1366">My Node</text><!--cluster My Cloud--><path d="M299.2363,206.4185 C303.0053,198.8953 308.467,197.4333 314.3629,204.1608 C316.4631,197.0014 321.1332,194.9236 326.8327,200.6878 C331.5429,194.0192 336.9619,193.1275 342.2976,199.9718 C345.4916,193.4185 349.1554,191.1217 355.1898,197.0345 C359.8118,191.1974 365.7446,192.2359 368.1913,199.2374 C374.6339,193.0481 379.0992,194.5479 382.0904,202.6047 C386.8148,194.7212 392.3937,195.0775 396.9179,202.7951 C402.1646,196.641 407.746,197.9122 409.967,205.6394 C416.6637,207.586 417.1106,213.8754 412.4995,218.117 C419.8781,220.8156 422.7348,227.4059 415.5969,233.1046 C422.0397,236.1127 422.3349,241.6923 417.55,246.3553 C422.7726,252.0873 420.7481,256.2238 414.3627,259.0387 C419.3967,263.2532 420.6668,269.3328 413.1405,272.3981 C418.6202,276.7536 417.599,281.5152 411.3745,284.1052 C409.0043,292.9236 402.1384,294.7067 396.1858,287.5007 C393.3615,293.8194 386.6961,295.8228 381.95,289.6993 C377.8698,295.661 372.7181,295.9255 367.9839,290.5015 C365.1788,296.9009 360.8479,297.3276 355.8902,292.9078 C350.1672,300.2008 344.2492,299.9548 340.4328,291.0845 C334.6419,297.0552 330.257,296.0415 327.3832,288.307 C323.6573,295.0914 317.3028,293.7369 314.2836,287.591 C308.2403,293.0314 302.7156,292.6477 300.4255,283.92 C292.8311,281.407 292.6525,277.2411 296.5047,271.1999 C290.1766,268.3284 289.0291,261.5419 295.1043,257.4106 C287.192,255.1651 287.5601,249.6421 291.7952,244.3248 C286.4961,239.1738 286.775,233.9541 294.4837,231.5382 C289.2325,225.8543 289.7652,221.8314 297.1699,218.8208 C291.1961,213.7965 292.2637,209.2857 299.2363,206.4185 " fill="url(#g1tv65ofd2r3r70)" style="stroke: #FFFFFF; stroke-width: 1.5625;"/><text fill="#4E5D6C" font-family="Verdana" font-size="12.5" font-weight="bold" lengthAdjust="spacingAndGlyphs" textLength="62.5" x="322.9167" y="224.3449">My Cloud</text><!--cluster My Database--><path d="M272.9167,327.4028 C272.9167,316.9861 354.1667,316.9861 354.1667,316.9861 C354.1667,316.9861 435.4167,316.9861 435.4167,327.4028 L435.4167,610.7361 C435.4167,621.1528 354.1667,621.1528 354.1667,621.1528 C354.1667,621.1528 272.9167,621.1528 272.9167,610.7361 L272.9167,327.4028 " fill="#DF691A" style="stroke: #E58748; stroke-width: 1.5625;"/><path d="M272.9167,327.4028 C272.9167,337.8194 354.1667,337.8194 354.1667,337.8194 C354.1667,337.8194 435.4167,337.8194 435.4167,327.4028 " fill="none" style="stroke: #E58748; stroke-width: 1.5625;"/><text fill="#4E5D6C" font-family="Verdana" font-size="12.5" font-weight="bold" lengthAdjust="spacingAndGlyphs" textLength="88.5417" x="309.8958" y="354.5532">My Database</text><!--cluster My folder--><path d="M302.0833,379.4861 L368.75,379.4861 A6.25,6.25 0 0 1 372.9167,383.6528 L380.2083,405.0944 L406.25,405.0944 A4.1667,4.1667 0 0 1 410.4167,409.2611 L410.4167,471.1528 A4.1667,4.1667 0 0 1 406.25,475.3194 L302.0833,475.3194 A4.1667,4.1667 0 0 1 297.9167,471.1528 L297.9167,383.6528 A4.1667,4.1667 0 0 1 302.0833,379.4861 " fill="#3E4A56" style="stroke: #F0AD4E; stroke-width: 1.5625;"/><line style="stroke: #F0AD4E; stroke-width: 1.5625;" x1="297.9167" x2="380.2083" y1="405.0944" y2="405.0944"/><text fill="#F0AD4E" font-family="Verdana" font-size="12.5" font-weight="bold" lengthAdjust="spacingAndGlyphs" textLength="64.5833" x="304.1667" y="396.2199">My folder</text><!--cluster My Frame--><rect fill="#3E4A56" height="95.8333" rx="4.1667" ry="4.1667" style="stroke: #5BC0DE; stroke-width: 1.5625;" width="112.5" x="297.9167" y="500.3194"/><path d="M380.2083,501.3611 L380.2083,512.3861 L369.7917,522.8027 L297.9167,522.8027 " fill="none" style="stroke: #5BC0DE; stroke-width: 1.5625;"/><text fill="#5BC0DE" font-family="Verdana" font-size="12.5" font-weight="bold" lengthAdjust="spacingAndGlyphs" textLength="67.7083" x="303.125" y="516.0116">My Frame</text><!--entity HTTP--><ellipse cx="219.7917" cy="128.9653" fill="#E17572" rx="8.3333" ry="8.3333" style="stroke: #D9534F; stroke-width: 2.0833333333333335;"/><text fill="#4E5D6C" font-family="Verdana" font-size="12.5" lengthAdjust="spacingAndGlyphs" textLength="32.2917" x="203.6458" y="161.3241">HTTP</text><!--entity First Component--><rect fill="#5CB85C" height="40.1917" rx="4.1667" ry="4.1667" style="stroke: #4A934A; stroke-width: 1.5625;" width="133.3333" x="40.625" y="108.6528"/><rect fill="#5CB85C" height="5.2083" style="stroke: #4A934A; stroke-width: 1.5625;" width="10.4167" x="35.4167" y="113.8611"/><rect fill="#5CB85C" height="5.2083" style="stroke: #4A934A; stroke-width: 1.5625;" width="10.4167" x="35.4167" y="138.4277"/><text fill="#FFFFFF" font-family="Verdana" font-size="12.5" lengthAdjust="spacingAndGlyphs" textLength="108.3333" x="53.125" y="133.7199">First Component</text><!--entity Another Component--><rect fill="#5CB85C" height="40.1917" rx="4.1667" ry="4.1667" style="stroke: #4A934A; stroke-width: 1.5625;" width="157.2917" x="266.1458" y="108.6528"/><rect fill="#5CB85C" height="5.2083" style="stroke: #4A934A; stroke-width: 1.5625;" width="10.4167" x="260.9375" y="113.8611"/><rect fill="#5CB85C" height="5.2083" style="stroke: #4A934A; stroke-width: 1.5625;" width="10.4167" x="260.9375" y="138.4277"/><text fill="#FFFFFF" font-family="Verdana" font-size="12.5" lengthAdjust="spacingAndGlyphs" textLength="132.2917" x="278.6458" y="133.7199">Another Component</text><!--entity FTP--><ellipse cx="48.9583" cy="255.0069" fill="#E17572" rx="8.3333" ry="8.3333" style="stroke: #D9534F; stroke-width: 2.0833333333333335;"/><text fill="#4E5D6C" font-family="Verdana" font-size="12.5" lengthAdjust="spacingAndGlyphs" textLength="22.9167" x="37.5" y="287.3657">FTP</text><!--entity Second Component--><rect fill="#5CB85C" height="40.1917" rx="4.1667" ry="4.1667" style="stroke: #4A934A; stroke-width: 1.5625;" width="153.125" x="95.3125" y="234.6944"/><rect fill="#5CB85C" height="5.2083" style="stroke: #4A934A; stroke-width: 1.5625;" width="10.4167" x="90.1042" y="239.9028"/><rect fill="#5CB85C" height="5.2083" style="stroke: #4A934A; stroke-width: 1.5625;" width="10.4167" x="90.1042" y="264.4694"/><text fill="#FFFFFF" font-family="Verdana" font-size="12.5" lengthAdjust="spacingAndGlyphs" textLength="128.125" x="107.8125" y="259.7616">Second Component</text><!--entity Example 1--><rect fill="#5CB85C" height="40.1917" rx="4.1667" ry="4.1667" style="stroke: #4A934A; stroke-width: 1.5625;" width="92.7083" x="307.8125" y="234.6944"/><rect fill="#5CB85C" height="5.2083" style="stroke: #4A934A; stroke-width: 1.5625;" width="10.4167" x="302.6042" y="239.9028"/><rect fill="#5CB85C" height="5.2083" style="stroke: #4A934A; stroke-width: 1.5625;" width="10.4167" x="302.6042" y="264.4694"/><text fill="#FFFFFF" font-family="Verdana" font-size="12.5" lengthAdjust="spacingAndGlyphs" textLength="67.7083" x="320.3125" y="259.7616">Example 1</text><!--entity Folder 3--><rect fill="#5CB85C" height="40.1917" rx="4.1667" ry="4.1667" style="stroke: #4A934A; stroke-width: 1.5625;" width="78.125" x="315.1042" y="418.0278"/><rect fill="#5CB85C" height="5.2083" style="stroke: #4A934A; stroke-width: 1.5625;" width="10.4167" x="309.8958" y="423.2361"/><rect fill="#5CB85C" height="5.2083" style="stroke: #4A934A; stroke-width: 1.5625;" width="10.4167" x="309.8958" y="447.8027"/><text fill="#FFFFFF" font-family="Verdana" font-size="12.5" lengthAdjust="spacingAndGlyphs" textLength="53.125" x="327.6042" y="443.0949">Folder 3</text><!--entity Frame 4--><rect fill="#5CB85C" height="40.1917" rx="4.1667" ry="4.1667" style="stroke: #4A934A; stroke-width: 1.5625;" width="78.125" x="315.1042" y="538.8611"/><rect fill="#5CB85C" height="5.2083" style="stroke: #4A934A; stroke-width: 1.5625;" width="10.4167" x="309.8958" y="544.0694"/><rect fill="#5CB85C" height="5.2083" style="stroke: #4A934A; stroke-width: 1.5625;" width="10.4167" x="309.8958" y="568.6361"/><text fill="#FFFFFF" font-family="Verdana" font-size="12.5" lengthAdjust="spacingAndGlyphs" textLength="53.125" x="327.6042" y="563.9282">Frame 4</text><!--entity My Artifact--><rect fill="#4E5D6C" height="43.3167" rx="4.1667" ry="4.1667" style="stroke: #717D89; stroke-width: 1.5625;" width="103.125" x="459.8958" y="107.0903"/><polygon fill="#4E5D6C" points="545.3125,112.2986,545.3125,126.8819,557.8125,126.8819,557.8125,118.5486,551.5625,112.2986,545.3125,112.2986" style="stroke: #717D89; stroke-width: 1.5625;"/><line style="stroke: #717D89; stroke-width: 1.5625;" x1="551.5625" x2="551.5625" y1="112.2986" y2="118.5486"/><line style="stroke: #717D89; stroke-width: 1.5625;" x1="557.8125" x2="551.5625" y1="118.5486" y2="118.5486"/><text fill="#ABB6C2" font-family="Verdana" font-size="12.5" lengthAdjust="spacingAndGlyphs" textLength="67.7083" x="472.3958" y="135.2824">My Artifact</text><!--entity My Storage--><rect fill="#F0AD4E" height="40.1917" rx="36.4583" ry="36.4583" style="stroke: #F3BD71; stroke-width: 1.5625;" width="98.9583" x="599.4792" y="108.6528"/><text fill="#FFFFFF" font-family="Verdana" font-size="12.5" lengthAdjust="spacingAndGlyphs" textLength="73.9583" x="611.9792" y="133.7199">My Storage</text><!--link HTTP to First Component--><path d="M210.151,128.9653 C198.1302,128.9653 186.1094,128.9653 174.0885,128.9653 " fill="none" id="HTTP-First Component" style="stroke: #DF691A; stroke-width: 3.125;"/><!--link FTP to Second Component--><path d="M58.5613,255.0069 C70.8074,255.0069 83.0535,255.0069 95.2997,255.0069 " fill="none" id="FTP-Second Component" style="stroke: #DF691A; stroke-width: 3.125;"/><!--link First Component to FTP--><path d="M95.1174,149.6225 C89.3095,159.3611 82.4704,171.4121 77.0833,182.6111 C67.7071,202.1028 58.9061,225.5871 53.7253,240.1496 " fill="none" id="First Component-FTP" style="stroke: #DF691A; stroke-width: 3.125;"/><polygon fill="#DF691A" points="51.8607,245.4465,58.9035,237.9866,53.5899,240.5336,51.0429,235.2199,51.8607,245.4465" style="stroke: #DF691A; stroke-width: 3.125;"/><!--link Another Component to Example 1--><path d="M346.2563,149.3757 C347.8771,170.809 350.4948,205.4184 352.2708,228.9028 " fill="none" id="Another Component-Example 1" style="stroke: #DF691A; stroke-width: 3.125;"/><polygon fill="#DF691A" points="352.6813,234.3236,356.1289,224.661,352.2884,229.1301,347.8193,225.2896,352.6813,234.3236" style="stroke: #DF691A; stroke-width: 3.125;"/><!--link Example 1 to Folder 3--><path d="M354.1667,275.4455 C354.1667,308.4725 354.1667,375.5965 354.1667,412.1694 " fill="none" id="Example 1-Folder 3" style="stroke: #DF691A; stroke-width: 3.125;"/><polygon fill="#DF691A" points="354.1667,417.7673,358.3333,408.3923,354.1667,412.559,350,408.3923,354.1667,417.7673" style="stroke: #DF691A; stroke-width: 3.125;"/><!--link Folder 3 to Frame 4--><path d="M354.1667,458.7257 C354.1667,479.083 354.1667,511.1913 354.1667,533.3819 " fill="none" id="Folder 3-Frame 4" style="stroke: #DF691A; stroke-width: 3.125;"/><polygon fill="#DF691A" points="354.1667,538.7967,358.3333,529.4217,354.1667,533.5884,350,529.4217,354.1667,538.7967" style="stroke: #DF691A; stroke-width: 3.125;"/><!--
@startuml







skinparam defaultFontName       "Verdana"
skinparam defaultFontSize       12
skinparam dpi                   100
skinparam shadowing             false
skinparam roundcorner           8
skinparam ParticipantPadding    10
skinparam BoxPadding            2
skinparam Padding               2
skinparam TitleFontColor	    #4E5D6C
skinparam TitleFontSize	    	20
skinparam TitleBorderThickness 	0
skinparam ArrowColor            #4E5D6C


skinparam legend {
	BackgroundColor #4E5D6C
	BorderColor #717d89
	FontColor #abb6c2
}

skinparam activity {
	TitleFontSize 20
	TitleFontColor #4E5D6C
	FontColor #FFF
	BorderColor #DF691A
	BackgroundColor #DF691A
	BarColor #5cb85c
	StartColor #5bc0de
	EndColor #5bc0de
	DiamondBackgroundColor #3e4a56
  	DiamondBorderColor #717d89
  	DiamondFontColor #FFF
}

skinparam sequence {
	BorderColor #DF691A
	TitleFontSize 20
	TitleFontColor #4E5D6C
	BackgroundColor transparent
	StartColor #DF691A
	EndColor #DF691A
    ParticipantBackgroundColor #DF691A
    ParticipantBorderColor #DF691A
	ParticipantBorderThickness 0
	ParticipantFontColor #FFF
	ActorBackgroundColor transparent
    ActorBorderColor #DF691A
	ActorFontColor #DF691A
	ArrowThickness 3
	ArrowColor #DF691A
	BoxBackgroundColor transparent
	BoxBorderColor #4E5D6C
	BoxFontColor $DARk
	LifeLineBorderColor #4E5D6C
	LifeLineBorderThickness 0
	LifeLineBackgroundColor #717d89
	GroupBorderColor #4E5D6C
	GroupFontColor #4E5D6C
	GroupHeaderFontColor #5bc0de
	DividerBackgroundColor #4E5D6C
    DividerBorderColor #4E5D6C
    DividerBorderThickness 2
    DividerFontColor #abb6c2
	ReferenceBorderColor #4E5D6C
	ReferenceFontColor #4E5D6C
	ReferenceHeaderFontColor #5bc0de
}

skinparam partition {
	BorderColor #DF691A
	FontColor #DF691A
	BackgroundColor transparent
}

skinparam collections {
	BackgroundColor #DF691A
	BorderColor #e58748
}

skinparam control {
	BackgroundColor  #DF691A
	BorderColor #e58748
	FontColor #4E5D6C
}

skinparam entity {
	BackgroundColor  #DF691A
	BorderColor #e58748
	FontColor #4E5D6C
}

skinparam boundary {
	BackgroundColor  #DF691A
	BorderColor #e58748
	FontColor #4E5D6C
}

skinparam agent {
	BackgroundColor $WARNINIG
	BorderColor $WARNING_LIGHT
	FontColor #4E5D6C
}

skinparam note {
	BorderThickness 1
	BackgroundColor #5bc0de
	BorderColor #7ccde5
	FontColor #FFF
}

skinparam artifact {
	BackgroundColor #4E5D6C
	BorderColor #717d89
	FontColor #abb6c2
}

skinparam component {
	BackgroundColor  #5cb85c
	BorderColor  #4a934a
	FontColor #FFF
}

skinparam interface {
	BackgroundColor  #e17572
	BorderColor  #d9534f
	FontColor #4E5D6C
}

skinparam storage {
	BackgroundColor #f0ad4e
  	BorderColor #f3bd71
	FontColor #FFF
}

skinparam node {
	BackgroundColor  #4E5D6C
	BorderColor #abb6c2
	FontColor #abb6c2
}

skinparam cloud {
	BackgroundColor white-lightskyblue
	BorderColor transparent
	FontColor #4E5D6C
}

skinparam database {
	BackgroundColor  #DF691A
	BorderColor #e58748
	FontColor #4E5D6C
}

skinparam actor {
	FontColor #4E5D6C
}

skinparam class {
	HeaderBackgroundColor #b25415
	FontColor #FFF
	BackgroundColor #DF691A
	BorderColor #e58748
	StereotypeFontColor #4E5D6C
	BorderThickness 1
	AttributeFontColor #abb6c2
	AttributeFontSize 11
}

skinparam object {
	FontColor #5cb85c
	BackgroundColor #4E5D6C
	BorderColor #717d89
	StereotypeFontColor #4E5D6C
	BorderThickness 1
	AttributeFontColor #FFF
	AttributeFontSize 11
}

skinparam usecase {
	BackgroundColor #4E5D6C
	BorderColor #4E5D6C
	BorderThickness 2
	FontColor #FFF
	StereotypeFontColor #DF691A
}

skinparam rectangle {
	BackgroundColor #3e4a56
	BorderColor #b25415
	BorderThickness 2
	FontColor #DF691A
	StereotypeFontColor #DF691A
}

skinparam package {
	BackgroundColor #4E5D6C
  	BorderColor #DF691A
	FontColor #DF691A
	BorderThickness 2
}

skinparam folder {
	BackgroundColor #3e4a56
  	BorderColor #f0ad4e
	FontColor #f0ad4e
	BorderThickness 2
}

skinparam frame {
	BackgroundColor #3e4a56
  	BorderColor #5bc0de
	FontColor #5bc0de
	BorderThickness 2
}

skinparam state {
	StartColor #5bc0de
	EndColor #5bc0de
	BackgroundColor #4E5D6C
	BorderColor #717d89
	FontColor #5bc0de
	AttributeFontColor #FFF
	AttributeFontSize 11
}

title cyborg theme

skinparam BackgroundColor transparent

package "My Package" {
  HTTP - [First Component]
  [Another Component]
}
 
node "My Node" {
  FTP - [Second Component]
  [First Component] - -> FTP
} 

cloud "My Cloud" {
  [Example 1]
}


database "My Database" {
  folder "My folder" {
	[Folder 3]
  }
  frame "My Frame" {
	[Frame 4]
  }
}

artifact "My Artifact"
storage "My Storage"

[Another Component] - -> [Example 1]
[Example 1] - -> [Folder 3]
[Folder 3] - -> [Frame 4]

@enduml

PlantUML version 1.2019.08(Sat Jul 13 12:25:14 PDT 2019)
(MIT source distribution)
Java Runtime: Java(TM) SE Runtime Environment
JVM: Java HotSpot(TM) 64-Bit Server VM
Java Version: 1.8.0_212-b32
Operating System: Windows 10
OS Version: 10.0
Default Encoding: Cp1252
Language: en
Country: US
--></g></svg>