<?xml version="1.0" encoding="UTF-8" standalone="no"?><svg xmlns="http://www.w3.org/2000/svg" xmlns:xlink="http://www.w3.org/1999/xlink" contentScriptType="application/ecmascript" contentStyleType="text/css" height="503.125px" preserveAspectRatio="none" style="width:691px;height:503px;" version="1.1" viewBox="0 0 691 503" width="691.6667px" zoomAndPan="magnify"><defs><linearGradient id="gtlp7m1yibk7b0" x1="50%" x2="50%" y1="0%" y2="100%"><stop offset="0%" stop-color="#FFFFFF"/><stop offset="100%" stop-color="#87CEFA"/></linearGradient></defs><g><rect fill="none" height="39.9028" rx="4.1667" ry="4.1667" style="stroke: none; stroke-width: 1.0416666666666667;" width="164.5833" x="267.1875" y="2.0833"/><text fill="#4E5D6C" font-family="Verdana" font-size="20.8333" lengthAdjust="spacingAndGlyphs" textLength="143.75" x="277.6042" y="30.3202">cyborg theme</text><!--cluster My Package--><path d="M18.75,62.2986 L103.125,62.2986 A6.25,6.25 0 0 1 107.2917,66.4653 L114.5833,87.9069 L410.4167,87.9069 A4.1667,4.1667 0 0 1 414.5833,92.0736 L414.5833,137.2986 A4.1667,4.1667 0 0 1 410.4167,141.4653 L18.75,141.4653 A4.1667,4.1667 0 0 1 14.5833,137.2986 L14.5833,66.4653 A4.1667,4.1667 0 0 1 18.75,62.2986 " fill="#4E5D6C" style="stroke: #DF691A; stroke-width: 1.5625;"/><line style="stroke: #DF691A; stroke-width: 1.5625;" x1="14.5833" x2="114.5833" y1="87.9069" y2="87.9069"/><text fill="#DF691A" font-family="Verdana" font-size="12.5" font-weight="bold" lengthAdjust="spacingAndGlyphs" textLength="82.2917" x="20.8333" y="79.0324">My Package</text><!--cluster My Node--><polygon fill="#4E5D6C" points="42.7083,172.1944,53.125,161.7778,268.75,161.7778,268.75,235.7361,258.3333,246.1528,42.7083,246.1528,42.7083,172.1944" style="stroke: #4E5D6C; stroke-width: 1.5625;"/><line style="stroke: #4E5D6C; stroke-width: 1.5625;" x1="258.3333" x2="267.7083" y1="172.1944" y2="162.8194"/><line style="stroke: #4E5D6C; stroke-width: 1.5625;" x1="42.7083" x2="258.3333" y1="172.1944" y2="172.1944"/><line style="stroke: #4E5D6C; stroke-width: 1.5625;" x1="258.3333" x2="258.3333" y1="172.1944" y2="246.1528"/><text fill="#4E5D6C" font-family="Verdana" font-size="12.5" font-weight="bold" lengthAdjust="spacingAndGlyphs" textLength="59.375" x="121.875" y="189.9699">My Node</text><!--cluster My Cloud--><path d="M299.033,177.2124 C300.7363,171.3968 304.4033,169.0066 309.8607,173.1174 C312.4813,165.8014 317.0924,165.9162 322.0182,170.8249 C324.1614,165.7597 329.0284,165.0807 332.3671,169.5237 C334.3551,164.1597 339.0839,163.6037 342.9797,167.2855 C346.7721,162.1979 351.4175,162.7489 354.3,168.2575 C359.7023,163.7795 365.0379,165.1528 366.6997,172.2607 C370.8268,167.9043 374.7349,168.4846 377.173,174.0445 C382.4905,168.3281 387.4718,168.4303 390.4616,176.3182 C399.278,179.7962 400.2097,184.65 393.59,191.3422 C401.4084,194.0945 404.1245,200.5253 398.1712,207.2449 C403.6563,212.5076 403.9257,219.8367 395.2218,222.3241 C402.5458,230.4874 398.8736,235.9524 389.916,238.9061 C386.6374,243.6706 381.5667,244.0551 378.1781,239.0381 C376.0095,244.807 372.8888,246.0539 367.7546,242.2762 C363.8856,247.862 359.8442,247.5847 356.0826,242.1623 C352.235,248.3625 348.1421,248.9509 343.2244,243.3258 C340.2043,248.1179 335.7022,247.4932 333.5318,242.4854 C329.8856,247.5872 325.1373,247.2498 321.7244,242.2137 C317.0089,246.638 312.9762,247.1334 309.6906,240.6379 C305.2793,246.2993 301.5012,244.5137 298.2324,239.4206 C289.3605,237.4513 287.6225,231.4013 292.5291,224.2515 C282.8903,221.1973 281.6539,214.8773 288.918,208.0545 C283.1005,201.7138 283.9613,193.0605 293.9072,191.4587 C288.1485,183.9445 291.2522,179.8551 299.033,177.2124 " fill="url(#gtlp7m1yibk7b0)" style="stroke: #FFFFFF; stroke-width: 1.5625;"/><text fill="#4E5D6C" font-family="Verdana" font-size="12.5" font-weight="bold" lengthAdjust="spacingAndGlyphs" textLength="62.5" x="311.4583" y="195.1782">My Cloud</text><!--cluster My Database--><path d="M287.5,264.9028 C287.5,254.4861 342.7083,254.4861 342.7083,254.4861 C342.7083,254.4861 397.9167,254.4861 397.9167,264.9028 L397.9167,480.5278 C397.9167,490.9444 342.7083,490.9444 342.7083,490.9444 C342.7083,490.9444 287.5,490.9444 287.5,480.5278 L287.5,264.9028 " fill="#DF691A" style="stroke: #E58748; stroke-width: 1.5625;"/><path d="M287.5,264.9028 C287.5,275.3194 342.7083,275.3194 342.7083,275.3194 C342.7083,275.3194 397.9167,275.3194 397.9167,264.9028 " fill="none" style="stroke: #E58748; stroke-width: 1.5625;"/><text fill="#FFFFFF" font-family="Verdana" font-size="12.5" font-weight="bold" lengthAdjust="spacingAndGlyphs" textLength="88.5417" x="298.4375" y="292.0532">My Database</text><!--cluster My folder--><path d="M300,300.3194 L366.6667,300.3194 A6.25,6.25 0 0 1 370.8333,304.4861 L378.125,325.9277 L385.4167,325.9277 A4.1667,4.1667 0 0 1 389.5833,330.0944 L389.5833,375.3194 A4.1667,4.1667 0 0 1 385.4167,379.4861 L300,379.4861 A4.1667,4.1667 0 0 1 295.8333,375.3194 L295.8333,304.4861 A4.1667,4.1667 0 0 1 300,300.3194 " fill="#3E4A56" style="stroke: #F0AD4E; stroke-width: 1.5625;"/><line style="stroke: #F0AD4E; stroke-width: 1.5625;" x1="295.8333" x2="378.125" y1="325.9277" y2="325.9277"/><text fill="#ABB6C2" font-family="Verdana" font-size="12.5" font-weight="bold" lengthAdjust="spacingAndGlyphs" textLength="64.5833" x="302.0833" y="317.0532">My folder</text><!--cluster My Frame--><rect fill="#3E4A56" height="79.1667" rx="4.1667" ry="4.1667" style="stroke: #5BC0DE; stroke-width: 1.5625;" width="93.75" x="295.8333" y="403.4444"/><path d="M378.125,404.4861 L378.125,415.5111 L367.7083,425.9277 L295.8333,425.9277 " fill="none" style="stroke: #5BC0DE; stroke-width: 1.5625;"/><text fill="#4E5D6C" font-family="Verdana" font-size="12.5" font-weight="bold" lengthAdjust="spacingAndGlyphs" textLength="67.7083" x="301.0417" y="419.1366">My Frame</text><!--entity HTTP--><ellipse cx="202.0833" cy="112.8194" fill="#E17572" rx="8.3333" ry="8.3333" style="stroke: #D9534F; stroke-width: 2.0833333333333335;"/><text fill="#4E5D6C" font-family="Verdana" font-size="12.5" lengthAdjust="spacingAndGlyphs" textLength="32.2917" x="185.9375" y="145.1782">HTTP</text><!--entity First Component--><rect fill="#5CB85C" height="40.1917" rx="4.1667" ry="4.1667" style="stroke: #4A934A; stroke-width: 1.5625;" width="133.3333" x="22.9167" y="92.5069"/><rect fill="#5CB85C" height="5.2083" style="stroke: #4A934A; stroke-width: 1.5625;" width="10.4167" x="17.7083" y="97.7153"/><rect fill="#5CB85C" height="5.2083" style="stroke: #4A934A; stroke-width: 1.5625;" width="10.4167" x="17.7083" y="122.2819"/><text fill="#FFFFFF" font-family="Verdana" font-size="12.5" lengthAdjust="spacingAndGlyphs" textLength="108.3333" x="35.4167" y="117.5741">First Component</text><!--entity Another Component--><rect fill="#5CB85C" height="40.1917" rx="4.1667" ry="4.1667" style="stroke: #4A934A; stroke-width: 1.5625;" width="157.2917" x="248.4375" y="92.5069"/><rect fill="#5CB85C" height="5.2083" style="stroke: #4A934A; stroke-width: 1.5625;" width="10.4167" x="243.2292" y="97.7153"/><rect fill="#5CB85C" height="5.2083" style="stroke: #4A934A; stroke-width: 1.5625;" width="10.4167" x="243.2292" y="122.2819"/><text fill="#FFFFFF" font-family="Verdana" font-size="12.5" lengthAdjust="spacingAndGlyphs" textLength="132.2917" x="260.9375" y="117.5741">Another Component</text><!--entity FTP--><ellipse cx="60.4167" cy="217.5069" fill="#E17572" rx="8.3333" ry="8.3333" style="stroke: #D9534F; stroke-width: 2.0833333333333335;"/><text fill="#4E5D6C" font-family="Verdana" font-size="12.5" lengthAdjust="spacingAndGlyphs" textLength="22.9167" x="48.9583" y="249.8657">FTP</text><!--entity Second Component--><rect fill="#5CB85C" height="40.1917" rx="4.1667" ry="4.1667" style="stroke: #4A934A; stroke-width: 1.5625;" width="153.125" x="106.7708" y="197.1944"/><rect fill="#5CB85C" height="5.2083" style="stroke: #4A934A; stroke-width: 1.5625;" width="10.4167" x="101.5625" y="202.4028"/><rect fill="#5CB85C" height="5.2083" style="stroke: #4A934A; stroke-width: 1.5625;" width="10.4167" x="101.5625" y="226.9694"/><text fill="#FFFFFF" font-family="Verdana" font-size="12.5" lengthAdjust="spacingAndGlyphs" textLength="128.125" x="119.2708" y="222.2616">Second Component</text><!--entity Example 1--><rect fill="#5CB85C" height="40.1917" rx="4.1667" ry="4.1667" style="stroke: #4A934A; stroke-width: 1.5625;" width="92.7083" x="296.3542" y="197.1944"/><rect fill="#5CB85C" height="5.2083" style="stroke: #4A934A; stroke-width: 1.5625;" width="10.4167" x="291.1458" y="202.4028"/><rect fill="#5CB85C" height="5.2083" style="stroke: #4A934A; stroke-width: 1.5625;" width="10.4167" x="291.1458" y="226.9694"/><text fill="#FFFFFF" font-family="Verdana" font-size="12.5" lengthAdjust="spacingAndGlyphs" textLength="67.7083" x="308.8542" y="222.2616">Example 1</text><!--entity Folder 3--><rect fill="#5CB85C" height="40.1917" rx="4.1667" ry="4.1667" style="stroke: #4A934A; stroke-width: 1.5625;" width="78.125" x="303.6458" y="330.5278"/><rect fill="#5CB85C" height="5.2083" style="stroke: #4A934A; stroke-width: 1.5625;" width="10.4167" x="298.4375" y="335.7361"/><rect fill="#5CB85C" height="5.2083" style="stroke: #4A934A; stroke-width: 1.5625;" width="10.4167" x="298.4375" y="360.3027"/><text fill="#FFFFFF" font-family="Verdana" font-size="12.5" lengthAdjust="spacingAndGlyphs" textLength="53.125" x="316.1458" y="355.5949">Folder 3</text><!--entity Frame 4--><rect fill="#5CB85C" height="40.1917" rx="4.1667" ry="4.1667" style="stroke: #4A934A; stroke-width: 1.5625;" width="78.125" x="303.6458" y="433.6528"/><rect fill="#5CB85C" height="5.2083" style="stroke: #4A934A; stroke-width: 1.5625;" width="10.4167" x="298.4375" y="438.8611"/><rect fill="#5CB85C" height="5.2083" style="stroke: #4A934A; stroke-width: 1.5625;" width="10.4167" x="298.4375" y="463.4277"/><text fill="#FFFFFF" font-family="Verdana" font-size="12.5" lengthAdjust="spacingAndGlyphs" textLength="53.125" x="316.1458" y="458.7199">Frame 4</text><!--entity My Artifact--><rect fill="#4E5D6C" height="43.3167" rx="4.1667" ry="4.1667" style="stroke: #717D89; stroke-width: 1.5625;" width="103.125" x="442.1875" y="90.9444"/><polygon fill="#4E5D6C" points="527.6042,96.1528,527.6042,110.7361,540.1042,110.7361,540.1042,102.4028,533.8542,96.1528,527.6042,96.1528" style="stroke: #717D89; stroke-width: 1.5625;"/><line style="stroke: #717D89; stroke-width: 1.5625;" x1="533.8542" x2="533.8542" y1="96.1528" y2="102.4028"/><line style="stroke: #717D89; stroke-width: 1.5625;" x1="540.1042" x2="533.8542" y1="102.4028" y2="102.4028"/><text fill="#ABB6C2" font-family="Verdana" font-size="12.5" lengthAdjust="spacingAndGlyphs" textLength="67.7083" x="454.6875" y="119.1366">My Artifact</text><!--entity My Storage--><rect fill="#F0AD4E" height="40.1917" rx="36.4583" ry="36.4583" style="stroke: #F3BD71; stroke-width: 1.5625;" width="98.9583" x="581.7708" y="92.5069"/><text fill="#FFFFFF" font-family="Verdana" font-size="12.5" lengthAdjust="spacingAndGlyphs" textLength="73.9583" x="594.2708" y="117.5741">My Storage</text><!--link HTTP to First Component--><path d="M192.4428,112.8194 C180.422,112.8194 168.401,112.8194 156.3802,112.8194 " fill="none" id="HTTP-First Component" style="stroke: #DF691A; stroke-width: 3.125;"/><!--link FTP to Second Component--><path d="M70.0196,217.5069 C82.2657,217.5069 94.5119,217.5069 106.758,217.5069 " fill="none" id="FTP-Second Component" style="stroke: #DF691A; stroke-width: 3.125;"/><!--link First Component to FTP--><path d="M83.8209,133.5023 C78.1339,153.9149 69.5799,184.6175 64.5411,202.703 " fill="none" id="First Component-FTP" style="stroke: #DF691A; stroke-width: 3.125;"/><polygon fill="#DF691A" points="63.0973,207.8853,69.6273,199.9726,64.4952,202.868,61.5997,197.7359,63.0973,207.8853" style="stroke: #DF691A; stroke-width: 3.125;"/><!--link Another Component to Example 1--><path d="M330.1703,133.5023 C332.6528,150.1348 336.1549,173.5991 338.8271,191.5029 " fill="none" id="Another Component-Example 1" style="stroke: #DF691A; stroke-width: 3.125;"/><polygon fill="#DF691A" points="339.6277,196.867,342.3647,186.9796,338.8588,191.7158,334.1227,188.2099,339.6277,196.867" style="stroke: #DF691A; stroke-width: 3.125;"/><!--link Example 1 to Folder 3--><path d="M342.7083,238.0481 C342.7083,261.41 342.7083,299.5945 342.7083,324.9691 " fill="none" id="Example 1-Folder 3" style="stroke: #DF691A; stroke-width: 3.125;"/><polygon fill="#DF691A" points="342.7083,330.4946,346.875,321.1196,342.7083,325.2863,338.5417,321.1196,342.7083,330.4946" style="stroke: #DF691A; stroke-width: 3.125;"/><!--link Folder 3 to Frame 4--><path d="M342.7083,371.2144 C342.7083,387.5987 342.7083,410.7128 342.7083,428.3493 " fill="none" id="Folder 3-Frame 4" style="stroke: #DF691A; stroke-width: 3.125;"/><polygon fill="#DF691A" points="342.7083,433.6334,346.875,424.2584,342.7083,428.425,338.5417,424.2584,342.7083,433.6334" style="stroke: #DF691A; stroke-width: 3.125;"/><!--
@startuml







skinparam defaultFontName       "Verdana"
skinparam defaultFontSize       12
skinparam dpi                   100
skinparam shadowing             false
skinparam roundcorner           8
skinparam ParticipantPadding    10
skinparam BoxPadding            2
skinparam Padding               2
skinparam TitleFontColor	    #4E5D6C
skinparam TitleFontSize	    	20
skinparam TitleBorderThickness 	0
skinparam ArrowColor            #4E5D6C


skinparam legend {
	BackgroundColor #4E5D6C
	BorderColor #717d89
	FontColor #abb6c2
}

skinparam activity {
	TitleFontSize 20
	TitleFontColor #4E5D6C
	FontColor #FFF
	BorderColor #DF691A
	BackgroundColor #DF691A
	BarColor #5cb85c
	StartColor #5bc0de
	EndColor #5bc0de
	DiamondBackgroundColor #3e4a56
  	DiamondBorderColor #717d89
  	DiamondFontColor #FFF
}

skinparam sequence {
	BorderColor #DF691A
	TitleFontSize 20
	TitleFontColor #4E5D6C
	BackgroundColor transparent
	StartColor #DF691A
	EndColor #DF691A
    ParticipantBackgroundColor #DF691A
    ParticipantBorderColor #DF691A
	ParticipantBorderThickness 0
	ParticipantFontColor #FFF
	ActorBackgroundColor transparent
    ActorBorderColor #DF691A
	ActorFontColor #DF691A
	ArrowThickness 3
	ArrowColor #DF691A
	BoxBackgroundColor transparent
	BoxBorderColor #4E5D6C
	BoxFontColor $DARk
	LifeLineBorderColor #4E5D6C
	LifeLineBorderThickness 0
	LifeLineBackgroundColor #717d89
	GroupBorderColor #4E5D6C
	GroupFontColor #4E5D6C
	GroupHeaderFontColor #5bc0de
	DividerBackgroundColor #4E5D6C
    DividerBorderColor #4E5D6C
    DividerBorderThickness 2
    DividerFontColor #abb6c2
	ReferenceBorderColor #4E5D6C
	ReferenceFontColor #4E5D6C
	ReferenceHeaderFontColor #5bc0de
}

skinparam partition {
	BorderColor #DF691A
	FontColor #DF691A
	BackgroundColor transparent
}

skinparam collections {
	BackgroundColor #DF691A
	BorderColor #e58748
}

skinparam control {
	BackgroundColor  #DF691A
	BorderColor #e58748
	FontColor #4E5D6C
}

skinparam entity {
	BackgroundColor  #DF691A
	BorderColor #e58748
	FontColor #4E5D6C
}

skinparam boundary {
	BackgroundColor  #DF691A
	BorderColor #e58748
	FontColor #4E5D6C
}

skinparam agent {
	BackgroundColor $WARNINIG
	BorderColor $WARNING_LIGHT
	FontColor #4E5D6C
}

skinparam note {
	BorderThickness 1
	BackgroundColor #5bc0de
	BorderColor #7ccde5
	FontColor #FFF
}

skinparam artifact {
	BackgroundColor #4E5D6C
	BorderColor #717d89
	FontColor #abb6c2
}

skinparam component {
	BackgroundColor  #5cb85c
	BorderColor  #4a934a
	FontColor #FFF
}

skinparam interface {
	BackgroundColor  #e17572
	BorderColor  #d9534f
	FontColor #4E5D6C
}

skinparam storage {
	BackgroundColor #f0ad4e
  	BorderColor #f3bd71
	FontColor #FFF
}

skinparam node {
	BackgroundColor  #4E5D6C
	BorderColor #4E5D6C
	FontColor #4E5D6C
}

skinparam cloud {
	BackgroundColor white-lightskyblue
	BorderColor transparent
	FontColor #4E5D6C
}

skinparam database {
	BackgroundColor  #DF691A
	BorderColor #e58748
	FontColor #FFF
}

skinparam actor {
	FontColor #4E5D6C
}

skinparam class {
	HeaderBackgroundColor #b25415
	FontColor #FFF
	BackgroundColor #DF691A
	BorderColor #e58748
	StereotypeFontColor #4E5D6C
	BorderThickness 1
	AttributeFontColor #abb6c2
	AttributeFontSize 11
}

skinparam object {
	FontColor #5cb85c
	BackgroundColor #4E5D6C
	BorderColor #717d89
	StereotypeFontColor #4E5D6C
	BorderThickness 1
	AttributeFontColor #abb6c2
	AttributeFontSize 11
}

skinparam usecase {
	BackgroundColor #4E5D6C
	BorderColor #4E5D6C
	BorderThickness 2
	FontColor #FFF
	StereotypeFontColor #DF691A
}

skinparam rectangle {
	BackgroundColor #3e4a56
	BorderColor #b25415
	BorderThickness 2
	FontColor #DF691A
	StereotypeFontColor #DF691A
}

skinparam package {
	BackgroundColor #4E5D6C
  	BorderColor #DF691A
	FontColor #DF691A
	BorderThickness 2
}

skinparam folder {
	BackgroundColor #3e4a56
  	BorderColor #f0ad4e
	FontColor #abb6c2
	BorderThickness 2
}

skinparam frame {
	BackgroundColor #3e4a56
  	BorderColor #5bc0de
	FontColor #4E5D6C
	BorderThickness 2
}

skinparam state {
  StartColor #5bc0de
  EndColor #5bc0de
  BackgroundColor #4E5D6C
  BorderColor #717d89
  FontColor #FFF
}

title cyborg theme

skinparam BackgroundColor transparent

package "My Package" {
  HTTP - [First Component]
  [Another Component]
}
 
node "My Node" {
  FTP - [Second Component]
  [First Component] - -> FTP
} 

cloud "My Cloud" {
  [Example 1]
}


database "My Database" {
  folder "My folder" {
	[Folder 3]
  }
  frame "My Frame" {
	[Frame 4]
  }
}

artifact "My Artifact"
storage "My Storage"

[Another Component] - -> [Example 1]
[Example 1] - -> [Folder 3]
[Folder 3] - -> [Frame 4]

@enduml

PlantUML version 1.2019.08(Sat Jul 13 12:25:14 PDT 2019)
(MIT source distribution)
Java Runtime: OpenJDK Runtime Environment
JVM: OpenJDK 64-Bit Server VM
Java Version: 11.0.4+11-post-Ubuntu-1ubuntu218.04.3
Operating System: Linux
OS Version: 4.15.0-64-lowlatency
Default Encoding: UTF-8
Language: en
Country: US
--></g></svg>