<?xml version="1.0" encoding="UTF-8" standalone="no"?><svg xmlns="http://www.w3.org/2000/svg" xmlns:xlink="http://www.w3.org/1999/xlink" contentScriptType="application/ecmascript" contentStyleType="text/css" height="1102.0833px" preserveAspectRatio="none" style="width:362px;height:1102px;" version="1.1" viewBox="0 0 362 1102" width="362.5px" zoomAndPan="magnify"><defs/><g><rect fill="none" height="39.9028" rx="4.1667" ry="4.1667" style="stroke: none; stroke-width: 1.0416666666666667;" width="340.625" x="10.4167" y="2.0833"/><text fill="#4E5D6C" font-family="Verdana" font-size="20.8333" lengthAdjust="spacingAndGlyphs" textLength="319.7917" x="20.8333" y="30.3202">State Diagram - cyborg theme</text><rect fill="#5CB85C" height="8.3333" style="stroke: none; stroke-width: 1.0416666666666667;" width="83.3333" x="133.3333" y="136.7778"/><ellipse cx="175" cy="63.8611" fill="#5BC0DE" rx="10.4167" ry="10.4167" style="stroke: none; stroke-width: 1.0416666666666667;"/><rect fill="#4E5D6C" height="52.0833" rx="13.0208" ry="13.0208" style="stroke: #717D89; stroke-width: 1.5625;" width="68.75" x="88.5417" y="207.6111"/><line style="stroke: #717D89; stroke-width: 1.5625;" x1="88.5417" x2="157.2917" y1="237.3861" y2="237.3861"/><text fill="#5BC0DE" font-family="Verdana" font-size="12.5" lengthAdjust="spacingAndGlyphs" textLength="43.75" x="101.0417" y="227.4699">State2</text><rect fill="#4E5D6C" height="52.0833" rx="13.0208" ry="13.0208" style="stroke: #717D89; stroke-width: 1.5625;" width="68.75" x="193.75" y="207.6111"/><line style="stroke: #717D89; stroke-width: 1.5625;" x1="193.75" x2="262.5" y1="237.3861" y2="237.3861"/><text fill="#5BC0DE" font-family="Verdana" font-size="12.5" lengthAdjust="spacingAndGlyphs" textLength="43.75" x="206.25" y="227.4699">State3</text><rect fill="#5CB85C" height="8.3333" style="stroke: none; stroke-width: 1.0416666666666667;" width="83.3333" x="133.3333" y="322.1944"/><rect fill="#4E5D6C" height="52.0833" rx="13.0208" ry="13.0208" style="stroke: #717D89; stroke-width: 1.5625;" width="68.75" x="140.625" y="393.0278"/><line style="stroke: #717D89; stroke-width: 1.5625;" x1="140.625" x2="209.375" y1="422.8027" y2="422.8027"/><text fill="#5BC0DE" font-family="Verdana" font-size="12.5" lengthAdjust="spacingAndGlyphs" textLength="43.75" x="153.125" y="412.8866">State4</text><rect fill="#4E5D6C" height="583.9417" rx="13.0208" ry="13.0208" style="stroke: #717D89; stroke-width: 1.5625;" width="337.5" x="6.25" y="507.6111"/><rect fill="#FFFFFF" height="547.9167" rx="13.0208" ry="13.0208" style="stroke: #FFFFFF; stroke-width: 1.0416666666666667;" width="331.25" x="9.375" y="540.5111"/><line style="stroke: #717D89; stroke-width: 1.5625;" x1="6.25" x2="343.75" y1="537.3861" y2="537.3861"/><text fill="#5BC0DE" font-family="Verdana" font-size="12.5" lengthAdjust="spacingAndGlyphs" textLength="38.5417" x="155.7292" y="527.4699">Active</text><ellipse cx="28.125" cy="576.9694" fill="#5BC0DE" rx="10.4167" ry="10.4167" style="stroke: none; stroke-width: 1.0416666666666667;"/><rect fill="#4E5D6C" height="52.0833" rx="13.0208" ry="13.0208" style="stroke: #717D89; stroke-width: 1.5625;" width="102.0833" x="57.2917" y="550.9277"/><line style="stroke: #717D89; stroke-width: 1.5625;" x1="57.2917" x2="159.375" y1="580.7027" y2="580.7027"/><text fill="#5BC0DE" font-family="Verdana" font-size="12.5" lengthAdjust="spacingAndGlyphs" textLength="77.0833" x="69.7917" y="570.7865">NumLockOff</text><rect fill="#4E5D6C" height="52.0833" rx="13.0208" ry="13.0208" style="stroke: #717D89; stroke-width: 1.5625;" width="102.0833" x="56.25" y="661.3444"/><line style="stroke: #717D89; stroke-width: 1.5625;" x1="56.25" x2="158.3333" y1="691.1194" y2="691.1194"/><text fill="#5BC0DE" font-family="Verdana" font-size="12.5" lengthAdjust="spacingAndGlyphs" textLength="77.0833" x="68.75" y="681.2032">NumLockOn</text><!--link *start*Active to NumLockOff--><path d="M38.7777,576.9694 C43.1079,576.9694 47.4381,576.9694 51.7684,576.9694 " fill="none" id="*start*Active-NumLockOff" style="stroke: #DF691A; stroke-width: 3.125;"/><polygon fill="#DF691A" points="57.2534,576.9694,47.8784,572.8027,52.0451,576.9694,47.8784,581.1361,57.2534,576.9694" style="stroke: #DF691A; stroke-width: 3.125;"/><!--link NumLockOff to NumLockOn--><path d="M57.2627,601.5017 C44.6905,608.3673 33.785,615.6589 30.2083,621.7611 C20.442,638.4237 33.5105,652.7454 51.5023,663.638 " fill="none" id="NumLockOff-NumLockOn" style="stroke: #DF691A; stroke-width: 3.125;"/><polygon fill="#DF691A" points="56.1717,666.3327,50.1346,658.0378,51.6607,663.7293,45.9692,665.2554,56.1717,666.3327" style="stroke: #DF691A; stroke-width: 3.125;"/><text fill="#000000" font-family="Verdana" font-size="12.5" lengthAdjust="spacingAndGlyphs" textLength="127.0833" x="33.3333" y="637.4532">EvNumLockPressed</text><!--link NumLockOn to NumLockOff--><path d="M149.1594,661.1777 C154.9719,655.8012 160.1177,649.5961 163.5417,642.5944 C169.8333,629.7308 163.4135,617.336 153.0198,606.9048 " fill="none" id="NumLockOn-NumLockOff" style="stroke: #DF691A; stroke-width: 3.125;"/><polygon fill="#DF691A" points="149.026,603.1527,153.005,612.6089,152.8217,606.7192,158.7114,606.5359,149.026,603.1527" style="stroke: #DF691A; stroke-width: 3.125;"/><text fill="#000000" font-family="Verdana" font-size="12.5" lengthAdjust="spacingAndGlyphs" textLength="127.0833" x="169.7917" y="637.4532">EvNumLockPressed</text><line style="stroke: #717D89; stroke-width: 1.5625; stroke-dasharray: 8.0,10.0;" x1="11.4583" x2="336.4583" y1="723.8444" y2="723.8444"/><ellipse cx="28.125" cy="758.2194" fill="#5BC0DE" rx="10.4167" ry="10.4167" style="stroke: none; stroke-width: 1.0416666666666667;"/><rect fill="#4E5D6C" height="52.0833" rx="13.0208" ry="13.0208" style="stroke: #717D89; stroke-width: 1.5625;" width="106.25" x="57.2917" y="732.1777"/><line style="stroke: #717D89; stroke-width: 1.5625;" x1="57.2917" x2="163.5417" y1="761.9527" y2="761.9527"/><text fill="#5BC0DE" font-family="Verdana" font-size="12.5" lengthAdjust="spacingAndGlyphs" textLength="81.25" x="69.7917" y="752.0365">CapsLockOff</text><rect fill="#4E5D6C" height="52.0833" rx="13.0208" ry="13.0208" style="stroke: #717D89; stroke-width: 1.5625;" width="106.25" x="56.25" y="842.5944"/><line style="stroke: #717D89; stroke-width: 1.5625;" x1="56.25" x2="162.5" y1="872.3694" y2="872.3694"/><text fill="#5BC0DE" font-family="Verdana" font-size="12.5" lengthAdjust="spacingAndGlyphs" textLength="81.25" x="68.75" y="862.4532">CapsLockOn</text><!--link *start*CONC82 to CapsLockOff--><path d="M38.7329,758.2194 C43.0644,758.2194 47.3958,758.2194 51.7273,758.2194 " fill="none" id="*start*CONC82-CapsLockOff" style="stroke: #DF691A; stroke-width: 3.125;"/><polygon fill="#DF691A" points="57.2139,758.2194,47.8389,754.0527,52.0055,758.2194,47.8389,762.3861,57.2139,758.2194" style="stroke: #DF691A; stroke-width: 3.125;"/><!--link CapsLockOff to CapsLockOn--><path d="M57.1508,783.0757 C44.6036,789.8038 33.8115,796.9415 30.2083,803.0111 C20.3589,819.6029 33.1746,833.7554 51.1718,844.546 " fill="none" id="CapsLockOff-CapsLockOn" style="stroke: #DF691A; stroke-width: 3.125;"/><polygon fill="#DF691A" points="55.8483,847.2163,49.7731,838.9493,51.3254,844.6337,45.641,846.1859,55.8483,847.2163" style="stroke: #DF691A; stroke-width: 3.125;"/><text fill="#000000" font-family="Verdana" font-size="12.5" lengthAdjust="spacingAndGlyphs" textLength="131.25" x="33.3333" y="818.7032">EvCapsLockPressed</text><!--link CapsLockOn to CapsLockOff--><path d="M153.0542,842.3943 C158.9667,837.0503 164.1979,830.8645 167.7083,823.8444 C174.1563,810.9495 167.6698,798.6272 157.0594,788.2673 " fill="none" id="CapsLockOn-CapsLockOff" style="stroke: #DF691A; stroke-width: 3.125;"/><polygon fill="#DF691A" points="152.9802,784.5423,157.0945,793.9404,156.8266,788.054,162.7131,787.7861,152.9802,784.5423" style="stroke: #DF691A; stroke-width: 3.125;"/><text fill="#000000" font-family="Verdana" font-size="12.5" lengthAdjust="spacingAndGlyphs" textLength="131.25" x="173.9583" y="818.7032">EvCapsLockPressed</text><line style="stroke: #717D89; stroke-width: 1.5625; stroke-dasharray: 8.0,10.0;" x1="11.4583" x2="336.4583" y1="905.0944" y2="905.0944"/><ellipse cx="28.125" cy="939.4694" fill="#5BC0DE" rx="10.4167" ry="10.4167" style="stroke: none; stroke-width: 1.0416666666666667;"/><rect fill="#4E5D6C" height="52.0833" rx="13.0208" ry="13.0208" style="stroke: #717D89; stroke-width: 1.5625;" width="107.2917" x="57.8125" y="913.4277"/><line style="stroke: #717D89; stroke-width: 1.5625;" x1="57.8125" x2="165.1042" y1="943.2027" y2="943.2027"/><text fill="#5BC0DE" font-family="Verdana" font-size="12.5" lengthAdjust="spacingAndGlyphs" textLength="82.2917" x="70.3125" y="933.2865">ScrollLockOff</text><rect fill="#4E5D6C" height="52.0833" rx="13.0208" ry="13.0208" style="stroke: #717D89; stroke-width: 1.5625;" width="107.2917" x="57.8125" y="1023.8444"/><line style="stroke: #717D89; stroke-width: 1.5625;" x1="57.8125" x2="165.1042" y1="1053.6194" y2="1053.6194"/><text fill="#5BC0DE" font-family="Verdana" font-size="12.5" lengthAdjust="spacingAndGlyphs" textLength="82.2917" x="70.3125" y="1043.7032">ScrollLockOn</text><!--link *start*CONC90 to ScrollLockOff--><path d="M38.5417,939.4694 C43.1138,939.4694 47.6859,939.4694 52.258,939.4694 " fill="none" id="*start*CONC90-ScrollLockOff" style="stroke: #DF691A; stroke-width: 3.125;"/><polygon fill="#DF691A" points="57.6253,939.4694,48.2503,935.3027,52.417,939.4694,48.2503,943.6361,57.6253,939.4694" style="stroke: #DF691A; stroke-width: 3.125;"/><!--link ScrollLockOff to ScrollLockOn--><path d="M57.6692,959.9829 C47.5484,966.1621 38.2757,974.1171 32.2917,984.2611 C22.5711,1000.7392 35.0948,1014.7965 52.8443,1025.5478 " fill="none" id="ScrollLockOff-ScrollLockOn" style="stroke: #DF691A; stroke-width: 3.125;"/><polygon fill="#DF691A" points="57.4591,1028.2095,51.4198,1019.9162,52.9474,1025.6073,47.2563,1027.1349,57.4591,1028.2095" style="stroke: #DF691A; stroke-width: 3.125;"/><text fill="#000000" font-family="Verdana" font-size="12.5" lengthAdjust="spacingAndGlyphs" textLength="131.25" x="35.4167" y="999.9532">EvCapsLockPressed</text><!--link ScrollLockOn to ScrollLockOff--><path d="M154.7219,1023.6801 C167.8469,1012.631 177.0896,998.8561 169.7917,984.2611 C167.049,978.7767 163.2563,973.8014 158.9094,969.3392 " fill="none" id="ScrollLockOn-ScrollLockOff" style="stroke: #DF691A; stroke-width: 3.125;"/><polygon fill="#DF691A" points="155.1375,965.7111,159.0054,975.2132,158.8911,969.3218,164.7825,969.2075,155.1375,965.7111" style="stroke: #DF691A; stroke-width: 3.125;"/><text fill="#000000" font-family="Verdana" font-size="12.5" lengthAdjust="spacingAndGlyphs" textLength="131.25" x="175" y="999.9532">EvCapsLockPressed</text><!--link *start to fork_state--><path d="M175,74.4017 C175,89.0309 175,116.8715 175,131.0809 " fill="none" id="*start-fork_state" style="stroke: #DF691A; stroke-width: 3.125;"/><polygon fill="#DF691A" points="175,136.5548,179.1667,127.1798,175,131.3465,170.8333,127.1798,175,136.5548" style="stroke: #DF691A; stroke-width: 3.125;"/><!--link fork_state to State2--><path d="M173.0219,145.4278 C167.6667,154.7465 152.4646,181.1986 140.1979,202.5423 " fill="none" id="fork_state-State2" style="stroke: #DF691A; stroke-width: 3.125;"/><polygon fill="#DF691A" points="137.4698,207.2882,145.7542,201.2368,140.0654,202.7727,138.5295,197.0838,137.4698,207.2882" style="stroke: #DF691A; stroke-width: 3.125;"/><!--link fork_state to State3--><path d="M177.0177,145.4278 C182.4802,154.7465 197.9865,181.1986 210.499,202.5423 " fill="none" id="fork_state-State3" style="stroke: #DF691A; stroke-width: 3.125;"/><polygon fill="#DF691A" points="213.2802,207.2882,212.1331,197.0933,210.646,202.7951,204.9442,201.308,213.2802,207.2882" style="stroke: #DF691A; stroke-width: 3.125;"/><!--link State2 to join_state--><path d="M137.425,259.9382 C148.5917,279.3694 163.3042,304.9694 170.5615,317.5955 " fill="none" id="State2-join_state" style="stroke: #DF691A; stroke-width: 3.125;"/><polygon fill="#DF691A" points="173.1823,322.1569,172.1226,311.9526,170.5867,317.6414,164.8978,316.1055,173.1823,322.1569" style="stroke: #DF691A; stroke-width: 3.125;"/><!--link State3 to join_state--><path d="M213.3271,259.9382 C201.9365,279.3694 186.9292,304.9694 179.5281,317.5955 " fill="none" id="State3-join_state" style="stroke: #DF691A; stroke-width: 3.125;"/><polygon fill="#DF691A" points="176.8542,322.1569,185.1902,316.1768,179.4884,317.6639,178.0013,311.962,176.8542,322.1569" style="stroke: #DF691A; stroke-width: 3.125;"/><!--link join_state to State4--><path d="M175,330.8444 C175,340.084 175,366.1715 175,387.4194 " fill="none" id="join_state-State4" style="stroke: #DF691A; stroke-width: 3.125;"/><polygon fill="#DF691A" points="175,392.7048,179.1667,383.3298,175,387.4965,170.8333,383.3298,175,392.7048" style="stroke: #DF691A; stroke-width: 3.125;"/><!--link State4 to Active--><path d="M175,445.2486 C175,459.6059 175,479.2788 175,502.0465 " fill="none" id="State4-Active" style="stroke: #DF691A; stroke-width: 3.125;"/><polygon fill="#DF691A" points="175,507.2642,179.1667,497.8892,175,502.0559,170.8333,497.8892,175,507.2642" style="stroke: #DF691A; stroke-width: 3.125;"/><!--
@startuml







skinparam defaultFontName       "Verdana"
skinparam defaultFontSize       12
skinparam dpi                   100
skinparam shadowing             false
skinparam roundcorner           8
skinparam ParticipantPadding    10
skinparam BoxPadding            2
skinparam Padding               2
skinparam TitleFontColor	    #4E5D6C
skinparam TitleFontSize	    	20
skinparam TitleBorderThickness 	0
skinparam ArrowColor            #4E5D6C


skinparam legend {
	BackgroundColor #4E5D6C
	BorderColor #717d89
	FontColor #abb6c2
}

skinparam activity {
	TitleFontSize 20
	TitleFontColor #4E5D6C
	FontColor #FFF
	BorderColor #DF691A
	BackgroundColor #DF691A
	BarColor #5cb85c
	StartColor #5bc0de
	EndColor #5bc0de
	DiamondBackgroundColor #3e4a56
  	DiamondBorderColor #717d89
  	DiamondFontColor #FFF
}

skinparam sequence {
	BorderColor #DF691A
	TitleFontSize 20
	TitleFontColor #4E5D6C
	BackgroundColor transparent
	StartColor #DF691A
	EndColor #DF691A
    ParticipantBackgroundColor #DF691A
    ParticipantBorderColor #DF691A
	ParticipantBorderThickness 0
	ParticipantFontColor #FFF
	ActorBackgroundColor transparent
    ActorBorderColor #DF691A
	ActorFontColor #DF691A
	ArrowThickness 3
	ArrowColor #DF691A
	BoxBackgroundColor transparent
	BoxBorderColor #4E5D6C
	BoxFontColor $DARk
	LifeLineBorderColor #4E5D6C
	LifeLineBorderThickness 0
	LifeLineBackgroundColor #717d89
	GroupBorderColor #4E5D6C
	GroupFontColor #4E5D6C
	GroupHeaderFontColor #5bc0de
	DividerBackgroundColor #4E5D6C
    DividerBorderColor #4E5D6C
    DividerBorderThickness 2
    DividerFontColor #abb6c2
	ReferenceBorderColor #4E5D6C
	ReferenceFontColor #4E5D6C
	ReferenceHeaderFontColor #5bc0de
}

skinparam partition {
	BorderColor #DF691A
	FontColor #DF691A
	BackgroundColor transparent
}

skinparam collections {
	BackgroundColor #DF691A
	BorderColor #e58748
}

skinparam control {
	BackgroundColor  #DF691A
	BorderColor #e58748
	FontColor #4E5D6C
}

skinparam entity {
	BackgroundColor  #DF691A
	BorderColor #e58748
	FontColor #4E5D6C
}

skinparam boundary {
	BackgroundColor  #DF691A
	BorderColor #e58748
	FontColor #4E5D6C
}

skinparam agent {
	BackgroundColor $WARNINIG
	BorderColor #C08A3E
	FontColor #4E5D6C
}

skinparam note {
	BorderThickness 1
	BackgroundColor #5bc0de
	BorderColor #7ccde5
	FontColor #FFF
}

skinparam artifact {
	BackgroundColor #4E5D6C
	BorderColor #717d89
	FontColor #abb6c2
}

skinparam component {
	BackgroundColor  #5cb85c
	BorderColor  #4a934a
	FontColor #FFF
}

skinparam interface {
	BackgroundColor  #e17572
	BorderColor  #d9534f
	FontColor #4E5D6C
}

skinparam storage {
	BackgroundColor #f0ad4e
  	BorderColor #f3bd71
	FontColor #FFF
}

skinparam node {
	BackgroundColor  #4E5D6C
	BorderColor #abb6c2
	FontColor #abb6c2
}

skinparam cloud {
	BackgroundColor white-lightskyblue
	BorderColor transparent
	FontColor #4E5D6C
}

skinparam database {
	BackgroundColor  #DF691A
	BorderColor #e58748
	FontColor #4E5D6C
}

skinparam actor {
	FontColor #4E5D6C
}

skinparam class {
	HeaderBackgroundColor #b25415
	FontColor #FFF
	BackgroundColor #DF691A
	BorderColor #e58748
	StereotypeFontColor #4E5D6C
	BorderThickness 1
	AttributeFontColor #abb6c2
	AttributeFontSize 11
}

skinparam object {
	FontColor #5cb85c
	BackgroundColor #4E5D6C
	BorderColor #717d89
	StereotypeFontColor #4E5D6C
	BorderThickness 1
	AttributeFontColor #FFF
	AttributeFontSize 11
}

skinparam usecase {
	BackgroundColor #4E5D6C
	BorderColor #4E5D6C
	BorderThickness 2
	FontColor #FFF
	StereotypeFontColor #DF691A
}

skinparam rectangle {
	BackgroundColor #3e4a56
	BorderColor #b25415
	BorderThickness 2
	FontColor #DF691A
	StereotypeFontColor #DF691A
}

skinparam package {
	BackgroundColor #4E5D6C
  	BorderColor #DF691A
	FontColor #DF691A
	BorderThickness 2
}

skinparam folder {
	BackgroundColor #3e4a56
  	BorderColor #f0ad4e
	FontColor #f0ad4e
	BorderThickness 2
}

skinparam frame {
	BackgroundColor #3e4a56
  	BorderColor #5bc0de
	FontColor #5bc0de
	BorderThickness 2
}

skinparam state {
	StartColor #5bc0de
	EndColor #5bc0de
	BackgroundColor #4E5D6C
	BorderColor #717d89
	FontColor #5bc0de
	AttributeFontColor #FFF
	AttributeFontSize 11
}

skinparam queue {
	BackgroundColor #C08A3E
  	BorderColor #f0ad4e
	FontColor #FFF
}

skinparam card {
	BackgroundColor #5bc0de
	BorderColor #7ccde5
	FontColor #FFF
}

skinparam file {
	BackgroundColor #717d89
	BorderColor #abb6c2
	FontColor #abb6c2
}

skinparam stack {
	BackgroundColor #e58748-#b25415
	BorderColor #e58748
	FontColor #FFF
}

title State Diagram - cyborg theme

skinparam BackgroundColor transparent

state fork_state <<fork>>
[*] - -> fork_state
fork_state - -> State2
fork_state - -> State3

state join_state <<join>>
State2 - -> join_state
State3 - -> join_state
join_state - -> State4
State4 - -> Active

state Active {
  [*] -> NumLockOff
  NumLockOff - -> NumLockOn : EvNumLockPressed
  NumLockOn - -> NumLockOff : EvNumLockPressed
  - -
  [*] -> CapsLockOff
  CapsLockOff - -> CapsLockOn : EvCapsLockPressed
  CapsLockOn - -> CapsLockOff : EvCapsLockPressed
  - -
  [*] -> ScrollLockOff
  ScrollLockOff - -> ScrollLockOn : EvCapsLockPressed
  ScrollLockOn - -> ScrollLockOff : EvCapsLockPressed
}

@enduml

PlantUML version 1.2019.08(Sat Jul 13 12:25:14 PDT 2019)
(MIT source distribution)
Java Runtime: Java(TM) SE Runtime Environment
JVM: Java HotSpot(TM) 64-Bit Server VM
Java Version: 1.8.0_212-b32
Operating System: Windows 10
OS Version: 10.0
Default Encoding: Cp1252
Language: en
Country: US
--></g></svg>