<?xml version="1.0" encoding="UTF-8" standalone="no"?><svg xmlns="http://www.w3.org/2000/svg" xmlns:xlink="http://www.w3.org/1999/xlink" contentScriptType="application/ecmascript" contentStyleType="text/css" height="1102.0833px" preserveAspectRatio="none" style="width:362px;height:1102px;background:#000000;" version="1.1" viewBox="0 0 362 1102" width="362.5px" zoomAndPan="magnify"><defs/><g><rect fill="none" height="39.9028" rx="4.1667" ry="4.1667" style="stroke: none; stroke-width: 1.0416666666666667;" width="340.625" x="10.4167" y="2.0833"/><text fill="#4E5D6C" font-family="Verdana" font-size="20.8333" lengthAdjust="spacingAndGlyphs" textLength="319.7917" x="20.8333" y="30.3202">State Diagram - cyborg theme</text><rect fill="#5CB85C" height="8.3333" style="stroke: none; stroke-width: 1.0416666666666667;" width="83.3333" x="133.3333" y="136.7778"/><ellipse cx="175" cy="63.8611" fill="#5BC0DE" rx="10.4167" ry="10.4167" style="stroke: none; stroke-width: 1.0416666666666667;"/><rect fill="#4E5D6C" height="52.0833" rx="13.0208" ry="13.0208" style="stroke: #717D89; stroke-width: 1.5625;" width="68.75" x="88.5417" y="207.6111"/><line style="stroke: #717D89; stroke-width: 1.5625;" x1="88.5417" x2="157.2917" y1="237.3861" y2="237.3861"/><text fill="#5BC0DE" font-family="Verdana" font-size="12.5" lengthAdjust="spacingAndGlyphs" textLength="43.75" x="101.0417" y="227.4699">State2</text><rect fill="#4E5D6C" height="52.0833" rx="13.0208" ry="13.0208" style="stroke: #717D89; stroke-width: 1.5625;" width="68.75" x="193.75" y="207.6111"/><line style="stroke: #717D89; stroke-width: 1.5625;" x1="193.75" x2="262.5" y1="237.3861" y2="237.3861"/><text fill="#5BC0DE" font-family="Verdana" font-size="12.5" lengthAdjust="spacingAndGlyphs" textLength="43.75" x="206.25" y="227.4699">State3</text><rect fill="#5CB85C" height="8.3333" style="stroke: none; stroke-width: 1.0416666666666667;" width="83.3333" x="133.3333" y="322.1944"/><rect fill="#4E5D6C" height="52.0833" rx="13.0208" ry="13.0208" style="stroke: #717D89; stroke-width: 1.5625;" width="68.75" x="140.625" y="393.0278"/><line style="stroke: #717D89; stroke-width: 1.5625;" x1="140.625" x2="209.375" y1="422.8027" y2="422.8027"/><text fill="#5BC0DE" font-family="Verdana" font-size="12.5" lengthAdjust="spacingAndGlyphs" textLength="43.75" x="153.125" y="412.8866">State4</text><rect fill="#4E5D6C" height="583.9417" rx="13.0208" ry="13.0208" style="stroke: #717D89; stroke-width: 1.5625;" width="337.5" x="6.25" y="507.6111"/><rect fill="#000000" height="547.9167" rx="13.0208" ry="13.0208" style="stroke: #000000; stroke-width: 1.0416666666666667;" width="331.25" x="9.375" y="540.5111"/><line style="stroke: #717D89; stroke-width: 1.5625;" x1="6.25" x2="343.75" y1="537.3861" y2="537.3861"/><text fill="#5BC0DE" font-family="Verdana" font-size="12.5" lengthAdjust="spacingAndGlyphs" textLength="38.5417" x="155.7292" y="527.4699">Active</text><ellipse cx="28.125" cy="576.9694" fill="#5BC0DE" rx="10.4167" ry="10.4167" style="stroke: none; stroke-width: 1.0416666666666667;"/><rect fill="#4E5D6C" height="52.0833" rx="13.0208" ry="13.0208" style="stroke: #717D89; stroke-width: 1.5625;" width="102.0833" x="57.2917" y="550.9277"/><line style="stroke: #717D89; stroke-width: 1.5625;" x1="57.2917" x2="159.375" y1="580.7027" y2="580.7027"/><text fill="#5BC0DE" font-family="Verdana" font-size="12.5" lengthAdjust="spacingAndGlyphs" textLength="77.0833" x="69.7917" y="570.7865">NumLockOff</text><rect fill="#4E5D6C" height="52.0833" rx="13.0208" ry="13.0208" style="stroke: #717D89; stroke-width: 1.5625;" width="102.0833" x="56.25" y="661.3444"/><line style="stroke: #717D89; stroke-width: 1.5625;" x1="56.25" x2="158.3333" y1="691.1194" y2="691.1194"/><text fill="#5BC0DE" font-family="Verdana" font-size="12.5" lengthAdjust="spacingAndGlyphs" textLength="77.0833" x="68.75" y="681.2032">NumLockOn</text><!--MD5=[f1e44e9cdf7ed6fd162579f896fb76ea]
link *start*Active to NumLockOff--><path d="M38.7777,576.9694 C43.1079,576.9694 47.4381,576.9694 51.7684,576.9694 " fill="none" id="*start*Active-&gt;NumLockOff" style="stroke: #DF691A; stroke-width: 3.125;"/><polygon fill="#DF691A" points="57.2534,576.9694,47.8784,572.8027,52.0451,576.9694,47.8784,581.1361,57.2534,576.9694" style="stroke: #DF691A; stroke-width: 3.125;"/><!--MD5=[b6ef3c088f5474ecc81df30475e7d61b]
link NumLockOff to NumLockOn--><path d="M57.2497,601.1344 C44.677,608.1668 33.7745,615.6059 30.2083,621.7611 C20.4615,638.5844 33.5326,653.1225 51.5211,664.209 " fill="none" id="NumLockOff-&gt;NumLockOn" style="stroke: #DF691A; stroke-width: 3.125;"/><polygon fill="#DF691A" points="56.1896,666.9525,50.2182,658.6102,51.6993,664.3136,45.9959,665.7946,56.1896,666.9525" style="stroke: #DF691A; stroke-width: 3.125;"/><text fill="#FFFFFF" font-family="Verdana" font-size="12.5" lengthAdjust="spacingAndGlyphs" textLength="127.0833" x="33.3333" y="637.4532">EvNumLockPressed</text><!--MD5=[3bfddee0d82dc74c927fbeb3d3f2e6a3]
link NumLockOn to NumLockOff--><path d="M149.4519,661.2153 C155.1489,655.7888 160.1809,649.5665 163.5417,642.5944 C169.7024,629.8133 163.626,617.4539 153.5696,606.9735 " fill="none" id="NumLockOn-&gt;NumLockOff" style="stroke: #DF691A; stroke-width: 3.125;"/><polygon fill="#DF691A" points="149.6997,603.2,153.503,612.7282,153.4287,606.8362,159.3208,606.7619,149.6997,603.2" style="stroke: #DF691A; stroke-width: 3.125;"/><text fill="#FFFFFF" font-family="Verdana" font-size="12.5" lengthAdjust="spacingAndGlyphs" textLength="127.0833" x="169.7917" y="637.4532">EvNumLockPressed</text><line style="stroke: #717D89; stroke-width: 1.5625; stroke-dasharray: 8.0,10.0;" x1="11.4583" x2="336.4583" y1="723.8444" y2="723.8444"/><ellipse cx="28.125" cy="758.2194" fill="#5BC0DE" rx="10.4167" ry="10.4167" style="stroke: none; stroke-width: 1.0416666666666667;"/><rect fill="#4E5D6C" height="52.0833" rx="13.0208" ry="13.0208" style="stroke: #717D89; stroke-width: 1.5625;" width="106.25" x="57.2917" y="732.1777"/><line style="stroke: #717D89; stroke-width: 1.5625;" x1="57.2917" x2="163.5417" y1="761.9527" y2="761.9527"/><text fill="#5BC0DE" font-family="Verdana" font-size="12.5" lengthAdjust="spacingAndGlyphs" textLength="81.25" x="69.7917" y="752.0365">CapsLockOff</text><rect fill="#4E5D6C" height="52.0833" rx="13.0208" ry="13.0208" style="stroke: #717D89; stroke-width: 1.5625;" width="106.25" x="56.25" y="842.5944"/><line style="stroke: #717D89; stroke-width: 1.5625;" x1="56.25" x2="162.5" y1="872.3694" y2="872.3694"/><text fill="#5BC0DE" font-family="Verdana" font-size="12.5" lengthAdjust="spacingAndGlyphs" textLength="81.25" x="68.75" y="862.4532">CapsLockOn</text><!--MD5=[ad44b9de6595643ec3df1279e2e825ac]
link *start*CONC82 to CapsLockOff--><path d="M38.7329,758.2194 C43.0644,758.2194 47.3958,758.2194 51.7273,758.2194 " fill="none" id="*start*CONC82-&gt;CapsLockOff" style="stroke: #DF691A; stroke-width: 3.125;"/><polygon fill="#DF691A" points="57.2139,758.2194,47.8389,754.0527,52.0055,758.2194,47.8389,762.3861,57.2139,758.2194" style="stroke: #DF691A; stroke-width: 3.125;"/><!--MD5=[dc4675bd3056f3ef68701d9e8e02a3f3]
link CapsLockOff to CapsLockOn--><path d="M57.1373,782.7196 C44.5899,789.6113 33.8009,796.89 30.2083,803.0111 C20.3783,819.7595 33.1969,834.1237 51.191,845.1057 " fill="none" id="CapsLockOff-&gt;CapsLockOn" style="stroke: #DF691A; stroke-width: 3.125;"/><polygon fill="#DF691A" points="55.8668,847.8242,49.8565,839.5098,51.3642,845.2063,45.6678,846.714,55.8668,847.8242" style="stroke: #DF691A; stroke-width: 3.125;"/><text fill="#FFFFFF" font-family="Verdana" font-size="12.5" lengthAdjust="spacingAndGlyphs" textLength="131.25" x="33.3333" y="818.7032">EvCapsLockPressed</text><!--MD5=[79e17b083e07746bd1a647600952cab6]
link CapsLockOn to CapsLockOff--><path d="M153.3563,842.4223 C159.15,837.0304 164.2646,830.8305 167.7083,823.8444 C174.0808,810.9169 167.7699,798.5202 157.3353,788.0504 " fill="none" id="CapsLockOn-&gt;CapsLockOff" style="stroke: #DF691A; stroke-width: 3.125;"/><polygon fill="#DF691A" points="153.3203,784.283,157.3056,793.7366,157.1183,787.847,163.0079,787.6597,153.3203,784.283" style="stroke: #DF691A; stroke-width: 3.125;"/><text fill="#FFFFFF" font-family="Verdana" font-size="12.5" lengthAdjust="spacingAndGlyphs" textLength="131.25" x="173.9583" y="818.7032">EvCapsLockPressed</text><line style="stroke: #717D89; stroke-width: 1.5625; stroke-dasharray: 8.0,10.0;" x1="11.4583" x2="336.4583" y1="905.0944" y2="905.0944"/><ellipse cx="28.125" cy="939.4694" fill="#5BC0DE" rx="10.4167" ry="10.4167" style="stroke: none; stroke-width: 1.0416666666666667;"/><rect fill="#4E5D6C" height="52.0833" rx="13.0208" ry="13.0208" style="stroke: #717D89; stroke-width: 1.5625;" width="107.2917" x="57.8125" y="913.4277"/><line style="stroke: #717D89; stroke-width: 1.5625;" x1="57.8125" x2="165.1042" y1="943.2027" y2="943.2027"/><text fill="#5BC0DE" font-family="Verdana" font-size="12.5" lengthAdjust="spacingAndGlyphs" textLength="82.2917" x="70.3125" y="933.2865">ScrollLockOff</text><rect fill="#4E5D6C" height="52.0833" rx="13.0208" ry="13.0208" style="stroke: #717D89; stroke-width: 1.5625;" width="107.2917" x="57.8125" y="1023.8444"/><line style="stroke: #717D89; stroke-width: 1.5625;" x1="57.8125" x2="165.1042" y1="1053.6194" y2="1053.6194"/><text fill="#5BC0DE" font-family="Verdana" font-size="12.5" lengthAdjust="spacingAndGlyphs" textLength="82.2917" x="70.3125" y="1043.7032">ScrollLockOn</text><!--MD5=[9a8b2c0f7fde6bd227d6334344b3ad45]
link *start*CONC90 to ScrollLockOff--><path d="M38.5417,939.4694 C43.1138,939.4694 47.6859,939.4694 52.258,939.4694 " fill="none" id="*start*CONC90-&gt;ScrollLockOff" style="stroke: #DF691A; stroke-width: 3.125;"/><polygon fill="#DF691A" points="57.6253,939.4694,48.2503,935.3027,52.417,939.4694,48.2503,943.6361,57.6253,939.4694" style="stroke: #DF691A; stroke-width: 3.125;"/><!--MD5=[da4e1e55b4a6de250eca2c82023085fa]
link ScrollLockOff to ScrollLockOn--><path d="M57.6429,959.6369 C47.5235,965.9492 38.2581,974.03 32.2917,984.2611 C22.5914,1000.8947 35.1183,1015.1615 52.8647,1026.103 " fill="none" id="ScrollLockOff-&gt;ScrollLockOn" style="stroke: #DF691A; stroke-width: 3.125;"/><polygon fill="#DF691A" points="57.4785,1028.8125,51.5045,1020.4721,52.9874,1026.175,47.2845,1027.6579,57.4785,1028.8125" style="stroke: #DF691A; stroke-width: 3.125;"/><text fill="#FFFFFF" font-family="Verdana" font-size="12.5" lengthAdjust="spacingAndGlyphs" textLength="131.25" x="35.4167" y="999.9532">EvCapsLockPressed</text><!--MD5=[6ad2c621f2407b82317910f4deb17639]
link ScrollLockOn to ScrollLockOff--><path d="M155.4288,1023.6248 C168.1626,1012.4964 176.9358,998.7542 169.7917,984.2611 C167.1551,978.9123 163.5391,974.0244 159.3886,969.6072 " fill="none" id="ScrollLockOn-&gt;ScrollLockOff" style="stroke: #DF691A; stroke-width: 3.125;"/><polygon fill="#DF691A" points="155.4396,965.6832,159.1528,975.2468,159.1341,969.3543,165.0266,969.3356,155.4396,965.6832" style="stroke: #DF691A; stroke-width: 3.125;"/><text fill="#FFFFFF" font-family="Verdana" font-size="12.5" lengthAdjust="spacingAndGlyphs" textLength="131.25" x="175" y="999.9532">EvCapsLockPressed</text><!--MD5=[242ad121cef04112e9b0ee8f25f52375]
link *start to fork_state--><path d="M175,74.5792 C175,89.6371 175,116.8276 175,131.289 " fill="none" id="*start-&gt;fork_state" style="stroke: #DF691A; stroke-width: 3.125;"/><polygon fill="#DF691A" points="175,136.6349,179.1667,127.2599,175,131.4266,170.8333,127.2599,175,136.6349" style="stroke: #DF691A; stroke-width: 3.125;"/><!--MD5=[44dd36eb382d4fffd186e8c447a61da0]
link fork_state to State2--><path d="M172.4879,145.416 C166.745,155.6384 152.2376,181.4615 140.3917,202.5472 " fill="none" id="fork_state-&gt;State2" style="stroke: #DF691A; stroke-width: 3.125;"/><polygon fill="#DF691A" points="137.7546,207.2413,145.9791,201.1087,140.3056,202.7005,138.7138,197.027,137.7546,207.2413" style="stroke: #DF691A; stroke-width: 3.125;"/><!--MD5=[43d4d70f9cd19f132a5eb1ce9d85c890]
link fork_state to State3--><path d="M177.5623,145.416 C183.4201,155.6384 198.2176,181.4615 210.3005,202.5472 " fill="none" id="fork_state-&gt;State3" style="stroke: #DF691A; stroke-width: 3.125;"/><polygon fill="#DF691A" points="212.9903,207.2413,211.9442,197.0355,210.4007,202.7224,204.7139,201.1789,212.9903,207.2413" style="stroke: #DF691A; stroke-width: 3.125;"/><!--MD5=[8cf5ef3a64654818495211b4c165bd62]
link State2 to join_state--><path d="M137.7024,259.9713 C148.5348,279.253 162.5848,304.262 169.9643,317.3975 " fill="none" id="State2-&gt;join_state" style="stroke: #DF691A; stroke-width: 3.125;"/><polygon fill="#DF691A" points="172.5273,321.9597,171.568,311.7454,169.9762,317.4189,164.3028,315.8271,172.5273,321.9597" style="stroke: #DF691A; stroke-width: 3.125;"/><!--MD5=[183fde86cac17ac230b97143534e47db]
link State3 to join_state--><path d="M213.0436,259.9713 C201.9945,279.253 187.6635,304.262 180.1364,317.3975 " fill="none" id="State3-&gt;join_state" style="stroke: #DF691A; stroke-width: 3.125;"/><polygon fill="#DF691A" points="177.5222,321.9597,185.7985,315.8971,180.1117,317.4407,178.5681,311.754,177.5222,321.9597" style="stroke: #DF691A; stroke-width: 3.125;"/><!--MD5=[1e473d623208eebf6d5ebd6e9bc5a11d]
link join_state to State4--><path d="M175,330.8326 C175,340.9691 175,366.4453 175,387.4314 " fill="none" id="join_state-&gt;State4" style="stroke: #DF691A; stroke-width: 3.125;"/><polygon fill="#DF691A" points="175,392.658,179.1667,383.283,175,387.4496,170.8333,383.283,175,392.658" style="stroke: #DF691A; stroke-width: 3.125;"/><!--MD5=[0a70b1a7cf318979336334b4227eefe4]
link State4 to Active--><path d="M175,445.2385 C175,459.7642 175,479.4949 175,502.2585 " fill="none" id="State4-&gt;Active" style="stroke: #DF691A; stroke-width: 3.125;"/><polygon fill="#DF691A" points="175,507.4744,179.1667,498.0994,175,502.2661,170.8333,498.0994,175,507.4744" style="stroke: #DF691A; stroke-width: 3.125;"/><!--MD5=[a657d263026fb4e463b9ec74d46b8e42]
@startuml



skinparam backgroundColor black






skinparam defaultFontName       "Verdana"
skinparam defaultFontSize       12
skinparam dpi                   100
skinparam shadowing             false
skinparam roundcorner           8
skinparam ParticipantPadding    10
skinparam BoxPadding            2
skinparam Padding               2
skinparam TitleFontColor	    #4E5D6C
skinparam TitleFontSize	    	20
skinparam TitleBorderThickness 	0
skinparam ArrowColor            #4E5D6C


skinparam legend {
	BackgroundColor #4E5D6C
	BorderColor #717d89
	FontColor #abb6c2
}

skinparam activity {
	TitleFontSize 20
	TitleFontColor #4E5D6C
	FontColor #FFF
	BorderColor #DF691A
	BackgroundColor #DF691A
	BarColor #5cb85c
	StartColor #5bc0de
	EndColor #5bc0de
	DiamondBackgroundColor #3e4a56
  	DiamondBorderColor #717d89
  	DiamondFontColor #FFF
}

skinparam sequence {
	BorderColor #DF691A
	TitleFontSize 20
	TitleFontColor #4E5D6C
	BackgroundColor black
	StartColor #DF691A
	EndColor #DF691A
    ParticipantBackgroundColor #DF691A
    ParticipantBorderColor #DF691A
	ParticipantBorderThickness 0
	ParticipantFontColor #FFF
	ActorBackgroundColor black
    ActorBorderColor #DF691A
	ActorFontColor #DF691A
	ArrowThickness 3
	ArrowColor #DF691A
	ArrowFontColor #FFF
	BoxBackgroundColor black
	BoxBorderColor #4E5D6C
	BoxFontColor $DARk
	LifeLineBorderColor #4E5D6C
	LifeLineBorderThickness 2
	LifeLineBackgroundColor #717d89
	GroupBorderColor #4E5D6C
	GroupFontColor #4E5D6C
	GroupHeaderFontColor #5bc0de
	DividerBackgroundColor #4E5D6C
    DividerBorderColor #4E5D6C
    DividerBorderThickness 2
    DividerFontColor #abb6c2
	ReferenceBackgroundColor black
	ReferenceBorderColor #4E5D6C
	ReferenceFontColor #4E5D6C
	ReferenceHeaderFontColor #5bc0de
}

skinparam partition {
	BorderColor #DF691A
	FontColor #DF691A
	BackgroundColor black
}

skinparam collections {
	BackgroundColor #DF691A
	BorderColor #e58748
}

skinparam control {
	BackgroundColor  #DF691A
	BorderColor #e58748
	FontColor #4E5D6C
}

skinparam entity {
	BackgroundColor  #DF691A
	BorderColor #e58748
	FontColor #4E5D6C
}

skinparam boundary {
	BackgroundColor  #DF691A
	BorderColor #e58748
	FontColor #4E5D6C
}

skinparam agent {
	BackgroundColor #f0ad4e
	BorderColor #C08A3E
	FontColor #4E5D6C
}

skinparam note {
	BorderThickness 1
	BackgroundColor #5bc0de
	BorderColor #7ccde5
	FontColor #FFF
}

skinparam artifact {
	BackgroundColor #4E5D6C
	BorderColor #717d89
	FontColor #abb6c2
}

skinparam component {
	BackgroundColor  #5cb85c
	BorderColor  #4a934a
	FontColor #FFF
}

skinparam interface {
	BackgroundColor  #e17572
	BorderColor  #d9534f
	FontColor #4E5D6C
}

skinparam storage {
	BackgroundColor #f0ad4e
  	BorderColor #f3bd71
	FontColor #FFF
}

skinparam node {
	BackgroundColor  #4E5D6C
	BorderColor #abb6c2
	FontColor #abb6c2
}

skinparam cloud {
	BackgroundColor white-lightskyblue
	BorderColor black
	FontColor #4E5D6C
}

skinparam database {
	BackgroundColor  #DF691A
	BorderColor #e58748
	FontColor #4E5D6C
}

skinparam actor {
	FontColor #4E5D6C
}

skinparam class {
	HeaderBackgroundColor #b25415
	FontColor #FFF
	BackgroundColor #DF691A
	BorderColor #e58748
	StereotypeFontColor #4E5D6C
	BorderThickness 1
	AttributeFontColor #abb6c2
	AttributeFontSize 11
}

skinparam object {
	FontColor #5cb85c
	BackgroundColor #4E5D6C
	BorderColor #717d89
	StereotypeFontColor #4E5D6C
	BorderThickness 1
	AttributeFontColor #FFF
	AttributeFontSize 11
}

skinparam usecase {
	BackgroundColor #4E5D6C
	BorderColor #4E5D6C
	BorderThickness 2
	FontColor #FFF
	StereotypeFontColor #DF691A
}

skinparam rectangle {
	BackgroundColor #3e4a56
	BorderColor #b25415
	BorderThickness 2
	FontColor #DF691A
	StereotypeFontColor #DF691A
}

skinparam package {
	BackgroundColor #4E5D6C
  	BorderColor #DF691A
	FontColor #DF691A
	BorderThickness 2
}

skinparam folder {
	BackgroundColor #3e4a56
  	BorderColor #f0ad4e
	FontColor #f0ad4e
	BorderThickness 2
}

skinparam frame {
	BackgroundColor #3e4a56
  	BorderColor #5bc0de
	FontColor #5bc0de
	BorderThickness 2
}

skinparam state {
	StartColor #5bc0de
	EndColor #5bc0de
	BackgroundColor #4E5D6C
	BorderColor #717d89
	FontColor #5bc0de
	AttributeFontColor #FFF
	AttributeFontSize 11
}

skinparam queue {
	BackgroundColor #C08A3E
  	BorderColor #f0ad4e
	FontColor #FFF
}

skinparam card {
	BackgroundColor #5bc0de
	BorderColor #7ccde5
	FontColor #FFF
}

skinparam file {
	BackgroundColor #717d89
	BorderColor #abb6c2
	FontColor #abb6c2
}

skinparam stack {
	BackgroundColor #e58748-#b25415
	BorderColor #e58748
	FontColor #FFF
}

title State Diagram - cyborg theme


state fork_state <<fork>>
[*] - -> fork_state
fork_state - -> State2
fork_state - -> State3

state join_state <<join>>
State2 - -> join_state
State3 - -> join_state
join_state - -> State4
State4 - -> Active

state Active {
  [*] -> NumLockOff
  NumLockOff - -> NumLockOn : EvNumLockPressed
  NumLockOn - -> NumLockOff : EvNumLockPressed
  - -
  [*] -> CapsLockOff
  CapsLockOff - -> CapsLockOn : EvCapsLockPressed
  CapsLockOn - -> CapsLockOff : EvCapsLockPressed
  - -
  [*] -> ScrollLockOff
  ScrollLockOff - -> ScrollLockOn : EvCapsLockPressed
  ScrollLockOn - -> ScrollLockOff : EvCapsLockPressed
}

@enduml

PlantUML version 1.2019.11(Sun Sep 22 03:02:15 PDT 2019)
(GPL source distribution)
Java Runtime: OpenJDK Runtime Environment
JVM: OpenJDK 64-Bit Server VM
Java Version: 11.0.4+11-post-Ubuntu-1ubuntu218.04.3
Operating System: Linux
Default Encoding: UTF-8
Language: en
Country: US
--></g></svg>