<?xml version="1.0" encoding="UTF-8" standalone="no"?><svg xmlns="http://www.w3.org/2000/svg" xmlns:xlink="http://www.w3.org/1999/xlink" contentScriptType="application/ecmascript" contentStyleType="text/css" height="593.75px" preserveAspectRatio="none" style="width:860px;height:593px;" version="1.1" viewBox="0 0 860 593" width="860.4167px" zoomAndPan="magnify"><defs><filter height="300%" id="f8d3xpqsvob2q" width="300%" x="-1" y="-1"><feGaussianBlur result="blurOut" stdDeviation="2.0833333333333335"/><feColorMatrix in="blurOut" result="blurOut2" type="matrix" values="0 0 0 0 0 0 0 0 0 0 0 0 0 0 0 0 0 0 .4 0"/><feOffset dx="4.166666666666667" dy="4.166666666666667" in="blurOut2" result="blurOut3"/><feBlend in="SourceGraphic" in2="blurOut3" mode="normal"/></filter></defs><g><rect fill="none" height="48.2361" rx="4.1667" ry="4.1667" style="stroke: none; stroke-width: 1.0416666666666667;" width="506.25" x="180.2083" y="2.0833"/><text fill="#222222" font-family="Verdana" font-size="20.8333" lengthAdjust="spacingAndGlyphs" textLength="477.0833" x="194.7917" y="34.4869">Component Diagram - materia-outline theme</text><!--MD5=[98956307d0c47524864de5bf9cdc747b]
cluster My Package--><path d="M18.75,70.6319 L111.4583,70.6319 A6.25,6.25 0 0 1 115.625,74.7986 L122.9167,104.5736 L425,104.5736 A4.1667,4.1667 0 0 1 429.1667,108.7402 L429.1667,162.2986 A4.1667,4.1667 0 0 1 425,166.4653 L18.75,166.4653 A4.1667,4.1667 0 0 1 14.5833,162.2986 L14.5833,74.7986 A4.1667,4.1667 0 0 1 18.75,70.6319 " fill="#FFFFFF" filter="url(#f8d3xpqsvob2q)" style="stroke: #2196F3; stroke-width: 1.5625;"/><line style="stroke: #2196F3; stroke-width: 1.5625;" x1="14.5833" x2="122.9167" y1="104.5736" y2="104.5736"/><text fill="#2196F3" font-family="Verdana" font-size="12.5" font-weight="bold" lengthAdjust="spacingAndGlyphs" textLength="82.2917" x="25" y="91.5324">My Package</text><!--MD5=[994b84a7865cf3a30290d65f6358d5f5]
cluster My Node--><polygon fill="#FFFFFF" filter="url(#f8d3xpqsvob2q)" points="40.625,205.0069,51.0417,194.5903,275,194.5903,275,285.2153,264.5833,295.6319,40.625,295.6319,40.625,205.0069" style="stroke: #222222; stroke-width: 1.5625;"/><line style="stroke: #222222; stroke-width: 1.5625;" x1="264.5833" x2="273.9583" y1="205.0069" y2="195.6319"/><line style="stroke: #222222; stroke-width: 1.5625;" x1="40.625" x2="264.5833" y1="205.0069" y2="205.0069"/><line style="stroke: #222222; stroke-width: 1.5625;" x1="264.5833" x2="264.5833" y1="205.0069" y2="295.6319"/><text fill="#222222" font-family="Verdana" font-size="12.5" font-weight="bold" lengthAdjust="spacingAndGlyphs" textLength="59.375" x="123.9583" y="226.9491">My Node</text><!--MD5=[8f762177cf9f076b8ea6eac76c5df33e]
cluster My Cloud--><path d="M303.3634,209.0977 C306.5473,202.052 310.6893,202.3065 315.6378,207.2983 C318.6027,199.8101 323.4919,199.6548 328.3096,205.5432 C330.676,198.153 335.5415,197.0006 340.8848,202.6788 C343.6815,196.7541 350.0665,194.37 354.2054,201.2865 C358.4464,196.2064 364.7556,197.0358 367.4248,203.1437 C372.299,197.7365 375.9101,199.6792 378.6749,205.2962 C384.2923,199.4131 389.3443,200.4729 392.3452,207.9696 C396.5698,201.8293 400.8784,202.715 404.1652,208.8711 C411.2134,212.853 410.4221,217.0626 405.1537,221.9737 C411.8592,223.9112 414.8915,229.2743 409.2133,235.0549 C415.3244,239.034 416.4452,242.9013 410.5701,248.1247 C416.6704,254.0643 415.9973,259.9711 407.5724,262.9795 C412.7248,267.1877 412.7066,270.6137 407.0927,274.3685 C413.4812,280.0049 411.4938,286.5448 403.3506,288.2692 C400.4898,295.2276 396.4233,296.4635 390.9929,290.7814 C388.618,297.0664 384.7816,298.0361 380.1021,292.998 C377.9447,300.995 372.6709,301.1873 367.0563,296.5749 C364.4773,302.1888 358.6064,303.7513 354.506,298.3006 C349.6964,303.86 345.5015,302.3698 342.5163,296.4028 C337.1522,303.2728 331.8423,301.2221 328.5881,294.2758 C323.3616,297.9271 318.9812,296.3018 317.5971,290.0229 C312.4089,295.0778 306.8712,295.6405 303.9549,287.6476 C296.5947,283.8805 297.6408,279.3232 303.0417,274.6589 C297.4099,270.2539 296.9767,266.321 303.1666,262.033 C296.817,258.5492 296.2723,253.2035 301.4271,248.266 C296.6928,244.2968 297.902,238.8648 303.1499,236.3375 C296.8636,231.5317 296.6347,226.3334 304.2412,222.634 C297.4406,218.3814 296.3432,214.2465 303.3634,209.0977 " fill="#FFFFFF" style="stroke: #87CEFA; stroke-width: 1.5625;"/><text fill="#222222" font-family="Verdana" font-size="12.5" font-weight="bold" lengthAdjust="spacingAndGlyphs" textLength="62.5" x="321.875" y="232.1574">My Cloud</text><!--MD5=[5435dd1da01795d79a1d1bdb7811705f]
cluster My Database--><path d="M292.7083,322.1944 C292.7083,311.7778 353.125,311.7778 353.125,311.7778 C353.125,311.7778 413.5417,311.7778 413.5417,322.1944 L413.5417,571.1528 C413.5417,581.5694 353.125,581.5694 353.125,581.5694 C353.125,581.5694 292.7083,581.5694 292.7083,571.1528 L292.7083,322.1944 " fill="#FFFFFF" filter="url(#f8d3xpqsvob2q)" style="stroke: #1A78C2; stroke-width: 1.5625;"/><path d="M292.7083,322.1944 C292.7083,332.6111 353.125,332.6111 353.125,332.6111 C353.125,332.6111 413.5417,332.6111 413.5417,322.1944 " fill="none" style="stroke: #1A78C2; stroke-width: 1.5625;"/><text fill="#222222" font-family="Verdana" font-size="12.5" font-weight="bold" lengthAdjust="spacingAndGlyphs" textLength="88.5417" x="308.8542" y="353.5116">My Database</text><!--MD5=[db3eb734e65e00defc1adec42c70b029]
cluster My folder--><path d="M305.2083,365.9444 L380.2083,365.9444 A6.25,6.25 0 0 1 384.375,370.1111 L391.6667,399.8861 L401.0417,399.8861 A4.1667,4.1667 0 0 1 405.2083,404.0527 L405.2083,457.6111 A4.1667,4.1667 0 0 1 401.0417,461.7778 L305.2083,461.7778 A4.1667,4.1667 0 0 1 301.0417,457.6111 L301.0417,370.1111 A4.1667,4.1667 0 0 1 305.2083,365.9444 " fill="#FFFFFF" filter="url(#f8d3xpqsvob2q)" style="stroke: #FF9800; stroke-width: 1.5625;"/><line style="stroke: #FF9800; stroke-width: 1.5625;" x1="301.0417" x2="391.6667" y1="399.8861" y2="399.8861"/><text fill="#FF9800" font-family="Verdana" font-size="12.5" font-weight="bold" lengthAdjust="spacingAndGlyphs" textLength="64.5833" x="311.4583" y="386.8449">My folder</text><!--MD5=[2f95c9c104e26437854e71862f3d840e]
cluster My Frame--><rect fill="#FFFFFF" filter="url(#f8d3xpqsvob2q)" height="95.8333" rx="4.1667" ry="4.1667" style="stroke: #9C27B0; stroke-width: 1.5625;" width="104.1667" x="301.0417" y="477.4028"/><path d="M391.6667,478.4444 L391.6667,497.8027 L381.25,508.2194 L301.0417,508.2194 " fill="none" style="stroke: #9C27B0; stroke-width: 1.5625;"/><text fill="#9C27B0" font-family="Verdana" font-size="12.5" font-weight="bold" lengthAdjust="spacingAndGlyphs" textLength="67.7083" x="310.4167" y="497.2616">My Frame</text><!--MD5=[96f7e1299d4a43069e6ed32352fcac20]
entity HTTP--><ellipse cx="210.4167" cy="133.6528" fill="#FFFFFF" filter="url(#f8d3xpqsvob2q)" rx="8.3333" ry="8.3333" style="stroke: #E51C23; stroke-width: 2.0833333333333335;"/><text fill="#222222" font-family="Verdana" font-size="12.5" lengthAdjust="spacingAndGlyphs" textLength="32.2917" x="194.2708" y="170.1782">HTTP</text><!--MD5=[cbd7cda55f2530e2efe43ec72c097853]
entity First Component--><rect fill="#FFFFFF" filter="url(#f8d3xpqsvob2q)" height="48.525" rx="4.1667" ry="4.1667" style="stroke: #4CAF50; stroke-width: 1.5625;" width="141.6667" x="22.9167" y="109.1736"/><rect fill="#FFFFFF" height="5.2083" style="stroke: #4CAF50; stroke-width: 1.5625;" width="10.4167" x="17.7083" y="114.3819"/><rect fill="#FFFFFF" height="5.2083" style="stroke: #4CAF50; stroke-width: 1.5625;" width="10.4167" x="17.7083" y="147.2819"/><text fill="#4CAF50" font-family="Verdana" font-size="12.5" lengthAdjust="spacingAndGlyphs" textLength="108.3333" x="39.5833" y="138.4074">First Component</text><!--MD5=[b9d11f23832c1491231c5b33e55ab8c6]
entity Another Component--><rect fill="#FFFFFF" filter="url(#f8d3xpqsvob2q)" height="48.525" rx="4.1667" ry="4.1667" style="stroke: #4CAF50; stroke-width: 1.5625;" width="165.625" x="255.7292" y="109.1736"/><rect fill="#FFFFFF" height="5.2083" style="stroke: #4CAF50; stroke-width: 1.5625;" width="10.4167" x="250.5208" y="114.3819"/><rect fill="#FFFFFF" height="5.2083" style="stroke: #4CAF50; stroke-width: 1.5625;" width="10.4167" x="250.5208" y="147.2819"/><text fill="#4CAF50" font-family="Verdana" font-size="12.5" lengthAdjust="spacingAndGlyphs" textLength="132.2917" x="272.3958" y="138.4074">Another Component</text><!--MD5=[76af18d92d7d7c0f7ebd8f4f605ac5aa]
entity FTP--><ellipse cx="58.3333" cy="262.8194" fill="#FFFFFF" filter="url(#f8d3xpqsvob2q)" rx="8.3333" ry="8.3333" style="stroke: #E51C23; stroke-width: 2.0833333333333335;"/><text fill="#222222" font-family="Verdana" font-size="12.5" lengthAdjust="spacingAndGlyphs" textLength="22.9167" x="46.875" y="299.3449">FTP</text><!--MD5=[0e2cc1aee2c7f52697e111b4fb84546c]
entity Second Component--><rect fill="#FFFFFF" filter="url(#f8d3xpqsvob2q)" height="48.525" rx="4.1667" ry="4.1667" style="stroke: #4CAF50; stroke-width: 1.5625;" width="161.4583" x="104.6875" y="238.3403"/><rect fill="#FFFFFF" height="5.2083" style="stroke: #4CAF50; stroke-width: 1.5625;" width="10.4167" x="99.4792" y="243.5486"/><rect fill="#FFFFFF" height="5.2083" style="stroke: #4CAF50; stroke-width: 1.5625;" width="10.4167" x="99.4792" y="276.4486"/><text fill="#4CAF50" font-family="Verdana" font-size="12.5" lengthAdjust="spacingAndGlyphs" textLength="128.125" x="121.3542" y="267.5741">Second Component</text><!--MD5=[243c1e580c31013c48b02624e18b25a7]
entity Example 1--><rect fill="#FFFFFF" filter="url(#f8d3xpqsvob2q)" height="48.525" rx="4.1667" ry="4.1667" style="stroke: #4CAF50; stroke-width: 1.5625;" width="101.0417" x="302.6042" y="238.3403"/><rect fill="#FFFFFF" height="5.2083" style="stroke: #4CAF50; stroke-width: 1.5625;" width="10.4167" x="297.3958" y="243.5486"/><rect fill="#FFFFFF" height="5.2083" style="stroke: #4CAF50; stroke-width: 1.5625;" width="10.4167" x="297.3958" y="276.4486"/><text fill="#4CAF50" font-family="Verdana" font-size="12.5" lengthAdjust="spacingAndGlyphs" textLength="67.7083" x="319.2708" y="267.5741">Example 1</text><!--MD5=[3e0e08c92570480402984701ab5a6d2d]
entity Folder 3--><rect fill="#FFFFFF" filter="url(#f8d3xpqsvob2q)" height="48.525" rx="4.1667" ry="4.1667" style="stroke: #4CAF50; stroke-width: 1.5625;" width="86.4583" x="309.8958" y="404.4861"/><rect fill="#FFFFFF" height="5.2083" style="stroke: #4CAF50; stroke-width: 1.5625;" width="10.4167" x="304.6875" y="409.6944"/><rect fill="#FFFFFF" height="5.2083" style="stroke: #4CAF50; stroke-width: 1.5625;" width="10.4167" x="304.6875" y="442.5944"/><text fill="#4CAF50" font-family="Verdana" font-size="12.5" lengthAdjust="spacingAndGlyphs" textLength="53.125" x="326.5625" y="433.7199">Folder 3</text><!--MD5=[63877ed85df621d134a6c80fb52dad56]
entity Frame 4--><rect fill="#FFFFFF" filter="url(#f8d3xpqsvob2q)" height="48.525" rx="4.1667" ry="4.1667" style="stroke: #4CAF50; stroke-width: 1.5625;" width="86.4583" x="309.8958" y="515.9444"/><rect fill="#FFFFFF" height="5.2083" style="stroke: #4CAF50; stroke-width: 1.5625;" width="10.4167" x="304.6875" y="521.1528"/><rect fill="#FFFFFF" height="5.2083" style="stroke: #4CAF50; stroke-width: 1.5625;" width="10.4167" x="304.6875" y="554.0527"/><text fill="#4CAF50" font-family="Verdana" font-size="12.5" lengthAdjust="spacingAndGlyphs" textLength="53.125" x="326.5625" y="545.1782">Frame 4</text><!--MD5=[4d6c9a8b502f46c0f85d26a51e5d57ce]
entity My Artifact--><rect fill="#FFFFFF" filter="url(#f8d3xpqsvob2q)" height="51.65" rx="4.1667" ry="4.1667" style="stroke: #666666; stroke-width: 1.5625;" width="111.4583" x="457.8125" y="107.6111"/><polygon fill="#FFFFFF" points="551.5625,112.8194,551.5625,127.4028,564.0625,127.4028,564.0625,119.0694,557.8125,112.8194,551.5625,112.8194" style="stroke: #666666; stroke-width: 1.5625;"/><line style="stroke: #666666; stroke-width: 1.5625;" x1="557.8125" x2="557.8125" y1="112.8194" y2="119.0694"/><line style="stroke: #666666; stroke-width: 1.5625;" x1="564.0625" x2="557.8125" y1="119.0694" y2="119.0694"/><text fill="#666666" font-family="Verdana" font-size="12.5" lengthAdjust="spacingAndGlyphs" textLength="67.7083" x="474.4792" y="139.9699">My Artifact</text><!--MD5=[6013850653c05993d855a7b82b2ebd6f]
entity My Storage--><rect fill="#FFFFFF" filter="url(#f8d3xpqsvob2q)" height="48.525" rx="36.4583" ry="36.4583" style="stroke: #FF9800; stroke-width: 1.5625;" width="107.2917" x="605.7292" y="109.1736"/><text fill="#FF9800" font-family="Verdana" font-size="12.5" lengthAdjust="spacingAndGlyphs" textLength="73.9583" x="622.3958" y="138.4074">My Storage</text><!--MD5=[decf897d207c1b699121f5d4005ef96e]
entity My Queue--><path d="M754.6875,114.3819 L843.2292,114.3819 C848.4375,114.3819 848.4375,133.4361 848.4375,133.4361 C848.4375,133.4361 848.4375,152.4902 843.2292,152.4902 L754.6875,152.4902 C749.4792,152.4902 749.4792,133.4361 749.4792,133.4361 C749.4792,133.4361 749.4792,114.3819 754.6875,114.3819 " fill="#FFFFFF" filter="url(#f8d3xpqsvob2q)" style="stroke: #CC7A00; stroke-width: 1.5625;"/><path d="M843.2292,114.3819 C838.0208,114.3819 838.0208,133.4361 838.0208,133.4361 C838.0208,152.4902 843.2292,152.4902 843.2292,152.4902 " fill="none" style="stroke: #CC7A00; stroke-width: 1.5625;"/><text fill="#FF9800" font-family="Verdana" font-size="12.5" lengthAdjust="spacingAndGlyphs" textLength="65.625" x="760.9375" y="138.4074">My Queue</text><!--MD5=[db0b4290d55c456da6f1e605315daa68]
entity My Interface--><ellipse cx="513.5417" cy="262.8194" fill="#FFFFFF" filter="url(#f8d3xpqsvob2q)" rx="8.3333" ry="8.3333" style="stroke: #E51C23; stroke-width: 2.0833333333333335;"/><text fill="#222222" font-family="Verdana" font-size="12.5" lengthAdjust="spacingAndGlyphs" textLength="81.25" x="472.9167" y="299.3449">My Interface</text><!--MD5=[c42dbb279bb2c76edeffd08640135261]
entity My Card--><rect fill="#FFFFFF" filter="url(#f8d3xpqsvob2q)" height="33.9417" rx="4.1667" ry="4.1667" style="stroke: #9C27B0; stroke-width: 1.5625;" width="86.4583" x="605.7292" y="245.6319"/><text fill="#9C27B0" font-family="Verdana" font-size="12.5" lengthAdjust="spacingAndGlyphs" textLength="53.125" x="622.3958" y="267.5741">My Card</text><!--MD5=[4552e0ab931d4db86ba1ccdf7169c968]
entity My File--><path d="M729.1667,242.5069 L729.1667,282.6986 A4.1667,4.1667 0 0 0 733.3333,286.8652 L802.0833,286.8652 A4.1667,4.1667 0 0 0 806.25,282.6986 L806.25,248.7569 L795.8333,238.3403 L733.3333,238.3403 A4.1667,4.1667 0 0 0 729.1667,242.5069 " fill="#FFFFFF" filter="url(#f8d3xpqsvob2q)" style="stroke: #666666; stroke-width: 1.5625;"/><path d="M795.8333,238.3403 L795.8333,244.5903 A4.1667,4.1667 0 0 0 800,248.7569 L806.25,248.7569 " fill="#FFFFFF" style="stroke: #666666; stroke-width: 1.5625;"/><text fill="#666666" font-family="Verdana" font-size="12.5" lengthAdjust="spacingAndGlyphs" textLength="43.75" x="745.8333" y="267.5741">My File</text><!--MD5=[5a51615613d2b2569e36ac803df4b251]
entity My Stack--><rect fill="#FFFFFF" filter="url(#f8d3xpqsvob2q)" height="48.525" rx="4.1667" ry="4.1667" style="stroke: none; stroke-width: 1.5625;" width="90.625" x="468.2292" y="404.4861"/><path d="M452.6042,404.4861 L464.0625,404.4861 A4.1667,4.1667 0 0 1 468.2292,408.6528 L468.2292,448.8444 A4.1667,4.1667 0 0 0 472.3958,453.0111 L554.6875,453.0111 A4.1667,4.1667 0 0 0 558.8542,448.8444 L558.8542,408.6528 A4.1667,4.1667 0 0 1 563.0208,404.4861 L574.4792,404.4861 " fill="none" style="stroke: #2196F3; stroke-width: 1.5625;"/><text fill="#2196F3" font-family="Verdana" font-size="12.5" lengthAdjust="spacingAndGlyphs" textLength="57.2917" x="484.8958" y="433.7199">My Stack</text><!--MD5=[46d996859f59e5baf77956ce93023cee]
link HTTP to First Component--><path d="M200.8036,133.6528 C188.817,133.6528 176.8304,133.6528 164.8438,133.6528 " fill="none" id="HTTP-First Component" style="stroke: #2196F3; stroke-width: 3.125;"/><!--MD5=[1966a42bb49d59057147dbda06282f4b]
link FTP to Second Component--><path d="M67.7653,262.8194 C80.0206,262.8194 92.276,262.8194 104.5314,262.8194 " fill="none" id="FTP-Second Component" style="stroke: #2196F3; stroke-width: 3.125;"/><!--MD5=[d3aefbd8005e27b21e7ce98ddd948193]
link First Component to FTP--><path d="M87.005,158.252 C79.7152,184.8384 68.339,226.3285 62.3428,248.1966 " fill="none" id="First Component-&gt;FTP" style="stroke: #2196F3; stroke-width: 3.125;"/><polygon fill="#2196F3" points="60.9401,253.3124,67.4377,245.3731,62.3175,248.2895,59.4011,243.1693,60.9401,253.3124" style="stroke: #2196F3; stroke-width: 3.125;"/><!--MD5=[efc1ffe8b578a0fb156c7bce303319bb]
link Another Component to Example 1--><path d="M341.319,158.252 C343.7214,179.5298 347.2015,210.3541 349.7611,233.0255 " fill="none" id="Another Component-&gt;Example 1" style="stroke: #2196F3; stroke-width: 3.125;"/><polygon fill="#2196F3" points="350.358,238.3117,353.4465,228.5284,349.7736,233.1363,345.1658,229.4634,350.358,238.3117" style="stroke: #2196F3; stroke-width: 3.125;"/><!--MD5=[7ec8393a78a133520e8846dd05a7857a]
link Example 1 to Folder 3--><path d="M353.125,287.3348 C353.125,317.0295 353.125,367.0345 353.125,398.9916 " fill="none" id="Example 1-&gt;Folder 3" style="stroke: #2196F3; stroke-width: 3.125;"/><polygon fill="#2196F3" points="353.125,404.3493,357.2917,394.9743,353.125,399.141,348.9583,394.9743,353.125,404.3493" style="stroke: #2196F3; stroke-width: 3.125;"/><!--MD5=[b96c7096199393c1414a8b4e9ed2c30f]
link Folder 3 to Frame 4--><path d="M353.125,453.7015 C353.125,470.4404 353.125,492.6492 353.125,510.4013 " fill="none" id="Folder 3-&gt;Frame 4" style="stroke: #2196F3; stroke-width: 3.125;"/><polygon fill="#2196F3" points="353.125,515.7565,357.2917,506.3815,353.125,510.5482,348.9583,506.3815,353.125,515.7565" style="stroke: #2196F3; stroke-width: 3.125;"/><!--MD5=[b21a3c93c2a22c7ef4934ace81b9a2fe]
link My Artifact to My Storage--><!--MD5=[e181977624df3f2540e75050355d9c90]
link My Storage to My Queue--><!--MD5=[756be6e13c059af04edf2b7b91188131]
link My Artifact to My Interface--><!--MD5=[9bfee3aea78949ae207e8bd3b67fed50]
link My Interface to My Card--><!--MD5=[7d5148706a659d88e9a451ba2a45522c]
link My Card to My File--><!--MD5=[25b27bb9c6f1602048cde482562a8061]
link My Interface to My Stack--><!--MD5=[187a5772fa7745daf25de4a1b2180cb1]
@startuml



skinparam backgroundColor white






skinparam defaultFontName       "Verdana"
skinparam defaultFontSize       12
skinparam dpi                   100
skinparam shadowing             true
skinparam roundcorner           8
skinparam ParticipantPadding    10
skinparam BoxPadding            2
skinparam Padding               6
skinparam TitleFontColor	    #222
skinparam TitleFontSize	    	20
skinparam TitleBorderThickness 	0
skinparam ArrowColor            #666

skinparam legend {
	BackgroundColor white
	BorderColor #cccccc
	FontColor #222
}

skinparam activity {
	TitleFontSize 20
	TitleFontColor #222
	FontColor #2196F3
	BorderColor #2196F3
	BackgroundColor white
	BarColor #4CAF50
	StartColor #9C27B0
	EndColor #9C27B0
	DiamondBackgroundColor white
  	DiamondBorderColor #cccccc
	DiamondFontColor #cccccc
}

skinparam sequence {
	BorderColor #2196F3
	TitleFontSize 20
	TitleFontColor #222
	BackgroundColor white
	StartColor #2196F3
	EndColor #2196F3
    ParticipantBackgroundColor white
    ParticipantBorderColor #2196F3
	ParticipantBorderThickness 1
	ParticipantFontColor #2196F3
	ActorBackgroundColor white
    ActorBorderColor #2196F3
	ActorFontColor #2196F3
	ArrowThickness 3
	ArrowColor #2196F3
	BoxBackgroundColor white
	BoxBorderColor #666
	BoxFontColor #222
	LifeLineBorderColor #cccccc
	LifeLineBorderThickness 2
	LifeLineBackgroundColor white
	GroupBorderColor #666
	GroupFontColor #222
	GroupHeaderFontColor #9C27B0
	DividerBackgroundColor white
    DividerBorderColor #666
    DividerBorderThickness 2
    DividerFontColor #222
	ReferenceBackgroundColor white
	ReferenceBorderColor #666
	ReferenceFontColor #222
	ReferenceHeaderFontColor #9C27B0
}

skinparam partition {
	BorderColor #2196F3
	FontColor #2196F3
	BackgroundColor white
}

skinparam collections {
	BackgroundColor white
	BorderColor #2196F3
}

skinparam control {
	BackgroundColor  white
	BorderColor #1a78c2
	FontColor #222
}

skinparam entity {
	BackgroundColor  white
	BorderColor #1a78c2
	FontColor #222
}

skinparam boundary {
	BackgroundColor  white
	BorderColor #1a78c2
	FontColor #222
}

skinparam agent {
	BackgroundColor white
	BorderColor #999999
	FontColor #333333
}

skinparam note {
	BorderThickness 1
	BackgroundColor white
	BorderColor #9C27B0
	FontColor #9C27B0
}

skinparam artifact {
	BackgroundColor white
	BorderColor #666
	FontColor #666
}

skinparam component {
	BackgroundColor  white
	BorderColor  #4CAF50
	FontColor #4CAF50
}

skinparam interface {
	BackgroundColor  white
	BorderColor  #e51c23
	FontColor #222
}

skinparam storage {
	BackgroundColor white
  	BorderColor #ff9800
	FontColor #ff9800
}

skinparam node {
	BackgroundColor white
	BorderColor #222
	FontColor #222
}

skinparam cloud {
	BackgroundColor white
	BorderColor lightskyblue
	FontColor #222
}

skinparam database {
	BackgroundColor  white
	BorderColor #1a78c2
	FontColor #222
}

skinparam actor {
	FontColor #222
}

skinparam class {
	HeaderBackgroundColor #2196F3-#1a78c2
	FontColor #2196F3
	BackgroundColor white
	BorderColor #1a78c2
	StereotypeFontColor #222
	BorderThickness 1
	AttributeFontColor #222
	AttributeFontSize 11
}

skinparam object {
	FontColor #4CAF50
	BackgroundColor white
	BorderColor #cccccc
	StereotypeFontColor #222
	BorderThickness 1
	AttributeFontColor #cccccc
	AttributeFontSize 11
}

skinparam usecase {
	BackgroundColor white
	BorderColor #cccccc
	BorderThickness 2
	FontColor #cccccc
	StereotypeFontColor #2196F3
}

skinparam rectangle {
	BackgroundColor white
	BorderColor #1a78c2
	BorderThickness 2
	FontColor #2196F3
	StereotypeFontColor #2196F3
}

skinparam package {
	BackgroundColor white
  	BorderColor #2196F3
	FontColor #2196F3
	BorderThickness 2
}

skinparam folder {
	BackgroundColor white
  	BorderColor #ff9800
	FontColor #ff9800
	BorderThickness 2
}

skinparam frame {
	BackgroundColor white
  	BorderColor #9C27B0
	FontColor #9C27B0
	BorderThickness 2
}

skinparam state {
	StartColor #9C27B0
	EndColor #9C27B0
	BackgroundColor white
	BorderColor #cccccc
	FontColor #9C27B0
	AttributeFontColor #cccccc
	AttributeFontSize 11
}

skinparam queue {
	BackgroundColor white
  	BorderColor #CC7A00
	FontColor #ff9800
}

skinparam card {
	BackgroundColor white
	BorderColor #9C27B0
	FontColor #9C27B0
}

skinparam file {
	BackgroundColor white
	BorderColor #666
	FontColor #666

}

skinparam stack {
	BackgroundColor white
	BorderColor #2196F3
	FontColor #2196F3
}

title Component Diagram - materia-outline theme


package "My Package" {
  HTTP - [First Component]
  [Another Component]
}
 
node "My Node" {
  FTP - [Second Component]
  [First Component] - -> FTP
} 

cloud "My Cloud" {
  [Example 1]
}


database "My Database" {
  folder "My folder" {
	[Folder 3]
  }
  frame "My Frame" {
	[Frame 4]
  }
}

artifact "My Artifact"
storage "My Storage"
queue "My Queue"
interface "My Interface"
card "My Card"
file "My File"
stack "My Stack"

[Another Component] - -> [Example 1]
[Example 1] - -> [Folder 3]
[Folder 3] - -> [Frame 4]

@enduml

PlantUML version 1.2019.11(Sun Sep 22 03:02:15 PDT 2019)
(GPL source distribution)
Java Runtime: OpenJDK Runtime Environment
JVM: OpenJDK 64-Bit Server VM
Java Version: 11.0.4+11-post-Ubuntu-1ubuntu218.04.3
Operating System: Linux
Default Encoding: UTF-8
Language: en
Country: US
--></g></svg>