<?xml version="1.0" encoding="UTF-8" standalone="no"?><svg xmlns="http://www.w3.org/2000/svg" xmlns:xlink="http://www.w3.org/1999/xlink" contentScriptType="application/ecmascript" contentStyleType="text/css" height="800px" preserveAspectRatio="none" style="width:1326px;height:800px;background:#00000000;" version="1.1" viewBox="0 0 1326 800" width="1326.0417px" zoomAndPan="magnify"><defs><filter height="300%" id="f15qw0whkrupzm" width="300%" x="-1" y="-1"><feGaussianBlur result="blurOut" stdDeviation="2.0833333333333335"/><feColorMatrix in="blurOut" result="blurOut2" type="matrix" values="0 0 0 0 0 0 0 0 0 0 0 0 0 0 0 0 0 0 .4 0"/><feOffset dx="4.166666666666667" dy="4.166666666666667" in="blurOut2" result="blurOut3"/><feBlend in="SourceGraphic" in2="blurOut3" mode="normal"/></filter><linearGradient id="g15qw0whkrupzm0" x1="50%" x2="50%" y1="0%" y2="100%"><stop offset="0%" stop-color="#F2FCFE"/><stop offset="100%" stop-color="#EEEEEE"/></linearGradient></defs><g><rect fill="#00000000" height="56.5694" rx="4.1667" ry="4.1667" style="stroke: #CCCCCC; stroke-width: 1.0416666666666667;" width="514.5833" x="409.375" y="2.0833"/><text fill="#2196F3" font-family="Verdana" font-size="20.8333" lengthAdjust="spacingAndGlyphs" textLength="477.0833" x="428.125" y="38.6536">Component Diagram - materia-outline theme</text><!--MD5=[98956307d0c47524864de5bf9cdc747b]
cluster My Package--><path d="M27.0833,86.7778 L128.125,86.7778 A6.25,6.25 0 0 1 132.2917,90.9444 L139.5833,129.0527 L806.25,129.0527 A4.1667,4.1667 0 0 1 810.4167,133.2194 L810.4167,211.7778 A4.1667,4.1667 0 0 1 806.25,215.9444 L27.0833,215.9444 A4.1667,4.1667 0 0 1 22.9167,211.7778 L22.9167,90.9444 A4.1667,4.1667 0 0 1 27.0833,86.7778 " fill="#00000000" filter="url(#f15qw0whkrupzm)" style="stroke: #2196F3; stroke-width: 1.5625;"/><line style="stroke: #2196F3; stroke-width: 1.5625;" x1="22.9167" x2="139.5833" y1="129.0527" y2="129.0527"/><text fill="#2196F3" font-family="Verdana" font-size="12.5" font-weight="bold" lengthAdjust="spacingAndGlyphs" textLength="82.2917" x="37.5" y="111.8449">My Package</text><!--MD5=[994b84a7865cf3a30290d65f6358d5f5]
cluster My Node--><polygon fill="#00000000" filter="url(#f15qw0whkrupzm)" points="230.2083,251.3611,240.625,240.9444,659.375,240.9444,659.375,364.9028,648.9583,375.3194,230.2083,375.3194,230.2083,251.3611" style="stroke: #222222; stroke-width: 1.5625;"/><line style="stroke: #222222; stroke-width: 1.5625;" x1="648.9583" x2="658.3333" y1="251.3611" y2="241.9861"/><line style="stroke: #222222; stroke-width: 1.5625;" x1="230.2083" x2="648.9583" y1="251.3611" y2="251.3611"/><line style="stroke: #222222; stroke-width: 1.5625;" x1="648.9583" x2="648.9583" y1="251.3611" y2="375.3194"/><text fill="#222222" font-family="Verdana" font-size="12.5" font-weight="bold" lengthAdjust="spacingAndGlyphs" textLength="59.375" x="410.9375" y="277.4699">My Node</text><!--MD5=[8f762177cf9f076b8ea6eac76c5df33e]
cluster My Cloud--><path d="M701.5788,254.8759 C704.541,248.4527 710.602,247.4978 714.6994,253.6958 C719.8305,246.222 724.3206,246.5561 729.3678,253.7795 C732.3965,246.9496 738.3334,246.4142 742.7762,252.2869 C746.132,246.2352 752.3564,244.4055 756.4881,251.4762 C761.2698,242.8855 767.9027,244.5488 772.4912,251.6729 C777.4127,245.1795 783.2665,248.1624 785.6639,254.3044 C790.4417,248.0799 794.5723,249.5057 798.4548,255.2604 C807.5851,247.4912 816.5341,250.3205 819.7917,261.7778 C820.8959,260.9819 821.5053,261.4546 821.8298,262.5975 C828.6082,264.7084 829.5567,270.2803 823.6479,274.3534 C830.4405,277.6336 831.989,282.782 825.167,287.621 C832.8237,289.397 833.2483,295.435 828.6225,300.5052 C835.815,302.7586 835.1088,308.5106 830.6423,312.6958 C835.274,317.8109 834.1945,321.1434 827.6594,323.0376 C833.9043,328.2357 832.1866,332.755 825.7522,336.1021 C830.8252,341.2097 830.6025,346.8867 822.7757,349.0226 C829.7887,359.5055 822.749,366.3776 812.5,366.9861 C812.7041,367.0393 812.7434,367.167 812.6018,367.3243 C808.4797,374.1118 804.263,375.6443 798.5749,368.9541 C795.3157,376.2602 789.4445,375.6524 784.8486,370.4172 C782.8109,377.8281 776.4671,379.8472 771.292,373.5113 C766.9469,379.8841 762.3968,380.9982 756.7705,375.0174 C751.0861,380.3483 746.0581,381.5116 742.2356,373.0546 C737.3869,378.1616 733.0799,379.08 728.9631,372.2414 C722.7782,378.452 718.4271,377.028 714.5383,369.7803 C703.116,377.5261 693.7456,374.426 692.7083,359.6944 C693.2345,359.6729 693.6261,360.0406 693.3029,360.5857 C687.9491,357.4708 688.1694,352.2972 693.2864,349.1671 C685.73,345.0339 687.0078,340.4221 692.2052,335.2948 C686.7063,332.3001 686.8075,327.733 691.1917,323.8622 C686.4969,321.0121 685.1375,316.3379 690.616,312.9512 C683.2898,308.6995 685.2499,303.1462 691.0411,299.3031 C686.214,295.4399 686.1315,290.5621 691.8653,287.4322 C686.7325,283.9708 686.4326,278.5295 692.4657,275.6365 C685.7973,266.6385 689.3094,257.3003 700,254.4861 C700.6244,253.8189 701.308,254.111 701.5788,254.8759 " fill="url(#g15qw0whkrupzm0)" style="stroke: #F2FCFE; stroke-width: 1.5625;"/><text fill="#222222" font-family="Verdana" font-size="12.5" font-weight="bold" lengthAdjust="spacingAndGlyphs" textLength="62.5" x="725" y="282.6782">My Cloud</text><!--MD5=[5435dd1da01795d79a1d1bdb7811705f]
cluster My Database--><path d="M666.6667,410.7361 C666.6667,400.3194 756.25,400.3194 756.25,400.3194 C756.25,400.3194 845.8333,400.3194 845.8333,410.7361 L845.8333,777.4028 C845.8333,787.8194 756.25,787.8194 756.25,787.8194 C756.25,787.8194 666.6667,787.8194 666.6667,777.4028 L666.6667,410.7361 " fill="#00000000" filter="url(#f15qw0whkrupzm)" style="stroke: #2196F3; stroke-width: 1.5625;"/><path d="M666.6667,410.7361 C666.6667,421.1528 756.25,421.1528 756.25,421.1528 C756.25,421.1528 845.8333,421.1528 845.8333,410.7361 " fill="none" style="stroke: #2196F3; stroke-width: 1.5625;"/><text fill="#2196F3" font-family="Verdana" font-size="12.5" font-weight="bold" lengthAdjust="spacingAndGlyphs" textLength="88.5417" x="711.9792" y="446.2199">My Database</text><!--MD5=[db3eb734e65e00defc1adec42c70b029]
cluster My folder--><path d="M695.8333,479.4861 L779.1667,479.4861 A6.25,6.25 0 0 1 783.3333,483.6528 L790.625,521.7611 L816.6667,521.7611 A4.1667,4.1667 0 0 1 820.8333,525.9277 L820.8333,604.4861 A4.1667,4.1667 0 0 1 816.6667,608.6528 L695.8333,608.6528 A4.1667,4.1667 0 0 1 691.6667,604.4861 L691.6667,483.6528 A4.1667,4.1667 0 0 1 695.8333,479.4861 " fill="#00000000" filter="url(#f15qw0whkrupzm)" style="stroke: #FF9800; stroke-width: 1.5625;"/><line style="stroke: #FF9800; stroke-width: 1.5625;" x1="691.6667" x2="790.625" y1="521.7611" y2="521.7611"/><text fill="#FF9800" font-family="Verdana" font-size="12.5" font-weight="bold" lengthAdjust="spacingAndGlyphs" textLength="64.5833" x="706.25" y="504.5532">My folder</text><!--MD5=[2f95c9c104e26437854e71862f3d840e]
cluster My Frame--><rect fill="#00000000" filter="url(#f15qw0whkrupzm)" height="129.1667" rx="4.1667" ry="4.1667" style="stroke: #9C27B0; stroke-width: 1.5625;" width="129.1667" x="691.6667" y="633.6528"/><path d="M790.625,634.6944 L790.625,662.3861 L780.2083,672.8027 L691.6667,672.8027 " fill="none" style="stroke: #9C27B0; stroke-width: 1.5625;"/><text fill="#9C27B0" font-family="Verdana" font-size="12.5" font-weight="bold" lengthAdjust="spacingAndGlyphs" textLength="67.7083" x="705.2083" y="657.6782">My Frame</text><!--MD5=[96f7e1299d4a43069e6ed32352fcac20]
entity HTTP--><ellipse cx="386.4583" cy="170.6319" fill="none" filter="url(#f15qw0whkrupzm)" rx="8.3333" ry="8.3333" style="stroke: #E51C23; stroke-width: 2.0833333333333335;"/><text fill="#222222" font-family="Verdana" font-size="12.5" lengthAdjust="spacingAndGlyphs" textLength="32.2917" x="370.3125" y="211.3241">HTTP</text><!--MD5=[cbd7cda55f2530e2efe43ec72c097853]
entity First Component--><rect fill="#00000000" filter="url(#f15qw0whkrupzm)" height="56.8583" rx="4.1667" ry="4.1667" style="stroke: #2196F3; stroke-width: 1.5625;" width="150" x="432.2917" y="141.9861"/><rect fill="#00000000" height="5.2083" style="stroke: #2196F3; stroke-width: 1.5625;" width="10.4167" x="427.0833" y="147.1944"/><rect fill="#00000000" height="5.2083" style="stroke: #2196F3; stroke-width: 1.5625;" width="10.4167" x="427.0833" y="188.4277"/><text fill="#2196F3" font-family="Verdana" font-size="12.5" lengthAdjust="spacingAndGlyphs" textLength="108.3333" x="453.125" y="175.3866">First Component</text><!--MD5=[b9d11f23832c1491231c5b33e55ab8c6]
entity Another Component--><rect fill="#00000000" filter="url(#f15qw0whkrupzm)" height="56.8583" rx="4.1667" ry="4.1667" style="stroke: #2196F3; stroke-width: 1.5625;" width="173.9583" x="619.2708" y="141.9861"/><rect fill="#00000000" height="5.2083" style="stroke: #2196F3; stroke-width: 1.5625;" width="10.4167" x="614.0625" y="147.1944"/><rect fill="#00000000" height="5.2083" style="stroke: #2196F3; stroke-width: 1.5625;" width="10.4167" x="614.0625" y="188.4277"/><text fill="#2196F3" font-family="Verdana" font-size="12.5" lengthAdjust="spacingAndGlyphs" textLength="132.2917" x="640.1042" y="175.3866">Another Component</text><!--MD5=[aa625683a8c1a6d60f4cb888c4297339]
entity MyRectangle1--><rect fill="#00000000" filter="url(#f15qw0whkrupzm)" height="56.8583" rx="4.1667" ry="4.1667" style="stroke: #2196F3; stroke-width: 2.0833333333333335;" width="132.2917" x="207.8125" y="141.9861"/><text fill="#2196F3" font-family="Verdana" font-size="12.5" lengthAdjust="spacingAndGlyphs" textLength="90.625" x="228.6458" y="175.3866">MyRectangle1</text><!--MD5=[deed3d4321eb4f26fdbc8b688b847966]
entity MyCollection1--><rect fill="#00000000" filter="url(#f15qw0whkrupzm)" height="52.6917" rx="4.1667" ry="4.1667" style="stroke: #2196F3; stroke-width: 2.0833333333333335;" width="127.0833" x="43.75" y="146.1528"/><rect fill="#00000000" height="52.6917" rx="4.1667" ry="4.1667" style="stroke: #2196F3; stroke-width: 2.0833333333333335;" width="127.0833" x="39.5833" y="141.9861"/><text fill="#2196F3" font-family="Verdana" font-size="12.5" lengthAdjust="spacingAndGlyphs" textLength="89.5833" x="58.3333" y="173.3032">MyCollection1</text><!--MD5=[76af18d92d7d7c0f7ebd8f4f605ac5aa]
entity FTP--><ellipse cx="426.0417" cy="330.0069" fill="none" filter="url(#f15qw0whkrupzm)" rx="8.3333" ry="8.3333" style="stroke: #E51C23; stroke-width: 2.0833333333333335;"/><text fill="#222222" font-family="Verdana" font-size="12.5" lengthAdjust="spacingAndGlyphs" textLength="22.9167" x="414.5833" y="370.6991">FTP</text><!--MD5=[0e2cc1aee2c7f52697e111b4fb84546c]
entity Second Component--><rect fill="#00000000" filter="url(#f15qw0whkrupzm)" height="56.8583" rx="4.1667" ry="4.1667" style="stroke: #2196F3; stroke-width: 1.5625;" width="169.7917" x="472.3958" y="301.3611"/><rect fill="#00000000" height="5.2083" style="stroke: #2196F3; stroke-width: 1.5625;" width="10.4167" x="467.1875" y="306.5694"/><rect fill="#00000000" height="5.2083" style="stroke: #2196F3; stroke-width: 1.5625;" width="10.4167" x="467.1875" y="347.8027"/><text fill="#2196F3" font-family="Verdana" font-size="12.5" lengthAdjust="spacingAndGlyphs" textLength="128.125" x="493.2292" y="334.7616">Second Component</text><!--MD5=[b8d85f5d3810694767e38854f60c8b6e]
entity MyRectangle2--><rect fill="#00000000" filter="url(#f15qw0whkrupzm)" height="56.8583" rx="4.1667" ry="4.1667" style="stroke: #2196F3; stroke-width: 2.0833333333333335;" width="132.2917" x="247.3958" y="301.3611"/><text fill="#2196F3" font-family="Verdana" font-size="12.5" lengthAdjust="spacingAndGlyphs" textLength="90.625" x="268.2292" y="334.7616">MyRectangle2</text><!--MD5=[243c1e580c31013c48b02624e18b25a7]
entity Example 1--><rect fill="#00000000" filter="url(#f15qw0whkrupzm)" height="56.8583" rx="4.1667" ry="4.1667" style="stroke: #2196F3; stroke-width: 1.5625;" width="109.375" x="701.5625" y="301.3611"/><rect fill="#00000000" height="5.2083" style="stroke: #2196F3; stroke-width: 1.5625;" width="10.4167" x="696.3542" y="306.5694"/><rect fill="#00000000" height="5.2083" style="stroke: #2196F3; stroke-width: 1.5625;" width="10.4167" x="696.3542" y="347.8027"/><text fill="#2196F3" font-family="Verdana" font-size="12.5" lengthAdjust="spacingAndGlyphs" textLength="67.7083" x="722.3958" y="334.7616">Example 1</text><!--MD5=[3e0e08c92570480402984701ab5a6d2d]
entity Folder 3--><rect fill="#00000000" filter="url(#f15qw0whkrupzm)" height="56.8583" rx="4.1667" ry="4.1667" style="stroke: #2196F3; stroke-width: 1.5625;" width="94.7917" x="708.8542" y="534.6944"/><rect fill="#00000000" height="5.2083" style="stroke: #2196F3; stroke-width: 1.5625;" width="10.4167" x="703.6458" y="539.9028"/><rect fill="#00000000" height="5.2083" style="stroke: #2196F3; stroke-width: 1.5625;" width="10.4167" x="703.6458" y="581.1361"/><text fill="#2196F3" font-family="Verdana" font-size="12.5" lengthAdjust="spacingAndGlyphs" textLength="53.125" x="729.6875" y="568.0949">Folder 3</text><!--MD5=[63877ed85df621d134a6c80fb52dad56]
entity Frame 4--><rect fill="#00000000" filter="url(#f15qw0whkrupzm)" height="56.8583" rx="4.1667" ry="4.1667" style="stroke: #2196F3; stroke-width: 1.5625;" width="94.7917" x="708.8542" y="688.8611"/><rect fill="#00000000" height="5.2083" style="stroke: #2196F3; stroke-width: 1.5625;" width="10.4167" x="703.6458" y="694.0694"/><rect fill="#00000000" height="5.2083" style="stroke: #2196F3; stroke-width: 1.5625;" width="10.4167" x="703.6458" y="735.3027"/><text fill="#2196F3" font-family="Verdana" font-size="12.5" lengthAdjust="spacingAndGlyphs" textLength="53.125" x="729.6875" y="722.2616">Frame 4</text><!--MD5=[bb0325ec99f4f4d58c3e33c6fae3b543]
entity MyCollection2--><rect fill="#00000000" filter="url(#f15qw0whkrupzm)" height="52.6917" rx="4.1667" ry="4.1667" style="stroke: #2196F3; stroke-width: 2.0833333333333335;" width="127.0833" x="879.1667" y="146.1528"/><rect fill="#00000000" height="52.6917" rx="4.1667" ry="4.1667" style="stroke: #2196F3; stroke-width: 2.0833333333333335;" width="127.0833" x="875" y="141.9861"/><text fill="#2196F3" font-family="Verdana" font-size="12.5" lengthAdjust="spacingAndGlyphs" textLength="89.5833" x="893.75" y="173.3032">MyCollection2</text><!--MD5=[4d6c9a8b502f46c0f85d26a51e5d57ce]
entity My Artifact--><rect fill="#00000000" filter="url(#f15qw0whkrupzm)" height="59.9833" rx="4.1667" ry="4.1667" style="stroke: #666666; stroke-width: 1.5625;" width="119.7917" x="1043.2292" y="140.4236"/><polygon fill="#00000000" points="1145.3125,145.6319,1145.3125,160.2153,1157.8125,160.2153,1157.8125,151.8819,1151.5625,145.6319,1145.3125,145.6319" style="stroke: #666666; stroke-width: 1.5625;"/><line style="stroke: #666666; stroke-width: 1.5625;" x1="1151.5625" x2="1151.5625" y1="145.6319" y2="151.8819"/><line style="stroke: #666666; stroke-width: 1.5625;" x1="1157.8125" x2="1151.5625" y1="151.8819" y2="151.8819"/><text fill="#666666" font-family="Verdana" font-size="12.5" lengthAdjust="spacingAndGlyphs" textLength="67.7083" x="1064.0625" y="176.9491">My Artifact</text><!--MD5=[6013850653c05993d855a7b82b2ebd6f]
entity My Storage--><rect fill="#00000000" filter="url(#f15qw0whkrupzm)" height="56.8583" rx="36.4583" ry="36.4583" style="stroke: #FF9800; stroke-width: 1.5625;" width="115.625" x="1199.4792" y="141.9861"/><text fill="#FF9800" font-family="Verdana" font-size="12.5" lengthAdjust="spacingAndGlyphs" textLength="73.9583" x="1220.3125" y="175.3866">My Storage</text><!--MD5=[decf897d207c1b699121f5d4005ef96e]
entity My Queue--><path d="M892.1875,306.5694 L989.0625,306.5694 C994.2708,306.5694 994.2708,329.7902 994.2708,329.7902 C994.2708,329.7902 994.2708,353.0111 989.0625,353.0111 L892.1875,353.0111 C886.9792,353.0111 886.9792,329.7902 886.9792,329.7902 C886.9792,329.7902 886.9792,306.5694 892.1875,306.5694 " fill="#00000000" filter="url(#f15qw0whkrupzm)" style="stroke: #2196F3; stroke-width: 1.5625;"/><path d="M989.0625,306.5694 C983.8542,306.5694 983.8542,329.7902 983.8542,329.7902 C983.8542,353.0111 989.0625,353.0111 989.0625,353.0111 " fill="none" style="stroke: #2196F3; stroke-width: 1.5625;"/><text fill="#2196F3" font-family="Verdana" font-size="12.5" lengthAdjust="spacingAndGlyphs" textLength="65.625" x="902.6042" y="334.7616">My Queue</text><!--MD5=[db0b4290d55c456da6f1e605315daa68]
entity My Interface--><ellipse cx="1090.625" cy="330.0069" fill="none" filter="url(#f15qw0whkrupzm)" rx="8.3333" ry="8.3333" style="stroke: #E51C23; stroke-width: 2.0833333333333335;"/><text fill="#222222" font-family="Verdana" font-size="12.5" lengthAdjust="spacingAndGlyphs" textLength="81.25" x="1050" y="370.6991">My Interface</text><!--MD5=[c42dbb279bb2c76edeffd08640135261]
entity My Card--><rect fill="#00000000" filter="url(#f15qw0whkrupzm)" height="42.275" rx="4.1667" ry="4.1667" style="stroke: #9C27B0; stroke-width: 1.5625;" width="94.7917" x="1186.9792" y="308.6528"/><text fill="#9C27B0" font-family="Verdana" font-size="12.5" lengthAdjust="spacingAndGlyphs" textLength="53.125" x="1207.8125" y="334.7616">My Card</text><!--MD5=[4552e0ab931d4db86ba1ccdf7169c968]
entity My File--><path d="M897.9167,538.8611 L897.9167,587.3861 A4.1667,4.1667 0 0 0 902.0833,591.5527 L979.1667,591.5527 A4.1667,4.1667 0 0 0 983.3333,587.3861 L983.3333,545.1111 L972.9167,534.6944 L902.0833,534.6944 A4.1667,4.1667 0 0 0 897.9167,538.8611 " fill="#00000000" filter="url(#f15qw0whkrupzm)" style="stroke: #666666; stroke-width: 1.5625;"/><path d="M972.9167,534.6944 L972.9167,540.9444 A4.1667,4.1667 0 0 0 977.0833,545.1111 L983.3333,545.1111 " fill="#00000000" style="stroke: #666666; stroke-width: 1.5625;"/><text fill="#666666" font-family="Verdana" font-size="12.5" lengthAdjust="spacingAndGlyphs" textLength="43.75" x="918.75" y="568.0949">My File</text><!--MD5=[5a51615613d2b2569e36ac803df4b251]
entity My Stack--><rect fill="#00000000" filter="url(#f15qw0whkrupzm)" height="56.8583" rx="4.1667" ry="4.1667" style="stroke: none; stroke-width: 1.5625;" width="98.9583" x="1035.9375" y="534.6944"/><path d="M1020.3125,534.6944 L1031.7708,534.6944 A4.1667,4.1667 0 0 1 1035.9375,538.8611 L1035.9375,587.3861 A4.1667,4.1667 0 0 0 1040.1042,591.5527 L1130.7292,591.5527 A4.1667,4.1667 0 0 0 1134.8958,587.3861 L1134.8958,538.8611 A4.1667,4.1667 0 0 1 1139.0625,534.6944 L1150.5208,534.6944 " fill="none" style="stroke: #2196F3; stroke-width: 1.5625;"/><text fill="#2196F3" font-family="Verdana" font-size="12.5" lengthAdjust="spacingAndGlyphs" textLength="57.2917" x="1056.7708" y="568.0949">My Stack</text><!--MD5=[46d996859f59e5baf77956ce93023cee]
link HTTP to First Component--><path d="M395.899,170.6319 C407.9375,170.6319 419.976,170.6319 432.0146,170.6319 " fill="none" id="HTTP-First Component" style="stroke: #2196F3; stroke-width: 3.125;"/><!--MD5=[1966a42bb49d59057147dbda06282f4b]
link FTP to Second Component--><path d="M435.7833,330.0069 C447.9656,330.0069 460.1479,330.0069 472.3302,330.0069 " fill="none" id="FTP-Second Component" style="stroke: #2196F3; stroke-width: 3.125;"/><!--MD5=[d3aefbd8005e27b21e7ce98ddd948193]
link First Component to FTP--><path d="M478.5531,199.4767 C469.7198,209.2653 460.6323,220.7903 454.1667,232.6111 C439.3135,259.7673 431.5313,295.6267 428.1594,315.0371 " fill="none" id="First Component-&gt;FTP" style="stroke: #2196F3; stroke-width: 3.125;"/><polygon fill="#2196F3" points="427.251,320.5059,432.8962,311.9394,428.1037,315.3678,424.6753,310.5752,427.251,320.5059" style="stroke: #2196F3; stroke-width: 3.125;"/><!--MD5=[efc1ffe8b578a0fb156c7bce303319bb]
link Another Component to Example 1--><path d="M715.074,199.4319 C723.651,226.4153 736.6813,267.4048 745.7792,296.0257 " fill="none" id="Another Component-&gt;Example 1" style="stroke: #2196F3; stroke-width: 3.125;"/><polygon fill="#2196F3" points="747.4302,301.2205,748.5586,291.0235,745.8512,296.2572,740.6174,293.5499,747.4302,301.2205" style="stroke: #2196F3; stroke-width: 3.125;"/><!--MD5=[7ec8393a78a133520e8846dd05a7857a]
link Example 1 to Folder 3--><path d="M756.25,358.9423 C756.25,401.7694 756.25,483.5507 756.25,529.2736 " fill="none" id="Example 1-&gt;Folder 3" style="stroke: #2196F3; stroke-width: 3.125;"/><polygon fill="#2196F3" points="756.25,534.6653,760.4167,525.2903,756.25,529.4569,752.0833,525.2903,756.25,534.6653" style="stroke: #2196F3; stroke-width: 3.125;"/><!--MD5=[b96c7096199393c1414a8b4e9ed2c30f]
link Folder 3 to Frame 4--><path d="M756.25,592.2767 C756.25,618.0017 756.25,656.2173 756.25,683.4538 " fill="none" id="Folder 3-&gt;Frame 4" style="stroke: #2196F3; stroke-width: 3.125;"/><polygon fill="#2196F3" points="756.25,688.7475,760.4167,679.3725,756.25,683.5392,752.0833,679.3725,756.25,688.7475" style="stroke: #2196F3; stroke-width: 3.125;"/><!--MD5=[83be288af14fde8a86007c2b011fac4a]
link MyCollection2 to My Artifact--><!--MD5=[b21a3c93c2a22c7ef4934ace81b9a2fe]
link My Artifact to My Storage--><!--MD5=[6ba35b42f782a962813221ea03178716]
link MyCollection2 to My Queue--><!--MD5=[0babb46f3d0f67f91c828a5eda35ab7d]
link My Queue to My Interface--><!--MD5=[9bfee3aea78949ae207e8bd3b67fed50]
link My Interface to My Card--><!--MD5=[afe9315598834b0b9f57a7a5b2c7ee2a]
link My Queue to My File--><!--MD5=[f6296be58d13482500ae3b999db2843f]
link My File to My Stack--><!--MD5=[0588636fb0095574bad3663ce0210d36]
@startuml



skinparam backgroundColor transparent







skinparam defaultFontName       "Verdana"
skinparam defaultFontSize       12
skinparam dpi                   100
skinparam shadowing             true
skinparam roundcorner           8
skinparam ParticipantPadding    40
skinparam BoxPadding            40
skinparam Padding               10 
skinparam TitleFontColor	    #222
skinparam TitleFontSize	    	20
skinparam TitleBorderThickness 	0
skinparam ArrowColor            #666
skinparam stereotype {
    CBackgroundColor #fff
    CBorderColor #cccccc
    ABackgroundColor #70bf73
    ABorderColor #3D8C40
    IBackgroundColor #B7161C
    IBorderColor $DANGER_DARK
    EBackgroundColor #ffad33
    EBorderColor #CC7A00
    NBackgroundColor #b052c0
    NBorderColor #7D1F8D
}
skinparam title {
	FontColor	                 #2196F3
	BorderColor	                 #cccccc
	FontSize	    	         20
	BorderRoundCorner            8
	BorderThickness 	         1
	BackgroundColor              transparent
}

skinparam legend {
	BackgroundColor transparent
	BorderColor #cccccc
	FontColor #222
}

skinparam swimlane {
	BorderColor #9C27B0
	BorderThickness 2
	TitleBackgroundColor  #fff-#fff
	TitleFontColor #2196F3
}


skinparam activity {
		FontColor #2196F3
	BorderColor #2196F3
	BackgroundColor transparent
	BarColor #4CAF50
	StartColor #9C27B0
	EndColor #9C27B0
	DiamondBackgroundColor transparent
  	DiamondBorderColor #cccccc
	DiamondFontColor #cccccc
}


skinparam participant {
		FontColor #2196F3
	BorderColor #2196F3
	BackgroundColor transparent
	ParticipantBorderThickness 2
}


skinparam actor {
		FontColor #2196F3
	BorderColor #2196F3
	BackgroundColor transparent
}


skinparam arrow {
	Thickness 3
	Color #2196F3
	FontColor #222
}


skinparam sequence {
	BorderColor #2196F3
	TitleFontColor #2196F3
	BackgroundColor transparent
	StartColor #2196F3
	EndColor #2196F3
	BoxBackgroundColor transparent
	BoxBorderColor #666
	BoxFontColor #222
	LifeLineBorderColor #cccccc
	LifeLineBorderThickness 2
	LifeLineBackgroundColor transparent
	GroupBorderColor #666
	GroupFontColor #222
	GroupHeaderFontColor #9C27B0
	DividerBackgroundColor transparent
    DividerBorderColor #666
    DividerBorderThickness 2
    DividerFontColor #222
	ReferenceBackgroundColor transparent
	ReferenceBorderColor #666
	ReferenceFontColor #222
	ReferenceHeaderFontColor #9C27B0
}


skinparam partition {
	BorderColor #2196F3
	FontColor #2196F3
	BackgroundColor transparent
}


skinparam collections {
		FontColor #2196F3
	BorderColor #2196F3
	BackgroundColor transparent
}


skinparam control {
		FontColor #2196F3
	BorderColor #2196F3
	BackgroundColor transparent
}


skinparam entity {
		FontColor #2196F3
	BorderColor #2196F3
	BackgroundColor transparent
}


skinparam boundary {
		FontColor #2196F3
	BorderColor #2196F3
	BackgroundColor transparent
}


skinparam agent {
	BackgroundColor transparent
	BorderColor #999999
	FontColor #333333
}


skinparam note {
	BorderThickness 1
	BackgroundColor transparent
	BorderColor #9C27B0
	FontColor #9C27B0
}


skinparam artifact {
	BackgroundColor transparent
	BorderColor #666
	FontColor #666
}


skinparam component {
		FontColor #2196F3
	BorderColor #2196F3
	BackgroundColor transparent
}


skinparam interface {
	BackgroundColor  transparent
	BorderColor  #e51c23
	FontColor #222
}


skinparam storage {
	BackgroundColor transparent
  	BorderColor #ff9800
	FontColor #ff9800
}


skinparam node {
	BackgroundColor transparent
	BorderColor #222
	FontColor #222
}


skinparam cloud {
	BackgroundColor #F2FCFE-#eeeeee
	BorderColor #F2FCFE
	FontColor #222
}


skinparam database {
		FontColor #2196F3
	BorderColor #2196F3
	BackgroundColor transparent
}


skinparam class {
		FontColor #2196F3
	BorderColor #2196F3
	BackgroundColor transparent
	HeaderBackgroundColor #2196F3-#1a78c2
	StereotypeFontColor #222
	BorderThickness 1
	AttributeFontColor #222
	AttributeFontSize 11
}


skinparam object {
		FontColor #2196F3
	BorderColor #2196F3
	BackgroundColor transparent
	StereotypeFontColor #222
	BorderThickness 1
	AttributeFontColor #cccccc
	AttributeFontSize 11
}


skinparam usecase {
		FontColor #2196F3
	BorderColor #2196F3
	BackgroundColor transparent
	BorderThickness 2
	StereotypeFontColor #2196F3
}


skinparam rectangle {
		FontColor #2196F3
	BorderColor #2196F3
	BackgroundColor transparent
	BorderThickness 2
	StereotypeFontColor #2196F3
}


skinparam package {
	BackgroundColor transparent
  	BorderColor #2196F3
	FontColor #2196F3
	BorderThickness 2
}


skinparam folder {
	BackgroundColor transparent
  	BorderColor #ff9800
	FontColor #ff9800
	BorderThickness 2
}


skinparam frame {
	BackgroundColor transparent
  	BorderColor #9C27B0
	FontColor #9C27B0
	BorderThickness 2
}


skinparam state {
		FontColor #2196F3
	BorderColor #2196F3
	BackgroundColor transparent
	StartColor #9C27B0
	EndColor #9C27B0
	AttributeFontColor #cccccc
	AttributeFontSize 11
}


skinparam queue {
		FontColor #2196F3
	BorderColor #2196F3
	BackgroundColor transparent
}


skinparam card {
	BackgroundColor transparent
	BorderColor #9C27B0
	FontColor #9C27B0
}


skinparam file {
	BackgroundColor transparent
	BorderColor #666
	FontColor #666

}


skinparam stack {
		FontColor #2196F3
	BorderColor #2196F3
	BackgroundColor transparent
}

title Component Diagram - materia-outline theme


package "My Package" {
  HTTP - [First Component]
  [Another Component]
  rectangle MyRectangle1
  collections MyCollection1
}
 
node "My Node" {
  FTP - [Second Component]
  [First Component] - -> FTP
  rectangle MyRectangle2
} 

cloud "My Cloud" {
  [Example 1]
}

collections MyCollection2

database "My Database" {
  folder "My folder" {
	[Folder 3]
  }
  frame "My Frame" {
	[Frame 4]
  }
}

artifact "My Artifact"
storage "My Storage"
queue "My Queue"
interface "My Interface"
card "My Card"
file "My File"
stack "My Stack"

[Another Component] - -> [Example 1]
[Example 1] - -> [Folder 3]
[Folder 3] - -> [Frame 4]

@enduml

PlantUML version 1.2020.08(Sun Apr 26 07:08:22 PDT 2020)
(GPL source distribution)
Java Runtime: Java(TM) SE Runtime Environment
JVM: Java HotSpot(TM) 64-Bit Server VM
Java Version: 1.8.0_251-b32
Operating System: Windows 10
Default Encoding: Cp1252
Language: en
Country: US
--></g></svg>