<?xml version="1.0" encoding="UTF-8" standalone="no"?><svg xmlns="http://www.w3.org/2000/svg" xmlns:xlink="http://www.w3.org/1999/xlink" contentScriptType="application/ecmascript" contentStyleType="text/css" height="1509.375px" preserveAspectRatio="none" style="width:1155px;height:1509px;" version="1.1" viewBox="0 0 1155 1509" width="1155.2083px" zoomAndPan="magnify"><defs><filter height="300%" id="f8d14ykgx1tv8" width="300%" x="-1" y="-1"><feGaussianBlur result="blurOut" stdDeviation="2.0833333333333335"/><feColorMatrix in="blurOut" result="blurOut2" type="matrix" values="0 0 0 0 0 0 0 0 0 0 0 0 0 0 0 0 0 0 .4 0"/><feOffset dx="4.166666666666667" dy="4.166666666666667" in="blurOut2" result="blurOut3"/><feBlend in="SourceGraphic" in2="blurOut3" mode="normal"/></filter></defs><g><rect fill="none" height="48.2361" rx="4.1667" ry="4.1667" style="stroke: none; stroke-width: 1.0416666666666667;" width="533.3333" x="305.7292" y="30.8167"/><text fill="#222222" font-family="Verdana" font-size="20.8333" font-weight="bold" lengthAdjust="spacingAndGlyphs" textLength="504.1667" x="320.3125" y="63.2202">Sequence Diagram - materia-outline theme</text><rect fill="#FFFFFF" height="1388.2161" rx="4.1667" ry="4.1667" style="stroke: #666666; stroke-width: 1.0416666666666667;" width="231.25" x="873.9583" y="90.5111"/><text fill="#222222" font-family="Verdana" font-size="12.5" font-weight="bold" lengthAdjust="spacingAndGlyphs" textLength="111.4583" x="933.8542" y="109.3282">Internal Service</text><rect fill="#FFFFFF" filter="url(#f8d14ykgx1tv8)" height="255.2999" style="stroke: #CCCCCC; stroke-width: 1.0416666666666667;" width="10.4167" x="401.5625" y="356.486"/><line style="stroke: #CCCCCC; stroke-width: 1.0416666666666667;" x1="69.7917" x2="69.7917" y1="186.9527" y2="620.1192"/><line style="stroke: #CCCCCC; stroke-width: 1.0416666666666667; stroke-dasharray: 1.0,4.0;" x1="69.7917" x2="69.7917" y1="620.1192" y2="676.9775"/><line style="stroke: #CCCCCC; stroke-width: 1.0416666666666667;" x1="69.7917" x2="69.7917" y1="676.9775" y2="1378.1189"/><line style="stroke: #CCCCCC; stroke-width: 1.0416666666666667;" x1="246.875" x2="246.875" y1="186.9527" y2="620.1192"/><line style="stroke: #CCCCCC; stroke-width: 1.0416666666666667; stroke-dasharray: 1.0,4.0;" x1="246.875" x2="246.875" y1="620.1192" y2="676.9775"/><line style="stroke: #CCCCCC; stroke-width: 1.0416666666666667;" x1="246.875" x2="246.875" y1="676.9775" y2="1378.1189"/><line style="stroke: #CCCCCC; stroke-width: 1.0416666666666667;" x1="406.25" x2="406.25" y1="186.9527" y2="620.1192"/><line style="stroke: #CCCCCC; stroke-width: 1.0416666666666667; stroke-dasharray: 1.0,4.0;" x1="406.25" x2="406.25" y1="620.1192" y2="676.9775"/><line style="stroke: #CCCCCC; stroke-width: 1.0416666666666667;" x1="406.25" x2="406.25" y1="676.9775" y2="1378.1189"/><line style="stroke: #CCCCCC; stroke-width: 1.0416666666666667;" x1="563.5417" x2="563.5417" y1="186.9527" y2="620.1192"/><line style="stroke: #CCCCCC; stroke-width: 1.0416666666666667; stroke-dasharray: 1.0,4.0;" x1="563.5417" x2="563.5417" y1="620.1192" y2="676.9775"/><line style="stroke: #CCCCCC; stroke-width: 1.0416666666666667;" x1="563.5417" x2="563.5417" y1="676.9775" y2="1378.1189"/><line style="stroke: #CCCCCC; stroke-width: 1.0416666666666667;" x1="740.625" x2="740.625" y1="186.9527" y2="620.1192"/><line style="stroke: #CCCCCC; stroke-width: 1.0416666666666667; stroke-dasharray: 1.0,4.0;" x1="740.625" x2="740.625" y1="620.1192" y2="676.9775"/><line style="stroke: #CCCCCC; stroke-width: 1.0416666666666667;" x1="740.625" x2="740.625" y1="676.9775" y2="1378.1189"/><line style="stroke: #CCCCCC; stroke-width: 1.0416666666666667;" x1="820.8333" x2="820.8333" y1="186.9527" y2="620.1192"/><line style="stroke: #CCCCCC; stroke-width: 1.0416666666666667; stroke-dasharray: 1.0,4.0;" x1="820.8333" x2="820.8333" y1="620.1192" y2="676.9775"/><line style="stroke: #CCCCCC; stroke-width: 1.0416666666666667;" x1="820.8333" x2="820.8333" y1="676.9775" y2="1378.1189"/><line style="stroke: #CCCCCC; stroke-width: 1.0416666666666667;" x1="916.6667" x2="916.6667" y1="186.9527" y2="620.1192"/><line style="stroke: #CCCCCC; stroke-width: 1.0416666666666667; stroke-dasharray: 1.0,4.0;" x1="916.6667" x2="916.6667" y1="620.1192" y2="676.9775"/><line style="stroke: #CCCCCC; stroke-width: 1.0416666666666667;" x1="916.6667" x2="916.6667" y1="676.9775" y2="1378.1189"/><line style="stroke: #CCCCCC; stroke-width: 1.0416666666666667;" x1="1033.3333" x2="1033.3333" y1="186.9527" y2="620.1192"/><line style="stroke: #CCCCCC; stroke-width: 1.0416666666666667; stroke-dasharray: 1.0,4.0;" x1="1033.3333" x2="1033.3333" y1="620.1192" y2="676.9775"/><line style="stroke: #CCCCCC; stroke-width: 1.0416666666666667;" x1="1033.3333" x2="1033.3333" y1="676.9775" y2="1378.1189"/><text fill="#222222" font-family="Verdana" font-size="12.5" lengthAdjust="spacingAndGlyphs" textLength="32.2917" x="51.0417" y="178.0782">Foo1</text><ellipse cx="70.3125" cy="99.8861" fill="#FFFFFF" filter="url(#f8d14ykgx1tv8)" rx="8.3333" ry="8.3333" style="stroke: #2196F3; stroke-width: 2.0833333333333335;"/><path d="M70.3125,108.2194 L70.3125,136.3444 M56.7708,116.5527 L83.8542,116.5527 M70.3125,136.3444 L56.7708,151.9694 M70.3125,136.3444 L83.8542,151.9694 " fill="none" filter="url(#f8d14ykgx1tv8)" style="stroke: #2196F3; stroke-width: 2.0833333333333335;"/><text fill="#222222" font-family="Verdana" font-size="12.5" lengthAdjust="spacingAndGlyphs" textLength="32.2917" x="51.0417" y="1395.8944">Foo1</text><ellipse cx="70.3125" cy="1415.1855" fill="#FFFFFF" filter="url(#f8d14ykgx1tv8)" rx="8.3333" ry="8.3333" style="stroke: #2196F3; stroke-width: 2.0833333333333335;"/><path d="M70.3125,1423.5189 L70.3125,1451.6439 M56.7708,1431.8522 L83.8542,1431.8522 M70.3125,1451.6439 L56.7708,1467.2689 M70.3125,1451.6439 L83.8542,1467.2689 " fill="none" filter="url(#f8d14ykgx1tv8)" style="stroke: #2196F3; stroke-width: 2.0833333333333335;"/><text fill="#222222" font-family="Verdana" font-size="12.5" lengthAdjust="spacingAndGlyphs" textLength="32.2917" x="228.125" y="178.0782">Foo2</text><path d="M226.0417,130.0944 L226.0417,155.0944 M226.0417,142.5944 L243.75,142.5944 " fill="none" filter="url(#f8d14ykgx1tv8)" style="stroke: #1A78C2; stroke-width: 2.0833333333333335;"/><ellipse cx="256.25" cy="142.5944" fill="#FFFFFF" filter="url(#f8d14ykgx1tv8)" rx="12.5" ry="12.5" style="stroke: #1A78C2; stroke-width: 2.0833333333333335;"/><text fill="#222222" font-family="Verdana" font-size="12.5" lengthAdjust="spacingAndGlyphs" textLength="32.2917" x="228.125" y="1395.8944">Foo2</text><path d="M226.0417,1408.9355 L226.0417,1433.9355 M226.0417,1421.4355 L243.75,1421.4355 " fill="none" filter="url(#f8d14ykgx1tv8)" style="stroke: #1A78C2; stroke-width: 2.0833333333333335;"/><ellipse cx="256.25" cy="1421.4355" fill="#FFFFFF" filter="url(#f8d14ykgx1tv8)" rx="12.5" ry="12.5" style="stroke: #1A78C2; stroke-width: 2.0833333333333335;"/><text fill="#222222" font-family="Verdana" font-size="12.5" lengthAdjust="spacingAndGlyphs" textLength="32.2917" x="387.5" y="178.0782">Foo3</text><ellipse cx="406.7708" cy="142.5944" fill="#FFFFFF" filter="url(#f8d14ykgx1tv8)" rx="12.5" ry="12.5" style="stroke: #1A78C2; stroke-width: 2.0833333333333335;"/><polygon fill="#1A78C2" points="402.6042,130.0944,408.8542,124.8861,406.7708,130.0944,408.8542,135.3027,402.6042,130.0944" style="stroke: #1A78C2; stroke-width: 1.0416666666666667;"/><text fill="#222222" font-family="Verdana" font-size="12.5" lengthAdjust="spacingAndGlyphs" textLength="32.2917" x="387.5" y="1395.8944">Foo3</text><ellipse cx="406.7708" cy="1421.4355" fill="#FFFFFF" filter="url(#f8d14ykgx1tv8)" rx="12.5" ry="12.5" style="stroke: #1A78C2; stroke-width: 2.0833333333333335;"/><polygon fill="#1A78C2" points="402.6042,1408.9355,408.8542,1403.7272,406.7708,1408.9355,408.8542,1414.1439,402.6042,1408.9355" style="stroke: #1A78C2; stroke-width: 1.0416666666666667;"/><text fill="#222222" font-family="Verdana" font-size="12.5" lengthAdjust="spacingAndGlyphs" textLength="32.2917" x="544.7917" y="178.0782">Foo4</text><ellipse cx="564.0625" cy="142.5944" fill="#FFFFFF" filter="url(#f8d14ykgx1tv8)" rx="12.5" ry="12.5" style="stroke: #1A78C2; stroke-width: 2.0833333333333335;"/><line style="stroke: #1A78C2; stroke-width: 2.0833333333333335;" x1="551.5625" x2="576.5625" y1="157.1777" y2="157.1777"/><text fill="#222222" font-family="Verdana" font-size="12.5" lengthAdjust="spacingAndGlyphs" textLength="32.2917" x="544.7917" y="1395.8944">Foo4</text><ellipse cx="564.0625" cy="1421.4355" fill="#FFFFFF" filter="url(#f8d14ykgx1tv8)" rx="12.5" ry="12.5" style="stroke: #1A78C2; stroke-width: 2.0833333333333335;"/><line style="stroke: #1A78C2; stroke-width: 2.0833333333333335;" x1="551.5625" x2="576.5625" y1="1436.0189" y2="1436.0189"/><text fill="#222222" font-family="Verdana" font-size="12.5" lengthAdjust="spacingAndGlyphs" textLength="32.2917" x="721.875" y="178.0782">Foo5</text><path d="M722.3958,121.7611 C722.3958,111.3444 741.1458,111.3444 741.1458,111.3444 C741.1458,111.3444 759.8958,111.3444 759.8958,121.7611 L759.8958,148.8444 C759.8958,159.2611 741.1458,159.2611 741.1458,159.2611 C741.1458,159.2611 722.3958,159.2611 722.3958,148.8444 L722.3958,121.7611 " fill="#FFFFFF" filter="url(#f8d14ykgx1tv8)" style="stroke: #1A78C2; stroke-width: 1.5625;"/><path d="M722.3958,121.7611 C722.3958,132.1777 741.1458,132.1777 741.1458,132.1777 C741.1458,132.1777 759.8958,132.1777 759.8958,121.7611 " fill="none" style="stroke: #1A78C2; stroke-width: 1.5625;"/><text fill="#222222" font-family="Verdana" font-size="12.5" lengthAdjust="spacingAndGlyphs" textLength="32.2917" x="721.875" y="1395.8944">Foo5</text><path d="M722.3958,1415.1855 C722.3958,1404.7689 741.1458,1404.7689 741.1458,1404.7689 C741.1458,1404.7689 759.8958,1404.7689 759.8958,1415.1855 L759.8958,1442.2689 C759.8958,1452.6855 741.1458,1452.6855 741.1458,1452.6855 C741.1458,1452.6855 722.3958,1452.6855 722.3958,1442.2689 L722.3958,1415.1855 " fill="#FFFFFF" filter="url(#f8d14ykgx1tv8)" style="stroke: #1A78C2; stroke-width: 1.5625;"/><path d="M722.3958,1415.1855 C722.3958,1425.6022 741.1458,1425.6022 741.1458,1425.6022 C741.1458,1425.6022 759.8958,1425.6022 759.8958,1415.1855 " fill="none" style="stroke: #1A78C2; stroke-width: 1.5625;"/><rect fill="#FFFFFF" filter="url(#f8d14ykgx1tv8)" height="42.275" rx="4.1667" ry="4.1667" style="stroke: #2196F3; stroke-width: 1.5625;" width="59.375" x="791.6667" y="135.3027"/><rect fill="#FFFFFF" filter="url(#f8d14ykgx1tv8)" height="42.275" rx="4.1667" ry="4.1667" style="stroke: #2196F3; stroke-width: 1.5625;" width="59.375" x="787.5" y="139.4694"/><text fill="#2196F3" font-family="Verdana" font-size="12.5" lengthAdjust="spacingAndGlyphs" textLength="32.2917" x="801.0417" y="165.5782">Foo6</text><rect fill="#FFFFFF" filter="url(#f8d14ykgx1tv8)" height="42.275" rx="4.1667" ry="4.1667" style="stroke: #2196F3; stroke-width: 1.5625;" width="59.375" x="791.6667" y="1377.0772"/><rect fill="#FFFFFF" filter="url(#f8d14ykgx1tv8)" height="42.275" rx="4.1667" ry="4.1667" style="stroke: #2196F3; stroke-width: 1.5625;" width="59.375" x="787.5" y="1381.2439"/><text fill="#2196F3" font-family="Verdana" font-size="12.5" lengthAdjust="spacingAndGlyphs" textLength="32.2917" x="801.0417" y="1407.3527">Foo6</text><rect fill="#FFFFFF" filter="url(#f8d14ykgx1tv8)" height="42.275" rx="4.1667" ry="4.1667" style="stroke: #2196F3; stroke-width: 1.0416666666666667;" width="52.0833" x="888.5417" y="139.4694"/><text fill="#2196F3" font-family="Verdana" font-size="12.5" lengthAdjust="spacingAndGlyphs" textLength="25" x="902.0833" y="165.5782">Bob</text><rect fill="#FFFFFF" filter="url(#f8d14ykgx1tv8)" height="42.275" rx="4.1667" ry="4.1667" style="stroke: #2196F3; stroke-width: 1.0416666666666667;" width="52.0833" x="888.5417" y="1377.0772"/><text fill="#2196F3" font-family="Verdana" font-size="12.5" lengthAdjust="spacingAndGlyphs" textLength="25" x="902.0833" y="1403.186">Bob</text><rect fill="#FFFFFF" filter="url(#f8d14ykgx1tv8)" height="44.9666" rx="4.1667" ry="4.1667" style="stroke: #2196F3; stroke-width: 1.0416666666666667;" width="110.4167" x="976.0417" y="136.7778"/><ellipse cx="993.75" cy="154.4861" fill="#ADD1B2" rx="10.4167" ry="10.4167" style="stroke: #2196F3; stroke-width: 1.0416666666666667;"/><path d="M995.2962,151.5727 Q995.4102,151.4099 995.5485,151.3285 Q995.6868,151.2472 995.8496,151.2472 Q996.1263,151.2472 996.2972,151.4425 Q996.4681,151.6378 996.4681,152.0772 L996.4681,153.1514 Q996.4681,153.5909 996.2972,153.7862 Q996.1263,153.9815 995.8496,153.9815 Q995.5892,153.9815 995.4427,153.835 Q995.2962,153.7048 995.2148,153.3142 Q995.1823,153.0538 995.0521,152.9236 Q994.7917,152.6469 994.3441,152.4841 Q993.8965,152.3214 993.4408,152.3214 Q992.8874,152.3214 992.4154,152.5655 Q991.9434,152.8097 991.5853,153.3549 Q991.2272,153.9001 991.2272,154.6651 L991.2272,155.4789 Q991.2272,156.3741 991.8864,156.9763 Q992.5456,157.5785 993.7012,157.5785 Q994.401,157.5785 994.8893,157.3995 Q995.166,157.2856 995.4753,156.96 Q995.6706,156.7647 995.7845,156.7078 Q995.8984,156.6508 996.0286,156.6508 Q996.2891,156.6508 996.4762,156.838 Q996.6634,157.0251 996.6634,157.2856 Q996.6634,157.546 996.403,157.8389 Q996.0286,158.2621 995.4427,158.5063 Q994.6615,158.8318 993.7174,158.8318 Q992.5944,158.8318 991.7155,158.3761 Q990.9831,158.018 990.4785,157.2205 Q989.974,156.4229 989.974,155.4952 L989.974,154.6488 Q989.974,153.6723 990.4297,152.8259 Q990.8854,151.9796 991.6911,151.5238 Q992.4967,151.0681 993.3919,151.0681 Q993.9453,151.0681 994.4173,151.1902 Q994.8893,151.3123 995.2962,151.5727 Z "/><text fill="#2196F3" font-family="Verdana" font-size="12.5" font-style="italic" lengthAdjust="spacingAndGlyphs" textLength="68.75" x="1010.4167" y="156.5694">«Testable»</text><text fill="#2196F3" font-family="Verdana" font-size="12.5" lengthAdjust="spacingAndGlyphs" textLength="29.1667" x="1030.2083" y="171.7611">Alice</text><rect fill="#FFFFFF" filter="url(#f8d14ykgx1tv8)" height="44.9666" rx="4.1667" ry="4.1667" style="stroke: #2196F3; stroke-width: 1.0416666666666667;" width="110.4167" x="976.0417" y="1377.0772"/><ellipse cx="993.75" cy="1394.7856" fill="#ADD1B2" rx="10.4167" ry="10.4167" style="stroke: #2196F3; stroke-width: 1.0416666666666667;"/><path d="M995.2962,1391.8722 Q995.4102,1391.7094 995.5485,1391.628 Q995.6868,1391.5466 995.8496,1391.5466 Q996.1263,1391.5466 996.2972,1391.7419 Q996.4681,1391.9373 996.4681,1392.3767 L996.4681,1393.4509 Q996.4681,1393.8904 996.2972,1394.0857 Q996.1263,1394.281 995.8496,1394.281 Q995.5892,1394.281 995.4427,1394.1345 Q995.2962,1394.0043 995.2148,1393.6137 Q995.1823,1393.3533 995.0521,1393.2231 Q994.7917,1392.9464 994.3441,1392.7836 Q993.8965,1392.6208 993.4408,1392.6208 Q992.8874,1392.6208 992.4154,1392.865 Q991.9434,1393.1091 991.5853,1393.6544 Q991.2272,1394.1996 991.2272,1394.9646 L991.2272,1395.7784 Q991.2272,1396.6736 991.8864,1397.2758 Q992.5456,1397.878 993.7012,1397.878 Q994.401,1397.878 994.8893,1397.699 Q995.166,1397.585 995.4753,1397.2595 Q995.6706,1397.0642 995.7845,1397.0072 Q995.8984,1396.9503 996.0286,1396.9503 Q996.2891,1396.9503 996.4762,1397.1375 Q996.6634,1397.3246 996.6634,1397.585 Q996.6634,1397.8455 996.403,1398.1384 Q996.0286,1398.5616 995.4427,1398.8057 Q994.6615,1399.1313 993.7174,1399.1313 Q992.5944,1399.1313 991.7155,1398.6755 Q990.9831,1398.3175 990.4785,1397.5199 Q989.974,1396.7224 989.974,1395.7947 L989.974,1394.9483 Q989.974,1393.9718 990.4297,1393.1254 Q990.8854,1392.2791 991.6911,1391.8233 Q992.4967,1391.3676 993.3919,1391.3676 Q993.9453,1391.3676 994.4173,1391.4897 Q994.8893,1391.6117 995.2962,1391.8722 Z "/><text fill="#2196F3" font-family="Verdana" font-size="12.5" font-style="italic" lengthAdjust="spacingAndGlyphs" textLength="68.75" x="1010.4167" y="1396.8689">«Testable»</text><text fill="#2196F3" font-family="Verdana" font-size="12.5" lengthAdjust="spacingAndGlyphs" textLength="29.1667" x="1030.2083" y="1412.0605">Alice</text><rect fill="#FFFFFF" filter="url(#f8d14ykgx1tv8)" height="255.2999" style="stroke: #CCCCCC; stroke-width: 1.0416666666666667;" width="10.4167" x="401.5625" y="356.486"/><rect fill="#FFFFFF" filter="url(#f8d14ykgx1tv8)" height="3.125" style="stroke: #FFFFFF; stroke-width: 1.0416666666666667;" width="1139.5833" x="3.125" y="224.7569"/><line style="stroke: #666666; stroke-width: 1.0416666666666667;" x1="3.125" x2="1142.7083" y1="224.7569" y2="224.7569"/><line style="stroke: #666666; stroke-width: 1.0416666666666667;" x1="3.125" x2="1142.7083" y1="227.8819" y2="227.8819"/><rect fill="#FFFFFF" filter="url(#f8d14ykgx1tv8)" height="36.025" style="stroke: #666666; stroke-width: 2.0833333333333335;" width="117.7083" x="514.0625" y="207.7861"/><text fill="#222222" font-family="Verdana" font-size="12.5" font-weight="bold" lengthAdjust="spacingAndGlyphs" textLength="86.4583" x="526.5625" y="230.7699">Initialization</text><polygon fill="#2196F3" points="234.8958,284.0027,245.3125,288.1694,234.8958,292.336,239.0625,288.1694" style="stroke: #2196F3; stroke-width: 1.0416666666666667;"/><line style="stroke: #2196F3; stroke-width: 3.125;" x1="70.3125" x2="241.1458" y1="288.1694" y2="288.1694"/><text fill="#000000" font-family="Verdana" font-size="12.5" font-weight="bold" lengthAdjust="spacingAndGlyphs" textLength="40.625" x="83.8542" y="277.2115">[001]</text><text fill="#000000" font-family="Verdana" font-size="12.5" lengthAdjust="spacingAndGlyphs" textLength="82.2917" x="141.1458" y="277.2115">To boundary</text><polygon fill="#2196F3" points="389.0625,352.3193,399.4792,356.486,389.0625,360.6527,393.2292,356.486" style="stroke: #2196F3; stroke-width: 1.0416666666666667;"/><line style="stroke: #2196F3; stroke-width: 3.125;" x1="247.3958" x2="395.3125" y1="356.486" y2="356.486"/><text fill="#000000" font-family="Verdana" font-size="12.5" font-weight="bold" lengthAdjust="spacingAndGlyphs" textLength="40.625" x="260.9375" y="345.5282">[002]</text><text fill="#000000" font-family="Verdana" font-size="12.5" lengthAdjust="spacingAndGlyphs" textLength="64.5833" x="318.2292" y="345.5282">To control</text><rect fill="#FFFFFF" filter="url(#f8d14ykgx1tv8)" height="80.9916" style="stroke: #666666; stroke-width: 2.0833333333333335;" width="230.2083" x="535.4167" y="364.8193"/><polygon fill="#EEEEEE" points="535.4167,364.8193,614.5833,364.8193,614.5833,383.5693,604.1667,393.986,535.4167,393.986,535.4167,364.8193" style="stroke: #666666; stroke-width: 2.0833333333333335;"/><text fill="#9C27B0" font-family="Verdana" font-size="12.5" font-weight="bold" lengthAdjust="spacingAndGlyphs" textLength="19.7917" x="555.2083" y="385.7198">ref</text><text fill="#222222" font-family="Verdana" font-size="12.5" lengthAdjust="spacingAndGlyphs" textLength="94.7917" x="605.2083" y="416.9698">This can be on</text><text fill="#222222" font-family="Verdana" font-size="12.5" lengthAdjust="spacingAndGlyphs" textLength="82.2917" x="605.2083" y="432.1615">several lines</text><polygon fill="#2196F3" points="551.5625,480.7943,561.9792,484.9609,551.5625,489.1276,555.7292,484.9609" style="stroke: #2196F3; stroke-width: 1.0416666666666667;"/><line style="stroke: #2196F3; stroke-width: 3.125;" x1="411.9792" x2="557.8125" y1="484.9609" y2="484.9609"/><text fill="#000000" font-family="Verdana" font-size="12.5" font-weight="bold" lengthAdjust="spacingAndGlyphs" textLength="40.625" x="425.5208" y="474.0031">[003]</text><text fill="#000000" font-family="Verdana" font-size="12.5" lengthAdjust="spacingAndGlyphs" textLength="57.2917" x="482.8125" y="474.0031">To entity</text><polygon fill="#2196F3" points="728.6458,523.0693,739.0625,527.2359,728.6458,531.4026,732.8125,527.2359" style="stroke: #2196F3; stroke-width: 1.0416666666666667;"/><line style="stroke: #2196F3; stroke-width: 3.125;" x1="564.0625" x2="734.8958" y1="527.2359" y2="527.2359"/><text fill="#000000" font-family="Verdana" font-size="12.5" font-weight="bold" lengthAdjust="spacingAndGlyphs" textLength="40.625" x="577.6042" y="516.2781">[004]</text><text fill="#000000" font-family="Verdana" font-size="12.5" lengthAdjust="spacingAndGlyphs" textLength="82.2917" x="634.8958" y="516.2781">To database</text><polygon fill="#2196F3" points="423.4375,565.3442,413.0208,569.5109,423.4375,573.6776,419.2708,569.5109" style="stroke: #2196F3; stroke-width: 1.0416666666666667;"/><line style="stroke: #2196F3; stroke-width: 3.125; stroke-dasharray: 2.0,2.0;" x1="417.1875" x2="740.1042" y1="569.5109" y2="569.5109"/><text fill="#000000" font-family="Verdana" font-size="12.5" font-weight="bold" lengthAdjust="spacingAndGlyphs" textLength="40.625" x="435.9375" y="558.5531">[005]</text><text fill="#000000" font-family="Verdana" font-size="12.5" lengthAdjust="spacingAndGlyphs" textLength="40.625" x="493.2292" y="558.5531">return</text><polygon fill="#2196F3" points="258.8542,607.6192,248.4375,611.7859,258.8542,615.9526,254.6875,611.7859" style="stroke: #2196F3; stroke-width: 1.0416666666666667;"/><line style="stroke: #2196F3; stroke-width: 3.125; stroke-dasharray: 2.0,2.0;" x1="252.6042" x2="405.7292" y1="611.7859" y2="611.7859"/><text fill="#000000" font-family="Verdana" font-size="12.5" font-weight="bold" lengthAdjust="spacingAndGlyphs" textLength="40.625" x="271.3542" y="600.828">[006]</text><text fill="#000000" font-family="Verdana" font-size="12.5" lengthAdjust="spacingAndGlyphs" textLength="40.625" x="328.6458" y="600.828">return</text><text fill="#000000" font-family="Verdana" font-size="12.5" lengthAdjust="spacingAndGlyphs" textLength="36.4583" x="497.6563" y="653.5197">Some</text><text fill="#000000" font-family="Verdana" font-size="12.5" lengthAdjust="spacingAndGlyphs" textLength="67.7083" x="538.2813" y="653.5197">long delay</text><text fill="#000000" font-family="Verdana" font-size="12.5" lengthAdjust="spacingAndGlyphs" textLength="0" x="610.1563" y="653.5197"/><polygon fill="#2196F3" points="808.8542,706.7525,819.2708,710.9192,808.8542,715.0859,813.0208,710.9192" style="stroke: #2196F3; stroke-width: 1.0416666666666667;"/><line style="stroke: #2196F3; stroke-width: 3.125;" x1="70.3125" x2="815.1042" y1="710.9192" y2="710.9192"/><text fill="#000000" font-family="Verdana" font-size="12.5" font-weight="bold" lengthAdjust="spacingAndGlyphs" textLength="40.625" x="83.8542" y="699.9613">[007]</text><text fill="#000000" font-family="Verdana" font-size="12.5" lengthAdjust="spacingAndGlyphs" textLength="87.5" x="141.1458" y="699.9613">To collections</text><polygon fill="#2196F3" points="575.5208,749.0275,565.1042,753.1942,575.5208,757.3608,571.3542,753.1942" style="stroke: #2196F3; stroke-width: 1.0416666666666667;"/><line style="stroke: #2196F3; stroke-width: 3.125; stroke-dasharray: 2.0,2.0;" x1="569.2708" x2="820.3125" y1="753.1942" y2="753.1942"/><text fill="#000000" font-family="Verdana" font-size="12.5" font-weight="bold" lengthAdjust="spacingAndGlyphs" textLength="40.625" x="588.0208" y="742.2363">[008]</text><text fill="#4CAF50" font-family="Verdana" font-size="12.5" font-weight="bold" lengthAdjust="spacingAndGlyphs" textLength="53.125" x="645.3125" y="742.2363">success</text><path d="M17.7083,768.8192 L90.625,768.8192 L90.625,787.5692 L80.2083,797.9858 L13.5417,797.9858 L13.5417,772.9858 " fill="#EEEEEE" style="stroke: #666666; stroke-width: 1.0416666666666667;"/><rect fill="none" height="508.5164" rx="4.1667" ry="4.1667" style="stroke: #666666; stroke-width: 2.0833333333333335;" width="1118.75" x="13.5417" y="768.8192"/><text fill="#9C27B0" font-family="Verdana" font-size="12.5" font-weight="bold" lengthAdjust="spacingAndGlyphs" textLength="17.7083" x="35.4167" y="788.678">alt</text><text fill="#222222" font-family="Verdana" font-size="12.5" font-weight="bold" lengthAdjust="spacingAndGlyphs" textLength="118.75" x="112.5" y="789.7196">[successful case]</text><polygon fill="#2196F3" points="1020.8333,840.4358,1031.25,844.6025,1020.8333,848.7691,1025,844.6025" style="stroke: #2196F3; stroke-width: 1.0416666666666667;"/><line style="stroke: #2196F3; stroke-width: 3.125;" x1="70.3125" x2="1027.0833" y1="844.6025" y2="844.6025"/><text fill="#000000" font-family="Verdana" font-size="12.5" font-weight="bold" lengthAdjust="spacingAndGlyphs" textLength="40.625" x="83.8542" y="833.6446">[009]</text><text fill="#000000" font-family="Verdana" font-size="12.5" lengthAdjust="spacingAndGlyphs" textLength="158.3333" x="141.1458" y="833.6446">Authentication Accepted</text><polygon fill="#2196F3" points="81.7708,882.7108,71.3542,886.8774,81.7708,891.0441,77.6042,886.8774" style="stroke: #2196F3; stroke-width: 1.0416666666666667;"/><line style="stroke: #2196F3; stroke-width: 3.125; stroke-dasharray: 2.0,2.0;" x1="75.5208" x2="1032.2917" y1="886.8774" y2="886.8774"/><text fill="#000000" font-family="Verdana" font-size="12.5" font-weight="bold" lengthAdjust="spacingAndGlyphs" textLength="40.625" x="94.2708" y="875.9196">[010]</text><text fill="#000000" font-family="Verdana" font-size="12.5" lengthAdjust="spacingAndGlyphs" textLength="51.0417" x="151.5625" y="875.9196">success</text><path d="M875,904.5858 L875,933.7524 A4.1667,4.1667 0 0 0 879.1667,937.9191 L1019.7917,937.9191 A4.1667,4.1667 0 0 0 1023.9583,933.7524 L1023.9583,910.8358 L1013.5417,900.4191 L879.1667,900.4191 A4.1667,4.1667 0 0 0 875,904.5858 " fill="#FFFFFF" filter="url(#f8d14ykgx1tv8)" style="stroke: #9C27B0; stroke-width: 1.0416666666666667;"/><path d="M1013.5417,900.4191 L1013.5417,908.7524 A2.0833,2.0833 0 0 0 1015.625,910.8358 L1023.9583,910.8358 L1013.5417,900.4191 " fill="#FFFFFF" style="stroke: #9C27B0; stroke-width: 1.0416666666666667;"/><text fill="#9C27B0" font-family="Verdana" font-size="12.5" lengthAdjust="spacingAndGlyphs" textLength="114.5833" x="887.5" y="924.4446">this is a first note</text><line style="stroke: #666666; stroke-width: 1.0416666666666667; stroke-dasharray: 2.0,2.0;" x1="13.5417" x2="1132.2917" y1="948.9441" y2="948.9441"/><text fill="#222222" font-family="Verdana" font-size="12.5" font-weight="bold" lengthAdjust="spacingAndGlyphs" textLength="148.9583" x="25" y="967.7612">[some kind of failure]</text><polygon fill="#2196F3" points="1020.8333,1007.4524,1031.25,1011.6191,1020.8333,1015.7857,1025,1011.6191" style="stroke: #2196F3; stroke-width: 1.0416666666666667;"/><line style="stroke: #2196F3; stroke-width: 3.125;" x1="70.3125" x2="1027.0833" y1="1011.6191" y2="1011.6191"/><text fill="#000000" font-family="Verdana" font-size="12.5" font-weight="bold" lengthAdjust="spacingAndGlyphs" textLength="40.625" x="83.8542" y="1000.6612">[011]</text><text fill="#000000" font-family="Verdana" font-size="12.5" lengthAdjust="spacingAndGlyphs" textLength="142.7083" x="141.1458" y="1000.6612">Authentication Failure</text><polygon fill="#2196F3" points="81.7708,1049.7274,71.3542,1053.894,81.7708,1058.0607,77.6042,1053.894" style="stroke: #2196F3; stroke-width: 1.0416666666666667;"/><line style="stroke: #2196F3; stroke-width: 3.125; stroke-dasharray: 2.0,2.0;" x1="75.5208" x2="1032.2917" y1="1053.894" y2="1053.894"/><text fill="#000000" font-family="Verdana" font-size="12.5" font-weight="bold" lengthAdjust="spacingAndGlyphs" textLength="40.625" x="94.2708" y="1042.9362">[012]</text><text fill="#E51C23" font-family="Verdana" font-size="12.5" font-weight="bold" lengthAdjust="spacingAndGlyphs" textLength="82.2917" x="151.5625" y="1042.9362">Bad request</text><path d="M28.125,1069.519 L173.9583,1069.519 L173.9583,1088.269 L163.5417,1098.6857 L23.9583,1098.6857 L23.9583,1073.6857 " fill="#EEEEEE" style="stroke: #666666; stroke-width: 1.0416666666666667;"/><rect fill="none" height="128.4749" rx="4.1667" ry="4.1667" style="stroke: #666666; stroke-width: 2.0833333333333335;" width="1097.9167" x="23.9583" y="1069.519"/><text fill="#9C27B0" font-family="Verdana" font-size="12.5" font-weight="bold" lengthAdjust="spacingAndGlyphs" textLength="90.625" x="45.8333" y="1089.3778">My own label</text><path d="M38.5417,1106.5857 L122.9167,1106.5857 L122.9167,1125.3357 L112.5,1135.7524 L34.375,1135.7524 L34.375,1110.7524 " fill="#EEEEEE" style="stroke: #666666; stroke-width: 1.0416666666666667;"/><rect fill="none" height="84.1166" rx="4.1667" ry="4.1667" style="stroke: #666666; stroke-width: 2.0833333333333335;" width="1077.0833" x="34.375" y="1106.5857"/><text fill="#9C27B0" font-family="Verdana" font-size="12.5" font-weight="bold" lengthAdjust="spacingAndGlyphs" textLength="29.1667" x="56.25" y="1126.4445">loop</text><text fill="#222222" font-family="Verdana" font-size="12.5" font-weight="bold" lengthAdjust="spacingAndGlyphs" textLength="91.6667" x="144.7917" y="1127.4862">[1000 times]</text><polygon fill="#2196F3" points="81.7708,1178.2023,71.3542,1182.369,81.7708,1186.5356,77.6042,1182.369" style="stroke: #2196F3; stroke-width: 1.0416666666666667;"/><line style="stroke: #2196F3; stroke-width: 3.125;" x1="75.5208" x2="1032.2917" y1="1182.369" y2="1182.369"/><text fill="#000000" font-family="Verdana" font-size="12.5" font-weight="bold" lengthAdjust="spacingAndGlyphs" textLength="40.625" x="94.2708" y="1171.4111">[013]</text><text fill="#000000" font-family="Verdana" font-size="12.5" lengthAdjust="spacingAndGlyphs" textLength="71.875" x="151.5625" y="1171.4111">DNS Attack</text><line style="stroke: #666666; stroke-width: 1.0416666666666667; stroke-dasharray: 2.0,2.0;" x1="13.5417" x2="1132.2917" y1="1206.3273" y2="1206.3273"/><text fill="#222222" font-family="Verdana" font-size="12.5" font-weight="bold" lengthAdjust="spacingAndGlyphs" textLength="115.625" x="25" y="1225.1444">[Just a Warning]</text><polygon fill="#2196F3" points="1020.8333,1264.8356,1031.25,1269.0023,1020.8333,1273.1689,1025,1269.0023" style="stroke: #2196F3; stroke-width: 1.0416666666666667;"/><line style="stroke: #2196F3; stroke-width: 3.125;" x1="70.3125" x2="1027.0833" y1="1269.0023" y2="1269.0023"/><text fill="#000000" font-family="Verdana" font-size="12.5" font-weight="bold" lengthAdjust="spacingAndGlyphs" textLength="40.625" x="83.8542" y="1258.0444">[014]</text><text fill="#FF9800" font-family="Verdana" font-size="12.5" font-weight="bold" lengthAdjust="spacingAndGlyphs" textLength="94.7917" x="141.1458" y="1258.0444">Please repeat</text><path d="M46.875,1294.0023 L46.875,1353.3773 A4.1667,4.1667 0 0 0 51.0417,1357.5439 L265.625,1357.5439 A4.1667,4.1667 0 0 0 269.7917,1353.3773 L269.7917,1300.2523 L259.375,1289.8356 L51.0417,1289.8356 A4.1667,4.1667 0 0 0 46.875,1294.0023 " fill="#FFFFFF" filter="url(#f8d14ykgx1tv8)" style="stroke: #9C27B0; stroke-width: 1.0416666666666667;"/><path d="M259.375,1289.8356 L259.375,1298.1689 A2.0833,2.0833 0 0 0 261.4583,1300.2523 L269.7917,1300.2523 L259.375,1289.8356 " fill="#FFFFFF" style="stroke: #9C27B0; stroke-width: 1.0416666666666667;"/><text fill="#9C27B0" font-family="Verdana" font-size="12.5" lengthAdjust="spacingAndGlyphs" textLength="136.4583" x="83.3333" y="1313.8611">this is a second note</text><text fill="#9C27B0" font-family="Verdana" font-size="12.5" lengthAdjust="spacingAndGlyphs" textLength="81.25" x="83.3333" y="1329.0527">that is really</text><text fill="#9C27B0" font-family="Verdana" font-size="12.5" lengthAdjust="spacingAndGlyphs" textLength="28.125" x="83.3333" y="1344.2444">long</text><text fill="#888888" font-family="Verdana" font-size="12.5" lengthAdjust="spacingAndGlyphs" textLength="85.4167" x="1057.2917" y="15.6921">Page Header</text><text fill="#888888" font-family="Verdana" font-size="12.5" lengthAdjust="spacingAndGlyphs" textLength="75" x="535.4167" y="1495.461">Page 1 of 1</text><!--
@startuml








skinparam defaultFontName       "Verdana"
skinparam defaultFontSize       12
skinparam dpi                   100
skinparam shadowing             true
skinparam roundcorner           8
skinparam ParticipantPadding    10
skinparam BoxPadding            2
skinparam Padding               6
skinparam TitleFontColor	    #222
skinparam TitleFontSize	    	20
skinparam TitleBorderThickness 	0
skinparam ArrowColor            #666

skinparam legend {
	BackgroundColor white
	BorderColor #cccccc
	FontColor #222
}

skinparam activity {
	TitleFontSize 20
	TitleFontColor #222
	FontColor #2196F3
	BorderColor #2196F3
	BackgroundColor white
	BarColor #4CAF50
	StartColor #9C27B0
	EndColor #9C27B0
	DiamondBackgroundColor white
  	DiamondBorderColor #cccccc
	DiamondFontColor #cccccc
}

skinparam sequence {
	BorderColor #2196F3
	TitleFontSize 20
	TitleFontColor #222
	BackgroundColor white
	StartColor #2196F3
	EndColor #2196F3
    ParticipantBackgroundColor white
    ParticipantBorderColor #2196F3
	ParticipantBorderThickness 1
	ParticipantFontColor #2196F3
	ActorBackgroundColor white
    ActorBorderColor #2196F3
	ActorFontColor #2196F3
	ArrowThickness 3
	ArrowColor #2196F3
	BoxBackgroundColor white
	BoxBorderColor #666
	BoxFontColor #222
	LifeLineBorderColor #cccccc
	LifeLineBorderThickness 0
	LifeLineBackgroundColor white
	GroupBorderColor #666
	GroupFontColor #222
	GroupHeaderFontColor #9C27B0
	DividerBackgroundColor white
    DividerBorderColor #666
    DividerBorderThickness 2
    DividerFontColor #222
	ReferenceBackgroundColor white
	ReferenceBorderColor #666
	ReferenceFontColor #222
	ReferenceHeaderFontColor #9C27B0
}

skinparam partition {
	BorderColor #2196F3
	FontColor #2196F3
	BackgroundColor white
}

skinparam collections {
	BackgroundColor white
	BorderColor #2196F3
}

skinparam control {
	BackgroundColor  white
	BorderColor #1a78c2
	FontColor #222
}

skinparam entity {
	BackgroundColor  white
	BorderColor #1a78c2
	FontColor #222
}

skinparam boundary {
	BackgroundColor  white
	BorderColor #1a78c2
	FontColor #222
}

skinparam agent {
	BackgroundColor white
	BorderColor #999999
	FontColor #333333
}

skinparam note {
	BorderThickness 1
	BackgroundColor white
	BorderColor #9C27B0
	FontColor #9C27B0
}

skinparam artifact {
	BackgroundColor white
	BorderColor #666
	FontColor #666
}

skinparam component {
	BackgroundColor  white
	BorderColor  #4CAF50
	FontColor #4CAF50
}

skinparam interface {
	BackgroundColor  white
	BorderColor  #e51c23
	FontColor #222
}

skinparam storage {
	BackgroundColor white
  	BorderColor #ff9800
	FontColor #ff9800
}

skinparam node {
	BackgroundColor white
	BorderColor #222
	FontColor #222
}

skinparam cloud {
	BackgroundColor white
	BorderColor lightskyblue
	FontColor #222
}

skinparam database {
	BackgroundColor  white
	BorderColor #1a78c2
	FontColor #222
}

skinparam actor {
	FontColor #222
}

skinparam class {
	HeaderBackgroundColor #2196F3-#1a78c2
	FontColor #2196F3
	BackgroundColor white
	BorderColor #1a78c2
	StereotypeFontColor #222
	BorderThickness 1
	AttributeFontColor #222
	AttributeFontSize 11
}

skinparam object {
	FontColor #4CAF50
	BackgroundColor white
	BorderColor #cccccc
	StereotypeFontColor #222
	BorderThickness 1
	AttributeFontColor #cccccc
	AttributeFontSize 11
}

skinparam usecase {
	BackgroundColor white
	BorderColor #cccccc
	BorderThickness 2
	FontColor #cccccc
	StereotypeFontColor #2196F3
}

skinparam rectangle {
	BackgroundColor white
	BorderColor #1a78c2
	BorderThickness 2
	FontColor #2196F3
	StereotypeFontColor #2196F3
}

skinparam package {
	BackgroundColor white
  	BorderColor #2196F3
	FontColor #2196F3
	BorderThickness 2
}

skinparam folder {
	BackgroundColor white
  	BorderColor #ff9800
	FontColor #ff9800
	BorderThickness 2
}

skinparam frame {
	BackgroundColor white
  	BorderColor #9C27B0
	FontColor #9C27B0
	BorderThickness 2
}

skinparam state {
	StartColor #9C27B0
	EndColor #9C27B0
	BackgroundColor white
	BorderColor #cccccc
	FontColor #9C27B0
	AttributeFontColor #cccccc
	AttributeFontSize 11
}

skinparam queue {
	BackgroundColor white
  	BorderColor #CC7A00
	FontColor #ff9800
}

skinparam card {
	BackgroundColor white
	BorderColor #9C27B0
	FontColor #9C27B0
}

skinparam file {
	BackgroundColor white
	BorderColor #666
	FontColor #666

}

skinparam stack {
	BackgroundColor white
	BorderColor #2196F3
	FontColor #2196F3
}

title Sequence Diagram - materia-outline theme

skinparam BackgroundColor transparent

autonumber "<b>[000]"

header Page Header
footer Page %page% of %lastpage%

actor Foo1
boundary Foo2
control Foo3
entity Foo4
database Foo5
collections Foo6
participant Bob
participant Alice << (C,#ADD1B2) Testable >>

box "Internal Service"
	participant Bob
	participant Alice
end box

== Initialization ==
Foo1 -> Foo2 : To boundary
|||
Foo2 -> Foo3 ++: To control
ref over Foo4, Foo5
  This can be on
  several lines
end ref
Foo3 -> Foo4 : To entity

Foo4 -> Foo5 : To database
Foo5 - -> Foo3 - - : return
Foo3 - -> Foo2 - -: return
... Some ~~long delay~~ ...
Foo1 -> Foo6 : To collections
Foo6 - -> Foo4:   <font color=#4CAF50><b>success


alt successful case

Foo1 -> Alice: Authentication Accepted
Alice - -> Foo1: success

note left of Alice: this is a first note

else some kind of failure

	Foo1 -> Alice: Authentication Failure
    Alice - -> Foo1:   <font color=#e51c23><b>Bad request
	group My own label
	    loop 1000 times
	        Alice -> Foo1: DNS Attack
	    end
	end
	
else Just a Warning

   Foo1 -> Alice:   <font color=#ff9800><b>Please repeat
   
end

note over Foo1, Foo2
this is a second note
that is really
long
end note

@enduml

PlantUML version 1.2019.08(Sat Jul 13 12:25:14 PDT 2019)
(MIT source distribution)
Java Runtime: Java(TM) SE Runtime Environment
JVM: Java HotSpot(TM) 64-Bit Server VM
Java Version: 1.8.0_212-b32
Operating System: Windows 10
OS Version: 10.0
Default Encoding: Cp1252
Language: en
Country: US
--></g></svg>