<?xml version="1.0" encoding="UTF-8" standalone="no"?><svg xmlns="http://www.w3.org/2000/svg" xmlns:xlink="http://www.w3.org/1999/xlink" contentScriptType="application/ecmascript" contentStyleType="text/css" height="1498.9583px" preserveAspectRatio="none" style="width:1155px;height:1498px;" version="1.1" viewBox="0 0 1155 1498" width="1155.2083px" zoomAndPan="magnify"><defs><filter height="300%" id="f6ra8mb2u259t" width="300%" x="-1" y="-1"><feGaussianBlur result="blurOut" stdDeviation="2.0833333333333335"/><feColorMatrix in="blurOut" result="blurOut2" type="matrix" values="0 0 0 0 0 0 0 0 0 0 0 0 0 0 0 0 0 0 .4 0"/><feOffset dx="4.166666666666667" dy="4.166666666666667" in="blurOut2" result="blurOut3"/><feBlend in="SourceGraphic" in2="blurOut3" mode="normal"/></filter></defs><g><rect fill="#FFFFFF" height="38.1083" rx="4.1667" ry="4.1667" style="stroke: #CCCCCC; stroke-width: 1.0416666666666667;" width="326.0417" x="409.375" y="30.8167"/><text fill="#2196F3" font-family="Verdana" font-size="12.5" font-weight="bold" lengthAdjust="spacingAndGlyphs" textLength="296.875" x="423.9583" y="54.8421">Sequence Diagram - materia-outline theme</text><rect fill="#FFFFFF" height="1388.2161" rx="4.1667" ry="4.1667" style="stroke: #666666; stroke-width: 1.0416666666666667;" width="231.25" x="873.9583" y="80.3833"/><text fill="#222222" font-family="Verdana" font-size="12.5" font-weight="bold" lengthAdjust="spacingAndGlyphs" textLength="111.4583" x="933.8542" y="99.2004">Internal Service</text><rect fill="#FFFFFF" filter="url(#f6ra8mb2u259t)" height="255.2999" style="stroke: #CCCCCC; stroke-width: 1.0416666666666667;" width="10.4167" x="401.5625" y="346.3582"/><rect fill="#FFFFFF" filter="url(#f6ra8mb2u259t)" height="508.5164" rx="4.1667" ry="4.1667" style="stroke: #666666; stroke-width: 2.0833333333333335;" width="1118.75" x="13.5417" y="758.6914"/><rect fill="#FFFFFF" height="257.3832" style="stroke: none; stroke-width: 1.0416666666666667;" width="1118.75" x="13.5417" y="937.7747"/><rect fill="#FFFFFF" filter="url(#f6ra8mb2u259t)" height="128.4749" rx="4.1667" ry="4.1667" style="stroke: #666666; stroke-width: 2.0833333333333335;" width="1097.9167" x="23.9583" y="1059.3913"/><rect fill="#FFFFFF" filter="url(#f6ra8mb2u259t)" height="84.1166" rx="4.1667" ry="4.1667" style="stroke: #666666; stroke-width: 2.0833333333333335;" width="1077.0833" x="34.375" y="1096.4579"/><rect fill="#FFFFFF" height="72.05" style="stroke: none; stroke-width: 1.0416666666666667;" width="1118.75" x="13.5417" y="1195.1579"/><line style="stroke: #CCCCCC; stroke-width: 1.0416666666666667;" x1="69.7917" x2="69.7917" y1="176.825" y2="609.9915"/><line style="stroke: #CCCCCC; stroke-width: 1.0416666666666667; stroke-dasharray: 1.0,4.0;" x1="69.7917" x2="69.7917" y1="609.9915" y2="666.8498"/><line style="stroke: #CCCCCC; stroke-width: 1.0416666666666667;" x1="69.7917" x2="69.7917" y1="666.8498" y2="1367.9911"/><line style="stroke: #CCCCCC; stroke-width: 1.0416666666666667;" x1="246.875" x2="246.875" y1="176.825" y2="609.9915"/><line style="stroke: #CCCCCC; stroke-width: 1.0416666666666667; stroke-dasharray: 1.0,4.0;" x1="246.875" x2="246.875" y1="609.9915" y2="666.8498"/><line style="stroke: #CCCCCC; stroke-width: 1.0416666666666667;" x1="246.875" x2="246.875" y1="666.8498" y2="1367.9911"/><line style="stroke: #CCCCCC; stroke-width: 1.0416666666666667;" x1="406.25" x2="406.25" y1="176.825" y2="609.9915"/><line style="stroke: #CCCCCC; stroke-width: 1.0416666666666667; stroke-dasharray: 1.0,4.0;" x1="406.25" x2="406.25" y1="609.9915" y2="666.8498"/><line style="stroke: #CCCCCC; stroke-width: 1.0416666666666667;" x1="406.25" x2="406.25" y1="666.8498" y2="1367.9911"/><line style="stroke: #CCCCCC; stroke-width: 1.0416666666666667;" x1="563.5417" x2="563.5417" y1="176.825" y2="609.9915"/><line style="stroke: #CCCCCC; stroke-width: 1.0416666666666667; stroke-dasharray: 1.0,4.0;" x1="563.5417" x2="563.5417" y1="609.9915" y2="666.8498"/><line style="stroke: #CCCCCC; stroke-width: 1.0416666666666667;" x1="563.5417" x2="563.5417" y1="666.8498" y2="1367.9911"/><line style="stroke: #CCCCCC; stroke-width: 1.0416666666666667;" x1="740.625" x2="740.625" y1="176.825" y2="609.9915"/><line style="stroke: #CCCCCC; stroke-width: 1.0416666666666667; stroke-dasharray: 1.0,4.0;" x1="740.625" x2="740.625" y1="609.9915" y2="666.8498"/><line style="stroke: #CCCCCC; stroke-width: 1.0416666666666667;" x1="740.625" x2="740.625" y1="666.8498" y2="1367.9911"/><line style="stroke: #CCCCCC; stroke-width: 1.0416666666666667;" x1="820.8333" x2="820.8333" y1="176.825" y2="609.9915"/><line style="stroke: #CCCCCC; stroke-width: 1.0416666666666667; stroke-dasharray: 1.0,4.0;" x1="820.8333" x2="820.8333" y1="609.9915" y2="666.8498"/><line style="stroke: #CCCCCC; stroke-width: 1.0416666666666667;" x1="820.8333" x2="820.8333" y1="666.8498" y2="1367.9911"/><line style="stroke: #CCCCCC; stroke-width: 1.0416666666666667;" x1="916.6667" x2="916.6667" y1="176.825" y2="609.9915"/><line style="stroke: #CCCCCC; stroke-width: 1.0416666666666667; stroke-dasharray: 1.0,4.0;" x1="916.6667" x2="916.6667" y1="609.9915" y2="666.8498"/><line style="stroke: #CCCCCC; stroke-width: 1.0416666666666667;" x1="916.6667" x2="916.6667" y1="666.8498" y2="1367.9911"/><line style="stroke: #CCCCCC; stroke-width: 1.0416666666666667;" x1="1033.3333" x2="1033.3333" y1="176.825" y2="609.9915"/><line style="stroke: #CCCCCC; stroke-width: 1.0416666666666667; stroke-dasharray: 1.0,4.0;" x1="1033.3333" x2="1033.3333" y1="609.9915" y2="666.8498"/><line style="stroke: #CCCCCC; stroke-width: 1.0416666666666667;" x1="1033.3333" x2="1033.3333" y1="666.8498" y2="1367.9911"/><text fill="#222222" font-family="Verdana" font-size="12.5" lengthAdjust="spacingAndGlyphs" textLength="32.2917" x="51.0417" y="167.9504">Foo1</text><ellipse cx="70.3125" cy="89.7583" fill="#FFFFFF" filter="url(#f6ra8mb2u259t)" rx="8.3333" ry="8.3333" style="stroke: #2196F3; stroke-width: 2.0833333333333335;"/><path d="M70.3125,98.0916 L70.3125,126.2166 M56.7708,106.425 L83.8542,106.425 M70.3125,126.2166 L56.7708,141.8416 M70.3125,126.2166 L83.8542,141.8416 " fill="none" filter="url(#f6ra8mb2u259t)" style="stroke: #2196F3; stroke-width: 2.0833333333333335;"/><text fill="#222222" font-family="Verdana" font-size="12.5" lengthAdjust="spacingAndGlyphs" textLength="32.2917" x="51.0417" y="1385.7666">Foo1</text><ellipse cx="70.3125" cy="1405.0578" fill="#FFFFFF" filter="url(#f6ra8mb2u259t)" rx="8.3333" ry="8.3333" style="stroke: #2196F3; stroke-width: 2.0833333333333335;"/><path d="M70.3125,1413.3911 L70.3125,1441.5161 M56.7708,1421.7244 L83.8542,1421.7244 M70.3125,1441.5161 L56.7708,1457.1411 M70.3125,1441.5161 L83.8542,1457.1411 " fill="none" filter="url(#f6ra8mb2u259t)" style="stroke: #2196F3; stroke-width: 2.0833333333333335;"/><text fill="#222222" font-family="Verdana" font-size="12.5" lengthAdjust="spacingAndGlyphs" textLength="32.2917" x="228.125" y="167.9504">Foo2</text><path d="M226.0417,119.9666 L226.0417,144.9666 M226.0417,132.4666 L243.75,132.4666 " fill="none" filter="url(#f6ra8mb2u259t)" style="stroke: #1A78C2; stroke-width: 2.0833333333333335;"/><ellipse cx="256.25" cy="132.4666" fill="#FFFFFF" filter="url(#f6ra8mb2u259t)" rx="12.5" ry="12.5" style="stroke: #1A78C2; stroke-width: 2.0833333333333335;"/><text fill="#222222" font-family="Verdana" font-size="12.5" lengthAdjust="spacingAndGlyphs" textLength="32.2917" x="228.125" y="1385.7666">Foo2</text><path d="M226.0417,1398.8078 L226.0417,1423.8078 M226.0417,1411.3078 L243.75,1411.3078 " fill="none" filter="url(#f6ra8mb2u259t)" style="stroke: #1A78C2; stroke-width: 2.0833333333333335;"/><ellipse cx="256.25" cy="1411.3078" fill="#FFFFFF" filter="url(#f6ra8mb2u259t)" rx="12.5" ry="12.5" style="stroke: #1A78C2; stroke-width: 2.0833333333333335;"/><text fill="#222222" font-family="Verdana" font-size="12.5" lengthAdjust="spacingAndGlyphs" textLength="32.2917" x="387.5" y="167.9504">Foo3</text><ellipse cx="406.7708" cy="132.4666" fill="#FFFFFF" filter="url(#f6ra8mb2u259t)" rx="12.5" ry="12.5" style="stroke: #1A78C2; stroke-width: 2.0833333333333335;"/><polygon fill="#1A78C2" points="402.6042,119.9666,408.8542,114.7583,406.7708,119.9666,408.8542,125.175,402.6042,119.9666" style="stroke: #1A78C2; stroke-width: 1.0416666666666667;"/><text fill="#222222" font-family="Verdana" font-size="12.5" lengthAdjust="spacingAndGlyphs" textLength="32.2917" x="387.5" y="1385.7666">Foo3</text><ellipse cx="406.7708" cy="1411.3078" fill="#FFFFFF" filter="url(#f6ra8mb2u259t)" rx="12.5" ry="12.5" style="stroke: #1A78C2; stroke-width: 2.0833333333333335;"/><polygon fill="#1A78C2" points="402.6042,1398.8078,408.8542,1393.5994,406.7708,1398.8078,408.8542,1404.0161,402.6042,1398.8078" style="stroke: #1A78C2; stroke-width: 1.0416666666666667;"/><text fill="#222222" font-family="Verdana" font-size="12.5" lengthAdjust="spacingAndGlyphs" textLength="32.2917" x="544.7917" y="167.9504">Foo4</text><ellipse cx="564.0625" cy="132.4666" fill="#FFFFFF" filter="url(#f6ra8mb2u259t)" rx="12.5" ry="12.5" style="stroke: #1A78C2; stroke-width: 2.0833333333333335;"/><line style="stroke: #1A78C2; stroke-width: 2.0833333333333335;" x1="551.5625" x2="576.5625" y1="147.05" y2="147.05"/><text fill="#222222" font-family="Verdana" font-size="12.5" lengthAdjust="spacingAndGlyphs" textLength="32.2917" x="544.7917" y="1385.7666">Foo4</text><ellipse cx="564.0625" cy="1411.3078" fill="#FFFFFF" filter="url(#f6ra8mb2u259t)" rx="12.5" ry="12.5" style="stroke: #1A78C2; stroke-width: 2.0833333333333335;"/><line style="stroke: #1A78C2; stroke-width: 2.0833333333333335;" x1="551.5625" x2="576.5625" y1="1425.8911" y2="1425.8911"/><text fill="#222222" font-family="Verdana" font-size="12.5" lengthAdjust="spacingAndGlyphs" textLength="32.2917" x="721.875" y="167.9504">Foo5</text><path d="M722.3958,111.6333 C722.3958,101.2166 741.1458,101.2166 741.1458,101.2166 C741.1458,101.2166 759.8958,101.2166 759.8958,111.6333 L759.8958,138.7166 C759.8958,149.1333 741.1458,149.1333 741.1458,149.1333 C741.1458,149.1333 722.3958,149.1333 722.3958,138.7166 L722.3958,111.6333 " fill="#FFFFFF" filter="url(#f6ra8mb2u259t)" style="stroke: #1A78C2; stroke-width: 1.5625;"/><path d="M722.3958,111.6333 C722.3958,122.05 741.1458,122.05 741.1458,122.05 C741.1458,122.05 759.8958,122.05 759.8958,111.6333 " fill="none" style="stroke: #1A78C2; stroke-width: 1.5625;"/><text fill="#222222" font-family="Verdana" font-size="12.5" lengthAdjust="spacingAndGlyphs" textLength="32.2917" x="721.875" y="1385.7666">Foo5</text><path d="M722.3958,1405.0578 C722.3958,1394.6411 741.1458,1394.6411 741.1458,1394.6411 C741.1458,1394.6411 759.8958,1394.6411 759.8958,1405.0578 L759.8958,1432.1411 C759.8958,1442.5578 741.1458,1442.5578 741.1458,1442.5578 C741.1458,1442.5578 722.3958,1442.5578 722.3958,1432.1411 L722.3958,1405.0578 " fill="#FFFFFF" filter="url(#f6ra8mb2u259t)" style="stroke: #1A78C2; stroke-width: 1.5625;"/><path d="M722.3958,1405.0578 C722.3958,1415.4744 741.1458,1415.4744 741.1458,1415.4744 C741.1458,1415.4744 759.8958,1415.4744 759.8958,1405.0578 " fill="none" style="stroke: #1A78C2; stroke-width: 1.5625;"/><rect fill="#FFFFFF" filter="url(#f6ra8mb2u259t)" height="42.275" rx="4.1667" ry="4.1667" style="stroke: #2196F3; stroke-width: 1.5625;" width="59.375" x="791.6667" y="125.175"/><rect fill="#FFFFFF" filter="url(#f6ra8mb2u259t)" height="42.275" rx="4.1667" ry="4.1667" style="stroke: #2196F3; stroke-width: 1.5625;" width="59.375" x="787.5" y="129.3416"/><text fill="#2196F3" font-family="Verdana" font-size="12.5" lengthAdjust="spacingAndGlyphs" textLength="32.2917" x="801.0417" y="155.4504">Foo6</text><rect fill="#FFFFFF" filter="url(#f6ra8mb2u259t)" height="42.275" rx="4.1667" ry="4.1667" style="stroke: #2196F3; stroke-width: 1.5625;" width="59.375" x="791.6667" y="1366.9495"/><rect fill="#FFFFFF" filter="url(#f6ra8mb2u259t)" height="42.275" rx="4.1667" ry="4.1667" style="stroke: #2196F3; stroke-width: 1.5625;" width="59.375" x="787.5" y="1371.1161"/><text fill="#2196F3" font-family="Verdana" font-size="12.5" lengthAdjust="spacingAndGlyphs" textLength="32.2917" x="801.0417" y="1397.2249">Foo6</text><rect fill="#FFFFFF" filter="url(#f6ra8mb2u259t)" height="42.275" rx="4.1667" ry="4.1667" style="stroke: #2196F3; stroke-width: 1.0416666666666667;" width="52.0833" x="888.5417" y="129.3416"/><text fill="#2196F3" font-family="Verdana" font-size="12.5" lengthAdjust="spacingAndGlyphs" textLength="25" x="902.0833" y="155.4504">Bob</text><rect fill="#FFFFFF" filter="url(#f6ra8mb2u259t)" height="42.275" rx="4.1667" ry="4.1667" style="stroke: #2196F3; stroke-width: 1.0416666666666667;" width="52.0833" x="888.5417" y="1366.9495"/><text fill="#2196F3" font-family="Verdana" font-size="12.5" lengthAdjust="spacingAndGlyphs" textLength="25" x="902.0833" y="1393.0583">Bob</text><rect fill="#FFFFFF" filter="url(#f6ra8mb2u259t)" height="44.9666" rx="4.1667" ry="4.1667" style="stroke: #2196F3; stroke-width: 1.0416666666666667;" width="110.4167" x="976.0417" y="126.65"/><ellipse cx="993.75" cy="144.3583" fill="#ADD1B2" rx="10.4167" ry="10.4167" style="stroke: #2196F3; stroke-width: 1.0416666666666667;"/><path d="M995.6543,148.7854 Q995.2311,148.997 994.7591,149.1109 Q994.2871,149.2249 993.7826,149.2249 Q991.9271,149.2249 990.9505,148.0204 Q989.9902,146.7997 989.9902,144.5048 Q989.9902,142.1936 990.9505,140.9892 Q991.9271,139.7685 993.7826,139.7685 Q994.2871,139.7685 994.7591,139.8824 Q995.2474,139.9801 995.6543,140.2079 L995.6543,142.2099 Q995.1986,141.7867 994.7591,141.5914 Q994.3197,141.3798 993.8639,141.3798 Q992.8711,141.3798 992.3665,142.1773 Q991.862,142.9586 991.862,144.5048 Q991.862,146.0347 992.3665,146.816 Q992.8711,147.5972 993.8639,147.5972 Q994.3197,147.5972 994.7591,147.4019 Q995.1986,147.2066 995.6543,146.7834 L995.6543,148.7854 Z "/><text fill="#2196F3" font-family="Verdana" font-size="12.5" font-style="italic" lengthAdjust="spacingAndGlyphs" textLength="68.75" x="1010.4167" y="146.4417">«Testable»</text><text fill="#2196F3" font-family="Verdana" font-size="12.5" lengthAdjust="spacingAndGlyphs" textLength="29.1667" x="1030.2083" y="161.6333">Alice</text><rect fill="#FFFFFF" filter="url(#f6ra8mb2u259t)" height="44.9666" rx="4.1667" ry="4.1667" style="stroke: #2196F3; stroke-width: 1.0416666666666667;" width="110.4167" x="976.0417" y="1366.9495"/><ellipse cx="993.75" cy="1384.6578" fill="#ADD1B2" rx="10.4167" ry="10.4167" style="stroke: #2196F3; stroke-width: 1.0416666666666667;"/><path d="M995.6543,1389.0849 Q995.2311,1389.2965 994.7591,1389.4104 Q994.2871,1389.5243 993.7826,1389.5243 Q991.9271,1389.5243 990.9505,1388.3199 Q989.9902,1387.0992 989.9902,1384.8043 Q989.9902,1382.4931 990.9505,1381.2887 Q991.9271,1380.068 993.7826,1380.068 Q994.2871,1380.068 994.7591,1380.1819 Q995.2474,1380.2795 995.6543,1380.5074 L995.6543,1382.5094 Q995.1986,1382.0862 994.7591,1381.8909 Q994.3197,1381.6793 993.8639,1381.6793 Q992.8711,1381.6793 992.3665,1382.4768 Q991.862,1383.2581 991.862,1384.8043 Q991.862,1386.3342 992.3665,1387.1155 Q992.8711,1387.8967 993.8639,1387.8967 Q994.3197,1387.8967 994.7591,1387.7014 Q995.1986,1387.5061 995.6543,1387.0829 L995.6543,1389.0849 Z "/><text fill="#2196F3" font-family="Verdana" font-size="12.5" font-style="italic" lengthAdjust="spacingAndGlyphs" textLength="68.75" x="1010.4167" y="1386.7411">«Testable»</text><text fill="#2196F3" font-family="Verdana" font-size="12.5" lengthAdjust="spacingAndGlyphs" textLength="29.1667" x="1030.2083" y="1401.9328">Alice</text><rect fill="#FFFFFF" filter="url(#f6ra8mb2u259t)" height="255.2999" style="stroke: #CCCCCC; stroke-width: 1.0416666666666667;" width="10.4167" x="401.5625" y="346.3582"/><rect fill="#FFFFFF" filter="url(#f6ra8mb2u259t)" height="3.125" style="stroke: #FFFFFF; stroke-width: 1.0416666666666667;" width="1139.5833" x="3.125" y="214.6291"/><line style="stroke: #666666; stroke-width: 1.0416666666666667;" x1="3.125" x2="1142.7083" y1="214.6291" y2="214.6291"/><line style="stroke: #666666; stroke-width: 1.0416666666666667;" x1="3.125" x2="1142.7083" y1="217.7541" y2="217.7541"/><rect fill="#FFFFFF" filter="url(#f6ra8mb2u259t)" height="36.025" style="stroke: #666666; stroke-width: 2.0833333333333335;" width="117.7083" x="514.0625" y="197.6583"/><text fill="#222222" font-family="Verdana" font-size="12.5" font-weight="bold" lengthAdjust="spacingAndGlyphs" textLength="86.4583" x="526.5625" y="220.6421">Initialization</text><polygon fill="#2196F3" points="234.8958,273.8749,245.3125,278.0416,234.8958,282.2083,239.0625,278.0416" style="stroke: #2196F3; stroke-width: 1.0416666666666667;"/><line style="stroke: #2196F3; stroke-width: 3.125;" x1="70.3125" x2="241.1458" y1="278.0416" y2="278.0416"/><text fill="#222222" font-family="Verdana" font-size="12.5" font-weight="bold" lengthAdjust="spacingAndGlyphs" textLength="40.625" x="83.8542" y="267.0837">[001]</text><text fill="#222222" font-family="Verdana" font-size="12.5" lengthAdjust="spacingAndGlyphs" textLength="82.2917" x="141.1458" y="267.0837">To boundary</text><polygon fill="#2196F3" points="389.0625,342.1916,399.4792,346.3582,389.0625,350.5249,393.2292,346.3582" style="stroke: #2196F3; stroke-width: 1.0416666666666667;"/><line style="stroke: #2196F3; stroke-width: 3.125;" x1="247.3958" x2="395.3125" y1="346.3582" y2="346.3582"/><text fill="#222222" font-family="Verdana" font-size="12.5" font-weight="bold" lengthAdjust="spacingAndGlyphs" textLength="40.625" x="260.9375" y="335.4004">[002]</text><text fill="#222222" font-family="Verdana" font-size="12.5" lengthAdjust="spacingAndGlyphs" textLength="64.5833" x="318.2292" y="335.4004">To control</text><rect fill="#FFFFFF" filter="url(#f6ra8mb2u259t)" height="80.9916" style="stroke: #666666; stroke-width: 2.0833333333333335;" width="230.2083" x="535.4167" y="354.6916"/><polygon fill="#EEEEEE" points="535.4167,354.6916,614.5833,354.6916,614.5833,373.4416,604.1667,383.8582,535.4167,383.8582,535.4167,354.6916" style="stroke: #666666; stroke-width: 2.0833333333333335;"/><text fill="#9C27B0" font-family="Verdana" font-size="12.5" font-weight="bold" lengthAdjust="spacingAndGlyphs" textLength="19.7917" x="555.2083" y="375.592">ref</text><text fill="#222222" font-family="Verdana" font-size="12.5" lengthAdjust="spacingAndGlyphs" textLength="94.7917" x="605.2083" y="406.842">This can be on</text><text fill="#222222" font-family="Verdana" font-size="12.5" lengthAdjust="spacingAndGlyphs" textLength="82.2917" x="605.2083" y="422.0337">several lines</text><polygon fill="#2196F3" points="551.5625,470.6665,561.9792,474.8332,551.5625,478.9998,555.7292,474.8332" style="stroke: #2196F3; stroke-width: 1.0416666666666667;"/><line style="stroke: #2196F3; stroke-width: 3.125;" x1="411.9792" x2="557.8125" y1="474.8332" y2="474.8332"/><text fill="#222222" font-family="Verdana" font-size="12.5" font-weight="bold" lengthAdjust="spacingAndGlyphs" textLength="40.625" x="425.5208" y="463.8753">[003]</text><text fill="#222222" font-family="Verdana" font-size="12.5" lengthAdjust="spacingAndGlyphs" textLength="57.2917" x="482.8125" y="463.8753">To entity</text><polygon fill="#2196F3" points="728.6458,512.9415,739.0625,517.1082,728.6458,521.2748,732.8125,517.1082" style="stroke: #2196F3; stroke-width: 1.0416666666666667;"/><line style="stroke: #2196F3; stroke-width: 3.125;" x1="564.0625" x2="734.8958" y1="517.1082" y2="517.1082"/><text fill="#222222" font-family="Verdana" font-size="12.5" font-weight="bold" lengthAdjust="spacingAndGlyphs" textLength="40.625" x="577.6042" y="506.1503">[004]</text><text fill="#222222" font-family="Verdana" font-size="12.5" lengthAdjust="spacingAndGlyphs" textLength="82.2917" x="634.8958" y="506.1503">To database</text><polygon fill="#2196F3" points="423.4375,555.2165,413.0208,559.3831,423.4375,563.5498,419.2708,559.3831" style="stroke: #2196F3; stroke-width: 1.0416666666666667;"/><line style="stroke: #2196F3; stroke-width: 3.125; stroke-dasharray: 2.0,2.0;" x1="417.1875" x2="740.1042" y1="559.3831" y2="559.3831"/><text fill="#222222" font-family="Verdana" font-size="12.5" font-weight="bold" lengthAdjust="spacingAndGlyphs" textLength="40.625" x="435.9375" y="548.4253">[005]</text><text fill="#222222" font-family="Verdana" font-size="12.5" lengthAdjust="spacingAndGlyphs" textLength="40.625" x="493.2292" y="548.4253">return</text><polygon fill="#2196F3" points="258.8542,597.4915,248.4375,601.6581,258.8542,605.8248,254.6875,601.6581" style="stroke: #2196F3; stroke-width: 1.0416666666666667;"/><line style="stroke: #2196F3; stroke-width: 3.125; stroke-dasharray: 2.0,2.0;" x1="252.6042" x2="405.7292" y1="601.6581" y2="601.6581"/><text fill="#222222" font-family="Verdana" font-size="12.5" font-weight="bold" lengthAdjust="spacingAndGlyphs" textLength="40.625" x="271.3542" y="590.7003">[006]</text><text fill="#222222" font-family="Verdana" font-size="12.5" lengthAdjust="spacingAndGlyphs" textLength="40.625" x="328.6458" y="590.7003">return</text><text fill="#000000" font-family="Verdana" font-size="12.5" lengthAdjust="spacingAndGlyphs" textLength="36.4583" x="497.6563" y="643.3919">Some</text><text fill="#000000" font-family="Verdana" font-size="12.5" lengthAdjust="spacingAndGlyphs" textLength="67.7083" x="538.2813" y="643.3919">long delay</text><text fill="#000000" font-family="Verdana" font-size="12.5" lengthAdjust="spacingAndGlyphs" textLength="0" x="610.1563" y="643.3919"/><polygon fill="#2196F3" points="808.8542,696.6248,819.2708,700.7914,808.8542,704.9581,813.0208,700.7914" style="stroke: #2196F3; stroke-width: 1.0416666666666667;"/><line style="stroke: #2196F3; stroke-width: 3.125;" x1="70.3125" x2="815.1042" y1="700.7914" y2="700.7914"/><text fill="#222222" font-family="Verdana" font-size="12.5" font-weight="bold" lengthAdjust="spacingAndGlyphs" textLength="40.625" x="83.8542" y="689.8336">[007]</text><text fill="#222222" font-family="Verdana" font-size="12.5" lengthAdjust="spacingAndGlyphs" textLength="87.5" x="141.1458" y="689.8336">To collections</text><polygon fill="#2196F3" points="575.5208,738.8997,565.1042,743.0664,575.5208,747.2331,571.3542,743.0664" style="stroke: #2196F3; stroke-width: 1.0416666666666667;"/><line style="stroke: #2196F3; stroke-width: 3.125; stroke-dasharray: 2.0,2.0;" x1="569.2708" x2="820.3125" y1="743.0664" y2="743.0664"/><text fill="#222222" font-family="Verdana" font-size="12.5" font-weight="bold" lengthAdjust="spacingAndGlyphs" textLength="40.625" x="588.0208" y="732.1086">[008]</text><text fill="#4CAF50" font-family="Verdana" font-size="12.5" font-weight="bold" lengthAdjust="spacingAndGlyphs" textLength="53.125" x="645.3125" y="732.1086">success</text><path d="M17.7083,758.6914 L90.625,758.6914 L90.625,777.4414 L80.2083,787.8581 L13.5417,787.8581 L13.5417,762.8581 " fill="#EEEEEE" style="stroke: #666666; stroke-width: 1.0416666666666667;"/><rect fill="none" height="508.5164" rx="4.1667" ry="4.1667" style="stroke: #666666; stroke-width: 2.0833333333333335;" width="1118.75" x="13.5417" y="758.6914"/><text fill="#9C27B0" font-family="Verdana" font-size="12.5" font-weight="bold" lengthAdjust="spacingAndGlyphs" textLength="17.7083" x="35.4167" y="778.5502">alt</text><text fill="#222222" font-family="Verdana" font-size="12.5" font-weight="bold" lengthAdjust="spacingAndGlyphs" textLength="118.75" x="112.5" y="779.5919">[successful case]</text><polygon fill="#2196F3" points="1020.8333,830.308,1031.25,834.4747,1020.8333,838.6414,1025,834.4747" style="stroke: #2196F3; stroke-width: 1.0416666666666667;"/><line style="stroke: #2196F3; stroke-width: 3.125;" x1="70.3125" x2="1027.0833" y1="834.4747" y2="834.4747"/><text fill="#222222" font-family="Verdana" font-size="12.5" font-weight="bold" lengthAdjust="spacingAndGlyphs" textLength="40.625" x="83.8542" y="823.5168">[009]</text><text fill="#222222" font-family="Verdana" font-size="12.5" lengthAdjust="spacingAndGlyphs" textLength="158.3333" x="141.1458" y="823.5168">Authentication Accepted</text><polygon fill="#2196F3" points="81.7708,872.583,71.3542,876.7497,81.7708,880.9163,77.6042,876.7497" style="stroke: #2196F3; stroke-width: 1.0416666666666667;"/><line style="stroke: #2196F3; stroke-width: 3.125; stroke-dasharray: 2.0,2.0;" x1="75.5208" x2="1032.2917" y1="876.7497" y2="876.7497"/><text fill="#222222" font-family="Verdana" font-size="12.5" font-weight="bold" lengthAdjust="spacingAndGlyphs" textLength="40.625" x="94.2708" y="865.7918">[010]</text><text fill="#222222" font-family="Verdana" font-size="12.5" lengthAdjust="spacingAndGlyphs" textLength="51.0417" x="151.5625" y="865.7918">success</text><path d="M875,894.458 L875,923.6247 A4.1667,4.1667 0 0 0 879.1667,927.7913 L1019.7917,927.7913 A4.1667,4.1667 0 0 0 1023.9583,923.6247 L1023.9583,900.708 L1013.5417,890.2913 L879.1667,890.2913 A4.1667,4.1667 0 0 0 875,894.458 " fill="#FFFFFF" filter="url(#f6ra8mb2u259t)" style="stroke: #9C27B0; stroke-width: 1.0416666666666667;"/><path d="M1013.5417,890.2913 L1013.5417,898.6247 A2.0833,2.0833 0 0 0 1015.625,900.708 L1023.9583,900.708 L1013.5417,890.2913 " fill="#FFFFFF" style="stroke: #9C27B0; stroke-width: 1.0416666666666667;"/><text fill="#9C27B0" font-family="Verdana" font-size="12.5" lengthAdjust="spacingAndGlyphs" textLength="114.5833" x="887.5" y="914.3168">this is a first note</text><line style="stroke: #666666; stroke-width: 1.0416666666666667; stroke-dasharray: 2.0,2.0;" x1="13.5417" x2="1132.2917" y1="938.8163" y2="938.8163"/><text fill="#222222" font-family="Verdana" font-size="12.5" font-weight="bold" lengthAdjust="spacingAndGlyphs" textLength="148.9583" x="25" y="957.6335">[some kind of failure]</text><polygon fill="#2196F3" points="1020.8333,997.3246,1031.25,1001.4913,1020.8333,1005.658,1025,1001.4913" style="stroke: #2196F3; stroke-width: 1.0416666666666667;"/><line style="stroke: #2196F3; stroke-width: 3.125;" x1="70.3125" x2="1027.0833" y1="1001.4913" y2="1001.4913"/><text fill="#222222" font-family="Verdana" font-size="12.5" font-weight="bold" lengthAdjust="spacingAndGlyphs" textLength="40.625" x="83.8542" y="990.5334">[011]</text><text fill="#222222" font-family="Verdana" font-size="12.5" lengthAdjust="spacingAndGlyphs" textLength="142.7083" x="141.1458" y="990.5334">Authentication Failure</text><polygon fill="#2196F3" points="81.7708,1039.5996,71.3542,1043.7663,81.7708,1047.9329,77.6042,1043.7663" style="stroke: #2196F3; stroke-width: 1.0416666666666667;"/><line style="stroke: #2196F3; stroke-width: 3.125; stroke-dasharray: 2.0,2.0;" x1="75.5208" x2="1032.2917" y1="1043.7663" y2="1043.7663"/><text fill="#222222" font-family="Verdana" font-size="12.5" font-weight="bold" lengthAdjust="spacingAndGlyphs" textLength="40.625" x="94.2708" y="1032.8084">[012]</text><text fill="#E51C23" font-family="Verdana" font-size="12.5" font-weight="bold" lengthAdjust="spacingAndGlyphs" textLength="82.2917" x="151.5625" y="1032.8084">Bad request</text><path d="M28.125,1059.3913 L173.9583,1059.3913 L173.9583,1078.1413 L163.5417,1088.5579 L23.9583,1088.5579 L23.9583,1063.5579 " fill="#EEEEEE" style="stroke: #666666; stroke-width: 1.0416666666666667;"/><rect fill="none" height="128.4749" rx="4.1667" ry="4.1667" style="stroke: #666666; stroke-width: 2.0833333333333335;" width="1097.9167" x="23.9583" y="1059.3913"/><text fill="#9C27B0" font-family="Verdana" font-size="12.5" font-weight="bold" lengthAdjust="spacingAndGlyphs" textLength="90.625" x="45.8333" y="1079.2501">My own label</text><path d="M38.5417,1096.4579 L122.9167,1096.4579 L122.9167,1115.2079 L112.5,1125.6246 L34.375,1125.6246 L34.375,1100.6246 " fill="#EEEEEE" style="stroke: #666666; stroke-width: 1.0416666666666667;"/><rect fill="none" height="84.1166" rx="4.1667" ry="4.1667" style="stroke: #666666; stroke-width: 2.0833333333333335;" width="1077.0833" x="34.375" y="1096.4579"/><text fill="#9C27B0" font-family="Verdana" font-size="12.5" font-weight="bold" lengthAdjust="spacingAndGlyphs" textLength="29.1667" x="56.25" y="1116.3167">loop</text><text fill="#222222" font-family="Verdana" font-size="12.5" font-weight="bold" lengthAdjust="spacingAndGlyphs" textLength="91.6667" x="144.7917" y="1117.3584">[1000 times]</text><polygon fill="#2196F3" points="81.7708,1168.0745,71.3542,1172.2412,81.7708,1176.4079,77.6042,1172.2412" style="stroke: #2196F3; stroke-width: 1.0416666666666667;"/><line style="stroke: #2196F3; stroke-width: 3.125;" x1="75.5208" x2="1032.2917" y1="1172.2412" y2="1172.2412"/><text fill="#222222" font-family="Verdana" font-size="12.5" font-weight="bold" lengthAdjust="spacingAndGlyphs" textLength="40.625" x="94.2708" y="1161.2834">[013]</text><text fill="#222222" font-family="Verdana" font-size="12.5" lengthAdjust="spacingAndGlyphs" textLength="71.875" x="151.5625" y="1161.2834">DNS Attack</text><line style="stroke: #666666; stroke-width: 1.0416666666666667; stroke-dasharray: 2.0,2.0;" x1="13.5417" x2="1132.2917" y1="1196.1995" y2="1196.1995"/><text fill="#222222" font-family="Verdana" font-size="12.5" font-weight="bold" lengthAdjust="spacingAndGlyphs" textLength="115.625" x="25" y="1215.0167">[Just a Warning]</text><polygon fill="#2196F3" points="1020.8333,1254.7078,1031.25,1258.8745,1020.8333,1263.0412,1025,1258.8745" style="stroke: #2196F3; stroke-width: 1.0416666666666667;"/><line style="stroke: #2196F3; stroke-width: 3.125;" x1="70.3125" x2="1027.0833" y1="1258.8745" y2="1258.8745"/><text fill="#222222" font-family="Verdana" font-size="12.5" font-weight="bold" lengthAdjust="spacingAndGlyphs" textLength="40.625" x="83.8542" y="1247.9167">[014]</text><text fill="#FF9800" font-family="Verdana" font-size="12.5" font-weight="bold" lengthAdjust="spacingAndGlyphs" textLength="94.7917" x="141.1458" y="1247.9167">Please repeat</text><path d="M46.875,1283.8745 L46.875,1343.2495 A4.1667,4.1667 0 0 0 51.0417,1347.4162 L265.625,1347.4162 A4.1667,4.1667 0 0 0 269.7917,1343.2495 L269.7917,1290.1245 L259.375,1279.7078 L51.0417,1279.7078 A4.1667,4.1667 0 0 0 46.875,1283.8745 " fill="#FFFFFF" filter="url(#f6ra8mb2u259t)" style="stroke: #9C27B0; stroke-width: 1.0416666666666667;"/><path d="M259.375,1279.7078 L259.375,1288.0412 A2.0833,2.0833 0 0 0 261.4583,1290.1245 L269.7917,1290.1245 L259.375,1279.7078 " fill="#FFFFFF" style="stroke: #9C27B0; stroke-width: 1.0416666666666667;"/><text fill="#9C27B0" font-family="Verdana" font-size="12.5" lengthAdjust="spacingAndGlyphs" textLength="136.4583" x="83.3333" y="1303.7333">this is a second note</text><text fill="#9C27B0" font-family="Verdana" font-size="12.5" lengthAdjust="spacingAndGlyphs" textLength="81.25" x="83.3333" y="1318.925">that is really</text><text fill="#9C27B0" font-family="Verdana" font-size="12.5" lengthAdjust="spacingAndGlyphs" textLength="28.125" x="83.3333" y="1334.1166">long</text><text fill="#888888" font-family="Verdana" font-size="12.5" lengthAdjust="spacingAndGlyphs" textLength="85.4167" x="1057.2917" y="15.6921">Page Header</text><text fill="#888888" font-family="Verdana" font-size="12.5" lengthAdjust="spacingAndGlyphs" textLength="75" x="535.4167" y="1485.3333">Page 1 of 1</text><!--MD5=[772ec88420e1f9034679185f14896f1e]
@startuml



skinparam backgroundColor white






skinparam defaultFontName       "Verdana"
skinparam defaultFontSize       12
skinparam dpi                   100
skinparam shadowing             true
skinparam roundcorner           8
skinparam ParticipantPadding    10
skinparam BoxPadding            2
skinparam Padding               6
skinparam TitleFontColor	    #222
skinparam TitleFontSize	    	20
skinparam TitleBorderThickness 	0
skinparam ArrowColor            #666
skinparam title {
	FontColor	                 #2196F3
	BorderColor	                 #cccccc
	FontSize	    	         20
	BorderRoundCorner            8
	BorderThickness 	         1
	BackgroundColor              white
}

skinparam legend {
	BackgroundColor white
	BorderColor #cccccc
	FontColor #222
}

skinparam activity {
	FontColor #2196F3
	BorderColor #2196F3
	BackgroundColor white
	BarColor #4CAF50
	StartColor #9C27B0
	EndColor #9C27B0
	DiamondBackgroundColor white
  	DiamondBorderColor #cccccc
	DiamondFontColor #cccccc
}

skinparam sequence {
	BorderColor #2196F3
	TitleFontColor #2196F3
	BackgroundColor white
	StartColor #2196F3
	EndColor #2196F3
    ParticipantBackgroundColor white
    ParticipantBorderColor #2196F3
	ParticipantBorderThickness 1
	ParticipantFontColor #2196F3
	ActorBackgroundColor white
    ActorBorderColor #2196F3
	ActorFontColor #2196F3
	ArrowThickness 3
	ArrowColor #2196F3
	ArrowFontColor #222
	BoxBackgroundColor white
	BoxBorderColor #666
	BoxFontColor #222
	LifeLineBorderColor #cccccc
	LifeLineBorderThickness 2
	LifeLineBackgroundColor white
	GroupBorderColor #666
	GroupFontColor #222
	GroupHeaderFontColor #9C27B0
	DividerBackgroundColor white
    DividerBorderColor #666
    DividerBorderThickness 2
    DividerFontColor #222
	ReferenceBackgroundColor white
	ReferenceBorderColor #666
	ReferenceFontColor #222
	ReferenceHeaderFontColor #9C27B0
}

skinparam partition {
	BorderColor #2196F3
	FontColor #2196F3
	BackgroundColor white
}

skinparam collections {
	BackgroundColor white
	BorderColor #2196F3
}

skinparam control {
	BackgroundColor  white
	BorderColor #1a78c2
	FontColor #222
}

skinparam entity {
	BackgroundColor  white
	BorderColor #1a78c2
	FontColor #222
}

skinparam boundary {
	BackgroundColor  white
	BorderColor #1a78c2
	FontColor #222
}

skinparam agent {
	BackgroundColor white
	BorderColor #999999
	FontColor #333333
}

skinparam note {
	BorderThickness 1
	BackgroundColor white
	BorderColor #9C27B0
	FontColor #9C27B0
}

skinparam artifact {
	BackgroundColor white
	BorderColor #666
	FontColor #666
}

skinparam component {
	BackgroundColor  white
	BorderColor  #4CAF50
	FontColor #4CAF50
}

skinparam interface {
	BackgroundColor  white
	BorderColor  #e51c23
	FontColor #222
}

skinparam storage {
	BackgroundColor white
  	BorderColor #ff9800
	FontColor #ff9800
}

skinparam node {
	BackgroundColor white
	BorderColor #222
	FontColor #222
}

skinparam cloud {
	BackgroundColor white
	BorderColor lightskyblue
	FontColor #222
}

skinparam database {
	BackgroundColor  white
	BorderColor #1a78c2
	FontColor #222
}

skinparam actor {
	FontColor #222
}

skinparam class {
	HeaderBackgroundColor #2196F3-#1a78c2
	FontColor #2196F3
	BackgroundColor white
	BorderColor #1a78c2
	StereotypeFontColor #222
	BorderThickness 1
	AttributeFontColor #222
	AttributeFontSize 11
}

skinparam object {
	FontColor #4CAF50
	BackgroundColor white
	BorderColor #cccccc
	StereotypeFontColor #222
	BorderThickness 1
	AttributeFontColor #cccccc
	AttributeFontSize 11
}

skinparam usecase {
	BackgroundColor white
	BorderColor #cccccc
	BorderThickness 2
	FontColor #cccccc
	StereotypeFontColor #2196F3
}

skinparam rectangle {
	BackgroundColor white
	BorderColor #1a78c2
	BorderThickness 2
	FontColor #2196F3
	StereotypeFontColor #2196F3
}

skinparam package {
	BackgroundColor white
  	BorderColor #2196F3
	FontColor #2196F3
	BorderThickness 2
}

skinparam folder {
	BackgroundColor white
  	BorderColor #ff9800
	FontColor #ff9800
	BorderThickness 2
}

skinparam frame {
	BackgroundColor white
  	BorderColor #9C27B0
	FontColor #9C27B0
	BorderThickness 2
}

skinparam state {
	StartColor #9C27B0
	EndColor #9C27B0
	BackgroundColor white
	BorderColor #cccccc
	FontColor #9C27B0
	AttributeFontColor #cccccc
	AttributeFontSize 11
}

skinparam queue {
	BackgroundColor white
  	BorderColor #CC7A00
	FontColor #ff9800
}

skinparam card {
	BackgroundColor white
	BorderColor #9C27B0
	FontColor #9C27B0
}

skinparam file {
	BackgroundColor white
	BorderColor #666
	FontColor #666

}

skinparam stack {
	BackgroundColor white
	BorderColor #2196F3
	FontColor #2196F3
}

title Sequence Diagram - materia-outline theme


autonumber "<b>[000]"

header Page Header
footer Page %page% of %lastpage%

actor Foo1
boundary Foo2
control Foo3
entity Foo4
database Foo5
collections Foo6
participant Bob
participant Alice << (C,#ADD1B2) Testable >>

box "Internal Service"
	participant Bob
	participant Alice
end box

== Initialization ==
Foo1 -> Foo2 : To boundary
|||
Foo2 -> Foo3 ++: To control
ref over Foo4, Foo5
  This can be on
  several lines
end ref
Foo3 -> Foo4 : To entity

Foo4 -> Foo5 : To database
Foo5 - -> Foo3 - - : return
Foo3 - -> Foo2 - -: return
... Some ~~long delay~~ ...
Foo1 -> Foo6 : To collections
Foo6 - -> Foo4:   <font color=#4CAF50><b>success


alt successful case

Foo1 -> Alice: Authentication Accepted
Alice - -> Foo1: success

note left of Alice: this is a first note

else some kind of failure

	Foo1 -> Alice: Authentication Failure
    Alice - -> Foo1:   <font color=#e51c23><b>Bad request
	group My own label
	    loop 1000 times
	        Alice -> Foo1: DNS Attack
	    end
	end
	
else Just a Warning

   Foo1 -> Alice:   <font color=#ff9800><b>Please repeat
   
end

note over Foo1, Foo2
this is a second note
that is really
long
end note

@enduml

PlantUML version 1.2019.11(Sun Sep 22 03:02:15 PDT 2019)
(GPL source distribution)
Java Runtime: OpenJDK Runtime Environment
JVM: OpenJDK 64-Bit Server VM
Java Version: 11.0.4+11-post-Ubuntu-1ubuntu218.04.3
Operating System: Linux
Default Encoding: UTF-8
Language: en
Country: US
--></g></svg>