<?xml version="1.0" encoding="UTF-8" standalone="no"?><svg xmlns="http://www.w3.org/2000/svg" xmlns:xlink="http://www.w3.org/1999/xlink" contentScriptType="application/ecmascript" contentStyleType="text/css" height="1393.75px" preserveAspectRatio="none" style="width:464px;height:1393px;" version="1.1" viewBox="0 0 464 1393" width="464.5833px" zoomAndPan="magnify"><defs><filter height="300%" id="f2280pa423z7e" width="300%" x="-1" y="-1"><feGaussianBlur result="blurOut" stdDeviation="2.0833333333333335"/><feColorMatrix in="blurOut" result="blurOut2" type="matrix" values="0 0 0 0 0 0 0 0 0 0 0 0 0 0 0 0 0 0 .4 0"/><feOffset dx="4.166666666666667" dy="4.166666666666667" in="blurOut2" result="blurOut3"/><feBlend in="SourceGraphic" in2="blurOut3" mode="normal"/></filter></defs><g><rect fill="#FFFFFF" height="56.5694" rx="4.1667" ry="4.1667" style="stroke: #CCCCCC; stroke-width: 1.0416666666666667;" width="451.0417" x="2.0833" y="2.0833"/><text fill="#2196F3" font-family="Verdana" font-size="20.8333" lengthAdjust="spacingAndGlyphs" textLength="413.5417" x="20.8333" y="38.6536">State Diagram - materia-outline theme</text><rect fill="#4CAF50" filter="url(#f2280pa423z7e)" height="8.3333" style="stroke: none; stroke-width: 1.0416666666666667;" width="83.3333" x="180.2083" y="153.4444"/><ellipse cx="221.875" cy="80.5278" fill="#9C27B0" filter="url(#f2280pa423z7e)" rx="10.4167" ry="10.4167" style="stroke: none; stroke-width: 1.0416666666666667;"/><rect fill="#FFFFFF" filter="url(#f2280pa423z7e)" height="77.6917" rx="13.0208" ry="13.0208" style="stroke: #CCCCCC; stroke-width: 1.5625;" width="85.4167" x="118.75" y="224.2778"/><line style="stroke: #CCCCCC; stroke-width: 1.5625;" x1="118.75" x2="204.1667" y1="270.7194" y2="270.7194"/><text fill="#9C27B0" font-family="Verdana" font-size="12.5" lengthAdjust="spacingAndGlyphs" textLength="43.75" x="139.5833" y="252.4699">State2</text><rect fill="#FFFFFF" filter="url(#f2280pa423z7e)" height="77.6917" rx="13.0208" ry="13.0208" style="stroke: #CCCCCC; stroke-width: 1.5625;" width="85.4167" x="240.625" y="224.2778"/><line style="stroke: #CCCCCC; stroke-width: 1.5625;" x1="240.625" x2="326.0417" y1="270.7194" y2="270.7194"/><text fill="#9C27B0" font-family="Verdana" font-size="12.5" lengthAdjust="spacingAndGlyphs" textLength="43.75" x="261.4583" y="252.4699">State3</text><rect fill="#4CAF50" filter="url(#f2280pa423z7e)" height="8.3333" style="stroke: none; stroke-width: 1.0416666666666667;" width="83.3333" x="180.2083" y="364.9028"/><rect fill="#FFFFFF" filter="url(#f2280pa423z7e)" height="77.6917" rx="13.0208" ry="13.0208" style="stroke: #CCCCCC; stroke-width: 1.5625;" width="85.4167" x="179.1667" y="435.7361"/><line style="stroke: #CCCCCC; stroke-width: 1.5625;" x1="179.1667" x2="264.5833" y1="482.1777" y2="482.1777"/><text fill="#9C27B0" font-family="Verdana" font-size="12.5" lengthAdjust="spacingAndGlyphs" textLength="43.75" x="200" y="463.9282">State4</text><rect fill="#FFFFFF" filter="url(#f2280pa423z7e)" height="806.8583" rx="13.0208" ry="13.0208" style="stroke: #CCCCCC; stroke-width: 1.5625;" width="372.9167" x="35.4167" y="576.3611"/><rect fill="#FFFFFF" height="754.1667" rx="13.0208" ry="13.0208" style="stroke: #FFFFFF; stroke-width: 1.0416666666666667;" width="366.6667" x="38.5417" y="625.9277"/><line style="stroke: #CCCCCC; stroke-width: 1.5625;" x1="35.4167" x2="408.3333" y1="622.8027" y2="622.8027"/><text fill="#9C27B0" font-family="Verdana" font-size="12.5" lengthAdjust="spacingAndGlyphs" textLength="38.5417" x="202.6042" y="604.5532">Active</text><ellipse cx="57.2917" cy="675.4069" fill="#9C27B0" filter="url(#f2280pa423z7e)" rx="10.4167" ry="10.4167" style="stroke: none; stroke-width: 1.0416666666666667;"/><rect fill="#FFFFFF" filter="url(#f2280pa423z7e)" height="77.6917" rx="13.0208" ry="13.0208" style="stroke: #CCCCCC; stroke-width: 1.5625;" width="118.75" x="86.4583" y="636.3444"/><line style="stroke: #CCCCCC; stroke-width: 1.5625;" x1="86.4583" x2="205.2083" y1="682.7861" y2="682.7861"/><text fill="#9C27B0" font-family="Verdana" font-size="12.5" lengthAdjust="spacingAndGlyphs" textLength="77.0833" x="107.2917" y="664.5365">NumLockOff</text><rect fill="#FFFFFF" filter="url(#f2280pa423z7e)" height="77.6917" rx="13.0208" ry="13.0208" style="stroke: #CCCCCC; stroke-width: 1.5625;" width="118.75" x="85.4167" y="789.4694"/><line style="stroke: #CCCCCC; stroke-width: 1.5625;" x1="85.4167" x2="204.1667" y1="835.9111" y2="835.9111"/><text fill="#9C27B0" font-family="Verdana" font-size="12.5" lengthAdjust="spacingAndGlyphs" textLength="77.0833" x="106.25" y="817.6615">NumLockOn</text><!--MD5=[f1e44e9cdf7ed6fd162579f896fb76ea]
link *start*Active to NumLockOff--><path d="M68.0135,675.4069 C72.2882,675.4069 76.563,675.4069 80.8378,675.4069 " fill="none" id="*start*Active-&gt;NumLockOff" style="stroke: #2196F3; stroke-width: 3.125;"/><polygon fill="#2196F3" points="86.2525,675.4069,76.8775,671.2402,81.0442,675.4069,76.8775,679.5736,86.2525,675.4069" style="stroke: #2196F3; stroke-width: 3.125;"/><!--MD5=[b6ef3c088f5474ecc81df30475e7d61b]
link NumLockOff to NumLockOn--><path d="M86.032,709.5724 C73.4859,718.0067 62.9489,726.5304 59.375,733.2194 C51.5209,747.9194 51.5622,755.9974 59.375,770.7194 C64.5689,780.5064 72.2419,788.9396 80.8923,796.1019 " fill="none" id="NumLockOff-&gt;NumLockOn" style="stroke: #2196F3; stroke-width: 3.125;"/><polygon fill="#2196F3" points="85.2107,799.5161,80.4407,790.4332,81.1251,796.2859,75.2724,796.9703,85.2107,799.5161" style="stroke: #2196F3; stroke-width: 3.125;"/><text fill="#222222" font-family="Verdana" font-size="12.5" lengthAdjust="spacingAndGlyphs" textLength="127.0833" x="70.8333" y="757.2449">EvNumLockPressed</text><!--MD5=[3bfddee0d82dc74c927fbeb3d3f2e6a3]
link NumLockOn to NumLockOff--><path d="M197.2805,789.4671 C202.1428,783.7242 206.366,777.4513 209.375,770.7194 C216.176,755.5035 216.1145,748.4626 209.375,733.2194 C207.1125,728.1021 204.1485,723.243 200.7373,718.6765 " fill="none" id="NumLockOn-&gt;NumLockOff" style="stroke: #2196F3; stroke-width: 3.125;"/><polygon fill="#2196F3" points="197.486,714.566,200.0339,724.5038,200.7171,718.651,206.5699,719.3342,197.486,714.566" style="stroke: #2196F3; stroke-width: 3.125;"/><text fill="#222222" font-family="Verdana" font-size="12.5" lengthAdjust="spacingAndGlyphs" textLength="127.0833" x="226.0417" y="757.2449">EvNumLockPressed</text><line style="stroke: #CCCCCC; stroke-width: 1.5625; stroke-dasharray: 8.0,10.0;" x1="40.625" x2="401.0417" y1="878.0111" y2="878.0111"/><ellipse cx="57.2917" cy="925.4069" fill="#9C27B0" filter="url(#f2280pa423z7e)" rx="10.4167" ry="10.4167" style="stroke: none; stroke-width: 1.0416666666666667;"/><rect fill="#FFFFFF" filter="url(#f2280pa423z7e)" height="77.6917" rx="13.0208" ry="13.0208" style="stroke: #CCCCCC; stroke-width: 1.5625;" width="122.9167" x="86.4583" y="886.3444"/><line style="stroke: #CCCCCC; stroke-width: 1.5625;" x1="86.4583" x2="209.375" y1="932.7861" y2="932.7861"/><text fill="#9C27B0" font-family="Verdana" font-size="12.5" lengthAdjust="spacingAndGlyphs" textLength="81.25" x="107.2917" y="914.5365">CapsLockOff</text><rect fill="#FFFFFF" filter="url(#f2280pa423z7e)" height="77.6917" rx="13.0208" ry="13.0208" style="stroke: #CCCCCC; stroke-width: 1.5625;" width="122.9167" x="85.4167" y="1039.4694"/><line style="stroke: #CCCCCC; stroke-width: 1.5625;" x1="85.4167" x2="208.3333" y1="1085.9111" y2="1085.9111"/><text fill="#9C27B0" font-family="Verdana" font-size="12.5" lengthAdjust="spacingAndGlyphs" textLength="81.25" x="106.25" y="1067.6615">CapsLockOn</text><!--MD5=[ad44b9de6595643ec3df1279e2e825ac]
link *start*CONC82 to CapsLockOff--><path d="M67.9118,925.4069 C72.2333,925.4069 76.5549,925.4069 80.8765,925.4069 " fill="none" id="*start*CONC82-&gt;CapsLockOff" style="stroke: #2196F3; stroke-width: 3.125;"/><polygon fill="#2196F3" points="86.3504,925.4069,76.9754,921.2402,81.1421,925.4069,76.9754,929.5736,86.3504,925.4069" style="stroke: #2196F3; stroke-width: 3.125;"/><!--MD5=[dc4675bd3056f3ef68701d9e8e02a3f3]
link CapsLockOff to CapsLockOn--><path d="M86.2309,959.7494 C73.5845,968.0868 63.0021,976.5194 59.375,983.2194 C51.4405,997.8762 51.4803,1006.0411 59.375,1020.7194 C64.5631,1030.3655 72.1446,1038.6705 80.708,1045.7321 " fill="none" id="CapsLockOff-&gt;CapsLockOn" style="stroke: #2196F3; stroke-width: 3.125;"/><polygon fill="#2196F3" points="84.9847,1049.0992,80.1963,1040.026,80.8925,1045.8773,75.0412,1046.5735,84.9847,1049.0992" style="stroke: #2196F3; stroke-width: 3.125;"/><text fill="#222222" font-family="Verdana" font-size="12.5" lengthAdjust="spacingAndGlyphs" textLength="131.25" x="70.8333" y="1007.2449">EvCapsLockPressed</text><!--MD5=[79e17b083e07746bd1a647600952cab6]
link CapsLockOn to CapsLockOff--><path d="M201.342,1039.3032 C206.236,1033.6225 210.4882,1027.409 213.5417,1020.7194 C220.4623,1005.5575 220.4031,998.4082 213.5417,983.2194 C211.2445,978.1342 208.2544,973.3176 204.8178,968.7973 " fill="none" id="CapsLockOn-&gt;CapsLockOff" style="stroke: #2196F3; stroke-width: 3.125;"/><polygon fill="#2196F3" points="201.5432,964.73,204.1772,974.6454,204.8096,968.7868,210.6681,969.4192,201.5432,964.73" style="stroke: #2196F3; stroke-width: 3.125;"/><text fill="#222222" font-family="Verdana" font-size="12.5" lengthAdjust="spacingAndGlyphs" textLength="131.25" x="230.2083" y="1007.2449">EvCapsLockPressed</text><line style="stroke: #CCCCCC; stroke-width: 1.5625; stroke-dasharray: 8.0,10.0;" x1="40.625" x2="401.0417" y1="1128.0111" y2="1128.0111"/><ellipse cx="57.2917" cy="1175.4069" fill="#9C27B0" filter="url(#f2280pa423z7e)" rx="10.4167" ry="10.4167" style="stroke: none; stroke-width: 1.0416666666666667;"/><rect fill="#FFFFFF" filter="url(#f2280pa423z7e)" height="77.6917" rx="13.0208" ry="13.0208" style="stroke: #CCCCCC; stroke-width: 1.5625;" width="123.9583" x="86.9792" y="1136.3444"/><line style="stroke: #CCCCCC; stroke-width: 1.5625;" x1="86.9792" x2="210.9375" y1="1182.7861" y2="1182.7861"/><text fill="#9C27B0" font-family="Verdana" font-size="12.5" lengthAdjust="spacingAndGlyphs" textLength="82.2917" x="107.8125" y="1164.5365">ScrollLockOff</text><rect fill="#FFFFFF" filter="url(#f2280pa423z7e)" height="77.6917" rx="13.0208" ry="13.0208" style="stroke: #CCCCCC; stroke-width: 1.5625;" width="123.9583" x="86.9792" y="1289.4694"/><line style="stroke: #CCCCCC; stroke-width: 1.5625;" x1="86.9792" x2="210.9375" y1="1335.9111" y2="1335.9111"/><text fill="#9C27B0" font-family="Verdana" font-size="12.5" lengthAdjust="spacingAndGlyphs" textLength="82.2917" x="107.8125" y="1317.6615">ScrollLockOn</text><!--MD5=[9a8b2c0f7fde6bd227d6334344b3ad45]
link *start*CONC90 to ScrollLockOff--><path d="M68.0339,1175.4069 C72.5022,1175.4069 76.9706,1175.4069 81.439,1175.4069 " fill="none" id="*start*CONC90-&gt;ScrollLockOff" style="stroke: #2196F3; stroke-width: 3.125;"/><polygon fill="#2196F3" points="86.6844,1175.4069,77.3094,1171.2402,81.476,1175.4069,77.3094,1179.5736,86.6844,1175.4069" style="stroke: #2196F3; stroke-width: 3.125;"/><!--MD5=[da4e1e55b4a6de250eca2c82023085fa]
link ScrollLockOff to ScrollLockOn--><path d="M86.6442,1210.7159 C74.7467,1218.7543 64.9081,1226.8053 61.4583,1233.2194 C53.5636,1247.8977 53.5636,1256.0411 61.4583,1270.7194 C66.5723,1280.2277 74.0118,1288.4329 82.425,1295.4287 " fill="none" id="ScrollLockOff-&gt;ScrollLockOn" style="stroke: #2196F3; stroke-width: 3.125;"/><polygon fill="#2196F3" points="86.6274,1298.7662,81.8773,1289.6729,82.5488,1295.527,76.6947,1296.1986,86.6274,1298.7662" style="stroke: #2196F3; stroke-width: 3.125;"/><text fill="#222222" font-family="Verdana" font-size="12.5" lengthAdjust="spacingAndGlyphs" textLength="131.25" x="72.9167" y="1257.2449">EvCapsLockPressed</text><!--MD5=[6ad2c621f2407b82317910f4deb17639]
link ScrollLockOn to ScrollLockOff--><path d="M203.4253,1289.3032 C208.3194,1283.6225 212.5716,1277.409 215.625,1270.7194 C222.5456,1255.5575 222.5456,1248.3813 215.625,1233.2194 C213.2872,1228.0976 210.2468,1223.255 206.7535,1218.7169 " fill="none" id="ScrollLockOn-&gt;ScrollLockOff" style="stroke: #2196F3; stroke-width: 3.125;"/><polygon fill="#2196F3" points="203.4253,1214.6357,206.1209,1224.5344,206.7168,1218.6721,212.5792,1219.268,203.4253,1214.6357" style="stroke: #2196F3; stroke-width: 3.125;"/><text fill="#222222" font-family="Verdana" font-size="12.5" lengthAdjust="spacingAndGlyphs" textLength="131.25" x="231.25" y="1257.2449">EvCapsLockPressed</text><!--MD5=[242ad121cef04112e9b0ee8f25f52375]
link *start to fork_state--><path d="M221.875,91.2459 C221.875,106.3038 221.875,133.4943 221.875,147.9557 " fill="none" id="*start-&gt;fork_state" style="stroke: #2196F3; stroke-width: 3.125;"/><polygon fill="#2196F3" points="221.875,153.3016,226.0417,143.9266,221.875,148.0933,217.7083,143.9266,221.875,153.3016" style="stroke: #2196F3; stroke-width: 3.125;"/><!--MD5=[44dd36eb382d4fffd186e8c447a61da0]
link fork_state to State2--><path d="M219.279,162.1541 C213.5856,172.1174 199.4834,196.7962 186.6322,219.286 " fill="none" id="fork_state-&gt;State2" style="stroke: #2196F3; stroke-width: 3.125;"/><polygon fill="#2196F3" points="183.9123,224.0458,192.1813,217.9733,186.4964,219.5237,184.946,213.8388,183.9123,224.0458" style="stroke: #2196F3; stroke-width: 3.125;"/><!--MD5=[43d4d70f9cd19f132a5eb1ce9d85c890]
link fork_state to State3--><path d="M224.5158,162.1541 C230.3073,172.1174 244.6526,196.7962 257.7254,219.286 " fill="none" id="fork_state-&gt;State3" style="stroke: #2196F3; stroke-width: 3.125;"/><polygon fill="#2196F3" points="260.4922,224.0458,259.3828,213.8467,257.8746,219.543,252.1784,218.0348,260.4922,224.0458" style="stroke: #2196F3; stroke-width: 3.125;"/><!--MD5=[8cf5ef3a64654818495211b4c165bd62]
link State2 to join_state--><path d="M183.7836,302.4095 C195.6663,323.2041 209.2985,347.0606 216.6001,359.8383 " fill="none" id="State2-&gt;join_state" style="stroke: #2196F3; stroke-width: 3.125;"/><polygon fill="#2196F3" points="219.3181,364.5949,218.2844,354.3879,216.734,360.0729,211.0491,358.5225,219.3181,364.5949" style="stroke: #2196F3; stroke-width: 3.125;"/><!--MD5=[183fde86cac17ac230b97143534e47db]
link State3 to join_state--><path d="M260.6231,302.4095 C248.5356,323.2041 234.6683,347.0606 227.2408,359.8383 " fill="none" id="State3-&gt;join_state" style="stroke: #2196F3; stroke-width: 3.125;"/><polygon fill="#2196F3" points="224.4759,364.5949,232.7896,358.5837,227.0934,360.0921,225.585,354.3958,224.4759,364.5949" style="stroke: #2196F3; stroke-width: 3.125;"/><!--MD5=[1e473d623208eebf6d5ebd6e9bc5a11d]
link join_state to State4--><path d="M221.875,373.6124 C221.875,383.4923 221.875,407.8425 221.875,430.1793 " fill="none" id="join_state-&gt;State4" style="stroke: #2196F3; stroke-width: 3.125;"/><polygon fill="#2196F3" points="221.875,435.5041,226.0417,426.1291,221.875,430.2958,217.7083,426.1291,221.875,435.5041" style="stroke: #2196F3; stroke-width: 3.125;"/><!--MD5=[0a70b1a7cf318979336334b4227eefe4]
link State4 to Active--><path d="M221.875,514.0211 C221.875,529.4745 221.875,548.8021 221.875,570.7334 " fill="none" id="State4-&gt;Active" style="stroke: #2196F3; stroke-width: 3.125;"/><polygon fill="#2196F3" points="221.875,576.0575,226.0417,566.6825,221.875,570.8492,217.7083,566.6825,221.875,576.0575" style="stroke: #2196F3; stroke-width: 3.125;"/><!--MD5=[ee9fd7ae96a5d1d057dff9fe953ac22b]
@startuml



skinparam backgroundColor transparent






skinparam defaultFontName       "Verdana"
skinparam defaultFontSize       12
skinparam dpi                   100
skinparam shadowing             true
skinparam roundcorner           8
skinparam ParticipantPadding    40
skinparam BoxPadding            40
skinparam Padding               10 
skinparam TitleFontColor	    #222
skinparam TitleFontSize	    	20
skinparam TitleBorderThickness 	0
skinparam ArrowColor            #666
skinparam stereotype {
    CBackgroundColor #fff
    CBorderColor #cccccc
    ABackgroundColor #70bf73
    ABorderColor #3D8C40
    IBackgroundColor #B7161C
    IBorderColor $DANGER_DARK
    EBackgroundColor #ffad33
    EBorderColor #CC7A00
    NBackgroundColor #b052c0
    NBorderColor #7D1F8D
}
skinparam title {
	FontColor	                 #2196F3
	BorderColor	                 #cccccc
	FontSize	    	         20
	BorderRoundCorner            8
	BorderThickness 	         1
	BackgroundColor              transparent
}

skinparam legend {
	BackgroundColor transparent
	BorderColor #cccccc
	FontColor #222
}

skinparam activity {
	FontColor #2196F3
	BorderColor #2196F3
	BackgroundColor transparent
	BarColor #4CAF50
	StartColor #9C27B0
	EndColor #9C27B0
	DiamondBackgroundColor transparent
  	DiamondBorderColor #cccccc
	DiamondFontColor #cccccc
}

skinparam sequence {
	BorderColor #2196F3
	TitleFontColor #2196F3
	BackgroundColor transparent
	StartColor #2196F3
	EndColor #2196F3
    ParticipantBackgroundColor transparent
    ParticipantBorderColor #2196F3
	ParticipantBorderThickness 1
	ParticipantFontColor #2196F3
	ActorBackgroundColor transparent
    ActorBorderColor #2196F3
	ActorFontColor #2196F3
	ArrowThickness 3
	ArrowColor #2196F3
	ArrowFontColor #222
	BoxBackgroundColor transparent
	BoxBorderColor #666
	BoxFontColor #222
	LifeLineBorderColor #cccccc
	LifeLineBorderThickness 2
	LifeLineBackgroundColor transparent
	GroupBorderColor #666
	GroupFontColor #222
	GroupHeaderFontColor #9C27B0
	DividerBackgroundColor transparent
    DividerBorderColor #666
    DividerBorderThickness 2
    DividerFontColor #222
	ReferenceBackgroundColor transparent
	ReferenceBorderColor #666
	ReferenceFontColor #222
	ReferenceHeaderFontColor #9C27B0
}

skinparam partition {
	BorderColor #2196F3
	FontColor #2196F3
	BackgroundColor transparent
}

skinparam collections {
	BackgroundColor transparent
	BorderColor #2196F3
}

skinparam control {
	BackgroundColor  transparent
	BorderColor #1a78c2
	FontColor #222
}

skinparam entity {
	BackgroundColor  transparent
	BorderColor #1a78c2
	FontColor #222
}

skinparam boundary {
	BackgroundColor  transparent
	BorderColor #1a78c2
	FontColor #222
}

skinparam agent {
	BackgroundColor transparent
	BorderColor #999999
	FontColor #333333
}

skinparam note {
	BorderThickness 1
	BackgroundColor transparent
	BorderColor #9C27B0
	FontColor #9C27B0
}

skinparam artifact {
	BackgroundColor transparent
	BorderColor #666
	FontColor #666
}

skinparam component {
	BackgroundColor  transparent
	BorderColor  #4CAF50
	FontColor #4CAF50
}

skinparam interface {
	BackgroundColor  transparent
	BorderColor  #e51c23
	FontColor #222
}

skinparam storage {
	BackgroundColor transparent
  	BorderColor #ff9800
	FontColor #ff9800
}

skinparam node {
	BackgroundColor transparent
	BorderColor #222
	FontColor #222
}

skinparam cloud {
	BackgroundColor transparent
	BorderColor lightskyblue
	FontColor #222
}

skinparam database {
	BackgroundColor  transparent
	BorderColor #1a78c2
	FontColor #222
}

skinparam actor {
	FontColor #222
}

skinparam class {
	HeaderBackgroundColor #2196F3-#1a78c2
	FontColor #2196F3
	BackgroundColor transparent
	BorderColor #1a78c2
	StereotypeFontColor #222
	BorderThickness 1
	AttributeFontColor #222
	AttributeFontSize 11
}

skinparam object {
	FontColor #4CAF50
	BackgroundColor transparent
	BorderColor #cccccc
	StereotypeFontColor #222
	BorderThickness 1
	AttributeFontColor #cccccc
	AttributeFontSize 11
}

skinparam usecase {
	BackgroundColor transparent
	BorderColor #cccccc
	BorderThickness 2
	FontColor #cccccc
	StereotypeFontColor #2196F3
}

skinparam rectangle {
	BackgroundColor transparent
	BorderColor #1a78c2
	BorderThickness 2
	FontColor #2196F3
	StereotypeFontColor #2196F3
}

skinparam package {
	BackgroundColor transparent
  	BorderColor #2196F3
	FontColor #2196F3
	BorderThickness 2
}

skinparam folder {
	BackgroundColor transparent
  	BorderColor #ff9800
	FontColor #ff9800
	BorderThickness 2
}

skinparam frame {
	BackgroundColor transparent
  	BorderColor #9C27B0
	FontColor #9C27B0
	BorderThickness 2
}

skinparam state {
	StartColor #9C27B0
	EndColor #9C27B0
	BackgroundColor transparent
	BorderColor #cccccc
	FontColor #9C27B0
	AttributeFontColor #cccccc
	AttributeFontSize 11
}

skinparam queue {
	BackgroundColor transparent
  	BorderColor #CC7A00
	FontColor #ff9800
}

skinparam card {
	BackgroundColor transparent
	BorderColor #9C27B0
	FontColor #9C27B0
}

skinparam file {
	BackgroundColor transparent
	BorderColor #666
	FontColor #666

}

skinparam stack {
	BackgroundColor transparent
	BorderColor #2196F3
	FontColor #2196F3
}

title State Diagram - materia-outline theme


state fork_state <<fork>>
[*] - -> fork_state
fork_state - -> State2
fork_state - -> State3

state join_state <<join>>
State2 - -> join_state
State3 - -> join_state
join_state - -> State4
State4 - -> Active

state Active {
  [*] -> NumLockOff
  NumLockOff - -> NumLockOn : EvNumLockPressed
  NumLockOn - -> NumLockOff : EvNumLockPressed
  - -
  [*] -> CapsLockOff
  CapsLockOff - -> CapsLockOn : EvCapsLockPressed
  CapsLockOn - -> CapsLockOff : EvCapsLockPressed
  - -
  [*] -> ScrollLockOff
  ScrollLockOff - -> ScrollLockOn : EvCapsLockPressed
  ScrollLockOn - -> ScrollLockOff : EvCapsLockPressed
}

@enduml

PlantUML version 1.2019.12(Sun Nov 03 02:24:54 PST 2019)
(GPL source distribution)
Java Runtime: OpenJDK Runtime Environment
JVM: OpenJDK 64-Bit Server VM
Java Version: 11.0.4+11-post-Ubuntu-1ubuntu218.04.3
Operating System: Linux
Default Encoding: UTF-8
Language: en
Country: US
--></g></svg>