<?xml version="1.0" encoding="UTF-8" standalone="no"?><svg xmlns="http://www.w3.org/2000/svg" xmlns:xlink="http://www.w3.org/1999/xlink" contentScriptType="application/ecmascript" contentStyleType="text/css" height="1218.75px" preserveAspectRatio="none" style="width:456px;height:1218px;" version="1.1" viewBox="0 0 456 1218" width="456.25px" zoomAndPan="magnify"><defs><filter height="300%" id="fiewfvpzi4jvs" width="300%" x="-1" y="-1"><feGaussianBlur result="blurOut" stdDeviation="2.0833333333333335"/><feColorMatrix in="blurOut" result="blurOut2" type="matrix" values="0 0 0 0 0 0 0 0 0 0 0 0 0 0 0 0 0 0 .4 0"/><feOffset dx="4.166666666666667" dy="4.166666666666667" in="blurOut2" result="blurOut3"/><feBlend in="SourceGraphic" in2="blurOut3" mode="normal"/></filter></defs><g><rect fill="none" height="48.2361" rx="4.1667" ry="4.1667" style="stroke: none; stroke-width: 1.0416666666666667;" width="442.7083" x="2.0833" y="2.0833"/><text fill="#222222" font-family="Verdana" font-size="20.8333" lengthAdjust="spacingAndGlyphs" textLength="413.5417" x="16.6667" y="34.4869">State Diagram - materia-outline theme</text><rect fill="#4CAF50" filter="url(#fiewfvpzi4jvs)" height="8.3333" style="stroke: none; stroke-width: 1.0416666666666667;" width="83.3333" x="176.0417" y="145.1111"/><ellipse cx="217.7083" cy="72.1944" fill="#9C27B0" filter="url(#fiewfvpzi4jvs)" rx="10.4167" ry="10.4167" style="stroke: none; stroke-width: 1.0416666666666667;"/><rect fill="#FFFFFF" filter="url(#fiewfvpzi4jvs)" height="61.025" rx="13.0208" ry="13.0208" style="stroke: #CCCCCC; stroke-width: 1.5625;" width="77.0833" x="122.9167" y="215.9444"/><line style="stroke: #CCCCCC; stroke-width: 1.5625;" x1="122.9167" x2="200" y1="254.0527" y2="254.0527"/><text fill="#9C27B0" font-family="Verdana" font-size="12.5" lengthAdjust="spacingAndGlyphs" textLength="43.75" x="139.5833" y="239.9699">State2</text><rect fill="#FFFFFF" filter="url(#fiewfvpzi4jvs)" height="61.025" rx="13.0208" ry="13.0208" style="stroke: #CCCCCC; stroke-width: 1.5625;" width="77.0833" x="236.4583" y="215.9444"/><line style="stroke: #CCCCCC; stroke-width: 1.5625;" x1="236.4583" x2="313.5417" y1="254.0527" y2="254.0527"/><text fill="#9C27B0" font-family="Verdana" font-size="12.5" lengthAdjust="spacingAndGlyphs" textLength="43.75" x="253.125" y="239.9699">State3</text><rect fill="#4CAF50" filter="url(#fiewfvpzi4jvs)" height="8.3333" style="stroke: none; stroke-width: 1.0416666666666667;" width="83.3333" x="176.0417" y="339.9028"/><rect fill="#FFFFFF" filter="url(#fiewfvpzi4jvs)" height="61.025" rx="13.0208" ry="13.0208" style="stroke: #CCCCCC; stroke-width: 1.5625;" width="77.0833" x="179.1667" y="410.7361"/><line style="stroke: #CCCCCC; stroke-width: 1.5625;" x1="179.1667" x2="256.25" y1="448.8444" y2="448.8444"/><text fill="#9C27B0" font-family="Verdana" font-size="12.5" lengthAdjust="spacingAndGlyphs" textLength="43.75" x="195.8333" y="434.7616">State4</text><rect fill="#FFFFFF" filter="url(#fiewfvpzi4jvs)" height="673.525" rx="13.0208" ry="13.0208" style="stroke: #CCCCCC; stroke-width: 1.5625;" width="356.25" x="39.5833" y="534.6944"/><rect fill="#FFFFFF" height="629.1667" rx="13.0208" ry="13.0208" style="stroke: #FFFFFF; stroke-width: 1.0416666666666667;" width="350" x="42.7083" y="575.9277"/><line style="stroke: #CCCCCC; stroke-width: 1.5625;" x1="39.5833" x2="395.8333" y1="572.8027" y2="572.8027"/><text fill="#9C27B0" font-family="Verdana" font-size="12.5" lengthAdjust="spacingAndGlyphs" textLength="38.5417" x="198.4375" y="558.7199">Active</text><ellipse cx="61.4583" cy="617.0736" fill="#9C27B0" filter="url(#fiewfvpzi4jvs)" rx="10.4167" ry="10.4167" style="stroke: none; stroke-width: 1.0416666666666667;"/><rect fill="#FFFFFF" filter="url(#fiewfvpzi4jvs)" height="61.025" rx="13.0208" ry="13.0208" style="stroke: #CCCCCC; stroke-width: 1.5625;" width="110.4167" x="90.625" y="586.3444"/><line style="stroke: #CCCCCC; stroke-width: 1.5625;" x1="90.625" x2="201.0417" y1="624.4527" y2="624.4527"/><text fill="#9C27B0" font-family="Verdana" font-size="12.5" lengthAdjust="spacingAndGlyphs" textLength="77.0833" x="107.2917" y="610.3699">NumLockOff</text><rect fill="#FFFFFF" filter="url(#fiewfvpzi4jvs)" height="61.025" rx="13.0208" ry="13.0208" style="stroke: #CCCCCC; stroke-width: 1.5625;" width="110.4167" x="89.5833" y="714.4694"/><line style="stroke: #CCCCCC; stroke-width: 1.5625;" x1="89.5833" x2="200" y1="752.5777" y2="752.5777"/><text fill="#9C27B0" font-family="Verdana" font-size="12.5" lengthAdjust="spacingAndGlyphs" textLength="77.0833" x="106.25" y="738.4949">NumLockOn</text><!--MD5=[f1e44e9cdf7ed6fd162579f896fb76ea]
link *start*Active to NumLockOff--><path d="M72.0052,617.0736 C76.331,617.0736 80.657,617.0736 84.9828,617.0736 " fill="none" id="*start*Active-&gt;NumLockOff" style="stroke: #2196F3; stroke-width: 3.125;"/><polygon fill="#2196F3" points="90.4623,617.0736,81.0873,612.9069,85.254,617.0736,81.0873,621.2402,90.4623,617.0736" style="stroke: #2196F3; stroke-width: 3.125;"/><!--MD5=[b6ef3c088f5474ecc81df30475e7d61b]
link NumLockOff to NumLockOn--><path d="M90.2617,645.0408 C77.7593,652.5044 67.1116,660.2408 63.5417,666.5527 C57.1601,677.8361 57.192,684.4182 63.5417,695.7194 C68.7559,704.9997 76.4949,712.7435 85.1567,719.1361 " fill="none" id="NumLockOff-&gt;NumLockOn" style="stroke: #2196F3; stroke-width: 3.125;"/><polygon fill="#2196F3" points="89.476,722.1665,84.1948,713.371,85.2125,719.175,79.4085,720.1928,89.476,722.1665" style="stroke: #2196F3; stroke-width: 3.125;"/><text fill="#222222" font-family="Verdana" font-size="12.5" lengthAdjust="spacingAndGlyphs" textLength="127.0833" x="70.8333" y="686.4115">EvNumLockPressed</text><!--MD5=[3bfddee0d82dc74c927fbeb3d3f2e6a3]
link NumLockOn to NumLockOff--><path d="M191.8498,714.3507 C197.2398,708.8085 201.9588,702.5811 205.2083,695.7194 C210.7567,684.0039 210.7067,678.2919 205.2083,666.5527 C202.7681,661.3428 199.4799,656.4901 195.696,652.0212 " fill="none" id="NumLockOn-&gt;NumLockOff" style="stroke: #2196F3; stroke-width: 3.125;"/><polygon fill="#2196F3" points="192.0919,648.0257,195.2773,657.7778,195.5804,651.8931,201.4652,652.1962,192.0919,648.0257" style="stroke: #2196F3; stroke-width: 3.125;"/><text fill="#222222" font-family="Verdana" font-size="12.5" lengthAdjust="spacingAndGlyphs" textLength="127.0833" x="216.6667" y="686.4115">EvNumLockPressed</text><line style="stroke: #CCCCCC; stroke-width: 1.5625; stroke-dasharray: 8.0,10.0;" x1="44.7917" x2="388.5417" y1="786.3444" y2="786.3444"/><ellipse cx="61.4583" cy="825.4069" fill="#9C27B0" filter="url(#fiewfvpzi4jvs)" rx="10.4167" ry="10.4167" style="stroke: none; stroke-width: 1.0416666666666667;"/><rect fill="#FFFFFF" filter="url(#fiewfvpzi4jvs)" height="61.025" rx="13.0208" ry="13.0208" style="stroke: #CCCCCC; stroke-width: 1.5625;" width="114.5833" x="90.625" y="794.6777"/><line style="stroke: #CCCCCC; stroke-width: 1.5625;" x1="90.625" x2="205.2083" y1="832.7861" y2="832.7861"/><text fill="#9C27B0" font-family="Verdana" font-size="12.5" lengthAdjust="spacingAndGlyphs" textLength="81.25" x="107.2917" y="818.7032">CapsLockOff</text><rect fill="#FFFFFF" filter="url(#fiewfvpzi4jvs)" height="61.025" rx="13.0208" ry="13.0208" style="stroke: #CCCCCC; stroke-width: 1.5625;" width="114.5833" x="89.5833" y="922.8027"/><line style="stroke: #CCCCCC; stroke-width: 1.5625;" x1="89.5833" x2="204.1667" y1="960.9111" y2="960.9111"/><text fill="#9C27B0" font-family="Verdana" font-size="12.5" lengthAdjust="spacingAndGlyphs" textLength="81.25" x="106.25" y="946.8282">CapsLockOn</text><!--MD5=[ad44b9de6595643ec3df1279e2e825ac]
link *start*CONC82 to CapsLockOff--><path d="M71.9279,825.4069 C76.2413,825.4069 80.5546,825.4069 84.8679,825.4069 " fill="none" id="*start*CONC82-&gt;CapsLockOff" style="stroke: #2196F3; stroke-width: 3.125;"/><polygon fill="#2196F3" points="90.3315,825.4069,80.9565,821.2402,85.1231,825.4069,80.9565,829.5736,90.3315,825.4069" style="stroke: #2196F3; stroke-width: 3.125;"/><!--MD5=[dc4675bd3056f3ef68701d9e8e02a3f3]
link CapsLockOff to CapsLockOn--><path d="M90.5119,853.5038 C77.8843,860.8871 67.1713,868.55 63.5417,874.8861 C57.0982,886.1342 57.1289,892.7871 63.5417,904.0527 C68.7634,913.2261 76.4304,920.8748 85.0304,927.1952 " fill="none" id="CapsLockOff-&gt;CapsLockOn" style="stroke: #2196F3; stroke-width: 3.125;"/><polygon fill="#2196F3" points="89.3206,930.1922,84.0212,921.4077,85.0509,927.2096,79.249,928.2392,89.3206,930.1922" style="stroke: #2196F3; stroke-width: 3.125;"/><text fill="#222222" font-family="Verdana" font-size="12.5" lengthAdjust="spacingAndGlyphs" textLength="131.25" x="70.8333" y="894.7449">EvCapsLockPressed</text><!--MD5=[79e17b083e07746bd1a647600952cab6]
link CapsLockOn to CapsLockOff--><path d="M195.8296,922.595 C201.2849,917.0963 206.0602,910.9047 209.375,904.0527 C215.0202,892.3836 214.9723,886.5783 209.375,874.8861 C206.8391,869.5888 203.4286,864.6779 199.5079,860.1728 " fill="none" id="CapsLockOn-&gt;CapsLockOff" style="stroke: #2196F3; stroke-width: 3.125;"/><polygon fill="#2196F3" points="195.7741,856.15,199.0976,865.856,199.3172,859.9675,205.2056,860.187,195.7741,856.15" style="stroke: #2196F3; stroke-width: 3.125;"/><text fill="#222222" font-family="Verdana" font-size="12.5" lengthAdjust="spacingAndGlyphs" textLength="131.25" x="221.875" y="894.7449">EvCapsLockPressed</text><line style="stroke: #CCCCCC; stroke-width: 1.5625; stroke-dasharray: 8.0,10.0;" x1="44.7917" x2="388.5417" y1="994.6777" y2="994.6777"/><ellipse cx="61.4583" cy="1033.7402" fill="#9C27B0" filter="url(#fiewfvpzi4jvs)" rx="10.4167" ry="10.4167" style="stroke: none; stroke-width: 1.0416666666666667;"/><rect fill="#FFFFFF" filter="url(#fiewfvpzi4jvs)" height="61.025" rx="13.0208" ry="13.0208" style="stroke: #CCCCCC; stroke-width: 1.5625;" width="115.625" x="91.1458" y="1003.0111"/><line style="stroke: #CCCCCC; stroke-width: 1.5625;" x1="91.1458" x2="206.7708" y1="1041.1194" y2="1041.1194"/><text fill="#9C27B0" font-family="Verdana" font-size="12.5" lengthAdjust="spacingAndGlyphs" textLength="82.2917" x="107.8125" y="1027.0365">ScrollLockOff</text><rect fill="#FFFFFF" filter="url(#fiewfvpzi4jvs)" height="61.025" rx="13.0208" ry="13.0208" style="stroke: #CCCCCC; stroke-width: 1.5625;" width="115.625" x="91.1458" y="1131.1361"/><line style="stroke: #CCCCCC; stroke-width: 1.5625;" x1="91.1458" x2="206.7708" y1="1169.2444" y2="1169.2444"/><text fill="#9C27B0" font-family="Verdana" font-size="12.5" lengthAdjust="spacingAndGlyphs" textLength="82.2917" x="107.8125" y="1155.1615">ScrollLockOn</text><!--MD5=[9a8b2c0f7fde6bd227d6334344b3ad45]
link *start*CONC90 to ScrollLockOff--><path d="M72.0541,1033.7402 C76.5883,1033.7402 81.1226,1033.7402 85.6569,1033.7402 " fill="none" id="*start*CONC90-&gt;ScrollLockOff" style="stroke: #2196F3; stroke-width: 3.125;"/><polygon fill="#2196F3" points="90.9797,1033.7402,81.6047,1029.5736,85.7714,1033.7402,81.6047,1037.9069,90.9797,1033.7402" style="stroke: #2196F3; stroke-width: 3.125;"/><!--MD5=[da4e1e55b4a6de250eca2c82023085fa]
link ScrollLockOff to ScrollLockOn--><path d="M90.9805,1057.3626 C80.8318,1064.1712 71.618,1072.6912 65.625,1083.2194 C59.2122,1094.485 59.2122,1101.1204 65.625,1112.3861 C70.6817,1121.2693 78.0311,1128.7227 86.3005,1134.9248 " fill="none" id="ScrollLockOff-&gt;ScrollLockOn" style="stroke: #2196F3; stroke-width: 3.125;"/><polygon fill="#2196F3" points="90.9805,1138.2428,85.7424,1129.4216,86.7317,1135.2306,80.9227,1136.2198,90.9805,1138.2428" style="stroke: #2196F3; stroke-width: 3.125;"/><text fill="#222222" font-family="Verdana" font-size="12.5" lengthAdjust="spacingAndGlyphs" textLength="131.25" x="72.9167" y="1103.0782">EvCapsLockPressed</text><!--MD5=[6ad2c621f2407b82317910f4deb17639]
link ScrollLockOn to ScrollLockOff--><path d="M197.9129,1130.9284 C203.3682,1125.4296 208.1435,1119.238 211.4583,1112.3861 C217.1035,1100.7169 217.1035,1094.8886 211.4583,1083.2194 C208.9204,1077.9734 205.5265,1073.1144 201.6266,1068.6571 " fill="none" id="ScrollLockOn-&gt;ScrollLockOff" style="stroke: #2196F3; stroke-width: 3.125;"/><polygon fill="#2196F3" points="197.9129,1064.6771,201.2622,1074.3742,201.4661,1068.4852,207.3551,1068.6891,197.9129,1064.6771" style="stroke: #2196F3; stroke-width: 3.125;"/><text fill="#222222" font-family="Verdana" font-size="12.5" lengthAdjust="spacingAndGlyphs" textLength="131.25" x="222.9167" y="1103.0782">EvCapsLockPressed</text><!--MD5=[242ad121cef04112e9b0ee8f25f52375]
link *start to fork_state--><path d="M217.7083,82.9125 C217.7083,97.9705 217.7083,125.161 217.7083,139.6223 " fill="none" id="*start-&gt;fork_state" style="stroke: #2196F3; stroke-width: 3.125;"/><polygon fill="#2196F3" points="217.7083,144.9683,221.875,135.5933,217.7083,139.7599,213.5417,135.5933,217.7083,144.9683" style="stroke: #2196F3; stroke-width: 3.125;"/><!--MD5=[44dd36eb382d4fffd186e8c447a61da0]
link fork_state to State2--><path d="M215.2914,153.4628 C209.5588,163.3886 194.6695,189.1692 181.9994,211.1072 " fill="none" id="fork_state-&gt;State2" style="stroke: #2196F3; stroke-width: 3.125;"/><polygon fill="#2196F3" points="179.3334,215.7231,187.6304,209.6888,181.9383,211.2129,180.4142,205.5209,179.3334,215.7231" style="stroke: #2196F3; stroke-width: 3.125;"/><!--MD5=[43d4d70f9cd19f132a5eb1ce9d85c890]
link fork_state to State3--><path d="M220.1701,153.4628 C226.0089,163.3886 241.1739,189.1692 254.0785,211.1072 " fill="none" id="fork_state-&gt;State3" style="stroke: #2196F3; stroke-width: 3.125;"/><polygon fill="#2196F3" points="256.7939,215.7231,255.6319,205.5298,254.1531,211.2338,248.4491,209.755,256.7939,215.7231" style="stroke: #2196F3; stroke-width: 3.125;"/><!--MD5=[8cf5ef3a64654818495211b4c165bd62]
link State2 to join_state--><path d="M179.2561,277.4903 C190.7468,297.386 204.908,321.9059 212.4292,334.9286 " fill="none" id="State2-&gt;join_state" style="stroke: #2196F3; stroke-width: 3.125;"/><polygon fill="#2196F3" points="215.2188,339.7588,214.1384,329.5566,212.614,335.2486,206.9221,333.7242,215.2188,339.7588" style="stroke: #2196F3; stroke-width: 3.125;"/><!--MD5=[183fde86cac17ac230b97143534e47db]
link State3 to join_state--><path d="M256.8726,277.4903 C245.1692,297.386 230.7457,321.9059 223.0853,334.9286 " fill="none" id="State3-&gt;join_state" style="stroke: #2196F3; stroke-width: 3.125;"/><polygon fill="#2196F3" points="220.244,339.7588,228.5887,333.7908,222.8847,335.2696,221.4059,329.5656,220.244,339.7588" style="stroke: #2196F3; stroke-width: 3.125;"/><!--MD5=[1e473d623208eebf6d5ebd6e9bc5a11d]
link join_state to State4--><path d="M217.7083,348.2544 C217.7083,358.0557 217.7083,383.3161 217.7083,405.071 " fill="none" id="join_state-&gt;State4" style="stroke: #2196F3; stroke-width: 3.125;"/><polygon fill="#2196F3" points="217.7083,410.5147,221.875,401.1397,217.7083,405.3064,213.5417,401.1397,217.7083,410.5147" style="stroke: #2196F3; stroke-width: 3.125;"/><!--MD5=[0a70b1a7cf318979336334b4227eefe4]
link State4 to Active--><path d="M217.7083,472.4047 C217.7083,487.2981 217.7083,506.7957 217.7083,529.1678 " fill="none" id="State4-&gt;Active" style="stroke: #2196F3; stroke-width: 3.125;"/><polygon fill="#2196F3" points="217.7083,534.6029,221.875,525.2279,217.7083,529.3945,213.5417,525.2279,217.7083,534.6029" style="stroke: #2196F3; stroke-width: 3.125;"/><!--MD5=[429fb7bd61996545c19af00ccaed2a3c]
@startuml



skinparam backgroundColor white






skinparam defaultFontName       "Verdana"
skinparam defaultFontSize       12
skinparam dpi                   100
skinparam shadowing             true
skinparam roundcorner           8
skinparam ParticipantPadding    10
skinparam BoxPadding            2
skinparam Padding               6
skinparam TitleFontColor	    #222
skinparam TitleFontSize	    	20
skinparam TitleBorderThickness 	0
skinparam ArrowColor            #666

skinparam legend {
	BackgroundColor white
	BorderColor #cccccc
	FontColor #222
}

skinparam activity {
	TitleFontSize 20
	TitleFontColor #222
	FontColor #2196F3
	BorderColor #2196F3
	BackgroundColor white
	BarColor #4CAF50
	StartColor #9C27B0
	EndColor #9C27B0
	DiamondBackgroundColor white
  	DiamondBorderColor #cccccc
	DiamondFontColor #cccccc
}

skinparam sequence {
	BorderColor #2196F3
	TitleFontSize 20
	TitleFontColor #222
	BackgroundColor white
	StartColor #2196F3
	EndColor #2196F3
    ParticipantBackgroundColor white
    ParticipantBorderColor #2196F3
	ParticipantBorderThickness 1
	ParticipantFontColor #2196F3
	ActorBackgroundColor white
    ActorBorderColor #2196F3
	ActorFontColor #2196F3
	ArrowThickness 3
	ArrowColor #2196F3
	ArrowFontColor #222
	BoxBackgroundColor white
	BoxBorderColor #666
	BoxFontColor #222
	LifeLineBorderColor #cccccc
	LifeLineBorderThickness 2
	LifeLineBackgroundColor white
	GroupBorderColor #666
	GroupFontColor #222
	GroupHeaderFontColor #9C27B0
	DividerBackgroundColor white
    DividerBorderColor #666
    DividerBorderThickness 2
    DividerFontColor #222
	ReferenceBackgroundColor white
	ReferenceBorderColor #666
	ReferenceFontColor #222
	ReferenceHeaderFontColor #9C27B0
}

skinparam partition {
	BorderColor #2196F3
	FontColor #2196F3
	BackgroundColor white
}

skinparam collections {
	BackgroundColor white
	BorderColor #2196F3
}

skinparam control {
	BackgroundColor  white
	BorderColor #1a78c2
	FontColor #222
}

skinparam entity {
	BackgroundColor  white
	BorderColor #1a78c2
	FontColor #222
}

skinparam boundary {
	BackgroundColor  white
	BorderColor #1a78c2
	FontColor #222
}

skinparam agent {
	BackgroundColor white
	BorderColor #999999
	FontColor #333333
}

skinparam note {
	BorderThickness 1
	BackgroundColor white
	BorderColor #9C27B0
	FontColor #9C27B0
}

skinparam artifact {
	BackgroundColor white
	BorderColor #666
	FontColor #666
}

skinparam component {
	BackgroundColor  white
	BorderColor  #4CAF50
	FontColor #4CAF50
}

skinparam interface {
	BackgroundColor  white
	BorderColor  #e51c23
	FontColor #222
}

skinparam storage {
	BackgroundColor white
  	BorderColor #ff9800
	FontColor #ff9800
}

skinparam node {
	BackgroundColor white
	BorderColor #222
	FontColor #222
}

skinparam cloud {
	BackgroundColor white
	BorderColor lightskyblue
	FontColor #222
}

skinparam database {
	BackgroundColor  white
	BorderColor #1a78c2
	FontColor #222
}

skinparam actor {
	FontColor #222
}

skinparam class {
	HeaderBackgroundColor #2196F3-#1a78c2
	FontColor #2196F3
	BackgroundColor white
	BorderColor #1a78c2
	StereotypeFontColor #222
	BorderThickness 1
	AttributeFontColor #222
	AttributeFontSize 11
}

skinparam object {
	FontColor #4CAF50
	BackgroundColor white
	BorderColor #cccccc
	StereotypeFontColor #222
	BorderThickness 1
	AttributeFontColor #cccccc
	AttributeFontSize 11
}

skinparam usecase {
	BackgroundColor white
	BorderColor #cccccc
	BorderThickness 2
	FontColor #cccccc
	StereotypeFontColor #2196F3
}

skinparam rectangle {
	BackgroundColor white
	BorderColor #1a78c2
	BorderThickness 2
	FontColor #2196F3
	StereotypeFontColor #2196F3
}

skinparam package {
	BackgroundColor white
  	BorderColor #2196F3
	FontColor #2196F3
	BorderThickness 2
}

skinparam folder {
	BackgroundColor white
  	BorderColor #ff9800
	FontColor #ff9800
	BorderThickness 2
}

skinparam frame {
	BackgroundColor white
  	BorderColor #9C27B0
	FontColor #9C27B0
	BorderThickness 2
}

skinparam state {
	StartColor #9C27B0
	EndColor #9C27B0
	BackgroundColor white
	BorderColor #cccccc
	FontColor #9C27B0
	AttributeFontColor #cccccc
	AttributeFontSize 11
}

skinparam queue {
	BackgroundColor white
  	BorderColor #CC7A00
	FontColor #ff9800
}

skinparam card {
	BackgroundColor white
	BorderColor #9C27B0
	FontColor #9C27B0
}

skinparam file {
	BackgroundColor white
	BorderColor #666
	FontColor #666

}

skinparam stack {
	BackgroundColor white
	BorderColor #2196F3
	FontColor #2196F3
}

title State Diagram - materia-outline theme


state fork_state <<fork>>
[*] - -> fork_state
fork_state - -> State2
fork_state - -> State3

state join_state <<join>>
State2 - -> join_state
State3 - -> join_state
join_state - -> State4
State4 - -> Active

state Active {
  [*] -> NumLockOff
  NumLockOff - -> NumLockOn : EvNumLockPressed
  NumLockOn - -> NumLockOff : EvNumLockPressed
  - -
  [*] -> CapsLockOff
  CapsLockOff - -> CapsLockOn : EvCapsLockPressed
  CapsLockOn - -> CapsLockOff : EvCapsLockPressed
  - -
  [*] -> ScrollLockOff
  ScrollLockOff - -> ScrollLockOn : EvCapsLockPressed
  ScrollLockOn - -> ScrollLockOff : EvCapsLockPressed
}

@enduml

PlantUML version 1.2019.11(Sun Sep 22 03:02:15 PDT 2019)
(GPL source distribution)
Java Runtime: OpenJDK Runtime Environment
JVM: OpenJDK 64-Bit Server VM
Java Version: 11.0.4+11-post-Ubuntu-1ubuntu218.04.3
Operating System: Linux
Default Encoding: UTF-8
Language: en
Country: US
--></g></svg>