<?xml version="1.0" encoding="UTF-8" standalone="no"?><svg xmlns="http://www.w3.org/2000/svg" xmlns:xlink="http://www.w3.org/1999/xlink" contentScriptType="application/ecmascript" contentStyleType="text/css" height="518.75px" preserveAspectRatio="none" style="width:819px;height:518px;background:#000000;" version="1.1" viewBox="0 0 819 518" width="819.7917px" zoomAndPan="magnify"><defs/><g><rect fill="none" height="39.9028" rx="4.1667" ry="4.1667" style="stroke: none; stroke-width: 1.0416666666666667;" width="486.4583" x="169.7917" y="2.0833"/><text fill="#4E5D6C" font-family="Verdana" font-size="20.8333" lengthAdjust="spacingAndGlyphs" textLength="465.625" x="180.2083" y="30.3202">Component Diagram - cyborg-outline theme</text><!--MD5=[98956307d0c47524864de5bf9cdc747b]
cluster My Package--><path d="M18.75,62.2986 L103.125,62.2986 A6.25,6.25 0 0 1 107.2917,66.4653 L114.5833,87.9069 L410.4167,87.9069 A4.1667,4.1667 0 0 1 414.5833,92.0736 L414.5833,137.2986 A4.1667,4.1667 0 0 1 410.4167,141.4653 L18.75,141.4653 A4.1667,4.1667 0 0 1 14.5833,137.2986 L14.5833,66.4653 A4.1667,4.1667 0 0 1 18.75,62.2986 " fill="#000000" style="stroke: #DF691A; stroke-width: 1.5625;"/><line style="stroke: #DF691A; stroke-width: 1.5625;" x1="14.5833" x2="114.5833" y1="87.9069" y2="87.9069"/><text fill="#DF691A" font-family="Verdana" font-size="12.5" font-weight="bold" lengthAdjust="spacingAndGlyphs" textLength="82.2917" x="20.8333" y="79.0324">My Package</text><!--MD5=[994b84a7865cf3a30290d65f6358d5f5]
cluster My Node--><polygon fill="#000000" points="42.7083,184.1736,53.125,173.7569,268.75,173.7569,268.75,247.7153,258.3333,258.1319,42.7083,258.1319,42.7083,184.1736" style="stroke: #ABB6C2; stroke-width: 1.5625;"/><line style="stroke: #ABB6C2; stroke-width: 1.5625;" x1="258.3333" x2="267.7083" y1="184.1736" y2="174.7986"/><line style="stroke: #ABB6C2; stroke-width: 1.5625;" x1="42.7083" x2="258.3333" y1="184.1736" y2="184.1736"/><line style="stroke: #ABB6C2; stroke-width: 1.5625;" x1="258.3333" x2="258.3333" y1="184.1736" y2="258.1319"/><text fill="#ABB6C2" font-family="Verdana" font-size="12.5" font-weight="bold" lengthAdjust="spacingAndGlyphs" textLength="59.375" x="121.875" y="201.9491">My Node</text><!--MD5=[8f762177cf9f076b8ea6eac76c5df33e]
cluster My Cloud--><path d="M299.033,189.1915 C300.7363,183.376 304.4033,180.9858 309.8607,185.0966 C312.4813,177.7806 317.0924,177.8953 322.0182,182.8041 C324.1614,177.7388 329.0284,177.0598 332.3671,181.5029 C334.3551,176.1389 339.0839,175.5829 342.9797,179.2646 C346.7721,174.1771 351.4175,174.728 354.3,180.2367 C359.7023,175.7587 365.0379,177.132 366.6997,184.2398 C370.8268,179.8834 374.7349,180.4637 377.173,186.0237 C382.4905,180.3073 387.4718,180.4094 390.4616,188.2974 C399.278,191.7753 400.2097,196.6291 393.59,203.3213 C401.4084,206.0736 404.1245,212.5045 398.1712,219.2241 C403.6563,224.4868 403.9257,231.8158 395.2218,234.3032 C402.5458,242.4666 398.8736,247.9316 389.916,250.8853 C386.6374,255.6497 381.5667,256.0343 378.1781,251.0173 C376.0095,256.7861 372.8888,258.0331 367.7546,254.2553 C363.8856,259.8411 359.8442,259.5639 356.0826,254.1415 C352.235,260.3417 348.1421,260.93 343.2244,255.305 C340.2043,260.097 335.7022,259.4724 333.5318,254.4646 C329.8856,259.5664 325.1373,259.229 321.7244,254.1929 C317.0089,258.6172 312.9762,259.1125 309.6906,252.6171 C305.2793,258.2785 301.5012,256.4928 298.2324,251.3997 C289.3605,249.4305 287.6225,243.3805 292.5291,236.2307 C282.8903,233.1764 281.6539,226.8565 288.918,220.0337 C283.1005,213.693 283.9613,205.0397 293.9072,203.4379 C288.1485,195.9237 291.2522,191.8342 299.033,189.1915 " fill="#000000" style="stroke: #87CEFA; stroke-width: 1.5625;"/><text fill="#4E5D6C" font-family="Verdana" font-size="12.5" font-weight="bold" lengthAdjust="spacingAndGlyphs" textLength="62.5" x="311.4583" y="207.1574">My Cloud</text><!--MD5=[5435dd1da01795d79a1d1bdb7811705f]
cluster My Database--><path d="M287.5,280.5278 C287.5,270.1111 342.7083,270.1111 342.7083,270.1111 C342.7083,270.1111 397.9167,270.1111 397.9167,280.5278 L397.9167,496.1528 C397.9167,506.5694 342.7083,506.5694 342.7083,506.5694 C342.7083,506.5694 287.5,506.5694 287.5,496.1528 L287.5,280.5278 " fill="#000000" style="stroke: #E58748; stroke-width: 1.5625;"/><path d="M287.5,280.5278 C287.5,290.9444 342.7083,290.9444 342.7083,290.9444 C342.7083,290.9444 397.9167,290.9444 397.9167,280.5278 " fill="none" style="stroke: #E58748; stroke-width: 1.5625;"/><text fill="#4E5D6C" font-family="Verdana" font-size="12.5" font-weight="bold" lengthAdjust="spacingAndGlyphs" textLength="88.5417" x="298.4375" y="307.6782">My Database</text><!--MD5=[db3eb734e65e00defc1adec42c70b029]
cluster My folder--><path d="M300,315.9444 L366.6667,315.9444 A6.25,6.25 0 0 1 370.8333,320.1111 L378.125,341.5527 L385.4167,341.5527 A4.1667,4.1667 0 0 1 389.5833,345.7194 L389.5833,390.9444 A4.1667,4.1667 0 0 1 385.4167,395.1111 L300,395.1111 A4.1667,4.1667 0 0 1 295.8333,390.9444 L295.8333,320.1111 A4.1667,4.1667 0 0 1 300,315.9444 " fill="#000000" style="stroke: #F0AD4E; stroke-width: 1.5625;"/><line style="stroke: #F0AD4E; stroke-width: 1.5625;" x1="295.8333" x2="378.125" y1="341.5527" y2="341.5527"/><text fill="#F0AD4E" font-family="Verdana" font-size="12.5" font-weight="bold" lengthAdjust="spacingAndGlyphs" textLength="64.5833" x="302.0833" y="332.6782">My folder</text><!--MD5=[2f95c9c104e26437854e71862f3d840e]
cluster My Frame--><rect fill="#000000" height="79.1667" rx="4.1667" ry="4.1667" style="stroke: #5BC0DE; stroke-width: 1.5625;" width="93.75" x="295.8333" y="419.0694"/><path d="M378.125,420.1111 L378.125,431.1361 L367.7083,441.5527 L295.8333,441.5527 " fill="none" style="stroke: #5BC0DE; stroke-width: 1.5625;"/><text fill="#5BC0DE" font-family="Verdana" font-size="12.5" font-weight="bold" lengthAdjust="spacingAndGlyphs" textLength="67.7083" x="301.0417" y="434.7616">My Frame</text><!--MD5=[96f7e1299d4a43069e6ed32352fcac20]
entity HTTP--><ellipse cx="202.0833" cy="112.8194" fill="#000000" rx="8.3333" ry="8.3333" style="stroke: #D9534F; stroke-width: 2.0833333333333335;"/><text fill="#4E5D6C" font-family="Verdana" font-size="12.5" lengthAdjust="spacingAndGlyphs" textLength="32.2917" x="185.9375" y="145.1782">HTTP</text><!--MD5=[cbd7cda55f2530e2efe43ec72c097853]
entity First Component--><rect fill="#000000" height="40.1917" rx="4.1667" ry="4.1667" style="stroke: #4A934A; stroke-width: 1.5625;" width="133.3333" x="22.9167" y="92.5069"/><rect fill="#000000" height="5.2083" style="stroke: #4A934A; stroke-width: 1.5625;" width="10.4167" x="17.7083" y="97.7153"/><rect fill="#000000" height="5.2083" style="stroke: #4A934A; stroke-width: 1.5625;" width="10.4167" x="17.7083" y="122.2819"/><text fill="#5CB85C" font-family="Verdana" font-size="12.5" lengthAdjust="spacingAndGlyphs" textLength="108.3333" x="35.4167" y="117.5741">First Component</text><!--MD5=[b9d11f23832c1491231c5b33e55ab8c6]
entity Another Component--><rect fill="#000000" height="40.1917" rx="4.1667" ry="4.1667" style="stroke: #4A934A; stroke-width: 1.5625;" width="157.2917" x="248.4375" y="92.5069"/><rect fill="#000000" height="5.2083" style="stroke: #4A934A; stroke-width: 1.5625;" width="10.4167" x="243.2292" y="97.7153"/><rect fill="#000000" height="5.2083" style="stroke: #4A934A; stroke-width: 1.5625;" width="10.4167" x="243.2292" y="122.2819"/><text fill="#5CB85C" font-family="Verdana" font-size="12.5" lengthAdjust="spacingAndGlyphs" textLength="132.2917" x="260.9375" y="117.5741">Another Component</text><!--MD5=[76af18d92d7d7c0f7ebd8f4f605ac5aa]
entity FTP--><ellipse cx="60.4167" cy="229.4861" fill="#000000" rx="8.3333" ry="8.3333" style="stroke: #D9534F; stroke-width: 2.0833333333333335;"/><text fill="#4E5D6C" font-family="Verdana" font-size="12.5" lengthAdjust="spacingAndGlyphs" textLength="22.9167" x="48.9583" y="261.8449">FTP</text><!--MD5=[0e2cc1aee2c7f52697e111b4fb84546c]
entity Second Component--><rect fill="#000000" height="40.1917" rx="4.1667" ry="4.1667" style="stroke: #4A934A; stroke-width: 1.5625;" width="153.125" x="106.7708" y="209.1736"/><rect fill="#000000" height="5.2083" style="stroke: #4A934A; stroke-width: 1.5625;" width="10.4167" x="101.5625" y="214.3819"/><rect fill="#000000" height="5.2083" style="stroke: #4A934A; stroke-width: 1.5625;" width="10.4167" x="101.5625" y="238.9486"/><text fill="#5CB85C" font-family="Verdana" font-size="12.5" lengthAdjust="spacingAndGlyphs" textLength="128.125" x="119.2708" y="234.2407">Second Component</text><!--MD5=[243c1e580c31013c48b02624e18b25a7]
entity Example 1--><rect fill="#000000" height="40.1917" rx="4.1667" ry="4.1667" style="stroke: #4A934A; stroke-width: 1.5625;" width="92.7083" x="296.3542" y="209.1736"/><rect fill="#000000" height="5.2083" style="stroke: #4A934A; stroke-width: 1.5625;" width="10.4167" x="291.1458" y="214.3819"/><rect fill="#000000" height="5.2083" style="stroke: #4A934A; stroke-width: 1.5625;" width="10.4167" x="291.1458" y="238.9486"/><text fill="#5CB85C" font-family="Verdana" font-size="12.5" lengthAdjust="spacingAndGlyphs" textLength="67.7083" x="308.8542" y="234.2407">Example 1</text><!--MD5=[3e0e08c92570480402984701ab5a6d2d]
entity Folder 3--><rect fill="#000000" height="40.1917" rx="4.1667" ry="4.1667" style="stroke: #4A934A; stroke-width: 1.5625;" width="78.125" x="303.6458" y="346.1528"/><rect fill="#000000" height="5.2083" style="stroke: #4A934A; stroke-width: 1.5625;" width="10.4167" x="298.4375" y="351.3611"/><rect fill="#000000" height="5.2083" style="stroke: #4A934A; stroke-width: 1.5625;" width="10.4167" x="298.4375" y="375.9277"/><text fill="#5CB85C" font-family="Verdana" font-size="12.5" lengthAdjust="spacingAndGlyphs" textLength="53.125" x="316.1458" y="371.2199">Folder 3</text><!--MD5=[63877ed85df621d134a6c80fb52dad56]
entity Frame 4--><rect fill="#000000" height="40.1917" rx="4.1667" ry="4.1667" style="stroke: #4A934A; stroke-width: 1.5625;" width="78.125" x="303.6458" y="449.2778"/><rect fill="#000000" height="5.2083" style="stroke: #4A934A; stroke-width: 1.5625;" width="10.4167" x="298.4375" y="454.4861"/><rect fill="#000000" height="5.2083" style="stroke: #4A934A; stroke-width: 1.5625;" width="10.4167" x="298.4375" y="479.0527"/><text fill="#5CB85C" font-family="Verdana" font-size="12.5" lengthAdjust="spacingAndGlyphs" textLength="53.125" x="316.1458" y="474.3449">Frame 4</text><!--MD5=[4d6c9a8b502f46c0f85d26a51e5d57ce]
entity My Artifact--><rect fill="#000000" height="43.3167" rx="4.1667" ry="4.1667" style="stroke: #717D89; stroke-width: 1.5625;" width="103.125" x="442.1875" y="90.9444"/><polygon fill="#000000" points="527.6042,96.1528,527.6042,110.7361,540.1042,110.7361,540.1042,102.4028,533.8542,96.1528,527.6042,96.1528" style="stroke: #717D89; stroke-width: 1.5625;"/><line style="stroke: #717D89; stroke-width: 1.5625;" x1="533.8542" x2="533.8542" y1="96.1528" y2="102.4028"/><line style="stroke: #717D89; stroke-width: 1.5625;" x1="540.1042" x2="533.8542" y1="102.4028" y2="102.4028"/><text fill="#ABB6C2" font-family="Verdana" font-size="12.5" lengthAdjust="spacingAndGlyphs" textLength="67.7083" x="454.6875" y="119.1366">My Artifact</text><!--MD5=[6013850653c05993d855a7b82b2ebd6f]
entity My Storage--><rect fill="#000000" height="40.1917" rx="36.4583" ry="36.4583" style="stroke: #F3BD71; stroke-width: 1.5625;" width="98.9583" x="581.7708" y="92.5069"/><text fill="#F0AD4E" font-family="Verdana" font-size="12.5" lengthAdjust="spacingAndGlyphs" textLength="73.9583" x="594.2708" y="117.5741">My Storage</text><!--MD5=[decf897d207c1b699121f5d4005ef96e]
entity My Queue--><path d="M722.3958,97.7153 L802.6042,97.7153 C807.8125,97.7153 807.8125,112.6027 807.8125,112.6027 C807.8125,112.6027 807.8125,127.4902 802.6042,127.4902 L722.3958,127.4902 C717.1875,127.4902 717.1875,112.6027 717.1875,112.6027 C717.1875,112.6027 717.1875,97.7153 722.3958,97.7153 " fill="#000000" style="stroke: #F0AD4E; stroke-width: 1.5625;"/><path d="M802.6042,97.7153 C797.3958,97.7153 797.3958,112.6027 797.3958,112.6027 C797.3958,127.4902 802.6042,127.4902 802.6042,127.4902 " fill="none" style="stroke: #F0AD4E; stroke-width: 1.5625;"/><text fill="#F0AD4E" font-family="Verdana" font-size="12.5" lengthAdjust="spacingAndGlyphs" textLength="65.625" x="724.4792" y="117.5741">My Queue</text><!--MD5=[db0b4290d55c456da6f1e605315daa68]
entity My Interface--><ellipse cx="493.75" cy="229.4861" fill="#000000" rx="8.3333" ry="8.3333" style="stroke: #D9534F; stroke-width: 2.0833333333333335;"/><text fill="#4E5D6C" font-family="Verdana" font-size="12.5" lengthAdjust="spacingAndGlyphs" textLength="81.25" x="453.125" y="261.8449">My Interface</text><!--MD5=[c42dbb279bb2c76edeffd08640135261]
entity My Card--><rect fill="#000000" height="25.6083" rx="4.1667" ry="4.1667" style="stroke: #5BC0DE; stroke-width: 1.5625;" width="78.125" x="581.7708" y="216.4653"/><text fill="#5BC0DE" font-family="Verdana" font-size="12.5" lengthAdjust="spacingAndGlyphs" textLength="53.125" x="594.2708" y="234.2407">My Card</text><!--MD5=[4552e0ab931d4db86ba1ccdf7169c968]
entity My File--><path d="M696.875,213.3403 L696.875,245.1986 A4.1667,4.1667 0 0 0 701.0417,249.3652 L761.4583,249.3652 A4.1667,4.1667 0 0 0 765.625,245.1986 L765.625,219.5903 L755.2083,209.1736 L701.0417,209.1736 A4.1667,4.1667 0 0 0 696.875,213.3403 " fill="#000000" style="stroke: #ABB6C2; stroke-width: 1.5625;"/><path d="M755.2083,209.1736 L755.2083,215.4236 A4.1667,4.1667 0 0 0 759.375,219.5903 L765.625,219.5903 " fill="#000000" style="stroke: #ABB6C2; stroke-width: 1.5625;"/><text fill="#ABB6C2" font-family="Verdana" font-size="12.5" lengthAdjust="spacingAndGlyphs" textLength="43.75" x="709.375" y="234.2407">My File</text><!--MD5=[5a51615613d2b2569e36ac803df4b251]
entity My Stack--><rect fill="#000000" height="40.1917" rx="4.1667" ry="4.1667" style="stroke: none; stroke-width: 1.5625;" width="82.2917" x="452.6042" y="346.1528"/><path d="M436.9792,346.1528 L448.4375,346.1528 A4.1667,4.1667 0 0 1 452.6042,350.3194 L452.6042,382.1777 A4.1667,4.1667 0 0 0 456.7708,386.3444 L530.7292,386.3444 A4.1667,4.1667 0 0 0 534.8958,382.1777 L534.8958,350.3194 A4.1667,4.1667 0 0 1 539.0625,346.1528 L550.5208,346.1528 " fill="none" style="stroke: #E58748; stroke-width: 1.5625;"/><text fill="#DF691A" font-family="Verdana" font-size="12.5" lengthAdjust="spacingAndGlyphs" textLength="57.2917" x="465.1042" y="371.2199">My Stack</text><!--MD5=[46d996859f59e5baf77956ce93023cee]
link HTTP to First Component--><path d="M192.4428,112.8194 C180.422,112.8194 168.401,112.8194 156.3802,112.8194 " fill="none" id="HTTP-First Component" style="stroke: #DF691A; stroke-width: 3.125;"/><!--MD5=[1966a42bb49d59057147dbda06282f4b]
link FTP to Second Component--><path d="M70.0196,229.4861 C82.2657,229.4861 94.5119,229.4861 106.758,229.4861 " fill="none" id="FTP-Second Component" style="stroke: #DF691A; stroke-width: 3.125;"/><!--MD5=[d3aefbd8005e27b21e7ce98ddd948193]
link First Component to FTP--><path d="M84.5029,133.1412 C78.6598,156.5137 69.2117,194.3062 64.0569,214.9254 " fill="none" id="First Component-&gt;FTP" style="stroke: #DF691A; stroke-width: 3.125;"/><polygon fill="#DF691A" points="62.7834,220.0191,69.0995,211.9346,64.0467,214.9663,61.015,209.9134,62.7834,220.0191" style="stroke: #DF691A; stroke-width: 3.125;"/><!--MD5=[efc1ffe8b578a0fb156c7bce303319bb]
link Another Component to Example 1--><path d="M329.805,133.1412 C332.4327,152.7613 336.4214,182.5431 339.2678,203.7972 " fill="none" id="Another Component-&gt;Example 1" style="stroke: #DF691A; stroke-width: 3.125;"/><polygon fill="#DF691A" points="339.9654,209.0058,342.8507,199.1606,339.274,203.8435,334.5911,200.2668,339.9654,209.0058" style="stroke: #DF691A; stroke-width: 3.125;"/><!--MD5=[7ec8393a78a133520e8846dd05a7857a]
link Example 1 to Folder 3--><path d="M342.7083,249.9933 C342.7083,274.1018 342.7083,314.1506 342.7083,340.4298 " fill="none" id="Example 1-&gt;Folder 3" style="stroke: #DF691A; stroke-width: 3.125;"/><polygon fill="#DF691A" points="342.7083,345.8179,346.875,336.4429,342.7083,340.6095,338.5417,336.4429,342.7083,345.8179" style="stroke: #DF691A; stroke-width: 3.125;"/><!--MD5=[b96c7096199393c1414a8b4e9ed2c30f]
link Folder 3 to Frame 4--><path d="M342.7083,386.8394 C342.7083,403.2237 342.7083,426.3378 342.7083,443.9743 " fill="none" id="Folder 3-&gt;Frame 4" style="stroke: #DF691A; stroke-width: 3.125;"/><polygon fill="#DF691A" points="342.7083,449.2584,346.875,439.8834,342.7083,444.05,338.5417,439.8834,342.7083,449.2584" style="stroke: #DF691A; stroke-width: 3.125;"/><!--MD5=[b21a3c93c2a22c7ef4934ace81b9a2fe]
link My Artifact to My Storage--><!--MD5=[e181977624df3f2540e75050355d9c90]
link My Storage to My Queue--><!--MD5=[756be6e13c059af04edf2b7b91188131]
link My Artifact to My Interface--><!--MD5=[9bfee3aea78949ae207e8bd3b67fed50]
link My Interface to My Card--><!--MD5=[7d5148706a659d88e9a451ba2a45522c]
link My Card to My File--><!--MD5=[25b27bb9c6f1602048cde482562a8061]
link My Interface to My Stack--><!--MD5=[4c1206664dc3479101e68b636df88b16]
@startuml



skinparam backgroundColor black






skinparam defaultFontName       "Verdana"
skinparam defaultFontSize       12
skinparam dpi                   100
skinparam shadowing             false
skinparam roundcorner           8
skinparam ParticipantPadding    10
skinparam BoxPadding            2
skinparam Padding               2
skinparam TitleFontColor	    #4E5D6C
skinparam TitleFontSize	    	20
skinparam TitleBorderThickness 	0
skinparam ArrowColor            #4E5D6C


skinparam legend {
	BackgroundColor black
	BorderColor #717d89
	FontColor #abb6c2
}

skinparam activity {
	TitleFontSize 20
	TitleFontColor #4E5D6C
	FontColor #DF691A
	BorderColor #DF691A
	BackgroundColor black
	BarColor #5cb85c
	StartColor #5bc0de
	EndColor #5bc0de
	DiamondBackgroundColor black
  	DiamondBorderColor #717d89
  	DiamondFontColor #717d89
}

skinparam sequence {
	BorderColor #DF691A
	TitleFontSize 20
	TitleFontColor #4E5D6C
	BackgroundColor black
	StartColor #DF691A
	EndColor #DF691A
    ParticipantBackgroundColor black
    ParticipantBorderColor #DF691A
	ParticipantBorderThickness 1
	ParticipantFontColor #DF691A
	ActorBackgroundColor black
    ActorBorderColor #DF691A
	ActorFontColor #DF691A
	ArrowThickness 3
	ArrowColor #DF691A
	ArrowFontColor #DF691A
	BoxBackgroundColor black
	BoxBorderColor #4E5D6C
	BoxFontColor $DARk
	LifeLineBorderColor #4E5D6C
	LifeLineBorderThickness 2
	LifeLineBackgroundColor black
	GroupBorderColor #4E5D6C
	GroupFontColor #4E5D6C
	GroupHeaderFontColor #5bc0de
	DividerBackgroundColor black
    DividerBorderColor #4E5D6C
    DividerBorderThickness 2
    DividerFontColor #abb6c2
	ReferenceBackgroundColor black
	ReferenceBorderColor #abb6c2
	ReferenceFontColor #abb6c2
	ReferenceHeaderFontColor #5bc0de
}

skinparam partition {
	BorderColor #DF691A
	FontColor #DF691A
	BackgroundColor black
}

skinparam collections {
	BackgroundColor black
	BorderColor #e58748
}

skinparam control {
	BackgroundColor  black
	BorderColor #e58748
	FontColor #4E5D6C
}

skinparam entity {
	BackgroundColor  black
	BorderColor #e58748
	FontColor #4E5D6C
}

skinparam boundary {
	BackgroundColor  black
	BorderColor #e58748
	FontColor #4E5D6C
}

skinparam agent {
	BackgroundColor black
	BorderColor #C08A3E
	FontColor #4E5D6C
}

skinparam note {
	BorderThickness 1
	BackgroundColor black
	BorderColor #7ccde5
	FontColor #7ccde5
}

skinparam artifact {
	BackgroundColor black
	BorderColor #717d89
	FontColor #abb6c2
}

skinparam component {
	BackgroundColor  black
	BorderColor  #4a934a
	FontColor #5cb85c
}

skinparam interface {
	BackgroundColor  black
	BorderColor  #d9534f
	FontColor #4E5D6C
}

skinparam storage {
	BackgroundColor black
  	BorderColor #f3bd71
	FontColor #f0ad4e
}

skinparam node {
	BackgroundColor  black
	BorderColor #abb6c2
	FontColor #abb6c2
}

skinparam cloud {
	BackgroundColor black
	BorderColor lightskyblue
	FontColor #4E5D6C
}

skinparam database {
	BackgroundColor  black
	BorderColor #e58748
	FontColor #4E5D6C
}

skinparam actor {
	FontColor #4E5D6C
}

skinparam class {
	HeaderBackgroundColor #b25415
	FontColor #DF691A
	BackgroundColor black
	BorderColor #e58748
	StereotypeFontColor #4E5D6C
	BorderThickness 1
	AttributeFontColor #abb6c2
	AttributeFontSize 11
}

skinparam object {
	FontColor #5cb85c
	BackgroundColor black
	BorderColor #717d89
	StereotypeFontColor #4E5D6C
	BorderThickness 1
	AttributeFontColor #717d89
	AttributeFontSize 11
}

skinparam usecase {
	BackgroundColor black
	BorderColor #4E5D6C
	BorderThickness 2
	FontColor #717d89
	StereotypeFontColor #DF691A
}

skinparam rectangle {
	BackgroundColor black
	BorderColor #b25415
	BorderThickness 2
	FontColor #DF691A
	StereotypeFontColor #DF691A
}

skinparam package {
	BackgroundColor black
  	BorderColor #DF691A
	FontColor #DF691A
	BorderThickness 2
}

skinparam folder {
	BackgroundColor black
  	BorderColor #f0ad4e
	FontColor #f0ad4e
	BorderThickness 2
}

skinparam frame {
	BackgroundColor black
  	BorderColor #5bc0de
	FontColor #5bc0de
	BorderThickness 2
}

skinparam state {
	StartColor #5bc0de
	EndColor #5bc0de
	BackgroundColor black
	BorderColor #717d89
	FontColor #5bc0de
	AttributeFontColor #717d89
	AttributeFontSize 11
}

skinparam queue {
	BackgroundColor black
  	BorderColor #f0ad4e
	FontColor #f0ad4e
}

skinparam card {
	BackgroundColor black
	BorderColor #5bc0de
	FontColor #5bc0de
}

skinparam file {
	BackgroundColor black
	BorderColor #abb6c2
	FontColor #abb6c2
}

skinparam stack {
	BackgroundColor black
	BorderColor #e58748
	FontColor #DF691A
}

title Component Diagram - cyborg-outline theme


package "My Package" {
  HTTP - [First Component]
  [Another Component]
}
 
node "My Node" {
  FTP - [Second Component]
  [First Component] - -> FTP
} 

cloud "My Cloud" {
  [Example 1]
}


database "My Database" {
  folder "My folder" {
	[Folder 3]
  }
  frame "My Frame" {
	[Frame 4]
  }
}

artifact "My Artifact"
storage "My Storage"
queue "My Queue"
interface "My Interface"
card "My Card"
file "My File"
stack "My Stack"

[Another Component] - -> [Example 1]
[Example 1] - -> [Folder 3]
[Folder 3] - -> [Frame 4]

@enduml

PlantUML version 1.2019.11(Sun Sep 22 03:02:15 PDT 2019)
(GPL source distribution)
Java Runtime: OpenJDK Runtime Environment
JVM: OpenJDK 64-Bit Server VM
Java Version: 11.0.4+11-post-Ubuntu-1ubuntu218.04.3
Operating System: Linux
Default Encoding: UTF-8
Language: en
Country: US
--></g></svg>