<?xml version="1.0" encoding="UTF-8" standalone="no"?><svg xmlns="http://www.w3.org/2000/svg" xmlns:xlink="http://www.w3.org/1999/xlink" contentScriptType="application/ecmascript" contentStyleType="text/css" height="1430.2083px" preserveAspectRatio="none" style="width:1362px;height:1430px;background:#000000;" version="1.1" viewBox="0 0 1362 1430" width="1362.5px" zoomAndPan="magnify"><defs/><g><rect fill="#000000" height="46.1528" rx="4.1667" ry="4.1667" style="stroke: #717D89; stroke-width: 1.0416666666666667;" width="511.4583" x="420.3125" y="30.8167"/><text fill="#DF691A" font-family="Verdana" font-size="20.8333" lengthAdjust="spacingAndGlyphs" textLength="484.375" x="433.8542" y="62.1785">Sequence Diagram - superhero-outline theme</text><rect fill="#000000" height="1311.1328" rx="4.1667" ry="4.1667" style="stroke: #4E5D6C; stroke-width: 1.0416666666666667;" width="356.25" x="951.0417" y="88.4277"/><text fill="#FFFFFF" font-family="Verdana" font-size="12.5" font-weight="bold" lengthAdjust="spacingAndGlyphs" textLength="111.4583" x="1073.4375" y="106.2032">Internal Service</text><rect fill="#000000" height="242.7999" style="stroke: #4E5D6C; stroke-width: 1.0416666666666667;" width="10.4167" x="392.1875" y="341.9027"/><rect fill="#000000" height="475.1831" rx="4.1667" ry="4.1667" style="stroke: #4E5D6C; stroke-width: 2.0833333333333335;" width="1320.8333" x="13.5417" y="735.4858"/><rect fill="#000000" height="242.7999" style="stroke: none; stroke-width: 1.0416666666666667;" width="1320.8333" x="13.5417" y="899.9858"/><rect fill="#000000" height="120.1416" rx="4.1667" ry="4.1667" style="stroke: #4E5D6C; stroke-width: 2.0833333333333335;" width="1300" x="23.9583" y="1015.3524"/><rect fill="#000000" height="77.8666" rx="4.1667" ry="4.1667" style="stroke: #4E5D6C; stroke-width: 2.0833333333333335;" width="1279.1667" x="34.375" y="1050.3357"/><rect fill="#000000" height="67.8833" style="stroke: none; stroke-width: 1.0416666666666667;" width="1320.8333" x="13.5417" y="1142.7856"/><line style="stroke: #4E5D6C; stroke-width: 1.0416666666666667;" x1="68.75" x2="68.75" y1="178.6194" y2="593.0359"/><line style="stroke: #4E5D6C; stroke-width: 1.0416666666666667; stroke-dasharray: 1.0,4.0;" x1="68.75" x2="68.75" y1="593.0359" y2="647.8109"/><line style="stroke: #4E5D6C; stroke-width: 1.0416666666666667;" x1="68.75" x2="68.75" y1="647.8109" y2="1305.2022"/><line style="stroke: #4E5D6C; stroke-width: 1.0416666666666667;" x1="241.6667" x2="241.6667" y1="178.6194" y2="593.0359"/><line style="stroke: #4E5D6C; stroke-width: 1.0416666666666667; stroke-dasharray: 1.0,4.0;" x1="241.6667" x2="241.6667" y1="593.0359" y2="647.8109"/><line style="stroke: #4E5D6C; stroke-width: 1.0416666666666667;" x1="241.6667" x2="241.6667" y1="647.8109" y2="1305.2022"/><line style="stroke: #4E5D6C; stroke-width: 1.0416666666666667;" x1="396.875" x2="396.875" y1="178.6194" y2="593.0359"/><line style="stroke: #4E5D6C; stroke-width: 1.0416666666666667; stroke-dasharray: 1.0,4.0;" x1="396.875" x2="396.875" y1="593.0359" y2="647.8109"/><line style="stroke: #4E5D6C; stroke-width: 1.0416666666666667;" x1="396.875" x2="396.875" y1="647.8109" y2="1305.2022"/><line style="stroke: #4E5D6C; stroke-width: 1.0416666666666667;" x1="550" x2="550" y1="178.6194" y2="593.0359"/><line style="stroke: #4E5D6C; stroke-width: 1.0416666666666667; stroke-dasharray: 1.0,4.0;" x1="550" x2="550" y1="593.0359" y2="647.8109"/><line style="stroke: #4E5D6C; stroke-width: 1.0416666666666667;" x1="550" x2="550" y1="647.8109" y2="1305.2022"/><line style="stroke: #4E5D6C; stroke-width: 1.0416666666666667;" x1="722.9167" x2="722.9167" y1="178.6194" y2="593.0359"/><line style="stroke: #4E5D6C; stroke-width: 1.0416666666666667; stroke-dasharray: 1.0,4.0;" x1="722.9167" x2="722.9167" y1="593.0359" y2="647.8109"/><line style="stroke: #4E5D6C; stroke-width: 1.0416666666666667;" x1="722.9167" x2="722.9167" y1="647.8109" y2="1305.2022"/><line style="stroke: #4E5D6C; stroke-width: 1.0416666666666667;" x1="830.2083" x2="830.2083" y1="178.6194" y2="593.0359"/><line style="stroke: #4E5D6C; stroke-width: 1.0416666666666667; stroke-dasharray: 1.0,4.0;" x1="830.2083" x2="830.2083" y1="593.0359" y2="647.8109"/><line style="stroke: #4E5D6C; stroke-width: 1.0416666666666667;" x1="830.2083" x2="830.2083" y1="647.8109" y2="1305.2022"/><line style="stroke: #4E5D6C; stroke-width: 1.0416666666666667;" x1="1021.875" x2="1021.875" y1="178.6194" y2="593.0359"/><line style="stroke: #4E5D6C; stroke-width: 1.0416666666666667; stroke-dasharray: 1.0,4.0;" x1="1021.875" x2="1021.875" y1="593.0359" y2="647.8109"/><line style="stroke: #4E5D6C; stroke-width: 1.0416666666666667;" x1="1021.875" x2="1021.875" y1="647.8109" y2="1305.2022"/><line style="stroke: #4E5D6C; stroke-width: 1.0416666666666667;" x1="1201.0417" x2="1201.0417" y1="178.6194" y2="593.0359"/><line style="stroke: #4E5D6C; stroke-width: 1.0416666666666667; stroke-dasharray: 1.0,4.0;" x1="1201.0417" x2="1201.0417" y1="593.0359" y2="647.8109"/><line style="stroke: #4E5D6C; stroke-width: 1.0416666666666667;" x1="1201.0417" x2="1201.0417" y1="647.8109" y2="1305.2022"/><text fill="#DF691A" font-family="Verdana" font-size="12.5" lengthAdjust="spacingAndGlyphs" textLength="32.2917" x="50" y="170.7865">Foo1</text><ellipse cx="69.2708" cy="97.8027" fill="#000000" rx="8.3333" ry="8.3333" style="stroke: #E58748; stroke-width: 2.0833333333333335;"/><path d="M69.2708,106.1361 L69.2708,134.2611 M55.7292,114.4694 L82.8125,114.4694 M69.2708,134.2611 L55.7292,149.8861 M69.2708,134.2611 L82.8125,149.8861 " fill="none" style="stroke: #E58748; stroke-width: 2.0833333333333335;"/><text fill="#DF691A" font-family="Verdana" font-size="12.5" lengthAdjust="spacingAndGlyphs" textLength="32.2917" x="50" y="1321.936">Foo1</text><ellipse cx="69.2708" cy="1340.1855" fill="#000000" rx="8.3333" ry="8.3333" style="stroke: #E58748; stroke-width: 2.0833333333333335;"/><path d="M69.2708,1348.5189 L69.2708,1376.6439 M55.7292,1356.8522 L82.8125,1356.8522 M69.2708,1376.6439 L55.7292,1392.2689 M69.2708,1376.6439 L82.8125,1392.2689 " fill="none" style="stroke: #E58748; stroke-width: 2.0833333333333335;"/><text fill="#DF691A" font-family="Verdana" font-size="12.5" lengthAdjust="spacingAndGlyphs" textLength="32.2917" x="222.9167" y="170.7865">Foo2</text><path d="M220.8333,123.8444 L220.8333,148.8444 M220.8333,136.3444 L238.5417,136.3444 " fill="none" style="stroke: #E58748; stroke-width: 2.0833333333333335;"/><ellipse cx="251.0417" cy="136.3444" fill="#000000" rx="12.5" ry="12.5" style="stroke: #E58748; stroke-width: 2.0833333333333335;"/><text fill="#DF691A" font-family="Verdana" font-size="12.5" lengthAdjust="spacingAndGlyphs" textLength="32.2917" x="222.9167" y="1321.936">Foo2</text><path d="M220.8333,1333.9355 L220.8333,1358.9355 M220.8333,1346.4355 L238.5417,1346.4355 " fill="none" style="stroke: #E58748; stroke-width: 2.0833333333333335;"/><ellipse cx="251.0417" cy="1346.4355" fill="#000000" rx="12.5" ry="12.5" style="stroke: #E58748; stroke-width: 2.0833333333333335;"/><text fill="#DF691A" font-family="Verdana" font-size="12.5" lengthAdjust="spacingAndGlyphs" textLength="32.2917" x="378.125" y="170.7865">Foo3</text><ellipse cx="397.3958" cy="136.3444" fill="#000000" rx="12.5" ry="12.5" style="stroke: #E58748; stroke-width: 2.0833333333333335;"/><polygon fill="#E58748" points="393.2292,123.8444,399.4792,118.6361,397.3958,123.8444,399.4792,129.0527,393.2292,123.8444" style="stroke: #E58748; stroke-width: 1.0416666666666667;"/><text fill="#DF691A" font-family="Verdana" font-size="12.5" lengthAdjust="spacingAndGlyphs" textLength="32.2917" x="378.125" y="1321.936">Foo3</text><ellipse cx="397.3958" cy="1346.4355" fill="#000000" rx="12.5" ry="12.5" style="stroke: #E58748; stroke-width: 2.0833333333333335;"/><polygon fill="#E58748" points="393.2292,1333.9355,399.4792,1328.7272,397.3958,1333.9355,399.4792,1339.1439,393.2292,1333.9355" style="stroke: #E58748; stroke-width: 1.0416666666666667;"/><text fill="#DF691A" font-family="Verdana" font-size="12.5" lengthAdjust="spacingAndGlyphs" textLength="32.2917" x="531.25" y="170.7865">Foo4</text><ellipse cx="550.5208" cy="136.3444" fill="#000000" rx="12.5" ry="12.5" style="stroke: #E58748; stroke-width: 2.0833333333333335;"/><line style="stroke: #E58748; stroke-width: 2.0833333333333335;" x1="538.0208" x2="563.0208" y1="150.9277" y2="150.9277"/><text fill="#DF691A" font-family="Verdana" font-size="12.5" lengthAdjust="spacingAndGlyphs" textLength="32.2917" x="531.25" y="1321.936">Foo4</text><ellipse cx="550.5208" cy="1346.4355" fill="#000000" rx="12.5" ry="12.5" style="stroke: #E58748; stroke-width: 2.0833333333333335;"/><line style="stroke: #E58748; stroke-width: 2.0833333333333335;" x1="538.0208" x2="563.0208" y1="1361.0189" y2="1361.0189"/><text fill="#DF691A" font-family="Verdana" font-size="12.5" lengthAdjust="spacingAndGlyphs" textLength="32.2917" x="704.1667" y="170.7865">Foo5</text><path d="M704.6875,115.5111 C704.6875,105.0944 723.4375,105.0944 723.4375,105.0944 C723.4375,105.0944 742.1875,105.0944 742.1875,115.5111 L742.1875,142.5944 C742.1875,153.0111 723.4375,153.0111 723.4375,153.0111 C723.4375,153.0111 704.6875,153.0111 704.6875,142.5944 L704.6875,115.5111 " fill="#000000" style="stroke: #E58748; stroke-width: 1.5625;"/><path d="M704.6875,115.5111 C704.6875,125.9277 723.4375,125.9277 723.4375,125.9277 C723.4375,125.9277 742.1875,125.9277 742.1875,115.5111 " fill="none" style="stroke: #E58748; stroke-width: 1.5625;"/><text fill="#DF691A" font-family="Verdana" font-size="12.5" lengthAdjust="spacingAndGlyphs" textLength="32.2917" x="704.1667" y="1321.936">Foo5</text><path d="M704.6875,1340.1855 C704.6875,1329.7689 723.4375,1329.7689 723.4375,1329.7689 C723.4375,1329.7689 742.1875,1329.7689 742.1875,1340.1855 L742.1875,1367.2689 C742.1875,1377.6855 723.4375,1377.6855 723.4375,1377.6855 C723.4375,1377.6855 704.6875,1377.6855 704.6875,1367.2689 L704.6875,1340.1855 " fill="#000000" style="stroke: #E58748; stroke-width: 1.5625;"/><path d="M704.6875,1340.1855 C704.6875,1350.6022 723.4375,1350.6022 723.4375,1350.6022 C723.4375,1350.6022 742.1875,1350.6022 742.1875,1340.1855 " fill="none" style="stroke: #E58748; stroke-width: 1.5625;"/><rect fill="#000000" height="40.1917" rx="4.1667" ry="4.1667" style="stroke: #E58748; stroke-width: 1.5625;" width="57.2917" x="804.1667" y="133.2194"/><rect fill="#000000" height="40.1917" rx="4.1667" ry="4.1667" style="stroke: #E58748; stroke-width: 1.5625;" width="57.2917" x="800" y="137.3861"/><text fill="#DF691A" font-family="Verdana" font-size="12.5" lengthAdjust="spacingAndGlyphs" textLength="32.2917" x="812.5" y="162.4532">Foo6</text><rect fill="#000000" height="40.1917" rx="4.1667" ry="4.1667" style="stroke: #E58748; stroke-width: 1.5625;" width="57.2917" x="804.1667" y="1304.1606"/><rect fill="#000000" height="40.1917" rx="4.1667" ry="4.1667" style="stroke: #E58748; stroke-width: 1.5625;" width="57.2917" x="800" y="1308.3272"/><text fill="#DF691A" font-family="Verdana" font-size="12.5" lengthAdjust="spacingAndGlyphs" textLength="32.2917" x="812.5" y="1333.3944">Foo6</text><rect fill="#000000" height="40.1917" rx="4.1667" ry="4.1667" style="stroke: #E58748; stroke-width: 1.5625;" width="50" x="996.875" y="137.3861"/><text fill="#DF691A" font-family="Verdana" font-size="12.5" lengthAdjust="spacingAndGlyphs" textLength="25" x="1009.375" y="162.4532">Bob</text><rect fill="#000000" height="40.1917" rx="4.1667" ry="4.1667" style="stroke: #E58748; stroke-width: 1.5625;" width="50" x="996.875" y="1304.1606"/><text fill="#DF691A" font-family="Verdana" font-size="12.5" lengthAdjust="spacingAndGlyphs" textLength="25" x="1009.375" y="1329.2277">Bob</text><rect fill="#000000" height="55.3833" rx="4.1667" ry="4.1667" style="stroke: #E58748; stroke-width: 1.5625;" width="120.8333" x="1140.625" y="122.1944"/><ellipse cx="1158.3333" cy="139.9028" fill="#ADD1B2" rx="10.4167" ry="10.4167" style="stroke: #E58748; stroke-width: 1.0416666666666667;"/><path d="M1160.2376,144.3298 Q1159.8145,144.5414 1159.3424,144.6554 Q1158.8704,144.7693 1158.3659,144.7693 Q1156.5104,144.7693 1155.5339,143.5649 Q1154.5736,142.3442 1154.5736,140.0492 Q1154.5736,137.738 1155.5339,136.5336 Q1156.5104,135.3129 1158.3659,135.3129 Q1158.8704,135.3129 1159.3424,135.4268 Q1159.8307,135.5245 1160.2376,135.7524 L1160.2376,137.7543 Q1159.7819,137.3311 1159.3424,137.1358 Q1158.903,136.9242 1158.4473,136.9242 Q1157.4544,136.9242 1156.9499,137.7218 Q1156.4453,138.503 1156.4453,140.0492 Q1156.4453,141.5792 1156.9499,142.3604 Q1157.4544,143.1417 1158.4473,143.1417 Q1158.903,143.1417 1159.3424,142.9464 Q1159.7819,142.7511 1160.2376,142.3279 L1160.2376,144.3298 Z "/><text fill="#000000" font-family="Verdana" font-size="12.5" font-style="italic" lengthAdjust="spacingAndGlyphs" textLength="68.75" x="1180.2083" y="147.2616">«Testable»</text><text fill="#DF691A" font-family="Verdana" font-size="12.5" lengthAdjust="spacingAndGlyphs" textLength="29.1667" x="1200" y="162.4532">Alice</text><rect fill="#000000" height="55.3833" rx="4.1667" ry="4.1667" style="stroke: #E58748; stroke-width: 1.5625;" width="120.8333" x="1140.625" y="1304.1606"/><ellipse cx="1158.3333" cy="1321.8689" fill="#ADD1B2" rx="10.4167" ry="10.4167" style="stroke: #E58748; stroke-width: 1.0416666666666667;"/><path d="M1160.2376,1326.296 Q1159.8145,1326.5076 1159.3424,1326.6215 Q1158.8704,1326.7354 1158.3659,1326.7354 Q1156.5104,1326.7354 1155.5339,1325.531 Q1154.5736,1324.3103 1154.5736,1322.0154 Q1154.5736,1319.7042 1155.5339,1318.4998 Q1156.5104,1317.2791 1158.3659,1317.2791 Q1158.8704,1317.2791 1159.3424,1317.393 Q1159.8307,1317.4906 1160.2376,1317.7185 L1160.2376,1319.7205 Q1159.7819,1319.2973 1159.3424,1319.102 Q1158.903,1318.8904 1158.4473,1318.8904 Q1157.4544,1318.8904 1156.9499,1319.6879 Q1156.4453,1320.4692 1156.4453,1322.0154 Q1156.4453,1323.5453 1156.9499,1324.3266 Q1157.4544,1325.1078 1158.4473,1325.1078 Q1158.903,1325.1078 1159.3424,1324.9125 Q1159.7819,1324.7172 1160.2376,1324.294 L1160.2376,1326.296 Z "/><text fill="#000000" font-family="Verdana" font-size="12.5" font-style="italic" lengthAdjust="spacingAndGlyphs" textLength="68.75" x="1180.2083" y="1329.2277">«Testable»</text><text fill="#DF691A" font-family="Verdana" font-size="12.5" lengthAdjust="spacingAndGlyphs" textLength="29.1667" x="1200" y="1344.4194">Alice</text><rect fill="#000000" height="242.7999" style="stroke: #4E5D6C; stroke-width: 1.0416666666666667;" width="10.4167" x="392.1875" y="341.9027"/><rect fill="#000000" height="3.125" style="stroke: #000000; stroke-width: 1.0416666666666667;" width="1346.875" x="3.125" y="215.3819"/><line style="stroke: #4E5D6C; stroke-width: 1.0416666666666667;" x1="3.125" x2="1350" y1="215.3819" y2="215.3819"/><line style="stroke: #4E5D6C; stroke-width: 1.0416666666666667;" x1="3.125" x2="1350" y1="218.5069" y2="218.5069"/><rect fill="#000000" height="33.9417" style="stroke: #4E5D6C; stroke-width: 2.0833333333333335;" width="115.625" x="618.75" y="199.4527"/><text fill="#ABB6C2" font-family="Verdana" font-size="12.5" font-weight="bold" lengthAdjust="spacingAndGlyphs" textLength="86.4583" x="630.2083" y="221.3949">Initialization</text><polygon fill="#DF691A" points="229.6875,271.5027,240.1042,275.6694,229.6875,279.836,233.8542,275.6694" style="stroke: #DF691A; stroke-width: 1.0416666666666667;"/><line style="stroke: #DF691A; stroke-width: 3.125;" x1="69.2708" x2="235.9375" y1="275.6694" y2="275.6694"/><text fill="#FFFFFF" font-family="Verdana" font-size="12.5" font-weight="bold" lengthAdjust="spacingAndGlyphs" textLength="40.625" x="81.7708" y="265.7532">[001]</text><text fill="#FFFFFF" font-family="Verdana" font-size="12.5" lengthAdjust="spacingAndGlyphs" textLength="82.2917" x="136.9792" y="265.7532">To boundary</text><polygon fill="#DF691A" points="379.6875,337.736,390.1042,341.9027,379.6875,346.0693,383.8542,341.9027" style="stroke: #DF691A; stroke-width: 1.0416666666666667;"/><line style="stroke: #DF691A; stroke-width: 3.125;" x1="242.1875" x2="385.9375" y1="341.9027" y2="341.9027"/><text fill="#FFFFFF" font-family="Verdana" font-size="12.5" font-weight="bold" lengthAdjust="spacingAndGlyphs" textLength="40.625" x="254.6875" y="331.9865">[002]</text><text fill="#FFFFFF" font-family="Verdana" font-size="12.5" lengthAdjust="spacingAndGlyphs" textLength="64.5833" x="309.8958" y="331.9865">To control</text><rect fill="#000000" height="76.825" style="stroke: #ABB6C2; stroke-width: 2.0833333333333335;" width="228.125" x="522.9167" y="350.236"/><polygon fill="#000000" points="522.9167,350.236,600,350.236,600,366.9027,589.5833,377.3193,522.9167,377.3193,522.9167,350.236" style="stroke: #ABB6C2; stroke-width: 2.0833333333333335;"/><text fill="#5BC0DE" font-family="Verdana" font-size="12.5" font-weight="bold" lengthAdjust="spacingAndGlyphs" textLength="19.7917" x="541.6667" y="370.0948">ref</text><text fill="#ABB6C2" font-family="Verdana" font-size="12.5" lengthAdjust="spacingAndGlyphs" textLength="94.7917" x="589.5833" y="399.2615">This can be on</text><text fill="#ABB6C2" font-family="Verdana" font-size="12.5" lengthAdjust="spacingAndGlyphs" textLength="82.2917" x="589.5833" y="414.4531">several lines</text><polygon fill="#DF691A" points="538.0208,459.9609,548.4375,464.1276,538.0208,468.2943,542.1875,464.1276" style="stroke: #DF691A; stroke-width: 1.0416666666666667;"/><line style="stroke: #DF691A; stroke-width: 3.125;" x1="402.6042" x2="544.2708" y1="464.1276" y2="464.1276"/><text fill="#FFFFFF" font-family="Verdana" font-size="12.5" font-weight="bold" lengthAdjust="spacingAndGlyphs" textLength="40.625" x="415.1042" y="454.2114">[003]</text><text fill="#FFFFFF" font-family="Verdana" font-size="12.5" lengthAdjust="spacingAndGlyphs" textLength="57.2917" x="470.3125" y="454.2114">To entity</text><polygon fill="#DF691A" points="710.9375,500.1526,721.3542,504.3193,710.9375,508.4859,715.1042,504.3193" style="stroke: #DF691A; stroke-width: 1.0416666666666667;"/><line style="stroke: #DF691A; stroke-width: 3.125;" x1="550.5208" x2="717.1875" y1="504.3193" y2="504.3193"/><text fill="#FFFFFF" font-family="Verdana" font-size="12.5" font-weight="bold" lengthAdjust="spacingAndGlyphs" textLength="40.625" x="563.0208" y="494.4031">[004]</text><text fill="#FFFFFF" font-family="Verdana" font-size="12.5" lengthAdjust="spacingAndGlyphs" textLength="82.2917" x="618.2292" y="494.4031">To database</text><polygon fill="#DF691A" points="414.0625,540.3442,403.6458,544.5109,414.0625,548.6776,409.8958,544.5109" style="stroke: #DF691A; stroke-width: 1.0416666666666667;"/><line style="stroke: #DF691A; stroke-width: 3.125; stroke-dasharray: 2.0,2.0;" x1="407.8125" x2="722.3958" y1="544.5109" y2="544.5109"/><text fill="#FFFFFF" font-family="Verdana" font-size="12.5" font-weight="bold" lengthAdjust="spacingAndGlyphs" textLength="40.625" x="425.5208" y="534.5947">[005]</text><text fill="#FFFFFF" font-family="Verdana" font-size="12.5" lengthAdjust="spacingAndGlyphs" textLength="40.625" x="480.7292" y="534.5947">return</text><polygon fill="#DF691A" points="253.6458,580.5359,243.2292,584.7026,253.6458,588.8692,249.4792,584.7026" style="stroke: #DF691A; stroke-width: 1.0416666666666667;"/><line style="stroke: #DF691A; stroke-width: 3.125; stroke-dasharray: 2.0,2.0;" x1="247.3958" x2="396.3542" y1="584.7026" y2="584.7026"/><text fill="#FFFFFF" font-family="Verdana" font-size="12.5" font-weight="bold" lengthAdjust="spacingAndGlyphs" textLength="40.625" x="265.1042" y="574.7864">[006]</text><text fill="#FFFFFF" font-family="Verdana" font-size="12.5" lengthAdjust="spacingAndGlyphs" textLength="40.625" x="320.3125" y="574.7864">return</text><text fill="#000000" font-family="Verdana" font-size="12.5" lengthAdjust="spacingAndGlyphs" textLength="36.4583" x="580.9896" y="625.3947">Some</text><text fill="#000000" font-family="Verdana" font-size="12.5" lengthAdjust="spacingAndGlyphs" textLength="67.7083" x="621.6146" y="625.3947">long delay</text><text fill="#000000" font-family="Verdana" font-size="12.5" lengthAdjust="spacingAndGlyphs" textLength="0" x="693.4896" y="625.3947"/><polygon fill="#DF691A" points="818.2292,675.5025,828.6458,679.6692,818.2292,683.8359,822.3958,679.6692" style="stroke: #DF691A; stroke-width: 1.0416666666666667;"/><line style="stroke: #DF691A; stroke-width: 3.125;" x1="69.2708" x2="824.4792" y1="679.6692" y2="679.6692"/><text fill="#FFFFFF" font-family="Verdana" font-size="12.5" font-weight="bold" lengthAdjust="spacingAndGlyphs" textLength="40.625" x="81.7708" y="669.753">[007]</text><text fill="#FFFFFF" font-family="Verdana" font-size="12.5" lengthAdjust="spacingAndGlyphs" textLength="87.5" x="136.9792" y="669.753">To collections</text><polygon fill="#DF691A" points="561.9792,715.6942,551.5625,719.8608,561.9792,724.0275,557.8125,719.8608" style="stroke: #DF691A; stroke-width: 1.0416666666666667;"/><line style="stroke: #DF691A; stroke-width: 3.125; stroke-dasharray: 2.0,2.0;" x1="555.7292" x2="829.6875" y1="719.8608" y2="719.8608"/><text fill="#FFFFFF" font-family="Verdana" font-size="12.5" font-weight="bold" lengthAdjust="spacingAndGlyphs" textLength="40.625" x="573.4375" y="709.9447">[008]</text><text fill="#5CB85C" font-family="Verdana" font-size="12.5" font-weight="bold" lengthAdjust="spacingAndGlyphs" textLength="53.125" x="628.6458" y="709.9447">success</text><path d="M17.7083,735.4858 L88.5417,735.4858 L88.5417,752.1525 L78.125,762.5692 L13.5417,762.5692 L13.5417,739.6525 " fill="#000000" style="stroke: #4E5D6C; stroke-width: 1.0416666666666667;"/><rect fill="none" height="475.1831" rx="4.1667" ry="4.1667" style="stroke: #4E5D6C; stroke-width: 2.0833333333333335;" width="1320.8333" x="13.5417" y="735.4858"/><text fill="#5BC0DE" font-family="Verdana" font-size="12.5" font-weight="bold" lengthAdjust="spacingAndGlyphs" textLength="17.7083" x="34.375" y="754.303">alt</text><text fill="#4E5D6C" font-family="Verdana" font-size="12.5" font-weight="bold" lengthAdjust="spacingAndGlyphs" textLength="118.75" x="109.375" y="755.3446">[successful case]</text><polygon fill="#DF691A" points="1188.5417,800.8525,1198.9583,805.0191,1188.5417,809.1858,1192.7083,805.0191" style="stroke: #DF691A; stroke-width: 1.0416666666666667;"/><line style="stroke: #DF691A; stroke-width: 3.125;" x1="69.2708" x2="1194.7917" y1="805.0191" y2="805.0191"/><text fill="#FFFFFF" font-family="Verdana" font-size="12.5" font-weight="bold" lengthAdjust="spacingAndGlyphs" textLength="40.625" x="81.7708" y="795.1029">[009]</text><text fill="#FFFFFF" font-family="Verdana" font-size="12.5" lengthAdjust="spacingAndGlyphs" textLength="158.3333" x="136.9792" y="795.1029">Authentication Accepted</text><polygon fill="#DF691A" points="80.7292,841.0441,70.3125,845.2108,80.7292,849.3774,76.5625,845.2108" style="stroke: #DF691A; stroke-width: 1.0416666666666667;"/><line style="stroke: #DF691A; stroke-width: 3.125; stroke-dasharray: 2.0,2.0;" x1="74.4792" x2="1200" y1="845.2108" y2="845.2108"/><text fill="#FFFFFF" font-family="Verdana" font-size="12.5" font-weight="bold" lengthAdjust="spacingAndGlyphs" textLength="40.625" x="92.1875" y="835.2946">[010]</text><text fill="#FFFFFF" font-family="Verdana" font-size="12.5" lengthAdjust="spacingAndGlyphs" textLength="51.0417" x="147.3958" y="835.2946">success</text><path d="M1048.9583,862.9191 L1048.9583,890.0024 A4.1667,4.1667 0 0 0 1053.125,894.1691 L1191.6667,894.1691 A4.1667,4.1667 0 0 0 1195.8333,890.0024 L1195.8333,869.1691 L1185.4167,858.7524 L1053.125,858.7524 A4.1667,4.1667 0 0 0 1048.9583,862.9191 " fill="#000000" style="stroke: #7CCDE5; stroke-width: 1.0416666666666667;"/><path d="M1185.4167,858.7524 L1185.4167,867.0858 A2.0833,2.0833 0 0 0 1187.5,869.1691 L1195.8333,869.1691 L1185.4167,858.7524 " fill="#000000" style="stroke: #7CCDE5; stroke-width: 1.0416666666666667;"/><text fill="#7CCDE5" font-family="Verdana" font-size="12.5" lengthAdjust="spacingAndGlyphs" textLength="114.5833" x="1060.4167" y="881.7362">this is a first note</text><line style="stroke: #4E5D6C; stroke-width: 1.0416666666666667; stroke-dasharray: 2.0,2.0;" x1="13.5417" x2="1334.375" y1="901.0274" y2="901.0274"/><text fill="#4E5D6C" font-family="Verdana" font-size="12.5" font-weight="bold" lengthAdjust="spacingAndGlyphs" textLength="148.9583" x="23.9583" y="918.8029">[some kind of failure]</text><polygon fill="#DF691A" points="1188.5417,955.3691,1198.9583,959.5357,1188.5417,963.7024,1192.7083,959.5357" style="stroke: #DF691A; stroke-width: 1.0416666666666667;"/><line style="stroke: #DF691A; stroke-width: 3.125;" x1="69.2708" x2="1194.7917" y1="959.5357" y2="959.5357"/><text fill="#FFFFFF" font-family="Verdana" font-size="12.5" font-weight="bold" lengthAdjust="spacingAndGlyphs" textLength="40.625" x="81.7708" y="949.6195">[011]</text><text fill="#FFFFFF" font-family="Verdana" font-size="12.5" lengthAdjust="spacingAndGlyphs" textLength="142.7083" x="136.9792" y="949.6195">Authentication Failure</text><polygon fill="#DF691A" points="80.7292,995.5607,70.3125,999.7274,80.7292,1003.894,76.5625,999.7274" style="stroke: #DF691A; stroke-width: 1.0416666666666667;"/><line style="stroke: #DF691A; stroke-width: 3.125; stroke-dasharray: 2.0,2.0;" x1="74.4792" x2="1200" y1="999.7274" y2="999.7274"/><text fill="#FFFFFF" font-family="Verdana" font-size="12.5" font-weight="bold" lengthAdjust="spacingAndGlyphs" textLength="40.625" x="92.1875" y="989.8112">[012]</text><text fill="#D9534F" font-family="Verdana" font-size="12.5" font-weight="bold" lengthAdjust="spacingAndGlyphs" textLength="82.2917" x="147.3958" y="989.8112">Bad request</text><path d="M28.125,1015.3524 L171.875,1015.3524 L171.875,1032.019 L161.4583,1042.4357 L23.9583,1042.4357 L23.9583,1019.519 " fill="#000000" style="stroke: #4E5D6C; stroke-width: 1.0416666666666667;"/><rect fill="none" height="120.1416" rx="4.1667" ry="4.1667" style="stroke: #4E5D6C; stroke-width: 2.0833333333333335;" width="1300" x="23.9583" y="1015.3524"/><text fill="#5BC0DE" font-family="Verdana" font-size="12.5" font-weight="bold" lengthAdjust="spacingAndGlyphs" textLength="90.625" x="44.7917" y="1034.1695">My own label</text><path d="M38.5417,1050.3357 L120.8333,1050.3357 L120.8333,1067.0024 L110.4167,1077.419 L34.375,1077.419 L34.375,1054.5024 " fill="#000000" style="stroke: #4E5D6C; stroke-width: 1.0416666666666667;"/><rect fill="none" height="77.8666" rx="4.1667" ry="4.1667" style="stroke: #4E5D6C; stroke-width: 2.0833333333333335;" width="1279.1667" x="34.375" y="1050.3357"/><text fill="#5BC0DE" font-family="Verdana" font-size="12.5" font-weight="bold" lengthAdjust="spacingAndGlyphs" textLength="29.1667" x="55.2083" y="1069.1528">loop</text><text fill="#4E5D6C" font-family="Verdana" font-size="12.5" font-weight="bold" lengthAdjust="spacingAndGlyphs" textLength="91.6667" x="141.6667" y="1070.1945">[1000 times]</text><polygon fill="#DF691A" points="80.7292,1115.7023,70.3125,1119.869,80.7292,1124.0356,76.5625,1119.869" style="stroke: #DF691A; stroke-width: 1.0416666666666667;"/><line style="stroke: #DF691A; stroke-width: 3.125;" x1="74.4792" x2="1200" y1="1119.869" y2="1119.869"/><text fill="#FFFFFF" font-family="Verdana" font-size="12.5" font-weight="bold" lengthAdjust="spacingAndGlyphs" textLength="40.625" x="92.1875" y="1109.9528">[013]</text><text fill="#FFFFFF" font-family="Verdana" font-size="12.5" lengthAdjust="spacingAndGlyphs" textLength="71.875" x="147.3958" y="1109.9528">DNS Attack</text><line style="stroke: #4E5D6C; stroke-width: 1.0416666666666667; stroke-dasharray: 2.0,2.0;" x1="13.5417" x2="1334.375" y1="1143.8273" y2="1143.8273"/><text fill="#4E5D6C" font-family="Verdana" font-size="12.5" font-weight="bold" lengthAdjust="spacingAndGlyphs" textLength="115.625" x="23.9583" y="1161.6028">[Just a Warning]</text><polygon fill="#DF691A" points="1188.5417,1198.1689,1198.9583,1202.3356,1188.5417,1206.5023,1192.7083,1202.3356" style="stroke: #DF691A; stroke-width: 1.0416666666666667;"/><line style="stroke: #DF691A; stroke-width: 3.125;" x1="69.2708" x2="1194.7917" y1="1202.3356" y2="1202.3356"/><text fill="#FFFFFF" font-family="Verdana" font-size="12.5" font-weight="bold" lengthAdjust="spacingAndGlyphs" textLength="40.625" x="81.7708" y="1192.4194">[014]</text><text fill="#F0AD4E" font-family="Verdana" font-size="12.5" font-weight="bold" lengthAdjust="spacingAndGlyphs" textLength="94.7917" x="136.9792" y="1192.4194">Please repeat</text><path d="M46.875,1227.3356 L46.875,1284.6273 A4.1667,4.1667 0 0 0 51.0417,1288.7939 L260.4167,1288.7939 A4.1667,4.1667 0 0 0 264.5833,1284.6273 L264.5833,1233.5856 L254.1667,1223.1689 L51.0417,1223.1689 A4.1667,4.1667 0 0 0 46.875,1227.3356 " fill="#000000" style="stroke: #7CCDE5; stroke-width: 1.0416666666666667;"/><path d="M254.1667,1223.1689 L254.1667,1231.5023 A2.0833,2.0833 0 0 0 256.25,1233.5856 L264.5833,1233.5856 L254.1667,1223.1689 " fill="#000000" style="stroke: #7CCDE5; stroke-width: 1.0416666666666667;"/><text fill="#7CCDE5" font-family="Verdana" font-size="12.5" lengthAdjust="spacingAndGlyphs" textLength="136.4583" x="82.8125" y="1246.1528">this is a second note</text><text fill="#7CCDE5" font-family="Verdana" font-size="12.5" lengthAdjust="spacingAndGlyphs" textLength="81.25" x="82.8125" y="1261.3444">that is really</text><text fill="#7CCDE5" font-family="Verdana" font-size="12.5" lengthAdjust="spacingAndGlyphs" textLength="28.125" x="82.8125" y="1276.5361">long</text><text fill="#888888" font-family="Verdana" font-size="12.5" lengthAdjust="spacingAndGlyphs" textLength="85.4167" x="1264.5833" y="15.6921">Page Header</text><text fill="#888888" font-family="Verdana" font-size="12.5" lengthAdjust="spacingAndGlyphs" textLength="75" x="639.0625" y="1416.2944">Page 1 of 1</text><!--MD5=[49c03b77a1552af98e0fdcdb3c916ce5]
@startuml



skinparam backgroundColor black







skinparam defaultFontName       "Verdana"
skinparam defaultFontSize       12
skinparam dpi                   100
skinparam shadowing             false
skinparam roundcorner           8
skinparam ParticipantPadding    40
skinparam BoxPadding            40
skinparam Padding               5
skinparam TitleFontColor	    #4E5D6C
skinparam TitleFontSize	    	20
skinparam TitleBorderThickness 	0
skinparam ArrowColor            #4E5D6C
skinparam stereotype {
    CBackgroundColor #717d89
    CBorderColor #3e4a56
    ABackgroundColor #5F8F00
    ABorderColor #4a934a
    IBackgroundColor #AE423F
    IBorderColor #e17572
    EBackgroundColor #C08A3E
    EBorderColor #f3bd71
    NBackgroundColor #499AB2
    NBorderColor #7ccde5
}
skinparam title {
	FontColor	                 #DF691A
	BorderColor	                 #717d89
	FontSize	    	         20
	BorderRoundCorner            8
	BorderThickness 	         1
	BackgroundColor              black
}


skinparam legend {
	BackgroundColor black
	BorderColor #717d89
	FontColor #abb6c2
}


skinparam activity {
		FontColor #DF691A
	BorderColor #e58748
	BackgroundColor black
	BarColor #5cb85c
	StartColor #5bc0de
	EndColor #5bc0de
	DiamondBackgroundColor black
  	DiamondBorderColor #717d89
  	DiamondFontColor #717d89
}


skinparam participant {
		FontColor #DF691A
	BorderColor #e58748
	BackgroundColor black
	ParticipantBorderThickness 2
}


skinparam actor {
		FontColor #DF691A
	BorderColor #e58748
	BackgroundColor black
	FontColor #DF691A
}


skinparam arrow {
	Thickness 3
	Color #DF691A
	FontColor #FFF
}


skinparam sequence {
	BorderColor #DF691A
	TitleFontColor #DF691A
	BackgroundColor black
	StartColor #DF691A
	EndColor #DF691A
	BoxBackgroundColor black
	BoxBorderColor #4E5D6C
	BoxFontColor $DARk
	LifeLineBorderColor #4E5D6C
	LifeLineBorderThickness 2
	LifeLineBackgroundColor black
	GroupBorderColor #4E5D6C
	GroupFontColor #4E5D6C
	GroupHeaderFontColor #5bc0de
	GroupBackgroundColor black
	GroupHeaderBackgroundColor black
	DividerBackgroundColor black
    DividerBorderColor #4E5D6C
    DividerBorderThickness 2
    DividerFontColor #abb6c2
	ReferenceBackgroundColor black
	ReferenceBorderColor #abb6c2
	ReferenceFontColor #abb6c2
	ReferenceHeaderFontColor #5bc0de
	ReferenceHeaderBackgroundColor black
}


skinparam partition {
	BorderColor #DF691A
	FontColor #DF691A
	BackgroundColor black
}


skinparam collections {
		FontColor #DF691A
	BorderColor #e58748
	BackgroundColor black
}


skinparam control {
		FontColor #DF691A
	BorderColor #e58748
	BackgroundColor black
}


skinparam entity {
		FontColor #DF691A
	BorderColor #e58748
	BackgroundColor black
}


skinparam boundary {
		FontColor #DF691A
	BorderColor #e58748
	BackgroundColor black
}


skinparam agent {
	BackgroundColor black
	BorderColor #C08A3E
	FontColor #4E5D6C
}


skinparam note {
	BorderThickness 1
	BackgroundColor black
	BorderColor #7ccde5
	FontColor #7ccde5
}


skinparam artifact {
	BackgroundColor black
	BorderColor #717d89
	FontColor #abb6c2
}


skinparam component {
		FontColor #DF691A
	BorderColor #e58748
	BackgroundColor black
}


skinparam interface {
	BackgroundColor  black
	BorderColor  #d9534f
	FontColor #4E5D6C
}


skinparam storage {
	BackgroundColor black
  	BorderColor #f3bd71
	FontColor #f0ad4e
}


skinparam node {
	BackgroundColor  black
	BorderColor #abb6c2
	FontColor #abb6c2
}


skinparam cloud {
	BackgroundColor black
	BorderColor #F2FCFE
	FontColor #4E5D6C
}


skinparam database {
		FontColor #DF691A
	BorderColor #e58748
	BackgroundColor black
	FontColor #DF691A
}


skinparam class {
		FontColor #DF691A
	BorderColor #e58748
	BackgroundColor black
	HeaderBackgroundColor #b25415
	StereotypeFontColor #4E5D6C
	BorderThickness 1
	AttributeFontColor #4E5D6C
	AttributeFontSize 11
}


skinparam object {
		FontColor #DF691A
	BorderColor #e58748
	BackgroundColor black
	StereotypeFontColor #4E5D6C
	BorderThickness 1
	AttributeFontColor #717d89
	AttributeFontSize 11
}


skinparam usecase {
		FontColor #DF691A
	BorderColor #e58748
	BackgroundColor black
	BorderThickness 2
	StereotypeFontColor #DF691A
}


skinparam rectangle {
		FontColor #DF691A
	BorderColor #e58748
	BackgroundColor black
	BorderThickness 2
	StereotypeFontColor #DF691A
}


skinparam package {
	BackgroundColor black
  	BorderColor #DF691A
	FontColor #DF691A
	BorderThickness 2
}


skinparam folder {
	BackgroundColor black
  	BorderColor #f0ad4e
	FontColor #f0ad4e
	BorderThickness 2
}


skinparam frame {
	BackgroundColor black
  	BorderColor #5bc0de
	FontColor #5bc0de
	BorderThickness 2
}


skinparam state {
		FontColor #DF691A
	BorderColor #e58748
	BackgroundColor black
	StartColor #5bc0de
	EndColor #5bc0de
	AttributeFontColor #717d89
	AttributeFontSize 11
}


skinparam queue {
		FontColor #DF691A
	BorderColor #e58748
	BackgroundColor black
}


skinparam card {
	BackgroundColor black
	BorderColor #5bc0de
	FontColor #5bc0de
}


skinparam file {
	BackgroundColor black
	BorderColor #abb6c2
	FontColor #abb6c2
}


skinparam stack {
		FontColor #DF691A
	BorderColor #e58748
	BackgroundColor black
}

title Sequence Diagram - superhero-outline theme


autonumber "<b>[000]"

header Page Header
footer Page %page% of %lastpage%

actor Foo1
boundary Foo2
control Foo3
entity Foo4
database Foo5
collections Foo6
participant Bob
participant Alice << (C,#ADD1B2) Testable >>

box "Internal Service"
	participant Bob
	participant Alice
end box

== Initialization ==
Foo1 -> Foo2 : To boundary
|||
Foo2 -> Foo3 ++: To control
ref over Foo4, Foo5
  This can be on
  several lines
end ref
Foo3 -> Foo4 : To entity

Foo4 -> Foo5 : To database
Foo5 - -> Foo3 - - : return
Foo3 - -> Foo2 - -: return
... Some ~~long delay~~ ...
Foo1 -> Foo6 : To collections
Foo6 - -> Foo4:   <font color=#5cb85c><b>success


alt successful case

Foo1 -> Alice: Authentication Accepted
Alice - -> Foo1: success

note left of Alice: this is a first note

else some kind of failure

	Foo1 -> Alice: Authentication Failure
    Alice - -> Foo1:   <font color=#d9534f><b>Bad request
	group My own label
	    loop 1000 times
	        Alice -> Foo1: DNS Attack
	    end
	end
	
else Just a Warning

   Foo1 -> Alice:   <font color=#f0ad4e><b>Please repeat
   
end

note over Foo1, Foo2
this is a second note
that is really
long
end note

@enduml

PlantUML version 1.2020.08(Sun Apr 26 07:08:22 PDT 2020)
(GPL source distribution)
Java Runtime: OpenJDK Runtime Environment
JVM: OpenJDK 64-Bit Server VM
Java Version: 11.0.8+10-post-Ubuntu-0ubuntu118.04.1
Operating System: Linux
Default Encoding: UTF-8
Language: en
Country: US
--></g></svg>