<?xml version="1.0" encoding="UTF-8" standalone="no"?><svg xmlns="http://www.w3.org/2000/svg" xmlns:xlink="http://www.w3.org/1999/xlink" contentScriptType="application/ecmascript" contentStyleType="text/css" height="1175px" preserveAspectRatio="none" style="width:479px;height:1175px;background:#000000;" version="1.1" viewBox="0 0 479 1175" width="479.1667px" zoomAndPan="magnify"><defs/><g><rect fill="#000000" height="46.1528" rx="4.1667" ry="4.1667" style="stroke: #717D89; stroke-width: 1.0416666666666667;" width="465.625" x="2.0833" y="2.0833"/><text fill="#DF691A" font-family="Verdana" font-size="20.8333" lengthAdjust="spacingAndGlyphs" textLength="438.5417" x="15.625" y="33.4452">State Diagram - superhero-outline theme</text><rect fill="#5CB85C" height="8.3333" style="stroke: none; stroke-width: 1.0416666666666667;" width="83.3333" x="187.5" y="143.0278"/><ellipse cx="229.1667" cy="70.1111" fill="#5BC0DE" rx="10.4167" ry="10.4167" style="stroke: none; stroke-width: 1.0416666666666667;"/><rect fill="#000000" height="56.8583" rx="13.0208" ry="13.0208" style="stroke: #E58748; stroke-width: 1.5625;" width="75" x="136.4583" y="213.8611"/><line style="stroke: #E58748; stroke-width: 1.5625;" x1="136.4583" x2="211.4583" y1="249.8861" y2="249.8861"/><text fill="#DF691A" font-family="Verdana" font-size="12.5" lengthAdjust="spacingAndGlyphs" textLength="43.75" x="152.0833" y="236.8449">State2</text><rect fill="#000000" height="56.8583" rx="13.0208" ry="13.0208" style="stroke: #E58748; stroke-width: 1.5625;" width="75" x="247.9167" y="213.8611"/><line style="stroke: #E58748; stroke-width: 1.5625;" x1="247.9167" x2="322.9167" y1="249.8861" y2="249.8861"/><text fill="#DF691A" font-family="Verdana" font-size="12.5" lengthAdjust="spacingAndGlyphs" textLength="43.75" x="263.5417" y="236.8449">State3</text><rect fill="#5CB85C" height="8.3333" style="stroke: none; stroke-width: 1.0416666666666667;" width="83.3333" x="187.5" y="333.6528"/><rect fill="#000000" height="56.8583" rx="13.0208" ry="13.0208" style="stroke: #E58748; stroke-width: 1.5625;" width="75" x="191.6667" y="404.4861"/><line style="stroke: #E58748; stroke-width: 1.5625;" x1="191.6667" x2="266.6667" y1="440.5111" y2="440.5111"/><text fill="#DF691A" font-family="Verdana" font-size="12.5" lengthAdjust="spacingAndGlyphs" textLength="43.75" x="207.2917" y="427.4699">State4</text><rect fill="#000000" height="640.1917" rx="13.0208" ry="13.0208" style="stroke: #E58748; stroke-width: 1.5625;" width="351.0417" x="53.6458" y="524.2778"/><rect fill="#000000" height="597.9167" rx="13.0208" ry="13.0208" style="stroke: #000000; stroke-width: 1.0416666666666667;" width="344.7917" x="56.7708" y="563.4277"/><line style="stroke: #E58748; stroke-width: 1.5625;" x1="53.6458" x2="404.6875" y1="560.3027" y2="560.3027"/><text fill="#DF691A" font-family="Verdana" font-size="12.5" lengthAdjust="spacingAndGlyphs" textLength="38.5417" x="209.8958" y="547.2616">Active</text><ellipse cx="75.5208" cy="602.4902" fill="#5BC0DE" rx="10.4167" ry="10.4167" style="stroke: none; stroke-width: 1.0416666666666667;"/><rect fill="#000000" height="56.8583" rx="13.0208" ry="13.0208" style="stroke: #E58748; stroke-width: 1.5625;" width="108.3333" x="104.6875" y="573.8444"/><line style="stroke: #E58748; stroke-width: 1.5625;" x1="104.6875" x2="213.0208" y1="609.8694" y2="609.8694"/><text fill="#DF691A" font-family="Verdana" font-size="12.5" lengthAdjust="spacingAndGlyphs" textLength="77.0833" x="120.3125" y="596.8282">NumLockOff</text><rect fill="#000000" height="56.8583" rx="13.0208" ry="13.0208" style="stroke: #E58748; stroke-width: 1.5625;" width="108.3333" x="103.6458" y="695.7194"/><line style="stroke: #E58748; stroke-width: 1.5625;" x1="103.6458" x2="211.9792" y1="731.7444" y2="731.7444"/><text fill="#DF691A" font-family="Verdana" font-size="12.5" lengthAdjust="spacingAndGlyphs" textLength="77.0833" x="119.2708" y="718.7032">NumLockOn</text><!--MD5=[f1e44e9cdf7ed6fd162579f896fb76ea]
link *start*Active to NumLockOff--><path d="M86.263,602.4902 C90.5165,602.4902 94.7698,602.4902 99.0232,602.4902 " fill="none" id="*start*Active-&gt;NumLockOff" style="stroke: #DF691A; stroke-width: 3.125;"/><polygon fill="#DF691A" points="104.4108,602.4902,95.0358,598.3236,99.2025,602.4902,95.0358,606.6569,104.4108,602.4902" style="stroke: #DF691A; stroke-width: 3.125;"/><!--MD5=[b6ef3c088f5474ecc81df30475e7d61b]
link NumLockOff to NumLockOn--><path d="M104.4427,629.2361 C91.9152,636.2986 81.1929,643.7069 77.6042,649.8861 C71.5589,660.2949 71.5879,666.5438 77.6042,676.9694 C82.6911,685.7846 90.1642,693.0742 98.5329,699.0537 " fill="none" id="NumLockOff-&gt;NumLockOn" style="stroke: #DF691A; stroke-width: 3.125;"/><polygon fill="#DF691A" points="103.2649,702.2422,97.8185,693.5481,98.9456,699.3318,93.1618,700.459,103.2649,702.2422" style="stroke: #DF691A; stroke-width: 3.125;"/><text fill="#FFFFFF" font-family="Verdana" font-size="12.5" lengthAdjust="spacingAndGlyphs" textLength="127.0833" x="83.8542" y="668.7032">EvNumLockPressed</text><!--MD5=[3bfddee0d82dc74c927fbeb3d3f2e6a3]
link NumLockOn to NumLockOff--><path d="M203.1688,695.5399 C208.826,690.1038 213.8042,683.9037 217.1875,676.9694 C222.4667,666.1516 222.4198,660.7265 217.1875,649.8861 C214.6042,644.535 211.0708,639.6111 207.0094,635.134 " fill="none" id="NumLockOn-&gt;NumLockOff" style="stroke: #DF691A; stroke-width: 3.125;"/><polygon fill="#DF691A" points="203.1438,631.1486,206.6792,640.7794,206.7696,634.8875,212.6615,634.978,203.1438,631.1486" style="stroke: #DF691A; stroke-width: 3.125;"/><text fill="#FFFFFF" font-family="Verdana" font-size="12.5" lengthAdjust="spacingAndGlyphs" textLength="127.0833" x="227.6042" y="668.7032">EvNumLockPressed</text><line style="stroke: #E58748; stroke-width: 1.5625; stroke-dasharray: 8.0,10.0;" x1="58.8542" x2="397.3958" y1="763.4277" y2="763.4277"/><ellipse cx="75.5208" cy="800.4069" fill="#5BC0DE" rx="10.4167" ry="10.4167" style="stroke: none; stroke-width: 1.0416666666666667;"/><rect fill="#000000" height="56.8583" rx="13.0208" ry="13.0208" style="stroke: #E58748; stroke-width: 1.5625;" width="112.5" x="104.6875" y="771.7611"/><line style="stroke: #E58748; stroke-width: 1.5625;" x1="104.6875" x2="217.1875" y1="807.7861" y2="807.7861"/><text fill="#DF691A" font-family="Verdana" font-size="12.5" lengthAdjust="spacingAndGlyphs" textLength="81.25" x="120.3125" y="794.7449">CapsLockOff</text><rect fill="#000000" height="56.8583" rx="13.0208" ry="13.0208" style="stroke: #E58748; stroke-width: 1.5625;" width="112.5" x="103.6458" y="893.6361"/><line style="stroke: #E58748; stroke-width: 1.5625;" x1="103.6458" x2="216.1458" y1="929.6611" y2="929.6611"/><text fill="#DF691A" font-family="Verdana" font-size="12.5" lengthAdjust="spacingAndGlyphs" textLength="81.25" x="119.2708" y="916.6199">CapsLockOn</text><!--MD5=[70bdb58272bc1a7d9e9d21dfe0316432]
link *start*CONC87 to CapsLockOff--><path d="M86.1979,800.4069 C90.5088,800.4069 94.8196,800.4069 99.1304,800.4069 " fill="none" id="*start*CONC87-&gt;CapsLockOff" style="stroke: #DF691A; stroke-width: 3.125;"/><polygon fill="#DF691A" points="104.5908,800.4069,95.2158,796.2402,99.3825,800.4069,95.2158,804.5736,104.5908,800.4069" style="stroke: #DF691A; stroke-width: 3.125;"/><!--MD5=[dc4675bd3056f3ef68701d9e8e02a3f3]
link CapsLockOff to CapsLockOn--><path d="M104.2728,827.5059 C91.8011,834.4215 81.2126,841.6663 77.6042,847.8027 C71.5026,858.1788 71.5304,864.4938 77.6042,874.8861 C82.7702,883.7252 90.3115,891.0101 98.762,896.9732 " fill="none" id="CapsLockOff-&gt;CapsLockOn" style="stroke: #DF691A; stroke-width: 3.125;"/><polygon fill="#DF691A" points="103.5409,900.1514,98.0421,891.4903,99.2041,897.2671,93.4273,898.4292,103.5409,900.1514" style="stroke: #DF691A; stroke-width: 3.125;"/><text fill="#FFFFFF" font-family="Verdana" font-size="12.5" lengthAdjust="spacingAndGlyphs" textLength="131.25" x="83.8542" y="866.6199">EvCapsLockPressed</text><!--MD5=[79e17b083e07746bd1a647600952cab6]
link CapsLockOn to CapsLockOff--><path d="M207.1156,893.3967 C212.8521,887.9973 217.8969,881.8238 221.3542,874.8861 C226.7229,864.1125 226.6781,858.5983 221.3542,847.8027 C218.7125,842.4465 215.1219,837.5371 211,833.084 " fill="none" id="CapsLockOn-&gt;CapsLockOff" style="stroke: #DF691A; stroke-width: 3.125;"/><polygon fill="#DF691A" points="207.0771,829.1236,210.7135,838.7167,210.742,832.8242,216.6345,832.8528,207.0771,829.1236" style="stroke: #DF691A; stroke-width: 3.125;"/><text fill="#FFFFFF" font-family="Verdana" font-size="12.5" lengthAdjust="spacingAndGlyphs" textLength="131.25" x="231.7708" y="866.6199">EvCapsLockPressed</text><line style="stroke: #E58748; stroke-width: 1.5625; stroke-dasharray: 8.0,10.0;" x1="58.8542" x2="397.3958" y1="961.3444" y2="961.3444"/><ellipse cx="75.5208" cy="998.3236" fill="#5BC0DE" rx="10.4167" ry="10.4167" style="stroke: none; stroke-width: 1.0416666666666667;"/><rect fill="#000000" height="56.8583" rx="13.0208" ry="13.0208" style="stroke: #E58748; stroke-width: 1.5625;" width="113.5417" x="105.2083" y="969.6777"/><line style="stroke: #E58748; stroke-width: 1.5625;" x1="105.2083" x2="218.75" y1="1005.7027" y2="1005.7027"/><text fill="#DF691A" font-family="Verdana" font-size="12.5" lengthAdjust="spacingAndGlyphs" textLength="82.2917" x="120.8333" y="992.6615">ScrollLockOff</text><rect fill="#000000" height="56.8583" rx="13.0208" ry="13.0208" style="stroke: #E58748; stroke-width: 1.5625;" width="113.5417" x="105.2083" y="1091.5527"/><line style="stroke: #E58748; stroke-width: 1.5625;" x1="105.2083" x2="218.75" y1="1127.5777" y2="1127.5777"/><text fill="#DF691A" font-family="Verdana" font-size="12.5" lengthAdjust="spacingAndGlyphs" textLength="82.2917" x="120.8333" y="1114.5365">ScrollLockOn</text><!--MD5=[8676698f49c1acec7e35e8e65e103748]
link *start*CONC95 to ScrollLockOff--><path d="M85.9904,998.3236 C90.5418,998.3236 95.0932,998.3236 99.6446,998.3236 " fill="none" id="*start*CONC95-&gt;ScrollLockOff" style="stroke: #DF691A; stroke-width: 3.125;"/><polygon fill="#DF691A" points="104.9876,998.3236,95.6126,994.1569,99.7793,998.3236,95.6126,1002.4902,104.9876,998.3236" style="stroke: #DF691A; stroke-width: 3.125;"/><!--MD5=[da4e1e55b4a6de250eca2c82023085fa]
link ScrollLockOff to ScrollLockOn--><path d="M105.205,1020.7184 C95.0143,1027.1746 85.7275,1035.385 79.6875,1045.7194 C73.6138,1056.1117 73.6138,1062.4104 79.6875,1072.8027 C84.7838,1081.5225 92.1914,1088.7297 100.5032,1094.6473 " fill="none" id="ScrollLockOff-&gt;ScrollLockOn" style="stroke: #DF691A; stroke-width: 3.125;"/><polygon fill="#DF691A" points="105.205,1097.8037,99.7437,1089.1189,100.8807,1094.9007,95.0989,1096.0377,105.205,1097.8037" style="stroke: #DF691A; stroke-width: 3.125;"/><text fill="#FFFFFF" font-family="Verdana" font-size="12.5" lengthAdjust="spacingAndGlyphs" textLength="131.25" x="85.9375" y="1064.5365">EvCapsLockPressed</text><!--MD5=[6ad2c621f2407b82317910f4deb17639]
link ScrollLockOn to ScrollLockOff--><path d="M209.199,1091.3134 C214.9354,1085.914 219.9802,1079.7404 223.4375,1072.8027 C228.8063,1062.0292 228.8063,1056.4929 223.4375,1045.7194 C220.7906,1040.4079 217.2125,1035.5444 213.1063,1031.1329 " fill="none" id="ScrollLockOn-&gt;ScrollLockOff" style="stroke: #DF691A; stroke-width: 3.125;"/><polygon fill="#DF691A" points="209.199,1027.209,212.8605,1036.7926,212.8736,1030.9,218.7662,1030.9131,209.199,1027.209" style="stroke: #DF691A; stroke-width: 3.125;"/><text fill="#FFFFFF" font-family="Verdana" font-size="12.5" lengthAdjust="spacingAndGlyphs" textLength="131.25" x="232.8125" y="1064.5365">EvCapsLockPressed</text><!--MD5=[242ad121cef04112e9b0ee8f25f52375]
link *start to fork_state--><path d="M229.1667,80.6528 C229.1667,95.2778 229.1667,123.1215 229.1667,137.3309 " fill="none" id="*start-&gt;fork_state" style="stroke: #DF691A; stroke-width: 3.125;"/><polygon fill="#DF691A" points="229.1667,142.8048,233.3333,133.4298,229.1667,137.5965,225,133.4298,229.1667,142.8048" style="stroke: #DF691A; stroke-width: 3.125;"/><!--MD5=[44dd36eb382d4fffd186e8c447a61da0]
link fork_state to State2--><path d="M227.0698,151.7767 C221.5167,161.1548 205.974,187.4017 193.1271,209.0955 " fill="none" id="fork_state-&gt;State2" style="stroke: #DF691A; stroke-width: 3.125;"/><polygon fill="#DF691A" points="190.4313,213.6475,198.7924,207.7026,193.0844,209.1656,191.6214,203.4576,190.4313,213.6475" style="stroke: #DF691A; stroke-width: 3.125;"/><!--MD5=[43d4d70f9cd19f132a5eb1ce9d85c890]
link fork_state to State3--><path d="M231.3031,151.7767 C236.9615,161.1548 252.7969,187.4017 265.8865,209.0955 " fill="none" id="fork_state-&gt;State3" style="stroke: #DF691A; stroke-width: 3.125;"/><polygon fill="#DF691A" points="268.6323,213.6475,267.3573,203.4678,265.9419,209.1879,260.2219,207.7725,268.6323,213.6475" style="stroke: #DF691A; stroke-width: 3.125;"/><!--MD5=[8cf5ef3a64654818495211b4c165bd62]
link State2 to join_state--><path d="M190.5229,271.5205 C202.0844,291.0434 216.7385,315.7903 224.2448,328.4663 " fill="none" id="State2-&gt;join_state" style="stroke: #DF691A; stroke-width: 3.125;"/><polygon fill="#DF691A" points="226.9938,333.109,225.8021,322.9192,224.34,328.6275,218.6317,327.1653,226.9938,333.109" style="stroke: #DF691A; stroke-width: 3.125;"/><!--MD5=[183fde86cac17ac230b97143534e47db]
link State3 to join_state--><path d="M268.5396,271.5205 C256.7604,291.0434 241.8292,315.7903 234.1813,328.4663 " fill="none" id="State3-&gt;join_state" style="stroke: #DF691A; stroke-width: 3.125;"/><polygon fill="#DF691A" points="231.3802,333.109,239.7906,327.2339,234.0706,328.6493,232.6552,322.9293,231.3802,333.109" style="stroke: #DF691A; stroke-width: 3.125;"/><!--MD5=[1e473d623208eebf6d5ebd6e9bc5a11d]
link join_state to State4--><path d="M229.1667,342.4017 C229.1667,351.6621 229.1667,377.3705 229.1667,398.9007 " fill="none" id="join_state-&gt;State4" style="stroke: #DF691A; stroke-width: 3.125;"/><polygon fill="#DF691A" points="229.1667,404.2725,233.3333,394.8975,229.1667,399.0642,225,394.8975,229.1667,404.2725" style="stroke: #DF691A; stroke-width: 3.125;"/><!--MD5=[0a70b1a7cf318979336334b4227eefe4]
link State4 to Active--><path d="M229.1667,461.9903 C229.1667,476.5673 229.1667,496.084 229.1667,518.61 " fill="none" id="State4-&gt;Active" style="stroke: #DF691A; stroke-width: 3.125;"/><polygon fill="#DF691A" points="229.1667,524.085,233.3333,514.71,229.1667,518.8767,225,514.71,229.1667,524.085" style="stroke: #DF691A; stroke-width: 3.125;"/><!--MD5=[bf75ea9bf90d06cec4536e4dc46bd957]
@startuml



skinparam backgroundColor black







skinparam defaultFontName       "Verdana"
skinparam defaultFontSize       12
skinparam dpi                   100
skinparam shadowing             false
skinparam roundcorner           8
skinparam ParticipantPadding    40
skinparam BoxPadding            40
skinparam Padding               5
skinparam TitleFontColor	    #4E5D6C
skinparam TitleFontSize	    	20
skinparam TitleBorderThickness 	0
skinparam ArrowColor            #4E5D6C
skinparam stereotype {
    CBackgroundColor #717d89
    CBorderColor #3e4a56
    ABackgroundColor #5F8F00
    ABorderColor #4a934a
    IBackgroundColor #AE423F
    IBorderColor #e17572
    EBackgroundColor #C08A3E
    EBorderColor #f3bd71
    NBackgroundColor #499AB2
    NBorderColor #7ccde5
}
skinparam title {
	FontColor	                 #DF691A
	BorderColor	                 #717d89
	FontSize	    	         20
	BorderRoundCorner            8
	BorderThickness 	         1
	BackgroundColor              black
}


skinparam legend {
	BackgroundColor black
	BorderColor #717d89
	FontColor #abb6c2
}

skinparam swimlane {
	BorderColor #5bc0de
	BorderThickness 2
	TitleBackgroundColor  #3e4a56-#4E5D6C
	TitleFontColor #DF691A
}


skinparam activity {
		FontColor #DF691A
	BorderColor #e58748
	BackgroundColor black
	BarColor #5cb85c
	StartColor #5bc0de
	EndColor #5bc0de
	DiamondBackgroundColor black
  	DiamondBorderColor #717d89
  	DiamondFontColor #717d89
}


skinparam participant {
		FontColor #DF691A
	BorderColor #e58748
	BackgroundColor black
	ParticipantBorderThickness 2
}


skinparam actor {
		FontColor #DF691A
	BorderColor #e58748
	BackgroundColor black
	FontColor #DF691A
}


skinparam arrow {
	Thickness 3
	Color #DF691A
	FontColor #FFF
}


skinparam sequence {
	BorderColor #DF691A
	TitleFontColor #DF691A
	BackgroundColor black
	StartColor #DF691A
	EndColor #DF691A
	BoxBackgroundColor black
	BoxBorderColor #4E5D6C
	BoxFontColor $DARk
	LifeLineBorderColor #4E5D6C
	LifeLineBorderThickness 2
	LifeLineBackgroundColor black
	GroupBorderColor #4E5D6C
	GroupFontColor #4E5D6C
	GroupHeaderFontColor #5bc0de
	GroupBackgroundColor black
	GroupHeaderBackgroundColor black
	DividerBackgroundColor black
    DividerBorderColor #4E5D6C
    DividerBorderThickness 2
    DividerFontColor #abb6c2
	ReferenceBackgroundColor black
	ReferenceBorderColor #abb6c2
	ReferenceFontColor #abb6c2
	ReferenceHeaderFontColor #5bc0de
	ReferenceHeaderBackgroundColor black
}


skinparam partition {
	BorderColor #DF691A
	FontColor #DF691A
	BackgroundColor black
}


skinparam collections {
		FontColor #DF691A
	BorderColor #e58748
	BackgroundColor black
}


skinparam control {
		FontColor #DF691A
	BorderColor #e58748
	BackgroundColor black
}


skinparam entity {
		FontColor #DF691A
	BorderColor #e58748
	BackgroundColor black
}


skinparam boundary {
		FontColor #DF691A
	BorderColor #e58748
	BackgroundColor black
}


skinparam agent {
	BackgroundColor black
	BorderColor #C08A3E
	FontColor #4E5D6C
}


skinparam note {
	BorderThickness 1
	BackgroundColor black
	BorderColor #7ccde5
	FontColor #7ccde5
}


skinparam artifact {
	BackgroundColor black
	BorderColor #717d89
	FontColor #abb6c2
}


skinparam component {
		FontColor #DF691A
	BorderColor #e58748
	BackgroundColor black
}


skinparam interface {
	BackgroundColor  black
	BorderColor  #d9534f
	FontColor #4E5D6C
}


skinparam storage {
	BackgroundColor black
  	BorderColor #f3bd71
	FontColor #f0ad4e
}


skinparam node {
	BackgroundColor  black
	BorderColor #abb6c2
	FontColor #abb6c2
}


skinparam cloud {
	BackgroundColor black
	BorderColor #F2FCFE
	FontColor #4E5D6C
}


skinparam database {
		FontColor #DF691A
	BorderColor #e58748
	BackgroundColor black
	FontColor #DF691A
}


skinparam class {
		FontColor #DF691A
	BorderColor #e58748
	BackgroundColor black
	HeaderBackgroundColor #b25415
	StereotypeFontColor #4E5D6C
	BorderThickness 1
	AttributeFontColor #4E5D6C
	AttributeFontSize 11
}


skinparam object {
		FontColor #DF691A
	BorderColor #e58748
	BackgroundColor black
	StereotypeFontColor #4E5D6C
	BorderThickness 1
	AttributeFontColor #717d89
	AttributeFontSize 11
}


skinparam usecase {
		FontColor #DF691A
	BorderColor #e58748
	BackgroundColor black
	BorderThickness 2
	StereotypeFontColor #DF691A
}


skinparam rectangle {
		FontColor #DF691A
	BorderColor #e58748
	BackgroundColor black
	BorderThickness 2
	StereotypeFontColor #DF691A
}


skinparam package {
	BackgroundColor black
  	BorderColor #DF691A
	FontColor #DF691A
	BorderThickness 2
}


skinparam folder {
	BackgroundColor black
  	BorderColor #f0ad4e
	FontColor #f0ad4e
	BorderThickness 2
}


skinparam frame {
	BackgroundColor black
  	BorderColor #5bc0de
	FontColor #5bc0de
	BorderThickness 2
}


skinparam state {
		FontColor #DF691A
	BorderColor #e58748
	BackgroundColor black
	StartColor #5bc0de
	EndColor #5bc0de
	AttributeFontColor #717d89
	AttributeFontSize 11
}


skinparam queue {
		FontColor #DF691A
	BorderColor #e58748
	BackgroundColor black
}


skinparam card {
	BackgroundColor black
	BorderColor #5bc0de
	FontColor #5bc0de
}


skinparam file {
	BackgroundColor black
	BorderColor #abb6c2
	FontColor #abb6c2
}


skinparam stack {
		FontColor #DF691A
	BorderColor #e58748
	BackgroundColor black
}

title State Diagram - superhero-outline theme


state fork_state <<fork>>
[*] - -> fork_state
fork_state - -> State2
fork_state - -> State3

state join_state <<join>>
State2 - -> join_state
State3 - -> join_state
join_state - -> State4
State4 - -> Active

state Active {
  [*] -> NumLockOff
  NumLockOff - -> NumLockOn : EvNumLockPressed
  NumLockOn - -> NumLockOff : EvNumLockPressed
  - -
  [*] -> CapsLockOff
  CapsLockOff - -> CapsLockOn : EvCapsLockPressed
  CapsLockOn - -> CapsLockOff : EvCapsLockPressed
  - -
  [*] -> ScrollLockOff
  ScrollLockOff - -> ScrollLockOn : EvCapsLockPressed
  ScrollLockOn - -> ScrollLockOff : EvCapsLockPressed
}

@enduml

PlantUML version 1.2020.08(Sun Apr 26 07:08:22 PDT 2020)
(GPL source distribution)
Java Runtime: Java(TM) SE Runtime Environment
JVM: Java HotSpot(TM) 64-Bit Server VM
Java Version: 1.8.0_251-b32
Operating System: Windows 10
Default Encoding: Cp1252
Language: en
Country: US
--></g></svg>